<?xml version="1.0" standalone="no"?>
<!DOCTYPE svg PUBLIC "-//W3C//DTD SVG 20010904//EN"
 "http://www.w3.org/TR/2001/REC-SVG-20010904/DTD/svg10.dtd">
<svg version="1.0" xmlns="http://www.w3.org/2000/svg"
 width="512.000000pt" height="512.000000pt" viewBox="0 0 512.000000 512.000000"
 preserveAspectRatio="xMidYMid meet">
<metadata>
Created by potrace 1.14, written by Peter Selinger 2001-2017
</metadata>
<g transform="translate(0.000000,512.000000) scale(0.100000,-0.100000)"
fill="#000000" stroke="none">
<path d="M735 4866 c-37 -16 -70 -52 -84 -89 -8 -20 -11 -688 -11 -2227 l0
-2199 33 -43 c19 -25 47 -48 67 -55 27 -9 466 -12 1829 -12 l1793 -1 38 21
c21 12 47 38 59 59 l21 38 -2 2210 -3 2211 -21 28 c-11 15 -36 38 -54 50 l-33
23 -1801 0 c-1481 -1 -1806 -3 -1831 -14z"/>
</g>
</svg>
