<?xml version="1.0" encoding="us-ascii" standalone="no"?><svg xmlns="http://www.w3.org/2000/svg" xmlns:xlink="http://www.w3.org/1999/xlink" contentStyleType="text/css" height="749px" preserveAspectRatio="none" style="width:644px;height:749px;background:#FFFFFF;" version="1.1" viewBox="0 0 644 749" width="644px" zoomAndPan="magnify"><defs/><g><!--class ListCourseGradesUI--><g id="elem_ListCourseGradesUI"><polygon fill="#F1F1F1" points="121.5,7,121.5,7.2102,131.7667,6.5857,142.0333,7.1933,152.3,7.3997,162.5667,6.2866,172.8333,6.9223,183.1,6.5735,193.3667,6.6165,203.6333,6.9318,213.9,6.3086,224.1667,7.5536,234.4333,6.3697,244.7,6.8022,254.9667,7.4319,265.2333,6.9142,275.5,7,275.5087,7.021,275.8495,7.1366,276.2299,7.3479,276.5912,7.513,276.9889,7.7662,277.2678,7.7322,277.4744,7.8178,277.6234,8.1724,277.6391,8.4718,277.8499,8.852,278.0698,9.236,278,9.5,277.2788,9.5,278.6785,18.7637,277.7035,28.0273,278.5338,37.291,277.505,46.5547,277.9315,55.8184,278,65.082,278.2284,65.1766,277.8385,65.4294,277.7395,65.8026,277.6649,66.1859,277.5424,66.5493,277.2678,66.8498,277.2673,66.8486,276.9509,67.0847,276.4876,66.9664,276.2434,67.3767,275.9235,67.6044,275.5,67.582,275.5,68.0266,265.2333,68.1951,254.9667,67.099,244.7,66.9298,234.4333,66.9606,224.1667,67.5232,213.9,67.3855,203.6333,68.2634,193.3667,67.4074,183.1,67.239,172.8333,67.8103,162.5667,66.9152,152.3,67.0629,142.0333,68.231,131.7667,68.0177,121.5,67.582,121.5937,67.8082,121.1054,67.3365,120.8336,67.3874,120.5147,67.3245,120.0255,66.8508,119.7322,66.8498,119.7027,66.8376,119.6246,66.5123,119.6401,66.2258,119.2916,65.7886,119.2889,65.4946,119,65.082,118.4462,65.082,118.3227,55.8184,119.5036,46.5547,118.2831,37.291,119.509,28.0273,119.2066,18.7637,119,9.5,118.9175,9.4658,119.0375,9.1013,119.4342,8.8514,119.3472,8.4012,119.7681,8.1613,119.7322,7.7322,119.6617,7.562,120.1645,7.7759,120.5011,7.5885,120.8241,7.3683,121.1525,7.161,121.5,7" style="stroke:#181818;stroke-width:0.5;"/><polygon fill="#C2C2C2" points="145.0608,31.9667,143.4484,34.1698,141.5412,37.3967,138.8136,39.5714,135.9474,40.7606,133.662,40.8638,130.7247,39.3766,127.9532,38.4049,125.8495,36.4322,124.7461,34.1738,124.0917,32.3756,123.4506,30.0267,122.41,28.0055,123.2096,26.032,123.9102,23.8702,126.5393,22.1605,128.389,19.9421,130.6784,19.2055,133.4001,18.5711,136.8904,18.948,138.8021,19.8495,141.0247,20.2582,143.7272,23.027,144.6693,25.95,145.0786,27.9444,144.615,31.2309" style="stroke:#181818;stroke-width:1.0;"/><path d="M136.7656,25.166 Q136.9219,24.9473 137.1094,24.8379 Q137.2969,24.7285 137.5156,24.7285 Q137.8906,24.7285 138.125,24.9941 Q138.3594,25.2441 138.3594,25.8535 L138.3594,27.3066 Q138.3594,27.916 138.125,28.1816 Q137.8906,28.4473 137.5156,28.4473 Q137.1719,28.4473 136.9688,28.2441 Q136.7656,28.0566 136.6563,27.541 Q136.6094,27.1816 136.4219,26.9941 Q136.0938,26.6191 135.4844,26.4004 Q134.875,26.1816 134.25,26.1816 Q133.4844,26.1816 132.8438,26.5098 Q132.2188,26.8379 131.7188,27.5879 Q131.2344,28.3379 131.2344,29.3691 L131.2344,30.4629 Q131.2344,31.6973 132.125,32.5254 Q133.0156,33.3379 134.6094,33.3379 Q135.5469,33.3379 136.2031,33.0879 Q136.5938,32.9316 137.0156,32.4941 Q137.2813,32.2285 137.4219,32.1504 Q137.5781,32.0723 137.7813,32.0723 Q138.1094,32.0723 138.3594,32.3379 Q138.625,32.5879 138.625,32.9316 Q138.625,33.2754 138.2813,33.6816 Q137.7813,34.2598 136.9844,34.5879 Q135.9063,35.041 134.6094,35.041 Q133.0938,35.041 131.8906,34.416 Q130.9063,33.916 130.2188,32.8535 Q129.5313,31.7754 129.5313,30.4941 L129.5313,29.3379 Q129.5313,28.0098 130.1406,26.8691 Q130.7656,25.7129 131.8594,25.1035 Q132.9531,24.4785 134.1875,24.4785 Q134.9219,24.4785 135.5625,24.6504 Q136.2188,24.8066 136.7656,25.166 Z " fill="#000000"/><text fill="#000000" font-family="FG Virgil" font-size="12" font-style="italic" lengthAdjust="spacing" textLength="82" x="170.5" y="24.9492">&#171;presentation&#187;</text><text fill="#000000" font-family="FG Virgil" font-size="14" lengthAdjust="spacing" textLength="127" x="148" y="43.0684">ListCourseGradesUI</text><path d="M120,51.582 L120,51.8623 L129.8125,51.0296 L139.625,51.8397 L149.4375,52.1149 L159.25,50.6308 L169.0625,51.4784 L178.875,51.0134 L188.6875,51.0707 L198.5,51.4912 L208.3125,50.6602 L218.125,52.3202 L227.9375,50.7417 L237.75,51.3183 L247.5625,52.158 L257.375,51.4677 L267.1875,51.673 L277,51.582 " fill="#F1F1F1" style="stroke:#181818;stroke-width:0.5;"/><path d="M120,59.582 L120,59.8623 L129.8125,59.0296 L139.625,59.8397 L149.4375,60.1149 L159.25,58.6308 L169.0625,59.4784 L178.875,59.0134 L188.6875,59.0707 L198.5,59.4912 L208.3125,58.6602 L218.125,60.3202 L227.9375,58.7417 L237.75,59.3183 L247.5625,60.158 L257.375,59.4677 L267.1875,59.673 L277,59.582 " fill="#F1F1F1" style="stroke:#181818;stroke-width:0.5;"/></g><!--class ListCourseExamGradesController--><g id="elem_ListCourseExamGradesController"><polygon fill="#F1F1F1" points="66,189,66,189.2102,75.8148,188.5857,85.6296,189.1933,95.4444,189.3997,105.2593,188.2866,115.0741,188.9223,124.8889,188.5735,134.7037,188.6165,144.5185,188.9318,154.3333,188.3086,164.1481,189.5536,173.963,188.3697,183.7778,188.8022,193.5926,189.4319,203.4074,188.9142,213.2222,189.0682,223.037,188.9681,232.8519,189.1785,242.6667,189.2391,252.4815,189.5857,262.2963,189.6711,272.1111,189.6793,281.9259,189.2546,291.7407,189.4636,301.5556,189.7022,311.3704,188.2788,321.1852,189.6785,331,189,330.9622,188.9087,331.4216,189.3108,331.644,189.1404,332.0519,189.4182,332.5088,189.8142,332.7678,189.7322,332.7528,189.726,332.9466,190.0992,333.1649,190.4825,333.3353,190.846,333.3524,191.1459,333.5,191.5,333.7872,191.5,332.9276,201.8138,333.7844,212.1276,334.0482,222.4414,333.9445,232.7552,334.113,243.069,333.0169,253.3828,332.8478,263.6966,332.8786,274.0104,333.5,284.3242,333.4819,284.3167,333.293,284.6527,333.417,285.1182,333.0069,285.3626,332.8086,285.6947,332.7678,286.092,332.7969,286.1623,332.3292,286.0331,331.9944,286.225,331.7899,286.7312,331.4091,286.8119,331,286.8242,331,287.5587,321.1852,286.5024,311.3704,287.1434,301.5556,287.4146,291.7407,286.3518,281.9259,286.7284,272.1111,286.9502,262.2963,287.476,252.4815,286.82,242.6667,287.2868,232.8519,286.2704,223.037,286.147,213.2222,287.3278,203.4074,286.1073,193.5926,287.3332,183.7778,287.0308,173.963,286.5563,164.1481,286.4704,154.3333,287.283,144.5185,286.5249,134.7037,287.4161,124.8889,286.2715,115.0741,287.4416,105.2593,287.3085,95.4444,287.0692,85.6296,286.8714,75.8148,287.5508,66,286.8242,66.0783,287.0132,65.668,286.7299,65.3271,286.6139,64.9227,286.3448,64.6772,286.4591,64.2322,286.092,64.2799,286.1117,64.1389,285.7604,63.752,285.3073,63.6681,284.9796,63.8099,284.7455,63.5,284.3242,63.9298,284.3242,63.4571,274.0104,63.1778,263.6966,63.2811,253.3828,62.8138,243.069,63.9147,232.7552,64.2396,222.4414,64.0264,212.1276,64.1949,201.8138,63.5,191.5,63.4579,191.4826,63.6733,191.1576,63.6735,190.7435,64.0268,190.4756,64.1618,190.1173,64.2322,189.7322,64.3027,189.9023,64.5565,189.5151,64.9222,189.3979,65.3495,189.4295,65.7188,189.3212,66,189" style="stroke:#181818;stroke-width:0.5;"/><polygon fill="#C2C2C2" points="101.7108,213.9667,100.0984,216.1698,98.1912,219.3967,95.4636,221.5714,92.5974,222.7606,90.312,222.8638,87.3747,221.3766,84.6032,220.4049,82.4995,218.4322,81.3961,216.1738,80.7417,214.3756,80.1006,212.0267,79.06,210.0055,79.8596,208.032,80.5602,205.8702,83.1893,204.1605,85.039,201.9421,87.3284,201.2055,90.0501,200.5711,93.5404,200.948,95.4521,201.8495,97.6747,202.2582,100.3772,205.027,101.3193,207.95,101.7286,209.9444,101.265,213.2309" style="stroke:#181818;stroke-width:1.0;"/><path d="M93.4156,207.166 Q93.5719,206.9473 93.7594,206.8379 Q93.9469,206.7285 94.1656,206.7285 Q94.5406,206.7285 94.775,206.9941 Q95.0094,207.2441 95.0094,207.8535 L95.0094,209.3066 Q95.0094,209.916 94.775,210.1816 Q94.5406,210.4473 94.1656,210.4473 Q93.8219,210.4473 93.6188,210.2441 Q93.4156,210.0566 93.3063,209.541 Q93.2594,209.1816 93.0719,208.9941 Q92.7438,208.6191 92.1344,208.4004 Q91.525,208.1816 90.9,208.1816 Q90.1344,208.1816 89.4938,208.5098 Q88.8688,208.8379 88.3688,209.5879 Q87.8844,210.3379 87.8844,211.3691 L87.8844,212.4629 Q87.8844,213.6973 88.775,214.5254 Q89.6656,215.3379 91.2594,215.3379 Q92.1969,215.3379 92.8531,215.0879 Q93.2438,214.9316 93.6656,214.4941 Q93.9313,214.2285 94.0719,214.1504 Q94.2281,214.0723 94.4313,214.0723 Q94.7594,214.0723 95.0094,214.3379 Q95.275,214.5879 95.275,214.9316 Q95.275,215.2754 94.9313,215.6816 Q94.4313,216.2598 93.6344,216.5879 Q92.5563,217.041 91.2594,217.041 Q89.7438,217.041 88.5406,216.416 Q87.5563,215.916 86.8688,214.8535 Q86.1813,213.7754 86.1813,212.4941 L86.1813,211.3379 Q86.1813,210.0098 86.7906,208.8691 Q87.4156,207.7129 88.5094,207.1035 Q89.6031,206.4785 90.8375,206.4785 Q91.5719,206.4785 92.2125,206.6504 Q92.8688,206.8066 93.4156,207.166 Z " fill="#000000"/><text fill="#000000" font-family="FG Virgil" font-size="12" font-style="italic" lengthAdjust="spacing" textLength="74" x="175.85" y="206.9492">&#171;application&#187;</text><text fill="#000000" font-family="FG Virgil" font-size="14" lengthAdjust="spacing" textLength="211" x="107.35" y="225.0684">ListCourseExamGradesController</text><path d="M64.5,233.582 L64.5,233.8623 L74.4259,233.0296 L84.3519,233.8397 L94.2778,234.1149 L104.2037,232.6308 L114.1296,233.4784 L124.0556,233.0134 L133.9815,233.0707 L143.9074,233.4912 L153.8333,232.6602 L163.7593,234.3202 L173.6852,232.7417 L183.6111,233.3183 L193.537,234.158 L203.463,233.4677 L213.3889,233.673 L223.3148,233.5394 L233.2407,233.8201 L243.1667,233.9009 L253.0926,234.363 L263.0185,234.4768 L272.9444,234.4877 L282.8704,233.9215 L292.7963,234.2001 L302.7222,234.5183 L312.6481,232.6205 L322.5741,234.4867 L332.5,233.582 " fill="#F1F1F1" style="stroke:#181818;stroke-width:0.5;"/><path d="M64.5,241.582 L64.5,241.8623 L74.4259,241.0296 L84.3519,241.8397 L94.2778,242.1149 L104.2037,240.6308 L114.1296,241.4784 L124.0556,241.0134 L133.9815,241.0707 L143.9074,241.4912 L153.8333,240.6602 L163.7593,242.3202 L173.6852,240.7417 L183.6111,241.3183 L193.537,242.158 L203.463,241.4677 L213.3889,241.673 L223.3148,241.5394 L233.2407,241.8201 L243.1667,241.9009 L253.0926,242.363 L263.0185,242.4768 L272.9444,242.4877 L282.8704,241.9215 L292.7963,242.2001 L302.7222,242.5183 L312.6481,240.6205 L322.5741,242.4867 L332.5,241.582 " fill="#F1F1F1" style="stroke:#181818;stroke-width:0.5;"/><text fill="#000000" font-family="FG Virgil" font-size="14" lengthAdjust="spacing" textLength="258" x="69.5" y="260.6895">getExams(User user, String courseCode)</text><text fill="#000000" font-family="FG Virgil" font-size="14" lengthAdjust="spacing" textLength="197" x="69.5" y="279.3105">getTeacherCourses(User user)</text></g><!--class ExamService--><g id="elem_ExamService"><polygon fill="#F1F1F1" points="85,347,85,347.2102,94.8696,346.5857,104.7391,347.1933,114.6087,347.3997,124.4783,346.2866,134.3478,346.9223,144.2174,346.5735,154.087,346.6165,163.9565,346.9318,173.8261,346.3086,183.6957,347.5536,193.5652,346.3697,203.4348,346.8022,213.3043,347.4319,223.1739,346.9142,233.0435,347.0682,242.913,346.9681,252.7826,347.1785,262.6522,347.2391,272.5217,347.5857,282.3913,347.6711,292.2609,347.6793,302.1304,347.2546,312,347,312.0591,347.1428,312.4431,347.3627,312.6151,347.0708,313.1472,347.6483,313.3764,347.4945,313.7678,347.7322,313.9322,347.8003,313.7618,348.0226,314.0396,348.4306,314.4355,348.8875,314.3385,349.1402,314.5,349.5,314.6053,349.5,314.8386,359.8138,314.9162,370.1276,314.4961,380.4414,314.7872,390.7552,313.9276,401.069,314.7844,411.3828,315.0482,421.6966,314.9445,432.0104,314.5,442.3242,314.6888,442.4024,314.2048,442.6161,314.0063,442.9481,313.8693,443.3056,313.8961,443.7309,313.7678,444.092,313.7427,444.0315,313.5011,444.4483,313.0384,444.3311,312.6633,444.4257,312.3827,444.7481,312,444.8242,312,444.1574,302.1304,444.3051,292.2609,445.4732,282.3913,445.2599,272.5217,445.5587,262.6522,444.5024,252.7826,445.1434,242.913,445.4146,233.0435,444.3518,223.1739,444.7284,213.3043,444.9502,203.4348,445.476,193.5652,444.82,183.6957,445.2868,173.8261,444.2704,163.9565,444.147,154.087,445.3278,144.2174,444.1073,134.3478,445.3332,124.4783,445.0308,114.6087,444.5563,104.7391,444.4704,94.8696,445.283,85,444.8242,84.9618,444.732,84.7219,444.86,84.2224,444.3611,84.0181,444.575,83.6476,444.3876,83.2322,444.092,83.3077,444.1232,83.1003,443.7445,83.1631,443.4776,82.9819,443.1096,82.6986,442.6994,82.5,442.3242,82.7682,442.3242,82.3697,432.0104,83.2165,421.6966,82.6549,411.3828,82.6726,401.069,81.8916,390.7552,82.0948,380.4414,83.0307,370.1276,82.9298,359.8138,82.5,349.5,82.4868,349.4945,82.5472,349.1054,82.7255,348.765,82.728,348.3518,83.2135,348.1387,83.2322,347.7322,83.3266,347.96,83.6529,347.7479,84.028,347.6534,84.2755,347.2508,84.6576,347.1733,85,347" style="stroke:#181818;stroke-width:0.5;"/><polygon fill="#C2C2C2" points="164.8108,371.9667,163.1984,374.1698,161.2912,377.3967,158.5636,379.5714,155.6974,380.7606,153.412,380.8638,150.4747,379.3766,147.7032,378.4049,145.5995,376.4322,144.4961,374.1738,143.8417,372.3756,143.2006,370.0267,142.16,368.0055,142.9596,366.032,143.6602,363.8702,146.2893,362.1605,148.139,359.9421,150.4284,359.2055,153.1501,358.5711,156.6404,358.948,158.5521,359.8495,160.7747,360.2582,163.4772,363.027,164.4193,365.95,164.8286,367.9444,164.365,371.2309" style="stroke:#181818;stroke-width:1.0;"/><path d="M156.5156,365.166 Q156.6719,364.9473 156.8594,364.8379 Q157.0469,364.7285 157.2656,364.7285 Q157.6406,364.7285 157.875,364.9941 Q158.1094,365.2441 158.1094,365.8535 L158.1094,367.3066 Q158.1094,367.916 157.875,368.1816 Q157.6406,368.4473 157.2656,368.4473 Q156.9219,368.4473 156.7188,368.2441 Q156.5156,368.0566 156.4063,367.541 Q156.3594,367.1816 156.1719,366.9941 Q155.8438,366.6191 155.2344,366.4004 Q154.625,366.1816 154,366.1816 Q153.2344,366.1816 152.5938,366.5098 Q151.9688,366.8379 151.4688,367.5879 Q150.9844,368.3379 150.9844,369.3691 L150.9844,370.4629 Q150.9844,371.6973 151.875,372.5254 Q152.7656,373.3379 154.3594,373.3379 Q155.2969,373.3379 155.9531,373.0879 Q156.3438,372.9316 156.7656,372.4941 Q157.0313,372.2285 157.1719,372.1504 Q157.3281,372.0723 157.5313,372.0723 Q157.8594,372.0723 158.1094,372.3379 Q158.375,372.5879 158.375,372.9316 Q158.375,373.2754 158.0313,373.6816 Q157.5313,374.2598 156.7344,374.5879 Q155.6563,375.041 154.3594,375.041 Q152.8438,375.041 151.6406,374.416 Q150.6563,373.916 149.9688,372.8535 Q149.2813,371.7754 149.2813,370.4941 L149.2813,369.3379 Q149.2813,368.0098 149.8906,366.8691 Q150.5156,365.7129 151.6094,365.1035 Q152.7031,364.4785 153.9375,364.4785 Q154.6719,364.4785 155.3125,364.6504 Q155.9688,364.8066 156.5156,365.166 Z " fill="#000000"/><text fill="#000000" font-family="FG Virgil" font-size="12" font-style="italic" lengthAdjust="spacing" textLength="53" x="188.25" y="364.9492">&#171;service&#187;</text><text fill="#000000" font-family="FG Virgil" font-size="14" lengthAdjust="spacing" textLength="81" x="174.25" y="383.0684">ExamService</text><path d="M83.5,391.582 L83.5,391.8623 L93.5,391.0296 L103.5,391.8397 L113.5,392.1149 L123.5,390.6308 L133.5,391.4784 L143.5,391.0134 L153.5,391.0707 L163.5,391.4912 L173.5,390.6602 L183.5,392.3202 L193.5,390.7417 L203.5,391.3183 L213.5,392.158 L223.5,391.4677 L233.5,391.673 L243.5,391.5394 L253.5,391.8201 L263.5,391.9009 L273.5,392.363 L283.5,392.4768 L293.5,392.4877 L303.5,391.9215 L313.5,391.582 " fill="#F1F1F1" style="stroke:#181818;stroke-width:0.5;"/><path d="M83.5,399.582 L83.5,399.8623 L93.5,399.0296 L103.5,399.8397 L113.5,400.1149 L123.5,398.6308 L133.5,399.4784 L143.5,399.0134 L153.5,399.0707 L163.5,399.4912 L173.5,398.6602 L183.5,400.3202 L193.5,398.7417 L203.5,399.3183 L213.5,400.158 L223.5,399.4677 L233.5,399.673 L243.5,399.5394 L253.5,399.8201 L263.5,399.9009 L273.5,400.363 L283.5,400.4768 L293.5,400.4877 L303.5,399.9215 L313.5,399.582 " fill="#F1F1F1" style="stroke:#181818;stroke-width:0.5;"/><text fill="#000000" font-family="FG Virgil" font-size="14" lengthAdjust="spacing" textLength="197" x="88.5" y="418.6895">getTeacherCourses(User user)</text><text fill="#000000" font-family="FG Virgil" font-size="14" lengthAdjust="spacing" textLength="220" x="88.5" y="437.3105">listTeacherGrades(Course course)</text></g><!--class Course--><g id="elem_Course"><polygon fill="#F1F1F1" points="9.5,514.5,9.5,514.7102,20.0714,514.0857,30.6429,514.6933,41.2143,514.8997,51.7857,513.7866,62.3571,514.4223,72.9286,514.0735,83.5,514.5,83.4511,514.3819,83.8449,514.6255,84.1189,514.58,84.6313,515.1098,84.8338,514.8917,85.2678,515.2322,85.2069,515.207,85.5472,515.6409,85.5342,515.9284,85.7281,516.3016,85.8437,516.6424,86,517,86.1785,517,86.2391,527.6004,86.5857,538.2009,86.6711,548.8013,86.6793,559.4018,86.2546,570.0022,86.4636,580.6027,86,591.2031,86.2163,591.2927,85.6315,591.4647,85.9161,591.9968,85.4693,592.226,85.5786,592.6854,85.2678,592.9709,85.2046,592.8184,84.9055,593.0962,84.6553,593.4922,84.2009,593.3952,83.867,593.5891,83.5,593.7031,83.5,594.0418,72.9286,594.1194,62.3571,593.6992,51.7857,593.9903,41.2143,593.1307,30.6429,593.9875,20.0714,594.2513,9.5,593.7031,9.5567,593.84,9.2246,593.7455,8.7313,593.2615,8.3561,593.0629,8.0065,592.926,7.7322,592.9709,7.7141,592.9634,7.5253,592.5923,7.6492,592.3507,7.2391,591.8879,7.0408,591.5129,7,591.2031,7.2283,591.2031,6.3332,580.6027,6.4809,570.0022,7.649,559.4018,7.4357,548.8013,7.7345,538.2009,6.6782,527.6004,7,517,7.0983,517.0407,7.3283,516.7218,7.1474,516.2326,7.4098,515.9271,7.6246,515.6019,7.7322,515.2322,7.8154,515.4329,8.0853,515.0845,8.4983,515.0818,8.7223,514.6223,9.0601,514.4379,9.5,514.5" style="stroke:#181818;stroke-width:0.5;"/><polygon fill="#C2C2C2" points="33.0608,539.4667,31.4484,541.6698,29.5412,544.8967,26.8136,547.0714,23.9474,548.2606,21.662,548.3638,18.7247,546.8766,15.9532,545.9049,13.8495,543.9322,12.7461,541.6738,12.0917,539.8756,11.4506,537.5267,10.41,535.5055,11.2096,533.532,11.9102,531.3702,14.5393,529.6605,16.389,527.4421,18.6784,526.7055,21.4001,526.0711,24.8904,526.448,26.8021,527.3495,29.0247,527.7582,31.7272,530.527,32.6693,533.45,33.0786,535.4444,32.615,538.7309" style="stroke:#181818;stroke-width:1.0;"/><path d="M24.7656,532.666 Q24.9219,532.4473 25.1094,532.3379 Q25.2969,532.2285 25.5156,532.2285 Q25.8906,532.2285 26.125,532.4941 Q26.3594,532.7441 26.3594,533.3535 L26.3594,534.8066 Q26.3594,535.416 26.125,535.6816 Q25.8906,535.9473 25.5156,535.9473 Q25.1719,535.9473 24.9688,535.7441 Q24.7656,535.5566 24.6563,535.041 Q24.6094,534.6816 24.4219,534.4941 Q24.0938,534.1191 23.4844,533.9004 Q22.875,533.6816 22.25,533.6816 Q21.4844,533.6816 20.8438,534.0098 Q20.2188,534.3379 19.7188,535.0879 Q19.2344,535.8379 19.2344,536.8691 L19.2344,537.9629 Q19.2344,539.1973 20.125,540.0254 Q21.0156,540.8379 22.6094,540.8379 Q23.5469,540.8379 24.2031,540.5879 Q24.5938,540.4316 25.0156,539.9941 Q25.2813,539.7285 25.4219,539.6504 Q25.5781,539.5723 25.7813,539.5723 Q26.1094,539.5723 26.3594,539.8379 Q26.625,540.0879 26.625,540.4316 Q26.625,540.7754 26.2813,541.1816 Q25.7813,541.7598 24.9844,542.0879 Q23.9063,542.541 22.6094,542.541 Q21.0938,542.541 19.8906,541.916 Q18.9063,541.416 18.2188,540.3535 Q17.5313,539.2754 17.5313,537.9941 L17.5313,536.8379 Q17.5313,535.5098 18.1406,534.3691 Q18.7656,533.2129 19.8594,532.6035 Q20.9531,531.9785 22.1875,531.9785 Q22.9219,531.9785 23.5625,532.1504 Q24.2188,532.3066 24.7656,532.666 Z " fill="#000000"/><text fill="#000000" font-family="FG Virgil" font-size="12" font-style="italic" lengthAdjust="spacing" textLength="51" x="34" y="532.4492">&#171;course&#187;</text><text fill="#000000" font-family="FG Virgil" font-size="14" lengthAdjust="spacing" textLength="46" x="36.5" y="550.5684">Course</text><path d="M8,559.082 L8,559.3623 L17.625,558.5296 L27.25,559.3397 L36.875,559.6149 L46.5,558.1308 L56.125,558.9784 L65.75,558.5134 L75.375,558.5707 L85,559.082 " fill="#F1F1F1" style="stroke:#181818;stroke-width:0.5;"/><path d="M8,567.082 L8,567.3623 L17.625,566.5296 L27.25,567.3397 L36.875,567.6149 L46.5,566.1308 L56.125,566.9784 L65.75,566.5134 L75.375,566.5707 L85,567.082 " fill="#F1F1F1" style="stroke:#181818;stroke-width:0.5;"/><text fill="#000000" font-family="FG Virgil" font-size="14" lengthAdjust="spacing" textLength="65" x="13" y="586.1895">teachers()</text></g><!--class PersistenceContext--><g id="elem_PersistenceContext"><polygon fill="#F1F1F1" points="124,514.5,124,514.7102,133.9333,514.0857,143.8667,514.6933,153.8,514.8997,163.7333,513.7866,173.6667,514.4223,183.6,514.0735,193.5333,514.1165,203.4667,514.4318,213.4,513.8086,223.3333,515.0536,233.2667,513.8697,243.2,514.3022,253.1333,514.9319,263.0667,514.4142,273,514.5,273.0087,514.521,273.3495,514.6366,273.7299,514.8479,274.0912,515.013,274.4889,515.2662,274.7678,515.2322,274.9744,515.3178,275.1234,515.6724,275.1391,515.9718,275.3499,516.352,275.5698,516.736,275.5,517,274.7788,517,276.1785,527.6004,275.2035,538.2009,276.0338,548.8013,275.005,559.4018,275.4315,570.0022,276.2416,580.6027,275.5,591.2031,275.485,591.1969,275.386,591.5701,275.3114,591.9534,275.1888,592.3169,274.913,592.6168,274.7678,592.9709,274.8044,593.0593,274.3412,592.9411,274.0969,593.3514,273.777,593.5791,273.4103,593.6936,273,593.7031,273,594.3161,263.0667,593.22,253.1333,593.0509,243.2,593.0817,233.2667,593.6442,223.3333,593.5066,213.4,594.3845,203.4667,593.5284,193.5333,593.3601,183.6,593.9314,173.6667,593.0363,163.7333,593.184,153.8,594.3521,143.8667,594.1388,133.9333,594.4376,124,593.7031,123.959,593.604,123.6872,593.655,123.3682,593.5921,122.8791,593.1183,122.5736,593.0878,122.2322,592.9709,122.271,592.987,122.2865,592.7005,121.938,592.2633,121.9353,591.9692,121.4759,591.486,121.5,591.2031,120.8227,591.2031,122.0036,580.6027,120.7831,570.0022,122.009,559.4018,121.7066,548.8013,121.2321,538.2009,121.1462,527.6004,121.5,517,121.6413,517.0585,121.5543,516.6083,121.9752,516.3684,121.7691,515.8688,122.2759,515.6645,122.2322,515.2322,122.294,515.3814,122.617,515.1612,122.9454,514.9539,123.3856,515.0167,123.7247,514.8354,124,514.5" style="stroke:#181818;stroke-width:0.5;"/><polygon fill="#C2C2C2" points="147.5608,539.4667,145.9484,541.6698,144.0412,544.8967,141.3136,547.0714,138.4474,548.2606,136.162,548.3638,133.2247,546.8766,130.4532,545.9049,128.3495,543.9322,127.2461,541.6738,126.5917,539.8756,125.9506,537.5267,124.91,535.5055,125.7096,533.532,126.4102,531.3702,129.0393,529.6605,130.889,527.4421,133.1784,526.7055,135.9001,526.0711,139.3904,526.448,141.3021,527.3495,143.5247,527.7582,146.2272,530.527,147.1693,533.45,147.5786,535.4444,147.115,538.7309" style="stroke:#181818;stroke-width:1.0;"/><path d="M139.2656,532.666 Q139.4219,532.4473 139.6094,532.3379 Q139.7969,532.2285 140.0156,532.2285 Q140.3906,532.2285 140.625,532.4941 Q140.8594,532.7441 140.8594,533.3535 L140.8594,534.8066 Q140.8594,535.416 140.625,535.6816 Q140.3906,535.9473 140.0156,535.9473 Q139.6719,535.9473 139.4688,535.7441 Q139.2656,535.5566 139.1563,535.041 Q139.1094,534.6816 138.9219,534.4941 Q138.5938,534.1191 137.9844,533.9004 Q137.375,533.6816 136.75,533.6816 Q135.9844,533.6816 135.3438,534.0098 Q134.7188,534.3379 134.2188,535.0879 Q133.7344,535.8379 133.7344,536.8691 L133.7344,537.9629 Q133.7344,539.1973 134.625,540.0254 Q135.5156,540.8379 137.1094,540.8379 Q138.0469,540.8379 138.7031,540.5879 Q139.0938,540.4316 139.5156,539.9941 Q139.7813,539.7285 139.9219,539.6504 Q140.0781,539.5723 140.2813,539.5723 Q140.6094,539.5723 140.8594,539.8379 Q141.125,540.0879 141.125,540.4316 Q141.125,540.7754 140.7813,541.1816 Q140.2813,541.7598 139.4844,542.0879 Q138.4063,542.541 137.1094,542.541 Q135.5938,542.541 134.3906,541.916 Q133.4063,541.416 132.7188,540.3535 Q132.0313,539.2754 132.0313,537.9941 L132.0313,536.8379 Q132.0313,535.5098 132.6406,534.3691 Q133.2656,533.2129 134.3594,532.6035 Q135.4531,531.9785 136.6875,531.9785 Q137.4219,531.9785 138.0625,532.1504 Q138.7188,532.3066 139.2656,532.666 Z " fill="#000000"/><text fill="#000000" font-family="FG Virgil" font-size="12" font-style="italic" lengthAdjust="spacing" textLength="77" x="173" y="532.4492">&#171;persistence&#187;</text><text fill="#000000" font-family="FG Virgil" font-size="14" lengthAdjust="spacing" textLength="122" x="150.5" y="550.5684">PersistenceContext</text><path d="M122.5,559.082 L122.5,559.3623 L132.6333,558.5296 L142.7667,559.3397 L152.9,559.6149 L163.0333,558.1308 L173.1667,558.9784 L183.3,558.5134 L193.4333,558.5707 L203.5667,558.9912 L213.7,558.1602 L223.8333,559.8202 L233.9667,558.2417 L244.1,558.8183 L254.2333,559.658 L264.3667,558.9677 L274.5,559.082 " fill="#F1F1F1" style="stroke:#181818;stroke-width:0.5;"/><path d="M122.5,567.082 L122.5,567.3623 L132.6333,566.5296 L142.7667,567.3397 L152.9,567.6149 L163.0333,566.1308 L173.1667,566.9784 L183.3,566.5134 L193.4333,566.5707 L203.5667,566.9912 L213.7,566.1602 L223.8333,567.8202 L233.9667,566.2417 L244.1,566.8183 L254.2333,567.658 L264.3667,566.9677 L274.5,567.082 " fill="#F1F1F1" style="stroke:#181818;stroke-width:0.5;"/><text fill="#000000" font-family="FG Virgil" font-size="14" lengthAdjust="spacing" textLength="64" x="127.5" y="586.1895">factories()</text></g><!--class RepositoryFactory--><g id="elem_RepositoryFactory"><polygon fill="#F1F1F1" points="313,505,313,505.2102,323.2143,504.5857,333.4286,505.1933,343.6429,505.3997,353.8571,504.2866,364.0714,504.9223,374.2857,504.5735,384.5,504.6165,394.7143,504.9318,404.9286,504.3086,415.1429,505.5536,425.3571,504.3697,435.5714,504.8022,445.7857,505.4319,456,505,455.9891,504.9736,456.3623,505.1675,456.703,505.2831,457.0834,505.4943,457.4447,505.6594,457.7678,505.7322,457.9481,505.8069,458.1209,506.1714,458.2698,506.526,458.2855,506.8254,458.4963,507.2056,458.5,507.5,459.2022,507.5,457.7788,517.8138,459.1785,528.1276,458.2035,538.4414,459.0338,548.7552,458.005,559.069,458.4315,569.3828,459.2416,579.6966,458.4513,590.0104,458.5,600.3242,458.5324,600.3377,458.4578,600.721,458.3353,601.0844,458.0595,601.3844,458.0027,601.7751,457.7678,602.092,457.6947,601.9157,457.4505,602.326,457.1306,602.5537,456.7638,602.6682,456.4318,602.8666,456,602.8242,456,602.3411,445.7857,602.172,435.5714,602.2028,425.3571,602.7653,415.1429,602.6277,404.9286,603.5056,394.7143,602.6495,384.5,602.4812,374.2857,603.0525,364.0714,602.1574,353.8571,602.3051,343.6429,603.4732,333.4286,603.2599,323.2143,603.5587,313,602.8242,312.959,602.7251,312.6872,602.7761,312.3682,602.7132,311.8791,602.2394,311.5736,602.2089,311.2322,602.092,311.271,602.1081,311.2865,601.8216,310.938,601.3843,310.9353,601.0903,310.4759,600.6071,310.5,600.3242,309.8227,600.3242,311.0036,590.0104,309.7831,579.6966,311.009,569.3828,310.7066,559.069,310.2321,548.7552,310.1462,538.4414,310.9588,528.1276,310.2007,517.8138,310.5,507.5,310.6823,507.5755,310.4762,507.0759,310.983,506.8717,311.0885,506.5011,311.1612,506.117,311.2322,505.7322,311.2383,505.7468,311.6785,505.8096,312.0176,505.6283,312.3145,505.345,312.6807,505.229,313,505" style="stroke:#181818;stroke-width:0.5;"/><polygon fill="#C2C2C2" points="336.5608,529.9667,334.9484,532.1698,333.0412,535.3967,330.3136,537.5714,327.4474,538.7606,325.162,538.8638,322.2247,537.3766,319.4532,536.4049,317.3495,534.4322,316.2461,532.1738,315.5917,530.3756,314.9506,528.0267,313.91,526.0055,314.7096,524.032,315.4102,521.8702,318.0393,520.1605,319.889,517.9421,322.1784,517.2055,324.9001,516.5711,328.3904,516.948,330.3021,517.8495,332.5247,518.2582,335.2272,521.027,336.1693,523.95,336.5786,525.9444,336.115,529.2309" style="stroke:#181818;stroke-width:1.0;"/><path d="M328.2656,523.166 Q328.4219,522.9473 328.6094,522.8379 Q328.7969,522.7285 329.0156,522.7285 Q329.3906,522.7285 329.625,522.9941 Q329.8594,523.2441 329.8594,523.8535 L329.8594,525.3066 Q329.8594,525.916 329.625,526.1816 Q329.3906,526.4473 329.0156,526.4473 Q328.6719,526.4473 328.4688,526.2441 Q328.2656,526.0566 328.1563,525.541 Q328.1094,525.1816 327.9219,524.9941 Q327.5938,524.6191 326.9844,524.4004 Q326.375,524.1816 325.75,524.1816 Q324.9844,524.1816 324.3438,524.5098 Q323.7188,524.8379 323.2188,525.5879 Q322.7344,526.3379 322.7344,527.3691 L322.7344,528.4629 Q322.7344,529.6973 323.625,530.5254 Q324.5156,531.3379 326.1094,531.3379 Q327.0469,531.3379 327.7031,531.0879 Q328.0938,530.9316 328.5156,530.4941 Q328.7813,530.2285 328.9219,530.1504 Q329.0781,530.0723 329.2813,530.0723 Q329.6094,530.0723 329.8594,530.3379 Q330.125,530.5879 330.125,530.9316 Q330.125,531.2754 329.7813,531.6816 Q329.2813,532.2598 328.4844,532.5879 Q327.4063,533.041 326.1094,533.041 Q324.5938,533.041 323.3906,532.416 Q322.4063,531.916 321.7188,530.8535 Q321.0313,529.7754 321.0313,528.4941 L321.0313,527.3379 Q321.0313,526.0098 321.6406,524.8691 Q322.2656,523.7129 323.3594,523.1035 Q324.4531,522.4785 325.6875,522.4785 Q326.4219,522.4785 327.0625,522.6504 Q327.7188,522.8066 328.2656,523.166 Z " fill="#000000"/><text fill="#000000" font-family="FG Virgil" font-size="12" font-style="italic" lengthAdjust="spacing" textLength="50" x="372.5" y="522.9492">&#171;factory&#187;</text><text fill="#000000" font-family="FG Virgil" font-size="14" lengthAdjust="spacing" textLength="116" x="339.5" y="541.0684">RepositoryFactory</text><path d="M311.5,549.582 L311.5,549.8623 L321.2333,549.0296 L330.9667,549.8397 L340.7,550.1149 L350.4333,548.6308 L360.1667,549.4784 L369.9,549.0134 L379.6333,549.0707 L389.3667,549.4912 L399.1,548.6602 L408.8333,550.3202 L418.5667,548.7417 L428.3,549.3183 L438.0333,550.158 L447.7667,549.4677 L457.5,549.582 " fill="#F1F1F1" style="stroke:#181818;stroke-width:0.5;"/><path d="M311.5,557.582 L311.5,557.8623 L321.2333,557.0296 L330.9667,557.8397 L340.7,558.1149 L350.4333,556.6308 L360.1667,557.4784 L369.9,557.0134 L379.6333,557.0707 L389.3667,557.4912 L399.1,556.6602 L408.8333,558.3202 L418.5667,556.7417 L428.3,557.3183 L438.0333,558.158 L447.7667,557.4677 L457.5,557.582 " fill="#F1F1F1" style="stroke:#181818;stroke-width:0.5;"/><text fill="#000000" font-family="FG Virgil" font-size="14" lengthAdjust="spacing" textLength="50" x="316.5" y="576.6895">exams()</text><text fill="#000000" font-family="FG Virgil" font-size="14" lengthAdjust="spacing" textLength="60" x="316.5" y="595.3105">courses()</text></g><!--class ExamRepository--><g id="elem_ExamRepository"><polygon fill="#F1F1F1" points="126.5,663,126.5,663.2102,136.5833,662.5857,146.6667,663.1933,156.75,663.3997,166.8333,662.2866,176.9167,662.9223,187,662.5735,197.0833,662.6165,207.1667,662.9318,217.25,662.3086,227.3333,663.5536,237.4167,662.3697,247.5,662.8022,257.5833,663.4319,267.6667,662.9142,277.75,663.0682,287.8333,662.9681,297.9167,663.1785,308,663.2391,318.0833,663.5857,328.1667,663.6711,338.25,663.6793,348.3333,663.2546,358.4167,663.4636,368.5,663,368.5896,663.2163,368.7616,662.9244,369.2937,663.5018,369.5228,663.348,369.9823,663.7502,370.2678,663.7322,370.1153,663.6691,370.3931,664.077,370.789,664.5339,370.6921,664.7867,370.886,665.1599,371,665.5,371.3386,665.5,371.4162,676.1004,370.9961,686.7009,371.2872,697.3013,370.4276,707.9018,371.2844,718.5022,371.5482,729.1027,371,739.7031,371.1369,739.7598,371.0423,740.1349,370.5583,740.3486,370.3598,740.6806,370.2228,741.0381,370.2678,741.4709,370.2603,741.4528,369.8891,741.5568,369.6476,741.9736,369.1848,741.8564,368.8098,741.951,368.5,742.2031,368.5,742.4314,358.4167,741.5363,348.3333,741.684,338.25,742.8521,328.1667,742.6388,318.0833,742.9376,308,741.8813,297.9167,742.5223,287.8333,742.7935,277.75,741.7307,267.6667,742.1073,257.5833,742.3291,247.5,742.8549,237.4167,742.1989,227.3333,742.6657,217.25,741.6493,207.1667,741.5259,197.0833,742.7067,187,741.4862,176.9167,742.7121,166.8333,742.4098,156.75,741.9352,146.6667,741.8494,136.5833,742.6619,126.5,742.2031,126.4618,742.1109,126.2219,742.2389,125.7224,741.74,125.5181,741.9539,125.1476,741.7665,124.7322,741.4709,124.8077,741.5021,124.6003,741.1234,124.6631,740.8565,124.4819,740.4885,124.1986,740.0783,124,739.7031,124.2682,739.7031,123.8697,729.1027,124.7165,718.5022,124.1549,707.9018,124.1726,697.3013,123.3916,686.7009,123.5948,676.1004,124,665.5,124.1634,665.5677,124.2788,665.2013,124.2797,664.7874,124.3401,664.3982,124.5184,664.0579,124.7322,663.7322,124.6447,663.5209,125.1387,663.7135,125.5337,663.6671,125.86,663.455,126.2351,663.3605,126.5,663" style="stroke:#181818;stroke-width:0.5;"/><polygon fill="#C2C2C2" points="203.3108,687.9667,201.6984,690.1698,199.7912,693.3967,197.0636,695.5714,194.1974,696.7606,191.912,696.8638,188.9747,695.3766,186.2032,694.4049,184.0995,692.4322,182.9961,690.1738,182.3417,688.3756,181.7006,686.0267,180.66,684.0055,181.4596,682.032,182.1602,679.8702,184.7893,678.1605,186.639,675.9421,188.9284,675.2055,191.6501,674.5711,195.1404,674.948,197.0521,675.8495,199.2747,676.2582,201.9772,679.027,202.9193,681.95,203.3286,683.9444,202.865,687.2309" style="stroke:#181818;stroke-width:1.0;"/><path d="M195.0156,681.166 Q195.1719,680.9473 195.3594,680.8379 Q195.5469,680.7285 195.7656,680.7285 Q196.1406,680.7285 196.375,680.9941 Q196.6094,681.2441 196.6094,681.8535 L196.6094,683.3066 Q196.6094,683.916 196.375,684.1816 Q196.1406,684.4473 195.7656,684.4473 Q195.4219,684.4473 195.2188,684.2441 Q195.0156,684.0566 194.9063,683.541 Q194.8594,683.1816 194.6719,682.9941 Q194.3438,682.6191 193.7344,682.4004 Q193.125,682.1816 192.5,682.1816 Q191.7344,682.1816 191.0938,682.5098 Q190.4688,682.8379 189.9688,683.5879 Q189.4844,684.3379 189.4844,685.3691 L189.4844,686.4629 Q189.4844,687.6973 190.375,688.5254 Q191.2656,689.3379 192.8594,689.3379 Q193.7969,689.3379 194.4531,689.0879 Q194.8438,688.9316 195.2656,688.4941 Q195.5313,688.2285 195.6719,688.1504 Q195.8281,688.0723 196.0313,688.0723 Q196.3594,688.0723 196.6094,688.3379 Q196.875,688.5879 196.875,688.9316 Q196.875,689.2754 196.5313,689.6816 Q196.0313,690.2598 195.2344,690.5879 Q194.1563,691.041 192.8594,691.041 Q191.3438,691.041 190.1406,690.416 Q189.1563,689.916 188.4688,688.8535 Q187.7813,687.7754 187.7813,686.4941 L187.7813,685.3379 Q187.7813,684.0098 188.3906,682.8691 Q189.0156,681.7129 190.1094,681.1035 Q191.2031,680.4785 192.4375,680.4785 Q193.1719,680.4785 193.8125,680.6504 Q194.4688,680.8066 195.0156,681.166 Z " fill="#000000"/><text fill="#000000" font-family="FG Virgil" font-size="12" font-style="italic" lengthAdjust="spacing" textLength="68" x="229.75" y="680.9492">&#171;repository&#187;</text><text fill="#000000" font-family="FG Virgil" font-size="14" lengthAdjust="spacing" textLength="102" x="212.75" y="699.0684">ExamRepository</text><path d="M125,707.582 L125,707.8623 L134.8,707.0296 L144.6,707.8397 L154.4,708.1149 L164.2,706.6308 L174,707.4784 L183.8,707.0134 L193.6,707.0707 L203.4,707.4912 L213.2,706.6602 L223,708.3202 L232.8,706.7417 L242.6,707.3183 L252.4,708.158 L262.2,707.4677 L272,707.673 L281.8,707.5394 L291.6,707.8201 L301.4,707.9009 L311.2,708.363 L321,708.4768 L330.8,708.4877 L340.6,707.9215 L350.4,708.2001 L360.2,708.5183 L370,707.582 " fill="#F1F1F1" style="stroke:#181818;stroke-width:0.5;"/><path d="M125,715.582 L125,715.8623 L134.8,715.0296 L144.6,715.8397 L154.4,716.1149 L164.2,714.6308 L174,715.4784 L183.8,715.0134 L193.6,715.0707 L203.4,715.4912 L213.2,714.6602 L223,716.3202 L232.8,714.7417 L242.6,715.3183 L252.4,716.158 L262.2,715.4677 L272,715.673 L281.8,715.5394 L291.6,715.8201 L301.4,715.9009 L311.2,716.363 L321,716.4768 L330.8,716.4877 L340.6,715.9215 L350.4,716.2001 L360.2,716.5183 L370,715.582 " fill="#F1F1F1" style="stroke:#181818;stroke-width:0.5;"/><text fill="#000000" font-family="FG Virgil" font-size="14" lengthAdjust="spacing" textLength="235" x="130" y="734.6895">findGradesByCourse(Course course)</text></g><!--class CourseRepository--><g id="elem_CourseRepository"><polygon fill="#F1F1F1" points="408.5,663,408.5,663.2102,418.3261,662.5857,428.1522,663.1933,437.9783,663.3997,447.8043,662.2866,457.6304,662.9223,467.4565,662.5735,477.2826,662.6165,487.1087,662.9318,496.9348,662.3086,506.7609,663.5536,516.587,662.3697,526.413,662.8022,536.2391,663.4319,546.0652,662.9142,555.8913,663.0682,565.7174,662.9681,575.5435,663.1785,585.3696,663.2391,595.1957,663.5857,605.0217,663.6711,614.8478,663.6793,624.6739,663.2546,634.5,663,634.5591,663.1428,634.9431,663.3627,635.1151,663.0708,635.6472,663.6483,635.8764,663.4945,636.2678,663.7322,636.4322,663.8003,636.2618,664.0226,636.5396,664.4306,636.9355,664.8875,636.8385,665.1402,637,665.5,637.1053,665.5,637.3386,676.1004,637.4162,686.7009,636.9961,697.3013,637.2872,707.9018,636.4276,718.5022,637.2844,729.1027,637,739.7031,637.1688,739.7731,636.9905,740.1134,636.8959,740.4884,636.4119,740.7022,636.2134,741.0341,636.2678,741.4709,636.1885,741.2795,635.9067,741.5992,635.5356,741.7033,635.294,742.1201,634.8313,742.0029,634.5,742.2031,634.5,741.8601,624.6739,742.4314,614.8478,741.5363,605.0217,741.684,595.1957,742.8521,585.3696,742.6388,575.5435,742.9376,565.7174,741.8813,555.8913,742.5223,546.0652,742.7935,536.2391,741.7307,526.413,742.1073,516.587,742.3291,506.7609,742.8549,496.9348,742.1989,487.1087,742.6657,477.2826,741.6493,467.4565,741.5259,457.6304,742.7067,447.8043,741.4862,437.9783,742.7121,428.1522,742.4098,418.3261,741.9352,408.5,742.2031,408.4549,742.0942,408.205,742.198,407.7547,741.818,407.5148,741.9461,407.0153,741.4471,406.7322,741.4709,406.9224,741.5497,406.7349,741.1791,406.5148,740.795,406.3074,740.4163,406.3702,740.1494,406,739.7031,406.6136,739.7031,406.1693,729.1027,406.2682,718.5022,405.8697,707.9018,406.7165,697.3013,406.1549,686.7009,406.1726,676.1004,406,665.5,405.8127,665.4224,406.0217,665.0948,406.4563,664.8606,406.5717,664.4942,406.5726,664.0803,406.7322,663.7322,406.6911,663.633,407.0579,663.5184,407.3518,663.228,407.8458,663.4206,408.2408,663.3742,408.5,663" style="stroke:#181818;stroke-width:0.5;"/><polygon fill="#C2C2C2" points="471.3108,687.9667,469.6984,690.1698,467.7912,693.3967,465.0636,695.5714,462.1974,696.7606,459.912,696.8638,456.9747,695.3766,454.2032,694.4049,452.0995,692.4322,450.9961,690.1738,450.3417,688.3756,449.7006,686.0267,448.66,684.0055,449.4596,682.032,450.1602,679.8702,452.7893,678.1605,454.639,675.9421,456.9284,675.2055,459.6501,674.5711,463.1404,674.948,465.0521,675.8495,467.2747,676.2582,469.9772,679.027,470.9193,681.95,471.3286,683.9444,470.865,687.2309" style="stroke:#181818;stroke-width:1.0;"/><path d="M463.0156,681.166 Q463.1719,680.9473 463.3594,680.8379 Q463.5469,680.7285 463.7656,680.7285 Q464.1406,680.7285 464.375,680.9941 Q464.6094,681.2441 464.6094,681.8535 L464.6094,683.3066 Q464.6094,683.916 464.375,684.1816 Q464.1406,684.4473 463.7656,684.4473 Q463.4219,684.4473 463.2188,684.2441 Q463.0156,684.0566 462.9063,683.541 Q462.8594,683.1816 462.6719,682.9941 Q462.3438,682.6191 461.7344,682.4004 Q461.125,682.1816 460.5,682.1816 Q459.7344,682.1816 459.0938,682.5098 Q458.4688,682.8379 457.9688,683.5879 Q457.4844,684.3379 457.4844,685.3691 L457.4844,686.4629 Q457.4844,687.6973 458.375,688.5254 Q459.2656,689.3379 460.8594,689.3379 Q461.7969,689.3379 462.4531,689.0879 Q462.8438,688.9316 463.2656,688.4941 Q463.5313,688.2285 463.6719,688.1504 Q463.8281,688.0723 464.0313,688.0723 Q464.3594,688.0723 464.6094,688.3379 Q464.875,688.5879 464.875,688.9316 Q464.875,689.2754 464.5313,689.6816 Q464.0313,690.2598 463.2344,690.5879 Q462.1563,691.041 460.8594,691.041 Q459.3438,691.041 458.1406,690.416 Q457.1563,689.916 456.4688,688.8535 Q455.7813,687.7754 455.7813,686.4941 L455.7813,685.3379 Q455.7813,684.0098 456.3906,682.8691 Q457.0156,681.7129 458.1094,681.1035 Q459.2031,680.4785 460.4375,680.4785 Q461.1719,680.4785 461.8125,680.6504 Q462.4688,680.8066 463.0156,681.166 Z " fill="#000000"/><text fill="#000000" font-family="FG Virgil" font-size="12" font-style="italic" lengthAdjust="spacing" textLength="68" x="503.75" y="680.9492">&#171;repository&#187;</text><text fill="#000000" font-family="FG Virgil" font-size="14" lengthAdjust="spacing" textLength="114" x="480.75" y="699.0684">CourseRepository</text><path d="M407,707.582 L407,707.8623 L416.9565,707.0296 L426.913,707.8397 L436.8696,708.1149 L446.8261,706.6308 L456.7826,707.4784 L466.7391,707.0134 L476.6957,707.0707 L486.6522,707.4912 L496.6087,706.6602 L506.5652,708.3202 L516.5217,706.7417 L526.4783,707.3183 L536.4348,708.158 L546.3913,707.4677 L556.3478,707.673 L566.3043,707.5394 L576.2609,707.8201 L586.2174,707.9009 L596.1739,708.363 L606.1304,708.4768 L616.087,708.4877 L626.0435,707.9215 L636,707.582 " fill="#F1F1F1" style="stroke:#181818;stroke-width:0.5;"/><path d="M407,715.582 L407,715.8623 L416.9565,715.0296 L426.913,715.8397 L436.8696,716.1149 L446.8261,714.6308 L456.7826,715.4784 L466.7391,715.0134 L476.6957,715.0707 L486.6522,715.4912 L496.6087,714.6602 L506.5652,716.3202 L516.5217,714.7417 L526.4783,715.3183 L536.4348,716.158 L546.3913,715.4677 L556.3478,715.673 L566.3043,715.5394 L576.2609,715.8201 L586.2174,715.9009 L596.1739,716.363 L606.1304,716.4768 L616.087,716.4877 L626.0435,715.9215 L636,715.582 " fill="#F1F1F1" style="stroke:#181818;stroke-width:0.5;"/><text fill="#000000" font-family="FG Virgil" font-size="14" lengthAdjust="spacing" textLength="219" x="412" y="734.6895">findCoursesThatITeach(User user)</text></g><!--link ListCourseGradesUI to ListCourseExamGradesController--><g id="link_ListCourseGradesUI_ListCourseExamGradesController"><path d="M198.5,68.22 L198.7802,68.22 L197.9476,77.8317 L198.7577,87.4433 L199.0329,97.055 L197.5488,106.6667 L198.3964,116.2783 L197.9313,125.89 L197.9887,135.5017 L198.4091,145.1133 L197.5782,154.725 L199.2382,164.3367 L197.6596,173.9483 L198.5,183.56 " fill="none" style="stroke:#181818;stroke-width:1.0;stroke-dasharray:7.0,7.0;"/><polygon fill="#181818" points="198.5,188.94,198.564,188.9685,199.1738,187.0839,200.1589,185.3662,201.0217,183.5941,201.4827,181.6434,202.5,179.94,202.4817,179.9217,201.5995,180.6395,200.8096,181.4496,200.0839,182.3239,199.137,182.977,198.5,183.94,198.6305,184.0705,197.5514,182.9914,196.8534,182.2934,196.2018,181.6418,195.2798,180.7198,194.5,179.94,194.5208,179.9492,195.2903,181.7357,196.1544,183.5642,196.9728,185.3724,197.8784,187.2193,198.5,188.94" style="stroke:#181818;stroke-width:1.0;"/></g><!--link ListCourseExamGradesController to ExamService--><g id="link_ListCourseExamGradesController_ExamService"><path d="M198.5,287.08 L198.7802,287.08 L197.9476,297.944 L198.7577,308.808 L199.0329,319.672 L197.5488,330.536 L198.5,341.4 " fill="none" style="stroke:#181818;stroke-width:1.0;"/><polygon fill="#181818" points="198.5,346.81,198.564,346.8385,199.1738,344.9539,200.1589,343.2362,201.0217,341.4641,201.4827,339.5134,202.5,337.81,202.4817,337.7917,201.5995,338.5095,200.8096,339.3196,200.0839,340.1939,199.137,340.847,198.5,341.81,198.6305,341.9405,197.5514,340.8614,196.8534,340.1634,196.2018,339.5118,195.2798,338.5898,194.5,337.81,194.5208,337.8192,195.2903,339.6057,196.1544,341.4342,196.9728,343.2424,197.8784,345.0893,198.5,346.81" style="stroke:#181818;stroke-width:1.0;"/></g><!--link ExamService to PersistenceContext--><g id="link_ExamService_PersistenceContext"><path d="M198.5,445.08 L198.7802,445.08 L197.9476,455.8117 L198.7577,466.5433 L199.0329,477.275 L197.5488,488.0067 L198.3964,498.7383 L198.5,509.47 " fill="none" style="stroke:#181818;stroke-width:1.0;"/><polygon fill="#181818" points="198.5,514.47,198.564,514.4985,199.1738,512.6139,200.1589,510.8962,201.0217,509.1241,201.4827,507.1734,202.5,505.47,202.4817,505.4517,201.5995,506.1695,200.8096,506.9796,200.0839,507.8539,199.137,508.507,198.5,509.47,198.6305,509.6005,197.5514,508.5214,196.8534,507.8234,196.2018,507.1718,195.2798,506.2498,194.5,505.47,194.5208,505.4792,195.2903,507.2657,196.1544,509.0942,196.9728,510.9024,197.8784,512.7493,198.5,514.47" style="stroke:#181818;stroke-width:1.0;"/></g><!--link ExamService to RepositoryFactory--><g id="link_ExamService_RepositoryFactory"><path d="M255.82,445.08 L256.0001,445.2947 L262.9328,450.9201 L270.9212,457.8041 L278.5658,464.2783 L285.0799,469.4045 L293.0923,476.3173 L300.2612,482.2243 L307.7659,488.5316 L315.5038,495.117 L323.03,501.45 " fill="none" style="stroke:#181818;stroke-width:1.0;"/><polygon fill="#181818" points="327.05,504.81,327.113,504.8407,326.0617,502.9793,325.3795,501.2981,324.5772,499.5582,323.3796,497.6253,322.7291,495.9596,322.7033,495.9573,322.6858,497.0743,322.7984,498.2027,323.0014,499.3389,322.8927,500.4479,323.2206,501.595,323.2367,501.7789,322.0753,501.4841,320.9607,501.726,319.8519,502.0334,318.7098,501.9598,317.5852,502.0866,317.5915,502.1084,319.4752,502.621,321.3876,503.2331,323.2861,503.7972,325.211,504.4529,327.05,504.81" style="stroke:#181818;stroke-width:1.0;"/></g><!--link ExamService to Course--><g id="link_ExamService_Course"><path d="M151.65,445.08 L151.8507,445.2756 L144.1466,451.9889 L137.619,459.8487 L130.7083,467.3352 L122.5376,473.594 L116.0369,481.4799 L108.5961,488.4498 L101.5293,495.7843 L94.7227,503.3721 L87.68,510.73 " fill="none" style="stroke:#181818;stroke-width:1.0;"/><polygon fill="#181818" points="84.04,514.47,84.0659,514.5351,85.8186,513.6123,87.7234,513.0711,89.5786,512.4056,91.271,511.3316,93.1888,510.8231,93.1885,510.7972,92.0558,510.6947,90.9246,510.7227,89.7946,510.8416,88.6608,510.6476,87.5323,510.8918,87.7169,510.894,87.3085,509.7579,87.4389,508.6284,87.6351,507.4997,87.4488,506.3663,87.4636,505.2354,87.485,505.2433,86.7689,507.0786,86.15,508.9499,85.4842,510.8038,84.9078,512.6909,84.04,514.47" style="stroke:#181818;stroke-width:1.0;"/></g><!--link RepositoryFactory to CourseRepository--><g id="link_RepositoryFactory_CourseRepository"><path d="M429.74,603.38 L429.9447,603.5714 L435.839,609.9564 L442.9332,617.4635 L449.6367,624.6052 L455.0552,630.5453 L462.1768,638.078 L468.3396,644.7141 L474.884,651.707 L481.76,659.01 " fill="none" style="stroke:#181818;stroke-width:1.0;"/><polygon fill="#181818" points="485.41,662.91,485.4762,662.933,484.6323,661.0042,484.1764,659.2104,483.5942,657.3726,482.5965,655.3902,482.1739,653.608,482.148,653.6071,481.9952,654.7342,481.9729,655.8654,482.0413,656.9996,481.7971,658.1236,481.9908,659.2619,481.9967,659.4463,480.8532,659.0153,479.7271,659.1227,478.6031,659.2959,477.4667,659.0868,476.3369,659.0787,476.3457,659.0997,478.1474,659.8352,479.9893,660.6661,481.8118,661.4509,483.6713,662.3236,485.41,662.91" style="stroke:#181818;stroke-width:1.0;"/></g><!--link RepositoryFactory to ExamRepository--><g id="link_RepositoryFactory_ExamRepository"><path d="M339.26,603.38 L339.4647,603.5714 L332.354,609.9564 L326.4432,617.4635 L320.1417,624.6052 L312.5552,630.5453 L306.6718,638.078 L299.8296,644.7141 L293.369,651.707 L287.24,659.01 " fill="none" style="stroke:#181818;stroke-width:1.0;"/><polygon fill="#181818" points="283.59,662.91,283.6173,662.9745,285.3509,662.0165,287.2443,661.4369,289.0857,660.734,290.756,659.6259,292.6631,659.0787,292.6623,659.0529,291.5277,658.9733,290.3974,659.0242,289.2701,659.1659,288.1325,658.9949,287.0092,659.2619,287.1937,659.2678,286.7626,658.1243,286.8701,656.9982,287.0433,655.8742,286.8342,654.7378,286.8261,653.608,286.8476,653.6155,286.1688,655.4649,285.5879,657.3483,284.9597,659.2154,284.4216,661.1137,283.59,662.91" style="stroke:#181818;stroke-width:1.0;"/></g><!--SRC=[XL9BRi8m4Dtx55w2L7e2YqLHGKXLLHNeVkGCYOLZHsDJYAhUlNQSWY4WDb5ctcT-TZjb6Y2eUGMcE93o7Wttj4VcJb1jZPKLsHglaGRa3afS-LOZ9vG-mmhSmbxxkJN-7O9qlk1VYagbCuwheB07PKg-1UsGCQd1EVwcd9_PFJbS41JeDaikH4Feq7ZmofhfT4XzFKATwBDGagpMI490qsWbUz4FAz57dXjj71BVXyyJNtcA7SZEPMOB74VQ6a5MICaxuu_Pxt_jwBH2-bOIXN3ffozoNwr3mpsQkXqbKby_iqzv8H8GZNtIkL76-WXni4GZCSwDHnzMTSv5sHQajwJmGlU9ZNKgvDjv1xT295uR9TWjQSnaFy3Lr6TnE0oTWgwOCaKQxALD4pmOy85Nly9r1NxPxUtg53VUokHvCdtmC7BTBPnFWaLsNyQoe0E7UnzG1YiUC583Z0sO6Nh6xj0k3yBO7m00]--></g></svg>