<?xml version="1.0" encoding="us-ascii" standalone="no"?><svg xmlns="http://www.w3.org/2000/svg" xmlns:xlink="http://www.w3.org/1999/xlink" contentStyleType="text/css" height="1489px" preserveAspectRatio="none" style="width:1659px;height:1489px;background:#FFFFFF;" version="1.1" viewBox="0 0 1659 1489" width="1659px" zoomAndPan="magnify"><defs/><g><!--cluster User Aggregate--><g id="cluster_User Aggregate"><rect fill="none" height="799" rx="2.5" ry="2.5" style="stroke:#000000;stroke-width:1.5;" width="795" x="858" y="684"/><text fill="#000000" font-family="sans-serif" font-size="14" font-weight="bold" lengthAdjust="spacing" textLength="110" x="1200.5" y="701.1074">User Aggregate</text></g><!--cluster Course Aggregate--><g id="cluster_Course Aggregate"><rect fill="none" height="653" rx="2.5" ry="2.5" style="stroke:#000000;stroke-width:1.5;" width="1073" x="283" y="7"/><text fill="#000000" font-family="sans-serif" font-size="14" font-weight="bold" lengthAdjust="spacing" textLength="128" x="755.5" y="24.1074">Course Aggregate</text></g><!--cluster EnrollmentRequest Aggregate--><g id="cluster_EnrollmentRequest Aggregate"><rect fill="none" height="253" rx="2.5" ry="2.5" style="stroke:#000000;stroke-width:1.5;" width="461.5" x="7" y="684"/><text fill="#000000" font-family="sans-serif" font-size="14" font-weight="bold" lengthAdjust="spacing" textLength="212" x="131.75" y="701.1074">EnrollmentRequest Aggregate</text></g><!--class User--><g id="elem_User"><rect codeLine="26" fill="#D8F5FF" height="68.543" id="User" rx="2.5" ry="2.5" style="stroke:#1E90FF;stroke-width:0.5;" width="71" x="935.5" y="911.5"/><ellipse cx="950.5" cy="941.7715" fill="#ADD1B2" rx="11" ry="11" style="stroke:#181818;stroke-width:1.0;"/><path d="M949.3594,942.5684 L949.3594,945.0684 L953.6875,945.0684 L953.6875,944.1465 Q953.6875,943.5371 953.9219,943.2715 Q954.1719,943.0059 954.5469,943.0059 Q954.9219,943.0059 955.1563,943.2715 Q955.3906,943.5371 955.3906,944.1465 L955.3906,946.7715 L947.3906,946.7715 Q946.7656,946.7715 946.5,946.5371 Q946.25,946.3027 946.25,945.9121 Q946.25,945.5371 946.5156,945.3027 Q946.7813,945.0684 947.3906,945.0684 L947.6563,945.0684 L947.6563,938.4121 L947.3906,938.4121 Q946.7656,938.4121 946.5,938.1777 Q946.25,937.9434 946.25,937.5527 Q946.25,937.1777 946.5,936.9434 Q946.7656,936.709 947.3906,936.709 L955.0156,936.709 L955.0156,939.3027 Q955.0156,939.9121 954.7813,940.1777 Q954.5625,940.4277 954.1719,940.4277 Q953.7969,940.4277 953.5625,940.1777 Q953.3281,939.9121 953.3281,939.3027 L953.3281,938.4121 L949.3594,938.4121 L949.3594,940.8652 L950.8438,940.8652 Q950.8438,940.209 950.9688,940.0215 Q951.2344,939.6152 951.7031,939.6152 Q952.0781,939.6152 952.3125,939.8809 Q952.5469,940.1309 952.5469,940.7402 L952.5469,942.709 Q952.5469,943.2559 952.4219,943.4434 Q952.1563,943.834 951.7031,943.834 Q951.2344,943.834 950.9688,943.4277 Q950.8438,943.2402 950.8438,942.5684 L949.3594,942.5684 Z " fill="#000000"/><text fill="#000000" font-family="sans-serif" font-size="12" font-style="italic" lengthAdjust="spacing" textLength="43" x="962.5" y="929.4492">&#171;entity&#187;</text><text fill="#000000" font-family="sans-serif" font-size="12" font-style="italic" lengthAdjust="spacing" textLength="35" x="966.5" y="945.4102">&#171;root&#187;</text><text fill="#000000" font-family="sans-serif" font-size="14" lengthAdjust="spacing" textLength="29" x="969.5" y="963.5293">User</text><line style="stroke:#1E90FF;stroke-width:0.5;" x1="936.5" x2="1005.5" y1="972.043" y2="972.043"/></g><g id="elem_GMN14"><path d="M1403,1431.5 L1403,1441 L1295.54,1445 L1403,1449 L1403,1458.791 A0,0 0 0 0 1403,1458.791 L1637,1458.791 A0,0 0 0 0 1637,1458.791 L1637,1441.5 L1627,1431.5 L1403,1431.5 A0,0 0 0 0 1403,1431.5 " fill="#FEFFDD" style="stroke:#181818;stroke-width:0.5;"/><path d="M1627,1431.5 L1627,1441.5 L1637,1441.5 L1627,1431.5 " fill="#FEFFDD" style="stroke:#181818;stroke-width:0.5;"/><text fill="#000000" font-family="sans-serif" font-size="13" lengthAdjust="spacing" textLength="213" x="1409" y="1450.5283">Can be Teacher, Student or Manager</text></g><g id="elem_GMN27"><path d="M874,1421.5 L874,1466.082 A0,0 0 0 0 874,1466.082 L1068,1466.082 A0,0 0 0 0 1068,1466.082 L1068,1448.36 L1178.42,1444.78 L1068,1440.36 L1068,1431.5 L1058,1421.5 L874,1421.5 A0,0 0 0 0 874,1421.5 " fill="#FEFFDD" style="stroke:#181818;stroke-width:0.5;"/><path d="M1058,1421.5 L1058,1431.5 L1068,1431.5 L1058,1421.5 " fill="#FEFFDD" style="stroke:#181818;stroke-width:0.5;"/><text fill="#000000" font-family="sans-serif" font-size="13" lengthAdjust="spacing" textLength="173" x="880" y="1440.5283">This is only used for purposes</text><text fill="#000000" font-family="sans-serif" font-size="13" lengthAdjust="spacing" textLength="88" x="880" y="1457.8193">of authorization</text></g><!--entity EmailAddress--><g id="elem_EmailAddress"><rect fill="#D8F5FF" height="43.2422" rx="2.5" ry="2.5" style="stroke:#1E90FF;stroke-width:0.5;" width="117" x="1178.5" y="877.5"/><text fill="#000000" font-family="sans-serif" font-size="14" font-style="italic" lengthAdjust="spacing" textLength="97" x="1188.5" y="895.6074">&#171;Value Object&#187;</text><text fill="#000000" font-family="sans-serif" font-size="14" lengthAdjust="spacing" textLength="86" x="1194" y="914.2285">EmailAddress</text></g><!--entity Password--><g id="elem_Password"><rect fill="#D8F5FF" height="43.2422" rx="2.5" ry="2.5" style="stroke:#1E90FF;stroke-width:0.5;" width="117" x="1178.5" y="799.5"/><text fill="#000000" font-family="sans-serif" font-size="14" font-style="italic" lengthAdjust="spacing" textLength="97" x="1188.5" y="817.6074">&#171;Value Object&#187;</text><text fill="#000000" font-family="sans-serif" font-size="14" lengthAdjust="spacing" textLength="61" x="1206.5" y="836.2285">Password</text></g><!--entity FullName--><g id="elem_FullName"><rect fill="#D8F5FF" height="43.2422" rx="2.5" ry="2.5" style="stroke:#1E90FF;stroke-width:0.5;" width="117" x="1178.5" y="721.5"/><text fill="#000000" font-family="sans-serif" font-size="14" font-style="italic" lengthAdjust="spacing" textLength="97" x="1188.5" y="739.6074">&#171;Value Object&#187;</text><text fill="#000000" font-family="sans-serif" font-size="14" lengthAdjust="spacing" textLength="59" x="1207.5" y="758.2285">FullName</text></g><!--entity ShortName--><g id="elem_ShortName"><rect fill="#D8F5FF" height="43.2422" rx="2.5" ry="2.5" style="stroke:#1E90FF;stroke-width:0.5;" width="117" x="1178.5" y="1345.5"/><text fill="#000000" font-family="sans-serif" font-size="14" font-style="italic" lengthAdjust="spacing" textLength="97" x="1188.5" y="1363.6074">&#171;Value Object&#187;</text><text fill="#000000" font-family="sans-serif" font-size="14" lengthAdjust="spacing" textLength="70" x="1202" y="1382.2285">ShortName</text></g><!--entity UserState--><g id="elem_UserState"><rect fill="#D8F5FF" height="43.2422" rx="2.5" ry="2.5" style="stroke:#1E90FF;stroke-width:0.5;" width="117" x="1178.5" y="1267.5"/><text fill="#000000" font-family="sans-serif" font-size="14" font-style="italic" lengthAdjust="spacing" textLength="97" x="1188.5" y="1285.6074">&#171;Value Object&#187;</text><text fill="#000000" font-family="sans-serif" font-size="14" lengthAdjust="spacing" textLength="62" x="1206" y="1304.2285">UserState</text></g><!--entity MechanographicNumber--><g id="elem_MechanographicNumber"><rect fill="#D8F5FF" height="43.2422" rx="2.5" ry="2.5" style="stroke:#1E90FF;stroke-width:0.5;" width="174" x="1150" y="1189.5"/><text fill="#000000" font-family="sans-serif" font-size="14" font-style="italic" lengthAdjust="spacing" textLength="97" x="1188.5" y="1207.6074">&#171;Value Object&#187;</text><text fill="#000000" font-family="sans-serif" font-size="14" lengthAdjust="spacing" textLength="154" x="1160" y="1226.2285">MechanographicNumber</text></g><!--entity Acronym--><g id="elem_Acronym"><rect fill="#D8F5FF" height="43.2422" rx="2.5" ry="2.5" style="stroke:#1E90FF;stroke-width:0.5;" width="117" x="1178.5" y="1111.5"/><text fill="#000000" font-family="sans-serif" font-size="14" font-style="italic" lengthAdjust="spacing" textLength="97" x="1188.5" y="1129.6074">&#171;Value Object&#187;</text><text fill="#000000" font-family="sans-serif" font-size="14" lengthAdjust="spacing" textLength="55" x="1209.5" y="1148.2285">Acronym</text></g><!--entity BirthDate--><g id="elem_BirthDate"><rect fill="#D8F5FF" height="43.2422" rx="2.5" ry="2.5" style="stroke:#1E90FF;stroke-width:0.5;" width="117" x="1178.5" y="1033.5"/><text fill="#000000" font-family="sans-serif" font-size="14" font-style="italic" lengthAdjust="spacing" textLength="97" x="1188.5" y="1051.6074">&#171;Value Object&#187;</text><text fill="#000000" font-family="sans-serif" font-size="14" lengthAdjust="spacing" textLength="59" x="1207.5" y="1070.2285">BirthDate</text></g><!--entity TaxPayerNumber--><g id="elem_TaxPayerNumber"><rect fill="#D8F5FF" height="43.2422" rx="2.5" ry="2.5" style="stroke:#1E90FF;stroke-width:0.5;" width="129" x="1172.5" y="955.5"/><text fill="#000000" font-family="sans-serif" font-size="14" font-style="italic" lengthAdjust="spacing" textLength="97" x="1188.5" y="973.6074">&#171;Value Object&#187;</text><text fill="#000000" font-family="sans-serif" font-size="14" lengthAdjust="spacing" textLength="109" x="1182.5" y="992.2285">TaxPayerNumber</text></g><!--entity Role--><g id="elem_Role"><rect fill="#D8F5FF" height="43.2422" rx="2.5" ry="2.5" style="stroke:#1E90FF;stroke-width:0.5;" width="117" x="1178.5" y="1423.5"/><text fill="#000000" font-family="sans-serif" font-size="14" font-style="italic" lengthAdjust="spacing" textLength="97" x="1188.5" y="1441.6074">&#171;Value Object&#187;</text><text fill="#000000" font-family="sans-serif" font-size="14" lengthAdjust="spacing" textLength="29" x="1222.5" y="1460.2285">Role</text></g><!--class Course--><g id="elem_Course"><rect codeLine="69" fill="#D8F5FF" height="68.543" id="Course" rx="2.5" ry="2.5" style="stroke:#1E90FF;stroke-width:0.5;" width="78" x="354" y="487.5"/><ellipse cx="369" cy="517.7715" fill="#ADD1B2" rx="11" ry="11" style="stroke:#181818;stroke-width:1.0;"/><path d="M367.8594,518.5684 L367.8594,521.0684 L372.1875,521.0684 L372.1875,520.1465 Q372.1875,519.5371 372.4219,519.2715 Q372.6719,519.0059 373.0469,519.0059 Q373.4219,519.0059 373.6563,519.2715 Q373.8906,519.5371 373.8906,520.1465 L373.8906,522.7715 L365.8906,522.7715 Q365.2656,522.7715 365,522.5371 Q364.75,522.3027 364.75,521.9121 Q364.75,521.5371 365.0156,521.3027 Q365.2813,521.0684 365.8906,521.0684 L366.1563,521.0684 L366.1563,514.4121 L365.8906,514.4121 Q365.2656,514.4121 365,514.1777 Q364.75,513.9434 364.75,513.5527 Q364.75,513.1777 365,512.9434 Q365.2656,512.709 365.8906,512.709 L373.5156,512.709 L373.5156,515.3027 Q373.5156,515.9121 373.2813,516.1777 Q373.0625,516.4277 372.6719,516.4277 Q372.2969,516.4277 372.0625,516.1777 Q371.8281,515.9121 371.8281,515.3027 L371.8281,514.4121 L367.8594,514.4121 L367.8594,516.8652 L369.3438,516.8652 Q369.3438,516.209 369.4688,516.0215 Q369.7344,515.6152 370.2031,515.6152 Q370.5781,515.6152 370.8125,515.8809 Q371.0469,516.1309 371.0469,516.7402 L371.0469,518.709 Q371.0469,519.2559 370.9219,519.4434 Q370.6563,519.834 370.2031,519.834 Q369.7344,519.834 369.4688,519.4277 Q369.3438,519.2402 369.3438,518.5684 L367.8594,518.5684 Z " fill="#000000"/><text fill="#000000" font-family="sans-serif" font-size="12" font-style="italic" lengthAdjust="spacing" textLength="43" x="384.5" y="505.4492">&#171;entity&#187;</text><text fill="#000000" font-family="sans-serif" font-size="12" font-style="italic" lengthAdjust="spacing" textLength="35" x="388.5" y="521.4102">&#171;root&#187;</text><text fill="#000000" font-family="sans-serif" font-size="14" lengthAdjust="spacing" textLength="46" x="383" y="539.5293">Course</text><line style="stroke:#1E90FF;stroke-width:0.5;" x1="355" x2="431" y1="548.043" y2="548.043"/></g><g id="elem_GMN46"><path d="M881,96 L881,140 L715.18,144 L881,148 L881,192.4551 A0,0 0 0 0 881,192.4551 L1061,192.4551 A0,0 0 0 0 1061,192.4551 L1061,106 L1051,96 L881,96 A0,0 0 0 0 881,96 " fill="#FEFFDD" style="stroke:#181818;stroke-width:0.5;"/><path d="M1051,96 L1051,106 L1061,106 L1051,96 " fill="#FEFFDD" style="stroke:#181818;stroke-width:0.5;"/><text fill="#000000" font-family="sans-serif" font-size="13" lengthAdjust="spacing" textLength="159" x="887" y="115.0283">Can be one of the following:</text><text fill="#000000" font-family="sans-serif" font-size="13" lengthAdjust="spacing" textLength="39" x="903" y="132.3193">- Open</text><text fill="#000000" font-family="sans-serif" font-size="13" lengthAdjust="spacing" textLength="48" x="903" y="149.6104">- Closed</text><text fill="#000000" font-family="sans-serif" font-size="13" lengthAdjust="spacing" textLength="41" x="903" y="166.9014">- Enroll</text><text fill="#000000" font-family="sans-serif" font-size="13" lengthAdjust="spacing" textLength="70" x="903" y="184.1924">- InProgress</text></g><g id="elem_GMN49"><path d="M869,242.5 L869,272.35 L715.18,293.54 L869,280.35 L869,287.082 A0,0 0 0 0 869,287.082 L1073,287.082 A0,0 0 0 0 1073,287.082 L1073,252.5 L1063,242.5 L869,242.5 A0,0 0 0 0 869,242.5 " fill="#FEFFDD" style="stroke:#181818;stroke-width:0.5;"/><path d="M1063,242.5 L1063,252.5 L1073,252.5 L1063,242.5 " fill="#FEFFDD" style="stroke:#181818;stroke-width:0.5;"/><text fill="#000000" font-family="sans-serif" font-size="13" lengthAdjust="spacing" textLength="183" x="875" y="261.5283">Each course has a unique code</text><text fill="#000000" font-family="sans-serif" font-size="13" lengthAdjust="spacing" textLength="113" x="875" y="278.8193">Example: "JAVA-1"</text></g><g id="elem_GMN52"><path d="M299,44 L299,105.873 A0,0 0 0 0 299,105.873 L487,105.873 A0,0 0 0 0 487,105.873 L487,75.79 L597.64,67.99 L487,67.79 L487,54 L477,44 L299,44 A0,0 0 0 0 299,44 " fill="#FEFFDD" style="stroke:#181818;stroke-width:0.5;"/><path d="M477,44 L477,54 L487,54 L477,44 " fill="#FEFFDD" style="stroke:#181818;stroke-width:0.5;"/><text fill="#000000" font-family="sans-serif" font-size="13" lengthAdjust="spacing" textLength="164" x="305" y="63.0283">Different editions of a course</text><text fill="#000000" font-family="sans-serif" font-size="13" lengthAdjust="spacing" textLength="167" x="305" y="80.3193">are to be considered different</text><text fill="#000000" font-family="sans-serif" font-size="13" lengthAdjust="spacing" textLength="46" x="305" y="97.6104">courses</text></g><!--class Class--><g id="elem_Class"><rect codeLine="114" fill="#D8F5FF" height="52.582" id="Class" rx="2.5" ry="2.5" style="stroke:#1E90FF;stroke-width:0.5;" width="71" x="621" y="356.5"/><ellipse cx="636" cy="378.791" fill="#ADD1B2" rx="11" ry="11" style="stroke:#181818;stroke-width:1.0;"/><path d="M634.8594,379.5879 L634.8594,382.0879 L639.1875,382.0879 L639.1875,381.166 Q639.1875,380.5566 639.4219,380.291 Q639.6719,380.0254 640.0469,380.0254 Q640.4219,380.0254 640.6563,380.291 Q640.8906,380.5566 640.8906,381.166 L640.8906,383.791 L632.8906,383.791 Q632.2656,383.791 632,383.5566 Q631.75,383.3223 631.75,382.9316 Q631.75,382.5566 632.0156,382.3223 Q632.2813,382.0879 632.8906,382.0879 L633.1563,382.0879 L633.1563,375.4316 L632.8906,375.4316 Q632.2656,375.4316 632,375.1973 Q631.75,374.9629 631.75,374.5723 Q631.75,374.1973 632,373.9629 Q632.2656,373.7285 632.8906,373.7285 L640.5156,373.7285 L640.5156,376.3223 Q640.5156,376.9316 640.2813,377.1973 Q640.0625,377.4473 639.6719,377.4473 Q639.2969,377.4473 639.0625,377.1973 Q638.8281,376.9316 638.8281,376.3223 L638.8281,375.4316 L634.8594,375.4316 L634.8594,377.8848 L636.3438,377.8848 Q636.3438,377.2285 636.4688,377.041 Q636.7344,376.6348 637.2031,376.6348 Q637.5781,376.6348 637.8125,376.9004 Q638.0469,377.1504 638.0469,377.7598 L638.0469,379.7285 Q638.0469,380.2754 637.9219,380.4629 Q637.6563,380.8535 637.2031,380.8535 Q636.7344,380.8535 636.4688,380.4473 Q636.3438,380.2598 636.3438,379.5879 L634.8594,379.5879 Z " fill="#000000"/><text fill="#000000" font-family="sans-serif" font-size="12" font-style="italic" lengthAdjust="spacing" textLength="43" x="648" y="374.4492">&#171;entity&#187;</text><text fill="#000000" font-family="sans-serif" font-size="14" lengthAdjust="spacing" textLength="35" x="652" y="392.5684">Class</text><line style="stroke:#1E90FF;stroke-width:0.5;" x1="622" x2="691" y1="401.082" y2="401.082"/></g><g id="elem_GMN59"><path d="M1134,408.5 L1134,418 L1029.61,422 L1134,426 L1134,435.791 A0,0 0 0 0 1134,435.791 L1340,435.791 A0,0 0 0 0 1340,435.791 L1340,418.5 L1330,408.5 L1134,408.5 A0,0 0 0 0 1134,408.5 " fill="#FEFFDD" style="stroke:#181818;stroke-width:0.5;"/><path d="M1330,408.5 L1330,418.5 L1340,418.5 L1330,408.5 " fill="#FEFFDD" style="stroke:#181818;stroke-width:0.5;"/><text fill="#000000" font-family="sans-serif" font-size="13" lengthAdjust="spacing" textLength="185" x="1140" y="427.5283">A class must have a unique title</text></g><!--entity Code--><g id="elem_Code"><rect fill="#D8F5FF" height="43.2422" rx="2.5" ry="2.5" style="stroke:#1E90FF;stroke-width:0.5;" width="117" x="598" y="278.5"/><text fill="#000000" font-family="sans-serif" font-size="14" font-style="italic" lengthAdjust="spacing" textLength="97" x="608" y="296.6074">&#171;Value Object&#187;</text><text fill="#000000" font-family="sans-serif" font-size="14" lengthAdjust="spacing" textLength="34" x="639.5" y="315.2285">Code</text></g><!--entity Name--><g id="elem_Name"><rect fill="#D8F5FF" height="43.2422" rx="2.5" ry="2.5" style="stroke:#1E90FF;stroke-width:0.5;" width="117" x="598" y="200.5"/><text fill="#000000" font-family="sans-serif" font-size="14" font-style="italic" lengthAdjust="spacing" textLength="97" x="608" y="218.6074">&#171;Value Object&#187;</text><text fill="#000000" font-family="sans-serif" font-size="14" lengthAdjust="spacing" textLength="36" x="638.5" y="237.2285">Name</text></g><!--entity State--><g id="elem_State"><rect fill="#D8F5FF" height="43.2422" rx="2.5" ry="2.5" style="stroke:#1E90FF;stroke-width:0.5;" width="117" x="598" y="122.5"/><text fill="#000000" font-family="sans-serif" font-size="14" font-style="italic" lengthAdjust="spacing" textLength="97" x="608" y="140.6074">&#171;Value Object&#187;</text><text fill="#000000" font-family="sans-serif" font-size="14" lengthAdjust="spacing" textLength="33" x="640" y="159.2285">State</text></g><!--entity Description--><g id="elem_Description"><rect fill="#D8F5FF" height="43.2422" rx="2.5" ry="2.5" style="stroke:#1E90FF;stroke-width:0.5;" width="117" x="598" y="600.5"/><text fill="#000000" font-family="sans-serif" font-size="14" font-style="italic" lengthAdjust="spacing" textLength="97" x="608" y="618.6074">&#171;Value Object&#187;</text><text fill="#000000" font-family="sans-serif" font-size="14" lengthAdjust="spacing" textLength="71" x="621" y="637.2285">Description</text></g><!--entity MaxStudents--><g id="elem_MaxStudents"><rect fill="#D8F5FF" height="43.2422" rx="2.5" ry="2.5" style="stroke:#1E90FF;stroke-width:0.5;" width="117" x="598" y="522.5"/><text fill="#000000" font-family="sans-serif" font-size="14" font-style="italic" lengthAdjust="spacing" textLength="97" x="608" y="540.6074">&#171;Value Object&#187;</text><text fill="#000000" font-family="sans-serif" font-size="14" lengthAdjust="spacing" textLength="81" x="616" y="559.2285">MaxStudents</text></g><!--entity MinStudents--><g id="elem_MinStudents"><rect fill="#D8F5FF" height="43.2422" rx="2.5" ry="2.5" style="stroke:#1E90FF;stroke-width:0.5;" width="117" x="598" y="444.5"/><text fill="#000000" font-family="sans-serif" font-size="14" font-style="italic" lengthAdjust="spacing" textLength="97" x="608" y="462.6074">&#171;Value Object&#187;</text><text fill="#000000" font-family="sans-serif" font-size="14" lengthAdjust="spacing" textLength="78" x="617.5" y="481.2285">MinStudents</text></g><!--entity Edition--><g id="elem_Edition"><rect fill="#D8F5FF" height="43.2422" rx="2.5" ry="2.5" style="stroke:#1E90FF;stroke-width:0.5;" width="117" x="598" y="44.5"/><text fill="#000000" font-family="sans-serif" font-size="14" font-style="italic" lengthAdjust="spacing" textLength="97" x="608" y="62.6074">&#171;Value Object&#187;</text><text fill="#000000" font-family="sans-serif" font-size="14" lengthAdjust="spacing" textLength="43" x="635" y="81.2285">Edition</text></g><!--entity ClassTime--><g id="elem_ClassTime"><rect fill="#D8F5FF" height="43.2422" rx="2.5" ry="2.5" style="stroke:#1E90FF;stroke-width:0.5;" width="117" x="912.5" y="478.5"/><text fill="#000000" font-family="sans-serif" font-size="14" font-style="italic" lengthAdjust="spacing" textLength="97" x="922.5" y="496.6074">&#171;Value Object&#187;</text><text fill="#000000" font-family="sans-serif" font-size="14" lengthAdjust="spacing" textLength="66" x="938" y="515.2285">ClassTime</text></g><!--entity ClassTitle--><g id="elem_ClassTitle"><rect fill="#D8F5FF" height="43.2422" rx="2.5" ry="2.5" style="stroke:#1E90FF;stroke-width:0.5;" width="117" x="912.5" y="400.5"/><text fill="#000000" font-family="sans-serif" font-size="14" font-style="italic" lengthAdjust="spacing" textLength="97" x="922.5" y="418.6074">&#171;Value Object&#187;</text><text fill="#000000" font-family="sans-serif" font-size="14" lengthAdjust="spacing" textLength="62" x="940" y="437.2285">ClassTitle</text></g><!--entity ClassDayOfWeek--><g id="elem_ClassDayOfWeek"><rect fill="#D8F5FF" height="43.2422" rx="2.5" ry="2.5" style="stroke:#1E90FF;stroke-width:0.5;" width="131" x="905.5" y="322.5"/><text fill="#000000" font-family="sans-serif" font-size="14" font-style="italic" lengthAdjust="spacing" textLength="97" x="922.5" y="340.6074">&#171;Value Object&#187;</text><text fill="#000000" font-family="sans-serif" font-size="14" lengthAdjust="spacing" textLength="111" x="915.5" y="359.2285">ClassDayOfWeek</text></g><!--class EnrollmentRequest--><g id="elem_EnrollmentRequest"><rect codeLine="136" fill="#D8F5FF" height="68.543" id="EnrollmentRequest" rx="2.5" ry="2.5" style="stroke:#1E90FF;stroke-width:0.5;" width="152" x="23" y="786.5"/><ellipse cx="38" cy="816.7715" fill="#ADD1B2" rx="11" ry="11" style="stroke:#181818;stroke-width:1.0;"/><path d="M36.8594,817.5684 L36.8594,820.0684 L41.1875,820.0684 L41.1875,819.1465 Q41.1875,818.5371 41.4219,818.2715 Q41.6719,818.0059 42.0469,818.0059 Q42.4219,818.0059 42.6563,818.2715 Q42.8906,818.5371 42.8906,819.1465 L42.8906,821.7715 L34.8906,821.7715 Q34.2656,821.7715 34,821.5371 Q33.75,821.3027 33.75,820.9121 Q33.75,820.5371 34.0156,820.3027 Q34.2813,820.0684 34.8906,820.0684 L35.1563,820.0684 L35.1563,813.4121 L34.8906,813.4121 Q34.2656,813.4121 34,813.1777 Q33.75,812.9434 33.75,812.5527 Q33.75,812.1777 34,811.9434 Q34.2656,811.709 34.8906,811.709 L42.5156,811.709 L42.5156,814.3027 Q42.5156,814.9121 42.2813,815.1777 Q42.0625,815.4277 41.6719,815.4277 Q41.2969,815.4277 41.0625,815.1777 Q40.8281,814.9121 40.8281,814.3027 L40.8281,813.4121 L36.8594,813.4121 L36.8594,815.8652 L38.3438,815.8652 Q38.3438,815.209 38.4688,815.0215 Q38.7344,814.6152 39.2031,814.6152 Q39.5781,814.6152 39.8125,814.8809 Q40.0469,815.1309 40.0469,815.7402 L40.0469,817.709 Q40.0469,818.2559 39.9219,818.4434 Q39.6563,818.834 39.2031,818.834 Q38.7344,818.834 38.4688,818.4277 Q38.3438,818.2402 38.3438,817.5684 L36.8594,817.5684 Z " fill="#000000"/><text fill="#000000" font-family="sans-serif" font-size="12" font-style="italic" lengthAdjust="spacing" textLength="43" x="90.5" y="804.4492">&#171;entity&#187;</text><text fill="#000000" font-family="sans-serif" font-size="12" font-style="italic" lengthAdjust="spacing" textLength="35" x="94.5" y="820.4102">&#171;root&#187;</text><text fill="#000000" font-family="sans-serif" font-size="14" lengthAdjust="spacing" textLength="120" x="52" y="838.5293">EnrollmentRequest</text><line style="stroke:#1E90FF;stroke-width:0.5;" x1="24" x2="174" y1="847.043" y2="847.043"/></g><!--entity RequestedDate--><g id="elem_RequestedDate"><rect fill="#D8F5FF" height="43.2422" rx="2.5" ry="2.5" style="stroke:#1E90FF;stroke-width:0.5;" width="119" x="333.5" y="877.5"/><text fill="#000000" font-family="sans-serif" font-size="14" font-style="italic" lengthAdjust="spacing" textLength="97" x="344.5" y="895.6074">&#171;Value Object&#187;</text><text fill="#000000" font-family="sans-serif" font-size="14" lengthAdjust="spacing" textLength="99" x="343.5" y="914.2285">RequestedDate</text></g><!--entity AnsweredDate--><g id="elem_AnsweredDate"><rect fill="#D8F5FF" height="43.2422" rx="2.5" ry="2.5" style="stroke:#1E90FF;stroke-width:0.5;" width="117" x="334.5" y="799.5"/><text fill="#000000" font-family="sans-serif" font-size="14" font-style="italic" lengthAdjust="spacing" textLength="97" x="344.5" y="817.6074">&#171;Value Object&#187;</text><text fill="#000000" font-family="sans-serif" font-size="14" lengthAdjust="spacing" textLength="92" x="347" y="836.2285">AnsweredDate</text></g><!--entity RequestState--><g id="elem_RequestState"><rect fill="#D8F5FF" height="43.2422" rx="2.5" ry="2.5" style="stroke:#1E90FF;stroke-width:0.5;" width="117" x="334.5" y="721.5"/><text fill="#000000" font-family="sans-serif" font-size="14" font-style="italic" lengthAdjust="spacing" textLength="97" x="344.5" y="739.6074">&#171;Value Object&#187;</text><text fill="#000000" font-family="sans-serif" font-size="14" lengthAdjust="spacing" textLength="86" x="350" y="758.2285">RequestState</text></g><!--link User to EmailAddress--><g id="link_User_EmailAddress"><path codeLine="51" d="M1006.51,939.86 C1048.76,932.33 1121.1,919.46 1173.28,910.17 " fill="none" id="User-to-EmailAddress" style="stroke:#1E90FF;stroke-width:1.0;"/><polygon fill="#1E90FF" points="1178.27,909.28,1168.711,906.9081,1173.3464,910.1506,1170.1039,914.7859,1178.27,909.28" style="stroke:#1E90FF;stroke-width:1.0;"/></g><!--link User to Password--><g id="link_User_Password"><path codeLine="52" d="M1006.77,925.94 C1039.16,907.64 1089.07,880.42 1134,860 C1146.6,854.27 1160.32,848.64 1173.48,843.51 " fill="none" id="User-to-Password" style="stroke:#1E90FF;stroke-width:1.0;"/><polygon fill="#1E90FF" points="1178.31,841.64,1168.4732,841.1536,1173.6462,843.4426,1171.3573,848.6156,1178.31,841.64" style="stroke:#1E90FF;stroke-width:1.0;"/></g><!--link User to FullName--><g id="link_User_FullName"><path codeLine="53" d="M998.71,911.25 C1028.32,874.75 1079.21,817.77 1134,782 C1146.02,774.15 1159.85,767.54 1173.37,762.11 " fill="none" id="User-to-FullName" style="stroke:#1E90FF;stroke-width:1.0;"/><polygon fill="#1E90FF" points="1178.33,760.16,1168.4919,759.6998,1173.6711,761.975,1171.3959,767.1541,1178.33,760.16" style="stroke:#1E90FF;stroke-width:1.0;"/></g><!--link User to ShortName--><g id="link_User_ShortName"><path codeLine="54" d="M977.37,980.69 C990.58,1054.61 1031.35,1228.97 1134,1328 C1145.03,1338.64 1159.27,1346.45 1173.59,1352.16 " fill="none" id="User-to-ShortName" style="stroke:#1E90FF;stroke-width:1.0;"/><polygon fill="#1E90FF" points="1178.45,1354.02,1171.4786,1347.063,1173.7814,1352.2299,1168.6145,1354.5327,1178.45,1354.02" style="stroke:#1E90FF;stroke-width:1.0;"/></g><!--link User to Role--><g id="link_User_Role"><path codeLine="55" d="M974.48,980.53 C982.33,1064.69 1013.8,1282.56 1134,1406 C1144.75,1417.04 1158.97,1425.01 1173.36,1430.73 " fill="none" id="User-to-Role" style="stroke:#1E90FF;stroke-width:1.0;"/><polygon fill="#1E90FF" points="1178.24,1432.59,1171.2615,1425.6401,1173.5696,1430.8047,1168.405,1433.1127,1178.24,1432.59" style="stroke:#1E90FF;stroke-width:1.0;"/></g><!--link User to UserState--><g id="link_User_UserState"><path codeLine="56" d="M981.61,980.71 C1000.59,1043.08 1048.59,1174.61 1134,1250 C1145.3,1259.98 1159.42,1267.52 1173.52,1273.17 " fill="none" id="User-to-UserState" style="stroke:#1E90FF;stroke-width:1.0;"/><polygon fill="#1E90FF" points="1178.3,1275.02,1171.3473,1268.0444,1173.6362,1273.2174,1168.4632,1275.5064,1178.3,1275.02" style="stroke:#1E90FF;stroke-width:1.0;"/></g><!--link User to MechanographicNumber--><g id="link_User_MechanographicNumber"><path codeLine="57" d="M988.58,980.71 C1013.64,1029.76 1065.58,1119.22 1134,1172 C1141.47,1177.76 1149.9,1182.76 1158.62,1187.07 " fill="none" id="User-to-MechanographicNumber" style="stroke:#1E90FF;stroke-width:1.0;"/><polygon fill="#1E90FF" points="1163.49,1189.4,1157.0941,1181.9105,1158.9786,1187.2442,1153.6449,1189.1287,1163.49,1189.4" style="stroke:#1E90FF;stroke-width:1.0;"/></g><!--link User to Acronym--><g id="link_User_Acronym"><path codeLine="58" d="M1002.52,980.57 C1033.07,1013.43 1082.77,1062.4 1134,1094 C1146.14,1101.49 1159.96,1107.95 1173.42,1113.33 " fill="none" id="User-to-Acronym" style="stroke:#1E90FF;stroke-width:1.0;"/><polygon fill="#1E90FF" points="1178.36,1115.27,1171.4259,1108.2759,1173.7011,1113.455,1168.5219,1115.7302,1178.36,1115.27" style="stroke:#1E90FF;stroke-width:1.0;"/></g><!--link User to BirthDate--><g id="link_User_BirthDate"><path codeLine="59" d="M1006.58,961.45 C1039.26,975.93 1089.73,997.98 1134,1016 C1146.75,1021.19 1160.46,1026.57 1173.58,1031.62 " fill="none" id="User-to-BirthDate" style="stroke:#1E90FF;stroke-width:1.0;"/><polygon fill="#1E90FF" points="1178.38,1033.46,1171.4015,1026.5101,1173.7096,1031.6747,1168.545,1033.9827,1178.38,1033.46" style="stroke:#1E90FF;stroke-width:1.0;"/></g><!--link User to TaxPayerNumber--><g id="link_User_TaxPayerNumber"><path codeLine="60" d="M1006.51,950.05 C1047.12,954.82 1115.53,962.85 1167.12,968.91 " fill="none" id="User-to-TaxPayerNumber" style="stroke:#1E90FF;stroke-width:1.0;"/><polygon fill="#1E90FF" points="1172.37,969.53,1163.9015,964.5016,1167.4045,968.9433,1162.9628,972.4463,1172.37,969.53" style="stroke:#1E90FF;stroke-width:1.0;"/></g><!--link Course to Name--><g id="link_Course_Name"><path codeLine="87" d="M416.11,487.1 C450.68,434.24 521.53,332.48 598,261 C603.37,255.98 609.44,251.14 615.58,246.68 " fill="none" id="Course-to-Name" style="stroke:#1E90FF;stroke-width:1.0;"/><polygon fill="#1E90FF" points="619.83,243.65,610.1788,245.6134,615.7575,246.5508,614.8201,252.1294,619.83,243.65" style="stroke:#1E90FF;stroke-width:1.0;"/></g><!--link Course to State--><g id="link_Course_State"><path codeLine="88" d="M408.48,487.33 C437.09,421.88 506.17,278.13 598,183 C602.97,177.85 608.72,173 614.63,168.57 " fill="none" id="Course-to-State" style="stroke:#1E90FF;stroke-width:1.0;"/><polygon fill="#1E90FF" points="618.74,165.58,609.1096,167.6426,614.6976,168.5226,613.8176,174.1106,618.74,165.58" style="stroke:#1E90FF;stroke-width:1.0;"/></g><!--link Course to Description--><g id="link_Course_Description"><path codeLine="89" d="M432.02,536.54 C474.56,552.81 544.09,579.39 594.3,598.6 " fill="none" id="Course-to-Description" style="stroke:#1E90FF;stroke-width:1.0;"/><polygon fill="#1E90FF" points="599.1,600.43,592.1215,593.4801,594.4296,598.6447,589.265,600.9527,599.1,600.43" style="stroke:#1E90FF;stroke-width:1.0;"/></g><!--link Course to MaxStudents--><g id="link_Course_MaxStudents"><path codeLine="90" d="M432.02,525.2 C474.07,528.74 542.47,534.49 592.53,538.7 " fill="none" id="Course-to-MaxStudents" style="stroke:#1E90FF;stroke-width:1.0;"/><polygon fill="#1E90FF" points="597.63,539.13,588.9921,534.3985,592.6472,538.716,588.3297,542.371,597.63,539.13" style="stroke:#1E90FF;stroke-width:1.0;"/></g><!--link Course to MinStudents--><g id="link_Course_MinStudents"><path codeLine="91" d="M432.02,513.86 C474.07,504.85 542.47,490.21 592.53,479.48 " fill="none" id="Course-to-MinStudents" style="stroke:#1E90FF;stroke-width:1.0;"/><polygon fill="#1E90FF" points="597.63,478.39,587.9933,476.3569,592.7402,479.4337,589.6633,484.1806,597.63,478.39" style="stroke:#1E90FF;stroke-width:1.0;"/></g><!--link Course to Code--><g id="link_Course_Code"><path codeLine="92" d="M428.85,487.48 C453.12,463.78 486.48,431.88 517,405 C551.85,374.31 560.75,366.73 598,339 C604.49,334.17 611.53,329.19 618.38,324.48 " fill="none" id="Course-to-Code" style="stroke:#1E90FF;stroke-width:1.0;"/><polygon fill="#1E90FF" points="622.61,321.58,612.9246,323.3669,618.4852,324.406,617.4462,329.9666,622.61,321.58" style="stroke:#1E90FF;stroke-width:1.0;"/></g><!--link Course to Edition--><g id="link_Course_Edition"><path codeLine="93" d="M403.44,487.25 C425.83,410.27 488.62,222.85 598,105 C602.8,99.83 608.41,94.98 614.21,90.59 " fill="none" id="Course-to-Edition" style="stroke:#1E90FF;stroke-width:1.0;"/><polygon fill="#1E90FF" points="618.24,87.61,608.6179,89.7111,614.2093,90.5687,613.3518,96.1601,618.24,87.61" style="stroke:#1E90FF;stroke-width:1.0;"/></g><!--link Class to ClassTime--><g id="link_Class_ClassTime"><path codeLine="129" d="M692.34,397.98 C730.68,414.27 794.27,440.68 850,461 C868.44,467.72 888.66,474.51 907.17,480.51 " fill="none" id="Class-to-ClassTime" style="stroke:#1E90FF;stroke-width:1.0;"/><polygon fill="#1E90FF" points="912.34,482.17,904.9951,475.6085,907.5797,480.6404,902.5478,483.225,912.34,482.17" style="stroke:#1E90FF;stroke-width:1.0;"/></g><!--link Class to ClassTitle--><g id="link_Class_ClassTitle"><path codeLine="130" d="M692.14,387.32 C744.02,393.8 842.72,406.12 907.44,414.19 " fill="none" id="Class-to-ClassTitle" style="stroke:#1E90FF;stroke-width:1.0;"/><polygon fill="#1E90FF" points="912.42,414.81,903.9802,409.7336,907.458,414.1951,902.9964,417.6728,912.42,414.81" style="stroke:#1E90FF;stroke-width:1.0;"/></g><!--link Class to ClassDayOfWeek--><g id="link_Class_ClassDayOfWeek"><path codeLine="131" d="M692.14,378.68 C742.16,372.43 835.71,360.76 900.36,352.69 " fill="none" id="Class-to-ClassDayOfWeek" style="stroke:#1E90FF;stroke-width:1.0;"/><polygon fill="#1E90FF" points="905.35,352.07,895.9264,349.2072,900.388,352.6849,896.9102,357.1464,905.35,352.07" style="stroke:#1E90FF;stroke-width:1.0;"/></g><!--link Course to Class--><g id="link_Course_Class"><path codeLine="132" d="M432.02,501.79 C481.15,475.67 566.26,430.43 616.07,403.96 " fill="none" id="Course-to-Class" style="stroke:#1E90FF;stroke-width:1.0;"/><polygon fill="#1E90FF" points="620.77,401.46,610.9451,402.1461,616.3535,403.804,614.6955,409.2125,620.77,401.46" style="stroke:#1E90FF;stroke-width:1.0;"/><text fill="#000000" font-family="sans-serif" font-size="13" lengthAdjust="spacing" textLength="49" x="518" y="428.0283">contains</text><text fill="#000000" font-family="sans-serif" font-size="13" lengthAdjust="spacing" textLength="5" x="607.8851" y="421.1219">*</text></g><!--link EnrollmentRequest to RequestedDate--><g id="link_EnrollmentRequest_RequestedDate"><path codeLine="147" d="M175.2,841.09 C222.64,853.76 283.25,869.95 328.31,881.99 " fill="none" id="EnrollmentRequest-to-RequestedDate" style="stroke:#1E90FF;stroke-width:1.0;"/><polygon fill="#1E90FF" points="333.18,883.29,325.5294,877.0878,328.3519,881.9901,323.4496,884.8127,333.18,883.29" style="stroke:#1E90FF;stroke-width:1.0;"/></g><!--link EnrollmentRequest to AnsweredDate--><g id="link_EnrollmentRequest_AnsweredDate"><path codeLine="148" d="M175.2,821 C222.87,821 283.83,821 328.97,821 " fill="none" id="EnrollmentRequest-to-AnsweredDate" style="stroke:#1E90FF;stroke-width:1.0;"/><polygon fill="#1E90FF" points="334.11,821,325.11,817,329.11,821,325.11,825,334.11,821" style="stroke:#1E90FF;stroke-width:1.0;"/></g><!--link EnrollmentRequest to RequestState--><g id="link_EnrollmentRequest_RequestState"><path codeLine="149" d="M175.2,800.91 C222.97,788.15 284.08,771.83 329.24,759.76 " fill="none" id="EnrollmentRequest-to-RequestState" style="stroke:#1E90FF;stroke-width:1.0;"/><polygon fill="#1E90FF" points="334.11,758.46,324.3838,756.9104,329.2784,759.7465,326.4423,764.6411,334.11,758.46" style="stroke:#1E90FF;stroke-width:1.0;"/></g><!--link Course to User--><g id="link_Course_User"><path codeLine="153" d="M430.88,556.59 C469.87,591.64 534.41,645.49 598,680 C697.7,734.1 748.1,696.16 839,764 C889.82,801.93 929,865.27 950.78,906.33 " fill="none" id="Course-to-User" style="stroke:#1E90FF;stroke-width:1.0;"/><polygon fill="#1E90FF" points="953.35,911.22,952.7019,901.3925,951.023,906.7945,945.621,905.1156,953.35,911.22" style="stroke:#1E90FF;stroke-width:1.0;"/><text fill="#000000" font-family="sans-serif" font-size="13" lengthAdjust="spacing" textLength="51" x="631" y="676.0283">is owned</text><text fill="#000000" font-family="sans-serif" font-size="13" lengthAdjust="spacing" textLength="7" x="942.4505" y="900.3375">1</text></g><!--link Course to User--><g id="link_Course_User"><path codeLine="154" d="M420.18,556.7 C444.16,587.75 481.26,633.93 517,671 C550.43,705.68 557.73,716.57 598,743 C696.74,807.81 736.56,796.2 839,855 C871.24,873.51 905.69,897.62 931.16,916.38 " fill="none" id="Course-to-User-1" style="stroke:#1E90FF;stroke-width:1.0;"/><polygon fill="#1E90FF" points="935.49,919.58,930.6214,911.0186,931.4662,916.6121,925.8727,917.4568,935.49,919.58" style="stroke:#1E90FF;stroke-width:1.0;"/><text fill="#000000" font-family="sans-serif" font-size="13" lengthAdjust="spacing" textLength="21" x="646" y="739.0283">has</text><text fill="#000000" font-family="sans-serif" font-size="13" lengthAdjust="spacing" textLength="9" x="918.613" y="930.154">N</text></g><!--link Course to User--><g id="link_Course_User"><path codeLine="155" d="M412.61,556.54 C452.26,628.87 545.69,792.51 598,828 C704.77,900.44 858.54,930.4 930.3,941 " fill="none" id="Course-to-User-2" style="stroke:#1E90FF;stroke-width:1.0;"/><polygon fill="#1E90FF" points="935.32,941.73,926.9995,936.4603,930.3734,941.0009,925.8329,944.3748,935.32,941.73" style="stroke:#1E90FF;stroke-width:1.0;"/><text fill="#000000" font-family="sans-serif" font-size="13" lengthAdjust="spacing" textLength="46" x="633.5" y="824.0283">teaches</text><text fill="#000000" font-family="sans-serif" font-size="13" lengthAdjust="spacing" textLength="9" x="918.4096" y="956.6647">N</text></g><!--link EnrollmentRequest to User--><g id="link_EnrollmentRequest_User"><path codeLine="157" d="M137.57,855.66 C170.87,883.9 222.29,921.67 275,938 C514.12,1012.08 822.1,971.35 930.3,953.24 " fill="none" id="EnrollmentRequest-to-User" style="stroke:#1E90FF;stroke-width:1.0;"/><polygon fill="#1E90FF" points="935.3,952.39,925.7614,949.9375,930.3692,953.2189,927.0877,957.8267,935.3,952.39" style="stroke:#1E90FF;stroke-width:1.0;"/><text fill="#000000" font-family="sans-serif" font-size="13" lengthAdjust="spacing" textLength="24" x="530.5" y="975.0283">is of</text><text fill="#000000" font-family="sans-serif" font-size="13" lengthAdjust="spacing" textLength="7" x="920.5825" y="969.4234">1</text></g><!--link EnrollmentRequest to Course--><g id="link_EnrollmentRequest_Course"><path codeLine="158" d="M133.78,786.41 C188.72,730.15 297.05,619.23 354.37,560.53 " fill="none" id="EnrollmentRequest-to-Course" style="stroke:#1E90FF;stroke-width:1.0;"/><polygon fill="#1E90FF" points="358.07,556.74,348.9212,560.3869,354.5777,560.3182,354.6464,565.9746,358.07,556.74" style="stroke:#1E90FF;stroke-width:1.0;"/><text fill="#000000" font-family="sans-serif" font-size="13" lengthAdjust="spacing" textLength="60" x="206" y="650.0283">belongs to</text><text fill="#000000" font-family="sans-serif" font-size="13" lengthAdjust="spacing" textLength="7" x="344.705" y="577.9919">1</text></g><!--link Class to User--><g id="link_Class_User"><path codeLine="160" d="M692.13,405.7 C700.23,411.99 708.4,419.24 715,427 C733.29,448.51 728.75,459.91 745,483 C780.86,533.95 812.34,530.69 839,587 C853.04,616.65 841.14,628.41 850,660 C875.62,751.34 922.81,852.42 949.75,906.57 " fill="none" id="Class-to-User" style="stroke:#1E90FF;stroke-width:1.0;"/><polygon fill="#1E90FF" points="952.13,911.34,951.6954,901.5007,949.8997,906.865,944.5354,905.0693,952.13,911.34" style="stroke:#1E90FF;stroke-width:1.0;"/><text fill="#000000" font-family="sans-serif" font-size="13" lengthAdjust="spacing" textLength="92" x="746" y="479.0283">has participants</text></g><!--link Class to User--><g id="link_Class_User"><path codeLine="161" d="M692.26,402.93 C700.96,409.52 709.39,417.61 715,427 C758.16,499.27 698.81,543.63 745,614 C772.2,655.43 806.1,636.93 839,674 C901.3,744.21 940.55,849.31 958.5,906.12 " fill="none" id="Class-to-User-1" style="stroke:#1E90FF;stroke-width:1.0;"/><polygon fill="#1E90FF" points="960.07,911.13,961.1868,901.3447,958.5705,906.3601,953.555,903.7439,960.07,911.13" style="stroke:#1E90FF;stroke-width:1.0;"/><text fill="#000000" font-family="sans-serif" font-size="13" lengthAdjust="spacing" textLength="68" x="758" y="610.0283">has teacher</text></g><!--SRC=[pLPBYzim4BxxLuZqK2XTQ0-54aB0c-p2bds49jsU5MjYgsjBxaXkDYtzxvNaHopRINoiMGWxyutc-OsKS0Oa0vr8fe8KTffeIP37YIQC8qIQIn44weMBd2BDI9HIfKAjaMyB3NUH56l-6yY77eRy2OZvxlaExhc0QuaCS25JYMGfMGnudHRWGsZq4gCi12jXuMfrVxS8DtTFZmxNrRzPVhxzT7lhT26Yt0-UViBnttR0kJcPnh3MXnI8JPgAE0Kl9Ohi_y-eoeDClYamtk8O8QOQ9bNa83JN1-AKirdvttm-cw6KUZuFWhTEyukQquZS_Z1rKCxE9N-JKPw6Z26Otivcpmxrv53pUNd-toDwPIPWR-AyZBmjqlIHPd0PkKuawd5GcyXQczGlGnyWIgYGCT8yuT5ZaMrTTIvOXH5ASSXwGD93NdFKoN8eb3vsGrzNz01u8eg-mLUPNZXNIEEvvBFSEVoKBAWWMo0Re542-9wiTS7CD10pJmzKc072mDcwSRYwcdkzzpLrdtrftLDVslJF5zkOV4dJFLyyr2aVKNN55pODyCL-hODZiTmIh6hbfFRR95mHyoT5UY250aPsfbfvWRbKe1gOCQE5sQN8VrEtEKlQCNUonz25B531IOvMwY6MMjJRId-2gml9nepRIDgDuz4IL8GyjrcF81rzhOPkn2vvu68y-8Rnio6udwfwTWoQUMp9ZhFN4hRowwfQsVHKnzYxAjkahgoAFXYWxZ4ePrDIM0gmEfs0cSSqbNikuca3ijyLUSf1T4IBr4mjwmXl19eZEi8xiKB3k9htpIWF1DZaOxyRirf8L2QMK4KeAGJ_QVeHUQXNckLs8qs-XC_XrSV9AISr9-lwr0Si-Mu7Q7SNb1hbA5XvRc0KmJvhjjQzKER5WuR0hBPjOANLKAOrAzt3vaZAe4KvgzhmCuJgONKw6hoaXwVTTu2NymQTXZHkcWp3wcsM5KgRllo2OsDq0_HJBtDs0rkdE2olpJkA9lJkh4_UJIhirBP5KowKjoBBWSnCiR-2YT14V6fRzf6d5cTvQvOWOEUlvTPjBzJUpinOVENW_EPqF_t8tPNO3l0ChXtNvUFA3HBqT-3auwIy5wVkYjkBQZUq8OyDnD3vZ5QxHuKwbrt7tUu2jF8pDVHDfOYLON9tCe-HcQSyQXxnd3ORTmXLHed1Fm00]--></g></svg>