<?xml version="1.0" encoding="UTF-8" standalone="no"?><svg xmlns="http://www.w3.org/2000/svg" xmlns:xlink="http://www.w3.org/1999/xlink" contentStyleType="text/css" height="1015px" preserveAspectRatio="none" style="width:647px;height:1015px;background:#FFFFFF;" version="1.1" viewBox="0 0 647 1015" width="647px" zoomAndPan="magnify"><defs/><g><!--MD5=[0b0784ff54073464fb718bcdf48fd4cf]
class EnableUserUI--><g id="elem_EnableUserUI"><polygon fill="#F1F1F1" points="234,7,234,7.2102,244.1818,6.5857,254.3636,7.1933,264.5455,7.3997,274.7273,6.2866,284.9091,6.9223,295.0909,6.5735,305.2727,6.6165,315.4545,6.9318,325.6364,6.3086,335.8182,7.5536,346,7,345.9196,6.8059,346.3283,7.0855,346.7622,7.4259,347.0497,7.4129,347.4229,7.6068,347.7678,7.7322,347.7579,7.7282,347.9692,8.1086,348.1343,8.4698,348.3875,8.8676,348.5602,9.232,348.5,9.5,349.1793,9.5,348.7546,19.6875,348.9636,29.875,349.2022,40.0625,347.7788,50.25,349.1785,60.4375,348.2035,70.625,348.5,80.8125,348.6644,80.8806,348.2011,81.1029,348.186,81.5109,348.289,81.9678,347.8992,82.2205,347.7678,82.5803,347.7812,82.6127,347.4574,82.831,347.1138,83.0013,346.7066,83.0184,346.3902,83.2545,346,83.3125,346,82.7401,335.8182,83.5969,325.6364,83.8607,315.4545,83.757,305.2727,83.9255,295.0909,82.8294,284.9091,82.6603,274.7273,82.6911,264.5455,83.2536,254.3636,83.116,244.1818,83.9939,234,83.3125,233.9777,83.2587,233.6027,83.0604,233.322,83.0899,232.8543,82.6678,232.5196,82.5668,232.2322,82.5803,232.4321,82.663,232.22,82.2823,232.1655,81.9669,231.6938,81.4786,231.7447,81.2068,231.5,80.8125,232.0904,80.8125,231.0276,70.625,231.4041,60.4375,231.626,50.25,232.1518,40.0625,231.4958,29.875,231.9626,19.6875,231.5,9.5,231.3295,9.4294,231.4379,9.0601,231.948,8.8571,231.7186,8.3479,232.2425,8.1507,232.2322,7.7322,232.2586,7.7959,232.5516,7.5033,232.8942,7.3304,233.3514,7.4342,233.6083,7.0543,234,7" style="stroke:#181818;stroke-width:0.5;"/><polygon fill="#C2C2C2" points="257.5608,31.0272,255.9484,33.2304,254.0412,36.4573,251.3136,38.632,248.4474,39.8212,246.162,39.9244,243.2247,38.4371,240.4532,37.4655,238.3495,35.4927,237.2461,33.2343,236.5917,31.4361,235.9506,29.0873,234.91,27.066,235.7096,25.0926,236.4102,22.9308,239.0393,21.221,240.889,19.0027,243.1784,18.266,245.9001,17.6316,249.3904,18.0085,251.3021,18.9101,253.5247,19.3188,256.2272,22.0875,257.1693,25.0105,257.5786,27.0049,257.115,30.2914" style="stroke:#181818;stroke-width:1.0;"/><path d="M249.2656,24.2266 Q249.4219,24.0078 249.6094,23.8984 Q249.7969,23.7891 250.0156,23.7891 Q250.3906,23.7891 250.625,24.0547 Q250.8594,24.3047 250.8594,24.9141 L250.8594,26.3672 Q250.8594,26.9766 250.625,27.2422 Q250.3906,27.5078 250.0156,27.5078 Q249.6719,27.5078 249.4688,27.3047 Q249.2656,27.1172 249.1563,26.6016 Q249.1094,26.2422 248.9219,26.0547 Q248.5938,25.6797 247.9844,25.4609 Q247.375,25.2422 246.75,25.2422 Q245.9844,25.2422 245.3438,25.5703 Q244.7188,25.8984 244.2188,26.6484 Q243.7344,27.3984 243.7344,28.4297 L243.7344,29.5234 Q243.7344,30.7578 244.625,31.5859 Q245.5156,32.3984 247.1094,32.3984 Q248.0469,32.3984 248.7031,32.1484 Q249.0938,31.9922 249.5156,31.5547 Q249.7813,31.2891 249.9219,31.2109 Q250.0781,31.1328 250.2813,31.1328 Q250.6094,31.1328 250.8594,31.3984 Q251.125,31.6484 251.125,31.9922 Q251.125,32.3359 250.7813,32.7422 Q250.2813,33.3203 249.4844,33.6484 Q248.4063,34.1016 247.1094,34.1016 Q245.5938,34.1016 244.3906,33.4766 Q243.4063,32.9766 242.7188,31.9141 Q242.0313,30.8359 242.0313,29.5547 L242.0313,28.3984 Q242.0313,27.0703 242.6406,25.9297 Q243.2656,24.7734 244.3594,24.1641 Q245.4531,23.5391 246.6875,23.5391 Q247.4219,23.5391 248.0625,23.7109 Q248.7188,23.8672 249.2656,24.2266 Z " fill="#000000"/><text fill="#000000" font-family="FG Virgil" font-size="12" font-style="italic" lengthAdjust="spacing" textLength="82" x="262" y="24.457">«presentation»</text><text fill="#000000" font-family="FG Virgil" font-size="14" lengthAdjust="spacing" textLength="85" x="260.5" y="41.627">EnableUserUI</text><path d="M232.5,49.7031 L232.5,49.9834 L242.0833,49.1507 L251.6667,49.9608 L261.25,50.236 L270.8333,48.7519 L280.4167,49.5995 L290,49.1345 L299.5833,49.1918 L309.1667,49.6122 L318.75,48.7813 L328.3333,50.4413 L337.9167,48.8628 L347.5,49.7031 " fill="#F1F1F1" style="stroke:#181818;stroke-width:0.5;"/><path d="M232.5,57.7031 L232.5,57.9834 L242.0833,57.1507 L251.6667,57.9608 L261.25,58.236 L270.8333,56.7519 L280.4167,57.5995 L290,57.1345 L299.5833,57.1918 L309.1667,57.6122 L318.75,56.7813 L328.3333,58.4413 L337.9167,56.8628 L347.5,57.7031 " fill="#F1F1F1" style="stroke:#181818;stroke-width:0.5;"/><text fill="#000000" font-family="FG Virgil" font-size="14" lengthAdjust="spacing" textLength="60" x="237.5" y="76.2363">doShow()</text></g><!--MD5=[62848162c92c404759fa28c8759a215a]
class ChangeUserStateController--><g id="elem_ChangeUserStateController"><polygon fill="#F1F1F1" points="177.5,161,177.5,161.2102,187.2826,160.5857,197.0652,161.1933,206.8478,161.3997,216.6304,160.2866,226.413,160.9223,236.1957,160.5735,245.9783,160.6165,255.7609,160.9318,265.5435,160.3086,275.3261,161.5536,285.1087,160.3697,294.8913,160.8022,304.6739,161.4319,314.4565,160.9142,324.2391,161.0682,334.0217,160.9681,343.8043,161.1785,353.587,161.2391,363.3696,161.5857,373.1522,161.6711,382.9348,161.6793,392.7174,161.2546,402.5,161,402.5591,161.1428,402.9431,161.3627,403.1151,161.0708,403.6472,161.6483,403.8764,161.4945,404.2678,161.7322,404.4322,161.8003,404.2618,162.0226,404.5396,162.4306,404.9355,162.8875,404.8385,163.1402,405,163.5,405.1053,163.5,405.3386,173.6875,405.4162,183.875,404.9961,194.0625,405.2872,204.25,404.4276,214.4375,405.2844,224.625,405,234.8125,405.1688,234.8824,404.9905,235.2228,404.8959,235.5978,404.4119,235.8115,404.2134,236.1435,404.2678,236.5803,404.1885,236.3889,403.9067,236.7086,403.5356,236.8126,403.294,237.2295,402.8313,237.1123,402.5,237.3125,402.5,236.9694,392.7174,237.5408,382.9348,236.6457,373.1522,236.7934,363.3696,237.9615,353.587,237.7482,343.8043,238.047,334.0217,236.9907,324.2391,237.6317,314.4565,237.9029,304.6739,236.8401,294.8913,237.2166,285.1087,237.4385,275.3261,237.9643,265.5435,237.3083,255.7609,237.7751,245.9783,236.7587,236.1957,236.6352,226.413,237.8161,216.6304,236.5956,206.8478,237.8215,197.0652,237.5191,187.2826,237.0446,177.5,237.3125,177.4549,237.2036,177.205,237.3073,176.7547,236.9274,176.5148,237.0554,176.0153,236.5565,175.7322,236.5803,175.9224,236.659,175.7349,236.2885,175.5148,235.9044,175.3074,235.5256,175.3702,235.2587,175,234.8125,175.6136,234.8125,175.1693,224.625,175.2682,214.4375,174.8697,204.25,175.7165,194.0625,175.1549,183.875,175.1726,173.6875,175,163.5,174.8127,163.4224,175.0217,163.0948,175.4563,162.8606,175.5717,162.4942,175.5726,162.0803,175.7322,161.7322,175.6911,161.633,176.0579,161.5184,176.3518,161.228,176.8458,161.4206,177.2408,161.3742,177.5,161" style="stroke:#181818;stroke-width:0.5;"/><polygon fill="#C2C2C2" points="211.8608,185.0272,210.2484,187.2304,208.3412,190.4573,205.6136,192.632,202.7474,193.8212,200.462,193.9244,197.5247,192.4371,194.7532,191.4655,192.6495,189.4927,191.5461,187.2343,190.8917,185.4361,190.2506,183.0873,189.21,181.066,190.0096,179.0926,190.7102,176.9308,193.3393,175.221,195.189,173.0027,197.4784,172.266,200.2001,171.6316,203.6904,172.0085,205.6021,172.9101,207.8247,173.3188,210.5272,176.0875,211.4693,179.0105,211.8786,181.0049,211.415,184.2914" style="stroke:#181818;stroke-width:1.0;"/><path d="M203.5656,178.2266 Q203.7219,178.0078 203.9094,177.8984 Q204.0969,177.7891 204.3156,177.7891 Q204.6906,177.7891 204.925,178.0547 Q205.1594,178.3047 205.1594,178.9141 L205.1594,180.3672 Q205.1594,180.9766 204.925,181.2422 Q204.6906,181.5078 204.3156,181.5078 Q203.9719,181.5078 203.7688,181.3047 Q203.5656,181.1172 203.4563,180.6016 Q203.4094,180.2422 203.2219,180.0547 Q202.8938,179.6797 202.2844,179.4609 Q201.675,179.2422 201.05,179.2422 Q200.2844,179.2422 199.6438,179.5703 Q199.0188,179.8984 198.5188,180.6484 Q198.0344,181.3984 198.0344,182.4297 L198.0344,183.5234 Q198.0344,184.7578 198.925,185.5859 Q199.8156,186.3984 201.4094,186.3984 Q202.3469,186.3984 203.0031,186.1484 Q203.3938,185.9922 203.8156,185.5547 Q204.0813,185.2891 204.2219,185.2109 Q204.3781,185.1328 204.5813,185.1328 Q204.9094,185.1328 205.1594,185.3984 Q205.425,185.6484 205.425,185.9922 Q205.425,186.3359 205.0813,186.7422 Q204.5813,187.3203 203.7844,187.6484 Q202.7063,188.1016 201.4094,188.1016 Q199.8938,188.1016 198.6906,187.4766 Q197.7063,186.9766 197.0188,185.9141 Q196.3313,184.8359 196.3313,183.5547 L196.3313,182.3984 Q196.3313,181.0703 196.9406,179.9297 Q197.5656,178.7734 198.6594,178.1641 Q199.7531,177.5391 200.9875,177.5391 Q201.7219,177.5391 202.3625,177.7109 Q203.0188,177.8672 203.5656,178.2266 Z " fill="#000000"/><text fill="#000000" font-family="FG Virgil" font-size="12" font-style="italic" lengthAdjust="spacing" textLength="74" x="267.2" y="178.457">«application»</text><text fill="#000000" font-family="FG Virgil" font-size="14" lengthAdjust="spacing" textLength="174" x="217.2" y="195.627">ChangeUserStateController</text><path d="M176,203.7031 L176,203.9834 L185.913,203.1507 L195.8261,203.9608 L205.7391,204.236 L215.6522,202.7519 L225.5652,203.5995 L235.4783,203.1345 L245.3913,203.1918 L255.3043,203.6122 L265.2174,202.7813 L275.1304,204.4413 L285.0435,202.8628 L294.9565,203.4394 L304.8696,204.2791 L314.7826,203.5888 L324.6957,203.7941 L334.6087,203.6605 L344.5217,203.9412 L354.4348,204.022 L364.3478,204.484 L374.2609,204.5979 L384.1739,204.6088 L394.087,204.0426 L404,203.7031 " fill="#F1F1F1" style="stroke:#181818;stroke-width:0.5;"/><path d="M176,211.7031 L176,211.9834 L185.913,211.1507 L195.8261,211.9608 L205.7391,212.236 L215.6522,210.7519 L225.5652,211.5995 L235.4783,211.1345 L245.3913,211.1918 L255.3043,211.6122 L265.2174,210.7813 L275.1304,212.4413 L285.0435,210.8628 L294.9565,211.4394 L304.8696,212.2791 L314.7826,211.5888 L324.6957,211.7941 L334.6087,211.6605 L344.5217,211.9412 L354.4348,212.022 L364.3478,212.484 L374.2609,212.5979 L384.1739,212.6088 L394.087,212.0426 L404,211.7031 " fill="#F1F1F1" style="stroke:#181818;stroke-width:0.5;"/><text fill="#000000" font-family="FG Virgil" font-size="14" lengthAdjust="spacing" textLength="218" x="181" y="230.2363">enableUserByEmail(EmailAddress)</text></g><!--MD5=[54a33dd013dd881697601ca49de6dfbc]
class AuthorizationService--><g id="elem_AuthorizationService"><polygon fill="#F1F1F1" points="9.5,453,9.5,453.2102,19.5357,452.5857,29.5714,453.1933,39.6071,453.3997,49.6429,452.2866,59.6786,452.9223,69.7143,452.5735,79.75,452.6165,89.7857,452.9318,99.8214,452.3086,109.8571,453.5536,119.8929,452.3697,129.9286,452.8022,139.9643,453.4319,150,452.9142,160.0357,453.0682,170.0714,452.9681,180.1071,453.1785,190.1429,453.2391,200.1786,453.5857,210.2143,453.6711,220.25,453.6793,230.2857,453.2546,240.3214,453.4636,250.3571,453.7022,260.3929,452.2788,270.4286,453.6785,280.4643,452.7035,290.5,453,290.5681,453.1644,290.7904,452.994,291.1984,453.2718,291.6553,453.6677,291.908,453.5708,292.2678,453.7322,292.3002,453.7457,292.5185,454.129,292.6888,454.4924,292.7059,454.7924,292.942,455.1831,293,455.5,292.4276,455.5,293.2844,465.6875,293.5482,475.875,293.4445,486.0625,293.613,496.25,292.5169,506.4375,292.3478,516.625,293,526.8125,292.8086,526.7332,292.8354,527.1585,292.6466,527.4945,292.7705,527.9601,292.3604,528.2044,292.2678,528.5803,292.224,528.4746,291.9433,528.797,291.4756,528.6678,291.1409,528.8597,290.9363,529.3659,290.5,529.3125,290.5,529.7482,280.4643,530.047,270.4286,528.9907,260.3929,529.6317,250.3571,529.9029,240.3214,528.8401,230.2857,529.2166,220.25,529.4385,210.2143,529.9643,200.1786,529.3083,190.1429,529.7751,180.1071,528.7587,170.0714,528.6352,160.0357,529.8161,150,528.5956,139.9643,529.8215,129.9286,529.5191,119.8929,529.0446,109.8571,528.9587,99.8214,529.7713,89.7857,529.0132,79.75,529.9044,69.7143,528.7598,59.6786,529.9299,49.6429,529.7968,39.6071,529.5575,29.5714,529.3597,19.5357,530.0391,9.5,529.3125,9.5783,529.5015,9.168,529.2182,8.8271,529.1022,8.4227,528.833,8.1772,528.9474,7.7322,528.5803,7.7799,528.6,7.6389,528.2487,7.252,527.7956,7.1681,527.4679,7.3099,527.2338,7,526.8125,7.4298,526.8125,6.9571,516.625,6.6778,506.4375,6.7811,496.25,6.3138,486.0625,7.4147,475.875,7.7396,465.6875,7,455.5,7.1621,455.5671,7.3605,455.2351,7.2508,454.7755,7.4662,454.4505,7.4664,454.0363,7.7322,453.7322,7.7685,453.8197,8.1173,453.6618,8.5098,453.6095,8.7636,453.2222,9.1293,453.1051,9.5,453" style="stroke:#181818;stroke-width:0.5;"/><polygon fill="#C2C2C2" points="92.3108,477.0272,90.6984,479.2304,88.7912,482.4573,86.0636,484.632,83.1974,485.8212,80.912,485.9244,77.9747,484.4371,75.2032,483.4655,73.0995,481.4927,71.9961,479.2343,71.3417,477.4361,70.7006,475.0873,69.66,473.066,70.4596,471.0926,71.1602,468.9308,73.7893,467.221,75.639,465.0027,77.9284,464.266,80.6501,463.6316,84.1404,464.0085,86.0521,464.9101,88.2747,465.3188,90.9772,468.0875,91.9193,471.0105,92.3286,473.0049,91.865,476.2914" style="stroke:#181818;stroke-width:1.0;"/><path d="M84.0156,470.2266 Q84.1719,470.0078 84.3594,469.8984 Q84.5469,469.7891 84.7656,469.7891 Q85.1406,469.7891 85.375,470.0547 Q85.6094,470.3047 85.6094,470.9141 L85.6094,472.3672 Q85.6094,472.9766 85.375,473.2422 Q85.1406,473.5078 84.7656,473.5078 Q84.4219,473.5078 84.2188,473.3047 Q84.0156,473.1172 83.9063,472.6016 Q83.8594,472.2422 83.6719,472.0547 Q83.3438,471.6797 82.7344,471.4609 Q82.125,471.2422 81.5,471.2422 Q80.7344,471.2422 80.0938,471.5703 Q79.4688,471.8984 78.9688,472.6484 Q78.4844,473.3984 78.4844,474.4297 L78.4844,475.5234 Q78.4844,476.7578 79.375,477.5859 Q80.2656,478.3984 81.8594,478.3984 Q82.7969,478.3984 83.4531,478.1484 Q83.8438,477.9922 84.2656,477.5547 Q84.5313,477.2891 84.6719,477.2109 Q84.8281,477.1328 85.0313,477.1328 Q85.3594,477.1328 85.6094,477.3984 Q85.875,477.6484 85.875,477.9922 Q85.875,478.3359 85.5313,478.7422 Q85.0313,479.3203 84.2344,479.6484 Q83.1563,480.1016 81.8594,480.1016 Q80.3438,480.1016 79.1406,479.4766 Q78.1563,478.9766 77.4688,477.9141 Q76.7813,476.8359 76.7813,475.5547 L76.7813,474.3984 Q76.7813,473.0703 77.3906,471.9297 Q78.0156,470.7734 79.1094,470.1641 Q80.2031,469.5391 81.4375,469.5391 Q82.1719,469.5391 82.8125,469.7109 Q83.4688,469.8672 84.0156,470.2266 Z " fill="#000000"/><text fill="#000000" font-family="FG Virgil" font-size="12" font-style="italic" lengthAdjust="spacing" textLength="53" x="139.75" y="470.457">«service»</text><text fill="#000000" font-family="FG Virgil" font-size="14" lengthAdjust="spacing" textLength="129" x="101.75" y="487.627">AuthorizationService</text><path d="M8,495.7031 L8,495.9834 L18.1429,495.1507 L28.2857,495.9608 L38.4286,496.236 L48.5714,494.7519 L58.7143,495.5995 L68.8571,495.1345 L79,495.1918 L89.1429,495.6122 L99.2857,494.7813 L109.4286,496.4413 L119.5714,494.8628 L129.7143,495.4394 L139.8571,496.2791 L150,495.5888 L160.1429,495.7941 L170.2857,495.6605 L180.4286,495.9412 L190.5714,496.022 L200.7143,496.484 L210.8571,496.5979 L221,496.6088 L231.1429,496.0426 L241.2857,496.3212 L251.4286,496.6394 L261.5714,494.7415 L271.7143,496.6078 L281.8571,495.3078 L292,495.7031 " fill="#F1F1F1" style="stroke:#181818;stroke-width:0.5;"/><path d="M8,503.7031 L8,503.9834 L18.1429,503.1507 L28.2857,503.9608 L38.4286,504.236 L48.5714,502.7519 L58.7143,503.5995 L68.8571,503.1345 L79,503.1918 L89.1429,503.6122 L99.2857,502.7813 L109.4286,504.4413 L119.5714,502.8628 L129.7143,503.4394 L139.8571,504.2791 L150,503.5888 L160.1429,503.7941 L170.2857,503.6605 L180.4286,503.9412 L190.5714,504.022 L200.7143,504.484 L210.8571,504.5979 L221,504.6088 L231.1429,504.0426 L241.2857,504.3212 L251.4286,504.6394 L261.5714,502.7415 L271.7143,504.6078 L281.8571,503.3078 L292,503.7031 " fill="#F1F1F1" style="stroke:#181818;stroke-width:0.5;"/><text fill="#000000" font-family="FG Virgil" font-size="14" lengthAdjust="spacing" textLength="274" x="13" y="522.2363">ensureAuthenticatedUserHasAnyOf(Role...)</text></g><!--MD5=[dee3711f8c64a3e2b37828f172d71c22]
class UserManagementService--><g id="elem_UserManagementService"><polygon fill="#F1F1F1" points="338.5,453,338.5,453.2102,348.2368,452.5857,357.9737,453.1933,367.7105,453.3997,377.4474,452.2866,387.1842,452.9223,396.9211,452.5735,406.6579,452.6165,416.3947,452.9318,426.1316,452.3086,435.8684,453.5536,445.6053,452.3697,455.3421,452.8022,465.0789,453.4319,474.8158,452.9142,484.5526,453.0682,494.2895,452.9681,504.0263,453.1785,513.7632,453.2391,523.5,453,523.5747,453.1804,523.9392,453.3531,524.2938,453.5021,524.5931,453.5178,524.9733,453.7286,525.2678,453.7322,525.484,453.8218,525.1921,453.9938,525.7696,454.5259,525.6158,454.7551,526.0179,455.2145,526,455.5,525.505,455.5,525.9315,465.6875,526.7416,475.875,525.9513,486.0625,526.1053,496.25,526.3386,506.4375,526.4162,516.625,526,526.8125,525.9988,526.812,525.942,527.2027,525.5308,527.4466,525.6482,527.9094,525.583,528.2966,525.2678,528.5803,525.3245,528.7172,524.9924,528.9155,524.499,528.7244,524.1239,528.8188,523.7743,528.9747,523.5,529.3125,523.5,529.2536,513.7632,529.116,504.0263,529.9939,494.2895,529.1378,484.5526,528.9694,474.8158,529.5408,465.0789,528.6457,455.3421,528.7934,445.6053,529.9615,435.8684,529.7482,426.1316,530.047,416.3947,528.9907,406.6579,529.6317,396.9211,529.9029,387.1842,528.8401,377.4474,529.2166,367.7105,529.4385,357.9737,529.9643,348.2368,529.3083,338.5,529.3125,338.559,529.455,338.0758,528.9955,337.7065,528.811,337.5036,529.0283,336.9943,528.5059,336.7322,528.5803,336.889,528.6452,336.6494,528.2531,336.3568,527.839,336.1839,527.4745,336.2877,527.2246,336,526.8125,335.7007,526.8125,336.5919,516.625,335.4473,506.4375,336.6174,496.25,336.4843,486.0625,336.245,475.875,336.0472,465.6875,336,455.5,336.2238,455.5927,336.3354,455.2247,336.345,454.8145,336.5219,454.4736,336.5457,454.0692,336.7322,453.7322,336.8236,453.9529,337.1055,453.6335,337.4614,453.4925,337.7153,453.1055,338.0948,453.0217,338.5,453" style="stroke:#181818;stroke-width:0.5;"/><polygon fill="#C2C2C2" points="362.0608,477.0272,360.4484,479.2304,358.5412,482.4573,355.8136,484.632,352.9474,485.8212,350.662,485.9244,347.7247,484.4371,344.9532,483.4655,342.8495,481.4927,341.7461,479.2343,341.0917,477.4361,340.4506,475.0873,339.41,473.066,340.2096,471.0926,340.9102,468.9308,343.5393,467.221,345.389,465.0027,347.6784,464.266,350.4001,463.6316,353.8904,464.0085,355.8021,464.9101,358.0247,465.3188,360.7272,468.0875,361.6693,471.0105,362.0786,473.0049,361.615,476.2914" style="stroke:#181818;stroke-width:1.0;"/><path d="M353.7656,470.2266 Q353.9219,470.0078 354.1094,469.8984 Q354.2969,469.7891 354.5156,469.7891 Q354.8906,469.7891 355.125,470.0547 Q355.3594,470.3047 355.3594,470.9141 L355.3594,472.3672 Q355.3594,472.9766 355.125,473.2422 Q354.8906,473.5078 354.5156,473.5078 Q354.1719,473.5078 353.9688,473.3047 Q353.7656,473.1172 353.6563,472.6016 Q353.6094,472.2422 353.4219,472.0547 Q353.0938,471.6797 352.4844,471.4609 Q351.875,471.2422 351.25,471.2422 Q350.4844,471.2422 349.8438,471.5703 Q349.2188,471.8984 348.7188,472.6484 Q348.2344,473.3984 348.2344,474.4297 L348.2344,475.5234 Q348.2344,476.7578 349.125,477.5859 Q350.0156,478.3984 351.6094,478.3984 Q352.5469,478.3984 353.2031,478.1484 Q353.5938,477.9922 354.0156,477.5547 Q354.2813,477.2891 354.4219,477.2109 Q354.5781,477.1328 354.7813,477.1328 Q355.1094,477.1328 355.3594,477.3984 Q355.625,477.6484 355.625,477.9922 Q355.625,478.3359 355.2813,478.7422 Q354.7813,479.3203 353.9844,479.6484 Q352.9063,480.1016 351.6094,480.1016 Q350.0938,480.1016 348.8906,479.4766 Q347.9063,478.9766 347.2188,477.9141 Q346.5313,476.8359 346.5313,475.5547 L346.5313,474.3984 Q346.5313,473.0703 347.1406,471.9297 Q347.7656,470.7734 348.8594,470.1641 Q349.9531,469.5391 351.1875,469.5391 Q351.9219,469.5391 352.5625,469.7109 Q353.2188,469.8672 353.7656,470.2266 Z " fill="#000000"/><text fill="#000000" font-family="FG Virgil" font-size="12" font-style="italic" lengthAdjust="spacing" textLength="53" x="417.5" y="470.457">«service»</text><text fill="#000000" font-family="FG Virgil" font-size="14" lengthAdjust="spacing" textLength="158" x="365" y="487.627">UserManagementService</text><path d="M337,495.7031 L337,495.9834 L346.8947,495.1507 L356.7895,495.9608 L366.6842,496.236 L376.5789,494.7519 L386.4737,495.5995 L396.3684,495.1345 L406.2632,495.1918 L416.1579,495.6122 L426.0526,494.7813 L435.9474,496.4413 L445.8421,494.8628 L455.7368,495.4394 L465.6316,496.2791 L475.5263,495.5888 L485.4211,495.7941 L495.3158,495.6605 L505.2105,495.9412 L515.1053,496.022 L525,495.7031 " fill="#F1F1F1" style="stroke:#181818;stroke-width:0.5;"/><path d="M337,503.7031 L337,503.9834 L346.8947,503.1507 L356.7895,503.9608 L366.6842,504.236 L376.5789,502.7519 L386.4737,503.5995 L396.3684,503.1345 L406.2632,503.1918 L416.1579,503.6122 L426.0526,502.7813 L435.9474,504.4413 L445.8421,502.8628 L455.7368,503.4394 L465.6316,504.2791 L475.5263,503.5888 L485.4211,503.7941 L495.3158,503.6605 L505.2105,503.9412 L515.1053,504.022 L525,503.7031 " fill="#F1F1F1" style="stroke:#181818;stroke-width:0.5;"/><text fill="#000000" font-family="FG Virgil" font-size="14" lengthAdjust="spacing" textLength="168" x="342" y="522.2363">enableUser(EmailAddress)</text></g><!--MD5=[0b1f3d1c1978f9b151365e147219e3b1]
class AuthzRegistry--><g id="elem_AuthzRegistry"><polygon fill="#F1F1F1" points="217.5,298,217.5,298.2102,227.1667,297.5857,236.8333,298.1933,246.5,298.3997,256.1667,297.2866,265.8333,297.9223,275.5,297.5735,285.1667,297.6165,294.8333,297.9318,304.5,297.3086,314.1667,298.5536,323.8333,297.3697,333.5,297.8022,343.1667,298.4319,352.8333,297.9142,362.5,298,362.5087,298.021,362.8495,298.1366,363.2299,298.3479,363.5912,298.513,363.9889,298.7662,364.2678,298.7322,364.4744,298.8178,364.6234,299.1724,364.6391,299.4718,364.8499,299.852,365.0698,300.236,365,300.5,364.2788,300.5,365.6785,310.3802,364.7035,320.2604,365.5338,330.1406,364.505,340.0208,364.9315,349.901,365.7416,359.7813,364.9513,369.6615,365.1053,379.5417,365,389.4219,365.1043,389.4651,364.9817,389.8285,364.7059,390.1285,364.6491,390.5192,364.2379,390.7631,364.2678,391.1896,364.304,391.2772,363.9841,391.5049,363.6174,391.6194,363.2853,391.8178,362.7919,391.6267,362.5,391.9219,362.5,391.2697,352.8333,391.3005,343.1667,391.863,333.5,391.7253,323.8333,392.6033,314.1667,391.7472,304.5,391.5788,294.8333,392.1501,285.1667,391.255,275.5,391.4027,265.8333,392.5708,256.1667,392.3575,246.5,392.6564,236.8333,391.6001,227.1667,392.2411,217.5,391.9219,217.5753,392.1037,217.0862,391.6299,216.7807,391.5995,216.4554,391.5213,216.1689,391.5368,215.7322,391.1896,215.7309,391.1891,215.7282,390.8951,215.2688,390.4119,215.0843,390.0426,215.3015,389.8397,215,389.4219,214.2831,389.4219,215.509,379.5417,215.2066,369.6615,214.7321,359.7813,214.6462,349.901,215.4588,340.0208,214.7007,330.1406,215.5919,320.2604,214.4473,310.3802,215,300.5,215.1901,300.5788,215.2956,300.2082,215.3683,299.8241,215.4539,299.4454,215.8096,299.1785,215.7322,298.7322,215.8105,298.9212,216.1074,298.6379,216.4736,298.5219,216.7763,298.2528,217.2378,298.3671,217.5,298" style="stroke:#181818;stroke-width:0.5;"/><polygon fill="#C2C2C2" points="255.0108,322.0272,253.3984,324.2304,251.4912,327.4573,248.7636,329.632,245.8974,330.8212,243.612,330.9244,240.6747,329.4371,237.9032,328.4655,235.7995,326.4927,234.6961,324.2343,234.0417,322.4361,233.4006,320.0873,232.36,318.066,233.1596,316.0926,233.8602,313.9308,236.4893,312.221,238.339,310.0027,240.6284,309.266,243.3501,308.6316,246.8404,309.0085,248.7521,309.9101,250.9747,310.3188,253.6772,313.0875,254.6193,316.0105,255.0286,318.0049,254.565,321.2914" style="stroke:#181818;stroke-width:1.0;"/><path d="M246.7156,315.2266 Q246.8719,315.0078 247.0594,314.8984 Q247.2469,314.7891 247.4656,314.7891 Q247.8406,314.7891 248.075,315.0547 Q248.3094,315.3047 248.3094,315.9141 L248.3094,317.3672 Q248.3094,317.9766 248.075,318.2422 Q247.8406,318.5078 247.4656,318.5078 Q247.1219,318.5078 246.9188,318.3047 Q246.7156,318.1172 246.6063,317.6016 Q246.5594,317.2422 246.3719,317.0547 Q246.0438,316.6797 245.4344,316.4609 Q244.825,316.2422 244.2,316.2422 Q243.4344,316.2422 242.7938,316.5703 Q242.1688,316.8984 241.6688,317.6484 Q241.1844,318.3984 241.1844,319.4297 L241.1844,320.5234 Q241.1844,321.7578 242.075,322.5859 Q242.9656,323.3984 244.5594,323.3984 Q245.4969,323.3984 246.1531,323.1484 Q246.5438,322.9922 246.9656,322.5547 Q247.2313,322.2891 247.3719,322.2109 Q247.5281,322.1328 247.7313,322.1328 Q248.0594,322.1328 248.3094,322.3984 Q248.575,322.6484 248.575,322.9922 Q248.575,323.3359 248.2313,323.7422 Q247.7313,324.3203 246.9344,324.6484 Q245.8563,325.1016 244.5594,325.1016 Q243.0438,325.1016 241.8406,324.4766 Q240.8563,323.9766 240.1688,322.9141 Q239.4813,321.8359 239.4813,320.5547 L239.4813,319.3984 Q239.4813,318.0703 240.0906,316.9297 Q240.7156,315.7734 241.8094,315.1641 Q242.9031,314.5391 244.1375,314.5391 Q244.8719,314.5391 245.5125,314.7109 Q246.1688,314.8672 246.7156,315.2266 Z " fill="#000000"/><text fill="#000000" font-family="FG Virgil" font-size="12" font-style="italic" lengthAdjust="spacing" textLength="30" x="289.55" y="315.457">«util»</text><text fill="#000000" font-family="FG Virgil" font-size="14" lengthAdjust="spacing" textLength="87" x="261.05" y="332.627">AuthzRegistry</text><path d="M216,340.7031 L216,340.9834 L225.8667,340.1507 L235.7333,340.9608 L245.6,341.236 L255.4667,339.7519 L265.3333,340.5995 L275.2,340.1345 L285.0667,340.1918 L294.9333,340.6122 L304.8,339.7813 L314.6667,341.4413 L324.5333,339.8628 L334.4,340.4394 L344.2667,341.2791 L354.1333,340.5888 L364,340.7031 " fill="#F1F1F1" style="stroke:#181818;stroke-width:0.5;"/><path d="M216,348.7031 L216,348.9834 L225.8667,348.1507 L235.7333,348.9608 L245.6,349.236 L255.4667,347.7519 L265.3333,348.5995 L275.2,348.1345 L285.0667,348.1918 L294.9333,348.6122 L304.8,347.7813 L314.6667,349.4413 L324.5333,347.8628 L334.4,348.4394 L344.2667,349.2791 L354.1333,348.5888 L364,348.7031 " fill="#F1F1F1" style="stroke:#181818;stroke-width:0.5;"/><text fill="#000000" font-family="FG Virgil" font-size="14" lengthAdjust="spacing" textLength="138" x="221" y="367.2363">authorizationService()</text><text fill="#000000" font-family="FG Virgil" font-size="14" lengthAdjust="spacing" textLength="85" x="221" y="384.8457">userService()</text></g><!--MD5=[49911543bde009bea1ce58d6156faf98]
class user:User--><g id="elem_user:User"><polygon fill="#F1F1F1" points="228,607,228,607.2102,237.7778,606.5857,247.5556,607.1933,257.3333,607.3997,267.1111,606.2866,276.8889,606.9223,286.6667,606.5735,296.4444,606.6165,306.2222,606.9318,316,607,315.9118,606.7871,316.4242,607.3169,316.6267,607.0988,317.0354,607.3784,317.4693,607.7188,317.7678,607.7322,317.7414,607.7213,317.9352,608.0945,318.0508,608.4353,318.2621,608.8157,318.4272,609.177,318.5,609.5,319.0857,609.5,319.1711,619.6875,319.1793,629.875,318.7546,640.0625,318.9636,650.25,319.2022,660.4375,317.7788,670.625,318.5,680.8125,318.709,680.8991,318.2622,681.1282,318.3715,681.5877,317.9082,681.81,317.8931,682.218,317.7678,682.5803,317.8624,682.8087,317.408,682.7117,317.0741,682.9056,316.7503,683.1239,316.4066,683.2942,316,683.3125,316,683.3086,306.2222,683.5997,296.4444,682.7401,286.6667,683.5969,276.8889,683.8607,267.1111,683.757,257.3333,683.9255,247.5556,682.8294,237.7778,682.6603,228,683.3125,227.9207,683.1211,227.6389,683.1479,227.2678,682.9591,227.0263,683.083,226.5635,682.6729,226.2322,682.5803,226.1266,682.5365,226.1561,682.2558,225.734,681.7881,225.633,681.4534,225.8463,681.2488,225.5,680.8125,225.9357,680.8125,226.2345,670.625,225.1782,660.4375,225.8192,650.25,226.0904,640.0625,225.0276,629.875,225.4041,619.6875,225.5,609.5,225.5388,609.5161,225.8472,609.2296,225.7916,608.7924,226.0818,608.4983,225.9152,608.0151,226.2322,607.7322,226.1458,607.5237,226.65,607.7409,226.8479,607.2186,227.3578,607.4496,227.6728,607.2101,228,607" style="stroke:#181818;stroke-width:0.5;"/><polygon fill="#C2C2C2" points="251.5608,631.0272,249.9484,633.2304,248.0412,636.4573,245.3136,638.632,242.4474,639.8212,240.162,639.9244,237.2247,638.4371,234.4532,637.4655,232.3495,635.4927,231.2461,633.2343,230.5917,631.4361,229.9506,629.0873,228.91,627.066,229.7096,625.0926,230.4102,622.9308,233.0393,621.221,234.889,619.0027,237.1784,618.266,239.9001,617.6316,243.3904,618.0085,245.3021,618.9101,247.5247,619.3188,250.2272,622.0875,251.1693,625.0105,251.5786,627.0049,251.115,630.2914" style="stroke:#181818;stroke-width:1.0;"/><path d="M243.2656,624.2266 Q243.4219,624.0078 243.6094,623.8984 Q243.7969,623.7891 244.0156,623.7891 Q244.3906,623.7891 244.625,624.0547 Q244.8594,624.3047 244.8594,624.9141 L244.8594,626.3672 Q244.8594,626.9766 244.625,627.2422 Q244.3906,627.5078 244.0156,627.5078 Q243.6719,627.5078 243.4688,627.3047 Q243.2656,627.1172 243.1563,626.6016 Q243.1094,626.2422 242.9219,626.0547 Q242.5938,625.6797 241.9844,625.4609 Q241.375,625.2422 240.75,625.2422 Q239.9844,625.2422 239.3438,625.5703 Q238.7188,625.8984 238.2188,626.6484 Q237.7344,627.3984 237.7344,628.4297 L237.7344,629.5234 Q237.7344,630.7578 238.625,631.5859 Q239.5156,632.3984 241.1094,632.3984 Q242.0469,632.3984 242.7031,632.1484 Q243.0938,631.9922 243.5156,631.5547 Q243.7813,631.2891 243.9219,631.2109 Q244.0781,631.1328 244.2813,631.1328 Q244.6094,631.1328 244.8594,631.3984 Q245.125,631.6484 245.125,631.9922 Q245.125,632.3359 244.7813,632.7422 Q244.2813,633.3203 243.4844,633.6484 Q242.4063,634.1016 241.1094,634.1016 Q239.5938,634.1016 238.3906,633.4766 Q237.4063,632.9766 236.7188,631.9141 Q236.0313,630.8359 236.0313,629.5547 L236.0313,628.3984 Q236.0313,627.0703 236.6406,625.9297 Q237.2656,624.7734 238.3594,624.1641 Q239.4531,623.5391 240.6875,623.5391 Q241.4219,623.5391 242.0625,623.7109 Q242.7188,623.8672 243.2656,624.2266 Z " fill="#000000"/><text fill="#000000" font-family="FG Virgil" font-size="12" font-style="italic" lengthAdjust="spacing" textLength="56" x="257" y="624.457">«domain»</text><text fill="#000000" font-family="FG Virgil" font-size="14" lengthAdjust="spacing" textLength="61" x="254.5" y="641.627">user:User</text><path d="M226.5,649.7031 L226.5,649.9834 L236.6111,649.1507 L246.7222,649.9608 L256.8333,650.236 L266.9444,648.7519 L277.0556,649.5995 L287.1667,649.1345 L297.2778,649.1918 L307.3889,649.6122 L317.5,649.7031 " fill="#F1F1F1" style="stroke:#181818;stroke-width:0.5;"/><path d="M226.5,657.7031 L226.5,657.9834 L236.6111,657.1507 L246.7222,657.9608 L256.8333,658.236 L266.9444,656.7519 L277.0556,657.5995 L287.1667,657.1345 L297.2778,657.1918 L307.3889,657.6122 L317.5,657.7031 " fill="#F1F1F1" style="stroke:#181818;stroke-width:0.5;"/><text fill="#000000" font-family="FG Virgil" font-size="14" lengthAdjust="spacing" textLength="53" x="231.5" y="676.2363">enable()</text></g><!--MD5=[e8c189551b7885b999ad7cefb30fc2a3]
class PersistenceContext--><g id="elem_PersistenceContext"><polygon fill="#F1F1F1" points="356.5,607,356.5,607.2102,366.4333,606.5857,376.3667,607.1933,386.3,607.3997,396.2333,606.2866,406.1667,606.9223,416.1,606.5735,426.0333,606.6165,435.9667,606.9318,445.9,606.3086,455.8333,607.5536,465.7667,606.3697,475.7,606.8022,485.6333,607.4319,495.5667,606.9142,505.5,607,505.5087,607.021,505.8495,607.1366,506.2299,607.3479,506.5912,607.513,506.9889,607.7662,507.2678,607.7322,507.4744,607.8178,507.6234,608.1724,507.6391,608.4718,507.8499,608.852,508.0698,609.236,508,609.5,507.2788,609.5,508.6785,619.6875,507.7035,629.875,508.5338,640.0625,507.505,650.25,507.9315,660.4375,508.7416,670.625,508,680.8125,507.985,680.8063,507.886,681.1795,507.8114,681.5628,507.6888,681.9263,507.413,682.2262,507.2678,682.5803,507.3044,682.6687,506.8412,682.5504,506.5969,682.9607,506.277,683.1884,505.9103,683.303,505.5,683.3125,505.5,683.9255,495.5667,682.8294,485.6333,682.6603,475.7,682.6911,465.7667,683.2536,455.8333,683.116,445.9,683.9939,435.9667,683.1378,426.0333,682.9694,416.1,683.5408,406.1667,682.6457,396.2333,682.7934,386.3,683.9615,376.3667,683.7482,366.4333,684.047,356.5,683.3125,356.459,683.2134,356.1872,683.2644,355.8682,683.2014,355.3791,682.7277,355.0736,682.6972,354.7322,682.5803,354.771,682.5963,354.7865,682.3099,354.438,681.8726,354.4353,681.5786,353.9759,681.0954,354,680.8125,353.3227,680.8125,354.5036,670.625,353.2831,660.4375,354.509,650.25,354.2066,640.0625,353.7321,629.875,353.6462,619.6875,354,609.5,354.1413,609.5585,354.0543,609.1083,354.4752,608.8684,354.2691,608.3688,354.7759,608.1645,354.7322,607.7322,354.794,607.8814,355.117,607.6612,355.4454,607.4539,355.8856,607.5167,356.2247,607.3354,356.5,607" style="stroke:#181818;stroke-width:0.5;"/><polygon fill="#C2C2C2" points="380.0608,631.0272,378.4484,633.2304,376.5412,636.4573,373.8136,638.632,370.9474,639.8212,368.662,639.9244,365.7247,638.4371,362.9532,637.4655,360.8495,635.4927,359.7461,633.2343,359.0917,631.4361,358.4506,629.0873,357.41,627.066,358.2096,625.0926,358.9102,622.9308,361.5393,621.221,363.389,619.0027,365.6784,618.266,368.4001,617.6316,371.8904,618.0085,373.8021,618.9101,376.0247,619.3188,378.7272,622.0875,379.6693,625.0105,380.0786,627.0049,379.615,630.2914" style="stroke:#181818;stroke-width:1.0;"/><path d="M371.7656,624.2266 Q371.9219,624.0078 372.1094,623.8984 Q372.2969,623.7891 372.5156,623.7891 Q372.8906,623.7891 373.125,624.0547 Q373.3594,624.3047 373.3594,624.9141 L373.3594,626.3672 Q373.3594,626.9766 373.125,627.2422 Q372.8906,627.5078 372.5156,627.5078 Q372.1719,627.5078 371.9688,627.3047 Q371.7656,627.1172 371.6563,626.6016 Q371.6094,626.2422 371.4219,626.0547 Q371.0938,625.6797 370.4844,625.4609 Q369.875,625.2422 369.25,625.2422 Q368.4844,625.2422 367.8438,625.5703 Q367.2188,625.8984 366.7188,626.6484 Q366.2344,627.3984 366.2344,628.4297 L366.2344,629.5234 Q366.2344,630.7578 367.125,631.5859 Q368.0156,632.3984 369.6094,632.3984 Q370.5469,632.3984 371.2031,632.1484 Q371.5938,631.9922 372.0156,631.5547 Q372.2813,631.2891 372.4219,631.2109 Q372.5781,631.1328 372.7813,631.1328 Q373.1094,631.1328 373.3594,631.3984 Q373.625,631.6484 373.625,631.9922 Q373.625,632.3359 373.2813,632.7422 Q372.7813,633.3203 371.9844,633.6484 Q370.9063,634.1016 369.6094,634.1016 Q368.0938,634.1016 366.8906,633.4766 Q365.9063,632.9766 365.2188,631.9141 Q364.5313,630.8359 364.5313,629.5547 L364.5313,628.3984 Q364.5313,627.0703 365.1406,625.9297 Q365.7656,624.7734 366.8594,624.1641 Q367.9531,623.5391 369.1875,623.5391 Q369.9219,623.5391 370.5625,623.7109 Q371.2188,623.8672 371.7656,624.2266 Z " fill="#000000"/><text fill="#000000" font-family="FG Virgil" font-size="12" font-style="italic" lengthAdjust="spacing" textLength="77" x="405.5" y="624.457">«persistence»</text><text fill="#000000" font-family="FG Virgil" font-size="14" lengthAdjust="spacing" textLength="122" x="383" y="641.627">PersistenceContext</text><path d="M355,649.7031 L355,649.9834 L365.1333,649.1507 L375.2667,649.9608 L385.4,650.236 L395.5333,648.7519 L405.6667,649.5995 L415.8,649.1345 L425.9333,649.1918 L436.0667,649.6122 L446.2,648.7813 L456.3333,650.4413 L466.4667,648.8628 L476.6,649.4394 L486.7333,650.2791 L496.8667,649.5888 L507,649.7031 " fill="#F1F1F1" style="stroke:#181818;stroke-width:0.5;"/><path d="M355,657.7031 L355,657.9834 L365.1333,657.1507 L375.2667,657.9608 L385.4,658.236 L395.5333,656.7519 L405.6667,657.5995 L415.8,657.1345 L425.9333,657.1918 L436.0667,657.6122 L446.2,656.7813 L456.3333,658.4413 L466.4667,656.8628 L476.6,657.4394 L486.7333,658.2791 L496.8667,657.5888 L507,657.7031 " fill="#F1F1F1" style="stroke:#181818;stroke-width:0.5;"/><text fill="#000000" font-family="FG Virgil" font-size="14" lengthAdjust="spacing" textLength="84" x="360" y="676.2363">repositories()</text></g><!--MD5=[48590afff58a68e2fcba47824d6f8a11]
class RepositoryFactory--><g id="elem_RepositoryFactory"><polygon fill="#F1F1F1" points="361.5,761,361.5,761.2102,371.7143,760.5857,381.9286,761.1933,392.1429,761.3997,402.3571,760.2866,412.5714,760.9223,422.7857,760.5735,433,760.6165,443.2143,760.9318,453.4286,760.3086,463.6429,761.5536,473.8571,760.3697,484.0714,760.8022,494.2857,761.4319,504.5,761,504.4891,760.9736,504.8623,761.1675,505.203,761.2831,505.5834,761.4943,505.9447,761.6594,506.2678,761.7322,506.4481,761.8069,506.6209,762.1714,506.7698,762.526,506.7855,762.8254,506.9963,763.2056,507,763.5,507.7022,763.5,506.2788,773.6875,507.6785,783.875,506.7035,794.0625,507.5338,804.25,506.505,814.4375,506.9315,824.625,507,834.8125,507.2284,834.9071,506.8385,835.1598,506.7395,835.533,506.6649,835.9164,506.5424,836.2798,506.2678,836.5803,506.2673,836.5791,505.9509,836.8152,505.4876,836.6969,505.2434,837.1072,504.9235,837.3349,504.5,837.3125,504.5,837.757,494.2857,837.9255,484.0714,836.8294,473.8571,836.6603,463.6429,836.6911,453.4286,837.2536,443.2143,837.116,433,837.9939,422.7857,837.1378,412.5714,836.9694,402.3571,837.5408,392.1429,836.6457,381.9286,836.7934,371.7143,837.9615,361.5,837.3125,361.5556,837.4467,361.2401,837.3922,360.7518,836.9205,360.4801,836.9715,360.1611,836.9085,359.7322,836.5803,359.5868,836.52,359.5563,836.2145,359.4781,835.8892,359.4936,835.6027,359.1452,835.1655,359,834.8125,359.4626,834.8125,358.4462,824.625,358.3227,814.4375,359.5036,804.25,358.2831,794.0625,359.509,783.875,359.2066,773.6875,359,763.5,358.9175,763.4658,359.0375,763.1013,359.4342,762.8514,359.3472,762.4012,359.7681,762.1613,359.7322,761.7322,359.6617,761.562,360.1645,761.7759,360.5011,761.5885,360.8241,761.3683,361.1525,761.161,361.5,761" style="stroke:#181818;stroke-width:0.5;"/><polygon fill="#C2C2C2" points="385.0608,785.0272,383.4484,787.2304,381.5412,790.4573,378.8136,792.632,375.9474,793.8212,373.662,793.9244,370.7247,792.4371,367.9532,791.4655,365.8495,789.4927,364.7461,787.2343,364.0917,785.4361,363.4506,783.0873,362.41,781.066,363.2096,779.0926,363.9102,776.9308,366.5393,775.221,368.389,773.0027,370.6784,772.266,373.4001,771.6316,376.8904,772.0085,378.8021,772.9101,381.0247,773.3188,383.7272,776.0875,384.6693,779.0105,385.0786,781.0049,384.615,784.2914" style="stroke:#181818;stroke-width:1.0;"/><path d="M376.7656,778.2266 Q376.9219,778.0078 377.1094,777.8984 Q377.2969,777.7891 377.5156,777.7891 Q377.8906,777.7891 378.125,778.0547 Q378.3594,778.3047 378.3594,778.9141 L378.3594,780.3672 Q378.3594,780.9766 378.125,781.2422 Q377.8906,781.5078 377.5156,781.5078 Q377.1719,781.5078 376.9688,781.3047 Q376.7656,781.1172 376.6563,780.6016 Q376.6094,780.2422 376.4219,780.0547 Q376.0938,779.6797 375.4844,779.4609 Q374.875,779.2422 374.25,779.2422 Q373.4844,779.2422 372.8438,779.5703 Q372.2188,779.8984 371.7188,780.6484 Q371.2344,781.3984 371.2344,782.4297 L371.2344,783.5234 Q371.2344,784.7578 372.125,785.5859 Q373.0156,786.3984 374.6094,786.3984 Q375.5469,786.3984 376.2031,786.1484 Q376.5938,785.9922 377.0156,785.5547 Q377.2813,785.2891 377.4219,785.2109 Q377.5781,785.1328 377.7813,785.1328 Q378.1094,785.1328 378.3594,785.3984 Q378.625,785.6484 378.625,785.9922 Q378.625,786.3359 378.2813,786.7422 Q377.7813,787.3203 376.9844,787.6484 Q375.9063,788.1016 374.6094,788.1016 Q373.0938,788.1016 371.8906,787.4766 Q370.9063,786.9766 370.2188,785.9141 Q369.5313,784.8359 369.5313,783.5547 L369.5313,782.3984 Q369.5313,781.0703 370.1406,779.9297 Q370.7656,778.7734 371.8594,778.1641 Q372.9531,777.5391 374.1875,777.5391 Q374.9219,777.5391 375.5625,777.7109 Q376.2188,777.8672 376.7656,778.2266 Z " fill="#000000"/><text fill="#000000" font-family="FG Virgil" font-size="12" font-style="italic" lengthAdjust="spacing" textLength="50" x="421" y="778.457">«factory»</text><text fill="#000000" font-family="FG Virgil" font-size="14" lengthAdjust="spacing" textLength="116" x="388" y="795.627">RepositoryFactory</text><path d="M360,803.7031 L360,803.9834 L369.7333,803.1507 L379.4667,803.9608 L389.2,804.236 L398.9333,802.7519 L408.6667,803.5995 L418.4,803.1345 L428.1333,803.1918 L437.8667,803.6122 L447.6,802.7813 L457.3333,804.4413 L467.0667,802.8628 L476.8,803.4394 L486.5333,804.2791 L496.2667,803.5888 L506,803.7031 " fill="#F1F1F1" style="stroke:#181818;stroke-width:0.5;"/><path d="M360,811.7031 L360,811.9834 L369.7333,811.1507 L379.4667,811.9608 L389.2,812.236 L398.9333,810.7519 L408.6667,811.5995 L418.4,811.1345 L428.1333,811.1918 L437.8667,811.6122 L447.6,810.7813 L457.3333,812.4413 L467.0667,810.8628 L476.8,811.4394 L486.5333,812.2791 L496.2667,811.5888 L506,811.7031 " fill="#F1F1F1" style="stroke:#181818;stroke-width:0.5;"/><text fill="#000000" font-family="FG Virgil" font-size="14" lengthAdjust="spacing" textLength="45" x="365" y="830.2363">users()</text></g><!--MD5=[093c210125347143eef5bb9199eae634]
class UserRepository--><g id="elem_UserRepository"><polygon fill="#F1F1F1" points="394.5,915,394.5,915.2102,404.2619,914.5857,414.0238,915.1933,423.7857,915.3997,433.5476,914.2866,443.3095,914.9223,453.0714,914.5735,462.8333,914.6165,472.5952,914.9318,482.3571,914.3086,492.119,915.5536,501.881,914.3697,511.6429,914.8022,521.4048,915.4319,531.1667,914.9142,540.9286,915.0682,550.6905,914.9681,560.4524,915.1785,570.2143,915.2391,579.9762,915.5857,589.7381,915.6711,599.5,915,599.5866,915.2092,599.886,915.2249,600.2662,915.4357,600.6502,915.6556,600.8222,915.3637,601.2678,915.7322,601.4767,915.8188,601.3229,916.048,601.7251,916.5074,601.5547,916.7297,601.8325,917.1377,602,917.5,602.7416,917.5,601.9513,927.3802,602.1053,937.2604,602.3386,947.1406,602.4162,957.0208,601.9961,966.901,602.2872,976.7813,601.4276,986.6615,602.2844,996.5417,602,1006.4219,602.1688,1006.4918,601.9905,1006.8321,601.8959,1007.2072,601.4119,1007.4209,601.2134,1007.7529,601.2678,1008.1896,601.1885,1007.9983,600.9067,1008.318,600.5356,1008.422,600.294,1008.8388,599.8313,1008.7216,599.5,1008.9219,599.5,1008.5788,589.7381,1009.1501,579.9762,1008.255,570.2143,1008.4027,560.4524,1009.5708,550.6905,1009.3575,540.9286,1009.6564,531.1667,1008.6001,521.4048,1009.2411,511.6429,1009.5123,501.881,1008.4495,492.119,1008.826,482.3571,1009.0479,472.5952,1009.5736,462.8333,1008.9177,453.0714,1009.3844,443.3095,1008.3681,433.5476,1008.2446,423.7857,1009.4255,414.0238,1008.2049,404.2619,1009.4308,394.5,1008.9219,394.5264,1008.9855,394.1123,1008.6929,393.7478,1008.52,393.4979,1008.6238,393.0476,1008.2439,392.7322,1008.1896,392.9145,1008.2651,392.4156,1007.7656,392.6295,1007.5613,392.442,1007.1908,392.2219,1006.8067,392,1006.4219,392.0472,1006.4219,392.7266,996.5417,392.6136,986.6615,392.1693,976.7813,392.2682,966.901,391.8697,957.0208,392.7165,947.1406,392.1549,937.2604,392.1726,927.3802,392,917.5,391.8127,917.4224,392.0217,917.0948,392.4563,916.8606,392.5717,916.4942,392.5726,916.0803,392.7322,915.7322,392.6911,915.633,393.0579,915.5184,393.3518,915.228,393.8458,915.4206,394.2408,915.3742,394.5,915" style="stroke:#181818;stroke-width:0.5;"/><polygon fill="#C2C2C2" points="455.3108,939.0272,453.6984,941.2304,451.7912,944.4573,449.0636,946.632,446.1974,947.8212,443.912,947.9244,440.9747,946.4371,438.2032,945.4655,436.0995,943.4927,434.9961,941.2343,434.3417,939.4361,433.7006,937.0873,432.66,935.066,433.4596,933.0926,434.1602,930.9308,436.7893,929.221,438.639,927.0027,440.9284,926.266,443.6501,925.6316,447.1404,926.0085,449.0521,926.9101,451.2747,927.3188,453.9772,930.0875,454.9193,933.0105,455.3286,935.0049,454.865,938.2914" style="stroke:#181818;stroke-width:1.0;"/><path d="M447.0156,932.2266 Q447.1719,932.0078 447.3594,931.8984 Q447.5469,931.7891 447.7656,931.7891 Q448.1406,931.7891 448.375,932.0547 Q448.6094,932.3047 448.6094,932.9141 L448.6094,934.3672 Q448.6094,934.9766 448.375,935.2422 Q448.1406,935.5078 447.7656,935.5078 Q447.4219,935.5078 447.2188,935.3047 Q447.0156,935.1172 446.9063,934.6016 Q446.8594,934.2422 446.6719,934.0547 Q446.3438,933.6797 445.7344,933.4609 Q445.125,933.2422 444.5,933.2422 Q443.7344,933.2422 443.0938,933.5703 Q442.4688,933.8984 441.9688,934.6484 Q441.4844,935.3984 441.4844,936.4297 L441.4844,937.5234 Q441.4844,938.7578 442.375,939.5859 Q443.2656,940.3984 444.8594,940.3984 Q445.7969,940.3984 446.4531,940.1484 Q446.8438,939.9922 447.2656,939.5547 Q447.5313,939.2891 447.6719,939.2109 Q447.8281,939.1328 448.0313,939.1328 Q448.3594,939.1328 448.6094,939.3984 Q448.875,939.6484 448.875,939.9922 Q448.875,940.3359 448.5313,940.7422 Q448.0313,941.3203 447.2344,941.6484 Q446.1563,942.1016 444.8594,942.1016 Q443.3438,942.1016 442.1406,941.4766 Q441.1563,940.9766 440.4688,939.9141 Q439.7813,938.8359 439.7813,937.5547 L439.7813,936.3984 Q439.7813,935.0703 440.3906,933.9297 Q441.0156,932.7734 442.1094,932.1641 Q443.2031,931.5391 444.4375,931.5391 Q445.1719,931.5391 445.8125,931.7109 Q446.4688,931.8672 447.0156,932.2266 Z " fill="#000000"/><text fill="#000000" font-family="FG Virgil" font-size="12" font-style="italic" lengthAdjust="spacing" textLength="68" x="479.25" y="932.457">«repository»</text><text fill="#000000" font-family="FG Virgil" font-size="14" lengthAdjust="spacing" textLength="97" x="464.75" y="949.627">UserRepository</text><path d="M393,957.7031 L393,957.9834 L402.9048,957.1507 L412.8095,957.9608 L422.7143,958.236 L432.619,956.7519 L442.5238,957.5995 L452.4286,957.1345 L462.3333,957.1918 L472.2381,957.6122 L482.1429,956.7813 L492.0476,958.4413 L501.9524,956.8628 L511.8571,957.4394 L521.7619,958.2791 L531.6667,957.5888 L541.5714,957.7941 L551.4762,957.6605 L561.381,957.9412 L571.2857,958.022 L581.1905,958.484 L591.0952,958.5979 L601,957.7031 " fill="#F1F1F1" style="stroke:#181818;stroke-width:0.5;"/><path d="M393,965.7031 L393,965.9834 L402.9048,965.1507 L412.8095,965.9608 L422.7143,966.236 L432.619,964.7519 L442.5238,965.5995 L452.4286,965.1345 L462.3333,965.1918 L472.2381,965.6122 L482.1429,964.7813 L492.0476,966.4413 L501.9524,964.8628 L511.8571,965.4394 L521.7619,966.2791 L531.6667,965.5888 L541.5714,965.7941 L551.4762,965.6605 L561.381,965.9412 L571.2857,966.022 L581.1905,966.484 L591.0952,966.5979 L601,965.7031 " fill="#F1F1F1" style="stroke:#181818;stroke-width:0.5;"/><text fill="#000000" font-family="FG Virgil" font-size="14" lengthAdjust="spacing" textLength="198" x="398" y="984.2363">findUserByEmail(EmailAddress)</text><text fill="#000000" font-family="FG Virgil" font-size="14" lengthAdjust="spacing" textLength="69" x="398" y="1001.8457">save(User)</text></g><!--MD5=[013ff5bdd853ef6dea022187b9983bbf]
link EnableUserUI to ChangeUserStateController--><g id="link_EnableUserUI_ChangeUserStateController"><path d="M290,83.18 L290.2802,83.18 L289.4476,93.5629 L290.2577,103.9457 L290.5329,114.3286 L289.0488,124.7114 L289.8964,135.0943 L289.4313,145.4771 L290,155.86 " fill="none" style="stroke:#181818;stroke-width:1.0;"/><polygon fill="#181818" points="290,160.94,290.064,160.9685,290.6738,159.0839,291.6589,157.3662,292.5217,155.5941,292.9827,153.6434,294,151.94,293.9817,151.9217,293.0995,152.6395,292.3096,153.4496,291.5839,154.3239,290.637,154.977,290,155.94,290.1305,156.0705,289.0514,154.9914,288.3534,154.2934,287.7018,153.6418,286.7798,152.7198,286,151.94,286.0208,151.9492,286.7903,153.7357,287.6544,155.5642,288.4728,157.3724,289.3784,159.2193,290,160.94" style="stroke:#181818;stroke-width:1.0;"/><text fill="#000000" font-family="FG Virgil" font-size="13" lengthAdjust="spacing" textLength="73" x="291" y="127.4951">theController</text></g><!--MD5=[34702d9dc0743cb9daaf2ae22be3b136]
link ChangeUserStateController to AuthorizationService--><g id="link_ChangeUserStateController_AuthorizationService"><path d="M220.95,237.22 L221.005,237.2955 L219.1678,238.2914 L217.6531,239.7298 L216.0334,241.024 L214.0682,241.8445 L212.5812,243.3208 L212.5598,243.2938 L210.8107,244.48 L209.1698,245.8028 L207.6039,247.2205 L205.7792,248.3111 L204.317,249.8598 L204.4781,250.0459 L202.5234,251.0425 L201.039,252.5822 L199.612,254.1881 L197.8512,255.4085 L196.2659,256.8317 L196.2869,256.8536 L194.7102,258.3014 L193.2289,259.8489 L191.7016,261.3482 L190.2622,262.9394 L188.5363,264.2313 L188.7543,264.4347 L187.297,266.0016 L185.6991,267.4372 L184.307,269.0649 L182.9246,270.7017 L181.2364,272.0531 L180.9887,271.8498 L180.1172,273.8922 L178.4299,275.2651 L177.3629,277.147 L175.6571,278.5047 L174.4748,280.292 L174.45,280.2745 L173.521,282.2124 L172.0112,283.7398 L170.8441,285.5095 L169.7058,287.2995 L168.3599,288.9428 L168.5191,289.037 L167.2864,290.7533 L166.3258,292.6307 L164.925,294.2475 L164.1808,296.2529 L163,298 L163.2221,298.1001 L161.5481,301.7032 L159.9844,305.3559 L157.9083,308.7778 L156.2078,312.369 L154.8401,316.1101 L154.5789,316.0202 L154.1639,317.9955 L153.4547,319.8695 L153.1722,321.8904 L152.161,323.6606 L151.583,325.5797 L151.4364,325.538 L151.1302,327.5423 L150.1972,329.3682 L149.71,331.3209 L149.6589,333.3977 L148.8311,335.2536 L149.0197,335.2974 L148.6932,337.2921 L147.78,339.1508 L147.6016,341.1799 L147.2631,343.1719 L146.5516,345.0774 L146.3452,345.0391 L146.1418,347.0535 L145.8708,349.0554 L145.7326,351.0819 L145.078,353.0127 L144.7119,354.9969 L144.9154,355.0262 L144.1818,356.9541 L143.8409,358.9385 L144.0739,361.0054 L143.2504,362.9204 L143.2793,364.9579 L143.5043,364.9818 L143.159,366.9573 L142.7377,368.9247 L142.4881,370.9103 L142.6356,372.9381 L142.2213,374.9063 L142.0884,374.8987 L142.2592,378.8496 L141.5267,382.7489 L141.8212,386.7069 L141.5375,390.6319 L141.0979,394.5479 L141.2068,394.548 L141.1155,398.336 L141.414,402.1244 L141.3603,405.9124 L141.1594,409.7003 L141.0808,413.4883 L141.1998,413.4938 L141.1885,417.0466 L141.73,420.6252 L141.6462,424.1746 L141.8196,427.736 L141.9085,431.2935 L141.6392,431.2701 L142.0114,434.5252 L142.7081,437.8086 L142.9457,441.052 L143.0187,444.2811 L143.32,447.53 " fill="none" style="stroke:#181818;stroke-width:1.0;"/><polygon fill="#181818" points="143.91,452.9,143.9768,452.9211,144.3729,450.9804,145.1605,449.1636,145.8207,447.3065,146.0615,445.3166,146.8828,443.5105,146.8625,443.4943,146.0657,444.3059,145.371,445.199,144.7472,446.1487,143.879,446.9032,143.3531,447.9311,143.4683,448.0753,142.3379,447.061,141.5438,446.4677,140.7906,445.9258,139.7988,445.0851,138.9325,444.4015,138.9522,444.413,139.9188,446.0958,140.9749,447.831,141.9878,449.5409,143.083,451.299,143.91,452.9" style="stroke:#181818;stroke-width:1.0;"/><text fill="#000000" font-family="FG Virgil" font-size="13" lengthAdjust="spacing" textLength="32" x="164" y="350.4951">authz</text></g><!--MD5=[a5308887df579f3cff8599d6b1102bd3]
link ChangeUserStateController to UserManagementService--><g id="link_ChangeUserStateController_UserManagementService"><path d="M334.13,237.2 L334.1965,237.2656 L336.6568,239.7612 L339.5067,242.6416 L342.2298,245.3966 L344.5357,247.7396 L347.4191,250.653 L347.3932,250.6301 L349.8901,253.4887 L352.5176,256.4625 L355.2359,259.5164 L357.6414,262.2943 L360.485,265.4588 L360.6807,265.6079 L362.6834,268.4642 L365.2575,271.756 L367.9012,275.101 L370.1394,278.1368 L372.5909,281.3352 L372.6167,281.3512 L374.6607,284.6606 L376.8219,288.0431 L378.9265,291.3904 L381.139,294.8049 L383,298 L383.2644,298.1379 L384.2117,299.9496 L384.9883,301.6723 L386.0147,303.5252 L387.0527,305.3843 L387.72,307.0499 L387.4301,306.9131 L388.8738,309.0452 L389.3631,310.7267 L390.5779,312.7508 L391.0455,314.4221 L392.1256,316.3826 L392.0976,316.3706 L393.2489,318.4252 L393.7465,320.1994 L394.6298,322.1391 L395.5455,324.0926 L396.2275,325.946 L396.3998,326.0133 L396.9877,327.8938 L397.8699,329.8893 L398.2758,331.6986 L399.3922,333.7857 L400.0363,335.6881 L400.2657,335.7701 L400.9275,337.7284 L401.7032,339.7274 L401.9497,341.5373 L402.5841,343.4858 L403.5623,345.5571 L403.2998,345.4712 L404.1882,347.5377 L404.7809,349.5074 L405.8025,351.6175 L406.0917,353.488 L406.8162,355.5009 L406.6702,355.457 L407.5119,357.5234 L407.7293,359.4023 L408.3907,361.4145 L409.4864,363.5571 L409.8086,365.4675 L409.9953,365.519 L410.6716,367.5418 L410.7673,369.4045 L411.5902,371.4677 L412.2547,373.4873 L412.55,375.405 L412.3465,375.3534 L413.0089,377.3658 L413.6046,379.3613 L414.3313,381.3901 L414.5489,383.2897 L415.0509,385.2614 L415.2511,385.3082 L415.2654,387.1501 L415.6662,389.0823 L416.6314,391.1463 L416.5574,392.9676 L417.3219,394.9848 L417.5434,395.0306 L418.1907,398.7713 L418.763,402.4965 L419.5045,406.2567 L420.637,410.0977 L421.2162,413.8244 L421.0852,413.8014 L422.0956,417.4065 L422.2148,420.8554 L423.3473,424.482 L423.9093,428.0085 L424.3175,431.508 L424.4252,431.524 L424.8168,434.7335 L425.5939,438.0003 L426.0227,441.2153 L426.3059,444.4087 L426.71,447.62 " fill="none" style="stroke:#181818;stroke-width:1.0;"/><polygon fill="#181818" points="427.41,452.94,427.4772,452.9598,427.834,451.0115,428.5848,449.1792,429.2073,447.3091,429.4079,445.3147,430.1926,443.4924,430.172,443.4766,429.3918,444.3041,428.7152,445.2111,428.1107,446.1732,427.2579,446.945,426.7529,447.9834,426.8651,448.1299,425.727,447.1286,424.9165,446.5552,424.1459,446.0339,423.1428,445.2089,422.262,444.5437,422.2813,444.5556,423.2825,446.2174,424.3719,447.9333,425.4187,449.6232,426.5468,451.3628,427.41,452.94" style="stroke:#181818;stroke-width:1.0;"/><text fill="#000000" font-family="FG Virgil" font-size="13" lengthAdjust="spacing" textLength="46" x="417" y="350.4951">userSvc</text></g><!--MD5=[56c9b288c5d935d148413f674d408933]
link ChangeUserStateController to AuthzRegistry--><g id="link_ChangeUserStateController_AuthzRegistry"><path d="M290,237.08 L290.2802,237.08 L289.4476,246.34 L290.2577,255.6 L290.5329,264.86 L289.0488,274.12 L289.8964,283.38 L290,292.64 " fill="none" style="stroke:#181818;stroke-width:1.0;stroke-dasharray:7.0,7.0;"/><polygon fill="#181818" points="290,297.76,290.064,297.7885,290.6738,295.9039,291.6589,294.1862,292.5217,292.4141,292.9827,290.4634,294,288.76,293.9817,288.7417,293.0995,289.4595,292.3096,290.2696,291.5839,291.1439,290.637,291.797,290,292.76,290.1305,292.8905,289.0514,291.8114,288.3534,291.1134,287.7018,290.4618,286.7798,289.5398,286,288.76,286.0208,288.7692,286.7903,290.5557,287.6544,292.3842,288.4728,294.1924,289.3784,296.0393,290,297.76" style="stroke:#181818;stroke-width:1.0;"/></g><!--MD5=[c837425ae2d0773009d156019fd79119]
link AuthzRegistry to AuthorizationService--><g id="link_AuthzRegistry_AuthorizationService"><path d="M244.93,392.36 L245.1309,392.5554 L237.6627,399.0424 L231.3723,406.6746 L224.6983,413.934 L216.763,419.9669 L210.4995,427.6253 L203.2948,434.3686 L196.4646,441.4761 L189.96,448.9 " fill="none" style="stroke:#181818;stroke-width:1.0;stroke-dasharray:7.0,7.0;"/><polygon fill="#181818" points="186.12,452.85,186.1461,452.915,187.8969,451.9888,189.8006,451.4437,191.6545,450.7746,193.3447,449.6972,195.2615,449.1848,195.2611,449.1589,194.1282,449.0587,192.9972,449.089,191.8674,449.2101,190.7332,449.0184,189.6052,449.2648,189.7897,449.2674,189.3791,448.1306,189.5073,447.0014,189.7012,445.8731,189.5126,444.7394,189.5252,443.6085,189.5465,443.6164,188.8342,445.4531,188.219,447.3257,187.5569,449.181,186.9842,451.0692,186.12,452.85" style="stroke:#181818;stroke-width:1.0;"/></g><!--MD5=[a78f16923b5997f3b07c7c49a0f57ef6]
link AuthzRegistry to UserManagementService--><g id="link_AuthzRegistry_UserManagementService"><path d="M335.39,392.36 L335.5902,392.5561 L341.9166,399.041 L349.4166,406.6753 L356.5345,413.9354 L362.3954,419.9645 L369.9222,427.625 L376.5112,434.3671 L383.4734,441.4747 L390.76,448.9 " fill="none" style="stroke:#181818;stroke-width:1.0;stroke-dasharray:7.0,7.0;"/><polygon fill="#181818" points="394.62,452.85,394.6857,452.8744,393.8057,450.9551,393.3108,449.1786,392.6905,447.3556,391.6578,445.3797,391.1959,443.6155,391.17,443.6152,391.0401,444.7451,391.0407,445.8765,391.1321,447.0091,390.9107,448.1379,391.1275,449.272,391.1297,449.4565,389.9937,449.0482,388.8641,449.1787,387.7354,449.3749,386.602,449.1886,385.471,449.2035,385.4795,449.2247,387.2969,449.9229,389.1527,450.7174,390.9899,451.4655,392.8625,452.3021,394.62,452.85" style="stroke:#181818;stroke-width:1.0;"/></g><!--MD5=[b0877f5a81ed13f00912ab218cf366e4]
link UserManagementService to PersistenceContext--><g id="link_UserManagementService_PersistenceContext"><path d="M431,529.18 L431.2802,529.18 L430.4476,539.5629 L431.2577,549.9457 L431.5329,560.3286 L430.0488,570.7114 L430.8964,581.0943 L430.4313,591.4771 L431,601.86 " fill="none" style="stroke:#181818;stroke-width:1.0;"/><polygon fill="#181818" points="431,606.94,431.064,606.9685,431.6738,605.0839,432.6589,603.3662,433.5217,601.5941,433.9827,599.6434,435,597.94,434.9817,597.9217,434.0995,598.6395,433.3096,599.4496,432.5839,600.3239,431.637,600.977,431,601.94,431.1305,602.0705,430.0514,600.9914,429.3534,600.2934,428.7018,599.6418,427.7798,598.7198,427,597.94,427.0208,597.9492,427.7903,599.7357,428.6544,601.5642,429.4728,603.3724,430.3784,605.2193,431,606.94" style="stroke:#181818;stroke-width:1.0;"/><text fill="#000000" font-family="FG Virgil" font-size="13" lengthAdjust="spacing" textLength="67" x="432" y="573.4951">persistence</text></g><!--MD5=[18f98f898b33518a07ec32b030c48693]
link UserManagementService to UserRepository--><g id="link_UserManagementService_UserRepository"><path d="M481.08,529.11 L481.1443,529.1777 L482.4152,530.3645 L484.0631,531.9483 L485.5882,533.4028 L486.7096,534.4321 L488.3898,536.05 L488.3649,536.0261 L489.6609,537.3847 L491.0825,538.8639 L492.5913,540.427 L493.7993,541.7012 L495.4288,543.38 L495.6153,543.5404 L496.5353,544.7308 L497.9999,546.3897 L499.531,548.1057 L500.6755,549.4891 L502.0233,551.0475 L502.0475,551.0657 L503.2073,552.6295 L504.4774,554.2762 L505.6943,555.8829 L507.0127,557.5659 L508,559 L508.2531,559.1578 L509.7848,561.6117 L511.1532,563.9639 L512.7606,566.4651 L514.3792,568.9732 L515.643,571.2602 L515.3488,571.1329 L516.8189,573.4586 L517.3203,575.3653 L518.5582,577.5905 L519.0377,579.4877 L520.1388,581.6538 L520.1093,581.646 L521.0427,583.9514 L521.2884,586.0749 L521.9398,588.3057 L522.6254,590.5456 L523.0652,592.7205 L523.2464,592.7577 L523.6504,595.576 L524.3641,598.458 L524.5769,601.237 L525.5368,604.1695 L526,607 L526.2383,607.0506 L527.1176,611.3943 L528.1152,615.7631 L528.563,620.0151 L529.4138,624.3528 L530.6217,628.7662 L530.352,628.7068 L531.4782,632.7688 L532.3005,636.764 L533.5637,640.8561 L534.0741,644.7826 L535.032,648.8076 L534.8831,648.7747 L536.7175,656.0064 L537.9155,663.0975 L539.5661,670.2886 L541.6594,677.5776 L542.9642,684.6923 L543.1538,684.7318 L543.9628,688.0251 L544.1821,691.1959 L545.14,694.5202 L545.937,697.8111 L546.3591,701.0241 L546.1527,700.9853 L546.9031,704.1329 L547.5858,707.2678 L548.4013,710.4276 L548.7007,713.4905 L549.2884,716.6075 L549.4914,716.6398 L549.5254,719.5847 L549.9512,722.5919 L550.9496,725.6903 L550.8939,728.6209 L551.6886,731.6869 L551.9132,731.7143 L552.1413,734.6619 L552.2935,737.6002 L552.6171,740.5595 L553.3371,743.5671 L553.4963,746.5062 L553.3636,746.4959 L553.9888,749.4874 L553.7119,752.4086 L554.4607,755.4097 L554.632,758.3658 L554.6478,761.3098 L554.7566,761.3129 L554.7551,764.3168 L555.1433,767.3318 L555.1794,770.3368 L555.0684,773.3375 L555.0796,776.3417 L555.1988,776.3444 L554.9514,779.4413 L555.2574,782.5507 L554.9376,785.6459 L554.8752,788.7469 L554.7282,791.8461 L554.4586,791.8261 L554.309,795.077 L554.4843,798.3518 L554.1999,801.5927 L553.7507,804.8214 L553.5302,808.067 L553.388,808.0496 L553.0119,811.4915 L552.3841,814.9026 L552.4481,818.3985 L552.1697,821.8525 L551.4218,825.2488 L551.6526,825.2874 L551.11,828.9772 L550.129,832.5934 L549.6108,836.2872 L548.7862,839.9296 L548.3397,843.6354 L548.4635,843.6599 L548.0621,845.601 L547.8101,847.5717 L547.0839,849.4484 L546.7402,851.401 L546.4136,853.3569 L546.6062,853.3986 L546.2214,855.4332 L545.3137,857.3543 L545.0134,859.4071 L544.7238,861.4623 L544.2203,863.4711 L543.9559,863.4092 L543.8795,865.6144 L543.3445,867.7123 L542.6955,869.7834 L542.307,871.9156 L541.7517,874.0086 L542.0659,874.0873 L541.0665,876.1731 L540.7868,878.4392 L540.2238,880.6343 L539.6003,882.8142 L539,885 L539.0596,885.0191 L538.2305,887.5629 L537.1009,890.0102 L536.3779,892.5881 L535.5347,895.1273 L534.9125,897.7375 L534.9386,897.7487 L533.876,900.2495 L532.8336,902.7589 L531.5762,905.176 L530.5949,907.7117 L529.55,910.22 " fill="none" style="stroke:#181818;stroke-width:1.0;"/><polygon fill="#181818" points="527.33,914.71,527.3748,914.7639,528.7558,913.3439,530.3994,912.2396,531.9575,911.0326,533.2343,909.4874,534.9005,908.4103,534.8922,908.3857,533.7834,908.6389,532.7166,909.0157,531.6788,909.4785,530.5407,909.645,529.5432,910.2265,529.718,910.2858,528.981,909.0876,528.7543,908.0624,528.5898,907.0583,528.0631,905.9314,527.7269,904.8691,527.7497,904.8701,527.6369,906.8369,527.6276,908.8079,527.5684,910.7769,527.6045,912.7497,527.33,914.71" style="stroke:#181818;stroke-width:1.0;"/><text fill="#000000" font-family="FG Virgil" font-size="13" lengthAdjust="spacing" textLength="87" x="552" y="727.4951">userRepository</text></g><!--MD5=[44917d9c96f2ee55ecfd063ba1690114]
link UserManagementService to user:User--><g id="link_UserManagementService_user:User"><path d="M377.56,529 L377.6174,529.0737 L375.6178,530.2811 L373.9548,531.9204 L372.1822,533.419 L370.049,534.4552 L368.415,536.1316 L368.3931,536.1048 L366.4751,537.4714 L364.6672,538.9729 L362.9358,540.5682 L360.9406,541.8403 L359.315,543.565 L359.4757,543.7513 L357.3585,544.8831 L355.7106,546.5588 L354.1199,548.3009 L352.1961,549.6569 L350.4475,551.2159 L350.4681,551.2382 L348.7484,552.7623 L347.1223,554.3879 L345.451,555.9645 L343.8659,557.6346 L342,559 L342.2113,559.2104 L340.1421,561.2937 L337.9366,563.2412 L335.9307,565.3874 L333.934,567.543 L331.6411,569.4034 L331.4051,569.1865 L329.8376,571.8108 L327.4931,573.7209 L325.7393,576.1739 L323.3772,578.0678 L321.5137,580.42 L321.4907,580.4001 L319.8229,582.8837 L317.6167,584.9025 L315.7281,587.1955 L313.8663,589.5116 L311.812,591.6616 L311.9551,591.7788 L309.9943,593.8761 L308.2779,596.1739 L306.1661,598.1473 L304.6442,600.6044 L302.73,602.74 " fill="none" style="stroke:#181818;stroke-width:1.0;"/><polygon fill="#181818" points="299.51,606.78,299.5424,606.8421,301.1929,605.747,303.0332,605.0162,304.8117,604.1667,306.3869,602.9272,308.2436,602.2276,308.2406,602.2018,307.1034,602.2143,305.9809,602.3565,304.8687,602.5888,303.7211,602.5104,302.623,602.8673,302.8064,602.8882,302.2863,601.7194,302.3016,600.6116,302.3822,599.5113,302.0828,598.3676,301.9833,597.2467,302.0053,597.2525,301.4783,599.1507,301.0516,601.075,300.5765,602.9867,300.1936,604.9224,299.51,606.78" style="stroke:#181818;stroke-width:1.0;"/><text fill="#000000" font-family="FG Virgil" font-size="13" lengthAdjust="spacing" textLength="79" x="343" y="573.4951">userToEnable</text></g><!--MD5=[754b775031405e096442b27febffa290]
link PersistenceContext to RepositoryFactory--><g id="link_PersistenceContext_RepositoryFactory"><path d="M431.49,683.18 L431.7702,683.1837 L431.0748,693.5556 L432.022,703.9491 L432.4343,714.3356 L431.0875,724.6989 L432.0721,735.0929 L431.7442,745.4696 L432.45,755.86 " fill="none" style="stroke:#181818;stroke-width:1.0;"/><polygon fill="#181818" points="432.51,760.94,432.5744,760.9675,433.1572,759.0745,434.1177,757.3428,434.9551,755.5586,435.3882,753.6016,436.381,751.8838,436.3625,751.8657,435.4906,752.596,434.7124,753.4174,433.9993,754.302,433.0618,754.9686,432.4386,755.9405,432.5672,756.0729,431.4808,755.0014,430.7699,754.3163,430.1049,753.6783,429.1733,752.766,428.3818,751.9981,428.4025,752.0076,429.1978,753.782,430.0871,755.5998,430.9311,757.3966,431.8616,759.2334,432.51,760.94" style="stroke:#181818;stroke-width:1.0;"/><text fill="#000000" font-family="FG Virgil" font-size="13" lengthAdjust="spacing" textLength="39" x="433" y="727.4951">factory</text></g><!--MD5=[0bde64d3861a2e0b7bf5316115f64c06]
link RepositoryFactory to UserRepository--><g id="link_RepositoryFactory_UserRepository"><path d="M435.14,837.32 L435.2325,837.3328 L435.2826,839.6431 L435.8752,842.0285 L436.2911,844.3895 L436.1261,846.67 L436.7652,849.0619 L436.7312,849.0555 L437.0346,851.4586 L437.5091,853.8937 L438.1025,856.3512 L438.286,858.7318 L439.0437,861.22 L439.2824,861.2799 L439.3804,863.5775 L440.1752,866.0499 L441.055,868.5436 L441.4401,870.9132 L442.0855,873.3481 L442.1142,873.3578 L442.8549,875.674 L443.7265,878.0341 L444.5349,880.3731 L445.4638,882.7525 L446,885 L446.272,885.1222 L447.4329,887.7 L448.4182,890.1989 L449.6604,892.8132 L450.9147,895.4329 L451.7875,897.8812 L451.507,897.7262 L453.4399,900.5389 L454.4492,902.841 L456.1606,905.5313 L457.149,907.8218 L458.73,910.44 " fill="none" style="stroke:#181818;stroke-width:1.0;"/><polygon fill="#181818" points="461.49,914.94,461.5594,914.9493,461.0929,912.9692,461.0334,911.0435,460.8414,909.1001,460.2134,907.0986,460.1889,905.1775,460.1637,905.1714,459.7876,906.2448,459.5384,907.3485,459.3776,908.4733,458.9124,909.5253,458.8735,910.6793,458.9164,910.8587,457.7243,910.2118,456.6575,910.089,455.6059,910.0301,454.4654,909.5991,453.3717,909.3639,453.3846,909.3826,454.9893,910.4703,456.6527,911.6434,458.2878,912.7752,459.9769,913.9857,461.49,914.94" style="stroke:#181818;stroke-width:1.0;"/><text fill="#000000" font-family="FG Virgil" font-size="13" lengthAdjust="spacing" textLength="87" x="447" y="881.4951">userRepository</text></g><!--MD5=[f34d7a24fa67516d0502b3f6766b72c8]
@startuml
'http://plantuml.com/skinparam.html
skinparam handwritten true
skinparam monochrome true
skinparam packageStyle rect
skinparam defaultFontName FG Virgil
skinparam shadowing false

class EnableUserUI <<presentation>>
class ChangeUserStateController <<application>>
class AuthorizationService <<service>>
class UserManagementService <<service>>
class AuthzRegistry <<util>>
class "user:User" <<domain>>
class PersistenceContext  <<persistence>>
class RepositoryFactory  <<factory>>
class UserRepository <<repository>>

EnableUserUI - -> ChangeUserStateController : theController
ChangeUserStateController - -> AuthorizationService: authz
ChangeUserStateController - -> UserManagementService: userSvc
ChangeUserStateController ..> AuthzRegistry
AuthzRegistry ..> AuthorizationService
AuthzRegistry ..> UserManagementService
UserManagementService - -> PersistenceContext: persistence
UserManagementService - -> UserRepository: userRepository
UserManagementService - -> "user:User" : userToEnable
PersistenceContext - -> RepositoryFactory: factory
RepositoryFactory - -> UserRepository: userRepository

EnableUserUI : doShow()
ChangeUserStateController : enableUserByEmail(EmailAddress)
AuthorizationService : ensureAuthenticatedUserHasAnyOf(Role...)
UserManagementService : enableUser(EmailAddress)
PersistenceContext : repositories()
RepositoryFactory : users()
"user:User" : enable()
UserRepository : findUserByEmail(EmailAddress)
UserRepository : save(User)
AuthzRegistry : authorizationService()
AuthzRegistry : userService()

@enduml

@startuml
skinparam handwritten true
skinparam monochrome true
skinparam packageStyle rect
skinparam defaultFontName FG Virgil
skinparam shadowing false

class EnableUserUI <<presentation>>
class ChangeUserStateController <<application>>
class AuthorizationService <<service>>
class UserManagementService <<service>>
class AuthzRegistry <<util>>
class "user:User" <<domain>>
class PersistenceContext  <<persistence>>
class RepositoryFactory  <<factory>>
class UserRepository <<repository>>

EnableUserUI - -> ChangeUserStateController : theController
ChangeUserStateController - -> AuthorizationService: authz
ChangeUserStateController - -> UserManagementService: userSvc
ChangeUserStateController ..> AuthzRegistry
AuthzRegistry ..> AuthorizationService
AuthzRegistry ..> UserManagementService
UserManagementService - -> PersistenceContext: persistence
UserManagementService - -> UserRepository: userRepository
UserManagementService - -> "user:User" : userToEnable
PersistenceContext - -> RepositoryFactory: factory
RepositoryFactory - -> UserRepository: userRepository

EnableUserUI : doShow()
ChangeUserStateController : enableUserByEmail(EmailAddress)
AuthorizationService : ensureAuthenticatedUserHasAnyOf(Role...)
UserManagementService : enableUser(EmailAddress)
PersistenceContext : repositories()
RepositoryFactory : users()
"user:User" : enable()
UserRepository : findUserByEmail(EmailAddress)
UserRepository : save(User)
AuthzRegistry : authorizationService()
AuthzRegistry : userService()

@enduml

PlantUML version 1.2022.7(Mon Aug 22 18:01:30 BST 2022)
(GPL source distribution)
Java Runtime: Java(TM) SE Runtime Environment
JVM: Java HotSpot(TM) 64-Bit Server VM
Default Encoding: Cp1252
Language: pt
Country: PT
--></g></svg>