<?xml version="1.0" encoding="UTF-8" standalone="no"?><svg xmlns="http://www.w3.org/2000/svg" xmlns:xlink="http://www.w3.org/1999/xlink" contentStyleType="text/css" height="1016px" preserveAspectRatio="none" style="width:587px;height:1016px;background:#FFFFFF;" version="1.1" viewBox="0 0 587 1016" width="587px" zoomAndPan="magnify"><defs/><g><!--MD5=[e068204f24efae014cc250f4748ce942]
class ListUsersUI--><g id="elem_ListUsersUI"><polygon fill="#F1F1F1" points="237.5,7,237.5,7.2102,247.0455,6.5857,256.5909,7.1933,266.1364,7.3997,275.6818,6.2866,285.2273,6.9223,294.7727,6.5735,304.3182,6.6165,313.8636,6.9318,323.4091,6.3086,332.9545,7.5536,342.5,7,342.4196,6.8059,342.8283,7.0855,343.2622,7.4259,343.5497,7.4129,343.9229,7.6068,344.2678,7.7322,344.2579,7.7282,344.4692,8.1086,344.6343,8.4698,344.8875,8.8676,345.0602,9.232,345,9.5,345.6793,9.5,345.2546,19.3802,345.4636,29.2604,345.7022,39.1406,344.2788,49.0208,345.6785,58.901,344.7035,68.7813,345.5338,78.6615,344.505,88.5417,345,98.4219,344.9789,98.4131,345.0819,98.87,344.6921,99.1228,344.5931,99.496,344.5185,99.8793,344.2678,100.1896,344.3209,100.3178,343.9137,100.3349,343.5973,100.571,343.1341,100.4527,342.8898,100.863,342.5,100.9219,342.5,101.4701,332.9545,101.3664,323.4091,101.5349,313.8636,100.4388,304.3182,100.2697,294.7727,100.3005,285.2273,100.863,275.6818,100.7253,266.1364,101.6033,256.5909,100.7472,247.0455,100.5788,237.5,100.9219,237.5291,100.9922,237.0614,100.5701,236.7267,100.4691,236.5221,100.6824,236.1414,100.4703,235.7322,100.1896,235.9584,100.2833,235.4867,99.795,235.5376,99.5233,235.4747,99.2043,235.001,98.7152,235,98.4219,234.9041,98.4219,235.126,88.5417,235.6518,78.6615,234.9958,68.7813,235.4626,58.901,234.4462,49.0208,234.3227,39.1406,235.5036,29.2604,234.2831,19.3802,235,9.5,235.1567,9.5649,235.2101,9.1728,235.2104,8.7587,235.3304,8.3942,235.7271,8.1443,235.7322,7.7322,235.694,7.6401,236.1613,7.7681,236.3688,7.2691,236.8717,7.483,237.2082,7.2956,237.5,7" style="stroke:#181818;stroke-width:0.5;"/><polygon fill="#C2C2C2" points="261.0608,31.0272,259.4484,33.2304,257.5412,36.4573,254.8136,38.632,251.9474,39.8212,249.662,39.9244,246.7247,38.4371,243.9532,37.4655,241.8495,35.4927,240.7461,33.2343,240.0917,31.4361,239.4506,29.0873,238.41,27.066,239.2096,25.0926,239.9102,22.9308,242.5393,21.221,244.389,19.0027,246.6784,18.266,249.4001,17.6316,252.8904,18.0085,254.8021,18.9101,257.0247,19.3188,259.7272,22.0875,260.6693,25.0105,261.0786,27.0049,260.615,30.2914" style="stroke:#181818;stroke-width:1.0;"/><path d="M252.7656,24.2266 Q252.9219,24.0078 253.1094,23.8984 Q253.2969,23.7891 253.5156,23.7891 Q253.8906,23.7891 254.125,24.0547 Q254.3594,24.3047 254.3594,24.9141 L254.3594,26.3672 Q254.3594,26.9766 254.125,27.2422 Q253.8906,27.5078 253.5156,27.5078 Q253.1719,27.5078 252.9688,27.3047 Q252.7656,27.1172 252.6563,26.6016 Q252.6094,26.2422 252.4219,26.0547 Q252.0938,25.6797 251.4844,25.4609 Q250.875,25.2422 250.25,25.2422 Q249.4844,25.2422 248.8438,25.5703 Q248.2188,25.8984 247.7188,26.6484 Q247.2344,27.3984 247.2344,28.4297 L247.2344,29.5234 Q247.2344,30.7578 248.125,31.5859 Q249.0156,32.3984 250.6094,32.3984 Q251.5469,32.3984 252.2031,32.1484 Q252.5938,31.9922 253.0156,31.5547 Q253.2813,31.2891 253.4219,31.2109 Q253.5781,31.1328 253.7813,31.1328 Q254.1094,31.1328 254.3594,31.3984 Q254.625,31.6484 254.625,31.9922 Q254.625,32.3359 254.2813,32.7422 Q253.7813,33.3203 252.9844,33.6484 Q251.9063,34.1016 250.6094,34.1016 Q249.0938,34.1016 247.8906,33.4766 Q246.9063,32.9766 246.2188,31.9141 Q245.5313,30.8359 245.5313,29.5547 L245.5313,28.3984 Q245.5313,27.0703 246.1406,25.9297 Q246.7656,24.7734 247.8594,24.1641 Q248.9531,23.5391 250.1875,23.5391 Q250.9219,23.5391 251.5625,23.7109 Q252.2188,23.8672 252.7656,24.2266 Z " fill="#000000"/><text fill="#000000" font-family="FG Virgil" font-size="12" font-style="italic" lengthAdjust="spacing" textLength="82" x="262" y="24.457">«presentation»</text><text fill="#000000" font-family="FG Virgil" font-size="14" lengthAdjust="spacing" textLength="70" x="268" y="41.627">ListUsersUI</text><path d="M236,49.7031 L236,49.9834 L245.8182,49.1507 L255.6364,49.9608 L265.4545,50.236 L275.2727,48.7519 L285.0909,49.5995 L294.9091,49.1345 L304.7273,49.1918 L314.5455,49.6122 L324.3636,48.7813 L334.1818,50.4413 L344,49.7031 " fill="#F1F1F1" style="stroke:#181818;stroke-width:0.5;"/><path d="M236,57.7031 L236,57.9834 L245.8182,57.1507 L255.6364,57.9608 L265.4545,58.236 L275.2727,56.7519 L285.0909,57.5995 L294.9091,57.1345 L304.7273,57.1918 L314.5455,57.6122 L324.3636,56.7813 L334.1818,58.4413 L344,57.7031 " fill="#F1F1F1" style="stroke:#181818;stroke-width:0.5;"/><text fill="#000000" font-family="FG Virgil" font-size="14" lengthAdjust="spacing" textLength="60" x="241" y="76.2363">doShow()</text><text fill="#000000" font-family="FG Virgil" font-size="14" lengthAdjust="spacing" textLength="42" x="241" y="93.8457">show()</text></g><!--MD5=[f415f89b6a39f78e45412d639a322eb4]
class ListUsersController--><g id="elem_ListUsersController"><polygon fill="#F1F1F1" points="216.5,179,216.5,179.2102,226.3,178.5857,236.1,179.1933,245.9,179.3997,255.7,178.2866,265.5,178.9223,275.3,178.5735,285.1,178.6165,294.9,178.9318,304.7,178.3086,314.5,179.5536,324.3,178.3697,334.1,178.8022,343.9,179.4319,353.7,178.9142,363.5,179,363.5087,179.021,363.8495,179.1366,364.2299,179.3479,364.5912,179.513,364.9889,179.7662,365.2678,179.7322,365.4744,179.8178,365.6234,180.1724,365.6391,180.4718,365.8499,180.852,366.0698,181.236,366,181.5,365.2788,181.5,366.6785,191.6875,365.7035,201.875,366.5338,212.0625,365.505,222.25,365.9315,232.4375,366.7416,242.625,366,252.8125,365.985,252.8063,365.886,253.1795,365.8114,253.5628,365.6888,253.9263,365.413,254.2262,365.2678,254.5803,365.3044,254.6687,364.8412,254.5504,364.5969,254.9607,364.277,255.1884,363.9103,255.303,363.5,255.3125,363.5,255.9255,353.7,254.8294,343.9,254.6603,334.1,254.6911,324.3,255.2536,314.5,255.116,304.7,255.9939,294.9,255.1378,285.1,254.9694,275.3,255.5408,265.5,254.6457,255.7,254.7934,245.9,255.9615,236.1,255.7482,226.3,256.047,216.5,255.3125,216.459,255.2134,216.1872,255.2644,215.8682,255.2014,215.3791,254.7277,215.0736,254.6972,214.7322,254.5803,214.771,254.5963,214.7865,254.3099,214.438,253.8726,214.4353,253.5786,213.9759,253.0954,214,252.8125,213.3227,252.8125,214.5036,242.625,213.2831,232.4375,214.509,222.25,214.2066,212.0625,213.7321,201.875,213.6462,191.6875,214,181.5,214.1413,181.5585,214.0543,181.1083,214.4752,180.8684,214.2691,180.3688,214.7759,180.1645,214.7322,179.7322,214.794,179.8814,215.117,179.6612,215.4454,179.4539,215.8856,179.5167,216.2247,179.3354,216.5,179" style="stroke:#181818;stroke-width:0.5;"/><polygon fill="#C2C2C2" points="240.0608,203.0272,238.4484,205.2304,236.5412,208.4573,233.8136,210.632,230.9474,211.8212,228.662,211.9244,225.7247,210.4371,222.9532,209.4655,220.8495,207.4927,219.7461,205.2343,219.0917,203.4361,218.4506,201.0873,217.41,199.066,218.2096,197.0926,218.9102,194.9308,221.5393,193.221,223.389,191.0027,225.6784,190.266,228.4001,189.6316,231.8904,190.0085,233.8021,190.9101,236.0247,191.3188,238.7272,194.0875,239.6693,197.0105,240.0786,199.0049,239.615,202.2914" style="stroke:#181818;stroke-width:1.0;"/><path d="M231.7656,196.2266 Q231.9219,196.0078 232.1094,195.8984 Q232.2969,195.7891 232.5156,195.7891 Q232.8906,195.7891 233.125,196.0547 Q233.3594,196.3047 233.3594,196.9141 L233.3594,198.3672 Q233.3594,198.9766 233.125,199.2422 Q232.8906,199.5078 232.5156,199.5078 Q232.1719,199.5078 231.9688,199.3047 Q231.7656,199.1172 231.6563,198.6016 Q231.6094,198.2422 231.4219,198.0547 Q231.0938,197.6797 230.4844,197.4609 Q229.875,197.2422 229.25,197.2422 Q228.4844,197.2422 227.8438,197.5703 Q227.2188,197.8984 226.7188,198.6484 Q226.2344,199.3984 226.2344,200.4297 L226.2344,201.5234 Q226.2344,202.7578 227.125,203.5859 Q228.0156,204.3984 229.6094,204.3984 Q230.5469,204.3984 231.2031,204.1484 Q231.5938,203.9922 232.0156,203.5547 Q232.2813,203.2891 232.4219,203.2109 Q232.5781,203.1328 232.7813,203.1328 Q233.1094,203.1328 233.3594,203.3984 Q233.625,203.6484 233.625,203.9922 Q233.625,204.3359 233.2813,204.7422 Q232.7813,205.3203 231.9844,205.6484 Q230.9063,206.1016 229.6094,206.1016 Q228.0938,206.1016 226.8906,205.4766 Q225.9063,204.9766 225.2188,203.9141 Q224.5313,202.8359 224.5313,201.5547 L224.5313,200.3984 Q224.5313,199.0703 225.1406,197.9297 Q225.7656,196.7734 226.8594,196.1641 Q227.9531,195.5391 229.1875,195.5391 Q229.9219,195.5391 230.5625,195.7109 Q231.2188,195.8672 231.7656,196.2266 Z " fill="#000000"/><text fill="#000000" font-family="FG Virgil" font-size="12" font-style="italic" lengthAdjust="spacing" textLength="74" x="266" y="196.457">«application»</text><text fill="#000000" font-family="FG Virgil" font-size="14" lengthAdjust="spacing" textLength="120" x="243" y="213.627">ListUsersController</text><path d="M215,221.7031 L215,221.9834 L225,221.1507 L235,221.9608 L245,222.236 L255,220.7519 L265,221.5995 L275,221.1345 L285,221.1918 L295,221.6122 L305,220.7813 L315,222.4413 L325,220.8628 L335,221.4394 L345,222.2791 L355,221.5888 L365,221.7031 " fill="#F1F1F1" style="stroke:#181818;stroke-width:0.5;"/><path d="M215,229.7031 L215,229.9834 L225,229.1507 L235,229.9608 L245,230.236 L255,228.7519 L265,229.5995 L275,229.1345 L285,229.1918 L295,229.6122 L305,228.7813 L315,230.4413 L325,228.8628 L335,229.4394 L345,230.2791 L355,229.5888 L365,229.7031 " fill="#F1F1F1" style="stroke:#181818;stroke-width:0.5;"/><text fill="#000000" font-family="FG Virgil" font-size="14" lengthAdjust="spacing" textLength="78" x="220" y="248.2363">listAllUsers()</text></g><!--MD5=[54a33dd013dd881697601ca49de6dfbc]
class AuthorizationService--><g id="elem_AuthorizationService"><polygon fill="#F1F1F1" points="9.5,471,9.5,471.2102,19.5357,470.5857,29.5714,471.1933,39.6071,471.3997,49.6429,470.2866,59.6786,470.9223,69.7143,470.5735,79.75,470.6165,89.7857,470.9318,99.8214,470.3086,109.8571,471.5536,119.8929,470.3697,129.9286,470.8022,139.9643,471.4319,150,470.9142,160.0357,471.0682,170.0714,470.9681,180.1071,471.1785,190.1429,471.2391,200.1786,471.5857,210.2143,471.6711,220.25,471.6793,230.2857,471.2546,240.3214,471.4636,250.3571,471.7022,260.3929,470.2788,270.4286,471.6785,280.4643,470.7035,290.5,471,290.5681,471.1644,290.7904,470.994,291.1984,471.2718,291.6553,471.6677,291.908,471.5708,292.2678,471.7322,292.3002,471.7457,292.5185,472.129,292.6888,472.4924,292.7059,472.7924,292.942,473.1831,293,473.5,292.4276,473.5,293.2844,483.6875,293.5482,493.875,293.4445,504.0625,293.613,514.25,292.5169,524.4375,292.3478,534.625,293,544.8125,292.8086,544.7332,292.8354,545.1585,292.6466,545.4945,292.7705,545.9601,292.3604,546.2044,292.2678,546.5803,292.224,546.4746,291.9433,546.797,291.4756,546.6678,291.1409,546.8597,290.9363,547.3659,290.5,547.3125,290.5,547.7482,280.4643,548.047,270.4286,546.9907,260.3929,547.6317,250.3571,547.9029,240.3214,546.8401,230.2857,547.2166,220.25,547.4385,210.2143,547.9643,200.1786,547.3083,190.1429,547.7751,180.1071,546.7587,170.0714,546.6352,160.0357,547.8161,150,546.5956,139.9643,547.8215,129.9286,547.5191,119.8929,547.0446,109.8571,546.9587,99.8214,547.7713,89.7857,547.0132,79.75,547.9044,69.7143,546.7598,59.6786,547.9299,49.6429,547.7968,39.6071,547.5575,29.5714,547.3597,19.5357,548.0391,9.5,547.3125,9.5783,547.5015,9.168,547.2182,8.8271,547.1022,8.4227,546.833,8.1772,546.9474,7.7322,546.5803,7.7799,546.6,7.6389,546.2487,7.252,545.7956,7.1681,545.4679,7.3099,545.2338,7,544.8125,7.4298,544.8125,6.9571,534.625,6.6778,524.4375,6.7811,514.25,6.3138,504.0625,7.4147,493.875,7.7396,483.6875,7,473.5,7.1621,473.5671,7.3605,473.2351,7.2508,472.7755,7.4662,472.4505,7.4664,472.0363,7.7322,471.7322,7.7685,471.8197,8.1173,471.6618,8.5098,471.6095,8.7636,471.2222,9.1293,471.1051,9.5,471" style="stroke:#181818;stroke-width:0.5;"/><polygon fill="#C2C2C2" points="92.3108,495.0272,90.6984,497.2304,88.7912,500.4573,86.0636,502.632,83.1974,503.8212,80.912,503.9244,77.9747,502.4371,75.2032,501.4655,73.0995,499.4927,71.9961,497.2343,71.3417,495.4361,70.7006,493.0873,69.66,491.066,70.4596,489.0926,71.1602,486.9308,73.7893,485.221,75.639,483.0027,77.9284,482.266,80.6501,481.6316,84.1404,482.0085,86.0521,482.9101,88.2747,483.3188,90.9772,486.0875,91.9193,489.0105,92.3286,491.0049,91.865,494.2914" style="stroke:#181818;stroke-width:1.0;"/><path d="M84.0156,488.2266 Q84.1719,488.0078 84.3594,487.8984 Q84.5469,487.7891 84.7656,487.7891 Q85.1406,487.7891 85.375,488.0547 Q85.6094,488.3047 85.6094,488.9141 L85.6094,490.3672 Q85.6094,490.9766 85.375,491.2422 Q85.1406,491.5078 84.7656,491.5078 Q84.4219,491.5078 84.2188,491.3047 Q84.0156,491.1172 83.9063,490.6016 Q83.8594,490.2422 83.6719,490.0547 Q83.3438,489.6797 82.7344,489.4609 Q82.125,489.2422 81.5,489.2422 Q80.7344,489.2422 80.0938,489.5703 Q79.4688,489.8984 78.9688,490.6484 Q78.4844,491.3984 78.4844,492.4297 L78.4844,493.5234 Q78.4844,494.7578 79.375,495.5859 Q80.2656,496.3984 81.8594,496.3984 Q82.7969,496.3984 83.4531,496.1484 Q83.8438,495.9922 84.2656,495.5547 Q84.5313,495.2891 84.6719,495.2109 Q84.8281,495.1328 85.0313,495.1328 Q85.3594,495.1328 85.6094,495.3984 Q85.875,495.6484 85.875,495.9922 Q85.875,496.3359 85.5313,496.7422 Q85.0313,497.3203 84.2344,497.6484 Q83.1563,498.1016 81.8594,498.1016 Q80.3438,498.1016 79.1406,497.4766 Q78.1563,496.9766 77.4688,495.9141 Q76.7813,494.8359 76.7813,493.5547 L76.7813,492.3984 Q76.7813,491.0703 77.3906,489.9297 Q78.0156,488.7734 79.1094,488.1641 Q80.2031,487.5391 81.4375,487.5391 Q82.1719,487.5391 82.8125,487.7109 Q83.4688,487.8672 84.0156,488.2266 Z " fill="#000000"/><text fill="#000000" font-family="FG Virgil" font-size="12" font-style="italic" lengthAdjust="spacing" textLength="53" x="139.75" y="488.457">«service»</text><text fill="#000000" font-family="FG Virgil" font-size="14" lengthAdjust="spacing" textLength="129" x="101.75" y="505.627">AuthorizationService</text><path d="M8,513.7031 L8,513.9834 L18.1429,513.1507 L28.2857,513.9608 L38.4286,514.236 L48.5714,512.7519 L58.7143,513.5995 L68.8571,513.1345 L79,513.1918 L89.1429,513.6122 L99.2857,512.7813 L109.4286,514.4413 L119.5714,512.8628 L129.7143,513.4394 L139.8571,514.2791 L150,513.5888 L160.1429,513.7941 L170.2857,513.6605 L180.4286,513.9412 L190.5714,514.022 L200.7143,514.484 L210.8571,514.5979 L221,514.6088 L231.1429,514.0426 L241.2857,514.3212 L251.4286,514.6394 L261.5714,512.7415 L271.7143,514.6078 L281.8571,513.3078 L292,513.7031 " fill="#F1F1F1" style="stroke:#181818;stroke-width:0.5;"/><path d="M8,521.7031 L8,521.9834 L18.1429,521.1507 L28.2857,521.9608 L38.4286,522.236 L48.5714,520.7519 L58.7143,521.5995 L68.8571,521.1345 L79,521.1918 L89.1429,521.6122 L99.2857,520.7813 L109.4286,522.4413 L119.5714,520.8628 L129.7143,521.4394 L139.8571,522.2791 L150,521.5888 L160.1429,521.7941 L170.2857,521.6605 L180.4286,521.9412 L190.5714,522.022 L200.7143,522.484 L210.8571,522.5979 L221,522.6088 L231.1429,522.0426 L241.2857,522.3212 L251.4286,522.6394 L261.5714,520.7415 L271.7143,522.6078 L281.8571,521.3078 L292,521.7031 " fill="#F1F1F1" style="stroke:#181818;stroke-width:0.5;"/><text fill="#000000" font-family="FG Virgil" font-size="14" lengthAdjust="spacing" textLength="274" x="13" y="540.2363">ensureAuthenticatedUserHasAnyOf(Role...)</text></g><!--MD5=[dee3711f8c64a3e2b37828f172d71c22]
class UserManagementService--><g id="elem_UserManagementService"><polygon fill="#F1F1F1" points="338.5,471,338.5,471.2102,348.2368,470.5857,357.9737,471.1933,367.7105,471.3997,377.4474,470.2866,387.1842,470.9223,396.9211,470.5735,406.6579,470.6165,416.3947,470.9318,426.1316,470.3086,435.8684,471.5536,445.6053,470.3697,455.3421,470.8022,465.0789,471.4319,474.8158,470.9142,484.5526,471.0682,494.2895,470.9681,504.0263,471.1785,513.7632,471.2391,523.5,471,523.5747,471.1804,523.9392,471.3531,524.2938,471.5021,524.5931,471.5178,524.9733,471.7286,525.2678,471.7322,525.484,471.8218,525.1921,471.9938,525.7696,472.5259,525.6158,472.7551,526.0179,473.2145,526,473.5,525.505,473.5,525.9315,483.6875,526.7416,493.875,525.9513,504.0625,526.1053,514.25,526.3386,524.4375,526.4162,534.625,526,544.8125,525.9988,544.812,525.942,545.2027,525.5308,545.4466,525.6482,545.9094,525.583,546.2966,525.2678,546.5803,525.3245,546.7172,524.9924,546.9155,524.499,546.7244,524.1239,546.8188,523.7743,546.9747,523.5,547.3125,523.5,547.2536,513.7632,547.116,504.0263,547.9939,494.2895,547.1378,484.5526,546.9694,474.8158,547.5408,465.0789,546.6457,455.3421,546.7934,445.6053,547.9615,435.8684,547.7482,426.1316,548.047,416.3947,546.9907,406.6579,547.6317,396.9211,547.9029,387.1842,546.8401,377.4474,547.2166,367.7105,547.4385,357.9737,547.9643,348.2368,547.3083,338.5,547.3125,338.559,547.455,338.0758,546.9955,337.7065,546.811,337.5036,547.0283,336.9943,546.5059,336.7322,546.5803,336.889,546.6452,336.6494,546.2531,336.3568,545.839,336.1839,545.4745,336.2877,545.2246,336,544.8125,335.7007,544.8125,336.5919,534.625,335.4473,524.4375,336.6174,514.25,336.4843,504.0625,336.245,493.875,336.0472,483.6875,336,473.5,336.2238,473.5927,336.3354,473.2247,336.345,472.8145,336.5219,472.4736,336.5457,472.0692,336.7322,471.7322,336.8236,471.9529,337.1055,471.6335,337.4614,471.4925,337.7153,471.1055,338.0948,471.0217,338.5,471" style="stroke:#181818;stroke-width:0.5;"/><polygon fill="#C2C2C2" points="362.0608,495.0272,360.4484,497.2304,358.5412,500.4573,355.8136,502.632,352.9474,503.8212,350.662,503.9244,347.7247,502.4371,344.9532,501.4655,342.8495,499.4927,341.7461,497.2343,341.0917,495.4361,340.4506,493.0873,339.41,491.066,340.2096,489.0926,340.9102,486.9308,343.5393,485.221,345.389,483.0027,347.6784,482.266,350.4001,481.6316,353.8904,482.0085,355.8021,482.9101,358.0247,483.3188,360.7272,486.0875,361.6693,489.0105,362.0786,491.0049,361.615,494.2914" style="stroke:#181818;stroke-width:1.0;"/><path d="M353.7656,488.2266 Q353.9219,488.0078 354.1094,487.8984 Q354.2969,487.7891 354.5156,487.7891 Q354.8906,487.7891 355.125,488.0547 Q355.3594,488.3047 355.3594,488.9141 L355.3594,490.3672 Q355.3594,490.9766 355.125,491.2422 Q354.8906,491.5078 354.5156,491.5078 Q354.1719,491.5078 353.9688,491.3047 Q353.7656,491.1172 353.6563,490.6016 Q353.6094,490.2422 353.4219,490.0547 Q353.0938,489.6797 352.4844,489.4609 Q351.875,489.2422 351.25,489.2422 Q350.4844,489.2422 349.8438,489.5703 Q349.2188,489.8984 348.7188,490.6484 Q348.2344,491.3984 348.2344,492.4297 L348.2344,493.5234 Q348.2344,494.7578 349.125,495.5859 Q350.0156,496.3984 351.6094,496.3984 Q352.5469,496.3984 353.2031,496.1484 Q353.5938,495.9922 354.0156,495.5547 Q354.2813,495.2891 354.4219,495.2109 Q354.5781,495.1328 354.7813,495.1328 Q355.1094,495.1328 355.3594,495.3984 Q355.625,495.6484 355.625,495.9922 Q355.625,496.3359 355.2813,496.7422 Q354.7813,497.3203 353.9844,497.6484 Q352.9063,498.1016 351.6094,498.1016 Q350.0938,498.1016 348.8906,497.4766 Q347.9063,496.9766 347.2188,495.9141 Q346.5313,494.8359 346.5313,493.5547 L346.5313,492.3984 Q346.5313,491.0703 347.1406,489.9297 Q347.7656,488.7734 348.8594,488.1641 Q349.9531,487.5391 351.1875,487.5391 Q351.9219,487.5391 352.5625,487.7109 Q353.2188,487.8672 353.7656,488.2266 Z " fill="#000000"/><text fill="#000000" font-family="FG Virgil" font-size="12" font-style="italic" lengthAdjust="spacing" textLength="53" x="417.5" y="488.457">«service»</text><text fill="#000000" font-family="FG Virgil" font-size="14" lengthAdjust="spacing" textLength="158" x="365" y="505.627">UserManagementService</text><path d="M337,513.7031 L337,513.9834 L346.8947,513.1507 L356.7895,513.9608 L366.6842,514.236 L376.5789,512.7519 L386.4737,513.5995 L396.3684,513.1345 L406.2632,513.1918 L416.1579,513.6122 L426.0526,512.7813 L435.9474,514.4413 L445.8421,512.8628 L455.7368,513.4394 L465.6316,514.2791 L475.5263,513.5888 L485.4211,513.7941 L495.3158,513.6605 L505.2105,513.9412 L515.1053,514.022 L525,513.7031 " fill="#F1F1F1" style="stroke:#181818;stroke-width:0.5;"/><path d="M337,521.7031 L337,521.9834 L346.8947,521.1507 L356.7895,521.9608 L366.6842,522.236 L376.5789,520.7519 L386.4737,521.5995 L396.3684,521.1345 L406.2632,521.1918 L416.1579,521.6122 L426.0526,520.7813 L435.9474,522.4413 L445.8421,520.8628 L455.7368,521.4394 L465.6316,522.2791 L475.5263,521.5888 L485.4211,521.7941 L495.3158,521.6605 L505.2105,521.9412 L515.1053,522.022 L525,521.7031 " fill="#F1F1F1" style="stroke:#181818;stroke-width:0.5;"/><text fill="#000000" font-family="FG Virgil" font-size="14" lengthAdjust="spacing" textLength="60" x="342" y="540.2363">allUsers()</text></g><!--MD5=[0b1f3d1c1978f9b151365e147219e3b1]
class AuthzRegistry--><g id="elem_AuthzRegistry"><polygon fill="#F1F1F1" points="217.5,316,217.5,316.2102,227.1667,315.5857,236.8333,316.1933,246.5,316.3997,256.1667,315.2866,265.8333,315.9223,275.5,315.5735,285.1667,315.6165,294.8333,315.9318,304.5,315.3086,314.1667,316.5536,323.8333,315.3697,333.5,315.8022,343.1667,316.4319,352.8333,315.9142,362.5,316,362.5087,316.021,362.8495,316.1366,363.2299,316.3479,363.5912,316.513,363.9889,316.7662,364.2678,316.7322,364.4744,316.8178,364.6234,317.1724,364.6391,317.4718,364.8499,317.852,365.0698,318.236,365,318.5,364.2788,318.5,365.6785,328.3802,364.7035,338.2604,365.5338,348.1406,364.505,358.0208,364.9315,367.901,365.7416,377.7813,364.9513,387.6615,365.1053,397.5417,365,407.4219,365.1043,407.4651,364.9817,407.8285,364.7059,408.1285,364.6491,408.5192,364.2379,408.7631,364.2678,409.1896,364.304,409.2772,363.9841,409.5049,363.6174,409.6194,363.2853,409.8178,362.7919,409.6267,362.5,409.9219,362.5,409.2697,352.8333,409.3005,343.1667,409.863,333.5,409.7253,323.8333,410.6033,314.1667,409.7472,304.5,409.5788,294.8333,410.1501,285.1667,409.255,275.5,409.4027,265.8333,410.5708,256.1667,410.3575,246.5,410.6564,236.8333,409.6001,227.1667,410.2411,217.5,409.9219,217.5753,410.1037,217.0862,409.6299,216.7807,409.5995,216.4554,409.5213,216.1689,409.5368,215.7322,409.1896,215.7309,409.1891,215.7282,408.8951,215.2688,408.4119,215.0843,408.0426,215.3015,407.8397,215,407.4219,214.2831,407.4219,215.509,397.5417,215.2066,387.6615,214.7321,377.7813,214.6462,367.901,215.4588,358.0208,214.7007,348.1406,215.5919,338.2604,214.4473,328.3802,215,318.5,215.1901,318.5788,215.2956,318.2082,215.3683,317.8241,215.4539,317.4454,215.8096,317.1785,215.7322,316.7322,215.8105,316.9212,216.1074,316.6379,216.4736,316.5219,216.7763,316.2528,217.2378,316.3671,217.5,316" style="stroke:#181818;stroke-width:0.5;"/><polygon fill="#C2C2C2" points="255.0108,340.0272,253.3984,342.2304,251.4912,345.4573,248.7636,347.632,245.8974,348.8212,243.612,348.9244,240.6747,347.4371,237.9032,346.4655,235.7995,344.4927,234.6961,342.2343,234.0417,340.4361,233.4006,338.0873,232.36,336.066,233.1596,334.0926,233.8602,331.9308,236.4893,330.221,238.339,328.0027,240.6284,327.266,243.3501,326.6316,246.8404,327.0085,248.7521,327.9101,250.9747,328.3188,253.6772,331.0875,254.6193,334.0105,255.0286,336.0049,254.565,339.2914" style="stroke:#181818;stroke-width:1.0;"/><path d="M246.7156,333.2266 Q246.8719,333.0078 247.0594,332.8984 Q247.2469,332.7891 247.4656,332.7891 Q247.8406,332.7891 248.075,333.0547 Q248.3094,333.3047 248.3094,333.9141 L248.3094,335.3672 Q248.3094,335.9766 248.075,336.2422 Q247.8406,336.5078 247.4656,336.5078 Q247.1219,336.5078 246.9188,336.3047 Q246.7156,336.1172 246.6063,335.6016 Q246.5594,335.2422 246.3719,335.0547 Q246.0438,334.6797 245.4344,334.4609 Q244.825,334.2422 244.2,334.2422 Q243.4344,334.2422 242.7938,334.5703 Q242.1688,334.8984 241.6688,335.6484 Q241.1844,336.3984 241.1844,337.4297 L241.1844,338.5234 Q241.1844,339.7578 242.075,340.5859 Q242.9656,341.3984 244.5594,341.3984 Q245.4969,341.3984 246.1531,341.1484 Q246.5438,340.9922 246.9656,340.5547 Q247.2313,340.2891 247.3719,340.2109 Q247.5281,340.1328 247.7313,340.1328 Q248.0594,340.1328 248.3094,340.3984 Q248.575,340.6484 248.575,340.9922 Q248.575,341.3359 248.2313,341.7422 Q247.7313,342.3203 246.9344,342.6484 Q245.8563,343.1016 244.5594,343.1016 Q243.0438,343.1016 241.8406,342.4766 Q240.8563,341.9766 240.1688,340.9141 Q239.4813,339.8359 239.4813,338.5547 L239.4813,337.3984 Q239.4813,336.0703 240.0906,334.9297 Q240.7156,333.7734 241.8094,333.1641 Q242.9031,332.5391 244.1375,332.5391 Q244.8719,332.5391 245.5125,332.7109 Q246.1688,332.8672 246.7156,333.2266 Z " fill="#000000"/><text fill="#000000" font-family="FG Virgil" font-size="12" font-style="italic" lengthAdjust="spacing" textLength="30" x="289.55" y="333.457">«util»</text><text fill="#000000" font-family="FG Virgil" font-size="14" lengthAdjust="spacing" textLength="87" x="261.05" y="350.627">AuthzRegistry</text><path d="M216,358.7031 L216,358.9834 L225.8667,358.1507 L235.7333,358.9608 L245.6,359.236 L255.4667,357.7519 L265.3333,358.5995 L275.2,358.1345 L285.0667,358.1918 L294.9333,358.6122 L304.8,357.7813 L314.6667,359.4413 L324.5333,357.8628 L334.4,358.4394 L344.2667,359.2791 L354.1333,358.5888 L364,358.7031 " fill="#F1F1F1" style="stroke:#181818;stroke-width:0.5;"/><path d="M216,366.7031 L216,366.9834 L225.8667,366.1507 L235.7333,366.9608 L245.6,367.236 L255.4667,365.7519 L265.3333,366.5995 L275.2,366.1345 L285.0667,366.1918 L294.9333,366.6122 L304.8,365.7813 L314.6667,367.4413 L324.5333,365.8628 L334.4,366.4394 L344.2667,367.2791 L354.1333,366.5888 L364,366.7031 " fill="#F1F1F1" style="stroke:#181818;stroke-width:0.5;"/><text fill="#000000" font-family="FG Virgil" font-size="14" lengthAdjust="spacing" textLength="138" x="221" y="385.2363">authorizationService()</text><text fill="#000000" font-family="FG Virgil" font-size="14" lengthAdjust="spacing" textLength="85" x="221" y="402.8457">userService()</text></g><!--MD5=[e8c189551b7885b999ad7cefb30fc2a3]
class PersistenceContext--><g id="elem_PersistenceContext"><polygon fill="#F1F1F1" points="281.5,625,281.5,625.2102,291.4333,624.5857,301.3667,625.1933,311.3,625.3997,321.2333,624.2866,331.1667,624.9223,341.1,624.5735,351.0333,624.6165,360.9667,624.9318,370.9,624.3086,380.8333,625.5536,390.7667,624.3697,400.7,624.8022,410.6333,625.4319,420.5667,624.9142,430.5,625,430.5087,625.021,430.8495,625.1366,431.2299,625.3479,431.5912,625.513,431.9889,625.7662,432.2678,625.7322,432.4744,625.8178,432.6234,626.1724,432.6391,626.4718,432.8499,626.852,433.0698,627.236,433,627.5,432.2788,627.5,433.6785,637.6875,432.7035,647.875,433.5338,658.0625,432.505,668.25,432.9315,678.4375,433.7416,688.625,433,698.8125,432.985,698.8063,432.886,699.1795,432.8114,699.5628,432.6888,699.9263,432.413,700.2262,432.2678,700.5803,432.3044,700.6687,431.8412,700.5504,431.5969,700.9607,431.277,701.1884,430.9103,701.303,430.5,701.3125,430.5,701.9255,420.5667,700.8294,410.6333,700.6603,400.7,700.6911,390.7667,701.2536,380.8333,701.116,370.9,701.9939,360.9667,701.1378,351.0333,700.9694,341.1,701.5408,331.1667,700.6457,321.2333,700.7934,311.3,701.9615,301.3667,701.7482,291.4333,702.047,281.5,701.3125,281.459,701.2134,281.1872,701.2644,280.8682,701.2014,280.3791,700.7277,280.0736,700.6972,279.7322,700.5803,279.771,700.5963,279.7865,700.3099,279.438,699.8726,279.4353,699.5786,278.9759,699.0954,279,698.8125,278.3227,698.8125,279.5036,688.625,278.2831,678.4375,279.509,668.25,279.2066,658.0625,278.7321,647.875,278.6462,637.6875,279,627.5,279.1413,627.5585,279.0543,627.1083,279.4752,626.8684,279.2691,626.3688,279.7759,626.1645,279.7322,625.7322,279.794,625.8814,280.117,625.6612,280.4454,625.4539,280.8856,625.5167,281.2247,625.3354,281.5,625" style="stroke:#181818;stroke-width:0.5;"/><polygon fill="#C2C2C2" points="305.0608,649.0272,303.4484,651.2304,301.5412,654.4573,298.8136,656.632,295.9474,657.8212,293.662,657.9244,290.7247,656.4371,287.9532,655.4655,285.8495,653.4927,284.7461,651.2343,284.0917,649.4361,283.4506,647.0873,282.41,645.066,283.2096,643.0926,283.9102,640.9308,286.5393,639.221,288.389,637.0027,290.6784,636.266,293.4001,635.6316,296.8904,636.0085,298.8021,636.9101,301.0247,637.3188,303.7272,640.0875,304.6693,643.0105,305.0786,645.0049,304.615,648.2914" style="stroke:#181818;stroke-width:1.0;"/><path d="M296.7656,642.2266 Q296.9219,642.0078 297.1094,641.8984 Q297.2969,641.7891 297.5156,641.7891 Q297.8906,641.7891 298.125,642.0547 Q298.3594,642.3047 298.3594,642.9141 L298.3594,644.3672 Q298.3594,644.9766 298.125,645.2422 Q297.8906,645.5078 297.5156,645.5078 Q297.1719,645.5078 296.9688,645.3047 Q296.7656,645.1172 296.6563,644.6016 Q296.6094,644.2422 296.4219,644.0547 Q296.0938,643.6797 295.4844,643.4609 Q294.875,643.2422 294.25,643.2422 Q293.4844,643.2422 292.8438,643.5703 Q292.2188,643.8984 291.7188,644.6484 Q291.2344,645.3984 291.2344,646.4297 L291.2344,647.5234 Q291.2344,648.7578 292.125,649.5859 Q293.0156,650.3984 294.6094,650.3984 Q295.5469,650.3984 296.2031,650.1484 Q296.5938,649.9922 297.0156,649.5547 Q297.2813,649.2891 297.4219,649.2109 Q297.5781,649.1328 297.7813,649.1328 Q298.1094,649.1328 298.3594,649.3984 Q298.625,649.6484 298.625,649.9922 Q298.625,650.3359 298.2813,650.7422 Q297.7813,651.3203 296.9844,651.6484 Q295.9063,652.1016 294.6094,652.1016 Q293.0938,652.1016 291.8906,651.4766 Q290.9063,650.9766 290.2188,649.9141 Q289.5313,648.8359 289.5313,647.5547 L289.5313,646.3984 Q289.5313,645.0703 290.1406,643.9297 Q290.7656,642.7734 291.8594,642.1641 Q292.9531,641.5391 294.1875,641.5391 Q294.9219,641.5391 295.5625,641.7109 Q296.2188,641.8672 296.7656,642.2266 Z " fill="#000000"/><text fill="#000000" font-family="FG Virgil" font-size="12" font-style="italic" lengthAdjust="spacing" textLength="77" x="330.5" y="642.457">«persistence»</text><text fill="#000000" font-family="FG Virgil" font-size="14" lengthAdjust="spacing" textLength="122" x="308" y="659.627">PersistenceContext</text><path d="M280,667.7031 L280,667.9834 L290.1333,667.1507 L300.2667,667.9608 L310.4,668.236 L320.5333,666.7519 L330.6667,667.5995 L340.8,667.1345 L350.9333,667.1918 L361.0667,667.6122 L371.2,666.7813 L381.3333,668.4413 L391.4667,666.8628 L401.6,667.4394 L411.7333,668.2791 L421.8667,667.5888 L432,667.7031 " fill="#F1F1F1" style="stroke:#181818;stroke-width:0.5;"/><path d="M280,675.7031 L280,675.9834 L290.1333,675.1507 L300.2667,675.9608 L310.4,676.236 L320.5333,674.7519 L330.6667,675.5995 L340.8,675.1345 L350.9333,675.1918 L361.0667,675.6122 L371.2,674.7813 L381.3333,676.4413 L391.4667,674.8628 L401.6,675.4394 L411.7333,676.2791 L421.8667,675.5888 L432,675.7031 " fill="#F1F1F1" style="stroke:#181818;stroke-width:0.5;"/><text fill="#000000" font-family="FG Virgil" font-size="14" lengthAdjust="spacing" textLength="84" x="285" y="694.2363">repositories()</text></g><!--MD5=[48590afff58a68e2fcba47824d6f8a11]
class RepositoryFactory--><g id="elem_RepositoryFactory"><polygon fill="#F1F1F1" points="286.5,779,286.5,779.2102,296.7143,778.5857,306.9286,779.1933,317.1429,779.3997,327.3571,778.2866,337.5714,778.9223,347.7857,778.5735,358,778.6165,368.2143,778.9318,378.4286,778.3086,388.6429,779.5536,398.8571,778.3697,409.0714,778.8022,419.2857,779.4319,429.5,779,429.4891,778.9736,429.8623,779.1675,430.203,779.2831,430.5834,779.4943,430.9447,779.6594,431.2678,779.7322,431.4481,779.8069,431.6209,780.1714,431.7698,780.526,431.7855,780.8254,431.9963,781.2056,432,781.5,432.7022,781.5,431.2788,791.6875,432.6785,801.875,431.7035,812.0625,432.5338,822.25,431.505,832.4375,431.9315,842.625,432,852.8125,432.2284,852.9071,431.8385,853.1598,431.7395,853.533,431.6649,853.9164,431.5424,854.2798,431.2678,854.5803,431.2673,854.5791,430.9509,854.8152,430.4876,854.6969,430.2434,855.1072,429.9235,855.3349,429.5,855.3125,429.5,855.757,419.2857,855.9255,409.0714,854.8294,398.8571,854.6603,388.6429,854.6911,378.4286,855.2536,368.2143,855.116,358,855.9939,347.7857,855.1378,337.5714,854.9694,327.3571,855.5408,317.1429,854.6457,306.9286,854.7934,296.7143,855.9615,286.5,855.3125,286.5556,855.4467,286.2401,855.3922,285.7518,854.9205,285.4801,854.9715,285.1611,854.9085,284.7322,854.5803,284.5868,854.52,284.5563,854.2145,284.4781,853.8892,284.4936,853.6027,284.1452,853.1655,284,852.8125,284.4626,852.8125,283.4462,842.625,283.3227,832.4375,284.5036,822.25,283.2831,812.0625,284.509,801.875,284.2066,791.6875,284,781.5,283.9175,781.4658,284.0375,781.1013,284.4342,780.8514,284.3472,780.4012,284.7681,780.1613,284.7322,779.7322,284.6617,779.562,285.1645,779.7759,285.5011,779.5885,285.8241,779.3683,286.1525,779.161,286.5,779" style="stroke:#181818;stroke-width:0.5;"/><polygon fill="#C2C2C2" points="310.0608,803.0272,308.4484,805.2304,306.5412,808.4573,303.8136,810.632,300.9474,811.8212,298.662,811.9244,295.7247,810.4371,292.9532,809.4655,290.8495,807.4927,289.7461,805.2343,289.0917,803.4361,288.4506,801.0873,287.41,799.066,288.2096,797.0926,288.9102,794.9308,291.5393,793.221,293.389,791.0027,295.6784,790.266,298.4001,789.6316,301.8904,790.0085,303.8021,790.9101,306.0247,791.3188,308.7272,794.0875,309.6693,797.0105,310.0786,799.0049,309.615,802.2914" style="stroke:#181818;stroke-width:1.0;"/><path d="M301.7656,796.2266 Q301.9219,796.0078 302.1094,795.8984 Q302.2969,795.7891 302.5156,795.7891 Q302.8906,795.7891 303.125,796.0547 Q303.3594,796.3047 303.3594,796.9141 L303.3594,798.3672 Q303.3594,798.9766 303.125,799.2422 Q302.8906,799.5078 302.5156,799.5078 Q302.1719,799.5078 301.9688,799.3047 Q301.7656,799.1172 301.6563,798.6016 Q301.6094,798.2422 301.4219,798.0547 Q301.0938,797.6797 300.4844,797.4609 Q299.875,797.2422 299.25,797.2422 Q298.4844,797.2422 297.8438,797.5703 Q297.2188,797.8984 296.7188,798.6484 Q296.2344,799.3984 296.2344,800.4297 L296.2344,801.5234 Q296.2344,802.7578 297.125,803.5859 Q298.0156,804.3984 299.6094,804.3984 Q300.5469,804.3984 301.2031,804.1484 Q301.5938,803.9922 302.0156,803.5547 Q302.2813,803.2891 302.4219,803.2109 Q302.5781,803.1328 302.7813,803.1328 Q303.1094,803.1328 303.3594,803.3984 Q303.625,803.6484 303.625,803.9922 Q303.625,804.3359 303.2813,804.7422 Q302.7813,805.3203 301.9844,805.6484 Q300.9063,806.1016 299.6094,806.1016 Q298.0938,806.1016 296.8906,805.4766 Q295.9063,804.9766 295.2188,803.9141 Q294.5313,802.8359 294.5313,801.5547 L294.5313,800.3984 Q294.5313,799.0703 295.1406,797.9297 Q295.7656,796.7734 296.8594,796.1641 Q297.9531,795.5391 299.1875,795.5391 Q299.9219,795.5391 300.5625,795.7109 Q301.2188,795.8672 301.7656,796.2266 Z " fill="#000000"/><text fill="#000000" font-family="FG Virgil" font-size="12" font-style="italic" lengthAdjust="spacing" textLength="50" x="346" y="796.457">«factory»</text><text fill="#000000" font-family="FG Virgil" font-size="14" lengthAdjust="spacing" textLength="116" x="313" y="813.627">RepositoryFactory</text><path d="M285,821.7031 L285,821.9834 L294.7333,821.1507 L304.4667,821.9608 L314.2,822.236 L323.9333,820.7519 L333.6667,821.5995 L343.4,821.1345 L353.1333,821.1918 L362.8667,821.6122 L372.6,820.7813 L382.3333,822.4413 L392.0667,820.8628 L401.8,821.4394 L411.5333,822.2791 L421.2667,821.5888 L431,821.7031 " fill="#F1F1F1" style="stroke:#181818;stroke-width:0.5;"/><path d="M285,829.7031 L285,829.9834 L294.7333,829.1507 L304.4667,829.9608 L314.2,830.236 L323.9333,828.7519 L333.6667,829.5995 L343.4,829.1345 L353.1333,829.1918 L362.8667,829.6122 L372.6,828.7813 L382.3333,830.4413 L392.0667,828.8628 L401.8,829.4394 L411.5333,830.2791 L421.2667,829.5888 L431,829.7031 " fill="#F1F1F1" style="stroke:#181818;stroke-width:0.5;"/><text fill="#000000" font-family="FG Virgil" font-size="14" lengthAdjust="spacing" textLength="45" x="290" y="848.2363">users()</text></g><!--MD5=[093c210125347143eef5bb9199eae634]
class UserRepository--><g id="elem_UserRepository"><polygon fill="#F1F1F1" points="361,933,361,933.2102,371.3333,932.5857,381.6667,933.1933,392,933.3997,402.3333,932.2866,412.6667,932.9223,423,932.5735,433.3333,932.6165,443.6667,932.9318,454,932.3086,464.3333,933.5536,474.6667,932.3697,485,933,484.9748,932.9391,485.4087,933.2795,485.6962,933.2665,486.0694,933.4604,486.4101,933.5759,486.7678,933.7322,486.8227,933.755,486.9879,934.1163,487.241,934.5141,487.4138,934.8785,487.5627,935.2331,487.5,935.5,487.7546,935.5,487.9636,945.6875,488.2022,955.875,486.7788,966.0625,488.1785,976.25,487.2035,986.4375,488.0338,996.625,487.5,1006.8125,487.3476,1006.7494,487.3325,1007.1573,487.4355,1007.6142,487.0457,1007.8669,486.9466,1008.2401,486.7678,1008.5803,486.811,1008.6846,486.4673,1008.8549,486.0602,1008.872,485.7437,1009.1081,485.2805,1008.9898,485,1009.3125,485,1009.5969,474.6667,1009.8607,464.3333,1009.757,454,1009.9255,443.6667,1008.8294,433.3333,1008.6603,423,1008.6911,412.6667,1009.2536,402.3333,1009.116,392,1009.9939,381.6667,1009.1378,371.3333,1008.9694,361,1009.3125,361.0291,1009.3828,360.5614,1008.9607,360.2267,1008.8597,360.0221,1009.073,359.6414,1008.8609,359.2322,1008.5803,359.4584,1008.674,358.9867,1008.1857,359.0376,1007.9139,358.9747,1007.5949,358.501,1007.1058,358.5,1006.8125,358.4041,1006.8125,358.626,996.625,359.1518,986.4375,358.4958,976.25,358.9626,966.0625,357.9462,955.875,357.8227,945.6875,358.5,935.5,358.6551,935.5642,358.4257,935.055,358.9496,934.8578,359.003,934.4657,359.0033,934.0516,359.2322,933.7322,359.1871,933.6233,359.6443,933.7271,359.9012,933.3472,360.3684,933.4752,360.5759,932.9762,361,933" style="stroke:#181818;stroke-width:0.5;"/><polygon fill="#C2C2C2" points="384.5608,957.0272,382.9484,959.2304,381.0412,962.4573,378.3136,964.632,375.4474,965.8212,373.162,965.9244,370.2247,964.4371,367.4532,963.4655,365.3495,961.4927,364.2461,959.2343,363.5917,957.4361,362.9506,955.0873,361.91,953.066,362.7096,951.0926,363.4102,948.9308,366.0393,947.221,367.889,945.0027,370.1784,944.266,372.9001,943.6316,376.3904,944.0085,378.3021,944.9101,380.5247,945.3188,383.2272,948.0875,384.1693,951.0105,384.5786,953.0049,384.115,956.2914" style="stroke:#181818;stroke-width:1.0;"/><path d="M376.2656,950.2266 Q376.4219,950.0078 376.6094,949.8984 Q376.7969,949.7891 377.0156,949.7891 Q377.3906,949.7891 377.625,950.0547 Q377.8594,950.3047 377.8594,950.9141 L377.8594,952.3672 Q377.8594,952.9766 377.625,953.2422 Q377.3906,953.5078 377.0156,953.5078 Q376.6719,953.5078 376.4688,953.3047 Q376.2656,953.1172 376.1563,952.6016 Q376.1094,952.2422 375.9219,952.0547 Q375.5938,951.6797 374.9844,951.4609 Q374.375,951.2422 373.75,951.2422 Q372.9844,951.2422 372.3438,951.5703 Q371.7188,951.8984 371.2188,952.6484 Q370.7344,953.3984 370.7344,954.4297 L370.7344,955.5234 Q370.7344,956.7578 371.625,957.5859 Q372.5156,958.3984 374.1094,958.3984 Q375.0469,958.3984 375.7031,958.1484 Q376.0938,957.9922 376.5156,957.5547 Q376.7813,957.2891 376.9219,957.2109 Q377.0781,957.1328 377.2813,957.1328 Q377.6094,957.1328 377.8594,957.3984 Q378.125,957.6484 378.125,957.9922 Q378.125,958.3359 377.7813,958.7422 Q377.2813,959.3203 376.4844,959.6484 Q375.4063,960.1016 374.1094,960.1016 Q372.5938,960.1016 371.3906,959.4766 Q370.4063,958.9766 369.7188,957.9141 Q369.0313,956.8359 369.0313,955.5547 L369.0313,954.3984 Q369.0313,953.0703 369.6406,951.9297 Q370.2656,950.7734 371.3594,950.1641 Q372.4531,949.5391 373.6875,949.5391 Q374.4219,949.5391 375.0625,949.7109 Q375.7188,949.8672 376.2656,950.2266 Z " fill="#000000"/><text fill="#000000" font-family="FG Virgil" font-size="12" font-style="italic" lengthAdjust="spacing" textLength="68" x="402" y="950.457">«repository»</text><text fill="#000000" font-family="FG Virgil" font-size="14" lengthAdjust="spacing" textLength="97" x="387.5" y="967.627">UserRepository</text><path d="M359.5,975.7031 L359.5,975.9834 L369.2692,975.1507 L379.0385,975.9608 L388.8077,976.236 L398.5769,974.7519 L408.3462,975.5995 L418.1154,975.1345 L427.8846,975.1918 L437.6538,975.6122 L447.4231,974.7813 L457.1923,976.4413 L466.9615,974.8628 L476.7308,975.4394 L486.5,975.7031 " fill="#F1F1F1" style="stroke:#181818;stroke-width:0.5;"/><path d="M359.5,983.7031 L359.5,983.9834 L369.2692,983.1507 L379.0385,983.9608 L388.8077,984.236 L398.5769,982.7519 L408.3462,983.5995 L418.1154,983.1345 L427.8846,983.1918 L437.6538,983.6122 L447.4231,982.7813 L457.1923,984.4413 L466.9615,982.8628 L476.7308,983.4394 L486.5,983.7031 " fill="#F1F1F1" style="stroke:#181818;stroke-width:0.5;"/><text fill="#000000" font-family="FG Virgil" font-size="14" lengthAdjust="spacing" textLength="48" x="364.5" y="1002.2363">findAll()</text></g><!--MD5=[d1fdfbe69774d5eebb32a2cfa1746ce1]
link ListUsersUI to ListUsersController--><g id="link_ListUsersUI_ListUsersController"><path d="M290,101.14 L290.2802,101.14 L289.4476,111.4814 L290.2577,121.8229 L290.5329,132.1643 L289.0488,142.5057 L289.8964,152.8471 L289.4313,163.1886 L290,173.53 " fill="none" style="stroke:#181818;stroke-width:1.0;"/><polygon fill="#181818" points="290,178.79,290.064,178.8185,290.6738,176.9339,291.6589,175.2162,292.5217,173.4441,292.9827,171.4934,294,169.79,293.9817,169.7717,293.0995,170.4895,292.3096,171.2996,291.5839,172.1739,290.637,172.827,290,173.79,290.1305,173.9205,289.0514,172.8414,288.3534,172.1434,287.7018,171.4918,286.7798,170.5698,286,169.79,286.0208,169.7992,286.7903,171.5857,287.6544,173.4142,288.4728,175.2224,289.3784,177.0693,290,178.79" style="stroke:#181818;stroke-width:1.0;"/><text fill="#000000" font-family="FG Virgil" font-size="13" lengthAdjust="spacing" textLength="73" x="291" y="145.4951">theController</text></g><!--MD5=[4aebd9904aa32d79c0c8a6f34f000b95]
link ListUsersController to AuthorizationService--><g id="link_ListUsersController_AuthorizationService"><path d="M220.95,255.22 L221.005,255.2955 L219.1678,256.2914 L217.6531,257.7298 L216.0334,259.024 L214.0682,259.8445 L212.5812,261.3208 L212.5598,261.2938 L210.8107,262.48 L209.1698,263.8028 L207.6039,265.2205 L205.7792,266.3111 L204.317,267.8598 L204.4781,268.0459 L202.5234,269.0425 L201.039,270.5822 L199.612,272.1881 L197.8512,273.4085 L196.2659,274.8317 L196.2869,274.8536 L194.7102,276.3014 L193.2289,277.8489 L191.7016,279.3482 L190.2622,280.9394 L188.5363,282.2313 L188.7543,282.4347 L187.297,284.0016 L185.6991,285.4372 L184.307,287.0649 L182.9246,288.7017 L181.2364,290.0531 L180.9887,289.8498 L180.1172,291.8922 L178.4299,293.2651 L177.3629,295.147 L175.6571,296.5047 L174.4748,298.292 L174.45,298.2745 L173.521,300.2124 L172.0112,301.7398 L170.8441,303.5095 L169.7058,305.2995 L168.3599,306.9428 L168.5191,307.037 L167.2864,308.7533 L166.3258,310.6307 L164.925,312.2475 L164.1808,314.2529 L163,316 L163.2221,316.1001 L161.5481,319.7032 L159.9844,323.3559 L157.9083,326.7778 L156.2078,330.369 L154.8401,334.1101 L154.5789,334.0202 L154.1639,335.9955 L153.4547,337.8695 L153.1722,339.8904 L152.161,341.6606 L151.583,343.5797 L151.4364,343.538 L151.1302,345.5423 L150.1972,347.3682 L149.71,349.3209 L149.6589,351.3977 L148.8311,353.2536 L149.0197,353.2974 L148.6932,355.2921 L147.78,357.1508 L147.6016,359.1799 L147.2631,361.1719 L146.5516,363.0774 L146.3452,363.0391 L146.1418,365.0535 L145.8708,367.0554 L145.7326,369.0819 L145.078,371.0127 L144.7119,372.9969 L144.9154,373.0262 L144.1818,374.9541 L143.8409,376.9385 L144.0739,379.0054 L143.2504,380.9204 L143.2793,382.9579 L143.5043,382.9818 L143.159,384.9573 L142.7377,386.9247 L142.4881,388.9103 L142.6356,390.9381 L142.2213,392.9063 L142.0884,392.8987 L142.2592,396.8496 L141.5267,400.7489 L141.8212,404.7069 L141.5375,408.6319 L141.0979,412.5479 L141.2068,412.548 L141.1155,416.336 L141.414,420.1244 L141.3603,423.9124 L141.1594,427.7003 L141.0808,431.4883 L141.1998,431.4938 L141.1885,435.0466 L141.73,438.6252 L141.6462,442.1746 L141.8196,445.736 L141.9085,449.2935 L141.6392,449.2701 L142.0114,452.5252 L142.7081,455.8086 L142.9457,459.052 L143.0187,462.2811 L143.32,465.53 " fill="none" style="stroke:#181818;stroke-width:1.0;"/><polygon fill="#181818" points="143.91,470.9,143.9768,470.9211,144.3729,468.9804,145.1605,467.1636,145.8207,465.3065,146.0615,463.3166,146.8828,461.5105,146.8625,461.4943,146.0657,462.3059,145.371,463.199,144.7472,464.1487,143.879,464.9032,143.3531,465.9311,143.4683,466.0753,142.3379,465.061,141.5438,464.4677,140.7906,463.9258,139.7988,463.0851,138.9325,462.4015,138.9522,462.413,139.9188,464.0958,140.9749,465.831,141.9878,467.5409,143.083,469.299,143.91,470.9" style="stroke:#181818;stroke-width:1.0;"/><text fill="#000000" font-family="FG Virgil" font-size="13" lengthAdjust="spacing" textLength="32" x="164" y="368.4951">authz</text></g><!--MD5=[87941850f4221cb3925a030c008032ec]
link ListUsersController to UserManagementService--><g id="link_ListUsersController_UserManagementService"><path d="M333.59,255.31 L333.6568,255.3753 L336.0868,257.8736 L338.9085,260.7545 L341.6027,263.5108 L343.8773,265.8574 L346.7327,268.7711 L346.7067,268.7484 L349.1767,271.6054 L351.7778,274.577 L354.47,277.6283 L356.8482,280.405 L359.6663,283.5662 L359.8624,283.7148 L361.8425,286.565 L364.3954,289.849 L367.0181,293.1859 L369.2342,296.2149 L371.6642,299.4058 L371.69,299.4218 L373.7193,302.7171 L375.8659,306.0854 L377.9559,309.4185 L380.1538,312.8188 L382,316 L382.2644,316.138 L383.2132,317.9517 L383.9914,319.6765 L385.0193,321.5315 L386.0589,323.3927 L386.7277,325.0604 L386.438,324.9233 L387.8845,327.0577 L388.377,328.7406 L389.5947,330.7668 L390.0656,332.4395 L391.1487,334.4019 L391.1207,334.3898 L392.2762,336.4465 L392.7785,338.2216 L393.6662,340.1629 L394.5862,342.1181 L395.2729,343.9727 L395.445,344.0404 L396.0387,345.9217 L396.9266,347.9187 L397.3385,349.7283 L398.4603,351.8175 L399.1102,353.7208 L399.3394,353.8034 L400.0081,355.7625 L400.7906,357.7626 L401.0444,359.5721 L401.6857,361.5213 L402.6705,363.5943 L402.4083,363.5075 L403.3043,365.5755 L403.9049,367.5457 L404.9339,369.6578 L405.2314,371.5276 L405.9637,373.5415 L405.8179,373.497 L406.668,375.5648 L406.8947,377.4426 L407.5647,379.4555 L408.6685,381.6005 L408.9999,383.5102 L409.1863,383.5625 L409.8719,385.5861 L409.9777,387.447 L410.8098,389.5117 L411.4836,391.5319 L411.7888,393.4488 L411.5855,393.3961 L412.2578,395.4093 L412.8636,397.4053 L413.6001,399.4352 L413.8282,401.3334 L414.3403,403.3051 L414.5403,403.3529 L414.5658,405.1924 L414.9773,407.1241 L415.9526,409.1906 L415.8898,411.0089 L416.6646,413.0274 L416.8858,413.0745 L417.5556,416.8135 L418.1504,420.5366 L418.9143,424.2957 L420.0687,428.1378 L420.6705,431.8623 L420.5396,431.8385 L421.5723,435.4446 L421.7149,438.8887 L422.8697,442.517 L423.4545,446.0416 L423.8858,449.5383 L423.9934,449.555 L424.4074,452.7618 L425.2066,456.0286 L425.6578,459.2412 L425.9635,462.4312 L426.39,465.64 " fill="none" style="stroke:#181818;stroke-width:1.0;"/><polygon fill="#181818" points="427.13,470.96,427.1973,470.9794,427.5424,469.0289,428.2821,467.1921,428.8932,465.3183,429.0818,463.3228,429.8553,461.4957,429.8347,461.4801,429.0595,462.3123,428.3884,463.2233,427.7898,464.189,426.9416,464.9661,426.4429,466.0074,426.5543,466.1546,425.4139,465.1574,424.5985,464.5899,423.8228,464.0748,422.8163,463.2547,421.9312,462.595,421.9506,462.607,422.9619,464.2624,424.0613,465.9724,425.1182,467.6561,426.2561,469.3901,427.13,470.96" style="stroke:#181818;stroke-width:1.0;"/><text fill="#000000" font-family="FG Virgil" font-size="13" lengthAdjust="spacing" textLength="46" x="417" y="368.4951">userSvc</text></g><!--MD5=[5f29a7ecc8bfe922e351ae5e77e40a63]
link ListUsersController to AuthzRegistry--><g id="link_ListUsersController_AuthzRegistry"><path d="M290,255.08 L290.2802,255.08 L289.4476,264.34 L290.2577,273.6 L290.5329,282.86 L289.0488,292.12 L289.8964,301.38 L290,310.64 " fill="none" style="stroke:#181818;stroke-width:1.0;stroke-dasharray:7.0,7.0;"/><polygon fill="#181818" points="290,315.76,290.064,315.7885,290.6738,313.9039,291.6589,312.1862,292.5217,310.4141,292.9827,308.4634,294,306.76,293.9817,306.7417,293.0995,307.4595,292.3096,308.2696,291.5839,309.1439,290.637,309.797,290,310.76,290.1305,310.8905,289.0514,309.8114,288.3534,309.1134,287.7018,308.4618,286.7798,307.5398,286,306.76,286.0208,306.7692,286.7903,308.5557,287.6544,310.3842,288.4728,312.1924,289.3784,314.0393,290,315.76" style="stroke:#181818;stroke-width:1.0;"/></g><!--MD5=[c837425ae2d0773009d156019fd79119]
link AuthzRegistry to AuthorizationService--><g id="link_AuthzRegistry_AuthorizationService"><path d="M244.93,410.36 L245.1309,410.5554 L237.6627,417.0424 L231.3723,424.6746 L224.6983,431.934 L216.763,437.9669 L210.4995,445.6253 L203.2948,452.3686 L196.4646,459.4761 L189.96,466.9 " fill="none" style="stroke:#181818;stroke-width:1.0;stroke-dasharray:7.0,7.0;"/><polygon fill="#181818" points="186.12,470.85,186.1461,470.915,187.8969,469.9888,189.8006,469.4437,191.6545,468.7746,193.3447,467.6972,195.2615,467.1848,195.2611,467.1589,194.1282,467.0587,192.9972,467.089,191.8674,467.2101,190.7332,467.0184,189.6052,467.2648,189.7897,467.2674,189.3791,466.1306,189.5073,465.0014,189.7012,463.8731,189.5126,462.7394,189.5252,461.6085,189.5465,461.6164,188.8342,463.4531,188.219,465.3257,187.5569,467.181,186.9842,469.0692,186.12,470.85" style="stroke:#181818;stroke-width:1.0;"/></g><!--MD5=[a78f16923b5997f3b07c7c49a0f57ef6]
link AuthzRegistry to UserManagementService--><g id="link_AuthzRegistry_UserManagementService"><path d="M335.39,410.36 L335.5902,410.5561 L341.9166,417.041 L349.4166,424.6753 L356.5345,431.9354 L362.3954,437.9645 L369.9222,445.625 L376.5112,452.3671 L383.4734,459.4747 L390.76,466.9 " fill="none" style="stroke:#181818;stroke-width:1.0;stroke-dasharray:7.0,7.0;"/><polygon fill="#181818" points="394.62,470.85,394.6857,470.8744,393.8057,468.9551,393.3108,467.1786,392.6905,465.3556,391.6578,463.3797,391.1959,461.6155,391.17,461.6152,391.0401,462.7451,391.0407,463.8765,391.1321,465.0091,390.9107,466.1379,391.1275,467.272,391.1297,467.4565,389.9937,467.0482,388.8641,467.1787,387.7354,467.3749,386.602,467.1886,385.471,467.2035,385.4795,467.2247,387.2969,467.9229,389.1527,468.7174,390.9899,469.4655,392.8625,470.3021,394.62,470.85" style="stroke:#181818;stroke-width:1.0;"/></g><!--MD5=[b0877f5a81ed13f00912ab218cf366e4]
link UserManagementService to PersistenceContext--><g id="link_UserManagementService_PersistenceContext"><path d="M407.58,547.02 L407.6609,547.0666 L405.7077,549.9013 L404.2289,553.0094 L402.5957,556.0284 L400.4543,558.7547 L399.0163,561.8863 L398.9857,561.8701 L397.2455,564.8202 L395.6592,567.8519 L394.1797,570.9403 L392.3318,573.8333 L391,577 L391.2216,577.107 L389.728,578.9892 L388.8814,581.1838 L388.1137,583.4165 L386.8868,585.4274 L385.9014,587.555 L385.929,587.5675 L384.9004,589.7261 L383.9976,591.9418 L383.0341,594.1299 L382.1863,596.3706 L380.9613,598.44 L381.2351,598.5581 L380.2973,600.7425 L379.1829,602.8508 L378.327,605.0706 L377.4832,607.2956 L376.2555,609.355 L375.9592,609.2327 L375.6551,611.5991 L374.3755,613.5627 L373.8375,615.8325 L372.5357,617.787 L371.86,620 " fill="none" style="stroke:#181818;stroke-width:1.0;"/><polygon fill="#181818" points="370,624.65,370.0489,624.7002,371.3149,623.1769,372.8675,621.9479,374.3268,620.623,375.4792,618.983,377.0564,617.7793,377.0462,617.7555,375.9605,618.0943,374.9263,618.5531,373.9278,619.0954,372.8061,619.3501,371.857,620.0076,372.0266,620.0803,371.2182,618.885,370.905,617.9019,370.6523,616.9447,370.048,615.8368,369.6286,614.8081,369.6513,614.809,369.6922,616.7761,369.8366,618.7471,369.9311,620.7163,370.1208,622.689,370,624.65" style="stroke:#181818;stroke-width:1.0;"/><text fill="#000000" font-family="FG Virgil" font-size="13" lengthAdjust="spacing" textLength="67" x="392" y="591.4951">persistence</text></g><!--MD5=[754b775031405e096442b27febffa290]
link PersistenceContext to RepositoryFactory--><g id="link_PersistenceContext_RepositoryFactory"><path d="M356.49,701.18 L356.7702,701.1837 L356.0748,711.5556 L357.022,721.9491 L357.4343,732.3356 L356.0875,742.6989 L357.0721,753.0929 L356.7442,763.4696 L357.45,773.86 " fill="none" style="stroke:#181818;stroke-width:1.0;"/><polygon fill="#181818" points="357.51,778.94,357.5744,778.9675,358.1572,777.0745,359.1177,775.3428,359.9551,773.5586,360.3882,771.6016,361.381,769.8838,361.3625,769.8657,360.4906,770.596,359.7124,771.4174,358.9993,772.302,358.0618,772.9686,357.4386,773.9405,357.5672,774.0729,356.4808,773.0014,355.7699,772.3163,355.1049,771.6783,354.1733,770.766,353.3818,769.9981,353.4025,770.0076,354.1978,771.782,355.0871,773.5998,355.9311,775.3966,356.8616,777.2334,357.51,778.94" style="stroke:#181818;stroke-width:1.0;"/><text fill="#000000" font-family="FG Virgil" font-size="13" lengthAdjust="spacing" textLength="39" x="359" y="745.4951">factory</text></g><!--MD5=[0bde64d3861a2e0b7bf5316115f64c06]
link RepositoryFactory to UserRepository--><g id="link_RepositoryFactory_UserRepository"><path d="M359.58,855.11 L359.6726,855.1224 L359.7156,857.4534 L360.3013,859.8572 L360.7102,862.2373 L360.538,864.5393 L361.1703,866.9494 L361.1364,866.9429 L361.4526,869.3619 L361.9398,871.8136 L362.5459,874.2881 L362.7423,876.6841 L363.5125,879.19 L363.7503,879.2531 L363.8879,881.5528 L364.7199,884.0367 L365.6366,886.5431 L366.0604,888.9187 L366.7434,891.3631 L366.7719,891.3735 L367.5814,893.6856 L368.5206,896.0451 L369.3972,898.3818 L370.3932,900.762 L371,903 L371.2658,903.1353 L372.5933,905.7394 L373.7494,908.2563 L375.1564,910.9009 L376.5752,913.5515 L377.6213,916.0125 L377.3521,915.8384 L379.4822,918.6618 L380.7261,920.9119 L382.6437,923.5979 L383.8675,925.835 L385.66,928.44 " fill="none" style="stroke:#181818;stroke-width:1.0;"/><polygon fill="#181818" points="388.85,932.82,388.9185,932.8348,388.2981,930.8656,388.079,928.9834,387.7293,927.0728,386.9497,925.0691,386.7652,923.1943,386.7396,923.1904,386.4513,924.2905,386.292,925.4107,386.2225,926.5449,385.8438,927.631,385.8981,928.7844,385.9264,928.9667,384.7479,928.4033,383.652,928.3724,382.5662,928.4064,381.4217,928.0625,380.3081,927.9173,380.3194,927.9371,382.0112,928.8886,383.7545,929.93,385.4729,930.9281,387.2388,932.0088,388.85,932.82" style="stroke:#181818;stroke-width:1.0;"/><text fill="#000000" font-family="FG Virgil" font-size="13" lengthAdjust="spacing" textLength="87" x="372" y="899.4951">userRepository</text></g><!--MD5=[18f98f898b33518a07ec32b030c48693]
link UserManagementService to UserRepository--><g id="link_UserManagementService_UserRepository"><path d="M453.01,547.14 L453.0958,547.1769 L454.1033,550.003 L455.6139,553.0454 L456.9607,556.0174 L457.7687,558.7577 L459.3225,561.8187 L459.2895,561.8086 L460.0769,564.7992 L461.0306,567.8411 L462.1001,570.9186 L462.7708,573.8733 L464,577 L464.2398,577.0552 L464.8967,582.0137 L466.2537,587.1335 L467.6962,592.273 L468.6416,597.298 L469.8485,602.3832 L469.8781,602.3898 L470.8747,607.0638 L472.0061,611.7678 L473.0724,616.4574 L474.2628,621.1745 L475.0488,625.8018 L475.3408,625.8626 L476.2491,630.2097 L476.9692,634.5176 L477.9649,638.8829 L478.9735,643.2509 L479.5728,647.5337 L479.2578,647.4745 L480.633,651.654 L480.971,655.6385 L482.0976,659.7713 L482.4121,663.7515 L483.3922,667.8567 L483.3621,667.8519 L484.3349,671.7475 L484.6055,675.5301 L485.2904,679.3794 L486.0101,683.2343 L486.4788,687.0489 L486.6624,687.0721 L486.9422,690.7165 L487.5357,694.4006 L487.6218,698.0203 L488.4648,701.7361 L488.8045,705.388 L489.0472,705.409 L489.3086,708.9578 L489.6905,712.5171 L489.5125,716.0279 L489.7449,719.5742 L490.341,723.152 L490.065,723.1406 L490.4586,726.6443 L490.5413,730.1351 L491.075,733.6445 L490.8386,737.1222 L491.06,740.6188 L490.9075,740.6176 L491.1361,744.109 L490.713,747.5956 L490.7533,751.0855 L491.2472,754.5788 L490.9334,758.0662 L491.1267,758.0771 L491.0593,761.6258 L490.3905,765.1405 L490.4748,768.6978 L490.3951,772.2458 L489.933,775.7722 L489.7242,775.7504 L489.5101,779.4162 L489.2277,783.075 L489.0796,786.7477 L488.4092,790.3659 L488.0305,794.0146 L488.2339,794.0448 L487.2205,797.7898 L486.5997,801.5931 L486.5523,805.4816 L485.4492,809.2132 L485.1978,813.0714 L485.4205,813.1112 L484.9334,815.0717 L484.371,817.0187 L483.9786,818.9961 L483.9793,821.0438 L483.4238,822.992 L483.2933,822.9663 L483.2784,825.0886 L482.3759,827.0359 L482.4827,829.1822 L482.0212,831.2164 L481.4066,833.2204 L481.5131,833.2432 L480.9744,835.339 L480.8168,837.5165 L480.315,839.6201 L479.6691,841.693 L479.1428,843.7914 L479.2589,843.8181 L478.5835,845.9681 L478.4475,848.242 L477.7014,850.3757 L477.2063,852.5671 L476.6287,854.7396 L476.3664,854.674 L475.2954,859.3294 L474.5404,864.0637 L473.3383,868.6863 L471.976,873.2688 L470.8359,877.9068 L470.6978,877.8692 L469.3749,882.8999 L467.8073,887.864 L466.9122,893.0112 L465.6843,898.0678 L464,903 L464.2201,903.0792 L463.3644,905.6798 L462.0903,908.1299 L461.2577,910.7389 L460.1329,913.2427 L459.3688,915.8763 L459.4819,915.9321 L458.2393,918.4116 L457.1334,920.9584 L455.594,923.2913 L454.4042,925.7968 L453.23,928.31 " fill="none" style="stroke:#181818;stroke-width:1.0;"/><polygon fill="#181818" points="450.72,932.72,450.7616,932.7764,452.2236,931.4401,453.9294,930.4344,455.5558,929.321,456.9212,927.8536,458.6479,926.8763,458.641,926.8513,457.5192,927.0388,456.4321,927.3523,455.3689,927.7532,454.2229,927.8525,453.193,928.3744,453.371,928.4233,452.6908,927.2278,452.5302,926.175,452.433,925.1396,451.9669,924.0029,451.6949,922.9195,451.7175,922.9218,451.4893,924.8786,451.3642,926.8456,451.1893,928.8077,451.1093,930.7792,450.72,932.72" style="stroke:#181818;stroke-width:1.0;"/><text fill="#000000" font-family="FG Virgil" font-size="13" lengthAdjust="spacing" textLength="87" x="492" y="745.4951">userRepository</text></g><!--MD5=[8277d2a622d5ca2cb57a0ed07277fb65]
@startuml
'http://plantuml.com/skinparam.html
skinparam handwritten true
skinparam monochrome true
skinparam packageStyle rect
skinparam defaultFontName FG Virgil
skinparam shadowing false

class ListUsersUI <<presentation>>
class ListUsersController <<application>>
class AuthorizationService <<service>>
class UserManagementService <<service>>
class AuthzRegistry <<util>>
class PersistenceContext  <<persistence>>
class RepositoryFactory  <<factory>>
class UserRepository <<repository>>

ListUsersUI - -> ListUsersController : theController
ListUsersController - -> AuthorizationService: authz
ListUsersController - -> UserManagementService: userSvc
ListUsersController ..> AuthzRegistry
AuthzRegistry ..> AuthorizationService
AuthzRegistry ..> UserManagementService
UserManagementService - -> PersistenceContext: persistence
PersistenceContext - -> RepositoryFactory: factory
RepositoryFactory - -> UserRepository: userRepository
UserManagementService - -> UserRepository: userRepository

ListUsersUI : doShow()
ListUsersUI : show()
ListUsersController : listAllUsers()
AuthorizationService : ensureAuthenticatedUserHasAnyOf(Role...)
UserManagementService : allUsers()
PersistenceContext : repositories()
RepositoryFactory : users()
UserRepository : findAll()
AuthzRegistry : authorizationService()
AuthzRegistry : userService()

@enduml

@startuml
skinparam handwritten true
skinparam monochrome true
skinparam packageStyle rect
skinparam defaultFontName FG Virgil
skinparam shadowing false

class ListUsersUI <<presentation>>
class ListUsersController <<application>>
class AuthorizationService <<service>>
class UserManagementService <<service>>
class AuthzRegistry <<util>>
class PersistenceContext  <<persistence>>
class RepositoryFactory  <<factory>>
class UserRepository <<repository>>

ListUsersUI - -> ListUsersController : theController
ListUsersController - -> AuthorizationService: authz
ListUsersController - -> UserManagementService: userSvc
ListUsersController ..> AuthzRegistry
AuthzRegistry ..> AuthorizationService
AuthzRegistry ..> UserManagementService
UserManagementService - -> PersistenceContext: persistence
PersistenceContext - -> RepositoryFactory: factory
RepositoryFactory - -> UserRepository: userRepository
UserManagementService - -> UserRepository: userRepository

ListUsersUI : doShow()
ListUsersUI : show()
ListUsersController : listAllUsers()
AuthorizationService : ensureAuthenticatedUserHasAnyOf(Role...)
UserManagementService : allUsers()
PersistenceContext : repositories()
RepositoryFactory : users()
UserRepository : findAll()
AuthzRegistry : authorizationService()
AuthzRegistry : userService()

@enduml

PlantUML version 1.2022.7(Mon Aug 22 18:01:30 BST 2022)
(GPL source distribution)
Java Runtime: Java(TM) SE Runtime Environment
JVM: Java HotSpot(TM) 64-Bit Server VM
Default Encoding: Cp1252
Language: pt
Country: PT
--></g></svg>