<?xml version="1.0" encoding="UTF-8" standalone="no"?><svg xmlns="http://www.w3.org/2000/svg" xmlns:xlink="http://www.w3.org/1999/xlink" contentStyleType="text/css" height="1176px" preserveAspectRatio="none" style="width:1243px;height:1176px;background:#FFFFFF;" version="1.1" viewBox="0 0 1243 1176" width="1243px" zoomAndPan="magnify"><defs/><g><!--MD5=[8e1272570a7d464be50f7ad59113c548]
class RegisterUserUI--><g id="elem_RegisterUserUI"><polygon fill="#F1F1F1" points="723,7,723,7.2102,733.0833,6.5857,743.1667,7.1933,753.25,7.3997,763.3333,6.2866,773.4167,6.9223,783.5,6.5735,793.5833,6.6165,803.6667,6.9318,813.75,6.3086,823.8333,7.5536,833.9167,6.3697,844,7,843.9748,6.9391,844.4087,7.2795,844.6962,7.2665,845.0694,7.4604,845.4101,7.5759,845.7678,7.7322,845.8227,7.755,845.9879,8.1163,846.241,8.5141,846.4138,8.8785,846.5627,9.2331,846.5,9.5,846.7546,9.5,846.9636,19.3802,847.2022,29.2604,845.7788,39.1406,847.1785,49.0208,846.2035,58.901,847.0338,68.7813,846.005,78.6615,846.4315,88.5417,846.5,98.4219,846.7284,98.5165,846.3385,98.7692,846.2395,99.1424,846.1649,99.5257,846.0424,99.8892,845.7678,100.1896,845.7673,100.1884,845.4509,100.4245,844.9876,100.3063,844.7434,100.7166,844.4235,100.9443,844,100.9219,844,101.3664,833.9167,101.5349,823.8333,100.4388,813.75,100.2697,803.6667,100.3005,793.5833,100.863,783.5,100.7253,773.4167,101.6033,763.3333,100.7472,753.25,100.5788,743.1667,101.1501,733.0833,100.255,723,100.9219,722.9338,100.762,722.7292,100.9753,722.3485,100.7631,722.033,100.7087,721.5447,100.237,721.2322,100.1896,721.3305,100.2304,721.2676,99.9114,720.7939,99.4223,720.7634,99.1168,720.6852,98.7915,720.5,98.4219,721.1518,98.4219,720.4958,88.5417,720.9626,78.6615,719.9462,68.7813,719.8227,58.901,721.0036,49.0208,719.7831,39.1406,721.009,29.2604,720.7066,19.3802,720.5,9.5,720.4175,9.4658,720.5375,9.1013,720.9342,8.8514,720.8472,8.4012,721.2681,8.1613,721.2322,7.7322,721.1617,7.562,721.6645,7.7759,722.0011,7.5885,722.3241,7.3683,722.6525,7.161,723,7" style="stroke:#181818;stroke-width:0.5;"/><polygon fill="#C2C2C2" points="746.5608,31.0272,744.9484,33.2304,743.0412,36.4573,740.3136,38.632,737.4474,39.8212,735.162,39.9244,732.2247,38.4371,729.4532,37.4655,727.3495,35.4927,726.2461,33.2343,725.5917,31.4361,724.9506,29.0873,723.91,27.066,724.7096,25.0926,725.4102,22.9308,728.0393,21.221,729.889,19.0027,732.1784,18.266,734.9001,17.6316,738.3904,18.0085,740.3021,18.9101,742.5247,19.3188,745.2272,22.0875,746.1693,25.0105,746.5786,27.0049,746.115,30.2914" style="stroke:#181818;stroke-width:1.0;"/><path d="M738.2656,24.2266 Q738.4219,24.0078 738.6094,23.8984 Q738.7969,23.7891 739.0156,23.7891 Q739.3906,23.7891 739.625,24.0547 Q739.8594,24.3047 739.8594,24.9141 L739.8594,26.3672 Q739.8594,26.9766 739.625,27.2422 Q739.3906,27.5078 739.0156,27.5078 Q738.6719,27.5078 738.4688,27.3047 Q738.2656,27.1172 738.1563,26.6016 Q738.1094,26.2422 737.9219,26.0547 Q737.5938,25.6797 736.9844,25.4609 Q736.375,25.2422 735.75,25.2422 Q734.9844,25.2422 734.3438,25.5703 Q733.7188,25.8984 733.2188,26.6484 Q732.7344,27.3984 732.7344,28.4297 L732.7344,29.5234 Q732.7344,30.7578 733.625,31.5859 Q734.5156,32.3984 736.1094,32.3984 Q737.0469,32.3984 737.7031,32.1484 Q738.0938,31.9922 738.5156,31.5547 Q738.7813,31.2891 738.9219,31.2109 Q739.0781,31.1328 739.2813,31.1328 Q739.6094,31.1328 739.8594,31.3984 Q740.125,31.6484 740.125,31.9922 Q740.125,32.3359 739.7813,32.7422 Q739.2813,33.3203 738.4844,33.6484 Q737.4063,34.1016 736.1094,34.1016 Q734.5938,34.1016 733.3906,33.4766 Q732.4063,32.9766 731.7188,31.9141 Q731.0313,30.8359 731.0313,29.5547 L731.0313,28.3984 Q731.0313,27.0703 731.6406,25.9297 Q732.2656,24.7734 733.3594,24.1641 Q734.4531,23.5391 735.6875,23.5391 Q736.4219,23.5391 737.0625,23.7109 Q737.7188,23.8672 738.2656,24.2266 Z " fill="#000000"/><text fill="#000000" font-family="FG Virgil" font-size="12" font-style="italic" lengthAdjust="spacing" textLength="82" x="755.5" y="24.457">«presentation»</text><text fill="#000000" font-family="FG Virgil" font-size="14" lengthAdjust="spacing" textLength="94" x="749.5" y="41.627">RegisterUserUI</text><path d="M721.5,49.7031 L721.5,49.9834 L731.8333,49.1507 L742.1667,49.9608 L752.5,50.236 L762.8333,48.7519 L773.1667,49.5995 L783.5,49.1345 L793.8333,49.1918 L804.1667,49.6122 L814.5,48.7813 L824.8333,50.4413 L835.1667,48.8628 L845.5,49.7031 " fill="#F1F1F1" style="stroke:#181818;stroke-width:0.5;"/><path d="M721.5,57.7031 L721.5,57.9834 L731.8333,57.1507 L742.1667,57.9608 L752.5,58.236 L762.8333,56.7519 L773.1667,57.5995 L783.5,57.1345 L793.8333,57.1918 L804.1667,57.6122 L814.5,56.7813 L824.8333,58.4413 L835.1667,56.8628 L845.5,57.7031 " fill="#F1F1F1" style="stroke:#181818;stroke-width:0.5;"/><text fill="#000000" font-family="FG Virgil" font-size="14" lengthAdjust="spacing" textLength="60" x="726.5" y="76.2363">doShow()</text><text fill="#000000" font-family="FG Virgil" font-size="14" lengthAdjust="spacing" textLength="85" x="726.5" y="93.8457">chooseRole()</text></g><!--MD5=[8c59cfbc2252cb07c050d5e7108b82d8]
class AddUserController--><g id="elem_AddUserController"><polygon fill="#F1F1F1" points="543.5,179,543.5,179.2102,553.5,178.5857,563.5,179.1933,573.5,179.3997,583.5,178.2866,593.5,178.9223,603.5,178.5735,613.5,178.6165,623.5,178.9318,633.5,178.3086,643.5,179.5536,653.5,178.3697,663.5,178.8022,673.5,179.4319,683.5,178.9142,693.5,179.0682,703.5,178.9681,713.5,179.1785,723.5,179.2391,733.5,179.5857,743.5,179.6711,753.5,179.6793,763.5,179.2546,773.5,179.4636,783.5,179.7022,793.5,178.2788,803.5,179.6785,813.5,178.7035,823.5,179.5338,833.5,178.505,843.5,178.9315,853.5,179.7416,863.5,178.9513,873.5,179.1053,883.5,179.3386,893.5,179.4162,903.5,178.9961,913.5,179.2872,923.5,178.4276,933.5,179.2844,943.5,179.5482,953.5,179.4445,963.5,179.613,973.5,178.5169,983.5,178.3478,993.5,178.3786,1003.5,178.9411,1013.5,178.8035,1023.5,179,1023.5869,179.2098,1023.8313,179.0927,1024.1633,179.1872,1024.5898,179.5096,1024.8292,179.3804,1025.2678,179.7322,1025.1079,179.666,1025.6141,180.1686,1025.6948,180.4949,1025.9333,180.8866,1025.7545,181.1054,1026,181.5,1026.3192,181.5,1026.5904,191.3802,1025.5276,201.2604,1025.9041,211.1406,1026.126,221.0208,1026.6518,230.901,1025.9958,240.7813,1026.4626,250.6615,1025.4462,260.5417,1026,270.4219,1025.7914,270.3355,1026.0086,270.8397,1025.4863,271.0375,1025.7174,271.5475,1025.4778,271.8624,1025.2678,272.1896,1025.2336,272.1071,1024.8691,272.2271,1024.6192,272.6238,1024.1689,272.5368,1023.9291,272.9577,1023.5,272.9219,1023.5,272.3691,1013.5,273.5393,1003.5,273.4062,993.5,273.1668,983.5,272.9691,973.5,273.6485,963.5,273.5355,953.5,273.0911,943.5,273.1901,933.5,272.7916,923.5,273.6383,913.5,273.0767,903.5,273.0944,893.5,272.3135,883.5,272.5167,873.5,273.4526,863.5,273.3516,853.5,272.8789,843.5,272.5997,833.5,272.7029,823.5,272.2357,813.5,273.3366,803.5,273.6614,793.5,273.4483,783.5,273.6168,773.5,272.7851,763.5,273.0091,753.5,272.5343,743.5,273.2059,733.5,273.1686,723.5,273.4743,713.5,272.6922,703.5,272.7875,693.5,273.3653,683.5,273.4892,673.5,272.4093,663.5,272.728,653.5,273.0711,643.5,272.311,633.5,273.2753,623.5,273.1799,613.5,272.8211,603.5,273.0641,593.5,273.6506,583.5,272.609,573.5,273.2369,563.5,273.2075,553.5,273.0376,543.5,272.9219,543.518,272.9653,543.1609,272.8104,542.7133,272.4368,542.3882,272.3591,542.0269,272.194,541.7322,272.1896,541.7519,272.1978,541.6129,271.8473,541.4892,271.5032,541.2033,271.0919,541.1257,270.7668,541,270.4219,540.8798,270.4219,541.5769,260.5417,541.4266,250.6615,540.5145,240.7813,540.9271,230.901,540.4228,221.0208,541.2884,211.1406,541.6085,201.2604,541.5446,191.3802,541,181.5,540.8659,181.4444,541.2893,181.2056,541.0641,180.6981,541.501,180.4649,541.4936,180.0476,541.7322,179.7322,541.7446,179.762,542.1164,179.6598,542.4996,179.5847,542.7011,179.0712,543.2071,179.2929,543.5,179" style="stroke:#181818;stroke-width:0.5;"/><polygon fill="#C2C2C2" points="732.3108,203.0272,730.6984,205.2304,728.7912,208.4573,726.0636,210.632,723.1974,211.8212,720.912,211.9244,717.9747,210.4371,715.2032,209.4655,713.0995,207.4927,711.9961,205.2343,711.3417,203.4361,710.7006,201.0873,709.66,199.066,710.4596,197.0926,711.1602,194.9308,713.7893,193.221,715.639,191.0027,717.9284,190.266,720.6501,189.6316,724.1404,190.0085,726.0521,190.9101,728.2747,191.3188,730.9772,194.0875,731.9193,197.0105,732.3286,199.0049,731.865,202.2914" style="stroke:#181818;stroke-width:1.0;"/><path d="M724.0156,196.2266 Q724.1719,196.0078 724.3594,195.8984 Q724.5469,195.7891 724.7656,195.7891 Q725.1406,195.7891 725.375,196.0547 Q725.6094,196.3047 725.6094,196.9141 L725.6094,198.3672 Q725.6094,198.9766 725.375,199.2422 Q725.1406,199.5078 724.7656,199.5078 Q724.4219,199.5078 724.2188,199.3047 Q724.0156,199.1172 723.9063,198.6016 Q723.8594,198.2422 723.6719,198.0547 Q723.3438,197.6797 722.7344,197.4609 Q722.125,197.2422 721.5,197.2422 Q720.7344,197.2422 720.0938,197.5703 Q719.4688,197.8984 718.9688,198.6484 Q718.4844,199.3984 718.4844,200.4297 L718.4844,201.5234 Q718.4844,202.7578 719.375,203.5859 Q720.2656,204.3984 721.8594,204.3984 Q722.7969,204.3984 723.4531,204.1484 Q723.8438,203.9922 724.2656,203.5547 Q724.5313,203.2891 724.6719,203.2109 Q724.8281,203.1328 725.0313,203.1328 Q725.3594,203.1328 725.6094,203.3984 Q725.875,203.6484 725.875,203.9922 Q725.875,204.3359 725.5313,204.7422 Q725.0313,205.3203 724.2344,205.6484 Q723.1563,206.1016 721.8594,206.1016 Q720.3438,206.1016 719.1406,205.4766 Q718.1563,204.9766 717.4688,203.9141 Q716.7813,202.8359 716.7813,201.5547 L716.7813,200.3984 Q716.7813,199.0703 717.3906,197.9297 Q718.0156,196.7734 719.1094,196.1641 Q720.2031,195.5391 721.4375,195.5391 Q722.1719,195.5391 722.8125,195.7109 Q723.4688,195.8672 724.0156,196.2266 Z " fill="#000000"/><text fill="#000000" font-family="FG Virgil" font-size="12" font-style="italic" lengthAdjust="spacing" textLength="74" x="762.75" y="196.457">«application»</text><text fill="#000000" font-family="FG Virgil" font-size="14" lengthAdjust="spacing" textLength="116" x="741.75" y="213.627">AddUserController</text><path d="M542,221.7031 L542,221.9834 L552.0625,221.1507 L562.125,221.9608 L572.1875,222.236 L582.25,220.7519 L592.3125,221.5995 L602.375,221.1345 L612.4375,221.1918 L622.5,221.6122 L632.5625,220.7813 L642.625,222.4413 L652.6875,220.8628 L662.75,221.4394 L672.8125,222.2791 L682.875,221.5888 L692.9375,221.7941 L703,221.6605 L713.0625,221.9412 L723.125,222.022 L733.1875,222.484 L743.25,222.5979 L753.3125,222.6088 L763.375,222.0426 L773.4375,222.3212 L783.5,222.6394 L793.5625,220.7415 L803.625,222.6078 L813.6875,221.3078 L823.75,222.4149 L833.8125,221.0431 L843.875,221.6118 L853.9375,222.6919 L864,221.6381 L874.0625,221.8435 L884.125,222.1546 L894.1875,222.2581 L904.25,221.6979 L914.3125,222.0861 L924.375,220.9399 L934.4375,222.0823 L944.5,222.4341 L954.5625,222.2958 L964.625,222.5205 L974.6875,221.059 L984.75,220.8335 L994.8125,220.8746 L1004.875,221.6246 L1014.9375,221.4411 L1025,221.7031 " fill="#F1F1F1" style="stroke:#181818;stroke-width:0.5;"/><path d="M542,229.7031 L542,229.9834 L552.0625,229.1507 L562.125,229.9608 L572.1875,230.236 L582.25,228.7519 L592.3125,229.5995 L602.375,229.1345 L612.4375,229.1918 L622.5,229.6122 L632.5625,228.7813 L642.625,230.4413 L652.6875,228.8628 L662.75,229.4394 L672.8125,230.2791 L682.875,229.5888 L692.9375,229.7941 L703,229.6605 L713.0625,229.9412 L723.125,230.022 L733.1875,230.484 L743.25,230.5979 L753.3125,230.6088 L763.375,230.0426 L773.4375,230.3212 L783.5,230.6394 L793.5625,228.7415 L803.625,230.6078 L813.6875,229.3078 L823.75,230.4149 L833.8125,229.0431 L843.875,229.6118 L853.9375,230.6919 L864,229.6381 L874.0625,229.8435 L884.125,230.1546 L894.1875,230.2581 L904.25,229.6979 L914.3125,230.0861 L924.375,228.9399 L934.4375,230.0823 L944.5,230.4341 L954.5625,230.2958 L964.625,230.5205 L974.6875,229.059 L984.75,228.8335 L994.8125,228.8746 L1004.875,229.6246 L1014.9375,229.4411 L1025,229.7031 " fill="#F1F1F1" style="stroke:#181818;stroke-width:0.5;"/><text fill="#000000" font-family="FG Virgil" font-size="14" lengthAdjust="spacing" textLength="407" x="547" y="248.2363">addUser(String, String, String, String, Role, String, String, String)</text><text fill="#000000" font-family="FG Virgil" font-size="14" lengthAdjust="spacing" textLength="473" x="547" y="265.8457">addUser(String, String, String, String, Role, String, String, String, Calendar)</text></g><!--MD5=[54a33dd013dd881697601ca49de6dfbc]
class AuthorizationService--><g id="elem_AuthorizationService"><polygon fill="#F1F1F1" points="382,498,382,498.2102,392.0357,497.5857,402.0714,498.1933,412.1071,498.3997,422.1429,497.2866,432.1786,497.9223,442.2143,497.5735,452.25,497.6165,462.2857,497.9318,472.3214,497.3086,482.3571,498.5536,492.3929,497.3697,502.4286,497.8022,512.4643,498.4319,522.5,497.9142,532.5357,498.0682,542.5714,497.9681,552.6071,498.1785,562.6429,498.2391,572.6786,498.5857,582.7143,498.6711,592.75,498.6793,602.7857,498.2546,612.8214,498.4636,622.8571,498.7022,632.8929,497.2788,642.9286,498.6785,652.9643,497.7035,663,498,663.0681,498.1644,663.2904,497.994,663.6984,498.2718,664.1553,498.6677,664.408,498.5708,664.7678,498.7322,664.8002,498.7457,665.0185,499.129,665.1888,499.4924,665.2059,499.7924,665.442,500.1831,665.5,500.5,664.9276,500.5,665.7844,510.6875,666.0482,520.875,665.9445,531.0625,666.113,541.25,665.0169,551.4375,664.8478,561.625,665.5,571.8125,665.3086,571.7332,665.3354,572.1585,665.1466,572.4945,665.2705,572.9601,664.8604,573.2044,664.7678,573.5803,664.724,573.4746,664.4433,573.797,663.9756,573.6678,663.6409,573.8597,663.4363,574.3659,663,574.3125,663,574.7482,652.9643,575.047,642.9286,573.9907,632.8929,574.6317,622.8571,574.9029,612.8214,573.8401,602.7857,574.2166,592.75,574.4385,582.7143,574.9643,572.6786,574.3083,562.6429,574.7751,552.6071,573.7587,542.5714,573.6352,532.5357,574.8161,522.5,573.5956,512.4643,574.8215,502.4286,574.5191,492.3929,574.0446,482.3571,573.9587,472.3214,574.7713,462.2857,574.0132,452.25,574.9044,442.2143,573.7598,432.1786,574.9299,422.1429,574.7968,412.1071,574.5575,402.0714,574.3597,392.0357,575.0391,382,574.3125,382.0783,574.5015,381.668,574.2182,381.3271,574.1022,380.9227,573.833,380.6772,573.9474,380.2322,573.5803,380.2799,573.6,380.1389,573.2487,379.752,572.7956,379.6681,572.4679,379.8099,572.2338,379.5,571.8125,379.9298,571.8125,379.4571,561.625,379.1778,551.4375,379.2811,541.25,378.8138,531.0625,379.9147,520.875,380.2396,510.6875,379.5,500.5,379.6621,500.5671,379.8605,500.2351,379.7508,499.7755,379.9662,499.4505,379.9664,499.0363,380.2322,498.7322,380.2685,498.8197,380.6173,498.6618,381.0098,498.6095,381.2636,498.2222,381.6293,498.1051,382,498" style="stroke:#181818;stroke-width:0.5;"/><polygon fill="#C2C2C2" points="464.8108,522.0272,463.1984,524.2304,461.2912,527.4573,458.5636,529.632,455.6974,530.8212,453.412,530.9244,450.4747,529.4371,447.7032,528.4655,445.5995,526.4927,444.4961,524.2343,443.8417,522.4361,443.2006,520.0873,442.16,518.066,442.9596,516.0926,443.6602,513.9308,446.2893,512.221,448.139,510.0027,450.4284,509.266,453.1501,508.6316,456.6404,509.0085,458.5521,509.9101,460.7747,510.3188,463.4772,513.0875,464.4193,516.0105,464.8286,518.0049,464.365,521.2914" style="stroke:#181818;stroke-width:1.0;"/><path d="M456.5156,515.2266 Q456.6719,515.0078 456.8594,514.8984 Q457.0469,514.7891 457.2656,514.7891 Q457.6406,514.7891 457.875,515.0547 Q458.1094,515.3047 458.1094,515.9141 L458.1094,517.3672 Q458.1094,517.9766 457.875,518.2422 Q457.6406,518.5078 457.2656,518.5078 Q456.9219,518.5078 456.7188,518.3047 Q456.5156,518.1172 456.4063,517.6016 Q456.3594,517.2422 456.1719,517.0547 Q455.8438,516.6797 455.2344,516.4609 Q454.625,516.2422 454,516.2422 Q453.2344,516.2422 452.5938,516.5703 Q451.9688,516.8984 451.4688,517.6484 Q450.9844,518.3984 450.9844,519.4297 L450.9844,520.5234 Q450.9844,521.7578 451.875,522.5859 Q452.7656,523.3984 454.3594,523.3984 Q455.2969,523.3984 455.9531,523.1484 Q456.3438,522.9922 456.7656,522.5547 Q457.0313,522.2891 457.1719,522.2109 Q457.3281,522.1328 457.5313,522.1328 Q457.8594,522.1328 458.1094,522.3984 Q458.375,522.6484 458.375,522.9922 Q458.375,523.3359 458.0313,523.7422 Q457.5313,524.3203 456.7344,524.6484 Q455.6563,525.1016 454.3594,525.1016 Q452.8438,525.1016 451.6406,524.4766 Q450.6563,523.9766 449.9688,522.9141 Q449.2813,521.8359 449.2813,520.5547 L449.2813,519.3984 Q449.2813,518.0703 449.8906,516.9297 Q450.5156,515.7734 451.6094,515.1641 Q452.7031,514.5391 453.9375,514.5391 Q454.6719,514.5391 455.3125,514.7109 Q455.9688,514.8672 456.5156,515.2266 Z " fill="#000000"/><text fill="#000000" font-family="FG Virgil" font-size="12" font-style="italic" lengthAdjust="spacing" textLength="53" x="512.25" y="515.457">«service»</text><text fill="#000000" font-family="FG Virgil" font-size="14" lengthAdjust="spacing" textLength="129" x="474.25" y="532.627">AuthorizationService</text><path d="M380.5,540.7031 L380.5,540.9834 L390.6429,540.1507 L400.7857,540.9608 L410.9286,541.236 L421.0714,539.7519 L431.2143,540.5995 L441.3571,540.1345 L451.5,540.1918 L461.6429,540.6122 L471.7857,539.7813 L481.9286,541.4413 L492.0714,539.8628 L502.2143,540.4394 L512.3571,541.2791 L522.5,540.5888 L532.6429,540.7941 L542.7857,540.6605 L552.9286,540.9412 L563.0714,541.022 L573.2143,541.484 L583.3571,541.5979 L593.5,541.6088 L603.6429,541.0426 L613.7857,541.3212 L623.9286,541.6394 L634.0714,539.7415 L644.2143,541.6078 L654.3571,540.3078 L664.5,540.7031 " fill="#F1F1F1" style="stroke:#181818;stroke-width:0.5;"/><path d="M380.5,548.7031 L380.5,548.9834 L390.6429,548.1507 L400.7857,548.9608 L410.9286,549.236 L421.0714,547.7519 L431.2143,548.5995 L441.3571,548.1345 L451.5,548.1918 L461.6429,548.6122 L471.7857,547.7813 L481.9286,549.4413 L492.0714,547.8628 L502.2143,548.4394 L512.3571,549.2791 L522.5,548.5888 L532.6429,548.7941 L542.7857,548.6605 L552.9286,548.9412 L563.0714,549.022 L573.2143,549.484 L583.3571,549.5979 L593.5,549.6088 L603.6429,549.0426 L613.7857,549.3212 L623.9286,549.6394 L634.0714,547.7415 L644.2143,549.6078 L654.3571,548.3078 L664.5,548.7031 " fill="#F1F1F1" style="stroke:#181818;stroke-width:0.5;"/><text fill="#000000" font-family="FG Virgil" font-size="14" lengthAdjust="spacing" textLength="274" x="385.5" y="567.2363">ensureAuthenticatedUserHasAnyOf(Role...)</text></g><!--MD5=[dee3711f8c64a3e2b37828f172d71c22]
class UserManagementService--><g id="elem_UserManagementService"><polygon fill="#F1F1F1" points="703.5,489,703.5,489.2102,713.5,488.5857,723.5,489.1933,733.5,489.3997,743.5,488.2866,753.5,488.9223,763.5,488.5735,773.5,488.6165,783.5,488.9318,793.5,488.3086,803.5,489.5536,813.5,488.3697,823.5,488.8022,833.5,489.4319,843.5,488.9142,853.5,489.0682,863.5,488.9681,873.5,489.1785,883.5,489.2391,893.5,489.5857,903.5,489.6711,913.5,489.6793,923.5,489.2546,933.5,489.4636,943.5,489.7022,953.5,488.2788,963.5,489.6785,973.5,488.7035,983.5,489.5338,993.5,488.505,1003.5,488.9315,1013.5,489.7416,1023.5,488.9513,1033.5,489.1053,1043.5,489.3386,1053.5,489.4162,1063.5,488.9961,1073.5,489.2872,1083.5,488.4276,1093.5,489.2844,1103.5,489.5482,1113.5,489.4445,1123.5,489.613,1133.5,488.5169,1143.5,488.3478,1153.5,488.3786,1163.5,488.9411,1173.5,488.8035,1183.5,489.6814,1193.5,488.8253,1203.5,488.6569,1213.5,489.2283,1223.5,488.3332,1233.5,489,1233.4338,488.8401,1233.9363,489.3463,1234.2627,489.4271,1234.6544,489.6655,1234.8732,489.4867,1235.2678,489.7322,1235.3661,489.773,1235.596,490.1611,1235.4152,490.3791,1235.6776,490.7807,1235.8924,491.1625,1236,491.5,1236.6518,491.5,1235.9958,501.3802,1236.4626,511.2604,1235.4462,521.1406,1235.3227,531.0208,1236.5036,540.901,1235.2831,550.7813,1236.509,560.6615,1236.2066,570.5417,1236,580.4219,1235.9175,580.3877,1235.7446,580.7303,1235.8484,581.1875,1235.4685,581.4444,1235.5965,581.9116,1235.2678,582.1896,1235.1973,582.0194,1234.993,582.5262,1234.6224,582.6317,1234.2384,582.7044,1233.8596,582.79,1233.5,582.9219,1233.5,583.6485,1223.5,583.5355,1213.5,583.0911,1203.5,583.1901,1193.5,582.7916,1183.5,583.6383,1173.5,583.0767,1163.5,583.0944,1153.5,582.3135,1143.5,582.5167,1133.5,583.4526,1123.5,583.3516,1113.5,582.8789,1103.5,582.5997,1093.5,582.7029,1083.5,582.2357,1073.5,583.3366,1063.5,583.6614,1053.5,583.4483,1043.5,583.6168,1033.5,582.7851,1023.5,583.0091,1013.5,582.5343,1003.5,583.2059,993.5,583.1686,983.5,583.4743,973.5,582.6922,963.5,582.7875,953.5,583.3653,943.5,583.4892,933.5,582.4093,923.5,582.728,913.5,583.0711,903.5,582.311,893.5,583.2753,883.5,583.1799,873.5,582.8211,863.5,583.0641,853.5,583.6506,843.5,582.609,833.5,583.2369,823.5,583.2075,813.5,583.0376,803.5,583.0628,793.5,583.0354,783.5,582.2977,773.5,582.5211,763.5,582.4603,753.5,582.9857,743.5,583.01,733.5,583.0836,723.5,582.6309,713.5,582.8544,703.5,582.9219,703.4847,582.8849,703.22,582.9531,702.8473,582.7603,702.3774,582.333,702.0765,582.3136,701.7322,582.1896,701.5545,582.116,701.6746,581.8729,701.6267,581.5602,701.4606,581.1984,701.0123,580.7199,701,580.4219,701.464,580.4219,700.2572,570.5417,701.2002,560.6615,700.7007,550.7813,701.0967,540.901,701.2403,531.0208,701.4721,521.1406,700.2801,511.2604,701.4755,501.3802,701,491.5,701.0549,491.5227,701.2559,491.1918,701.5232,490.8883,701.441,490.44,701.6398,490.1081,701.7322,489.7322,701.7595,489.798,702.1109,489.6465,702.4392,489.4391,702.8836,489.5118,703.0687,488.9587,703.5,489" style="stroke:#181818;stroke-width:0.5;"/><polygon fill="#C2C2C2" points="896.3108,513.0272,894.6984,515.2304,892.7912,518.4573,890.0636,520.632,887.1974,521.8212,884.912,521.9244,881.9747,520.4371,879.2032,519.4655,877.0995,517.4927,875.9961,515.2343,875.3417,513.4361,874.7006,511.0873,873.66,509.066,874.4596,507.0926,875.1602,504.9308,877.7893,503.221,879.639,501.0027,881.9284,500.266,884.6501,499.6316,888.1404,500.0085,890.0521,500.9101,892.2747,501.3188,894.9772,504.0875,895.9193,507.0105,896.3286,509.0049,895.865,512.2914" style="stroke:#181818;stroke-width:1.0;"/><path d="M888.0156,506.2266 Q888.1719,506.0078 888.3594,505.8984 Q888.5469,505.7891 888.7656,505.7891 Q889.1406,505.7891 889.375,506.0547 Q889.6094,506.3047 889.6094,506.9141 L889.6094,508.3672 Q889.6094,508.9766 889.375,509.2422 Q889.1406,509.5078 888.7656,509.5078 Q888.4219,509.5078 888.2188,509.3047 Q888.0156,509.1172 887.9063,508.6016 Q887.8594,508.2422 887.6719,508.0547 Q887.3438,507.6797 886.7344,507.4609 Q886.125,507.2422 885.5,507.2422 Q884.7344,507.2422 884.0938,507.5703 Q883.4688,507.8984 882.9688,508.6484 Q882.4844,509.3984 882.4844,510.4297 L882.4844,511.5234 Q882.4844,512.7578 883.375,513.5859 Q884.2656,514.3984 885.8594,514.3984 Q886.7969,514.3984 887.4531,514.1484 Q887.8438,513.9922 888.2656,513.5547 Q888.5313,513.2891 888.6719,513.2109 Q888.8281,513.1328 889.0313,513.1328 Q889.3594,513.1328 889.6094,513.3984 Q889.875,513.6484 889.875,513.9922 Q889.875,514.3359 889.5313,514.7422 Q889.0313,515.3203 888.2344,515.6484 Q887.1563,516.1016 885.8594,516.1016 Q884.3438,516.1016 883.1406,515.4766 Q882.1563,514.9766 881.4688,513.9141 Q880.7813,512.8359 880.7813,511.5547 L880.7813,510.3984 Q880.7813,509.0703 881.3906,507.9297 Q882.0156,506.7734 883.1094,506.1641 Q884.2031,505.5391 885.4375,505.5391 Q886.1719,505.5391 886.8125,505.7109 Q887.4688,505.8672 888.0156,506.2266 Z " fill="#000000"/><text fill="#000000" font-family="FG Virgil" font-size="12" font-style="italic" lengthAdjust="spacing" textLength="53" x="958.25" y="506.457">«service»</text><text fill="#000000" font-family="FG Virgil" font-size="14" lengthAdjust="spacing" textLength="158" x="905.75" y="523.627">UserManagementService</text><path d="M702,531.7031 L702,531.9834 L712.0566,531.1507 L722.1132,531.9608 L732.1698,532.236 L742.2264,530.7519 L752.283,531.5995 L762.3396,531.1345 L772.3962,531.1918 L782.4528,531.6122 L792.5094,530.7813 L802.566,532.4413 L812.6226,530.8628 L822.6792,531.4394 L832.7358,532.2791 L842.7925,531.5888 L852.8491,531.7941 L862.9057,531.6605 L872.9623,531.9412 L883.0189,532.022 L893.0755,532.484 L903.1321,532.5979 L913.1887,532.6088 L923.2453,532.0426 L933.3019,532.3212 L943.3585,532.6394 L953.4151,530.7415 L963.4717,532.6078 L973.5283,531.3078 L983.5849,532.4149 L993.6415,531.0431 L1003.6981,531.6118 L1013.7547,532.6919 L1023.8113,531.6381 L1033.8679,531.8435 L1043.9245,532.1546 L1053.9811,532.2581 L1064.0377,531.6979 L1074.0943,532.0861 L1084.1509,530.9399 L1094.2075,532.0823 L1104.2642,532.4341 L1114.3208,532.2958 L1124.3774,532.5205 L1134.434,531.059 L1144.4906,530.8335 L1154.5472,530.8746 L1164.6038,531.6246 L1174.6604,531.4411 L1184.717,532.6117 L1194.7736,531.4702 L1204.8302,531.2457 L1214.8868,532.0075 L1224.9434,530.814 L1235,531.7031 " fill="#F1F1F1" style="stroke:#181818;stroke-width:0.5;"/><path d="M702,539.7031 L702,539.9834 L712.0566,539.1507 L722.1132,539.9608 L732.1698,540.236 L742.2264,538.7519 L752.283,539.5995 L762.3396,539.1345 L772.3962,539.1918 L782.4528,539.6122 L792.5094,538.7813 L802.566,540.4413 L812.6226,538.8628 L822.6792,539.4394 L832.7358,540.2791 L842.7925,539.5888 L852.8491,539.7941 L862.9057,539.6605 L872.9623,539.9412 L883.0189,540.022 L893.0755,540.484 L903.1321,540.5979 L913.1887,540.6088 L923.2453,540.0426 L933.3019,540.3212 L943.3585,540.6394 L953.4151,538.7415 L963.4717,540.6078 L973.5283,539.3078 L983.5849,540.4149 L993.6415,539.0431 L1003.6981,539.6118 L1013.7547,540.6919 L1023.8113,539.6381 L1033.8679,539.8435 L1043.9245,540.1546 L1053.9811,540.2581 L1064.0377,539.6979 L1074.0943,540.0861 L1084.1509,538.9399 L1094.2075,540.0823 L1104.2642,540.4341 L1114.3208,540.2958 L1124.3774,540.5205 L1134.434,539.059 L1144.4906,538.8335 L1154.5472,538.8746 L1164.6038,539.6246 L1174.6604,539.4411 L1184.717,540.6117 L1194.7736,539.4702 L1204.8302,539.2457 L1214.8868,540.0075 L1224.9434,538.814 L1235,539.7031 " fill="#F1F1F1" style="stroke:#181818;stroke-width:0.5;"/><text fill="#000000" font-family="FG Virgil" font-size="14" lengthAdjust="spacing" textLength="523" x="707" y="558.2363">registerNewUser(String, String, String, String, Role, String, String, String, Calendar)</text><text fill="#000000" font-family="FG Virgil" font-size="14" lengthAdjust="spacing" textLength="142" x="707" y="575.8457">generateMecNumber()</text></g><!--MD5=[0b1f3d1c1978f9b151365e147219e3b1]
class AuthzRegistry--><g id="elem_AuthzRegistry"><polygon fill="#F1F1F1" points="711,334,711,334.2102,720.6667,333.5857,730.3333,334.1933,740,334.3997,749.6667,333.2866,759.3333,333.9223,769,333.5735,778.6667,333.6165,788.3333,333.9318,798,333.3086,807.6667,334.5536,817.3333,333.3697,827,333.8022,836.6667,334.4319,846.3333,333.9142,856,334,856.0087,334.021,856.3495,334.1366,856.7299,334.3479,857.0912,334.513,857.4889,334.7662,857.7678,334.7322,857.9744,334.8178,858.1234,335.1724,858.1391,335.4718,858.3499,335.852,858.5698,336.236,858.5,336.5,857.7788,336.5,859.1785,346.3802,858.2035,356.2604,859.0338,366.1406,858.005,376.0208,858.4315,385.901,859.2416,395.7813,858.4513,405.6615,858.6053,415.5417,858.5,425.4219,858.6043,425.4651,858.4817,425.8285,858.2059,426.1285,858.1491,426.5192,857.7379,426.7631,857.7678,427.1896,857.804,427.2772,857.4841,427.5049,857.1174,427.6194,856.7853,427.8178,856.2919,427.6267,856,427.9219,856,427.2697,846.3333,427.3005,836.6667,427.863,827,427.7253,817.3333,428.6033,807.6667,427.7472,798,427.5788,788.3333,428.1501,778.6667,427.255,769,427.4027,759.3333,428.5708,749.6667,428.3575,740,428.6564,730.3333,427.6001,720.6667,428.2411,711,427.9219,711.0753,428.1037,710.5862,427.6299,710.2807,427.5995,709.9554,427.5213,709.6689,427.5368,709.2322,427.1896,709.2309,427.1891,709.2282,426.8951,708.7688,426.4119,708.5843,426.0426,708.8015,425.8397,708.5,425.4219,707.7831,425.4219,709.009,415.5417,708.7066,405.6615,708.2321,395.7813,708.1462,385.901,708.9588,376.0208,708.2007,366.1406,709.0919,356.2604,707.9473,346.3802,708.5,336.5,708.6901,336.5788,708.7956,336.2082,708.8683,335.8241,708.9539,335.4454,709.3096,335.1785,709.2322,334.7322,709.3105,334.9212,709.6074,334.6379,709.9736,334.5219,710.2763,334.2528,710.7378,334.3671,711,334" style="stroke:#181818;stroke-width:0.5;"/><polygon fill="#C2C2C2" points="748.5108,358.0272,746.8984,360.2304,744.9912,363.4573,742.2636,365.632,739.3974,366.8212,737.112,366.9244,734.1747,365.4371,731.4032,364.4655,729.2995,362.4927,728.1961,360.2343,727.5417,358.4361,726.9006,356.0873,725.86,354.066,726.6596,352.0926,727.3602,349.9308,729.9893,348.221,731.839,346.0027,734.1284,345.266,736.8501,344.6316,740.3404,345.0085,742.2521,345.9101,744.4747,346.3188,747.1772,349.0875,748.1193,352.0105,748.5286,354.0049,748.065,357.2914" style="stroke:#181818;stroke-width:1.0;"/><path d="M740.2156,351.2266 Q740.3719,351.0078 740.5594,350.8984 Q740.7469,350.7891 740.9656,350.7891 Q741.3406,350.7891 741.575,351.0547 Q741.8094,351.3047 741.8094,351.9141 L741.8094,353.3672 Q741.8094,353.9766 741.575,354.2422 Q741.3406,354.5078 740.9656,354.5078 Q740.6219,354.5078 740.4188,354.3047 Q740.2156,354.1172 740.1063,353.6016 Q740.0594,353.2422 739.8719,353.0547 Q739.5438,352.6797 738.9344,352.4609 Q738.325,352.2422 737.7,352.2422 Q736.9344,352.2422 736.2938,352.5703 Q735.6688,352.8984 735.1688,353.6484 Q734.6844,354.3984 734.6844,355.4297 L734.6844,356.5234 Q734.6844,357.7578 735.575,358.5859 Q736.4656,359.3984 738.0594,359.3984 Q738.9969,359.3984 739.6531,359.1484 Q740.0438,358.9922 740.4656,358.5547 Q740.7313,358.2891 740.8719,358.2109 Q741.0281,358.1328 741.2313,358.1328 Q741.5594,358.1328 741.8094,358.3984 Q742.075,358.6484 742.075,358.9922 Q742.075,359.3359 741.7313,359.7422 Q741.2313,360.3203 740.4344,360.6484 Q739.3563,361.1016 738.0594,361.1016 Q736.5438,361.1016 735.3406,360.4766 Q734.3563,359.9766 733.6688,358.9141 Q732.9813,357.8359 732.9813,356.5547 L732.9813,355.3984 Q732.9813,354.0703 733.5906,352.9297 Q734.2156,351.7734 735.3094,351.1641 Q736.4031,350.5391 737.6375,350.5391 Q738.3719,350.5391 739.0125,350.7109 Q739.6688,350.8672 740.2156,351.2266 Z " fill="#000000"/><text fill="#000000" font-family="FG Virgil" font-size="12" font-style="italic" lengthAdjust="spacing" textLength="30" x="783.05" y="351.457">«util»</text><text fill="#000000" font-family="FG Virgil" font-size="14" lengthAdjust="spacing" textLength="87" x="754.55" y="368.627">AuthzRegistry</text><path d="M709.5,376.7031 L709.5,376.9834 L719.3667,376.1507 L729.2333,376.9608 L739.1,377.236 L748.9667,375.7519 L758.8333,376.5995 L768.7,376.1345 L778.5667,376.1918 L788.4333,376.6122 L798.3,375.7813 L808.1667,377.4413 L818.0333,375.8628 L827.9,376.4394 L837.7667,377.2791 L847.6333,376.5888 L857.5,376.7031 " fill="#F1F1F1" style="stroke:#181818;stroke-width:0.5;"/><path d="M709.5,384.7031 L709.5,384.9834 L719.3667,384.1507 L729.2333,384.9608 L739.1,385.236 L748.9667,383.7519 L758.8333,384.5995 L768.7,384.1345 L778.5667,384.1918 L788.4333,384.6122 L798.3,383.7813 L808.1667,385.4413 L818.0333,383.8628 L827.9,384.4394 L837.7667,385.2791 L847.6333,384.5888 L857.5,384.7031 " fill="#F1F1F1" style="stroke:#181818;stroke-width:0.5;"/><text fill="#000000" font-family="FG Virgil" font-size="14" lengthAdjust="spacing" textLength="138" x="714.5" y="403.2363">authorizationService()</text><text fill="#000000" font-family="FG Virgil" font-size="14" lengthAdjust="spacing" textLength="85" x="714.5" y="420.8457">userService()</text></g><!--MD5=[c04a228c2edc8cb4edb0b8536253a65d]
class UserBuilder--><g id="elem_UserBuilder"><polygon fill="#F1F1F1" points="389.5,661,389.5,661.2102,399.5,660.5857,409.5,661.1933,419.5,661.3997,429.5,660.2866,439.5,660.9223,449.5,660.5735,459.5,660.6165,469.5,660.9318,479.5,660.3086,489.5,661.5536,499.5,660.3697,509.5,660.8022,519.5,661.4319,529.5,660.9142,539.5,661.0682,549.5,660.9681,559.5,661.1785,569.5,661.2391,579.5,661.5857,589.5,661.6711,599.5,661.6793,609.5,661.2546,619.5,661.4636,629.5,661.7022,639.5,660.2788,649.5,661.6785,659.5,660.7035,669.5,661.5338,679.5,660.505,689.5,660.9315,699.5,661.7416,709.5,660.9513,719.5,661.1053,729.5,661,729.5432,661.1043,729.9066,661.2746,730.2066,661.2917,730.5973,661.5278,730.8412,661.4095,731.2678,661.7322,731.3553,661.7685,731.583,662.1557,731.6976,662.496,731.8959,662.8711,731.7048,663.0848,732,663.5,731.3478,663.5,731.3786,673.625,731.9411,683.75,731.8035,693.875,732.6814,704,731.8253,714.125,731.6569,724.25,732.2283,734.375,731.3332,744.5,731.4809,754.625,732.649,764.75,732.4357,774.875,732.7345,785,731.6782,795.125,732,805.25,732.0983,805.2907,732.0354,805.6789,731.5616,805.8968,731.5311,806.2984,731.453,806.6803,731.2678,807.0178,731.3509,807.2185,730.9137,807.1629,730.6197,807.4531,730.1365,807.2866,729.7672,807.395,729.5,807.75,729.5,808.2536,719.5,807.0331,709.5,808.259,699.5,807.9566,689.5,807.4821,679.5,807.3962,669.5,808.2088,659.5,807.4507,649.5,808.3419,639.5,807.1973,629.5,808.3674,619.5,808.2343,609.5,807.995,599.5,807.7972,589.5,808.4766,579.5,808.3636,569.5,807.9193,559.5,808.0182,549.5,807.6197,539.5,808.4665,529.5,807.9049,519.5,807.9226,509.5,807.1416,499.5,807.3448,489.5,808.2807,479.5,808.1798,469.5,807.7071,459.5,807.4278,449.5,807.5311,439.5,807.0638,429.5,808.1647,419.5,808.4896,409.5,808.2764,399.5,808.4449,389.5,807.75,389.4826,807.7079,389.1576,807.6304,388.7435,807.3377,388.4756,807.3981,388.1173,807.2402,387.7322,807.0178,387.9023,807.0882,387.5151,806.6349,387.3979,806.2935,387.4295,806.0137,387.3212,805.6759,387,805.25,386.4875,805.25,386.8061,795.125,387.1493,785,386.3892,774.875,387.3534,764.75,387.258,754.625,386.8992,744.5,387.1422,734.375,387.7287,724.25,386.6871,714.125,387.315,704,387.2856,693.875,387.1158,683.75,387.1409,673.625,387,663.5,387.0349,663.5145,386.9542,663.0668,387.1695,662.7418,387.2972,662.3805,387.6054,662.0939,387.7322,661.7322,387.7435,661.7594,388.1064,661.6356,388.4022,661.3497,388.7843,661.2721,389.1311,661.1094,389.5,661" style="stroke:#181818;stroke-width:0.5;"/><polygon fill="#C2C2C2" points="529.8108,685.0272,528.1984,687.2304,526.2912,690.4573,523.5636,692.632,520.6974,693.8212,518.412,693.9244,515.4747,692.4371,512.7032,691.4655,510.5995,689.4927,509.4961,687.2343,508.8417,685.4361,508.2006,683.0873,507.16,681.066,507.9596,679.0926,508.6602,676.9308,511.2893,675.221,513.139,673.0027,515.4284,672.266,518.1501,671.6316,521.6404,672.0085,523.5521,672.9101,525.7747,673.3188,528.4772,676.0875,529.4193,679.0105,529.8286,681.0049,529.365,684.2914" style="stroke:#181818;stroke-width:1.0;"/><path d="M521.5156,678.2266 Q521.6719,678.0078 521.8594,677.8984 Q522.0469,677.7891 522.2656,677.7891 Q522.6406,677.7891 522.875,678.0547 Q523.1094,678.3047 523.1094,678.9141 L523.1094,680.3672 Q523.1094,680.9766 522.875,681.2422 Q522.6406,681.5078 522.2656,681.5078 Q521.9219,681.5078 521.7188,681.3047 Q521.5156,681.1172 521.4063,680.6016 Q521.3594,680.2422 521.1719,680.0547 Q520.8438,679.6797 520.2344,679.4609 Q519.625,679.2422 519,679.2422 Q518.2344,679.2422 517.5938,679.5703 Q516.9688,679.8984 516.4688,680.6484 Q515.9844,681.3984 515.9844,682.4297 L515.9844,683.5234 Q515.9844,684.7578 516.875,685.5859 Q517.7656,686.3984 519.3594,686.3984 Q520.2969,686.3984 520.9531,686.1484 Q521.3438,685.9922 521.7656,685.5547 Q522.0313,685.2891 522.1719,685.2109 Q522.3281,685.1328 522.5313,685.1328 Q522.8594,685.1328 523.1094,685.3984 Q523.375,685.6484 523.375,685.9922 Q523.375,686.3359 523.0313,686.7422 Q522.5313,687.3203 521.7344,687.6484 Q520.6563,688.1016 519.3594,688.1016 Q517.8438,688.1016 516.6406,687.4766 Q515.6563,686.9766 514.9688,685.9141 Q514.2813,684.8359 514.2813,683.5547 L514.2813,682.3984 Q514.2813,681.0703 514.8906,679.9297 Q515.5156,678.7734 516.6094,678.1641 Q517.7031,677.5391 518.9375,677.5391 Q519.6719,677.5391 520.3125,677.7109 Q520.9688,677.8672 521.5156,678.2266 Z " fill="#000000"/><text fill="#000000" font-family="FG Virgil" font-size="12" font-style="italic" lengthAdjust="spacing" textLength="53" x="549.25" y="678.457">«builder»</text><text fill="#000000" font-family="FG Virgil" font-size="14" lengthAdjust="spacing" textLength="73" x="539.25" y="695.627">UserBuilder</text><path d="M388,703.7031 L388,703.9834 L398.0882,703.1507 L408.1765,703.9608 L418.2647,704.236 L428.3529,702.7519 L438.4412,703.5995 L448.5294,703.1345 L458.6176,703.1918 L468.7059,703.6122 L478.7941,702.7813 L488.8824,704.4413 L498.9706,702.8628 L509.0588,703.4394 L519.1471,704.2791 L529.2353,703.5888 L539.3235,703.7941 L549.4118,703.6605 L559.5,703.9412 L569.5882,704.022 L579.6765,704.484 L589.7647,704.5979 L599.8529,704.6088 L609.9412,704.0426 L620.0294,704.3212 L630.1176,704.6394 L640.2059,702.7415 L650.2941,704.6078 L660.3824,703.3078 L670.4706,704.4149 L680.5588,703.0431 L690.6471,703.6118 L700.7353,704.6919 L710.8235,703.6381 L720.9118,703.8435 L731,703.7031 " fill="#F1F1F1" style="stroke:#181818;stroke-width:0.5;"/><path d="M388,711.7031 L388,711.9834 L398.0882,711.1507 L408.1765,711.9608 L418.2647,712.236 L428.3529,710.7519 L438.4412,711.5995 L448.5294,711.1345 L458.6176,711.1918 L468.7059,711.6122 L478.7941,710.7813 L488.8824,712.4413 L498.9706,710.8628 L509.0588,711.4394 L519.1471,712.2791 L529.2353,711.5888 L539.3235,711.7941 L549.4118,711.6605 L559.5,711.9412 L569.5882,712.022 L579.6765,712.484 L589.7647,712.5979 L599.8529,712.6088 L609.9412,712.0426 L620.0294,712.3212 L630.1176,712.6394 L640.2059,710.7415 L650.2941,712.6078 L660.3824,711.3078 L670.4706,712.4149 L680.5588,711.0431 L690.6471,711.6118 L700.7353,712.6919 L710.8235,711.6381 L720.9118,711.8435 L731,711.7031 " fill="#F1F1F1" style="stroke:#181818;stroke-width:0.5;"/><text fill="#000000" font-family="FG Virgil" font-size="14" lengthAdjust="spacing" textLength="333" x="393" y="730.2363">with(String, String, String, String, String, Role, String)</text><text fill="#000000" font-family="FG Virgil" font-size="14" lengthAdjust="spacing" textLength="135" x="393" y="747.8457">createdOn(Calendar)</text><text fill="#000000" font-family="FG Virgil" font-size="14" lengthAdjust="spacing" textLength="126" x="393" y="765.4551">withAcronym(String)</text><text fill="#000000" font-family="FG Virgil" font-size="14" lengthAdjust="spacing" textLength="217" x="393" y="783.0645">withMecanographicNumber(String)</text><text fill="#000000" font-family="FG Virgil" font-size="14" lengthAdjust="spacing" textLength="40" x="393" y="800.6738">build()</text></g><!--MD5=[49911543bde009bea1ce58d6156faf98]
class user:User--><g id="elem_user:User"><polygon fill="#F1F1F1" points="9.5,886,9.5,886.2102,19.5,885.5857,29.5,886.1933,39.5,886.3997,49.5,885.2866,59.5,885.9223,69.5,885.5735,79.5,885.6165,89.5,885.9318,99.5,885.3086,109.5,886.5536,119.5,885.3697,129.5,885.8022,139.5,886.4319,149.5,885.9142,159.5,886.0682,169.5,885.9681,179.5,886.1785,189.5,886.2391,199.5,886.5857,209.5,886.6711,219.5,886.6793,229.5,886.2546,239.5,886.4636,249.5,886.7022,259.5,885.2788,269.5,886.6785,279.5,885.7035,289.5,886.5338,299.5,885.505,309.5,885.9315,319.5,886.7416,329.5,885.9513,339.5,886.1053,349.5,886.3386,359.5,886.4162,369.5,885.9961,379.5,886.2872,389.5,885.4276,399.5,886.2844,409.5,886.5482,419.5,886.4445,429.5,886.613,439.5,885.5169,449.5,885.3478,459.5,885.3786,469.5,885.9411,479.5,885.8035,489.5,886.6814,499.5,885.8253,509.5,885.6569,519.5,886.2283,529.5,885.3332,539.5,885.4809,549.5,886.649,559.5,886.4357,569.5,886.7345,579.5,885.6782,589.5,886.3192,599.5,886.5904,609.5,885.5276,619.5,885.9041,629.5,886.126,639.5,886.6518,649.5,885.9958,659.5,886.4626,669.5,885.4462,679.5,885.3227,689.5,886.5036,699.5,885.2831,709.5,886.509,719.5,886.2066,729.5,885.7321,739.5,885.6462,749.5,886.4588,759.5,885.7007,769.5,886.5919,779.5,885.4473,789.5,886.6174,799.5,886.4843,809.5,886.245,819.5,886.0472,829.5,886.7266,839.5,886.6136,849.5,886.1693,859.5,886,859.5342,886.0826,859.8369,886.1063,860.2985,886.5135,860.5804,886.487,860.9362,886.6389,861.2678,886.7322,861.0804,886.6546,861.2894,887.0341,861.7241,887.507,861.8395,887.8477,861.8403,888.141,862,888.5,861.6778,888.5,861.7811,898.8451,861.3138,909.1901,862.4147,919.5352,862.7396,929.8802,862.5264,940.2253,862.6949,950.5703,861.8633,960.9154,862.0872,971.2604,861.6124,981.6055,862.284,991.9505,862.2468,1002.2956,862,1012.6406,862.1701,1012.7111,861.7828,1012.9649,861.6657,1013.3306,861.6972,1013.7579,861.5889,1014.1272,861.2678,1014.4084,861.2024,1014.2506,860.8895,1014.4951,860.5797,1014.7473,860.1292,1014.6596,859.8986,1015.103,859.5,1015.1406,859.5,1015.3986,849.5,1015.0399,839.5,1015.2829,829.5,1015.8693,819.5,1014.8278,809.5,1015.4556,799.5,1015.4263,789.5,1015.2564,779.5,1015.2815,769.5,1015.2541,759.5,1014.5165,749.5,1014.7398,739.5,1014.6791,729.5,1015.2044,719.5,1015.2288,709.5,1015.3024,699.5,1014.8496,689.5,1015.0731,679.5,1015.0204,669.5,1015.7175,659.5,1015.5672,649.5,1014.6551,639.5,1015.0677,629.5,1014.5634,619.5,1015.429,609.5,1015.7491,599.5,1015.6852,589.5,1014.7051,579.5,1015.6046,569.5,1014.3978,559.5,1015.3408,549.5,1014.8413,539.5,1015.2373,529.5,1015.381,519.5,1015.6127,509.5,1014.4207,499.5,1015.6161,489.5,1015.3188,479.5,1015.496,469.5,1015.8884,459.5,1015.1461,449.5,1015.3159,439.5,1015.3541,429.5,1015.3379,419.5,1015.1398,409.5,1015.8513,399.5,1014.5309,389.5,1015.7059,379.5,1014.5166,369.5,1014.6003,359.5,1015.1806,349.5,1015.1689,339.5,1014.6478,329.5,1015.5543,319.5,1015.2495,309.5,1015.8673,299.5,1015.8077,289.5,1014.6924,279.5,1014.7427,269.5,1015.0114,259.5,1015.4961,249.5,1015.5436,239.5,1015.4418,229.5,1014.7987,219.5,1015.777,209.5,1015.7744,199.5,1015.0933,189.5,1014.9016,179.5,1014.7392,169.5,1014.926,159.5,1015.278,149.5,1015.0722,139.5,1014.7228,129.5,1015.628,119.5,1014.6817,109.5,1015.643,99.5,1015.5679,89.5,1015.5125,79.5,1015.8331,69.5,1014.8947,59.5,1014.84,49.5,1015.6595,39.5,1014.5437,29.5,1014.9066,19.5,1015.2561,9.5,1015.1406,9.5088,1015.1618,9.1007,1014.8838,8.7874,1014.8345,8.5343,1014.9306,8.1685,1014.7545,7.7322,1014.4084,7.5486,1014.3323,7.61,1014.0649,7.2811,1013.6357,7.2848,1013.3444,7.2367,1013.0316,7,1012.6406,7.4199,1012.6406,6.3353,1002.2956,7.4005,991.9505,7.0084,981.6055,6.4447,971.2604,6.5289,960.9154,7.3266,950.5703,7.2499,940.2253,6.9836,929.8802,6.3279,919.5352,7.6581,909.1901,6.6882,898.8451,7,888.5,6.8374,888.4326,7.1257,888.1379,7.4745,887.8681,7.6289,887.5178,7.5966,887.0903,7.7322,886.7322,7.7129,886.6857,8.1074,886.6381,8.4631,886.4967,8.7281,886.1365,9.1993,886.2739,9.5,886" style="stroke:#181818;stroke-width:0.5;"/><polygon fill="#C2C2C2" points="410.8108,910.0272,409.1984,912.2304,407.2912,915.4573,404.5636,917.632,401.6974,918.8212,399.412,918.9244,396.4747,917.4371,393.7032,916.4655,391.5995,914.4927,390.4961,912.2343,389.8417,910.4361,389.2006,908.0873,388.16,906.066,388.9596,904.0926,389.6602,901.9308,392.2893,900.221,394.139,898.0027,396.4284,897.266,399.1501,896.6316,402.6404,897.0085,404.5521,897.9101,406.7747,898.3188,409.4772,901.0875,410.4193,904.0105,410.8286,906.0049,410.365,909.2914" style="stroke:#181818;stroke-width:1.0;"/><path d="M402.5156,903.2266 Q402.6719,903.0078 402.8594,902.8984 Q403.0469,902.7891 403.2656,902.7891 Q403.6406,902.7891 403.875,903.0547 Q404.1094,903.3047 404.1094,903.9141 L404.1094,905.3672 Q404.1094,905.9766 403.875,906.2422 Q403.6406,906.5078 403.2656,906.5078 Q402.9219,906.5078 402.7188,906.3047 Q402.5156,906.1172 402.4063,905.6016 Q402.3594,905.2422 402.1719,905.0547 Q401.8438,904.6797 401.2344,904.4609 Q400.625,904.2422 400,904.2422 Q399.2344,904.2422 398.5938,904.5703 Q397.9688,904.8984 397.4688,905.6484 Q396.9844,906.3984 396.9844,907.4297 L396.9844,908.5234 Q396.9844,909.7578 397.875,910.5859 Q398.7656,911.3984 400.3594,911.3984 Q401.2969,911.3984 401.9531,911.1484 Q402.3438,910.9922 402.7656,910.5547 Q403.0313,910.2891 403.1719,910.2109 Q403.3281,910.1328 403.5313,910.1328 Q403.8594,910.1328 404.1094,910.3984 Q404.375,910.6484 404.375,910.9922 Q404.375,911.3359 404.0313,911.7422 Q403.5313,912.3203 402.7344,912.6484 Q401.6563,913.1016 400.3594,913.1016 Q398.8438,913.1016 397.6406,912.4766 Q396.6563,911.9766 395.9688,910.9141 Q395.2813,909.8359 395.2813,908.5547 L395.2813,907.3984 Q395.2813,906.0703 395.8906,904.9297 Q396.5156,903.7734 397.6094,903.1641 Q398.7031,902.5391 399.9375,902.5391 Q400.6719,902.5391 401.3125,902.7109 Q401.9688,902.8672 402.5156,903.2266 Z " fill="#000000"/><text fill="#000000" font-family="FG Virgil" font-size="12" font-style="italic" lengthAdjust="spacing" textLength="56" x="422.75" y="903.457">«domain»</text><text fill="#000000" font-family="FG Virgil" font-size="14" lengthAdjust="spacing" textLength="61" x="420.25" y="920.627">user:User</text><path d="M8,928.7031 L8,928.9834 L18.0353,928.1507 L28.0706,928.9608 L38.1059,929.236 L48.1412,927.7519 L58.1765,928.5995 L68.2118,928.1345 L78.2471,928.1918 L88.2824,928.6122 L98.3176,927.7813 L108.3529,929.4413 L118.3882,927.8628 L128.4235,928.4394 L138.4588,929.2791 L148.4941,928.5888 L158.5294,928.7941 L168.5647,928.6605 L178.6,928.9412 L188.6353,929.022 L198.6706,929.484 L208.7059,929.5979 L218.7412,929.6088 L228.7765,929.0426 L238.8118,929.3212 L248.8471,929.6394 L258.8824,927.7415 L268.9176,929.6078 L278.9529,928.3078 L288.9882,929.4149 L299.0235,928.0431 L309.0588,928.6118 L319.0941,929.6919 L329.1294,928.6381 L339.1647,928.8435 L349.2,929.1546 L359.2353,929.2581 L369.2706,928.6979 L379.3059,929.0861 L389.3412,927.9399 L399.3765,929.0823 L409.4118,929.4341 L419.4471,929.2958 L429.4824,929.5205 L439.5176,928.059 L449.5529,927.8335 L459.5882,927.8746 L469.6235,928.6246 L479.6588,928.4411 L489.6941,929.6117 L499.7294,928.4702 L509.7647,928.2457 L519.8,929.0075 L529.8353,927.814 L539.8706,928.011 L549.9059,929.5684 L559.9412,929.284 L569.9765,929.6824 L580.0118,928.2741 L590.0471,929.1287 L600.0824,929.4904 L610.1176,928.0733 L620.1529,928.5753 L630.1882,928.8711 L640.2235,929.5721 L650.2588,928.6975 L660.2941,929.3199 L670.3294,927.9647 L680.3647,927.8001 L690.4,929.3746 L700.4353,927.7472 L710.4706,929.3817 L720.5059,928.9786 L730.5412,928.3459 L740.5765,928.2314 L750.6118,929.3148 L760.6471,928.304 L770.6824,929.4923 L780.7176,927.9661 L790.7529,929.5264 L800.7882,929.3489 L810.8235,929.0297 L820.8588,928.7661 L830.8941,929.6719 L840.9294,929.5212 L850.9647,928.9288 L861,928.7031 " fill="#F1F1F1" style="stroke:#181818;stroke-width:0.5;"/><path d="M8,936.7031 L8,936.9834 L18.0353,936.1507 L28.0706,936.9608 L38.1059,937.236 L48.1412,935.7519 L58.1765,936.5995 L68.2118,936.1345 L78.2471,936.1918 L88.2824,936.6122 L98.3176,935.7813 L108.3529,937.4413 L118.3882,935.8628 L128.4235,936.4394 L138.4588,937.2791 L148.4941,936.5888 L158.5294,936.7941 L168.5647,936.6605 L178.6,936.9412 L188.6353,937.022 L198.6706,937.484 L208.7059,937.5979 L218.7412,937.6088 L228.7765,937.0426 L238.8118,937.3212 L248.8471,937.6394 L258.8824,935.7415 L268.9176,937.6078 L278.9529,936.3078 L288.9882,937.4149 L299.0235,936.0431 L309.0588,936.6118 L319.0941,937.6919 L329.1294,936.6381 L339.1647,936.8435 L349.2,937.1546 L359.2353,937.2581 L369.2706,936.6979 L379.3059,937.0861 L389.3412,935.9399 L399.3765,937.0823 L409.4118,937.4341 L419.4471,937.2958 L429.4824,937.5205 L439.5176,936.059 L449.5529,935.8335 L459.5882,935.8746 L469.6235,936.6246 L479.6588,936.4411 L489.6941,937.6117 L499.7294,936.4702 L509.7647,936.2457 L519.8,937.0075 L529.8353,935.814 L539.8706,936.011 L549.9059,937.5684 L559.9412,937.284 L569.9765,937.6824 L580.0118,936.2741 L590.0471,937.1287 L600.0824,937.4904 L610.1176,936.0733 L620.1529,936.5753 L630.1882,936.8711 L640.2235,937.5721 L650.2588,936.6975 L660.2941,937.3199 L670.3294,935.9647 L680.3647,935.8001 L690.4,937.3746 L700.4353,935.7472 L710.4706,937.3817 L720.5059,936.9786 L730.5412,936.3459 L740.5765,936.2314 L750.6118,937.3148 L760.6471,936.304 L770.6824,937.4923 L780.7176,935.9661 L790.7529,937.5264 L800.7882,937.3489 L810.8235,937.0297 L820.8588,936.7661 L830.8941,937.6719 L840.9294,937.5212 L850.9647,936.9288 L861,936.7031 " fill="#F1F1F1" style="stroke:#181818;stroke-width:0.5;"/><text fill="#000000" font-family="FG Virgil" font-size="14" lengthAdjust="spacing" textLength="843" x="13" y="955.2363">User(ShortName, FullName, Password, EmailAddress, Role, BirthDate, MecanographicNumber, TaxPayerNumber, Acronym, Calendar)</text><text fill="#000000" font-family="FG Virgil" font-size="14" lengthAdjust="spacing" textLength="535" x="13" y="972.8457">validateParameters(ShortName, FullName, EmailAddress, Role, Password, Calendar)</text><text fill="#000000" font-family="FG Virgil" font-size="14" lengthAdjust="spacing" textLength="317" x="13" y="990.4551">validateMecNumber(MecanographicNumber, Role)</text><text fill="#000000" font-family="FG Virgil" font-size="14" lengthAdjust="spacing" textLength="226" x="13" y="1008.0645">validateMecNumber(Acronym, Role)</text></g><!--MD5=[e8c189551b7885b999ad7cefb30fc2a3]
class PersistenceContext--><g id="elem_PersistenceContext"><polygon fill="#F1F1F1" points="894,696.5,894,696.7102,903.9333,696.0857,913.8667,696.6933,923.8,696.8997,933.7333,695.7866,943.6667,696.4223,953.6,696.0735,963.5333,696.1165,973.4667,696.4318,983.4,695.8086,993.3333,697.0536,1003.2667,695.8697,1013.2,696.3022,1023.1333,696.9319,1033.0667,696.4142,1043,696.5,1043.0087,696.521,1043.3495,696.6366,1043.7299,696.8479,1044.0912,697.013,1044.4889,697.2662,1044.7678,697.2322,1044.9744,697.3178,1045.1234,697.6724,1045.1391,697.9718,1045.3499,698.352,1045.5698,698.736,1045.5,699,1044.7788,699,1046.1785,709.1875,1045.2035,719.375,1046.0338,729.5625,1045.005,739.75,1045.4315,749.9375,1046.2416,760.125,1045.5,770.3125,1045.485,770.3063,1045.386,770.6795,1045.3114,771.0628,1045.1888,771.4263,1044.913,771.7262,1044.7678,772.0803,1044.8044,772.1687,1044.3412,772.0504,1044.0969,772.4607,1043.777,772.6884,1043.4103,772.803,1043,772.8125,1043,773.4255,1033.0667,772.3294,1023.1333,772.1603,1013.2,772.1911,1003.2667,772.7536,993.3333,772.616,983.4,773.4939,973.4667,772.6378,963.5333,772.4694,953.6,773.0408,943.6667,772.1457,933.7333,772.2934,923.8,773.4615,913.8667,773.2482,903.9333,773.547,894,772.8125,893.959,772.7134,893.6872,772.7644,893.3682,772.7014,892.8791,772.2277,892.5736,772.1972,892.2322,772.0803,892.271,772.0963,892.2865,771.8099,891.938,771.3726,891.9353,771.0786,891.4759,770.5954,891.5,770.3125,890.8227,770.3125,892.0036,760.125,890.7831,749.9375,892.009,739.75,891.7066,729.5625,891.2321,719.375,891.1462,709.1875,891.5,699,891.6413,699.0585,891.5543,698.6083,891.9752,698.3684,891.7691,697.8688,892.2759,697.6645,892.2322,697.2322,892.294,697.3814,892.617,697.1612,892.9454,696.9539,893.3856,697.0167,893.7247,696.8354,894,696.5" style="stroke:#181818;stroke-width:0.5;"/><polygon fill="#C2C2C2" points="917.5608,720.5272,915.9484,722.7304,914.0412,725.9573,911.3136,728.132,908.4474,729.3212,906.162,729.4244,903.2247,727.9371,900.4532,726.9655,898.3495,724.9927,897.2461,722.7343,896.5917,720.9361,895.9506,718.5873,894.91,716.566,895.7096,714.5926,896.4102,712.4308,899.0393,710.721,900.889,708.5027,903.1784,707.766,905.9001,707.1316,909.3904,707.5085,911.3021,708.4101,913.5247,708.8188,916.2272,711.5875,917.1693,714.5105,917.5786,716.5049,917.115,719.7914" style="stroke:#181818;stroke-width:1.0;"/><path d="M909.2656,713.7266 Q909.4219,713.5078 909.6094,713.3984 Q909.7969,713.2891 910.0156,713.2891 Q910.3906,713.2891 910.625,713.5547 Q910.8594,713.8047 910.8594,714.4141 L910.8594,715.8672 Q910.8594,716.4766 910.625,716.7422 Q910.3906,717.0078 910.0156,717.0078 Q909.6719,717.0078 909.4688,716.8047 Q909.2656,716.6172 909.1563,716.1016 Q909.1094,715.7422 908.9219,715.5547 Q908.5938,715.1797 907.9844,714.9609 Q907.375,714.7422 906.75,714.7422 Q905.9844,714.7422 905.3438,715.0703 Q904.7188,715.3984 904.2188,716.1484 Q903.7344,716.8984 903.7344,717.9297 L903.7344,719.0234 Q903.7344,720.2578 904.625,721.0859 Q905.5156,721.8984 907.1094,721.8984 Q908.0469,721.8984 908.7031,721.6484 Q909.0938,721.4922 909.5156,721.0547 Q909.7813,720.7891 909.9219,720.7109 Q910.0781,720.6328 910.2813,720.6328 Q910.6094,720.6328 910.8594,720.8984 Q911.125,721.1484 911.125,721.4922 Q911.125,721.8359 910.7813,722.2422 Q910.2813,722.8203 909.4844,723.1484 Q908.4063,723.6016 907.1094,723.6016 Q905.5938,723.6016 904.3906,722.9766 Q903.4063,722.4766 902.7188,721.4141 Q902.0313,720.3359 902.0313,719.0547 L902.0313,717.8984 Q902.0313,716.5703 902.6406,715.4297 Q903.2656,714.2734 904.3594,713.6641 Q905.4531,713.0391 906.6875,713.0391 Q907.4219,713.0391 908.0625,713.2109 Q908.7188,713.3672 909.2656,713.7266 Z " fill="#000000"/><text fill="#000000" font-family="FG Virgil" font-size="12" font-style="italic" lengthAdjust="spacing" textLength="77" x="943" y="713.957">«persistence»</text><text fill="#000000" font-family="FG Virgil" font-size="14" lengthAdjust="spacing" textLength="122" x="920.5" y="731.127">PersistenceContext</text><path d="M892.5,739.2031 L892.5,739.4834 L902.6333,738.6507 L912.7667,739.4608 L922.9,739.736 L933.0333,738.2519 L943.1667,739.0995 L953.3,738.6345 L963.4333,738.6918 L973.5667,739.1122 L983.7,738.2813 L993.8333,739.9413 L1003.9667,738.3628 L1014.1,738.9394 L1024.2333,739.7791 L1034.3667,739.0888 L1044.5,739.2031 " fill="#F1F1F1" style="stroke:#181818;stroke-width:0.5;"/><path d="M892.5,747.2031 L892.5,747.4834 L902.6333,746.6507 L912.7667,747.4608 L922.9,747.736 L933.0333,746.2519 L943.1667,747.0995 L953.3,746.6345 L963.4333,746.6918 L973.5667,747.1122 L983.7,746.2813 L993.8333,747.9413 L1003.9667,746.3628 L1014.1,746.9394 L1024.2333,747.7791 L1034.3667,747.0888 L1044.5,747.2031 " fill="#F1F1F1" style="stroke:#181818;stroke-width:0.5;"/><text fill="#000000" font-family="FG Virgil" font-size="14" lengthAdjust="spacing" textLength="84" x="897.5" y="765.7363">repositories()</text></g><!--MD5=[48590afff58a68e2fcba47824d6f8a11]
class RepositoryFactory--><g id="elem_RepositoryFactory"><polygon fill="#F1F1F1" points="900,912.5,900,912.7102,910.2143,912.0857,920.4286,912.6933,930.6429,912.8997,940.8571,911.7866,951.0714,912.4223,961.2857,912.0735,971.5,912.1165,981.7143,912.4318,991.9286,911.8086,1002.1429,913.0536,1012.3571,911.8697,1022.5714,912.3022,1032.7857,912.9319,1043,912.5,1042.9891,912.4736,1043.3623,912.6675,1043.703,912.7831,1044.0834,912.9943,1044.4447,913.1594,1044.7678,913.2322,1044.9481,913.3069,1045.1209,913.6714,1045.2698,914.026,1045.2855,914.3254,1045.4963,914.7056,1045.5,915,1046.2022,915,1044.7788,925.1875,1046.1785,935.375,1045.2035,945.5625,1046.0338,955.75,1045.005,965.9375,1045.4315,976.125,1045.5,986.3125,1045.7284,986.4071,1045.3385,986.6598,1045.2395,987.033,1045.1649,987.4164,1045.0424,987.7798,1044.7678,988.0803,1044.7673,988.0791,1044.4509,988.3152,1043.9876,988.1969,1043.7434,988.6072,1043.4235,988.8349,1043,988.8125,1043,989.257,1032.7857,989.4255,1022.5714,988.3294,1012.3571,988.1603,1002.1429,988.1911,991.9286,988.7536,981.7143,988.616,971.5,989.4939,961.2857,988.6378,951.0714,988.4694,940.8571,989.0408,930.6429,988.1457,920.4286,988.2934,910.2143,989.4615,900,988.8125,900.0556,988.9467,899.7401,988.8922,899.2518,988.4205,898.9801,988.4715,898.6611,988.4085,898.2322,988.0803,898.0868,988.02,898.0563,987.7145,897.9781,987.3892,897.9936,987.1027,897.6452,986.6655,897.5,986.3125,897.9626,986.3125,896.9462,976.125,896.8227,965.9375,898.0036,955.75,896.7831,945.5625,898.009,935.375,897.7066,925.1875,897.5,915,897.4175,914.9658,897.5375,914.6013,897.9342,914.3514,897.8472,913.9012,898.2681,913.6613,898.2322,913.2322,898.1617,913.062,898.6645,913.2759,899.0011,913.0885,899.3241,912.8683,899.6525,912.661,900,912.5" style="stroke:#181818;stroke-width:0.5;"/><polygon fill="#C2C2C2" points="923.5608,936.5272,921.9484,938.7304,920.0412,941.9573,917.3136,944.132,914.4474,945.3212,912.162,945.4244,909.2247,943.9371,906.4532,942.9655,904.3495,940.9927,903.2461,938.7343,902.5917,936.9361,901.9506,934.5873,900.91,932.566,901.7096,930.5926,902.4102,928.4308,905.0393,926.721,906.889,924.5027,909.1784,923.766,911.9001,923.1316,915.3904,923.5085,917.3021,924.4101,919.5247,924.8188,922.2272,927.5875,923.1693,930.5105,923.5786,932.5049,923.115,935.7914" style="stroke:#181818;stroke-width:1.0;"/><path d="M915.2656,929.7266 Q915.4219,929.5078 915.6094,929.3984 Q915.7969,929.2891 916.0156,929.2891 Q916.3906,929.2891 916.625,929.5547 Q916.8594,929.8047 916.8594,930.4141 L916.8594,931.8672 Q916.8594,932.4766 916.625,932.7422 Q916.3906,933.0078 916.0156,933.0078 Q915.6719,933.0078 915.4688,932.8047 Q915.2656,932.6172 915.1563,932.1016 Q915.1094,931.7422 914.9219,931.5547 Q914.5938,931.1797 913.9844,930.9609 Q913.375,930.7422 912.75,930.7422 Q911.9844,930.7422 911.3438,931.0703 Q910.7188,931.3984 910.2188,932.1484 Q909.7344,932.8984 909.7344,933.9297 L909.7344,935.0234 Q909.7344,936.2578 910.625,937.0859 Q911.5156,937.8984 913.1094,937.8984 Q914.0469,937.8984 914.7031,937.6484 Q915.0938,937.4922 915.5156,937.0547 Q915.7813,936.7891 915.9219,936.7109 Q916.0781,936.6328 916.2813,936.6328 Q916.6094,936.6328 916.8594,936.8984 Q917.125,937.1484 917.125,937.4922 Q917.125,937.8359 916.7813,938.2422 Q916.2813,938.8203 915.4844,939.1484 Q914.4063,939.6016 913.1094,939.6016 Q911.5938,939.6016 910.3906,938.9766 Q909.4063,938.4766 908.7188,937.4141 Q908.0313,936.3359 908.0313,935.0547 L908.0313,933.8984 Q908.0313,932.5703 908.6406,931.4297 Q909.2656,930.2734 910.3594,929.6641 Q911.4531,929.0391 912.6875,929.0391 Q913.4219,929.0391 914.0625,929.2109 Q914.7188,929.3672 915.2656,929.7266 Z " fill="#000000"/><text fill="#000000" font-family="FG Virgil" font-size="12" font-style="italic" lengthAdjust="spacing" textLength="50" x="959.5" y="929.957">«factory»</text><text fill="#000000" font-family="FG Virgil" font-size="14" lengthAdjust="spacing" textLength="116" x="926.5" y="947.127">RepositoryFactory</text><path d="M898.5,955.2031 L898.5,955.4834 L908.2333,954.6507 L917.9667,955.4608 L927.7,955.736 L937.4333,954.2519 L947.1667,955.0995 L956.9,954.6345 L966.6333,954.6918 L976.3667,955.1122 L986.1,954.2813 L995.8333,955.9413 L1005.5667,954.3628 L1015.3,954.9394 L1025.0333,955.7791 L1034.7667,955.0888 L1044.5,955.2031 " fill="#F1F1F1" style="stroke:#181818;stroke-width:0.5;"/><path d="M898.5,963.2031 L898.5,963.4834 L908.2333,962.6507 L917.9667,963.4608 L927.7,963.736 L937.4333,962.2519 L947.1667,963.0995 L956.9,962.6345 L966.6333,962.6918 L976.3667,963.1122 L986.1,962.2813 L995.8333,963.9413 L1005.5667,962.3628 L1015.3,962.9394 L1025.0333,963.7791 L1034.7667,963.0888 L1044.5,963.2031 " fill="#F1F1F1" style="stroke:#181818;stroke-width:0.5;"/><text fill="#000000" font-family="FG Virgil" font-size="14" lengthAdjust="spacing" textLength="45" x="903.5" y="981.7363">users()</text></g><!--MD5=[093c210125347143eef5bb9199eae634]
class UserRepository--><g id="elem_UserRepository"><polygon fill="#F1F1F1" points="973.5,1093,973.5,1093.2102,983.8333,1092.5857,994.1667,1093.1933,1004.5,1093.3997,1014.8333,1092.2866,1025.1667,1092.9223,1035.5,1092.5735,1045.8333,1092.6165,1056.1667,1092.9318,1066.5,1092.3086,1076.8333,1093.5536,1087.1667,1092.3697,1097.5,1093,1097.4748,1092.9391,1097.9087,1093.2795,1098.1962,1093.2665,1098.5694,1093.4604,1098.9101,1093.5759,1099.2678,1093.7322,1099.3227,1093.755,1099.4879,1094.1163,1099.741,1094.5141,1099.9138,1094.8785,1100.0627,1095.2331,1100,1095.5,1100.2546,1095.5,1100.4636,1105.6875,1100.7022,1115.875,1099.2788,1126.0625,1100.6785,1136.25,1099.7035,1146.4375,1100.5338,1156.625,1100,1166.8125,1099.8476,1166.7494,1099.8325,1167.1573,1099.9355,1167.6142,1099.5457,1167.8669,1099.4466,1168.2401,1099.2678,1168.5803,1099.311,1168.6846,1098.9673,1168.8549,1098.5602,1168.872,1098.2437,1169.1081,1097.7805,1168.9898,1097.5,1169.3125,1097.5,1169.5969,1087.1667,1169.8607,1076.8333,1169.757,1066.5,1169.9255,1056.1667,1168.8294,1045.8333,1168.6603,1035.5,1168.6911,1025.1667,1169.2536,1014.8333,1169.116,1004.5,1169.9939,994.1667,1169.1378,983.8333,1168.9694,973.5,1169.3125,973.5291,1169.3828,973.0614,1168.9607,972.7267,1168.8597,972.5221,1169.073,972.1414,1168.8609,971.7322,1168.5803,971.9584,1168.674,971.4867,1168.1857,971.5376,1167.9139,971.4747,1167.5949,971.001,1167.1058,971,1166.8125,970.9041,1166.8125,971.126,1156.625,971.6518,1146.4375,970.9958,1136.25,971.4626,1126.0625,970.4462,1115.875,970.3227,1105.6875,971,1095.5,971.1551,1095.5642,970.9257,1095.055,971.4496,1094.8578,971.503,1094.4657,971.5033,1094.0516,971.7322,1093.7322,971.6871,1093.6233,972.1443,1093.7271,972.4012,1093.3472,972.8684,1093.4752,973.0759,1092.9762,973.5,1093" style="stroke:#181818;stroke-width:0.5;"/><polygon fill="#C2C2C2" points="997.0608,1117.0272,995.4484,1119.2304,993.5412,1122.4573,990.8136,1124.632,987.9474,1125.8212,985.662,1125.9244,982.7247,1124.4371,979.9532,1123.4655,977.8495,1121.4927,976.7461,1119.2343,976.0917,1117.4361,975.4506,1115.0873,974.41,1113.066,975.2096,1111.0926,975.9102,1108.9308,978.5393,1107.221,980.389,1105.0027,982.6784,1104.266,985.4001,1103.6316,988.8904,1104.0085,990.8021,1104.9101,993.0247,1105.3188,995.7272,1108.0875,996.6693,1111.0105,997.0786,1113.0049,996.615,1116.2914" style="stroke:#181818;stroke-width:1.0;"/><path d="M988.7656,1110.2266 Q988.9219,1110.0078 989.1094,1109.8984 Q989.2969,1109.7891 989.5156,1109.7891 Q989.8906,1109.7891 990.125,1110.0547 Q990.3594,1110.3047 990.3594,1110.9141 L990.3594,1112.3672 Q990.3594,1112.9766 990.125,1113.2422 Q989.8906,1113.5078 989.5156,1113.5078 Q989.1719,1113.5078 988.9688,1113.3047 Q988.7656,1113.1172 988.6563,1112.6016 Q988.6094,1112.2422 988.4219,1112.0547 Q988.0938,1111.6797 987.4844,1111.4609 Q986.875,1111.2422 986.25,1111.2422 Q985.4844,1111.2422 984.8438,1111.5703 Q984.2188,1111.8984 983.7188,1112.6484 Q983.2344,1113.3984 983.2344,1114.4297 L983.2344,1115.5234 Q983.2344,1116.7578 984.125,1117.5859 Q985.0156,1118.3984 986.6094,1118.3984 Q987.5469,1118.3984 988.2031,1118.1484 Q988.5938,1117.9922 989.0156,1117.5547 Q989.2813,1117.2891 989.4219,1117.2109 Q989.5781,1117.1328 989.7813,1117.1328 Q990.1094,1117.1328 990.3594,1117.3984 Q990.625,1117.6484 990.625,1117.9922 Q990.625,1118.3359 990.2813,1118.7422 Q989.7813,1119.3203 988.9844,1119.6484 Q987.9063,1120.1016 986.6094,1120.1016 Q985.0938,1120.1016 983.8906,1119.4766 Q982.9063,1118.9766 982.2188,1117.9141 Q981.5313,1116.8359 981.5313,1115.5547 L981.5313,1114.3984 Q981.5313,1113.0703 982.1406,1111.9297 Q982.7656,1110.7734 983.8594,1110.1641 Q984.9531,1109.5391 986.1875,1109.5391 Q986.9219,1109.5391 987.5625,1109.7109 Q988.2188,1109.8672 988.7656,1110.2266 Z " fill="#000000"/><text fill="#000000" font-family="FG Virgil" font-size="12" font-style="italic" lengthAdjust="spacing" textLength="68" x="1014.5" y="1110.457">«repository»</text><text fill="#000000" font-family="FG Virgil" font-size="14" lengthAdjust="spacing" textLength="97" x="1000" y="1127.627">UserRepository</text><path d="M972,1135.7031 L972,1135.9834 L981.7692,1135.1507 L991.5385,1135.9608 L1001.3077,1136.236 L1011.0769,1134.7519 L1020.8462,1135.5995 L1030.6154,1135.1345 L1040.3846,1135.1918 L1050.1538,1135.6122 L1059.9231,1134.7813 L1069.6923,1136.4413 L1079.4615,1134.8628 L1089.2308,1135.4394 L1099,1135.7031 " fill="#F1F1F1" style="stroke:#181818;stroke-width:0.5;"/><path d="M972,1143.7031 L972,1143.9834 L981.7692,1143.1507 L991.5385,1143.9608 L1001.3077,1144.236 L1011.0769,1142.7519 L1020.8462,1143.5995 L1030.6154,1143.1345 L1040.3846,1143.1918 L1050.1538,1143.6122 L1059.9231,1142.7813 L1069.6923,1144.4413 L1079.4615,1142.8628 L1089.2308,1143.4394 L1099,1143.7031 " fill="#F1F1F1" style="stroke:#181818;stroke-width:0.5;"/><text fill="#000000" font-family="FG Virgil" font-size="14" lengthAdjust="spacing" textLength="69" x="977" y="1162.2363">save(User)</text></g><!--MD5=[e5d8823949d8c0e7bc014337ad67daec]
link RegisterUserUI to AddUserController--><g id="link_RegisterUserUI_AddUserController"><path d="M783.5,101 L783.7802,101 L782.9476,111.3971 L783.7577,121.7943 L784.0329,132.1914 L782.5488,142.5886 L783.3964,152.9857 L782.9313,163.3829 L783.5,173.78 " fill="none" style="stroke:#181818;stroke-width:1.0;"/><polygon fill="#181818" points="783.5,178.96,783.564,178.9885,784.1738,177.1039,785.1589,175.3862,786.0217,173.6141,786.4827,171.6634,787.5,169.96,787.4817,169.9417,786.5995,170.6595,785.8096,171.4696,785.0839,172.3439,784.137,172.997,783.5,173.96,783.6305,174.0905,782.5514,173.0114,781.8534,172.3134,781.2018,171.6618,780.2798,170.7398,779.5,169.96,779.5208,169.9692,780.2903,171.7557,781.1544,173.5842,781.9728,175.3924,782.8784,177.2393,783.5,178.96" style="stroke:#181818;stroke-width:1.0;"/><text fill="#000000" font-family="FG Virgil" font-size="13" lengthAdjust="spacing" textLength="73" x="784.5" y="145.4951">theController</text></g><!--MD5=[aa5637fc1292a9b6857494c6f27b043d]
link AddUserController to AuthorizationService--><g id="link_AddUserController_AuthorizationService"><path d="M721.87,273.03 L721.9295,273.1021 L720.0952,274.2556 L718.6094,275.8316 L717.0102,277.27 L715.0377,278.256 L713.5819,279.8683 L713.5595,279.8419 L711.7772,281.1504 L710.1075,282.5917 L708.5162,284.1252 L706.655,285.3407 L705.1717,287.0017 L705.3337,287.187 L703.2964,288.2694 L701.7321,289.8927 L700.2254,291.582 L698.3831,292.8873 L696.7173,294.3946 L696.7376,294.4171 L695.0236,295.9074 L693.4021,297.5001 L691.736,299.0434 L690.1551,300.681 L688.2963,302.0112 L688.5004,302.2286 L686.8409,303.7922 L685.0497,305.2156 L683.4513,306.8442 L681.862,308.4824 L679.9863,309.8158 L679.762,309.5869 L678.5731,311.6226 L676.6456,312.9044 L675.2797,314.7594 L673.3354,316.0241 L671.8652,317.7727 L671.8433,317.7514 L670.5305,319.6172 L668.7078,320.9869 L667.1859,322.6493 L665.6893,324.3362 L664.0105,325.846 L664.1466,325.9713 L662.5071,327.4756 L661.1002,329.1941 L659.3171,330.566 L658.0951,332.4548 L656.5,334 L656.6836,334.1601 L654.9694,336.0555 L653.3463,338.0303 L651.2996,339.6357 L649.5634,341.5119 L648.1023,343.628 L647.8902,343.4512 L646.4234,345.6009 L644.7177,347.5514 L643.3586,349.791 L641.4076,351.537 L639.8085,353.5764 L639.6895,353.4811 L638.2536,355.6817 L636.3089,357.4751 L634.7261,359.558 L633.4973,361.9243 L631.638,363.7861 L631.7914,363.9043 L630.2911,366.0678 L628.3138,367.8635 L626.9339,370.1198 L625.4238,372.2758 L623.6105,374.198 L623.4421,374.0725 L622.0033,376.2835 L620.5093,378.4534 L619.1236,380.7041 L617.3168,382.6409 L615.7453,384.753 L615.9119,384.8734 L614.009,386.7367 L612.4279,388.8324 L611.3167,391.2675 L609.3402,393.0778 L608.0619,395.3921 L608.2471,395.522 L606.6407,397.5777 L604.9716,399.5894 L603.444,401.7003 L602.2432,404.0405 L600.5799,406.0562 L600.47,405.9812 L599.3449,408.3306 L597.4726,410.1697 L596.4498,412.589 L594.9487,414.6817 L593.3187,416.6863 L593.4097,416.7461 L590.5799,420.8821 L588.0757,425.2325 L585.2774,429.3891 L582.3562,433.4648 L579.537,437.6077 L579.6378,437.6713 L576.9552,441.5921 L574.7406,445.8081 L571.9966,449.6902 L569.4704,453.7096 L566.8727,457.6839 L566.6416,457.5436 L564.4405,461.3421 L562.5179,465.3097 L560.2013,469.038 L557.7436,472.6806 L555.4817,476.4422 L555.3582,476.3697 L553.4054,479.7865 L551.234,483.0749 L549.6636,486.7162 L547.7958,490.1829 L545.52,493.41 " fill="none" style="stroke:#181818;stroke-width:1.0;"/><polygon fill="#181818" points="542.9,497.95,542.9412,498.0067,544.4118,496.6797,546.1239,495.6849,547.7574,494.5819,549.1321,493.1233,550.865,492.157,550.8583,492.132,549.7354,492.3123,548.6462,492.6188,547.5805,493.013,546.4339,493.105,545.4007,493.6203,545.5789,493.668,544.9051,492.4731,544.7517,491.4175,544.6618,490.3789,544.2025,489.2414,543.9374,488.1559,543.96,488.1583,543.7193,490.1136,543.5816,492.0798,543.3942,494.0408,543.3016,496.0118,542.9,497.95" style="stroke:#181818;stroke-width:1.0;"/><text fill="#000000" font-family="FG Virgil" font-size="13" lengthAdjust="spacing" textLength="32" x="657.5" y="386.4951">authz</text></g><!--MD5=[89f4040e1f7d65a25a98e95f070c1f24]
link AddUserController to UserManagementService--><g id="link_AddUserController_UserManagementService"><path d="M828.74,273.14 L828.8102,273.2016 L831.0824,275.8457 L833.7662,278.851 L836.316,281.7387 L838.4249,284.2396 L841.1441,287.2759 L841.1174,287.254 L843.485,290.1711 L845.9869,293.1991 L848.5823,296.3041 L850.8558,299.1437 L853.58,302.355 L853.7757,302.5042 L855.7484,305.3225 L858.2925,308.5763 L860.9062,311.8833 L863.1144,314.8811 L865.5359,318.0416 L865.5609,318.0587 L867.717,321.2252 L869.987,324.4699 L872.202,327.6768 L874.5217,330.9557 L876.5,334 L876.7525,334.1587 L877.9035,335.9871 L878.8915,337.7132 L880.118,339.5892 L881.3557,341.4721 L882.2393,343.1325 L881.9643,342.9677 L883.6215,345.1619 L884.3735,346.8135 L885.8136,348.8776 L886.5451,350.5169 L887.8574,352.5043 L887.831,352.4892 L889.2413,354.5817 L890.0346,356.3203 L891.192,358.2677 L892.3799,360.2326 L893.3474,362.0711 L893.5094,362.1604 L894.4168,364.0137 L895.6011,366.0196 L896.3374,367.7787 L897.7419,369.906 L898.7022,371.7884 L898.9174,371.9026 L899.9192,373.8458 L901.0279,375.8456 L901.6401,377.582 L902.6163,379.5115 L903.9149,381.6121 L903.6691,381.4862 L904.9043,383.5773 L905.8625,385.5265 L907.2225,387.6815 L907.8966,389.4852 L908.9784,391.4977 L908.8414,391.4308 L910.9999,395.4981 L912.5727,399.2796 L914.562,403.2644 L916.9589,407.448 L918.63,411.2775 L918.8059,411.3584 L920.7207,415.3131 L922.0885,419.016 L924.1415,423.0342 L926.0452,426.9838 L927.601,430.7732 L927.4086,430.6892 L929.2088,434.5276 L930.946,438.3385 L932.807,442.2034 L934.1867,445.8582 L935.8353,449.6303 L936.0251,449.7094 L937.0964,453.1084 L938.5341,456.6601 L940.5069,460.4347 L941.4945,463.7988 L943.277,467.4941 L943.4871,467.578 L944.6809,470.8313 L945.8036,474.0563 L947.0868,477.3453 L948.7408,480.7824 L949.87,484.01 " fill="none" style="stroke:#181818;stroke-width:1.0;"/><polygon fill="#181818" points="951.73,488.77,951.8,488.7735,951.6914,486.7958,951.993,484.8387,952.161,482.8749,951.8897,480.8889,952.2265,478.9337,952.2028,478.9232,951.6377,479.9101,951.192,480.9501,950.8292,482.0269,950.1804,482.9768,949.9322,484.1044,950.0071,484.2731,948.8129,483.4535,947.8372,483.1264,946.8882,482.8594,945.7841,482.2428,944.7615,481.8101,944.7776,481.8262,946.1477,483.1945,947.591,484.6362,948.9989,486.0424,950.4743,487.5162,951.73,488.77" style="stroke:#181818;stroke-width:1.0;"/><text fill="#000000" font-family="FG Virgil" font-size="13" lengthAdjust="spacing" textLength="46" x="926.5" y="386.4951">userSvc</text></g><!--MD5=[63474190aefe726c5fa4221b27b4fd76]
link AddUserController to AuthzRegistry--><g id="link_AddUserController_AuthzRegistry"><path d="M783.5,273.32 L783.7802,273.32 L782.9476,282.5717 L783.7577,291.8233 L784.0329,301.075 L782.5488,310.3267 L783.3964,319.5783 L783.5,328.83 " fill="none" style="stroke:#181818;stroke-width:1.0;stroke-dasharray:7.0,7.0;"/><polygon fill="#181818" points="783.5,333.84,783.564,333.8685,784.1738,331.9839,785.1589,330.2662,786.0217,328.4941,786.4827,326.5434,787.5,324.84,787.4817,324.8217,786.5995,325.5395,785.8096,326.3496,785.0839,327.2239,784.137,327.877,783.5,328.84,783.6305,328.9705,782.5514,327.8914,781.8534,327.1934,781.2018,326.5418,780.2798,325.6198,779.5,324.84,779.5208,324.8492,780.2903,326.6357,781.1544,328.4642,781.9728,330.2724,782.8784,332.1193,783.5,333.84" style="stroke:#181818;stroke-width:1.0;"/></g><!--MD5=[c837425ae2d0773009d156019fd79119]
link AuthzRegistry to AuthorizationService--><g id="link_AuthzRegistry_AuthorizationService"><path d="M708.36,426.05 L708.5017,426.2918 L699.6285,430.5277 L691.586,436.1809 L683.2731,441.3726 L674.0704,445.0465 L666.0469,450.732 L657.3596,455.2851 L648.9364,460.2889 L640.6969,465.6059 L631.8246,469.8433 L624.2119,476.2297 L614.9615,479.8221 L606.8009,485.2739 L598.7734,490.9526 L590.03,495.41 " fill="none" style="stroke:#181818;stroke-width:1.0;stroke-dasharray:7.0,7.0;"/><polygon fill="#181818" points="585.65,497.98,585.6578,498.0496,587.592,497.6228,589.5721,497.6041,591.5372,497.4525,593.4532,496.8638,595.4373,496.8801,595.4307,496.8551,594.3066,496.4569,593.2156,496.1851,592.1474,496.0011,591.0002,495.5145,589.9637,495.4518,590.1423,495.4984,590.0461,494.304,590.4713,493.2457,590.96,492.204,591.0787,491.0657,591.3921,489.9782,591.4106,489.9915,590.235,491.5724,589.1436,493.2136,588.0116,494.8258,586.957,496.4935,585.65,497.98" style="stroke:#181818;stroke-width:1.0;"/></g><!--MD5=[a78f16923b5997f3b07c7c49a0f57ef6]
link AuthzRegistry to UserManagementService--><g id="link_AuthzRegistry_UserManagementService"><path d="M839.26,428.11 L839.4386,428.3259 L846.6268,434.0688 L854.862,441.0775 L862.7563,447.674 L869.5293,452.9148 L877.7884,459.9524 L885.2109,465.9785 L892.9663,472.4071 L900.9532,479.1155 L908.73,485.57 " fill="none" style="stroke:#181818;stroke-width:1.0;stroke-dasharray:7.0,7.0;"/><polygon fill="#181818" points="912.86,488.98,912.9228,489.0111,911.8611,487.154,911.1674,485.4793,910.3538,483.7452,909.1462,481.8157,908.4841,480.1567,908.4583,480.1542,908.4479,481.2699,908.5675,482.3977,908.7774,483.5339,908.6759,484.641,909.0107,485.7889,909.0279,485.9727,907.8647,485.6851,906.7516,485.9339,905.6447,486.2483,904.5022,486.1818,903.3784,486.3155,903.3846,486.3374,905.2718,486.8382,907.1871,487.4386,909.0889,487.991,911.0165,488.6351,912.86,488.98" style="stroke:#181818;stroke-width:1.0;"/></g><!--MD5=[1f48414fe089902c53c4c535c797c369]
link UserManagementService to UserBuilder--><g id="link_UserManagementService_UserBuilder"><path d="M872.61,583.07 L872.7314,583.3226 L863.1108,587.0209 L854.2016,592.1999 L845.0608,596.8968 L835.1581,600.0079 L826.2651,605.2207 L816.8037,609.2504 L807.5686,613.7509 L798.4906,618.5787 L788.8708,622.2785 L780.3297,628.2236 L770.3861,631.2496 L761.3758,636.2182 L752.4794,641.4238 L742.9205,645.2504 L733.7494,649.8844 L724.4316,654.2128 L715.19,658.7 " fill="none" style="stroke:#181818;stroke-width:1.0;"/><polygon fill="#181818" points="710.41,661,710.4119,661.07,712.3752,660.8077,714.3498,660.9559,716.3207,660.9704,718.2795,660.5453,720.2551,660.7287,720.2465,660.7043,719.141,660.2178,718.079,659.8544,717.0473,659.5766,715.9114,659.0038,714.9214,658.8442,715.0954,658.9057,715.1002,657.7075,715.613,656.6888,716.1879,655.692,716.402,654.5677,716.8059,653.5105,716.8232,653.5253,715.5186,655.0015,714.2928,656.545,713.029,658.056,711.8376,659.6289,710.41,661" style="stroke:#181818;stroke-width:1.0;"/><text fill="#000000" font-family="FG Virgil" font-size="13" lengthAdjust="spacing" textLength="65" x="802.5" y="627.4951">userBuilder</text></g><!--MD5=[d01b369f51dc63c9c96969c504c5cf1a]
link UserBuilder to user:User--><g id="link_UserBuilder_user:User"><path d="M517.01,808.25 L517.252,808.3914 L511.1792,817.1364 L506.525,826.71 L501.4089,836.0138 L494.7737,844.4302 L490.1518,854.0227 L484.3965,862.9532 L479.0922,872.1471 L474.18,881.57 " fill="none" style="stroke:#181818;stroke-width:1.0;"/><polygon fill="#181818" points="471.65,885.9,471.691,885.9568,473.1667,884.6356,474.8827,883.6475,476.5205,882.551,477.9009,881.0977,479.6376,880.1382,479.631,880.1131,478.5073,880.2891,477.417,880.5913,476.3498,880.9813,475.2028,881.0688,474.1676,881.5801,474.346,881.6271,473.676,880.4325,473.5271,879.3753,473.4417,878.3348,472.9864,877.1968,472.7257,876.1101,472.7483,876.1125,472.5,878.0669,472.3546,880.0325,472.1595,881.9927,472.0592,883.9633,471.65,885.9" style="stroke:#181818;stroke-width:1.0;"/></g><!--MD5=[b0877f5a81ed13f00912ab218cf366e4]
link UserManagementService to PersistenceContext--><g id="link_UserManagementService_PersistenceContext"><path d="M968.5,583.07 L968.7802,583.07 L967.9476,592.9055 L968.7577,602.7409 L969.0329,612.5764 L967.5488,622.4118 L968.3964,632.2473 L967.9313,642.0827 L967.9887,651.9182 L968.4091,661.7536 L967.5782,671.5891 L969.2382,681.4245 L968.5,691.26 " fill="none" style="stroke:#181818;stroke-width:1.0;"/><polygon fill="#181818" points="968.5,696.27,968.564,696.2985,969.1738,694.4139,970.1589,692.6962,971.0217,690.9241,971.4827,688.9734,972.5,687.27,972.4817,687.2517,971.5995,687.9695,970.8096,688.7796,970.0839,689.6539,969.137,690.307,968.5,691.27,968.6305,691.4005,967.5514,690.3214,966.8534,689.6234,966.2018,688.9718,965.2798,688.0498,964.5,687.27,964.5208,687.2792,965.2903,689.0657,966.1544,690.8942,966.9728,692.7024,967.8784,694.5493,968.5,696.27" style="stroke:#181818;stroke-width:1.0;"/><text fill="#000000" font-family="FG Virgil" font-size="13" lengthAdjust="spacing" textLength="67" x="969.5" y="627.4951">persistence</text></g><!--MD5=[754b775031405e096442b27febffa290]
link PersistenceContext to RepositoryFactory--><g id="link_PersistenceContext_RepositoryFactory"><path d="M969.02,772.78 L969.3002,772.7839 L968.613,783.1068 L969.5685,793.4529 L969.989,803.7913 L968.6504,814.1051 L969.6433,824.4516 L969.3237,834.7797 L969.5264,845.1151 L970.0922,855.4556 L969.4067,865.7786 L971.212,876.1365 L969.7789,886.4489 L970.501,896.7917 L970.91,907.13 " fill="none" style="stroke:#181818;stroke-width:1.0;"/><polygon fill="#181818" points="970.98,912.29,971.0444,912.3175,971.6272,910.4245,972.5877,908.6928,973.4251,906.9086,973.8582,904.9516,974.851,903.2338,974.8325,903.2157,973.9606,903.946,973.1824,904.7674,972.4693,905.652,971.5318,906.3186,970.9086,907.2905,971.0372,907.4229,969.9508,906.3514,969.2399,905.6663,968.5749,905.0283,967.6433,904.116,966.8518,903.3481,966.8725,903.3576,967.6678,905.132,968.5571,906.9498,969.4011,908.7466,970.3316,910.5834,970.98,912.29" style="stroke:#181818;stroke-width:1.0;"/><text fill="#000000" font-family="FG Virgil" font-size="13" lengthAdjust="spacing" textLength="39" x="970.5" y="852.4951">factory</text></g><!--MD5=[0bde64d3861a2e0b7bf5316115f64c06]
link RepositoryFactory to UserRepository--><g id="link_RepositoryFactory_UserRepository"><path d="M970.47,988.63 L970.5633,988.635 L970.4756,992.1623 L970.9348,995.7189 L971.2159,999.266 L970.9114,1002.7817 L971.4175,1006.3408 L971.3832,1006.3368 L971.6737,1010.1184 L972.1372,1013.9202 L972.7209,1017.736 L972.8903,1021.5035 L973.64,1025.3388 L973.8812,1025.3876 L974.1444,1029.1304 L975.1119,1033.0157 L976.1652,1036.9185 L976.7186,1040.7201 L977.535,1044.5748 L977.5639,1044.5842 L978.7145,1048.2555 L979.9965,1051.9693 L981.2151,1055.6627 L982.5547,1059.3951 L983.5,1063 L983.7681,1063.1308 L985.0498,1065.7531 L986.1587,1068.2911 L987.5207,1070.9526 L988.8945,1073.6198 L989.8925,1076.1038 L989.6221,1075.9316 L991.7344,1078.759 L992.9563,1081.0195 L994.8551,1083.7109 L996.0569,1085.9586 L997.83,1088.57 " fill="none" style="stroke:#181818;stroke-width:1.0;"/><polygon fill="#181818" points="1001.01,1092.96,1001.0785,1092.9747,1000.4624,1091.005,1000.2479,1089.1213,999.9027,1087.2096,999.1274,1085.2058,998.9474,1083.3296,998.9218,1083.3255,998.6309,1084.425,998.4691,1085.5449,998.397,1086.6788,998.0158,1087.7641,998.0674,1088.9176,998.0961,1089.0999,996.9172,1088.534,995.822,1088.5005,994.737,1088.5318,993.5926,1088.1854,992.4794,1088.0376,992.4908,1088.0573,994.1802,1089.0129,995.9214,1090.0581,997.6376,1091.0601,999.4015,1092.1446,1001.01,1092.96" style="stroke:#181818;stroke-width:1.0;"/><text fill="#000000" font-family="FG Virgil" font-size="13" lengthAdjust="spacing" textLength="87" x="984.5" y="1059.4951">userRepository</text></g><!--MD5=[18f98f898b33518a07ec32b030c48693]
link UserManagementService to UserRepository--><g id="link_UserManagementService_UserRepository"><path d="M1021.64,583.26 L1021.7102,583.3216 L1024.0361,586.0263 L1026.7736,589.0922 L1029.377,592.0404 L1031.5397,594.6019 L1034.3125,597.6988 L1034.2846,597.6784 L1036.397,600.6471 L1038.6499,603.7187 L1041.0005,606.8616 L1043.0145,609.7584 L1045.5,613 L1045.7113,613.1262 L1046.7434,615.341 L1048.3923,617.9242 L1050.1164,620.5524 L1051.4028,622.9191 L1052.9194,625.4233 L1052.9471,625.4355 L1053.8195,627.4907 L1054.8182,629.6015 L1055.756,631.6854 L1056.8101,633.8206 L1057.485,635.7887 L1057.7722,635.8692 L1058.3903,638.0644 L1058.8232,640.2077 L1059.5273,642.427 L1060.244,644.6498 L1060.5581,646.7598 L1060.2442,646.695 L1061.4418,649.6689 L1061.6058,652.4292 L1062.5556,655.3519 L1062.6962,658.1075 L1063.5,661 L1063.4701,660.9942 L1064.4156,664.1328 L1064.6626,667.1368 L1065.3218,670.2202 L1066.0156,673.3103 L1066.4598,676.3522 L1066.6418,676.385 L1066.9868,679.2888 L1067.6429,682.2486 L1067.7957,685.1177 L1068.6992,688.1221 L1069.1036,691.0365 L1069.3439,691.0766 L1069.767,693.8813 L1070.3095,696.7059 L1070.2975,699.4382 L1070.692,702.2382 L1071.4465,705.0981 L1071.1735,705.0565 L1071.8321,707.791 L1072.183,710.4785 L1072.9802,713.2342 L1073.0155,715.8736 L1073.5037,718.5821 L1073.3526,718.5612 L1073.9615,721.1862 L1073.9247,723.7222 L1074.3471,726.3215 L1075.2186,728.9827 L1075.2902,731.5336 L1075.4824,731.5572 L1075.9205,734.0663 L1075.7607,736.5019 L1076.3497,739.0295 L1076.7756,741.537 L1076.8213,743.9979 L1076.6126,743.9755 L1077.0371,746.3978 L1077.3933,748.8127 L1077.8838,751.2421 L1077.852,753.6154 L1078.112,756.0201 L1078.3168,756.0388 L1078.08,758.3227 L1078.2385,760.6427 L1078.9742,763.0156 L1078.6471,765.2912 L1079.1775,767.6453 L1079.4031,767.6624 L1079.4401,769.907 L1079.4009,772.1457 L1079.5339,774.3975 L1080.0651,776.6795 L1080.0329,778.9188 L1079.9001,778.9108 L1080.4275,781.128 L1080.0518,783.2908 L1080.703,785.5154 L1080.776,787.7052 L1080.6932,789.8857 L1080.802,789.8906 L1080.8103,792.0277 L1081.208,794.1823 L1081.2539,796.3212 L1081.1528,798.4534 L1081.1737,800.5911 L1081.2928,800.5947 L1081.179,802.6872 L1081.6183,804.7964 L1081.432,806.8867 L1081.503,808.9847 L1081.4895,811.0803 L1081.2191,811.0777 L1081.3489,815.1806 L1081.8044,819.2866 L1081.7991,823.3882 L1081.6286,827.4882 L1081.6872,831.5904 L1081.544,831.5885 L1081.534,835.6265 L1081.2704,839.661 L1081.7037,843.7052 L1081.7921,847.7446 L1081.4075,851.7775 L1081.6413,851.7849 L1081.589,855.8323 L1081.0923,859.8657 L1081.0645,863.9139 L1080.7264,867.9523 L1080.7713,872.0028 L1080.8974,872.0081 L1080.7065,876.1323 L1080.6679,880.263 L1080.1463,884.3733 L1080.0143,888.5001 L1079.8996,892.6275 L1080.0965,892.6364 L1079.7583,901.4175 L1078.8857,910.1747 L1078.634,918.9597 L1078.3932,927.7452 L1077.9338,936.5209 L1077.6624,936.5113 L1077.9203,941.3248 L1077.7075,946.1215 L1077.3777,950.9141 L1077.3152,955.7162 L1077.0816,960.5122 L1077.4053,960.5198 L1076.8218,965.6762 L1076.9801,970.8499 L1076.8463,976.0168 L1076.6501,981.1822 L1076.4779,986.3482 L1076.5405,986.3488 L1076.4815,991.9571 L1076.1068,997.5628 L1076.1592,1003.1721 L1076.0854,1008.7803 L1076.2437,1014.3904 L1076.2721,1014.3906 L1076.3341,1020.5127 L1076.4181,1026.6348 L1076.2682,1032.7551 L1076.4187,1038.8778 L1076.5,1045 L1076.4466,1045 L1076.7564,1048.6 L1076.6896,1052.2 L1076.2842,1055.8 L1076.4676,1059.4 L1076.5,1063 L1076.2586,1062.9132 L1075.6944,1065.6186 L1074.902,1068.242 L1073.949,1070.8077 L1072.6128,1073.2355 L1071.8687,1075.8763 L1072.0537,1075.9675 L1070.345,1078.2168 L1069.493,1080.8891 L1068.0662,1083.2776 L1066.9963,1085.8423 L1065.73,1088.31 " fill="none" style="stroke:#181818;stroke-width:1.0;"/><polygon fill="#181818" points="1063.22,1092.72,1063.2616,1092.7764,1064.7236,1091.4401,1066.4294,1090.4344,1068.0558,1089.321,1069.4212,1087.8536,1071.1479,1086.8763,1071.141,1086.8513,1070.0192,1087.0388,1068.9321,1087.3523,1067.8689,1087.7532,1066.7229,1087.8525,1065.693,1088.3744,1065.871,1088.4233,1065.1908,1087.2278,1065.0302,1086.175,1064.933,1085.1396,1064.4669,1084.0029,1064.1949,1082.9195,1064.2175,1082.9218,1063.9893,1084.8786,1063.8642,1086.8456,1063.6893,1088.8077,1063.6093,1090.7792,1063.22,1092.72" style="stroke:#181818;stroke-width:1.0;"/><text fill="#000000" font-family="FG Virgil" font-size="13" lengthAdjust="spacing" textLength="87" x="1082.5" y="852.4951">userRepository</text></g><!--MD5=[5a76791818c423683f043f89198ee7c7]
@startuml
'http://plantuml.com/skinparam.html
skinparam handwritten true
skinparam monochrome true
skinparam packageStyle rect
skinparam defaultFontName FG Virgil
skinparam shadowing false

class RegisterUserUI <<presentation>>
class AddUserController <<application>>
class AuthorizationService <<service>>
class UserManagementService <<service>>
class AuthzRegistry <<util>>
class UserBuilder <<builder>>
class "user:User" <<domain>>
class PersistenceContext  <<persistence>>
class RepositoryFactory  <<factory>>
class UserRepository <<repository>>

RegisterUserUI - -> AddUserController : theController
AddUserController - -> AuthorizationService : authz
AddUserController - -> UserManagementService : userSvc
AddUserController ..> AuthzRegistry
AuthzRegistry ..> AuthorizationService
AuthzRegistry ..> UserManagementService
UserManagementService - -> UserBuilder : userBuilder
UserBuilder - -> "user:User"
UserManagementService - -> PersistenceContext : persistence
PersistenceContext - -> RepositoryFactory : factory
RepositoryFactory - -> UserRepository : userRepository
UserManagementService - -> UserRepository : userRepository

RegisterUserUI : doShow()
RegisterUserUI : chooseRole()
UserRepository : save(User)
AddUserController : addUser(String, String, String, String, Role, String, String, String)
AddUserController : addUser(String, String, String, String, Role, String, String, String, Calendar)
AuthorizationService : ensureAuthenticatedUserHasAnyOf(Role...)
UserManagementService : registerNewUser(String, String, String, String, Role, String, String, String, Calendar)
UserManagementService : generateMecNumber()
UserBuilder : with(String, String, String, String, String, Role, String)
UserBuilder : createdOn(Calendar)
UserBuilder : withAcronym(String)
UserBuilder : withMecanographicNumber(String)
UserBuilder : build()
PersistenceContext : repositories()
RepositoryFactory : users()
"user:User" : User(ShortName, FullName, Password, EmailAddress, Role, BirthDate, MecanographicNumber, TaxPayerNumber, Acronym, Calendar)
"user:User" : validateParameters(ShortName, FullName, EmailAddress, Role, Password, Calendar)
"user:User" : validateMecNumber(MecanographicNumber, Role)
"user:User" : validateMecNumber(Acronym, Role)
AuthzRegistry : authorizationService()
AuthzRegistry : userService()


@enduml

@startuml
skinparam handwritten true
skinparam monochrome true
skinparam packageStyle rect
skinparam defaultFontName FG Virgil
skinparam shadowing false

class RegisterUserUI <<presentation>>
class AddUserController <<application>>
class AuthorizationService <<service>>
class UserManagementService <<service>>
class AuthzRegistry <<util>>
class UserBuilder <<builder>>
class "user:User" <<domain>>
class PersistenceContext  <<persistence>>
class RepositoryFactory  <<factory>>
class UserRepository <<repository>>

RegisterUserUI - -> AddUserController : theController
AddUserController - -> AuthorizationService : authz
AddUserController - -> UserManagementService : userSvc
AddUserController ..> AuthzRegistry
AuthzRegistry ..> AuthorizationService
AuthzRegistry ..> UserManagementService
UserManagementService - -> UserBuilder : userBuilder
UserBuilder - -> "user:User"
UserManagementService - -> PersistenceContext : persistence
PersistenceContext - -> RepositoryFactory : factory
RepositoryFactory - -> UserRepository : userRepository
UserManagementService - -> UserRepository : userRepository

RegisterUserUI : doShow()
RegisterUserUI : chooseRole()
UserRepository : save(User)
AddUserController : addUser(String, String, String, String, Role, String, String, String)
AddUserController : addUser(String, String, String, String, Role, String, String, String, Calendar)
AuthorizationService : ensureAuthenticatedUserHasAnyOf(Role...)
UserManagementService : registerNewUser(String, String, String, String, Role, String, String, String, Calendar)
UserManagementService : generateMecNumber()
UserBuilder : with(String, String, String, String, String, Role, String)
UserBuilder : createdOn(Calendar)
UserBuilder : withAcronym(String)
UserBuilder : withMecanographicNumber(String)
UserBuilder : build()
PersistenceContext : repositories()
RepositoryFactory : users()
"user:User" : User(ShortName, FullName, Password, EmailAddress, Role, BirthDate, MecanographicNumber, TaxPayerNumber, Acronym, Calendar)
"user:User" : validateParameters(ShortName, FullName, EmailAddress, Role, Password, Calendar)
"user:User" : validateMecNumber(MecanographicNumber, Role)
"user:User" : validateMecNumber(Acronym, Role)
AuthzRegistry : authorizationService()
AuthzRegistry : userService()


@enduml

PlantUML version 1.2022.7(Mon Aug 22 18:01:30 BST 2022)
(GPL source distribution)
Java Runtime: Java(TM) SE Runtime Environment
JVM: Java HotSpot(TM) 64-Bit Server VM
Default Encoding: Cp1252
Language: pt
Country: PT
--></g></svg>