<?xml version="1.0" encoding="us-ascii" standalone="no"?><svg xmlns="http://www.w3.org/2000/svg" xmlns:xlink="http://www.w3.org/1999/xlink" contentStyleType="text/css" height="1068px" preserveAspectRatio="none" style="width:1553px;height:1068px;background:#FFFFFF;" version="1.1" viewBox="0 0 1553 1068" width="1553px" zoomAndPan="magnify"><defs/><g><!--cluster BoardAggregate--><g id="cluster_BoardAggregate"><rect fill="none" height="595" rx="2.5" ry="2.5" style="stroke:#000000;stroke-width:1.5;" width="716" x="7" y="34"/><text fill="#000000" font-family="sans-serif" font-size="14" font-weight="bold" lengthAdjust="spacing" textLength="115" x="307.5" y="51.1074">BoardAggregate</text></g><!--cluster User Aggregate--><g id="cluster_User Aggregate"><rect fill="none" height="799" rx="2.5" ry="2.5" style="stroke:#000000;stroke-width:1.5;" width="756" x="791" y="7"/><text fill="#000000" font-family="sans-serif" font-size="14" font-weight="bold" lengthAdjust="spacing" textLength="110" x="1114" y="24.1074">User Aggregate</text></g><!--cluster PostItAggregate--><g id="cluster_PostItAggregate"><rect fill="none" height="409" rx="2.5" ry="2.5" style="stroke:#000000;stroke-width:1.5;" width="397.5" x="66.5" y="653"/><text fill="#000000" font-family="sans-serif" font-size="14" font-weight="bold" lengthAdjust="spacing" textLength="113" x="208.75" y="670.1074">PostItAggregate</text></g><!--class SharedBoard--><g id="elem_SharedBoard"><rect codeLine="25" fill="#D8F5FF" height="68.543" id="SharedBoard" rx="2.5" ry="2.5" style="stroke:#1E90FF;stroke-width:0.5;" width="116" x="590.5" y="395.5"/><ellipse cx="605.5" cy="425.7715" fill="#ADD1B2" rx="11" ry="11" style="stroke:#181818;stroke-width:1.0;"/><path d="M604.3594,426.5684 L604.3594,429.0684 L608.6875,429.0684 L608.6875,428.1465 Q608.6875,427.5371 608.9219,427.2715 Q609.1719,427.0059 609.5469,427.0059 Q609.9219,427.0059 610.1563,427.2715 Q610.3906,427.5371 610.3906,428.1465 L610.3906,430.7715 L602.3906,430.7715 Q601.7656,430.7715 601.5,430.5371 Q601.25,430.3027 601.25,429.9121 Q601.25,429.5371 601.5156,429.3027 Q601.7813,429.0684 602.3906,429.0684 L602.6563,429.0684 L602.6563,422.4121 L602.3906,422.4121 Q601.7656,422.4121 601.5,422.1777 Q601.25,421.9434 601.25,421.5527 Q601.25,421.1777 601.5,420.9434 Q601.7656,420.709 602.3906,420.709 L610.0156,420.709 L610.0156,423.3027 Q610.0156,423.9121 609.7813,424.1777 Q609.5625,424.4277 609.1719,424.4277 Q608.7969,424.4277 608.5625,424.1777 Q608.3281,423.9121 608.3281,423.3027 L608.3281,422.4121 L604.3594,422.4121 L604.3594,424.8652 L605.8438,424.8652 Q605.8438,424.209 605.9688,424.0215 Q606.2344,423.6152 606.7031,423.6152 Q607.0781,423.6152 607.3125,423.8809 Q607.5469,424.1309 607.5469,424.7402 L607.5469,426.709 Q607.5469,427.2559 607.4219,427.4434 Q607.1563,427.834 606.7031,427.834 Q606.2344,427.834 605.9688,427.4277 Q605.8438,427.2402 605.8438,426.5684 L604.3594,426.5684 Z " fill="#000000"/><text fill="#000000" font-family="sans-serif" font-size="12" font-style="italic" lengthAdjust="spacing" textLength="43" x="640" y="413.4492">&#171;entity&#187;</text><text fill="#000000" font-family="sans-serif" font-size="12" font-style="italic" lengthAdjust="spacing" textLength="35" x="644" y="429.4102">&#171;root&#187;</text><text fill="#000000" font-family="sans-serif" font-size="14" lengthAdjust="spacing" textLength="84" x="619.5" y="447.5293">SharedBoard</text><line style="stroke:#1E90FF;stroke-width:0.5;" x1="591.5" x2="705.5" y1="456.043" y2="456.043"/></g><!--class BoardEntry--><g id="elem_BoardEntry"><rect codeLine="44" fill="#D8F5FF" height="52.582" id="BoardEntry" rx="2.5" ry="2.5" style="stroke:#1E90FF;stroke-width:0.5;" width="103" x="354.5" y="403.5"/><ellipse cx="369.5" cy="425.791" fill="#ADD1B2" rx="11" ry="11" style="stroke:#181818;stroke-width:1.0;"/><path d="M368.3594,426.5879 L368.3594,429.0879 L372.6875,429.0879 L372.6875,428.166 Q372.6875,427.5566 372.9219,427.291 Q373.1719,427.0254 373.5469,427.0254 Q373.9219,427.0254 374.1563,427.291 Q374.3906,427.5566 374.3906,428.166 L374.3906,430.791 L366.3906,430.791 Q365.7656,430.791 365.5,430.5566 Q365.25,430.3223 365.25,429.9316 Q365.25,429.5566 365.5156,429.3223 Q365.7813,429.0879 366.3906,429.0879 L366.6563,429.0879 L366.6563,422.4316 L366.3906,422.4316 Q365.7656,422.4316 365.5,422.1973 Q365.25,421.9629 365.25,421.5723 Q365.25,421.1973 365.5,420.9629 Q365.7656,420.7285 366.3906,420.7285 L374.0156,420.7285 L374.0156,423.3223 Q374.0156,423.9316 373.7813,424.1973 Q373.5625,424.4473 373.1719,424.4473 Q372.7969,424.4473 372.5625,424.1973 Q372.3281,423.9316 372.3281,423.3223 L372.3281,422.4316 L368.3594,422.4316 L368.3594,424.8848 L369.8438,424.8848 Q369.8438,424.2285 369.9688,424.041 Q370.2344,423.6348 370.7031,423.6348 Q371.0781,423.6348 371.3125,423.9004 Q371.5469,424.1504 371.5469,424.7598 L371.5469,426.7285 Q371.5469,427.2754 371.4219,427.4629 Q371.1563,427.8535 370.7031,427.8535 Q370.2344,427.8535 369.9688,427.4473 Q369.8438,427.2598 369.8438,426.5879 L368.3594,426.5879 Z " fill="#000000"/><text fill="#000000" font-family="sans-serif" font-size="12" font-style="italic" lengthAdjust="spacing" textLength="44" x="397" y="421.4492">&#171;Entity&#187;</text><text fill="#000000" font-family="sans-serif" font-size="14" lengthAdjust="spacing" textLength="71" x="383.5" y="439.5684">BoardEntry</text><line style="stroke:#1E90FF;stroke-width:0.5;" x1="355.5" x2="456.5" y1="448.082" y2="448.082"/></g><!--class BoardPermissions--><g id="elem_BoardPermissions"><rect codeLine="58" fill="#D8F5FF" height="52.582" id="BoardPermissions" rx="2.5" ry="2.5" style="stroke:#1E90FF;stroke-width:0.5;" width="146" x="333" y="71.5"/><ellipse cx="348" cy="93.791" fill="#ADD1B2" rx="11" ry="11" style="stroke:#181818;stroke-width:1.0;"/><path d="M346.8594,94.5879 L346.8594,97.0879 L351.1875,97.0879 L351.1875,96.166 Q351.1875,95.5566 351.4219,95.291 Q351.6719,95.0254 352.0469,95.0254 Q352.4219,95.0254 352.6563,95.291 Q352.8906,95.5566 352.8906,96.166 L352.8906,98.791 L344.8906,98.791 Q344.2656,98.791 344,98.5566 Q343.75,98.3223 343.75,97.9316 Q343.75,97.5566 344.0156,97.3223 Q344.2813,97.0879 344.8906,97.0879 L345.1563,97.0879 L345.1563,90.4316 L344.8906,90.4316 Q344.2656,90.4316 344,90.1973 Q343.75,89.9629 343.75,89.5723 Q343.75,89.1973 344,88.9629 Q344.2656,88.7285 344.8906,88.7285 L352.5156,88.7285 L352.5156,91.3223 Q352.5156,91.9316 352.2813,92.1973 Q352.0625,92.4473 351.6719,92.4473 Q351.2969,92.4473 351.0625,92.1973 Q350.8281,91.9316 350.8281,91.3223 L350.8281,90.4316 L346.8594,90.4316 L346.8594,92.8848 L348.3438,92.8848 Q348.3438,92.2285 348.4688,92.041 Q348.7344,91.6348 349.2031,91.6348 Q349.5781,91.6348 349.8125,91.9004 Q350.0469,92.1504 350.0469,92.7598 L350.0469,94.7285 Q350.0469,95.2754 349.9219,95.4629 Q349.6563,95.8535 349.2031,95.8535 Q348.7344,95.8535 348.4688,95.4473 Q348.3438,95.2598 348.3438,94.5879 L346.8594,94.5879 Z " fill="#000000"/><text fill="#000000" font-family="sans-serif" font-size="12" font-style="italic" lengthAdjust="spacing" textLength="44" x="397" y="89.4492">&#171;Entity&#187;</text><text fill="#000000" font-family="sans-serif" font-size="14" lengthAdjust="spacing" textLength="114" x="362" y="107.5684">BoardPermissions</text><line style="stroke:#1E90FF;stroke-width:0.5;" x1="334" x2="478" y1="116.082" y2="116.082"/></g><!--class BoardCreateConfig--><g id="elem_BoardCreateConfig"><rect codeLine="62" fill="#D8F5FF" height="52.582" id="BoardCreateConfig" rx="2.5" ry="2.5" style="stroke:#1E90FF;stroke-width:0.5;" width="154" x="329" y="159.5"/><ellipse cx="344" cy="181.791" fill="#ADD1B2" rx="11" ry="11" style="stroke:#181818;stroke-width:1.0;"/><path d="M346.7656,177.666 Q346.9219,177.4473 347.1094,177.3379 Q347.2969,177.2285 347.5156,177.2285 Q347.8906,177.2285 348.125,177.4941 Q348.3594,177.7441 348.3594,178.3535 L348.3594,179.8066 Q348.3594,180.416 348.125,180.6816 Q347.8906,180.9473 347.5156,180.9473 Q347.1719,180.9473 346.9688,180.7441 Q346.7656,180.5566 346.6563,180.041 Q346.6094,179.6816 346.4219,179.4941 Q346.0938,179.1191 345.4844,178.9004 Q344.875,178.6816 344.25,178.6816 Q343.4844,178.6816 342.8438,179.0098 Q342.2188,179.3379 341.7188,180.0879 Q341.2344,180.8379 341.2344,181.8691 L341.2344,182.9629 Q341.2344,184.1973 342.125,185.0254 Q343.0156,185.8379 344.6094,185.8379 Q345.5469,185.8379 346.2031,185.5879 Q346.5938,185.4316 347.0156,184.9941 Q347.2813,184.7285 347.4219,184.6504 Q347.5781,184.5723 347.7813,184.5723 Q348.1094,184.5723 348.3594,184.8379 Q348.625,185.0879 348.625,185.4316 Q348.625,185.7754 348.2813,186.1816 Q347.7813,186.7598 346.9844,187.0879 Q345.9063,187.541 344.6094,187.541 Q343.0938,187.541 341.8906,186.916 Q340.9063,186.416 340.2188,185.3535 Q339.5313,184.2754 339.5313,182.9941 L339.5313,181.8379 Q339.5313,180.5098 340.1406,179.3691 Q340.7656,178.2129 341.8594,177.6035 Q342.9531,176.9785 344.1875,176.9785 Q344.9219,176.9785 345.5625,177.1504 Q346.2188,177.3066 346.7656,177.666 Z " fill="#000000"/><text fill="#000000" font-family="sans-serif" font-size="12" font-style="italic" lengthAdjust="spacing" textLength="32" x="403" y="177.4492">&#171;Util&#187;</text><text fill="#000000" font-family="sans-serif" font-size="14" lengthAdjust="spacing" textLength="122" x="358" y="195.5684">BoardCreateConfig</text><line style="stroke:#1E90FF;stroke-width:0.5;" x1="330" x2="482" y1="204.082" y2="204.082"/></g><g id="elem_GMN25"><path d="M23,155 L23,216.873 A0,0 0 0 0 23,216.873 L268,216.873 A0,0 0 0 0 268,216.873 L268,190 L328.9,186 L268,182 L268,165 L258,155 L23,155 A0,0 0 0 0 23,155 " fill="#FEFFDD" style="stroke:#181818;stroke-width:0.5;"/><path d="M258,155 L258,165 L268,165 L258,155 " fill="#FEFFDD" style="stroke:#181818;stroke-width:0.5;"/><text fill="#000000" font-family="sans-serif" font-size="13" lengthAdjust="spacing" textLength="224" x="29" y="174.0283">This will be extracted from a config file,</text><text fill="#000000" font-family="sans-serif" font-size="13" lengthAdjust="spacing" textLength="107" x="29" y="191.3193">the default value is</text><text fill="#000000" font-family="sans-serif" font-size="13" lengthAdjust="spacing" textLength="141" x="29" y="208.6104">20 rows and 10 columns</text></g><!--entity BoardTitle--><g id="elem_BoardTitle"><rect fill="#D8F5FF" height="43.2422" rx="2.5" ry="2.5" style="stroke:#1E90FF;stroke-width:0.5;" width="117" x="347.5" y="491.5"/><text fill="#000000" font-family="sans-serif" font-size="14" font-style="italic" lengthAdjust="spacing" textLength="97" x="357.5" y="509.6074">&#171;Value Object&#187;</text><text fill="#000000" font-family="sans-serif" font-size="14" lengthAdjust="spacing" textLength="65" x="373.5" y="528.2285">BoardTitle</text></g><!--entity BoardNRow--><g id="elem_BoardNRow"><rect fill="#D8F5FF" height="43.2422" rx="2.5" ry="2.5" style="stroke:#1E90FF;stroke-width:0.5;" width="117" x="347.5" y="569.5"/><text fill="#000000" font-family="sans-serif" font-size="14" font-style="italic" lengthAdjust="spacing" textLength="97" x="357.5" y="587.6074">&#171;Value Object&#187;</text><text fill="#000000" font-family="sans-serif" font-size="14" lengthAdjust="spacing" textLength="74" x="369" y="606.2285">BoardNRow</text></g><!--entity BoardNCol--><g id="elem_BoardNCol"><rect fill="#D8F5FF" height="43.2422" rx="2.5" ry="2.5" style="stroke:#1E90FF;stroke-width:0.5;" width="117" x="347.5" y="247.5"/><text fill="#000000" font-family="sans-serif" font-size="14" font-style="italic" lengthAdjust="spacing" textLength="97" x="357.5" y="265.6074">&#171;Value Object&#187;</text><text fill="#000000" font-family="sans-serif" font-size="14" lengthAdjust="spacing" textLength="68" x="372" y="284.2285">BoardNCol</text></g><!--entity BoardState--><g id="elem_BoardState"><rect fill="#D8F5FF" height="43.2422" rx="2.5" ry="2.5" style="stroke:#1E90FF;stroke-width:0.5;" width="117" x="347.5" y="325.5"/><text fill="#000000" font-family="sans-serif" font-size="14" font-style="italic" lengthAdjust="spacing" textLength="97" x="357.5" y="343.6074">&#171;Value Object&#187;</text><text fill="#000000" font-family="sans-serif" font-size="14" lengthAdjust="spacing" textLength="71" x="370.5" y="362.2285">BoardState</text></g><!--entity EntryTitle--><g id="elem_EntryTitle"><rect fill="#D8F5FF" height="43.2422" rx="2.5" ry="2.5" style="stroke:#1E90FF;stroke-width:0.5;" width="117" x="87" y="274.5"/><text fill="#000000" font-family="sans-serif" font-size="14" font-style="italic" lengthAdjust="spacing" textLength="97" x="97" y="292.6074">&#171;Value Object&#187;</text><text fill="#000000" font-family="sans-serif" font-size="14" lengthAdjust="spacing" textLength="60" x="115.5" y="311.2285">EntryTitle</text></g><!--entity EntryNumber--><g id="elem_EntryNumber"><rect fill="#D8F5FF" height="43.2422" rx="2.5" ry="2.5" style="stroke:#1E90FF;stroke-width:0.5;" width="117" x="87" y="352.5"/><text fill="#000000" font-family="sans-serif" font-size="14" font-style="italic" lengthAdjust="spacing" textLength="97" x="97" y="370.6074">&#171;Value Object&#187;</text><text fill="#000000" font-family="sans-serif" font-size="14" lengthAdjust="spacing" textLength="82" x="104.5" y="389.2285">EntryNumber</text></g><!--entity BoardRow--><g id="elem_BoardRow"><rect fill="#D8F5FF" height="43.2422" rx="2.5" ry="2.5" style="stroke:#1E90FF;stroke-width:0.5;" width="117" x="87" y="430.5"/><text fill="#000000" font-family="sans-serif" font-size="14" font-style="italic" lengthAdjust="spacing" textLength="97" x="97" y="448.6074">&#171;Value Object&#187;</text><text fill="#000000" font-family="sans-serif" font-size="14" lengthAdjust="spacing" textLength="65" x="113" y="467.2285">BoardRow</text></g><!--entity BoardCol--><g id="elem_BoardCol"><rect fill="#D8F5FF" height="43.2422" rx="2.5" ry="2.5" style="stroke:#1E90FF;stroke-width:0.5;" width="117" x="87" y="508.5"/><text fill="#000000" font-family="sans-serif" font-size="14" font-style="italic" lengthAdjust="spacing" textLength="97" x="97" y="526.6074">&#171;Value Object&#187;</text><text fill="#000000" font-family="sans-serif" font-size="14" lengthAdjust="spacing" textLength="59" x="116" y="545.2285">BoardCol</text></g><!--entity AccessLevel--><g id="elem_AccessLevel"><rect fill="#D8F5FF" height="43.2422" rx="2.5" ry="2.5" style="stroke:#1E90FF;stroke-width:0.5;" width="117" x="590" y="86.5"/><text fill="#000000" font-family="sans-serif" font-size="14" font-style="italic" lengthAdjust="spacing" textLength="97" x="600" y="104.6074">&#171;Value Object&#187;</text><text fill="#000000" font-family="sans-serif" font-size="14" lengthAdjust="spacing" textLength="79" x="609" y="123.2285">AccessLevel</text></g><!--entity BoardMaxRow--><g id="elem_BoardMaxRow"><rect fill="#D8F5FF" height="43.2422" rx="2.5" ry="2.5" style="stroke:#1E90FF;stroke-width:0.5;" width="117" x="590" y="242.5"/><text fill="#000000" font-family="sans-serif" font-size="14" font-style="italic" lengthAdjust="spacing" textLength="97" x="600" y="260.6074">&#171;Value Object&#187;</text><text fill="#000000" font-family="sans-serif" font-size="14" lengthAdjust="spacing" textLength="90" x="603.5" y="279.2285">BoardMaxRow</text></g><!--entity BoardMaxCol--><g id="elem_BoardMaxCol"><rect fill="#D8F5FF" height="43.2422" rx="2.5" ry="2.5" style="stroke:#1E90FF;stroke-width:0.5;" width="117" x="590" y="164.5"/><text fill="#000000" font-family="sans-serif" font-size="14" font-style="italic" lengthAdjust="spacing" textLength="97" x="600" y="182.6074">&#171;Value Object&#187;</text><text fill="#000000" font-family="sans-serif" font-size="14" lengthAdjust="spacing" textLength="84" x="606.5" y="201.2285">BoardMaxCol</text></g><!--class User--><g id="elem_User"><rect codeLine="80" fill="#D8F5FF" height="68.543" id="User" rx="2.5" ry="2.5" style="stroke:#1E90FF;stroke-width:0.5;" width="71" x="868.5" y="395.5"/><ellipse cx="883.5" cy="425.7715" fill="#ADD1B2" rx="11" ry="11" style="stroke:#181818;stroke-width:1.0;"/><path d="M882.3594,426.5684 L882.3594,429.0684 L886.6875,429.0684 L886.6875,428.1465 Q886.6875,427.5371 886.9219,427.2715 Q887.1719,427.0059 887.5469,427.0059 Q887.9219,427.0059 888.1563,427.2715 Q888.3906,427.5371 888.3906,428.1465 L888.3906,430.7715 L880.3906,430.7715 Q879.7656,430.7715 879.5,430.5371 Q879.25,430.3027 879.25,429.9121 Q879.25,429.5371 879.5156,429.3027 Q879.7813,429.0684 880.3906,429.0684 L880.6563,429.0684 L880.6563,422.4121 L880.3906,422.4121 Q879.7656,422.4121 879.5,422.1777 Q879.25,421.9434 879.25,421.5527 Q879.25,421.1777 879.5,420.9434 Q879.7656,420.709 880.3906,420.709 L888.0156,420.709 L888.0156,423.3027 Q888.0156,423.9121 887.7813,424.1777 Q887.5625,424.4277 887.1719,424.4277 Q886.7969,424.4277 886.5625,424.1777 Q886.3281,423.9121 886.3281,423.3027 L886.3281,422.4121 L882.3594,422.4121 L882.3594,424.8652 L883.8438,424.8652 Q883.8438,424.209 883.9688,424.0215 Q884.2344,423.6152 884.7031,423.6152 Q885.0781,423.6152 885.3125,423.8809 Q885.5469,424.1309 885.5469,424.7402 L885.5469,426.709 Q885.5469,427.2559 885.4219,427.4434 Q885.1563,427.834 884.7031,427.834 Q884.2344,427.834 883.9688,427.4277 Q883.8438,427.2402 883.8438,426.5684 L882.3594,426.5684 Z " fill="#000000"/><text fill="#000000" font-family="sans-serif" font-size="12" font-style="italic" lengthAdjust="spacing" textLength="43" x="895.5" y="413.4492">&#171;entity&#187;</text><text fill="#000000" font-family="sans-serif" font-size="12" font-style="italic" lengthAdjust="spacing" textLength="35" x="899.5" y="429.4102">&#171;root&#187;</text><text fill="#000000" font-family="sans-serif" font-size="14" lengthAdjust="spacing" textLength="29" x="902.5" y="447.5293">User</text><line style="stroke:#1E90FF;stroke-width:0.5;" x1="869.5" x2="938.5" y1="456.043" y2="456.043"/></g><g id="elem_GMN44"><path d="M1297,754.5 L1297,764 L1207.72,768 L1297,772 L1297,781.791 A0,0 0 0 0 1297,781.791 L1531,781.791 A0,0 0 0 0 1531,781.791 L1531,764.5 L1521,754.5 L1297,754.5 A0,0 0 0 0 1297,754.5 " fill="#FEFFDD" style="stroke:#181818;stroke-width:0.5;"/><path d="M1521,754.5 L1521,764.5 L1531,764.5 L1521,754.5 " fill="#FEFFDD" style="stroke:#181818;stroke-width:0.5;"/><text fill="#000000" font-family="sans-serif" font-size="13" lengthAdjust="spacing" textLength="213" x="1303" y="773.5283">Can be Teacher, Student or Manager</text></g><g id="elem_GMN57"><path d="M807,744.5 L807,789.082 A0,0 0 0 0 807,789.082 L1001,789.082 A0,0 0 0 0 1001,789.082 L1001,771.4 L1090.43,767.76 L1001,763.4 L1001,754.5 L991,744.5 L807,744.5 A0,0 0 0 0 807,744.5 " fill="#FEFFDD" style="stroke:#181818;stroke-width:0.5;"/><path d="M991,744.5 L991,754.5 L1001,754.5 L991,744.5 " fill="#FEFFDD" style="stroke:#181818;stroke-width:0.5;"/><text fill="#000000" font-family="sans-serif" font-size="13" lengthAdjust="spacing" textLength="173" x="813" y="763.5283">This is only used for purposes</text><text fill="#000000" font-family="sans-serif" font-size="13" lengthAdjust="spacing" textLength="88" x="813" y="780.8193">of authorization</text></g><!--entity EmailAddress--><g id="elem_EmailAddress"><rect fill="#D8F5FF" height="43.2422" rx="2.5" ry="2.5" style="stroke:#1E90FF;stroke-width:0.5;" width="117" x="1090.5" y="200.5"/><text fill="#000000" font-family="sans-serif" font-size="14" font-style="italic" lengthAdjust="spacing" textLength="97" x="1100.5" y="218.6074">&#171;Value Object&#187;</text><text fill="#000000" font-family="sans-serif" font-size="14" lengthAdjust="spacing" textLength="86" x="1106" y="237.2285">EmailAddress</text></g><!--entity Password--><g id="elem_Password"><rect fill="#D8F5FF" height="43.2422" rx="2.5" ry="2.5" style="stroke:#1E90FF;stroke-width:0.5;" width="117" x="1090.5" y="122.5"/><text fill="#000000" font-family="sans-serif" font-size="14" font-style="italic" lengthAdjust="spacing" textLength="97" x="1100.5" y="140.6074">&#171;Value Object&#187;</text><text fill="#000000" font-family="sans-serif" font-size="14" lengthAdjust="spacing" textLength="61" x="1118.5" y="159.2285">Password</text></g><!--entity FullName--><g id="elem_FullName"><rect fill="#D8F5FF" height="43.2422" rx="2.5" ry="2.5" style="stroke:#1E90FF;stroke-width:0.5;" width="117" x="1090.5" y="44.5"/><text fill="#000000" font-family="sans-serif" font-size="14" font-style="italic" lengthAdjust="spacing" textLength="97" x="1100.5" y="62.6074">&#171;Value Object&#187;</text><text fill="#000000" font-family="sans-serif" font-size="14" lengthAdjust="spacing" textLength="59" x="1119.5" y="81.2285">FullName</text></g><!--entity ShortName--><g id="elem_ShortName"><rect fill="#D8F5FF" height="43.2422" rx="2.5" ry="2.5" style="stroke:#1E90FF;stroke-width:0.5;" width="117" x="1090.5" y="668.5"/><text fill="#000000" font-family="sans-serif" font-size="14" font-style="italic" lengthAdjust="spacing" textLength="97" x="1100.5" y="686.6074">&#171;Value Object&#187;</text><text fill="#000000" font-family="sans-serif" font-size="14" lengthAdjust="spacing" textLength="70" x="1114" y="705.2285">ShortName</text></g><!--entity UserState--><g id="elem_UserState"><rect fill="#D8F5FF" height="43.2422" rx="2.5" ry="2.5" style="stroke:#1E90FF;stroke-width:0.5;" width="117" x="1090.5" y="590.5"/><text fill="#000000" font-family="sans-serif" font-size="14" font-style="italic" lengthAdjust="spacing" textLength="97" x="1100.5" y="608.6074">&#171;Value Object&#187;</text><text fill="#000000" font-family="sans-serif" font-size="14" lengthAdjust="spacing" textLength="62" x="1118" y="627.2285">UserState</text></g><!--entity MechanographicNumber--><g id="elem_MechanographicNumber"><rect fill="#D8F5FF" height="43.2422" rx="2.5" ry="2.5" style="stroke:#1E90FF;stroke-width:0.5;" width="174" x="1062" y="512.5"/><text fill="#000000" font-family="sans-serif" font-size="14" font-style="italic" lengthAdjust="spacing" textLength="97" x="1100.5" y="530.6074">&#171;Value Object&#187;</text><text fill="#000000" font-family="sans-serif" font-size="14" lengthAdjust="spacing" textLength="154" x="1072" y="549.2285">MechanographicNumber</text></g><!--entity Acronym--><g id="elem_Acronym"><rect fill="#D8F5FF" height="43.2422" rx="2.5" ry="2.5" style="stroke:#1E90FF;stroke-width:0.5;" width="117" x="1090.5" y="434.5"/><text fill="#000000" font-family="sans-serif" font-size="14" font-style="italic" lengthAdjust="spacing" textLength="97" x="1100.5" y="452.6074">&#171;Value Object&#187;</text><text fill="#000000" font-family="sans-serif" font-size="14" lengthAdjust="spacing" textLength="55" x="1121.5" y="471.2285">Acronym</text></g><!--entity BirthDate--><g id="elem_BirthDate"><rect fill="#D8F5FF" height="43.2422" rx="2.5" ry="2.5" style="stroke:#1E90FF;stroke-width:0.5;" width="117" x="1090.5" y="356.5"/><text fill="#000000" font-family="sans-serif" font-size="14" font-style="italic" lengthAdjust="spacing" textLength="97" x="1100.5" y="374.6074">&#171;Value Object&#187;</text><text fill="#000000" font-family="sans-serif" font-size="14" lengthAdjust="spacing" textLength="59" x="1119.5" y="393.2285">BirthDate</text></g><!--entity TaxPayerNumber--><g id="elem_TaxPayerNumber"><rect fill="#D8F5FF" height="43.2422" rx="2.5" ry="2.5" style="stroke:#1E90FF;stroke-width:0.5;" width="129" x="1084.5" y="278.5"/><text fill="#000000" font-family="sans-serif" font-size="14" font-style="italic" lengthAdjust="spacing" textLength="97" x="1100.5" y="296.6074">&#171;Value Object&#187;</text><text fill="#000000" font-family="sans-serif" font-size="14" lengthAdjust="spacing" textLength="109" x="1094.5" y="315.2285">TaxPayerNumber</text></g><!--entity Role--><g id="elem_Role"><rect fill="#D8F5FF" height="43.2422" rx="2.5" ry="2.5" style="stroke:#1E90FF;stroke-width:0.5;" width="117" x="1090.5" y="746.5"/><text fill="#000000" font-family="sans-serif" font-size="14" font-style="italic" lengthAdjust="spacing" textLength="97" x="1100.5" y="764.6074">&#171;Value Object&#187;</text><text fill="#000000" font-family="sans-serif" font-size="14" lengthAdjust="spacing" textLength="29" x="1134.5" y="783.2285">Role</text></g><!--class PostIt--><g id="elem_PostIt"><rect codeLine="122" fill="#D8F5FF" height="68.543" id="PostIt" rx="2.5" ry="2.5" style="stroke:#1E90FF;stroke-width:0.5;" width="71" x="370.5" y="755.5"/><ellipse cx="385.5" cy="785.7715" fill="#ADD1B2" rx="11" ry="11" style="stroke:#181818;stroke-width:1.0;"/><path d="M384.3594,786.5684 L384.3594,789.0684 L388.6875,789.0684 L388.6875,788.1465 Q388.6875,787.5371 388.9219,787.2715 Q389.1719,787.0059 389.5469,787.0059 Q389.9219,787.0059 390.1563,787.2715 Q390.3906,787.5371 390.3906,788.1465 L390.3906,790.7715 L382.3906,790.7715 Q381.7656,790.7715 381.5,790.5371 Q381.25,790.3027 381.25,789.9121 Q381.25,789.5371 381.5156,789.3027 Q381.7813,789.0684 382.3906,789.0684 L382.6563,789.0684 L382.6563,782.4121 L382.3906,782.4121 Q381.7656,782.4121 381.5,782.1777 Q381.25,781.9434 381.25,781.5527 Q381.25,781.1777 381.5,780.9434 Q381.7656,780.709 382.3906,780.709 L390.0156,780.709 L390.0156,783.3027 Q390.0156,783.9121 389.7813,784.1777 Q389.5625,784.4277 389.1719,784.4277 Q388.7969,784.4277 388.5625,784.1777 Q388.3281,783.9121 388.3281,783.3027 L388.3281,782.4121 L384.3594,782.4121 L384.3594,784.8652 L385.8438,784.8652 Q385.8438,784.209 385.9688,784.0215 Q386.2344,783.6152 386.7031,783.6152 Q387.0781,783.6152 387.3125,783.8809 Q387.5469,784.1309 387.5469,784.7402 L387.5469,786.709 Q387.5469,787.2559 387.4219,787.4434 Q387.1563,787.834 386.7031,787.834 Q386.2344,787.834 385.9688,787.4277 Q385.8438,787.2402 385.8438,786.5684 L384.3594,786.5684 Z " fill="#000000"/><text fill="#000000" font-family="sans-serif" font-size="12" font-style="italic" lengthAdjust="spacing" textLength="43" x="397.5" y="773.4492">&#171;entity&#187;</text><text fill="#000000" font-family="sans-serif" font-size="12" font-style="italic" lengthAdjust="spacing" textLength="35" x="401.5" y="789.4102">&#171;root&#187;</text><text fill="#000000" font-family="sans-serif" font-size="14" lengthAdjust="spacing" textLength="35" x="401.5" y="807.5293">PostIt</text><line style="stroke:#1E90FF;stroke-width:0.5;" x1="371.5" x2="440.5" y1="816.043" y2="816.043"/></g><g id="elem_GMN67"><path d="M364,1000.5 L364,1019.16 L204.19,1023.78 L364,1027.16 L364,1045.082 A0,0 0 0 0 364,1045.082 L448,1045.082 A0,0 0 0 0 448,1045.082 L448,1010.5 L438,1000.5 L364,1000.5 A0,0 0 0 0 364,1000.5 " fill="#FEFFDD" style="stroke:#181818;stroke-width:0.5;"/><path d="M438,1000.5 L438,1010.5 L448,1010.5 L438,1000.5 " fill="#FEFFDD" style="stroke:#181818;stroke-width:0.5;"/><text fill="#000000" font-family="sans-serif" font-size="13" lengthAdjust="spacing" textLength="63" x="370" y="1019.5283">0 - Deleted</text><text fill="#000000" font-family="sans-serif" font-size="13" lengthAdjust="spacing" textLength="54" x="370" y="1036.8193">1 - Active</text></g><!--entity PostItContent--><g id="elem_PostItContent"><rect fill="#D8F5FF" height="43.2422" rx="2.5" ry="2.5" style="stroke:#1E90FF;stroke-width:0.5;" width="117" x="87" y="768.5"/><text fill="#000000" font-family="sans-serif" font-size="14" font-style="italic" lengthAdjust="spacing" textLength="97" x="97" y="786.6074">&#171;Value Object&#187;</text><text fill="#000000" font-family="sans-serif" font-size="14" lengthAdjust="spacing" textLength="85" x="103" y="805.2285">PostItContent</text></g><!--entity PostItRow--><g id="elem_PostItRow"><rect fill="#D8F5FF" height="43.2422" rx="2.5" ry="2.5" style="stroke:#1E90FF;stroke-width:0.5;" width="117" x="87" y="846.5"/><text fill="#000000" font-family="sans-serif" font-size="14" font-style="italic" lengthAdjust="spacing" textLength="97" x="97" y="864.6074">&#171;Value Object&#187;</text><text fill="#000000" font-family="sans-serif" font-size="14" lengthAdjust="spacing" textLength="62" x="114.5" y="883.2285">PostItRow</text></g><!--entity PostItCol--><g id="elem_PostItCol"><rect fill="#D8F5FF" height="43.2422" rx="2.5" ry="2.5" style="stroke:#1E90FF;stroke-width:0.5;" width="117" x="87" y="924.5"/><text fill="#000000" font-family="sans-serif" font-size="14" font-style="italic" lengthAdjust="spacing" textLength="97" x="97" y="942.6074">&#171;Value Object&#187;</text><text fill="#000000" font-family="sans-serif" font-size="14" lengthAdjust="spacing" textLength="56" x="117.5" y="961.2285">PostItCol</text></g><!--entity PostItTimeStamp--><g id="elem_PostItTimeStamp"><rect fill="#D8F5FF" height="43.2422" rx="2.5" ry="2.5" style="stroke:#1E90FF;stroke-width:0.5;" width="126" x="82.5" y="690.5"/><text fill="#000000" font-family="sans-serif" font-size="14" font-style="italic" lengthAdjust="spacing" textLength="97" x="97" y="708.6074">&#171;Value Object&#187;</text><text fill="#000000" font-family="sans-serif" font-size="14" lengthAdjust="spacing" textLength="106" x="92.5" y="727.2285">PostItTimeStamp</text></g><!--entity PostItState--><g id="elem_PostItState"><rect fill="#D8F5FF" height="43.2422" rx="2.5" ry="2.5" style="stroke:#1E90FF;stroke-width:0.5;" width="117" x="87" y="1002.5"/><text fill="#000000" font-family="sans-serif" font-size="14" font-style="italic" lengthAdjust="spacing" textLength="97" x="97" y="1020.6074">&#171;Value Object&#187;</text><text fill="#000000" font-family="sans-serif" font-size="14" lengthAdjust="spacing" textLength="68" x="111.5" y="1039.2285">PostItState</text></g><!--reverse link BoardTitle to SharedBoard--><g id="link_BoardTitle_SharedBoard"><path codeLine="39" d="M469.58,491.4 C506.93,478.51 554.02,462.26 590.36,449.72 " fill="none" id="BoardTitle-backto-SharedBoard" style="stroke:#1E90FF;stroke-width:1.0;"/><polygon fill="#1E90FF" points="464.61,493.12,474.422,493.9712,469.3375,491.4918,471.8169,486.4073,464.61,493.12" style="stroke:#1E90FF;stroke-width:1.0;"/></g><!--reverse link BoardNRow to SharedBoard--><g id="link_BoardNRow_SharedBoard"><path codeLine="40" d="M457.13,566.76 C465.89,562.1 474.82,557.09 483,552 C526.18,525.16 572.45,490.24 604.88,464.64 " fill="none" id="BoardNRow-backto-SharedBoard" style="stroke:#1E90FF;stroke-width:1.0;"/><polygon fill="#1E90FF" points="452.28,569.3,462.1091,568.6767,456.7114,566.9842,458.4039,561.5865,452.28,569.3" style="stroke:#1E90FF;stroke-width:1.0;"/></g><!--reverse link BoardNCol to SharedBoard--><g id="link_BoardNCol_SharedBoard"><path codeLine="41" d="M457.13,293.24 C465.89,297.9 474.82,302.91 483,308 C526.18,334.84 572.45,369.76 604.88,395.36 " fill="none" id="BoardNCol-backto-SharedBoard" style="stroke:#1E90FF;stroke-width:1.0;"/><polygon fill="#1E90FF" points="452.28,290.7,458.4039,298.4135,456.7114,293.0158,462.1091,291.3233,452.28,290.7" style="stroke:#1E90FF;stroke-width:1.0;"/></g><!--reverse link BoardState to SharedBoard--><g id="link_BoardState_SharedBoard"><path codeLine="42" d="M469.58,368.6 C506.93,381.49 554.02,397.74 590.36,410.28 " fill="none" id="BoardState-backto-SharedBoard" style="stroke:#1E90FF;stroke-width:1.0;"/><polygon fill="#1E90FF" points="464.61,366.88,471.8169,373.5927,469.3375,368.5082,474.422,366.0288,464.61,366.88" style="stroke:#1E90FF;stroke-width:1.0;"/></g><!--reverse link BoardEntry to SharedBoard--><g id="link_BoardEntry_SharedBoard"><path codeLine="51" d="M462.78,430 C501,430 551.55,430 590.11,430 " fill="none" id="BoardEntry-backto-SharedBoard" style="stroke:#1E90FF;stroke-width:1.0;"/><polygon fill="#1E90FF" points="457.71,430,466.71,434,462.71,430,466.71,426,457.71,430" style="stroke:#1E90FF;stroke-width:1.0;"/></g><!--reverse link BoardRow to BoardEntry--><g id="link_BoardRow_BoardEntry"><path codeLine="52" d="M209.28,446.66 C253.86,442.86 312.93,437.84 354.47,434.3 " fill="none" id="BoardRow-backto-BoardEntry" style="stroke:#1E90FF;stroke-width:1.0;"/><polygon fill="#1E90FF" points="204.19,447.09,213.4995,450.3045,209.1716,446.6618,212.8144,442.3339,204.19,447.09" style="stroke:#1E90FF;stroke-width:1.0;"/></g><!--reverse link BoardCol to BoardEntry--><g id="link_BoardCol_BoardEntry"><path codeLine="53" d="M208.93,511.39 C228.04,505.31 249.02,498.25 268,491 C297.07,479.9 328.85,465.87 354.48,454.07 " fill="none" id="BoardCol-backto-BoardEntry" style="stroke:#1E90FF;stroke-width:1.0;"/><polygon fill="#1E90FF" points="204.12,512.91,213.9053,514.0268,208.8899,511.4105,211.5061,506.395,204.12,512.91" style="stroke:#1E90FF;stroke-width:1.0;"/></g><!--reverse link EntryNumber to BoardEntry--><g id="link_EntryNumber_BoardEntry"><path codeLine="54" d="M209.28,387.6 C253.86,397.26 312.93,410.05 354.47,419.05 " fill="none" id="EntryNumber-backto-BoardEntry" style="stroke:#1E90FF;stroke-width:1.0;"/><polygon fill="#1E90FF" points="204.19,386.5,212.1405,392.3129,209.0769,387.5574,213.8324,384.4938,204.19,386.5" style="stroke:#1E90FF;stroke-width:1.0;"/></g><!--reverse link EntryTitle to BoardEntry--><g id="link_EntryTitle_BoardEntry"><path codeLine="55" d="M208.95,311.01 C228.52,317.02 249.75,324.95 268,335 C298.95,352.05 300.05,365.74 329,386 C337.49,391.94 346.84,397.83 355.98,403.28 " fill="none" id="EntryTitle-backto-BoardEntry" style="stroke:#1E90FF;stroke-width:1.0;"/><polygon fill="#1E90FF" points="204.02,309.52,211.4823,315.9477,208.8072,310.9633,213.7915,308.2882,204.02,309.52" style="stroke:#1E90FF;stroke-width:1.0;"/></g><!--link BoardCreateConfig to BoardMaxRow--><g id="link_BoardCreateConfig_BoardMaxRow"><path codeLine="75" d="M483.1,210.68 C515.88,221.31 553.76,233.6 584.88,243.69 " fill="none" id="BoardCreateConfig-to-BoardMaxRow" style="stroke:#1E90FF;stroke-width:1.0;"/><polygon fill="#1E90FF" points="589.82,245.29,582.4988,238.7021,585.0653,243.7433,580.0241,246.3097,589.82,245.29" style="stroke:#1E90FF;stroke-width:1.0;"/></g><!--link BoardCreateConfig to BoardMaxCol--><g id="link_BoardCreateConfig_BoardMaxCol"><path codeLine="76" d="M483.1,186 C515.75,186 553.44,186 584.5,186 " fill="none" id="BoardCreateConfig-to-BoardMaxCol" style="stroke:#1E90FF;stroke-width:1.0;"/><polygon fill="#1E90FF" points="589.82,186,580.82,182,584.82,186,580.82,190,589.82,186" style="stroke:#1E90FF;stroke-width:1.0;"/></g><!--link User to EmailAddress--><g id="link_User_EmailAddress"><path codeLine="104" d="M930.34,395.42 C958.96,358.3 1008.54,299.49 1062,261 C1069.63,255.5 1078.17,250.51 1086.81,246.08 " fill="none" id="User-to-EmailAddress" style="stroke:#1E90FF;stroke-width:1.0;"/><polygon fill="#1E90FF" points="1091.62,243.67,1081.7819,244.1298,1087.1507,245.9118,1085.3687,251.2806,1091.62,243.67" style="stroke:#1E90FF;stroke-width:1.0;"/></g><!--link User to Password--><g id="link_User_Password"><path codeLine="105" d="M919.27,395.22 C942.28,342.9 992.18,243.64 1062,183 C1069,176.92 1077.1,171.63 1085.47,167.07 " fill="none" id="User-to-Password" style="stroke:#1E90FF;stroke-width:1.0;"/><polygon fill="#1E90FF" points="1090.15,164.61,1080.3234,165.2712,1085.7276,166.9429,1084.0559,172.3471,1090.15,164.61" style="stroke:#1E90FF;stroke-width:1.0;"/></g><!--link User to FullName--><g id="link_User_FullName"><path codeLine="106" d="M913.25,395.48 C930.4,330.56 975.68,189.25 1062,105 C1068.83,98.33 1077,92.68 1085.55,87.93 " fill="none" id="User-to-FullName" style="stroke:#1E90FF;stroke-width:1.0;"/><polygon fill="#1E90FF" points="1090.33,85.38,1080.5051,86.0661,1085.9135,87.724,1084.2555,93.1325,1090.33,85.38" style="stroke:#1E90FF;stroke-width:1.0;"/></g><!--link User to ShortName--><g id="link_User_ShortName"><path codeLine="107" d="M922.05,464.61 C946.99,512.17 997.54,597.86 1062,651 C1069.15,656.9 1077.34,662.09 1085.75,666.6 " fill="none" id="User-to-ShortName" style="stroke:#1E90FF;stroke-width:1.0;"/><polygon fill="#1E90FF" points="1090.45,669.04,1084.3159,661.3346,1086.0156,666.7301,1080.6201,668.4297,1090.45,669.04" style="stroke:#1E90FF;stroke-width:1.0;"/></g><!--link User to Role--><g id="link_User_Role"><path codeLine="108" d="M914.92,464.61 C933.99,525.54 981.2,652.74 1062,729 C1068.84,735.46 1076.93,740.98 1085.38,745.66 " fill="none" id="User-to-Role" style="stroke:#1E90FF;stroke-width:1.0;"/><polygon fill="#1E90FF" points="1090.1,748.17,1084.0451,740.4022,1085.6894,745.8148,1080.2768,747.4592,1090.1,748.17" style="stroke:#1E90FF;stroke-width:1.0;"/></g><!--link User to UserState--><g id="link_User_UserState"><path codeLine="109" d="M936.74,464.54 C966.78,495.78 1014.27,541.57 1062,573 C1070.35,578.5 1079.61,583.59 1088.87,588.16 " fill="none" id="User-to-UserState" style="stroke:#1E90FF;stroke-width:1.0;"/><polygon fill="#1E90FF" points="1093.41,590.36,1087.062,582.8298,1088.9125,588.1755,1083.5668,590.0259,1093.41,590.36" style="stroke:#1E90FF;stroke-width:1.0;"/></g><!--link User to MechanographicNumber--><g id="link_User_MechanographicNumber"><path codeLine="110" d="M939.56,444.79 C979.46,461.87 1045.64,490.19 1092.72,510.34 " fill="none" id="User-to-MechanographicNumber" style="stroke:#1E90FF;stroke-width:1.0;"/><polygon fill="#1E90FF" points="1097.5,512.39,1090.7844,505.1858,1092.8991,510.4325,1087.6524,512.5472,1097.5,512.39" style="stroke:#1E90FF;stroke-width:1.0;"/></g><!--link User to Acronym--><g id="link_User_Acronym"><path codeLine="111" d="M939.56,433.7 C977.36,437.74 1038.74,444.31 1085.12,449.27 " fill="none" id="User-to-Acronym" style="stroke:#1E90FF;stroke-width:1.0;"/><polygon fill="#1E90FF" points="1090.13,449.81,1081.6174,444.8567,1085.1595,449.2672,1080.749,452.8094,1090.13,449.81" style="stroke:#1E90FF;stroke-width:1.0;"/></g><!--link User to BirthDate--><g id="link_User_BirthDate"><path codeLine="112" d="M939.56,422.6 C977.36,414.52 1038.74,401.38 1085.12,391.46 " fill="none" id="User-to-BirthDate" style="stroke:#1E90FF;stroke-width:1.0;"/><polygon fill="#1E90FF" points="1090.13,390.38,1080.4933,388.3469,1085.2402,391.4237,1082.1633,396.1706,1090.13,390.38" style="stroke:#1E90FF;stroke-width:1.0;"/></g><!--link User to TaxPayerNumber--><g id="link_User_TaxPayerNumber"><path codeLine="113" d="M939.67,408.56 C971.12,389.45 1019.01,361.14 1062,339 C1071.99,333.86 1082.78,328.68 1093.25,323.84 " fill="none" id="User-to-TaxPayerNumber" style="stroke:#1E90FF;stroke-width:1.0;"/><polygon fill="#1E90FF" points="1098.03,321.65,1088.1819,321.77,1093.486,323.7362,1091.5198,329.0404,1098.03,321.65" style="stroke:#1E90FF;stroke-width:1.0;"/></g><!--reverse link PostItContent to PostIt--><g id="link_PostItContent_PostIt"><path codeLine="140" d="M209.34,790 C260.03,790 329.42,790 370.49,790 " fill="none" id="PostItContent-backto-PostIt" style="stroke:#1E90FF;stroke-width:1.0;"/><polygon fill="#1E90FF" points="204.19,790,213.19,794,209.19,790,213.19,786,204.19,790" style="stroke:#1E90FF;stroke-width:1.0;"/></g><!--reverse link PostItRow to PostIt--><g id="link_PostItRow_PostIt"><path codeLine="141" d="M209.04,849.13 C259.75,833.83 329.33,812.83 370.49,800.41 " fill="none" id="PostItRow-backto-PostIt" style="stroke:#1E90FF;stroke-width:1.0;"/><polygon fill="#1E90FF" points="204.19,850.59,213.9615,851.8218,208.9772,849.1467,211.6523,844.1623,204.19,850.59" style="stroke:#1E90FF;stroke-width:1.0;"/></g><!--reverse link PostItCol to PostIt--><g id="link_PostItCol_PostIt"><path codeLine="142" d="M209.02,931.1 C228.59,925.1 249.81,917.15 268,907 C307.47,884.99 346.03,850.55 372.14,824.72 " fill="none" id="PostItCol-backto-PostIt" style="stroke:#1E90FF;stroke-width:1.0;"/><polygon fill="#1E90FF" points="204.08,932.59,213.8515,933.8218,208.8672,931.1467,211.5423,926.1623,204.08,932.59" style="stroke:#1E90FF;stroke-width:1.0;"/></g><!--reverse link PostItTimeStamp to PostIt--><g id="link_PostItTimeStamp_PostIt"><path codeLine="143" d="M213.55,732.23 C263.71,747.37 330.3,767.46 370.27,779.52 " fill="none" id="PostItTimeStamp-backto-PostIt" style="stroke:#1E90FF;stroke-width:1.0;"/><polygon fill="#1E90FF" points="208.75,730.78,216.2123,737.2077,213.5372,732.2233,218.5215,729.5482,208.75,730.78" style="stroke:#1E90FF;stroke-width:1.0;"/></g><!--reverse link PostItState to PostIt--><g id="link_PostItState_PostIt"><path codeLine="144" d="M209.02,1012.25 C229.17,1006.38 250.74,997.7 268,985 C325.65,942.57 367.95,868.44 389.31,824.82 " fill="none" id="PostItState-backto-PostIt" style="stroke:#1E90FF;stroke-width:1.0;"/><polygon fill="#1E90FF" points="204.2,1013.61,213.9488,1015.0105,209.0114,1012.2496,211.7722,1007.3122,204.2,1013.61" style="stroke:#1E90FF;stroke-width:1.0;"/></g><!--link SharedBoard to User--><g id="link_SharedBoard_User"><path codeLine="147" d="M706.71,430 C754.42,430 821.17,430 863.23,430 " fill="none" id="SharedBoard-to-User" style="stroke:#1E90FF;stroke-width:1.0;"/><polygon fill="#1E90FF" points="868.24,430,859.24,426,863.24,430,859.24,434,868.24,430" style="stroke:#1E90FF;stroke-width:1.0;"/><text fill="#000000" font-family="sans-serif" font-size="13" lengthAdjust="spacing" textLength="34" x="740" y="426.0283">owner</text></g><!--reverse link BoardPermissions to SharedBoard--><g id="link_BoardPermissions_SharedBoard"><path codeLine="148" d="M465.79,127.68 C471.96,132.03 477.85,136.82 483,142 C522.53,181.76 597.12,327.7 630.54,395.26 " fill="none" id="BoardPermissions-backto-SharedBoard" style="stroke:#1E90FF;stroke-width:1.0;"/><polygon fill="#1E90FF" points="461.48,124.73,466.6438,133.1166,465.6048,127.556,471.1654,126.5169,461.48,124.73" style="stroke:#1E90FF;stroke-width:1.0;"/></g><!--link BoardPermissions to User--><g id="link_BoardPermissions_User"><path codeLine="149" d="M468.96,71.44 C538.35,46.17 651.49,18.81 731,69 C845.31,141.16 885.24,312.41 897.8,390.26 " fill="none" id="BoardPermissions-to-User" style="stroke:#1E90FF;stroke-width:1.0;"/><polygon fill="#1E90FF" points="898.59,395.25,901.1543,385.7408,897.819,390.3098,893.25,386.9745,898.59,395.25" style="stroke:#1E90FF;stroke-width:1.0;"/></g><!--link BoardPermissions to AccessLevel--><g id="link_BoardPermissions_AccessLevel"><path codeLine="150" d="M479.16,101 C512.78,102.4 552.41,104.05 584.77,105.39 " fill="none" id="BoardPermissions-to-AccessLevel" style="stroke:#1E90FF;stroke-width:1.0;"/><polygon fill="#1E90FF" points="589.89,105.6,581.0571,101.2435,584.894,105.4002,580.7373,109.2371,589.89,105.6" style="stroke:#1E90FF;stroke-width:1.0;"/></g><!--link PostIt to User--><g id="link_PostIt_User"><path codeLine="151" d="M441.6,780.92 C504.21,763.24 638.43,719.54 731,648 C796.41,597.45 851.36,516.82 880.52,469.08 " fill="none" id="PostIt-to-User" style="stroke:#1E90FF;stroke-width:1.0;"/><polygon fill="#1E90FF" points="883.26,464.56,875.1774,470.1878,880.6707,468.8373,882.0211,474.3306,883.26,464.56" style="stroke:#1E90FF;stroke-width:1.0;"/><text fill="#000000" font-family="sans-serif" font-size="13" lengthAdjust="spacing" textLength="34" x="631.5" y="644.0283">owner</text><text fill="#000000" font-family="sans-serif" font-size="13" lengthAdjust="spacing" textLength="7" x="872.0938" y="486.0535">1</text></g><!--link PostIt to SharedBoard--><g id="link_PostIt_SharedBoard"><path codeLine="152" d="M430.06,755.48 C474.98,688.24 573.96,540.08 621.29,469.23 " fill="none" id="PostIt-to-SharedBoard" style="stroke:#1E90FF;stroke-width:1.0;"/><polygon fill="#1E90FF" points="624.33,464.68,615.997,469.9299,621.5466,468.8337,622.6428,474.3833,624.33,464.68" style="stroke:#1E90FF;stroke-width:1.0;"/><text fill="#000000" font-family="sans-serif" font-size="13" lengthAdjust="spacing" textLength="45" x="514" y="564.0283">belongs</text><text fill="#000000" font-family="sans-serif" font-size="13" lengthAdjust="spacing" textLength="7" x="612.5742" y="486.1942">1</text></g><!--SRC=[pLPDR-8m4BtpAopsMYIwqagh2Y5HA18IfQYmUpV9a7ZhsCXsIkcg_tqdpfTD0kIuKKxpdktvylF4B0IIW8bbg7iSzeOOIHIBOaD2fY0mJ8fUJxynSQ2A9YJWLEk9COhjKWEBG8eD-mGoR738tnx1Rydsi6G27gKAGKqbbuhCP1Y1UkGf-1GQl4LAfYBCQPFrUhcOJhQBbvNbdUFVPZ_dF-PpYqsKaiVMtIyS_EKwVC2TQGGRS-90ig2fY3Xu8L4L_lyH5N4W0zsTH962Y1ee_0PXc3cHJKmLX9P1HgFSE1wFHafACnvRfWtMChRCO4P6ezyKJo0lkp-Oc_4ut-_hZBjwbSUkL7I-8tLZiWXkSf-4KQUEtbhkAarse2wIYqJNAHWCtCpLS1xrHTG6UWajOZk3tM9PY_KNFNqgQjMUgExPlvRyshdYr4k-bs7Nt1ehWpx3lBnVWEjiEsWp9MjG2TCQjKaxYQdZd0G1QBs4TxWHQYvLkTSAi1nJAVOimaM_3EEufMK9YNMouYZtJRAbPDysPfeS6UTa1mG-ZAA1WP3ibKm89K6-yvvnkAkMc1X827kQSaFUhPjCL-3t8K4Dq8IAaDmFSGEU9a8NoGYjLxspsZxJZ-wDWEHklU2bPZ0OksTrOE4XhZhrVsdiW4gU-hu-MR15c9pxcr369s6eiCIt8rrZWO_IYjqDvZpbV4MJ3WgoYQKotQXPE1qrx1c2c0ePANg8MN13e9nMLrASaWQHD6lEb8bdRQuqkLlwiQOdK1UyQ2vubVp6llOIvPC5tgAC_q2cL6HtPGiqY47TaOr9GwmymPVjcGfi5fNNtJP5rb9kxNsahBDlBMlgMwlw-URC9zzILSytjrNAPnHLyOrL0Nopd-iMnQdygaG6VoduYQGwqnVCrY5L1wcXrWvSHbESwXJxf7Q6yrJ3kOrhgSt2N1WMSl3gd91JyDQRh73NnRRcTnAfSclUbRfb2GvnD3bqNN3zPhQqhREiIlMG3CWCEA3MLxPxj4rmU7w75ha-Ina-Thd50SldjG6KRsi3S69lW-jPeu0mF7SKBBkTFCYZm2viFhDdaq23KExGZZWlSg_egipSl-zxnvv1heSFE-1IH1h7WNy0]--></g></svg>