<?xml version="1.0" encoding="us-ascii" standalone="no"?><svg xmlns="http://www.w3.org/2000/svg" xmlns:xlink="http://www.w3.org/1999/xlink" contentStyleType="text/css" height="927px" preserveAspectRatio="none" style="width:1648px;height:927px;background:#FFFFFF;" version="1.1" viewBox="0 0 1648 927" width="1648px" zoomAndPan="magnify"><defs/><g><rect fill="#FFFFFF" height="688.4023" style="stroke:#181818;stroke-width:1.0;" width="10" x="320.5" y="121.5332"/><rect fill="#FFFFFF" height="594.5293" style="stroke:#181818;stroke-width:1.0;" width="10" x="486.5" y="184.1152"/><rect fill="#FFFFFF" height="62.582" style="stroke:#181818;stroke-width:1.0;" width="10" x="865.5" y="277.9883"/><rect fill="#FFFFFF" height="31.291" style="stroke:#181818;stroke-width:1.0;" width="10" x="997.5" y="371.8613"/><rect fill="#FFFFFF" height="281.6191" style="stroke:#181818;stroke-width:1.0;" width="10" x="1142.5" y="465.7344"/><rect fill="#FFFFFF" height="62.582" style="stroke:#181818;stroke-width:1.0;" width="10" x="1309" y="497.0254"/><rect fill="#FFFFFF" height="62.582" style="stroke:#181818;stroke-width:1.0;" width="10" x="1452" y="590.8984"/><rect fill="#FFFFFF" height="31.291" style="stroke:#181818;stroke-width:1.0;" width="10" x="1584.5" y="684.7715"/><line style="stroke:#181818;stroke-width:0.5;stroke-dasharray:5.0,5.0;" x1="32" x2="32" y1="88.2422" y2="827.9355"/><line style="stroke:#181818;stroke-width:0.5;stroke-dasharray:5.0,5.0;" x1="325" x2="325" y1="88.2422" y2="827.9355"/><line style="stroke:#181818;stroke-width:0.5;stroke-dasharray:5.0,5.0;" x1="491" x2="491" y1="88.2422" y2="827.9355"/><line style="stroke:#181818;stroke-width:0.5;stroke-dasharray:5.0,5.0;" x1="870" x2="870" y1="88.2422" y2="827.9355"/><line style="stroke:#181818;stroke-width:0.5;stroke-dasharray:5.0,5.0;" x1="1002" x2="1002" y1="88.2422" y2="827.9355"/><line style="stroke:#181818;stroke-width:0.5;stroke-dasharray:5.0,5.0;" x1="1147" x2="1147" y1="88.2422" y2="827.9355"/><line style="stroke:#181818;stroke-width:0.5;stroke-dasharray:5.0,5.0;" x1="1314" x2="1314" y1="88.2422" y2="827.9355"/><line style="stroke:#181818;stroke-width:0.5;stroke-dasharray:5.0,5.0;" x1="1457" x2="1457" y1="88.2422" y2="827.9355"/><line style="stroke:#181818;stroke-width:0.5;stroke-dasharray:5.0,5.0;" x1="1589" x2="1589" y1="88.2422" y2="827.9355"/><text fill="#000000" font-family="FG Virgil" font-size="14" lengthAdjust="spacing" textLength="49" x="5" y="84.7285">Student</text><ellipse cx="32.5" cy="18.1211" fill="#E3E3E3" rx="8" ry="8" style="stroke:#181818;stroke-width:0.5;"/><path d="M32.5,26.1211 L32.5,53.1211 M19.5,34.1211 L45.5,34.1211 M32.5,53.1211 L19.5,68.1211 M32.5,53.1211 L45.5,68.1211 " fill="none" style="stroke:#181818;stroke-width:0.5;"/><text fill="#000000" font-family="FG Virgil" font-size="14" lengthAdjust="spacing" textLength="49" x="5" y="842.043">Student</text><ellipse cx="32.5" cy="854.0566" fill="#E3E3E3" rx="8" ry="8" style="stroke:#181818;stroke-width:0.5;"/><path d="M32.5,862.0566 L32.5,889.0566 M19.5,870.0566 L45.5,870.0566 M32.5,889.0566 L19.5,904.0566 M32.5,889.0566 L45.5,904.0566 " fill="none" style="stroke:#181818;stroke-width:0.5;"/><rect fill="#E3E3E3" height="51.2422" rx="2.5" ry="2.5" style="stroke:#181818;stroke-width:0.5;" width="131" x="260" y="36"/><text fill="#000000" font-family="FG Virgil" font-size="14" font-style="italic" lengthAdjust="spacing" textLength="95" x="278" y="58.1074">&#171;presentation&#187;</text><text fill="#000000" font-family="FG Virgil" font-size="14" lengthAdjust="spacing" textLength="117" x="267" y="76.7285">ListFutureExamsUI</text><rect fill="#E3E3E3" height="51.2422" rx="2.5" ry="2.5" style="stroke:#181818;stroke-width:0.5;" width="131" x="260" y="826.9355"/><text fill="#000000" font-family="FG Virgil" font-size="14" font-style="italic" lengthAdjust="spacing" textLength="95" x="278" y="849.043">&#171;presentation&#187;</text><text fill="#000000" font-family="FG Virgil" font-size="14" lengthAdjust="spacing" textLength="117" x="267" y="867.6641">ListFutureExamsUI</text><rect fill="#E3E3E3" height="32.6211" rx="2.5" ry="2.5" style="stroke:#181818;stroke-width:0.5;" width="181" x="401" y="54.6211"/><text fill="#000000" font-family="FG Virgil" font-size="14" lengthAdjust="spacing" textLength="167" x="408" y="76.7285">ListFutureExamsController</text><rect fill="#E3E3E3" height="32.6211" rx="2.5" ry="2.5" style="stroke:#181818;stroke-width:0.5;" width="181" x="401" y="826.9355"/><text fill="#000000" font-family="FG Virgil" font-size="14" lengthAdjust="spacing" textLength="167" x="408" y="849.043">ListFutureExamsController</text><rect fill="#E3E3E3" height="51.2422" rx="2.5" ry="2.5" style="stroke:#181818;stroke-width:0.5;" width="151" x="795" y="36"/><text fill="#000000" font-family="FG Virgil" font-size="14" font-style="italic" lengthAdjust="spacing" textLength="60" x="840.5" y="58.1074">&#171;service&#187;</text><text fill="#000000" font-family="FG Virgil" font-size="14" lengthAdjust="spacing" textLength="137" x="802" y="76.7285">AuthenticationService</text><rect fill="#E3E3E3" height="51.2422" rx="2.5" ry="2.5" style="stroke:#181818;stroke-width:0.5;" width="151" x="795" y="826.9355"/><text fill="#000000" font-family="FG Virgil" font-size="14" font-style="italic" lengthAdjust="spacing" textLength="60" x="840.5" y="849.043">&#171;service&#187;</text><text fill="#000000" font-family="FG Virgil" font-size="14" lengthAdjust="spacing" textLength="137" x="802" y="867.6641">AuthenticationService</text><rect fill="#E3E3E3" height="51.2422" rx="2.5" ry="2.5" style="stroke:#181818;stroke-width:0.5;" width="93" x="956" y="36"/><text fill="#000000" font-family="FG Virgil" font-size="14" font-style="italic" lengthAdjust="spacing" textLength="64" x="970.5" y="58.1074">&#171;session&#187;</text><text fill="#000000" font-family="FG Virgil" font-size="14" lengthAdjust="spacing" textLength="79" x="963" y="76.7285">UserSession</text><rect fill="#E3E3E3" height="51.2422" rx="2.5" ry="2.5" style="stroke:#181818;stroke-width:0.5;" width="93" x="956" y="826.9355"/><text fill="#000000" font-family="FG Virgil" font-size="14" font-style="italic" lengthAdjust="spacing" textLength="64" x="970.5" y="849.043">&#171;session&#187;</text><text fill="#000000" font-family="FG Virgil" font-size="14" lengthAdjust="spacing" textLength="79" x="963" y="867.6641">UserSession</text><rect fill="#E3E3E3" height="51.2422" rx="2.5" ry="2.5" style="stroke:#181818;stroke-width:0.5;" width="177" x="1059" y="36"/><text fill="#000000" font-family="FG Virgil" font-size="14" font-style="italic" lengthAdjust="spacing" textLength="60" x="1117.5" y="58.1074">&#171;service&#187;</text><text fill="#000000" font-family="FG Virgil" font-size="14" lengthAdjust="spacing" textLength="163" x="1066" y="76.7285">ExamManagementService</text><rect fill="#E3E3E3" height="51.2422" rx="2.5" ry="2.5" style="stroke:#181818;stroke-width:0.5;" width="177" x="1059" y="826.9355"/><text fill="#000000" font-family="FG Virgil" font-size="14" font-style="italic" lengthAdjust="spacing" textLength="60" x="1117.5" y="849.043">&#171;service&#187;</text><text fill="#000000" font-family="FG Virgil" font-size="14" lengthAdjust="spacing" textLength="163" x="1066" y="867.6641">ExamManagementService</text><rect fill="#E3E3E3" height="51.2422" rx="2.5" ry="2.5" style="stroke:#181818;stroke-width:0.5;" width="136" x="1246" y="36"/><text fill="#000000" font-family="FG Virgil" font-size="14" font-style="italic" lengthAdjust="spacing" textLength="89" x="1269.5" y="58.1074">&#171;persistence&#187;</text><text fill="#000000" font-family="FG Virgil" font-size="14" lengthAdjust="spacing" textLength="122" x="1253" y="76.7285">PersistenceContext</text><rect fill="#E3E3E3" height="51.2422" rx="2.5" ry="2.5" style="stroke:#181818;stroke-width:0.5;" width="136" x="1246" y="826.9355"/><text fill="#000000" font-family="FG Virgil" font-size="14" font-style="italic" lengthAdjust="spacing" textLength="89" x="1269.5" y="849.043">&#171;persistence&#187;</text><text fill="#000000" font-family="FG Virgil" font-size="14" lengthAdjust="spacing" textLength="122" x="1253" y="867.6641">PersistenceContext</text><rect fill="#E3E3E3" height="51.2422" rx="2.5" ry="2.5" style="stroke:#181818;stroke-width:0.5;" width="130" x="1392" y="36"/><text fill="#000000" font-family="FG Virgil" font-size="14" font-style="italic" lengthAdjust="spacing" textLength="59" x="1427.5" y="58.1074">&#171;factory&#187;</text><text fill="#000000" font-family="FG Virgil" font-size="14" lengthAdjust="spacing" textLength="116" x="1399" y="76.7285">RepositoryFactory</text><rect fill="#E3E3E3" height="51.2422" rx="2.5" ry="2.5" style="stroke:#181818;stroke-width:0.5;" width="130" x="1392" y="826.9355"/><text fill="#000000" font-family="FG Virgil" font-size="14" font-style="italic" lengthAdjust="spacing" textLength="59" x="1427.5" y="849.043">&#171;factory&#187;</text><text fill="#000000" font-family="FG Virgil" font-size="14" lengthAdjust="spacing" textLength="116" x="1399" y="867.6641">RepositoryFactory</text><text fill="#000000" font-family="FG Virgil" font-size="14" font-style="italic" lengthAdjust="spacing" textLength="79" x="1547" y="66.1074">&#171;repository&#187;</text><text fill="#000000" font-family="FG Virgil" font-size="14" lengthAdjust="spacing" textLength="109" x="1532" y="84.7285">ExamsRepository</text><path d="M1571.5,15 C1571.5,5 1589.5,5 1589.5,5 C1589.5,5 1607.5,5 1607.5,15 L1607.5,41 C1607.5,51 1589.5,51 1589.5,51 C1589.5,51 1571.5,51 1571.5,41 L1571.5,15 " fill="#E3E3E3" style="stroke:#181818;stroke-width:1.5;"/><path d="M1571.5,15 C1571.5,25 1589.5,25 1589.5,25 C1589.5,25 1607.5,25 1607.5,15 " fill="none" style="stroke:#181818;stroke-width:1.5;"/><text fill="#000000" font-family="FG Virgil" font-size="14" font-style="italic" lengthAdjust="spacing" textLength="79" x="1547" y="842.043">&#171;repository&#187;</text><text fill="#000000" font-family="FG Virgil" font-size="14" lengthAdjust="spacing" textLength="109" x="1532" y="860.6641">ExamsRepository</text><path d="M1571.5,874.1777 C1571.5,864.1777 1589.5,864.1777 1589.5,864.1777 C1589.5,864.1777 1607.5,864.1777 1607.5,874.1777 L1607.5,900.1777 C1607.5,910.1777 1589.5,910.1777 1589.5,910.1777 C1589.5,910.1777 1571.5,910.1777 1571.5,900.1777 L1571.5,874.1777 " fill="#E3E3E3" style="stroke:#181818;stroke-width:1.5;"/><path d="M1571.5,874.1777 C1571.5,884.1777 1589.5,884.1777 1589.5,884.1777 C1589.5,884.1777 1607.5,884.1777 1607.5,874.1777 " fill="none" style="stroke:#181818;stroke-width:1.5;"/><rect fill="#FFFFFF" height="688.4023" style="stroke:#181818;stroke-width:1.0;" width="10" x="320.5" y="121.5332"/><rect fill="#FFFFFF" height="594.5293" style="stroke:#181818;stroke-width:1.0;" width="10" x="486.5" y="184.1152"/><rect fill="#FFFFFF" height="62.582" style="stroke:#181818;stroke-width:1.0;" width="10" x="865.5" y="277.9883"/><rect fill="#FFFFFF" height="31.291" style="stroke:#181818;stroke-width:1.0;" width="10" x="997.5" y="371.8613"/><rect fill="#FFFFFF" height="281.6191" style="stroke:#181818;stroke-width:1.0;" width="10" x="1142.5" y="465.7344"/><rect fill="#FFFFFF" height="62.582" style="stroke:#181818;stroke-width:1.0;" width="10" x="1309" y="497.0254"/><rect fill="#FFFFFF" height="62.582" style="stroke:#181818;stroke-width:1.0;" width="10" x="1452" y="590.8984"/><rect fill="#FFFFFF" height="31.291" style="stroke:#181818;stroke-width:1.0;" width="10" x="1584.5" y="684.7715"/><polygon fill="#181818" points="308.5,117.5332,318.5,121.5332,308.5,125.5332,312.5,121.5332" style="stroke:#181818;stroke-width:1.0;"/><line style="stroke:#181818;stroke-width:1.0;stroke-dasharray:2.0,2.0;" x1="32.5" x2="314.5" y1="121.5332" y2="121.5332"/><text fill="#000000" font-family="FG Virgil" font-size="13" lengthAdjust="spacing" textLength="96" x="39.5" y="116.2705">list future exams</text><polygon fill="#181818" points="479.5,148.8242,489.5,152.8242,479.5,156.8242,483.5,152.8242" style="stroke:#181818;stroke-width:1.0;"/><line style="stroke:#181818;stroke-width:1.0;" x1="330.5" x2="485.5" y1="152.8242" y2="152.8242"/><text fill="#000000" font-family="FG Virgil" font-size="13" lengthAdjust="spacing" textLength="44" x="337.5" y="147.5615">create()</text><polygon fill="#181818" points="474.5,180.1152,484.5,184.1152,474.5,188.1152,478.5,184.1152" style="stroke:#181818;stroke-width:1.0;"/><line style="stroke:#181818;stroke-width:1.0;" x1="330.5" x2="480.5" y1="184.1152" y2="184.1152"/><text fill="#000000" font-family="FG Virgil" font-size="13" lengthAdjust="spacing" textLength="103" x="337.5" y="178.8525">listFutureExams()</text><polygon fill="#181818" points="858.5,211.4063,868.5,215.4063,858.5,219.4063,862.5,215.4063" style="stroke:#181818;stroke-width:1.0;"/><line style="stroke:#181818;stroke-width:1.0;" x1="496.5" x2="864.5" y1="215.4063" y2="215.4063"/><text fill="#000000" font-family="FG Virgil" font-size="13" lengthAdjust="spacing" textLength="44" x="503.5" y="210.1436">create()</text><polygon fill="#181818" points="858.5,242.6973,868.5,246.6973,858.5,250.6973,862.5,246.6973" style="stroke:#181818;stroke-width:1.0;"/><line style="stroke:#181818;stroke-width:1.0;" x1="496.5" x2="864.5" y1="246.6973" y2="246.6973"/><text fill="#000000" font-family="FG Virgil" font-size="13" lengthAdjust="spacing" textLength="350" x="503.5" y="241.4346">ensureAuthenticatedUserHasAnyOf(CourseRoles.STUDENT)</text><polygon fill="#181818" points="990.5,273.9883,1000.5,277.9883,990.5,281.9883,994.5,277.9883" style="stroke:#181818;stroke-width:1.0;"/><line style="stroke:#181818;stroke-width:1.0;" x1="875.5" x2="996.5" y1="277.9883" y2="277.9883"/><text fill="#000000" font-family="FG Virgil" font-size="13" lengthAdjust="spacing" textLength="44" x="882.5" y="272.7256">create()</text><polygon fill="#181818" points="853.5,305.2793,863.5,309.2793,853.5,313.2793,857.5,309.2793" style="stroke:#181818;stroke-width:1.0;"/><line style="stroke:#181818;stroke-width:1.0;" x1="496.5" x2="859.5" y1="309.2793" y2="309.2793"/><text fill="#000000" font-family="FG Virgil" font-size="13" lengthAdjust="spacing" textLength="53" x="503.5" y="304.0166">session()</text><polygon fill="#181818" points="507.5,336.5703,497.5,340.5703,507.5,344.5703,503.5,340.5703" style="stroke:#181818;stroke-width:1.0;"/><line style="stroke:#181818;stroke-width:1.0;" x1="501.5" x2="869.5" y1="340.5703" y2="340.5703"/><text fill="#000000" font-family="FG Virgil" font-size="13" lengthAdjust="spacing" textLength="45" x="513.5" y="335.3076">session</text><polygon fill="#181818" points="985.5,367.8613,995.5,371.8613,985.5,375.8613,989.5,371.8613" style="stroke:#181818;stroke-width:1.0;"/><line style="stroke:#181818;stroke-width:1.0;" x1="496.5" x2="991.5" y1="371.8613" y2="371.8613"/><text fill="#000000" font-family="FG Virgil" font-size="13" lengthAdjust="spacing" textLength="113" x="503.5" y="366.5986">authenticatedUser()</text><polygon fill="#181818" points="507.5,399.1523,497.5,403.1523,507.5,407.1523,503.5,403.1523" style="stroke:#181818;stroke-width:1.0;"/><line style="stroke:#181818;stroke-width:1.0;" x1="501.5" x2="1001.5" y1="403.1523" y2="403.1523"/><text fill="#000000" font-family="FG Virgil" font-size="13" lengthAdjust="spacing" textLength="25" x="513.5" y="397.8896">user</text><polygon fill="#181818" points="1135.5,430.4434,1145.5,434.4434,1135.5,438.4434,1139.5,434.4434" style="stroke:#181818;stroke-width:1.0;"/><line style="stroke:#181818;stroke-width:1.0;" x1="496.5" x2="1141.5" y1="434.4434" y2="434.4434"/><text fill="#000000" font-family="FG Virgil" font-size="13" lengthAdjust="spacing" textLength="44" x="503.5" y="429.1807">create()</text><polygon fill="#181818" points="1130.5,461.7344,1140.5,465.7344,1130.5,469.7344,1134.5,465.7344" style="stroke:#181818;stroke-width:1.0;"/><line style="stroke:#181818;stroke-width:1.0;" x1="496.5" x2="1136.5" y1="465.7344" y2="465.7344"/><text fill="#000000" font-family="FG Virgil" font-size="13" lengthAdjust="spacing" textLength="103" x="503.5" y="460.4717">listFutureExams()</text><polygon fill="#181818" points="1297,493.0254,1307,497.0254,1297,501.0254,1301,497.0254" style="stroke:#181818;stroke-width:1.0;"/><line style="stroke:#181818;stroke-width:1.0;" x1="1152.5" x2="1303" y1="497.0254" y2="497.0254"/><text fill="#000000" font-family="FG Virgil" font-size="13" lengthAdjust="spacing" textLength="75" x="1159.5" y="491.7627">repositories()</text><polygon fill="#181818" points="1445,524.3164,1455,528.3164,1445,532.3164,1449,528.3164" style="stroke:#181818;stroke-width:1.0;"/><line style="stroke:#181818;stroke-width:1.0;" x1="1319" x2="1451" y1="528.3164" y2="528.3164"/><text fill="#000000" font-family="FG Virgil" font-size="13" lengthAdjust="spacing" textLength="44" x="1326" y="523.0537">create()</text><polygon fill="#181818" points="1163.5,555.6074,1153.5,559.6074,1163.5,563.6074,1159.5,559.6074" style="stroke:#181818;stroke-width:1.0;"/><line style="stroke:#181818;stroke-width:1.0;" x1="1157.5" x2="1313" y1="559.6074" y2="559.6074"/><text fill="#000000" font-family="FG Virgil" font-size="13" lengthAdjust="spacing" textLength="39" x="1169.5" y="554.3447">factory</text><polygon fill="#181818" points="1440,586.8984,1450,590.8984,1440,594.8984,1444,590.8984" style="stroke:#181818;stroke-width:1.0;"/><line style="stroke:#181818;stroke-width:1.0;" x1="1152.5" x2="1446" y1="590.8984" y2="590.8984"/><text fill="#000000" font-family="FG Virgil" font-size="13" lengthAdjust="spacing" textLength="47" x="1159.5" y="585.6357">exams()</text><polygon fill="#181818" points="1577.5,618.1895,1587.5,622.1895,1577.5,626.1895,1581.5,622.1895" style="stroke:#181818;stroke-width:1.0;"/><line style="stroke:#181818;stroke-width:1.0;" x1="1462" x2="1583.5" y1="622.1895" y2="622.1895"/><text fill="#000000" font-family="FG Virgil" font-size="13" lengthAdjust="spacing" textLength="44" x="1469" y="616.9268">create()</text><polygon fill="#181818" points="1163.5,649.4805,1153.5,653.4805,1163.5,657.4805,1159.5,653.4805" style="stroke:#181818;stroke-width:1.0;"/><line style="stroke:#181818;stroke-width:1.0;" x1="1157.5" x2="1456" y1="653.4805" y2="653.4805"/><text fill="#000000" font-family="FG Virgil" font-size="13" lengthAdjust="spacing" textLength="94" x="1169.5" y="648.2178">examRepository</text><polygon fill="#181818" points="1572.5,680.7715,1582.5,684.7715,1572.5,688.7715,1576.5,684.7715" style="stroke:#181818;stroke-width:1.0;"/><line style="stroke:#181818;stroke-width:1.0;" x1="1152.5" x2="1578.5" y1="684.7715" y2="684.7715"/><text fill="#000000" font-family="FG Virgil" font-size="13" lengthAdjust="spacing" textLength="106" x="1159.5" y="679.5088">findFutureExams()</text><polygon fill="#181818" points="1163.5,712.0625,1153.5,716.0625,1163.5,720.0625,1159.5,716.0625" style="stroke:#181818;stroke-width:1.0;"/><line style="stroke:#181818;stroke-width:1.0;stroke-dasharray:2.0,2.0;" x1="1157.5" x2="1588.5" y1="716.0625" y2="716.0625"/><text fill="#000000" font-family="FG Virgil" font-size="13" lengthAdjust="spacing" textLength="73" x="1169.5" y="710.7998">futureExams</text><polygon fill="#181818" points="507.5,743.3535,497.5,747.3535,507.5,751.3535,503.5,747.3535" style="stroke:#181818;stroke-width:1.0;"/><line style="stroke:#181818;stroke-width:1.0;stroke-dasharray:2.0,2.0;" x1="501.5" x2="1146.5" y1="747.3535" y2="747.3535"/><text fill="#000000" font-family="FG Virgil" font-size="13" lengthAdjust="spacing" textLength="73" x="513.5" y="742.0908">futureExams</text><polygon fill="#181818" points="341.5,774.6445,331.5,778.6445,341.5,782.6445,337.5,778.6445" style="stroke:#181818;stroke-width:1.0;"/><line style="stroke:#181818;stroke-width:1.0;stroke-dasharray:2.0,2.0;" x1="335.5" x2="490.5" y1="778.6445" y2="778.6445"/><text fill="#000000" font-family="FG Virgil" font-size="13" lengthAdjust="spacing" textLength="73" x="347.5" y="773.3818">futureExams</text><polygon fill="#181818" points="43.5,805.9355,33.5,809.9355,43.5,813.9355,39.5,809.9355" style="stroke:#181818;stroke-width:1.0;"/><line style="stroke:#181818;stroke-width:1.0;" x1="37.5" x2="324.5" y1="809.9355" y2="809.9355"/><text fill="#000000" font-family="FG Virgil" font-size="13" lengthAdjust="spacing" textLength="264" x="49.5" y="804.6729">show the operation result and print the results</text><!--SRC=[VLN1Rjim3BthAtHC3za714Q0e6lM0LitrCtkcat7Gct9aEIssTUFaYsBLfjU0abyx_5Hf1NxBDKWZEXvhvMkMgDxuCwCmEmI6KJrBCvGkai7t43bIAo6HeoTEshb7WHIZz_u7sdEiYCOsufQlqfrveteB30cAgSDBzrOWt9SM7xm1mpHJbPo47ZuGrft7DreuEvDzFRqtSFmjoW60nPfmacjzllFIBTeokYk0-F9QRVY74RNefoiWc09vaLM43oDxb-B-UnqbAKwuN49rY8dE2DRJmchZE8z_HGARxB7X2HJN5xBzHkCnSf0LU2BW3SNw_5Bl94KpvYFC6WhyMulnt3d5q-Cow9efXMIQk74Ns4XcBI9vl5aLnHcsI2BXRxnxNRlMxFZ7RhWJMW01oyKMYrVX0C4CCGWadHbnoi36DpSi8-2tRgT7hN8aMuI3YfCRIFA7uT1MTGbpOVQz_1Us8Ew_6esjteq5Xvr1_PB-NJwUlVmTCCcig-Mj9iMiTWBo2kfv-dO4BrLsNESrP39PNfh4o8l1VNJvISeexGyzOWncfVoiknnQA_UT09yriSPnI9wTkG7UyUNOPFmlli8OH6Ah3ZLcPyvcipCCq-hZ6hKH9A3Tvxd68iOX9DlX1WWW6J0woKuzH5rgO-LS2DLdLraSaKq2McxBZwH6SrCk4lkV3QkSMC7QVVZWt2DGxxUwRkV7XAS_LQ_SXnahl5H2oyo3e75FnWkLCq78_5Hy-7fS2sAByn_]--></g></svg>