<?xml version="1.0" encoding="us-ascii" standalone="no"?><svg xmlns="http://www.w3.org/2000/svg" xmlns:xlink="http://www.w3.org/1999/xlink" contentStyleType="text/css" height="1778px" preserveAspectRatio="none" style="width:2610px;height:1778px;background:#FFFFFF;" version="1.1" viewBox="0 0 2610 1778" width="2610px" zoomAndPan="magnify"><defs/><g><rect fill="#FFFFFF" height="1576.1035" style="stroke:#181818;stroke-width:1.0;" width="10" x="394" y="112.7988"/><rect fill="#FFFFFF" height="146.5527" style="stroke:#181818;stroke-width:1.0;" width="10" x="688" y="317.9727"/><rect fill="#FFFFFF" height="117.2422" style="stroke:#181818;stroke-width:1.0;" width="10" x="688" y="493.8359"/><rect fill="#FFFFFF" height="481.9688" style="stroke:#181818;stroke-width:1.0;" width="10" x="688" y="781.9414"/><rect fill="#FFFFFF" height="306.1055" style="stroke:#181818;stroke-width:1.0;" width="10" x="688" y="1337.4863"/><rect fill="#FFFFFF" height="394.0371" style="stroke:#181818;stroke-width:1.0;" width="10" x="1015" y="840.5625"/><rect fill="#FFFFFF" height="218.1738" style="stroke:#181818;stroke-width:1.0;" width="10" x="1015" y="1396.1074"/><rect fill="#FFFFFF" height="159.5527" style="stroke:#181818;stroke-width:1.0;" width="10" x="1237.5" y="869.873"/><rect fill="#FFFFFF" height="29.3105" style="stroke:#181818;stroke-width:1.0;" width="10" x="1237.5" y="1117.3574"/><rect fill="#FFFFFF" height="100.9316" style="stroke:#181818;stroke-width:1.0;" width="10" x="1237.5" y="1425.418"/><rect fill="#FFFFFF" height="29.3105" style="stroke:#181818;stroke-width:1.0;" width="10" x="1511.5" y="941.4941"/><rect fill="#FFFFFF" height="29.3105" style="stroke:#181818;stroke-width:1.0;" width="10" x="1511.5" y="1497.0391"/><rect fill="#FFFFFF" height="29.3105" style="stroke:#181818;stroke-width:1.0;" width="10" x="1609.5" y="1000.1152"/><rect fill="#FFFFFF" height="29.3105" style="stroke:#181818;stroke-width:1.0;" width="10" x="1755.5" y="552.457"/><rect fill="#FFFFFF" height="29.3105" style="stroke:#181818;stroke-width:1.0;" width="10" x="1755.5" y="1058.7363"/><rect fill="#FFFFFF" height="29.3105" style="stroke:#181818;stroke-width:1.0;" width="10" x="1755.5" y="1555.6602"/><rect fill="#FFFFFF" height="29.3105" style="stroke:#181818;stroke-width:1.0;" width="10" x="1934" y="1175.9785"/><rect fill="#FFFFFF" height="29.3105" style="stroke:#181818;stroke-width:1.0;" width="10" x="2081" y="142.1094"/><rect fill="#FFFFFF" height="29.3105" style="stroke:#181818;stroke-width:1.0;" width="10" x="2081" y="347.2832"/><rect fill="#FFFFFF" height="29.3105" style="stroke:#181818;stroke-width:1.0;" width="10" x="2232.5" y="200.7305"/><rect fill="#FFFFFF" height="29.3105" style="stroke:#181818;stroke-width:1.0;" width="10" x="2232.5" y="405.9043"/><rect fill="#FFFFFF" height="29.3105" style="stroke:#181818;stroke-width:1.0;" width="10" x="2366" y="259.3516"/><rect fill="none" height="937.582" style="stroke:#000000;stroke-width:1.5;" width="2593" x="10" y="743.3203"/><line style="stroke:#181818;stroke-width:0.5;stroke-dasharray:5.0,5.0;" x1="53" x2="53" y1="81.4883" y2="1697.9023"/><line style="stroke:#181818;stroke-width:0.5;stroke-dasharray:5.0,5.0;" x1="398.5" x2="398.5" y1="81.4883" y2="1697.9023"/><line style="stroke:#181818;stroke-width:0.5;stroke-dasharray:5.0,5.0;" x1="692.5" x2="692.5" y1="81.4883" y2="1697.9023"/><line style="stroke:#181818;stroke-width:0.5;stroke-dasharray:5.0,5.0;" x1="1019.5" x2="1019.5" y1="81.4883" y2="1697.9023"/><line style="stroke:#181818;stroke-width:0.5;stroke-dasharray:5.0,5.0;" x1="1242.5" x2="1242.5" y1="81.4883" y2="1697.9023"/><line style="stroke:#181818;stroke-width:0.5;stroke-dasharray:5.0,5.0;" x1="1516" x2="1516" y1="81.4883" y2="1697.9023"/><line style="stroke:#181818;stroke-width:0.5;stroke-dasharray:5.0,5.0;" x1="1614" x2="1614" y1="81.4883" y2="1697.9023"/><line style="stroke:#181818;stroke-width:0.5;stroke-dasharray:5.0,5.0;" x1="1760" x2="1760" y1="81.4883" y2="1697.9023"/><line style="stroke:#181818;stroke-width:0.5;stroke-dasharray:5.0,5.0;" x1="1939" x2="1939" y1="81.4883" y2="1697.9023"/><line style="stroke:#181818;stroke-width:0.5;stroke-dasharray:5.0,5.0;" x1="2086" x2="2086" y1="81.4883" y2="1697.9023"/><line style="stroke:#181818;stroke-width:0.5;stroke-dasharray:5.0,5.0;" x1="2237" x2="2237" y1="81.4883" y2="1697.9023"/><line style="stroke:#181818;stroke-width:0.5;stroke-dasharray:5.0,5.0;" x1="2371" x2="2371" y1="81.4883" y2="1697.9023"/><line style="stroke:#181818;stroke-width:0.5;stroke-dasharray:5.0,5.0;" x1="2514" x2="2514" y1="81.4883" y2="1697.9023"/><text fill="#000000" font-family="sans-serif" font-size="14" lengthAdjust="spacing" textLength="60" x="20" y="78.5352">Manager</text><ellipse cx="53" cy="13.5" fill="#E2E2F0" rx="8" ry="8" style="stroke:#181818;stroke-width:0.5;"/><path d="M53,21.5 L53,48.5 M40,29.5 L66,29.5 M53,48.5 L40,63.5 M53,48.5 L66,63.5 " fill="none" style="stroke:#181818;stroke-width:0.5;"/><text fill="#000000" font-family="sans-serif" font-size="14" lengthAdjust="spacing" textLength="60" x="20" y="1710.4375">Manager</text><ellipse cx="53" cy="1721.8906" fill="#E2E2F0" rx="8" ry="8" style="stroke:#181818;stroke-width:0.5;"/><path d="M53,1729.8906 L53,1756.8906 M40,1737.8906 L66,1737.8906 M53,1756.8906 L40,1771.8906 M53,1756.8906 L66,1771.8906 " fill="none" style="stroke:#181818;stroke-width:0.5;"/><rect fill="#E2E2F0" height="30.4883" rx="2.5" ry="2.5" style="stroke:#181818;stroke-width:0.5;" width="209" x="294.5" y="50"/><text fill="#000000" font-family="sans-serif" font-size="14" lengthAdjust="spacing" textLength="195" x="301.5" y="70.5352">AnswerEnrollmentRequestUI</text><rect fill="#E2E2F0" height="30.4883" rx="2.5" ry="2.5" style="stroke:#181818;stroke-width:0.5;" width="209" x="294.5" y="1696.9023"/><text fill="#000000" font-family="sans-serif" font-size="14" lengthAdjust="spacing" textLength="195" x="301.5" y="1717.4375">AnswerEnrollmentRequestUI</text><rect fill="#E2E2F0" height="30.4883" rx="2.5" ry="2.5" style="stroke:#181818;stroke-width:0.5;" width="265" x="560.5" y="50"/><text fill="#000000" font-family="sans-serif" font-size="14" lengthAdjust="spacing" textLength="251" x="567.5" y="70.5352">AnswerEnrollmentRequestController</text><rect fill="#E2E2F0" height="30.4883" rx="2.5" ry="2.5" style="stroke:#181818;stroke-width:0.5;" width="265" x="560.5" y="1696.9023"/><text fill="#000000" font-family="sans-serif" font-size="14" lengthAdjust="spacing" textLength="251" x="567.5" y="1717.4375">AnswerEnrollmentRequestController</text><rect fill="#E2E2F0" height="30.4883" rx="2.5" ry="2.5" style="stroke:#181818;stroke-width:0.5;" width="281" x="879.5" y="50"/><text fill="#000000" font-family="sans-serif" font-size="14" lengthAdjust="spacing" textLength="267" x="886.5" y="70.5352">EnrollmentRequestManagementService</text><rect fill="#E2E2F0" height="30.4883" rx="2.5" ry="2.5" style="stroke:#181818;stroke-width:0.5;" width="281" x="879.5" y="1696.9023"/><text fill="#000000" font-family="sans-serif" font-size="14" lengthAdjust="spacing" textLength="267" x="886.5" y="1717.4375">EnrollmentRequestManagementService</text><rect fill="#E2E2F0" height="30.4883" rx="2.5" ry="2.5" style="stroke:#181818;stroke-width:0.5;" width="144" x="1170.5" y="50"/><text fill="#000000" font-family="sans-serif" font-size="14" lengthAdjust="spacing" textLength="130" x="1177.5" y="70.5352">EnrollmentRequest</text><rect fill="#E2E2F0" height="30.4883" rx="2.5" ry="2.5" style="stroke:#181818;stroke-width:0.5;" width="144" x="1170.5" y="1696.9023"/><text fill="#000000" font-family="sans-serif" font-size="14" lengthAdjust="spacing" textLength="130" x="1177.5" y="1717.4375">EnrollmentRequest</text><rect fill="#E2E2F0" height="30.4883" rx="2.5" ry="2.5" style="stroke:#181818;stroke-width:0.5;" width="113" x="1460" y="50"/><text fill="#000000" font-family="sans-serif" font-size="14" lengthAdjust="spacing" textLength="99" x="1467" y="70.5352">AnsweredDate</text><rect fill="#E2E2F0" height="30.4883" rx="2.5" ry="2.5" style="stroke:#181818;stroke-width:0.5;" width="113" x="1460" y="1696.9023"/><text fill="#000000" font-family="sans-serif" font-size="14" lengthAdjust="spacing" textLength="99" x="1467" y="1717.4375">AnsweredDate</text><rect fill="#E2E2F0" height="30.4883" rx="2.5" ry="2.5" style="stroke:#181818;stroke-width:0.5;" width="63" x="1583" y="50"/><text fill="#000000" font-family="sans-serif" font-size="14" lengthAdjust="spacing" textLength="49" x="1590" y="70.5352">Course</text><rect fill="#E2E2F0" height="30.4883" rx="2.5" ry="2.5" style="stroke:#181818;stroke-width:0.5;" width="63" x="1583" y="1696.9023"/><text fill="#000000" font-family="sans-serif" font-size="14" lengthAdjust="spacing" textLength="49" x="1590" y="1717.4375">Course</text><text fill="#000000" font-family="sans-serif" font-size="14" lengthAdjust="spacing" textLength="203" x="1656" y="78.5352">EnrollmentRequestRepository</text><path d="M1742.5,29 C1742.5,19 1760.5,19 1760.5,19 C1760.5,19 1778.5,19 1778.5,29 L1778.5,55 C1778.5,65 1760.5,65 1760.5,65 C1760.5,65 1742.5,65 1742.5,55 L1742.5,29 " fill="#E2E2F0" style="stroke:#181818;stroke-width:1.5;"/><path d="M1742.5,29 C1742.5,39 1760.5,39 1760.5,39 C1760.5,39 1778.5,39 1778.5,29 " fill="none" style="stroke:#181818;stroke-width:1.5;"/><text fill="#000000" font-family="sans-serif" font-size="14" lengthAdjust="spacing" textLength="203" x="1656" y="1710.4375">EnrollmentRequestRepository</text><path d="M1742.5,1723.3906 C1742.5,1713.3906 1760.5,1713.3906 1760.5,1713.3906 C1760.5,1713.3906 1778.5,1713.3906 1778.5,1723.3906 L1778.5,1749.3906 C1778.5,1759.3906 1760.5,1759.3906 1760.5,1759.3906 C1760.5,1759.3906 1742.5,1759.3906 1742.5,1749.3906 L1742.5,1723.3906 " fill="#E2E2F0" style="stroke:#181818;stroke-width:1.5;"/><path d="M1742.5,1723.3906 C1742.5,1733.3906 1760.5,1733.3906 1760.5,1733.3906 C1760.5,1733.3906 1778.5,1733.3906 1778.5,1723.3906 " fill="none" style="stroke:#181818;stroke-width:1.5;"/><text fill="#000000" font-family="sans-serif" font-size="14" lengthAdjust="spacing" textLength="122" x="1875" y="78.5352">CourseRepository</text><path d="M1921,29 C1921,19 1939,19 1939,19 C1939,19 1957,19 1957,29 L1957,55 C1957,65 1939,65 1939,65 C1939,65 1921,65 1921,55 L1921,29 " fill="#E2E2F0" style="stroke:#181818;stroke-width:1.5;"/><path d="M1921,29 C1921,39 1939,39 1939,39 C1939,39 1957,39 1957,29 " fill="none" style="stroke:#181818;stroke-width:1.5;"/><text fill="#000000" font-family="sans-serif" font-size="14" lengthAdjust="spacing" textLength="122" x="1875" y="1710.4375">CourseRepository</text><path d="M1921,1723.3906 C1921,1713.3906 1939,1713.3906 1939,1713.3906 C1939,1713.3906 1957,1713.3906 1957,1723.3906 L1957,1749.3906 C1957,1759.3906 1939,1759.3906 1939,1759.3906 C1939,1759.3906 1921,1759.3906 1921,1749.3906 L1921,1723.3906 " fill="#E2E2F0" style="stroke:#181818;stroke-width:1.5;"/><path d="M1921,1723.3906 C1921,1733.3906 1939,1733.3906 1939,1733.3906 C1939,1733.3906 1957,1733.3906 1957,1723.3906 " fill="none" style="stroke:#181818;stroke-width:1.5;"/><rect fill="#E2E2F0" height="30.4883" rx="2.5" ry="2.5" style="stroke:#181818;stroke-width:0.5;" width="146" x="2013" y="50"/><text fill="#000000" font-family="sans-serif" font-size="14" lengthAdjust="spacing" textLength="132" x="2020" y="70.5352">PersistenceContext</text><rect fill="#E2E2F0" height="30.4883" rx="2.5" ry="2.5" style="stroke:#181818;stroke-width:0.5;" width="146" x="2013" y="1696.9023"/><text fill="#000000" font-family="sans-serif" font-size="14" lengthAdjust="spacing" textLength="132" x="2020" y="1717.4375">PersistenceContext</text><rect fill="#E2E2F0" height="30.4883" rx="2.5" ry="2.5" style="stroke:#181818;stroke-width:0.5;" width="137" x="2169" y="50"/><text fill="#000000" font-family="sans-serif" font-size="14" lengthAdjust="spacing" textLength="123" x="2176" y="70.5352">RepositoryFactory</text><rect fill="#E2E2F0" height="30.4883" rx="2.5" ry="2.5" style="stroke:#181818;stroke-width:0.5;" width="137" x="2169" y="1696.9023"/><text fill="#000000" font-family="sans-serif" font-size="14" lengthAdjust="spacing" textLength="123" x="2176" y="1717.4375">RepositoryFactory</text><rect fill="#E2E2F0" height="30.4883" rx="2.5" ry="2.5" style="stroke:#181818;stroke-width:0.5;" width="110" x="2316" y="50"/><text fill="#000000" font-family="sans-serif" font-size="14" lengthAdjust="spacing" textLength="96" x="2323" y="70.5352">AuthzRegistry</text><rect fill="#E2E2F0" height="30.4883" rx="2.5" ry="2.5" style="stroke:#181818;stroke-width:0.5;" width="110" x="2316" y="1696.9023"/><text fill="#000000" font-family="sans-serif" font-size="14" lengthAdjust="spacing" textLength="96" x="2323" y="1717.4375">AuthzRegistry</text><rect fill="#E2E2F0" height="30.4883" rx="2.5" ry="2.5" style="stroke:#181818;stroke-width:0.5;" width="157" x="2436" y="50"/><text fill="#000000" font-family="sans-serif" font-size="14" lengthAdjust="spacing" textLength="143" x="2443" y="70.5352">AuthorizationService</text><rect fill="#E2E2F0" height="30.4883" rx="2.5" ry="2.5" style="stroke:#181818;stroke-width:0.5;" width="157" x="2436" y="1696.9023"/><text fill="#000000" font-family="sans-serif" font-size="14" lengthAdjust="spacing" textLength="143" x="2443" y="1717.4375">AuthorizationService</text><rect fill="#FFFFFF" height="1576.1035" style="stroke:#181818;stroke-width:1.0;" width="10" x="394" y="112.7988"/><rect fill="#FFFFFF" height="146.5527" style="stroke:#181818;stroke-width:1.0;" width="10" x="688" y="317.9727"/><rect fill="#FFFFFF" height="117.2422" style="stroke:#181818;stroke-width:1.0;" width="10" x="688" y="493.8359"/><rect fill="#FFFFFF" height="481.9688" style="stroke:#181818;stroke-width:1.0;" width="10" x="688" y="781.9414"/><rect fill="#FFFFFF" height="306.1055" style="stroke:#181818;stroke-width:1.0;" width="10" x="688" y="1337.4863"/><rect fill="#FFFFFF" height="394.0371" style="stroke:#181818;stroke-width:1.0;" width="10" x="1015" y="840.5625"/><rect fill="#FFFFFF" height="218.1738" style="stroke:#181818;stroke-width:1.0;" width="10" x="1015" y="1396.1074"/><rect fill="#FFFFFF" height="159.5527" style="stroke:#181818;stroke-width:1.0;" width="10" x="1237.5" y="869.873"/><rect fill="#FFFFFF" height="29.3105" style="stroke:#181818;stroke-width:1.0;" width="10" x="1237.5" y="1117.3574"/><rect fill="#FFFFFF" height="100.9316" style="stroke:#181818;stroke-width:1.0;" width="10" x="1237.5" y="1425.418"/><rect fill="#FFFFFF" height="29.3105" style="stroke:#181818;stroke-width:1.0;" width="10" x="1511.5" y="941.4941"/><rect fill="#FFFFFF" height="29.3105" style="stroke:#181818;stroke-width:1.0;" width="10" x="1511.5" y="1497.0391"/><rect fill="#FFFFFF" height="29.3105" style="stroke:#181818;stroke-width:1.0;" width="10" x="1609.5" y="1000.1152"/><rect fill="#FFFFFF" height="29.3105" style="stroke:#181818;stroke-width:1.0;" width="10" x="1755.5" y="552.457"/><rect fill="#FFFFFF" height="29.3105" style="stroke:#181818;stroke-width:1.0;" width="10" x="1755.5" y="1058.7363"/><rect fill="#FFFFFF" height="29.3105" style="stroke:#181818;stroke-width:1.0;" width="10" x="1755.5" y="1555.6602"/><rect fill="#FFFFFF" height="29.3105" style="stroke:#181818;stroke-width:1.0;" width="10" x="1934" y="1175.9785"/><rect fill="#FFFFFF" height="29.3105" style="stroke:#181818;stroke-width:1.0;" width="10" x="2081" y="142.1094"/><rect fill="#FFFFFF" height="29.3105" style="stroke:#181818;stroke-width:1.0;" width="10" x="2081" y="347.2832"/><rect fill="#FFFFFF" height="29.3105" style="stroke:#181818;stroke-width:1.0;" width="10" x="2232.5" y="200.7305"/><rect fill="#FFFFFF" height="29.3105" style="stroke:#181818;stroke-width:1.0;" width="10" x="2232.5" y="405.9043"/><rect fill="#FFFFFF" height="29.3105" style="stroke:#181818;stroke-width:1.0;" width="10" x="2366" y="259.3516"/><polygon fill="#181818" points="382,108.7988,392,112.7988,382,116.7988,386,112.7988" style="stroke:#181818;stroke-width:1.0;"/><line style="stroke:#181818;stroke-width:1.0;" x1="53" x2="388" y1="112.7988" y2="112.7988"/><text fill="#000000" font-family="sans-serif" font-size="13" font-weight="bold" lengthAdjust="spacing" textLength="9" x="60" y="108.0566">1</text><text fill="#000000" font-family="sans-serif" font-size="13" lengthAdjust="spacing" textLength="164" x="73" y="108.0566">wants to answer a request</text><polygon fill="#181818" points="2069,138.1094,2079,142.1094,2069,146.1094,2073,142.1094" style="stroke:#181818;stroke-width:1.0;"/><line style="stroke:#181818;stroke-width:1.0;" x1="404" x2="2075" y1="142.1094" y2="142.1094"/><text fill="#000000" font-family="sans-serif" font-size="13" font-weight="bold" lengthAdjust="spacing" textLength="9" x="411" y="137.3672">2</text><text fill="#000000" font-family="sans-serif" font-size="13" lengthAdjust="spacing" textLength="83" x="424" y="137.3672">repositories()</text><polygon fill="#181818" points="415,167.4199,405,171.4199,415,175.4199,411,171.4199" style="stroke:#181818;stroke-width:1.0;"/><line style="stroke:#181818;stroke-width:1.0;stroke-dasharray:2.0,2.0;" x1="409" x2="2085" y1="171.4199" y2="171.4199"/><text fill="#000000" font-family="sans-serif" font-size="13" font-weight="bold" lengthAdjust="spacing" textLength="9" x="421" y="166.6777">3</text><text fill="#000000" font-family="sans-serif" font-size="13" lengthAdjust="spacing" textLength="110" x="434" y="166.6777">repositoryFactory</text><polygon fill="#181818" points="2220.5,196.7305,2230.5,200.7305,2220.5,204.7305,2224.5,200.7305" style="stroke:#181818;stroke-width:1.0;"/><line style="stroke:#181818;stroke-width:1.0;" x1="404" x2="2226.5" y1="200.7305" y2="200.7305"/><text fill="#000000" font-family="sans-serif" font-size="13" font-weight="bold" lengthAdjust="spacing" textLength="9" x="411" y="195.9883">4</text><text fill="#000000" font-family="sans-serif" font-size="13" lengthAdjust="spacing" textLength="133" x="424" y="195.9883">enrollmentRequests()</text><polygon fill="#181818" points="415,226.041,405,230.041,415,234.041,411,230.041" style="stroke:#181818;stroke-width:1.0;"/><line style="stroke:#181818;stroke-width:1.0;stroke-dasharray:2.0,2.0;" x1="409" x2="2236.5" y1="230.041" y2="230.041"/><text fill="#000000" font-family="sans-serif" font-size="13" font-weight="bold" lengthAdjust="spacing" textLength="9" x="421" y="225.2988">5</text><text fill="#000000" font-family="sans-serif" font-size="13" lengthAdjust="spacing" textLength="149" x="434" y="225.2988">enrollmentRequestRepo</text><polygon fill="#181818" points="2354,255.3516,2364,259.3516,2354,263.3516,2358,259.3516" style="stroke:#181818;stroke-width:1.0;"/><line style="stroke:#181818;stroke-width:1.0;" x1="404" x2="2360" y1="259.3516" y2="259.3516"/><text fill="#000000" font-family="sans-serif" font-size="13" font-weight="bold" lengthAdjust="spacing" textLength="9" x="411" y="254.6094">6</text><text fill="#000000" font-family="sans-serif" font-size="13" lengthAdjust="spacing" textLength="136" x="424" y="254.6094">authorizationService()</text><polygon fill="#181818" points="415,284.6621,405,288.6621,415,292.6621,411,288.6621" style="stroke:#181818;stroke-width:1.0;"/><line style="stroke:#181818;stroke-width:1.0;stroke-dasharray:2.0,2.0;" x1="409" x2="2370" y1="288.6621" y2="288.6621"/><text fill="#000000" font-family="sans-serif" font-size="13" font-weight="bold" lengthAdjust="spacing" textLength="9" x="421" y="283.9199">7</text><text fill="#000000" font-family="sans-serif" font-size="13" lengthAdjust="spacing" textLength="49" x="434" y="283.9199">authSvc</text><polygon fill="#181818" points="676,313.9727,686,317.9727,676,321.9727,680,317.9727" style="stroke:#181818;stroke-width:1.0;"/><line style="stroke:#181818;stroke-width:1.0;" x1="404" x2="682" y1="317.9727" y2="317.9727"/><text fill="#000000" font-family="sans-serif" font-size="13" font-weight="bold" lengthAdjust="spacing" textLength="9" x="411" y="313.2305">8</text><text fill="#000000" font-family="sans-serif" font-size="13" lengthAdjust="spacing" textLength="252" x="424" y="313.2305">create(enrollmentRequestRepo, authSvc)</text><polygon fill="#181818" points="2069,343.2832,2079,347.2832,2069,351.2832,2073,347.2832" style="stroke:#181818;stroke-width:1.0;"/><line style="stroke:#181818;stroke-width:1.0;" x1="698" x2="2075" y1="347.2832" y2="347.2832"/><text fill="#000000" font-family="sans-serif" font-size="13" font-weight="bold" lengthAdjust="spacing" textLength="9" x="705" y="342.541">9</text><text fill="#000000" font-family="sans-serif" font-size="13" lengthAdjust="spacing" textLength="83" x="718" y="342.541">repositories()</text><polygon fill="#181818" points="709,372.5938,699,376.5938,709,380.5938,705,376.5938" style="stroke:#181818;stroke-width:1.0;"/><line style="stroke:#181818;stroke-width:1.0;stroke-dasharray:2.0,2.0;" x1="703" x2="2085" y1="376.5938" y2="376.5938"/><text fill="#000000" font-family="sans-serif" font-size="13" font-weight="bold" lengthAdjust="spacing" textLength="18" x="715" y="371.8516">10</text><text fill="#000000" font-family="sans-serif" font-size="13" lengthAdjust="spacing" textLength="110" x="737" y="371.8516">repositoryFactory</text><polygon fill="#181818" points="2220.5,401.9043,2230.5,405.9043,2220.5,409.9043,2224.5,405.9043" style="stroke:#181818;stroke-width:1.0;"/><line style="stroke:#181818;stroke-width:1.0;" x1="698" x2="2226.5" y1="405.9043" y2="405.9043"/><text fill="#000000" font-family="sans-serif" font-size="13" font-weight="bold" lengthAdjust="spacing" textLength="18" x="705" y="401.1621">11</text><text fill="#000000" font-family="sans-serif" font-size="13" lengthAdjust="spacing" textLength="57" x="727" y="401.1621">courses()</text><polygon fill="#181818" points="709,431.2148,699,435.2148,709,439.2148,705,435.2148" style="stroke:#181818;stroke-width:1.0;"/><line style="stroke:#181818;stroke-width:1.0;stroke-dasharray:2.0,2.0;" x1="703" x2="2236.5" y1="435.2148" y2="435.2148"/><text fill="#000000" font-family="sans-serif" font-size="13" font-weight="bold" lengthAdjust="spacing" textLength="18" x="715" y="430.4727">12</text><text fill="#000000" font-family="sans-serif" font-size="13" lengthAdjust="spacing" textLength="73" x="737" y="430.4727">courseRepo</text><polygon fill="#181818" points="1008,460.5254,1018,464.5254,1008,468.5254,1012,464.5254" style="stroke:#181818;stroke-width:1.0;"/><line style="stroke:#181818;stroke-width:1.0;" x1="693" x2="1014" y1="464.5254" y2="464.5254"/><text fill="#000000" font-family="sans-serif" font-size="13" font-weight="bold" lengthAdjust="spacing" textLength="18" x="700" y="459.7832">13</text><text fill="#000000" font-family="sans-serif" font-size="13" lengthAdjust="spacing" textLength="276" x="722" y="459.7832">create(enrollmentRequestRepo, courseRepo)</text><polygon fill="#181818" points="676,489.8359,686,493.8359,676,497.8359,680,493.8359" style="stroke:#181818;stroke-width:1.0;"/><line style="stroke:#181818;stroke-width:1.0;" x1="404" x2="682" y1="493.8359" y2="493.8359"/><text fill="#000000" font-family="sans-serif" font-size="13" font-weight="bold" lengthAdjust="spacing" textLength="18" x="411" y="489.0938">14</text><text fill="#000000" font-family="sans-serif" font-size="13" lengthAdjust="spacing" textLength="135" x="433" y="489.0938">getPendingRequests()</text><polygon fill="#181818" points="2502.5,519.1465,2512.5,523.1465,2502.5,527.1465,2506.5,523.1465" style="stroke:#181818;stroke-width:1.0;"/><line style="stroke:#181818;stroke-width:1.0;" x1="698" x2="2508.5" y1="523.1465" y2="523.1465"/><text fill="#000000" font-family="sans-serif" font-size="13" font-weight="bold" lengthAdjust="spacing" textLength="18" x="705" y="518.4043">15</text><text fill="#000000" font-family="sans-serif" font-size="13" lengthAdjust="spacing" textLength="374" x="727" y="518.4043">ensureAuthenticatedUserHasAnyOf(CourseRoles.MANAGER)</text><polygon fill="#181818" points="1743.5,548.457,1753.5,552.457,1743.5,556.457,1747.5,552.457" style="stroke:#181818;stroke-width:1.0;"/><line style="stroke:#181818;stroke-width:1.0;" x1="698" x2="1749.5" y1="552.457" y2="552.457"/><text fill="#000000" font-family="sans-serif" font-size="13" font-weight="bold" lengthAdjust="spacing" textLength="18" x="705" y="547.7148">16</text><text fill="#000000" font-family="sans-serif" font-size="13" lengthAdjust="spacing" textLength="140" x="727" y="547.7148">findPendingRequests()</text><polygon fill="#181818" points="709,577.7676,699,581.7676,709,585.7676,705,581.7676" style="stroke:#181818;stroke-width:1.0;"/><line style="stroke:#181818;stroke-width:1.0;stroke-dasharray:2.0,2.0;" x1="703" x2="1759.5" y1="581.7676" y2="581.7676"/><text fill="#000000" font-family="sans-serif" font-size="13" font-weight="bold" lengthAdjust="spacing" textLength="18" x="715" y="577.0254">17</text><text fill="#000000" font-family="sans-serif" font-size="13" lengthAdjust="spacing" textLength="54" x="737" y="577.0254">requests</text><polygon fill="#181818" points="415,607.0781,405,611.0781,415,615.0781,411,611.0781" style="stroke:#181818;stroke-width:1.0;"/><line style="stroke:#181818;stroke-width:1.0;stroke-dasharray:2.0,2.0;" x1="409" x2="692" y1="611.0781" y2="611.0781"/><text fill="#000000" font-family="sans-serif" font-size="13" font-weight="bold" lengthAdjust="spacing" textLength="18" x="421" y="606.3359">18</text><text fill="#000000" font-family="sans-serif" font-size="13" lengthAdjust="spacing" textLength="54" x="443" y="606.3359">requests</text><polygon fill="#181818" points="64,636.3887,54,640.3887,64,644.3887,60,640.3887" style="stroke:#181818;stroke-width:1.0;"/><line style="stroke:#181818;stroke-width:1.0;stroke-dasharray:2.0,2.0;" x1="58" x2="393" y1="640.3887" y2="640.3887"/><text fill="#000000" font-family="sans-serif" font-size="13" font-weight="bold" lengthAdjust="spacing" textLength="18" x="70" y="635.6465">19</text><text fill="#000000" font-family="sans-serif" font-size="13" lengthAdjust="spacing" textLength="172" x="92" y="635.6465">shows all pending requests</text><polygon fill="#181818" points="382,665.6992,392,669.6992,382,673.6992,386,669.6992" style="stroke:#181818;stroke-width:1.0;"/><line style="stroke:#181818;stroke-width:1.0;" x1="53" x2="388" y1="669.6992" y2="669.6992"/><text fill="#000000" font-family="sans-serif" font-size="13" font-weight="bold" lengthAdjust="spacing" textLength="18" x="60" y="664.957">20</text><text fill="#000000" font-family="sans-serif" font-size="13" lengthAdjust="spacing" textLength="106" x="82" y="664.957">selects a request</text><polygon fill="#181818" points="64,695.0098,54,699.0098,64,703.0098,60,699.0098" style="stroke:#181818;stroke-width:1.0;"/><line style="stroke:#181818;stroke-width:1.0;stroke-dasharray:2.0,2.0;" x1="58" x2="393" y1="699.0098" y2="699.0098"/><text fill="#000000" font-family="sans-serif" font-size="13" font-weight="bold" lengthAdjust="spacing" textLength="18" x="70" y="694.2676">21</text><text fill="#000000" font-family="sans-serif" font-size="13" lengthAdjust="spacing" textLength="295" x="92" y="694.2676">asks if he wants to accept or reject the request</text><polygon fill="#181818" points="382,724.3203,392,728.3203,382,732.3203,386,728.3203" style="stroke:#181818;stroke-width:1.0;"/><line style="stroke:#181818;stroke-width:1.0;" x1="53" x2="388" y1="728.3203" y2="728.3203"/><text fill="#000000" font-family="sans-serif" font-size="13" font-weight="bold" lengthAdjust="spacing" textLength="18" x="60" y="723.5781">22</text><text fill="#000000" font-family="sans-serif" font-size="13" lengthAdjust="spacing" textLength="51" x="82" y="723.5781">answers</text><path d="M10,743.3203 L72,743.3203 L72,750.6309 L62,760.6309 L10,760.6309 L10,743.3203 " fill="#EEEEEE" style="stroke:#000000;stroke-width:1.5;"/><rect fill="none" height="937.582" style="stroke:#000000;stroke-width:1.5;" width="2593" x="10" y="743.3203"/><text fill="#000000" font-family="sans-serif" font-size="13" font-weight="bold" lengthAdjust="spacing" textLength="17" x="25" y="756.8887">alt</text><text fill="#000000" font-family="sans-serif" font-size="11" font-weight="bold" lengthAdjust="spacing" textLength="115" x="87" y="755.9551">[request is accepted]</text><polygon fill="#181818" points="676,777.9414,686,781.9414,676,785.9414,680,781.9414" style="stroke:#181818;stroke-width:1.0;"/><line style="stroke:#181818;stroke-width:1.0;" x1="404" x2="682" y1="781.9414" y2="781.9414"/><text fill="#000000" font-family="sans-serif" font-size="13" font-weight="bold" lengthAdjust="spacing" textLength="18" x="411" y="777.1992">23</text><text fill="#000000" font-family="sans-serif" font-size="13" lengthAdjust="spacing" textLength="146" x="433" y="777.1992">acceptRequest(request)</text><polygon fill="#181818" points="2502.5,807.252,2512.5,811.252,2502.5,815.252,2506.5,811.252" style="stroke:#181818;stroke-width:1.0;"/><line style="stroke:#181818;stroke-width:1.0;" x1="698" x2="2508.5" y1="811.252" y2="811.252"/><text fill="#000000" font-family="sans-serif" font-size="13" font-weight="bold" lengthAdjust="spacing" textLength="18" x="705" y="806.5098">24</text><text fill="#000000" font-family="sans-serif" font-size="13" lengthAdjust="spacing" textLength="374" x="727" y="806.5098">ensureAuthenticatedUserHasAnyOf(CourseRoles.MANAGER)</text><polygon fill="#181818" points="1003,836.5625,1013,840.5625,1003,844.5625,1007,840.5625" style="stroke:#181818;stroke-width:1.0;"/><line style="stroke:#181818;stroke-width:1.0;" x1="698" x2="1009" y1="840.5625" y2="840.5625"/><text fill="#000000" font-family="sans-serif" font-size="13" font-weight="bold" lengthAdjust="spacing" textLength="18" x="705" y="835.8203">25</text><text fill="#000000" font-family="sans-serif" font-size="13" lengthAdjust="spacing" textLength="146" x="727" y="835.8203">acceptRequest(request)</text><polygon fill="#181818" points="1225.5,865.873,1235.5,869.873,1225.5,873.873,1229.5,869.873" style="stroke:#181818;stroke-width:1.0;"/><line style="stroke:#181818;stroke-width:1.0;" x1="1025" x2="1231.5" y1="869.873" y2="869.873"/><text fill="#000000" font-family="sans-serif" font-size="13" font-weight="bold" lengthAdjust="spacing" textLength="18" x="1032" y="865.1309">26</text><text fill="#000000" font-family="sans-serif" font-size="13" lengthAdjust="spacing" textLength="49" x="1054" y="865.1309">accept()</text><line style="stroke:#181818;stroke-width:1.0;" x1="1247.5" x2="1289.5" y1="899.1836" y2="899.1836"/><line style="stroke:#181818;stroke-width:1.0;" x1="1289.5" x2="1289.5" y1="899.1836" y2="912.1836"/><line style="stroke:#181818;stroke-width:1.0;" x1="1248.5" x2="1289.5" y1="912.1836" y2="912.1836"/><polygon fill="#181818" points="1258.5,908.1836,1248.5,912.1836,1258.5,916.1836,1254.5,912.1836" style="stroke:#181818;stroke-width:1.0;"/><text fill="#000000" font-family="sans-serif" font-size="13" font-weight="bold" lengthAdjust="spacing" textLength="18" x="1254.5" y="894.4414">27</text><text fill="#000000" font-family="sans-serif" font-size="13" lengthAdjust="spacing" textLength="228" x="1276.5" y="894.4414">this.state = RequestState.ACCEPTED</text><polygon fill="#181818" points="1499.5,937.4941,1509.5,941.4941,1499.5,945.4941,1503.5,941.4941" style="stroke:#181818;stroke-width:1.0;"/><line style="stroke:#181818;stroke-width:1.0;" x1="1247.5" x2="1505.5" y1="941.4941" y2="941.4941"/><text fill="#000000" font-family="sans-serif" font-size="13" font-weight="bold" lengthAdjust="spacing" textLength="18" x="1254.5" y="936.752">28</text><text fill="#000000" font-family="sans-serif" font-size="13" lengthAdjust="spacing" textLength="29" x="1276.5" y="936.752">init()</text><polygon fill="#181818" points="1258.5,966.8047,1248.5,970.8047,1258.5,974.8047,1254.5,970.8047" style="stroke:#181818;stroke-width:1.0;"/><line style="stroke:#181818;stroke-width:1.0;stroke-dasharray:2.0,2.0;" x1="1252.5" x2="1515.5" y1="970.8047" y2="970.8047"/><text fill="#000000" font-family="sans-serif" font-size="13" font-weight="bold" lengthAdjust="spacing" textLength="18" x="1264.5" y="966.0625">29</text><text fill="#000000" font-family="sans-serif" font-size="13" lengthAdjust="spacing" textLength="27" x="1286.5" y="966.0625">date</text><polygon fill="#181818" points="1597.5,996.1152,1607.5,1000.1152,1597.5,1004.1152,1601.5,1000.1152" style="stroke:#181818;stroke-width:1.0;"/><line style="stroke:#181818;stroke-width:1.0;" x1="1247.5" x2="1603.5" y1="1000.1152" y2="1000.1152"/><text fill="#000000" font-family="sans-serif" font-size="13" font-weight="bold" lengthAdjust="spacing" textLength="18" x="1254.5" y="995.373">30</text><text fill="#000000" font-family="sans-serif" font-size="13" lengthAdjust="spacing" textLength="155" x="1276.5" y="995.373">addStudent(this.student)</text><polygon fill="#181818" points="1253.5,1025.4258,1243.5,1029.4258,1253.5,1033.4258,1249.5,1029.4258" style="stroke:#181818;stroke-width:1.0;"/><line style="stroke:#181818;stroke-width:1.0;stroke-dasharray:2.0,2.0;" x1="1247.5" x2="1613.5" y1="1029.4258" y2="1029.4258"/><text fill="#000000" font-family="sans-serif" font-size="13" font-weight="bold" lengthAdjust="spacing" textLength="18" x="1259.5" y="1024.6836">31</text><text fill="#000000" font-family="sans-serif" font-size="13" lengthAdjust="spacing" textLength="42" x="1281.5" y="1024.6836">course</text><polygon fill="#181818" points="1743.5,1054.7363,1753.5,1058.7363,1743.5,1062.7363,1747.5,1058.7363" style="stroke:#181818;stroke-width:1.0;"/><line style="stroke:#181818;stroke-width:1.0;" x1="1025" x2="1749.5" y1="1058.7363" y2="1058.7363"/><text fill="#000000" font-family="sans-serif" font-size="13" font-weight="bold" lengthAdjust="spacing" textLength="18" x="1032" y="1053.9941">32</text><text fill="#000000" font-family="sans-serif" font-size="13" lengthAdjust="spacing" textLength="83" x="1054" y="1053.9941">save(request)</text><polygon fill="#181818" points="1036,1084.0469,1026,1088.0469,1036,1092.0469,1032,1088.0469" style="stroke:#181818;stroke-width:1.0;"/><line style="stroke:#181818;stroke-width:1.0;stroke-dasharray:2.0,2.0;" x1="1030" x2="1759.5" y1="1088.0469" y2="1088.0469"/><text fill="#000000" font-family="sans-serif" font-size="13" font-weight="bold" lengthAdjust="spacing" textLength="18" x="1042" y="1083.3047">33</text><text fill="#000000" font-family="sans-serif" font-size="13" lengthAdjust="spacing" textLength="47" x="1064" y="1083.3047">request</text><polygon fill="#181818" points="1225.5,1113.3574,1235.5,1117.3574,1225.5,1121.3574,1229.5,1117.3574" style="stroke:#181818;stroke-width:1.0;"/><line style="stroke:#181818;stroke-width:1.0;" x1="1025" x2="1231.5" y1="1117.3574" y2="1117.3574"/><text fill="#000000" font-family="sans-serif" font-size="13" font-weight="bold" lengthAdjust="spacing" textLength="18" x="1032" y="1112.6152">34</text><text fill="#000000" font-family="sans-serif" font-size="13" lengthAdjust="spacing" textLength="50" x="1054" y="1112.6152">course()</text><polygon fill="#181818" points="1036,1142.668,1026,1146.668,1036,1150.668,1032,1146.668" style="stroke:#181818;stroke-width:1.0;"/><line style="stroke:#181818;stroke-width:1.0;stroke-dasharray:2.0,2.0;" x1="1030" x2="1241.5" y1="1146.668" y2="1146.668"/><text fill="#000000" font-family="sans-serif" font-size="13" font-weight="bold" lengthAdjust="spacing" textLength="18" x="1042" y="1141.9258">35</text><text fill="#000000" font-family="sans-serif" font-size="13" lengthAdjust="spacing" textLength="42" x="1064" y="1141.9258">course</text><polygon fill="#181818" points="1922,1171.9785,1932,1175.9785,1922,1179.9785,1926,1175.9785" style="stroke:#181818;stroke-width:1.0;"/><line style="stroke:#181818;stroke-width:1.0;" x1="1025" x2="1928" y1="1175.9785" y2="1175.9785"/><text fill="#000000" font-family="sans-serif" font-size="13" font-weight="bold" lengthAdjust="spacing" textLength="18" x="1032" y="1171.2363">36</text><text fill="#000000" font-family="sans-serif" font-size="13" lengthAdjust="spacing" textLength="78" x="1054" y="1171.2363">save(course)</text><polygon fill="#181818" points="1036,1201.2891,1026,1205.2891,1036,1209.2891,1032,1205.2891" style="stroke:#181818;stroke-width:1.0;"/><line style="stroke:#181818;stroke-width:1.0;stroke-dasharray:2.0,2.0;" x1="1030" x2="1938" y1="1205.2891" y2="1205.2891"/><text fill="#000000" font-family="sans-serif" font-size="13" font-weight="bold" lengthAdjust="spacing" textLength="18" x="1042" y="1200.5469">37</text><text fill="#000000" font-family="sans-serif" font-size="13" lengthAdjust="spacing" textLength="42" x="1064" y="1200.5469">course</text><polygon fill="#181818" points="709,1230.5996,699,1234.5996,709,1238.5996,705,1234.5996" style="stroke:#181818;stroke-width:1.0;"/><line style="stroke:#181818;stroke-width:1.0;stroke-dasharray:2.0,2.0;" x1="703" x2="1019" y1="1234.5996" y2="1234.5996"/><text fill="#000000" font-family="sans-serif" font-size="13" font-weight="bold" lengthAdjust="spacing" textLength="18" x="715" y="1229.8574">38</text><text fill="#000000" font-family="sans-serif" font-size="13" lengthAdjust="spacing" textLength="47" x="737" y="1229.8574">request</text><polygon fill="#181818" points="415,1259.9102,405,1263.9102,415,1267.9102,411,1263.9102" style="stroke:#181818;stroke-width:1.0;"/><line style="stroke:#181818;stroke-width:1.0;stroke-dasharray:2.0,2.0;" x1="409" x2="692" y1="1263.9102" y2="1263.9102"/><text fill="#000000" font-family="sans-serif" font-size="13" font-weight="bold" lengthAdjust="spacing" textLength="18" x="421" y="1259.168">39</text><text fill="#000000" font-family="sans-serif" font-size="13" lengthAdjust="spacing" textLength="47" x="443" y="1259.168">request</text><polygon fill="#181818" points="64,1289.2207,54,1293.2207,64,1297.2207,60,1293.2207" style="stroke:#181818;stroke-width:1.0;"/><line style="stroke:#181818;stroke-width:1.0;stroke-dasharray:2.0,2.0;" x1="58" x2="393" y1="1293.2207" y2="1293.2207"/><text fill="#000000" font-family="sans-serif" font-size="13" font-weight="bold" lengthAdjust="spacing" textLength="18" x="70" y="1288.4785">40</text><text fill="#000000" font-family="sans-serif" font-size="13" lengthAdjust="spacing" textLength="217" x="92" y="1288.4785">informs that request was accepted</text><line style="stroke:#000000;stroke-width:1.0;stroke-dasharray:2.0,2.0;" x1="10" x2="2603" y1="1302.2207" y2="1302.2207"/><text fill="#000000" font-family="sans-serif" font-size="11" font-weight="bold" lengthAdjust="spacing" textLength="111" x="15" y="1312.8555">[request is rejected]</text><polygon fill="#181818" points="676,1333.4863,686,1337.4863,676,1341.4863,680,1337.4863" style="stroke:#181818;stroke-width:1.0;"/><line style="stroke:#181818;stroke-width:1.0;stroke-dasharray:2.0,2.0;" x1="404" x2="682" y1="1337.4863" y2="1337.4863"/><text fill="#000000" font-family="sans-serif" font-size="13" font-weight="bold" lengthAdjust="spacing" textLength="18" x="411" y="1332.7441">41</text><text fill="#000000" font-family="sans-serif" font-size="13" lengthAdjust="spacing" textLength="140" x="433" y="1332.7441">rejectRequest(request)</text><polygon fill="#181818" points="2502.5,1362.7969,2512.5,1366.7969,2502.5,1370.7969,2506.5,1366.7969" style="stroke:#181818;stroke-width:1.0;"/><line style="stroke:#181818;stroke-width:1.0;" x1="698" x2="2508.5" y1="1366.7969" y2="1366.7969"/><text fill="#000000" font-family="sans-serif" font-size="13" font-weight="bold" lengthAdjust="spacing" textLength="18" x="705" y="1362.0547">42</text><text fill="#000000" font-family="sans-serif" font-size="13" lengthAdjust="spacing" textLength="374" x="727" y="1362.0547">ensureAuthenticatedUserHasAnyOf(CourseRoles.MANAGER)</text><polygon fill="#181818" points="1003,1392.1074,1013,1396.1074,1003,1400.1074,1007,1396.1074" style="stroke:#181818;stroke-width:1.0;"/><line style="stroke:#181818;stroke-width:1.0;" x1="698" x2="1009" y1="1396.1074" y2="1396.1074"/><text fill="#000000" font-family="sans-serif" font-size="13" font-weight="bold" lengthAdjust="spacing" textLength="18" x="705" y="1391.3652">43</text><text fill="#000000" font-family="sans-serif" font-size="13" lengthAdjust="spacing" textLength="140" x="727" y="1391.3652">rejectRequest(request)</text><polygon fill="#181818" points="1225.5,1421.418,1235.5,1425.418,1225.5,1429.418,1229.5,1425.418" style="stroke:#181818;stroke-width:1.0;"/><line style="stroke:#181818;stroke-width:1.0;" x1="1025" x2="1231.5" y1="1425.418" y2="1425.418"/><text fill="#000000" font-family="sans-serif" font-size="13" font-weight="bold" lengthAdjust="spacing" textLength="18" x="1032" y="1420.6758">44</text><text fill="#000000" font-family="sans-serif" font-size="13" lengthAdjust="spacing" textLength="43" x="1054" y="1420.6758">reject()</text><line style="stroke:#181818;stroke-width:1.0;" x1="1247.5" x2="1289.5" y1="1454.7285" y2="1454.7285"/><line style="stroke:#181818;stroke-width:1.0;" x1="1289.5" x2="1289.5" y1="1454.7285" y2="1467.7285"/><line style="stroke:#181818;stroke-width:1.0;" x1="1248.5" x2="1289.5" y1="1467.7285" y2="1467.7285"/><polygon fill="#181818" points="1258.5,1463.7285,1248.5,1467.7285,1258.5,1471.7285,1254.5,1467.7285" style="stroke:#181818;stroke-width:1.0;"/><text fill="#000000" font-family="sans-serif" font-size="13" font-weight="bold" lengthAdjust="spacing" textLength="18" x="1254.5" y="1449.9863">45</text><text fill="#000000" font-family="sans-serif" font-size="13" lengthAdjust="spacing" textLength="222" x="1276.5" y="1449.9863">this.state = RequestState.REJECTED</text><polygon fill="#181818" points="1499.5,1493.0391,1509.5,1497.0391,1499.5,1501.0391,1503.5,1497.0391" style="stroke:#181818;stroke-width:1.0;"/><line style="stroke:#181818;stroke-width:1.0;" x1="1247.5" x2="1505.5" y1="1497.0391" y2="1497.0391"/><text fill="#000000" font-family="sans-serif" font-size="13" font-weight="bold" lengthAdjust="spacing" textLength="18" x="1254.5" y="1492.2969">46</text><text fill="#000000" font-family="sans-serif" font-size="13" lengthAdjust="spacing" textLength="29" x="1276.5" y="1492.2969">init()</text><polygon fill="#181818" points="1253.5,1522.3496,1243.5,1526.3496,1253.5,1530.3496,1249.5,1526.3496" style="stroke:#181818;stroke-width:1.0;"/><line style="stroke:#181818;stroke-width:1.0;stroke-dasharray:2.0,2.0;" x1="1247.5" x2="1515.5" y1="1526.3496" y2="1526.3496"/><text fill="#000000" font-family="sans-serif" font-size="13" font-weight="bold" lengthAdjust="spacing" textLength="18" x="1259.5" y="1521.6074">47</text><text fill="#000000" font-family="sans-serif" font-size="13" lengthAdjust="spacing" textLength="27" x="1281.5" y="1521.6074">date</text><polygon fill="#181818" points="1743.5,1551.6602,1753.5,1555.6602,1743.5,1559.6602,1747.5,1555.6602" style="stroke:#181818;stroke-width:1.0;"/><line style="stroke:#181818;stroke-width:1.0;" x1="1025" x2="1749.5" y1="1555.6602" y2="1555.6602"/><text fill="#000000" font-family="sans-serif" font-size="13" font-weight="bold" lengthAdjust="spacing" textLength="18" x="1032" y="1550.918">48</text><text fill="#000000" font-family="sans-serif" font-size="13" lengthAdjust="spacing" textLength="83" x="1054" y="1550.918">save(request)</text><polygon fill="#181818" points="1036,1580.9707,1026,1584.9707,1036,1588.9707,1032,1584.9707" style="stroke:#181818;stroke-width:1.0;"/><line style="stroke:#181818;stroke-width:1.0;stroke-dasharray:2.0,2.0;" x1="1030" x2="1759.5" y1="1584.9707" y2="1584.9707"/><text fill="#000000" font-family="sans-serif" font-size="13" font-weight="bold" lengthAdjust="spacing" textLength="18" x="1042" y="1580.2285">49</text><text fill="#000000" font-family="sans-serif" font-size="13" lengthAdjust="spacing" textLength="47" x="1064" y="1580.2285">request</text><polygon fill="#181818" points="709,1610.2813,699,1614.2813,709,1618.2813,705,1614.2813" style="stroke:#181818;stroke-width:1.0;"/><line style="stroke:#181818;stroke-width:1.0;stroke-dasharray:2.0,2.0;" x1="703" x2="1019" y1="1614.2813" y2="1614.2813"/><text fill="#000000" font-family="sans-serif" font-size="13" font-weight="bold" lengthAdjust="spacing" textLength="18" x="715" y="1609.5391">50</text><text fill="#000000" font-family="sans-serif" font-size="13" lengthAdjust="spacing" textLength="47" x="737" y="1609.5391">request</text><polygon fill="#181818" points="415,1639.5918,405,1643.5918,415,1647.5918,411,1643.5918" style="stroke:#181818;stroke-width:1.0;"/><line style="stroke:#181818;stroke-width:1.0;stroke-dasharray:2.0,2.0;" x1="409" x2="692" y1="1643.5918" y2="1643.5918"/><text fill="#000000" font-family="sans-serif" font-size="13" font-weight="bold" lengthAdjust="spacing" textLength="18" x="421" y="1638.8496">51</text><text fill="#000000" font-family="sans-serif" font-size="13" lengthAdjust="spacing" textLength="47" x="443" y="1638.8496">request</text><polygon fill="#181818" points="64,1668.9023,54,1672.9023,64,1676.9023,60,1672.9023" style="stroke:#181818;stroke-width:1.0;"/><line style="stroke:#181818;stroke-width:1.0;stroke-dasharray:2.0,2.0;" x1="58" x2="393" y1="1672.9023" y2="1672.9023"/><text fill="#000000" font-family="sans-serif" font-size="13" font-weight="bold" lengthAdjust="spacing" textLength="18" x="70" y="1668.1602">52</text><text fill="#000000" font-family="sans-serif" font-size="13" lengthAdjust="spacing" textLength="211" x="92" y="1668.1602">informs that request was rejected</text><!--SRC=[nLPRRjim4FpNAVZf07KE4A053CTDMo2jOJS7OAIrpLQcN9Aoavo-ovV8bPGu1Hh4Nn8rkxEStI7DMzF8TdyFgYXuQHh5RhdaMr2CQxRtZqLnuCg8KXouD6mczGdKGggchlSWpGh-jA3DtLSRqOfNWUUDD7R9qvH6rIHgWFSrsOKrgACemOPf_rYy76gHoZ-EL0RLDJSk6y_U2N3Uj4exIEcUYgBYXjzpN1kGhU3GQ84gFdhQGvF0FWz5bDqQtSKIb1RQW2p1IWKFnklqG50frsVNkeuqlFPQqPhTqmgsc3SY_VC0rIZnn8reP2Osjz55KOIHODDFs6jsnKuOf9bfWdwCTs9Z3U9enRKpWLYCm0rWY8fb2z2JYuIpsxE8QSoj-lihAY3ea3RRCaP1loc499SdZ-j8OQodEJ4HE1OGLBroElNre_n1z2wcOxQXwsD9kGAw4r3LY2mLuDV9QAaVOXwYB1giSC7_r8L0TxOFCJDjX1_kLwiVzvOiyPpeaIuS06S5IIalQELM5IBi5imIP2NaTcnsg8pE4MvWTAl0-WPvHOd0wWuh-yBrJ3x-s4o2xviQzENjxFliPh6wA8Xac6GZPFK2ipj9d6AqBnxP5ofcJpuQujBc4HLDVSNqhZcXsUkQ7NmrANXWVGqrb6Z-PFbXFgv_QoOsR0VPIL6MS30Chne5lp03G-LIYZwBFrUGdjScefZG8GjKlGxwvQ3X9E3Vk8Tf3i-nTrTM374JuFSKesdVWoeHHF1c9_IbDXRuaGNIjNszdCtdY-NFnJK9p6yuZ1PI42vo0HBibB1MzdisIIGkv_Esi_kgghLfAvHs4afsBtbN_CqQ8YXV-4PctAkIZtEucgcmpbgQ7s6a5SuedQDI2qUIUq-DjippZhMi4u8ULCzk9i-V3gnOlryPAEQEoGnzZYp_lz7n3GwKFAARsD4ZvHKdYf2RHktH-3kU_7lYkO6Xrf1RsnyBqTfvUNRzlRnzZlrbR_le_-7jrUBROluUtZupj6zbjtSQpsu8yHx42n7tQdz_0G00]--></g></svg>