<?xml version="1.0" encoding="us-ascii" standalone="no"?><svg xmlns="http://www.w3.org/2000/svg" xmlns:xlink="http://www.w3.org/1999/xlink" contentStyleType="text/css" height="708px" preserveAspectRatio="none" style="width:1149px;height:708px;background:#FFFFFF;" version="1.1" viewBox="0 0 1149 708" width="1149px" zoomAndPan="magnify"><defs/><g><rect fill="#FFFFFF" height="469.3652" style="stroke:#181818;stroke-width:1.0;" width="10" x="288.5" y="121.5332"/><rect fill="#FFFFFF" height="219.0371" style="stroke:#181818;stroke-width:1.0;" width="10" x="526.5" y="340.5703"/><rect fill="#FFFFFF" height="31.291" style="stroke:#181818;stroke-width:1.0;" width="10" x="689.5" y="277.9883"/><rect fill="#FFFFFF" height="93.873" style="stroke:#181818;stroke-width:1.0;" width="10" x="901.5" y="371.8613"/><rect fill="#FFFFFF" height="31.291" style="stroke:#181818;stroke-width:1.0;" width="10" x="1022" y="497.0254"/><rect fill="#FFFFFF" height="31.291" style="stroke:#181818;stroke-width:1.0;" width="10" x="1112.5" y="403.1523"/><line style="stroke:#181818;stroke-width:0.5;stroke-dasharray:5.0,5.0;" x1="22" x2="22" y1="88.2422" y2="608.8984"/><line style="stroke:#181818;stroke-width:0.5;stroke-dasharray:5.0,5.0;" x1="293" x2="293" y1="88.2422" y2="608.8984"/><line style="stroke:#181818;stroke-width:0.5;stroke-dasharray:5.0,5.0;" x1="531.5" x2="531.5" y1="88.2422" y2="608.8984"/><line style="stroke:#181818;stroke-width:0.5;stroke-dasharray:5.0,5.0;" x1="694.5" x2="694.5" y1="88.2422" y2="608.8984"/><line style="stroke:#181818;stroke-width:0.5;stroke-dasharray:5.0,5.0;" x1="802.5" x2="802.5" y1="88.2422" y2="608.8984"/><line style="stroke:#181818;stroke-width:0.5;stroke-dasharray:5.0,5.0;" x1="906.5" x2="906.5" y1="88.2422" y2="608.8984"/><line style="stroke:#181818;stroke-width:0.5;stroke-dasharray:5.0,5.0;" x1="1026.5" x2="1026.5" y1="88.2422" y2="608.8984"/><line style="stroke:#181818;stroke-width:0.5;stroke-dasharray:5.0,5.0;" x1="1117.5" x2="1117.5" y1="88.2422" y2="608.8984"/><text fill="#000000" font-family="FG Virgil" font-size="14" lengthAdjust="spacing" textLength="29" x="5" y="84.7285">User</text><ellipse cx="22.5" cy="18.1211" fill="#E3E3E3" rx="8" ry="8" style="stroke:#181818;stroke-width:0.5;"/><path d="M22.5,26.1211 L22.5,53.1211 M9.5,34.1211 L35.5,34.1211 M22.5,53.1211 L9.5,68.1211 M22.5,53.1211 L35.5,68.1211 " fill="none" style="stroke:#181818;stroke-width:0.5;"/><text fill="#000000" font-family="FG Virgil" font-size="14" lengthAdjust="spacing" textLength="29" x="5" y="623.0059">User</text><ellipse cx="22.5" cy="635.0195" fill="#E3E3E3" rx="8" ry="8" style="stroke:#181818;stroke-width:0.5;"/><path d="M22.5,643.0195 L22.5,670.0195 M9.5,651.0195 L35.5,651.0195 M22.5,670.0195 L9.5,685.0195 M22.5,670.0195 L35.5,685.0195 " fill="none" style="stroke:#181818;stroke-width:0.5;"/><rect fill="#E3E3E3" height="51.2422" rx="2.5" ry="2.5" style="stroke:#181818;stroke-width:0.5;" width="107" x="240" y="36"/><text fill="#000000" font-family="FG Virgil" font-size="14" font-style="italic" lengthAdjust="spacing" textLength="83" x="252" y="58.1074">&#171;http server&#187;</text><text fill="#000000" font-family="FG Virgil" font-size="14" lengthAdjust="spacing" textLength="93" x="247" y="76.7285">HttpServerAjax</text><rect fill="#E3E3E3" height="51.2422" rx="2.5" ry="2.5" style="stroke:#181818;stroke-width:0.5;" width="107" x="240" y="607.8984"/><text fill="#000000" font-family="FG Virgil" font-size="14" font-style="italic" lengthAdjust="spacing" textLength="83" x="252" y="630.0059">&#171;http server&#187;</text><text fill="#000000" font-family="FG Virgil" font-size="14" lengthAdjust="spacing" textLength="93" x="247" y="648.627">HttpServerAjax</text><rect fill="#E3E3E3" height="51.2422" rx="2.5" ry="2.5" style="stroke:#181818;stroke-width:0.5;" width="186" x="438.5" y="36"/><text fill="#000000" font-family="FG Virgil" font-size="14" font-style="italic" lengthAdjust="spacing" textLength="84" x="489.5" y="58.1074">&#171;application&#187;</text><text fill="#000000" font-family="FG Virgil" font-size="14" lengthAdjust="spacing" textLength="172" x="445.5" y="76.7285">ViewBoardHistoryController</text><rect fill="#E3E3E3" height="51.2422" rx="2.5" ry="2.5" style="stroke:#181818;stroke-width:0.5;" width="186" x="438.5" y="607.8984"/><text fill="#000000" font-family="FG Virgil" font-size="14" font-style="italic" lengthAdjust="spacing" textLength="84" x="489.5" y="630.0059">&#171;application&#187;</text><text fill="#000000" font-family="FG Virgil" font-size="14" lengthAdjust="spacing" textLength="172" x="445.5" y="648.627">ViewBoardHistoryController</text><rect fill="#E3E3E3" height="32.6211" rx="2.5" ry="2.5" style="stroke:#181818;stroke-width:0.5;" width="120" x="634.5" y="54.6211"/><text fill="#000000" font-family="FG Virgil" font-size="14" lengthAdjust="spacing" textLength="106" x="641.5" y="76.7285">SessionManager</text><rect fill="#E3E3E3" height="32.6211" rx="2.5" ry="2.5" style="stroke:#181818;stroke-width:0.5;" width="120" x="634.5" y="607.8984"/><text fill="#000000" font-family="FG Virgil" font-size="14" lengthAdjust="spacing" textLength="106" x="641.5" y="630.0059">SessionManager</text><rect fill="#E3E3E3" height="51.2422" rx="2.5" ry="2.5" style="stroke:#181818;stroke-width:0.5;" width="76" x="764.5" y="36"/><text fill="#000000" font-family="FG Virgil" font-size="14" font-style="italic" lengthAdjust="spacing" textLength="62" x="771.5" y="58.1074">&#171;domain&#187;</text><text fill="#000000" font-family="FG Virgil" font-size="14" lengthAdjust="spacing" textLength="38" x="783.5" y="76.7285">Board</text><rect fill="#E3E3E3" height="51.2422" rx="2.5" ry="2.5" style="stroke:#181818;stroke-width:0.5;" width="76" x="764.5" y="607.8984"/><text fill="#000000" font-family="FG Virgil" font-size="14" font-style="italic" lengthAdjust="spacing" textLength="62" x="771.5" y="630.0059">&#171;domain&#187;</text><text fill="#000000" font-family="FG Virgil" font-size="14" lengthAdjust="spacing" textLength="38" x="783.5" y="648.627">Board</text><text fill="#000000" font-family="FG Virgil" font-size="14" font-style="italic" lengthAdjust="spacing" textLength="79" x="864" y="66.1074">&#171;repository&#187;</text><text fill="#000000" font-family="FG Virgil" font-size="14" lengthAdjust="spacing" textLength="106" x="850.5" y="84.7285">BoardRepository</text><path d="M888.5,15 C888.5,5 906.5,5 906.5,5 C906.5,5 924.5,5 924.5,15 L924.5,41 C924.5,51 906.5,51 906.5,51 C906.5,51 888.5,51 888.5,41 L888.5,15 " fill="#E3E3E3" style="stroke:#181818;stroke-width:1.5;"/><path d="M888.5,15 C888.5,25 906.5,25 906.5,25 C906.5,25 924.5,25 924.5,15 " fill="none" style="stroke:#181818;stroke-width:1.5;"/><text fill="#000000" font-family="FG Virgil" font-size="14" font-style="italic" lengthAdjust="spacing" textLength="79" x="864" y="623.0059">&#171;repository&#187;</text><text fill="#000000" font-family="FG Virgil" font-size="14" lengthAdjust="spacing" textLength="106" x="850.5" y="641.627">BoardRepository</text><path d="M888.5,655.1406 C888.5,645.1406 906.5,645.1406 906.5,645.1406 C906.5,645.1406 924.5,645.1406 924.5,655.1406 L924.5,681.1406 C924.5,691.1406 906.5,691.1406 906.5,691.1406 C906.5,691.1406 888.5,691.1406 888.5,681.1406 L888.5,655.1406 " fill="#E3E3E3" style="stroke:#181818;stroke-width:1.5;"/><path d="M888.5,655.1406 C888.5,665.1406 906.5,665.1406 906.5,665.1406 C906.5,665.1406 924.5,665.1406 924.5,655.1406 " fill="none" style="stroke:#181818;stroke-width:1.5;"/><text fill="#000000" font-family="FG Virgil" font-size="14" font-style="italic" lengthAdjust="spacing" textLength="79" x="984.5" y="66.1074">&#171;repository&#187;</text><text fill="#000000" font-family="FG Virgil" font-size="14" lengthAdjust="spacing" textLength="103" x="972.5" y="84.7285">PostItRepository</text><path d="M1009,15 C1009,5 1027,5 1027,5 C1027,5 1045,5 1045,15 L1045,41 C1045,51 1027,51 1027,51 C1027,51 1009,51 1009,41 L1009,15 " fill="#E3E3E3" style="stroke:#181818;stroke-width:1.5;"/><path d="M1009,15 C1009,25 1027,25 1027,25 C1027,25 1045,25 1045,15 " fill="none" style="stroke:#181818;stroke-width:1.5;"/><text fill="#000000" font-family="FG Virgil" font-size="14" font-style="italic" lengthAdjust="spacing" textLength="79" x="984.5" y="623.0059">&#171;repository&#187;</text><text fill="#000000" font-family="FG Virgil" font-size="14" lengthAdjust="spacing" textLength="103" x="972.5" y="641.627">PostItRepository</text><path d="M1009,655.1406 C1009,645.1406 1027,645.1406 1027,645.1406 C1027,645.1406 1045,645.1406 1045,655.1406 L1045,681.1406 C1045,691.1406 1027,691.1406 1027,691.1406 C1027,691.1406 1009,691.1406 1009,681.1406 L1009,655.1406 " fill="#E3E3E3" style="stroke:#181818;stroke-width:1.5;"/><path d="M1009,655.1406 C1009,665.1406 1027,665.1406 1027,665.1406 C1027,665.1406 1045,665.1406 1045,655.1406 " fill="none" style="stroke:#181818;stroke-width:1.5;"/><rect fill="#E3E3E3" height="32.6211" rx="2.5" ry="2.5" style="stroke:#181818;stroke-width:0.5;" width="52" x="1091.5" y="54.6211"/><text fill="#000000" font-family="FG Virgil" font-size="14" lengthAdjust="spacing" textLength="38" x="1098.5" y="76.7285">Board</text><rect fill="#E3E3E3" height="32.6211" rx="2.5" ry="2.5" style="stroke:#181818;stroke-width:0.5;" width="52" x="1091.5" y="607.8984"/><text fill="#000000" font-family="FG Virgil" font-size="14" lengthAdjust="spacing" textLength="38" x="1098.5" y="630.0059">Board</text><rect fill="#FFFFFF" height="469.3652" style="stroke:#181818;stroke-width:1.0;" width="10" x="288.5" y="121.5332"/><rect fill="#FFFFFF" height="219.0371" style="stroke:#181818;stroke-width:1.0;" width="10" x="526.5" y="340.5703"/><rect fill="#FFFFFF" height="31.291" style="stroke:#181818;stroke-width:1.0;" width="10" x="689.5" y="277.9883"/><rect fill="#FFFFFF" height="93.873" style="stroke:#181818;stroke-width:1.0;" width="10" x="901.5" y="371.8613"/><rect fill="#FFFFFF" height="31.291" style="stroke:#181818;stroke-width:1.0;" width="10" x="1022" y="497.0254"/><rect fill="#FFFFFF" height="31.291" style="stroke:#181818;stroke-width:1.0;" width="10" x="1112.5" y="403.1523"/><polygon fill="#181818" points="276.5,117.5332,286.5,121.5332,276.5,125.5332,280.5,121.5332" style="stroke:#181818;stroke-width:1.0;"/><line style="stroke:#181818;stroke-width:1.0;" x1="22.5" x2="282.5" y1="121.5332" y2="121.5332"/><text fill="#000000" font-family="FG Virgil" font-size="13" lengthAdjust="spacing" textLength="154" x="29.5" y="116.2705">View the history of a board</text><polygon fill="#181818" points="519.5,148.8242,529.5,152.8242,519.5,156.8242,523.5,152.8242" style="stroke:#181818;stroke-width:1.0;"/><line style="stroke:#181818;stroke-width:1.0;" x1="298.5" x2="525.5" y1="152.8242" y2="152.8242"/><text fill="#000000" font-family="FG Virgil" font-size="13" lengthAdjust="spacing" textLength="44" x="305.5" y="147.5615">create()</text><polygon fill="#181818" points="682.5,180.1152,692.5,184.1152,682.5,188.1152,686.5,184.1152" style="stroke:#181818;stroke-width:1.0;"/><line style="stroke:#181818;stroke-width:1.0;" x1="298.5" x2="688.5" y1="184.1152" y2="184.1152"/><text fill="#000000" font-family="FG Virgil" font-size="13" lengthAdjust="spacing" textLength="44" x="305.5" y="178.8525">create()</text><polygon fill="#181818" points="33.5,211.4063,23.5,215.4063,33.5,219.4063,29.5,215.4063" style="stroke:#181818;stroke-width:1.0;"/><line style="stroke:#181818;stroke-width:1.0;" x1="27.5" x2="287.5" y1="215.4063" y2="215.4063"/><text fill="#000000" font-family="FG Virgil" font-size="13" lengthAdjust="spacing" textLength="242" x="39.5" y="210.1436">onLoad after clicking on the previous page</text><polygon fill="#181818" points="276.5,242.6973,286.5,246.6973,276.5,250.6973,280.5,246.6973" style="stroke:#181818;stroke-width:1.0;"/><line style="stroke:#181818;stroke-width:1.0;" x1="22.5" x2="282.5" y1="246.6973" y2="246.6973"/><text fill="#000000" font-family="FG Virgil" font-size="13" lengthAdjust="spacing" textLength="42" x="29.5" y="241.4346">boardId</text><polygon fill="#181818" points="677.5,273.9883,687.5,277.9883,677.5,281.9883,681.5,277.9883" style="stroke:#181818;stroke-width:1.0;"/><line style="stroke:#181818;stroke-width:1.0;" x1="298.5" x2="683.5" y1="277.9883" y2="277.9883"/><text fill="#000000" font-family="FG Virgil" font-size="13" lengthAdjust="spacing" textLength="136" x="305.5" y="272.7256">getUserByToken(token)</text><polygon fill="#181818" points="309.5,305.2793,299.5,309.2793,309.5,313.2793,305.5,309.2793" style="stroke:#181818;stroke-width:1.0;"/><line style="stroke:#181818;stroke-width:1.0;" x1="303.5" x2="693.5" y1="309.2793" y2="309.2793"/><text fill="#000000" font-family="FG Virgil" font-size="13" lengthAdjust="spacing" textLength="52" x="315.5" y="304.0166">authUser</text><polygon fill="#181818" points="514.5,336.5703,524.5,340.5703,514.5,344.5703,518.5,340.5703" style="stroke:#181818;stroke-width:1.0;"/><line style="stroke:#181818;stroke-width:1.0;" x1="298.5" x2="520.5" y1="340.5703" y2="340.5703"/><text fill="#000000" font-family="FG Virgil" font-size="13" lengthAdjust="spacing" textLength="209" x="305.5" y="335.3076">viewBoardHistory(boardId, authUser)</text><polygon fill="#181818" points="889.5,367.8613,899.5,371.8613,889.5,375.8613,893.5,371.8613" style="stroke:#181818;stroke-width:1.0;"/><line style="stroke:#181818;stroke-width:1.0;" x1="536.5" x2="895.5" y1="371.8613" y2="371.8613"/><text fill="#000000" font-family="FG Virgil" font-size="13" lengthAdjust="spacing" textLength="102" x="543.5" y="366.5986">ofIdentity(boardId)</text><polygon fill="#181818" points="1100.5,399.1523,1110.5,403.1523,1100.5,407.1523,1104.5,403.1523" style="stroke:#181818;stroke-width:1.0;"/><line style="stroke:#181818;stroke-width:1.0;" x1="911.5" x2="1106.5" y1="403.1523" y2="403.1523"/><text fill="#000000" font-family="FG Virgil" font-size="13" lengthAdjust="spacing" textLength="152" x="918.5" y="397.8896">userHasAccess(authUser)</text><polygon fill="#181818" points="922.5,430.4434,912.5,434.4434,922.5,438.4434,918.5,434.4434" style="stroke:#181818;stroke-width:1.0;"/><line style="stroke:#181818;stroke-width:1.0;" x1="916.5" x2="1116.5" y1="434.4434" y2="434.4434"/><text fill="#000000" font-family="FG Virgil" font-size="13" lengthAdjust="spacing" textLength="32" x="928.5" y="429.1807">board</text><polygon fill="#181818" points="547.5,461.7344,537.5,465.7344,547.5,469.7344,543.5,465.7344" style="stroke:#181818;stroke-width:1.0;"/><line style="stroke:#181818;stroke-width:1.0;" x1="541.5" x2="905.5" y1="465.7344" y2="465.7344"/><text fill="#000000" font-family="FG Virgil" font-size="13" lengthAdjust="spacing" textLength="32" x="553.5" y="460.4717">board</text><polygon fill="#181818" points="1010,493.0254,1020,497.0254,1010,501.0254,1014,497.0254" style="stroke:#181818;stroke-width:1.0;"/><line style="stroke:#181818;stroke-width:1.0;" x1="536.5" x2="1016" y1="497.0254" y2="497.0254"/><text fill="#000000" font-family="FG Virgil" font-size="13" lengthAdjust="spacing" textLength="140" x="543.5" y="491.7627">getPostItsHistory(board)</text><polygon fill="#181818" points="547.5,524.3164,537.5,528.3164,547.5,532.3164,543.5,528.3164" style="stroke:#181818;stroke-width:1.0;"/><line style="stroke:#181818;stroke-width:1.0;" x1="541.5" x2="1026" y1="528.3164" y2="528.3164"/><text fill="#000000" font-family="FG Virgil" font-size="13" lengthAdjust="spacing" textLength="39" x="553.5" y="523.0537">postIts</text><polygon fill="#181818" points="309.5,555.6074,299.5,559.6074,309.5,563.6074,305.5,559.6074" style="stroke:#181818;stroke-width:1.0;"/><line style="stroke:#181818;stroke-width:1.0;" x1="303.5" x2="530.5" y1="559.6074" y2="559.6074"/><text fill="#000000" font-family="FG Virgil" font-size="13" lengthAdjust="spacing" textLength="39" x="315.5" y="554.3447">postIts</text><polygon fill="#181818" points="33.5,586.8984,23.5,590.8984,33.5,594.8984,29.5,590.8984" style="stroke:#181818;stroke-width:1.0;"/><line style="stroke:#181818;stroke-width:1.0;" x1="27.5" x2="292.5" y1="590.8984" y2="590.8984"/><text fill="#000000" font-family="FG Virgil" font-size="13" lengthAdjust="spacing" textLength="39" x="39.5" y="585.6357">postIts</text><!--SRC=[TLFHZjem47ptL-mZ9xK_W10IjBg2L4xeQEzzpzaaBi6Ex8KhVzzrJ8CJSYyejcTcPsUNS3IsHOydE3dhTEtTYO3zcLJeNrhKHwpemDU6m9FcxAsW4iyDFplBBoZKvn_mPdnbcWmJQYpSXx4LbDW4KWerEm-_0td00AjuKW9beqsBbc73t1x8NyYl_k3VY4adM2ngUOBGdPRB0UdDqCVQeIys9eZWzPjOygvfKf7ij5XWspP68njdHo872a5kTsYbuOvus0q0NOLu_zsTq5WHAxeFqIcGyHq39SmhjIwOQ2IYxwUrK7n_ocbx5tZBd_7sOvxgSeEloriuyou1u9gWJWc0Am7XFRg9aPiBCjt0IjqI5VezcZbeJmAQFMNFXnrCtgVoSt3sfqE9f6IvrvBhCKxQsSv9w-bYt3d83bKqTYpapjos69UhYEDshA-_t97iZEFlKzR3Jlpl1a9uvZfIL453s4IR0h-CbcLsC_Ab5yhAtPbAPIgYcOzLaYYt1LastCjb8XbKvJHHIJirXxEKtM1OQIrRE9imqW5LWZzKJtFEsa_eKQr12W-KtEIdhUxJWDAwXa60a_tkLSuTUsYJpBIB_TX5F-y9MZwcnpMT8Fp_AoZr3m00]--></g></svg>