<?xml version="1.0" encoding="us-ascii" standalone="no"?><svg xmlns="http://www.w3.org/2000/svg" xmlns:xlink="http://www.w3.org/1999/xlink" contentStyleType="text/css" height="1489px" preserveAspectRatio="none" style="width:1540px;height:1489px;background:#FFFFFF;" version="1.1" viewBox="0 0 1540 1489" width="1540px" zoomAndPan="magnify"><defs/><g><!--cluster Course Aggregate--><g id="cluster_Course Aggregate"><rect fill="none" height="653" rx="2.5" ry="2.5" style="stroke:#000000;stroke-width:1.5;" width="1230" x="7" y="7"/><text fill="#000000" font-family="sans-serif" font-size="14" font-weight="bold" lengthAdjust="spacing" textLength="128" x="558" y="24.1074">Course Aggregate</text></g><!--cluster User Aggregate--><g id="cluster_User Aggregate"><rect fill="none" height="799" rx="2.5" ry="2.5" style="stroke:#000000;stroke-width:1.5;" width="959" x="575" y="684"/><text fill="#000000" font-family="sans-serif" font-size="14" font-weight="bold" lengthAdjust="spacing" textLength="110" x="999.5" y="701.1074">User Aggregate</text></g><!--class Course--><g id="elem_Course"><rect codeLine="26" fill="#D8F5FF" height="68.543" id="Course" rx="2.5" ry="2.5" style="stroke:#1E90FF;stroke-width:0.5;" width="78" x="78" y="431.5"/><ellipse cx="93" cy="461.7715" fill="#ADD1B2" rx="11" ry="11" style="stroke:#181818;stroke-width:1.0;"/><path d="M91.8594,462.5684 L91.8594,465.0684 L96.1875,465.0684 L96.1875,464.1465 Q96.1875,463.5371 96.4219,463.2715 Q96.6719,463.0059 97.0469,463.0059 Q97.4219,463.0059 97.6563,463.2715 Q97.8906,463.5371 97.8906,464.1465 L97.8906,466.7715 L89.8906,466.7715 Q89.2656,466.7715 89,466.5371 Q88.75,466.3027 88.75,465.9121 Q88.75,465.5371 89.0156,465.3027 Q89.2813,465.0684 89.8906,465.0684 L90.1563,465.0684 L90.1563,458.4121 L89.8906,458.4121 Q89.2656,458.4121 89,458.1777 Q88.75,457.9434 88.75,457.5527 Q88.75,457.1777 89,456.9434 Q89.2656,456.709 89.8906,456.709 L97.5156,456.709 L97.5156,459.3027 Q97.5156,459.9121 97.2813,460.1777 Q97.0625,460.4277 96.6719,460.4277 Q96.2969,460.4277 96.0625,460.1777 Q95.8281,459.9121 95.8281,459.3027 L95.8281,458.4121 L91.8594,458.4121 L91.8594,460.8652 L93.3438,460.8652 Q93.3438,460.209 93.4688,460.0215 Q93.7344,459.6152 94.2031,459.6152 Q94.5781,459.6152 94.8125,459.8809 Q95.0469,460.1309 95.0469,460.7402 L95.0469,462.709 Q95.0469,463.2559 94.9219,463.4434 Q94.6563,463.834 94.2031,463.834 Q93.7344,463.834 93.4688,463.4277 Q93.3438,463.2402 93.3438,462.5684 L91.8594,462.5684 Z " fill="#000000"/><text fill="#000000" font-family="sans-serif" font-size="12" font-style="italic" lengthAdjust="spacing" textLength="43" x="108.5" y="449.4492">&#171;entity&#187;</text><text fill="#000000" font-family="sans-serif" font-size="12" font-style="italic" lengthAdjust="spacing" textLength="35" x="112.5" y="465.4102">&#171;root&#187;</text><text fill="#000000" font-family="sans-serif" font-size="14" lengthAdjust="spacing" textLength="46" x="107" y="483.5293">Course</text><line style="stroke:#1E90FF;stroke-width:0.5;" x1="79" x2="155" y1="492.043" y2="492.043"/></g><g id="elem_GMN18"><path d="M598,86 L598,132.92 L439.32,142.11 L598,140.92 L598,182.4551 A0,0 0 0 0 598,182.4551 L778,182.4551 A0,0 0 0 0 778,182.4551 L778,96 L768,86 L598,86 A0,0 0 0 0 598,86 " fill="#FEFFDD" style="stroke:#181818;stroke-width:0.5;"/><path d="M768,86 L768,96 L778,96 L768,86 " fill="#FEFFDD" style="stroke:#181818;stroke-width:0.5;"/><text fill="#000000" font-family="sans-serif" font-size="13" lengthAdjust="spacing" textLength="159" x="604" y="105.0283">Can be one of the following:</text><text fill="#000000" font-family="sans-serif" font-size="13" lengthAdjust="spacing" textLength="39" x="620" y="122.3193">- Open</text><text fill="#000000" font-family="sans-serif" font-size="13" lengthAdjust="spacing" textLength="48" x="620" y="139.6104">- Closed</text><text fill="#000000" font-family="sans-serif" font-size="13" lengthAdjust="spacing" textLength="41" x="620" y="156.9014">- Enroll</text><text fill="#000000" font-family="sans-serif" font-size="13" lengthAdjust="spacing" textLength="70" x="620" y="174.1924">- InProgress</text></g><g id="elem_GMN21"><path d="M586,217.5 L586,254.082 L439.32,288.64 L586,262.082 L586,262.082 A0,0 0 0 0 586,262.082 L790,262.082 A0,0 0 0 0 790,262.082 L790,227.5 L780,217.5 L586,217.5 A0,0 0 0 0 586,217.5 " fill="#FEFFDD" style="stroke:#181818;stroke-width:0.5;"/><path d="M780,217.5 L780,227.5 L790,227.5 L780,217.5 " fill="#FEFFDD" style="stroke:#181818;stroke-width:0.5;"/><text fill="#000000" font-family="sans-serif" font-size="13" lengthAdjust="spacing" textLength="183" x="592" y="236.5283">Each course has a unique code</text><text fill="#000000" font-family="sans-serif" font-size="13" lengthAdjust="spacing" textLength="113" x="592" y="253.8193">Example: "JAVA-1"</text></g><g id="elem_GMN24"><path d="M23,44 L23,105.873 A0,0 0 0 0 23,105.873 L211,105.873 A0,0 0 0 0 211,105.873 L211,75.79 L321.64,67.99 L211,67.79 L211,54 L201,44 L23,44 A0,0 0 0 0 23,44 " fill="#FEFFDD" style="stroke:#181818;stroke-width:0.5;"/><path d="M201,44 L201,54 L211,54 L201,44 " fill="#FEFFDD" style="stroke:#181818;stroke-width:0.5;"/><text fill="#000000" font-family="sans-serif" font-size="13" lengthAdjust="spacing" textLength="164" x="29" y="63.0283">Different editions of a course</text><text fill="#000000" font-family="sans-serif" font-size="13" lengthAdjust="spacing" textLength="167" x="29" y="80.3193">are to be considered different</text><text fill="#000000" font-family="sans-serif" font-size="13" lengthAdjust="spacing" textLength="46" x="29" y="97.6104">courses</text></g><!--class Class--><g id="elem_Class"><rect codeLine="71" fill="#D8F5FF" height="52.582" id="Class" rx="2.5" ry="2.5" style="stroke:#1E90FF;stroke-width:0.5;" width="71" x="345" y="356.5"/><ellipse cx="360" cy="378.791" fill="#ADD1B2" rx="11" ry="11" style="stroke:#181818;stroke-width:1.0;"/><path d="M358.8594,379.5879 L358.8594,382.0879 L363.1875,382.0879 L363.1875,381.166 Q363.1875,380.5566 363.4219,380.291 Q363.6719,380.0254 364.0469,380.0254 Q364.4219,380.0254 364.6563,380.291 Q364.8906,380.5566 364.8906,381.166 L364.8906,383.791 L356.8906,383.791 Q356.2656,383.791 356,383.5566 Q355.75,383.3223 355.75,382.9316 Q355.75,382.5566 356.0156,382.3223 Q356.2813,382.0879 356.8906,382.0879 L357.1563,382.0879 L357.1563,375.4316 L356.8906,375.4316 Q356.2656,375.4316 356,375.1973 Q355.75,374.9629 355.75,374.5723 Q355.75,374.1973 356,373.9629 Q356.2656,373.7285 356.8906,373.7285 L364.5156,373.7285 L364.5156,376.3223 Q364.5156,376.9316 364.2813,377.1973 Q364.0625,377.4473 363.6719,377.4473 Q363.2969,377.4473 363.0625,377.1973 Q362.8281,376.9316 362.8281,376.3223 L362.8281,375.4316 L358.8594,375.4316 L358.8594,377.8848 L360.3438,377.8848 Q360.3438,377.2285 360.4688,377.041 Q360.7344,376.6348 361.2031,376.6348 Q361.5781,376.6348 361.8125,376.9004 Q362.0469,377.1504 362.0469,377.7598 L362.0469,379.7285 Q362.0469,380.2754 361.9219,380.4629 Q361.6563,380.8535 361.2031,380.8535 Q360.7344,380.8535 360.4688,380.4473 Q360.3438,380.2598 360.3438,379.5879 L358.8594,379.5879 Z " fill="#000000"/><text fill="#000000" font-family="sans-serif" font-size="12" font-style="italic" lengthAdjust="spacing" textLength="43" x="372" y="374.4492">&#171;entity&#187;</text><text fill="#000000" font-family="sans-serif" font-size="14" lengthAdjust="spacing" textLength="35" x="376" y="392.5684">Class</text><line style="stroke:#1E90FF;stroke-width:0.5;" x1="346" x2="415" y1="401.082" y2="401.082"/></g><g id="elem_GMN32"><path d="M851,261 L851,364.03 L746.52,386.69 L851,372.03 L851,409.3281 A0,0 0 0 0 851,409.3281 L1221,409.3281 A0,0 0 0 0 1221,409.3281 L1221,271 L1211,261 L851,261 A0,0 0 0 0 851,261 " fill="#FEFFDD" style="stroke:#181818;stroke-width:0.5;"/><path d="M1211,261 L1211,271 L1221,271 L1211,261 " fill="#FEFFDD" style="stroke:#181818;stroke-width:0.5;"/><text fill="#000000" font-family="sans-serif" font-size="13" lengthAdjust="spacing" textLength="249" x="857" y="280.0283">A class is always a recurring weekly event.</text><text fill="#000000" font-family="sans-serif" font-size="13" lengthAdjust="spacing" textLength="4" x="857" y="297.3193">&#160;</text><text fill="#000000" font-family="sans-serif" font-size="13" lengthAdjust="spacing" textLength="279" x="857" y="314.6104">It should be impossible to schedule classes that</text><text fill="#000000" font-family="sans-serif" font-size="13" lengthAdjust="spacing" textLength="309" x="857" y="331.9014">are coincident with other classes of the same course.</text><text fill="#000000" font-family="sans-serif" font-size="13" lengthAdjust="spacing" textLength="4" x="857" y="349.1924">&#160;</text><text fill="#000000" font-family="sans-serif" font-size="13" lengthAdjust="spacing" textLength="311" x="857" y="366.4834">The system should also warn if one of the participants</text><text fill="#000000" font-family="sans-serif" font-size="13" lengthAdjust="spacing" textLength="349" x="857" y="383.7744">in the class (either a teacher or a student) has other classes</text><text fill="#000000" font-family="sans-serif" font-size="13" lengthAdjust="spacing" textLength="326" x="857" y="401.0654">at the same time. Teachers can schedule extra classes.</text></g><g id="elem_GMN35"><path d="M933,541.5 L933,550.7 L746.52,554.17 L933,558.7 L933,568.791 A0,0 0 0 0 933,568.791 L1139,568.791 A0,0 0 0 0 1139,568.791 L1139,551.5 L1129,541.5 L933,541.5 A0,0 0 0 0 933,541.5 " fill="#FEFFDD" style="stroke:#181818;stroke-width:0.5;"/><path d="M1129,541.5 L1129,551.5 L1139,551.5 L1129,541.5 " fill="#FEFFDD" style="stroke:#181818;stroke-width:0.5;"/><text fill="#000000" font-family="sans-serif" font-size="13" lengthAdjust="spacing" textLength="185" x="939" y="560.5283">A class must have a unique title</text></g><g id="elem_GMN43"><path d="M946,444 L946,471 L746.52,475 L946,479 L946,505.873 A0,0 0 0 0 946,505.873 L1126,505.873 A0,0 0 0 0 1126,505.873 L1126,454 L1116,444 L946,444 A0,0 0 0 0 946,444 " fill="#FEFFDD" style="stroke:#181818;stroke-width:0.5;"/><path d="M1116,444 L1116,454 L1126,454 L1116,444 " fill="#FEFFDD" style="stroke:#181818;stroke-width:0.5;"/><text fill="#000000" font-family="sans-serif" font-size="13" lengthAdjust="spacing" textLength="159" x="952" y="463.0283">Can be one of the following:</text><text fill="#000000" font-family="sans-serif" font-size="13" lengthAdjust="spacing" textLength="63" x="968" y="480.3193">- Recurring</text><text fill="#000000" font-family="sans-serif" font-size="13" lengthAdjust="spacing" textLength="39" x="968" y="497.6104">- Extra</text></g><!--entity Code--><g id="elem_Code"><rect fill="#D8F5FF" height="43.2422" rx="2.5" ry="2.5" style="stroke:#1E90FF;stroke-width:0.5;" width="117" x="322" y="278.5"/><text fill="#000000" font-family="sans-serif" font-size="14" font-style="italic" lengthAdjust="spacing" textLength="97" x="332" y="296.6074">&#171;Value Object&#187;</text><text fill="#000000" font-family="sans-serif" font-size="14" lengthAdjust="spacing" textLength="34" x="363.5" y="315.2285">Code</text></g><!--entity Name--><g id="elem_Name"><rect fill="#D8F5FF" height="43.2422" rx="2.5" ry="2.5" style="stroke:#1E90FF;stroke-width:0.5;" width="117" x="322" y="200.5"/><text fill="#000000" font-family="sans-serif" font-size="14" font-style="italic" lengthAdjust="spacing" textLength="97" x="332" y="218.6074">&#171;Value Object&#187;</text><text fill="#000000" font-family="sans-serif" font-size="14" lengthAdjust="spacing" textLength="36" x="362.5" y="237.2285">Name</text></g><!--entity State--><g id="elem_State"><rect fill="#D8F5FF" height="43.2422" rx="2.5" ry="2.5" style="stroke:#1E90FF;stroke-width:0.5;" width="117" x="322" y="122.5"/><text fill="#000000" font-family="sans-serif" font-size="14" font-style="italic" lengthAdjust="spacing" textLength="97" x="332" y="140.6074">&#171;Value Object&#187;</text><text fill="#000000" font-family="sans-serif" font-size="14" lengthAdjust="spacing" textLength="33" x="364" y="159.2285">State</text></g><!--entity Description--><g id="elem_Description"><rect fill="#D8F5FF" height="43.2422" rx="2.5" ry="2.5" style="stroke:#1E90FF;stroke-width:0.5;" width="117" x="322" y="600.5"/><text fill="#000000" font-family="sans-serif" font-size="14" font-style="italic" lengthAdjust="spacing" textLength="97" x="332" y="618.6074">&#171;Value Object&#187;</text><text fill="#000000" font-family="sans-serif" font-size="14" lengthAdjust="spacing" textLength="71" x="345" y="637.2285">Description</text></g><!--entity MaxStudents--><g id="elem_MaxStudents"><rect fill="#D8F5FF" height="43.2422" rx="2.5" ry="2.5" style="stroke:#1E90FF;stroke-width:0.5;" width="117" x="322" y="522.5"/><text fill="#000000" font-family="sans-serif" font-size="14" font-style="italic" lengthAdjust="spacing" textLength="97" x="332" y="540.6074">&#171;Value Object&#187;</text><text fill="#000000" font-family="sans-serif" font-size="14" lengthAdjust="spacing" textLength="81" x="340" y="559.2285">MaxStudents</text></g><!--entity MinStudents--><g id="elem_MinStudents"><rect fill="#D8F5FF" height="43.2422" rx="2.5" ry="2.5" style="stroke:#1E90FF;stroke-width:0.5;" width="117" x="322" y="444.5"/><text fill="#000000" font-family="sans-serif" font-size="14" font-style="italic" lengthAdjust="spacing" textLength="97" x="332" y="462.6074">&#171;Value Object&#187;</text><text fill="#000000" font-family="sans-serif" font-size="14" lengthAdjust="spacing" textLength="78" x="341.5" y="481.2285">MinStudents</text></g><!--entity Edition--><g id="elem_Edition"><rect fill="#D8F5FF" height="43.2422" rx="2.5" ry="2.5" style="stroke:#1E90FF;stroke-width:0.5;" width="117" x="322" y="44.5"/><text fill="#000000" font-family="sans-serif" font-size="14" font-style="italic" lengthAdjust="spacing" textLength="97" x="332" y="62.6074">&#171;Value Object&#187;</text><text fill="#000000" font-family="sans-serif" font-size="14" lengthAdjust="spacing" textLength="43" x="359" y="81.2285">Edition</text></g><!--entity ClassDate--><g id="elem_ClassDate"><rect fill="#D8F5FF" height="43.2422" rx="2.5" ry="2.5" style="stroke:#1E90FF;stroke-width:0.5;" width="117" x="629.5" y="375.5"/><text fill="#000000" font-family="sans-serif" font-size="14" font-style="italic" lengthAdjust="spacing" textLength="97" x="639.5" y="393.6074">&#171;Value Object&#187;</text><text fill="#000000" font-family="sans-serif" font-size="14" lengthAdjust="spacing" textLength="65" x="655.5" y="412.2285">ClassDate</text></g><!--entity ClassDuration--><g id="elem_ClassDuration"><rect fill="#D8F5FF" height="43.2422" rx="2.5" ry="2.5" style="stroke:#1E90FF;stroke-width:0.5;" width="117" x="629.5" y="297.5"/><text fill="#000000" font-family="sans-serif" font-size="14" font-style="italic" lengthAdjust="spacing" textLength="97" x="639.5" y="315.6074">&#171;Value Object&#187;</text><text fill="#000000" font-family="sans-serif" font-size="14" lengthAdjust="spacing" textLength="89" x="643.5" y="334.2285">ClassDuration</text></g><!--entity ClassTitle--><g id="elem_ClassTitle"><rect fill="#D8F5FF" height="43.2422" rx="2.5" ry="2.5" style="stroke:#1E90FF;stroke-width:0.5;" width="117" x="629.5" y="532.5"/><text fill="#000000" font-family="sans-serif" font-size="14" font-style="italic" lengthAdjust="spacing" textLength="97" x="639.5" y="550.6074">&#171;Value Object&#187;</text><text fill="#000000" font-family="sans-serif" font-size="14" lengthAdjust="spacing" textLength="62" x="657" y="569.2285">ClassTitle</text></g><!--entity ClassType--><g id="elem_ClassType"><rect fill="#D8F5FF" height="43.2422" rx="2.5" ry="2.5" style="stroke:#1E90FF;stroke-width:0.5;" width="117" x="629.5" y="453.5"/><text fill="#000000" font-family="sans-serif" font-size="14" font-style="italic" lengthAdjust="spacing" textLength="97" x="639.5" y="471.6074">&#171;Value Object&#187;</text><text fill="#000000" font-family="sans-serif" font-size="14" lengthAdjust="spacing" textLength="67" x="654.5" y="490.2285">ClassType</text></g><!--class User--><g id="elem_User"><rect codeLine="113" fill="#D8F5FF" height="68.543" id="User" rx="2.5" ry="2.5" style="stroke:#1E90FF;stroke-width:0.5;" width="71" x="652.5" y="917.5"/><ellipse cx="667.5" cy="947.7715" fill="#ADD1B2" rx="11" ry="11" style="stroke:#181818;stroke-width:1.0;"/><path d="M666.3594,948.5684 L666.3594,951.0684 L670.6875,951.0684 L670.6875,950.1465 Q670.6875,949.5371 670.9219,949.2715 Q671.1719,949.0059 671.5469,949.0059 Q671.9219,949.0059 672.1563,949.2715 Q672.3906,949.5371 672.3906,950.1465 L672.3906,952.7715 L664.3906,952.7715 Q663.7656,952.7715 663.5,952.5371 Q663.25,952.3027 663.25,951.9121 Q663.25,951.5371 663.5156,951.3027 Q663.7813,951.0684 664.3906,951.0684 L664.6563,951.0684 L664.6563,944.4121 L664.3906,944.4121 Q663.7656,944.4121 663.5,944.1777 Q663.25,943.9434 663.25,943.5527 Q663.25,943.1777 663.5,942.9434 Q663.7656,942.709 664.3906,942.709 L672.0156,942.709 L672.0156,945.3027 Q672.0156,945.9121 671.7813,946.1777 Q671.5625,946.4277 671.1719,946.4277 Q670.7969,946.4277 670.5625,946.1777 Q670.3281,945.9121 670.3281,945.3027 L670.3281,944.4121 L666.3594,944.4121 L666.3594,946.8652 L667.8438,946.8652 Q667.8438,946.209 667.9688,946.0215 Q668.2344,945.6152 668.7031,945.6152 Q669.0781,945.6152 669.3125,945.8809 Q669.5469,946.1309 669.5469,946.7402 L669.5469,948.709 Q669.5469,949.2559 669.4219,949.4434 Q669.1563,949.834 668.7031,949.834 Q668.2344,949.834 667.9688,949.4277 Q667.8438,949.2402 667.8438,948.5684 L666.3594,948.5684 Z " fill="#000000"/><text fill="#000000" font-family="sans-serif" font-size="12" font-style="italic" lengthAdjust="spacing" textLength="43" x="679.5" y="935.4492">&#171;entity&#187;</text><text fill="#000000" font-family="sans-serif" font-size="12" font-style="italic" lengthAdjust="spacing" textLength="35" x="683.5" y="951.4102">&#171;root&#187;</text><text fill="#000000" font-family="sans-serif" font-size="14" lengthAdjust="spacing" textLength="29" x="686.5" y="969.5293">User</text><line style="stroke:#1E90FF;stroke-width:0.5;" x1="653.5" x2="722.5" y1="978.043" y2="978.043"/></g><g id="elem_GMN58"><path d="M1284,1431.5 L1284,1441 L1094.52,1445 L1284,1449 L1284,1458.791 A0,0 0 0 0 1284,1458.791 L1518,1458.791 A0,0 0 0 0 1518,1458.791 L1518,1441.5 L1508,1431.5 L1284,1431.5 A0,0 0 0 0 1284,1431.5 " fill="#FEFFDD" style="stroke:#181818;stroke-width:0.5;"/><path d="M1508,1431.5 L1508,1441.5 L1518,1441.5 L1508,1431.5 " fill="#FEFFDD" style="stroke:#181818;stroke-width:0.5;"/><text fill="#000000" font-family="sans-serif" font-size="13" lengthAdjust="spacing" textLength="213" x="1290" y="1450.5283">Can be Teacher, Student or Manager</text></g><g id="elem_GMN71"><path d="M591,1421.5 L591,1466.082 A0,0 0 0 0 591,1466.082 L785,1466.082 A0,0 0 0 0 785,1466.082 L785,1448.28 L977.28,1444.83 L785,1440.28 L785,1431.5 L775,1421.5 L591,1421.5 A0,0 0 0 0 591,1421.5 " fill="#FEFFDD" style="stroke:#181818;stroke-width:0.5;"/><path d="M775,1421.5 L775,1431.5 L785,1431.5 L775,1421.5 " fill="#FEFFDD" style="stroke:#181818;stroke-width:0.5;"/><text fill="#000000" font-family="sans-serif" font-size="13" lengthAdjust="spacing" textLength="173" x="597" y="1440.5283">This is only used for purposes</text><text fill="#000000" font-family="sans-serif" font-size="13" lengthAdjust="spacing" textLength="88" x="597" y="1457.8193">of authorization</text></g><!--entity EmailAddress--><g id="elem_EmailAddress"><rect fill="#D8F5FF" height="43.2422" rx="2.5" ry="2.5" style="stroke:#1E90FF;stroke-width:0.5;" width="117" x="977.5" y="877.5"/><text fill="#000000" font-family="sans-serif" font-size="14" font-style="italic" lengthAdjust="spacing" textLength="97" x="987.5" y="895.6074">&#171;Value Object&#187;</text><text fill="#000000" font-family="sans-serif" font-size="14" lengthAdjust="spacing" textLength="86" x="993" y="914.2285">EmailAddress</text></g><!--entity Password--><g id="elem_Password"><rect fill="#D8F5FF" height="43.2422" rx="2.5" ry="2.5" style="stroke:#1E90FF;stroke-width:0.5;" width="117" x="977.5" y="799.5"/><text fill="#000000" font-family="sans-serif" font-size="14" font-style="italic" lengthAdjust="spacing" textLength="97" x="987.5" y="817.6074">&#171;Value Object&#187;</text><text fill="#000000" font-family="sans-serif" font-size="14" lengthAdjust="spacing" textLength="61" x="1005.5" y="836.2285">Password</text></g><!--entity FullName--><g id="elem_FullName"><rect fill="#D8F5FF" height="43.2422" rx="2.5" ry="2.5" style="stroke:#1E90FF;stroke-width:0.5;" width="117" x="977.5" y="721.5"/><text fill="#000000" font-family="sans-serif" font-size="14" font-style="italic" lengthAdjust="spacing" textLength="97" x="987.5" y="739.6074">&#171;Value Object&#187;</text><text fill="#000000" font-family="sans-serif" font-size="14" lengthAdjust="spacing" textLength="59" x="1006.5" y="758.2285">FullName</text></g><!--entity ShortName--><g id="elem_ShortName"><rect fill="#D8F5FF" height="43.2422" rx="2.5" ry="2.5" style="stroke:#1E90FF;stroke-width:0.5;" width="117" x="977.5" y="1345.5"/><text fill="#000000" font-family="sans-serif" font-size="14" font-style="italic" lengthAdjust="spacing" textLength="97" x="987.5" y="1363.6074">&#171;Value Object&#187;</text><text fill="#000000" font-family="sans-serif" font-size="14" lengthAdjust="spacing" textLength="70" x="1001" y="1382.2285">ShortName</text></g><!--entity UserState--><g id="elem_UserState"><rect fill="#D8F5FF" height="43.2422" rx="2.5" ry="2.5" style="stroke:#1E90FF;stroke-width:0.5;" width="117" x="977.5" y="1267.5"/><text fill="#000000" font-family="sans-serif" font-size="14" font-style="italic" lengthAdjust="spacing" textLength="97" x="987.5" y="1285.6074">&#171;Value Object&#187;</text><text fill="#000000" font-family="sans-serif" font-size="14" lengthAdjust="spacing" textLength="62" x="1005" y="1304.2285">UserState</text></g><!--entity MechanographicNumber--><g id="elem_MechanographicNumber"><rect fill="#D8F5FF" height="43.2422" rx="2.5" ry="2.5" style="stroke:#1E90FF;stroke-width:0.5;" width="174" x="949" y="1189.5"/><text fill="#000000" font-family="sans-serif" font-size="14" font-style="italic" lengthAdjust="spacing" textLength="97" x="987.5" y="1207.6074">&#171;Value Object&#187;</text><text fill="#000000" font-family="sans-serif" font-size="14" lengthAdjust="spacing" textLength="154" x="959" y="1226.2285">MechanographicNumber</text></g><!--entity Acronym--><g id="elem_Acronym"><rect fill="#D8F5FF" height="43.2422" rx="2.5" ry="2.5" style="stroke:#1E90FF;stroke-width:0.5;" width="117" x="977.5" y="1111.5"/><text fill="#000000" font-family="sans-serif" font-size="14" font-style="italic" lengthAdjust="spacing" textLength="97" x="987.5" y="1129.6074">&#171;Value Object&#187;</text><text fill="#000000" font-family="sans-serif" font-size="14" lengthAdjust="spacing" textLength="55" x="1008.5" y="1148.2285">Acronym</text></g><!--entity BirthDate--><g id="elem_BirthDate"><rect fill="#D8F5FF" height="43.2422" rx="2.5" ry="2.5" style="stroke:#1E90FF;stroke-width:0.5;" width="117" x="977.5" y="1033.5"/><text fill="#000000" font-family="sans-serif" font-size="14" font-style="italic" lengthAdjust="spacing" textLength="97" x="987.5" y="1051.6074">&#171;Value Object&#187;</text><text fill="#000000" font-family="sans-serif" font-size="14" lengthAdjust="spacing" textLength="59" x="1006.5" y="1070.2285">BirthDate</text></g><!--entity TaxPayerNumber--><g id="elem_TaxPayerNumber"><rect fill="#D8F5FF" height="43.2422" rx="2.5" ry="2.5" style="stroke:#1E90FF;stroke-width:0.5;" width="129" x="971.5" y="955.5"/><text fill="#000000" font-family="sans-serif" font-size="14" font-style="italic" lengthAdjust="spacing" textLength="97" x="987.5" y="973.6074">&#171;Value Object&#187;</text><text fill="#000000" font-family="sans-serif" font-size="14" lengthAdjust="spacing" textLength="109" x="981.5" y="992.2285">TaxPayerNumber</text></g><!--entity Role--><g id="elem_Role"><rect fill="#D8F5FF" height="43.2422" rx="2.5" ry="2.5" style="stroke:#1E90FF;stroke-width:0.5;" width="117" x="977.5" y="1423.5"/><text fill="#000000" font-family="sans-serif" font-size="14" font-style="italic" lengthAdjust="spacing" textLength="97" x="987.5" y="1441.6074">&#171;Value Object&#187;</text><text fill="#000000" font-family="sans-serif" font-size="14" lengthAdjust="spacing" textLength="29" x="1021.5" y="1460.2285">Role</text></g><!--link Course to Name--><g id="link_Course_Name"><path codeLine="44" d="M148.67,431.32 C187.08,388.84 255.89,315.78 322,261 C327.89,256.12 334.38,251.27 340.83,246.73 " fill="none" id="Course-to-Name" style="stroke:#1E90FF;stroke-width:1.0;"/><polygon fill="#1E90FF" points="345.27,243.64,335.5991,245.5039,341.1678,246.4987,340.173,252.0674,345.27,243.64" style="stroke:#1E90FF;stroke-width:1.0;"/></g><!--link Course to State--><g id="link_Course_State"><path codeLine="45" d="M137.56,431.25 C170.51,374.72 241.43,261.3 322,183 C327.2,177.95 333.13,173.11 339.16,168.68 " fill="none" id="Course-to-State" style="stroke:#1E90FF;stroke-width:1.0;"/><polygon fill="#1E90FF" points="343.34,165.68,333.6967,167.6819,339.2791,168.597,338.3639,174.1793,343.34,165.68" style="stroke:#1E90FF;stroke-width:1.0;"/></g><!--link Course to Description--><g id="link_Course_Description"><path codeLine="46" d="M156.02,488.68 C204.7,517.72 288.7,567.83 338.69,597.65 " fill="none" id="Course-to-Description" style="stroke:#1E90FF;stroke-width:1.0;"/><polygon fill="#1E90FF" points="343.12,600.29,337.429,592.2518,338.8225,597.7343,333.34,599.1278,343.12,600.29" style="stroke:#1E90FF;stroke-width:1.0;"/></g><!--link Course to MaxStudents--><g id="link_Course_MaxStudents"><path codeLine="47" d="M156.02,477.34 C198.07,489.88 266.47,510.28 316.53,525.22 " fill="none" id="Course-to-MaxStudents" style="stroke:#1E90FF;stroke-width:1.0;"/><polygon fill="#1E90FF" points="321.63,526.74,314.1449,520.3389,316.8377,525.3137,311.8629,528.0065,321.63,526.74" style="stroke:#1E90FF;stroke-width:1.0;"/></g><!--link Course to MinStudents--><g id="link_Course_MinStudents"><path codeLine="48" d="M156.02,466 C198.07,466 266.47,466 316.53,466 " fill="none" id="Course-to-MinStudents" style="stroke:#1E90FF;stroke-width:1.0;"/><polygon fill="#1E90FF" points="321.63,466,312.63,462,316.63,466,312.63,470,321.63,466" style="stroke:#1E90FF;stroke-width:1.0;"/></g><!--link Course to Code--><g id="link_Course_Code"><path codeLine="49" d="M156.1,440.93 C180.32,425.06 212.41,404.17 241,386 C274.22,364.89 312.21,341.34 340,324.22 " fill="none" id="Course-to-Code" style="stroke:#1E90FF;stroke-width:1.0;"/><polygon fill="#1E90FF" points="344.37,321.53,334.6107,322.8548,340.1156,324.1569,338.8136,329.6618,344.37,321.53" style="stroke:#1E90FF;stroke-width:1.0;"/></g><!--link Course to Edition--><g id="link_Course_Edition"><path codeLine="50" d="M130.75,431.24 C157.43,362.27 224.81,206.04 322,105 C326.96,99.84 332.71,94.98 338.61,90.56 " fill="none" id="Course-to-Edition" style="stroke:#1E90FF;stroke-width:1.0;"/><polygon fill="#1E90FF" points="342.72,87.57,333.0896,89.6326,338.6776,90.5126,337.7976,96.1006,342.72,87.57" style="stroke:#1E90FF;stroke-width:1.0;"/></g><!--link Class to ClassDate--><g id="link_Class_ClassDate"><path codeLine="100" d="M416.25,384.59 C466.75,386.91 561.25,391.24 624.16,394.12 " fill="none" id="Class-to-ClassDate" style="stroke:#1E90FF;stroke-width:1.0;"/><polygon fill="#1E90FF" points="629.39,394.36,620.5821,389.9532,624.3952,394.1317,620.2167,397.9448,629.39,394.36" style="stroke:#1E90FF;stroke-width:1.0;"/></g><!--link Class to ClassDuration--><g id="link_Class_ClassDuration"><path codeLine="101" d="M416.25,375.72 C466.75,365.14 561.25,345.34 624.16,332.16 " fill="none" id="Class-to-ClassDuration" style="stroke:#1E90FF;stroke-width:1.0;"/><polygon fill="#1E90FF" points="629.39,331.07,619.766,328.9773,624.4938,332.0835,621.3876,336.8113,629.39,331.07" style="stroke:#1E90FF;stroke-width:1.0;"/></g><!--link Class to ClassTitle--><g id="link_Class_ClassTitle"><path codeLine="102" d="M416.22,409.37 C460.84,442.93 536.22,498.43 567,514 C585.06,523.14 605.68,530.88 624.67,537.05 " fill="none" id="Class-to-ClassTitle" style="stroke:#1E90FF;stroke-width:1.0;"/><polygon fill="#1E90FF" points="629.46,538.58,622.1094,532.0249,624.6984,537.0546,619.6687,539.6435,629.46,538.58" style="stroke:#1E90FF;stroke-width:1.0;"/></g><!--link Class to ClassType--><g id="link_Class_ClassType"><path codeLine="103" d="M416.25,393.46 C466.85,408.7 561.63,437.25 624.54,456.19 " fill="none" id="Class-to-ClassType" style="stroke:#1E90FF;stroke-width:1.0;"/><polygon fill="#1E90FF" points="629.39,457.65,621.9277,451.2223,624.6028,456.2067,619.6185,458.8818,629.39,457.65" style="stroke:#1E90FF;stroke-width:1.0;"/></g><!--link Course to Class--><g id="link_Course_Class"><path codeLine="104" d="M156.02,453.93 C205.05,438.37 289.92,411.43 339.76,395.61 " fill="none" id="Course-to-Class" style="stroke:#1E90FF;stroke-width:1.0;"/><polygon fill="#1E90FF" points="344.77,394.02,334.9807,392.9383,340.0056,395.5366,337.4073,400.5614,344.77,394.02" style="stroke:#1E90FF;stroke-width:1.0;"/><text fill="#000000" font-family="sans-serif" font-size="13" lengthAdjust="spacing" textLength="49" x="242" y="409.0283">contains</text><text fill="#000000" font-family="sans-serif" font-size="13" lengthAdjust="spacing" textLength="5" x="331.8851" y="412.1474">*</text></g><!--link User to EmailAddress--><g id="link_User_EmailAddress"><path codeLine="138" d="M723.76,946.68 C781.83,937.78 899.37,919.78 972.22,908.62 " fill="none" id="User-to-EmailAddress" style="stroke:#1E90FF;stroke-width:1.0;"/><polygon fill="#1E90FF" points="977.39,907.82,967.8881,905.2288,972.4476,908.5771,969.0994,913.1366,977.39,907.82" style="stroke:#1E90FF;stroke-width:1.0;"/></g><!--link User to Password--><g id="link_User_Password"><path codeLine="139" d="M723.79,928.04 C755.58,907.18 804.58,877.61 851,860 C889.99,845.2 935.88,835.46 972.07,829.42 " fill="none" id="User-to-Password" style="stroke:#1E90FF;stroke-width:1.0;"/><polygon fill="#1E90FF" points="977.34,828.55,967.8083,826.0706,972.4069,829.365,969.1124,833.9636,977.34,828.55" style="stroke:#1E90FF;stroke-width:1.0;"/></g><!--link User to FullName--><g id="link_User_FullName"><path codeLine="140" d="M712.07,917.38 C740.12,878.17 791.2,815.39 851,782 C887.96,761.37 934.66,751.63 971.77,747.04 " fill="none" id="User-to-FullName" style="stroke:#1E90FF;stroke-width:1.0;"/><polygon fill="#1E90FF" points="977.17,746.4,967.7638,743.4805,972.2043,746.985,968.6998,751.4256,977.17,746.4" style="stroke:#1E90FF;stroke-width:1.0;"/></g><!--link User to ShortName--><g id="link_User_ShortName"><path codeLine="141" d="M693.29,986.57 C704.48,1061.32 741.73,1238.47 851,1328 C884.72,1355.63 933.31,1365.05 972.09,1367.74 " fill="none" id="User-to-ShortName" style="stroke:#1E90FF;stroke-width:1.0;"/><polygon fill="#1E90FF" points="977.26,1368.06,968.5295,1363.5017,972.2699,1367.7454,968.0262,1371.4859,977.26,1368.06" style="stroke:#1E90FF;stroke-width:1.0;"/></g><!--link User to Role--><g id="link_User_Role"><path codeLine="142" d="M690.43,986.68 C695.92,1072.05 722.48,1293.63 851,1406 C883.94,1434.8 932.8,1444.13 971.89,1446.49 " fill="none" id="User-to-Role" style="stroke:#1E90FF;stroke-width:1.0;"/><polygon fill="#1E90FF" points="977.1,1446.77,968.3308,1442.2867,972.1074,1446.4982,967.8959,1450.2748,977.1,1446.77" style="stroke:#1E90FF;stroke-width:1.0;"/></g><!--link User to UserState--><g id="link_User_UserState"><path codeLine="143" d="M697.59,986.87 C715.04,1049.97 760.84,1182.75 851,1250 C885.69,1275.88 933.79,1285.41 972.11,1288.59 " fill="none" id="User-to-UserState" style="stroke:#1E90FF;stroke-width:1.0;"/><polygon fill="#1E90FF" points="977.21,1288.98,968.532,1284.3224,972.2238,1288.6085,967.9377,1292.3003,977.21,1288.98" style="stroke:#1E90FF;stroke-width:1.0;"/></g><!--link User to MechanographicNumber--><g id="link_User_MechanographicNumber"><path codeLine="144" d="M704.58,986.84 C728.58,1036.27 779.43,1125.88 851,1172 C878.36,1189.63 912.3,1199.44 943.56,1204.86 " fill="none" id="User-to-MechanographicNumber" style="stroke:#1E90FF;stroke-width:1.0;"/><polygon fill="#1E90FF" points="948.55,1205.69,940.3377,1200.2533,943.6192,1204.8611,939.0114,1208.1425,948.55,1205.69" style="stroke:#1E90FF;stroke-width:1.0;"/></g><!--link User to Acronym--><g id="link_User_Acronym"><path codeLine="145" d="M718.53,986.55 C748.53,1019.35 798,1067.46 851,1094 C888.71,1112.88 935.2,1122.64 972.01,1127.67 " fill="none" id="User-to-Acronym" style="stroke:#1E90FF;stroke-width:1.0;"/><polygon fill="#1E90FF" points="977.37,1128.38,968.9737,1123.232,972.4134,1127.7229,967.9224,1131.1626,977.37,1128.38" style="stroke:#1E90FF;stroke-width:1.0;"/></g><!--link User to BirthDate--><g id="link_User_BirthDate"><path codeLine="146" d="M723.79,967.71 C756.2,981.87 806.12,1002.48 851,1016 C890.64,1027.94 936.13,1037.62 971.97,1044.34 " fill="none" id="User-to-BirthDate" style="stroke:#1E90FF;stroke-width:1.0;"/><polygon fill="#1E90FF" points="977.19,1045.32,969.0735,1039.7413,972.2743,1044.4055,967.6102,1047.6063,977.19,1045.32" style="stroke:#1E90FF;stroke-width:1.0;"/></g><!--link User to TaxPayerNumber--><g id="link_User_TaxPayerNumber"><path codeLine="147" d="M723.76,954.51 C780.24,958.59 892.98,966.74 966.14,972.02 " fill="none" id="User-to-TaxPayerNumber" style="stroke:#1E90FF;stroke-width:1.0;"/><polygon fill="#1E90FF" points="971.34,972.4,962.6479,967.7689,966.3527,972.0438,962.0779,975.7486,971.34,972.4" style="stroke:#1E90FF;stroke-width:1.0;"/></g><!--link Course to User--><g id="link_Course_User"><path codeLine="155" d="M144.54,500.83 C180.73,546.53 249.4,627.11 322,680 C415.35,748 465.17,721.67 556,793 C599.52,827.18 638.28,878.12 662.14,913.08 " fill="none" id="Course-to-User" style="stroke:#1E90FF;stroke-width:1.0;"/><polygon fill="#1E90FF" points="664.98,917.26,663.2544,907.5635,662.1802,913.1174,656.6263,912.0432,664.98,917.26" style="stroke:#1E90FF;stroke-width:1.0;"/><text fill="#000000" font-family="sans-serif" font-size="13" lengthAdjust="spacing" textLength="51" x="355" y="676.0283">is owned</text><text fill="#000000" font-family="sans-serif" font-size="13" lengthAdjust="spacing" textLength="7" x="652.9246" y="906.117">1</text></g><!--link Course to User--><g id="link_Course_User"><path codeLine="156" d="M133.76,500.97 C162.8,561.84 230.28,687.83 322,762 C376.94,806.43 564.9,895.64 647.51,933.9 " fill="none" id="Course-to-User-1" style="stroke:#1E90FF;stroke-width:1.0;"/><polygon fill="#1E90FF" points="652.32,936.12,645.8379,928.705,647.784,934.0165,642.4724,935.9626,652.32,936.12" style="stroke:#1E90FF;stroke-width:1.0;"/><text fill="#000000" font-family="sans-serif" font-size="13" lengthAdjust="spacing" textLength="21" x="370" y="758.0283">has</text><text fill="#000000" font-family="sans-serif" font-size="13" lengthAdjust="spacing" textLength="9" x="635.4096" y="948.769">N</text></g><!--link Course to User--><g id="link_Course_User"><path codeLine="157" d="M124.76,500.62 C142.04,579.04 195.71,770.3 322,859 C423.7,930.43 575.56,947.06 647.06,950.89 " fill="none" id="Course-to-User-2" style="stroke:#1E90FF;stroke-width:1.0;"/><polygon fill="#1E90FF" points="652.48,951.16,643.6853,946.7269,647.4859,950.9167,643.296,954.7174,652.48,951.16" style="stroke:#1E90FF;stroke-width:1.0;"/><text fill="#000000" font-family="sans-serif" font-size="13" lengthAdjust="spacing" textLength="46" x="357.5" y="855.0283">teaches</text><text fill="#000000" font-family="sans-serif" font-size="13" lengthAdjust="spacing" textLength="9" x="635.6011" y="966.77">N</text></g><!--link Class to User--><g id="link_Class_User"><path codeLine="159" d="M416.17,403.83 C424.65,410.33 433.01,418.15 439,427 C466.7,467.89 450.6,488.17 469,534 C499.6,610.2 517.9,624.25 556,697 C595.82,773.03 641.43,862.33 666.97,912.53 " fill="none" id="Class-to-User" style="stroke:#1E90FF;stroke-width:1.0;"/><polygon fill="#1E90FF" points="669.37,917.26,668.8474,907.425,667.0997,912.8051,661.7196,911.0574,669.37,917.26" style="stroke:#1E90FF;stroke-width:1.0;"/><text fill="#000000" font-family="sans-serif" font-size="13" lengthAdjust="spacing" textLength="85" x="470" y="530.0283">has participant</text></g><!--SRC=[pLTBR-Cs4BxhLn3kOTkY2Rg70eKH653i172HXx5nzqvBOuiDHQf3Aewto7_la7fIbjVkhRhOdk_ZSDuZPo85beFDT6eY2LlBh6OeTfbbgK18hD0gYiohK0L7dhD4ScDYQr5iIWlBHAiNyGtOhqSSza_4w7aGMtWG2curfe1pBJMoXKvtWBUoX932azSTwbAb5IrUhHwMytYzV7xol27-m-Bt-z_kxpqM8-hzgFOJ5t_q3Iv8Cz_1Ypr8OCvfhdOI0fSuflz_ZwBQ4JQPwn8Di7YtGzXn2vFQU51Ms0EhuPkRwlTiTdE3MjlPBFAiJpN-naanqvk_A2J68puESvswiryz-kpHsQo-uAEZFV7yc7R4Uh5atddQ0ao2ed3bU9xyoDzVR9cIS-O2ib2Na-zIyLqJ_4STlQkhcO_1KEOz7Wfx_WsXdZT7K6Vx47996ifgwoihbQQuLvskjpsZ_1cks8Oohy1XDWEsrLBglL2xQKjopnLxBa0DH7Ef3QG3uPr2KZ4GBjKADPMeCNLrfjwiCGDRVznpnvEC9PLZ6JUCirA9loaVIS1wvtaXOSecVyHVuwlFarEN-Bb7TpJnQHGin7OBID5bK276iNXzSqlZ26vgRjproj10HKXfUjPdMrfrQipJfYlztEoQCkgrd8CMt-kK8RT4VhvIE_vQM7cnylMXECCToL_ZGL02SRqi1ELGxld1fP86S8b8fSRs0A_omE2D8d8T1GUNbfbCbp9rOHTveOqH6-dpO98CqfA-UzLWg7wv3GwxX2LQg4Iurc5xOJEcgSgnFL9NlN4ZhChRuFwrGm_6GjxOmQNHRCzHCR7jTmuj42iIKV2cIPj7A8zN0VWHX3U0CmjKtFHDkn-cwkwVV9K79eOEsSvSAtAuPkjAYw6igIuYy6wHDngkMnLXDPx8dQ-GqUJbfR5au1jqVMW3SgY_AdC_euAQ6Chh2Xx3Ebk605NcSEfDVfxKjAbhKCk5CgCJ9b3m7yVWbwPeXsFFHJni-OzkJVzfAA6dbhG7nrRq9u-SMCvtEHSoJbCtLC_linMvlAVtYVFC-rBA2pTwfj5UHdMENFW2y0X9nXKj2rva8dagyusFpfbJSO9Q7V8BtbPk1TfiTC8USzVyVSKFW2UiE3xmHSipUiDITFnfKtvrA__2wbNl9iCZLrH0M9MnBmU_ttkv3v4cpw6qoMaeRVCNYfrDeQJDNYWUorJ8gBCI2ji4XE8mrYDBkxMh6il2BnEjQ6-Kz1P27OkiA94MH6zckYrUqdyU5D-w6TDhq2YO7vydbJbJhtcltBjD7tzgSPhIfw1ghBl1qusixbH_I_mB]--></g></svg>