<?xml version="1.0" encoding="us-ascii" standalone="no"?><svg xmlns="http://www.w3.org/2000/svg" xmlns:xlink="http://www.w3.org/1999/xlink" contentStyleType="text/css" height="549px" preserveAspectRatio="none" style="width:582px;height:549px;background:#FFFFFF;" version="1.1" viewBox="0 0 582 549" width="582px" zoomAndPan="magnify"><defs/><g><!--class HttpServerAjax--><g id="elem_HttpServerAjax"><rect codeLine="7" fill="#F1F1F1" height="79.2031" id="HttpServerAjax" rx="2.5" ry="2.5" style="stroke:#181818;stroke-width:0.5;" width="130" x="337.5" y="7"/><ellipse cx="354.75" cy="29.291" fill="#C2C2C2" rx="11" ry="11" style="stroke:#181818;stroke-width:1.0;"/><path d="M357.5156,25.166 Q357.6719,24.9473 357.8594,24.8379 Q358.0469,24.7285 358.2656,24.7285 Q358.6406,24.7285 358.875,24.9941 Q359.1094,25.2441 359.1094,25.8535 L359.1094,27.3066 Q359.1094,27.916 358.875,28.1816 Q358.6406,28.4473 358.2656,28.4473 Q357.9219,28.4473 357.7188,28.2441 Q357.5156,28.0566 357.4063,27.541 Q357.3594,27.1816 357.1719,26.9941 Q356.8438,26.6191 356.2344,26.4004 Q355.625,26.1816 355,26.1816 Q354.2344,26.1816 353.5938,26.5098 Q352.9688,26.8379 352.4688,27.5879 Q351.9844,28.3379 351.9844,29.3691 L351.9844,30.4629 Q351.9844,31.6973 352.875,32.5254 Q353.7656,33.3379 355.3594,33.3379 Q356.2969,33.3379 356.9531,33.0879 Q357.3438,32.9316 357.7656,32.4941 Q358.0313,32.2285 358.1719,32.1504 Q358.3281,32.0723 358.5313,32.0723 Q358.8594,32.0723 359.1094,32.3379 Q359.375,32.5879 359.375,32.9316 Q359.375,33.2754 359.0313,33.6816 Q358.5313,34.2598 357.7344,34.5879 Q356.6563,35.041 355.3594,35.041 Q353.8438,35.041 352.6406,34.416 Q351.6563,33.916 350.9688,32.8535 Q350.2813,31.7754 350.2813,30.4941 L350.2813,29.3379 Q350.2813,28.0098 350.8906,26.8691 Q351.5156,25.7129 352.6094,25.1035 Q353.7031,24.4785 354.9375,24.4785 Q355.6719,24.4785 356.3125,24.6504 Q356.9688,24.8066 357.5156,25.166 Z " fill="#000000"/><text fill="#000000" font-family="FG Virgil" font-size="12" font-style="italic" lengthAdjust="spacing" textLength="71" x="380.25" y="24.9492">&#171;http server&#187;</text><text fill="#000000" font-family="FG Virgil" font-size="14" lengthAdjust="spacing" textLength="93" x="369.25" y="43.0684">HttpServerAjax</text><line style="stroke:#181818;stroke-width:0.5;" x1="338.5" x2="466.5" y1="51.582" y2="51.582"/><line style="stroke:#181818;stroke-width:0.5;" x1="338.5" x2="466.5" y1="59.582" y2="59.582"/><text fill="#000000" font-family="FG Virgil" font-size="14" lengthAdjust="spacing" textLength="118" x="343.5" y="78.6895">viewBoardHistory()</text></g><!--class ViewBoardHistoryController--><g id="elem_ViewBoardHistoryController"><rect codeLine="8" fill="#F1F1F1" height="79.2031" id="ViewBoardHistoryController" rx="2.5" ry="2.5" style="stroke:#181818;stroke-width:0.5;" width="204" x="198.5" y="165"/><ellipse cx="213.5" cy="187.291" fill="#C2C2C2" rx="11" ry="11" style="stroke:#181818;stroke-width:1.0;"/><path d="M216.2656,183.166 Q216.4219,182.9473 216.6094,182.8379 Q216.7969,182.7285 217.0156,182.7285 Q217.3906,182.7285 217.625,182.9941 Q217.8594,183.2441 217.8594,183.8535 L217.8594,185.3066 Q217.8594,185.916 217.625,186.1816 Q217.3906,186.4473 217.0156,186.4473 Q216.6719,186.4473 216.4688,186.2441 Q216.2656,186.0566 216.1563,185.541 Q216.1094,185.1816 215.9219,184.9941 Q215.5938,184.6191 214.9844,184.4004 Q214.375,184.1816 213.75,184.1816 Q212.9844,184.1816 212.3438,184.5098 Q211.7188,184.8379 211.2188,185.5879 Q210.7344,186.3379 210.7344,187.3691 L210.7344,188.4629 Q210.7344,189.6973 211.625,190.5254 Q212.5156,191.3379 214.1094,191.3379 Q215.0469,191.3379 215.7031,191.0879 Q216.0938,190.9316 216.5156,190.4941 Q216.7813,190.2285 216.9219,190.1504 Q217.0781,190.0723 217.2813,190.0723 Q217.6094,190.0723 217.8594,190.3379 Q218.125,190.5879 218.125,190.9316 Q218.125,191.2754 217.7813,191.6816 Q217.2813,192.2598 216.4844,192.5879 Q215.4063,193.041 214.1094,193.041 Q212.5938,193.041 211.3906,192.416 Q210.4063,191.916 209.7188,190.8535 Q209.0313,189.7754 209.0313,188.4941 L209.0313,187.3379 Q209.0313,186.0098 209.6406,184.8691 Q210.2656,183.7129 211.3594,183.1035 Q212.4531,182.4785 213.6875,182.4785 Q214.4219,182.4785 215.0625,182.6504 Q215.7188,182.8066 216.2656,183.166 Z " fill="#000000"/><text fill="#000000" font-family="FG Virgil" font-size="12" font-style="italic" lengthAdjust="spacing" textLength="74" x="276.5" y="182.9492">&#171;application&#187;</text><text fill="#000000" font-family="FG Virgil" font-size="14" lengthAdjust="spacing" textLength="172" x="227.5" y="201.0684">ViewBoardHistoryController</text><line style="stroke:#181818;stroke-width:0.5;" x1="199.5" x2="401.5" y1="209.582" y2="209.582"/><line style="stroke:#181818;stroke-width:0.5;" x1="199.5" x2="401.5" y1="217.582" y2="217.582"/><text fill="#000000" font-family="FG Virgil" font-size="14" lengthAdjust="spacing" textLength="118" x="204.5" y="236.6895">viewBoardHistory()</text></g><!--class SessionManager--><g id="elem_SessionManager"><rect codeLine="9" fill="#F1F1F1" height="66.6211" id="SessionManager" rx="2.5" ry="2.5" style="stroke:#181818;stroke-width:0.5;" width="138" x="437.5" y="171"/><ellipse cx="452.5" cy="187" fill="#C2C2C2" rx="11" ry="11" style="stroke:#181818;stroke-width:1.0;"/><path d="M455.2656,182.875 Q455.4219,182.6563 455.6094,182.5469 Q455.7969,182.4375 456.0156,182.4375 Q456.3906,182.4375 456.625,182.7031 Q456.8594,182.9531 456.8594,183.5625 L456.8594,185.0156 Q456.8594,185.625 456.625,185.8906 Q456.3906,186.1563 456.0156,186.1563 Q455.6719,186.1563 455.4688,185.9531 Q455.2656,185.7656 455.1563,185.25 Q455.1094,184.8906 454.9219,184.7031 Q454.5938,184.3281 453.9844,184.1094 Q453.375,183.8906 452.75,183.8906 Q451.9844,183.8906 451.3438,184.2188 Q450.7188,184.5469 450.2188,185.2969 Q449.7344,186.0469 449.7344,187.0781 L449.7344,188.1719 Q449.7344,189.4063 450.625,190.2344 Q451.5156,191.0469 453.1094,191.0469 Q454.0469,191.0469 454.7031,190.7969 Q455.0938,190.6406 455.5156,190.2031 Q455.7813,189.9375 455.9219,189.8594 Q456.0781,189.7813 456.2813,189.7813 Q456.6094,189.7813 456.8594,190.0469 Q457.125,190.2969 457.125,190.6406 Q457.125,190.9844 456.7813,191.3906 Q456.2813,191.9688 455.4844,192.2969 Q454.4063,192.75 453.1094,192.75 Q451.5938,192.75 450.3906,192.125 Q449.4063,191.625 448.7188,190.5625 Q448.0313,189.4844 448.0313,188.2031 L448.0313,187.0469 Q448.0313,185.7188 448.6406,184.5781 Q449.2656,183.4219 450.3594,182.8125 Q451.4531,182.1875 452.6875,182.1875 Q453.4219,182.1875 454.0625,182.3594 Q454.7188,182.5156 455.2656,182.875 Z " fill="#000000"/><text fill="#000000" font-family="FG Virgil" font-size="14" lengthAdjust="spacing" textLength="106" x="466.5" y="192.7969">SessionManager</text><line style="stroke:#181818;stroke-width:0.5;" x1="438.5" x2="574.5" y1="203" y2="203"/><line style="stroke:#181818;stroke-width:0.5;" x1="438.5" x2="574.5" y1="211" y2="211"/><text fill="#000000" font-family="FG Virgil" font-size="14" lengthAdjust="spacing" textLength="115" x="443.5" y="230.1074">getUserByToken()</text></g><!--class BoardRepository--><g id="elem_BoardRepository"><rect codeLine="10" fill="#F1F1F1" height="79.2031" id="BoardRepository" rx="2.5" ry="2.5" style="stroke:#181818;stroke-width:0.5;" width="138" x="67.5" y="323"/><ellipse cx="82.5" cy="345.291" fill="#C2C2C2" rx="11" ry="11" style="stroke:#181818;stroke-width:1.0;"/><path d="M85.2656,341.166 Q85.4219,340.9473 85.6094,340.8379 Q85.7969,340.7285 86.0156,340.7285 Q86.3906,340.7285 86.625,340.9941 Q86.8594,341.2441 86.8594,341.8535 L86.8594,343.3066 Q86.8594,343.916 86.625,344.1816 Q86.3906,344.4473 86.0156,344.4473 Q85.6719,344.4473 85.4688,344.2441 Q85.2656,344.0566 85.1563,343.541 Q85.1094,343.1816 84.9219,342.9941 Q84.5938,342.6191 83.9844,342.4004 Q83.375,342.1816 82.75,342.1816 Q81.9844,342.1816 81.3438,342.5098 Q80.7188,342.8379 80.2188,343.5879 Q79.7344,344.3379 79.7344,345.3691 L79.7344,346.4629 Q79.7344,347.6973 80.625,348.5254 Q81.5156,349.3379 83.1094,349.3379 Q84.0469,349.3379 84.7031,349.0879 Q85.0938,348.9316 85.5156,348.4941 Q85.7813,348.2285 85.9219,348.1504 Q86.0781,348.0723 86.2813,348.0723 Q86.6094,348.0723 86.8594,348.3379 Q87.125,348.5879 87.125,348.9316 Q87.125,349.2754 86.7813,349.6816 Q86.2813,350.2598 85.4844,350.5879 Q84.4063,351.041 83.1094,351.041 Q81.5938,351.041 80.3906,350.416 Q79.4063,349.916 78.7188,348.8535 Q78.0313,347.7754 78.0313,346.4941 L78.0313,345.3379 Q78.0313,344.0098 78.6406,342.8691 Q79.2656,341.7129 80.3594,341.1035 Q81.4531,340.4785 82.6875,340.4785 Q83.4219,340.4785 84.0625,340.6504 Q84.7188,340.8066 85.2656,341.166 Z " fill="#000000"/><text fill="#000000" font-family="FG Virgil" font-size="12" font-style="italic" lengthAdjust="spacing" textLength="68" x="115.5" y="340.9492">&#171;repository&#187;</text><text fill="#000000" font-family="FG Virgil" font-size="14" lengthAdjust="spacing" textLength="106" x="96.5" y="359.0684">BoardRepository</text><line style="stroke:#181818;stroke-width:0.5;" x1="68.5" x2="204.5" y1="367.582" y2="367.582"/><line style="stroke:#181818;stroke-width:0.5;" x1="68.5" x2="204.5" y1="375.582" y2="375.582"/><text fill="#000000" font-family="FG Virgil" font-size="14" lengthAdjust="spacing" textLength="94" x="73.5" y="394.6895">ofIdentity(long)</text></g><!--class PostItRepository--><g id="elem_PostItRepository"><rect codeLine="11" fill="#F1F1F1" height="79.2031" id="PostItRepository" rx="2.5" ry="2.5" style="stroke:#181818;stroke-width:0.5;" width="165" x="241" y="323"/><ellipse cx="269.5" cy="345.291" fill="#C2C2C2" rx="11" ry="11" style="stroke:#181818;stroke-width:1.0;"/><path d="M272.2656,341.166 Q272.4219,340.9473 272.6094,340.8379 Q272.7969,340.7285 273.0156,340.7285 Q273.3906,340.7285 273.625,340.9941 Q273.8594,341.2441 273.8594,341.8535 L273.8594,343.3066 Q273.8594,343.916 273.625,344.1816 Q273.3906,344.4473 273.0156,344.4473 Q272.6719,344.4473 272.4688,344.2441 Q272.2656,344.0566 272.1563,343.541 Q272.1094,343.1816 271.9219,342.9941 Q271.5938,342.6191 270.9844,342.4004 Q270.375,342.1816 269.75,342.1816 Q268.9844,342.1816 268.3438,342.5098 Q267.7188,342.8379 267.2188,343.5879 Q266.7344,344.3379 266.7344,345.3691 L266.7344,346.4629 Q266.7344,347.6973 267.625,348.5254 Q268.5156,349.3379 270.1094,349.3379 Q271.0469,349.3379 271.7031,349.0879 Q272.0938,348.9316 272.5156,348.4941 Q272.7813,348.2285 272.9219,348.1504 Q273.0781,348.0723 273.2813,348.0723 Q273.6094,348.0723 273.8594,348.3379 Q274.125,348.5879 274.125,348.9316 Q274.125,349.2754 273.7813,349.6816 Q273.2813,350.2598 272.4844,350.5879 Q271.4063,351.041 270.1094,351.041 Q268.5938,351.041 267.3906,350.416 Q266.4063,349.916 265.7188,348.8535 Q265.0313,347.7754 265.0313,346.4941 L265.0313,345.3379 Q265.0313,344.0098 265.6406,342.8691 Q266.2656,341.7129 267.3594,341.1035 Q268.4531,340.4785 269.6875,340.4785 Q270.4219,340.4785 271.0625,340.6504 Q271.7188,340.8066 272.2656,341.166 Z " fill="#000000"/><text fill="#000000" font-family="FG Virgil" font-size="12" font-style="italic" lengthAdjust="spacing" textLength="68" x="304" y="340.9492">&#171;repository&#187;</text><text fill="#000000" font-family="FG Virgil" font-size="14" lengthAdjust="spacing" textLength="103" x="286.5" y="359.0684">PostItRepository</text><line style="stroke:#181818;stroke-width:0.5;" x1="242" x2="405" y1="367.582" y2="367.582"/><line style="stroke:#181818;stroke-width:0.5;" x1="242" x2="405" y1="375.582" y2="375.582"/><text fill="#000000" font-family="FG Virgil" font-size="14" lengthAdjust="spacing" textLength="153" x="247" y="394.6895">getPostItsHistory(Board)</text></g><!--class Board--><g id="elem_Board"><rect codeLine="12" fill="#F1F1F1" height="79.2031" id="Board" rx="2.5" ry="2.5" style="stroke:#181818;stroke-width:0.5;" width="259" x="7" y="463"/><ellipse cx="106.25" cy="485.291" fill="#C2C2C2" rx="11" ry="11" style="stroke:#181818;stroke-width:1.0;"/><path d="M109.0156,481.166 Q109.1719,480.9473 109.3594,480.8379 Q109.5469,480.7285 109.7656,480.7285 Q110.1406,480.7285 110.375,480.9941 Q110.6094,481.2441 110.6094,481.8535 L110.6094,483.3066 Q110.6094,483.916 110.375,484.1816 Q110.1406,484.4473 109.7656,484.4473 Q109.4219,484.4473 109.2188,484.2441 Q109.0156,484.0566 108.9063,483.541 Q108.8594,483.1816 108.6719,482.9941 Q108.3438,482.6191 107.7344,482.4004 Q107.125,482.1816 106.5,482.1816 Q105.7344,482.1816 105.0938,482.5098 Q104.4688,482.8379 103.9688,483.5879 Q103.4844,484.3379 103.4844,485.3691 L103.4844,486.4629 Q103.4844,487.6973 104.375,488.5254 Q105.2656,489.3379 106.8594,489.3379 Q107.7969,489.3379 108.4531,489.0879 Q108.8438,488.9316 109.2656,488.4941 Q109.5313,488.2285 109.6719,488.1504 Q109.8281,488.0723 110.0313,488.0723 Q110.3594,488.0723 110.6094,488.3379 Q110.875,488.5879 110.875,488.9316 Q110.875,489.2754 110.5313,489.6816 Q110.0313,490.2598 109.2344,490.5879 Q108.1563,491.041 106.8594,491.041 Q105.3438,491.041 104.1406,490.416 Q103.1563,489.916 102.4688,488.8535 Q101.7813,487.7754 101.7813,486.4941 L101.7813,485.3379 Q101.7813,484.0098 102.3906,482.8691 Q103.0156,481.7129 104.1094,481.1035 Q105.2031,480.4785 106.4375,480.4785 Q107.1719,480.4785 107.8125,480.6504 Q108.4688,480.8066 109.0156,481.166 Z " fill="#000000"/><text fill="#000000" font-family="FG Virgil" font-size="12" font-style="italic" lengthAdjust="spacing" textLength="56" x="124.75" y="480.9492">&#171;domain&#187;</text><text fill="#000000" font-family="FG Virgil" font-size="14" lengthAdjust="spacing" textLength="38" x="133.75" y="499.0684">Board</text><line style="stroke:#181818;stroke-width:0.5;" x1="8" x2="265" y1="507.582" y2="507.582"/><line style="stroke:#181818;stroke-width:0.5;" x1="8" x2="265" y1="515.582" y2="515.582"/><text fill="#000000" font-family="FG Virgil" font-size="14" lengthAdjust="spacing" textLength="247" x="13" y="534.6895">userHasPermission(User, AccessLevel)</text></g><!--class User--><g id="elem_User"><rect codeLine="13" fill="#F1F1F1" height="60.582" id="User" rx="2.5" ry="2.5" style="stroke:#181818;stroke-width:0.5;" width="84" x="464.5" y="332"/><ellipse cx="479.5" cy="354.291" fill="#C2C2C2" rx="11" ry="11" style="stroke:#181818;stroke-width:1.0;"/><path d="M482.2656,350.166 Q482.4219,349.9473 482.6094,349.8379 Q482.7969,349.7285 483.0156,349.7285 Q483.3906,349.7285 483.625,349.9941 Q483.8594,350.2441 483.8594,350.8535 L483.8594,352.3066 Q483.8594,352.916 483.625,353.1816 Q483.3906,353.4473 483.0156,353.4473 Q482.6719,353.4473 482.4688,353.2441 Q482.2656,353.0566 482.1563,352.541 Q482.1094,352.1816 481.9219,351.9941 Q481.5938,351.6191 480.9844,351.4004 Q480.375,351.1816 479.75,351.1816 Q478.9844,351.1816 478.3438,351.5098 Q477.7188,351.8379 477.2188,352.5879 Q476.7344,353.3379 476.7344,354.3691 L476.7344,355.4629 Q476.7344,356.6973 477.625,357.5254 Q478.5156,358.3379 480.1094,358.3379 Q481.0469,358.3379 481.7031,358.0879 Q482.0938,357.9316 482.5156,357.4941 Q482.7813,357.2285 482.9219,357.1504 Q483.0781,357.0723 483.2813,357.0723 Q483.6094,357.0723 483.8594,357.3379 Q484.125,357.5879 484.125,357.9316 Q484.125,358.2754 483.7813,358.6816 Q483.2813,359.2598 482.4844,359.5879 Q481.4063,360.041 480.1094,360.041 Q478.5938,360.041 477.3906,359.416 Q476.4063,358.916 475.7188,357.8535 Q475.0313,356.7754 475.0313,355.4941 L475.0313,354.3379 Q475.0313,353.0098 475.6406,351.8691 Q476.2656,350.7129 477.3594,350.1035 Q478.4531,349.4785 479.6875,349.4785 Q480.4219,349.4785 481.0625,349.6504 Q481.7188,349.8066 482.2656,350.166 Z " fill="#000000"/><text fill="#000000" font-family="FG Virgil" font-size="12" font-style="italic" lengthAdjust="spacing" textLength="56" x="491.5" y="349.9492">&#171;domain&#187;</text><text fill="#000000" font-family="FG Virgil" font-size="14" lengthAdjust="spacing" textLength="29" x="505" y="368.0684">User</text><line style="stroke:#181818;stroke-width:0.5;" x1="465.5" x2="547.5" y1="376.582" y2="376.582"/><line style="stroke:#181818;stroke-width:0.5;" x1="465.5" x2="547.5" y1="384.582" y2="384.582"/></g><!--link HttpServerAjax to ViewBoardHistoryController--><g id="link_HttpServerAjax_ViewBoardHistoryController"><path codeLine="15" d="M377.29,86.06 C362.51,108.66 343.82,137.24 328.58,160.55 " fill="none" id="HttpServerAjax-to-ViewBoardHistoryController" style="stroke:#181818;stroke-width:1.0;"/><polygon fill="#181818" points="325.78,164.84,334.0457,159.4849,328.5105,160.6514,327.3439,155.1161,325.78,164.84" style="stroke:#181818;stroke-width:1.0;"/><text fill="#000000" font-family="FG Virgil" font-size="13" lengthAdjust="spacing" textLength="73" x="359.5" y="131.0283">theController</text></g><!--link HttpServerAjax to SessionManager--><g id="link_HttpServerAjax_SessionManager"><path codeLine="16" d="M428.21,86.06 C444.57,110.61 465.65,142.23 481.82,166.47 " fill="none" id="HttpServerAjax-to-SessionManager" style="stroke:#181818;stroke-width:1.0;"/><polygon fill="#181818" points="484.77,170.91,483.1213,161.2001,482.0031,166.7454,476.4578,165.6272,484.77,170.91" style="stroke:#181818;stroke-width:1.0;"/><text fill="#000000" font-family="FG Virgil" font-size="13" lengthAdjust="spacing" textLength="95" x="461.5" y="131.0283">sessionManager</text></g><!--link SessionManager to User--><g id="link_SessionManager_User"><path codeLine="17" d="M506.5,238.2 C506.5,264.08 506.5,300.15 506.5,326.59 " fill="none" id="SessionManager-to-User" style="stroke:#181818;stroke-width:1.0;stroke-dasharray:7.0,7.0;"/><polygon fill="#181818" points="506.5,331.74,510.5,322.74,506.5,326.74,502.5,322.74,506.5,331.74" style="stroke:#181818;stroke-width:1.0;"/></g><!--link ViewBoardHistoryController to BoardRepository--><g id="link_ViewBoardHistoryController_BoardRepository"><path codeLine="18" d="M243.09,244.24 C230.87,253.44 218.38,263.62 207.5,274 C193.4,287.46 179.52,303.69 167.83,318.5 " fill="none" id="ViewBoardHistoryController-to-BoardRepository" style="stroke:#181818;stroke-width:1.0;"/><polygon fill="#181818" points="164.59,322.64,173.2764,317.9981,167.6627,318.6955,166.9652,313.0819,164.59,322.64" style="stroke:#181818;stroke-width:1.0;"/><text fill="#000000" font-family="FG Virgil" font-size="13" lengthAdjust="spacing" textLength="94" x="208.5" y="289.0283">boardRepository</text></g><!--link ViewBoardHistoryController to PostItRepository--><g id="link_ViewBoardHistoryController_PostItRepository"><path codeLine="19" d="M306.19,244.06 C309.48,266.37 313.63,294.53 317.04,317.68 " fill="none" id="ViewBoardHistoryController-to-PostItRepository" style="stroke:#181818;stroke-width:1.0;"/><polygon fill="#181818" points="317.8,322.84,320.4448,313.3529,317.0709,317.8934,312.5303,314.5195,317.8,322.84" style="stroke:#181818;stroke-width:1.0;"/><text fill="#000000" font-family="FG Virgil" font-size="13" lengthAdjust="spacing" textLength="94" x="314.5" y="289.0283">postItRepository</text></g><!--link BoardRepository to Board--><g id="link_BoardRepository_Board"><path codeLine="20" d="M136.5,402.31 C136.5,419.5 136.5,439.81 136.5,457.56 " fill="none" id="BoardRepository-to-Board" style="stroke:#181818;stroke-width:1.0;stroke-dasharray:7.0,7.0;"/><polygon fill="#181818" points="136.5,462.98,140.5,453.98,136.5,457.98,132.5,453.98,136.5,462.98" style="stroke:#181818;stroke-width:1.0;"/></g><!--SRC=[XL7DRi8m3BxdANAaqk01AbG99Z6GjWcDZRlNcZOZZQiumFhsImChq28uvhE_FuUtobHWePGb6KeBIoLAPtSek9rKa6uXnvMhDKgBgRkOPRY1dNOpCkuTF7Ns8jVAvafVx7016HsKoUK6DACGgGPcENUkMg7TevtymAySZmiFI0v8afoMrWeFKmARpHKxilMpDxAaDLfFWAhIAWMdoBI45JBxzniO7zcUmA3mWHMnQaGyrRQFbhaaTWltQ2j8-L569QYpxHU7H2qgEks6m-HUbrYw0i_lM-phOfx1rqqxyz4e2Q747TT6jdkQM7vV8uy4UcUBPTM1HDUa2HUmtfrYkU_O3IBHgvwZQxfDwq_Qel4RTqzxG_7uYx7SUPKvy19jgOB7eD5zafCqzPwlk4STYHiDVO0Zol-QGJ4I_NFIPf6XSShL0qqcZyGV]--></g></svg>