<?xml version="1.0" encoding="us-ascii" standalone="no"?><svg xmlns="http://www.w3.org/2000/svg" xmlns:xlink="http://www.w3.org/1999/xlink" contentStyleType="text/css" height="602px" preserveAspectRatio="none" style="width:560px;height:602px;background:#FFFFFF;" version="1.1" viewBox="0 0 560 602" width="560px" zoomAndPan="magnify"><defs/><g><!--class ListCoursesUI--><g id="elem_ListCoursesUI"><rect codeLine="2" fill="#F1F1F1" height="80.9766" id="ListCoursesUI" rx="2.5" ry="2.5" style="stroke:#181818;stroke-width:0.5;" width="460" x="93" y="7"/><ellipse cx="272.25" cy="23" fill="#ADD1B2" rx="11" ry="11" style="stroke:#181818;stroke-width:1.0;"/><path d="M275.2231,28.6431 Q274.6421,28.9419 274.0029,29.0913 Q273.3638,29.2407 272.6582,29.2407 Q270.1514,29.2407 268.8315,27.5889 Q267.5117,25.937 267.5117,22.8159 Q267.5117,19.6865 268.8315,18.0347 Q270.1514,16.3828 272.6582,16.3828 Q273.3638,16.3828 274.0112,16.5322 Q274.6587,16.6816 275.2231,16.9805 L275.2231,19.7031 Q274.5923,19.1221 273.9988,18.8523 Q273.4053,18.5825 272.7744,18.5825 Q271.4297,18.5825 270.7449,19.6492 Q270.0601,20.7158 270.0601,22.8159 Q270.0601,24.9077 270.7449,25.9744 Q271.4297,27.041 272.7744,27.041 Q273.4053,27.041 273.9988,26.7712 Q274.5923,26.5015 275.2231,25.9204 Z " fill="#000000"/><text fill="#000000" font-family="sans-serif" font-size="14" lengthAdjust="spacing" textLength="93" x="292.75" y="28.291">ListCoursesUI</text><line style="stroke:#181818;stroke-width:0.5;" x1="94" x2="552" y1="39" y2="39"/><line style="stroke:#181818;stroke-width:0.5;" x1="94" x2="552" y1="47" y2="47"/><rect fill="#F24D5C" height="6" style="stroke:#C82930;stroke-width:1.0;" width="6" x="101" y="57.7441"/><text fill="#000000" font-family="sans-serif" font-size="14" lengthAdjust="spacing" textLength="65" x="113" y="64.5352">doShow()</text><rect fill="#F24D5C" height="6" style="stroke:#C82930;stroke-width:1.0;" width="6" x="101" y="74.2324"/><text fill="#000000" font-family="sans-serif" font-size="14" lengthAdjust="spacing" textLength="434" x="113" y="81.0234">printCourses(Iterable&lt;Course&gt; coursesToPrint, String context)</text></g><!--class RetrieveCoursesController--><g id="elem_RetrieveCoursesController"><rect codeLine="7" fill="#F1F1F1" height="130.4414" id="RetrieveCoursesController" rx="2.5" ry="2.5" style="stroke:#181818;stroke-width:0.5;" width="339" x="153.5" y="149"/><ellipse cx="228.25" cy="165" fill="#ADD1B2" rx="11" ry="11" style="stroke:#181818;stroke-width:1.0;"/><path d="M231.2231,170.6431 Q230.6421,170.9419 230.0029,171.0913 Q229.3638,171.2407 228.6582,171.2407 Q226.1514,171.2407 224.8315,169.5889 Q223.5117,167.937 223.5117,164.8159 Q223.5117,161.6865 224.8315,160.0347 Q226.1514,158.3828 228.6582,158.3828 Q229.3638,158.3828 230.0112,158.5322 Q230.6587,158.6816 231.2231,158.9805 L231.2231,161.7031 Q230.5923,161.1221 229.9988,160.8523 Q229.4053,160.5825 228.7744,160.5825 Q227.4297,160.5825 226.7449,161.6492 Q226.0601,162.7158 226.0601,164.8159 Q226.0601,166.9077 226.7449,167.9744 Q227.4297,169.041 228.7744,169.041 Q229.4053,169.041 229.9988,168.7712 Q230.5923,168.5015 231.2231,167.9204 Z " fill="#000000"/><text fill="#000000" font-family="sans-serif" font-size="14" lengthAdjust="spacing" textLength="181" x="248.75" y="170.291">RetrieveCoursesController</text><line style="stroke:#181818;stroke-width:0.5;" x1="154.5" x2="491.5" y1="181" y2="181"/><line style="stroke:#181818;stroke-width:0.5;" x1="154.5" x2="491.5" y1="189" y2="189"/><rect fill="#F24D5C" height="6" style="stroke:#C82930;stroke-width:1.0;" width="6" x="161.5" y="199.7441"/><text fill="#000000" font-family="sans-serif" font-size="14" lengthAdjust="spacing" textLength="106" x="173.5" y="206.5352">getAllCourses()</text><rect fill="#F24D5C" height="6" style="stroke:#C82930;stroke-width:1.0;" width="6" x="161.5" y="216.2324"/><text fill="#000000" font-family="sans-serif" font-size="14" lengthAdjust="spacing" textLength="250" x="173.5" y="223.0234">getCoursesThatITeach(User teacher)</text><rect fill="#F24D5C" height="6" style="stroke:#C82930;stroke-width:1.0;" width="6" x="161.5" y="232.7207"/><text fill="#000000" font-family="sans-serif" font-size="14" lengthAdjust="spacing" textLength="241" x="173.5" y="239.5117">getCoursesThatILead(User teacher)</text><rect fill="#F24D5C" height="6" style="stroke:#C82930;stroke-width:1.0;" width="6" x="161.5" y="249.209"/><text fill="#000000" font-family="sans-serif" font-size="14" lengthAdjust="spacing" textLength="313" x="173.5" y="256">getCoursesAvailableForStudent(User student)</text><rect fill="#F24D5C" height="6" style="stroke:#C82930;stroke-width:1.0;" width="6" x="161.5" y="265.6973"/><text fill="#000000" font-family="sans-serif" font-size="14" lengthAdjust="spacing" textLength="285" x="173.5" y="272.4883">getCoursesTakenByStudent(User student)</text></g><!--class CourseRepository--><g id="elem_CourseRepository"><rect codeLine="15" fill="#F1F1F1" height="130.4414" id="CourseRepository" rx="2.5" ry="2.5" style="stroke:#181818;stroke-width:0.5;" width="316" x="7" y="340"/><ellipse cx="99.75" cy="356" fill="#ADD1B2" rx="11" ry="11" style="stroke:#181818;stroke-width:1.0;"/><path d="M102.7231,361.6431 Q102.1421,361.9419 101.5029,362.0913 Q100.8638,362.2407 100.1582,362.2407 Q97.6514,362.2407 96.3315,360.5889 Q95.0117,358.937 95.0117,355.8159 Q95.0117,352.6865 96.3315,351.0347 Q97.6514,349.3828 100.1582,349.3828 Q100.8638,349.3828 101.5112,349.5322 Q102.1587,349.6816 102.7231,349.9805 L102.7231,352.7031 Q102.0923,352.1221 101.4988,351.8523 Q100.9053,351.5825 100.2744,351.5825 Q98.9297,351.5825 98.2449,352.6492 Q97.5601,353.7158 97.5601,355.8159 Q97.5601,357.9077 98.2449,358.9744 Q98.9297,360.041 100.2744,360.041 Q100.9053,360.041 101.4988,359.7712 Q102.0923,359.5015 102.7231,358.9204 Z " fill="#000000"/><text fill="#000000" font-family="sans-serif" font-size="14" lengthAdjust="spacing" textLength="122" x="120.25" y="361.291">CourseRepository</text><line style="stroke:#181818;stroke-width:0.5;" x1="8" x2="322" y1="372" y2="372"/><line style="stroke:#181818;stroke-width:0.5;" x1="8" x2="322" y1="380" y2="380"/><rect fill="#F24D5C" height="6" style="stroke:#C82930;stroke-width:1.0;" width="6" x="15" y="390.7441"/><text fill="#000000" font-family="sans-serif" font-size="14" lengthAdjust="spacing" textLength="55" x="27" y="397.5352">findAll()</text><rect fill="#F24D5C" height="6" style="stroke:#C82930;stroke-width:1.0;" width="6" x="15" y="407.2324"/><text fill="#000000" font-family="sans-serif" font-size="14" lengthAdjust="spacing" textLength="255" x="27" y="414.0234">findCoursesThatITeach(User teacher)</text><rect fill="#F24D5C" height="6" style="stroke:#C82930;stroke-width:1.0;" width="6" x="15" y="423.7207"/><text fill="#000000" font-family="sans-serif" font-size="14" lengthAdjust="spacing" textLength="246" x="27" y="430.5117">findCoursesThatILead(User teacher)</text><rect fill="#F24D5C" height="6" style="stroke:#C82930;stroke-width:1.0;" width="6" x="15" y="440.209"/><text fill="#000000" font-family="sans-serif" font-size="14" lengthAdjust="spacing" textLength="290" x="27" y="447">findCoursesTakenByStudent(User student)</text><rect fill="#F24D5C" height="6" style="stroke:#C82930;stroke-width:1.0;" width="6" x="15" y="456.6973"/><text fill="#000000" font-family="sans-serif" font-size="14" lengthAdjust="spacing" textLength="168" x="27" y="463.4883">findOpenForEnrolment()</text></g><!--class Course--><g id="elem_Course"><rect codeLine="23" fill="#F1F1F1" height="48" id="Course" rx="2.5" ry="2.5" style="stroke:#181818;stroke-width:0.5;" width="81" x="230.5" y="547"/><ellipse cx="245.5" cy="563" fill="#ADD1B2" rx="11" ry="11" style="stroke:#181818;stroke-width:1.0;"/><path d="M248.4731,568.6431 Q247.8921,568.9419 247.2529,569.0913 Q246.6138,569.2407 245.9082,569.2407 Q243.4014,569.2407 242.0815,567.5889 Q240.7617,565.937 240.7617,562.8159 Q240.7617,559.6865 242.0815,558.0347 Q243.4014,556.3828 245.9082,556.3828 Q246.6138,556.3828 247.2612,556.5322 Q247.9087,556.6816 248.4731,556.9805 L248.4731,559.7031 Q247.8423,559.1221 247.2488,558.8523 Q246.6553,558.5825 246.0244,558.5825 Q244.6797,558.5825 243.9949,559.6492 Q243.3101,560.7158 243.3101,562.8159 Q243.3101,564.9077 243.9949,565.9744 Q244.6797,567.041 246.0244,567.041 Q246.6553,567.041 247.2488,566.7712 Q247.8423,566.5015 248.4731,565.9204 Z " fill="#000000"/><text fill="#000000" font-family="sans-serif" font-size="14" lengthAdjust="spacing" textLength="49" x="259.5" y="568.291">Course</text><line style="stroke:#181818;stroke-width:0.5;" x1="231.5" x2="310.5" y1="579" y2="579"/><line style="stroke:#181818;stroke-width:0.5;" x1="231.5" x2="310.5" y1="587" y2="587"/></g><!--link ListCoursesUI to RetrieveCoursesController--><g id="link_ListCoursesUI_RetrieveCoursesController"><path codeLine="25" d="M323,88.32 C323,104.69 323,124.16 323,142.78 " fill="none" id="ListCoursesUI-to-RetrieveCoursesController" style="stroke:#181818;stroke-width:1.0;stroke-dasharray:7.0,7.0;"/><polygon fill="#181818" points="323,147.52,327,138.52,323,142.52,319,138.52,323,147.52" style="stroke:#181818;stroke-width:1.0;"/></g><!--link RetrieveCoursesController to CourseRepository--><g id="link_RetrieveCoursesController_CourseRepository"><path codeLine="26" d="M269.29,279.25 C254.28,297.21 237.91,316.79 222.68,335.01 " fill="none" id="RetrieveCoursesController-to-CourseRepository" style="stroke:#181818;stroke-width:1.0;stroke-dasharray:7.0,7.0;"/><polygon fill="#181818" points="218.83,338.61,227.6709,334.2697,222.0366,334.7736,221.5327,329.1392,218.83,338.61" style="stroke:#181818;stroke-width:1.0;"/></g><!--link CourseRepository to Course--><g id="link_CourseRepository_Course"><path codeLine="28" d="M206.59,470.35 C222.63,495.16 240.14,522.25 252.84,541.91 " fill="none" id="CourseRepository-to-Course" style="stroke:#181818;stroke-width:1.0;"/><polygon fill="#181818" points="255.97,545.74,254.4445,536.01,253.2561,541.5406,247.7255,540.3522,255.97,545.74" style="stroke:#181818;stroke-width:1.0;"/><polygon fill="#000000" points="244.714,512.8546,242.2726,503.6627,237.336,506.8533,244.714,512.8546" style="stroke:#000000;stroke-width:1.0;"/><text fill="#000000" font-family="sans-serif" font-size="13" lengthAdjust="spacing" textLength="56" x="251" y="513.5684">manages</text></g><!--link RetrieveCoursesController to Course--><g id="link_RetrieveCoursesController_Course"><path codeLine="29" d="M338.5,279.36 C348.45,331.51 356.84,406.48 341,470 C334.09,497.72 315.04,523.97 298.56,542.62 " fill="none" id="RetrieveCoursesController-to-Course" style="stroke:#181818;stroke-width:1.0;stroke-dasharray:7.0,7.0;"/><polygon fill="#181818" points="295.87,545.72,304.8639,541.7062,299.2148,542.0035,298.9175,536.3545,295.87,545.72" style="stroke:#181818;stroke-width:1.0;"/></g><!--SRC=[ZPBXQi8m4CU_vodkOmkh3p2au6I3WZ2nzG6ozjO6OrAIqqraxxx4j6MhLioNvFxtort-IKh9hOMLiBJK1sFHRhCp0pUIIkUD_ehY4BL6g1w9CaB3FoJEWv126HA5Ndli2N9oS-raHVXDCVjXhBmqsg3Bu16xIai762qbcgvfZRIGikyJ3sAd50sdh41UDj7MeW7oIpItkHNowZwsE78XlP4tRN8wLAWeRB0XkAxBTwXUJhVPmMI0DzXgAqYRK-VjKwZAcUjT-V0XMsDmojTVxjuv1_YzHUMSloht17lFNNauk_ZVtu3PB9r-H3QPkUmRtmjZOmMIfCVW6VPSyHejf0_LPRy0]--></g></svg>