<?xml version="1.0" encoding="us-ascii" standalone="no"?><svg xmlns="http://www.w3.org/2000/svg" xmlns:xlink="http://www.w3.org/1999/xlink" contentStyleType="text/css" height="626px" preserveAspectRatio="none" style="width:674px;height:626px;background:#FFFFFF;" version="1.1" viewBox="0 0 674 626" width="674px" zoomAndPan="magnify"><defs/><g><!--class ChangeStateUI--><g id="elem_ChangeStateUI"><polygon fill="#F1F1F1" points="292.5,7,292.5,7.2102,302.6667,6.5857,312.8333,7.1933,323,7.3997,333.1667,6.2866,343.3333,6.9223,353.5,6.5735,363.6667,6.6165,373.8333,6.9318,384,6.3086,394.1667,7.5536,404.3333,6.3697,414.5,7,414.4748,6.9391,414.9087,7.2795,415.1962,7.2665,415.5694,7.4604,415.9101,7.5759,416.2678,7.7322,416.3227,7.755,416.4879,8.1163,416.741,8.5141,416.9138,8.8785,417.0627,9.2331,417,9.5,417.2546,9.5,417.4636,20.1004,417.7022,30.7009,416.2788,41.3013,417.6785,51.9018,416.7035,62.5022,417.5338,73.1027,417,83.7031,416.8476,83.64,416.8325,84.0479,416.9355,84.5048,416.5457,84.7576,416.4466,85.1308,416.2678,85.4709,416.311,85.5752,415.9673,85.7455,415.5602,85.7626,415.2437,85.9987,414.7805,85.8804,414.5,86.2031,414.5,86.4875,404.3333,86.7513,394.1667,86.6477,384,86.8161,373.8333,85.72,363.6667,85.5509,353.5,85.5817,343.3333,86.1442,333.1667,86.0066,323,86.8845,312.8333,86.0284,302.6667,85.8601,292.5,86.2031,292.5291,86.2734,292.0614,85.8513,291.7267,85.7504,291.5221,85.9636,291.1414,85.7515,290.7322,85.4709,290.9584,85.5646,290.4867,85.0763,290.5376,84.8045,290.4747,84.4855,290.001,83.9964,290,83.7031,289.9041,83.7031,290.126,73.1027,290.6518,62.5022,289.9958,51.9018,290.4626,41.3013,289.4462,30.7009,289.3227,20.1004,290,9.5,290.1551,9.5642,289.9257,9.055,290.4496,8.8578,290.503,8.4657,290.5033,8.0516,290.7322,7.7322,290.6871,7.6233,291.1443,7.7271,291.4012,7.3472,291.8684,7.4752,292.0759,6.9762,292.5,7" style="stroke:#181818;stroke-width:0.5;"/><polygon fill="#C2C2C2" points="316.0608,31.9667,314.4484,34.1698,312.5412,37.3967,309.8136,39.5714,306.9474,40.7606,304.662,40.8638,301.7247,39.3766,298.9532,38.4049,296.8495,36.4322,295.7461,34.1738,295.0917,32.3756,294.4506,30.0267,293.41,28.0055,294.2096,26.032,294.9102,23.8702,297.5393,22.1605,299.389,19.9421,301.6784,19.2055,304.4001,18.5711,307.8904,18.948,309.8021,19.8495,312.0247,20.2582,314.7272,23.027,315.6693,25.95,316.0786,27.9444,315.615,31.2309" style="stroke:#181818;stroke-width:1.0;"/><path d="M307.7656,25.166 Q307.9219,24.9473 308.1094,24.8379 Q308.2969,24.7285 308.5156,24.7285 Q308.8906,24.7285 309.125,24.9941 Q309.3594,25.2441 309.3594,25.8535 L309.3594,27.3066 Q309.3594,27.916 309.125,28.1816 Q308.8906,28.4473 308.5156,28.4473 Q308.1719,28.4473 307.9688,28.2441 Q307.7656,28.0566 307.6563,27.541 Q307.6094,27.1816 307.4219,26.9941 Q307.0938,26.6191 306.4844,26.4004 Q305.875,26.1816 305.25,26.1816 Q304.4844,26.1816 303.8438,26.5098 Q303.2188,26.8379 302.7188,27.5879 Q302.2344,28.3379 302.2344,29.3691 L302.2344,30.4629 Q302.2344,31.6973 303.125,32.5254 Q304.0156,33.3379 305.6094,33.3379 Q306.5469,33.3379 307.2031,33.0879 Q307.5938,32.9316 308.0156,32.4941 Q308.2813,32.2285 308.4219,32.1504 Q308.5781,32.0723 308.7813,32.0723 Q309.1094,32.0723 309.3594,32.3379 Q309.625,32.5879 309.625,32.9316 Q309.625,33.2754 309.2813,33.6816 Q308.7813,34.2598 307.9844,34.5879 Q306.9063,35.041 305.6094,35.041 Q304.0938,35.041 302.8906,34.416 Q301.9063,33.916 301.2188,32.8535 Q300.5313,31.7754 300.5313,30.4941 L300.5313,29.3379 Q300.5313,28.0098 301.1406,26.8691 Q301.7656,25.7129 302.8594,25.1035 Q303.9531,24.4785 305.1875,24.4785 Q305.9219,24.4785 306.5625,24.6504 Q307.2188,24.8066 307.7656,25.166 Z " fill="#000000"/><text fill="#000000" font-family="FG Virgil" font-size="12" font-style="italic" lengthAdjust="spacing" textLength="82" x="325.5" y="24.9492">&#171;presentation&#187;</text><text fill="#000000" font-family="FG Virgil" font-size="14" lengthAdjust="spacing" textLength="95" x="319" y="43.0684">ChangeStateUI</text><path d="M291,51.582 L291,51.8623 L300.6154,51.0296 L310.2308,51.8397 L319.8462,52.1149 L329.4615,50.6308 L339.0769,51.4784 L348.6923,51.0134 L358.3077,51.0707 L367.9231,51.4912 L377.5385,50.6602 L387.1538,52.3202 L396.7692,50.7417 L406.3846,51.3183 L416,51.582 " fill="#F1F1F1" style="stroke:#181818;stroke-width:0.5;"/><path d="M291,59.582 L291,59.8623 L300.6154,59.0296 L310.2308,59.8397 L319.8462,60.1149 L329.4615,58.6308 L339.0769,59.4784 L348.6923,59.0134 L358.3077,59.0707 L367.9231,59.4912 L377.5385,58.6602 L387.1538,60.3202 L396.7692,58.7417 L406.3846,59.3183 L416,59.582 " fill="#F1F1F1" style="stroke:#181818;stroke-width:0.5;"/><text fill="#000000" font-family="FG Virgil" font-size="14" lengthAdjust="spacing" textLength="42" x="296" y="78.6895">show()</text></g><!--class ChangeStateController--><g id="elem_ChangeStateController"><polygon fill="#F1F1F1" points="229,207,229,207.2102,238.96,206.5857,248.92,207.1933,258.88,207.3997,268.84,206.2866,278.8,206.9223,288.76,206.5735,298.72,206.6165,308.68,206.9318,318.64,206.3086,328.6,207.5536,338.56,206.3697,348.52,206.8022,358.48,207.4319,368.44,206.9142,378.4,207.0682,388.36,206.9681,398.32,207.1785,408.28,207.2391,418.24,207.5857,428.2,207.6711,438.16,207.6793,448.12,207.2546,458.08,207.4636,468.04,207.7022,478,207,477.908,206.7779,478.4401,207.3554,478.6693,207.2016,479.1288,207.6037,479.3511,207.4333,479.7678,207.7322,479.7467,207.7235,480.1426,208.1804,480.0457,208.4331,480.2395,208.8063,480.4578,209.1896,480.5,209.5,480.9162,209.5,480.4961,219.6314,480.7872,229.7628,479.9276,239.8942,480.7844,250.0256,481.0482,260.157,480.9445,270.2884,481.113,280.4197,480.0169,290.5511,479.8478,300.6825,479.8786,310.8139,480.5,320.9453,480.4819,320.9378,480.293,321.2738,480.417,321.7393,480.0069,321.9837,479.8086,322.3158,479.7678,322.7131,479.7969,322.7834,479.3292,322.6542,478.9944,322.8461,478.7899,323.3523,478.4091,323.433,478,323.4453,478,324.1798,468.04,323.1235,458.08,323.7645,448.12,324.0357,438.16,322.9729,428.2,323.3495,418.24,323.5713,408.28,324.0971,398.32,323.4411,388.36,323.9079,378.4,322.8915,368.44,322.7681,358.48,323.9489,348.52,322.7284,338.56,323.9543,328.6,323.6519,318.64,323.1774,308.68,323.0915,298.72,323.9041,288.76,323.146,278.8,324.0372,268.84,322.8926,258.88,324.0627,248.92,323.9296,238.96,323.6903,229,323.4453,229.006,323.4599,228.7391,323.5226,228.3712,323.3414,227.9609,323.0581,227.62,322.9421,227.2322,322.7131,227.1921,322.6965,227.3064,322.4509,226.987,322.0257,226.846,321.6744,226.4591,321.2213,226.5,320.9453,226.0948,320.9453,227.0307,310.8139,226.9298,300.6825,226.4571,290.5511,226.1778,280.4197,226.2811,270.2884,225.8138,260.157,226.9147,250.0256,227.2396,239.8942,227.0264,229.7628,227.1949,219.6314,226.5,209.5,226.4579,209.4826,226.6733,209.1576,226.6735,208.7435,227.0268,208.4756,227.1618,208.1173,227.2322,207.7322,227.3027,207.9023,227.5565,207.5151,227.9222,207.3979,228.3495,207.4295,228.7188,207.3212,229,207" style="stroke:#181818;stroke-width:0.5;"/><polygon fill="#C2C2C2" points="287.8108,231.9667,286.1984,234.1698,284.2912,237.3967,281.5636,239.5714,278.6974,240.7606,276.412,240.8638,273.4747,239.3766,270.7032,238.4049,268.5995,236.4322,267.4961,234.1738,266.8417,232.3756,266.2006,230.0267,265.16,228.0055,265.9596,226.032,266.6602,223.8702,269.2893,222.1605,271.139,219.9421,273.4284,219.2055,276.1501,218.5711,279.6404,218.948,281.5521,219.8495,283.7747,220.2582,286.4772,223.027,287.4193,225.95,287.8286,227.9444,287.365,231.2309" style="stroke:#181818;stroke-width:1.0;"/><path d="M279.5156,225.166 Q279.6719,224.9473 279.8594,224.8379 Q280.0469,224.7285 280.2656,224.7285 Q280.6406,224.7285 280.875,224.9941 Q281.1094,225.2441 281.1094,225.8535 L281.1094,227.3066 Q281.1094,227.916 280.875,228.1816 Q280.6406,228.4473 280.2656,228.4473 Q279.9219,228.4473 279.7188,228.2441 Q279.5156,228.0566 279.4063,227.541 Q279.3594,227.1816 279.1719,226.9941 Q278.8438,226.6191 278.2344,226.4004 Q277.625,226.1816 277,226.1816 Q276.2344,226.1816 275.5938,226.5098 Q274.9688,226.8379 274.4688,227.5879 Q273.9844,228.3379 273.9844,229.3691 L273.9844,230.4629 Q273.9844,231.6973 274.875,232.5254 Q275.7656,233.3379 277.3594,233.3379 Q278.2969,233.3379 278.9531,233.0879 Q279.3438,232.9316 279.7656,232.4941 Q280.0313,232.2285 280.1719,232.1504 Q280.3281,232.0723 280.5313,232.0723 Q280.8594,232.0723 281.1094,232.3379 Q281.375,232.5879 281.375,232.9316 Q281.375,233.2754 281.0313,233.6816 Q280.5313,234.2598 279.7344,234.5879 Q278.6563,235.041 277.3594,235.041 Q275.8438,235.041 274.6406,234.416 Q273.6563,233.916 272.9688,232.8535 Q272.2813,231.7754 272.2813,230.4941 L272.2813,229.3379 Q272.2813,228.0098 272.8906,226.8691 Q273.5156,225.7129 274.6094,225.1035 Q275.7031,224.4785 276.9375,224.4785 Q277.6719,224.4785 278.3125,224.6504 Q278.9688,224.8066 279.5156,225.166 Z " fill="#000000"/><text fill="#000000" font-family="FG Virgil" font-size="12" font-style="italic" lengthAdjust="spacing" textLength="74" x="332.75" y="224.9492">&#171;application&#187;</text><text fill="#000000" font-family="FG Virgil" font-size="14" lengthAdjust="spacing" textLength="145" x="297.25" y="243.0684">ChangeStateController</text><path d="M227.5,251.582 L227.5,251.8623 L237.58,251.0296 L247.66,251.8397 L257.74,252.1149 L267.82,250.6308 L277.9,251.4784 L287.98,251.0134 L298.06,251.0707 L308.14,251.4912 L318.22,250.6602 L328.3,252.3202 L338.38,250.7417 L348.46,251.3183 L358.54,252.158 L368.62,251.4677 L378.7,251.673 L388.78,251.5394 L398.86,251.8201 L408.94,251.9009 L419.02,252.363 L429.1,252.4768 L439.18,252.4877 L449.26,251.9215 L459.34,252.2001 L469.42,252.5183 L479.5,251.582 " fill="#F1F1F1" style="stroke:#181818;stroke-width:0.5;"/><path d="M227.5,259.582 L227.5,259.8623 L237.58,259.0296 L247.66,259.8397 L257.74,260.1149 L267.82,258.6308 L277.9,259.4784 L287.98,259.0134 L298.06,259.0707 L308.14,259.4912 L318.22,258.6602 L328.3,260.3202 L338.38,258.7417 L348.46,259.3183 L358.54,260.158 L368.62,259.4677 L378.7,259.673 L388.78,259.5394 L398.86,259.8201 L408.94,259.9009 L419.02,260.363 L429.1,260.4768 L439.18,260.4877 L449.26,259.9215 L459.34,260.2001 L469.42,260.5183 L479.5,259.582 " fill="#F1F1F1" style="stroke:#181818;stroke-width:0.5;"/><text fill="#000000" font-family="FG Virgil" font-size="14" lengthAdjust="spacing" textLength="208" x="232.5" y="278.6895">verifyCourse(String courseCode)</text><text fill="#000000" font-family="FG Virgil" font-size="14" lengthAdjust="spacing" textLength="242" x="232.5" y="297.3105">confirmForOpenClose(Course course)</text><text fill="#000000" font-family="FG Virgil" font-size="14" lengthAdjust="spacing" textLength="183" x="232.5" y="315.9316">changeState(Course course)</text></g><!--class CourseManagementService--><g id="elem_CourseManagementService"><polygon fill="#F1F1F1" points="36.5,383,36.5,383.2102,46.6,382.5857,56.7,383.1933,66.8,383.3997,76.9,382.2866,87,382.9223,97.1,382.5735,107.2,382.6165,117.3,382.9318,127.4,382.3086,137.5,383.5536,147.6,382.3697,157.7,382.8022,167.8,383.4319,177.9,382.9142,188,383.0682,198.1,382.9681,208.2,383.1785,218.3,383.2391,228.4,383.5857,238.5,383,238.5856,383.2067,238.9402,383.3556,239.2396,383.3713,239.6198,383.5821,240.0038,383.802,240.2678,383.7322,240.0457,383.6402,240.6232,384.1723,240.4693,384.4015,240.8715,384.861,240.7011,385.0833,241,385.5,240.9315,385.5,241.7416,396.1004,240.9513,406.7009,241.1053,417.3013,241.3386,427.9018,241.4162,438.5022,240.9961,449.1027,241,459.7031,241.0885,459.7398,240.6773,459.9837,240.7947,460.4465,240.7295,460.8337,240.5511,461.174,240.2678,461.4709,240.346,461.6597,239.8526,461.4686,239.4775,461.5629,239.1278,461.7189,238.846,462.0385,238.5,462.2031,238.5,462.0066,228.4,462.8845,218.3,462.0284,208.2,461.8601,198.1,462.4314,188,461.5363,177.9,461.684,167.8,462.8521,157.7,462.6388,147.6,462.9376,137.5,461.8813,127.4,462.5223,117.3,462.7935,107.2,461.7307,97.1,462.1073,87,462.3291,76.9,462.8549,66.8,462.1989,56.7,462.6657,46.6,461.6493,36.5,462.2031,36.4136,461.9946,36.2107,462.2118,35.7014,461.6894,35.5043,461.9205,35.1121,461.681,34.7322,461.4709,34.6497,461.4367,34.4768,461.0722,34.5806,460.8223,34.2007,460.372,34.3287,460.1322,34,459.7031,33.4473,459.7031,34.6174,449.1027,34.4843,438.5022,34.245,427.9018,34.0472,417.3013,34.7266,406.7009,34.6136,396.1004,34,385.5,34.0521,385.5216,34.229,385.1807,34.2528,384.7763,34.66,384.5307,34.6335,384.1055,34.7322,383.7322,34.7542,383.7854,35.0082,383.3984,35.3876,383.3145,35.8606,383.4563,36.2013,383.2788,36.5,383" style="stroke:#181818;stroke-width:0.5;"/><polygon fill="#C2C2C2" points="60.0608,407.9667,58.4484,410.1698,56.5412,413.3967,53.8136,415.5714,50.9474,416.7606,48.662,416.8638,45.7247,415.3766,42.9532,414.4049,40.8495,412.4322,39.7461,410.1738,39.0917,408.3756,38.4506,406.0267,37.41,404.0055,38.2096,402.032,38.9102,399.8702,41.5393,398.1605,43.389,395.9421,45.6784,395.2055,48.4001,394.5711,51.8904,394.948,53.8021,395.8495,56.0247,396.2582,58.7272,399.027,59.6693,401.95,60.0786,403.9444,59.615,407.2309" style="stroke:#181818;stroke-width:1.0;"/><path d="M51.7656,401.166 Q51.9219,400.9473 52.1094,400.8379 Q52.2969,400.7285 52.5156,400.7285 Q52.8906,400.7285 53.125,400.9941 Q53.3594,401.2441 53.3594,401.8535 L53.3594,403.3066 Q53.3594,403.916 53.125,404.1816 Q52.8906,404.4473 52.5156,404.4473 Q52.1719,404.4473 51.9688,404.2441 Q51.7656,404.0566 51.6563,403.541 Q51.6094,403.1816 51.4219,402.9941 Q51.0938,402.6191 50.4844,402.4004 Q49.875,402.1816 49.25,402.1816 Q48.4844,402.1816 47.8438,402.5098 Q47.2188,402.8379 46.7188,403.5879 Q46.2344,404.3379 46.2344,405.3691 L46.2344,406.4629 Q46.2344,407.6973 47.125,408.5254 Q48.0156,409.3379 49.6094,409.3379 Q50.5469,409.3379 51.2031,409.0879 Q51.5938,408.9316 52.0156,408.4941 Q52.2813,408.2285 52.4219,408.1504 Q52.5781,408.0723 52.7813,408.0723 Q53.1094,408.0723 53.3594,408.3379 Q53.625,408.5879 53.625,408.9316 Q53.625,409.2754 53.2813,409.6816 Q52.7813,410.2598 51.9844,410.5879 Q50.9063,411.041 49.6094,411.041 Q48.0938,411.041 46.8906,410.416 Q45.9063,409.916 45.2188,408.8535 Q44.5313,407.7754 44.5313,406.4941 L44.5313,405.3379 Q44.5313,404.0098 45.1406,402.8691 Q45.7656,401.7129 46.8594,401.1035 Q47.9531,400.4785 49.1875,400.4785 Q49.9219,400.4785 50.5625,400.6504 Q51.2188,400.8066 51.7656,401.166 Z " fill="#000000"/><text fill="#000000" font-family="FG Virgil" font-size="12" font-style="italic" lengthAdjust="spacing" textLength="53" x="124" y="400.9492">&#171;service&#187;</text><text fill="#000000" font-family="FG Virgil" font-size="14" lengthAdjust="spacing" textLength="175" x="63" y="419.0684">CourseManagementService</text><path d="M35,427.582 L35,427.8623 L44.7619,427.0296 L54.5238,427.8397 L64.2857,428.1149 L74.0476,426.6308 L83.8095,427.4784 L93.5714,427.0134 L103.3333,427.0707 L113.0952,427.4912 L122.8571,426.6602 L132.619,428.3202 L142.381,426.7417 L152.1429,427.3183 L161.9048,428.158 L171.6667,427.4677 L181.4286,427.673 L191.1905,427.5394 L200.9524,427.8201 L210.7143,427.9009 L220.4762,428.363 L230.2381,428.4768 L240,427.582 " fill="#F1F1F1" style="stroke:#181818;stroke-width:0.5;"/><path d="M35,435.582 L35,435.8623 L44.7619,435.0296 L54.5238,435.8397 L64.2857,436.1149 L74.0476,434.6308 L83.8095,435.4784 L93.5714,435.0134 L103.3333,435.0707 L113.0952,435.4912 L122.8571,434.6602 L132.619,436.3202 L142.381,434.7417 L152.1429,435.3183 L161.9048,436.158 L171.6667,435.4677 L181.4286,435.673 L191.1905,435.5394 L200.9524,435.8201 L210.7143,435.9009 L220.4762,436.363 L230.2381,436.4768 L240,435.582 " fill="#F1F1F1" style="stroke:#181818;stroke-width:0.5;"/><text fill="#000000" font-family="FG Virgil" font-size="14" lengthAdjust="spacing" textLength="183" x="40" y="454.6895">changeState(Course course)</text></g><!--class Course--><g id="elem_Course"><polygon fill="#F1F1F1" points="9.5,522,9.5,522.2102,19.3462,521.5857,29.1923,522.1933,39.0385,522.3997,48.8846,521.2866,58.7308,521.9223,68.5769,521.5735,78.4231,521.6165,88.2692,521.9318,98.1154,521.3086,107.9615,522.5536,117.8077,521.3697,127.6538,521.8022,137.5,522.4319,147.3462,521.9142,157.1923,522.0682,167.0385,521.9681,176.8846,522.1785,186.7308,522.2391,196.5769,522.5857,206.4231,522.6711,216.2692,522.6793,226.1154,522.2546,235.9615,522.4636,245.8077,522.7022,255.6538,521.2788,265.5,522,265.5866,522.209,265.8157,522.0551,266.2752,522.4573,266.4975,522.2869,266.9055,522.5647,267.2678,522.7322,267.4962,522.8268,267.3992,523.0796,267.5931,523.4528,267.8114,523.8361,267.9817,524.1995,268,524.5,267.9961,524.5,268.2872,534.8138,267.4276,545.1276,268.2844,555.4414,268.5482,565.7552,268.4445,576.069,268.613,586.3828,267.5169,596.6966,267.3478,607.0104,268,617.3242,267.8086,617.245,267.8354,617.6703,267.6466,618.0063,267.7705,618.4718,267.3604,618.7162,267.2678,619.092,267.224,618.9863,266.9433,619.3087,266.4756,619.1795,266.1409,619.3715,265.9363,619.8776,265.5,619.8242,265.5,620.2599,255.6538,620.5587,245.8077,619.5024,235.9615,620.1434,226.1154,620.4146,216.2692,619.3518,206.4231,619.7284,196.5769,619.9502,186.7308,620.476,176.8846,619.82,167.0385,620.2868,157.1923,619.2704,147.3462,619.147,137.5,620.3278,127.6538,619.1073,117.8077,620.3332,107.9615,620.0308,98.1154,619.5563,88.2692,619.4704,78.4231,620.283,68.5769,619.5249,58.7308,620.4161,48.8846,619.2715,39.0385,620.4416,29.1923,620.3085,19.3462,620.0692,9.5,619.8242,9.506,619.8388,9.2391,619.9015,8.8712,619.7203,8.4609,619.437,8.12,619.321,7.7322,619.092,7.6921,619.0754,7.8064,618.8298,7.487,618.4046,7.346,618.0533,6.9591,617.6002,7,617.3242,6.5948,617.3242,7.5307,607.0104,7.4298,596.6966,6.9571,586.3828,6.6778,576.069,6.7811,565.7552,6.3138,555.4414,7.4147,545.1276,7.7396,534.8138,7,524.5,7.1621,524.5671,7.3605,524.2351,7.2508,523.7755,7.4662,523.4505,7.4664,523.0363,7.7322,522.7322,7.7685,522.8197,8.1173,522.6618,8.5098,522.6095,8.7636,522.2222,9.1293,522.1051,9.5,522" style="stroke:#181818;stroke-width:0.5;"/><polygon fill="#C2C2C2" points="120.8108,546.9667,119.1984,549.1698,117.2912,552.3967,114.5636,554.5714,111.6974,555.7606,109.412,555.8638,106.4747,554.3766,103.7032,553.4049,101.5995,551.4322,100.4961,549.1738,99.8417,547.3756,99.2006,545.0267,98.16,543.0055,98.9596,541.032,99.6602,538.8702,102.2893,537.1605,104.139,534.9421,106.4284,534.2055,109.1501,533.5711,112.6404,533.948,114.5521,534.8495,116.7747,535.2582,119.4772,538.027,120.4193,540.95,120.8286,542.9444,120.365,546.2309" style="stroke:#181818;stroke-width:1.0;"/><path d="M112.5156,540.166 Q112.6719,539.9473 112.8594,539.8379 Q113.0469,539.7285 113.2656,539.7285 Q113.6406,539.7285 113.875,539.9941 Q114.1094,540.2441 114.1094,540.8535 L114.1094,542.3066 Q114.1094,542.916 113.875,543.1816 Q113.6406,543.4473 113.2656,543.4473 Q112.9219,543.4473 112.7188,543.2441 Q112.5156,543.0566 112.4063,542.541 Q112.3594,542.1816 112.1719,541.9941 Q111.8438,541.6191 111.2344,541.4004 Q110.625,541.1816 110,541.1816 Q109.2344,541.1816 108.5938,541.5098 Q107.9688,541.8379 107.4688,542.5879 Q106.9844,543.3379 106.9844,544.3691 L106.9844,545.4629 Q106.9844,546.6973 107.875,547.5254 Q108.7656,548.3379 110.3594,548.3379 Q111.2969,548.3379 111.9531,548.0879 Q112.3438,547.9316 112.7656,547.4941 Q113.0313,547.2285 113.1719,547.1504 Q113.3281,547.0723 113.5313,547.0723 Q113.8594,547.0723 114.1094,547.3379 Q114.375,547.5879 114.375,547.9316 Q114.375,548.2754 114.0313,548.6816 Q113.5313,549.2598 112.7344,549.5879 Q111.6563,550.041 110.3594,550.041 Q108.8438,550.041 107.6406,549.416 Q106.6563,548.916 105.9688,547.8535 Q105.2813,546.7754 105.2813,545.4941 L105.2813,544.3379 Q105.2813,543.0098 105.8906,541.8691 Q106.5156,540.7129 107.6094,540.1035 Q108.7031,539.4785 109.9375,539.4785 Q110.6719,539.4785 111.3125,539.6504 Q111.9688,539.8066 112.5156,540.166 Z " fill="#000000"/><text fill="#000000" font-family="FG Virgil" font-size="12" font-style="italic" lengthAdjust="spacing" textLength="51" x="128.25" y="539.9492">&#171;course&#187;</text><text fill="#000000" font-family="FG Virgil" font-size="14" lengthAdjust="spacing" textLength="46" x="130.75" y="558.0684">Course</text><path d="M8,566.582 L8,566.8623 L17.9615,566.0296 L27.9231,566.8397 L37.8846,567.1149 L47.8462,565.6308 L57.8077,566.4784 L67.7692,566.0134 L77.7308,566.0707 L87.6923,566.4912 L97.6538,565.6602 L107.6154,567.3202 L117.5769,565.7417 L127.5385,566.3183 L137.5,567.158 L147.4615,566.4677 L157.4231,566.673 L167.3846,566.5394 L177.3462,566.8201 L187.3077,566.9009 L197.2692,567.363 L207.2308,567.4768 L217.1923,567.4877 L227.1538,566.9215 L237.1154,567.2001 L247.0769,567.5183 L257.0385,565.6205 L267,566.582 " fill="#F1F1F1" style="stroke:#181818;stroke-width:0.5;"/><path d="M8,574.582 L8,574.8623 L17.9615,574.0296 L27.9231,574.8397 L37.8846,575.1149 L47.8462,573.6308 L57.8077,574.4784 L67.7692,574.0134 L77.7308,574.0707 L87.6923,574.4912 L97.6538,573.6602 L107.6154,575.3202 L117.5769,573.7417 L127.5385,574.3183 L137.5,575.158 L147.4615,574.4677 L157.4231,574.673 L167.3846,574.5394 L177.3462,574.8201 L187.3077,574.9009 L197.2692,575.363 L207.2308,575.4768 L217.1923,575.4877 L227.1538,574.9215 L237.1154,575.2001 L247.0769,575.5183 L257.0385,573.6205 L267,574.582 " fill="#F1F1F1" style="stroke:#181818;stroke-width:0.5;"/><text fill="#000000" font-family="FG Virgil" font-size="14" lengthAdjust="spacing" textLength="249" x="13" y="593.6895">changeState(CourseState courseState)</text><text fill="#000000" font-family="FG Virgil" font-size="14" lengthAdjust="spacing" textLength="41" x="13" y="612.3105">state()</text></g><!--class PersistenceContext--><g id="elem_PersistenceContext"><polygon fill="#F1F1F1" points="279,383,279,383.2102,288.9333,382.5857,298.8667,383.1933,308.8,383.3997,318.7333,382.2866,328.6667,382.9223,338.6,382.5735,348.5333,382.6165,358.4667,382.9318,368.4,382.3086,378.3333,383.5536,388.2667,382.3697,398.2,382.8022,408.1333,383.4319,418.0667,382.9142,428,383,428.0087,383.021,428.3495,383.1366,428.7299,383.3479,429.0912,383.513,429.4889,383.7662,429.7678,383.7322,429.9744,383.8178,430.1234,384.1724,430.1391,384.4718,430.3499,384.852,430.5698,385.236,430.5,385.5,429.7788,385.5,431.1785,396.1004,430.2035,406.7009,431.0338,417.3013,430.005,427.9018,430.4315,438.5022,431.2416,449.1027,430.5,459.7031,430.485,459.6969,430.386,460.0701,430.3114,460.4534,430.1888,460.8169,429.913,461.1168,429.7678,461.4709,429.8044,461.5593,429.3412,461.4411,429.0969,461.8514,428.777,462.0791,428.4103,462.1936,428,462.2031,428,462.8161,418.0667,461.72,408.1333,461.5509,398.2,461.5817,388.2667,462.1442,378.3333,462.0066,368.4,462.8845,358.4667,462.0284,348.5333,461.8601,338.6,462.4314,328.6667,461.5363,318.7333,461.684,308.8,462.8521,298.8667,462.6388,288.9333,462.9376,279,462.2031,278.959,462.104,278.6872,462.155,278.3682,462.0921,277.8791,461.6183,277.5736,461.5878,277.2322,461.4709,277.271,461.487,277.2865,461.2005,276.938,460.7633,276.9353,460.4692,276.4759,459.986,276.5,459.7031,275.8227,459.7031,277.0036,449.1027,275.7831,438.5022,277.009,427.9018,276.7066,417.3013,276.2321,406.7009,276.1462,396.1004,276.5,385.5,276.6413,385.5585,276.5543,385.1083,276.9752,384.8684,276.7691,384.3688,277.2759,384.1645,277.2322,383.7322,277.294,383.8814,277.617,383.6612,277.9454,383.4539,278.3856,383.5167,278.7247,383.3354,279,383" style="stroke:#181818;stroke-width:0.5;"/><polygon fill="#C2C2C2" points="302.5608,407.9667,300.9484,410.1698,299.0412,413.3967,296.3136,415.5714,293.4474,416.7606,291.162,416.8638,288.2247,415.3766,285.4532,414.4049,283.3495,412.4322,282.2461,410.1738,281.5917,408.3756,280.9506,406.0267,279.91,404.0055,280.7096,402.032,281.4102,399.8702,284.0393,398.1605,285.889,395.9421,288.1784,395.2055,290.9001,394.5711,294.3904,394.948,296.3021,395.8495,298.5247,396.2582,301.2272,399.027,302.1693,401.95,302.5786,403.9444,302.115,407.2309" style="stroke:#181818;stroke-width:1.0;"/><path d="M294.2656,401.166 Q294.4219,400.9473 294.6094,400.8379 Q294.7969,400.7285 295.0156,400.7285 Q295.3906,400.7285 295.625,400.9941 Q295.8594,401.2441 295.8594,401.8535 L295.8594,403.3066 Q295.8594,403.916 295.625,404.1816 Q295.3906,404.4473 295.0156,404.4473 Q294.6719,404.4473 294.4688,404.2441 Q294.2656,404.0566 294.1563,403.541 Q294.1094,403.1816 293.9219,402.9941 Q293.5938,402.6191 292.9844,402.4004 Q292.375,402.1816 291.75,402.1816 Q290.9844,402.1816 290.3438,402.5098 Q289.7188,402.8379 289.2188,403.5879 Q288.7344,404.3379 288.7344,405.3691 L288.7344,406.4629 Q288.7344,407.6973 289.625,408.5254 Q290.5156,409.3379 292.1094,409.3379 Q293.0469,409.3379 293.7031,409.0879 Q294.0938,408.9316 294.5156,408.4941 Q294.7813,408.2285 294.9219,408.1504 Q295.0781,408.0723 295.2813,408.0723 Q295.6094,408.0723 295.8594,408.3379 Q296.125,408.5879 296.125,408.9316 Q296.125,409.2754 295.7813,409.6816 Q295.2813,410.2598 294.4844,410.5879 Q293.4063,411.041 292.1094,411.041 Q290.5938,411.041 289.3906,410.416 Q288.4063,409.916 287.7188,408.8535 Q287.0313,407.7754 287.0313,406.4941 L287.0313,405.3379 Q287.0313,404.0098 287.6406,402.8691 Q288.2656,401.7129 289.3594,401.1035 Q290.4531,400.4785 291.6875,400.4785 Q292.4219,400.4785 293.0625,400.6504 Q293.7188,400.8066 294.2656,401.166 Z " fill="#000000"/><text fill="#000000" font-family="FG Virgil" font-size="12" font-style="italic" lengthAdjust="spacing" textLength="77" x="328" y="400.9492">&#171;persistence&#187;</text><text fill="#000000" font-family="FG Virgil" font-size="14" lengthAdjust="spacing" textLength="122" x="305.5" y="419.0684">PersistenceContext</text><path d="M277.5,427.582 L277.5,427.8623 L287.6333,427.0296 L297.7667,427.8397 L307.9,428.1149 L318.0333,426.6308 L328.1667,427.4784 L338.3,427.0134 L348.4333,427.0707 L358.5667,427.4912 L368.7,426.6602 L378.8333,428.3202 L388.9667,426.7417 L399.1,427.3183 L409.2333,428.158 L419.3667,427.4677 L429.5,427.582 " fill="#F1F1F1" style="stroke:#181818;stroke-width:0.5;"/><path d="M277.5,435.582 L277.5,435.8623 L287.6333,435.0296 L297.7667,435.8397 L307.9,436.1149 L318.0333,434.6308 L328.1667,435.4784 L338.3,435.0134 L348.4333,435.0707 L358.5667,435.4912 L368.7,434.6602 L378.8333,436.3202 L388.9667,434.7417 L399.1,435.3183 L409.2333,436.158 L419.3667,435.4677 L429.5,435.582 " fill="#F1F1F1" style="stroke:#181818;stroke-width:0.5;"/><text fill="#000000" font-family="FG Virgil" font-size="14" lengthAdjust="spacing" textLength="84" x="282.5" y="454.6895">repositories()</text></g><!--class RepositoryFactory--><g id="elem_RepositoryFactory"><polygon fill="#F1F1F1" points="468,383,468,383.2102,478.2143,382.5857,488.4286,383.1933,498.6429,383.3997,508.8571,382.2866,519.0714,382.9223,529.2857,382.5735,539.5,382.6165,549.7143,382.9318,559.9286,382.3086,570.1429,383.5536,580.3571,382.3697,590.5714,382.8022,600.7857,383.4319,611,383,610.9891,382.9736,611.3623,383.1675,611.703,383.2831,612.0834,383.4943,612.4447,383.6594,612.7678,383.7322,612.9481,383.8069,613.1209,384.1714,613.2698,384.526,613.2855,384.8254,613.4963,385.2056,613.5,385.5,614.2022,385.5,612.7788,396.1004,614.1785,406.7009,613.2035,417.3013,614.0338,427.9018,613.005,438.5022,613.4315,449.1027,613.5,459.7031,613.7284,459.7977,613.3385,460.0505,613.2395,460.4237,613.1649,460.807,613.0424,461.1704,612.7678,461.4709,612.7673,461.4697,612.4509,461.7058,611.9876,461.5875,611.7434,461.9978,611.4235,462.2255,611,462.2031,611,462.6477,600.7857,462.8161,590.5714,461.72,580.3571,461.5509,570.1429,461.5817,559.9286,462.1442,549.7143,462.0066,539.5,462.8845,529.2857,462.0284,519.0714,461.8601,508.8571,462.4314,498.6429,461.5363,488.4286,461.684,478.2143,462.8521,468,462.2031,468.0556,462.3373,467.7401,462.2829,467.2518,461.8111,466.9801,461.8621,466.6611,461.7992,466.2322,461.4709,466.0868,461.4106,466.0563,461.1051,465.9781,460.7799,465.9936,460.4934,465.6452,460.0561,465.5,459.7031,465.9626,459.7031,464.9462,449.1027,464.8227,438.5022,466.0036,427.9018,464.7831,417.3013,466.009,406.7009,465.7066,396.1004,465.5,385.5,465.4175,385.4658,465.5375,385.1013,465.9342,384.8514,465.8472,384.4012,466.2681,384.1613,466.2322,383.7322,466.1617,383.562,466.6645,383.7759,467.0011,383.5885,467.3241,383.3683,467.6525,383.161,468,383" style="stroke:#181818;stroke-width:0.5;"/><polygon fill="#C2C2C2" points="491.5608,407.9667,489.9484,410.1698,488.0412,413.3967,485.3136,415.5714,482.4474,416.7606,480.162,416.8638,477.2247,415.3766,474.4532,414.4049,472.3495,412.4322,471.2461,410.1738,470.5917,408.3756,469.9506,406.0267,468.91,404.0055,469.7096,402.032,470.4102,399.8702,473.0393,398.1605,474.889,395.9421,477.1784,395.2055,479.9001,394.5711,483.3904,394.948,485.3021,395.8495,487.5247,396.2582,490.2272,399.027,491.1693,401.95,491.5786,403.9444,491.115,407.2309" style="stroke:#181818;stroke-width:1.0;"/><path d="M483.2656,401.166 Q483.4219,400.9473 483.6094,400.8379 Q483.7969,400.7285 484.0156,400.7285 Q484.3906,400.7285 484.625,400.9941 Q484.8594,401.2441 484.8594,401.8535 L484.8594,403.3066 Q484.8594,403.916 484.625,404.1816 Q484.3906,404.4473 484.0156,404.4473 Q483.6719,404.4473 483.4688,404.2441 Q483.2656,404.0566 483.1563,403.541 Q483.1094,403.1816 482.9219,402.9941 Q482.5938,402.6191 481.9844,402.4004 Q481.375,402.1816 480.75,402.1816 Q479.9844,402.1816 479.3438,402.5098 Q478.7188,402.8379 478.2188,403.5879 Q477.7344,404.3379 477.7344,405.3691 L477.7344,406.4629 Q477.7344,407.6973 478.625,408.5254 Q479.5156,409.3379 481.1094,409.3379 Q482.0469,409.3379 482.7031,409.0879 Q483.0938,408.9316 483.5156,408.4941 Q483.7813,408.2285 483.9219,408.1504 Q484.0781,408.0723 484.2813,408.0723 Q484.6094,408.0723 484.8594,408.3379 Q485.125,408.5879 485.125,408.9316 Q485.125,409.2754 484.7813,409.6816 Q484.2813,410.2598 483.4844,410.5879 Q482.4063,411.041 481.1094,411.041 Q479.5938,411.041 478.3906,410.416 Q477.4063,409.916 476.7188,408.8535 Q476.0313,407.7754 476.0313,406.4941 L476.0313,405.3379 Q476.0313,404.0098 476.6406,402.8691 Q477.2656,401.7129 478.3594,401.1035 Q479.4531,400.4785 480.6875,400.4785 Q481.4219,400.4785 482.0625,400.6504 Q482.7188,400.8066 483.2656,401.166 Z " fill="#000000"/><text fill="#000000" font-family="FG Virgil" font-size="12" font-style="italic" lengthAdjust="spacing" textLength="50" x="527.5" y="400.9492">&#171;factory&#187;</text><text fill="#000000" font-family="FG Virgil" font-size="14" lengthAdjust="spacing" textLength="116" x="494.5" y="419.0684">RepositoryFactory</text><path d="M466.5,427.582 L466.5,427.8623 L476.2333,427.0296 L485.9667,427.8397 L495.7,428.1149 L505.4333,426.6308 L515.1667,427.4784 L524.9,427.0134 L534.6333,427.0707 L544.3667,427.4912 L554.1,426.6602 L563.8333,428.3202 L573.5667,426.7417 L583.3,427.3183 L593.0333,428.158 L602.7667,427.4677 L612.5,427.582 " fill="#F1F1F1" style="stroke:#181818;stroke-width:0.5;"/><path d="M466.5,435.582 L466.5,435.8623 L476.2333,435.0296 L485.9667,435.8397 L495.7,436.1149 L505.4333,434.6308 L515.1667,435.4784 L524.9,435.0134 L534.6333,435.0707 L544.3667,435.4912 L554.1,434.6602 L563.8333,436.3202 L573.5667,434.7417 L583.3,435.3183 L593.0333,436.158 L602.7667,435.4677 L612.5,435.582 " fill="#F1F1F1" style="stroke:#181818;stroke-width:0.5;"/><text fill="#000000" font-family="FG Virgil" font-size="14" lengthAdjust="spacing" textLength="60" x="471.5" y="454.6895">courses()</text></g><!--class CourseRepository--><g id="elem_CourseRepository"><polygon fill="#F1F1F1" points="414,531.5,414,531.7102,424.04,531.0857,434.08,531.6933,444.12,531.8997,454.16,530.7866,464.2,531.4223,474.24,531.0735,484.28,531.1165,494.32,531.4318,504.36,530.8086,514.4,532.0536,524.44,530.8697,534.48,531.3022,544.52,531.9319,554.56,531.4142,564.6,531.5682,574.64,531.4681,584.68,531.6785,594.72,531.7391,604.76,532.0857,614.8,532.1711,624.84,532.1793,634.88,531.7546,644.92,531.9636,654.96,532.2022,665,531.5,664.908,531.2779,665.4401,531.8554,665.6693,531.7016,666.1288,532.1037,666.3511,531.9333,666.7678,532.2322,666.7467,532.2235,667.1426,532.6804,667.0457,532.9331,667.2395,533.3063,667.4578,533.6896,667.5,534,667.9162,534,667.4961,544.6004,667.7872,555.2009,666.9276,565.8013,667.7844,576.4018,668.0482,587.0022,667.9445,597.6027,667.5,608.2031,667.6888,608.2813,667.2048,608.4951,667.0063,608.827,666.8693,609.1845,666.8961,609.6098,666.7678,609.9709,666.7427,609.9104,666.5011,610.3272,666.0384,610.21,665.6633,610.3046,665.3827,610.627,665,610.7031,665,610.0363,654.96,610.184,644.92,611.3521,634.88,611.1388,624.84,611.4376,614.8,610.3813,604.76,611.0223,594.72,611.2935,584.68,610.2307,574.64,610.6073,564.6,610.8291,554.56,611.3549,544.52,610.6989,534.48,611.1657,524.44,610.1493,514.4,610.0259,504.36,611.2067,494.32,609.9862,484.28,611.2121,474.24,610.9098,464.2,610.4352,454.16,610.3494,444.12,611.1619,434.08,610.4038,424.04,611.295,414,610.7031,413.9295,610.5329,413.7252,610.7468,413.3547,610.5594,412.9706,610.3392,412.5918,610.1319,412.2322,609.9709,412.456,610.0636,412.2747,609.6956,411.9915,609.2854,411.8755,608.9444,411.6063,608.5401,411.5,608.2031,412.2165,608.2031,411.6549,597.6027,411.6726,587.0022,410.8916,576.4018,411.0948,565.8013,412.0307,555.2009,411.9298,544.6004,411.5,534,411.4868,533.9945,411.5472,533.6054,411.7255,533.265,411.728,532.8518,412.2135,532.6387,412.2322,532.2322,412.3266,532.46,412.6529,532.2479,413.028,532.1534,413.2755,531.7508,413.6576,531.6733,414,531.5" style="stroke:#181818;stroke-width:0.5;"/><polygon fill="#C2C2C2" points="489.3108,556.4667,487.6984,558.6698,485.7912,561.8967,483.0636,564.0714,480.1974,565.2606,477.912,565.3638,474.9747,563.8766,472.2032,562.9049,470.0995,560.9322,468.9961,558.6738,468.3417,556.8756,467.7006,554.5267,466.66,552.5055,467.4596,550.532,468.1602,548.3702,470.7893,546.6605,472.639,544.4421,474.9284,543.7055,477.6501,543.0711,481.1404,543.448,483.0521,544.3495,485.2747,544.7582,487.9772,547.527,488.9193,550.45,489.3286,552.4444,488.865,555.7309" style="stroke:#181818;stroke-width:1.0;"/><path d="M481.0156,549.666 Q481.1719,549.4473 481.3594,549.3379 Q481.5469,549.2285 481.7656,549.2285 Q482.1406,549.2285 482.375,549.4941 Q482.6094,549.7441 482.6094,550.3535 L482.6094,551.8066 Q482.6094,552.416 482.375,552.6816 Q482.1406,552.9473 481.7656,552.9473 Q481.4219,552.9473 481.2188,552.7441 Q481.0156,552.5566 480.9063,552.041 Q480.8594,551.6816 480.6719,551.4941 Q480.3438,551.1191 479.7344,550.9004 Q479.125,550.6816 478.5,550.6816 Q477.7344,550.6816 477.0938,551.0098 Q476.4688,551.3379 475.9688,552.0879 Q475.4844,552.8379 475.4844,553.8691 L475.4844,554.9629 Q475.4844,556.1973 476.375,557.0254 Q477.2656,557.8379 478.8594,557.8379 Q479.7969,557.8379 480.4531,557.5879 Q480.8438,557.4316 481.2656,556.9941 Q481.5313,556.7285 481.6719,556.6504 Q481.8281,556.5723 482.0313,556.5723 Q482.3594,556.5723 482.6094,556.8379 Q482.875,557.0879 482.875,557.4316 Q482.875,557.7754 482.5313,558.1816 Q482.0313,558.7598 481.2344,559.0879 Q480.1563,559.541 478.8594,559.541 Q477.3438,559.541 476.1406,558.916 Q475.1563,558.416 474.4688,557.3535 Q473.7813,556.2754 473.7813,554.9941 L473.7813,553.8379 Q473.7813,552.5098 474.3906,551.3691 Q475.0156,550.2129 476.1094,549.6035 Q477.2031,548.9785 478.4375,548.9785 Q479.1719,548.9785 479.8125,549.1504 Q480.4688,549.3066 481.0156,549.666 Z " fill="#000000"/><text fill="#000000" font-family="FG Virgil" font-size="12" font-style="italic" lengthAdjust="spacing" textLength="68" x="521.75" y="549.4492">&#171;repository&#187;</text><text fill="#000000" font-family="FG Virgil" font-size="14" lengthAdjust="spacing" textLength="114" x="498.75" y="567.5684">CourseRepository</text><path d="M412.5,576.082 L412.5,576.3623 L422.66,575.5296 L432.82,576.3397 L442.98,576.6149 L453.14,575.1308 L463.3,575.9784 L473.46,575.5134 L483.62,575.5707 L493.78,575.9912 L503.94,575.1602 L514.1,576.8202 L524.26,575.2417 L534.42,575.8183 L544.58,576.658 L554.74,575.9677 L564.9,576.173 L575.06,576.0394 L585.22,576.3201 L595.38,576.4009 L605.54,576.863 L615.7,576.9768 L625.86,576.9877 L636.02,576.4215 L646.18,576.7001 L656.34,577.0183 L666.5,576.082 " fill="#F1F1F1" style="stroke:#181818;stroke-width:0.5;"/><path d="M412.5,584.082 L412.5,584.3623 L422.66,583.5296 L432.82,584.3397 L442.98,584.6149 L453.14,583.1308 L463.3,583.9784 L473.46,583.5134 L483.62,583.5707 L493.78,583.9912 L503.94,583.1602 L514.1,584.8202 L524.26,583.2417 L534.42,583.8183 L544.58,584.658 L554.74,583.9677 L564.9,584.173 L575.06,584.0394 L585.22,584.3201 L595.38,584.4009 L605.54,584.863 L615.7,584.9768 L625.86,584.9877 L636.02,584.4215 L646.18,584.7001 L656.34,585.0183 L666.5,584.082 " fill="#F1F1F1" style="stroke:#181818;stroke-width:0.5;"/><text fill="#000000" font-family="FG Virgil" font-size="14" lengthAdjust="spacing" textLength="244" x="417.5" y="603.1895">findByCode(CourseCode courseCode)</text></g><!--link ChangeStateUI to ChangeStateController--><g id="link_ChangeStateUI_ChangeStateController"><path d="M353.5,86.21 L353.7802,86.21 L352.9476,95.815 L353.7577,105.42 L354.0329,115.025 L352.5488,124.63 L353.3964,134.235 L352.9313,143.84 L352.9887,153.445 L353.4091,163.05 L352.5782,172.655 L354.2382,182.26 L352.6596,191.865 L353.5,201.47 " fill="none" style="stroke:#181818;stroke-width:1.0;stroke-dasharray:7.0,7.0;"/><polygon fill="#181818" points="353.5,206.9,353.564,206.9285,354.1738,205.0439,355.1589,203.3262,356.0217,201.5541,356.4827,199.6034,357.5,197.9,357.4817,197.8817,356.5995,198.5995,355.8096,199.4096,355.0839,200.2839,354.137,200.937,353.5,201.9,353.6305,202.0305,352.5514,200.9514,351.8534,200.2534,351.2018,199.6018,350.2798,198.6798,349.5,197.9,349.5208,197.9092,350.2903,199.6957,351.1544,201.5242,351.9728,203.3324,352.8784,205.1793,353.5,206.9" style="stroke:#181818;stroke-width:1.0;"/></g><!--link ChangeStateController to PersistenceContext--><g id="link_ChangeStateController_PersistenceContext"><path d="M353.5,323.02 L353.7802,323.02 L352.9476,333.966 L353.7577,344.912 L354.0329,355.858 L352.5488,366.804 L353.5,377.75 " fill="none" style="stroke:#181818;stroke-width:1.0;"/><polygon fill="#181818" points="353.5,382.93,353.564,382.9585,354.1738,381.0739,355.1589,379.3562,356.0217,377.5841,356.4827,375.6334,357.5,373.93,357.4817,373.9117,356.5995,374.6295,355.8096,375.4396,355.0839,376.3139,354.137,376.967,353.5,377.93,353.6305,378.0605,352.5514,376.9814,351.8534,376.2834,351.2018,375.6318,350.2798,374.7098,349.5,373.93,349.5208,373.9392,350.2903,375.7257,351.1544,377.5542,351.9728,379.3624,352.8784,381.2093,353.5,382.93" style="stroke:#181818;stroke-width:1.0;"/></g><!--link ChangeStateController to RepositoryFactory--><g id="link_ChangeStateController_RepositoryFactory"><path d="M421.7,323.02 L421.8797,323.235 L428.8813,328.895 L436.9364,335.8155 L444.6484,342.3255 L451.2322,347.4857 L459.3113,354.4349 L466.5486,360.377 L474.121,366.7199 L481.9262,373.3414 L489.52,379.71 " fill="none" style="stroke:#181818;stroke-width:1.0;"/><polygon fill="#181818" points="493.36,382.93,493.423,382.9607,492.3717,381.0993,491.6895,379.4181,490.8872,377.6782,489.6896,375.7453,489.0391,374.0796,489.0133,374.0773,488.9958,375.1943,489.1084,376.3227,489.3114,377.4589,489.2027,378.5679,489.5306,379.715,489.5467,379.8989,488.3853,379.6041,487.2707,379.846,486.1619,380.1534,485.0198,380.0798,483.8952,380.2066,483.9015,380.2284,485.7852,380.741,487.6976,381.3531,489.5961,381.9172,491.521,382.5729,493.36,382.93" style="stroke:#181818;stroke-width:1.0;"/></g><!--link ChangeStateController to CourseManagementService--><g id="link_ChangeStateController_CourseManagementService"><path d="M274.3,323.02 L274.4637,323.2474 L266.0713,328.2627 L258.6386,334.6112 L250.8933,340.5255 L242.1203,345.012 L234.7095,351.3909 L226.5318,356.7045 L218.6593,362.442 L210.9989,368.4742 L202.6075,373.4908 L195.24,379.93 " fill="none" style="stroke:#181818;stroke-width:1.0;"/><polygon fill="#181818" points="191.08,382.93,191.0942,382.9986,192.9806,382.3944,194.9504,382.1923,196.893,381.8593,198.7463,381.0957,200.7233,380.9281,200.7191,380.9026,199.5838,380.6048,198.4696,380.4359,197.3702,380.3566,196.2201,379.9686,195.1409,380.013,195.323,380.0429,195.1166,378.8625,195.4419,377.7694,195.8321,376.6869,195.8448,375.5425,196.0561,374.4307,196.0757,374.4422,195.0517,376.1251,194.117,377.8605,193.1392,379.5705,192.2437,381.3288,191.08,382.93" style="stroke:#181818;stroke-width:1.0;"/></g><!--link RepositoryFactory to CourseRepository--><g id="link_RepositoryFactory_CourseRepository"><path d="M539.5,462.37 L539.7802,462.37 L538.9476,473.0367 L539.7577,483.7033 L540.0329,494.37 L538.5488,505.0367 L539.3964,515.7033 L539.5,526.37 " fill="none" style="stroke:#181818;stroke-width:1.0;"/><polygon fill="#181818" points="539.5,531.45,539.564,531.4785,540.1738,529.5939,541.1589,527.8762,542.0217,526.1041,542.4827,524.1534,543.5,522.45,543.4817,522.4317,542.5995,523.1495,541.8096,523.9596,541.0839,524.8339,540.137,525.487,539.5,526.45,539.6305,526.5805,538.5514,525.5014,537.8534,524.8034,537.2018,524.1518,536.2798,523.2298,535.5,522.45,535.5208,522.4592,536.2903,524.2457,537.1544,526.0742,537.9728,527.8824,538.8784,529.7293,539.5,531.45" style="stroke:#181818;stroke-width:1.0;"/></g><!--link CourseManagementService to Course--><g id="link_CourseManagementService_Course"><path d="M137.5,462.37 L137.7802,462.37 L136.9476,473.246 L137.7577,484.122 L138.0329,494.998 L136.5488,505.874 L137.5,516.75 " fill="none" style="stroke:#181818;stroke-width:1.0;"/><polygon fill="#181818" points="137.5,521.77,137.564,521.7985,138.1738,519.9139,139.1589,518.1962,140.0217,516.4241,140.4827,514.4734,141.5,512.77,141.4817,512.7517,140.5995,513.4695,139.8096,514.2796,139.0839,515.1539,138.137,515.807,137.5,516.77,137.6305,516.9005,136.5514,515.8214,135.8534,515.1234,135.2018,514.4718,134.2798,513.5498,133.5,512.77,133.5208,512.7792,134.2903,514.5657,135.1544,516.3942,135.9728,518.2024,136.8784,520.0493,137.5,521.77" style="stroke:#181818;stroke-width:1.0;"/></g><!--SRC=[XP9DRuCm38Rl_XKvjeVk5qGz38bfXtrerNQFWYbHGuASj1r2- -yBKF4LrfrmuiVswvUuapAL856oGfZiIifxDCpJ6S4DgT8QAmko9IupbP0dSSI3hpKoGkadkGnpSTO-jSQ_Yb2QFh4lHKUb9umhH6QloXnPBhH3091QECUIeAPjApn-FZFEAqA79XoLDVjz32LX25cjaJWNLQMLNA3sJ0vVX0bYoz3eW7HH4ZbtVR00EPVTTxX-HtBA1MjaDmg_VT0qtWtS1rRMAM-fJeLiFvpdVR2OC89XEneEWLfpe05NsEjc2pzmR_S6BaWgh_iHcuEdrjb-bSHck0LfJQweJ2szLMWIRGFMqpSi86FdPMgO7jlHmB24GZTL6bdIGDzlHYrTQI1N9dkiMzat6MquMsPHtAn8x-9RKHTlmNNfg3fw6yq_JioVwEvXjr__AJDol6QxK13xU0UEZBp3_h4JGDHaWe-ve7czmOI6Nm00]--></g></svg>