<?xml version="1.0" encoding="us-ascii" standalone="no"?><svg xmlns="http://www.w3.org/2000/svg" xmlns:xlink="http://www.w3.org/1999/xlink" contentStyleType="text/css" height="1528px" preserveAspectRatio="none" style="width:1238px;height:1528px;background:#FFFFFF;" version="1.1" viewBox="0 0 1238 1528" width="1238px" zoomAndPan="magnify"><defs/><g><text fill="#000000" font-family="sans-serif" font-size="14" font-weight="bold" lengthAdjust="spacing" textLength="158" x="533" y="25.1074">Domain Model Excerpt</text><!--cluster User Aggregate--><g id="cluster_User Aggregate"><rect fill="none" height="799" rx="2.5" ry="2.5" style="stroke:#000000;stroke-width:1.5;" width="854" x="310" y="723.6211"/><text fill="#000000" font-family="sans-serif" font-size="14" font-weight="bold" lengthAdjust="spacing" textLength="110" x="682" y="740.7285">User Aggregate</text></g><!--cluster Course Aggregate--><g id="cluster_Course Aggregate"><rect fill="none" height="653" rx="2.5" ry="2.5" style="stroke:#000000;stroke-width:1.5;" width="1225" x="7" y="46.6211"/><text fill="#000000" font-family="sans-serif" font-size="14" font-weight="bold" lengthAdjust="spacing" textLength="128" x="555.5" y="63.7285">Course Aggregate</text></g><!--class User--><g id="elem_User"><rect codeLine="28" fill="#D8F5FF" height="68.543" id="User" rx="2.5" ry="2.5" style="stroke:#1E90FF;stroke-width:0.5;" width="71" x="387.5" y="982.1211"/><ellipse cx="402.5" cy="1012.3926" fill="#ADD1B2" rx="11" ry="11" style="stroke:#181818;stroke-width:1.0;"/><path d="M401.3594,1013.1895 L401.3594,1015.6895 L405.6875,1015.6895 L405.6875,1014.7676 Q405.6875,1014.1582 405.9219,1013.8926 Q406.1719,1013.627 406.5469,1013.627 Q406.9219,1013.627 407.1563,1013.8926 Q407.3906,1014.1582 407.3906,1014.7676 L407.3906,1017.3926 L399.3906,1017.3926 Q398.7656,1017.3926 398.5,1017.1582 Q398.25,1016.9238 398.25,1016.5332 Q398.25,1016.1582 398.5156,1015.9238 Q398.7813,1015.6895 399.3906,1015.6895 L399.6563,1015.6895 L399.6563,1009.0332 L399.3906,1009.0332 Q398.7656,1009.0332 398.5,1008.7988 Q398.25,1008.5645 398.25,1008.1738 Q398.25,1007.7988 398.5,1007.5645 Q398.7656,1007.3301 399.3906,1007.3301 L407.0156,1007.3301 L407.0156,1009.9238 Q407.0156,1010.5332 406.7813,1010.7988 Q406.5625,1011.0488 406.1719,1011.0488 Q405.7969,1011.0488 405.5625,1010.7988 Q405.3281,1010.5332 405.3281,1009.9238 L405.3281,1009.0332 L401.3594,1009.0332 L401.3594,1011.4863 L402.8438,1011.4863 Q402.8438,1010.8301 402.9688,1010.6426 Q403.2344,1010.2363 403.7031,1010.2363 Q404.0781,1010.2363 404.3125,1010.502 Q404.5469,1010.752 404.5469,1011.3613 L404.5469,1013.3301 Q404.5469,1013.877 404.4219,1014.0645 Q404.1563,1014.4551 403.7031,1014.4551 Q403.2344,1014.4551 402.9688,1014.0488 Q402.8438,1013.8613 402.8438,1013.1895 L401.3594,1013.1895 Z " fill="#000000"/><text fill="#000000" font-family="sans-serif" font-size="12" font-style="italic" lengthAdjust="spacing" textLength="43" x="414.5" y="1000.0703">&#171;entity&#187;</text><text fill="#000000" font-family="sans-serif" font-size="12" font-style="italic" lengthAdjust="spacing" textLength="35" x="418.5" y="1016.0313">&#171;root&#187;</text><text fill="#000000" font-family="sans-serif" font-size="14" lengthAdjust="spacing" textLength="29" x="421.5" y="1034.1504">User</text><line style="stroke:#1E90FF;stroke-width:0.5;" x1="388.5" x2="457.5" y1="1042.6641" y2="1042.6641"/></g><g id="elem_GMN14"><path d="M914,1471.1211 L914,1480.6211 L741.52,1484.6211 L914,1488.6211 L914,1498.4121 A0,0 0 0 0 914,1498.4121 L1148,1498.4121 A0,0 0 0 0 1148,1498.4121 L1148,1481.1211 L1138,1471.1211 L914,1471.1211 A0,0 0 0 0 914,1471.1211 " fill="#FEFFDD" style="stroke:#181818;stroke-width:0.5;"/><path d="M1138,1471.1211 L1138,1481.1211 L1148,1481.1211 L1138,1471.1211 " fill="#FEFFDD" style="stroke:#181818;stroke-width:0.5;"/><text fill="#000000" font-family="sans-serif" font-size="13" lengthAdjust="spacing" textLength="213" x="920" y="1490.1494">Can be Teacher, Student or Manager</text></g><g id="elem_GMN27"><path d="M326,1461.1211 L326,1505.7031 A0,0 0 0 0 326,1505.7031 L520,1505.7031 A0,0 0 0 0 520,1505.7031 L520,1487.9911 L624.46,1484.4011 L520,1479.9911 L520,1471.1211 L510,1461.1211 L326,1461.1211 A0,0 0 0 0 326,1461.1211 " fill="#FEFFDD" style="stroke:#181818;stroke-width:0.5;"/><path d="M510,1461.1211 L510,1471.1211 L520,1471.1211 L510,1461.1211 " fill="#FEFFDD" style="stroke:#181818;stroke-width:0.5;"/><text fill="#000000" font-family="sans-serif" font-size="13" lengthAdjust="spacing" textLength="173" x="332" y="1480.1494">This is only used for purposes</text><text fill="#000000" font-family="sans-serif" font-size="13" lengthAdjust="spacing" textLength="88" x="332" y="1497.4404">of authorization</text></g><!--entity EmailAddress--><g id="elem_EmailAddress"><rect fill="#D8F5FF" height="43.2422" rx="2.5" ry="2.5" style="stroke:#1E90FF;stroke-width:0.5;" width="117" x="624.5" y="917.1211"/><text fill="#000000" font-family="sans-serif" font-size="14" font-style="italic" lengthAdjust="spacing" textLength="97" x="634.5" y="935.2285">&#171;Value Object&#187;</text><text fill="#000000" font-family="sans-serif" font-size="14" lengthAdjust="spacing" textLength="86" x="640" y="953.8496">EmailAddress</text></g><!--entity Password--><g id="elem_Password"><rect fill="#D8F5FF" height="43.2422" rx="2.5" ry="2.5" style="stroke:#1E90FF;stroke-width:0.5;" width="117" x="624.5" y="839.1211"/><text fill="#000000" font-family="sans-serif" font-size="14" font-style="italic" lengthAdjust="spacing" textLength="97" x="634.5" y="857.2285">&#171;Value Object&#187;</text><text fill="#000000" font-family="sans-serif" font-size="14" lengthAdjust="spacing" textLength="61" x="652.5" y="875.8496">Password</text></g><!--entity FullName--><g id="elem_FullName"><rect fill="#D8F5FF" height="43.2422" rx="2.5" ry="2.5" style="stroke:#1E90FF;stroke-width:0.5;" width="117" x="624.5" y="761.1211"/><text fill="#000000" font-family="sans-serif" font-size="14" font-style="italic" lengthAdjust="spacing" textLength="97" x="634.5" y="779.2285">&#171;Value Object&#187;</text><text fill="#000000" font-family="sans-serif" font-size="14" lengthAdjust="spacing" textLength="59" x="653.5" y="797.8496">FullName</text></g><!--entity ShortName--><g id="elem_ShortName"><rect fill="#D8F5FF" height="43.2422" rx="2.5" ry="2.5" style="stroke:#1E90FF;stroke-width:0.5;" width="117" x="624.5" y="1385.1211"/><text fill="#000000" font-family="sans-serif" font-size="14" font-style="italic" lengthAdjust="spacing" textLength="97" x="634.5" y="1403.2285">&#171;Value Object&#187;</text><text fill="#000000" font-family="sans-serif" font-size="14" lengthAdjust="spacing" textLength="70" x="648" y="1421.8496">ShortName</text></g><!--entity UserState--><g id="elem_UserState"><rect fill="#D8F5FF" height="43.2422" rx="2.5" ry="2.5" style="stroke:#1E90FF;stroke-width:0.5;" width="117" x="624.5" y="1307.1211"/><text fill="#000000" font-family="sans-serif" font-size="14" font-style="italic" lengthAdjust="spacing" textLength="97" x="634.5" y="1325.2285">&#171;Value Object&#187;</text><text fill="#000000" font-family="sans-serif" font-size="14" lengthAdjust="spacing" textLength="62" x="652" y="1343.8496">UserState</text></g><!--entity MechanographicNumber--><g id="elem_MechanographicNumber"><rect fill="#D8F5FF" height="43.2422" rx="2.5" ry="2.5" style="stroke:#1E90FF;stroke-width:0.5;" width="174" x="596" y="1229.1211"/><text fill="#000000" font-family="sans-serif" font-size="14" font-style="italic" lengthAdjust="spacing" textLength="97" x="634.5" y="1247.2285">&#171;Value Object&#187;</text><text fill="#000000" font-family="sans-serif" font-size="14" lengthAdjust="spacing" textLength="154" x="606" y="1265.8496">MechanographicNumber</text></g><!--entity Acronym--><g id="elem_Acronym"><rect fill="#D8F5FF" height="43.2422" rx="2.5" ry="2.5" style="stroke:#1E90FF;stroke-width:0.5;" width="117" x="624.5" y="1151.1211"/><text fill="#000000" font-family="sans-serif" font-size="14" font-style="italic" lengthAdjust="spacing" textLength="97" x="634.5" y="1169.2285">&#171;Value Object&#187;</text><text fill="#000000" font-family="sans-serif" font-size="14" lengthAdjust="spacing" textLength="55" x="655.5" y="1187.8496">Acronym</text></g><!--entity BirthDate--><g id="elem_BirthDate"><rect fill="#D8F5FF" height="43.2422" rx="2.5" ry="2.5" style="stroke:#1E90FF;stroke-width:0.5;" width="117" x="624.5" y="1073.1211"/><text fill="#000000" font-family="sans-serif" font-size="14" font-style="italic" lengthAdjust="spacing" textLength="97" x="634.5" y="1091.2285">&#171;Value Object&#187;</text><text fill="#000000" font-family="sans-serif" font-size="14" lengthAdjust="spacing" textLength="59" x="653.5" y="1109.8496">BirthDate</text></g><!--entity TaxPayerNumber--><g id="elem_TaxPayerNumber"><rect fill="#D8F5FF" height="43.2422" rx="2.5" ry="2.5" style="stroke:#1E90FF;stroke-width:0.5;" width="129" x="618.5" y="995.1211"/><text fill="#000000" font-family="sans-serif" font-size="14" font-style="italic" lengthAdjust="spacing" textLength="97" x="634.5" y="1013.2285">&#171;Value Object&#187;</text><text fill="#000000" font-family="sans-serif" font-size="14" lengthAdjust="spacing" textLength="109" x="628.5" y="1031.8496">TaxPayerNumber</text></g><!--entity Role--><g id="elem_Role"><rect fill="#D8F5FF" height="43.2422" rx="2.5" ry="2.5" style="stroke:#1E90FF;stroke-width:0.5;" width="117" x="624.5" y="1463.1211"/><text fill="#000000" font-family="sans-serif" font-size="14" font-style="italic" lengthAdjust="spacing" textLength="97" x="634.5" y="1481.2285">&#171;Value Object&#187;</text><text fill="#000000" font-family="sans-serif" font-size="14" lengthAdjust="spacing" textLength="29" x="668.5" y="1499.8496">Role</text></g><!--class Course--><g id="elem_Course"><rect codeLine="71" fill="#D8F5FF" height="68.543" id="Course" rx="2.5" ry="2.5" style="stroke:#1E90FF;stroke-width:0.5;" width="78" x="78" y="471.1211"/><ellipse cx="93" cy="501.3926" fill="#ADD1B2" rx="11" ry="11" style="stroke:#181818;stroke-width:1.0;"/><path d="M91.8594,502.1895 L91.8594,504.6895 L96.1875,504.6895 L96.1875,503.7676 Q96.1875,503.1582 96.4219,502.8926 Q96.6719,502.627 97.0469,502.627 Q97.4219,502.627 97.6563,502.8926 Q97.8906,503.1582 97.8906,503.7676 L97.8906,506.3926 L89.8906,506.3926 Q89.2656,506.3926 89,506.1582 Q88.75,505.9238 88.75,505.5332 Q88.75,505.1582 89.0156,504.9238 Q89.2813,504.6895 89.8906,504.6895 L90.1563,504.6895 L90.1563,498.0332 L89.8906,498.0332 Q89.2656,498.0332 89,497.7988 Q88.75,497.5645 88.75,497.1738 Q88.75,496.7988 89,496.5645 Q89.2656,496.3301 89.8906,496.3301 L97.5156,496.3301 L97.5156,498.9238 Q97.5156,499.5332 97.2813,499.7988 Q97.0625,500.0488 96.6719,500.0488 Q96.2969,500.0488 96.0625,499.7988 Q95.8281,499.5332 95.8281,498.9238 L95.8281,498.0332 L91.8594,498.0332 L91.8594,500.4863 L93.3438,500.4863 Q93.3438,499.8301 93.4688,499.6426 Q93.7344,499.2363 94.2031,499.2363 Q94.5781,499.2363 94.8125,499.502 Q95.0469,499.752 95.0469,500.3613 L95.0469,502.3301 Q95.0469,502.877 94.9219,503.0645 Q94.6563,503.4551 94.2031,503.4551 Q93.7344,503.4551 93.4688,503.0488 Q93.3438,502.8613 93.3438,502.1895 L91.8594,502.1895 Z " fill="#000000"/><text fill="#000000" font-family="sans-serif" font-size="12" font-style="italic" lengthAdjust="spacing" textLength="43" x="108.5" y="489.0703">&#171;entity&#187;</text><text fill="#000000" font-family="sans-serif" font-size="12" font-style="italic" lengthAdjust="spacing" textLength="35" x="112.5" y="505.0313">&#171;root&#187;</text><text fill="#000000" font-family="sans-serif" font-size="14" lengthAdjust="spacing" textLength="46" x="107" y="523.1504">Course</text><line style="stroke:#1E90FF;stroke-width:0.5;" x1="79" x2="155" y1="531.6641" y2="531.6641"/></g><g id="elem_GMN46"><path d="M593,457.6211 L593,501.6211 L481.58,505.6211 L593,509.6211 L593,554.0762 A0,0 0 0 0 593,554.0762 L773,554.0762 A0,0 0 0 0 773,554.0762 L773,467.6211 L763,457.6211 L593,457.6211 A0,0 0 0 0 593,457.6211 " fill="#FEFFDD" style="stroke:#181818;stroke-width:0.5;"/><path d="M763,457.6211 L763,467.6211 L773,467.6211 L763,457.6211 " fill="#FEFFDD" style="stroke:#181818;stroke-width:0.5;"/><text fill="#000000" font-family="sans-serif" font-size="13" lengthAdjust="spacing" textLength="159" x="599" y="476.6494">Can be one of the following:</text><text fill="#000000" font-family="sans-serif" font-size="13" lengthAdjust="spacing" textLength="39" x="615" y="493.9404">- Open</text><text fill="#000000" font-family="sans-serif" font-size="13" lengthAdjust="spacing" textLength="48" x="615" y="511.2314">- Closed</text><text fill="#000000" font-family="sans-serif" font-size="13" lengthAdjust="spacing" textLength="41" x="615" y="528.5225">- Enroll</text><text fill="#000000" font-family="sans-serif" font-size="13" lengthAdjust="spacing" textLength="70" x="615" y="545.8135">- InProgress</text></g><g id="elem_GMN49"><path d="M581,638.1211 L581,657.0111 L481.58,661.4011 L581,665.0111 L581,682.7031 A0,0 0 0 0 581,682.7031 L785,682.7031 A0,0 0 0 0 785,682.7031 L785,648.1211 L775,638.1211 L581,638.1211 A0,0 0 0 0 581,638.1211 " fill="#FEFFDD" style="stroke:#181818;stroke-width:0.5;"/><path d="M775,638.1211 L775,648.1211 L785,648.1211 L775,638.1211 " fill="#FEFFDD" style="stroke:#181818;stroke-width:0.5;"/><text fill="#000000" font-family="sans-serif" font-size="13" lengthAdjust="spacing" textLength="183" x="587" y="657.1494">Each course has a unique code</text><text fill="#000000" font-family="sans-serif" font-size="13" lengthAdjust="spacing" textLength="113" x="587" y="674.4404">Example: "JAVA-1"</text></g><g id="elem_GMN52"><path d="M23,83.6211 L23,145.4941 A0,0 0 0 0 23,145.4941 L211,145.4941 A0,0 0 0 0 211,145.4941 L211,115.8611 L364.25,107.3311 L211,107.8611 L211,93.6211 L201,83.6211 L23,83.6211 A0,0 0 0 0 23,83.6211 " fill="#FEFFDD" style="stroke:#181818;stroke-width:0.5;"/><path d="M201,83.6211 L201,93.6211 L211,93.6211 L201,83.6211 " fill="#FEFFDD" style="stroke:#181818;stroke-width:0.5;"/><text fill="#000000" font-family="sans-serif" font-size="13" lengthAdjust="spacing" textLength="164" x="29" y="102.6494">Different editions of a course</text><text fill="#000000" font-family="sans-serif" font-size="13" lengthAdjust="spacing" textLength="167" x="29" y="119.9404">are to be considered different</text><text fill="#000000" font-family="sans-serif" font-size="13" lengthAdjust="spacing" textLength="46" x="29" y="137.2314">courses</text></g><!--class Class--><g id="elem_Class"><rect codeLine="116" fill="#D8F5FF" height="52.582" id="Class" rx="2.5" ry="2.5" style="stroke:#1E90FF;stroke-width:0.5;" width="71" x="387.5" y="162.1211"/><ellipse cx="402.5" cy="184.4121" fill="#ADD1B2" rx="11" ry="11" style="stroke:#181818;stroke-width:1.0;"/><path d="M401.3594,185.209 L401.3594,187.709 L405.6875,187.709 L405.6875,186.7871 Q405.6875,186.1777 405.9219,185.9121 Q406.1719,185.6465 406.5469,185.6465 Q406.9219,185.6465 407.1563,185.9121 Q407.3906,186.1777 407.3906,186.7871 L407.3906,189.4121 L399.3906,189.4121 Q398.7656,189.4121 398.5,189.1777 Q398.25,188.9434 398.25,188.5527 Q398.25,188.1777 398.5156,187.9434 Q398.7813,187.709 399.3906,187.709 L399.6563,187.709 L399.6563,181.0527 L399.3906,181.0527 Q398.7656,181.0527 398.5,180.8184 Q398.25,180.584 398.25,180.1934 Q398.25,179.8184 398.5,179.584 Q398.7656,179.3496 399.3906,179.3496 L407.0156,179.3496 L407.0156,181.9434 Q407.0156,182.5527 406.7813,182.8184 Q406.5625,183.0684 406.1719,183.0684 Q405.7969,183.0684 405.5625,182.8184 Q405.3281,182.5527 405.3281,181.9434 L405.3281,181.0527 L401.3594,181.0527 L401.3594,183.5059 L402.8438,183.5059 Q402.8438,182.8496 402.9688,182.6621 Q403.2344,182.2559 403.7031,182.2559 Q404.0781,182.2559 404.3125,182.5215 Q404.5469,182.7715 404.5469,183.3809 L404.5469,185.3496 Q404.5469,185.8965 404.4219,186.084 Q404.1563,186.4746 403.7031,186.4746 Q403.2344,186.4746 402.9688,186.0684 Q402.8438,185.8809 402.8438,185.209 L401.3594,185.209 Z " fill="#000000"/><text fill="#000000" font-family="sans-serif" font-size="12" font-style="italic" lengthAdjust="spacing" textLength="43" x="414.5" y="180.0703">&#171;entity&#187;</text><text fill="#000000" font-family="sans-serif" font-size="14" lengthAdjust="spacing" textLength="35" x="418.5" y="198.1895">Class</text><line style="stroke:#1E90FF;stroke-width:0.5;" x1="388.5" x2="457.5" y1="206.7031" y2="206.7031"/></g><g id="elem_GMN60"><path d="M846,83.6211 L846,170.1411 L741.52,183.4711 L846,178.1411 L846,231.9492 A0,0 0 0 0 846,231.9492 L1216,231.9492 A0,0 0 0 0 1216,231.9492 L1216,93.6211 L1206,83.6211 L846,83.6211 A0,0 0 0 0 846,83.6211 " fill="#FEFFDD" style="stroke:#181818;stroke-width:0.5;"/><path d="M1206,83.6211 L1206,93.6211 L1216,93.6211 L1206,83.6211 " fill="#FEFFDD" style="stroke:#181818;stroke-width:0.5;"/><text fill="#000000" font-family="sans-serif" font-size="13" lengthAdjust="spacing" textLength="249" x="852" y="102.6494">A class is always a recurring weekly event.</text><text fill="#000000" font-family="sans-serif" font-size="13" lengthAdjust="spacing" textLength="4" x="852" y="119.9404">&#160;</text><text fill="#000000" font-family="sans-serif" font-size="13" lengthAdjust="spacing" textLength="279" x="852" y="137.2314">It should be impossible to schedule classes that</text><text fill="#000000" font-family="sans-serif" font-size="13" lengthAdjust="spacing" textLength="309" x="852" y="154.5225">are coincident with other classes of the same course.</text><text fill="#000000" font-family="sans-serif" font-size="13" lengthAdjust="spacing" textLength="4" x="852" y="171.8135">&#160;</text><text fill="#000000" font-family="sans-serif" font-size="13" lengthAdjust="spacing" textLength="311" x="852" y="189.1045">The system should also warn if one of the participants</text><text fill="#000000" font-family="sans-serif" font-size="13" lengthAdjust="spacing" textLength="349" x="852" y="206.3955">in the class (either a teacher or a student) has other classes</text><text fill="#000000" font-family="sans-serif" font-size="13" lengthAdjust="spacing" textLength="326" x="852" y="223.6865">at the same time. Teachers can schedule extra classes.</text></g><g id="elem_GMN63"><path d="M928,364.1211 L928,370.9611 L741.52,370.1211 L928,378.9611 L928,391.4121 A0,0 0 0 0 928,391.4121 L1134,391.4121 A0,0 0 0 0 1134,391.4121 L1134,374.1211 L1124,364.1211 L928,364.1211 A0,0 0 0 0 928,364.1211 " fill="#FEFFDD" style="stroke:#181818;stroke-width:0.5;"/><path d="M1124,364.1211 L1124,374.1211 L1134,374.1211 L1124,364.1211 " fill="#FEFFDD" style="stroke:#181818;stroke-width:0.5;"/><text fill="#000000" font-family="sans-serif" font-size="13" lengthAdjust="spacing" textLength="185" x="934" y="383.1494">A class must have a unique title</text></g><g id="elem_GMN71"><path d="M941,266.6211 L941,287.6911 L741.52,278.4411 L941,295.6911 L941,328.4941 A0,0 0 0 0 941,328.4941 L1121,328.4941 A0,0 0 0 0 1121,328.4941 L1121,276.6211 L1111,266.6211 L941,266.6211 A0,0 0 0 0 941,266.6211 " fill="#FEFFDD" style="stroke:#181818;stroke-width:0.5;"/><path d="M1111,266.6211 L1111,276.6211 L1121,276.6211 L1111,266.6211 " fill="#FEFFDD" style="stroke:#181818;stroke-width:0.5;"/><text fill="#000000" font-family="sans-serif" font-size="13" lengthAdjust="spacing" textLength="159" x="947" y="285.6494">Can be one of the following:</text><text fill="#000000" font-family="sans-serif" font-size="13" lengthAdjust="spacing" textLength="63" x="963" y="302.9404">- Recurring</text><text fill="#000000" font-family="sans-serif" font-size="13" lengthAdjust="spacing" textLength="39" x="963" y="320.2314">- Extra</text></g><!--entity Code--><g id="elem_Code"><rect fill="#D8F5FF" height="43.2422" rx="2.5" ry="2.5" style="stroke:#1E90FF;stroke-width:0.5;" width="117" x="364.5" y="640.1211"/><text fill="#000000" font-family="sans-serif" font-size="14" font-style="italic" lengthAdjust="spacing" textLength="97" x="374.5" y="658.2285">&#171;Value Object&#187;</text><text fill="#000000" font-family="sans-serif" font-size="14" lengthAdjust="spacing" textLength="34" x="406" y="676.8496">Code</text></g><!--entity Name--><g id="elem_Name"><rect fill="#D8F5FF" height="43.2422" rx="2.5" ry="2.5" style="stroke:#1E90FF;stroke-width:0.5;" width="117" x="364.5" y="562.1211"/><text fill="#000000" font-family="sans-serif" font-size="14" font-style="italic" lengthAdjust="spacing" textLength="97" x="374.5" y="580.2285">&#171;Value Object&#187;</text><text fill="#000000" font-family="sans-serif" font-size="14" lengthAdjust="spacing" textLength="36" x="405" y="598.8496">Name</text></g><!--entity State--><g id="elem_State"><rect fill="#D8F5FF" height="43.2422" rx="2.5" ry="2.5" style="stroke:#1E90FF;stroke-width:0.5;" width="117" x="364.5" y="484.1211"/><text fill="#000000" font-family="sans-serif" font-size="14" font-style="italic" lengthAdjust="spacing" textLength="97" x="374.5" y="502.2285">&#171;Value Object&#187;</text><text fill="#000000" font-family="sans-serif" font-size="14" lengthAdjust="spacing" textLength="33" x="406.5" y="520.8496">State</text></g><!--entity Description--><g id="elem_Description"><rect fill="#D8F5FF" height="43.2422" rx="2.5" ry="2.5" style="stroke:#1E90FF;stroke-width:0.5;" width="117" x="364.5" y="406.1211"/><text fill="#000000" font-family="sans-serif" font-size="14" font-style="italic" lengthAdjust="spacing" textLength="97" x="374.5" y="424.2285">&#171;Value Object&#187;</text><text fill="#000000" font-family="sans-serif" font-size="14" lengthAdjust="spacing" textLength="71" x="387.5" y="442.8496">Description</text></g><!--entity MaxStudents--><g id="elem_MaxStudents"><rect fill="#D8F5FF" height="43.2422" rx="2.5" ry="2.5" style="stroke:#1E90FF;stroke-width:0.5;" width="117" x="364.5" y="328.1211"/><text fill="#000000" font-family="sans-serif" font-size="14" font-style="italic" lengthAdjust="spacing" textLength="97" x="374.5" y="346.2285">&#171;Value Object&#187;</text><text fill="#000000" font-family="sans-serif" font-size="14" lengthAdjust="spacing" textLength="81" x="382.5" y="364.8496">MaxStudents</text></g><!--entity MinStudents--><g id="elem_MinStudents"><rect fill="#D8F5FF" height="43.2422" rx="2.5" ry="2.5" style="stroke:#1E90FF;stroke-width:0.5;" width="117" x="364.5" y="250.1211"/><text fill="#000000" font-family="sans-serif" font-size="14" font-style="italic" lengthAdjust="spacing" textLength="97" x="374.5" y="268.2285">&#171;Value Object&#187;</text><text fill="#000000" font-family="sans-serif" font-size="14" lengthAdjust="spacing" textLength="78" x="384" y="286.8496">MinStudents</text></g><!--entity Edition--><g id="elem_Edition"><rect fill="#D8F5FF" height="43.2422" rx="2.5" ry="2.5" style="stroke:#1E90FF;stroke-width:0.5;" width="117" x="364.5" y="84.1211"/><text fill="#000000" font-family="sans-serif" font-size="14" font-style="italic" lengthAdjust="spacing" textLength="97" x="374.5" y="102.2285">&#171;Value Object&#187;</text><text fill="#000000" font-family="sans-serif" font-size="14" lengthAdjust="spacing" textLength="43" x="401.5" y="120.8496">Edition</text></g><!--entity ClassDate--><g id="elem_ClassDate"><rect fill="#D8F5FF" height="43.2422" rx="2.5" ry="2.5" style="stroke:#1E90FF;stroke-width:0.5;" width="117" x="624.5" y="167.1211"/><text fill="#000000" font-family="sans-serif" font-size="14" font-style="italic" lengthAdjust="spacing" textLength="97" x="634.5" y="185.2285">&#171;Value Object&#187;</text><text fill="#000000" font-family="sans-serif" font-size="14" lengthAdjust="spacing" textLength="65" x="650.5" y="203.8496">ClassDate</text></g><!--entity ClassDuration--><g id="elem_ClassDuration"><rect fill="#D8F5FF" height="43.2422" rx="2.5" ry="2.5" style="stroke:#1E90FF;stroke-width:0.5;" width="117" x="624.5" y="89.1211"/><text fill="#000000" font-family="sans-serif" font-size="14" font-style="italic" lengthAdjust="spacing" textLength="97" x="634.5" y="107.2285">&#171;Value Object&#187;</text><text fill="#000000" font-family="sans-serif" font-size="14" lengthAdjust="spacing" textLength="89" x="638.5" y="125.8496">ClassDuration</text></g><!--entity ClassTitle--><g id="elem_ClassTitle"><rect fill="#D8F5FF" height="43.2422" rx="2.5" ry="2.5" style="stroke:#1E90FF;stroke-width:0.5;" width="117" x="624.5" y="347.1211"/><text fill="#000000" font-family="sans-serif" font-size="14" font-style="italic" lengthAdjust="spacing" textLength="97" x="634.5" y="365.2285">&#171;Value Object&#187;</text><text fill="#000000" font-family="sans-serif" font-size="14" lengthAdjust="spacing" textLength="62" x="652" y="383.8496">ClassTitle</text></g><!--entity ClassType--><g id="elem_ClassType"><rect fill="#D8F5FF" height="43.2422" rx="2.5" ry="2.5" style="stroke:#1E90FF;stroke-width:0.5;" width="117" x="624.5" y="253.1211"/><text fill="#000000" font-family="sans-serif" font-size="14" font-style="italic" lengthAdjust="spacing" textLength="97" x="634.5" y="271.2285">&#171;Value Object&#187;</text><text fill="#000000" font-family="sans-serif" font-size="14" lengthAdjust="spacing" textLength="67" x="649.5" y="289.8496">ClassType</text></g><!--link User to EmailAddress--><g id="link_User_EmailAddress"><path codeLine="53" d="M458.53,1006.1811 C499.63,993.7611 569.06,972.7611 619.64,957.4711 " fill="none" id="User-to-EmailAddress" style="stroke:#1E90FF;stroke-width:1.0;"/><polygon fill="#1E90FF" points="624.48,956.0111,614.7051,954.806,619.6968,957.4675,617.0353,962.4591,624.48,956.0111" style="stroke:#1E90FF;stroke-width:1.0;"/></g><!--link User to Password--><g id="link_User_Password"><path codeLine="54" d="M458.59,986.4911 C489.21,960.9211 535.92,924.5111 581,899.6211 C593.09,892.9411 606.56,886.8911 619.62,881.6511 " fill="none" id="User-to-Password" style="stroke:#1E90FF;stroke-width:1.0;"/><polygon fill="#1E90FF" points="624.41,879.7511,614.5696,879.3432,619.7608,881.5908,617.5132,886.782,624.41,879.7511" style="stroke:#1E90FF;stroke-width:1.0;"/></g><!--link User to FullName--><g id="link_User_FullName"><path codeLine="55" d="M443.89,982.0311 C470.22,939.0011 520.45,865.8311 581,821.6211 C592.49,813.2311 606.02,806.3911 619.37,800.9211 " fill="none" id="User-to-FullName" style="stroke:#1E90FF;stroke-width:1.0;"/><polygon fill="#1E90FF" points="624.28,798.9611,614.4392,798.5636,619.6327,800.8057,617.3906,805.9992,624.28,798.9611" style="stroke:#1E90FF;stroke-width:1.0;"/></g><!--link User to ShortName--><g id="link_User_ShortName"><path codeLine="56" d="M430.36,1051.3811 C444.81,1120.8511 486.47,1277.8911 581,1367.6211 C591.84,1377.9111 605.69,1385.5711 619.63,1391.2411 " fill="none" id="User-to-ShortName" style="stroke:#1E90FF;stroke-width:1.0;"/><polygon fill="#1E90FF" points="624.36,1393.0911,617.4259,1386.097,619.7011,1391.2761,614.5219,1393.5513,624.36,1393.0911" style="stroke:#1E90FF;stroke-width:1.0;"/></g><!--link User to Role--><g id="link_User_Role"><path codeLine="57" d="M427.09,1051.1711 C436.04,1131.3011 469,1331.6211 581,1445.6211 C591.59,1456.4011 605.5,1464.2611 619.58,1469.9611 " fill="none" id="User-to-Role" style="stroke:#1E90FF;stroke-width:1.0;"/><polygon fill="#1E90FF" points="624.36,1471.8211,617.4259,1464.827,619.7011,1470.0061,614.5219,1472.2813,624.36,1471.8211" style="stroke:#1E90FF;stroke-width:1.0;"/></g><!--link User to UserState--><g id="link_User_UserState"><path codeLine="58" d="M435.31,1051.3811 C455.64,1108.7011 503.58,1223.2511 581,1289.6211 C592.15,1299.1811 605.91,1306.5411 619.65,1312.1511 " fill="none" id="User-to-UserState" style="stroke:#1E90FF;stroke-width:1.0;"/><polygon fill="#1E90FF" points="624.3,1313.9911,617.4032,1306.9602,619.6508,1312.1514,614.4596,1314.399,624.3,1313.9911" style="stroke:#1E90FF;stroke-width:1.0;"/></g><!--link User to MechanographicNumber--><g id="link_User_MechanographicNumber"><path codeLine="59" d="M443.89,1051.2111 C470.22,1094.2411 520.45,1167.4111 581,1211.6211 C589.02,1217.4811 598.04,1222.5811 607.29,1226.9911 " fill="none" id="User-to-MechanographicNumber" style="stroke:#1E90FF;stroke-width:1.0;"/><polygon fill="#1E90FF" points="611.85,1229.1011,605.359,1221.6938,607.3115,1227.0031,602.0022,1228.9555,611.85,1229.1011" style="stroke:#1E90FF;stroke-width:1.0;"/></g><!--link User to Acronym--><g id="link_User_Acronym"><path codeLine="60" d="M458.59,1046.7511 C489.21,1072.3211 535.92,1108.7311 581,1133.6211 C593.09,1140.3011 606.56,1146.3511 619.62,1151.5911 " fill="none" id="User-to-Acronym" style="stroke:#1E90FF;stroke-width:1.0;"/><polygon fill="#1E90FF" points="624.41,1153.4911,617.5132,1146.4602,619.7608,1151.6514,614.5696,1153.899,624.41,1153.4911" style="stroke:#1E90FF;stroke-width:1.0;"/></g><!--link User to BirthDate--><g id="link_User_BirthDate"><path codeLine="61" d="M458.53,1027.0611 C499.63,1039.4811 569.06,1060.4811 619.64,1075.7711 " fill="none" id="User-to-BirthDate" style="stroke:#1E90FF;stroke-width:1.0;"/><polygon fill="#1E90FF" points="624.48,1077.2311,617.0353,1070.7831,619.6968,1075.7747,614.7051,1078.4362,624.48,1077.2311" style="stroke:#1E90FF;stroke-width:1.0;"/></g><!--link User to TaxPayerNumber--><g id="link_User_TaxPayerNumber"><path codeLine="62" d="M458.53,1016.6211 C497.95,1016.6211 563.44,1016.6211 613.36,1016.6211 " fill="none" id="User-to-TaxPayerNumber" style="stroke:#1E90FF;stroke-width:1.0;"/><polygon fill="#1E90FF" points="618.45,1016.6211,609.45,1012.6211,613.45,1016.6211,609.45,1020.6211,618.45,1016.6211" style="stroke:#1E90FF;stroke-width:1.0;"/></g><!--link Course to Name--><g id="link_Course_Name"><path codeLine="89" d="M156.19,515.4211 C207.15,528.4911 298.02,551.8111 359.15,567.4911 " fill="none" id="Course-to-Name" style="stroke:#1E90FF;stroke-width:1.0;"/><polygon fill="#1E90FF" points="364.23,568.8011,356.5068,562.6894,359.3869,567.5582,354.5182,570.4383,364.23,568.8011" style="stroke:#1E90FF;stroke-width:1.0;"/></g><!--link Course to State--><g id="link_Course_State"><path codeLine="90" d="M156.19,505.6211 C207.15,505.6211 298.02,505.6211 359.15,505.6211 " fill="none" id="Course-to-State" style="stroke:#1E90FF;stroke-width:1.0;"/><polygon fill="#1E90FF" points="364.23,505.6211,355.23,501.6211,359.23,505.6211,355.23,509.6211,364.23,505.6211" style="stroke:#1E90FF;stroke-width:1.0;"/></g><!--link Course to Description--><g id="link_Course_Description"><path codeLine="91" d="M156.19,495.8211 C207.15,482.7511 298.02,459.4311 359.15,443.7511 " fill="none" id="Course-to-Description" style="stroke:#1E90FF;stroke-width:1.0;"/><polygon fill="#1E90FF" points="364.23,442.4411,354.5182,440.8039,359.3869,443.684,356.5068,448.5528,364.23,442.4411" style="stroke:#1E90FF;stroke-width:1.0;"/></g><!--link Course to MaxStudents--><g id="link_Course_MaxStudents"><path codeLine="92" d="M156.19,477.2811 C192.3,451.4911 248.75,413.7111 302,388.6211 C320.02,380.1311 340.39,372.7511 359.15,366.7611 " fill="none" id="Course-to-MaxStudents" style="stroke:#1E90FF;stroke-width:1.0;"/><polygon fill="#1E90FF" points="364.4,365.1111,354.6147,363.9943,359.6301,366.6106,357.0139,371.6261,364.4,365.1111" style="stroke:#1E90FF;stroke-width:1.0;"/></g><!--link Course to MinStudents--><g id="link_Course_MinStudents"><path codeLine="93" d="M142.03,471.0011 C173.85,427.6011 233.96,353.6911 302,310.6211 C319.4,299.6011 340.21,291.4211 359.58,285.4711 " fill="none" id="Course-to-MinStudents" style="stroke:#1E90FF;stroke-width:1.0;"/><polygon fill="#1E90FF" points="364.47,284.0111,354.6995,282.7713,359.6817,285.4504,357.0025,290.4326,364.47,284.0111" style="stroke:#1E90FF;stroke-width:1.0;"/></g><!--link Course to Code--><g id="link_Course_Code"><path codeLine="94" d="M156.19,533.9611 C192.3,559.7511 248.75,597.5311 302,622.6211 C320.02,631.1111 340.39,638.4911 359.15,644.4811 " fill="none" id="Course-to-Code" style="stroke:#1E90FF;stroke-width:1.0;"/><polygon fill="#1E90FF" points="364.4,646.1311,357.0139,639.6161,359.6301,644.6316,354.6147,647.2479,364.4,646.1311" style="stroke:#1E90FF;stroke-width:1.0;"/></g><!--link Course to Edition--><g id="link_Course_Edition"><path codeLine="95" d="M124.17,471.0011 C139.41,396.8011 186.32,222.8311 302,144.6211 C319.15,133.0311 339.99,124.6811 359.45,118.7611 " fill="none" id="Course-to-Edition" style="stroke:#1E90FF;stroke-width:1.0;"/><polygon fill="#1E90FF" points="364.37,117.3111,354.6064,116.0178,359.5739,118.7242,356.8675,123.6917,364.37,117.3111" style="stroke:#1E90FF;stroke-width:1.0;"/></g><!--link Class to ClassDate--><g id="link_Class_ClassDate"><path codeLine="145" d="M458.53,188.6211 C499.55,188.6211 568.78,188.6211 619.34,188.6211 " fill="none" id="Class-to-ClassDate" style="stroke:#1E90FF;stroke-width:1.0;"/><polygon fill="#1E90FF" points="624.48,188.6211,615.48,184.6211,619.48,188.6211,615.48,192.6211,624.48,188.6211" style="stroke:#1E90FF;stroke-width:1.0;"/></g><!--link Class to ClassDuration--><g id="link_Class_ClassDuration"><path codeLine="146" d="M458.53,178.1811 C499.63,165.7611 569.06,144.7611 619.64,129.4711 " fill="none" id="Class-to-ClassDuration" style="stroke:#1E90FF;stroke-width:1.0;"/><polygon fill="#1E90FF" points="624.48,128.0111,614.7051,126.806,619.6968,129.4675,617.0353,134.4591,624.48,128.0111" style="stroke:#1E90FF;stroke-width:1.0;"/></g><!--link Class to ClassTitle--><g id="link_Class_ClassTitle"><path codeLine="147" d="M458.74,199.7611 C478.09,207.0811 501.86,218.0211 520,232.6211 C555.11,260.8711 546.88,284.1811 581,313.6211 C594.95,325.6611 611.98,336.1711 628.05,344.6911 " fill="none" id="Class-to-ClassTitle" style="stroke:#1E90FF;stroke-width:1.0;"/><polygon fill="#1E90FF" points="632.55,347.0411,626.3964,339.3513,628.1097,344.7424,622.7186,346.4557,632.55,347.0411" style="stroke:#1E90FF;stroke-width:1.0;"/></g><!--link Class to ClassType--><g id="link_Class_ClassType"><path codeLine="148" d="M458.53,200.1311 C499.63,213.8311 569.06,236.9711 619.64,253.8311 " fill="none" id="Class-to-ClassType" style="stroke:#1E90FF;stroke-width:1.0;"/><polygon fill="#1E90FF" points="624.48,255.4511,617.2128,248.8037,619.738,253.8657,614.6761,256.3909,624.48,255.4511" style="stroke:#1E90FF;stroke-width:1.0;"/></g><!--link Course to Class--><g id="link_Course_Class"><path codeLine="149" d="M132.77,470.7211 C158.78,413.2111 218.09,298.3611 302,232.6211 C325.5,214.2111 357.44,203.0011 382.46,196.5011 " fill="none" id="Course-to-Class" style="stroke:#1E90FF;stroke-width:1.0;"/><polygon fill="#1E90FF" points="387.37,195.2711,377.6627,193.607,382.5235,196.5006,379.6299,201.3614,387.37,195.2711" style="stroke:#1E90FF;stroke-width:1.0;"/><text fill="#000000" font-family="sans-serif" font-size="13" lengthAdjust="spacing" textLength="49" x="243" y="240.6494">contains</text><text fill="#000000" font-family="sans-serif" font-size="13" lengthAdjust="spacing" textLength="5" x="374.5057" y="212.4972">*</text></g><!--link Course to User--><g id="link_Course_User"><path codeLine="158" d="M142.52,540.1711 C177.66,590.2111 243.64,686.2511 294,771.6211 C335.81,842.4911 379.04,928.3411 403.02,977.3111 " fill="none" id="Course-to-User" style="stroke:#1E90FF;stroke-width:1.0;"/><polygon fill="#1E90FF" points="405.29,981.9311,404.9436,972.0883,403.0999,977.4363,397.7519,975.5926,405.29,981.9311" style="stroke:#1E90FF;stroke-width:1.0;"/><text fill="#000000" font-family="sans-serif" font-size="13" lengthAdjust="spacing" textLength="51" x="242" y="686.6494">is owned</text><text fill="#000000" font-family="sans-serif" font-size="13" lengthAdjust="spacing" textLength="7" x="394.2468" y="970.7976">1</text></g><!--link Course to User--><g id="link_Course_User"><path codeLine="159" d="M128.77,540.1411 C147.19,596.5811 187.93,711.1211 241,798.6211 C282.52,867.0711 344.4,936.6011 383.97,978.1711 " fill="none" id="Course-to-User-1" style="stroke:#1E90FF;stroke-width:1.0;"/><polygon fill="#1E90FF" points="387.73,982.1011,384.4187,972.8256,384.2814,978.4807,378.6262,978.3434,387.73,982.1011" style="stroke:#1E90FF;stroke-width:1.0;"/><text fill="#000000" font-family="sans-serif" font-size="13" lengthAdjust="spacing" textLength="21" x="257" y="794.6494">has</text><text fill="#000000" font-family="sans-serif" font-size="13" lengthAdjust="spacing" textLength="9" x="370.5274" y="990.8399">N</text></g><!--link Course to User--><g id="link_Course_User"><path codeLine="160" d="M121.13,540.2211 C129.24,613.0111 156.61,784.4611 241,896.6211 C278.03,945.8311 341.5,981.1011 382.59,1000.1811 " fill="none" id="Course-to-User-2" style="stroke:#1E90FF;stroke-width:1.0;"/><polygon fill="#1E90FF" points="387.49,1002.4311,380.9798,995.0407,382.946,1000.3449,377.6419,1002.3111,387.49,1002.4311" style="stroke:#1E90FF;stroke-width:1.0;"/><text fill="#000000" font-family="sans-serif" font-size="13" lengthAdjust="spacing" textLength="46" x="244.5" y="892.6494">teaches</text><text fill="#000000" font-family="sans-serif" font-size="13" lengthAdjust="spacing" textLength="9" x="370.613" y="1015.4128">N</text></g><!--SRC=[pLVRRkCs47tNLn3kmxP54tGV2XI1OS2n7S15RbYx-qvBOuaDHQf3AhQts7_laBgPiXoxRnK293jpICxbd27N2Yk1pNNEXM9FEW795liOiB1Hb8a4M0usquc996mjivgXI3FB4e4GMw5L59ateGgEF6UnvCPChKMnAIqiOwrMuXkmNqymx9-8qVSejl0e5DnhJ01dMcgaI98Ky5wM449u_9QYBbLImQQlhu_BsNIzV7dskBx_X_dl3xyzF7ZV557l1dS_S_3tuu0BsfcdiB87gfDBcgjKGf0In-J_dr6T1nlzQO1EIrE4b5iOrP63ii8Uc7UEnzM_9fFn6BMsaqaKVVAUTqwxCRtvY-fW_3gV_8BO8wT9Wa2z7O-_UjIBHqqcrVxVE_GhCM17SLv6FfHIFlCSBYDNcKPx7TGbihAK-cNe4yGPLpf5NcGYVYxpZQ_EXLNJ6BKwv2T0TeAy5sYp-L0efzWrtx_o0-2PA4uNVD7omhvAqycLdlNMu-_OZ2ks0RO67cU0lx2LBHDY0oC-FN551CB8h_LqkBcP1BqFFKsVGslJqz3QzYyqkvX2Izkzq3pKgH1HToKqjWq8pM6jewvOVWZMjV9MzwqpOHZzQ2KFh3IGi2rLgoYnq0PC2wDblAHPYk8RzvEpabtYTmuKEjCb6ZYhqTezf5A7-bJxpsXrHZF-2lPSARlhT3G74wCeNDPNY8xlQz9TCKkUXBeUl4Z4Xo7uNtNr70rQFXxPEkuT6O_owxkEiZbnTR7tNQv9VLiTVJGWtIuelwQIi5RWV3O3ugEKUYTKUjU2t7V3NWfGFTDC4ckJdd6XaBRe6PVg5KbnZUvRAWy4sERZlWMD5XPNYMNSCCvA9VwcViG1Qi_pmasaqH_JhzERpwDpXpIQREhJR30NsosWcrrGUOoNO7ro2-C8xbcpSSShGoyU904dpTeMLgqQohHHfN_OTAACZYJdNFEFbDB7biWlCxN3h_qZxbhmeRY07UXVaq50WMdzcgFPn-ME7rmhwOLK8XBLs0xWZGOYl5D5RgDWuT8oa-bI9gxi8gSvQSH6-ZuOkdQIalxsMuCX_d8RB7ODYxLGiV0NqqxOZ6bYERPBQjORDyAgllNENpllmLZ8cpYuD9hjE2ecjiVAeHUU5R4eU2FIvgFNilDN1VWHX0-0CrlTc-wwvCnKwlx9ipm8CKp8Tk5QaSDjS_iQwfhgAW9xYxpPuRRT8cJZcTvvXWmsBo-DfG3VeTEX3S3X_XND_OmAED6trmmUydMnz1t4pFxK6_qygc5tJg2M_fjY1YTCiC5_78DV6jBsnvwh-CaztO_mywXwETpvHy1ErTFp6FBSGeWA7tWh-fZeNm00]--></g></svg>