<?xml version="1.0" encoding="UTF-8" standalone="no"?><svg xmlns="http://www.w3.org/2000/svg" xmlns:xlink="http://www.w3.org/1999/xlink" contentStyleType="text/css" height="535px" preserveAspectRatio="none" style="width:399px;height:535px;background:#FFFFFF;" version="1.1" viewBox="0 0 399 535" width="399px" zoomAndPan="magnify"><defs/><g><!--MD5=[475f3b715ca7ffb20b7527e2f35f29f1]
class HttpServerAjax--><g id="elem_HttpServerAjax"><polygon fill="#F1F1F1" points="99,7,99,7.2102,109.2222,6.5857,119.4444,7.1933,129.6667,7.3997,139.8889,6.2866,150.1111,6.9223,160.3333,6.5735,170.5556,6.6165,180.7778,6.9318,191,6.3086,201.2222,7.5536,211.4444,6.3697,221.6667,6.8022,231.8889,7.4319,242.1111,6.9142,252.3333,7.0682,262.5556,6.9681,272.7778,7.1785,283,7,283.0305,7.0736,283.4283,7.3268,283.7927,7.4996,284.1473,7.6485,284.4467,7.6642,284.7678,7.7322,284.9105,7.7914,285.1305,8.1754,284.8386,8.3473,285.4161,8.8794,285.2622,9.1086,285.5,9.5,286.0338,9.5,285.005,19.6875,285.4315,29.875,286.2416,40.0625,285.4513,50.25,285.6053,60.4375,285.8386,70.625,285.5,80.8125,285.6282,80.8656,285.3524,81.1656,285.2956,81.5562,284.8844,81.8001,285.0018,82.263,284.7678,82.5803,284.8377,82.7491,284.4709,82.8636,284.1389,83.0619,283.6455,82.8708,283.2704,82.9652,283,83.3125,283,82.6911,272.7778,83.2536,262.5556,83.116,252.3333,83.9939,242.1111,83.1378,231.8889,82.9694,221.6667,83.5408,211.4444,82.6457,201.2222,82.7934,191,83.9615,180.7778,83.7482,170.5556,84.047,160.3333,82.9907,150.1111,83.6317,139.8889,83.9029,129.6667,82.8401,119.4444,83.2166,109.2222,83.4385,99,83.3125,99.0831,83.5132,98.6459,83.1648,98.3519,83.1621,97.8687,82.7026,97.4994,82.5181,97.2322,82.5803,97.3873,82.6445,96.865,82.1353,97.0961,81.9381,96.8565,81.546,96.5639,81.1319,96.5,80.8125,96.1462,80.8125,96.9588,70.625,96.2007,60.4375,97.0919,50.25,95.9473,40.0625,97.1174,29.875,96.9843,19.6875,96.5,9.5,96.5754,9.5312,96.661,9.1525,97.0167,8.8856,97.1283,8.5176,97.1379,8.1074,97.2322,7.7322,97.2664,7.8148,97.5692,7.5457,98.0307,7.66,98.3126,7.3406,98.6685,7.1996,99,7" style="stroke:#181818;stroke-width:0.5;"/><polygon fill="#C2C2C2" points="151.3608,31.0272,149.7484,33.2304,147.8412,36.4573,145.1136,38.632,142.2474,39.8212,139.962,39.9244,137.0247,38.4371,134.2532,37.4655,132.1495,35.4927,131.0461,33.2343,130.3917,31.4361,129.7506,29.0873,128.71,27.066,129.5096,25.0926,130.2102,22.9308,132.8393,21.221,134.689,19.0027,136.9784,18.266,139.7001,17.6316,143.1904,18.0085,145.1021,18.9101,147.3247,19.3188,150.0272,22.0875,150.9693,25.0105,151.3786,27.0049,150.915,30.2914" style="stroke:#181818;stroke-width:1.0;"/><path d="M143.0656,24.2266 Q143.2219,24.0078 143.4094,23.8984 Q143.5969,23.7891 143.8156,23.7891 Q144.1906,23.7891 144.425,24.0547 Q144.6594,24.3047 144.6594,24.9141 L144.6594,26.3672 Q144.6594,26.9766 144.425,27.2422 Q144.1906,27.5078 143.8156,27.5078 Q143.4719,27.5078 143.2688,27.3047 Q143.0656,27.1172 142.9563,26.6016 Q142.9094,26.2422 142.7219,26.0547 Q142.3938,25.6797 141.7844,25.4609 Q141.175,25.2422 140.55,25.2422 Q139.7844,25.2422 139.1438,25.5703 Q138.5188,25.8984 138.0188,26.6484 Q137.5344,27.3984 137.5344,28.4297 L137.5344,29.5234 Q137.5344,30.7578 138.425,31.5859 Q139.3156,32.3984 140.9094,32.3984 Q141.8469,32.3984 142.5031,32.1484 Q142.8938,31.9922 143.3156,31.5547 Q143.5813,31.2891 143.7219,31.2109 Q143.8781,31.1328 144.0813,31.1328 Q144.4094,31.1328 144.6594,31.3984 Q144.925,31.6484 144.925,31.9922 Q144.925,32.3359 144.5813,32.7422 Q144.0813,33.3203 143.2844,33.6484 Q142.2063,34.1016 140.9094,34.1016 Q139.3938,34.1016 138.1906,33.4766 Q137.2063,32.9766 136.5188,31.9141 Q135.8313,30.8359 135.8313,29.5547 L135.8313,28.3984 Q135.8313,27.0703 136.4406,25.9297 Q137.0656,24.7734 138.1594,24.1641 Q139.2531,23.5391 140.4875,23.5391 Q141.2219,23.5391 141.8625,23.7109 Q142.5188,23.8672 143.0656,24.2266 Z " fill="#000000"/><text fill="#000000" font-family="FG Virgil" font-size="12" font-style="italic" lengthAdjust="spacing" textLength="71" x="171.7" y="24.457">«http server»</text><text fill="#000000" font-family="FG Virgil" font-size="14" lengthAdjust="spacing" textLength="93" x="160.7" y="41.627">HttpServerAjax</text><path d="M97.5,49.7031 L97.5,49.9834 L107.3421,49.1507 L117.1842,49.9608 L127.0263,50.236 L136.8684,48.7519 L146.7105,49.5995 L156.5526,49.1345 L166.3947,49.1918 L176.2368,49.6122 L186.0789,48.7813 L195.9211,50.4413 L205.7632,48.8628 L215.6053,49.4394 L225.4474,50.2791 L235.2895,49.5888 L245.1316,49.7941 L254.9737,49.6605 L264.8158,49.9412 L274.6579,50.022 L284.5,49.7031 " fill="#F1F1F1" style="stroke:#181818;stroke-width:0.5;"/><path d="M97.5,57.7031 L97.5,57.9834 L107.3421,57.1507 L117.1842,57.9608 L127.0263,58.236 L136.8684,56.7519 L146.7105,57.5995 L156.5526,57.1345 L166.3947,57.1918 L176.2368,57.6122 L186.0789,56.7813 L195.9211,58.4413 L205.7632,56.8628 L215.6053,57.4394 L225.4474,58.2791 L235.2895,57.5888 L245.1316,57.7941 L254.9737,57.6605 L264.8158,57.9412 L274.6579,58.022 L284.5,57.7031 " fill="#F1F1F1" style="stroke:#181818;stroke-width:0.5;"/><text fill="#000000" font-family="FG Virgil" font-size="14" lengthAdjust="spacing" textLength="177" x="102.5" y="76.2363">getBoardById(String, String)</text></g><!--MD5=[f097a9da547c6f19ba7a5c97c093eb18]
class SessionManager--><g id="elem_SessionManager"><polygon fill="#F1F1F1" points="9.5,166,9.5,166.2102,19.4375,165.5857,29.375,166.1933,39.3125,166.3997,49.25,165.2866,59.1875,165.9223,69.125,165.5735,79.0625,165.6165,89,165.9318,98.9375,165.3086,108.875,166.5536,118.8125,165.3697,128.75,165.8022,138.6875,166.4319,148.625,165.9142,158.5625,166.0682,168.5,166,168.4959,165.9902,168.8763,166.2014,169.2376,166.3665,169.6354,166.6197,169.9998,166.7924,170.2678,166.7322,170.477,166.8189,170.4926,167.1183,170.7034,167.4985,170.9234,167.8825,170.6315,168.0545,171,168.5,171.6785,168.5,170.7035,178.6016,171.5338,188.7031,170.505,198.8047,170.9315,208.9063,171.7416,219.0078,171,229.1094,170.985,229.1032,170.886,229.4764,170.8114,229.8597,170.6888,230.2231,170.413,230.5231,170.2678,230.8771,170.3044,230.9656,169.8412,230.8473,169.5969,231.2576,169.277,231.4853,168.9103,231.5998,168.5,231.6094,168.5,232.2224,158.5625,231.1263,148.625,230.9572,138.6875,230.988,128.75,231.5505,118.8125,231.4128,108.875,232.2908,98.9375,231.4347,89,231.2663,79.0625,231.8376,69.125,230.9425,59.1875,231.0902,49.25,232.2583,39.3125,232.045,29.375,232.3439,19.4375,231.2876,9.5,231.6094,9.5407,231.7077,9.2218,231.6448,8.7326,231.171,8.4271,231.1405,8.1019,231.0624,7.7322,230.8771,7.9329,230.9603,7.5845,230.5231,7.5818,230.229,7.1223,229.7458,6.9379,229.3765,7,229.1094,7.5036,229.1094,6.2831,219.0078,7.509,208.9063,7.2066,198.8047,6.7321,188.7031,6.6462,178.6016,7,168.5,7.1413,168.5585,7.0543,168.1083,7.4752,167.8684,7.2691,167.3688,7.7759,167.1645,7.7322,166.7322,7.794,166.8814,8.117,166.6612,8.4454,166.4539,8.8856,166.5167,9.2247,166.3354,9.5,166" style="stroke:#181818;stroke-width:0.5;"/><polygon fill="#C2C2C2" points="44.7608,184.6756,43.1484,186.8788,41.2412,190.1057,38.5136,192.2804,35.6474,193.4696,33.362,193.5728,30.4247,192.0855,27.6532,191.1139,25.5495,189.1412,24.4461,186.8828,23.7917,185.0845,23.1506,182.7357,22.11,180.7145,22.9096,178.741,23.6102,176.5792,26.2393,174.8695,28.089,172.6511,30.3784,171.9144,33.1001,171.2801,36.5904,171.657,38.5021,172.5585,40.7247,172.9672,43.4272,175.736,44.3693,178.659,44.7786,180.6534,44.315,183.9399" style="stroke:#181818;stroke-width:1.0;"/><path d="M36.4656,177.875 Q36.6219,177.6563 36.8094,177.5469 Q36.9969,177.4375 37.2156,177.4375 Q37.5906,177.4375 37.825,177.7031 Q38.0594,177.9531 38.0594,178.5625 L38.0594,180.0156 Q38.0594,180.625 37.825,180.8906 Q37.5906,181.1563 37.2156,181.1563 Q36.8719,181.1563 36.6688,180.9531 Q36.4656,180.7656 36.3563,180.25 Q36.3094,179.8906 36.1219,179.7031 Q35.7938,179.3281 35.1844,179.1094 Q34.575,178.8906 33.95,178.8906 Q33.1844,178.8906 32.5438,179.2188 Q31.9188,179.5469 31.4188,180.2969 Q30.9344,181.0469 30.9344,182.0781 L30.9344,183.1719 Q30.9344,184.4063 31.825,185.2344 Q32.7156,186.0469 34.3094,186.0469 Q35.2469,186.0469 35.9031,185.7969 Q36.2938,185.6406 36.7156,185.2031 Q36.9813,184.9375 37.1219,184.8594 Q37.2781,184.7813 37.4813,184.7813 Q37.8094,184.7813 38.0594,185.0469 Q38.325,185.2969 38.325,185.6406 Q38.325,185.9844 37.9813,186.3906 Q37.4813,186.9688 36.6844,187.2969 Q35.6063,187.75 34.3094,187.75 Q32.7938,187.75 31.5906,187.125 Q30.6063,186.625 29.9188,185.5625 Q29.2313,184.4844 29.2313,183.2031 L29.2313,182.0469 Q29.2313,180.7188 29.8406,179.5781 Q30.4656,178.4219 31.5594,177.8125 Q32.6531,177.1875 33.8875,177.1875 Q34.6219,177.1875 35.2625,177.3594 Q35.9188,177.5156 36.4656,177.875 Z " fill="#000000"/><text fill="#000000" font-family="FG Virgil" font-size="14" lengthAdjust="spacing" textLength="106" x="50.3" y="187.7285">SessionManager</text><path d="M8,198 L8,198.2802 L18.125,197.4476 L28.25,198.2577 L38.375,198.5329 L48.5,197.0488 L58.625,197.8964 L68.75,197.4313 L78.875,197.4887 L89,197.9091 L99.125,197.0782 L109.25,198.7382 L119.375,197.1596 L129.5,197.7363 L139.625,198.5759 L149.75,197.8856 L159.875,198.091 L170,198 " fill="#F1F1F1" style="stroke:#181818;stroke-width:0.5;"/><path d="M8,206 L8,206.2802 L18.125,205.4476 L28.25,206.2577 L38.375,206.5329 L48.5,205.0488 L58.625,205.8964 L68.75,205.4313 L78.875,205.4887 L89,205.9091 L99.125,205.0782 L109.25,206.7382 L119.375,205.1596 L129.5,205.7363 L139.625,206.5759 L149.75,205.8856 L159.875,206.091 L170,206 " fill="#F1F1F1" style="stroke:#181818;stroke-width:0.5;"/><text fill="#000000" font-family="FG Virgil" font-size="14" lengthAdjust="spacing" textLength="152" x="13" y="224.5332">getUserByToken(String)</text></g><!--MD5=[9301c5862bc4d8de730c74455b55c34b]
class GetBoardsController--><g id="elem_GetBoardsController"><polygon fill="#F1F1F1" points="208.5,161,208.5,161.2102,218.5588,160.5857,228.6176,161.1933,238.6765,161.3997,248.7353,160.2866,258.7941,160.9223,268.8529,160.5735,278.9118,160.6165,288.9706,160.9318,299.0294,160.3086,309.0882,161.5536,319.1471,160.3697,329.2059,160.8022,339.2647,161.4319,349.3235,160.9142,359.3824,161.0682,369.4412,160.9681,379.5,161,379.5228,161.055,379.8841,161.2201,380.2818,161.4733,380.6463,161.646,381.0009,161.795,381.2678,161.7322,381.3462,161.7647,381.557,162.1449,381.7769,162.5289,381.485,162.7009,382.0625,163.233,382,163.5,381.7035,163.5,382.5338,173.6875,381.505,183.875,381.9315,194.0625,382.7416,204.25,381.9513,214.4375,382.1053,224.625,382,234.8125,382.1043,234.8557,381.9817,235.2191,381.7059,235.5191,381.6491,235.9098,381.2379,236.1537,381.2678,236.5803,381.304,236.6678,380.9841,236.8955,380.6174,237.0101,380.2853,237.2084,379.7919,237.0173,379.5,237.3125,379.5,236.6603,369.4412,236.6911,359.3824,237.2536,349.3235,237.116,339.2647,237.9939,329.2059,237.1378,319.1471,236.9694,309.0882,237.5408,299.0294,236.6457,288.9706,236.7934,278.9118,237.9615,268.8529,237.7482,258.7941,238.047,248.7353,236.9907,238.6765,237.6317,228.6176,237.9029,218.5588,236.8401,208.5,237.3125,208.4878,237.283,208.1625,237.2049,207.876,237.2203,207.4388,236.8719,207.1448,236.8692,206.7322,236.5803,206.5617,236.5096,206.3772,236.1403,206.5944,235.9374,206.0721,235.4282,206.3032,235.231,206,234.8125,206.2066,234.8125,205.7321,224.625,205.6462,214.4375,206.4588,204.25,205.7007,194.0625,206.5919,183.875,205.4473,173.6875,206,163.5,206.1901,163.5788,206.2956,163.2082,206.3683,162.8241,206.4539,162.4454,206.8096,162.1785,206.7322,161.7322,206.8105,161.9212,207.1074,161.6379,207.4736,161.5219,207.7763,161.2528,208.2378,161.3671,208.5,161" style="stroke:#181818;stroke-width:0.5;"/><polygon fill="#C2C2C2" points="238.3608,185.0272,236.7484,187.2304,234.8412,190.4573,232.1136,192.632,229.2474,193.8212,226.962,193.9244,224.0247,192.4371,221.2532,191.4655,219.1495,189.4927,218.0461,187.2343,217.3917,185.4361,216.7506,183.0873,215.71,181.066,216.5096,179.0926,217.2102,176.9308,219.8393,175.221,221.689,173.0027,223.9784,172.266,226.7001,171.6316,230.1904,172.0085,232.1021,172.9101,234.3247,173.3188,237.0272,176.0875,237.9693,179.0105,238.3786,181.0049,237.915,184.2914" style="stroke:#181818;stroke-width:1.0;"/><path d="M230.0656,178.2266 Q230.2219,178.0078 230.4094,177.8984 Q230.5969,177.7891 230.8156,177.7891 Q231.1906,177.7891 231.425,178.0547 Q231.6594,178.3047 231.6594,178.9141 L231.6594,180.3672 Q231.6594,180.9766 231.425,181.2422 Q231.1906,181.5078 230.8156,181.5078 Q230.4719,181.5078 230.2688,181.3047 Q230.0656,181.1172 229.9563,180.6016 Q229.9094,180.2422 229.7219,180.0547 Q229.3938,179.6797 228.7844,179.4609 Q228.175,179.2422 227.55,179.2422 Q226.7844,179.2422 226.1438,179.5703 Q225.5188,179.8984 225.0188,180.6484 Q224.5344,181.3984 224.5344,182.4297 L224.5344,183.5234 Q224.5344,184.7578 225.425,185.5859 Q226.3156,186.3984 227.9094,186.3984 Q228.8469,186.3984 229.5031,186.1484 Q229.8938,185.9922 230.3156,185.5547 Q230.5813,185.2891 230.7219,185.2109 Q230.8781,185.1328 231.0813,185.1328 Q231.4094,185.1328 231.6594,185.3984 Q231.925,185.6484 231.925,185.9922 Q231.925,186.3359 231.5813,186.7422 Q231.0813,187.3203 230.2844,187.6484 Q229.2063,188.1016 227.9094,188.1016 Q226.3938,188.1016 225.1906,187.4766 Q224.2063,186.9766 223.5188,185.9141 Q222.8313,184.8359 222.8313,183.5547 L222.8313,182.3984 Q222.8313,181.0703 223.4406,179.9297 Q224.0656,178.7734 225.1594,178.1641 Q226.2531,177.5391 227.4875,177.5391 Q228.2219,177.5391 228.8625,177.7109 Q229.5188,177.8672 230.0656,178.2266 Z " fill="#000000"/><text fill="#000000" font-family="FG Virgil" font-size="12" font-style="italic" lengthAdjust="spacing" textLength="74" x="270.7" y="178.457">«application»</text><text fill="#000000" font-family="FG Virgil" font-size="14" lengthAdjust="spacing" textLength="130" x="242.7" y="195.627">GetBoardsController</text><path d="M207,203.7031 L207,203.9834 L217.2353,203.1507 L227.4706,203.9608 L237.7059,204.236 L247.9412,202.7519 L258.1765,203.5995 L268.4118,203.1345 L278.6471,203.1918 L288.8824,203.6122 L299.1176,202.7813 L309.3529,204.4413 L319.5882,202.8628 L329.8235,203.4394 L340.0588,204.2791 L350.2941,203.5888 L360.5294,203.7941 L370.7647,203.6605 L381,203.7031 " fill="#F1F1F1" style="stroke:#181818;stroke-width:0.5;"/><path d="M207,211.7031 L207,211.9834 L217.2353,211.1507 L227.4706,211.9608 L237.7059,212.236 L247.9412,210.7519 L258.1765,211.5995 L268.4118,211.1345 L278.6471,211.1918 L288.8824,211.6122 L299.1176,210.7813 L309.3529,212.4413 L319.5882,210.8628 L329.8235,211.4394 L340.0588,212.2791 L350.2941,211.5888 L360.5294,211.7941 L370.7647,211.6605 L381,211.7031 " fill="#F1F1F1" style="stroke:#181818;stroke-width:0.5;"/><text fill="#000000" font-family="FG Virgil" font-size="14" lengthAdjust="spacing" textLength="164" x="212" y="230.2363">getBoardById(Long, User)</text></g><!--MD5=[343839bb48731e46d0fda742d45fdd31]
class BoardRepository--><g id="elem_BoardRepository"><polygon fill="#F1F1F1" points="227.5,315,227.5,315.2102,237.7308,314.5857,247.9615,315.1933,258.1923,315.3997,268.4231,314.2866,278.6538,314.9223,288.8846,314.5735,299.1154,314.6165,309.3462,314.9318,319.5769,314.3086,329.8077,315.5536,340.0385,314.3697,350.2692,314.8022,360.5,315,360.5551,315.133,360.8426,315.12,361.2158,315.3139,361.5566,315.4295,361.937,315.6408,362.2678,315.7322,362.3414,315.7627,362.5946,316.1605,362.7673,316.5249,362.9163,316.8795,362.932,317.1789,363,317.5,363.4636,317.5,363.7022,327.6875,362.2788,337.875,363.6785,348.0625,362.7035,358.25,363.5338,368.4375,362.505,378.625,363,388.8125,362.9789,388.8038,363.0819,389.2607,362.6921,389.5134,362.5931,389.8866,362.5185,390.2699,362.2678,390.5803,362.3209,390.7084,361.9137,390.7255,361.5973,390.9616,361.1341,390.8433,360.8898,391.2536,360.5,391.3125,360.5,391.8607,350.2692,391.757,340.0385,391.9255,329.8077,390.8294,319.5769,390.6603,309.3462,390.6911,299.1154,391.2536,288.8846,391.116,278.6538,391.9939,268.4231,391.1378,258.1923,390.9694,247.9615,391.5408,237.7308,390.6457,227.5,391.3125,227.4338,391.1526,227.2292,391.3659,226.8485,391.1538,226.533,391.0994,226.0447,390.6276,225.7322,390.5803,225.8305,390.621,225.7676,390.302,225.2939,389.8129,225.2634,389.5074,225.1852,389.1821,225,388.8125,225.6518,388.8125,224.9958,378.625,225.4626,368.4375,224.4462,358.25,224.3227,348.0625,225.5036,337.875,224.2831,327.6875,225,317.5,225.1567,317.5649,225.2101,317.1728,225.2104,316.7587,225.3304,316.3942,225.7271,316.1443,225.7322,315.7322,225.694,315.6401,226.1613,315.7681,226.3688,315.2691,226.8717,315.483,227.2082,315.2956,227.5,315" style="stroke:#181818;stroke-width:0.5;"/><polygon fill="#C2C2C2" points="251.0608,339.0272,249.4484,341.2304,247.5412,344.4573,244.8136,346.632,241.9474,347.8212,239.662,347.9244,236.7247,346.4371,233.9532,345.4655,231.8495,343.4927,230.7461,341.2343,230.0917,339.4361,229.4506,337.0873,228.41,335.066,229.2096,333.0926,229.9102,330.9308,232.5393,329.221,234.389,327.0027,236.6784,326.266,239.4001,325.6316,242.8904,326.0085,244.8021,326.9101,247.0247,327.3188,249.7272,330.0875,250.6693,333.0105,251.0786,335.0049,250.615,338.2914" style="stroke:#181818;stroke-width:1.0;"/><path d="M242.7656,332.2266 Q242.9219,332.0078 243.1094,331.8984 Q243.2969,331.7891 243.5156,331.7891 Q243.8906,331.7891 244.125,332.0547 Q244.3594,332.3047 244.3594,332.9141 L244.3594,334.3672 Q244.3594,334.9766 244.125,335.2422 Q243.8906,335.5078 243.5156,335.5078 Q243.1719,335.5078 242.9688,335.3047 Q242.7656,335.1172 242.6563,334.6016 Q242.6094,334.2422 242.4219,334.0547 Q242.0938,333.6797 241.4844,333.4609 Q240.875,333.2422 240.25,333.2422 Q239.4844,333.2422 238.8438,333.5703 Q238.2188,333.8984 237.7188,334.6484 Q237.2344,335.3984 237.2344,336.4297 L237.2344,337.5234 Q237.2344,338.7578 238.125,339.5859 Q239.0156,340.3984 240.6094,340.3984 Q241.5469,340.3984 242.2031,340.1484 Q242.5938,339.9922 243.0156,339.5547 Q243.2813,339.2891 243.4219,339.2109 Q243.5781,339.1328 243.7813,339.1328 Q244.1094,339.1328 244.3594,339.3984 Q244.625,339.6484 244.625,339.9922 Q244.625,340.3359 244.2813,340.7422 Q243.7813,341.3203 242.9844,341.6484 Q241.9063,342.1016 240.6094,342.1016 Q239.0938,342.1016 237.8906,341.4766 Q236.9063,340.9766 236.2188,339.9141 Q235.5313,338.8359 235.5313,337.5547 L235.5313,336.3984 Q235.5313,335.0703 236.1406,333.9297 Q236.7656,332.7734 237.8594,332.1641 Q238.9531,331.5391 240.1875,331.5391 Q240.9219,331.5391 241.5625,331.7109 Q242.2188,331.8672 242.7656,332.2266 Z " fill="#000000"/><text fill="#000000" font-family="FG Virgil" font-size="12" font-style="italic" lengthAdjust="spacing" textLength="68" x="273" y="332.457">«repository»</text><text fill="#000000" font-family="FG Virgil" font-size="14" lengthAdjust="spacing" textLength="106" x="254" y="349.627">BoardRepository</text><path d="M226,357.7031 L226,357.9834 L235.7143,357.1507 L245.4286,357.9608 L255.1429,358.236 L264.8571,356.7519 L274.5714,357.5995 L284.2857,357.1345 L294,357.1918 L303.7143,357.6122 L313.4286,356.7813 L323.1429,358.4413 L332.8571,356.8628 L342.5714,357.4394 L352.2857,358.2791 L362,357.7031 " fill="#F1F1F1" style="stroke:#181818;stroke-width:0.5;"/><path d="M226,365.7031 L226,365.9834 L235.7143,365.1507 L245.4286,365.9608 L255.1429,366.236 L264.8571,364.7519 L274.5714,365.5995 L284.2857,365.1345 L294,365.1918 L303.7143,365.6122 L313.4286,364.7813 L323.1429,366.4413 L332.8571,364.8628 L342.5714,365.4394 L352.2857,366.2791 L362,365.7031 " fill="#F1F1F1" style="stroke:#181818;stroke-width:0.5;"/><text fill="#000000" font-family="FG Virgil" font-size="14" lengthAdjust="spacing" textLength="99" x="231" y="384.2363">ofIdentity(Long)</text></g><!--MD5=[3fd616f346a44cd59a91eb10b19e157c]
class User--><g id="elem_User"><polygon fill="#F1F1F1" points="49.5,323.5,49.5,323.7102,59.375,323.0857,69.25,323.6933,79.125,323.8997,89,322.7866,98.875,323.4223,108.75,323.0735,118.625,323.1165,128.5,323.5,128.4913,323.479,128.7654,323.4335,129.2777,323.9634,129.4803,323.7452,129.889,324.0249,130.2678,324.2322,130.4008,324.2873,130.3878,324.5748,130.5817,324.948,130.6973,325.2888,130.9085,325.6692,131,326,131.2391,326,131.5857,336.7406,131.6711,347.4813,131.6793,358.2219,131.2546,368.9625,131,379.7031,131.1428,379.7623,131.0698,380.1463,130.485,380.3182,130.7696,380.8503,130.3229,381.0795,130.2678,381.4709,130.3359,381.6353,129.8511,381.4649,129.5519,381.7427,129.3017,382.1386,128.8473,382.0417,128.5,382.2031,128.5,382.3084,118.625,382.5418,108.75,382.6194,98.875,382.1992,89,382.4903,79.125,381.6307,69.25,382.4875,59.375,382.7513,49.5,382.2031,49.5567,382.34,49.2246,382.2455,48.7313,381.7615,48.3561,381.5629,48.0065,381.426,47.7322,381.4709,47.7141,381.4634,47.5253,381.0923,47.6492,380.8507,47.2391,380.3879,47.0408,380.0129,47,379.7031,47.2283,379.7031,46.3332,368.9625,46.4809,358.2219,47.649,347.4813,47.4357,336.7406,47,326,47.2262,326.0937,47.0473,325.6054,47.3912,325.3336,47.6212,325.0147,47.4403,324.5255,47.7322,324.2322,47.72,324.2027,48.1019,324.1246,48.5225,324.1401,48.7924,323.7916,49.2055,323.7889,49.5,323.5" style="stroke:#181818;stroke-width:0.5;"/><polygon fill="#C2C2C2" points="73.0608,347.5272,71.4484,349.7304,69.5412,352.9573,66.8136,355.132,63.9474,356.3212,61.662,356.4244,58.7247,354.9371,55.9532,353.9655,53.8495,351.9927,52.7461,349.7343,52.0917,347.9361,51.4506,345.5873,50.41,343.566,51.2096,341.5926,51.9102,339.4308,54.5393,337.721,56.389,335.5027,58.6784,334.766,61.4001,334.1316,64.8904,334.5085,66.8021,335.4101,69.0247,335.8188,71.7272,338.5875,72.6693,341.5105,73.0786,343.5049,72.615,346.7914" style="stroke:#181818;stroke-width:1.0;"/><path d="M64.7656,340.7266 Q64.9219,340.5078 65.1094,340.3984 Q65.2969,340.2891 65.5156,340.2891 Q65.8906,340.2891 66.125,340.5547 Q66.3594,340.8047 66.3594,341.4141 L66.3594,342.8672 Q66.3594,343.4766 66.125,343.7422 Q65.8906,344.0078 65.5156,344.0078 Q65.1719,344.0078 64.9688,343.8047 Q64.7656,343.6172 64.6563,343.1016 Q64.6094,342.7422 64.4219,342.5547 Q64.0938,342.1797 63.4844,341.9609 Q62.875,341.7422 62.25,341.7422 Q61.4844,341.7422 60.8438,342.0703 Q60.2188,342.3984 59.7188,343.1484 Q59.2344,343.8984 59.2344,344.9297 L59.2344,346.0234 Q59.2344,347.2578 60.125,348.0859 Q61.0156,348.8984 62.6094,348.8984 Q63.5469,348.8984 64.2031,348.6484 Q64.5938,348.4922 65.0156,348.0547 Q65.2813,347.7891 65.4219,347.7109 Q65.5781,347.6328 65.7813,347.6328 Q66.1094,347.6328 66.3594,347.8984 Q66.625,348.1484 66.625,348.4922 Q66.625,348.8359 66.2813,349.2422 Q65.7813,349.8203 64.9844,350.1484 Q63.9063,350.6016 62.6094,350.6016 Q61.0938,350.6016 59.8906,349.9766 Q58.9063,349.4766 58.2188,348.4141 Q57.5313,347.3359 57.5313,346.0547 L57.5313,344.8984 Q57.5313,343.5703 58.1406,342.4297 Q58.7656,341.2734 59.8594,340.6641 Q60.9531,340.0391 62.1875,340.0391 Q62.9219,340.0391 63.5625,340.2109 Q64.2188,340.3672 64.7656,340.7266 Z " fill="#000000"/><text fill="#000000" font-family="FG Virgil" font-size="12" font-style="italic" lengthAdjust="spacing" textLength="56" x="74" y="340.957">«domain»</text><text fill="#000000" font-family="FG Virgil" font-size="14" lengthAdjust="spacing" textLength="29" x="87.5" y="358.127">User</text><path d="M48,366.2031 L48,366.4834 L58.25,365.6507 L68.5,366.4608 L78.75,366.736 L89,365.2519 L99.25,366.0995 L109.5,365.6345 L119.75,365.6918 L130,366.2031 " fill="#F1F1F1" style="stroke:#181818;stroke-width:0.5;"/><path d="M48,374.2031 L48,374.4834 L58.25,373.6507 L68.5,374.4608 L78.75,374.736 L89,373.2519 L99.25,374.0995 L109.5,373.6345 L119.75,373.6918 L130,374.2031 " fill="#F1F1F1" style="stroke:#181818;stroke-width:0.5;"/></g><!--MD5=[9563755d011c5cec7ec66dc53565a59e]
class Board--><g id="elem_Board"><polygon fill="#F1F1F1" points="198.5,452,198.5,452.2102,208.5526,451.5857,218.6053,452.1933,228.6579,452.3997,238.7105,451.2866,248.7632,451.9223,258.8158,451.5735,268.8684,451.6165,278.9211,451.9318,288.9737,451.3086,299.0263,452.5536,309.0789,451.3697,319.1316,451.8022,329.1842,452.4319,339.2368,451.9142,349.2895,452.0682,359.3421,451.9681,369.3947,452.1785,379.4474,452.2391,389.5,452,389.5747,452.1804,389.9392,452.3531,390.2938,452.5021,390.5931,452.5178,390.9733,452.7286,391.2678,452.7322,391.484,452.8218,391.1921,452.9938,391.7696,453.5259,391.6158,453.7551,392.0179,454.2145,392,454.5,391.505,454.5,391.9315,464.6875,392.7416,474.875,391.9513,485.0625,392.1053,495.25,392.3386,505.4375,392.4162,515.625,392,525.8125,391.9988,525.812,391.942,526.2027,391.5308,526.4466,391.6482,526.9094,391.583,527.2966,391.2678,527.5803,391.3245,527.7172,390.9924,527.9155,390.499,527.7244,390.1239,527.8188,389.7743,527.9747,389.5,528.3125,389.5,528.2536,379.4474,528.116,369.3947,528.9939,359.3421,528.1378,349.2895,527.9694,339.2368,528.5408,329.1842,527.6457,319.1316,527.7934,309.0789,528.9615,299.0263,528.7482,288.9737,529.047,278.9211,527.9907,268.8684,528.6317,258.8158,528.9029,248.7632,527.8401,238.7105,528.2166,228.6579,528.4385,218.6053,528.9643,208.5526,528.3083,198.5,528.3125,198.559,528.455,198.0758,527.9955,197.7065,527.811,197.5036,528.0283,196.9943,527.5059,196.7322,527.5803,196.889,527.6452,196.6494,527.2531,196.3568,526.839,196.1839,526.4745,196.2877,526.2246,196,525.8125,195.7007,525.8125,196.5919,515.625,195.4473,505.4375,196.6174,495.25,196.4843,485.0625,196.245,474.875,196.0472,464.6875,196,454.5,196.2238,454.5927,196.3354,454.2247,196.345,453.8145,196.5219,453.4736,196.5457,453.0692,196.7322,452.7322,196.8236,452.9529,197.1055,452.6335,197.4614,452.4925,197.7153,452.1055,198.0948,452.0217,198.5,452" style="stroke:#181818;stroke-width:0.5;"/><polygon fill="#C2C2C2" points="274.8108,476.0272,273.1984,478.2304,271.2912,481.4573,268.5636,483.632,265.6974,484.8212,263.412,484.9244,260.4747,483.4371,257.7032,482.4655,255.5995,480.4927,254.4961,478.2343,253.8417,476.4361,253.2006,474.0873,252.16,472.066,252.9596,470.0926,253.6602,467.9308,256.2893,466.221,258.139,464.0027,260.4284,463.266,263.1501,462.6316,266.6404,463.0085,268.5521,463.9101,270.7747,464.3188,273.4772,467.0875,274.4193,470.0105,274.8286,472.0049,274.365,475.2914" style="stroke:#181818;stroke-width:1.0;"/><path d="M266.5156,469.2266 Q266.6719,469.0078 266.8594,468.8984 Q267.0469,468.7891 267.2656,468.7891 Q267.6406,468.7891 267.875,469.0547 Q268.1094,469.3047 268.1094,469.9141 L268.1094,471.3672 Q268.1094,471.9766 267.875,472.2422 Q267.6406,472.5078 267.2656,472.5078 Q266.9219,472.5078 266.7188,472.3047 Q266.5156,472.1172 266.4063,471.6016 Q266.3594,471.2422 266.1719,471.0547 Q265.8438,470.6797 265.2344,470.4609 Q264.625,470.2422 264,470.2422 Q263.2344,470.2422 262.5938,470.5703 Q261.9688,470.8984 261.4688,471.6484 Q260.9844,472.3984 260.9844,473.4297 L260.9844,474.5234 Q260.9844,475.7578 261.875,476.5859 Q262.7656,477.3984 264.3594,477.3984 Q265.2969,477.3984 265.9531,477.1484 Q266.3438,476.9922 266.7656,476.5547 Q267.0313,476.2891 267.1719,476.2109 Q267.3281,476.1328 267.5313,476.1328 Q267.8594,476.1328 268.1094,476.3984 Q268.375,476.6484 268.375,476.9922 Q268.375,477.3359 268.0313,477.7422 Q267.5313,478.3203 266.7344,478.6484 Q265.6563,479.1016 264.3594,479.1016 Q262.8438,479.1016 261.6406,478.4766 Q260.6563,477.9766 259.9688,476.9141 Q259.2813,475.8359 259.2813,474.5547 L259.2813,473.3984 Q259.2813,472.0703 259.8906,470.9297 Q260.5156,469.7734 261.6094,469.1641 Q262.7031,468.5391 263.9375,468.5391 Q264.6719,468.5391 265.3125,468.7109 Q265.9688,468.8672 266.5156,469.2266 Z " fill="#000000"/><text fill="#000000" font-family="FG Virgil" font-size="12" font-style="italic" lengthAdjust="spacing" textLength="56" x="282.25" y="469.457">«domain»</text><text fill="#000000" font-family="FG Virgil" font-size="14" lengthAdjust="spacing" textLength="38" x="291.25" y="486.627">Board</text><path d="M197,494.7031 L197,494.9834 L207.2105,494.1507 L217.4211,494.9608 L227.6316,495.236 L237.8421,493.7519 L248.0526,494.5995 L258.2632,494.1345 L268.4737,494.1918 L278.6842,494.6122 L288.8947,493.7813 L299.1053,495.4413 L309.3158,493.8628 L319.5263,494.4394 L329.7368,495.2791 L339.9474,494.5888 L350.1579,494.7941 L360.3684,494.6605 L370.5789,494.9412 L380.7895,495.022 L391,494.7031 " fill="#F1F1F1" style="stroke:#181818;stroke-width:0.5;"/><path d="M197,502.7031 L197,502.9834 L207.2105,502.1507 L217.4211,502.9608 L227.6316,503.236 L237.8421,501.7519 L248.0526,502.5995 L258.2632,502.1345 L268.4737,502.1918 L278.6842,502.6122 L288.8947,501.7813 L299.1053,503.4413 L309.3158,501.8628 L319.5263,502.4394 L329.7368,503.2791 L339.9474,502.5888 L350.1579,502.7941 L360.3684,502.6605 L370.5789,502.9412 L380.7895,503.022 L391,502.7031 " fill="#F1F1F1" style="stroke:#181818;stroke-width:0.5;"/><text fill="#000000" font-family="FG Virgil" font-size="14" lengthAdjust="spacing" textLength="184" x="202" y="521.2363">userHasAnyPermission(User)</text></g><!--MD5=[5cbfd6ac3a9b83d2a033fde98526256c]
link HttpServerAjax to GetBoardsController--><g id="link_HttpServerAjax_GetBoardsController"><path d="M217.3,83.08 L217.3768,83.1331 L221.2886,88.9592 L225.6506,95.0969 L229.8661,101.1331 L233.5993,106.8356 L238,113 L237.9713,112.9807 L240.7677,117.2445 L243.7086,121.6054 L246.7499,126.0338 L249.445,130.2295 L252.625,134.7513 L252.8302,134.887 L255.2504,138.9184 L258.2697,143.3463 L261.3621,147.8224 L264.0292,152.0172 L266.92,156.36 " fill="none" style="stroke:#181818;stroke-width:1.0;"/><polygon fill="#181818" points="269.7,160.61,269.7691,160.6213,269.2463,158.6437,269.1287,156.7323,268.8792,154.7994,268.1956,152.7956,268.1128,150.8899,268.0874,150.8846,267.743,151.9685,267.5263,153.079,267.3986,154.2081,266.9646,155.2733,266.9595,156.4279,266.9971,156.6086,265.8091,155.9916,264.7309,155.9021,263.6661,155.8769,262.5233,155.4773,261.4215,155.2746,261.4338,155.2938,263.0714,156.3328,264.7651,157.4588,266.4318,158.5429,268.1501,159.707,269.7,160.61" style="stroke:#181818;stroke-width:1.0;"/><text fill="#000000" font-family="FG Virgil" font-size="13" lengthAdjust="spacing" textLength="73" x="249" y="127.4951">theController</text></g><!--MD5=[886edeef38e246f68555233ed43ef7bd]
link HttpServerAjax to SessionManager--><g id="link_HttpServerAjax_SessionManager"><path d="M159.32,83.08 L159.3938,83.1373 L156.8803,85.9223 L154.7994,89.0432 L152.5776,92.0547 L149.8925,94.7066 L147.8488,97.8563 L147.8207,97.8361 L145.5249,100.7746 L143.3707,103.8145 L141.3149,106.9249 L138.92,109.7923 L137,113 L137.206,113.1345 L135.2233,115.2087 L133.8422,117.6756 L132.5344,120.1905 L130.7996,122.4265 L129.2894,124.8092 L129.3152,124.825 L127.7779,127.2527 L126.3583,129.7524 L124.8819,132.2174 L123.5139,134.7487 L121.7925,137.0638 L122.0504,137.2136 L120.6299,139.6659 L119.0431,142.0217 L117.6998,144.5188 L116.3679,147.0227 L114.6744,149.3164 L114.3944,149.1604 L113.623,151.8239 L111.9295,153.9737 L110.937,156.514 L109.2227,158.6522 L108.1,161.12 " fill="none" style="stroke:#181818;stroke-width:1.0;"/><polygon fill="#181818" points="105.58,165.77,105.6226,165.8256,107.0588,164.4615,108.745,163.4233,110.3497,162.279,111.6868,160.7857,113.3944,159.7754,113.3871,159.7506,112.2691,159.9596,111.1881,160.2938,110.1329,160.7151,108.989,160.8363,107.9692,161.3778,108.1462,161.4301,107.4473,160.2332,107.2651,159.1891,107.1459,158.1635,106.6599,157.0296,106.3669,155.9526,106.3896,155.9544,106.1989,157.9153,106.1114,159.8843,105.9742,161.8494,105.932,163.8221,105.58,165.77" style="stroke:#181818;stroke-width:1.0;"/><text fill="#000000" font-family="FG Virgil" font-size="13" lengthAdjust="spacing" textLength="95" x="138" y="127.4951">sessionManager</text></g><!--MD5=[e25e9e8fe3fe76e2fe8ccbb9fc3d61de]
link GetBoardsController to BoardRepository--><g id="link_GetBoardsController_BoardRepository"><path d="M294,237.18 L294.2802,237.18 L293.4476,247.5629 L294.2577,257.9457 L294.5329,268.3286 L293.0488,278.7114 L293.8964,289.0943 L293.4313,299.4771 L294,309.86 " fill="none" style="stroke:#181818;stroke-width:1.0;"/><polygon fill="#181818" points="294,314.94,294.064,314.9685,294.6738,313.0839,295.6589,311.3662,296.5217,309.5941,296.9827,307.6434,298,305.94,297.9817,305.9217,297.0995,306.6395,296.3096,307.4496,295.5839,308.3239,294.637,308.977,294,309.94,294.1305,310.0705,293.0514,308.9914,292.3534,308.2934,291.7018,307.6418,290.7798,306.7198,290,305.94,290.0208,305.9492,290.7903,307.7357,291.6544,309.5642,292.4728,311.3724,293.3784,313.2193,294,314.94" style="stroke:#181818;stroke-width:1.0;"/><text fill="#000000" font-family="FG Virgil" font-size="13" lengthAdjust="spacing" textLength="94" x="295" y="281.4951">boardRepository</text></g><!--MD5=[cfa8c6cc09150aa1a34895e749736282]
link SessionManager to User--><g id="link_SessionManager_User"><path d="M89,232.24 L89.2802,232.24 L88.4476,241.8133 L89.2577,251.3867 L89.5329,260.96 L88.0488,270.5333 L88.8964,280.1067 L88.4313,289.68 L88.4887,299.2533 L88.9091,308.8267 L89,318.4 " fill="none" style="stroke:#181818;stroke-width:1.0;stroke-dasharray:7.0,7.0;"/><polygon fill="#181818" points="89,323.4,89.064,323.4285,89.6738,321.5439,90.6589,319.8262,91.5217,318.0541,91.9827,316.1034,93,314.4,92.9817,314.3817,92.0995,315.0995,91.3096,315.9096,90.5839,316.7839,89.637,317.437,89,318.4,89.1305,318.5305,88.0514,317.4514,87.3534,316.7534,86.7018,316.1018,85.7798,315.1798,85,314.4,85.0208,314.4092,85.7903,316.1957,86.6544,318.0242,87.4728,319.8324,88.3784,321.6793,89,323.4" style="stroke:#181818;stroke-width:1.0;"/></g><!--MD5=[c2b2d28b8f8fd1e85bbeebc0fff5bd46]
link BoardRepository to Board--><g id="link_BoardRepository_Board"><path d="M294,391.25 L294.2802,391.25 L293.4476,400.4533 L294.2577,409.6567 L294.5329,418.86 L293.0488,428.0633 L293.8964,437.2667 L294,446.47 " fill="none" style="stroke:#181818;stroke-width:1.0;"/><polygon fill="#181818" points="294,451.87,294.064,451.8985,294.6738,450.0139,295.6589,448.2962,296.5217,446.5241,296.9827,444.5734,298,442.87,297.9817,442.8517,297.0995,443.5695,296.3096,444.3796,295.5839,445.2539,294.637,445.907,294,446.87,294.1305,447.0005,293.0514,445.9214,292.3534,445.2234,291.7018,444.5718,290.7798,443.6498,290,442.87,290.0208,442.8792,290.7903,444.6657,291.6544,446.4942,292.4728,448.3024,293.3784,450.1493,294,451.87" style="stroke:#181818;stroke-width:1.0;"/></g><!--MD5=[b1054a582c66c216bf3cf3e3f59ecfa9]
@startuml
'http://plantuml.com/skinparam.html
skinparam handwritten true
skinparam monochrome true
skinparam packageStyle rect
skinparam defaultFontName FG Virgil
skinparam shadowing false


class HttpServerAjax <<http server>>
class SessionManager
class GetBoardsController <<application>>
class BoardRepository <<repository>>
class User <<domain>>
class Board <<domain>>

HttpServerAjax - -> GetBoardsController: theController
HttpServerAjax - -> SessionManager: sessionManager
GetBoardsController - -> BoardRepository: boardRepository
SessionManager ..> User
BoardRepository - -> Board



HttpServerAjax : getBoardById(String, String)
SessionManager : getUserByToken(String)
GetBoardsController : getBoardById(Long, User)
BoardRepository : ofIdentity(Long)
Board : userHasAnyPermission(User)

@enduml

@startuml
skinparam handwritten true
skinparam monochrome true
skinparam packageStyle rect
skinparam defaultFontName FG Virgil
skinparam shadowing false


class HttpServerAjax <<http server>>
class SessionManager
class GetBoardsController <<application>>
class BoardRepository <<repository>>
class User <<domain>>
class Board <<domain>>

HttpServerAjax - -> GetBoardsController: theController
HttpServerAjax - -> SessionManager: sessionManager
GetBoardsController - -> BoardRepository: boardRepository
SessionManager ..> User
BoardRepository - -> Board



HttpServerAjax : getBoardById(String, String)
SessionManager : getUserByToken(String)
GetBoardsController : getBoardById(Long, User)
BoardRepository : ofIdentity(Long)
Board : userHasAnyPermission(User)

@enduml

PlantUML version 1.2022.7(Mon Aug 22 18:01:30 BST 2022)
(GPL source distribution)
Java Runtime: Java(TM) SE Runtime Environment
JVM: Java HotSpot(TM) 64-Bit Server VM
Default Encoding: Cp1252
Language: pt
Country: PT
--></g></svg>