<?xml version="1.0" encoding="UTF-8" standalone="no"?><svg xmlns="http://www.w3.org/2000/svg" xmlns:xlink="http://www.w3.org/1999/xlink" contentStyleType="text/css" height="535px" preserveAspectRatio="none" style="width:571px;height:535px;background:#FFFFFF;" version="1.1" viewBox="0 0 571 535" width="571px" zoomAndPan="magnify"><defs/><g><!--MD5=[475f3b715ca7ffb20b7527e2f35f29f1]
class HttpServerAjax--><g id="elem_HttpServerAjax"><polygon fill="#F1F1F1" points="84,7,84,7.2102,94.0833,6.5857,104.1667,7.1933,114.25,7.3997,124.3333,6.2866,134.4167,6.9223,144.5,6.5735,154.5833,6.6165,164.6667,6.9318,174.75,6.3086,184.8333,7.5536,194.9167,6.3697,205,6.8022,215.0833,7.4319,225.1667,6.9142,235.25,7.0682,245.3333,6.9681,255.4167,7.1785,265.5,7.2391,275.5833,7.5857,285.6667,7.6711,295.75,7.6793,305.8333,7.2546,315.9167,7.4636,326,7,326.0896,7.2163,326.2616,6.9244,326.7937,7.5018,327.0228,7.348,327.4823,7.7502,327.7678,7.7322,327.6153,7.6691,327.8931,8.077,328.289,8.5339,328.1921,8.7867,328.386,9.1599,328.5,9.5,328.8386,9.5,328.9162,19.6875,328.4961,29.875,328.7872,40.0625,327.9276,50.25,328.7844,60.4375,329.0482,70.625,328.5,80.8125,328.6369,80.8692,328.5423,81.2443,328.0583,81.458,327.8598,81.79,327.7228,82.1474,327.7678,82.5803,327.7603,82.5621,327.3891,82.6662,327.1476,83.083,326.6848,82.9658,326.3098,83.0604,326,83.3125,326,83.5408,315.9167,82.6457,305.8333,82.7934,295.75,83.9615,285.6667,83.7482,275.5833,84.047,265.5,82.9907,255.4167,83.6317,245.3333,83.9029,235.25,82.8401,225.1667,83.2166,215.0833,83.4385,205,83.9643,194.9167,83.3083,184.8333,83.7751,174.75,82.7587,164.6667,82.6352,154.5833,83.8161,144.5,82.5956,134.4167,83.8215,124.3333,83.5191,114.25,83.0446,104.1667,82.9587,94.0833,83.7713,84,83.3125,83.9618,83.2203,83.7219,83.3483,83.2224,82.8494,83.0181,83.0633,82.6476,82.8759,82.2322,82.5803,82.3077,82.6115,82.1003,82.2327,82.1631,81.9658,81.9819,81.5979,81.6986,81.1876,81.5,80.8125,81.7682,80.8125,81.3697,70.625,82.2165,60.4375,81.6549,50.25,81.6726,40.0625,80.8916,29.875,81.0948,19.6875,81.5,9.5,81.6634,9.5677,81.7788,9.2013,81.7797,8.7874,81.8401,8.3982,82.0184,8.0579,82.2322,7.7322,82.1447,7.5209,82.6387,7.7135,83.0337,7.6671,83.36,7.455,83.7351,7.3605,84,7" style="stroke:#181818;stroke-width:0.5;"/><polygon fill="#C2C2C2" points="165.3108,31.0272,163.6984,33.2304,161.7912,36.4573,159.0636,38.632,156.1974,39.8212,153.912,39.9244,150.9747,38.4371,148.2032,37.4655,146.0995,35.4927,144.9961,33.2343,144.3417,31.4361,143.7006,29.0873,142.66,27.066,143.4596,25.0926,144.1602,22.9308,146.7893,21.221,148.639,19.0027,150.9284,18.266,153.6501,17.6316,157.1404,18.0085,159.0521,18.9101,161.2747,19.3188,163.9772,22.0875,164.9193,25.0105,165.3286,27.0049,164.865,30.2914" style="stroke:#181818;stroke-width:1.0;"/><path d="M157.0156,24.2266 Q157.1719,24.0078 157.3594,23.8984 Q157.5469,23.7891 157.7656,23.7891 Q158.1406,23.7891 158.375,24.0547 Q158.6094,24.3047 158.6094,24.9141 L158.6094,26.3672 Q158.6094,26.9766 158.375,27.2422 Q158.1406,27.5078 157.7656,27.5078 Q157.4219,27.5078 157.2188,27.3047 Q157.0156,27.1172 156.9063,26.6016 Q156.8594,26.2422 156.6719,26.0547 Q156.3438,25.6797 155.7344,25.4609 Q155.125,25.2422 154.5,25.2422 Q153.7344,25.2422 153.0938,25.5703 Q152.4688,25.8984 151.9688,26.6484 Q151.4844,27.3984 151.4844,28.4297 L151.4844,29.5234 Q151.4844,30.7578 152.375,31.5859 Q153.2656,32.3984 154.8594,32.3984 Q155.7969,32.3984 156.4531,32.1484 Q156.8438,31.9922 157.2656,31.5547 Q157.5313,31.2891 157.6719,31.2109 Q157.8281,31.1328 158.0313,31.1328 Q158.3594,31.1328 158.6094,31.3984 Q158.875,31.6484 158.875,31.9922 Q158.875,32.3359 158.5313,32.7422 Q158.0313,33.3203 157.2344,33.6484 Q156.1563,34.1016 154.8594,34.1016 Q153.3438,34.1016 152.1406,33.4766 Q151.1563,32.9766 150.4688,31.9141 Q149.7813,30.8359 149.7813,29.5547 L149.7813,28.3984 Q149.7813,27.0703 150.3906,25.9297 Q151.0156,24.7734 152.1094,24.1641 Q153.2031,23.5391 154.4375,23.5391 Q155.1719,23.5391 155.8125,23.7109 Q156.4688,23.8672 157.0156,24.2266 Z " fill="#000000"/><text fill="#000000" font-family="FG Virgil" font-size="12" font-style="italic" lengthAdjust="spacing" textLength="71" x="185.75" y="24.457">«http server»</text><text fill="#000000" font-family="FG Virgil" font-size="14" lengthAdjust="spacing" textLength="93" x="174.75" y="41.627">HttpServerAjax</text><path d="M82.5,49.7031 L82.5,49.9834 L92.3,49.1507 L102.1,49.9608 L111.9,50.236 L121.7,48.7519 L131.5,49.5995 L141.3,49.1345 L151.1,49.1918 L160.9,49.6122 L170.7,48.7813 L180.5,50.4413 L190.3,48.8628 L200.1,49.4394 L209.9,50.2791 L219.7,49.5888 L229.5,49.7941 L239.3,49.6605 L249.1,49.9412 L258.9,50.022 L268.7,50.484 L278.5,50.5979 L288.3,50.6088 L298.1,50.0426 L307.9,50.3212 L317.7,50.6394 L327.5,49.7031 " fill="#F1F1F1" style="stroke:#181818;stroke-width:0.5;"/><path d="M82.5,57.7031 L82.5,57.9834 L92.3,57.1507 L102.1,57.9608 L111.9,58.236 L121.7,56.7519 L131.5,57.5995 L141.3,57.1345 L151.1,57.1918 L160.9,57.6122 L170.7,56.7813 L180.5,58.4413 L190.3,56.8628 L200.1,57.4394 L209.9,58.2791 L219.7,57.5888 L229.5,57.7941 L239.3,57.6605 L249.1,57.9412 L258.9,58.022 L268.7,58.484 L278.5,58.5979 L288.3,58.6088 L298.1,58.0426 L307.9,58.3212 L317.7,58.6394 L327.5,57.7031 " fill="#F1F1F1" style="stroke:#181818;stroke-width:0.5;"/><text fill="#000000" font-family="FG Virgil" font-size="14" lengthAdjust="spacing" textLength="235" x="87.5" y="76.2363">getLastPostItsByBoard(String, String)</text></g><!--MD5=[f097a9da547c6f19ba7a5c97c093eb18]
class SessionManager--><g id="elem_SessionManager"><polygon fill="#F1F1F1" points="9.5,166,9.5,166.2102,19.4375,165.5857,29.375,166.1933,39.3125,166.3997,49.25,165.2866,59.1875,165.9223,69.125,165.5735,79.0625,165.6165,89,165.9318,98.9375,165.3086,108.875,166.5536,118.8125,165.3697,128.75,165.8022,138.6875,166.4319,148.625,165.9142,158.5625,166.0682,168.5,166,168.4959,165.9902,168.8763,166.2014,169.2376,166.3665,169.6354,166.6197,169.9998,166.7924,170.2678,166.7322,170.477,166.8189,170.4926,167.1183,170.7034,167.4985,170.9234,167.8825,170.6315,168.0545,171,168.5,171.6785,168.5,170.7035,178.6016,171.5338,188.7031,170.505,198.8047,170.9315,208.9063,171.7416,219.0078,171,229.1094,170.985,229.1032,170.886,229.4764,170.8114,229.8597,170.6888,230.2231,170.413,230.5231,170.2678,230.8771,170.3044,230.9656,169.8412,230.8473,169.5969,231.2576,169.277,231.4853,168.9103,231.5998,168.5,231.6094,168.5,232.2224,158.5625,231.1263,148.625,230.9572,138.6875,230.988,128.75,231.5505,118.8125,231.4128,108.875,232.2908,98.9375,231.4347,89,231.2663,79.0625,231.8376,69.125,230.9425,59.1875,231.0902,49.25,232.2583,39.3125,232.045,29.375,232.3439,19.4375,231.2876,9.5,231.6094,9.5407,231.7077,9.2218,231.6448,8.7326,231.171,8.4271,231.1405,8.1019,231.0624,7.7322,230.8771,7.9329,230.9603,7.5845,230.5231,7.5818,230.229,7.1223,229.7458,6.9379,229.3765,7,229.1094,7.5036,229.1094,6.2831,219.0078,7.509,208.9063,7.2066,198.8047,6.7321,188.7031,6.6462,178.6016,7,168.5,7.1413,168.5585,7.0543,168.1083,7.4752,167.8684,7.2691,167.3688,7.7759,167.1645,7.7322,166.7322,7.794,166.8814,8.117,166.6612,8.4454,166.4539,8.8856,166.5167,9.2247,166.3354,9.5,166" style="stroke:#181818;stroke-width:0.5;"/><polygon fill="#C2C2C2" points="44.7608,184.6756,43.1484,186.8788,41.2412,190.1057,38.5136,192.2804,35.6474,193.4696,33.362,193.5728,30.4247,192.0855,27.6532,191.1139,25.5495,189.1412,24.4461,186.8828,23.7917,185.0845,23.1506,182.7357,22.11,180.7145,22.9096,178.741,23.6102,176.5792,26.2393,174.8695,28.089,172.6511,30.3784,171.9144,33.1001,171.2801,36.5904,171.657,38.5021,172.5585,40.7247,172.9672,43.4272,175.736,44.3693,178.659,44.7786,180.6534,44.315,183.9399" style="stroke:#181818;stroke-width:1.0;"/><path d="M36.4656,177.875 Q36.6219,177.6563 36.8094,177.5469 Q36.9969,177.4375 37.2156,177.4375 Q37.5906,177.4375 37.825,177.7031 Q38.0594,177.9531 38.0594,178.5625 L38.0594,180.0156 Q38.0594,180.625 37.825,180.8906 Q37.5906,181.1563 37.2156,181.1563 Q36.8719,181.1563 36.6688,180.9531 Q36.4656,180.7656 36.3563,180.25 Q36.3094,179.8906 36.1219,179.7031 Q35.7938,179.3281 35.1844,179.1094 Q34.575,178.8906 33.95,178.8906 Q33.1844,178.8906 32.5438,179.2188 Q31.9188,179.5469 31.4188,180.2969 Q30.9344,181.0469 30.9344,182.0781 L30.9344,183.1719 Q30.9344,184.4063 31.825,185.2344 Q32.7156,186.0469 34.3094,186.0469 Q35.2469,186.0469 35.9031,185.7969 Q36.2938,185.6406 36.7156,185.2031 Q36.9813,184.9375 37.1219,184.8594 Q37.2781,184.7813 37.4813,184.7813 Q37.8094,184.7813 38.0594,185.0469 Q38.325,185.2969 38.325,185.6406 Q38.325,185.9844 37.9813,186.3906 Q37.4813,186.9688 36.6844,187.2969 Q35.6063,187.75 34.3094,187.75 Q32.7938,187.75 31.5906,187.125 Q30.6063,186.625 29.9188,185.5625 Q29.2313,184.4844 29.2313,183.2031 L29.2313,182.0469 Q29.2313,180.7188 29.8406,179.5781 Q30.4656,178.4219 31.5594,177.8125 Q32.6531,177.1875 33.8875,177.1875 Q34.6219,177.1875 35.2625,177.3594 Q35.9188,177.5156 36.4656,177.875 Z " fill="#000000"/><text fill="#000000" font-family="FG Virgil" font-size="14" lengthAdjust="spacing" textLength="106" x="50.3" y="187.7285">SessionManager</text><path d="M8,198 L8,198.2802 L18.125,197.4476 L28.25,198.2577 L38.375,198.5329 L48.5,197.0488 L58.625,197.8964 L68.75,197.4313 L78.875,197.4887 L89,197.9091 L99.125,197.0782 L109.25,198.7382 L119.375,197.1596 L129.5,197.7363 L139.625,198.5759 L149.75,197.8856 L159.875,198.091 L170,198 " fill="#F1F1F1" style="stroke:#181818;stroke-width:0.5;"/><path d="M8,206 L8,206.2802 L18.125,205.4476 L28.25,206.2577 L38.375,206.5329 L48.5,205.0488 L58.625,205.8964 L68.75,205.4313 L78.875,205.4887 L89,205.9091 L99.125,205.0782 L109.25,206.7382 L119.375,205.1596 L129.5,205.7363 L139.625,206.5759 L149.75,205.8856 L159.875,206.091 L170,206 " fill="#F1F1F1" style="stroke:#181818;stroke-width:0.5;"/><text fill="#000000" font-family="FG Virgil" font-size="14" lengthAdjust="spacing" textLength="152" x="13" y="224.5332">getUserByToken(String)</text></g><!--MD5=[1de4b76c94fba0f4b4100098db554393]
class GetPostItsController--><g id="elem_GetPostItsController"><polygon fill="#F1F1F1" points="208.5,161,208.5,161.2102,218.4565,160.5857,228.413,161.1933,238.3696,161.3997,248.3261,160.2866,258.2826,160.9223,268.2391,160.5735,278.1957,160.6165,288.1522,160.9318,298.1087,160.3086,308.0652,161.5536,318.0217,160.3697,327.9783,160.8022,337.9348,161.4319,347.8913,160.9142,357.8478,161.0682,367.8043,160.9681,377.7609,161.1785,387.7174,161.2391,397.6739,161.5857,407.6304,161.6711,417.587,161.6793,427.5435,161.2546,437.5,161,437.5591,161.1428,437.9431,161.3627,438.1151,161.0708,438.6472,161.6483,438.8764,161.4945,439.2678,161.7322,439.4322,161.8003,439.2618,162.0226,439.5396,162.4306,439.9355,162.8875,439.8385,163.1402,440,163.5,440.1053,163.5,440.3386,173.6875,440.4162,183.875,439.9961,194.0625,440.2872,204.25,439.4276,214.4375,440.2844,224.625,440,234.8125,440.1688,234.8824,439.9905,235.2228,439.8959,235.5978,439.4119,235.8115,439.2134,236.1435,439.2678,236.5803,439.1885,236.3889,438.9067,236.7086,438.5356,236.8126,438.294,237.2295,437.8313,237.1123,437.5,237.3125,437.5,236.9694,427.5435,237.5408,417.587,236.6457,407.6304,236.7934,397.6739,237.9615,387.7174,237.7482,377.7609,238.047,367.8043,236.9907,357.8478,237.6317,347.8913,237.9029,337.9348,236.8401,327.9783,237.2166,318.0217,237.4385,308.0652,237.9643,298.1087,237.3083,288.1522,237.7751,278.1957,236.7587,268.2391,236.6352,258.2826,237.8161,248.3261,236.5956,238.3696,237.8215,228.413,237.5191,218.4565,237.0446,208.5,237.3125,208.4549,237.2036,208.205,237.3073,207.7547,236.9274,207.5148,237.0554,207.0153,236.5565,206.7322,236.5803,206.9224,236.659,206.7349,236.2885,206.5148,235.9044,206.3074,235.5256,206.3702,235.2587,206,234.8125,206.6136,234.8125,206.1693,224.625,206.2682,214.4375,205.8697,204.25,206.7165,194.0625,206.1549,183.875,206.1726,173.6875,206,163.5,205.8127,163.4224,206.0217,163.0948,206.4563,162.8606,206.5717,162.4942,206.5726,162.0803,206.7322,161.7322,206.6911,161.633,207.0579,161.5184,207.3518,161.228,207.8458,161.4206,208.2408,161.3742,208.5,161" style="stroke:#181818;stroke-width:0.5;"/><polygon fill="#C2C2C2" points="266.3108,185.0272,264.6984,187.2304,262.7912,190.4573,260.0636,192.632,257.1974,193.8212,254.912,193.9244,251.9747,192.4371,249.2032,191.4655,247.0995,189.4927,245.9961,187.2343,245.3417,185.4361,244.7006,183.0873,243.66,181.066,244.4596,179.0926,245.1602,176.9308,247.7893,175.221,249.639,173.0027,251.9284,172.266,254.6501,171.6316,258.1404,172.0085,260.0521,172.9101,262.2747,173.3188,264.9772,176.0875,265.9193,179.0105,266.3286,181.0049,265.865,184.2914" style="stroke:#181818;stroke-width:1.0;"/><path d="M258.0156,178.2266 Q258.1719,178.0078 258.3594,177.8984 Q258.5469,177.7891 258.7656,177.7891 Q259.1406,177.7891 259.375,178.0547 Q259.6094,178.3047 259.6094,178.9141 L259.6094,180.3672 Q259.6094,180.9766 259.375,181.2422 Q259.1406,181.5078 258.7656,181.5078 Q258.4219,181.5078 258.2188,181.3047 Q258.0156,181.1172 257.9063,180.6016 Q257.8594,180.2422 257.6719,180.0547 Q257.3438,179.6797 256.7344,179.4609 Q256.125,179.2422 255.5,179.2422 Q254.7344,179.2422 254.0938,179.5703 Q253.4688,179.8984 252.9688,180.6484 Q252.4844,181.3984 252.4844,182.4297 L252.4844,183.5234 Q252.4844,184.7578 253.375,185.5859 Q254.2656,186.3984 255.8594,186.3984 Q256.7969,186.3984 257.4531,186.1484 Q257.8438,185.9922 258.2656,185.5547 Q258.5313,185.2891 258.6719,185.2109 Q258.8281,185.1328 259.0313,185.1328 Q259.3594,185.1328 259.6094,185.3984 Q259.875,185.6484 259.875,185.9922 Q259.875,186.3359 259.5313,186.7422 Q259.0313,187.3203 258.2344,187.6484 Q257.1563,188.1016 255.8594,188.1016 Q254.3438,188.1016 253.1406,187.4766 Q252.1563,186.9766 251.4688,185.9141 Q250.7813,184.8359 250.7813,183.5547 L250.7813,182.3984 Q250.7813,181.0703 251.3906,179.9297 Q252.0156,178.7734 253.1094,178.1641 Q254.2031,177.5391 255.4375,177.5391 Q256.1719,177.5391 256.8125,177.7109 Q257.4688,177.8672 258.0156,178.2266 Z " fill="#000000"/><text fill="#000000" font-family="FG Virgil" font-size="12" font-style="italic" lengthAdjust="spacing" textLength="74" x="302.25" y="178.457">«application»</text><text fill="#000000" font-family="FG Virgil" font-size="14" lengthAdjust="spacing" textLength="127" x="275.75" y="195.627">GetPostItsController</text><path d="M207,203.7031 L207,203.9834 L217.087,203.1507 L227.1739,203.9608 L237.2609,204.236 L247.3478,202.7519 L257.4348,203.5995 L267.5217,203.1345 L277.6087,203.1918 L287.6957,203.6122 L297.7826,202.7813 L307.8696,204.4413 L317.9565,202.8628 L328.0435,203.4394 L338.1304,204.2791 L348.2174,203.5888 L358.3043,203.7941 L368.3913,203.6605 L378.4783,203.9412 L388.5652,204.022 L398.6522,204.484 L408.7391,204.5979 L418.8261,204.6088 L428.913,204.0426 L439,203.7031 " fill="#F1F1F1" style="stroke:#181818;stroke-width:0.5;"/><path d="M207,211.7031 L207,211.9834 L217.087,211.1507 L227.1739,211.9608 L237.2609,212.236 L247.3478,210.7519 L257.4348,211.5995 L267.5217,211.1345 L277.6087,211.1918 L287.6957,211.6122 L297.7826,210.7813 L307.8696,212.4413 L317.9565,210.8628 L328.0435,211.4394 L338.1304,212.2791 L348.2174,211.5888 L358.3043,211.7941 L368.3913,211.6605 L378.4783,211.9412 L388.5652,212.022 L398.6522,212.484 L408.7391,212.5979 L418.8261,212.6088 L428.913,212.0426 L439,211.7031 " fill="#F1F1F1" style="stroke:#181818;stroke-width:0.5;"/><text fill="#000000" font-family="FG Virgil" font-size="14" lengthAdjust="spacing" textLength="222" x="212" y="230.2363">getLastPostItsByBoard(Long, User)</text></g><!--MD5=[343839bb48731e46d0fda742d45fdd31]
class BoardRepository--><g id="elem_BoardRepository"><polygon fill="#F1F1F1" points="212.5,315,212.5,315.2102,222.7308,314.5857,232.9615,315.1933,243.1923,315.3997,253.4231,314.2866,263.6538,314.9223,273.8846,314.5735,284.1154,314.6165,294.3462,314.9318,304.5769,314.3086,314.8077,315.5536,325.0385,314.3697,335.2692,314.8022,345.5,315,345.5551,315.133,345.8426,315.12,346.2158,315.3139,346.5566,315.4295,346.937,315.6408,347.2678,315.7322,347.3414,315.7627,347.5946,316.1605,347.7673,316.5249,347.9163,316.8795,347.932,317.1789,348,317.5,348.4636,317.5,348.7022,327.6875,347.2788,337.875,348.6785,348.0625,347.7035,358.25,348.5338,368.4375,347.505,378.625,348,388.8125,347.9789,388.8038,348.0819,389.2607,347.6921,389.5134,347.5931,389.8866,347.5185,390.2699,347.2678,390.5803,347.3209,390.7084,346.9137,390.7255,346.5973,390.9616,346.1341,390.8433,345.8898,391.2536,345.5,391.3125,345.5,391.8607,335.2692,391.757,325.0385,391.9255,314.8077,390.8294,304.5769,390.6603,294.3462,390.6911,284.1154,391.2536,273.8846,391.116,263.6538,391.9939,253.4231,391.1378,243.1923,390.9694,232.9615,391.5408,222.7308,390.6457,212.5,391.3125,212.4338,391.1526,212.2292,391.3659,211.8485,391.1538,211.533,391.0994,211.0447,390.6276,210.7322,390.5803,210.8305,390.621,210.7676,390.302,210.2939,389.8129,210.2634,389.5074,210.1852,389.1821,210,388.8125,210.6518,388.8125,209.9958,378.625,210.4626,368.4375,209.4462,358.25,209.3227,348.0625,210.5036,337.875,209.2831,327.6875,210,317.5,210.1567,317.5649,210.2101,317.1728,210.2104,316.7587,210.3304,316.3942,210.7271,316.1443,210.7322,315.7322,210.694,315.6401,211.1613,315.7681,211.3688,315.2691,211.8717,315.483,212.2082,315.2956,212.5,315" style="stroke:#181818;stroke-width:0.5;"/><polygon fill="#C2C2C2" points="236.0608,339.0272,234.4484,341.2304,232.5412,344.4573,229.8136,346.632,226.9474,347.8212,224.662,347.9244,221.7247,346.4371,218.9532,345.4655,216.8495,343.4927,215.7461,341.2343,215.0917,339.4361,214.4506,337.0873,213.41,335.066,214.2096,333.0926,214.9102,330.9308,217.5393,329.221,219.389,327.0027,221.6784,326.266,224.4001,325.6316,227.8904,326.0085,229.8021,326.9101,232.0247,327.3188,234.7272,330.0875,235.6693,333.0105,236.0786,335.0049,235.615,338.2914" style="stroke:#181818;stroke-width:1.0;"/><path d="M227.7656,332.2266 Q227.9219,332.0078 228.1094,331.8984 Q228.2969,331.7891 228.5156,331.7891 Q228.8906,331.7891 229.125,332.0547 Q229.3594,332.3047 229.3594,332.9141 L229.3594,334.3672 Q229.3594,334.9766 229.125,335.2422 Q228.8906,335.5078 228.5156,335.5078 Q228.1719,335.5078 227.9688,335.3047 Q227.7656,335.1172 227.6563,334.6016 Q227.6094,334.2422 227.4219,334.0547 Q227.0938,333.6797 226.4844,333.4609 Q225.875,333.2422 225.25,333.2422 Q224.4844,333.2422 223.8438,333.5703 Q223.2188,333.8984 222.7188,334.6484 Q222.2344,335.3984 222.2344,336.4297 L222.2344,337.5234 Q222.2344,338.7578 223.125,339.5859 Q224.0156,340.3984 225.6094,340.3984 Q226.5469,340.3984 227.2031,340.1484 Q227.5938,339.9922 228.0156,339.5547 Q228.2813,339.2891 228.4219,339.2109 Q228.5781,339.1328 228.7813,339.1328 Q229.1094,339.1328 229.3594,339.3984 Q229.625,339.6484 229.625,339.9922 Q229.625,340.3359 229.2813,340.7422 Q228.7813,341.3203 227.9844,341.6484 Q226.9063,342.1016 225.6094,342.1016 Q224.0938,342.1016 222.8906,341.4766 Q221.9063,340.9766 221.2188,339.9141 Q220.5313,338.8359 220.5313,337.5547 L220.5313,336.3984 Q220.5313,335.0703 221.1406,333.9297 Q221.7656,332.7734 222.8594,332.1641 Q223.9531,331.5391 225.1875,331.5391 Q225.9219,331.5391 226.5625,331.7109 Q227.2188,331.8672 227.7656,332.2266 Z " fill="#000000"/><text fill="#000000" font-family="FG Virgil" font-size="12" font-style="italic" lengthAdjust="spacing" textLength="68" x="258" y="332.457">«repository»</text><text fill="#000000" font-family="FG Virgil" font-size="14" lengthAdjust="spacing" textLength="106" x="239" y="349.627">BoardRepository</text><path d="M211,357.7031 L211,357.9834 L220.7143,357.1507 L230.4286,357.9608 L240.1429,358.236 L249.8571,356.7519 L259.5714,357.5995 L269.2857,357.1345 L279,357.1918 L288.7143,357.6122 L298.4286,356.7813 L308.1429,358.4413 L317.8571,356.8628 L327.5714,357.4394 L337.2857,358.2791 L347,357.7031 " fill="#F1F1F1" style="stroke:#181818;stroke-width:0.5;"/><path d="M211,365.7031 L211,365.9834 L220.7143,365.1507 L230.4286,365.9608 L240.1429,366.236 L249.8571,364.7519 L259.5714,365.5995 L269.2857,365.1345 L279,365.1918 L288.7143,365.6122 L298.4286,364.7813 L308.1429,366.4413 L317.8571,364.8628 L327.5714,365.4394 L337.2857,366.2791 L347,365.7031 " fill="#F1F1F1" style="stroke:#181818;stroke-width:0.5;"/><text fill="#000000" font-family="FG Virgil" font-size="14" lengthAdjust="spacing" textLength="99" x="216" y="384.2363">ofIdentity(Long)</text></g><!--MD5=[d98fa60e7e29446a1b02022748feb6fd]
class PostItRepository--><g id="elem_PostItRepository"><polygon fill="#F1F1F1" points="386,315,386,315.2102,395.7778,314.5857,405.5556,315.1933,415.3333,315.3997,425.1111,314.2866,434.8889,314.9223,444.6667,314.5735,454.4444,314.6165,464.2222,314.9318,474,314.3086,483.7778,315.5536,493.5556,314.3697,503.3333,314.8022,513.1111,315.4319,522.8889,314.9142,532.6667,315.0682,542.4444,314.9681,552.2222,315.1785,562,315,562.0305,315.0736,562.4283,315.3268,562.7927,315.4996,563.1473,315.6485,563.4467,315.6642,563.7678,315.7322,563.9105,315.7914,564.1305,316.1754,563.8386,316.3473,564.4161,316.8794,564.2622,317.1086,564.5,317.5,565.0338,317.5,564.005,327.6875,564.4315,337.875,565.2416,348.0625,564.4513,358.25,564.6053,368.4375,564.8386,378.625,564.5,388.8125,564.6282,388.8656,564.3524,389.1656,564.2956,389.5562,563.8844,389.8001,564.0018,390.263,563.7678,390.5803,563.8377,390.7491,563.4709,390.8636,563.1389,391.0619,562.6455,390.8708,562.2704,390.9652,562,391.3125,562,390.6911,552.2222,391.2536,542.4444,391.116,532.6667,391.9939,522.8889,391.1378,513.1111,390.9694,503.3333,391.5408,493.5556,390.6457,483.7778,390.7934,474,391.9615,464.2222,391.7482,454.4444,392.047,444.6667,390.9907,434.8889,391.6317,425.1111,391.9029,415.3333,390.8401,405.5556,391.2166,395.7778,391.4385,386,391.3125,386.0831,391.5132,385.6459,391.1648,385.3519,391.1621,384.8687,390.7026,384.4994,390.5181,384.2322,390.5803,384.3873,390.6445,383.865,390.1353,384.0961,389.9381,383.8565,389.546,383.5639,389.1319,383.5,388.8125,383.1462,388.8125,383.9588,378.625,383.2007,368.4375,384.0919,358.25,382.9473,348.0625,384.1174,337.875,383.9843,327.6875,383.5,317.5,383.5754,317.5312,383.661,317.1525,384.0167,316.8856,384.1283,316.5176,384.1379,316.1074,384.2322,315.7322,384.2664,315.8148,384.5692,315.5457,385.0307,315.66,385.3126,315.3406,385.6685,315.1996,386,315" style="stroke:#181818;stroke-width:0.5;"/><polygon fill="#C2C2C2" points="430.2608,339.0272,428.6484,341.2304,426.7412,344.4573,424.0136,346.632,421.1474,347.8212,418.862,347.9244,415.9247,346.4371,413.1532,345.4655,411.0495,343.4927,409.9461,341.2343,409.2917,339.4361,408.6506,337.0873,407.61,335.066,408.4096,333.0926,409.1102,330.9308,411.7393,329.221,413.589,327.0027,415.8784,326.266,418.6001,325.6316,422.0904,326.0085,424.0021,326.9101,426.2247,327.3188,428.9272,330.0875,429.8693,333.0105,430.2786,335.0049,429.815,338.2914" style="stroke:#181818;stroke-width:1.0;"/><path d="M421.9656,332.2266 Q422.1219,332.0078 422.3094,331.8984 Q422.4969,331.7891 422.7156,331.7891 Q423.0906,331.7891 423.325,332.0547 Q423.5594,332.3047 423.5594,332.9141 L423.5594,334.3672 Q423.5594,334.9766 423.325,335.2422 Q423.0906,335.5078 422.7156,335.5078 Q422.3719,335.5078 422.1688,335.3047 Q421.9656,335.1172 421.8563,334.6016 Q421.8094,334.2422 421.6219,334.0547 Q421.2938,333.6797 420.6844,333.4609 Q420.075,333.2422 419.45,333.2422 Q418.6844,333.2422 418.0438,333.5703 Q417.4188,333.8984 416.9188,334.6484 Q416.4344,335.3984 416.4344,336.4297 L416.4344,337.5234 Q416.4344,338.7578 417.325,339.5859 Q418.2156,340.3984 419.8094,340.3984 Q420.7469,340.3984 421.4031,340.1484 Q421.7938,339.9922 422.2156,339.5547 Q422.4813,339.2891 422.6219,339.2109 Q422.7781,339.1328 422.9813,339.1328 Q423.3094,339.1328 423.5594,339.3984 Q423.825,339.6484 423.825,339.9922 Q423.825,340.3359 423.4813,340.7422 Q422.9813,341.3203 422.1844,341.6484 Q421.1063,342.1016 419.8094,342.1016 Q418.2938,342.1016 417.0906,341.4766 Q416.1063,340.9766 415.4188,339.9141 Q414.7313,338.8359 414.7313,337.5547 L414.7313,336.3984 Q414.7313,335.0703 415.3406,333.9297 Q415.9656,332.7734 417.0594,332.1641 Q418.1531,331.5391 419.3875,331.5391 Q420.1219,331.5391 420.7625,331.7109 Q421.4188,331.8672 421.9656,332.2266 Z " fill="#000000"/><text fill="#000000" font-family="FG Virgil" font-size="12" font-style="italic" lengthAdjust="spacing" textLength="68" x="455.3" y="332.457">«repository»</text><text fill="#000000" font-family="FG Virgil" font-size="14" lengthAdjust="spacing" textLength="103" x="437.8" y="349.627">PostItRepository</text><path d="M384.5,357.7031 L384.5,357.9834 L394.4444,357.1507 L404.3889,357.9608 L414.3333,358.236 L424.2778,356.7519 L434.2222,357.5995 L444.1667,357.1345 L454.1111,357.1918 L464.0556,357.6122 L474,356.7813 L483.9444,358.4413 L493.8889,356.8628 L503.8333,357.4394 L513.7778,358.2791 L523.7222,357.5888 L533.6667,357.7941 L543.6111,357.6605 L553.5556,357.9412 L563.5,357.7031 " fill="#F1F1F1" style="stroke:#181818;stroke-width:0.5;"/><path d="M384.5,365.7031 L384.5,365.9834 L394.4444,365.1507 L404.3889,365.9608 L414.3333,366.236 L424.2778,364.7519 L434.2222,365.5995 L444.1667,365.1345 L454.1111,365.1918 L464.0556,365.6122 L474,364.7813 L483.9444,366.4413 L493.8889,364.8628 L503.8333,365.4394 L513.7778,366.2791 L523.7222,365.5888 L533.6667,365.7941 L543.6111,365.6605 L553.5556,365.9412 L563.5,365.7031 " fill="#F1F1F1" style="stroke:#181818;stroke-width:0.5;"/><text fill="#000000" font-family="FG Virgil" font-size="14" lengthAdjust="spacing" textLength="169" x="389.5" y="384.2363">lastPostItsOnBoard(Board)</text></g><!--MD5=[3fd616f346a44cd59a91eb10b19e157c]
class User--><g id="elem_User"><polygon fill="#F1F1F1" points="49.5,323.5,49.5,323.7102,59.375,323.0857,69.25,323.6933,79.125,323.8997,89,322.7866,98.875,323.4223,108.75,323.0735,118.625,323.1165,128.5,323.5,128.4913,323.479,128.7654,323.4335,129.2777,323.9634,129.4803,323.7452,129.889,324.0249,130.2678,324.2322,130.4008,324.2873,130.3878,324.5748,130.5817,324.948,130.6973,325.2888,130.9085,325.6692,131,326,131.2391,326,131.5857,336.7406,131.6711,347.4813,131.6793,358.2219,131.2546,368.9625,131,379.7031,131.1428,379.7623,131.0698,380.1463,130.485,380.3182,130.7696,380.8503,130.3229,381.0795,130.2678,381.4709,130.3359,381.6353,129.8511,381.4649,129.5519,381.7427,129.3017,382.1386,128.8473,382.0417,128.5,382.2031,128.5,382.3084,118.625,382.5418,108.75,382.6194,98.875,382.1992,89,382.4903,79.125,381.6307,69.25,382.4875,59.375,382.7513,49.5,382.2031,49.5567,382.34,49.2246,382.2455,48.7313,381.7615,48.3561,381.5629,48.0065,381.426,47.7322,381.4709,47.7141,381.4634,47.5253,381.0923,47.6492,380.8507,47.2391,380.3879,47.0408,380.0129,47,379.7031,47.2283,379.7031,46.3332,368.9625,46.4809,358.2219,47.649,347.4813,47.4357,336.7406,47,326,47.2262,326.0937,47.0473,325.6054,47.3912,325.3336,47.6212,325.0147,47.4403,324.5255,47.7322,324.2322,47.72,324.2027,48.1019,324.1246,48.5225,324.1401,48.7924,323.7916,49.2055,323.7889,49.5,323.5" style="stroke:#181818;stroke-width:0.5;"/><polygon fill="#C2C2C2" points="73.0608,347.5272,71.4484,349.7304,69.5412,352.9573,66.8136,355.132,63.9474,356.3212,61.662,356.4244,58.7247,354.9371,55.9532,353.9655,53.8495,351.9927,52.7461,349.7343,52.0917,347.9361,51.4506,345.5873,50.41,343.566,51.2096,341.5926,51.9102,339.4308,54.5393,337.721,56.389,335.5027,58.6784,334.766,61.4001,334.1316,64.8904,334.5085,66.8021,335.4101,69.0247,335.8188,71.7272,338.5875,72.6693,341.5105,73.0786,343.5049,72.615,346.7914" style="stroke:#181818;stroke-width:1.0;"/><path d="M64.7656,340.7266 Q64.9219,340.5078 65.1094,340.3984 Q65.2969,340.2891 65.5156,340.2891 Q65.8906,340.2891 66.125,340.5547 Q66.3594,340.8047 66.3594,341.4141 L66.3594,342.8672 Q66.3594,343.4766 66.125,343.7422 Q65.8906,344.0078 65.5156,344.0078 Q65.1719,344.0078 64.9688,343.8047 Q64.7656,343.6172 64.6563,343.1016 Q64.6094,342.7422 64.4219,342.5547 Q64.0938,342.1797 63.4844,341.9609 Q62.875,341.7422 62.25,341.7422 Q61.4844,341.7422 60.8438,342.0703 Q60.2188,342.3984 59.7188,343.1484 Q59.2344,343.8984 59.2344,344.9297 L59.2344,346.0234 Q59.2344,347.2578 60.125,348.0859 Q61.0156,348.8984 62.6094,348.8984 Q63.5469,348.8984 64.2031,348.6484 Q64.5938,348.4922 65.0156,348.0547 Q65.2813,347.7891 65.4219,347.7109 Q65.5781,347.6328 65.7813,347.6328 Q66.1094,347.6328 66.3594,347.8984 Q66.625,348.1484 66.625,348.4922 Q66.625,348.8359 66.2813,349.2422 Q65.7813,349.8203 64.9844,350.1484 Q63.9063,350.6016 62.6094,350.6016 Q61.0938,350.6016 59.8906,349.9766 Q58.9063,349.4766 58.2188,348.4141 Q57.5313,347.3359 57.5313,346.0547 L57.5313,344.8984 Q57.5313,343.5703 58.1406,342.4297 Q58.7656,341.2734 59.8594,340.6641 Q60.9531,340.0391 62.1875,340.0391 Q62.9219,340.0391 63.5625,340.2109 Q64.2188,340.3672 64.7656,340.7266 Z " fill="#000000"/><text fill="#000000" font-family="FG Virgil" font-size="12" font-style="italic" lengthAdjust="spacing" textLength="56" x="74" y="340.957">«domain»</text><text fill="#000000" font-family="FG Virgil" font-size="14" lengthAdjust="spacing" textLength="29" x="87.5" y="358.127">User</text><path d="M48,366.2031 L48,366.4834 L58.25,365.6507 L68.5,366.4608 L78.75,366.736 L89,365.2519 L99.25,366.0995 L109.5,365.6345 L119.75,365.6918 L130,366.2031 " fill="#F1F1F1" style="stroke:#181818;stroke-width:0.5;"/><path d="M48,374.2031 L48,374.4834 L58.25,373.6507 L68.5,374.4608 L78.75,374.736 L89,373.2519 L99.25,374.0995 L109.5,373.6345 L119.75,373.6918 L130,374.2031 " fill="#F1F1F1" style="stroke:#181818;stroke-width:0.5;"/></g><!--MD5=[9563755d011c5cec7ec66dc53565a59e]
class Board--><g id="elem_Board"><polygon fill="#F1F1F1" points="183.5,452,183.5,452.2102,193.5526,451.5857,203.6053,452.1933,213.6579,452.3997,223.7105,451.2866,233.7632,451.9223,243.8158,451.5735,253.8684,451.6165,263.9211,451.9318,273.9737,451.3086,284.0263,452.5536,294.0789,451.3697,304.1316,451.8022,314.1842,452.4319,324.2368,451.9142,334.2895,452.0682,344.3421,451.9681,354.3947,452.1785,364.4474,452.2391,374.5,452,374.5747,452.1804,374.9392,452.3531,375.2938,452.5021,375.5931,452.5178,375.9733,452.7286,376.2678,452.7322,376.484,452.8218,376.1921,452.9938,376.7696,453.5259,376.6158,453.7551,377.0179,454.2145,377,454.5,376.505,454.5,376.9315,464.6875,377.7416,474.875,376.9513,485.0625,377.1053,495.25,377.3386,505.4375,377.4162,515.625,377,525.8125,376.9988,525.812,376.942,526.2027,376.5308,526.4466,376.6482,526.9094,376.583,527.2966,376.2678,527.5803,376.3245,527.7172,375.9924,527.9155,375.499,527.7244,375.1239,527.8188,374.7743,527.9747,374.5,528.3125,374.5,528.2536,364.4474,528.116,354.3947,528.9939,344.3421,528.1378,334.2895,527.9694,324.2368,528.5408,314.1842,527.6457,304.1316,527.7934,294.0789,528.9615,284.0263,528.7482,273.9737,529.047,263.9211,527.9907,253.8684,528.6317,243.8158,528.9029,233.7632,527.8401,223.7105,528.2166,213.6579,528.4385,203.6053,528.9643,193.5526,528.3083,183.5,528.3125,183.559,528.455,183.0758,527.9955,182.7065,527.811,182.5036,528.0283,181.9943,527.5059,181.7322,527.5803,181.889,527.6452,181.6494,527.2531,181.3568,526.839,181.1839,526.4745,181.2877,526.2246,181,525.8125,180.7007,525.8125,181.5919,515.625,180.4473,505.4375,181.6174,495.25,181.4843,485.0625,181.245,474.875,181.0472,464.6875,181,454.5,181.2238,454.5927,181.3354,454.2247,181.345,453.8145,181.5219,453.4736,181.5457,453.0692,181.7322,452.7322,181.8236,452.9529,182.1055,452.6335,182.4614,452.4925,182.7153,452.1055,183.0948,452.0217,183.5,452" style="stroke:#181818;stroke-width:0.5;"/><polygon fill="#C2C2C2" points="259.8108,476.0272,258.1984,478.2304,256.2912,481.4573,253.5636,483.632,250.6974,484.8212,248.412,484.9244,245.4747,483.4371,242.7032,482.4655,240.5995,480.4927,239.4961,478.2343,238.8417,476.4361,238.2006,474.0873,237.16,472.066,237.9596,470.0926,238.6602,467.9308,241.2893,466.221,243.139,464.0027,245.4284,463.266,248.1501,462.6316,251.6404,463.0085,253.5521,463.9101,255.7747,464.3188,258.4772,467.0875,259.4193,470.0105,259.8286,472.0049,259.365,475.2914" style="stroke:#181818;stroke-width:1.0;"/><path d="M251.5156,469.2266 Q251.6719,469.0078 251.8594,468.8984 Q252.0469,468.7891 252.2656,468.7891 Q252.6406,468.7891 252.875,469.0547 Q253.1094,469.3047 253.1094,469.9141 L253.1094,471.3672 Q253.1094,471.9766 252.875,472.2422 Q252.6406,472.5078 252.2656,472.5078 Q251.9219,472.5078 251.7188,472.3047 Q251.5156,472.1172 251.4063,471.6016 Q251.3594,471.2422 251.1719,471.0547 Q250.8438,470.6797 250.2344,470.4609 Q249.625,470.2422 249,470.2422 Q248.2344,470.2422 247.5938,470.5703 Q246.9688,470.8984 246.4688,471.6484 Q245.9844,472.3984 245.9844,473.4297 L245.9844,474.5234 Q245.9844,475.7578 246.875,476.5859 Q247.7656,477.3984 249.3594,477.3984 Q250.2969,477.3984 250.9531,477.1484 Q251.3438,476.9922 251.7656,476.5547 Q252.0313,476.2891 252.1719,476.2109 Q252.3281,476.1328 252.5313,476.1328 Q252.8594,476.1328 253.1094,476.3984 Q253.375,476.6484 253.375,476.9922 Q253.375,477.3359 253.0313,477.7422 Q252.5313,478.3203 251.7344,478.6484 Q250.6563,479.1016 249.3594,479.1016 Q247.8438,479.1016 246.6406,478.4766 Q245.6563,477.9766 244.9688,476.9141 Q244.2813,475.8359 244.2813,474.5547 L244.2813,473.3984 Q244.2813,472.0703 244.8906,470.9297 Q245.5156,469.7734 246.6094,469.1641 Q247.7031,468.5391 248.9375,468.5391 Q249.6719,468.5391 250.3125,468.7109 Q250.9688,468.8672 251.5156,469.2266 Z " fill="#000000"/><text fill="#000000" font-family="FG Virgil" font-size="12" font-style="italic" lengthAdjust="spacing" textLength="56" x="267.25" y="469.457">«domain»</text><text fill="#000000" font-family="FG Virgil" font-size="14" lengthAdjust="spacing" textLength="38" x="276.25" y="486.627">Board</text><path d="M182,494.7031 L182,494.9834 L192.2105,494.1507 L202.4211,494.9608 L212.6316,495.236 L222.8421,493.7519 L233.0526,494.5995 L243.2632,494.1345 L253.4737,494.1918 L263.6842,494.6122 L273.8947,493.7813 L284.1053,495.4413 L294.3158,493.8628 L304.5263,494.4394 L314.7368,495.2791 L324.9474,494.5888 L335.1579,494.7941 L345.3684,494.6605 L355.5789,494.9412 L365.7895,495.022 L376,494.7031 " fill="#F1F1F1" style="stroke:#181818;stroke-width:0.5;"/><path d="M182,502.7031 L182,502.9834 L192.2105,502.1507 L202.4211,502.9608 L212.6316,503.236 L222.8421,501.7519 L233.0526,502.5995 L243.2632,502.1345 L253.4737,502.1918 L263.6842,502.6122 L273.8947,501.7813 L284.1053,503.4413 L294.3158,501.8628 L304.5263,502.4394 L314.7368,503.2791 L324.9474,502.5888 L335.1579,502.7941 L345.3684,502.6605 L355.5789,502.9412 L365.7895,503.022 L376,502.7031 " fill="#F1F1F1" style="stroke:#181818;stroke-width:0.5;"/><text fill="#000000" font-family="FG Virgil" font-size="14" lengthAdjust="spacing" textLength="184" x="187" y="521.2363">userHasAnyPermission(User)</text></g><!--MD5=[458552462bbdcbc92793825846cc11c0]
class PostIt--><g id="elem_PostIt"><polygon fill="#F1F1F1" points="443,466,443,466.2102,453.3333,465.5857,463.6667,466.1933,474,466.3997,484.3333,465.2866,494.6667,465.9223,505,466,504.9456,465.8687,505.3046,466.0283,505.6984,466.2719,505.9725,466.2264,506.4848,466.7563,506.7678,466.7322,506.5737,466.6518,506.8533,467.0606,507.1937,467.4944,507.1807,467.782,507.3746,468.1552,507.5,468.5,507.4894,468.5,507.5595,477.1,507.5797,485.7,507.6952,494.3,507.7237,502.9,507.5,511.5,507.7092,511.5866,507.432,511.886,507.3499,512.2662,507.2769,512.6502,506.6921,512.8222,506.7678,513.2678,506.8543,513.4767,506.3764,513.3229,506.1288,513.7251,505.644,513.5547,505.3448,513.8325,505,514,505,514.7416,494.6667,513.9513,484.3333,514.1053,474,514.3386,463.6667,514.4162,453.3333,513.9961,443,514,443.0366,514.0885,442.5734,513.6773,442.3292,513.7947,442.0093,513.7295,441.6425,513.5511,441.2322,513.2678,441.421,513.346,440.937,512.8526,440.7385,512.4775,440.6015,512.1278,440.6283,511.846,440.5,511.5,440.4345,511.5,440.7271,502.9,440.4418,494.3,440.3856,485.7,440.5761,477.1,440.5,468.5,440.2946,468.4149,440.4866,468.0802,440.9927,467.8757,441.0735,467.4949,441.312,467.1795,441.2322,466.7322,441.1912,466.6331,441.6265,466.6841,442.0147,466.6212,442.2326,466.1474,442.6342,466.1169,443,466" style="stroke:#181818;stroke-width:0.5;"/><polygon fill="#C2C2C2" points="466.5608,484.6756,464.9484,486.8788,463.0412,490.1057,460.3136,492.2804,457.4474,493.4696,455.162,493.5728,452.2247,492.0855,449.4532,491.1139,447.3495,489.1412,446.2461,486.8828,445.5917,485.0845,444.9506,482.7357,443.91,480.7145,444.7096,478.741,445.4102,476.5792,448.0393,474.8695,449.889,472.6511,452.1784,471.9144,454.9001,471.2801,458.3904,471.657,460.3021,472.5585,462.5247,472.9672,465.2272,475.736,466.1693,478.659,466.5786,480.6534,466.115,483.9399" style="stroke:#181818;stroke-width:1.0;"/><path d="M458.2656,477.875 Q458.4219,477.6563 458.6094,477.5469 Q458.7969,477.4375 459.0156,477.4375 Q459.3906,477.4375 459.625,477.7031 Q459.8594,477.9531 459.8594,478.5625 L459.8594,480.0156 Q459.8594,480.625 459.625,480.8906 Q459.3906,481.1563 459.0156,481.1563 Q458.6719,481.1563 458.4688,480.9531 Q458.2656,480.7656 458.1563,480.25 Q458.1094,479.8906 457.9219,479.7031 Q457.5938,479.3281 456.9844,479.1094 Q456.375,478.8906 455.75,478.8906 Q454.9844,478.8906 454.3438,479.2188 Q453.7188,479.5469 453.2188,480.2969 Q452.7344,481.0469 452.7344,482.0781 L452.7344,483.1719 Q452.7344,484.4063 453.625,485.2344 Q454.5156,486.0469 456.1094,486.0469 Q457.0469,486.0469 457.7031,485.7969 Q458.0938,485.6406 458.5156,485.2031 Q458.7813,484.9375 458.9219,484.8594 Q459.0781,484.7813 459.2813,484.7813 Q459.6094,484.7813 459.8594,485.0469 Q460.125,485.2969 460.125,485.6406 Q460.125,485.9844 459.7813,486.3906 Q459.2813,486.9688 458.4844,487.2969 Q457.4063,487.75 456.1094,487.75 Q454.5938,487.75 453.3906,487.125 Q452.4063,486.625 451.7188,485.5625 Q451.0313,484.4844 451.0313,483.2031 L451.0313,482.0469 Q451.0313,480.7188 451.6406,479.5781 Q452.2656,478.4219 453.3594,477.8125 Q454.4531,477.1875 455.6875,477.1875 Q456.4219,477.1875 457.0625,477.3594 Q457.7188,477.5156 458.2656,477.875 Z " fill="#000000"/><text fill="#000000" font-family="FG Virgil" font-size="14" lengthAdjust="spacing" textLength="35" x="469.5" y="487.7285">PostIt</text><path d="M441.5,498 L441.5,498.2802 L450.7857,497.4476 L460.0714,498.2577 L469.3571,498.5329 L478.6429,497.0488 L487.9286,497.8964 L497.2143,497.4313 L506.5,498 " fill="#F1F1F1" style="stroke:#181818;stroke-width:0.5;"/><path d="M441.5,506 L441.5,506.2802 L450.7857,505.4476 L460.0714,506.2577 L469.3571,506.5329 L478.6429,505.0488 L487.9286,505.8964 L497.2143,505.4313 L506.5,506 " fill="#F1F1F1" style="stroke:#181818;stroke-width:0.5;"/></g><!--MD5=[a694122e0b7e730cb868649cf791824a]
link HttpServerAjax to GetPostItsController--><g id="link_HttpServerAjax_GetPostItsController"><path d="M233.87,83.18 L234.0914,83.3518 L239.7758,91.0124 L246.758,99.6802 L253.3176,108.0201 L258.4875,115.2812 L265.4993,123.972 L271.4741,131.858 L277.8616,140.0643 L284.536,148.4932 L290.95,156.72 " fill="none" style="stroke:#181818;stroke-width:1.0;"/><polygon fill="#181818" points="294.23,160.94,294.298,160.9569,293.6209,158.9951,293.3424,157.1323,292.9341,155.2372,292.099,153.2361,291.8548,151.3819,291.829,151.3787,291.5742,152.4871,291.4489,153.6116,291.4138,154.7473,291.0681,155.8444,291.1573,156.9955,291.1801,157.1787,290.0087,156.6476,288.9037,156.6512,287.8069,156.72,286.6628,156.4092,285.5436,156.2981,285.5544,156.3182,287.2759,157.2171,289.0462,158.2074,290.793,159.1536,292.5847,160.1838,294.23,160.94" style="stroke:#181818;stroke-width:1.0;"/><text fill="#000000" font-family="FG Virgil" font-size="13" lengthAdjust="spacing" textLength="73" x="269" y="127.4951">theController</text></g><!--MD5=[886edeef38e246f68555233ed43ef7bd]
link HttpServerAjax to SessionManager--><g id="link_HttpServerAjax_SessionManager"><path d="M176.62,83.18 L176.8428,83.35 L170.1818,90.7059 L164.8269,99.0583 L159.0466,107.0863 L151.8678,114.0469 L146.5426,122.4221 L140.1739,130.001 L134.2205,137.8968 L128.5558,146.0129 L121.8962,153.3698 L116.63,161.79 " fill="none" style="stroke:#181818;stroke-width:1.0;"/><polygon fill="#181818" points="113.55,165.83,113.5837,165.8914,115.2113,164.7627,117.0362,163.9941,118.7969,163.1083,120.3463,161.8367,122.1882,161.099,122.1847,161.0734,121.0479,161.1092,119.9286,161.2744,118.8214,161.5296,117.6724,161.4747,116.5819,161.8542,116.7648,161.8788,116.2227,160.7049,116.2146,159.6029,116.2716,158.5096,115.9495,157.3654,115.8268,156.2479,115.8489,156.2532,115.3611,158.1619,114.974,160.0945,114.5383,162.0156,114.1953,163.9587,113.55,165.83" style="stroke:#181818;stroke-width:1.0;"/><text fill="#000000" font-family="FG Virgil" font-size="13" lengthAdjust="spacing" textLength="95" x="152" y="127.4951">sessionManager</text></g><!--MD5=[03727ec6cb9345b1ea2ec3da97ebd9c7]
link GetPostItsController to BoardRepository--><g id="link_GetPostItsController_BoardRepository"><path d="M312.24,237.18 L312.5092,237.2579 L309.0794,246.1114 L307.2276,255.4217 L304.8619,264.5832 L300.8063,273.2555 L298.9905,282.5762 L295.9138,291.5319 L293.3388,300.6328 L291.2,309.86 " fill="none" style="stroke:#181818;stroke-width:1.0;"/><polygon fill="#181818" points="289.73,314.94,289.7836,314.9851,290.8922,313.3436,292.315,311.9665,293.6356,310.5033,294.6195,308.757,296.0693,307.4026,296.0568,307.3799,295.0101,307.8248,294.0266,308.3841,293.0868,309.0228,291.996,309.3877,291.1168,310.1362,291.2784,310.2254,290.3862,309.0441,289.9657,308.1233,289.6027,307.2342,288.9049,306.1603,288.3832,305.1837,288.4057,305.1868,288.642,307.1335,288.9809,309.0943,289.2702,311.0484,289.654,313.0154,289.73,314.94" style="stroke:#181818;stroke-width:1.0;"/><text fill="#000000" font-family="FG Virgil" font-size="13" lengthAdjust="spacing" textLength="94" x="304" y="281.4951">boardRepository</text></g><!--MD5=[c81bee27404ee5bd07fb58f26ce002ab]
link GetPostItsController to PostItRepository--><g id="link_GetPostItsController_PostItRepository"><path d="M373.48,237.17 L373.5394,237.2421 L375.0887,238.4512 L376.9864,240.0828 L378.7706,241.5768 L380.1818,242.6184 L382.1094,244.2863 L382.0868,244.2601 L383.7017,245.623 L385.4303,247.1177 L387.238,248.7041 L388.7732,249.9746 L390.69,251.6875 L390.8556,251.8695 L392.1726,253.0003 L393.9731,254.6625 L395.8325,256.3895 L397.3488,257.7393 L399.0456,259.2875 L399.0667,259.3093 L400.6266,260.8198 L402.2826,262.4295 L403.8922,263.9913 L405.5903,265.6444 L407,267 L407.2163,267.2053 L409.206,269.3018 L411.0562,271.2659 L413.1106,273.4238 L415.1745,275.5908 L416.9352,277.47 L416.6943,277.2586 L419.1025,279.8799 L420.7176,281.8051 L422.9356,284.2595 L424.5327,286.1689 L426.6387,288.525 L426.6153,288.5056 L428.7508,290.9863 L430.3377,293.0142 L432.2484,295.3093 L434.1862,297.6268 L435.928,299.7825 L436.0735,299.8967 L437.665,301.9969 L439.5052,304.2923 L440.943,306.272 L442.981,308.7225 L444.62,310.86 " fill="none" style="stroke:#181818;stroke-width:1.0;"/><polygon fill="#181818" points="447.7,314.9,447.7682,314.9162,447.1103,312.9517,446.852,311.0821,446.4635,309.1816,445.6472,307.1794,445.4232,305.3179,445.3975,305.3145,445.1313,306.4202,444.9944,307.5434,444.9476,308.6786,444.5907,309.7721,444.6681,310.9242,444.6927,311.1071,443.5188,310.5649,442.4168,310.5568,441.3235,310.6138,440.1793,310.2917,439.0618,310.169,439.0728,310.189,440.7844,311.1059,442.5457,312.1136,444.283,313.0775,446.0661,314.125,447.7,314.9" style="stroke:#181818;stroke-width:1.0;"/><text fill="#000000" font-family="FG Virgil" font-size="13" lengthAdjust="spacing" textLength="94" x="425" y="281.4951">postItRepository</text></g><!--MD5=[cfa8c6cc09150aa1a34895e749736282]
link SessionManager to User--><g id="link_SessionManager_User"><path d="M89,232.24 L89.2802,232.24 L88.4476,241.8133 L89.2577,251.3867 L89.5329,260.96 L88.0488,270.5333 L88.8964,280.1067 L88.4313,289.68 L88.4887,299.2533 L88.9091,308.8267 L89,318.4 " fill="none" style="stroke:#181818;stroke-width:1.0;stroke-dasharray:7.0,7.0;"/><polygon fill="#181818" points="89,323.4,89.064,323.4285,89.6738,321.5439,90.6589,319.8262,91.5217,318.0541,91.9827,316.1034,93,314.4,92.9817,314.3817,92.0995,315.0995,91.3096,315.9096,90.5839,316.7839,89.637,317.437,89,318.4,89.1305,318.5305,88.0514,317.4514,87.3534,316.7534,86.7018,316.1018,85.7798,315.1798,85,314.4,85.0208,314.4092,85.7903,316.1957,86.6544,318.0242,87.4728,319.8324,88.3784,321.6793,89,323.4" style="stroke:#181818;stroke-width:1.0;"/></g><!--MD5=[c2b2d28b8f8fd1e85bbeebc0fff5bd46]
link BoardRepository to Board--><g id="link_BoardRepository_Board"><path d="M279,391.25 L279.2802,391.25 L278.4476,400.4533 L279.2577,409.6567 L279.5329,418.86 L278.0488,428.0633 L278.8964,437.2667 L279,446.47 " fill="none" style="stroke:#181818;stroke-width:1.0;"/><polygon fill="#181818" points="279,451.87,279.064,451.8985,279.6738,450.0139,280.6589,448.2962,281.5217,446.5241,281.9827,444.5734,283,442.87,282.9817,442.8517,282.0995,443.5695,281.3096,444.3796,280.5839,445.2539,279.637,445.907,279,446.87,279.1305,447.0005,278.0514,445.9214,277.3534,445.2234,276.7018,444.5718,275.7798,443.6498,275,442.87,275.0208,442.8792,275.7903,444.6657,276.6544,446.4942,277.4728,448.3024,278.3784,450.1493,279,451.87" style="stroke:#181818;stroke-width:1.0;"/></g><!--MD5=[a179befad2a701e07a9299659a8da84c]
link PostItRepository to PostIt--><g id="link_PostItRepository_PostIt"><path d="M474,391.25 L474.2802,391.25 L473.4476,401.1614 L474.2577,411.0729 L474.5329,420.9843 L473.0488,430.8957 L473.8964,440.8071 L473.4313,450.7186 L474,460.63 " fill="none" style="stroke:#181818;stroke-width:1.0;stroke-dasharray:7.0,7.0;"/><polygon fill="#181818" points="474,465.86,474.064,465.8885,474.6738,464.0039,475.6589,462.2862,476.5217,460.5141,476.9827,458.5634,478,456.86,477.9817,456.8417,477.0995,457.5595,476.3096,458.3696,475.5839,459.2439,474.637,459.897,474,460.86,474.1305,460.9905,473.0514,459.9114,472.3534,459.2134,471.7018,458.5618,470.7798,457.6398,470,456.86,470.0208,456.8692,470.7903,458.6557,471.6544,460.4842,472.4728,462.2924,473.3784,464.1393,474,465.86" style="stroke:#181818;stroke-width:1.0;"/></g><!--MD5=[49829c498f6ea853c180916c17fbe1b7]
@startuml
'http://plantuml.com/skinparam.html
skinparam handwritten true
skinparam monochrome true
skinparam packageStyle rect
skinparam defaultFontName FG Virgil
skinparam shadowing false


class HttpServerAjax <<http server>>
class SessionManager
class GetPostItsController <<application>>
class BoardRepository <<repository>>
class PostItRepository <<repository>>
class User <<domain>>
class Board <<domain>>

HttpServerAjax - -> GetPostItsController: theController
HttpServerAjax - -> SessionManager: sessionManager
GetPostItsController - -> BoardRepository: boardRepository
GetPostItsController - -> PostItRepository: postItRepository
SessionManager ..> User
BoardRepository - -> Board
PostItRepository ..> PostIt



HttpServerAjax : getLastPostItsByBoard(String, String)
SessionManager : getUserByToken(String)
GetPostItsController : getLastPostItsByBoard(Long, User)
BoardRepository : ofIdentity(Long)
PostItRepository : lastPostItsOnBoard(Board)
Board : userHasAnyPermission(User)

@enduml

@startuml
skinparam handwritten true
skinparam monochrome true
skinparam packageStyle rect
skinparam defaultFontName FG Virgil
skinparam shadowing false


class HttpServerAjax <<http server>>
class SessionManager
class GetPostItsController <<application>>
class BoardRepository <<repository>>
class PostItRepository <<repository>>
class User <<domain>>
class Board <<domain>>

HttpServerAjax - -> GetPostItsController: theController
HttpServerAjax - -> SessionManager: sessionManager
GetPostItsController - -> BoardRepository: boardRepository
GetPostItsController - -> PostItRepository: postItRepository
SessionManager ..> User
BoardRepository - -> Board
PostItRepository ..> PostIt



HttpServerAjax : getLastPostItsByBoard(String, String)
SessionManager : getUserByToken(String)
GetPostItsController : getLastPostItsByBoard(Long, User)
BoardRepository : ofIdentity(Long)
PostItRepository : lastPostItsOnBoard(Board)
Board : userHasAnyPermission(User)

@enduml

PlantUML version 1.2022.7(Mon Aug 22 18:01:30 BST 2022)
(GPL source distribution)
Java Runtime: Java(TM) SE Runtime Environment
JVM: Java HotSpot(TM) 64-Bit Server VM
Default Encoding: Cp1252
Language: pt
Country: PT
--></g></svg>