<?xml version="1.0" encoding="UTF-8" standalone="no"?><svg xmlns="http://www.w3.org/2000/svg" xmlns:xlink="http://www.w3.org/1999/xlink" contentStyleType="text/css" height="517px" preserveAspectRatio="none" style="width:390px;height:517px;background:#FFFFFF;" version="1.1" viewBox="0 0 390 517" width="390px" zoomAndPan="magnify"><defs/><g><!--MD5=[475f3b715ca7ffb20b7527e2f35f29f1]
class HttpServerAjax--><g id="elem_HttpServerAjax"><polygon fill="#F1F1F1" points="90.5,7,90.5,7.2102,100.6579,6.5857,110.8158,7.1933,120.9737,7.3997,131.1316,6.2866,141.2895,6.9223,151.4474,6.5735,161.6053,6.6165,171.7632,6.9318,181.9211,6.3086,192.0789,7.5536,202.2368,6.3697,212.3947,6.8022,222.5526,7.4319,232.7105,6.9142,242.8684,7.0682,253.0263,6.9681,263.1842,7.1785,273.3421,7.2391,283.5,7,283.5747,7.1804,283.9392,7.3531,284.2938,7.5021,284.5931,7.5178,284.9733,7.7286,285.2678,7.7322,285.484,7.8218,285.1921,7.9938,285.7696,8.5259,285.6158,8.7551,286.0179,9.2145,286,9.5,285.505,9.5,285.9315,19.6875,286.7416,29.875,285.9513,40.0625,286.1053,50.25,286.3386,60.4375,286.4162,70.625,286,80.8125,285.9988,80.812,285.942,81.2027,285.5308,81.4466,285.6482,81.9094,285.583,82.2966,285.2678,82.5803,285.3245,82.7172,284.9924,82.9155,284.499,82.7244,284.1239,82.8188,283.7743,82.9747,283.5,83.3125,283.5,83.2536,273.3421,83.116,263.1842,83.9939,253.0263,83.1378,242.8684,82.9694,232.7105,83.5408,222.5526,82.6457,212.3947,82.7934,202.2368,83.9615,192.0789,83.7482,181.9211,84.047,171.7632,82.9907,161.6053,83.6317,151.4474,83.9029,141.2895,82.8401,131.1316,83.2166,120.9737,83.4385,110.8158,83.9643,100.6579,83.3083,90.5,83.3125,90.559,83.455,90.0758,82.9955,89.7065,82.811,89.5036,83.0283,88.9943,82.5059,88.7322,82.5803,88.889,82.6452,88.6494,82.2531,88.3568,81.839,88.1839,81.4745,88.2877,81.2246,88,80.8125,87.7007,80.8125,88.5919,70.625,87.4473,60.4375,88.6174,50.25,88.4843,40.0625,88.245,29.875,88.0472,19.6875,88,9.5,88.2238,9.5927,88.3354,9.2247,88.345,8.8145,88.5219,8.4736,88.5457,8.0692,88.7322,7.7322,88.8236,7.9529,89.1055,7.6335,89.4614,7.4925,89.7153,7.1055,90.0948,7.0217,90.5,7" style="stroke:#181818;stroke-width:0.5;"/><polygon fill="#C2C2C2" points="147.3108,31.0272,145.6984,33.2304,143.7912,36.4573,141.0636,38.632,138.1974,39.8212,135.912,39.9244,132.9747,38.4371,130.2032,37.4655,128.0995,35.4927,126.9961,33.2343,126.3417,31.4361,125.7006,29.0873,124.66,27.066,125.4596,25.0926,126.1602,22.9308,128.7893,21.221,130.639,19.0027,132.9284,18.266,135.6501,17.6316,139.1404,18.0085,141.0521,18.9101,143.2747,19.3188,145.9772,22.0875,146.9193,25.0105,147.3286,27.0049,146.865,30.2914" style="stroke:#181818;stroke-width:1.0;"/><path d="M139.0156,24.2266 Q139.1719,24.0078 139.3594,23.8984 Q139.5469,23.7891 139.7656,23.7891 Q140.1406,23.7891 140.375,24.0547 Q140.6094,24.3047 140.6094,24.9141 L140.6094,26.3672 Q140.6094,26.9766 140.375,27.2422 Q140.1406,27.5078 139.7656,27.5078 Q139.4219,27.5078 139.2188,27.3047 Q139.0156,27.1172 138.9063,26.6016 Q138.8594,26.2422 138.6719,26.0547 Q138.3438,25.6797 137.7344,25.4609 Q137.125,25.2422 136.5,25.2422 Q135.7344,25.2422 135.0938,25.5703 Q134.4688,25.8984 133.9688,26.6484 Q133.4844,27.3984 133.4844,28.4297 L133.4844,29.5234 Q133.4844,30.7578 134.375,31.5859 Q135.2656,32.3984 136.8594,32.3984 Q137.7969,32.3984 138.4531,32.1484 Q138.8438,31.9922 139.2656,31.5547 Q139.5313,31.2891 139.6719,31.2109 Q139.8281,31.1328 140.0313,31.1328 Q140.3594,31.1328 140.6094,31.3984 Q140.875,31.6484 140.875,31.9922 Q140.875,32.3359 140.5313,32.7422 Q140.0313,33.3203 139.2344,33.6484 Q138.1563,34.1016 136.8594,34.1016 Q135.3438,34.1016 134.1406,33.4766 Q133.1563,32.9766 132.4688,31.9141 Q131.7813,30.8359 131.7813,29.5547 L131.7813,28.3984 Q131.7813,27.0703 132.3906,25.9297 Q133.0156,24.7734 134.1094,24.1641 Q135.2031,23.5391 136.4375,23.5391 Q137.1719,23.5391 137.8125,23.7109 Q138.4688,23.8672 139.0156,24.2266 Z " fill="#000000"/><text fill="#000000" font-family="FG Virgil" font-size="12" font-style="italic" lengthAdjust="spacing" textLength="71" x="167.75" y="24.457">«http server»</text><text fill="#000000" font-family="FG Virgil" font-size="14" lengthAdjust="spacing" textLength="93" x="156.75" y="41.627">HttpServerAjax</text><path d="M89,49.7031 L89,49.9834 L98.8,49.1507 L108.6,49.9608 L118.4,50.236 L128.2,48.7519 L138,49.5995 L147.8,49.1345 L157.6,49.1918 L167.4,49.6122 L177.2,48.7813 L187,50.4413 L196.8,48.8628 L206.6,49.4394 L216.4,50.2791 L226.2,49.5888 L236,49.7941 L245.8,49.6605 L255.6,49.9412 L265.4,50.022 L275.2,50.484 L285,49.7031 " fill="#F1F1F1" style="stroke:#181818;stroke-width:0.5;"/><path d="M89,57.7031 L89,57.9834 L98.8,57.1507 L108.6,57.9608 L118.4,58.236 L128.2,56.7519 L138,57.5995 L147.8,57.1345 L157.6,57.1918 L167.4,57.6122 L177.2,56.7813 L187,58.4413 L196.8,56.8628 L206.6,57.4394 L216.4,58.2791 L226.2,57.5888 L236,57.7941 L245.8,57.6605 L255.6,57.9412 L265.4,58.022 L275.2,58.484 L285,57.7031 " fill="#F1F1F1" style="stroke:#181818;stroke-width:0.5;"/><text fill="#000000" font-family="FG Virgil" font-size="14" lengthAdjust="spacing" textLength="186" x="94" y="76.2363">getUserAccessBoards(String)</text></g><!--MD5=[f097a9da547c6f19ba7a5c97c093eb18]
class SessionManager--><g id="elem_SessionManager"><polygon fill="#F1F1F1" points="9.5,166,9.5,166.2102,19.4375,165.5857,29.375,166.1933,39.3125,166.3997,49.25,165.2866,59.1875,165.9223,69.125,165.5735,79.0625,165.6165,89,165.9318,98.9375,165.3086,108.875,166.5536,118.8125,165.3697,128.75,165.8022,138.6875,166.4319,148.625,165.9142,158.5625,166.0682,168.5,166,168.4959,165.9902,168.8763,166.2014,169.2376,166.3665,169.6354,166.6197,169.9998,166.7924,170.2678,166.7322,170.477,166.8189,170.4926,167.1183,170.7034,167.4985,170.9234,167.8825,170.6315,168.0545,171,168.5,171.6785,168.5,170.7035,178.6016,171.5338,188.7031,170.505,198.8047,170.9315,208.9063,171.7416,219.0078,171,229.1094,170.985,229.1032,170.886,229.4764,170.8114,229.8597,170.6888,230.2231,170.413,230.5231,170.2678,230.8771,170.3044,230.9656,169.8412,230.8473,169.5969,231.2576,169.277,231.4853,168.9103,231.5998,168.5,231.6094,168.5,232.2224,158.5625,231.1263,148.625,230.9572,138.6875,230.988,128.75,231.5505,118.8125,231.4128,108.875,232.2908,98.9375,231.4347,89,231.2663,79.0625,231.8376,69.125,230.9425,59.1875,231.0902,49.25,232.2583,39.3125,232.045,29.375,232.3439,19.4375,231.2876,9.5,231.6094,9.5407,231.7077,9.2218,231.6448,8.7326,231.171,8.4271,231.1405,8.1019,231.0624,7.7322,230.8771,7.9329,230.9603,7.5845,230.5231,7.5818,230.229,7.1223,229.7458,6.9379,229.3765,7,229.1094,7.5036,229.1094,6.2831,219.0078,7.509,208.9063,7.2066,198.8047,6.7321,188.7031,6.6462,178.6016,7,168.5,7.1413,168.5585,7.0543,168.1083,7.4752,167.8684,7.2691,167.3688,7.7759,167.1645,7.7322,166.7322,7.794,166.8814,8.117,166.6612,8.4454,166.4539,8.8856,166.5167,9.2247,166.3354,9.5,166" style="stroke:#181818;stroke-width:0.5;"/><polygon fill="#C2C2C2" points="44.7608,184.6756,43.1484,186.8788,41.2412,190.1057,38.5136,192.2804,35.6474,193.4696,33.362,193.5728,30.4247,192.0855,27.6532,191.1139,25.5495,189.1412,24.4461,186.8828,23.7917,185.0845,23.1506,182.7357,22.11,180.7145,22.9096,178.741,23.6102,176.5792,26.2393,174.8695,28.089,172.6511,30.3784,171.9144,33.1001,171.2801,36.5904,171.657,38.5021,172.5585,40.7247,172.9672,43.4272,175.736,44.3693,178.659,44.7786,180.6534,44.315,183.9399" style="stroke:#181818;stroke-width:1.0;"/><path d="M36.4656,177.875 Q36.6219,177.6563 36.8094,177.5469 Q36.9969,177.4375 37.2156,177.4375 Q37.5906,177.4375 37.825,177.7031 Q38.0594,177.9531 38.0594,178.5625 L38.0594,180.0156 Q38.0594,180.625 37.825,180.8906 Q37.5906,181.1563 37.2156,181.1563 Q36.8719,181.1563 36.6688,180.9531 Q36.4656,180.7656 36.3563,180.25 Q36.3094,179.8906 36.1219,179.7031 Q35.7938,179.3281 35.1844,179.1094 Q34.575,178.8906 33.95,178.8906 Q33.1844,178.8906 32.5438,179.2188 Q31.9188,179.5469 31.4188,180.2969 Q30.9344,181.0469 30.9344,182.0781 L30.9344,183.1719 Q30.9344,184.4063 31.825,185.2344 Q32.7156,186.0469 34.3094,186.0469 Q35.2469,186.0469 35.9031,185.7969 Q36.2938,185.6406 36.7156,185.2031 Q36.9813,184.9375 37.1219,184.8594 Q37.2781,184.7813 37.4813,184.7813 Q37.8094,184.7813 38.0594,185.0469 Q38.325,185.2969 38.325,185.6406 Q38.325,185.9844 37.9813,186.3906 Q37.4813,186.9688 36.6844,187.2969 Q35.6063,187.75 34.3094,187.75 Q32.7938,187.75 31.5906,187.125 Q30.6063,186.625 29.9188,185.5625 Q29.2313,184.4844 29.2313,183.2031 L29.2313,182.0469 Q29.2313,180.7188 29.8406,179.5781 Q30.4656,178.4219 31.5594,177.8125 Q32.6531,177.1875 33.8875,177.1875 Q34.6219,177.1875 35.2625,177.3594 Q35.9188,177.5156 36.4656,177.875 Z " fill="#000000"/><text fill="#000000" font-family="FG Virgil" font-size="14" lengthAdjust="spacing" textLength="106" x="50.3" y="187.7285">SessionManager</text><path d="M8,198 L8,198.2802 L18.125,197.4476 L28.25,198.2577 L38.375,198.5329 L48.5,197.0488 L58.625,197.8964 L68.75,197.4313 L78.875,197.4887 L89,197.9091 L99.125,197.0782 L109.25,198.7382 L119.375,197.1596 L129.5,197.7363 L139.625,198.5759 L149.75,197.8856 L159.875,198.091 L170,198 " fill="#F1F1F1" style="stroke:#181818;stroke-width:0.5;"/><path d="M8,206 L8,206.2802 L18.125,205.4476 L28.25,206.2577 L38.375,206.5329 L48.5,205.0488 L58.625,205.8964 L68.75,205.4313 L78.875,205.4887 L89,205.9091 L99.125,205.0782 L109.25,206.7382 L119.375,205.1596 L129.5,205.7363 L139.625,206.5759 L149.75,205.8856 L159.875,206.091 L170,206 " fill="#F1F1F1" style="stroke:#181818;stroke-width:0.5;"/><text fill="#000000" font-family="FG Virgil" font-size="14" lengthAdjust="spacing" textLength="152" x="13" y="224.5332">getUserByToken(String)</text></g><!--MD5=[9301c5862bc4d8de730c74455b55c34b]
class GetBoardsController--><g id="elem_GetBoardsController"><polygon fill="#F1F1F1" points="208.5,161,208.5,161.2102,218.3125,160.5857,228.125,161.1933,237.9375,161.3997,247.75,160.2866,257.5625,160.9223,267.375,160.5735,277.1875,160.6165,287,160.9318,296.8125,160.3086,306.625,161.5536,316.4375,160.3697,326.25,160.8022,336.0625,161.4319,345.875,160.9142,355.6875,161.0682,365.5,161,365.4959,160.9902,365.8763,161.2014,366.2376,161.3665,366.6354,161.6197,366.9998,161.7924,367.2678,161.7322,367.477,161.8189,367.4926,162.1183,367.7034,162.4985,367.9234,162.8825,367.6315,163.0545,368,163.5,368.6785,163.5,367.7035,173.6875,368.5338,183.875,367.505,194.0625,367.9315,204.25,368.7416,214.4375,367.9513,224.625,368,234.8125,368.0324,234.8259,367.9578,235.2092,367.8353,235.5727,367.5595,235.8727,367.5027,236.2634,367.2678,236.5803,367.1947,236.404,366.9505,236.8143,366.6306,237.042,366.2638,237.1565,365.9318,237.3548,365.5,237.3125,365.5,236.8294,355.6875,236.6603,345.875,236.6911,336.0625,237.2536,326.25,237.116,316.4375,237.9939,306.625,237.1378,296.8125,236.9694,287,237.5408,277.1875,236.6457,267.375,236.7934,257.5625,237.9615,247.75,237.7482,237.9375,238.047,228.125,236.9907,218.3125,237.6317,208.5,237.3125,208.5753,237.4943,208.0862,237.0206,207.7807,236.9901,207.4554,236.912,207.1689,236.9274,206.7322,236.5803,206.7309,236.5797,206.7282,236.2857,206.2688,235.8025,206.0843,235.4332,206.3015,235.2303,206,234.8125,205.2831,234.8125,206.509,224.625,206.2066,214.4375,205.7321,204.25,205.6462,194.0625,206.4588,183.875,205.7007,173.6875,206,163.5,206.1823,163.5755,205.9762,163.0759,206.483,162.8717,206.5885,162.5011,206.6612,162.117,206.7322,161.7322,206.7383,161.7468,207.1785,161.8096,207.5176,161.6283,207.8145,161.345,208.1807,161.229,208.5,161" style="stroke:#181818;stroke-width:0.5;"/><polygon fill="#C2C2C2" points="232.0608,185.0272,230.4484,187.2304,228.5412,190.4573,225.8136,192.632,222.9474,193.8212,220.662,193.9244,217.7247,192.4371,214.9532,191.4655,212.8495,189.4927,211.7461,187.2343,211.0917,185.4361,210.4506,183.0873,209.41,181.066,210.2096,179.0926,210.9102,176.9308,213.5393,175.221,215.389,173.0027,217.6784,172.266,220.4001,171.6316,223.8904,172.0085,225.8021,172.9101,228.0247,173.3188,230.7272,176.0875,231.6693,179.0105,232.0786,181.0049,231.615,184.2914" style="stroke:#181818;stroke-width:1.0;"/><path d="M223.7656,178.2266 Q223.9219,178.0078 224.1094,177.8984 Q224.2969,177.7891 224.5156,177.7891 Q224.8906,177.7891 225.125,178.0547 Q225.3594,178.3047 225.3594,178.9141 L225.3594,180.3672 Q225.3594,180.9766 225.125,181.2422 Q224.8906,181.5078 224.5156,181.5078 Q224.1719,181.5078 223.9688,181.3047 Q223.7656,181.1172 223.6563,180.6016 Q223.6094,180.2422 223.4219,180.0547 Q223.0938,179.6797 222.4844,179.4609 Q221.875,179.2422 221.25,179.2422 Q220.4844,179.2422 219.8438,179.5703 Q219.2188,179.8984 218.7188,180.6484 Q218.2344,181.3984 218.2344,182.4297 L218.2344,183.5234 Q218.2344,184.7578 219.125,185.5859 Q220.0156,186.3984 221.6094,186.3984 Q222.5469,186.3984 223.2031,186.1484 Q223.5938,185.9922 224.0156,185.5547 Q224.2813,185.2891 224.4219,185.2109 Q224.5781,185.1328 224.7813,185.1328 Q225.1094,185.1328 225.3594,185.3984 Q225.625,185.6484 225.625,185.9922 Q225.625,186.3359 225.2813,186.7422 Q224.7813,187.3203 223.9844,187.6484 Q222.9063,188.1016 221.6094,188.1016 Q220.0938,188.1016 218.8906,187.4766 Q217.9063,186.9766 217.2188,185.9141 Q216.5313,184.8359 216.5313,183.5547 L216.5313,182.3984 Q216.5313,181.0703 217.1406,179.9297 Q217.7656,178.7734 218.8594,178.1641 Q219.9531,177.5391 221.1875,177.5391 Q221.9219,177.5391 222.5625,177.7109 Q223.2188,177.8672 223.7656,178.2266 Z " fill="#000000"/><text fill="#000000" font-family="FG Virgil" font-size="12" font-style="italic" lengthAdjust="spacing" textLength="74" x="263" y="178.457">«application»</text><text fill="#000000" font-family="FG Virgil" font-size="14" lengthAdjust="spacing" textLength="130" x="235" y="195.627">GetBoardsController</text><path d="M207,203.7031 L207,203.9834 L217,203.1507 L227,203.9608 L237,204.236 L247,202.7519 L257,203.5995 L267,203.1345 L277,203.1918 L287,203.6122 L297,202.7813 L307,204.4413 L317,202.8628 L327,203.4394 L337,204.2791 L347,203.5888 L357,203.7941 L367,203.7031 " fill="#F1F1F1" style="stroke:#181818;stroke-width:0.5;"/><path d="M207,211.7031 L207,211.9834 L217,211.1507 L227,211.9608 L237,212.236 L247,210.7519 L257,211.5995 L267,211.1345 L277,211.1918 L287,211.6122 L297,210.7813 L307,212.4413 L317,210.8628 L327,211.4394 L337,212.2791 L347,211.5888 L357,211.7941 L367,211.7031 " fill="#F1F1F1" style="stroke:#181818;stroke-width:0.5;"/><text fill="#000000" font-family="FG Virgil" font-size="14" lengthAdjust="spacing" textLength="149" x="212" y="230.2363">getBoardsByUser(User)</text></g><!--MD5=[343839bb48731e46d0fda742d45fdd31]
class BoardRepository--><g id="elem_BoardRepository"><polygon fill="#F1F1F1" points="209,315,209,315.2102,218.75,314.5857,228.5,315.1933,238.25,315.3997,248,314.2866,257.75,314.9223,267.5,314.5735,277.25,314.6165,287,314.9318,296.75,314.3086,306.5,315.5536,316.25,314.3697,326,314.8022,335.75,315.4319,345.5,314.9142,355.25,315.0682,365,315,364.9959,314.9902,365.3763,315.2014,365.7376,315.3665,366.1354,315.6197,366.4998,315.7924,366.7678,315.7322,366.977,315.8189,366.9926,316.1183,367.2034,316.4985,367.4234,316.8825,367.1315,317.0545,367.5,317.5,368.1785,317.5,367.2035,327.6875,368.0338,337.875,367.005,348.0625,367.4315,358.25,368.2416,368.4375,367.4513,378.625,367.5,388.8125,367.5324,388.8259,367.4578,389.2092,367.3353,389.5727,367.0595,389.8727,367.0027,390.2634,366.7678,390.5803,366.6947,390.404,366.4505,390.8143,366.1306,391.042,365.7638,391.1565,365.4318,391.3548,365,391.3125,365,390.8294,355.25,390.6603,345.5,390.6911,335.75,391.2536,326,391.116,316.25,391.9939,306.5,391.1378,296.75,390.9694,287,391.5408,277.25,390.6457,267.5,390.7934,257.75,391.9615,248,391.7482,238.25,392.047,228.5,390.9907,218.75,391.6317,209,391.3125,209.0753,391.4943,208.5862,391.0206,208.2807,390.9901,207.9554,390.912,207.6689,390.9274,207.2322,390.5803,207.2309,390.5797,207.2282,390.2857,206.7688,389.8025,206.5843,389.4332,206.8015,389.2303,206.5,388.8125,205.7831,388.8125,207.009,378.625,206.7066,368.4375,206.2321,358.25,206.1462,348.0625,206.9588,337.875,206.2007,327.6875,206.5,317.5,206.6823,317.5755,206.4762,317.0759,206.983,316.8717,207.0885,316.5011,207.1612,316.117,207.2322,315.7322,207.2383,315.7468,207.6785,315.8096,208.0176,315.6283,208.3145,315.345,208.6807,315.229,209,315" style="stroke:#181818;stroke-width:0.5;"/><polygon fill="#C2C2C2" points="242.9108,339.0272,241.2984,341.2304,239.3912,344.4573,236.6636,346.632,233.7974,347.8212,231.512,347.9244,228.5747,346.4371,225.8032,345.4655,223.6995,343.4927,222.5961,341.2343,221.9417,339.4361,221.3006,337.0873,220.26,335.066,221.0596,333.0926,221.7602,330.9308,224.3893,329.221,226.239,327.0027,228.5284,326.266,231.2501,325.6316,234.7404,326.0085,236.6521,326.9101,238.8747,327.3188,241.5772,330.0875,242.5193,333.0105,242.9286,335.0049,242.465,338.2914" style="stroke:#181818;stroke-width:1.0;"/><path d="M234.6156,332.2266 Q234.7719,332.0078 234.9594,331.8984 Q235.1469,331.7891 235.3656,331.7891 Q235.7406,331.7891 235.975,332.0547 Q236.2094,332.3047 236.2094,332.9141 L236.2094,334.3672 Q236.2094,334.9766 235.975,335.2422 Q235.7406,335.5078 235.3656,335.5078 Q235.0219,335.5078 234.8188,335.3047 Q234.6156,335.1172 234.5063,334.6016 Q234.4594,334.2422 234.2719,334.0547 Q233.9438,333.6797 233.3344,333.4609 Q232.725,333.2422 232.1,333.2422 Q231.3344,333.2422 230.6938,333.5703 Q230.0688,333.8984 229.5688,334.6484 Q229.0844,335.3984 229.0844,336.4297 L229.0844,337.5234 Q229.0844,338.7578 229.975,339.5859 Q230.8656,340.3984 232.4594,340.3984 Q233.3969,340.3984 234.0531,340.1484 Q234.4438,339.9922 234.8656,339.5547 Q235.1313,339.2891 235.2719,339.2109 Q235.4281,339.1328 235.6313,339.1328 Q235.9594,339.1328 236.2094,339.3984 Q236.475,339.6484 236.475,339.9922 Q236.475,340.3359 236.1313,340.7422 Q235.6313,341.3203 234.8344,341.6484 Q233.7563,342.1016 232.4594,342.1016 Q230.9438,342.1016 229.7406,341.4766 Q228.7563,340.9766 228.0688,339.9141 Q227.3813,338.8359 227.3813,337.5547 L227.3813,336.3984 Q227.3813,335.0703 227.9906,333.9297 Q228.6156,332.7734 229.7094,332.1641 Q230.8031,331.5391 232.0375,331.5391 Q232.7719,331.5391 233.4125,331.7109 Q234.0688,331.8672 234.6156,332.2266 Z " fill="#000000"/><text fill="#000000" font-family="FG Virgil" font-size="12" font-style="italic" lengthAdjust="spacing" textLength="68" x="267.15" y="332.457">«repository»</text><text fill="#000000" font-family="FG Virgil" font-size="14" lengthAdjust="spacing" textLength="106" x="248.15" y="349.627">BoardRepository</text><path d="M207.5,357.7031 L207.5,357.9834 L217.4375,357.1507 L227.375,357.9608 L237.3125,358.236 L247.25,356.7519 L257.1875,357.5995 L267.125,357.1345 L277.0625,357.1918 L287,357.6122 L296.9375,356.7813 L306.875,358.4413 L316.8125,356.8628 L326.75,357.4394 L336.6875,358.2791 L346.625,357.5888 L356.5625,357.7941 L366.5,357.7031 " fill="#F1F1F1" style="stroke:#181818;stroke-width:0.5;"/><path d="M207.5,365.7031 L207.5,365.9834 L217.4375,365.1507 L227.375,365.9608 L237.3125,366.236 L247.25,364.7519 L257.1875,365.5995 L267.125,365.1345 L277.0625,365.1918 L287,365.6122 L296.9375,364.7813 L306.875,366.4413 L316.8125,364.8628 L326.75,365.4394 L336.6875,366.2791 L346.625,365.5888 L356.5625,365.7941 L366.5,365.7031 " fill="#F1F1F1" style="stroke:#181818;stroke-width:0.5;"/><text fill="#000000" font-family="FG Virgil" font-size="14" lengthAdjust="spacing" textLength="149" x="212.5" y="384.2363">getBoardsByUser(User)</text></g><!--MD5=[3fd616f346a44cd59a91eb10b19e157c]
class User--><g id="elem_User"><polygon fill="#F1F1F1" points="49.5,323.5,49.5,323.7102,59.375,323.0857,69.25,323.6933,79.125,323.8997,89,322.7866,98.875,323.4223,108.75,323.0735,118.625,323.1165,128.5,323.5,128.4913,323.479,128.7654,323.4335,129.2777,323.9634,129.4803,323.7452,129.889,324.0249,130.2678,324.2322,130.4008,324.2873,130.3878,324.5748,130.5817,324.948,130.6973,325.2888,130.9085,325.6692,131,326,131.2391,326,131.5857,336.7406,131.6711,347.4813,131.6793,358.2219,131.2546,368.9625,131,379.7031,131.1428,379.7623,131.0698,380.1463,130.485,380.3182,130.7696,380.8503,130.3229,381.0795,130.2678,381.4709,130.3359,381.6353,129.8511,381.4649,129.5519,381.7427,129.3017,382.1386,128.8473,382.0417,128.5,382.2031,128.5,382.3084,118.625,382.5418,108.75,382.6194,98.875,382.1992,89,382.4903,79.125,381.6307,69.25,382.4875,59.375,382.7513,49.5,382.2031,49.5567,382.34,49.2246,382.2455,48.7313,381.7615,48.3561,381.5629,48.0065,381.426,47.7322,381.4709,47.7141,381.4634,47.5253,381.0923,47.6492,380.8507,47.2391,380.3879,47.0408,380.0129,47,379.7031,47.2283,379.7031,46.3332,368.9625,46.4809,358.2219,47.649,347.4813,47.4357,336.7406,47,326,47.2262,326.0937,47.0473,325.6054,47.3912,325.3336,47.6212,325.0147,47.4403,324.5255,47.7322,324.2322,47.72,324.2027,48.1019,324.1246,48.5225,324.1401,48.7924,323.7916,49.2055,323.7889,49.5,323.5" style="stroke:#181818;stroke-width:0.5;"/><polygon fill="#C2C2C2" points="73.0608,347.5272,71.4484,349.7304,69.5412,352.9573,66.8136,355.132,63.9474,356.3212,61.662,356.4244,58.7247,354.9371,55.9532,353.9655,53.8495,351.9927,52.7461,349.7343,52.0917,347.9361,51.4506,345.5873,50.41,343.566,51.2096,341.5926,51.9102,339.4308,54.5393,337.721,56.389,335.5027,58.6784,334.766,61.4001,334.1316,64.8904,334.5085,66.8021,335.4101,69.0247,335.8188,71.7272,338.5875,72.6693,341.5105,73.0786,343.5049,72.615,346.7914" style="stroke:#181818;stroke-width:1.0;"/><path d="M64.7656,340.7266 Q64.9219,340.5078 65.1094,340.3984 Q65.2969,340.2891 65.5156,340.2891 Q65.8906,340.2891 66.125,340.5547 Q66.3594,340.8047 66.3594,341.4141 L66.3594,342.8672 Q66.3594,343.4766 66.125,343.7422 Q65.8906,344.0078 65.5156,344.0078 Q65.1719,344.0078 64.9688,343.8047 Q64.7656,343.6172 64.6563,343.1016 Q64.6094,342.7422 64.4219,342.5547 Q64.0938,342.1797 63.4844,341.9609 Q62.875,341.7422 62.25,341.7422 Q61.4844,341.7422 60.8438,342.0703 Q60.2188,342.3984 59.7188,343.1484 Q59.2344,343.8984 59.2344,344.9297 L59.2344,346.0234 Q59.2344,347.2578 60.125,348.0859 Q61.0156,348.8984 62.6094,348.8984 Q63.5469,348.8984 64.2031,348.6484 Q64.5938,348.4922 65.0156,348.0547 Q65.2813,347.7891 65.4219,347.7109 Q65.5781,347.6328 65.7813,347.6328 Q66.1094,347.6328 66.3594,347.8984 Q66.625,348.1484 66.625,348.4922 Q66.625,348.8359 66.2813,349.2422 Q65.7813,349.8203 64.9844,350.1484 Q63.9063,350.6016 62.6094,350.6016 Q61.0938,350.6016 59.8906,349.9766 Q58.9063,349.4766 58.2188,348.4141 Q57.5313,347.3359 57.5313,346.0547 L57.5313,344.8984 Q57.5313,343.5703 58.1406,342.4297 Q58.7656,341.2734 59.8594,340.6641 Q60.9531,340.0391 62.1875,340.0391 Q62.9219,340.0391 63.5625,340.2109 Q64.2188,340.3672 64.7656,340.7266 Z " fill="#000000"/><text fill="#000000" font-family="FG Virgil" font-size="12" font-style="italic" lengthAdjust="spacing" textLength="56" x="74" y="340.957">«domain»</text><text fill="#000000" font-family="FG Virgil" font-size="14" lengthAdjust="spacing" textLength="29" x="87.5" y="358.127">User</text><path d="M48,366.2031 L48,366.4834 L58.25,365.6507 L68.5,366.4608 L78.75,366.736 L89,365.2519 L99.25,366.0995 L109.5,365.6345 L119.75,365.6918 L130,366.2031 " fill="#F1F1F1" style="stroke:#181818;stroke-width:0.5;"/><path d="M48,374.2031 L48,374.4834 L58.25,373.6507 L68.5,374.4608 L78.75,374.736 L89,373.2519 L99.25,374.0995 L109.5,373.6345 L119.75,373.6918 L130,374.2031 " fill="#F1F1F1" style="stroke:#181818;stroke-width:0.5;"/></g><!--MD5=[9563755d011c5cec7ec66dc53565a59e]
class Board--><g id="elem_Board"><polygon fill="#F1F1F1" points="247.5,452,247.5,452.2102,257.375,451.5857,267.25,452.1933,277.125,452.3997,287,451.2866,296.875,451.9223,306.75,451.5735,316.625,451.6165,326.5,452,326.4913,451.979,326.7654,451.9335,327.2777,452.4634,327.4803,452.2452,327.889,452.5249,328.2678,452.7322,328.4008,452.7873,328.3878,453.0748,328.5817,453.448,328.6973,453.7888,328.9085,454.1692,329,454.5,329.2391,454.5,329.5857,465.2406,329.6711,475.9813,329.6793,486.7219,329.2546,497.4625,329,508.2031,329.1428,508.2623,329.0698,508.6463,328.485,508.8182,328.7696,509.3503,328.3229,509.5795,328.2678,509.9709,328.3359,510.1353,327.8511,509.9649,327.5519,510.2427,327.3017,510.6386,326.8473,510.5417,326.5,510.7031,326.5,510.8084,316.625,511.0418,306.75,511.1194,296.875,510.6992,287,510.9903,277.125,510.1307,267.25,510.9875,257.375,511.2513,247.5,510.7031,247.5567,510.84,247.2246,510.7455,246.7313,510.2615,246.3561,510.0629,246.0065,509.926,245.7322,509.9709,245.7141,509.9634,245.5253,509.5923,245.6492,509.3507,245.2391,508.8879,245.0408,508.5129,245,508.2031,245.2283,508.2031,244.3332,497.4625,244.4809,486.7219,245.649,475.9813,245.4357,465.2406,245,454.5,245.2262,454.5937,245.0473,454.1054,245.3912,453.8336,245.6212,453.5147,245.4403,453.0255,245.7322,452.7322,245.72,452.7027,246.1019,452.6246,246.5225,452.6401,246.7924,452.2916,247.2055,452.2889,247.5,452" style="stroke:#181818;stroke-width:0.5;"/><polygon fill="#C2C2C2" points="271.0608,476.0272,269.4484,478.2304,267.5412,481.4573,264.8136,483.632,261.9474,484.8212,259.662,484.9244,256.7247,483.4371,253.9532,482.4655,251.8495,480.4927,250.7461,478.2343,250.0917,476.4361,249.4506,474.0873,248.41,472.066,249.2096,470.0926,249.9102,467.9308,252.5393,466.221,254.389,464.0027,256.6784,463.266,259.4001,462.6316,262.8904,463.0085,264.8021,463.9101,267.0247,464.3188,269.7272,467.0875,270.6693,470.0105,271.0786,472.0049,270.615,475.2914" style="stroke:#181818;stroke-width:1.0;"/><path d="M262.7656,469.2266 Q262.9219,469.0078 263.1094,468.8984 Q263.2969,468.7891 263.5156,468.7891 Q263.8906,468.7891 264.125,469.0547 Q264.3594,469.3047 264.3594,469.9141 L264.3594,471.3672 Q264.3594,471.9766 264.125,472.2422 Q263.8906,472.5078 263.5156,472.5078 Q263.1719,472.5078 262.9688,472.3047 Q262.7656,472.1172 262.6563,471.6016 Q262.6094,471.2422 262.4219,471.0547 Q262.0938,470.6797 261.4844,470.4609 Q260.875,470.2422 260.25,470.2422 Q259.4844,470.2422 258.8438,470.5703 Q258.2188,470.8984 257.7188,471.6484 Q257.2344,472.3984 257.2344,473.4297 L257.2344,474.5234 Q257.2344,475.7578 258.125,476.5859 Q259.0156,477.3984 260.6094,477.3984 Q261.5469,477.3984 262.2031,477.1484 Q262.5938,476.9922 263.0156,476.5547 Q263.2813,476.2891 263.4219,476.2109 Q263.5781,476.1328 263.7813,476.1328 Q264.1094,476.1328 264.3594,476.3984 Q264.625,476.6484 264.625,476.9922 Q264.625,477.3359 264.2813,477.7422 Q263.7813,478.3203 262.9844,478.6484 Q261.9063,479.1016 260.6094,479.1016 Q259.0938,479.1016 257.8906,478.4766 Q256.9063,477.9766 256.2188,476.9141 Q255.5313,475.8359 255.5313,474.5547 L255.5313,473.3984 Q255.5313,472.0703 256.1406,470.9297 Q256.7656,469.7734 257.8594,469.1641 Q258.9531,468.5391 260.1875,468.5391 Q260.9219,468.5391 261.5625,468.7109 Q262.2188,468.8672 262.7656,469.2266 Z " fill="#000000"/><text fill="#000000" font-family="FG Virgil" font-size="12" font-style="italic" lengthAdjust="spacing" textLength="56" x="272" y="469.457">«domain»</text><text fill="#000000" font-family="FG Virgil" font-size="14" lengthAdjust="spacing" textLength="38" x="281" y="486.627">Board</text><path d="M246,494.7031 L246,494.9834 L256.25,494.1507 L266.5,494.9608 L276.75,495.236 L287,493.7519 L297.25,494.5995 L307.5,494.1345 L317.75,494.1918 L328,494.7031 " fill="#F1F1F1" style="stroke:#181818;stroke-width:0.5;"/><path d="M246,502.7031 L246,502.9834 L256.25,502.1507 L266.5,502.9608 L276.75,503.236 L287,501.7519 L297.25,502.5995 L307.5,502.1345 L317.75,502.1918 L328,502.7031 " fill="#F1F1F1" style="stroke:#181818;stroke-width:0.5;"/></g><!--MD5=[5cbfd6ac3a9b83d2a033fde98526256c]
link HttpServerAjax to GetBoardsController--><g id="link_HttpServerAjax_GetBoardsController"><path d="M212.11,83.14 L212.1877,83.1918 L215.9347,89.0099 L220.1375,95.1316 L224.1918,101.1545 L227.7581,106.8522 L232,113 L231.9132,112.9434 L237.1836,121.3755 L242.8916,130.0928 L248.9039,139.0084 L253.8677,147.2407 L260.3,156.43 " fill="none" style="stroke:#181818;stroke-width:1.0;"/><polygon fill="#181818" points="263.04,160.67,263.1092,160.6809,262.5985,158.7026,262.4935,156.788,262.2563,154.8526,261.5847,152.8492,261.5145,150.94,261.4892,150.9346,261.1378,152.0163,260.9142,153.1254,260.7793,154.2536,260.3385,155.3161,260.3261,156.4706,260.3649,156.651,259.1759,156.0275,258.1,155.9308,257.038,155.8983,255.8956,155.4919,254.7955,155.2822,254.8079,155.3013,256.4386,156.3509,258.1259,157.4871,259.7858,158.5816,261.4979,159.7559,263.04,160.67" style="stroke:#181818;stroke-width:1.0;"/><text fill="#000000" font-family="FG Virgil" font-size="13" lengthAdjust="spacing" textLength="73" x="243" y="127.4951">theController</text></g><!--MD5=[886edeef38e246f68555233ed43ef7bd]
link HttpServerAjax to SessionManager--><g id="link_HttpServerAjax_SessionManager"><path d="M153.38,83.05 L153.4533,83.108 L150.9083,85.8767 L148.7929,88.9853 L146.5375,91.9832 L143.8224,94.6173 L141.7437,97.755 L141.7155,97.7351 L139.4401,100.6948 L137.3069,103.7548 L135.2727,106.8846 L132.8976,109.774 L131,113 L131.2096,113.1289 L129.315,115.2045 L128.0323,117.6565 L126.8242,120.1544 L125.1818,122.3851 L123.7678,124.7564 L123.7943,124.7712 L122.3859,127.2045 L121.098,129.705 L119.7519,132.1731 L118.5169,134.7031 L116.92,137.0313 L117.1851,137.1679 L115.9178,139.6339 L114.4795,142.0118 L113.2914,144.5187 L112.1152,147.0316 L110.5672,149.353 L110.2786,149.2135 L109.6893,151.8635 L108.1497,154.0545 L107.3325,156.5944 L105.7713,158.7749 L104.82,161.25 " fill="none" style="stroke:#181818;stroke-width:1.0;"/><polygon fill="#181818" points="102.65,165.94,102.6962,165.9927,104.0404,164.5379,105.6554,163.3921,107.1822,162.1456,108.4191,160.5684,110.0572,159.449,110.0483,159.4247,108.9463,159.7061,107.8894,160.11,106.8639,160.5992,105.7303,160.7947,104.748,161.4015,104.9212,161.4652,104.1603,160.2671,103.9052,159.255,103.7117,158.2656,103.1592,157.1442,102.7956,156.0922,102.8183,156.0926,102.7558,158.0616,102.7968,160.0322,102.7879,162.0021,102.8743,163.9733,102.65,165.94" style="stroke:#181818;stroke-width:1.0;"/><text fill="#000000" font-family="FG Virgil" font-size="13" lengthAdjust="spacing" textLength="95" x="132" y="127.4951">sessionManager</text></g><!--MD5=[e25e9e8fe3fe76e2fe8ccbb9fc3d61de]
link GetBoardsController to BoardRepository--><g id="link_GetBoardsController_BoardRepository"><path d="M287,237.18 L287.2802,237.18 L286.4476,247.5629 L287.2577,257.9457 L287.5329,268.3286 L286.0488,278.7114 L286.8964,289.0943 L286.4313,299.4771 L287,309.86 " fill="none" style="stroke:#181818;stroke-width:1.0;"/><polygon fill="#181818" points="287,314.94,287.064,314.9685,287.6738,313.0839,288.6589,311.3662,289.5217,309.5941,289.9827,307.6434,291,305.94,290.9817,305.9217,290.0995,306.6395,289.3096,307.4496,288.5839,308.3239,287.637,308.977,287,309.94,287.1305,310.0705,286.0514,308.9914,285.3534,308.2934,284.7018,307.6418,283.7798,306.7198,283,305.94,283.0208,305.9492,283.7903,307.7357,284.6544,309.5642,285.4728,311.3724,286.3784,313.2193,287,314.94" style="stroke:#181818;stroke-width:1.0;"/><text fill="#000000" font-family="FG Virgil" font-size="13" lengthAdjust="spacing" textLength="94" x="288" y="281.4951">boardRepository</text></g><!--MD5=[cfa8c6cc09150aa1a34895e749736282]
link SessionManager to User--><g id="link_SessionManager_User"><path d="M89,232.24 L89.2802,232.24 L88.4476,241.8133 L89.2577,251.3867 L89.5329,260.96 L88.0488,270.5333 L88.8964,280.1067 L88.4313,289.68 L88.4887,299.2533 L88.9091,308.8267 L89,318.4 " fill="none" style="stroke:#181818;stroke-width:1.0;stroke-dasharray:7.0,7.0;"/><polygon fill="#181818" points="89,323.4,89.064,323.4285,89.6738,321.5439,90.6589,319.8262,91.5217,318.0541,91.9827,316.1034,93,314.4,92.9817,314.3817,92.0995,315.0995,91.3096,315.9096,90.5839,316.7839,89.637,317.437,89,318.4,89.1305,318.5305,88.0514,317.4514,87.3534,316.7534,86.7018,316.1018,85.7798,315.1798,85,314.4,85.0208,314.4092,85.7903,316.1957,86.6544,318.0242,87.4728,319.8324,88.3784,321.6793,89,323.4" style="stroke:#181818;stroke-width:1.0;"/></g><!--MD5=[c2b2d28b8f8fd1e85bbeebc0fff5bd46]
link BoardRepository to Board--><g id="link_BoardRepository_Board"><path d="M287,391.27 L287.2802,391.27 L286.4476,400.515 L287.2577,409.76 L287.5329,419.005 L286.0488,428.25 L286.8964,437.495 L287,446.74 " fill="none" style="stroke:#181818;stroke-width:1.0;stroke-dasharray:7.0,7.0;"/><polygon fill="#181818" points="287,451.92,287.064,451.9485,287.6738,450.0639,288.6589,448.3462,289.5217,446.5741,289.9827,444.6234,291,442.92,290.9817,442.9017,290.0995,443.6195,289.3096,444.4296,288.5839,445.3039,287.637,445.957,287,446.92,287.1305,447.0505,286.0514,445.9714,285.3534,445.2734,284.7018,444.6218,283.7798,443.6998,283,442.92,283.0208,442.9292,283.7903,444.7157,284.6544,446.5442,285.4728,448.3524,286.3784,450.1993,287,451.92" style="stroke:#181818;stroke-width:1.0;"/></g><!--MD5=[18449d74d372dfe6fc970c55cd14c560]
@startuml
'http://plantuml.com/skinparam.html
skinparam handwritten true
skinparam monochrome true
skinparam packageStyle rect
skinparam defaultFontName FG Virgil
skinparam shadowing false


class HttpServerAjax <<http server>>
class SessionManager
class GetBoardsController <<application>>
class BoardRepository <<repository>>
class User <<domain>>
class Board <<domain>>

HttpServerAjax - -> GetBoardsController: theController
HttpServerAjax - -> SessionManager: sessionManager
GetBoardsController - -> BoardRepository: boardRepository
SessionManager ..> User
BoardRepository ..> Board



HttpServerAjax : getUserAccessBoards(String)
SessionManager : getUserByToken(String)
GetBoardsController : getBoardsByUser(User)
BoardRepository : getBoardsByUser(User)

@enduml

@startuml
skinparam handwritten true
skinparam monochrome true
skinparam packageStyle rect
skinparam defaultFontName FG Virgil
skinparam shadowing false


class HttpServerAjax <<http server>>
class SessionManager
class GetBoardsController <<application>>
class BoardRepository <<repository>>
class User <<domain>>
class Board <<domain>>

HttpServerAjax - -> GetBoardsController: theController
HttpServerAjax - -> SessionManager: sessionManager
GetBoardsController - -> BoardRepository: boardRepository
SessionManager ..> User
BoardRepository ..> Board



HttpServerAjax : getUserAccessBoards(String)
SessionManager : getUserByToken(String)
GetBoardsController : getBoardsByUser(User)
BoardRepository : getBoardsByUser(User)

@enduml

PlantUML version 1.2022.7(Mon Aug 22 18:01:30 BST 2022)
(GPL source distribution)
Java Runtime: Java(TM) SE Runtime Environment
JVM: Java HotSpot(TM) 64-Bit Server VM
Default Encoding: Cp1252
Language: pt
Country: PT
--></g></svg>