<?xml version="1.0" encoding="us-ascii" standalone="no"?><svg xmlns="http://www.w3.org/2000/svg" xmlns:xlink="http://www.w3.org/1999/xlink" contentStyleType="text/css" height="741.6px" preserveAspectRatio="none" style="width:1316px;height:741px;background:#FFFFFF;" version="1.1" viewBox="0 0 1316 741" width="1316.8px" zoomAndPan="magnify"><defs/><g><rect fill="#FFFFFF" height="550.7219" style="stroke:#181818;stroke-width:0.8000000000000002;" width="8" x="256.4" y="97.2266"/><rect fill="#FFFFFF" height="475.6234" style="stroke:#181818;stroke-width:0.8000000000000002;" width="8" x="387.6" y="147.2922"/><rect fill="#FFFFFF" height="50.0656" style="stroke:#181818;stroke-width:0.8000000000000002;" width="8" x="690.8" y="222.3906"/><rect fill="#FFFFFF" height="25.0328" style="stroke:#181818;stroke-width:0.8000000000000002;" width="8" x="796.4" y="297.4891"/><rect fill="#FFFFFF" height="225.2953" style="stroke:#181818;stroke-width:0.8000000000000002;" width="8" x="912.4" y="372.5875"/><rect fill="#FFFFFF" height="50.0656" style="stroke:#181818;stroke-width:0.8000000000000002;" width="8" x="1045.6" y="397.6203"/><rect fill="#FFFFFF" height="50.0656" style="stroke:#181818;stroke-width:0.8000000000000002;" width="8" x="1160" y="472.7188"/><rect fill="#FFFFFF" height="25.0328" style="stroke:#181818;stroke-width:0.8000000000000002;" width="8" x="1266" y="547.8172"/><line style="stroke:#181818;stroke-width:0.4000000000000001;stroke-dasharray:5.0,5.0;" x1="25.6" x2="25.6" y1="70.5938" y2="662.3484"/><line style="stroke:#181818;stroke-width:0.4000000000000001;stroke-dasharray:5.0,5.0;" x1="260" x2="260" y1="70.5938" y2="662.3484"/><line style="stroke:#181818;stroke-width:0.4000000000000001;stroke-dasharray:5.0,5.0;" x1="391.2" x2="391.2" y1="70.5938" y2="662.3484"/><line style="stroke:#181818;stroke-width:0.4000000000000001;stroke-dasharray:5.0,5.0;" x1="694.4" x2="694.4" y1="70.5938" y2="662.3484"/><line style="stroke:#181818;stroke-width:0.4000000000000001;stroke-dasharray:5.0,5.0;" x1="800" x2="800" y1="70.5938" y2="662.3484"/><line style="stroke:#181818;stroke-width:0.4000000000000001;stroke-dasharray:5.0,5.0;" x1="916" x2="916" y1="70.5938" y2="662.3484"/><line style="stroke:#181818;stroke-width:0.4000000000000001;stroke-dasharray:5.0,5.0;" x1="1049.6" x2="1049.6" y1="70.5938" y2="662.3484"/><line style="stroke:#181818;stroke-width:0.4000000000000001;stroke-dasharray:5.0,5.0;" x1="1164" x2="1164" y1="70.5938" y2="662.3484"/><line style="stroke:#181818;stroke-width:0.4000000000000001;stroke-dasharray:5.0,5.0;" x1="1269.6" x2="1269.6" y1="70.5938" y2="662.3484"/><text fill="#000000" font-family="FG Virgil" font-size="11.2" lengthAdjust="spacing" textLength="39.2" x="4" y="67.7828">Student</text><ellipse cx="26" cy="14.4969" fill="#E3E3E3" rx="6.4" ry="6.4" style="stroke:#181818;stroke-width:0.4000000000000001;"/><path d="M26,20.8969 L26,42.4969 M15.6,27.2969 L36.4,27.2969 M26,42.4969 L15.6,54.4969 M26,42.4969 L36.4,54.4969 " fill="none" style="stroke:#181818;stroke-width:0.4000000000000001;"/><text fill="#000000" font-family="FG Virgil" font-size="11.2" lengthAdjust="spacing" textLength="39.2" x="4" y="673.6344">Student</text><ellipse cx="26" cy="683.2453" fill="#E3E3E3" rx="6.4" ry="6.4" style="stroke:#181818;stroke-width:0.4000000000000001;"/><path d="M26,689.6453 L26,711.2453 M15.6,696.0453 L36.4,696.0453 M26,711.2453 L15.6,723.2453 M26,711.2453 L36.4,723.2453 " fill="none" style="stroke:#181818;stroke-width:0.4000000000000001;"/><rect fill="#E3E3E3" height="40.9938" rx="2" ry="2" style="stroke:#181818;stroke-width:0.4000000000000001;" width="103.2" x="208.8" y="28.8"/><text fill="#000000" font-family="FG Virgil" font-size="11.2" font-style="italic" lengthAdjust="spacing" textLength="76" x="222.4" y="46.4859">&#171;presentation&#187;</text><text fill="#000000" font-family="FG Virgil" font-size="11.2" lengthAdjust="spacing" textLength="92" x="214.4" y="61.3828">ListExamGradesUI</text><rect fill="#E3E3E3" height="40.9938" rx="2" ry="2" style="stroke:#181818;stroke-width:0.4000000000000001;" width="103.2" x="208.8" y="661.5484"/><text fill="#000000" font-family="FG Virgil" font-size="11.2" font-style="italic" lengthAdjust="spacing" textLength="76" x="222.4" y="679.2344">&#171;presentation&#187;</text><text fill="#000000" font-family="FG Virgil" font-size="11.2" lengthAdjust="spacing" textLength="92" x="214.4" y="694.1313">ListExamGradesUI</text><rect fill="#E3E3E3" height="40.9938" rx="2" ry="2" style="stroke:#181818;stroke-width:0.4000000000000001;" width="143.2" x="320" y="28.8"/><text fill="#000000" font-family="FG Virgil" font-size="11.2" font-style="italic" lengthAdjust="spacing" textLength="67.2" x="358" y="46.4859">&#171;application&#187;</text><text fill="#000000" font-family="FG Virgil" font-size="11.2" lengthAdjust="spacing" textLength="132" x="325.6" y="61.3828">ListExamGradesController</text><rect fill="#E3E3E3" height="40.9938" rx="2" ry="2" style="stroke:#181818;stroke-width:0.4000000000000001;" width="143.2" x="320" y="661.5484"/><text fill="#000000" font-family="FG Virgil" font-size="11.2" font-style="italic" lengthAdjust="spacing" textLength="67.2" x="358" y="679.2344">&#171;application&#187;</text><text fill="#000000" font-family="FG Virgil" font-size="11.2" lengthAdjust="spacing" textLength="132" x="325.6" y="694.1313">ListExamGradesController</text><rect fill="#E3E3E3" height="40.9938" rx="2" ry="2" style="stroke:#181818;stroke-width:0.4000000000000001;" width="120.8" x="634.4" y="28.8"/><text fill="#000000" font-family="FG Virgil" font-size="11.2" font-style="italic" lengthAdjust="spacing" textLength="48" x="670.8" y="46.4859">&#171;service&#187;</text><text fill="#000000" font-family="FG Virgil" font-size="11.2" lengthAdjust="spacing" textLength="109.6" x="640" y="61.3828">AuthenticationService</text><rect fill="#E3E3E3" height="40.9938" rx="2" ry="2" style="stroke:#181818;stroke-width:0.4000000000000001;" width="120.8" x="634.4" y="661.5484"/><text fill="#000000" font-family="FG Virgil" font-size="11.2" font-style="italic" lengthAdjust="spacing" textLength="48" x="670.8" y="679.2344">&#171;service&#187;</text><text fill="#000000" font-family="FG Virgil" font-size="11.2" lengthAdjust="spacing" textLength="109.6" x="640" y="694.1313">AuthenticationService</text><rect fill="#E3E3E3" height="40.9938" rx="2" ry="2" style="stroke:#181818;stroke-width:0.4000000000000001;" width="74.4" x="763.2" y="28.8"/><text fill="#000000" font-family="FG Virgil" font-size="11.2" font-style="italic" lengthAdjust="spacing" textLength="51.2" x="774.8" y="46.4859">&#171;session&#187;</text><text fill="#000000" font-family="FG Virgil" font-size="11.2" lengthAdjust="spacing" textLength="63.2" x="768.8" y="61.3828">UserSession</text><rect fill="#E3E3E3" height="40.9938" rx="2" ry="2" style="stroke:#181818;stroke-width:0.4000000000000001;" width="74.4" x="763.2" y="661.5484"/><text fill="#000000" font-family="FG Virgil" font-size="11.2" font-style="italic" lengthAdjust="spacing" textLength="51.2" x="774.8" y="679.2344">&#171;session&#187;</text><text fill="#000000" font-family="FG Virgil" font-size="11.2" lengthAdjust="spacing" textLength="63.2" x="768.8" y="694.1313">UserSession</text><rect fill="#E3E3E3" height="40.9938" rx="2" ry="2" style="stroke:#181818;stroke-width:0.4000000000000001;" width="141.6" x="845.6" y="28.8"/><text fill="#000000" font-family="FG Virgil" font-size="11.2" font-style="italic" lengthAdjust="spacing" textLength="48" x="892.4" y="46.4859">&#171;service&#187;</text><text fill="#000000" font-family="FG Virgil" font-size="11.2" lengthAdjust="spacing" textLength="130.4" x="851.2" y="61.3828">ExamManagementService</text><rect fill="#E3E3E3" height="40.9938" rx="2" ry="2" style="stroke:#181818;stroke-width:0.4000000000000001;" width="141.6" x="845.6" y="661.5484"/><text fill="#000000" font-family="FG Virgil" font-size="11.2" font-style="italic" lengthAdjust="spacing" textLength="48" x="892.4" y="679.2344">&#171;service&#187;</text><text fill="#000000" font-family="FG Virgil" font-size="11.2" lengthAdjust="spacing" textLength="130.4" x="851.2" y="694.1313">ExamManagementService</text><rect fill="#E3E3E3" height="40.9938" rx="2" ry="2" style="stroke:#181818;stroke-width:0.4000000000000001;" width="108.8" x="995.2" y="28.8"/><text fill="#000000" font-family="FG Virgil" font-size="11.2" font-style="italic" lengthAdjust="spacing" textLength="71.2" x="1014" y="46.4859">&#171;persistence&#187;</text><text fill="#000000" font-family="FG Virgil" font-size="11.2" lengthAdjust="spacing" textLength="97.6" x="1000.8" y="61.3828">PersistenceContext</text><rect fill="#E3E3E3" height="40.9938" rx="2" ry="2" style="stroke:#181818;stroke-width:0.4000000000000001;" width="108.8" x="995.2" y="661.5484"/><text fill="#000000" font-family="FG Virgil" font-size="11.2" font-style="italic" lengthAdjust="spacing" textLength="71.2" x="1014" y="679.2344">&#171;persistence&#187;</text><text fill="#000000" font-family="FG Virgil" font-size="11.2" lengthAdjust="spacing" textLength="97.6" x="1000.8" y="694.1313">PersistenceContext</text><rect fill="#E3E3E3" height="40.9938" rx="2" ry="2" style="stroke:#181818;stroke-width:0.4000000000000001;" width="104" x="1112" y="28.8"/><text fill="#000000" font-family="FG Virgil" font-size="11.2" font-style="italic" lengthAdjust="spacing" textLength="47.2" x="1140.4" y="46.4859">&#171;factory&#187;</text><text fill="#000000" font-family="FG Virgil" font-size="11.2" lengthAdjust="spacing" textLength="92.8" x="1117.6" y="61.3828">RepositoryFactory</text><rect fill="#E3E3E3" height="40.9938" rx="2" ry="2" style="stroke:#181818;stroke-width:0.4000000000000001;" width="104" x="1112" y="661.5484"/><text fill="#000000" font-family="FG Virgil" font-size="11.2" font-style="italic" lengthAdjust="spacing" textLength="47.2" x="1140.4" y="679.2344">&#171;factory&#187;</text><text fill="#000000" font-family="FG Virgil" font-size="11.2" lengthAdjust="spacing" textLength="92.8" x="1117.6" y="694.1313">RepositoryFactory</text><text fill="#000000" font-family="FG Virgil" font-size="11.2" font-style="italic" lengthAdjust="spacing" textLength="63.2" x="1236" y="52.8859">&#171;repository&#187;</text><text fill="#000000" font-family="FG Virgil" font-size="11.2" lengthAdjust="spacing" textLength="87.2" x="1224" y="67.7828">ExamsRepository</text><path d="M1255.6,12 C1255.6,4 1270,4 1270,4 C1270,4 1284.4,4 1284.4,12 L1284.4,32.8 C1284.4,40.8 1270,40.8 1270,40.8 C1270,40.8 1255.6,40.8 1255.6,32.8 L1255.6,12 " fill="#E3E3E3" style="stroke:#181818;stroke-width:1.2000000000000002;"/><path d="M1255.6,12 C1255.6,20 1270,20 1270,20 C1270,20 1284.4,20 1284.4,12 " fill="none" style="stroke:#181818;stroke-width:1.2000000000000002;"/><text fill="#000000" font-family="FG Virgil" font-size="11.2" font-style="italic" lengthAdjust="spacing" textLength="63.2" x="1236" y="673.6344">&#171;repository&#187;</text><text fill="#000000" font-family="FG Virgil" font-size="11.2" lengthAdjust="spacing" textLength="87.2" x="1224" y="688.5313">ExamsRepository</text><path d="M1255.6,699.3422 C1255.6,691.3422 1270,691.3422 1270,691.3422 C1270,691.3422 1284.4,691.3422 1284.4,699.3422 L1284.4,720.1422 C1284.4,728.1422 1270,728.1422 1270,728.1422 C1270,728.1422 1255.6,728.1422 1255.6,720.1422 L1255.6,699.3422 " fill="#E3E3E3" style="stroke:#181818;stroke-width:1.2000000000000002;"/><path d="M1255.6,699.3422 C1255.6,707.3422 1270,707.3422 1270,707.3422 C1270,707.3422 1284.4,707.3422 1284.4,699.3422 " fill="none" style="stroke:#181818;stroke-width:1.2000000000000002;"/><rect fill="#FFFFFF" height="550.7219" style="stroke:#181818;stroke-width:0.8000000000000002;" width="8" x="256.4" y="97.2266"/><rect fill="#FFFFFF" height="475.6234" style="stroke:#181818;stroke-width:0.8000000000000002;" width="8" x="387.6" y="147.2922"/><rect fill="#FFFFFF" height="50.0656" style="stroke:#181818;stroke-width:0.8000000000000002;" width="8" x="690.8" y="222.3906"/><rect fill="#FFFFFF" height="25.0328" style="stroke:#181818;stroke-width:0.8000000000000002;" width="8" x="796.4" y="297.4891"/><rect fill="#FFFFFF" height="225.2953" style="stroke:#181818;stroke-width:0.8000000000000002;" width="8" x="912.4" y="372.5875"/><rect fill="#FFFFFF" height="50.0656" style="stroke:#181818;stroke-width:0.8000000000000002;" width="8" x="1045.6" y="397.6203"/><rect fill="#FFFFFF" height="50.0656" style="stroke:#181818;stroke-width:0.8000000000000002;" width="8" x="1160" y="472.7188"/><rect fill="#FFFFFF" height="25.0328" style="stroke:#181818;stroke-width:0.8000000000000002;" width="8" x="1266" y="547.8172"/><polygon fill="#181818" points="246.8,94.0266,254.8,97.2266,246.8,100.4266,250,97.2266" style="stroke:#181818;stroke-width:0.8000000000000002;"/><line style="stroke:#181818;stroke-width:0.8000000000000002;stroke-dasharray:2.0,2.0;" x1="26" x2="251.6" y1="97.2266" y2="97.2266"/><text fill="#000000" font-family="FG Virgil" font-size="10.4" lengthAdjust="spacing" textLength="76.8" x="31.6" y="93.0164">list future exams</text><polygon fill="#181818" points="382,119.0594,390,122.2594,382,125.4594,385.2,122.2594" style="stroke:#181818;stroke-width:0.8000000000000002;"/><line style="stroke:#181818;stroke-width:0.8000000000000002;" x1="264.4" x2="386.8" y1="122.2594" y2="122.2594"/><text fill="#000000" font-family="FG Virgil" font-size="10.4" lengthAdjust="spacing" textLength="35.2" x="270" y="118.0492">create()</text><polygon fill="#181818" points="378,144.0922,386,147.2922,378,150.4922,381.2,147.2922" style="stroke:#181818;stroke-width:0.8000000000000002;"/><line style="stroke:#181818;stroke-width:0.8000000000000002;" x1="264.4" x2="382.8" y1="147.2922" y2="147.2922"/><text fill="#000000" font-family="FG Virgil" font-size="10.4" lengthAdjust="spacing" textLength="80.8" x="270" y="143.082">listExamGrades()</text><polygon fill="#181818" points="685.2,169.125,693.2,172.325,685.2,175.525,688.4,172.325" style="stroke:#181818;stroke-width:0.8000000000000002;"/><line style="stroke:#181818;stroke-width:0.8000000000000002;" x1="395.6" x2="690" y1="172.325" y2="172.325"/><text fill="#000000" font-family="FG Virgil" font-size="10.4" lengthAdjust="spacing" textLength="35.2" x="401.2" y="168.1148">create()</text><polygon fill="#181818" points="685.2,194.1578,693.2,197.3578,685.2,200.5578,688.4,197.3578" style="stroke:#181818;stroke-width:0.8000000000000002;"/><line style="stroke:#181818;stroke-width:0.8000000000000002;" x1="395.6" x2="690" y1="197.3578" y2="197.3578"/><text fill="#000000" font-family="FG Virgil" font-size="10.4" lengthAdjust="spacing" textLength="280" x="401.2" y="193.1477">ensureAuthenticatedUserHasAnyOf(CourseRoles.STUDENT)</text><polygon fill="#181818" points="790.8,219.1906,798.8,222.3906,790.8,225.5906,794,222.3906" style="stroke:#181818;stroke-width:0.8000000000000002;"/><line style="stroke:#181818;stroke-width:0.8000000000000002;" x1="698.8" x2="795.6" y1="222.3906" y2="222.3906"/><text fill="#000000" font-family="FG Virgil" font-size="10.4" lengthAdjust="spacing" textLength="35.2" x="704.4" y="218.1805">create()</text><polygon fill="#181818" points="681.2,244.2234,689.2,247.4234,681.2,250.6234,684.4,247.4234" style="stroke:#181818;stroke-width:0.8000000000000002;"/><line style="stroke:#181818;stroke-width:0.8000000000000002;" x1="395.6" x2="686" y1="247.4234" y2="247.4234"/><text fill="#000000" font-family="FG Virgil" font-size="10.4" lengthAdjust="spacing" textLength="42.4" x="401.2" y="243.2133">session()</text><polygon fill="#181818" points="404.4,269.2563,396.4,272.4563,404.4,275.6563,401.2,272.4563" style="stroke:#181818;stroke-width:0.8000000000000002;"/><line style="stroke:#181818;stroke-width:0.8000000000000002;" x1="399.6" x2="694" y1="272.4563" y2="272.4563"/><text fill="#000000" font-family="FG Virgil" font-size="10.4" lengthAdjust="spacing" textLength="36" x="409.2" y="268.2461">session</text><polygon fill="#181818" points="786.8,294.2891,794.8,297.4891,786.8,300.6891,790,297.4891" style="stroke:#181818;stroke-width:0.8000000000000002;"/><line style="stroke:#181818;stroke-width:0.8000000000000002;" x1="395.6" x2="791.6" y1="297.4891" y2="297.4891"/><text fill="#000000" font-family="FG Virgil" font-size="10.4" lengthAdjust="spacing" textLength="90.4" x="401.2" y="293.2789">authenticatedUser()</text><polygon fill="#181818" points="404.4,319.3219,396.4,322.5219,404.4,325.7219,401.2,322.5219" style="stroke:#181818;stroke-width:0.8000000000000002;"/><line style="stroke:#181818;stroke-width:0.8000000000000002;" x1="399.6" x2="799.6" y1="322.5219" y2="322.5219"/><text fill="#000000" font-family="FG Virgil" font-size="10.4" lengthAdjust="spacing" textLength="20" x="409.2" y="318.3117">user</text><polygon fill="#181818" points="906.8,344.3547,914.8,347.5547,906.8,350.7547,910,347.5547" style="stroke:#181818;stroke-width:0.8000000000000002;"/><line style="stroke:#181818;stroke-width:0.8000000000000002;" x1="395.6" x2="911.6" y1="347.5547" y2="347.5547"/><text fill="#000000" font-family="FG Virgil" font-size="10.4" lengthAdjust="spacing" textLength="35.2" x="401.2" y="343.3445">create()</text><polygon fill="#181818" points="902.8,369.3875,910.8,372.5875,902.8,375.7875,906,372.5875" style="stroke:#181818;stroke-width:0.8000000000000002;"/><line style="stroke:#181818;stroke-width:0.8000000000000002;" x1="395.6" x2="907.6" y1="372.5875" y2="372.5875"/><text fill="#000000" font-family="FG Virgil" font-size="10.4" lengthAdjust="spacing" textLength="80.8" x="401.2" y="368.3773">listExamGrades()</text><polygon fill="#181818" points="1036,394.4203,1044,397.6203,1036,400.8203,1039.2,397.6203" style="stroke:#181818;stroke-width:0.8000000000000002;"/><line style="stroke:#181818;stroke-width:0.8000000000000002;" x1="920.4" x2="1040.8" y1="397.6203" y2="397.6203"/><text fill="#000000" font-family="FG Virgil" font-size="10.4" lengthAdjust="spacing" textLength="60" x="926" y="393.4102">repositories()</text><polygon fill="#181818" points="1154.4,419.4531,1162.4,422.6531,1154.4,425.8531,1157.6,422.6531" style="stroke:#181818;stroke-width:0.8000000000000002;"/><line style="stroke:#181818;stroke-width:0.8000000000000002;" x1="1053.6" x2="1159.2" y1="422.6531" y2="422.6531"/><text fill="#000000" font-family="FG Virgil" font-size="10.4" lengthAdjust="spacing" textLength="35.2" x="1059.2" y="418.443">create()</text><polygon fill="#181818" points="929.2,444.4859,921.2,447.6859,929.2,450.8859,926,447.6859" style="stroke:#181818;stroke-width:0.8000000000000002;"/><line style="stroke:#181818;stroke-width:0.8000000000000002;" x1="924.4" x2="1048.8" y1="447.6859" y2="447.6859"/><text fill="#000000" font-family="FG Virgil" font-size="10.4" lengthAdjust="spacing" textLength="31.2" x="934" y="443.4758">factory</text><polygon fill="#181818" points="1150.4,469.5188,1158.4,472.7188,1150.4,475.9188,1153.6,472.7188" style="stroke:#181818;stroke-width:0.8000000000000002;"/><line style="stroke:#181818;stroke-width:0.8000000000000002;" x1="920.4" x2="1155.2" y1="472.7188" y2="472.7188"/><text fill="#000000" font-family="FG Virgil" font-size="10.4" lengthAdjust="spacing" textLength="37.6" x="926" y="468.5086">exams()</text><polygon fill="#181818" points="1260.4,494.5516,1268.4,497.7516,1260.4,500.9516,1263.6,497.7516" style="stroke:#181818;stroke-width:0.8000000000000002;"/><line style="stroke:#181818;stroke-width:0.8000000000000002;" x1="1168" x2="1265.2" y1="497.7516" y2="497.7516"/><text fill="#000000" font-family="FG Virgil" font-size="10.4" lengthAdjust="spacing" textLength="35.2" x="1173.6" y="493.5414">create()</text><polygon fill="#181818" points="929.2,519.5844,921.2,522.7844,929.2,525.9844,926,522.7844" style="stroke:#181818;stroke-width:0.8000000000000002;"/><line style="stroke:#181818;stroke-width:0.8000000000000002;" x1="924.4" x2="1163.2" y1="522.7844" y2="522.7844"/><text fill="#000000" font-family="FG Virgil" font-size="10.4" lengthAdjust="spacing" textLength="75.2" x="934" y="518.5742">examRepository</text><polygon fill="#181818" points="1256.4,544.6172,1264.4,547.8172,1256.4,551.0172,1259.6,547.8172" style="stroke:#181818;stroke-width:0.8000000000000002;"/><line style="stroke:#181818;stroke-width:0.8000000000000002;" x1="920.4" x2="1261.2" y1="547.8172" y2="547.8172"/><text fill="#000000" font-family="FG Virgil" font-size="10.4" lengthAdjust="spacing" textLength="131.2" x="926" y="543.607">findGradesByStudentEmail()</text><polygon fill="#181818" points="929.2,569.65,921.2,572.85,929.2,576.05,926,572.85" style="stroke:#181818;stroke-width:0.8000000000000002;"/><line style="stroke:#181818;stroke-width:0.8000000000000002;stroke-dasharray:2.0,2.0;" x1="924.4" x2="1269.2" y1="572.85" y2="572.85"/><text fill="#000000" font-family="FG Virgil" font-size="10.4" lengthAdjust="spacing" textLength="59.2" x="934" y="568.6398">examGrades</text><polygon fill="#181818" points="404.4,594.6828,396.4,597.8828,404.4,601.0828,401.2,597.8828" style="stroke:#181818;stroke-width:0.8000000000000002;"/><line style="stroke:#181818;stroke-width:0.8000000000000002;stroke-dasharray:2.0,2.0;" x1="399.6" x2="915.6" y1="597.8828" y2="597.8828"/><text fill="#000000" font-family="FG Virgil" font-size="10.4" lengthAdjust="spacing" textLength="59.2" x="409.2" y="593.6727">examGrades</text><polygon fill="#181818" points="273.2,619.7156,265.2,622.9156,273.2,626.1156,270,622.9156" style="stroke:#181818;stroke-width:0.8000000000000002;"/><line style="stroke:#181818;stroke-width:0.8000000000000002;stroke-dasharray:2.0,2.0;" x1="268.4" x2="390.8" y1="622.9156" y2="622.9156"/><text fill="#000000" font-family="FG Virgil" font-size="10.4" lengthAdjust="spacing" textLength="59.2" x="278" y="618.7055">examGrades</text><polygon fill="#181818" points="34.8,644.7484,26.8,647.9484,34.8,651.1484,31.6,647.9484" style="stroke:#181818;stroke-width:0.8000000000000002;"/><line style="stroke:#181818;stroke-width:0.8000000000000002;" x1="30" x2="259.6" y1="647.9484" y2="647.9484"/><text fill="#000000" font-family="FG Virgil" font-size="10.4" lengthAdjust="spacing" textLength="211.2" x="39.6" y="643.7383">show the operation result and print the results</text><!--SRC=[VLN1Rjim3BthAtHC3za714Q0h4kw0cixDCtkd4qdGcN9aEIssTUFiYsRTfDU0abyx_5Hf1N_gamD3YfPMMFpaxCLok0Q57w8r92_mX7tuQnHEim3YnLOGgF3pfhm24JTtSa_oXsLPXX_WiA-AtEK9MYFGa0Uh9Fxq1HeWWGlD_5043geNDL0Xx-K3ziFgEuS5EWFzn55lrbME_J4Wg2iMQ-_uDoI9MUrHXUvR9TbKDTQvPSaDaquaNeVtADxKpcs3flmxqHKtntDQ0SwtgFtn6cDicsajAiP9Hfz04FtMb52bYajh-NwZSvJeMXoZ4NXHqZrnILTq1YVCP-njbxHJPztRGVEaPYMMLPsAo8L4E0lU6nD-f4MyMoNPMxO44kqNPJBvJfsQYKrkP1b4ng74gDGstZr1W4980X3IDQNbSmTKd1n8ou5zQIx4JIeZJZ1A2JGTOq9NmwZyMIIzHwBsCAVu3Vc_5GkRctZF3vRZVxR_kNmO_luSYCwSYoMTPlNCDXhaLTIzyEnO7gJglkuA70cDzERce1vAQG_tlq85PmsJzrGZEVbl5dsDBDNRte4VD767YGIk3SKntebXr5J5vfF496Wn4epFRFJHqSl_SJp8fCQDp7AjMCyoTx7HC8Gd7qXp003Z0QYtWZdFf8kzp4HBfKfkZlyVkvVqcq5Ia_SCMr6Ndxoq0a9Re1H1mlp2Rb2JNta8v0UXIiKzWLtdtxtbj3yd-oxf66Mbjwrzb6cIV3qZoF15B9sYjwr6EuEfwA7-_y0]--></g></svg>