<?xml version="1.0" encoding="us-ascii" standalone="no"?><svg xmlns="http://www.w3.org/2000/svg" xmlns:xlink="http://www.w3.org/1999/xlink" contentStyleType="text/css" height="850px" preserveAspectRatio="none" style="width:1567px;height:850px;background:#FFFFFF;" version="1.1" viewBox="0 0 1567 850" width="1567px" zoomAndPan="magnify"><defs/><g><polygon fill="#FFFFFF" points="351.5,138.8242,351.5,138.8943,353.5,138.6861,355.5,138.8886,357.5,138.9574,359.5,138.5864,361.5,138.8242,361.4223,138.8242,361.0735,148.901,361.1165,158.9778,361.4318,169.0545,360.8086,179.1313,362.0536,189.2081,360.8697,199.2848,361.3022,209.3616,361.9319,219.4384,361.4142,229.5151,361.5682,239.5919,361.4681,249.6687,361.6785,259.7454,361.7391,269.8222,362.0857,279.899,362.1711,289.9757,362.1793,300.0525,361.7546,310.1293,361.9636,320.206,362.2022,330.2828,360.7788,340.3596,362.1785,350.4363,361.2035,360.5131,362.0338,370.5899,361.005,380.6666,361.4315,390.7434,362.2416,400.8202,361.4513,410.8969,361.6053,420.9737,361.8386,431.0505,361.9162,441.1273,361.4961,451.204,361.7872,461.2808,360.9276,471.3576,361.7844,481.4343,362.0482,491.5111,361.9445,501.5879,362.113,511.6646,361.0169,521.7414,360.8478,531.8182,360.8786,541.8949,361.4411,551.9717,361.3035,562.0485,362.1814,572.1252,361.3253,582.202,361.1569,592.2788,361.7283,602.3555,360.8332,612.4323,360.9809,622.5091,362.149,632.5858,361.9357,642.6626,362.2345,652.7394,361.1782,662.8161,361.8192,672.8929,362.0904,682.9697,361.0276,693.0464,361.4041,703.1232,361.626,713.2,362.1518,723.2767,361.5,733.3535,361.5,733.3521,359.5,733.5077,357.5,733.1689,355.5,733.1278,353.5,733.5214,351.5,733.3535,350.7831,733.3535,352.009,723.2767,351.7066,713.2,351.2321,703.1232,351.1462,693.0464,351.9588,682.9697,351.2007,672.8929,352.0919,662.8161,350.9473,652.7394,352.1174,642.6626,351.9843,632.5858,351.745,622.5091,351.5472,612.4323,352.2266,602.3555,352.1136,592.2788,351.6693,582.202,351.7682,572.1252,351.3697,562.0485,352.2165,551.9717,351.6549,541.8949,351.6726,531.8182,350.8916,521.7414,351.0948,511.6646,352.0307,501.5879,351.9298,491.5111,351.4571,481.4343,351.1778,471.3576,351.2811,461.2808,350.8138,451.204,351.9147,441.1273,352.2396,431.0505,352.0264,420.9737,352.1949,410.8969,351.3633,400.8202,351.5872,390.7434,351.1124,380.6666,351.784,370.5899,351.7468,360.5131,352.0524,350.4363,351.2703,340.3596,351.3656,330.2828,351.9435,320.206,352.0673,310.1293,350.9875,300.0525,351.3061,289.9757,351.6493,279.899,350.8892,269.8222,351.8534,259.7454,351.758,249.6687,351.3992,239.5919,351.6422,229.5151,352.2287,219.4384,351.1871,209.3616,351.815,199.2848,351.7856,189.2081,351.6158,179.1313,351.6409,169.0545,351.6135,158.9778,350.8758,148.901,351.5,138.8242" style="stroke:#181818;stroke-width:1.0;"/><polygon fill="#FFFFFF" points="752.5,170.1152,752.5,170.1853,754.5,169.9771,756.5,170.1797,758.5,170.2485,760.5,169.8774,762.5,170.1152,762.4223,170.1152,762.0735,180.152,762.1165,190.1887,762.4318,200.2255,761.8086,210.2622,763.0536,220.2989,761.8697,230.3357,762.3022,240.3724,762.9319,250.4092,762.4142,260.4459,762.5682,270.4826,762.4681,280.5194,762.6785,290.5561,762.7391,300.5929,763.0857,310.6296,763.1711,320.6663,763.1793,330.7031,762.7546,340.7398,762.9636,350.7766,763.2022,360.8133,761.7788,370.8501,763.1785,380.8868,762.2035,390.9235,763.0338,400.9603,762.005,410.997,762.4315,421.0338,763.2416,431.0705,762.4513,441.1072,762.6053,451.144,762.8386,461.1807,762.9162,471.2175,762.4961,481.2542,762.7872,491.2909,761.9276,501.3277,762.7844,511.3644,763.0482,521.4012,762.9445,531.4379,763.113,541.4746,762.0169,551.5114,761.8478,561.5481,761.8786,571.5849,762.4411,581.6216,762.3035,591.6584,763.1814,601.6951,762.3253,611.7318,762.1569,621.7686,762.7283,631.8053,761.8332,641.8421,761.9809,651.8788,763.149,661.9155,762.9357,671.9523,763.2345,681.989,762.1782,692.0258,762.5,702.0625,762.5,702.1689,760.5,702.2593,758.5,701.905,756.5,702.0305,754.5,702.1045,752.5,702.0625,753.1518,702.0625,752.4958,692.0258,752.9626,681.989,751.9462,671.9523,751.8227,661.9155,753.0036,651.8788,751.7831,641.8421,753.009,631.8053,752.7066,621.7686,752.2321,611.7318,752.1462,601.6951,752.9588,591.6584,752.2007,581.6216,753.0919,571.5849,751.9473,561.5481,753.1174,551.5114,752.9843,541.4746,752.745,531.4379,752.5472,521.4012,753.2266,511.3644,753.1136,501.3277,752.6693,491.2909,752.7682,481.2542,752.3697,471.2175,753.2165,461.1807,752.6549,451.144,752.6726,441.1072,751.8916,431.0705,752.0948,421.0338,753.0307,410.997,752.9298,400.9603,752.4571,390.9235,752.1778,380.8868,752.2811,370.8501,751.8138,360.8133,752.9147,350.7766,753.2396,340.7398,753.0264,330.7031,753.1949,320.6663,752.3633,310.6296,752.5872,300.5929,752.1124,290.5561,752.784,280.5194,752.7468,270.4826,753.0524,260.4459,752.2703,250.4092,752.3656,240.3724,752.9435,230.3357,753.0673,220.2989,751.9875,210.2622,752.3061,200.2255,752.6493,190.1887,751.8892,180.152,752.5,170.1152" style="stroke:#181818;stroke-width:1.0;"/><polygon fill="#FFFFFF" points="894.5,263.9883,894.5,264.0583,896.5,263.8502,898.5,264.0527,900.5,264.1215,902.5,263.7505,904.5,263.9883,904.4741,263.9883,904.3578,270.2465,904.3722,276.5047,904.4773,282.7629,904.2695,289.0211,904.5,295.2793,904.5,295.4638,902.5,295.0692,900.5,295.2134,898.5,295.4233,896.5,295.2507,894.5,295.2793,894.5227,295.2793,894.4894,289.0211,894.5595,282.7629,894.5797,276.5047,894.6952,270.2465,894.5,263.9883" style="stroke:#181818;stroke-width:1.0;"/><polygon fill="#FFFFFF" points="1076.5,326.5703,1076.5,326.6404,1078.5,326.4322,1080.5,326.6347,1082.5,326.7035,1084.5,326.3325,1086.5,326.5703,1086.4741,326.5703,1086.3578,332.8285,1086.3722,339.0867,1086.4773,345.3449,1086.2695,351.6031,1086.5,357.8613,1086.5,358.0459,1084.5,357.6512,1082.5,357.7954,1080.5,358.0053,1078.5,357.8327,1076.5,357.8613,1076.5227,357.8613,1076.4894,351.6031,1076.5595,345.3449,1076.5797,339.0867,1076.6952,332.8285,1076.5,326.5703" style="stroke:#181818;stroke-width:1.0;"/><polygon fill="#FFFFFF" points="1076.5,389.1523,1076.5,389.2224,1078.5,389.0142,1080.5,389.2168,1082.5,389.2856,1084.5,388.9145,1086.5,389.1523,1086.4223,389.1523,1086.0735,399.2102,1086.1165,409.268,1086.4318,419.3258,1085.8086,429.3836,1087.0536,439.4415,1085.8697,449.4993,1086.3022,459.5571,1086.9319,469.615,1086.4142,479.6728,1086.5682,489.7306,1086.4681,499.7884,1086.6785,509.8463,1086.7391,519.9041,1087.0857,529.9619,1087.1711,540.0197,1087.1793,550.0776,1086.7546,560.1354,1086.9636,570.1932,1087.2022,580.251,1085.7788,590.3089,1087.1785,600.3667,1086.2035,610.4245,1087.0338,620.4824,1086.005,630.5402,1086.4315,640.598,1087.2416,650.6558,1086.4513,660.7137,1086.5,670.7715,1086.5,670.8066,1084.5,670.8844,1082.5,670.9102,1080.5,670.7702,1078.5,670.8672,1076.5,670.7715,1075.9276,670.7715,1076.7844,660.7137,1077.0482,650.6558,1076.9445,640.598,1077.113,630.5402,1076.0169,620.4824,1075.8478,610.4245,1075.8786,600.3667,1076.4411,590.3089,1076.3035,580.251,1077.1814,570.1932,1076.3253,560.1354,1076.1569,550.0776,1076.7283,540.0197,1075.8332,529.9619,1075.9809,519.9041,1077.149,509.8463,1076.9357,499.7884,1077.2345,489.7306,1076.1782,479.6728,1076.8192,469.615,1077.0904,459.5571,1076.0276,449.4993,1076.4041,439.4415,1076.626,429.3836,1077.1518,419.3258,1076.4958,409.268,1076.9626,399.2102,1076.5,389.1523" style="stroke:#181818;stroke-width:1.0;"/><polygon fill="#FFFFFF" points="1196,201.4063,1196,201.4763,1198,201.2681,1200,201.4707,1202,201.5395,1204,201.1685,1206,201.4063,1205.9741,201.4063,1205.8578,207.6645,1205.8722,213.9227,1205.9773,220.1809,1205.7695,226.4391,1206,232.6973,1206,232.8818,1204,232.4872,1202,232.6313,1200,232.8412,1198,232.6687,1196,232.6973,1196.0227,232.6973,1195.9894,226.4391,1196.0595,220.1809,1196.0797,213.9227,1196.1952,207.6645,1196,201.4063" style="stroke:#181818;stroke-width:1.0;"/><polygon fill="#FFFFFF" points="1400.5,420.4434,1400.5,420.5134,1402.5,420.3053,1404.5,420.5078,1406.5,420.5766,1408.5,420.2056,1410.5,420.4434,1410.4741,420.4434,1410.3578,426.7016,1410.3722,432.9598,1410.4773,439.218,1410.2695,445.4762,1410.5,451.7344,1410.5,451.9189,1408.5,451.5243,1406.5,451.6685,1404.5,451.8784,1402.5,451.7058,1400.5,451.7344,1400.5227,451.7344,1400.4894,445.4762,1400.5595,439.218,1400.5797,432.9598,1400.6952,426.7016,1400.5,420.4434" style="stroke:#181818;stroke-width:1.0;"/><polygon fill="#FFFFFF" points="1400.5,483.0254,1400.5,483.0955,1402.5,482.8873,1404.5,483.0898,1406.5,483.1586,1408.5,482.7876,1410.5,483.0254,1410.4741,483.0254,1410.3578,489.2836,1410.3722,495.5418,1410.4773,501.8,1410.2695,508.0582,1410.5,514.3164,1410.5,514.501,1408.5,514.1063,1406.5,514.2505,1404.5,514.4604,1402.5,514.2878,1400.5,514.3164,1400.5227,514.3164,1400.4894,508.0582,1400.5595,501.8,1400.5797,495.5418,1400.6952,489.2836,1400.5,483.0254" style="stroke:#181818;stroke-width:1.0;"/><polygon fill="#FFFFFF" points="1400.5,545.6074,1400.5,545.6775,1402.5,545.4693,1404.5,545.6719,1406.5,545.7406,1408.5,545.3696,1410.5,545.6074,1410.4741,545.6074,1410.3578,551.8656,1410.3722,558.1238,1410.4773,564.382,1410.2695,570.6402,1410.5,576.8984,1410.5,577.083,1408.5,576.6883,1406.5,576.8325,1404.5,577.0424,1402.5,576.8698,1400.5,576.8984,1400.5227,576.8984,1400.4894,570.6402,1400.5595,564.382,1400.5797,558.1238,1400.6952,551.8656,1400.5,545.6074" style="stroke:#181818;stroke-width:1.0;"/><polygon fill="#FFFFFF" points="1496.5,608.1895,1496.5,608.2595,1498.5,608.0513,1500.5,608.2539,1502.5,608.3227,1504.5,607.9517,1506.5,608.1895,1506.4741,608.1895,1506.3578,614.4477,1506.3722,620.7059,1506.4773,626.9641,1506.2695,633.2223,1506.5,639.4805,1506.5,639.665,1504.5,639.2704,1502.5,639.4145,1500.5,639.6245,1498.5,639.4519,1496.5,639.4805,1496.5227,639.4805,1496.4894,633.2223,1496.5595,626.9641,1496.5797,620.7059,1496.6952,614.4477,1496.5,608.1895" style="stroke:#181818;stroke-width:1.0;"/><path d="M22,88.2422 L22.2802,88.2422 L21.4476,98.2893 L22.2577,108.3365 L22.5329,118.3836 L21.0488,128.4308 L21.8964,138.4779 L21.4313,148.525 L21.4887,158.5722 L21.9091,168.6193 L21.0782,178.6665 L22.7382,188.7136 L21.1596,198.7607 L21.7363,208.8079 L22.5759,218.855 L21.8856,228.9022 L22.091,238.9493 L21.9574,248.9964 L22.238,259.0436 L22.3188,269.0907 L22.7809,279.1379 L22.8947,289.185 L22.9057,299.2322 L22.3395,309.2793 L22.6181,319.3264 L22.9363,329.3736 L21.0384,339.4207 L22.9047,349.4679 L21.6047,359.515 L22.7117,369.5621 L21.34,379.6093 L21.9087,389.6564 L22.9888,399.7036 L21.935,409.7507 L22.1404,419.7979 L22.4515,429.845 L22.555,439.8921 L21.9948,449.9393 L22.383,459.9864 L21.2368,470.0336 L22.3792,480.0807 L22.7309,490.1278 L22.5927,500.175 L22.8174,510.2221 L21.3559,520.2693 L21.1304,530.3164 L21.1715,540.3635 L21.9215,550.4107 L21.738,560.4578 L22.9085,570.505 L21.7671,580.5521 L21.5426,590.5993 L22.3044,600.6464 L21.1109,610.6935 L21.3078,620.7407 L22.8653,630.7878 L22.5809,640.835 L22.9793,650.8821 L21.5709,660.9292 L22.4256,670.9764 L22.7872,681.0235 L21.3701,691.0707 L21.8722,701.1178 L22.168,711.165 L22.869,721.2121 L21.9944,731.2592 L22.6168,741.3064 L22,751.3535 " fill="none" style="stroke:#181818;stroke-width:0.5;stroke-dasharray:5.0,5.0;"/><path d="M356,88.2422 L356.2802,88.2422 L355.4476,98.2893 L356.2577,108.3365 L356.5329,118.3836 L355.0488,128.4308 L355.8964,138.4779 L355.4313,148.525 L355.4887,158.5722 L355.9091,168.6193 L355.0782,178.6665 L356.7382,188.7136 L355.1596,198.7607 L355.7363,208.8079 L356.5759,218.855 L355.8856,228.9022 L356.091,238.9493 L355.9574,248.9964 L356.238,259.0436 L356.3188,269.0907 L356.7809,279.1379 L356.8947,289.185 L356.9057,299.2322 L356.3395,309.2793 L356.6181,319.3264 L356.9363,329.3736 L355.0384,339.4207 L356.9047,349.4679 L355.6047,359.515 L356.7117,369.5621 L355.34,379.6093 L355.9087,389.6564 L356.9888,399.7036 L355.935,409.7507 L356.1404,419.7979 L356.4515,429.845 L356.555,439.8921 L355.9948,449.9393 L356.383,459.9864 L355.2368,470.0336 L356.3792,480.0807 L356.7309,490.1278 L356.5927,500.175 L356.8174,510.2221 L355.3559,520.2693 L355.1304,530.3164 L355.1715,540.3635 L355.9215,550.4107 L355.738,560.4578 L356.9085,570.505 L355.7671,580.5521 L355.5426,590.5993 L356.3044,600.6464 L355.1109,610.6935 L355.3078,620.7407 L356.8653,630.7878 L356.5809,640.835 L356.9793,650.8821 L355.5709,660.9292 L356.4256,670.9764 L356.7872,681.0235 L355.3701,691.0707 L355.8722,701.1178 L356.168,711.165 L356.869,721.2121 L355.9944,731.2592 L356.6168,741.3064 L356,751.3535 " fill="none" style="stroke:#181818;stroke-width:0.5;stroke-dasharray:5.0,5.0;"/><path d="M757.5,88.2422 L757.7802,88.2422 L756.9476,98.2893 L757.7577,108.3365 L758.0329,118.3836 L756.5488,128.4308 L757.3964,138.4779 L756.9313,148.525 L756.9887,158.5722 L757.4091,168.6193 L756.5782,178.6665 L758.2382,188.7136 L756.6596,198.7607 L757.2363,208.8079 L758.0759,218.855 L757.3856,228.9022 L757.591,238.9493 L757.4574,248.9964 L757.738,259.0436 L757.8188,269.0907 L758.2809,279.1379 L758.3947,289.185 L758.4057,299.2322 L757.8395,309.2793 L758.1181,319.3264 L758.4363,329.3736 L756.5384,339.4207 L758.4047,349.4679 L757.1047,359.515 L758.2117,369.5621 L756.84,379.6093 L757.4087,389.6564 L758.4888,399.7036 L757.435,409.7507 L757.6404,419.7979 L757.9515,429.845 L758.055,439.8921 L757.4948,449.9393 L757.883,459.9864 L756.7368,470.0336 L757.8792,480.0807 L758.2309,490.1278 L758.0927,500.175 L758.3174,510.2221 L756.8559,520.2693 L756.6304,530.3164 L756.6715,540.3635 L757.4215,550.4107 L757.238,560.4578 L758.4085,570.505 L757.2671,580.5521 L757.0426,590.5993 L757.8044,600.6464 L756.6109,610.6935 L756.8078,620.7407 L758.3653,630.7878 L758.0809,640.835 L758.4793,650.8821 L757.0709,660.9292 L757.9256,670.9764 L758.2872,681.0235 L756.8701,691.0707 L757.3722,701.1178 L757.668,711.165 L758.369,721.2121 L757.4944,731.2592 L758.1168,741.3064 L757.5,751.3535 " fill="none" style="stroke:#181818;stroke-width:0.5;stroke-dasharray:5.0,5.0;"/><path d="M899.5,88.2422 L899.7802,88.2422 L898.9476,98.2893 L899.7577,108.3365 L900.0329,118.3836 L898.5488,128.4308 L899.3964,138.4779 L898.9313,148.525 L898.9887,158.5722 L899.4091,168.6193 L898.5782,178.6665 L900.2382,188.7136 L898.6596,198.7607 L899.2363,208.8079 L900.0759,218.855 L899.3856,228.9022 L899.591,238.9493 L899.4574,248.9964 L899.738,259.0436 L899.8188,269.0907 L900.2809,279.1379 L900.3947,289.185 L900.4057,299.2322 L899.8395,309.2793 L900.1181,319.3264 L900.4363,329.3736 L898.5384,339.4207 L900.4047,349.4679 L899.1047,359.515 L900.2117,369.5621 L898.84,379.6093 L899.4087,389.6564 L900.4888,399.7036 L899.435,409.7507 L899.6404,419.7979 L899.9515,429.845 L900.055,439.8921 L899.4948,449.9393 L899.883,459.9864 L898.7368,470.0336 L899.8792,480.0807 L900.2309,490.1278 L900.0927,500.175 L900.3174,510.2221 L898.8559,520.2693 L898.6304,530.3164 L898.6715,540.3635 L899.4215,550.4107 L899.238,560.4578 L900.4085,570.505 L899.2671,580.5521 L899.0426,590.5993 L899.8044,600.6464 L898.6109,610.6935 L898.8078,620.7407 L900.3653,630.7878 L900.0809,640.835 L900.4793,650.8821 L899.0709,660.9292 L899.9256,670.9764 L900.2872,681.0235 L898.8701,691.0707 L899.3722,701.1178 L899.668,711.165 L900.369,721.2121 L899.4944,731.2592 L900.1168,741.3064 L899.5,751.3535 " fill="none" style="stroke:#181818;stroke-width:0.5;stroke-dasharray:5.0,5.0;"/><path d="M1081,88.2422 L1081.2802,88.2422 L1080.4476,98.2893 L1081.2577,108.3365 L1081.5329,118.3836 L1080.0488,128.4308 L1080.8964,138.4779 L1080.4313,148.525 L1080.4887,158.5722 L1080.9091,168.6193 L1080.0782,178.6665 L1081.7382,188.7136 L1080.1596,198.7607 L1080.7363,208.8079 L1081.5759,218.855 L1080.8856,228.9022 L1081.091,238.9493 L1080.9574,248.9964 L1081.238,259.0436 L1081.3188,269.0907 L1081.7809,279.1379 L1081.8947,289.185 L1081.9057,299.2322 L1081.3395,309.2793 L1081.6181,319.3264 L1081.9363,329.3736 L1080.0384,339.4207 L1081.9047,349.4679 L1080.6047,359.515 L1081.7117,369.5621 L1080.34,379.6093 L1080.9087,389.6564 L1081.9888,399.7036 L1080.935,409.7507 L1081.1404,419.7979 L1081.4515,429.845 L1081.555,439.8921 L1080.9948,449.9393 L1081.383,459.9864 L1080.2368,470.0336 L1081.3792,480.0807 L1081.7309,490.1278 L1081.5927,500.175 L1081.8174,510.2221 L1080.3559,520.2693 L1080.1304,530.3164 L1080.1715,540.3635 L1080.9215,550.4107 L1080.738,560.4578 L1081.9085,570.505 L1080.7671,580.5521 L1080.5426,590.5993 L1081.3044,600.6464 L1080.1109,610.6935 L1080.3078,620.7407 L1081.8653,630.7878 L1081.5809,640.835 L1081.9793,650.8821 L1080.5709,660.9292 L1081.4256,670.9764 L1081.7872,681.0235 L1080.3701,691.0707 L1080.8722,701.1178 L1081.168,711.165 L1081.869,721.2121 L1080.9944,731.2592 L1081.6168,741.3064 L1081,751.3535 " fill="none" style="stroke:#181818;stroke-width:0.5;stroke-dasharray:5.0,5.0;"/><path d="M1201,88.2422 L1201.2802,88.2422 L1200.4476,98.2893 L1201.2577,108.3365 L1201.5329,118.3836 L1200.0488,128.4308 L1200.8964,138.4779 L1200.4313,148.525 L1200.4887,158.5722 L1200.9091,168.6193 L1200.0782,178.6665 L1201.7382,188.7136 L1200.1596,198.7607 L1200.7363,208.8079 L1201.5759,218.855 L1200.8856,228.9022 L1201.091,238.9493 L1200.9574,248.9964 L1201.238,259.0436 L1201.3188,269.0907 L1201.7809,279.1379 L1201.8947,289.185 L1201.9057,299.2322 L1201.3395,309.2793 L1201.6181,319.3264 L1201.9363,329.3736 L1200.0384,339.4207 L1201.9047,349.4679 L1200.6047,359.515 L1201.7117,369.5621 L1200.34,379.6093 L1200.9087,389.6564 L1201.9888,399.7036 L1200.935,409.7507 L1201.1404,419.7979 L1201.4515,429.845 L1201.555,439.8921 L1200.9948,449.9393 L1201.383,459.9864 L1200.2368,470.0336 L1201.3792,480.0807 L1201.7309,490.1278 L1201.5927,500.175 L1201.8174,510.2221 L1200.3559,520.2693 L1200.1304,530.3164 L1200.1715,540.3635 L1200.9215,550.4107 L1200.738,560.4578 L1201.9085,570.505 L1200.7671,580.5521 L1200.5426,590.5993 L1201.3044,600.6464 L1200.1109,610.6935 L1200.3078,620.7407 L1201.8653,630.7878 L1201.5809,640.835 L1201.9793,650.8821 L1200.5709,660.9292 L1201.4256,670.9764 L1201.7872,681.0235 L1200.3701,691.0707 L1200.8722,701.1178 L1201.168,711.165 L1201.869,721.2121 L1200.9944,731.2592 L1201.6168,741.3064 L1201,751.3535 " fill="none" style="stroke:#181818;stroke-width:0.5;stroke-dasharray:5.0,5.0;"/><path d="M1405.5,88.2422 L1405.7802,88.2422 L1404.9476,98.2893 L1405.7577,108.3365 L1406.0329,118.3836 L1404.5488,128.4308 L1405.3964,138.4779 L1404.9313,148.525 L1404.9887,158.5722 L1405.4091,168.6193 L1404.5782,178.6665 L1406.2382,188.7136 L1404.6596,198.7607 L1405.2363,208.8079 L1406.0759,218.855 L1405.3856,228.9022 L1405.591,238.9493 L1405.4574,248.9964 L1405.738,259.0436 L1405.8188,269.0907 L1406.2809,279.1379 L1406.3947,289.185 L1406.4057,299.2322 L1405.8395,309.2793 L1406.1181,319.3264 L1406.4363,329.3736 L1404.5384,339.4207 L1406.4047,349.4679 L1405.1047,359.515 L1406.2117,369.5621 L1404.84,379.6093 L1405.4087,389.6564 L1406.4888,399.7036 L1405.435,409.7507 L1405.6404,419.7979 L1405.9515,429.845 L1406.055,439.8921 L1405.4948,449.9393 L1405.883,459.9864 L1404.7368,470.0336 L1405.8792,480.0807 L1406.2309,490.1278 L1406.0927,500.175 L1406.3174,510.2221 L1404.8559,520.2693 L1404.6304,530.3164 L1404.6715,540.3635 L1405.4215,550.4107 L1405.238,560.4578 L1406.4085,570.505 L1405.2671,580.5521 L1405.0426,590.5993 L1405.8044,600.6464 L1404.6109,610.6935 L1404.8078,620.7407 L1406.3653,630.7878 L1406.0809,640.835 L1406.4793,650.8821 L1405.0709,660.9292 L1405.9256,670.9764 L1406.2872,681.0235 L1404.8701,691.0707 L1405.3722,701.1178 L1405.668,711.165 L1406.369,721.2121 L1405.4944,731.2592 L1406.1168,741.3064 L1405.5,751.3535 " fill="none" style="stroke:#181818;stroke-width:0.5;stroke-dasharray:5.0,5.0;"/><path d="M1501.5,88.2422 L1501.7802,88.2422 L1500.9476,98.2893 L1501.7577,108.3365 L1502.0329,118.3836 L1500.5488,128.4308 L1501.3964,138.4779 L1500.9313,148.525 L1500.9887,158.5722 L1501.4091,168.6193 L1500.5782,178.6665 L1502.2382,188.7136 L1500.6596,198.7607 L1501.2363,208.8079 L1502.0759,218.855 L1501.3856,228.9022 L1501.591,238.9493 L1501.4574,248.9964 L1501.738,259.0436 L1501.8188,269.0907 L1502.2809,279.1379 L1502.3947,289.185 L1502.4057,299.2322 L1501.8395,309.2793 L1502.1181,319.3264 L1502.4363,329.3736 L1500.5384,339.4207 L1502.4047,349.4679 L1501.1047,359.515 L1502.2117,369.5621 L1500.84,379.6093 L1501.4087,389.6564 L1502.4888,399.7036 L1501.435,409.7507 L1501.6404,419.7979 L1501.9515,429.845 L1502.055,439.8921 L1501.4948,449.9393 L1501.883,459.9864 L1500.7368,470.0336 L1501.8792,480.0807 L1502.2309,490.1278 L1502.0927,500.175 L1502.3174,510.2221 L1500.8559,520.2693 L1500.6304,530.3164 L1500.6715,540.3635 L1501.4215,550.4107 L1501.238,560.4578 L1502.4085,570.505 L1501.2671,580.5521 L1501.0426,590.5993 L1501.8044,600.6464 L1500.6109,610.6935 L1500.8078,620.7407 L1502.3653,630.7878 L1502.0809,640.835 L1502.4793,650.8821 L1501.0709,660.9292 L1501.9256,670.9764 L1502.2872,681.0235 L1500.8701,691.0707 L1501.3722,701.1178 L1501.668,711.165 L1502.369,721.2121 L1501.4944,731.2592 L1502.1168,741.3064 L1501.5,751.3535 " fill="none" style="stroke:#181818;stroke-width:0.5;stroke-dasharray:5.0,5.0;"/><text fill="#000000" font-family="FG Virgil" font-size="14" lengthAdjust="spacing" textLength="29" x="5" y="84.7285">User</text><polygon fill="#E3E3E3" points="30.5442,20.067,29.3715,21.6693,27.9845,24.0162,26.0008,25.5977,23.9163,26.4626,22.2542,26.5377,20.118,25.456,18.1023,24.7494,16.5724,23.3147,15.7699,21.6722,15.2939,20.3644,14.8277,18.6561,14.0709,17.1862,14.6525,15.7509,15.162,14.1787,17.074,12.9353,18.4192,11.3219,20.0843,10.7861,22.0637,10.3248,24.6021,10.5989,25.9924,11.2546,27.6089,11.5518,29.5743,13.5654,30.2595,15.6912,30.5571,17.1417,30.22,19.5319" style="stroke:#181818;stroke-width:0.5;"/><path d="M22.5,26.1211 L22.6868,26.1211 L22.1317,31.5211 L22.6718,36.9211 L22.8553,42.3211 L21.8659,47.7211 L22.5,53.1211 M9.5,34.1211 L9.5,34.052 L14.7,33.742 L19.9,33.7802 L25.1,34.0605 L30.3,33.5065 L35.5,34.1211 M22.5,53.1211 L22.8719,53.4434 L19.4766,55.7542 L17.1672,59.006 L14.9901,62.3726 L12.0424,65.0712 L9.5,68.1211 M22.5,53.1211 L22.5458,53.1608 L25.0785,56.1025 L27.8199,59.225 L30.4606,62.2603 L33.2934,65.4621 L35.5,68.1211 " fill="none" style="stroke:#181818;stroke-width:0.5;"/><text fill="#000000" font-family="FG Virgil" font-size="14" lengthAdjust="spacing" textLength="29" x="5" y="765.4609">User</text><polygon fill="#E3E3E3" points="30.5442,779.4205,29.3715,781.0228,27.9845,783.3697,26.0008,784.9513,23.9163,785.8161,22.2542,785.8912,20.118,784.8096,18.1023,784.1029,16.5724,782.6682,15.7699,781.0257,15.2939,779.7179,14.8277,778.0097,14.0709,776.5397,14.6525,775.1044,15.162,773.5322,17.074,772.2888,18.4192,770.6754,20.0843,770.1397,22.0637,769.6783,24.6021,769.9524,25.9924,770.6081,27.6089,770.9053,29.5743,772.919,30.2595,775.0448,30.5571,776.4952,30.22,778.8854" style="stroke:#181818;stroke-width:0.5;"/><path d="M22.5,785.4746 L22.6868,785.4746 L22.1317,790.8746 L22.6718,796.2746 L22.8553,801.6746 L21.8659,807.0746 L22.5,812.4746 M9.5,793.4746 L9.5,793.4055 L14.7,793.0955 L19.9,793.1337 L25.1,793.414 L30.3,792.8601 L35.5,793.4746 M22.5,812.4746 L22.8719,812.7969 L19.4766,815.1077 L17.1672,818.3595 L14.9901,821.7261 L12.0424,824.4247 L9.5,827.4746 M22.5,812.4746 L22.5458,812.5143 L25.0785,815.456 L27.8199,818.5785 L30.4606,821.6138 L33.2934,824.8156 L35.5,827.4746 " fill="none" style="stroke:#181818;stroke-width:0.5;"/><polygon fill="#E3E3E3" points="305.5,36,305.5,36.2102,315.7,35.5857,325.9,36.1933,336.1,36.3997,346.3,35.2866,356.5,35.9223,366.7,35.5735,376.9,35.6165,387.1,35.9318,397.3,35.3086,407.5,36,407.5706,36.1705,407.7732,35.9523,408.1819,36.232,408.6158,36.5724,408.9033,36.5594,409.2678,36.7322,409.2888,36.7409,409.4044,37.0817,409.6156,37.4621,409.7808,37.8234,410.0339,38.2212,410,38.5,410.6711,38.5,410.6793,47.7484,410.2546,56.9969,410.4636,66.2453,410.7022,75.4938,410,84.7422,409.7779,84.6502,410.0625,85.1823,409.6158,85.4115,409.7251,85.8709,409.2618,86.0933,409.2678,86.51,409.259,86.4889,409.0088,86.8848,408.5544,86.7878,408.2205,86.9817,407.8967,87.2,407.5,87.2422,407.5,87.6584,397.3,87.2383,387.1,87.5294,376.9,86.6698,366.7,87.5266,356.5,87.7904,346.3,87.6867,336.1,87.8552,325.9,86.7591,315.7,86.59,305.5,87.2422,305.4207,87.0508,305.1389,87.0776,304.7678,86.8888,304.5263,87.0127,304.0635,86.6026,303.7322,86.51,303.6266,86.4662,303.6561,86.1855,303.234,85.7178,303.133,85.3831,303.3463,85.1785,303,84.7422,303.4357,84.7422,303.7345,75.4938,302.6782,66.2453,303.3192,56.9969,303.5904,47.7484,303,38.5,302.8545,38.4397,303.1169,38.1342,303.3317,37.809,303.6401,37.5225,303.5845,37.0853,303.7322,36.7322,303.7912,36.8747,304.0151,36.4152,304.3529,36.2308,304.8571,36.448,305.055,35.9257,305.5,36" style="stroke:#181818;stroke-width:0.5;"/><text fill="#000000" font-family="FG Virgil" font-size="14" font-style="italic" lengthAdjust="spacing" textLength="83" x="315" y="58.1074">&#171;http server&#187;</text><text fill="#000000" font-family="FG Virgil" font-size="14" lengthAdjust="spacing" textLength="93" x="310" y="76.7285">HttpServerAjax</text><polygon fill="#E3E3E3" points="305.5,750.3535,305.5,750.5637,315.7,749.9392,325.9,750.5468,336.1,750.7532,346.3,749.6401,356.5,750.2758,366.7,749.927,376.9,749.97,387.1,750.2854,397.3,749.6621,407.5,750.3535,407.5706,750.524,407.7732,750.3059,408.1819,750.5855,408.6158,750.9259,408.9033,750.9129,409.2678,751.0857,409.2888,751.0945,409.4044,751.4352,409.6156,751.8156,409.7808,752.1769,410.0339,752.5747,410,752.8535,410.6711,752.8535,410.6793,762.102,410.2546,771.3504,410.4636,780.5988,410.7022,789.8473,410,799.0957,409.7779,799.0037,410.0625,799.5358,409.6158,799.765,409.7251,800.2245,409.2618,800.4468,409.2678,800.8635,409.259,800.8424,409.0088,801.2383,408.5544,801.1414,408.2205,801.3352,407.8967,801.5535,407.5,801.5957,407.5,802.0119,397.3,801.5918,387.1,801.8829,376.9,801.0233,366.7,801.8801,356.5,802.1439,346.3,802.0402,336.1,802.2087,325.9,801.1126,315.7,800.9435,305.5,801.5957,305.4207,801.4043,305.1389,801.4311,304.7678,801.2423,304.5263,801.3662,304.0635,800.9561,303.7322,800.8635,303.6266,800.8197,303.6561,800.539,303.234,800.0713,303.133,799.7366,303.3463,799.532,303,799.0957,303.4357,799.0957,303.7345,789.8473,302.6782,780.5988,303.3192,771.3504,303.5904,762.102,303,752.8535,302.8545,752.7933,303.1169,752.4877,303.3317,752.1625,303.6401,751.876,303.5845,751.4388,303.7322,751.0857,303.7912,751.2282,304.0151,750.7688,304.3529,750.5843,304.8571,750.8015,305.055,750.2792,305.5,750.3535" style="stroke:#181818;stroke-width:0.5;"/><text fill="#000000" font-family="FG Virgil" font-size="14" font-style="italic" lengthAdjust="spacing" textLength="83" x="315" y="772.4609">&#171;http server&#187;</text><text fill="#000000" font-family="FG Virgil" font-size="14" lengthAdjust="spacing" textLength="93" x="310" y="791.082">HttpServerAjax</text><polygon fill="#E3E3E3" points="684,36,684,36.2102,693.8,35.5857,703.6,36.1933,713.4,36.3997,723.2,35.2866,733,35.9223,742.8,35.5735,752.6,35.6165,762.4,35.9318,772.2,35.3086,782,36.5536,791.8,35.3697,801.6,35.8022,811.4,36.4319,821.2,35.9142,831,36,831.0087,36.021,831.3495,36.1366,831.7299,36.3479,832.0912,36.513,832.4889,36.7662,832.7678,36.7322,832.9744,36.8178,833.1234,37.1724,833.1391,37.4718,833.3499,37.852,833.5698,38.236,833.5,38.5,832.7788,38.5,834.1785,47.7484,833.2035,56.9969,834.0338,66.2453,833.005,75.4938,833.5,84.7422,833.4789,84.7334,833.5819,85.1903,833.1921,85.4431,833.0931,85.8163,833.0185,86.1996,832.7678,86.51,832.8209,86.6381,832.4137,86.6552,832.0973,86.8913,831.6341,86.773,831.3898,87.1833,831,87.2422,831,87.7904,821.2,87.6867,811.4,87.8552,801.6,86.7591,791.8,86.59,782,86.6208,772.2,87.1833,762.4,87.0457,752.6,87.9236,742.8,87.0675,733,86.8991,723.2,87.4705,713.4,86.5753,703.6,86.7231,693.8,87.8911,684,87.2422,684.0556,87.3764,683.7401,87.3219,683.2518,86.8502,682.9801,86.9011,682.6611,86.8382,682.2322,86.51,682.0868,86.4497,682.0563,86.1442,681.9781,85.8189,681.9936,85.5324,681.6452,85.0952,681.5,84.7422,681.9626,84.7422,680.9462,75.4938,680.8227,66.2453,682.0036,56.9969,680.7831,47.7484,681.5,38.5,681.6567,38.5649,681.7101,38.1728,681.7104,37.7587,681.8304,37.3942,682.2271,37.1443,682.2322,36.7322,682.194,36.6401,682.6613,36.7681,682.8688,36.2691,683.3717,36.483,683.7082,36.2956,684,36" style="stroke:#181818;stroke-width:0.5;"/><text fill="#000000" font-family="FG Virgil" font-size="14" font-style="italic" lengthAdjust="spacing" textLength="84" x="715.5" y="58.1074">&#171;application&#187;</text><text fill="#000000" font-family="FG Virgil" font-size="14" lengthAdjust="spacing" textLength="138" x="688.5" y="76.7285">ShareBoardController</text><polygon fill="#E3E3E3" points="684,750.3535,684,750.5637,693.8,749.9392,703.6,750.5468,713.4,750.7532,723.2,749.6401,733,750.2758,742.8,749.927,752.6,749.97,762.4,750.2854,772.2,749.6621,782,750.9072,791.8,749.7232,801.6,750.1557,811.4,750.7855,821.2,750.2677,831,750.3535,831.0087,750.3745,831.3495,750.4901,831.7299,750.7014,832.0912,750.8665,832.4889,751.1197,832.7678,751.0857,832.9744,751.1713,833.1234,751.5259,833.1391,751.8253,833.3499,752.2055,833.5698,752.5895,833.5,752.8535,832.7788,752.8535,834.1785,762.102,833.2035,771.3504,834.0338,780.5988,833.005,789.8473,833.5,799.0957,833.4789,799.087,833.5819,799.5439,833.1921,799.7966,833.0931,800.1698,833.0185,800.5531,832.7678,800.8635,832.8209,800.9917,832.4137,801.0087,832.0973,801.2448,831.6341,801.1265,831.3898,801.5368,831,801.5957,831,802.1439,821.2,802.0402,811.4,802.2087,801.6,801.1126,791.8,800.9435,782,800.9743,772.2,801.5368,762.4,801.3992,752.6,802.2771,742.8,801.421,733,801.2526,723.2,801.824,713.4,800.9289,703.6,801.0766,693.8,802.2447,684,801.5957,684.0556,801.7299,683.7401,801.6755,683.2518,801.2037,682.9801,801.2547,682.6611,801.1917,682.2322,800.8635,682.0868,800.8032,682.0563,800.4977,681.9781,800.1724,681.9936,799.8859,681.6452,799.4487,681.5,799.0957,681.9626,799.0957,680.9462,789.8473,680.8227,780.5988,682.0036,771.3504,680.7831,762.102,681.5,752.8535,681.6567,752.9184,681.7101,752.5263,681.7104,752.1122,681.8304,751.7477,682.2271,751.4978,682.2322,751.0857,682.194,750.9936,682.6613,751.1216,682.8688,750.6226,683.3717,750.8366,683.7082,750.6491,684,750.3535" style="stroke:#181818;stroke-width:0.5;"/><text fill="#000000" font-family="FG Virgil" font-size="14" font-style="italic" lengthAdjust="spacing" textLength="84" x="715.5" y="772.4609">&#171;application&#187;</text><text fill="#000000" font-family="FG Virgil" font-size="14" lengthAdjust="spacing" textLength="138" x="688.5" y="791.082">ShareBoardController</text><text fill="#000000" font-family="FG Virgil" font-size="14" font-style="italic" lengthAdjust="spacing" textLength="79" x="857" y="66.1074">&#171;repository&#187;</text><text fill="#000000" font-family="FG Virgil" font-size="14" lengthAdjust="spacing" textLength="106" x="843.5" y="84.7285">BoardRepository</text><path d="M881.5,15 L881.5,15 L881.5651,15.067 L883.1716,13.118 L885.1599,11.5616 L887.0238,9.8774 L888.479,7.7727 L890.5,6.25 L890.4952,6.2158 L892.2739,5.8122 L894.0766,5.5812 L895.8958,5.47 L897.6577,4.9456 L899.5,5 L899.5,5 L899.5339,5.2437 L901.2615,4.9725 L903.0879,5.4129 L904.9264,5.9402 L906.6948,5.9622 L908.5,6.25 L908.5211,6.2717 L910.2901,7.9898 L912.1553,9.8069 L913.9741,11.5762 L915.8815,13.4366 L917.5,15 L918.0965,15 L918.1038,20.2 L917.7263,25.4 L917.9121,30.6 L918.1242,35.8 L917.5,41 L917.5,41 L917.2766,40.7702 L915.9102,42.9662 L913.8081,44.4055 L912.2654,46.4201 L910.1466,47.8423 L908.5,49.75 L908.4958,49.7198 L906.7453,50.3265 L904.897,50.2285 L903.1064,50.5464 L901.3207,50.8991 L899.5,51 L899.5,51 L899.5254,51.1832 L897.6998,50.7483 L895.9176,50.6264 L894.065,49.998 L892.3174,50.1252 L890.5,49.75 L890.6698,49.9247 L888.8377,48.1417 L887.0899,46.4453 L884.9503,44.3461 L883.0979,42.5422 L881.5,41 L880.9476,41 L881.4477,35.8 L881.3253,30.6 L882.1057,25.4 L881.3447,20.2 L881.5,15 " fill="#E3E3E3" style="stroke:#181818;stroke-width:1.5;"/><path d="M881.5,15 L881.5,15 L881.5651,15.067 L883.1716,16.618 L885.1599,18.5616 L887.0238,20.3774 L888.479,21.7727 L890.5,23.75 L890.4952,23.7158 L892.2739,23.8122 L894.0766,24.0812 L895.8958,24.47 L897.6577,24.4456 L899.5,25 L899.5,25 L899.5339,25.2437 L901.2615,24.4725 L903.0879,24.4129 L904.9264,24.4402 L906.6948,23.9622 L908.5,23.75 L908.5211,23.7717 L910.2901,21.9898 L912.1553,20.3069 L913.9741,18.5762 L915.8815,16.9366 L917.5,15 " fill="none" style="stroke:#181818;stroke-width:1.5;"/><text fill="#000000" font-family="FG Virgil" font-size="14" font-style="italic" lengthAdjust="spacing" textLength="79" x="857" y="765.4609">&#171;repository&#187;</text><text fill="#000000" font-family="FG Virgil" font-size="14" lengthAdjust="spacing" textLength="106" x="843.5" y="784.082">BoardRepository</text><path d="M881.5,797.5957 L881.5,797.5957 L881.5651,797.6627 L883.1716,795.7137 L885.1599,794.1573 L887.0238,792.4731 L888.479,790.3684 L890.5,788.8457 L890.4952,788.8115 L892.2739,788.408 L894.0766,788.1769 L895.8958,788.0657 L897.6577,787.5413 L899.5,787.5957 L899.5,787.5957 L899.5339,787.8394 L901.2615,787.5682 L903.0879,788.0086 L904.9264,788.5359 L906.6948,788.5579 L908.5,788.8457 L908.5211,788.8674 L910.2901,790.5855 L912.1553,792.4026 L913.9741,794.1719 L915.8815,796.0323 L917.5,797.5957 L918.0965,797.5957 L918.1038,802.7957 L917.7263,807.9957 L917.9121,813.1957 L918.1242,818.3957 L917.5,823.5957 L917.5,823.5957 L917.2766,823.3659 L915.9102,825.5619 L913.8081,827.0012 L912.2654,829.0158 L910.1466,830.438 L908.5,832.3457 L908.4958,832.3155 L906.7453,832.9222 L904.897,832.8242 L903.1064,833.1421 L901.3207,833.4948 L899.5,833.5957 L899.5,833.5957 L899.5254,833.7789 L897.6998,833.344 L895.9176,833.2221 L894.065,832.5937 L892.3174,832.7209 L890.5,832.3457 L890.6698,832.5204 L888.8377,830.7374 L887.0899,829.0411 L884.9503,826.9418 L883.0979,825.1379 L881.5,823.5957 L880.9476,823.5957 L881.4477,818.3957 L881.3253,813.1957 L882.1057,807.9957 L881.3447,802.7957 L881.5,797.5957 " fill="#E3E3E3" style="stroke:#181818;stroke-width:1.5;"/><path d="M881.5,797.5957 L881.5,797.5957 L881.5651,797.6627 L883.1716,799.2137 L885.1599,801.1573 L887.0238,802.9731 L888.479,804.3684 L890.5,806.3457 L890.4952,806.3115 L892.2739,806.408 L894.0766,806.6769 L895.8958,807.0657 L897.6577,807.0413 L899.5,807.5957 L899.5,807.5957 L899.5339,807.8394 L901.2615,807.0682 L903.0879,807.0086 L904.9264,807.0359 L906.6948,806.5579 L908.5,806.3457 L908.5211,806.3674 L910.2901,804.5855 L912.1553,802.9026 L913.9741,801.1719 L915.8815,799.5323 L917.5,797.5957 " fill="none" style="stroke:#181818;stroke-width:1.5;"/><polygon fill="#E3E3E3" points="1034.5,36,1034.5,36.2102,1044.9444,35.5857,1055.3889,36.1933,1065.8333,36.3997,1076.2778,35.2866,1086.7222,35.9223,1097.1667,35.5735,1107.6111,35.6165,1118.0556,35.9318,1128.5,36,1128.4118,35.7871,1128.9242,36.3169,1129.1267,36.0988,1129.5354,36.3784,1129.9693,36.7188,1130.2678,36.7322,1130.2414,36.7213,1130.4352,37.0945,1130.5508,37.4353,1130.7621,37.8157,1130.9272,38.177,1131,38.5,1131.5857,38.5,1131.6711,47.7484,1131.6793,56.9969,1131.2546,66.2453,1131.4636,75.4938,1131,84.7422,1131.2163,84.8318,1130.6315,85.0037,1130.9161,85.5358,1130.4693,85.765,1130.5786,86.2245,1130.2678,86.51,1130.2046,86.3575,1129.9055,86.6353,1129.6553,87.0312,1129.2009,86.9343,1128.867,87.1282,1128.5,87.2422,1128.5,87.5808,1118.0556,87.6584,1107.6111,87.2383,1097.1667,87.5294,1086.7222,86.6698,1076.2778,87.5266,1065.8333,87.7904,1055.3889,87.6867,1044.9444,87.8552,1034.5,87.2422,1034.4384,87.0934,1034.0633,86.8949,1033.7136,86.7579,1033.4318,86.7847,1033.0607,86.5959,1032.7322,86.51,1032.9421,86.5969,1032.532,86.1341,1032.3337,85.7591,1032.3632,85.4784,1031.9411,85.0107,1032,84.7422,1031.4809,84.7422,1032.649,75.4938,1032.4357,66.2453,1032.7345,56.9969,1031.6782,47.7484,1032,38.5,1032.0983,38.5407,1032.3283,38.2218,1032.1474,37.7326,1032.4098,37.4271,1032.6246,37.1019,1032.7322,36.7322,1032.8154,36.9329,1033.0853,36.5845,1033.4983,36.5818,1033.7223,36.1223,1034.0601,35.9379,1034.5,36" style="stroke:#181818;stroke-width:0.5;"/><text fill="#000000" font-family="FG Virgil" font-size="14" font-style="italic" lengthAdjust="spacing" textLength="60" x="1051.5" y="58.1074">&#171;service&#187;</text><text fill="#000000" font-family="FG Virgil" font-size="14" lengthAdjust="spacing" textLength="85" x="1039" y="76.7285">BoardService</text><polygon fill="#E3E3E3" points="1034.5,750.3535,1034.5,750.5637,1044.9444,749.9392,1055.3889,750.5468,1065.8333,750.7532,1076.2778,749.6401,1086.7222,750.2758,1097.1667,749.927,1107.6111,749.97,1118.0556,750.2854,1128.5,750.3535,1128.4118,750.1406,1128.9242,750.6705,1129.1267,750.4523,1129.5354,750.732,1129.9693,751.0723,1130.2678,751.0857,1130.2414,751.0748,1130.4352,751.448,1130.5508,751.7888,1130.7621,752.1692,1130.9272,752.5305,1131,752.8535,1131.5857,752.8535,1131.6711,762.102,1131.6793,771.3504,1131.2546,780.5988,1131.4636,789.8473,1131,799.0957,1131.2163,799.1853,1130.6315,799.3573,1130.9161,799.8894,1130.4693,800.1185,1130.5786,800.578,1130.2678,800.8635,1130.2046,800.711,1129.9055,800.9888,1129.6553,801.3847,1129.2009,801.2878,1128.867,801.4817,1128.5,801.5957,1128.5,801.9343,1118.0556,802.0119,1107.6111,801.5918,1097.1667,801.8829,1086.7222,801.0233,1076.2778,801.8801,1065.8333,802.1439,1055.3889,802.0402,1044.9444,802.2087,1034.5,801.5957,1034.4384,801.4469,1034.0633,801.2484,1033.7136,801.1114,1033.4318,801.1382,1033.0607,800.9494,1032.7322,800.8635,1032.9421,800.9504,1032.532,800.4876,1032.3337,800.1126,1032.3632,799.8319,1031.9411,799.3642,1032,799.0957,1031.4809,799.0957,1032.649,789.8473,1032.4357,780.5988,1032.7345,771.3504,1031.6782,762.102,1032,752.8535,1032.0983,752.8942,1032.3283,752.5753,1032.1474,752.0861,1032.4098,751.7806,1032.6246,751.4554,1032.7322,751.0857,1032.8154,751.2865,1033.0853,750.938,1033.4983,750.9353,1033.7223,750.4759,1034.0601,750.2914,1034.5,750.3535" style="stroke:#181818;stroke-width:0.5;"/><text fill="#000000" font-family="FG Virgil" font-size="14" font-style="italic" lengthAdjust="spacing" textLength="60" x="1051.5" y="772.4609">&#171;service&#187;</text><text fill="#000000" font-family="FG Virgil" font-size="14" lengthAdjust="spacing" textLength="85" x="1039" y="791.082">BoardService</text><polygon fill="#E3E3E3" points="1143.5,54.6211,1143.5,54.8313,1153.0833,54.2068,1162.6667,54.8144,1172.25,55.0208,1181.8333,53.9077,1191.4167,54.5434,1201,54.1946,1210.5833,54.2376,1220.1667,54.5529,1229.75,53.9297,1239.3333,55.1747,1248.9167,53.9908,1258.5,54.6211,1258.4748,54.5602,1258.9087,54.9006,1259.1962,54.8876,1259.5694,55.0814,1259.9101,55.197,1260.2678,55.3533,1260.3227,55.3761,1260.4879,55.7374,1260.741,56.1351,1260.9138,56.4996,1261.0627,56.8542,1261,57.1211,1261.0849,57.1211,1261.1545,62.6453,1261.2341,68.1695,1260.7596,73.6938,1261.2262,79.218,1261,84.7422,1260.9087,84.7044,1261.0179,85.1638,1260.5547,85.3861,1260.5396,85.7941,1260.6426,86.251,1260.2678,86.51,1260.2616,86.4949,1259.9276,86.6888,1259.6039,86.9071,1259.2602,87.0775,1258.8531,87.0945,1258.5,87.2422,1258.5,87.5294,1248.9167,86.6698,1239.3333,87.5266,1229.75,87.7904,1220.1667,87.6867,1210.5833,87.8552,1201,86.7591,1191.4167,86.59,1181.8333,86.6208,1172.25,87.1833,1162.6667,87.0457,1153.0833,87.9236,1143.5,87.2422,1143.4777,87.1884,1143.1027,86.9901,1142.822,87.0196,1142.3543,86.5975,1142.0196,86.4965,1141.7322,86.51,1141.9321,86.5927,1141.72,86.212,1141.6655,85.8965,1141.1938,85.4082,1141.2447,85.1365,1141,84.7422,1141.1968,84.7422,1140.8425,79.218,1140.968,73.6938,1141.042,68.1695,1141.2173,62.6453,1141,57.1211,1140.9987,57.1206,1141.2889,56.8265,1141.1223,56.3433,1141.2308,55.974,1141.7409,55.7711,1141.7322,55.3533,1141.6408,55.1325,1142.1507,55.3636,1142.4657,55.1241,1142.7587,54.8315,1143.1013,54.6586,1143.5,54.6211" style="stroke:#181818;stroke-width:0.5;"/><text fill="#000000" font-family="FG Virgil" font-size="14" lengthAdjust="spacing" textLength="106" x="1148" y="76.7285">SessionManager</text><polygon fill="#E3E3E3" points="1143.5,750.3535,1143.5,750.5637,1153.0833,749.9392,1162.6667,750.5468,1172.25,750.7532,1181.8333,749.6401,1191.4167,750.2758,1201,749.927,1210.5833,749.97,1220.1667,750.2854,1229.75,749.6621,1239.3333,750.9072,1248.9167,749.7232,1258.5,750.3535,1258.4748,750.2926,1258.9087,750.633,1259.1962,750.62,1259.5694,750.8139,1259.9101,750.9295,1260.2678,751.0857,1260.3227,751.1085,1260.4879,751.4698,1260.741,751.8676,1260.9138,752.232,1261.0627,752.5866,1261,752.8535,1261.0849,752.8535,1261.1545,758.3777,1261.2341,763.902,1260.7596,769.4262,1261.2262,774.9504,1261,780.4746,1260.9087,780.4368,1261.0179,780.8963,1260.5547,781.1186,1260.5396,781.5265,1260.6426,781.9834,1260.2678,782.2424,1260.2616,782.2274,1259.9276,782.4213,1259.6039,782.6396,1259.2602,782.8099,1258.8531,782.827,1258.5,782.9746,1258.5,783.2618,1248.9167,782.4022,1239.3333,783.259,1229.75,783.5228,1220.1667,783.4191,1210.5833,783.5876,1201,782.4915,1191.4167,782.3224,1181.8333,782.3532,1172.25,782.9157,1162.6667,782.7781,1153.0833,783.656,1143.5,782.9746,1143.4777,782.9208,1143.1027,782.7225,1142.822,782.752,1142.3543,782.3299,1142.0196,782.229,1141.7322,782.2424,1141.9321,782.3252,1141.72,781.9444,1141.6655,781.629,1141.1938,781.1407,1141.2447,780.8689,1141,780.4746,1141.1968,780.4746,1140.8425,774.9504,1140.968,769.4262,1141.042,763.902,1141.2173,758.3777,1141,752.8535,1140.9987,752.853,1141.2889,752.559,1141.1223,752.0758,1141.2308,751.7065,1141.7409,751.5035,1141.7322,751.0857,1141.6408,750.865,1142.1507,751.096,1142.4657,750.8565,1142.7587,750.5639,1143.1013,750.391,1143.5,750.3535" style="stroke:#181818;stroke-width:0.5;"/><text fill="#000000" font-family="FG Virgil" font-size="14" lengthAdjust="spacing" textLength="106" x="1148" y="772.4609">SessionManager</text><polygon fill="#E3E3E3" points="1382,54.6211,1382,54.8313,1391.4,54.2068,1400.8,54.8144,1410.2,55.0208,1419.6,53.9077,1429,54.6211,1428.9901,54.5972,1429.2991,54.6362,1429.6582,54.7959,1430.052,55.0394,1430.326,54.994,1430.7678,55.3533,1430.9383,55.4239,1430.7201,55.6265,1430.9998,56.0352,1431.3401,56.4691,1431.3271,56.7566,1431.5,57.1211,1431.5227,57.1211,1431.4894,62.6453,1431.5595,68.1695,1431.5797,73.6938,1431.6952,79.218,1431.5,84.7422,1431.7067,84.8278,1431.5627,85.1824,1431.2855,85.4818,1431.2034,85.862,1431.1305,86.246,1430.7678,86.51,1430.6758,86.2879,1430.5008,86.8654,1430.0228,86.7115,1429.7752,87.1137,1429.2904,86.9433,1429,87.2422,1429,87.1737,1419.6,87.9838,1410.2,87.1935,1400.8,87.3475,1391.4,87.5808,1382,87.2422,1382.0531,87.3704,1381.6459,87.0945,1381.3295,87.0377,1380.8663,86.6266,1380.6221,86.744,1380.2322,86.51,1380.4011,86.5799,1380.2227,86.2131,1380.1281,85.881,1379.6441,85.3877,1379.4456,85.0125,1379.5,84.7422,1379.2929,84.7422,1379.4804,79.218,1379.4345,73.6938,1379.7271,68.1695,1379.4418,62.6453,1379.5,57.1211,1379.3944,57.0773,1379.7167,56.7967,1379.5875,56.3289,1379.7795,55.9942,1380.2856,55.7897,1380.2322,55.3533,1380.2878,55.4875,1380.6795,55.4331,1380.8983,54.9613,1381.3336,55.0123,1381.7218,54.9494,1382,54.6211" style="stroke:#181818;stroke-width:0.5;"/><text fill="#000000" font-family="FG Virgil" font-size="14" lengthAdjust="spacing" textLength="38" x="1386.5" y="76.7285">Board</text><polygon fill="#E3E3E3" points="1382,750.3535,1382,750.5637,1391.4,749.9392,1400.8,750.5468,1410.2,750.7532,1419.6,749.6401,1429,750.3535,1428.9901,750.3296,1429.2991,750.3686,1429.6582,750.5283,1430.052,750.7719,1430.326,750.7264,1430.7678,751.0857,1430.9383,751.1564,1430.7201,751.3589,1430.9998,751.7676,1431.3401,752.2015,1431.3271,752.489,1431.5,752.8535,1431.5227,752.8535,1431.4894,758.3777,1431.5595,763.902,1431.5797,769.4262,1431.6952,774.9504,1431.5,780.4746,1431.7067,780.5602,1431.5627,780.9148,1431.2855,781.2142,1431.2034,781.5944,1431.1305,781.9784,1430.7678,782.2424,1430.6758,782.0203,1430.5008,782.5978,1430.0228,782.444,1429.7752,782.8461,1429.2904,782.6757,1429,782.9746,1429,782.9061,1419.6,783.7162,1410.2,782.9259,1400.8,783.0799,1391.4,783.3132,1382,782.9746,1382.0531,783.1028,1381.6459,782.827,1381.3295,782.7702,1380.8663,782.359,1380.6221,782.4764,1380.2322,782.2424,1380.4011,782.3123,1380.2227,781.9455,1380.1281,781.6135,1379.6441,781.1201,1379.4456,780.745,1379.5,780.4746,1379.2929,780.4746,1379.4804,774.9504,1379.4345,769.4262,1379.7271,763.902,1379.4418,758.3777,1379.5,752.8535,1379.3944,752.8098,1379.7167,752.5291,1379.5875,752.0613,1379.7795,751.7266,1380.2856,751.5221,1380.2322,751.0857,1380.2878,751.2199,1380.6795,751.1655,1380.8983,750.6938,1381.3336,750.7447,1381.7218,750.6818,1382,750.3535" style="stroke:#181818;stroke-width:0.5;"/><text fill="#000000" font-family="FG Virgil" font-size="14" lengthAdjust="spacing" textLength="38" x="1386.5" y="772.4609">Board</text><polygon fill="#E3E3E3" points="1444,54.6211,1444,54.8313,1453.5833,54.2068,1463.1667,54.8144,1472.75,55.0208,1482.3333,53.9077,1491.9167,54.5434,1501.5,54.1946,1511.0833,54.2376,1520.6667,54.5529,1530.25,53.9297,1539.8333,55.1747,1549.4167,53.9908,1559,54.6211,1558.9748,54.5602,1559.4087,54.9006,1559.6962,54.8876,1560.0694,55.0814,1560.4101,55.197,1560.7678,55.3533,1560.8227,55.3761,1560.9879,55.7374,1561.241,56.1351,1561.4138,56.4996,1561.5627,56.8542,1561.5,57.1211,1561.5849,57.1211,1561.6545,62.6453,1561.7341,68.1695,1561.2596,73.6938,1561.7262,79.218,1561.5,84.7422,1561.4087,84.7044,1561.5179,85.1638,1561.0547,85.3861,1561.0396,85.7941,1561.1426,86.251,1560.7678,86.51,1560.7616,86.4949,1560.4276,86.6888,1560.1039,86.9071,1559.7602,87.0775,1559.3531,87.0945,1559,87.2422,1559,87.5294,1549.4167,86.6698,1539.8333,87.5266,1530.25,87.7904,1520.6667,87.6867,1511.0833,87.8552,1501.5,86.7591,1491.9167,86.59,1482.3333,86.6208,1472.75,87.1833,1463.1667,87.0457,1453.5833,87.9236,1444,87.2422,1443.9777,87.1884,1443.6027,86.9901,1443.322,87.0196,1442.8543,86.5975,1442.5196,86.4965,1442.2322,86.51,1442.4321,86.5927,1442.22,86.212,1442.1655,85.8965,1441.6938,85.4082,1441.7447,85.1365,1441.5,84.7422,1441.6968,84.7422,1441.3425,79.218,1441.468,73.6938,1441.542,68.1695,1441.7173,62.6453,1441.5,57.1211,1441.4987,57.1206,1441.7889,56.8265,1441.6223,56.3433,1441.7308,55.974,1442.2409,55.7711,1442.2322,55.3533,1442.1408,55.1325,1442.6507,55.3636,1442.9657,55.1241,1443.2587,54.8315,1443.6013,54.6586,1444,54.6211" style="stroke:#181818;stroke-width:0.5;"/><text fill="#000000" font-family="FG Virgil" font-size="14" lengthAdjust="spacing" textLength="106" x="1448.5" y="76.7285">BoardRepository</text><polygon fill="#E3E3E3" points="1444,750.3535,1444,750.5637,1453.5833,749.9392,1463.1667,750.5468,1472.75,750.7532,1482.3333,749.6401,1491.9167,750.2758,1501.5,749.927,1511.0833,749.97,1520.6667,750.2854,1530.25,749.6621,1539.8333,750.9072,1549.4167,749.7232,1559,750.3535,1558.9748,750.2926,1559.4087,750.633,1559.6962,750.62,1560.0694,750.8139,1560.4101,750.9295,1560.7678,751.0857,1560.8227,751.1085,1560.9879,751.4698,1561.241,751.8676,1561.4138,752.232,1561.5627,752.5866,1561.5,752.8535,1561.5849,752.8535,1561.6545,758.3777,1561.7341,763.902,1561.2596,769.4262,1561.7262,774.9504,1561.5,780.4746,1561.4087,780.4368,1561.5179,780.8963,1561.0547,781.1186,1561.0396,781.5265,1561.1426,781.9834,1560.7678,782.2424,1560.7616,782.2274,1560.4276,782.4213,1560.1039,782.6396,1559.7602,782.8099,1559.3531,782.827,1559,782.9746,1559,783.2618,1549.4167,782.4022,1539.8333,783.259,1530.25,783.5228,1520.6667,783.4191,1511.0833,783.5876,1501.5,782.4915,1491.9167,782.3224,1482.3333,782.3532,1472.75,782.9157,1463.1667,782.7781,1453.5833,783.656,1444,782.9746,1443.9777,782.9208,1443.6027,782.7225,1443.322,782.752,1442.8543,782.3299,1442.5196,782.229,1442.2322,782.2424,1442.4321,782.3252,1442.22,781.9444,1442.1655,781.629,1441.6938,781.1407,1441.7447,780.8689,1441.5,780.4746,1441.6968,780.4746,1441.3425,774.9504,1441.468,769.4262,1441.542,763.902,1441.7173,758.3777,1441.5,752.8535,1441.4987,752.853,1441.7889,752.559,1441.6223,752.0758,1441.7308,751.7065,1442.2409,751.5035,1442.2322,751.0857,1442.1408,750.865,1442.6507,751.096,1442.9657,750.8565,1443.2587,750.5639,1443.6013,750.391,1444,750.3535" style="stroke:#181818;stroke-width:0.5;"/><text fill="#000000" font-family="FG Virgil" font-size="14" lengthAdjust="spacing" textLength="106" x="1448.5" y="772.4609">BoardRepository</text><polygon fill="#FFFFFF" points="351.5,138.8242,351.5,138.8943,353.5,138.6861,355.5,138.8886,357.5,138.9574,359.5,138.5864,361.5,138.8242,361.4223,138.8242,361.0735,148.901,361.1165,158.9778,361.4318,169.0545,360.8086,179.1313,362.0536,189.2081,360.8697,199.2848,361.3022,209.3616,361.9319,219.4384,361.4142,229.5151,361.5682,239.5919,361.4681,249.6687,361.6785,259.7454,361.7391,269.8222,362.0857,279.899,362.1711,289.9757,362.1793,300.0525,361.7546,310.1293,361.9636,320.206,362.2022,330.2828,360.7788,340.3596,362.1785,350.4363,361.2035,360.5131,362.0338,370.5899,361.005,380.6666,361.4315,390.7434,362.2416,400.8202,361.4513,410.8969,361.6053,420.9737,361.8386,431.0505,361.9162,441.1273,361.4961,451.204,361.7872,461.2808,360.9276,471.3576,361.7844,481.4343,362.0482,491.5111,361.9445,501.5879,362.113,511.6646,361.0169,521.7414,360.8478,531.8182,360.8786,541.8949,361.4411,551.9717,361.3035,562.0485,362.1814,572.1252,361.3253,582.202,361.1569,592.2788,361.7283,602.3555,360.8332,612.4323,360.9809,622.5091,362.149,632.5858,361.9357,642.6626,362.2345,652.7394,361.1782,662.8161,361.8192,672.8929,362.0904,682.9697,361.0276,693.0464,361.4041,703.1232,361.626,713.2,362.1518,723.2767,361.5,733.3535,361.5,733.3521,359.5,733.5077,357.5,733.1689,355.5,733.1278,353.5,733.5214,351.5,733.3535,350.7831,733.3535,352.009,723.2767,351.7066,713.2,351.2321,703.1232,351.1462,693.0464,351.9588,682.9697,351.2007,672.8929,352.0919,662.8161,350.9473,652.7394,352.1174,642.6626,351.9843,632.5858,351.745,622.5091,351.5472,612.4323,352.2266,602.3555,352.1136,592.2788,351.6693,582.202,351.7682,572.1252,351.3697,562.0485,352.2165,551.9717,351.6549,541.8949,351.6726,531.8182,350.8916,521.7414,351.0948,511.6646,352.0307,501.5879,351.9298,491.5111,351.4571,481.4343,351.1778,471.3576,351.2811,461.2808,350.8138,451.204,351.9147,441.1273,352.2396,431.0505,352.0264,420.9737,352.1949,410.8969,351.3633,400.8202,351.5872,390.7434,351.1124,380.6666,351.784,370.5899,351.7468,360.5131,352.0524,350.4363,351.2703,340.3596,351.3656,330.2828,351.9435,320.206,352.0673,310.1293,350.9875,300.0525,351.3061,289.9757,351.6493,279.899,350.8892,269.8222,351.8534,259.7454,351.758,249.6687,351.3992,239.5919,351.6422,229.5151,352.2287,219.4384,351.1871,209.3616,351.815,199.2848,351.7856,189.2081,351.6158,179.1313,351.6409,169.0545,351.6135,158.9778,350.8758,148.901,351.5,138.8242" style="stroke:#181818;stroke-width:1.0;"/><polygon fill="#FFFFFF" points="752.5,170.1152,752.5,170.1853,754.5,169.9771,756.5,170.1797,758.5,170.2485,760.5,169.8774,762.5,170.1152,762.4223,170.1152,762.0735,180.152,762.1165,190.1887,762.4318,200.2255,761.8086,210.2622,763.0536,220.2989,761.8697,230.3357,762.3022,240.3724,762.9319,250.4092,762.4142,260.4459,762.5682,270.4826,762.4681,280.5194,762.6785,290.5561,762.7391,300.5929,763.0857,310.6296,763.1711,320.6663,763.1793,330.7031,762.7546,340.7398,762.9636,350.7766,763.2022,360.8133,761.7788,370.8501,763.1785,380.8868,762.2035,390.9235,763.0338,400.9603,762.005,410.997,762.4315,421.0338,763.2416,431.0705,762.4513,441.1072,762.6053,451.144,762.8386,461.1807,762.9162,471.2175,762.4961,481.2542,762.7872,491.2909,761.9276,501.3277,762.7844,511.3644,763.0482,521.4012,762.9445,531.4379,763.113,541.4746,762.0169,551.5114,761.8478,561.5481,761.8786,571.5849,762.4411,581.6216,762.3035,591.6584,763.1814,601.6951,762.3253,611.7318,762.1569,621.7686,762.7283,631.8053,761.8332,641.8421,761.9809,651.8788,763.149,661.9155,762.9357,671.9523,763.2345,681.989,762.1782,692.0258,762.5,702.0625,762.5,702.1689,760.5,702.2593,758.5,701.905,756.5,702.0305,754.5,702.1045,752.5,702.0625,753.1518,702.0625,752.4958,692.0258,752.9626,681.989,751.9462,671.9523,751.8227,661.9155,753.0036,651.8788,751.7831,641.8421,753.009,631.8053,752.7066,621.7686,752.2321,611.7318,752.1462,601.6951,752.9588,591.6584,752.2007,581.6216,753.0919,571.5849,751.9473,561.5481,753.1174,551.5114,752.9843,541.4746,752.745,531.4379,752.5472,521.4012,753.2266,511.3644,753.1136,501.3277,752.6693,491.2909,752.7682,481.2542,752.3697,471.2175,753.2165,461.1807,752.6549,451.144,752.6726,441.1072,751.8916,431.0705,752.0948,421.0338,753.0307,410.997,752.9298,400.9603,752.4571,390.9235,752.1778,380.8868,752.2811,370.8501,751.8138,360.8133,752.9147,350.7766,753.2396,340.7398,753.0264,330.7031,753.1949,320.6663,752.3633,310.6296,752.5872,300.5929,752.1124,290.5561,752.784,280.5194,752.7468,270.4826,753.0524,260.4459,752.2703,250.4092,752.3656,240.3724,752.9435,230.3357,753.0673,220.2989,751.9875,210.2622,752.3061,200.2255,752.6493,190.1887,751.8892,180.152,752.5,170.1152" style="stroke:#181818;stroke-width:1.0;"/><polygon fill="#FFFFFF" points="894.5,263.9883,894.5,264.0583,896.5,263.8502,898.5,264.0527,900.5,264.1215,902.5,263.7505,904.5,263.9883,904.4741,263.9883,904.3578,270.2465,904.3722,276.5047,904.4773,282.7629,904.2695,289.0211,904.5,295.2793,904.5,295.4638,902.5,295.0692,900.5,295.2134,898.5,295.4233,896.5,295.2507,894.5,295.2793,894.5227,295.2793,894.4894,289.0211,894.5595,282.7629,894.5797,276.5047,894.6952,270.2465,894.5,263.9883" style="stroke:#181818;stroke-width:1.0;"/><polygon fill="#FFFFFF" points="1076.5,326.5703,1076.5,326.6404,1078.5,326.4322,1080.5,326.6347,1082.5,326.7035,1084.5,326.3325,1086.5,326.5703,1086.4741,326.5703,1086.3578,332.8285,1086.3722,339.0867,1086.4773,345.3449,1086.2695,351.6031,1086.5,357.8613,1086.5,358.0459,1084.5,357.6512,1082.5,357.7954,1080.5,358.0053,1078.5,357.8327,1076.5,357.8613,1076.5227,357.8613,1076.4894,351.6031,1076.5595,345.3449,1076.5797,339.0867,1076.6952,332.8285,1076.5,326.5703" style="stroke:#181818;stroke-width:1.0;"/><polygon fill="#FFFFFF" points="1076.5,389.1523,1076.5,389.2224,1078.5,389.0142,1080.5,389.2168,1082.5,389.2856,1084.5,388.9145,1086.5,389.1523,1086.4223,389.1523,1086.0735,399.2102,1086.1165,409.268,1086.4318,419.3258,1085.8086,429.3836,1087.0536,439.4415,1085.8697,449.4993,1086.3022,459.5571,1086.9319,469.615,1086.4142,479.6728,1086.5682,489.7306,1086.4681,499.7884,1086.6785,509.8463,1086.7391,519.9041,1087.0857,529.9619,1087.1711,540.0197,1087.1793,550.0776,1086.7546,560.1354,1086.9636,570.1932,1087.2022,580.251,1085.7788,590.3089,1087.1785,600.3667,1086.2035,610.4245,1087.0338,620.4824,1086.005,630.5402,1086.4315,640.598,1087.2416,650.6558,1086.4513,660.7137,1086.5,670.7715,1086.5,670.8066,1084.5,670.8844,1082.5,670.9102,1080.5,670.7702,1078.5,670.8672,1076.5,670.7715,1075.9276,670.7715,1076.7844,660.7137,1077.0482,650.6558,1076.9445,640.598,1077.113,630.5402,1076.0169,620.4824,1075.8478,610.4245,1075.8786,600.3667,1076.4411,590.3089,1076.3035,580.251,1077.1814,570.1932,1076.3253,560.1354,1076.1569,550.0776,1076.7283,540.0197,1075.8332,529.9619,1075.9809,519.9041,1077.149,509.8463,1076.9357,499.7884,1077.2345,489.7306,1076.1782,479.6728,1076.8192,469.615,1077.0904,459.5571,1076.0276,449.4993,1076.4041,439.4415,1076.626,429.3836,1077.1518,419.3258,1076.4958,409.268,1076.9626,399.2102,1076.5,389.1523" style="stroke:#181818;stroke-width:1.0;"/><polygon fill="#FFFFFF" points="1196,201.4063,1196,201.4763,1198,201.2681,1200,201.4707,1202,201.5395,1204,201.1685,1206,201.4063,1205.9741,201.4063,1205.8578,207.6645,1205.8722,213.9227,1205.9773,220.1809,1205.7695,226.4391,1206,232.6973,1206,232.8818,1204,232.4872,1202,232.6313,1200,232.8412,1198,232.6687,1196,232.6973,1196.0227,232.6973,1195.9894,226.4391,1196.0595,220.1809,1196.0797,213.9227,1196.1952,207.6645,1196,201.4063" style="stroke:#181818;stroke-width:1.0;"/><polygon fill="#FFFFFF" points="1400.5,420.4434,1400.5,420.5134,1402.5,420.3053,1404.5,420.5078,1406.5,420.5766,1408.5,420.2056,1410.5,420.4434,1410.4741,420.4434,1410.3578,426.7016,1410.3722,432.9598,1410.4773,439.218,1410.2695,445.4762,1410.5,451.7344,1410.5,451.9189,1408.5,451.5243,1406.5,451.6685,1404.5,451.8784,1402.5,451.7058,1400.5,451.7344,1400.5227,451.7344,1400.4894,445.4762,1400.5595,439.218,1400.5797,432.9598,1400.6952,426.7016,1400.5,420.4434" style="stroke:#181818;stroke-width:1.0;"/><polygon fill="#FFFFFF" points="1400.5,483.0254,1400.5,483.0955,1402.5,482.8873,1404.5,483.0898,1406.5,483.1586,1408.5,482.7876,1410.5,483.0254,1410.4741,483.0254,1410.3578,489.2836,1410.3722,495.5418,1410.4773,501.8,1410.2695,508.0582,1410.5,514.3164,1410.5,514.501,1408.5,514.1063,1406.5,514.2505,1404.5,514.4604,1402.5,514.2878,1400.5,514.3164,1400.5227,514.3164,1400.4894,508.0582,1400.5595,501.8,1400.5797,495.5418,1400.6952,489.2836,1400.5,483.0254" style="stroke:#181818;stroke-width:1.0;"/><polygon fill="#FFFFFF" points="1400.5,545.6074,1400.5,545.6775,1402.5,545.4693,1404.5,545.6719,1406.5,545.7406,1408.5,545.3696,1410.5,545.6074,1410.4741,545.6074,1410.3578,551.8656,1410.3722,558.1238,1410.4773,564.382,1410.2695,570.6402,1410.5,576.8984,1410.5,577.083,1408.5,576.6883,1406.5,576.8325,1404.5,577.0424,1402.5,576.8698,1400.5,576.8984,1400.5227,576.8984,1400.4894,570.6402,1400.5595,564.382,1400.5797,558.1238,1400.6952,551.8656,1400.5,545.6074" style="stroke:#181818;stroke-width:1.0;"/><polygon fill="#FFFFFF" points="1496.5,608.1895,1496.5,608.2595,1498.5,608.0513,1500.5,608.2539,1502.5,608.3227,1504.5,607.9517,1506.5,608.1895,1506.4741,608.1895,1506.3578,614.4477,1506.3722,620.7059,1506.4773,626.9641,1506.2695,633.2223,1506.5,639.4805,1506.5,639.665,1504.5,639.2704,1502.5,639.4145,1500.5,639.6245,1498.5,639.4519,1496.5,639.4805,1496.5227,639.4805,1496.4894,633.2223,1496.5595,626.9641,1496.5797,620.7059,1496.6952,614.4477,1496.5,608.1895" style="stroke:#181818;stroke-width:1.0;"/><polygon fill="#181818" points="339.5,134.8242,339.526,134.8893,341.4487,135.496,343.5239,136.484,345.5495,137.3479,347.4117,137.8034,349.5,138.8242,349.4904,138.8002,347.4472,139.4922,345.4525,140.3055,343.4916,141.2031,341.4144,141.8102,339.5,142.8242,339.6305,142.9547,340.1514,141.8757,341.0534,141.1776,342.0018,140.526,342.6798,139.604,343.5,138.8242,343.5161,138.8403,342.6925,138.0167,341.9421,137.2663,341.1564,136.4806,340.438,135.7623,339.5,134.8242" style="stroke:#181818;stroke-width:1.0;"/><path d="M22.5,138.8242 L22.5,139.1045 L32.5938,138.2718 L42.6875,139.0819 L52.7813,139.3571 L62.875,137.873 L72.9688,138.7206 L83.0625,138.2556 L93.1563,138.3129 L103.25,138.7333 L113.3438,137.9024 L123.4375,139.5624 L133.5313,137.9838 L143.625,138.5605 L153.7188,139.4001 L163.8125,138.7098 L173.9063,138.9152 L184,138.7816 L194.0938,139.0623 L204.1875,139.1431 L214.2813,139.6051 L224.375,139.719 L234.4688,139.7299 L244.5625,139.1637 L254.6563,139.4423 L264.75,139.7605 L274.8438,137.8626 L284.9375,139.7289 L295.0313,138.4289 L305.125,139.536 L315.2188,138.1642 L325.3125,138.7329 L335.4063,139.813 L345.5,138.8242 " fill="none" style="stroke:#181818;stroke-width:1.0;stroke-dasharray:2.0,2.0;"/><text fill="#000000" font-family="FG Virgil" font-size="13" lengthAdjust="spacing" textLength="192" x="29.5" y="116.2705">Writes the email address and the</text><text fill="#000000" font-family="FG Virgil" font-size="13" lengthAdjust="spacing" textLength="310" x="29.5" y="133.5615">access level to be given and pushes the button to add</text><polygon fill="#181818" points="740.5,166.1152,740.526,166.1803,742.4487,166.787,744.5239,167.7751,746.5495,168.6389,748.4117,169.0944,750.5,170.1152,750.4904,170.0912,748.4472,170.7832,746.4525,171.5965,744.4916,172.4941,742.4144,173.1013,740.5,174.1152,740.6305,174.2457,741.1514,173.1667,742.0534,172.4686,743.0018,171.817,743.6798,170.895,744.5,170.1152,744.5161,170.1313,743.6925,169.3077,742.9421,168.5573,742.1564,167.7716,741.438,167.0533,740.5,166.1152" style="stroke:#181818;stroke-width:1.0;"/><path d="M361.5,170.1152 L361.5,170.3955 L371.3718,169.5628 L381.2436,170.3729 L391.1154,170.6481 L400.9872,169.164 L410.859,170.0116 L420.7308,169.5466 L430.6026,169.6039 L440.4744,170.0244 L450.3462,169.1934 L460.2179,170.8534 L470.0897,169.2749 L479.9615,169.8515 L489.8333,170.6912 L499.7051,170.0009 L509.5769,170.2062 L519.4487,170.0726 L529.3205,170.3533 L539.1923,170.4341 L549.0641,170.8962 L558.9359,171.01 L568.8077,171.0209 L578.6795,170.4547 L588.5513,170.7333 L598.4231,171.0515 L608.2949,169.1537 L618.1667,171.0199 L628.0385,169.7199 L637.9103,170.827 L647.7821,169.4552 L657.6538,170.0239 L667.5256,171.104 L677.3974,170.0503 L687.2692,170.2556 L697.141,170.5667 L707.0128,170.6702 L716.8846,170.11 L726.7564,170.4982 L736.6282,169.352 L746.5,170.1152 " fill="none" style="stroke:#181818;stroke-width:1.0;"/><text fill="#000000" font-family="FG Virgil" font-size="13" lengthAdjust="spacing" textLength="372" x="368.5" y="164.8525">shareBoard(boardId, userToBeAdded, boardOwner, accessLevel)</text><polygon fill="#181818" points="1184,197.4063,1184.026,197.4713,1185.9487,198.078,1188.0239,199.0661,1190.0495,199.9299,1191.9117,200.3855,1194,201.4063,1193.9904,201.3822,1191.9472,202.0743,1189.9525,202.8876,1187.9916,203.7852,1185.9144,204.3923,1184,205.4063,1184.1305,205.5367,1184.6514,204.4577,1185.5534,203.7596,1186.5018,203.1081,1187.1798,202.186,1188,201.4063,1188.0161,201.4223,1187.1925,200.5987,1186.4421,199.8483,1185.6564,199.0626,1184.938,198.3443,1184,197.4063" style="stroke:#181818;stroke-width:1.0;"/><path d="M762.5,201.4063 L762.5,201.6865 L772.4419,200.8538 L782.3837,201.664 L792.3256,201.9392 L802.2674,200.4551 L812.2093,201.3026 L822.1512,200.8376 L832.093,200.8949 L842.0349,201.3154 L851.9767,200.4844 L861.9186,202.1444 L871.8605,200.5659 L881.8023,201.1426 L891.7442,201.9822 L901.686,201.2919 L911.6279,201.4972 L921.5698,201.3637 L931.5116,201.6443 L941.4535,201.7251 L951.3953,202.1872 L961.3372,202.301 L971.2791,202.3119 L981.2209,201.7458 L991.1628,202.0244 L1001.1047,202.3426 L1011.0465,200.4447 L1020.9884,202.3109 L1030.9302,201.0109 L1040.8721,202.118 L1050.814,200.7462 L1060.7558,201.3149 L1070.6977,202.3951 L1080.6395,201.3413 L1090.5814,201.5467 L1100.5233,201.8578 L1110.4651,201.9612 L1120.407,201.401 L1130.3488,201.7892 L1140.2907,200.643 L1150.2326,201.7854 L1160.1744,202.1372 L1170.1163,201.999 L1180.0581,202.2236 L1190,201.4063 " fill="none" style="stroke:#181818;stroke-width:1.0;"/><text fill="#000000" font-family="FG Virgil" font-size="13" lengthAdjust="spacing" textLength="136" x="769.5" y="196.1436">getUserByToken(token)</text><polygon fill="#181818" points="773.5,228.6973,773.526,228.7623,771.4487,229.369,769.5239,230.3571,767.5495,231.221,765.4117,231.6765,763.5,232.6973,763.4904,232.6732,765.4472,233.3653,767.4525,234.1786,769.4916,235.0762,771.4144,235.6833,773.5,236.6973,773.6305,236.8278,772.5514,235.7487,771.8534,235.0507,771.2018,234.3991,770.2798,233.477,769.5,232.6973,769.5161,232.7133,770.2925,231.8897,771.1421,231.1393,771.9564,230.3536,772.838,229.6353,773.5,228.6973" style="stroke:#181818;stroke-width:1.0;"/><path d="M767.5,232.6973 L767.5,232.9775 L777.5581,232.1448 L787.6163,232.955 L797.6744,233.2302 L807.7326,231.7461 L817.7907,232.5936 L827.8488,232.1286 L837.907,232.1859 L847.9651,232.6064 L858.0233,231.7754 L868.0814,233.4355 L878.1395,231.8569 L888.1977,232.4336 L898.2558,233.2732 L908.314,232.5829 L918.3721,232.7883 L928.4302,232.6547 L938.4884,232.9353 L948.5465,233.0161 L958.6047,233.4782 L968.6628,233.592 L978.7209,233.6029 L988.7791,233.0368 L998.8372,233.3154 L1008.8953,233.6336 L1018.9535,231.7357 L1029.0116,233.6019 L1039.0698,232.3019 L1049.1279,233.409 L1059.186,232.0372 L1069.2442,232.6059 L1079.3023,233.6861 L1089.3605,232.6323 L1099.4186,232.8377 L1109.4767,233.1488 L1119.5349,233.2522 L1129.593,232.6921 L1139.6512,233.0802 L1149.7093,231.934 L1159.7674,233.0764 L1169.8256,233.4282 L1179.8837,233.29 L1189.9419,233.5146 L1200,232.6973 " fill="none" style="stroke:#181818;stroke-width:1.0;"/><text fill="#000000" font-family="FG Virgil" font-size="13" lengthAdjust="spacing" textLength="52" x="779.5" y="227.4346">authUser</text><polygon fill="#181818" points="882.5,259.9883,882.526,260.0533,884.4487,260.6601,886.5239,261.6481,888.5495,262.512,890.4117,262.9675,892.5,263.9883,892.4904,263.9642,890.4472,264.6563,888.4525,265.4696,886.4916,266.3672,884.4144,266.9743,882.5,267.9883,882.6305,268.1188,883.1514,267.0397,884.0534,266.3417,885.0018,265.6901,885.6798,264.7681,886.5,263.9883,886.5161,264.0044,885.6925,263.1808,884.9421,262.4304,884.1564,261.6446,883.438,260.9263,882.5,259.9883" style="stroke:#181818;stroke-width:1.0;"/><path d="M762.5,263.9883 L762.5,264.2685 L772.1923,263.4359 L781.8846,264.246 L791.5769,264.5212 L801.2692,263.0371 L810.9615,263.8847 L820.6538,263.4196 L830.3462,263.4769 L840.0385,263.8974 L849.7308,263.0665 L859.4231,264.7265 L869.1154,263.1479 L878.8077,263.7246 L888.5,263.9883 " fill="none" style="stroke:#181818;stroke-width:1.0;"/><text fill="#000000" font-family="FG Virgil" font-size="13" lengthAdjust="spacing" textLength="102" x="769.5" y="258.7256">ofIdentity(boardId)</text><polygon fill="#181818" points="773.5,291.2793,773.526,291.3443,771.4487,291.9511,769.5239,292.9391,767.5495,293.803,765.4117,294.2585,763.5,295.2793,763.4904,295.2552,765.4472,295.9473,767.4525,296.7606,769.4916,297.6582,771.4144,298.2653,773.5,299.2793,773.6305,299.4098,772.5514,298.3307,771.8534,297.6327,771.2018,296.9811,770.2798,296.0591,769.5,295.2793,769.5161,295.2954,770.2925,294.4718,771.1421,293.7214,771.9564,292.9357,772.838,292.2173,773.5,291.2793" style="stroke:#181818;stroke-width:1.0;"/><path d="M767.5,295.2793 L767.5,295.5595 L777.5769,294.7269 L787.6538,295.537 L797.7308,295.8122 L807.8077,294.3281 L817.8846,295.1757 L827.9615,294.7106 L838.0385,294.768 L848.1154,295.1884 L858.1923,294.3575 L868.2692,296.0175 L878.3462,294.4389 L888.4231,295.0156 L898.5,295.2793 " fill="none" style="stroke:#181818;stroke-width:1.0;"/><text fill="#000000" font-family="FG Virgil" font-size="13" lengthAdjust="spacing" textLength="32" x="779.5" y="290.0166">board</text><polygon fill="#181818" points="1064.5,322.5703,1064.526,322.6354,1066.4487,323.2421,1068.5239,324.2301,1070.5495,325.094,1072.4117,325.5495,1074.5,326.5703,1074.4904,326.5463,1072.4472,327.2383,1070.4525,328.0516,1068.4916,328.9492,1066.4144,329.5563,1064.5,330.5703,1064.6305,330.7008,1065.1514,329.6218,1066.0534,328.9237,1067.0018,328.2721,1067.6798,327.3501,1068.5,326.5703,1068.5161,326.5864,1067.6925,325.7628,1066.9421,325.0124,1066.1564,324.2267,1065.438,323.5084,1064.5,322.5703" style="stroke:#181818;stroke-width:1.0;"/><path d="M762.5,326.5703 L762.5,326.8506 L772.4355,326.0179 L782.371,326.828 L792.3065,327.1032 L802.2419,325.6191 L812.1774,326.4667 L822.1129,326.0017 L832.0484,326.059 L841.9839,326.4794 L851.9194,325.6485 L861.8548,327.3085 L871.7903,325.7299 L881.7258,326.3066 L891.6613,327.1462 L901.5968,326.4559 L911.5323,326.6613 L921.4677,326.5277 L931.4032,326.8083 L941.3387,326.8892 L951.2742,327.3512 L961.2097,327.4651 L971.1452,327.476 L981.0806,326.9098 L991.0161,327.1884 L1000.9516,327.5066 L1010.8871,325.6087 L1020.8226,327.475 L1030.7581,326.175 L1040.6935,327.2821 L1050.629,325.9103 L1060.5645,326.479 L1070.5,326.5703 " fill="none" style="stroke:#181818;stroke-width:1.0;"/><text fill="#000000" font-family="FG Virgil" font-size="13" lengthAdjust="spacing" textLength="150" x="769.5" y="321.3076">confirmLevel(accessLevel)</text><polygon fill="#181818" points="773.5,353.8613,773.526,353.9264,771.4487,354.5331,769.5239,355.5211,767.5495,356.385,765.4117,356.8405,763.5,357.8613,763.4904,357.8373,765.4472,358.5293,767.4525,359.3426,769.4916,360.2402,771.4144,360.8474,773.5,361.8613,773.6305,361.9918,772.5514,360.9128,771.8534,360.2147,771.2018,359.5631,770.2798,358.6411,769.5,357.8613,769.5161,357.8774,770.2925,357.0538,771.1421,356.3034,771.9564,355.5177,772.838,354.7994,773.5,353.8613" style="stroke:#181818;stroke-width:1.0;"/><path d="M767.5,357.8613 L767.5,358.1416 L777.5968,357.3089 L787.6935,358.119 L797.7903,358.3942 L807.8871,356.9101 L817.9839,357.7577 L828.0806,357.2927 L838.1774,357.35 L848.2742,357.7705 L858.371,356.9395 L868.4677,358.5995 L878.5645,357.021 L888.6613,357.5976 L898.7581,358.4373 L908.8548,357.747 L918.9516,357.9523 L929.0484,357.8187 L939.1452,358.0994 L949.2419,358.1802 L959.3387,358.6422 L969.4355,358.7561 L979.5323,358.767 L989.629,358.2008 L999.7258,358.4794 L1009.8226,358.7976 L1019.9194,356.8997 L1030.0161,358.766 L1040.1129,357.466 L1050.2097,358.5731 L1060.3065,357.2013 L1070.4032,357.77 L1080.5,357.8613 " fill="none" style="stroke:#181818;stroke-width:1.0;"/><text fill="#000000" font-family="FG Virgil" font-size="13" lengthAdjust="spacing" textLength="73" x="779.5" y="352.5986">AccessLevel</text><polygon fill="#181818" points="1064.5,385.1523,1064.526,385.2174,1066.4487,385.8241,1068.5239,386.8122,1070.5495,387.676,1072.4117,388.1316,1074.5,389.1523,1074.4904,389.1283,1072.4472,389.8203,1070.4525,390.6337,1068.4916,391.5312,1066.4144,392.1384,1064.5,393.1523,1064.6305,393.2828,1065.1514,392.2038,1066.0534,391.5057,1067.0018,390.8542,1067.6798,389.9321,1068.5,389.1523,1068.5161,389.1684,1067.6925,388.3448,1066.9421,387.5944,1066.1564,386.8087,1065.438,386.0904,1064.5,385.1523" style="stroke:#181818;stroke-width:1.0;"/><path d="M762.5,389.1523 L762.5,389.4326 L772.4355,388.5999 L782.371,389.4101 L792.3065,389.6852 L802.2419,388.2012 L812.1774,389.0487 L822.1129,388.5837 L832.0484,388.641 L841.9839,389.0615 L851.9194,388.2305 L861.8548,389.8905 L871.7903,388.312 L881.7258,388.8887 L891.6613,389.7283 L901.5968,389.038 L911.5323,389.2433 L921.4677,389.1097 L931.4032,389.3904 L941.3387,389.4712 L951.2742,389.9333 L961.2097,390.0471 L971.1452,390.058 L981.0806,389.4918 L991.0161,389.7705 L1000.9516,390.0887 L1010.8871,388.1908 L1020.8226,390.057 L1030.7581,388.757 L1040.6935,389.8641 L1050.629,388.4923 L1060.5645,389.061 L1070.5,389.1523 " fill="none" style="stroke:#181818;stroke-width:1.0;"/><text fill="#000000" font-family="FG Virgil" font-size="13" lengthAdjust="spacing" textLength="295" x="769.5" y="383.8896">shareBoard(boardId, userToBeAdded, accessLevel)</text><polygon fill="#181818" points="1388.5,416.4434,1388.526,416.5084,1390.4487,417.1151,1392.5239,418.1032,1394.5495,418.9671,1396.4117,419.4226,1398.5,420.4434,1398.4904,420.4193,1396.4472,421.1114,1394.4525,421.9247,1392.4916,422.8223,1390.4144,423.4294,1388.5,424.4434,1388.6305,424.5739,1389.1514,423.4948,1390.0534,422.7967,1391.0018,422.1452,1391.6798,421.2231,1392.5,420.4434,1392.5161,420.4594,1391.6925,419.6358,1390.9421,418.8854,1390.1564,418.0997,1389.438,417.3814,1388.5,416.4434" style="stroke:#181818;stroke-width:1.0;"/><path d="M1086.5,420.4434 L1086.5,420.7236 L1096.4355,419.8909 L1106.371,420.7011 L1116.3065,420.9763 L1126.2419,419.4922 L1136.1774,420.3397 L1146.1129,419.8747 L1156.0484,419.932 L1165.9839,420.3525 L1175.9194,419.5215 L1185.8548,421.1815 L1195.7903,419.603 L1205.7258,420.1797 L1215.6613,421.0193 L1225.5968,420.329 L1235.5323,420.5343 L1245.4677,420.4008 L1255.4032,420.6814 L1265.3387,420.7622 L1275.2742,421.2243 L1285.2097,421.3381 L1295.1452,421.349 L1305.0806,420.7829 L1315.0161,421.0615 L1324.9516,421.3797 L1334.8871,419.4818 L1344.8226,421.348 L1354.7581,420.048 L1364.6935,421.1551 L1374.629,419.7833 L1384.5645,420.352 L1394.5,420.4434 " fill="none" style="stroke:#181818;stroke-width:1.0;"/><text fill="#000000" font-family="FG Virgil" font-size="13" lengthAdjust="spacing" textLength="292" x="1093.5" y="415.1807">userHasPermission(userToBeAdded, accessLevel)</text><polygon fill="#181818" points="1097.5,447.7344,1097.526,447.7994,1095.4487,448.4061,1093.5239,449.3942,1091.5495,450.2581,1089.4117,450.7136,1087.5,451.7344,1087.4904,451.7103,1089.4472,452.4024,1091.4525,453.2157,1093.4916,454.1133,1095.4144,454.7204,1097.5,455.7344,1097.6305,455.8649,1096.5514,454.7858,1095.8534,454.0878,1095.2018,453.4362,1094.2798,452.5142,1093.5,451.7344,1093.5161,451.7505,1094.2925,450.9268,1095.1421,450.1765,1095.9564,449.3907,1096.838,448.6724,1097.5,447.7344" style="stroke:#181818;stroke-width:1.0;"/><path d="M1091.5,451.7344 L1091.5,452.0146 L1101.5968,451.1819 L1111.6935,451.9921 L1121.7903,452.2673 L1131.8871,450.7832 L1141.9839,451.6308 L1152.0806,451.1657 L1162.1774,451.223 L1172.2742,451.6435 L1182.371,450.8125 L1192.4677,452.4726 L1202.5645,450.894 L1212.6613,451.4707 L1222.7581,452.3103 L1232.8548,451.62 L1242.9516,451.8254 L1253.0484,451.6918 L1263.1452,451.9724 L1273.2419,452.0532 L1283.3387,452.5153 L1293.4355,452.6291 L1303.5323,452.6401 L1313.629,452.0739 L1323.7258,452.3525 L1333.8226,452.6707 L1343.9194,450.7728 L1354.0161,452.6391 L1364.1129,451.339 L1374.2097,452.4461 L1384.3065,451.0743 L1394.4032,451.643 L1404.5,451.7344 " fill="none" style="stroke:#181818;stroke-width:1.0;"/><text fill="#000000" font-family="FG Virgil" font-size="13" lengthAdjust="spacing" textLength="45" x="1103.5" y="446.4717">boolean</text><polygon fill="#181818" points="1388.5,479.0254,1388.526,479.0904,1390.4487,479.6972,1392.5239,480.6852,1394.5495,481.5491,1396.4117,482.0046,1398.5,483.0254,1398.4904,483.0013,1396.4472,483.6934,1394.4525,484.5067,1392.4916,485.4043,1390.4144,486.0114,1388.5,487.0254,1388.6305,487.1559,1389.1514,486.0768,1390.0534,485.3788,1391.0018,484.7272,1391.6798,483.8052,1392.5,483.0254,1392.5161,483.0415,1391.6925,482.2179,1390.9421,481.4675,1390.1564,480.6818,1389.438,479.9634,1388.5,479.0254" style="stroke:#181818;stroke-width:1.0;"/><path d="M1086.5,483.0254 L1086.5,483.3056 L1096.4355,482.473 L1106.371,483.2831 L1116.3065,483.5583 L1126.2419,482.0742 L1136.1774,482.9218 L1146.1129,482.4567 L1156.0484,482.5141 L1165.9839,482.9345 L1175.9194,482.1036 L1185.8548,483.7636 L1195.7903,482.185 L1205.7258,482.7617 L1215.6613,483.6013 L1225.5968,482.911 L1235.5323,483.1164 L1245.4677,482.9828 L1255.4032,483.2634 L1265.3387,483.3442 L1275.2742,483.8063 L1285.2097,483.9201 L1295.1452,483.9311 L1305.0806,483.3649 L1315.0161,483.6435 L1324.9516,483.9617 L1334.8871,482.0638 L1344.8226,483.9301 L1354.7581,482.6301 L1364.6935,483.7371 L1374.629,482.3654 L1384.5645,482.9341 L1394.5,483.0254 " fill="none" style="stroke:#181818;stroke-width:1.0;"/><text fill="#000000" font-family="FG Virgil" font-size="13" lengthAdjust="spacing" textLength="295" x="1093.5" y="477.7627">userHasPermission(userToBeAdded, differentLevel)</text><polygon fill="#181818" points="1097.5,510.3164,1097.526,510.3815,1095.4487,510.9882,1093.5239,511.9762,1091.5495,512.8401,1089.4117,513.2956,1087.5,514.3164,1087.4904,514.2924,1089.4472,514.9844,1091.4525,515.7977,1093.4916,516.6953,1095.4144,517.3024,1097.5,518.3164,1097.6305,518.4469,1096.5514,517.3678,1095.8534,516.6698,1095.2018,516.0182,1094.2798,515.0962,1093.5,514.3164,1093.5161,514.3325,1094.2925,513.5089,1095.1421,512.7585,1095.9564,511.9728,1096.838,511.2545,1097.5,510.3164" style="stroke:#181818;stroke-width:1.0;"/><path d="M1091.5,514.3164 L1091.5,514.5966 L1101.5968,513.764 L1111.6935,514.5741 L1121.7903,514.8493 L1131.8871,513.3652 L1141.9839,514.2128 L1152.0806,513.7477 L1162.1774,513.8051 L1172.2742,514.2255 L1182.371,513.3946 L1192.4677,515.0546 L1202.5645,513.476 L1212.6613,514.0527 L1222.7581,514.8923 L1232.8548,514.202 L1242.9516,514.4074 L1253.0484,514.2738 L1263.1452,514.5544 L1273.2419,514.6353 L1283.3387,515.0973 L1293.4355,515.2111 L1303.5323,515.2221 L1313.629,514.6559 L1323.7258,514.9345 L1333.8226,515.2527 L1343.9194,513.3548 L1354.0161,515.2211 L1364.1129,513.9211 L1374.2097,515.0282 L1384.3065,513.6564 L1394.4032,514.2251 L1404.5,514.3164 " fill="none" style="stroke:#181818;stroke-width:1.0;"/><text fill="#000000" font-family="FG Virgil" font-size="13" lengthAdjust="spacing" textLength="45" x="1103.5" y="509.0537">boolean</text><polygon fill="#181818" points="1388.5,541.6074,1388.526,541.6725,1390.4487,542.2792,1392.5239,543.2672,1394.5495,544.1311,1396.4117,544.5866,1398.5,545.6074,1398.4904,545.5834,1396.4472,546.2754,1394.4525,547.0887,1392.4916,547.9863,1390.4144,548.5934,1388.5,549.6074,1388.6305,549.7379,1389.1514,548.6589,1390.0534,547.9608,1391.0018,547.3092,1391.6798,546.3872,1392.5,545.6074,1392.5161,545.6235,1391.6925,544.7999,1390.9421,544.0495,1390.1564,543.2638,1389.438,542.5455,1388.5,541.6074" style="stroke:#181818;stroke-width:1.0;"/><path d="M1086.5,545.6074 L1086.5,545.8877 L1096.4355,545.055 L1106.371,545.8651 L1116.3065,546.1403 L1126.2419,544.6562 L1136.1774,545.5038 L1146.1129,545.0388 L1156.0484,545.0961 L1165.9839,545.5165 L1175.9194,544.6856 L1185.8548,546.3456 L1195.7903,544.767 L1205.7258,545.3437 L1215.6613,546.1834 L1225.5968,545.4931 L1235.5323,545.6984 L1245.4677,545.5648 L1255.4032,545.8455 L1265.3387,545.9263 L1275.2742,546.3883 L1285.2097,546.5022 L1295.1452,546.5131 L1305.0806,545.9469 L1315.0161,546.2255 L1324.9516,546.5437 L1334.8871,544.6458 L1344.8226,546.5121 L1354.7581,545.2121 L1364.6935,546.3192 L1374.629,544.9474 L1384.5645,545.5161 L1394.5,545.6074 " fill="none" style="stroke:#181818;stroke-width:1.0;"/><text fill="#000000" font-family="FG Virgil" font-size="13" lengthAdjust="spacing" textLength="265" x="1093.5" y="540.3447">addPermission(userToBeAdded, accessLevel)</text><polygon fill="#181818" points="1097.5,572.8984,1097.526,572.9635,1095.4487,573.5702,1093.5239,574.5583,1091.5495,575.4221,1089.4117,575.8776,1087.5,576.8984,1087.4904,576.8744,1089.4472,577.5664,1091.4525,578.3797,1093.4916,579.2773,1095.4144,579.8845,1097.5,580.8984,1097.6305,581.0289,1096.5514,579.9499,1095.8534,579.2518,1095.2018,578.6002,1094.2798,577.6782,1093.5,576.8984,1093.5161,576.9145,1094.2925,576.0909,1095.1421,575.3405,1095.9564,574.5548,1096.838,573.8365,1097.5,572.8984" style="stroke:#181818;stroke-width:1.0;"/><path d="M1091.5,576.8984 L1091.5,577.1787 L1101.5968,576.346 L1111.6935,577.1562 L1121.7903,577.4313 L1131.8871,575.9472 L1141.9839,576.7948 L1152.0806,576.3298 L1162.1774,576.3871 L1172.2742,576.8076 L1182.371,575.9766 L1192.4677,577.6366 L1202.5645,576.0581 L1212.6613,576.6347 L1222.7581,577.4744 L1232.8548,576.7841 L1242.9516,576.9894 L1253.0484,576.8558 L1263.1452,577.1365 L1273.2419,577.2173 L1283.3387,577.6794 L1293.4355,577.7932 L1303.5323,577.8041 L1313.629,577.2379 L1323.7258,577.5166 L1333.8226,577.8347 L1343.9194,575.9369 L1354.0161,577.8031 L1364.1129,576.5031 L1374.2097,577.6102 L1384.3065,576.2384 L1394.4032,576.8071 L1404.5,576.8984 " fill="none" style="stroke:#181818;stroke-width:1.0;"/><text fill="#000000" font-family="FG Virgil" font-size="13" lengthAdjust="spacing" textLength="97" x="1103.5" y="571.6357">boardPermission</text><polygon fill="#181818" points="1484.5,604.1895,1484.526,604.2545,1486.4487,604.8612,1488.5239,605.8493,1490.5495,606.7132,1492.4117,607.1687,1494.5,608.1895,1494.4904,608.1654,1492.4472,608.8575,1490.4525,609.6708,1488.4916,610.5684,1486.4144,611.1755,1484.5,612.1895,1484.6305,612.3199,1485.1514,611.2409,1486.0534,610.5428,1487.0018,609.8913,1487.6798,608.9692,1488.5,608.1895,1488.5161,608.2055,1487.6925,607.3819,1486.9421,606.6315,1486.1564,605.8458,1485.438,605.1275,1484.5,604.1895" style="stroke:#181818;stroke-width:1.0;"/><path d="M1086.5,608.1895 L1086.5,608.4697 L1096.6,607.637 L1106.7,608.4472 L1116.8,608.7224 L1126.9,607.2383 L1137,608.0858 L1147.1,607.6208 L1157.2,607.6781 L1167.3,608.0986 L1177.4,607.2676 L1187.5,608.9276 L1197.6,607.3491 L1207.7,607.9258 L1217.8,608.7654 L1227.9,608.0751 L1238,608.2804 L1248.1,608.1469 L1258.2,608.4275 L1268.3,608.5083 L1278.4,608.9704 L1288.5,609.0842 L1298.6,609.0951 L1308.7,608.529 L1318.8,608.8076 L1328.9,609.1258 L1339,607.2279 L1349.1,609.0941 L1359.2,607.7941 L1369.3,608.9012 L1379.4,607.5294 L1389.5,608.0981 L1399.6,609.1783 L1409.7,608.1245 L1419.8,608.3299 L1429.9,608.641 L1440,608.7444 L1450.1,608.1842 L1460.2,608.5724 L1470.3,607.4262 L1480.4,608.5686 L1490.5,608.1895 " fill="none" style="stroke:#181818;stroke-width:1.0;"/><text fill="#000000" font-family="FG Virgil" font-size="13" lengthAdjust="spacing" textLength="68" x="1093.5" y="602.9268">save(Board)</text><polygon fill="#181818" points="1097.5,635.4805,1097.526,635.5455,1095.4487,636.1522,1093.5239,637.1403,1091.5495,638.0042,1089.4117,638.4597,1087.5,639.4805,1087.4904,639.4564,1089.4472,640.1485,1091.4525,640.9618,1093.4916,641.8594,1095.4144,642.4665,1097.5,643.4805,1097.6305,643.611,1096.5514,642.5319,1095.8534,641.8339,1095.2018,641.1823,1094.2798,640.2603,1093.5,639.4805,1093.5161,639.4966,1094.2925,638.6729,1095.1421,637.9225,1095.9564,637.1368,1096.838,636.4185,1097.5,635.4805" style="stroke:#181818;stroke-width:1.0;"/><path d="M1091.5,639.4805 L1091.5,639.7607 L1101.4756,638.928 L1111.4512,639.7382 L1121.4268,640.0134 L1131.4024,638.5293 L1141.378,639.3769 L1151.3537,638.9118 L1161.3293,638.9691 L1171.3049,639.3896 L1181.2805,638.5586 L1191.2561,640.2187 L1201.2317,638.6401 L1211.2073,639.2168 L1221.1829,640.0564 L1231.1585,639.3661 L1241.1341,639.5715 L1251.1098,639.4379 L1261.0854,639.7185 L1271.061,639.7993 L1281.0366,640.2614 L1291.0122,640.3752 L1300.9878,640.3861 L1310.9634,639.82 L1320.939,640.0986 L1330.9146,640.4168 L1340.8902,638.5189 L1350.8659,640.3851 L1360.8415,639.0851 L1370.8171,640.1922 L1380.7927,638.8204 L1390.7683,639.3891 L1400.7439,640.4693 L1410.7195,639.4155 L1420.6951,639.6209 L1430.6707,639.932 L1440.6463,640.0354 L1450.622,639.4753 L1460.5976,639.8634 L1470.5732,638.7172 L1480.5488,639.8597 L1490.5244,640.2114 L1500.5,639.4805 " fill="none" style="stroke:#181818;stroke-width:1.0;"/><text fill="#000000" font-family="FG Virgil" font-size="13" lengthAdjust="spacing" textLength="32" x="1103.5" y="634.2178">board</text><polygon fill="#181818" points="773.5,666.7715,773.526,666.8365,771.4487,667.4433,769.5239,668.4313,767.5495,669.2952,765.4117,669.7507,763.5,670.7715,763.4904,670.7474,765.4472,671.4395,767.4525,672.2528,769.4916,673.1504,771.4144,673.7575,773.5,674.7715,773.6305,674.902,772.5514,673.8229,771.8534,673.1249,771.2018,672.4733,770.2798,671.5513,769.5,670.7715,769.5161,670.7876,770.2925,669.964,771.1421,669.2136,771.9564,668.4278,772.838,667.7095,773.5,666.7715" style="stroke:#181818;stroke-width:1.0;"/><path d="M767.5,670.7715 L767.5,671.0517 L777.5968,670.2191 L787.6935,671.0292 L797.7903,671.3044 L807.8871,669.8203 L817.9839,670.6679 L828.0806,670.2028 L838.1774,670.2602 L848.2742,670.6806 L858.371,669.8497 L868.4677,671.5097 L878.5645,669.9311 L888.6613,670.5078 L898.7581,671.3474 L908.8548,670.6571 L918.9516,670.8625 L929.0484,670.7289 L939.1452,671.0095 L949.2419,671.0903 L959.3387,671.5524 L969.4355,671.6662 L979.5323,671.6772 L989.629,671.111 L999.7258,671.3896 L1009.8226,671.7078 L1019.9194,669.8099 L1030.0161,671.6762 L1040.1129,670.3761 L1050.2097,671.4832 L1060.3065,670.1115 L1070.4032,670.6802 L1080.5,670.7715 " fill="none" style="stroke:#181818;stroke-width:1.0;"/><text fill="#000000" font-family="FG Virgil" font-size="13" lengthAdjust="spacing" textLength="97" x="779.5" y="665.5088">boardPermission</text><polygon fill="#181818" points="372.5,698.0625,372.526,698.1275,370.4487,698.7343,368.5239,699.7223,366.5495,700.5862,364.4117,701.0417,362.5,702.0625,362.4904,702.0384,364.4472,702.7305,366.4525,703.5438,368.4916,704.4414,370.4144,705.0485,372.5,706.0625,372.6305,706.193,371.5514,705.1139,370.8534,704.4159,370.2018,703.7643,369.2798,702.8423,368.5,702.0625,368.5161,702.0786,369.2925,701.255,370.1421,700.5046,370.9564,699.7189,371.838,699.0005,372.5,698.0625" style="stroke:#181818;stroke-width:1.0;"/><path d="M366.5,702.0625 L366.5,702.3427 L376.5,701.5101 L386.5,702.3202 L396.5,702.5954 L406.5,701.1113 L416.5,701.9589 L426.5,701.4938 L436.5,701.5512 L446.5,701.9716 L456.5,701.1407 L466.5,702.8007 L476.5,701.2221 L486.5,701.7988 L496.5,702.6384 L506.5,701.9481 L516.5,702.1535 L526.5,702.0199 L536.5,702.3005 L546.5,702.3813 L556.5,702.8434 L566.5,702.9572 L576.5,702.9682 L586.5,702.402 L596.5,702.6806 L606.5,702.9988 L616.5,701.1009 L626.5,702.9672 L636.5,701.6672 L646.5,702.7742 L656.5,701.4025 L666.5,701.9712 L676.5,703.0513 L686.5,701.9975 L696.5,702.2029 L706.5,702.514 L716.5,702.6175 L726.5,702.0573 L736.5,702.4455 L746.5,701.2993 L756.5,702.0625 " fill="none" style="stroke:#181818;stroke-width:1.0;"/><text fill="#000000" font-family="FG Virgil" font-size="13" lengthAdjust="spacing" textLength="97" x="378.5" y="696.7998">boardPermission</text><polygon fill="#181818" points="33.5,729.3535,33.526,729.4186,31.4487,730.0253,29.5239,731.0133,27.5495,731.8772,25.4117,732.3327,23.5,733.3535,23.4904,733.3295,25.4472,734.0215,27.4525,734.8348,29.4916,735.7324,31.4144,736.3395,33.5,737.3535,33.6305,737.484,32.5514,736.405,31.8534,735.7069,31.2018,735.0553,30.2798,734.1333,29.5,733.3535,29.5161,733.3696,30.2925,732.546,31.1421,731.7956,31.9564,731.0099,32.838,730.2916,33.5,729.3535" style="stroke:#181818;stroke-width:1.0;"/><path d="M27.5,733.3535 L27.5,733.6338 L37.4394,732.8011 L47.3788,733.6112 L57.3182,733.8864 L67.2576,732.4023 L77.197,733.2499 L87.1364,732.7849 L97.0758,732.8422 L107.0152,733.2626 L116.9545,732.4317 L126.8939,734.0917 L136.8333,732.5131 L146.7727,733.0898 L156.7121,733.9294 L166.6515,733.2391 L176.5909,733.4445 L186.5303,733.3109 L196.4697,733.5916 L206.4091,733.6724 L216.3485,734.1344 L226.2879,734.2483 L236.2273,734.2592 L246.1667,733.693 L256.1061,733.9716 L266.0455,734.2898 L275.9848,732.3919 L285.9242,734.2582 L295.8636,732.9582 L305.803,734.0653 L315.7424,732.6935 L325.6818,733.2622 L335.6212,734.3423 L345.5606,733.2885 L355.5,733.3535 " fill="none" style="stroke:#181818;stroke-width:1.0;stroke-dasharray:2.0,2.0;"/><text fill="#000000" font-family="FG Virgil" font-size="13" lengthAdjust="spacing" textLength="70" x="39.5" y="728.0908">confirmation</text><!--SRC=[jLLDRzim3BthL_2s56YRUs0KI0PqBR0lBDrssOMnc5YhB1aIdIp_VfASEBBJTiMm-M2O5D_ZuuVjDnLpCvjE6us6srfVbxQU-aTb6dHONrTSQz6RKA6HEwUOoG2xbhAZsXfRLixMD3vfi7p43IrvhmaSbPoTILfZg_dM6lw80Nhx3hufjr5vKb-Xj3jbDh16xKa8BDaw-Eh90NgOHqk4K5QbQa8LS1TAMfBRafl_n5ynfhEWA6Aru9DrSpC0BIjqjB3evDiWnbcjE_hCAWfi6grAP6LDW0k9Z2lq10dtXHhhLH2pZxZCAWhN6wEi2HZLgPAEGkDZKVZkAQOHgKIukhev53A3xs48v84h0gfHQK0f7NaFOK39-yDWMKQ7fYrfO0ihWetQXi75aARrrG6_QfcjYH618_PMRP7fa4d42y9rw62GS6h8B8xcqBJ9AjxlvIMqGVc3NT1SIWfcyd_Q6NANq4bw7nLTTBHzkXDhTv3tFTNjVMZw1pHXaqBY3N6S_sB_O1_9J3ZUBpfWpZg4zUT3zxWeRBcAv7sufES8nRdIqzndODVtaWmhtX_RSp6i-XIS_DdEZ3Gbk1Y9oT3YYOvrcpI3qfgrSdLg-sGmWc6hKhmup3f21ne2qVo45MTzwT02NX3oYcqPo3jZpuGbci0PyNVeFvEhLHhDv5MC2Iuwae76bRMQq8YijYxshv9BjLwJ2olmV_A75_OV5XvS9xPN2CYsDSmMjpH9xd6oR4l7i7C1Psdp7NzkBr-G_eUzx5-j33tQxF67wVWX30pfizo_N-cl8CR9oVq6]--></g></svg>