<?xml version="1.0" encoding="UTF-8" standalone="no"?><svg xmlns="http://www.w3.org/2000/svg" xmlns:xlink="http://www.w3.org/1999/xlink" contentStyleType="text/css" height="459px" preserveAspectRatio="none" style="width:372px;height:459px;background:#FFFFFF;" version="1.1" viewBox="0 0 372 459" width="372px" zoomAndPan="magnify"><defs/><g><!--MD5=[6d43018961f0c2285e4ded245ccac1bb]
class MainMenuUI--><g id="elem_MainMenuUI"><polygon fill="#F1F1F1" points="127,7,127,7.2102,137.1579,6.5857,147.3158,7.1933,157.4737,7.3997,167.6316,6.2866,177.7895,6.9223,187.9474,6.5735,198.1053,6.6165,208.2632,6.9318,218.4211,6.3086,228.5789,7.5536,238.7368,6.3697,248.8947,6.8022,259.0526,7.4319,269.2105,6.9142,279.3684,7.0682,289.5263,6.9681,299.6842,7.1785,309.8421,7.2391,320,7,320.0747,7.1804,320.4392,7.3531,320.7938,7.5021,321.0931,7.5178,321.4733,7.7286,321.7678,7.7322,321.984,7.8218,321.6921,7.9938,322.2696,8.5259,322.1158,8.7551,322.5179,9.2145,322.5,9.5,322.005,9.5,322.4315,19.3802,323.2416,29.2604,322.4513,39.1406,322.6053,49.0208,322.8386,58.901,322.9162,68.7813,322.4961,78.6615,322.7872,88.5417,322.5,98.4219,322.3237,98.3489,322.4411,98.8117,322.3759,99.1989,322.1976,99.5392,322.103,99.9143,321.7678,100.1896,321.7061,100.0409,321.331,100.1352,320.9814,100.2912,320.6996,100.6108,320.3285,100.7149,320,100.9219,320,101.6033,309.8421,100.7472,299.6842,100.5788,289.5263,101.1501,279.3684,100.255,269.2105,100.4027,259.0526,101.5708,248.8947,101.3575,238.7368,101.6564,228.5789,100.6001,218.4211,101.2411,208.2632,101.5123,198.1053,100.4495,187.9474,100.826,177.7895,101.0479,167.6316,101.5736,157.4737,100.9177,147.3158,101.3844,137.1579,100.3681,127,100.9219,126.9136,100.7133,126.7107,100.9305,126.2014,100.4082,126.0043,100.6393,125.6121,100.3997,125.2322,100.1896,125.1497,100.1555,124.9768,99.791,125.0806,99.5411,124.7007,99.0908,124.8287,98.8509,124.5,98.4219,123.9473,98.4219,125.1174,88.5417,124.9843,78.6615,124.745,68.7813,124.5472,58.901,125.2266,49.0208,125.1136,39.1406,124.6693,29.2604,124.7682,19.3802,124.5,9.5,124.4599,9.4834,124.8671,9.2378,124.8406,8.8126,124.9925,8.4614,124.8984,8.0082,125.2322,7.7322,125.1805,7.6074,125.6535,7.7492,125.9942,7.5717,126.2874,7.2797,126.6054,7.0472,127,7" style="stroke:#181818;stroke-width:0.5;"/><polygon fill="#C2C2C2" points="191.3108,31.0272,189.6984,33.2304,187.7912,36.4573,185.0636,38.632,182.1974,39.8212,179.912,39.9244,176.9747,38.4371,174.2032,37.4655,172.0995,35.4927,170.9961,33.2343,170.3417,31.4361,169.7006,29.0873,168.66,27.066,169.4596,25.0926,170.1602,22.9308,172.7893,21.221,174.639,19.0027,176.9284,18.266,179.6501,17.6316,183.1404,18.0085,185.0521,18.9101,187.2747,19.3188,189.9772,22.0875,190.9193,25.0105,191.3286,27.0049,190.865,30.2914" style="stroke:#181818;stroke-width:1.0;"/><path d="M183.0156,24.2266 Q183.1719,24.0078 183.3594,23.8984 Q183.5469,23.7891 183.7656,23.7891 Q184.1406,23.7891 184.375,24.0547 Q184.6094,24.3047 184.6094,24.9141 L184.6094,26.3672 Q184.6094,26.9766 184.375,27.2422 Q184.1406,27.5078 183.7656,27.5078 Q183.4219,27.5078 183.2188,27.3047 Q183.0156,27.1172 182.9063,26.6016 Q182.8594,26.2422 182.6719,26.0547 Q182.3438,25.6797 181.7344,25.4609 Q181.125,25.2422 180.5,25.2422 Q179.7344,25.2422 179.0938,25.5703 Q178.4688,25.8984 177.9688,26.6484 Q177.4844,27.3984 177.4844,28.4297 L177.4844,29.5234 Q177.4844,30.7578 178.375,31.5859 Q179.2656,32.3984 180.8594,32.3984 Q181.7969,32.3984 182.4531,32.1484 Q182.8438,31.9922 183.2656,31.5547 Q183.5313,31.2891 183.6719,31.2109 Q183.8281,31.1328 184.0313,31.1328 Q184.3594,31.1328 184.6094,31.3984 Q184.875,31.6484 184.875,31.9922 Q184.875,32.3359 184.5313,32.7422 Q184.0313,33.3203 183.2344,33.6484 Q182.1563,34.1016 180.8594,34.1016 Q179.3438,34.1016 178.1406,33.4766 Q177.1563,32.9766 176.4688,31.9141 Q175.7813,30.8359 175.7813,29.5547 L175.7813,28.3984 Q175.7813,27.0703 176.3906,25.9297 Q177.0156,24.7734 178.1094,24.1641 Q179.2031,23.5391 180.4375,23.5391 Q181.1719,23.5391 181.8125,23.7109 Q182.4688,23.8672 183.0156,24.2266 Z " fill="#000000"/><text fill="#000000" font-family="FG Virgil" font-size="12" font-style="italic" lengthAdjust="spacing" textLength="82" x="198.75" y="24.457">«presentation»</text><text fill="#000000" font-family="FG Virgil" font-size="14" lengthAdjust="spacing" textLength="77" x="201.25" y="41.627">MainMenuUI</text><path d="M125.5,49.7031 L125.5,49.9834 L135.3,49.1507 L145.1,49.9608 L154.9,50.236 L164.7,48.7519 L174.5,49.5995 L184.3,49.1345 L194.1,49.1918 L203.9,49.6122 L213.7,48.7813 L223.5,50.4413 L233.3,48.8628 L243.1,49.4394 L252.9,50.2791 L262.7,49.5888 L272.5,49.7941 L282.3,49.6605 L292.1,49.9412 L301.9,50.022 L311.7,50.484 L321.5,49.7031 " fill="#F1F1F1" style="stroke:#181818;stroke-width:0.5;"/><path d="M125.5,57.7031 L125.5,57.9834 L135.3,57.1507 L145.1,57.9608 L154.9,58.236 L164.7,56.7519 L174.5,57.5995 L184.3,57.1345 L194.1,57.1918 L203.9,57.6122 L213.7,56.7813 L223.5,58.4413 L233.3,56.8628 L243.1,57.4394 L252.9,58.2791 L262.7,57.5888 L272.5,57.7941 L282.3,57.6605 L292.1,57.9412 L301.9,58.022 L311.7,58.484 L321.5,57.7031 " fill="#F1F1F1" style="stroke:#181818;stroke-width:0.5;"/><text fill="#000000" font-family="FG Virgil" font-size="14" lengthAdjust="spacing" textLength="60" x="130.5" y="76.2363">doShow()</text><text fill="#000000" font-family="FG Virgil" font-size="14" lengthAdjust="spacing" textLength="186" x="130.5" y="93.8457">handleACK(int, String, String)</text></g><!--MD5=[dabedf5cdf168981fdfbd5ce4bd40f9f]
class SharedBoardAppController--><g id="elem_SharedBoardAppController"><polygon fill="#F1F1F1" points="46.5,179,46.5,179.2102,56.4,178.5857,66.3,179.1933,76.2,179.3997,86.1,178.2866,96,178.9223,105.9,178.5735,115.8,178.6165,125.7,178.9318,135.6,178.3086,145.5,179.5536,155.4,178.3697,165.3,178.8022,175.2,179.4319,185.1,178.9142,195,179.0682,204.9,178.9681,214.8,179.1785,224.7,179.2391,234.6,179.5857,244.5,179,244.5856,179.2067,244.9402,179.3556,245.2396,179.3713,245.6198,179.5821,246.0038,179.802,246.2678,179.7322,246.0457,179.6402,246.6232,180.1723,246.4693,180.4015,246.8715,180.861,246.7011,181.0833,247,181.5,246.9315,181.5,247.7416,191.1847,246.9513,200.8693,247.1053,210.554,247.3386,220.2386,247.4162,229.9233,246.9961,239.608,247.2872,249.2926,246.4276,258.9773,247.2844,268.6619,247.5482,278.3466,247,288.0313,247.1369,288.088,247.0423,288.463,246.5583,288.6767,246.3598,289.0087,246.2228,289.3662,246.2678,289.799,246.2603,289.7809,245.8891,289.8849,245.6476,290.3018,245.1848,290.1846,244.8098,290.2792,244.5,290.5313,244.5,290.7595,234.6,289.8644,224.7,290.0121,214.8,291.1802,204.9,290.9669,195,291.2657,185.1,290.2095,175.2,290.8504,165.3,291.1217,155.4,290.0588,145.5,290.4354,135.6,290.6572,125.7,291.183,115.8,290.5271,105.9,290.9938,96,289.9775,86.1,289.854,76.2,291.0349,66.3,289.8143,56.4,291.0402,46.5,290.5313,46.5264,290.5949,46.1123,290.3023,45.7478,290.1294,45.4979,290.2332,45.0476,289.8533,44.7322,289.799,44.9145,289.8745,44.4156,289.375,44.6295,289.1707,44.442,288.8001,44.2219,288.4161,44,288.0313,44.0472,288.0313,44.7266,278.3466,44.6136,268.6619,44.1693,258.9773,44.2682,249.2926,43.8697,239.608,44.7165,229.9233,44.1549,220.2386,44.1726,210.554,43.3916,200.8693,43.5948,191.1847,44,181.5,44.1634,181.5677,44.2788,181.2013,44.2797,180.7874,44.3401,180.3982,44.5184,180.0579,44.7322,179.7322,44.6447,179.5209,45.1387,179.7135,45.5337,179.6671,45.86,179.455,46.2351,179.3605,46.5,179" style="stroke:#181818;stroke-width:0.5;"/><polygon fill="#C2C2C2" points="70.0608,203.0272,68.4484,205.2304,66.5412,208.4573,63.8136,210.632,60.9474,211.8212,58.662,211.9244,55.7247,210.4371,52.9532,209.4655,50.8495,207.4927,49.7461,205.2343,49.0917,203.4361,48.4506,201.0873,47.41,199.066,48.2096,197.0926,48.9102,194.9308,51.5393,193.221,53.389,191.0027,55.6784,190.266,58.4001,189.6316,61.8904,190.0085,63.8021,190.9101,66.0247,191.3188,68.7272,194.0875,69.6693,197.0105,70.0786,199.0049,69.615,202.2914" style="stroke:#181818;stroke-width:1.0;"/><path d="M61.7656,196.2266 Q61.9219,196.0078 62.1094,195.8984 Q62.2969,195.7891 62.5156,195.7891 Q62.8906,195.7891 63.125,196.0547 Q63.3594,196.3047 63.3594,196.9141 L63.3594,198.3672 Q63.3594,198.9766 63.125,199.2422 Q62.8906,199.5078 62.5156,199.5078 Q62.1719,199.5078 61.9688,199.3047 Q61.7656,199.1172 61.6563,198.6016 Q61.6094,198.2422 61.4219,198.0547 Q61.0938,197.6797 60.4844,197.4609 Q59.875,197.2422 59.25,197.2422 Q58.4844,197.2422 57.8438,197.5703 Q57.2188,197.8984 56.7188,198.6484 Q56.2344,199.3984 56.2344,200.4297 L56.2344,201.5234 Q56.2344,202.7578 57.125,203.5859 Q58.0156,204.3984 59.6094,204.3984 Q60.5469,204.3984 61.2031,204.1484 Q61.5938,203.9922 62.0156,203.5547 Q62.2813,203.2891 62.4219,203.2109 Q62.5781,203.1328 62.7813,203.1328 Q63.1094,203.1328 63.3594,203.3984 Q63.625,203.6484 63.625,203.9922 Q63.625,204.3359 63.2813,204.7422 Q62.7813,205.3203 61.9844,205.6484 Q60.9063,206.1016 59.6094,206.1016 Q58.0938,206.1016 56.8906,205.4766 Q55.9063,204.9766 55.2188,203.9141 Q54.5313,202.8359 54.5313,201.5547 L54.5313,200.3984 Q54.5313,199.0703 55.1406,197.9297 Q55.7656,196.7734 56.8594,196.1641 Q57.9531,195.5391 59.1875,195.5391 Q59.9219,195.5391 60.5625,195.7109 Q61.2188,195.8672 61.7656,196.2266 Z " fill="#000000"/><text fill="#000000" font-family="FG Virgil" font-size="12" font-style="italic" lengthAdjust="spacing" textLength="74" x="121.5" y="196.457">«application»</text><text fill="#000000" font-family="FG Virgil" font-size="14" lengthAdjust="spacing" textLength="171" x="73" y="213.627">SharedBoardAppController</text><path d="M45,221.7031 L45,221.9834 L55.05,221.1507 L65.1,221.9608 L75.15,222.236 L85.2,220.7519 L95.25,221.5995 L105.3,221.1345 L115.35,221.1918 L125.4,221.6122 L135.45,220.7813 L145.5,222.4413 L155.55,220.8628 L165.6,221.4394 L175.65,222.2791 L185.7,221.5888 L195.75,221.7941 L205.8,221.6605 L215.85,221.9412 L225.9,222.022 L235.95,222.484 L246,221.7031 " fill="#F1F1F1" style="stroke:#181818;stroke-width:0.5;"/><path d="M45,229.7031 L45,229.9834 L55.05,229.1507 L65.1,229.9608 L75.15,230.236 L85.2,228.7519 L95.25,229.5995 L105.3,229.1345 L115.35,229.1918 L125.4,229.6122 L135.45,228.7813 L145.5,230.4413 L155.55,228.8628 L165.6,229.4394 L175.65,230.2791 L185.7,229.5888 L195.75,229.7941 L205.8,229.6605 L215.85,229.9412 L225.9,230.022 L235.95,230.484 L246,229.7031 " fill="#F1F1F1" style="stroke:#181818;stroke-width:0.5;"/><text fill="#000000" font-family="FG Virgil" font-size="14" lengthAdjust="spacing" textLength="166" x="50" y="248.2363">sendCommunicationTest()</text><text fill="#000000" font-family="FG Virgil" font-size="14" lengthAdjust="spacing" textLength="131" x="50" y="265.8457">sendEndOfSession()</text><text fill="#000000" font-family="FG Virgil" font-size="14" lengthAdjust="spacing" textLength="125" x="50" y="283.4551">authenticate(String)</text></g><!--MD5=[92647c934d57d7c4aec717906aa77541]
class MessageFormat--><g id="elem_MessageFormat"><polygon fill="#F1F1F1" points="9.5,369,9.5,369.2102,19.3947,368.5857,29.2895,369.1933,39.1842,369.3997,49.0789,368.2866,58.9737,368.9223,68.8684,368.5735,78.7632,368.6165,88.6579,368.9318,98.5526,368.3086,108.4474,369.5536,118.3421,368.3697,128.2368,368.8022,138.1316,369.4319,148.0263,368.9142,157.9211,369.0682,167.8158,368.9681,177.7105,369.1785,187.6053,369.2391,197.5,369,197.5747,369.1804,197.9392,369.3531,198.2938,369.5021,198.5931,369.5178,198.9733,369.7286,199.2678,369.7322,199.484,369.8218,199.1921,369.9938,199.7696,370.5259,199.6158,370.7551,200.0179,371.2145,200,371.5,199.505,371.5,199.9315,381.2773,200.7416,391.0547,199.9513,400.832,200.1053,410.6094,200.3386,420.3867,200.4162,430.1641,199.9961,439.9414,200,449.7188,200.0885,449.7554,199.6773,449.9993,199.7947,450.4621,199.7295,450.8493,199.5511,451.1897,199.2678,451.4865,199.346,451.6753,198.8526,451.4842,198.4775,451.5786,198.1278,451.7345,197.846,452.0542,197.5,452.2188,197.5,452.0222,187.6053,452.9002,177.7105,452.0441,167.8158,451.8757,157.9211,452.447,148.0263,451.5519,138.1316,451.6996,128.2368,452.8677,118.3421,452.6544,108.4474,452.9532,98.5526,451.897,88.6579,452.5379,78.7632,452.8092,68.8684,451.7463,58.9737,452.1229,49.0789,452.3447,39.1842,452.8705,29.2895,452.2146,19.3947,452.6813,9.5,452.2188,9.4294,452.0482,9.0601,451.8637,8.8571,452.0809,8.3479,451.5586,8.1507,451.7897,7.7322,451.4865,7.7959,451.5129,7.5033,451.0988,7.3304,450.7343,7.4342,450.4844,7.0543,450.0341,7,449.7188,7.5919,449.7188,6.4473,439.9414,7.6174,430.1641,7.4843,420.3867,7.245,410.6094,7.0472,400.832,7.7266,391.0547,7.6136,381.2773,7,371.5,7.0521,371.5216,7.229,371.1807,7.2528,370.7763,7.66,370.5307,7.6335,370.1055,7.7322,369.7322,7.7542,369.7854,8.0082,369.3984,8.3876,369.3145,8.8606,369.4563,9.2013,369.2788,9.5,369" style="stroke:#181818;stroke-width:0.5;"/><polygon fill="#C2C2C2" points="59.6108,387.6756,57.9984,389.8788,56.0912,393.1057,53.3636,395.2804,50.4974,396.4696,48.212,396.5728,45.2747,395.0855,42.5032,394.1139,40.3995,392.1412,39.2961,389.8828,38.6417,388.0845,38.0006,385.7357,36.96,383.7145,37.7596,381.741,38.4602,379.5792,41.0893,377.8695,42.939,375.6511,45.2284,374.9144,47.9501,374.2801,51.4404,374.657,53.3521,375.5585,55.5747,375.9672,58.2772,378.736,59.2193,381.659,59.6286,383.6534,59.165,386.9399" style="stroke:#181818;stroke-width:1.0;"/><path d="M51.3156,380.875 Q51.4719,380.6563 51.6594,380.5469 Q51.8469,380.4375 52.0656,380.4375 Q52.4406,380.4375 52.675,380.7031 Q52.9094,380.9531 52.9094,381.5625 L52.9094,383.0156 Q52.9094,383.625 52.675,383.8906 Q52.4406,384.1563 52.0656,384.1563 Q51.7219,384.1563 51.5188,383.9531 Q51.3156,383.7656 51.2063,383.25 Q51.1594,382.8906 50.9719,382.7031 Q50.6438,382.3281 50.0344,382.1094 Q49.425,381.8906 48.8,381.8906 Q48.0344,381.8906 47.3938,382.2188 Q46.7688,382.5469 46.2688,383.2969 Q45.7844,384.0469 45.7844,385.0781 L45.7844,386.1719 Q45.7844,387.4063 46.675,388.2344 Q47.5656,389.0469 49.1594,389.0469 Q50.0969,389.0469 50.7531,388.7969 Q51.1438,388.6406 51.5656,388.2031 Q51.8313,387.9375 51.9719,387.8594 Q52.1281,387.7813 52.3313,387.7813 Q52.6594,387.7813 52.9094,388.0469 Q53.175,388.2969 53.175,388.6406 Q53.175,388.9844 52.8313,389.3906 Q52.3313,389.9688 51.5344,390.2969 Q50.4563,390.75 49.1594,390.75 Q47.6438,390.75 46.4406,390.125 Q45.4563,389.625 44.7688,388.5625 Q44.0813,387.4844 44.0813,386.2031 L44.0813,385.0469 Q44.0813,383.7188 44.6906,382.5781 Q45.3156,381.4219 46.4094,380.8125 Q47.5031,380.1875 48.7375,380.1875 Q49.4719,380.1875 50.1125,380.3594 Q50.7688,380.5156 51.3156,380.875 Z " fill="#000000"/><text fill="#000000" font-family="FG Virgil" font-size="14" lengthAdjust="spacing" textLength="102" x="68.45" y="390.7285">MessageFormat</text><path d="M8,401 L8,401.2802 L18.0526,400.4476 L28.1053,401.2577 L38.1579,401.5329 L48.2105,400.0488 L58.2632,400.8964 L68.3158,400.4313 L78.3684,400.4887 L88.4211,400.9091 L98.4737,400.0782 L108.5263,401.7382 L118.5789,400.1596 L128.6316,400.7363 L138.6842,401.5759 L148.7368,400.8856 L158.7895,401.091 L168.8421,400.9574 L178.8947,401.238 L188.9474,401.3188 L199,401 " fill="#F1F1F1" style="stroke:#181818;stroke-width:0.5;"/><path d="M8,409 L8,409.2802 L18.0526,408.4476 L28.1053,409.2577 L38.1579,409.5329 L48.2105,408.0488 L58.2632,408.8964 L68.3158,408.4313 L78.3684,408.4887 L88.4211,408.9091 L98.4737,408.0782 L108.5263,409.7382 L118.5789,408.1596 L128.6316,408.7363 L138.6842,409.5759 L148.7368,408.8856 L158.7895,409.091 L168.8421,408.9574 L178.8947,409.238 L188.9474,409.3188 L199,409 " fill="#F1F1F1" style="stroke:#181818;stroke-width:0.5;"/><text fill="#000000" font-family="FG Virgil" font-size="14" lengthAdjust="spacing" textLength="181" x="13" y="427.5332">sendMessage(int, int, String)</text><text fill="#000000" font-family="FG Virgil" font-size="14" lengthAdjust="spacing" textLength="96" x="13" y="445.1426">readMessage()</text></g><!--MD5=[f6d741ad28575f10cf3bff01c57c91de]
class MessageCodes--><g id="elem_MessageCodes"><polygon fill="#F1F1F1" points="238,386.5,238,386.7102,247.6154,386.0857,257.2308,386.6933,266.8462,386.8997,276.4615,385.7866,286.0769,386.4223,295.6923,386.0735,305.3077,386.1165,314.9231,386.4318,324.5385,385.8086,334.1538,387.0536,343.7692,385.8697,353.3846,386.3022,363,386.5,363.0551,386.633,363.3426,386.62,363.7158,386.8139,364.0566,386.9295,364.437,387.1408,364.7678,387.2322,364.8414,387.2627,365.0946,387.6605,365.2673,388.0249,365.4163,388.3795,365.432,388.6789,365.5,389,365.6545,389,365.7341,397.6,365.2596,406.2,365.7262,414.8,365.4012,423.4,365.5,432,365.6644,432.0681,365.2011,432.2904,365.186,432.6984,365.289,433.1553,364.8992,433.408,364.7678,433.7678,364.7812,433.8002,364.4574,434.0185,364.1138,434.1888,363.7066,434.2059,363.3902,434.442,363,434.5,363,433.9276,353.3846,434.7844,343.7692,435.0482,334.1538,434.9445,324.5385,435.113,314.9231,434.0169,305.3077,433.8478,295.6923,433.8786,286.0769,434.4411,276.4615,434.3035,266.8462,435.1814,257.2308,434.3253,247.6154,434.1569,238,434.5,238.0291,434.5703,237.5614,434.1482,237.2267,434.0472,237.0221,434.2605,236.6414,434.0484,236.2322,433.7678,236.4584,433.8615,235.9867,433.3732,236.0376,433.1014,235.9747,432.7824,235.501,432.2933,235.5,432,235.468,432,235.542,423.4,235.7173,414.8,235.4986,406.2,235.6542,397.6,235.5,389,235.3295,388.9294,235.4379,388.5601,235.948,388.3571,235.7186,387.8479,236.2425,387.6507,236.2322,387.2322,236.2586,387.2959,236.5516,387.0033,236.8942,386.8304,237.3514,386.9342,237.6083,386.5543,238,386.5" style="stroke:#181818;stroke-width:0.5;"/><polygon fill="#C2C2C2" points="261.5608,405.1756,259.9484,407.3788,258.0412,410.6057,255.3136,412.7804,252.4474,413.9696,250.162,414.0728,247.2247,412.5855,244.4532,411.6139,242.3495,409.6412,241.2461,407.3828,240.5917,405.5845,239.9506,403.2357,238.91,401.2145,239.7096,399.241,240.4102,397.0792,243.0393,395.3695,244.889,393.1511,247.1784,392.4144,249.9001,391.7801,253.3904,392.157,255.3021,393.0585,257.5247,393.4672,260.2272,396.236,261.1693,399.159,261.5786,401.1534,261.115,404.4399" style="stroke:#181818;stroke-width:1.0;"/><path d="M253.2656,398.375 Q253.4219,398.1563 253.6094,398.0469 Q253.7969,397.9375 254.0156,397.9375 Q254.3906,397.9375 254.625,398.2031 Q254.8594,398.4531 254.8594,399.0625 L254.8594,400.5156 Q254.8594,401.125 254.625,401.3906 Q254.3906,401.6563 254.0156,401.6563 Q253.6719,401.6563 253.4688,401.4531 Q253.2656,401.2656 253.1563,400.75 Q253.1094,400.3906 252.9219,400.2031 Q252.5938,399.8281 251.9844,399.6094 Q251.375,399.3906 250.75,399.3906 Q249.9844,399.3906 249.3438,399.7188 Q248.7188,400.0469 248.2188,400.7969 Q247.7344,401.5469 247.7344,402.5781 L247.7344,403.6719 Q247.7344,404.9063 248.625,405.7344 Q249.5156,406.5469 251.1094,406.5469 Q252.0469,406.5469 252.7031,406.2969 Q253.0938,406.1406 253.5156,405.7031 Q253.7813,405.4375 253.9219,405.3594 Q254.0781,405.2813 254.2813,405.2813 Q254.6094,405.2813 254.8594,405.5469 Q255.125,405.7969 255.125,406.1406 Q255.125,406.4844 254.7813,406.8906 Q254.2813,407.4688 253.4844,407.7969 Q252.4063,408.25 251.1094,408.25 Q249.5938,408.25 248.3906,407.625 Q247.4063,407.125 246.7188,406.0625 Q246.0313,404.9844 246.0313,403.7031 L246.0313,402.5469 Q246.0313,401.2188 246.6406,400.0781 Q247.2656,398.9219 248.3594,398.3125 Q249.4531,397.6875 250.6875,397.6875 Q251.4219,397.6875 252.0625,397.8594 Q252.7188,398.0156 253.2656,398.375 Z " fill="#000000"/><text fill="#000000" font-family="FG Virgil" font-size="14" lengthAdjust="spacing" textLength="98" x="264.5" y="408.2285">MessageCodes</text><path d="M236.5,418.5 L236.5,418.7802 L246.3462,417.9476 L256.1923,418.7577 L266.0385,419.0329 L275.8846,417.5488 L285.7308,418.3964 L295.5769,417.9313 L305.4231,417.9887 L315.2692,418.4091 L325.1154,417.5782 L334.9615,419.2382 L344.8077,417.6596 L354.6538,418.2363 L364.5,418.5 " fill="#F1F1F1" style="stroke:#181818;stroke-width:0.5;"/><path d="M236.5,426.5 L236.5,426.7802 L246.3462,425.9476 L256.1923,426.7577 L266.0385,427.0329 L275.8846,425.5488 L285.7308,426.3964 L295.5769,425.9313 L305.4231,425.9887 L315.2692,426.4091 L325.1154,425.5782 L334.9615,427.2382 L344.8077,425.6596 L354.6538,426.2363 L364.5,426.5 " fill="#F1F1F1" style="stroke:#181818;stroke-width:0.5;"/></g><!--MD5=[cdcc75fb74ca9d8386df240698446b0b]
link MainMenuUI to SharedBoardAppController--><g id="link_MainMenuUI_SharedBoardAppController"><path d="M203.41,101.1 L203.6669,101.2119 L198.9273,110.0043 L195.6938,119.453 L191.9698,128.6879 L186.633,137.22 L183.4338,146.6836 L179.0312,155.6228 L175.1075,164.7707 L171.6,174.1 " fill="none" style="stroke:#181818;stroke-width:1.0;"/><polygon fill="#181818" points="169.55,178.82,169.5973,178.8717,170.9096,177.388,172.4993,176.2073,173.9986,174.928,175.2009,173.3242,176.8144,172.1695,176.8049,172.1454,175.7093,172.4507,174.6615,172.8775,173.6468,173.3888,172.5177,173.6089,171.5488,174.2369,171.7206,174.3044,170.9398,173.107,170.6605,172.1066,170.4424,171.1302,169.8683,170.014,169.4815,168.9714,169.5042,168.9715,169.4845,170.941,169.5684,172.9112,169.6023,174.8811,169.7315,176.8516,169.55,178.82" style="stroke:#181818;stroke-width:1.0;"/><text fill="#000000" font-family="FG Virgil" font-size="13" lengthAdjust="spacing" textLength="73" x="190.5" y="145.4951">theController</text></g><!--MD5=[89df5294b483f87c1de5bcbe49627d1d]
link SharedBoardAppController to MessageFormat--><g id="link_SharedBoardAppController_MessageFormat"><path d="M132.1,291.37 L132.3724,291.436 L129.0517,301.6114 L127.3276,312.1735 L125.0837,322.6097 L121.1298,332.6319 L119.4422,343.2028 L116.4787,353.4647 L114.52,363.97 " fill="none" style="stroke:#181818;stroke-width:1.0;"/><polygon fill="#181818" points="113.32,368.93,113.3754,368.9728,114.4148,367.2867,115.7791,365.8515,117.0376,364.3347,117.948,362.5489,119.3403,361.1354,119.3268,361.1132,118.2996,361.6013,117.3401,362.201,116.4278,362.8783,115.353,363.2882,114.5058,364.0726,114.6635,364.1685,113.7388,362.9966,113.2745,362.1046,112.8665,361.2467,112.1315,360.1902,111.5685,359.2381,111.5909,359.2422,111.9083,361.1746,112.3277,363.1255,112.6978,365.0674,113.1618,367.0263,113.32,368.93" style="stroke:#181818;stroke-width:1.0;"/><text fill="#000000" font-family="FG Virgil" font-size="13" lengthAdjust="spacing" textLength="14" x="125.5" y="335.4951">mf</text></g><!--MD5=[d788c5f0f68ad85a14e3cfb707c0f847]
link MainMenuUI to MessageCodes--><g id="link_MainMenuUI_MessageCodes"><path d="M258.02,101.04 L258.102,101.0848 L259.4654,103.893 L261.3094,106.9637 L262.9969,109.9489 L264.1698,112.653 L266.055,115.7463 L266.0232,115.7328 L267.1694,118.7232 L268.476,121.7814 L269.8941,124.8867 L270.928,127.8297 L272.5,131 L272.7341,131.0757 L273.3102,134.2423 L274.5699,137.63 L275.9129,141.0447 L276.7708,144.3024 L277.8838,147.6427 L277.913,147.6507 L278.8145,151.056 L279.8491,154.498 L280.8195,157.9223 L281.9124,161.3805 L282.6059,164.7283 L282.8962,164.7967 L283.72,168.2785 L284.3565,171.7162 L285.2671,175.2185 L286.1905,178.7239 L286.7069,182.1333 L286.3926,182.0704 L287.7067,185.7126 L287.9859,189.1478 L289.0518,192.7404 L289.3075,196.1709 L290.2273,199.7342 L290.1973,199.7292 L291.1484,203.3237 L291.3981,206.7999 L292.0617,210.346 L292.76,213.8979 L293.2077,217.4075 L293.3909,217.4333 L293.7022,220.9317 L294.3264,224.4742 L294.4443,227.9453 L295.3175,231.5228 L295.6885,235.0296 L295.9306,235.0577 L296.2892,238.5419 L296.7679,242.04 L296.6884,245.4734 L297.0181,248.9542 L297.7104,252.4771 L297.4354,252.4513 L298.005,255.9045 L298.2648,259.3286 L298.9739,262.7948 L298.9158,266.1892 L299.3138,269.6263 L299.1617,269.6151 L299.66,272.9792 L299.5083,276.2956 L299.8189,279.6459 L300.5818,283.0293 L300.5392,286.3537 L300.7325,286.3643 L301.0428,289.608 L300.7516,292.8187 L301.2137,296.0708 L301.5117,299.3138 L301.4272,302.5358 L301.2174,302.5278 L301.5029,305.6369 L301.7197,308.7433 L302.0714,311.8549 L301.8983,314.9464 L302.0184,318.0492 L302.224,318.0538 L301.8393,320.9878 L301.8514,323.9307 L302.4431,326.8869 L301.9678,329.8187 L302.3533,332.7702 L302.5795,332.7721 L302.4689,335.532 L302.2818,338.2912 L302.2675,341.0519 L302.6524,343.816 L302.4723,346.5753 L302.3393,346.5747 L302.7241,349.1296 L302.2042,351.6805 L302.713,354.2359 L302.6426,356.7888 L302.4161,359.341 L302.525,359.3433 L302.3419,363.7252 L302.5485,368.1156 L302.4031,372.4983 L302.1104,376.8778 L301.94,381.26 " fill="none" style="stroke:#181818;stroke-width:1.0;stroke-dasharray:7.0,7.0;"/><polygon fill="#181818" points="301.76,386.34,301.8229,386.3708,302.5022,384.5102,303.5504,382.8302,304.4784,381.0914,305.0115,379.1592,306.0913,377.4947,306.0737,377.4757,305.1654,378.1602,304.346,378.9405,303.5884,379.7873,302.6179,380.4048,301.9456,381.3434,302.0808,381.469,301.0219,380.3714,300.3578,379.6403,299.7418,378.954,298.8456,378.0074,298.0968,377.1977,298.1179,377.2062,298.8196,379.0222,299.6173,380.8768,300.3687,382.7127,301.2086,384.5842,301.76,386.34" style="stroke:#181818;stroke-width:1.0;"/></g><!--MD5=[e838c987ff66d84bd9acaef41cb604bd]
link SharedBoardAppController to MessageCodes--><g id="link_SharedBoardAppController_MessageCodes"><path d="M194.97,291.37 L195.179,291.5567 L201.3513,298.607 L208.7489,306.7517 L215.7474,314.54 L221.4339,321.1563 L228.8594,329.326 L235.3059,336.6212 L242.142,344.2644 L249.2489,352.1495 L255.4225,359.2009 L263.4539,367.9118 L269.0699,374.4652 L276.49,382.63 " fill="none" style="stroke:#181818;stroke-width:1.0;stroke-dasharray:7.0,7.0;"/><polygon fill="#181818" points="279.87,386.41,279.9367,386.4314,279.1366,384.4923,278.7275,382.6786,278.191,380.8241,277.2358,378.8351,276.8603,377.0323,276.8345,377.0308,276.6544,378.1538,276.6046,379.2842,276.6456,380.4197,276.3741,381.5375,276.5402,382.6801,276.5506,382.8643,275.3988,382.4063,274.2774,382.4862,273.1597,382.6317,272.0204,382.3954,270.8924,382.3599,270.9018,382.3807,272.6836,383.1602,274.5079,384.0342,276.3117,384.8626,278.1548,385.7779,279.87,386.41" style="stroke:#181818;stroke-width:1.0;"/></g><!--MD5=[3fd8c8dcfbaf1839111ccffe43c3eb9c]
@startuml
'http://plantuml.com/skinparam.html
skinparam handwritten true
skinparam monochrome true
skinparam packageStyle rect
skinparam defaultFontName FG Virgil
skinparam shadowing false


class MainMenuUI <<presentation>>
class SharedBoardAppController <<application>>
class MessageFormat
class MessageCodes


MainMenuUI - -> SharedBoardAppController: theController
SharedBoardAppController - -> MessageFormat: mf
MainMenuUI ..> MessageCodes
SharedBoardAppController ..> MessageCodes

MainMenuUI : doShow()
MainMenuUI : handleACK(int, String, String)
SharedBoardAppController : sendCommunicationTest()
SharedBoardAppController : sendEndOfSession()
SharedBoardAppController : authenticate(String)
MessageFormat : sendMessage(int, int, String)
MessageFormat : readMessage()

@enduml

@startuml
skinparam handwritten true
skinparam monochrome true
skinparam packageStyle rect
skinparam defaultFontName FG Virgil
skinparam shadowing false


class MainMenuUI <<presentation>>
class SharedBoardAppController <<application>>
class MessageFormat
class MessageCodes


MainMenuUI - -> SharedBoardAppController: theController
SharedBoardAppController - -> MessageFormat: mf
MainMenuUI ..> MessageCodes
SharedBoardAppController ..> MessageCodes

MainMenuUI : doShow()
MainMenuUI : handleACK(int, String, String)
SharedBoardAppController : sendCommunicationTest()
SharedBoardAppController : sendEndOfSession()
SharedBoardAppController : authenticate(String)
MessageFormat : sendMessage(int, int, String)
MessageFormat : readMessage()

@enduml

PlantUML version 1.2022.7(Mon Aug 22 18:01:30 BST 2022)
(GPL source distribution)
Java Runtime: Java(TM) SE Runtime Environment
JVM: Java HotSpot(TM) 64-Bit Server VM
Default Encoding: Cp1252
Language: pt
Country: PT
--></g></svg>