<?xml version="1.0" encoding="UTF-8" standalone="no"?><svg xmlns="http://www.w3.org/2000/svg" xmlns:xlink="http://www.w3.org/1999/xlink" contentStyleType="text/css" height="679px" preserveAspectRatio="none" style="width:559px;height:679px;background:#FFFFFF;" version="1.1" viewBox="0 0 559 679" width="559px" zoomAndPan="magnify"><defs/><g><!--MD5=[4d9a1d959c9cb10c7f322d2a862a36f4]
class TcpSrv--><g id="elem_TcpSrv"><polygon fill="#F1F1F1" points="323,7,323,7.2102,333.2857,6.5857,343.5714,7.1933,353.8571,7.3997,364.1429,6.2866,374.4286,6.9223,384.7143,6.5735,395,7,394.9511,6.8819,395.3449,7.1255,395.6189,7.08,396.1313,7.6098,396.3338,7.3917,396.7678,7.7322,396.7069,7.707,397.0472,8.1409,397.0342,8.4284,397.2281,8.8016,397.3437,9.1424,397.5,9.5,397.6785,9.5,397.7391,20.2406,398.0857,30.9813,398.1711,41.7219,398.1793,52.4625,397.5,63.2031,397.5784,63.2356,397.4963,63.6158,397.4234,63.9998,396.8386,64.1718,397.1232,64.7039,396.7678,64.9709,396.7299,64.8796,396.4823,65.2817,395.9975,65.1113,395.6984,65.3891,395.4482,65.7851,395,65.7031,395,65.6544,384.7143,65.8084,374.4286,66.0418,364.1429,66.1194,353.8571,65.6992,343.5714,65.9903,333.2857,65.1307,323,65.7031,323.0363,65.7907,322.7164,65.7255,322.3496,65.5471,322.0175,65.4526,321.5242,64.9686,321.2322,64.9709,321.0314,64.8877,320.8944,64.5381,320.9212,64.2563,320.7324,63.8852,320.8563,63.6436,320.5,63.2031,320.3253,63.2031,320.1569,52.4625,320.7283,41.7219,319.8332,30.9813,319.9809,20.2406,320.5,9.5,320.6999,9.5828,320.7806,9.202,321.0191,8.8866,320.8402,8.3983,321.1841,8.1265,321.2322,7.7322,321.3075,7.9141,321.5255,7.4403,321.9271,7.4098,322.309,7.3317,322.7296,7.3472,323,7" style="stroke:#181818;stroke-width:0.5;"/><polygon fill="#C2C2C2" points="346.5608,31.0272,344.9484,33.2304,343.0412,36.4573,340.3136,38.632,337.4474,39.8212,335.162,39.9244,332.2247,38.4371,329.4532,37.4655,327.3495,35.4927,326.2461,33.2343,325.5917,31.4361,324.9506,29.0873,323.91,27.066,324.7096,25.0926,325.4102,22.9308,328.0393,21.221,329.889,19.0027,332.1784,18.266,334.9001,17.6316,338.3904,18.0085,340.3021,18.9101,342.5247,19.3188,345.2272,22.0875,346.1693,25.0105,346.5786,27.0049,346.115,30.2914" style="stroke:#181818;stroke-width:1.0;"/><path d="M338.2656,24.2266 Q338.4219,24.0078 338.6094,23.8984 Q338.7969,23.7891 339.0156,23.7891 Q339.3906,23.7891 339.625,24.0547 Q339.8594,24.3047 339.8594,24.9141 L339.8594,26.3672 Q339.8594,26.9766 339.625,27.2422 Q339.3906,27.5078 339.0156,27.5078 Q338.6719,27.5078 338.4688,27.3047 Q338.2656,27.1172 338.1563,26.6016 Q338.1094,26.2422 337.9219,26.0547 Q337.5938,25.6797 336.9844,25.4609 Q336.375,25.2422 335.75,25.2422 Q334.9844,25.2422 334.3438,25.5703 Q333.7188,25.8984 333.2188,26.6484 Q332.7344,27.3984 332.7344,28.4297 L332.7344,29.5234 Q332.7344,30.7578 333.625,31.5859 Q334.5156,32.3984 336.1094,32.3984 Q337.0469,32.3984 337.7031,32.1484 Q338.0938,31.9922 338.5156,31.5547 Q338.7813,31.2891 338.9219,31.2109 Q339.0781,31.1328 339.2813,31.1328 Q339.6094,31.1328 339.8594,31.3984 Q340.125,31.6484 340.125,31.9922 Q340.125,32.3359 339.7813,32.7422 Q339.2813,33.3203 338.4844,33.6484 Q337.4063,34.1016 336.1094,34.1016 Q334.5938,34.1016 333.3906,33.4766 Q332.4063,32.9766 331.7188,31.9141 Q331.0313,30.8359 331.0313,29.5547 L331.0313,28.3984 Q331.0313,27.0703 331.6406,25.9297 Q332.2656,24.7734 333.3594,24.1641 Q334.4531,23.5391 335.6875,23.5391 Q336.4219,23.5391 337.0625,23.7109 Q337.7188,23.8672 338.2656,24.2266 Z " fill="#000000"/><text fill="#000000" font-family="FG Virgil" font-size="12" font-style="italic" lengthAdjust="spacing" textLength="49" x="347.5" y="24.457">«thread»</text><text fill="#000000" font-family="FG Virgil" font-size="14" lengthAdjust="spacing" textLength="45" x="349.5" y="41.627">TcpSrv</text><path d="M321.5,49.7031 L321.5,49.9834 L330.875,49.1507 L340.25,49.9608 L349.625,50.236 L359,48.7519 L368.375,49.5995 L377.75,49.1345 L387.125,49.1918 L396.5,49.7031 " fill="#F1F1F1" style="stroke:#181818;stroke-width:0.5;"/><path d="M321.5,57.7031 L321.5,57.9834 L330.875,57.1507 L340.25,57.9608 L349.625,58.236 L359,56.7519 L368.375,57.5995 L377.75,57.1345 L387.125,57.1918 L396.5,57.7031 " fill="#F1F1F1" style="stroke:#181818;stroke-width:0.5;"/></g><!--MD5=[ea151196e62f385b5d6f5c4ba0783932]
class TcpSrvThread--><g id="elem_TcpSrvThread"><polygon fill="#F1F1F1" points="300,127,300,127.2102,309.8333,126.5857,319.6667,127.1933,329.5,127.3997,339.3333,126.2866,349.1667,126.9223,359,126.5735,368.8333,126.6165,378.6667,126.9318,388.5,126.3086,398.3333,127.5536,408.1667,126.3697,418,127,417.9748,126.9391,418.4087,127.2795,418.6962,127.2665,419.0694,127.4604,419.4101,127.5759,419.7678,127.7322,419.8227,127.755,419.9879,128.1163,420.241,128.5141,420.4138,128.8785,420.5627,129.2331,420.5,129.5,420.7546,129.5,420.9636,139.6875,421.2022,149.875,419.7788,160.0625,421.1785,170.25,420.2035,180.4375,421.0338,190.625,420.5,200.8125,420.3476,200.7494,420.3325,201.1573,420.4355,201.6142,420.0457,201.8669,419.9466,202.2401,419.7678,202.5803,419.811,202.6846,419.4673,202.8549,419.0602,202.872,418.7437,203.1081,418.2805,202.9898,418,203.3125,418,203.5969,408.1667,203.8607,398.3333,203.757,388.5,203.9255,378.6667,202.8294,368.8333,202.6603,359,202.6911,349.1667,203.2536,339.3333,203.116,329.5,203.9939,319.6667,203.1378,309.8333,202.9694,300,203.3125,300.0291,203.3828,299.5614,202.9607,299.2267,202.8597,299.0221,203.073,298.6414,202.8609,298.2322,202.5803,298.4584,202.674,297.9867,202.1857,298.0376,201.9139,297.9747,201.5949,297.501,201.1058,297.5,200.8125,297.4041,200.8125,297.626,190.625,298.1518,180.4375,297.4958,170.25,297.9626,160.0625,296.9462,149.875,296.8227,139.6875,297.5,129.5,297.6551,129.5642,297.4257,129.055,297.9496,128.8578,298.003,128.4657,298.0033,128.0516,298.2322,127.7322,298.1871,127.6233,298.6443,127.7271,298.9012,127.3472,299.3684,127.4752,299.5759,126.9762,300,127" style="stroke:#181818;stroke-width:0.5;"/><polygon fill="#C2C2C2" points="323.5608,151.0272,321.9484,153.2304,320.0412,156.4573,317.3136,158.632,314.4474,159.8212,312.162,159.9244,309.2247,158.4371,306.4532,157.4655,304.3495,155.4927,303.2461,153.2343,302.5917,151.4361,301.9506,149.0873,300.91,147.066,301.7096,145.0926,302.4102,142.9308,305.0393,141.221,306.889,139.0027,309.1784,138.266,311.9001,137.6316,315.3904,138.0085,317.3021,138.9101,319.5247,139.3188,322.2272,142.0875,323.1693,145.0105,323.5786,147.0049,323.115,150.2914" style="stroke:#181818;stroke-width:1.0;"/><path d="M315.2656,144.2266 Q315.4219,144.0078 315.6094,143.8984 Q315.7969,143.7891 316.0156,143.7891 Q316.3906,143.7891 316.625,144.0547 Q316.8594,144.3047 316.8594,144.9141 L316.8594,146.3672 Q316.8594,146.9766 316.625,147.2422 Q316.3906,147.5078 316.0156,147.5078 Q315.6719,147.5078 315.4688,147.3047 Q315.2656,147.1172 315.1563,146.6016 Q315.1094,146.2422 314.9219,146.0547 Q314.5938,145.6797 313.9844,145.4609 Q313.375,145.2422 312.75,145.2422 Q311.9844,145.2422 311.3438,145.5703 Q310.7188,145.8984 310.2188,146.6484 Q309.7344,147.3984 309.7344,148.4297 L309.7344,149.5234 Q309.7344,150.7578 310.625,151.5859 Q311.5156,152.3984 313.1094,152.3984 Q314.0469,152.3984 314.7031,152.1484 Q315.0938,151.9922 315.5156,151.5547 Q315.7813,151.2891 315.9219,151.2109 Q316.0781,151.1328 316.2813,151.1328 Q316.6094,151.1328 316.8594,151.3984 Q317.125,151.6484 317.125,151.9922 Q317.125,152.3359 316.7813,152.7422 Q316.2813,153.3203 315.4844,153.6484 Q314.4063,154.1016 313.1094,154.1016 Q311.5938,154.1016 310.3906,153.4766 Q309.4063,152.9766 308.7188,151.9141 Q308.0313,150.8359 308.0313,149.5547 L308.0313,148.3984 Q308.0313,147.0703 308.6406,145.9297 Q309.2656,144.7734 310.3594,144.1641 Q311.4531,143.5391 312.6875,143.5391 Q313.4219,143.5391 314.0625,143.7109 Q314.7188,143.8672 315.2656,144.2266 Z " fill="#000000"/><text fill="#000000" font-family="FG Virgil" font-size="12" font-style="italic" lengthAdjust="spacing" textLength="64" x="340" y="144.457">«runnable»</text><text fill="#000000" font-family="FG Virgil" font-size="14" lengthAdjust="spacing" textLength="91" x="326.5" y="161.627">TcpSrvThread</text><path d="M298.5,169.7031 L298.5,169.9834 L308.5833,169.1507 L318.6667,169.9608 L328.75,170.236 L338.8333,168.7519 L348.9167,169.5995 L359,169.1345 L369.0833,169.1918 L379.1667,169.6122 L389.25,168.7813 L399.3333,170.4413 L409.4167,168.8628 L419.5,169.7031 " fill="#F1F1F1" style="stroke:#181818;stroke-width:0.5;"/><path d="M298.5,177.7031 L298.5,177.9834 L308.5833,177.1507 L318.6667,177.9608 L328.75,178.236 L338.8333,176.7519 L348.9167,177.5995 L359,177.1345 L369.0833,177.1918 L379.1667,177.6122 L389.25,176.7813 L399.3333,178.4413 L409.4167,176.8628 L419.5,177.7031 " fill="#F1F1F1" style="stroke:#181818;stroke-width:0.5;"/><text fill="#000000" font-family="FG Virgil" font-size="14" lengthAdjust="spacing" textLength="31" x="303.5" y="196.2363">run()</text></g><!--MD5=[d42c2102fcd65a6dea07a6eb0bf723e9]
class SharedBoardServerController--><g id="elem_SharedBoardServerController"><polygon fill="#F1F1F1" points="9.5,284.5,9.5,284.7102,19.2727,284.0857,29.0455,284.6933,38.8182,284.8997,48.5909,283.7866,58.3636,284.4223,68.1364,284.0735,77.9091,284.1165,87.6818,284.4318,97.4545,283.8086,107.2273,285.0536,117,283.8697,126.7727,284.3022,136.5455,284.9319,146.3182,284.4142,156.0909,284.5682,165.8636,284.4681,175.6364,284.6785,185.4091,284.7391,195.1818,285.0857,204.9545,285.1711,214.7273,285.1793,224.5,284.5,224.5325,284.5784,224.9127,284.7892,225.2967,285.0092,225.4687,284.7172,226.0008,285.2947,226.2678,285.2322,226.1765,285.1944,226.5786,285.6539,226.4082,285.8762,226.686,286.2842,227.0819,286.741,227,287,226.9513,287,227.1053,297.1875,227.3386,307.375,227.4162,317.5625,226.9961,327.75,227.2872,337.9375,226.4276,348.125,227,358.3125,227.0876,358.3488,227.0224,358.736,226.844,359.0763,226.7494,359.4514,226.2654,359.6651,226.2678,360.0803,226.1846,359.8794,225.8349,360.0353,225.5531,360.355,225.182,360.4591,224.9405,360.8759,224.5,360.8125,224.5,360.6378,214.7273,360.4694,204.9545,361.0408,195.1818,360.1457,185.4091,360.2934,175.6364,361.4615,165.8636,361.2482,156.0909,361.547,146.3182,360.4907,136.5455,361.1317,126.7727,361.4029,117,360.3401,107.2273,360.7166,97.4545,360.9385,87.6818,361.4643,77.9091,360.8083,68.1364,361.2751,58.3636,360.2587,48.5909,360.1352,38.8182,361.3161,29.0455,360.0956,19.2727,361.3215,9.5,360.8125,9.5264,360.8761,9.1123,360.5835,8.7478,360.4107,8.4979,360.5144,8.0476,360.1345,7.7322,360.0803,7.9145,360.1558,7.4156,359.6562,7.6295,359.4519,7.442,359.0814,7.2219,358.6973,7,358.3125,7.0472,358.3125,7.7266,348.125,7.6136,337.9375,7.1693,327.75,7.2682,317.5625,6.8697,307.375,7.7165,297.1875,7,287,7.0477,287.0198,7.1996,286.6685,7.1055,286.2153,7.3145,285.8876,7.7492,285.6535,7.7322,285.2322,7.7871,285.3646,8.0803,285.0726,8.3982,284.8401,8.765,284.7255,9.0589,284.4351,9.5,284.5" style="stroke:#181818;stroke-width:0.5;"/><polygon fill="#C2C2C2" points="33.0608,308.5272,31.4484,310.7304,29.5412,313.9573,26.8136,316.132,23.9474,317.3212,21.662,317.4244,18.7247,315.9371,15.9532,314.9655,13.8495,312.9927,12.7461,310.7343,12.0917,308.9361,11.4506,306.5873,10.41,304.566,11.2096,302.5926,11.9102,300.4308,14.5393,298.721,16.389,296.5027,18.6784,295.766,21.4001,295.1316,24.8904,295.5085,26.8021,296.4101,29.0247,296.8188,31.7272,299.5875,32.6693,302.5105,33.0786,304.5049,32.615,307.7914" style="stroke:#181818;stroke-width:1.0;"/><path d="M24.7656,301.7266 Q24.9219,301.5078 25.1094,301.3984 Q25.2969,301.2891 25.5156,301.2891 Q25.8906,301.2891 26.125,301.5547 Q26.3594,301.8047 26.3594,302.4141 L26.3594,303.8672 Q26.3594,304.4766 26.125,304.7422 Q25.8906,305.0078 25.5156,305.0078 Q25.1719,305.0078 24.9688,304.8047 Q24.7656,304.6172 24.6563,304.1016 Q24.6094,303.7422 24.4219,303.5547 Q24.0938,303.1797 23.4844,302.9609 Q22.875,302.7422 22.25,302.7422 Q21.4844,302.7422 20.8438,303.0703 Q20.2188,303.3984 19.7188,304.1484 Q19.2344,304.8984 19.2344,305.9297 L19.2344,307.0234 Q19.2344,308.2578 20.125,309.0859 Q21.0156,309.8984 22.6094,309.8984 Q23.5469,309.8984 24.2031,309.6484 Q24.5938,309.4922 25.0156,309.0547 Q25.2813,308.7891 25.4219,308.7109 Q25.5781,308.6328 25.7813,308.6328 Q26.1094,308.6328 26.3594,308.8984 Q26.625,309.1484 26.625,309.4922 Q26.625,309.8359 26.2813,310.2422 Q25.7813,310.8203 24.9844,311.1484 Q23.9063,311.6016 22.6094,311.6016 Q21.0938,311.6016 19.8906,310.9766 Q18.9063,310.4766 18.2188,309.4141 Q17.5313,308.3359 17.5313,307.0547 L17.5313,305.8984 Q17.5313,304.5703 18.1406,303.4297 Q18.7656,302.2734 19.8594,301.6641 Q20.9531,301.0391 22.1875,301.0391 Q22.9219,301.0391 23.5625,301.2109 Q24.2188,301.3672 24.7656,301.7266 Z " fill="#000000"/><text fill="#000000" font-family="FG Virgil" font-size="12" font-style="italic" lengthAdjust="spacing" textLength="74" x="93" y="301.957">«application»</text><text fill="#000000" font-family="FG Virgil" font-size="14" lengthAdjust="spacing" textLength="188" x="36" y="319.127">SharedBoardServerController</text><path d="M8,327.2031 L8,327.4834 L17.9091,326.6507 L27.8182,327.4608 L37.7273,327.736 L47.6364,326.2519 L57.5455,327.0995 L67.4545,326.6345 L77.3636,326.6918 L87.2727,327.1122 L97.1818,326.2813 L107.0909,327.9413 L117,326.3628 L126.9091,326.9394 L136.8182,327.7791 L146.7273,327.0888 L156.6364,327.2941 L166.5455,327.1605 L176.4545,327.4412 L186.3636,327.522 L196.2727,327.984 L206.1818,328.0979 L216.0909,328.1088 L226,327.2031 " fill="#F1F1F1" style="stroke:#181818;stroke-width:0.5;"/><path d="M8,335.2031 L8,335.4834 L17.9091,334.6507 L27.8182,335.4608 L37.7273,335.736 L47.6364,334.2519 L57.5455,335.0995 L67.4545,334.6345 L77.3636,334.6918 L87.2727,335.1122 L97.1818,334.2813 L107.0909,335.9413 L117,334.3628 L126.9091,334.9394 L136.8182,335.7791 L146.7273,335.0888 L156.6364,335.2941 L166.5455,335.1605 L176.4545,335.4412 L186.3636,335.522 L196.2727,335.984 L206.1818,336.0979 L216.0909,336.1088 L226,335.2031 " fill="#F1F1F1" style="stroke:#181818;stroke-width:0.5;"/><text fill="#000000" font-family="FG Virgil" font-size="14" lengthAdjust="spacing" textLength="145" x="13" y="353.7363">authenticate(Message)</text></g><!--MD5=[032b64e3f41d8fe45ae31cb2a00a2b37]
class SharedBoardServerService--><g id="elem_SharedBoardServerService"><polygon fill="#F1F1F1" points="127,442,127,442.2102,137,441.5857,147,442.1933,157,442.3997,167,441.2866,177,441.9223,187,441.5735,197,441.6165,207,441.9318,217,441.3086,227,442.5536,237,441.3697,247,441.8022,257,442.4319,267,441.9142,277,442.0682,287,441.9681,297,442.1785,307,442.2391,317,442.5857,327,442,327.0856,442.2067,327.4402,442.3556,327.7396,442.3713,328.1198,442.5821,328.5038,442.802,328.7678,442.7322,328.5457,442.6402,329.1232,443.1723,328.9693,443.4015,329.3715,443.861,329.2011,444.0833,329.5,444.5,329.4315,444.5,330.2416,454.6875,329.4513,464.875,329.6053,475.0625,329.8386,485.25,329.9162,495.4375,329.4961,505.625,329.5,515.8125,329.5885,515.8491,329.1773,516.093,329.2947,516.5559,329.2295,516.9431,329.0511,517.2834,328.7678,517.5803,328.846,517.7691,328.3526,517.5779,327.9775,517.6723,327.6278,517.8282,327.346,518.1479,327,518.3125,327,518.116,317,518.9939,307,518.1378,297,517.9694,287,518.5408,277,517.6457,267,517.7934,257,518.9615,247,518.7482,237,519.047,227,517.9907,217,518.6317,207,518.9029,197,517.8401,187,518.2166,177,518.4385,167,518.9643,157,518.3083,147,518.7751,137,517.7587,127,518.3125,126.9136,518.1039,126.7107,518.3211,126.2014,517.7988,126.0043,518.0299,125.6121,517.7903,125.2322,517.5803,125.1497,517.5461,124.9768,517.1816,125.0806,516.9317,124.7007,516.4814,124.8287,516.2416,124.5,515.8125,123.9473,515.8125,125.1174,505.625,124.9843,495.4375,124.745,485.25,124.5472,475.0625,125.2266,464.875,125.1136,454.6875,124.5,444.5,124.5521,444.5216,124.729,444.1807,124.7528,443.7763,125.16,443.5307,125.1335,443.1055,125.2322,442.7322,125.2542,442.7854,125.5082,442.3984,125.8876,442.3145,126.3606,442.4563,126.7013,442.2788,127,442" style="stroke:#181818;stroke-width:0.5;"/><polygon fill="#C2C2C2" points="150.5608,466.0272,148.9484,468.2304,147.0412,471.4573,144.3136,473.632,141.4474,474.8212,139.162,474.9244,136.2247,473.4371,133.4532,472.4655,131.3495,470.4927,130.2461,468.2343,129.5917,466.4361,128.9506,464.0873,127.91,462.066,128.7096,460.0926,129.4102,457.9308,132.0393,456.221,133.889,454.0027,136.1784,453.266,138.9001,452.6316,142.3904,453.0085,144.3021,453.9101,146.5247,454.3188,149.2272,457.0875,150.1693,460.0105,150.5786,462.0049,150.115,465.2914" style="stroke:#181818;stroke-width:1.0;"/><path d="M142.2656,459.2266 Q142.4219,459.0078 142.6094,458.8984 Q142.7969,458.7891 143.0156,458.7891 Q143.3906,458.7891 143.625,459.0547 Q143.8594,459.3047 143.8594,459.9141 L143.8594,461.3672 Q143.8594,461.9766 143.625,462.2422 Q143.3906,462.5078 143.0156,462.5078 Q142.6719,462.5078 142.4688,462.3047 Q142.2656,462.1172 142.1563,461.6016 Q142.1094,461.2422 141.9219,461.0547 Q141.5938,460.6797 140.9844,460.4609 Q140.375,460.2422 139.75,460.2422 Q138.9844,460.2422 138.3438,460.5703 Q137.7188,460.8984 137.2188,461.6484 Q136.7344,462.3984 136.7344,463.4297 L136.7344,464.5234 Q136.7344,465.7578 137.625,466.5859 Q138.5156,467.3984 140.1094,467.3984 Q141.0469,467.3984 141.7031,467.1484 Q142.0938,466.9922 142.5156,466.5547 Q142.7813,466.2891 142.9219,466.2109 Q143.0781,466.1328 143.2813,466.1328 Q143.6094,466.1328 143.8594,466.3984 Q144.125,466.6484 144.125,466.9922 Q144.125,467.3359 143.7813,467.7422 Q143.2813,468.3203 142.4844,468.6484 Q141.4063,469.1016 140.1094,469.1016 Q138.5938,469.1016 137.3906,468.4766 Q136.4063,467.9766 135.7188,466.9141 Q135.0313,465.8359 135.0313,464.5547 L135.0313,463.3984 Q135.0313,462.0703 135.6406,460.9297 Q136.2656,459.7734 137.3594,459.1641 Q138.4531,458.5391 139.6875,458.5391 Q140.4219,458.5391 141.0625,458.7109 Q141.7188,458.8672 142.2656,459.2266 Z " fill="#000000"/><text fill="#000000" font-family="FG Virgil" font-size="12" font-style="italic" lengthAdjust="spacing" textLength="53" x="213.5" y="459.457">«service»</text><text fill="#000000" font-family="FG Virgil" font-size="14" lengthAdjust="spacing" textLength="173" x="153.5" y="476.627">SharedBoardServerService</text><path d="M125.5,484.7031 L125.5,484.9834 L135.65,484.1507 L145.8,484.9608 L155.95,485.236 L166.1,483.7519 L176.25,484.5995 L186.4,484.1345 L196.55,484.1918 L206.7,484.6122 L216.85,483.7813 L227,485.4413 L237.15,483.8628 L247.3,484.4394 L257.45,485.2791 L267.6,484.5888 L277.75,484.7941 L287.9,484.6605 L298.05,484.9412 L308.2,485.022 L318.35,485.484 L328.5,484.7031 " fill="#F1F1F1" style="stroke:#181818;stroke-width:0.5;"/><path d="M125.5,492.7031 L125.5,492.9834 L135.65,492.1507 L145.8,492.9608 L155.95,493.236 L166.1,491.7519 L176.25,492.5995 L186.4,492.1345 L196.55,492.1918 L206.7,492.6122 L216.85,491.7813 L227,493.4413 L237.15,491.8628 L247.3,492.4394 L257.45,493.2791 L267.6,492.5888 L277.75,492.7941 L287.9,492.6605 L298.05,492.9412 L308.2,493.022 L318.35,493.484 L328.5,492.7031 " fill="#F1F1F1" style="stroke:#181818;stroke-width:0.5;"/><text fill="#000000" font-family="FG Virgil" font-size="14" lengthAdjust="spacing" textLength="154" x="130.5" y="511.2363">authenticateUser(String)</text></g><!--MD5=[b07be2b600772d055921457a51a4b081]
class AuthenticationService--><g id="elem_AuthenticationService"><polygon fill="#F1F1F1" points="114,596,114,596.2102,123.8261,595.5857,133.6522,596.1933,143.4783,596.3997,153.3043,595.2866,163.1304,595.9223,172.9565,595.5735,182.7826,595.6165,192.6087,595.9318,202.4348,595.3086,212.2609,596.5536,222.087,595.3697,231.913,595.8022,241.7391,596.4319,251.5652,595.9142,261.3913,596.0682,271.2174,595.9681,281.0435,596.1785,290.8696,596.2391,300.6957,596.5857,310.5217,596.6711,320.3478,596.6793,330.1739,596.2546,340,596,340.0591,596.1428,340.4431,596.3627,340.6151,596.0708,341.1472,596.6483,341.3764,596.4945,341.7678,596.7322,341.9322,596.8003,341.7618,597.0226,342.0396,597.4306,342.4355,597.8875,342.3385,598.1402,342.5,598.5,342.6053,598.5,342.8386,608.6875,342.9162,618.875,342.4961,629.0625,342.7872,639.25,341.9276,649.4375,342.7844,659.625,342.5,669.8125,342.6688,669.8824,342.4905,670.2228,342.3959,670.5978,341.9119,670.8115,341.7134,671.1435,341.7678,671.5803,341.6885,671.3889,341.4067,671.7086,341.0356,671.8126,340.794,672.2295,340.3313,672.1123,340,672.3125,340,671.9694,330.1739,672.5408,320.3478,671.6457,310.5217,671.7934,300.6957,672.9615,290.8696,672.7482,281.0435,673.047,271.2174,671.9907,261.3913,672.6317,251.5652,672.9029,241.7391,671.8401,231.913,672.2166,222.087,672.4385,212.2609,672.9643,202.4348,672.3083,192.6087,672.7751,182.7826,671.7587,172.9565,671.6352,163.1304,672.8161,153.3043,671.5956,143.4783,672.8215,133.6522,672.5191,123.8261,672.0446,114,672.3125,113.9549,672.2036,113.705,672.3073,113.2547,671.9274,113.0148,672.0554,112.5153,671.5565,112.2322,671.5803,112.4224,671.659,112.2349,671.2885,112.0148,670.9044,111.8074,670.5256,111.8702,670.2587,111.5,669.8125,112.1136,669.8125,111.6693,659.625,111.7682,649.4375,111.3697,639.25,112.2165,629.0625,111.6549,618.875,111.6726,608.6875,111.5,598.5,111.3127,598.4224,111.5217,598.0948,111.9563,597.8606,112.0717,597.4942,112.0726,597.0803,112.2322,596.7322,112.1911,596.633,112.5579,596.5184,112.8518,596.228,113.3458,596.4206,113.7408,596.3742,114,596" style="stroke:#181818;stroke-width:0.5;"/><polygon fill="#C2C2C2" points="165.4608,620.0272,163.8484,622.2304,161.9412,625.4573,159.2136,627.632,156.3474,628.8212,154.062,628.9244,151.1247,627.4371,148.3532,626.4655,146.2495,624.4927,145.1461,622.2343,144.4917,620.4361,143.8506,618.0873,142.81,616.066,143.6096,614.0926,144.3102,611.9308,146.9393,610.221,148.789,608.0027,151.0784,607.266,153.8001,606.6316,157.2904,607.0085,159.2021,607.9101,161.4247,608.3188,164.1272,611.0875,165.0693,614.0105,165.4786,616.0049,165.015,619.2914" style="stroke:#181818;stroke-width:1.0;"/><path d="M157.1656,613.2266 Q157.3219,613.0078 157.5094,612.8984 Q157.6969,612.7891 157.9156,612.7891 Q158.2906,612.7891 158.525,613.0547 Q158.7594,613.3047 158.7594,613.9141 L158.7594,615.3672 Q158.7594,615.9766 158.525,616.2422 Q158.2906,616.5078 157.9156,616.5078 Q157.5719,616.5078 157.3688,616.3047 Q157.1656,616.1172 157.0563,615.6016 Q157.0094,615.2422 156.8219,615.0547 Q156.4938,614.6797 155.8844,614.4609 Q155.275,614.2422 154.65,614.2422 Q153.8844,614.2422 153.2438,614.5703 Q152.6188,614.8984 152.1188,615.6484 Q151.6344,616.3984 151.6344,617.4297 L151.6344,618.5234 Q151.6344,619.7578 152.525,620.5859 Q153.4156,621.3984 155.0094,621.3984 Q155.9469,621.3984 156.6031,621.1484 Q156.9938,620.9922 157.4156,620.5547 Q157.6813,620.2891 157.8219,620.2109 Q157.9781,620.1328 158.1813,620.1328 Q158.5094,620.1328 158.7594,620.3984 Q159.025,620.6484 159.025,620.9922 Q159.025,621.3359 158.6813,621.7422 Q158.1813,622.3203 157.3844,622.6484 Q156.3063,623.1016 155.0094,623.1016 Q153.4938,623.1016 152.2906,622.4766 Q151.3063,621.9766 150.6188,620.9141 Q149.9313,619.8359 149.9313,618.5547 L149.9313,617.3984 Q149.9313,616.0703 150.5406,614.9297 Q151.1656,613.7734 152.2594,613.1641 Q153.3531,612.5391 154.5875,612.5391 Q155.3219,612.5391 155.9625,612.7109 Q156.6188,612.8672 157.1656,613.2266 Z " fill="#000000"/><text fill="#000000" font-family="FG Virgil" font-size="12" font-style="italic" lengthAdjust="spacing" textLength="53" x="216.6" y="613.457">«service»</text><text fill="#000000" font-family="FG Virgil" font-size="14" lengthAdjust="spacing" textLength="137" x="174.6" y="630.627">AuthenticationService</text><path d="M112.5,638.7031 L112.5,638.9834 L122.4565,638.1507 L132.413,638.9608 L142.3696,639.236 L152.3261,637.7519 L162.2826,638.5995 L172.2391,638.1345 L182.1957,638.1918 L192.1522,638.6122 L202.1087,637.7813 L212.0652,639.4413 L222.0217,637.8628 L231.9783,638.4394 L241.9348,639.2791 L251.8913,638.5888 L261.8478,638.7941 L271.8043,638.6605 L281.7609,638.9412 L291.7174,639.022 L301.6739,639.484 L311.6304,639.5979 L321.587,639.6088 L331.5435,639.0426 L341.5,638.7031 " fill="#F1F1F1" style="stroke:#181818;stroke-width:0.5;"/><path d="M112.5,646.7031 L112.5,646.9834 L122.4565,646.1507 L132.413,646.9608 L142.3696,647.236 L152.3261,645.7519 L162.2826,646.5995 L172.2391,646.1345 L182.1957,646.1918 L192.1522,646.6122 L202.1087,645.7813 L212.0652,647.4413 L222.0217,645.8628 L231.9783,646.4394 L241.9348,647.2791 L251.8913,646.5888 L261.8478,646.7941 L271.8043,646.6605 L281.7609,646.9412 L291.7174,647.022 L301.6739,647.484 L311.6304,647.5979 L321.587,647.6088 L331.5435,647.0426 L341.5,646.7031 " fill="#F1F1F1" style="stroke:#181818;stroke-width:0.5;"/><text fill="#000000" font-family="FG Virgil" font-size="14" lengthAdjust="spacing" textLength="219" x="117.5" y="665.2363">authenticate(String, String, Role...)</text></g><!--MD5=[92647c934d57d7c4aec717906aa77541]
class MessageFormat--><g id="elem_MessageFormat"><polygon fill="#F1F1F1" points="265,281,265,281.2102,274.8947,280.5857,284.7895,281.1933,294.6842,281.3997,304.5789,280.2866,314.4737,280.9223,324.3684,280.5735,334.2632,280.6165,344.1579,280.9318,354.0526,280.3086,363.9474,281.5536,373.8421,280.3697,383.7368,280.8022,393.6316,281.4319,403.5263,280.9142,413.4211,281.0682,423.3158,280.9681,433.2105,281.1785,443.1053,281.2391,453,281,453.0747,281.1804,453.4392,281.3531,453.7938,281.5021,454.0931,281.5178,454.4733,281.7286,454.7678,281.7322,454.984,281.8218,454.6921,281.9938,455.2696,282.5259,455.1158,282.7551,455.5179,283.2145,455.5,283.5,455.005,283.5,455.4315,293.2773,456.2416,303.0547,455.4513,312.832,455.6053,322.6094,455.8386,332.3867,455.9162,342.1641,455.4961,351.9414,455.5,361.7188,455.5885,361.7554,455.1773,361.9993,455.2947,362.4621,455.2295,362.8493,455.0511,363.1897,454.7678,363.4865,454.846,363.6753,454.3526,363.4842,453.9775,363.5786,453.6278,363.7345,453.346,364.0542,453,364.2188,453,364.0222,443.1053,364.9002,433.2105,364.0441,423.3158,363.8757,413.4211,364.447,403.5263,363.5519,393.6316,363.6996,383.7368,364.8677,373.8421,364.6544,363.9474,364.9532,354.0526,363.897,344.1579,364.5379,334.2632,364.8092,324.3684,363.7463,314.4737,364.1229,304.5789,364.3447,294.6842,364.8705,284.7895,364.2146,274.8947,364.6813,265,364.2188,264.9294,364.0482,264.5601,363.8637,264.3571,364.0809,263.8479,363.5586,263.6507,363.7897,263.2322,363.4865,263.2959,363.5129,263.0033,363.0988,262.8304,362.7343,262.9342,362.4844,262.5543,362.0341,262.5,361.7188,263.0919,361.7188,261.9473,351.9414,263.1174,342.1641,262.9843,332.3867,262.745,322.6094,262.5472,312.832,263.2266,303.0547,263.1136,293.2773,262.5,283.5,262.5521,283.5216,262.729,283.1807,262.7528,282.7763,263.16,282.5307,263.1335,282.1055,263.2322,281.7322,263.2542,281.7854,263.5082,281.3984,263.8876,281.3145,264.3606,281.4563,264.7013,281.2788,265,281" style="stroke:#181818;stroke-width:0.5;"/><polygon fill="#C2C2C2" points="315.1108,299.6756,313.4984,301.8788,311.5912,305.1057,308.8636,307.2804,305.9974,308.4696,303.712,308.5728,300.7747,307.0855,298.0032,306.1139,295.8995,304.1412,294.7961,301.8828,294.1417,300.0845,293.5006,297.7357,292.46,295.7145,293.2596,293.741,293.9602,291.5792,296.5893,289.8695,298.439,287.6511,300.7284,286.9144,303.4501,286.2801,306.9404,286.657,308.8521,287.5585,311.0747,287.9672,313.7772,290.736,314.7193,293.659,315.1286,295.6534,314.665,298.9399" style="stroke:#181818;stroke-width:1.0;"/><path d="M306.8156,292.875 Q306.9719,292.6563 307.1594,292.5469 Q307.3469,292.4375 307.5656,292.4375 Q307.9406,292.4375 308.175,292.7031 Q308.4094,292.9531 308.4094,293.5625 L308.4094,295.0156 Q308.4094,295.625 308.175,295.8906 Q307.9406,296.1563 307.5656,296.1563 Q307.2219,296.1563 307.0188,295.9531 Q306.8156,295.7656 306.7063,295.25 Q306.6594,294.8906 306.4719,294.7031 Q306.1438,294.3281 305.5344,294.1094 Q304.925,293.8906 304.3,293.8906 Q303.5344,293.8906 302.8938,294.2188 Q302.2688,294.5469 301.7688,295.2969 Q301.2844,296.0469 301.2844,297.0781 L301.2844,298.1719 Q301.2844,299.4063 302.175,300.2344 Q303.0656,301.0469 304.6594,301.0469 Q305.5969,301.0469 306.2531,300.7969 Q306.6438,300.6406 307.0656,300.2031 Q307.3313,299.9375 307.4719,299.8594 Q307.6281,299.7813 307.8313,299.7813 Q308.1594,299.7813 308.4094,300.0469 Q308.675,300.2969 308.675,300.6406 Q308.675,300.9844 308.3313,301.3906 Q307.8313,301.9688 307.0344,302.2969 Q305.9563,302.75 304.6594,302.75 Q303.1438,302.75 301.9406,302.125 Q300.9563,301.625 300.2688,300.5625 Q299.5813,299.4844 299.5813,298.2031 L299.5813,297.0469 Q299.5813,295.7188 300.1906,294.5781 Q300.8156,293.4219 301.9094,292.8125 Q303.0031,292.1875 304.2375,292.1875 Q304.9719,292.1875 305.6125,292.3594 Q306.2688,292.5156 306.8156,292.875 Z " fill="#000000"/><text fill="#000000" font-family="FG Virgil" font-size="14" lengthAdjust="spacing" textLength="102" x="323.95" y="302.7285">MessageFormat</text><path d="M263.5,313 L263.5,313.2802 L273.5526,312.4476 L283.6053,313.2577 L293.6579,313.5329 L303.7105,312.0488 L313.7632,312.8964 L323.8158,312.4313 L333.8684,312.4887 L343.9211,312.9091 L353.9737,312.0782 L364.0263,313.7382 L374.0789,312.1596 L384.1316,312.7363 L394.1842,313.5759 L404.2368,312.8856 L414.2895,313.091 L424.3421,312.9574 L434.3947,313.238 L444.4474,313.3188 L454.5,313 " fill="#F1F1F1" style="stroke:#181818;stroke-width:0.5;"/><path d="M263.5,321 L263.5,321.2802 L273.5526,320.4476 L283.6053,321.2577 L293.6579,321.5329 L303.7105,320.0488 L313.7632,320.8964 L323.8158,320.4313 L333.8684,320.4887 L343.9211,320.9091 L353.9737,320.0782 L364.0263,321.7382 L374.0789,320.1596 L384.1316,320.7363 L394.1842,321.5759 L404.2368,320.8856 L414.2895,321.091 L424.3421,320.9574 L434.3947,321.238 L444.4474,321.3188 L454.5,321 " fill="#F1F1F1" style="stroke:#181818;stroke-width:0.5;"/><text fill="#000000" font-family="FG Virgil" font-size="14" lengthAdjust="spacing" textLength="181" x="268.5" y="339.5332">sendMessage(int, int, String)</text><text fill="#000000" font-family="FG Virgil" font-size="14" lengthAdjust="spacing" textLength="96" x="268.5" y="357.1426">readMessage()</text></g><!--MD5=[f6d741ad28575f10cf3bff01c57c91de]
class MessageCodes--><g id="elem_MessageCodes"><polygon fill="#F1F1F1" points="424.5,610,424.5,610.2102,434.1154,609.5857,443.7308,610.1933,453.3462,610.3997,462.9615,609.2866,472.5769,609.9223,482.1923,609.5735,491.8077,609.6165,501.4231,609.9318,511.0385,609.3086,520.6538,610.5536,530.2692,609.3697,539.8846,609.8022,549.5,610,549.5551,610.133,549.8426,610.12,550.2158,610.3139,550.5566,610.4295,550.937,610.6408,551.2678,610.7322,551.3414,610.7627,551.5946,611.1605,551.7673,611.5249,551.9163,611.8795,551.932,612.1789,552,612.5,552.1545,612.5,552.2341,621.1,551.7596,629.7,552.2262,638.3,551.9012,646.9,552,655.5,552.1644,655.5681,551.7011,655.7904,551.686,656.1984,551.789,656.6553,551.3992,656.908,551.2678,657.2678,551.2812,657.3002,550.9574,657.5185,550.6138,657.6888,550.2066,657.7059,549.8902,657.942,549.5,658,549.5,657.4276,539.8846,658.2844,530.2692,658.5482,520.6538,658.4445,511.0385,658.613,501.4231,657.5169,491.8077,657.3478,482.1923,657.3786,472.5769,657.9411,462.9615,657.8035,453.3462,658.6814,443.7308,657.8253,434.1154,657.6569,424.5,658,424.5291,658.0703,424.0614,657.6482,423.7267,657.5472,423.5221,657.7605,423.1414,657.5484,422.7322,657.2678,422.9584,657.3615,422.4867,656.8732,422.5376,656.6014,422.4747,656.2824,422.001,655.7933,422,655.5,421.968,655.5,422.042,646.9,422.2173,638.3,421.9986,629.7,422.1542,621.1,422,612.5,421.8295,612.4294,421.9379,612.0601,422.448,611.8571,422.2186,611.3479,422.7425,611.1507,422.7322,610.7322,422.7586,610.7959,423.0516,610.5033,423.3942,610.3304,423.8514,610.4342,424.1083,610.0543,424.5,610" style="stroke:#181818;stroke-width:0.5;"/><polygon fill="#C2C2C2" points="448.0608,628.6756,446.4484,630.8788,444.5412,634.1057,441.8136,636.2804,438.9474,637.4696,436.662,637.5728,433.7247,636.0855,430.9532,635.1139,428.8495,633.1412,427.7461,630.8828,427.0917,629.0845,426.4506,626.7357,425.41,624.7145,426.2096,622.741,426.9102,620.5792,429.5393,618.8695,431.389,616.6511,433.6784,615.9144,436.4001,615.2801,439.8904,615.657,441.8021,616.5585,444.0247,616.9672,446.7272,619.736,447.6693,622.659,448.0786,624.6534,447.615,627.9399" style="stroke:#181818;stroke-width:1.0;"/><path d="M439.7656,621.875 Q439.9219,621.6563 440.1094,621.5469 Q440.2969,621.4375 440.5156,621.4375 Q440.8906,621.4375 441.125,621.7031 Q441.3594,621.9531 441.3594,622.5625 L441.3594,624.0156 Q441.3594,624.625 441.125,624.8906 Q440.8906,625.1563 440.5156,625.1563 Q440.1719,625.1563 439.9688,624.9531 Q439.7656,624.7656 439.6563,624.25 Q439.6094,623.8906 439.4219,623.7031 Q439.0938,623.3281 438.4844,623.1094 Q437.875,622.8906 437.25,622.8906 Q436.4844,622.8906 435.8438,623.2188 Q435.2188,623.5469 434.7188,624.2969 Q434.2344,625.0469 434.2344,626.0781 L434.2344,627.1719 Q434.2344,628.4063 435.125,629.2344 Q436.0156,630.0469 437.6094,630.0469 Q438.5469,630.0469 439.2031,629.7969 Q439.5938,629.6406 440.0156,629.2031 Q440.2813,628.9375 440.4219,628.8594 Q440.5781,628.7813 440.7813,628.7813 Q441.1094,628.7813 441.3594,629.0469 Q441.625,629.2969 441.625,629.6406 Q441.625,629.9844 441.2813,630.3906 Q440.7813,630.9688 439.9844,631.2969 Q438.9063,631.75 437.6094,631.75 Q436.0938,631.75 434.8906,631.125 Q433.9063,630.625 433.2188,629.5625 Q432.5313,628.4844 432.5313,627.2031 L432.5313,626.0469 Q432.5313,624.7188 433.1406,623.5781 Q433.7656,622.4219 434.8594,621.8125 Q435.9531,621.1875 437.1875,621.1875 Q437.9219,621.1875 438.5625,621.3594 Q439.2188,621.5156 439.7656,621.875 Z " fill="#000000"/><text fill="#000000" font-family="FG Virgil" font-size="14" lengthAdjust="spacing" textLength="98" x="451" y="631.7285">MessageCodes</text><path d="M423,642 L423,642.2802 L432.8462,641.4476 L442.6923,642.2577 L452.5385,642.5329 L462.3846,641.0488 L472.2308,641.8964 L482.0769,641.4313 L491.9231,641.4887 L501.7692,641.9091 L511.6154,641.0782 L521.4615,642.7382 L531.3077,641.1596 L541.1538,641.7363 L551,642 " fill="#F1F1F1" style="stroke:#181818;stroke-width:0.5;"/><path d="M423,650 L423,650.2802 L432.8462,649.4476 L442.6923,650.2577 L452.5385,650.5329 L462.3846,649.0488 L472.2308,649.8964 L482.0769,649.4313 L491.9231,649.4887 L501.7692,649.9091 L511.6154,649.0782 L521.4615,650.7382 L531.3077,649.1596 L541.1538,649.7363 L551,650 " fill="#F1F1F1" style="stroke:#181818;stroke-width:0.5;"/></g><!--MD5=[346c153ea1a761a52c9f907c599df773]
link TcpSrv to TcpSrvThread--><g id="link_TcpSrv_TcpSrvThread"><path d="M359,66.2 L359.2802,66.2 L358.4476,75.4483 L359.2577,84.6967 L359.5329,93.945 L358.0488,103.1933 L358.8964,112.4417 L359,121.69 " fill="none" style="stroke:#181818;stroke-width:1.0;"/><polygon fill="#181818" points="359,126.76,359.064,126.7885,359.6738,124.9039,360.6589,123.1862,361.5217,121.4141,361.9827,119.4634,363,117.76,362.9817,117.7417,362.0995,118.4595,361.3096,119.2696,360.5839,120.1439,359.637,120.797,359,121.76,359.1305,121.8905,358.0514,120.8114,357.3534,120.1134,356.7018,119.4618,355.7798,118.5398,355,117.76,355.0208,117.7692,355.7903,119.5557,356.6544,121.3842,357.4728,123.1924,358.3784,125.0393,359,126.76" style="stroke:#181818;stroke-width:1.0;"/></g><!--MD5=[4cc9cb25688578dd172338218b1f267a]
link TcpSrvThread to SharedBoardServerController--><g id="link_TcpSrvThread_SharedBoardServerController"><path d="M301.34,203.05 L301.4915,203.2858 L292.8974,207.8186 L285.1913,213.7335 L277.1961,219.1983 L268.2498,223.1831 L260.564,229.1295 L252.1686,233.9716 L244.0556,239.2532 L236.1389,244.8402 L227.5457,249.3745 L220.2991,256.0044 L211.3017,259.9097 L203.4694,265.6282 L195.7794,271.5678 L187.2622,276.2205 L179.18,281.55 " fill="none" style="stroke:#181818;stroke-width:1.0;"/><polygon fill="#181818" points="174.63,284.47,174.6406,284.5393,176.5563,284.0361,178.5341,283.9389,180.4917,283.7095,182.3828,283.0453,184.3659,282.9829,184.3604,282.9576,183.2304,282.602,182.1282,282.374,181.0456,282.2346,179.8959,281.7896,178.8401,281.7727,179.0203,281.8122,178.8769,280.6226,179.2598,279.5483,179.7068,278.488,179.7803,277.3459,180.0503,276.2468,180.0693,276.2593,178.9573,277.8856,177.9319,279.5688,176.8647,281.2246,175.8771,282.9328,174.63,284.47" style="stroke:#181818;stroke-width:1.0;"/><text fill="#000000" font-family="FG Virgil" font-size="13" lengthAdjust="spacing" textLength="73" x="254" y="247.4951">theController</text></g><!--MD5=[2cc5fbfc40c40e5c078b9be8420c619e]
link TcpSrvThread to MessageFormat--><g id="link_TcpSrvThread_MessageFormat"><path d="M359,203.25 L359.2802,203.25 L358.4476,213.5843 L359.2577,223.9186 L359.5329,234.2529 L358.0488,244.5871 L358.8964,254.9214 L358.4313,265.2557 L359,275.59 " fill="none" style="stroke:#181818;stroke-width:1.0;"/><polygon fill="#181818" points="359,280.74,359.064,280.7685,359.6738,278.8839,360.6589,277.1662,361.5217,275.3941,361.9827,273.4434,363,271.74,362.9817,271.7217,362.0995,272.4395,361.3096,273.2496,360.5839,274.1239,359.637,274.777,359,275.74,359.1305,275.8705,358.0514,274.7914,357.3534,274.0934,356.7018,273.4418,355.7798,272.5198,355,271.74,355.0208,271.7492,355.7903,273.5357,356.6544,275.3642,357.4728,277.1724,358.3784,279.0193,359,280.74" style="stroke:#181818;stroke-width:1.0;"/><text fill="#000000" font-family="FG Virgil" font-size="13" lengthAdjust="spacing" textLength="14" x="360" y="247.4951">mf</text></g><!--MD5=[3c16a223381a2e87c9c68ed6f64d7581]
link SharedBoardServerController to SharedBoardServerService--><g id="link_SharedBoardServerController_SharedBoardServerService"><path d="M143.35,360.75 L143.5788,360.9119 L148.9479,368.9809 L155.6582,377.9988 L161.9317,386.7078 L166.769,394.4006 L173.5099,403.4402 L179.1791,411.7216 L185.2748,420.3047 L191.6669,429.0975 L197.79,437.7 " fill="none" style="stroke:#181818;stroke-width:1.0;"/><polygon fill="#181818" points="200.68,441.79,200.7487,441.8037,200.1596,439.8312,199.9732,437.939,199.6557,436.0207,198.9068,434.0164,198.7551,432.1311,198.7295,432.1267,198.423,433.2219,198.2452,434.3393,198.1569,435.4722,197.7603,436.5519,197.7955,437.706,197.8268,437.8878,196.6448,437.307,195.5543,437.2571,194.475,437.2721,193.3307,436.9101,192.2206,436.7463,192.2322,436.7659,193.907,437.7459,195.6348,438.8149,197.3371,439.841,199.0881,440.949,200.68,441.79" style="stroke:#181818;stroke-width:1.0;"/><text fill="#000000" font-family="FG Virgil" font-size="13" lengthAdjust="spacing" textLength="35" x="180" y="408.4951">sbSvc</text></g><!--MD5=[40b2c75570add07cdb3eb5258975f510]
link SharedBoardServerService to AuthenticationService--><g id="link_SharedBoardServerService_AuthenticationService"><path d="M227,518.18 L227.2802,518.18 L226.4476,528.5629 L227.2577,538.9457 L227.5329,549.3286 L226.0488,559.7114 L226.8964,570.0943 L226.4313,580.4771 L227,590.86 " fill="none" style="stroke:#181818;stroke-width:1.0;"/><polygon fill="#181818" points="227,595.94,227.064,595.9685,227.6738,594.0839,228.6589,592.3662,229.5217,590.5941,229.9827,588.6434,231,586.94,230.9817,586.9217,230.0995,587.6395,229.3096,588.4496,228.5839,589.3239,227.637,589.977,227,590.94,227.1305,591.0705,226.0514,589.9914,225.3534,589.2934,224.7018,588.6418,223.7798,587.7198,223,586.94,223.0208,586.9492,223.7903,588.7357,224.6544,590.5642,225.4728,592.3724,226.3784,594.2193,227,595.94" style="stroke:#181818;stroke-width:1.0;"/><text fill="#000000" font-family="FG Virgil" font-size="13" lengthAdjust="spacing" textLength="67" x="228" y="562.4951">authService</text></g><!--MD5=[9841d54edbadfca119dc63a4409545a2]
link TcpSrvThread to MessageCodes--><g id="link_TcpSrvThread_MessageCodes"><path d="M410.53,203.2 L410.5918,203.27 L412.1877,204.6342 L414.1461,206.4089 L415.9865,208.0499 L417.4386,209.2514 L419.4281,211.0612 L419.4043,211.0362 L421.0817,212.6175 L422.879,214.3251 L424.7596,216.1205 L426.3531,217.6134 L428.3488,219.53 L428.5253,219.7014 L429.903,221.1426 L431.7962,223.0843 L433.7522,225.087 L435.3424,226.7344 L437.125,228.5687 L437.1477,228.5888 L438.8074,230.4736 L440.5704,232.4498 L442.2836,234.3819 L444.092,236.3982 L445.59,238.14 L445.8236,238.3254 L447.4239,240.3409 L448.8734,242.2368 L450.5435,244.3078 L452.224,246.387 L453.5769,248.2062 L453.314,248.0229 L455.2926,250.4835 L456.4055,252.3404 L458.1766,254.6562 L459.2699,256.4994 L460.9188,258.73 L460.8926,258.7144 L462.5078,261.0876 L463.5121,263.0964 L464.8769,265.3202 L466.272,267.5621 L467.4488,269.6738 L467.6149,269.7552 L468.5574,271.9382 L469.7839,274.2604 L470.5511,276.3575 L472.0032,278.7904 L473,281 L473.2253,281.0928 L474.0538,283.189 L474.9942,285.3313 L475.415,287.2594 L476.2166,289.3445 L477.3558,291.5686 L477.0967,291.473 L478.1267,293.7145 L478.8647,295.8482 L480.0262,298.1383 L480.4647,300.1614 L481.3329,302.3432 L481.1881,302.2955 L482.1517,304.5664 L482.4963,306.6333 L483.2811,308.8453 L484.4966,311.1992 L484.9451,313.3003 L485.1309,313.3548 L485.9105,315.6155 L486.1122,317.7065 L487.0378,320.01 L487.8056,322.2671 L488.206,324.4165 L488.0028,324.3637 L488.7494,326.6561 L489.4295,328.9312 L490.2403,331.2403 L490.5428,333.4174 L491.1293,335.6682 L491.3297,335.714 L491.4092,337.8861 L491.8756,340.1466 L492.9071,342.5364 L492.8982,344.6882 L493.7287,347.032 L493.9505,347.0763 L494.2766,349.3404 L494.5276,351.5896 L494.948,353.8726 L495.7599,356.2338 L496.0178,358.4844 L495.8867,358.4617 L496.6756,360.8327 L496.5728,363.0495 L497.4838,365.4416 L497.824,367.7351 L498.0105,370.0019 L498.1182,370.0178 L498.3732,372.3168 L499.0138,374.6728 L499.3061,376.9773 L499.4527,379.2602 L499.7203,381.5611 L499.8385,381.5758 L499.9509,383.8694 L500.6125,386.2313 L500.6529,388.516 L500.9489,390.8324 L501.1609,393.1384 L500.8919,393.1109 L501.2187,395.4345 L501.8696,397.7913 L502.062,400.1011 L502.09,402.3941 L502.346,404.7105 L502.2033,404.6988 L502.4377,407.0112 L502.4194,409.303 L503.0958,411.6515 L503.4283,413.9719 L503.2894,416.2538 L503.5229,416.2684 L503.7407,418.5712 L503.5149,420.8465 L503.7572,423.1509 L503.6897,425.436 L504.0047,427.7449 L504.1308,427.7504 L504.2144,430.0328 L504.4503,432.3218 L504.2032,434.5897 L504.3457,436.8746 L504.5055,439.1603 L504.7025,439.1655 L504.8176,441.4302 L504.3979,443.6807 L504.5995,445.9477 L504.8119,448.215 L504.8057,450.4765 L504.5342,450.4737 L504.9853,452.7168 L504.9655,454.955 L504.8287,457.1921 L504.9593,459.4319 L504.9188,461.67 L505.2426,461.6718 L504.7676,463.8787 L505.0346,466.0897 L505.0096,468.2991 L504.922,470.5082 L504.8585,472.7174 L504.9211,472.7187 L504.8649,474.894 L504.4932,477.0629 L504.5484,479.2405 L504.4775,481.4155 L504.6386,483.5952 L504.6669,483.5963 L504.5049,487.8274 L504.3648,492.0593 L503.9909,496.2816 L503.9173,500.5162 L503.7745,504.748 L503.7212,504.7445 L503.7626,508.8036 L503.4283,512.8377 L502.7561,516.8494 L502.6714,520.9001 L502.436,524.9408 L502.1805,524.9179 L502.223,528.7612 L502.024,532.5828 L501.6551,536.3893 L500.8805,540.1594 L500.7327,543.9856 L500.9376,544.0083 L500.0128,547.4912 L500.0376,551.0791 L499.4252,554.5965 L499.2083,558.1577 L498.7739,561.6948 L498.8798,561.7085 L498.561,564.9589 L497.6147,568.1278 L497.7206,571.4334 L497.1686,574.6535 L496.6692,577.8804 L496.8254,577.9035 L496.5697,580.8239 L495.8151,583.6705 L495.4615,586.5764 L495.0501,589.4737 L494.528,592.3547 L494.6145,592.369 L494.1141,594.8697 L494.0125,597.4361 L493.0198,599.8559 L493.1215,602.4557 L492.46,604.93 " fill="none" style="stroke:#181818;stroke-width:1.0;stroke-dasharray:7.0,7.0;"/><polygon fill="#181818" points="491.59,609.92,491.6481,609.9592,492.5767,608.2096,493.8458,606.6896,495.004,605.0948,495.7976,603.2542,497.0959,601.7539,497.0811,601.7327,496.0873,602.2859,495.1685,602.9461,494.3017,603.6808,493.2555,604.159,492.4606,604.9964,492.6118,605.1022,491.6399,603.9489,491.1096,603.1044,490.6331,602.2977,489.8432,601.2717,489.2181,600.361,489.2402,600.3665,489.6821,602.2703,490.2246,604.1989,490.7186,606.1156,491.3051,608.0552,491.59,609.92" style="stroke:#181818;stroke-width:1.0;"/></g><!--MD5=[c6d4306b0ece11621ae5b45b7d4e9936]
link SharedBoardServerService to MessageCodes--><g id="link_SharedBoardServerService_MessageCodes"><path d="M290.6,518.18 L290.7414,518.4219 L298.7878,522.6531 L307.6634,528.3025 L316.269,533.49 L323.9866,537.1588 L332.881,542.8405 L341.113,547.3891 L349.6086,552.3886 L358.2875,557.7015 L366.3347,561.9342 L375.6392,568.3173 L383.3092,571.9045 L392.0669,577.3524 L400.9573,583.0272 L409.0756,587.3813 L417.6459,592.5085 L426.0452,597.3432 L434.6535,602.5355 L443,607.28 " fill="none" style="stroke:#181818;stroke-width:1.0;stroke-dasharray:7.0,7.0;"/><polygon fill="#181818" points="447.48,609.9,447.5369,609.9408,446.2194,608.2191,445.2355,606.7369,444.143,605.1766,442.6931,603.3599,441.7379,601.8982,441.7129,601.8917,441.886,602.957,442.1856,604.0554,442.573,605.1766,442.6576,606.2189,443.1663,607.3718,443.2129,607.5503,442.0185,607.4542,440.9602,607.8793,439.9185,608.3681,438.7802,608.4868,437.6927,608.8001,437.6953,608.8228,439.649,609.0095,441.6143,609.2992,443.574,609.5393,445.5444,609.874,447.48,609.9" style="stroke:#181818;stroke-width:1.0;"/></g><!--MD5=[0726717021db3d22c95a58782fa0b786]
@startuml
'http://plantuml.com/skinparam.html
skinparam handwritten true
skinparam monochrome true
skinparam packageStyle rect
skinparam defaultFontName FG Virgil
skinparam shadowing false


class TcpSrv <<thread>>
class TcpSrvThread <<runnable>>
class SharedBoardServerController <<application>>
class SharedBoardServerService <<service>>
class AuthenticationService <<service>>
class MessageFormat
class MessageCodes

TcpSrv - -> TcpSrvThread
TcpSrvThread - -> SharedBoardServerController: theController
TcpSrvThread - -> MessageFormat: mf
SharedBoardServerController - -> SharedBoardServerService: sbSvc
SharedBoardServerService - -> AuthenticationService: authService
TcpSrvThread ..> MessageCodes
SharedBoardServerService ..> MessageCodes

TcpSrvThread : run()
SharedBoardServerController : authenticate(Message)
SharedBoardServerService : authenticateUser(String)
AuthenticationService : authenticate(String, String, Role...)
MessageFormat : sendMessage(int, int, String)
MessageFormat : readMessage()

@enduml

@startuml
skinparam handwritten true
skinparam monochrome true
skinparam packageStyle rect
skinparam defaultFontName FG Virgil
skinparam shadowing false


class TcpSrv <<thread>>
class TcpSrvThread <<runnable>>
class SharedBoardServerController <<application>>
class SharedBoardServerService <<service>>
class AuthenticationService <<service>>
class MessageFormat
class MessageCodes

TcpSrv - -> TcpSrvThread
TcpSrvThread - -> SharedBoardServerController: theController
TcpSrvThread - -> MessageFormat: mf
SharedBoardServerController - -> SharedBoardServerService: sbSvc
SharedBoardServerService - -> AuthenticationService: authService
TcpSrvThread ..> MessageCodes
SharedBoardServerService ..> MessageCodes

TcpSrvThread : run()
SharedBoardServerController : authenticate(Message)
SharedBoardServerService : authenticateUser(String)
AuthenticationService : authenticate(String, String, Role...)
MessageFormat : sendMessage(int, int, String)
MessageFormat : readMessage()

@enduml

PlantUML version 1.2022.7(Mon Aug 22 18:01:30 BST 2022)
(GPL source distribution)
Java Runtime: Java(TM) SE Runtime Environment
JVM: Java HotSpot(TM) 64-Bit Server VM
Default Encoding: Cp1252
Language: pt
Country: PT
--></g></svg>