<?xml version="1.0" encoding="us-ascii" standalone="no"?><svg xmlns="http://www.w3.org/2000/svg" xmlns:xlink="http://www.w3.org/1999/xlink" contentStyleType="text/css" height="1178px" preserveAspectRatio="none" style="width:2055px;height:1178px;background:#FFFFFF;" version="1.1" viewBox="0 0 2055 1178" width="2055px" zoomAndPan="magnify"><defs/><g><rect fill="#FFFFFF" height="963.3125" style="stroke:#181818;stroke-width:1.0;" width="10" x="31" y="98.2422"/><rect fill="#FFFFFF" height="31.291" style="stroke:#181818;stroke-width:1.0;" width="10" x="268" y="121.5332"/><rect fill="#FFFFFF" height="860.1484" style="stroke:#181818;stroke-width:1.0;" width="10" x="268" y="201.4063"/><rect fill="#FFFFFF" height="780.2754" style="stroke:#181818;stroke-width:1.0;" width="10" x="571" y="249.9883"/><rect fill="#FFFFFF" height="199.7461" style="stroke:#181818;stroke-width:1.0;" width="10" x="888" y="580.1895"/><rect fill="#FFFFFF" height="119.873" style="stroke:#181818;stroke-width:1.0;" width="10" x="1164" y="628.7715"/><rect fill="#FFFFFF" height="62.582" style="stroke:#181818;stroke-width:1.0;" width="10" x="1598" y="312.5703"/><rect fill="#FFFFFF" height="62.582" style="stroke:#181818;stroke-width:1.0;" width="10" x="1598" y="811.2266"/><rect fill="#FFFFFF" height="62.582" style="stroke:#181818;stroke-width:1.0;" width="10" x="1741" y="406.4434"/><rect fill="#FFFFFF" height="62.582" style="stroke:#181818;stroke-width:1.0;" width="10" x="1741" y="905.0996"/><rect fill="#FFFFFF" height="31.291" style="stroke:#181818;stroke-width:1.0;" width="10" x="1867.5" y="500.3164"/><line style="stroke:#181818;stroke-width:0.5;stroke-dasharray:5.0,5.0;" x1="36" x2="36" y1="88.2422" y2="1079.5547"/><line style="stroke:#181818;stroke-width:0.5;stroke-dasharray:5.0,5.0;" x1="272.5" x2="272.5" y1="88.2422" y2="1079.5547"/><line style="stroke:#181818;stroke-width:0.5;stroke-dasharray:5.0,5.0;" x1="575.5" x2="575.5" y1="88.2422" y2="1079.5547"/><line style="stroke:#181818;stroke-width:0.5;stroke-dasharray:5.0,5.0;" x1="893" x2="893" y1="88.2422" y2="1079.5547"/><line style="stroke:#181818;stroke-width:0.5;stroke-dasharray:5.0,5.0;" x1="1168.5" x2="1168.5" y1="88.2422" y2="1079.5547"/><line style="stroke:#181818;stroke-width:0.5;stroke-dasharray:5.0,5.0;" x1="1603" x2="1603" y1="88.2422" y2="1079.5547"/><line style="stroke:#181818;stroke-width:0.5;stroke-dasharray:5.0,5.0;" x1="1746" x2="1746" y1="88.2422" y2="1079.5547"/><line style="stroke:#181818;stroke-width:0.5;stroke-dasharray:5.0,5.0;" x1="1872" x2="1872" y1="88.2422" y2="1079.5547"/><line style="stroke:#181818;stroke-width:0.5;stroke-dasharray:5.0,5.0;" x1="1994" x2="1994" y1="88.2422" y2="1079.5547"/><text fill="#000000" font-family="sans-serif" font-size="14" lengthAdjust="spacing" textLength="56" x="5" y="84.7285">Manager</text><ellipse cx="36" cy="18.1211" fill="#E2E2F0" rx="8" ry="8" style="stroke:#181818;stroke-width:0.5;"/><path d="M36,26.1211 L36,53.1211 M23,34.1211 L49,34.1211 M36,53.1211 L23,68.1211 M36,53.1211 L49,68.1211 " fill="none" style="stroke:#181818;stroke-width:0.5;"/><text fill="#000000" font-family="sans-serif" font-size="14" lengthAdjust="spacing" textLength="56" x="5" y="1093.6621">Manager</text><ellipse cx="36" cy="1105.6758" fill="#E2E2F0" rx="8" ry="8" style="stroke:#181818;stroke-width:0.5;"/><path d="M36,1113.6758 L36,1140.6758 M23,1121.6758 L49,1121.6758 M36,1140.6758 L23,1155.6758 M36,1140.6758 L49,1155.6758 " fill="none" style="stroke:#181818;stroke-width:0.5;"/><rect fill="#E2E2F0" height="51.2422" rx="2.5" ry="2.5" style="stroke:#181818;stroke-width:0.5;" width="115" x="215.5" y="36"/><text fill="#000000" font-family="sans-serif" font-size="14" font-style="italic" lengthAdjust="spacing" textLength="95" x="225.5" y="58.1074">&#171;presentation&#187;</text><text fill="#000000" font-family="sans-serif" font-size="14" lengthAdjust="spacing" textLength="101" x="222.5" y="76.7285">CreateCourseUI</text><rect fill="#E2E2F0" height="51.2422" rx="2.5" ry="2.5" style="stroke:#181818;stroke-width:0.5;" width="115" x="215.5" y="1078.5547"/><text fill="#000000" font-family="sans-serif" font-size="14" font-style="italic" lengthAdjust="spacing" textLength="95" x="225.5" y="1100.6621">&#171;presentation&#187;</text><text fill="#000000" font-family="sans-serif" font-size="14" lengthAdjust="spacing" textLength="101" x="222.5" y="1119.2832">CreateCourseUI</text><rect fill="#E2E2F0" height="51.2422" rx="2.5" ry="2.5" style="stroke:#181818;stroke-width:0.5;" width="165" x="493.5" y="36"/><text fill="#000000" font-family="sans-serif" font-size="14" font-style="italic" lengthAdjust="spacing" textLength="84" x="534" y="58.1074">&#171;application&#187;</text><text fill="#000000" font-family="sans-serif" font-size="14" lengthAdjust="spacing" textLength="151" x="500.5" y="76.7285">CreateCourseController</text><rect fill="#E2E2F0" height="51.2422" rx="2.5" ry="2.5" style="stroke:#181818;stroke-width:0.5;" width="165" x="493.5" y="1078.5547"/><text fill="#000000" font-family="sans-serif" font-size="14" font-style="italic" lengthAdjust="spacing" textLength="84" x="534" y="1100.6621">&#171;application&#187;</text><text fill="#000000" font-family="sans-serif" font-size="14" lengthAdjust="spacing" textLength="151" x="500.5" y="1119.2832">CreateCourseController</text><rect fill="#E2E2F0" height="51.2422" rx="2.5" ry="2.5" style="stroke:#181818;stroke-width:0.5;" width="150" x="818" y="36"/><text fill="#000000" font-family="sans-serif" font-size="14" font-style="italic" lengthAdjust="spacing" textLength="60" x="863" y="58.1074">&#171;service&#187;</text><text fill="#000000" font-family="sans-serif" font-size="14" lengthAdjust="spacing" textLength="136" x="825" y="76.7285">CreateCourseService</text><rect fill="#E2E2F0" height="51.2422" rx="2.5" ry="2.5" style="stroke:#181818;stroke-width:0.5;" width="150" x="818" y="1078.5547"/><text fill="#000000" font-family="sans-serif" font-size="14" font-style="italic" lengthAdjust="spacing" textLength="60" x="863" y="1100.6621">&#171;service&#187;</text><text fill="#000000" font-family="sans-serif" font-size="14" lengthAdjust="spacing" textLength="136" x="825" y="1119.2832">CreateCourseService</text><rect fill="#E2E2F0" height="51.2422" rx="2.5" ry="2.5" style="stroke:#181818;stroke-width:0.5;" width="73" x="1132.5" y="36"/><text fill="#000000" font-family="sans-serif" font-size="14" font-style="italic" lengthAdjust="spacing" textLength="59" x="1139.5" y="58.1074">&#171;course&#187;</text><text fill="#000000" font-family="sans-serif" font-size="14" lengthAdjust="spacing" textLength="46" x="1146" y="76.7285">Course</text><rect fill="#E2E2F0" height="51.2422" rx="2.5" ry="2.5" style="stroke:#181818;stroke-width:0.5;" width="73" x="1132.5" y="1078.5547"/><text fill="#000000" font-family="sans-serif" font-size="14" font-style="italic" lengthAdjust="spacing" textLength="59" x="1139.5" y="1100.6621">&#171;course&#187;</text><text fill="#000000" font-family="sans-serif" font-size="14" lengthAdjust="spacing" textLength="46" x="1146" y="1119.2832">Course</text><rect fill="#E2E2F0" height="51.2422" rx="2.5" ry="2.5" style="stroke:#181818;stroke-width:0.5;" width="136" x="1535" y="36"/><text fill="#000000" font-family="sans-serif" font-size="14" font-style="italic" lengthAdjust="spacing" textLength="89" x="1558.5" y="58.1074">&#171;persistence&#187;</text><text fill="#000000" font-family="sans-serif" font-size="14" lengthAdjust="spacing" textLength="122" x="1542" y="76.7285">PersistenceContext</text><rect fill="#E2E2F0" height="51.2422" rx="2.5" ry="2.5" style="stroke:#181818;stroke-width:0.5;" width="136" x="1535" y="1078.5547"/><text fill="#000000" font-family="sans-serif" font-size="14" font-style="italic" lengthAdjust="spacing" textLength="89" x="1558.5" y="1100.6621">&#171;persistence&#187;</text><text fill="#000000" font-family="sans-serif" font-size="14" lengthAdjust="spacing" textLength="122" x="1542" y="1119.2832">PersistenceContext</text><rect fill="#E2E2F0" height="51.2422" rx="2.5" ry="2.5" style="stroke:#181818;stroke-width:0.5;" width="130" x="1681" y="36"/><text fill="#000000" font-family="sans-serif" font-size="14" font-style="italic" lengthAdjust="spacing" textLength="59" x="1716.5" y="58.1074">&#171;factory&#187;</text><text fill="#000000" font-family="sans-serif" font-size="14" lengthAdjust="spacing" textLength="116" x="1688" y="76.7285">RepositoryFactory</text><rect fill="#E2E2F0" height="51.2422" rx="2.5" ry="2.5" style="stroke:#181818;stroke-width:0.5;" width="130" x="1681" y="1078.5547"/><text fill="#000000" font-family="sans-serif" font-size="14" font-style="italic" lengthAdjust="spacing" textLength="59" x="1716.5" y="1100.6621">&#171;factory&#187;</text><text fill="#000000" font-family="sans-serif" font-size="14" lengthAdjust="spacing" textLength="116" x="1688" y="1119.2832">RepositoryFactory</text><text fill="#000000" font-family="sans-serif" font-size="14" font-style="italic" lengthAdjust="spacing" textLength="79" x="1830" y="66.1074">&#171;repository&#187;</text><text fill="#000000" font-family="sans-serif" font-size="14" lengthAdjust="spacing" textLength="97" x="1821" y="84.7285">UserRepository</text><path d="M1854.5,15 C1854.5,5 1872.5,5 1872.5,5 C1872.5,5 1890.5,5 1890.5,15 L1890.5,41 C1890.5,51 1872.5,51 1872.5,51 C1872.5,51 1854.5,51 1854.5,41 L1854.5,15 " fill="#E2E2F0" style="stroke:#181818;stroke-width:1.5;"/><path d="M1854.5,15 C1854.5,25 1872.5,25 1872.5,25 C1872.5,25 1890.5,25 1890.5,15 " fill="none" style="stroke:#181818;stroke-width:1.5;"/><text fill="#000000" font-family="sans-serif" font-size="14" font-style="italic" lengthAdjust="spacing" textLength="79" x="1830" y="1093.6621">&#171;repository&#187;</text><text fill="#000000" font-family="sans-serif" font-size="14" lengthAdjust="spacing" textLength="97" x="1821" y="1112.2832">UserRepository</text><path d="M1854.5,1125.7969 C1854.5,1115.7969 1872.5,1115.7969 1872.5,1115.7969 C1872.5,1115.7969 1890.5,1115.7969 1890.5,1125.7969 L1890.5,1151.7969 C1890.5,1161.7969 1872.5,1161.7969 1872.5,1161.7969 C1872.5,1161.7969 1854.5,1161.7969 1854.5,1151.7969 L1854.5,1125.7969 " fill="#E2E2F0" style="stroke:#181818;stroke-width:1.5;"/><path d="M1854.5,1125.7969 C1854.5,1135.7969 1872.5,1135.7969 1872.5,1135.7969 C1872.5,1135.7969 1890.5,1135.7969 1890.5,1125.7969 " fill="none" style="stroke:#181818;stroke-width:1.5;"/><text fill="#000000" font-family="sans-serif" font-size="14" font-style="italic" lengthAdjust="spacing" textLength="79" x="1951.5" y="66.1074">&#171;repository&#187;</text><text fill="#000000" font-family="sans-serif" font-size="14" lengthAdjust="spacing" textLength="114" x="1934" y="84.7285">CourseRepository</text><path d="M1976,15 C1976,5 1994,5 1994,5 C1994,5 2012,5 2012,15 L2012,41 C2012,51 1994,51 1994,51 C1994,51 1976,51 1976,41 L1976,15 " fill="#E2E2F0" style="stroke:#181818;stroke-width:1.5;"/><path d="M1976,15 C1976,25 1994,25 1994,25 C1994,25 2012,25 2012,15 " fill="none" style="stroke:#181818;stroke-width:1.5;"/><text fill="#000000" font-family="sans-serif" font-size="14" font-style="italic" lengthAdjust="spacing" textLength="79" x="1951.5" y="1093.6621">&#171;repository&#187;</text><text fill="#000000" font-family="sans-serif" font-size="14" lengthAdjust="spacing" textLength="114" x="1934" y="1112.2832">CourseRepository</text><path d="M1976,1125.7969 C1976,1115.7969 1994,1115.7969 1994,1115.7969 C1994,1115.7969 2012,1115.7969 2012,1125.7969 L2012,1151.7969 C2012,1161.7969 1994,1161.7969 1994,1161.7969 C1994,1161.7969 1976,1161.7969 1976,1151.7969 L1976,1125.7969 " fill="#E2E2F0" style="stroke:#181818;stroke-width:1.5;"/><path d="M1976,1125.7969 C1976,1135.7969 1994,1135.7969 1994,1135.7969 C1994,1135.7969 2012,1135.7969 2012,1125.7969 " fill="none" style="stroke:#181818;stroke-width:1.5;"/><rect fill="#FFFFFF" height="963.3125" style="stroke:#181818;stroke-width:1.0;" width="10" x="31" y="98.2422"/><rect fill="#FFFFFF" height="31.291" style="stroke:#181818;stroke-width:1.0;" width="10" x="268" y="121.5332"/><rect fill="#FFFFFF" height="860.1484" style="stroke:#181818;stroke-width:1.0;" width="10" x="268" y="201.4063"/><rect fill="#FFFFFF" height="780.2754" style="stroke:#181818;stroke-width:1.0;" width="10" x="571" y="249.9883"/><rect fill="#FFFFFF" height="199.7461" style="stroke:#181818;stroke-width:1.0;" width="10" x="888" y="580.1895"/><rect fill="#FFFFFF" height="119.873" style="stroke:#181818;stroke-width:1.0;" width="10" x="1164" y="628.7715"/><rect fill="#FFFFFF" height="62.582" style="stroke:#181818;stroke-width:1.0;" width="10" x="1598" y="312.5703"/><rect fill="#FFFFFF" height="62.582" style="stroke:#181818;stroke-width:1.0;" width="10" x="1598" y="811.2266"/><rect fill="#FFFFFF" height="62.582" style="stroke:#181818;stroke-width:1.0;" width="10" x="1741" y="406.4434"/><rect fill="#FFFFFF" height="62.582" style="stroke:#181818;stroke-width:1.0;" width="10" x="1741" y="905.0996"/><rect fill="#FFFFFF" height="31.291" style="stroke:#181818;stroke-width:1.0;" width="10" x="1867.5" y="500.3164"/><polygon fill="#181818" points="256,117.5332,266,121.5332,256,125.5332,260,121.5332" style="stroke:#181818;stroke-width:1.0;"/><line style="stroke:#181818;stroke-width:1.0;" x1="41" x2="262" y1="121.5332" y2="121.5332"/><text fill="#000000" font-family="sans-serif" font-size="13" font-weight="bold" lengthAdjust="spacing" textLength="7" x="48" y="116.2705">1</text><text fill="#000000" font-family="sans-serif" font-size="13" lengthAdjust="spacing" textLength="66" x="59" y="116.2705">Add course</text><polygon fill="#181818" points="52,148.8242,42,152.8242,52,156.8242,48,152.8242" style="stroke:#181818;stroke-width:1.0;"/><line style="stroke:#181818;stroke-width:1.0;stroke-dasharray:2.0,2.0;" x1="46" x2="272" y1="152.8242" y2="152.8242"/><text fill="#000000" font-family="sans-serif" font-size="13" font-weight="bold" lengthAdjust="spacing" textLength="7" x="58" y="147.5615">2</text><text fill="#000000" font-family="sans-serif" font-size="13" lengthAdjust="spacing" textLength="187" x="69" y="147.5615">asks for the course's information</text><polygon fill="#181818" points="256,197.4063,266,201.4063,256,205.4063,260,201.4063" style="stroke:#181818;stroke-width:1.0;"/><line style="stroke:#181818;stroke-width:1.0;" x1="41" x2="262" y1="201.4063" y2="201.4063"/><text fill="#000000" font-family="sans-serif" font-size="13" font-weight="bold" lengthAdjust="spacing" textLength="7" x="48" y="187.498">3</text><text fill="#000000" font-family="sans-serif" font-size="13" lengthAdjust="spacing" textLength="197" x="59" y="178.8525">Edition, Code, Name, Description,</text><text fill="#000000" font-family="sans-serif" font-size="13" lengthAdjust="spacing" textLength="186" x="59" y="196.1436">Maximum, Minimum, UserEmail</text><polygon fill="#181818" points="559,245.9883,569,249.9883,559,253.9883,563,249.9883" style="stroke:#181818;stroke-width:1.0;"/><line style="stroke:#181818;stroke-width:1.0;" x1="278" x2="565" y1="249.9883" y2="249.9883"/><text fill="#000000" font-family="sans-serif" font-size="13" font-weight="bold" lengthAdjust="spacing" textLength="7" x="285" y="236.0801">4</text><text fill="#000000" font-family="sans-serif" font-size="13" lengthAdjust="spacing" textLength="199" x="296" y="227.4346">createCourse(edition, code, name,</text><text fill="#000000" font-family="sans-serif" font-size="13" lengthAdjust="spacing" textLength="259" x="300" y="244.7256">description, maximum, minimum, userEmail)</text><polygon fill="#181818" points="881,277.2793,891,281.2793,881,285.2793,885,281.2793" style="stroke:#181818;stroke-width:1.0;"/><line style="stroke:#181818;stroke-width:1.0;" x1="581" x2="887" y1="281.2793" y2="281.2793"/><text fill="#000000" font-family="sans-serif" font-size="13" font-weight="bold" lengthAdjust="spacing" textLength="7" x="588" y="276.0166">5</text><text fill="#000000" font-family="sans-serif" font-size="13" lengthAdjust="spacing" textLength="36" x="599" y="276.0166">create</text><polygon fill="#181818" points="1586,308.5703,1596,312.5703,1586,316.5703,1590,312.5703" style="stroke:#181818;stroke-width:1.0;"/><line style="stroke:#181818;stroke-width:1.0;" x1="581" x2="1592" y1="312.5703" y2="312.5703"/><text fill="#000000" font-family="sans-serif" font-size="13" font-weight="bold" lengthAdjust="spacing" textLength="7" x="588" y="307.3076">6</text><text fill="#000000" font-family="sans-serif" font-size="13" lengthAdjust="spacing" textLength="75" x="599" y="307.3076">repositories()</text><polygon fill="#181818" points="1734,339.8613,1744,343.8613,1734,347.8613,1738,343.8613" style="stroke:#181818;stroke-width:1.0;"/><line style="stroke:#181818;stroke-width:1.0;" x1="1608" x2="1740" y1="343.8613" y2="343.8613"/><text fill="#000000" font-family="sans-serif" font-size="13" font-weight="bold" lengthAdjust="spacing" textLength="7" x="1615" y="338.5986">7</text><text fill="#000000" font-family="sans-serif" font-size="13" lengthAdjust="spacing" textLength="18" x="1626" y="338.5986">get</text><polygon fill="#181818" points="592,371.1523,582,375.1523,592,379.1523,588,375.1523" style="stroke:#181818;stroke-width:1.0;"/><line style="stroke:#181818;stroke-width:1.0;" x1="586" x2="1602" y1="375.1523" y2="375.1523"/><text fill="#000000" font-family="sans-serif" font-size="13" font-weight="bold" lengthAdjust="spacing" textLength="7" x="598" y="369.8896">8</text><text fill="#000000" font-family="sans-serif" font-size="13" lengthAdjust="spacing" textLength="39" x="609" y="369.8896">factory</text><polygon fill="#181818" points="1729,402.4434,1739,406.4434,1729,410.4434,1733,406.4434" style="stroke:#181818;stroke-width:1.0;"/><line style="stroke:#181818;stroke-width:1.0;" x1="581" x2="1735" y1="406.4434" y2="406.4434"/><text fill="#000000" font-family="sans-serif" font-size="13" font-weight="bold" lengthAdjust="spacing" textLength="7" x="588" y="401.1807">9</text><text fill="#000000" font-family="sans-serif" font-size="13" lengthAdjust="spacing" textLength="40" x="599" y="401.1807">users()</text><polygon fill="#181818" points="1860.5,433.7344,1870.5,437.7344,1860.5,441.7344,1864.5,437.7344" style="stroke:#181818;stroke-width:1.0;"/><line style="stroke:#181818;stroke-width:1.0;" x1="1751" x2="1866.5" y1="437.7344" y2="437.7344"/><text fill="#000000" font-family="sans-serif" font-size="13" font-weight="bold" lengthAdjust="spacing" textLength="14" x="1758" y="432.4717">10</text><text fill="#000000" font-family="sans-serif" font-size="13" lengthAdjust="spacing" textLength="18" x="1776" y="432.4717">get</text><polygon fill="#181818" points="592,465.0254,582,469.0254,592,473.0254,588,469.0254" style="stroke:#181818;stroke-width:1.0;"/><line style="stroke:#181818;stroke-width:1.0;" x1="586" x2="1745" y1="469.0254" y2="469.0254"/><text fill="#000000" font-family="sans-serif" font-size="13" font-weight="bold" lengthAdjust="spacing" textLength="14" x="598" y="463.7627">11</text><text fill="#000000" font-family="sans-serif" font-size="13" lengthAdjust="spacing" textLength="32" x="616" y="463.7627">users</text><polygon fill="#181818" points="1855.5,496.3164,1865.5,500.3164,1855.5,504.3164,1859.5,500.3164" style="stroke:#181818;stroke-width:1.0;"/><line style="stroke:#181818;stroke-width:1.0;" x1="581" x2="1861.5" y1="500.3164" y2="500.3164"/><text fill="#000000" font-family="sans-serif" font-size="13" font-weight="bold" lengthAdjust="spacing" textLength="14" x="588" y="495.0537">12</text><text fill="#000000" font-family="sans-serif" font-size="13" lengthAdjust="spacing" textLength="162" x="606" y="495.0537">findUserByEmail(userEmail)</text><polygon fill="#181818" points="592,527.6074,582,531.6074,592,535.6074,588,531.6074" style="stroke:#181818;stroke-width:1.0;"/><line style="stroke:#181818;stroke-width:1.0;" x1="586" x2="1871.5" y1="531.6074" y2="531.6074"/><text fill="#000000" font-family="sans-serif" font-size="13" font-weight="bold" lengthAdjust="spacing" textLength="14" x="598" y="526.3447">13</text><text fill="#000000" font-family="sans-serif" font-size="13" lengthAdjust="spacing" textLength="25" x="616" y="526.3447">user</text><polygon fill="#181818" points="876,576.1895,886,580.1895,876,584.1895,880,580.1895" style="stroke:#181818;stroke-width:1.0;"/><line style="stroke:#181818;stroke-width:1.0;" x1="581" x2="882" y1="580.1895" y2="580.1895"/><text fill="#000000" font-family="sans-serif" font-size="13" font-weight="bold" lengthAdjust="spacing" textLength="14" x="588" y="566.2813">14</text><text fill="#000000" font-family="sans-serif" font-size="13" lengthAdjust="spacing" textLength="270" x="606" y="557.6357">createCourse(edition, code, name, description,</text><text fill="#000000" font-family="sans-serif" font-size="13" lengthAdjust="spacing" textLength="155" x="606" y="574.9268">maximum, minimum, user)</text><polygon fill="#181818" points="1152,624.7715,1162,628.7715,1152,632.7715,1156,628.7715" style="stroke:#181818;stroke-width:1.0;"/><line style="stroke:#181818;stroke-width:1.0;" x1="898" x2="1158" y1="628.7715" y2="628.7715"/><text fill="#000000" font-family="sans-serif" font-size="13" font-weight="bold" lengthAdjust="spacing" textLength="14" x="905" y="614.8633">15</text><text fill="#000000" font-family="sans-serif" font-size="13" lengthAdjust="spacing" textLength="229" x="923" y="606.2178">create(name, code, edition, description,</text><text fill="#000000" font-family="sans-serif" font-size="13" lengthAdjust="spacing" textLength="188" x="923" y="623.5088">maximum, minimum, userEmail)</text><line style="stroke:#181818;stroke-width:1.0;" x1="1174" x2="1216" y1="660.0625" y2="660.0625"/><line style="stroke:#181818;stroke-width:1.0;" x1="1216" x2="1216" y1="660.0625" y2="673.0625"/><line style="stroke:#181818;stroke-width:1.0;" x1="1175" x2="1216" y1="673.0625" y2="673.0625"/><polygon fill="#181818" points="1185,669.0625,1175,673.0625,1185,677.0625,1181,673.0625" style="stroke:#181818;stroke-width:1.0;"/><text fill="#000000" font-family="sans-serif" font-size="13" font-weight="bold" lengthAdjust="spacing" textLength="14" x="1181" y="654.7998">16</text><text fill="#000000" font-family="sans-serif" font-size="13" lengthAdjust="spacing" textLength="392" x="1199" y="654.7998">necessaryParameters(name, code,edition, maximum, headTeacher)</text><line style="stroke:#181818;stroke-width:1.0;" x1="1174" x2="1216" y1="704.3535" y2="704.3535"/><line style="stroke:#181818;stroke-width:1.0;" x1="1216" x2="1216" y1="704.3535" y2="717.3535"/><line style="stroke:#181818;stroke-width:1.0;" x1="1175" x2="1216" y1="717.3535" y2="717.3535"/><polygon fill="#181818" points="1185,713.3535,1175,717.3535,1185,721.3535,1181,717.3535" style="stroke:#181818;stroke-width:1.0;"/><text fill="#000000" font-family="sans-serif" font-size="13" font-weight="bold" lengthAdjust="spacing" textLength="14" x="1181" y="699.0908">17</text><text fill="#000000" font-family="sans-serif" font-size="13" lengthAdjust="spacing" textLength="215" x="1199" y="699.0908">validateMaxMin(maximum, minimum)</text><polygon fill="#181818" points="909,744.6445,899,748.6445,909,752.6445,905,748.6445" style="stroke:#181818;stroke-width:1.0;"/><line style="stroke:#181818;stroke-width:1.0;" x1="903" x2="1168" y1="748.6445" y2="748.6445"/><text fill="#000000" font-family="sans-serif" font-size="13" font-weight="bold" lengthAdjust="spacing" textLength="14" x="915" y="743.3818">18</text><text fill="#000000" font-family="sans-serif" font-size="13" lengthAdjust="spacing" textLength="39" x="933" y="743.3818">course</text><polygon fill="#181818" points="592,775.9355,582,779.9355,592,783.9355,588,779.9355" style="stroke:#181818;stroke-width:1.0;"/><line style="stroke:#181818;stroke-width:1.0;" x1="586" x2="892" y1="779.9355" y2="779.9355"/><text fill="#000000" font-family="sans-serif" font-size="13" font-weight="bold" lengthAdjust="spacing" textLength="14" x="598" y="774.6729">19</text><text fill="#000000" font-family="sans-serif" font-size="13" lengthAdjust="spacing" textLength="39" x="616" y="774.6729">course</text><polygon fill="#181818" points="1586,807.2266,1596,811.2266,1586,815.2266,1590,811.2266" style="stroke:#181818;stroke-width:1.0;"/><line style="stroke:#181818;stroke-width:1.0;" x1="581" x2="1592" y1="811.2266" y2="811.2266"/><text fill="#000000" font-family="sans-serif" font-size="13" font-weight="bold" lengthAdjust="spacing" textLength="14" x="588" y="805.9639">20</text><text fill="#000000" font-family="sans-serif" font-size="13" lengthAdjust="spacing" textLength="75" x="606" y="805.9639">repositories()</text><polygon fill="#181818" points="1734,838.5176,1744,842.5176,1734,846.5176,1738,842.5176" style="stroke:#181818;stroke-width:1.0;"/><line style="stroke:#181818;stroke-width:1.0;" x1="1608" x2="1740" y1="842.5176" y2="842.5176"/><text fill="#000000" font-family="sans-serif" font-size="13" font-weight="bold" lengthAdjust="spacing" textLength="14" x="1615" y="837.2549">21</text><text fill="#000000" font-family="sans-serif" font-size="13" lengthAdjust="spacing" textLength="36" x="1633" y="837.2549">create</text><polygon fill="#181818" points="592,869.8086,582,873.8086,592,877.8086,588,873.8086" style="stroke:#181818;stroke-width:1.0;"/><line style="stroke:#181818;stroke-width:1.0;" x1="586" x2="1602" y1="873.8086" y2="873.8086"/><text fill="#000000" font-family="sans-serif" font-size="13" font-weight="bold" lengthAdjust="spacing" textLength="14" x="598" y="868.5459">22</text><text fill="#000000" font-family="sans-serif" font-size="13" lengthAdjust="spacing" textLength="39" x="616" y="868.5459">factory</text><polygon fill="#181818" points="1729,901.0996,1739,905.0996,1729,909.0996,1733,905.0996" style="stroke:#181818;stroke-width:1.0;"/><line style="stroke:#181818;stroke-width:1.0;" x1="581" x2="1735" y1="905.0996" y2="905.0996"/><text fill="#000000" font-family="sans-serif" font-size="13" font-weight="bold" lengthAdjust="spacing" textLength="14" x="588" y="899.8369">23</text><text fill="#000000" font-family="sans-serif" font-size="13" lengthAdjust="spacing" textLength="54" x="606" y="899.8369">courses()</text><polygon fill="#181818" points="1982,932.3906,1992,936.3906,1982,940.3906,1986,936.3906" style="stroke:#181818;stroke-width:1.0;"/><line style="stroke:#181818;stroke-width:1.0;" x1="1751" x2="1988" y1="936.3906" y2="936.3906"/><text fill="#000000" font-family="sans-serif" font-size="13" font-weight="bold" lengthAdjust="spacing" textLength="14" x="1758" y="931.1279">24</text><text fill="#000000" font-family="sans-serif" font-size="13" lengthAdjust="spacing" textLength="36" x="1776" y="931.1279">create</text><polygon fill="#181818" points="592,963.6816,582,967.6816,592,971.6816,588,967.6816" style="stroke:#181818;stroke-width:1.0;"/><line style="stroke:#181818;stroke-width:1.0;" x1="586" x2="1745" y1="967.6816" y2="967.6816"/><text fill="#000000" font-family="sans-serif" font-size="13" font-weight="bold" lengthAdjust="spacing" textLength="14" x="598" y="962.4189">25</text><text fill="#000000" font-family="sans-serif" font-size="13" lengthAdjust="spacing" textLength="101" x="616" y="962.4189">courseRepository</text><polygon fill="#181818" points="1982,994.9727,1992,998.9727,1982,1002.9727,1986,998.9727" style="stroke:#181818;stroke-width:1.0;"/><line style="stroke:#181818;stroke-width:1.0;" x1="581" x2="1988" y1="998.9727" y2="998.9727"/><text fill="#000000" font-family="sans-serif" font-size="13" font-weight="bold" lengthAdjust="spacing" textLength="14" x="588" y="993.71">26</text><text fill="#000000" font-family="sans-serif" font-size="13" lengthAdjust="spacing" textLength="73" x="606" y="993.71">save(course)</text><polygon fill="#181818" points="289,1026.2637,279,1030.2637,289,1034.2637,285,1030.2637" style="stroke:#181818;stroke-width:1.0;"/><line style="stroke:#181818;stroke-width:1.0;" x1="283" x2="575" y1="1030.2637" y2="1030.2637"/><text fill="#000000" font-family="sans-serif" font-size="13" font-weight="bold" lengthAdjust="spacing" textLength="14" x="295" y="1025.001">27</text><text fill="#000000" font-family="sans-serif" font-size="13" lengthAdjust="spacing" textLength="39" x="313" y="1025.001">course</text><polygon fill="#181818" points="47,1057.5547,37,1061.5547,47,1065.5547,43,1061.5547" style="stroke:#181818;stroke-width:1.0;"/><line style="stroke:#181818;stroke-width:1.0;stroke-dasharray:2.0,2.0;" x1="41" x2="272" y1="1061.5547" y2="1061.5547"/><text fill="#000000" font-family="sans-serif" font-size="13" font-weight="bold" lengthAdjust="spacing" textLength="14" x="53" y="1056.292">28</text><text fill="#000000" font-family="sans-serif" font-size="13" lengthAdjust="spacing" textLength="156" x="71" y="1056.292">shows operation's success</text><!--SRC=[pLPBZziW4BxpAxYjLqgQksL5QhTRgOTKgxPxouN5amJLnYxWTFFlE-17Z0t9RYxj9O7nFBvlc1cuEnXJwtIrgWicJLCM7tXLhZJyRa1oMEQ2xHKh2M6DgMHJle0YkE6cKdJ39DlZlcRA22vgjASF2fY1XwfH6fw_qYoh5MYGXXbHoVKwgljGIQEgeW2LPQok2y6lMVm0THGSiaotYwcgKyeoxlud7vz0QQ6DPMW3mwj1e6VPHFixr9KMoFZqnH4_PTckNQ1YpWnxOHheC-8uQo9pDMp6QYskkABDhJWYoo6zX7GhkbnFyflIZtbEMueZIr-9aCcXBD5FvpAbJF_IT8UdQGxGURhJL4WKbUu82CaXwZcAZARqCHVMVe6KSrZGRwp4ty-WkHAr-x2L6_OgogPSq8sGxS9cyR5aedW7dNMaabBAH_84UZpSuP4MprRIV8I8bZsWiWVKz83k8uZEyNnaP_aKOLUvFJnooMvUgPZPeM04w6ICQwvDIC03-ftLDBhTGrGz0Z2bNIDuHH924MSOGcAJxZERQH4oDqHlaoxiI0LLevnST8zH87gSq0p2JiZS2Z-TN24bmPBohGYPUBc6ruCxzNLJMLxe6gzdjZBSDB5-wSBug3gXW-G4j8UHj17Rw0EOjm2OTsqt9xi8urWIE6ZDrEc9uMq7nfRVAF0GTuXq09R_n8mV7D60noCh10vzm167mosPGlID0fb8Xx4-7hyzWs3geWKIydJjHFxT6EgdudynYThKtJQBPbVzcTlx1XAVEBfzDWKWQNQ4f8rm_zPHuUxtArKLknVz1uW5SAZ-Q5hX-ykzD_3reHjks_7YosFqgNye_GK0]--></g></svg>