<?xml version="1.0" encoding="us-ascii" standalone="no"?><svg xmlns="http://www.w3.org/2000/svg" xmlns:xlink="http://www.w3.org/1999/xlink" contentStyleType="text/css" height="1146px" preserveAspectRatio="none" style="width:859px;height:1146px;background:#FFFFFF;" version="1.1" viewBox="0 0 859 1146" width="859px" zoomAndPan="magnify"><defs/><g><!--class RequestEnrollmentUI--><g id="elem_RequestEnrollmentUI"><rect codeLine="5" fill="#F1F1F1" height="48" id="RequestEnrollmentUI" rx="2.5" ry="2.5" style="stroke:#181818;stroke-width:0.5;" width="176" x="641.5" y="7"/><ellipse cx="656.5" cy="23" fill="#ADD1B2" rx="11" ry="11" style="stroke:#181818;stroke-width:1.0;"/><path d="M659.4731,28.6431 Q658.8921,28.9419 658.2529,29.0913 Q657.6138,29.2407 656.9082,29.2407 Q654.4014,29.2407 653.0815,27.5889 Q651.7617,25.937 651.7617,22.8159 Q651.7617,19.6865 653.0815,18.0347 Q654.4014,16.3828 656.9082,16.3828 Q657.6138,16.3828 658.2612,16.5322 Q658.9087,16.6816 659.4731,16.9805 L659.4731,19.7031 Q658.8423,19.1221 658.2488,18.8523 Q657.6553,18.5825 657.0244,18.5825 Q655.6797,18.5825 654.9949,19.6492 Q654.3101,20.7158 654.3101,22.8159 Q654.3101,24.9077 654.9949,25.9744 Q655.6797,27.041 657.0244,27.041 Q657.6553,27.041 658.2488,26.7712 Q658.8423,26.5015 659.4731,25.9204 Z " fill="#000000"/><text fill="#000000" font-family="sans-serif" font-size="14" lengthAdjust="spacing" textLength="144" x="670.5" y="28.291">RequestEnrollmentUI</text><line style="stroke:#181818;stroke-width:0.5;" x1="642.5" x2="816.5" y1="39" y2="39"/><line style="stroke:#181818;stroke-width:0.5;" x1="642.5" x2="816.5" y1="47" y2="47"/></g><!--class RequestEnrollmentController--><g id="elem_RequestEnrollmentController"><rect codeLine="8" fill="#F1F1F1" height="73.1094" id="RequestEnrollmentController" rx="2.5" ry="2.5" style="stroke:#181818;stroke-width:0.5;" width="246" x="606.5" y="116"/><ellipse cx="627.8" cy="136.3105" fill="#ADD1B2" rx="11" ry="11" style="stroke:#181818;stroke-width:1.0;"/><path d="M630.7731,141.9536 Q630.1921,142.2524 629.5529,142.4019 Q628.9138,142.5513 628.2082,142.5513 Q625.7014,142.5513 624.3815,140.8994 Q623.0617,139.2476 623.0617,136.1265 Q623.0617,132.9971 624.3815,131.3452 Q625.7014,129.6934 628.2082,129.6934 Q628.9138,129.6934 629.5612,129.8428 Q630.2087,129.9922 630.7731,130.291 L630.7731,133.0137 Q630.1423,132.4326 629.5488,132.1628 Q628.9553,131.8931 628.3244,131.8931 Q626.9797,131.8931 626.2949,132.9597 Q625.6101,134.0264 625.6101,136.1265 Q625.6101,138.2183 626.2949,139.2849 Q626.9797,140.3516 628.3244,140.3516 Q628.9553,140.3516 629.5488,140.0818 Q630.1423,139.812 630.7731,139.231 Z " fill="#000000"/><text fill="#000000" font-family="sans-serif" font-size="12" font-style="italic" lengthAdjust="spacing" textLength="75" x="705.7" y="132.6016">&#171;application&#187;</text><text fill="#000000" font-family="sans-serif" font-size="14" lengthAdjust="spacing" textLength="200" x="643.2" y="148.668">RequestEnrollmentController</text><line style="stroke:#181818;stroke-width:0.5;" x1="607.5" x2="851.5" y1="156.6211" y2="156.6211"/><line style="stroke:#181818;stroke-width:0.5;" x1="607.5" x2="851.5" y1="164.6211" y2="164.6211"/><text fill="#000000" font-family="sans-serif" font-size="14" lengthAdjust="spacing" textLength="234" x="612.5" y="182.1563">createRequest(String courseCode)</text></g><!--class EnrollmentRequest--><g id="elem_EnrollmentRequest"><rect codeLine="13" fill="#F1F1F1" height="106.0859" id="EnrollmentRequest" rx="2.5" ry="2.5" style="stroke:#181818;stroke-width:0.5;" width="258" x="258.5" y="866"/><ellipse cx="318.25" cy="886.3105" fill="#ADD1B2" rx="11" ry="11" style="stroke:#181818;stroke-width:1.0;"/><path d="M321.2231,891.9536 Q320.6421,892.2524 320.0029,892.4019 Q319.3638,892.5513 318.6582,892.5513 Q316.1514,892.5513 314.8315,890.8994 Q313.5117,889.2476 313.5117,886.1265 Q313.5117,882.9971 314.8315,881.3452 Q316.1514,879.6934 318.6582,879.6934 Q319.3638,879.6934 320.0112,879.8428 Q320.6587,879.9922 321.2231,880.291 L321.2231,883.0137 Q320.5923,882.4326 319.9988,882.1628 Q319.4053,881.8931 318.7744,881.8931 Q317.4297,881.8931 316.7449,882.9597 Q316.0601,884.0264 316.0601,886.1265 Q316.0601,888.2183 316.7449,889.2849 Q317.4297,890.3516 318.7744,890.3516 Q319.4053,890.3516 319.9988,890.0818 Q320.5923,889.812 321.2231,889.231 Z " fill="#000000"/><text fill="#000000" font-family="sans-serif" font-size="12" font-style="italic" lengthAdjust="spacing" textLength="35" x="386.25" y="882.6016">&#171;root&#187;</text><text fill="#000000" font-family="sans-serif" font-size="14" lengthAdjust="spacing" textLength="130" x="338.75" y="898.668">EnrollmentRequest</text><line style="stroke:#181818;stroke-width:0.5;" x1="259.5" x2="515.5" y1="906.6211" y2="906.6211"/><line style="stroke:#181818;stroke-width:0.5;" x1="259.5" x2="515.5" y1="914.6211" y2="914.6211"/><text fill="#000000" font-family="sans-serif" font-size="14" lengthAdjust="spacing" textLength="246" x="264.5" y="932.1563">create(User student, Course course)</text><text fill="#000000" font-family="sans-serif" font-size="14" lengthAdjust="spacing" textLength="54" x="264.5" y="948.6445">accept()</text><text fill="#000000" font-family="sans-serif" font-size="14" lengthAdjust="spacing" textLength="59" x="264.5" y="965.1328">decline()</text></g><!--class Course--><g id="elem_Course"><rect codeLine="19" fill="#F1F1F1" height="73.1094" id="Course" rx="2.5" ry="2.5" style="stroke:#181818;stroke-width:0.5;" width="81" x="499" y="1049.5"/><ellipse cx="514" cy="1069.8105" fill="#ADD1B2" rx="11" ry="11" style="stroke:#181818;stroke-width:1.0;"/><path d="M516.9731,1075.4536 Q516.3921,1075.7524 515.7529,1075.9019 Q515.1138,1076.0513 514.4082,1076.0513 Q511.9014,1076.0513 510.5815,1074.3994 Q509.2617,1072.7476 509.2617,1069.6265 Q509.2617,1066.4971 510.5815,1064.8452 Q511.9014,1063.1934 514.4082,1063.1934 Q515.1138,1063.1934 515.7612,1063.3428 Q516.4087,1063.4922 516.9731,1063.791 L516.9731,1066.5137 Q516.3423,1065.9326 515.7488,1065.6628 Q515.1553,1065.3931 514.5244,1065.3931 Q513.1797,1065.3931 512.4949,1066.4597 Q511.8101,1067.5264 511.8101,1069.6265 Q511.8101,1071.7183 512.4949,1072.7849 Q513.1797,1073.8516 514.5244,1073.8516 Q515.1553,1073.8516 515.7488,1073.5818 Q516.3423,1073.312 516.9731,1072.731 Z " fill="#000000"/><text fill="#000000" font-family="sans-serif" font-size="12" font-style="italic" lengthAdjust="spacing" textLength="35" x="535" y="1066.1016">&#171;root&#187;</text><text fill="#000000" font-family="sans-serif" font-size="14" lengthAdjust="spacing" textLength="49" x="528" y="1082.168">Course</text><line style="stroke:#181818;stroke-width:0.5;" x1="500" x2="579" y1="1090.1211" y2="1090.1211"/><line style="stroke:#181818;stroke-width:0.5;" x1="500" x2="579" y1="1098.1211" y2="1098.1211"/><text fill="#000000" font-family="sans-serif" font-size="14" lengthAdjust="spacing" textLength="43" x="505" y="1115.6563">state()</text></g><!--class User--><g id="elem_User"><rect codeLine="23" fill="#F1F1F1" height="73.1094" id="User" rx="2.5" ry="2.5" style="stroke:#181818;stroke-width:0.5;" width="63" x="633" y="1049.5"/><ellipse cx="648" cy="1069.8105" fill="#ADD1B2" rx="11" ry="11" style="stroke:#181818;stroke-width:1.0;"/><path d="M650.9731,1075.4536 Q650.3921,1075.7524 649.7529,1075.9019 Q649.1138,1076.0513 648.4082,1076.0513 Q645.9014,1076.0513 644.5815,1074.3994 Q643.2617,1072.7476 643.2617,1069.6265 Q643.2617,1066.4971 644.5815,1064.8452 Q645.9014,1063.1934 648.4082,1063.1934 Q649.1138,1063.1934 649.7612,1063.3428 Q650.4087,1063.4922 650.9731,1063.791 L650.9731,1066.5137 Q650.3423,1065.9326 649.7488,1065.6628 Q649.1553,1065.3931 648.5244,1065.3931 Q647.1797,1065.3931 646.4949,1066.4597 Q645.8101,1067.5264 645.8101,1069.6265 Q645.8101,1071.7183 646.4949,1072.7849 Q647.1797,1073.8516 648.5244,1073.8516 Q649.1553,1073.8516 649.7488,1073.5818 Q650.3423,1073.312 650.9731,1072.731 Z " fill="#000000"/><text fill="#000000" font-family="sans-serif" font-size="12" font-style="italic" lengthAdjust="spacing" textLength="35" x="660" y="1066.1016">&#171;root&#187;</text><text fill="#000000" font-family="sans-serif" font-size="14" lengthAdjust="spacing" textLength="31" x="662" y="1082.168">User</text><line style="stroke:#181818;stroke-width:0.5;" x1="634" x2="695" y1="1090.1211" y2="1090.1211"/><line style="stroke:#181818;stroke-width:0.5;" x1="634" x2="695" y1="1098.1211" y2="1098.1211"/><text fill="#000000" font-family="sans-serif" font-size="14" lengthAdjust="spacing" textLength="37" x="639" y="1115.6563">role()</text></g><!--class UserSession--><g id="elem_UserSession"><rect codeLine="27" fill="#F1F1F1" height="64.4883" id="UserSession" rx="2.5" ry="2.5" style="stroke:#181818;stroke-width:0.5;" width="147" x="613" y="772"/><ellipse cx="642.4" cy="788" fill="#ADD1B2" rx="11" ry="11" style="stroke:#181818;stroke-width:1.0;"/><path d="M645.3731,793.6431 Q644.7921,793.9419 644.1529,794.0913 Q643.5138,794.2407 642.8082,794.2407 Q640.3014,794.2407 638.9815,792.5889 Q637.6617,790.937 637.6617,787.8159 Q637.6617,784.6865 638.9815,783.0347 Q640.3014,781.3828 642.8082,781.3828 Q643.5138,781.3828 644.1612,781.5322 Q644.8087,781.6816 645.3731,781.9805 L645.3731,784.7031 Q644.7423,784.1221 644.1488,783.8523 Q643.5553,783.5825 642.9244,783.5825 Q641.5797,783.5825 640.8949,784.6492 Q640.2101,785.7158 640.2101,787.8159 Q640.2101,789.9077 640.8949,790.9744 Q641.5797,792.041 642.9244,792.041 Q643.5553,792.041 644.1488,791.7712 Q644.7423,791.5015 645.3731,790.9204 Z " fill="#000000"/><text fill="#000000" font-family="sans-serif" font-size="14" lengthAdjust="spacing" textLength="83" x="659.6" y="793.291">UserSession</text><line style="stroke:#181818;stroke-width:0.5;" x1="614" x2="759" y1="804" y2="804"/><line style="stroke:#181818;stroke-width:0.5;" x1="614" x2="759" y1="812" y2="812"/><text fill="#000000" font-family="sans-serif" font-size="14" lengthAdjust="spacing" textLength="135" x="619" y="829.5352">authenticatedUser()</text></g><!--class RequestState--><g id="elem_RequestState"><rect codeLine="32" fill="#F1F1F1" height="106.0859" id="RequestState" rx="2.5" ry="2.5" style="stroke:#181818;stroke-width:0.5;" width="121" x="7" y="1033"/><ellipse cx="22" cy="1053.3105" fill="#EB937F" rx="11" ry="11" style="stroke:#181818;stroke-width:1.0;"/><path d="M26.1143,1059.3105 L18.3945,1059.3105 L18.3945,1046.9175 L26.1143,1046.9175 L26.1143,1049.0757 L20.8433,1049.0757 L20.8433,1051.7485 L25.6162,1051.7485 L25.6162,1053.9067 L20.8433,1053.9067 L20.8433,1057.1523 L26.1143,1057.1523 Z " fill="#000000"/><text fill="#000000" font-family="sans-serif" font-size="12" font-style="italic" lengthAdjust="spacing" textLength="42" x="59.5" y="1049.6016">&#171;value&#187;</text><text fill="#000000" font-family="sans-serif" font-size="14" lengthAdjust="spacing" textLength="89" x="36" y="1065.668">RequestState</text><line style="stroke:#181818;stroke-width:0.5;" x1="8" x2="127" y1="1073.6211" y2="1073.6211"/><text fill="#000000" font-family="sans-serif" font-size="14" lengthAdjust="spacing" textLength="60" x="13" y="1091.1563">PENDING</text><text fill="#000000" font-family="sans-serif" font-size="14" lengthAdjust="spacing" textLength="73" x="13" y="1107.6445">ACCEPTED</text><text fill="#000000" font-family="sans-serif" font-size="14" lengthAdjust="spacing" textLength="67" x="13" y="1124.1328">DECLINED</text><line style="stroke:#181818;stroke-width:0.5;" x1="8" x2="127" y1="1131.0859" y2="1131.0859"/></g><!--class AnsweredDate--><g id="elem_AnsweredDate"><rect codeLine="38" fill="#F1F1F1" height="56.6211" id="AnsweredDate" rx="2.5" ry="2.5" style="stroke:#181818;stroke-width:0.5;" width="131" x="163" y="1057.5"/><ellipse cx="178" cy="1077.8105" fill="#ADD1B2" rx="11" ry="11" style="stroke:#181818;stroke-width:1.0;"/><path d="M180.9731,1083.4536 Q180.3921,1083.7524 179.7529,1083.9019 Q179.1138,1084.0513 178.4082,1084.0513 Q175.9014,1084.0513 174.5815,1082.3994 Q173.2617,1080.7476 173.2617,1077.6265 Q173.2617,1074.4971 174.5815,1072.8452 Q175.9014,1071.1934 178.4082,1071.1934 Q179.1138,1071.1934 179.7612,1071.3428 Q180.4087,1071.4922 180.9731,1071.791 L180.9731,1074.5137 Q180.3423,1073.9326 179.7488,1073.6628 Q179.1553,1073.3931 178.5244,1073.3931 Q177.1797,1073.3931 176.4949,1074.4597 Q175.8101,1075.5264 175.8101,1077.6265 Q175.8101,1079.7183 176.4949,1080.7849 Q177.1797,1081.8516 178.5244,1081.8516 Q179.1553,1081.8516 179.7488,1081.5818 Q180.3423,1081.312 180.9731,1080.731 Z " fill="#000000"/><text fill="#000000" font-family="sans-serif" font-size="12" font-style="italic" lengthAdjust="spacing" textLength="42" x="220.5" y="1074.1016">&#171;value&#187;</text><text fill="#000000" font-family="sans-serif" font-size="14" lengthAdjust="spacing" textLength="99" x="192" y="1090.168">AnsweredDate</text><line style="stroke:#181818;stroke-width:0.5;" x1="164" x2="293" y1="1098.1211" y2="1098.1211"/><line style="stroke:#181818;stroke-width:0.5;" x1="164" x2="293" y1="1106.1211" y2="1106.1211"/></g><!--class RequestedDate--><g id="elem_RequestedDate"><rect codeLine="41" fill="#F1F1F1" height="56.6211" id="RequestedDate" rx="2.5" ry="2.5" style="stroke:#181818;stroke-width:0.5;" width="135" x="329" y="1057.5"/><ellipse cx="344" cy="1077.8105" fill="#ADD1B2" rx="11" ry="11" style="stroke:#181818;stroke-width:1.0;"/><path d="M346.9731,1083.4536 Q346.3921,1083.7524 345.7529,1083.9019 Q345.1138,1084.0513 344.4082,1084.0513 Q341.9014,1084.0513 340.5815,1082.3994 Q339.2617,1080.7476 339.2617,1077.6265 Q339.2617,1074.4971 340.5815,1072.8452 Q341.9014,1071.1934 344.4082,1071.1934 Q345.1138,1071.1934 345.7612,1071.3428 Q346.4087,1071.4922 346.9731,1071.791 L346.9731,1074.5137 Q346.3423,1073.9326 345.7488,1073.6628 Q345.1553,1073.3931 344.5244,1073.3931 Q343.1797,1073.3931 342.4949,1074.4597 Q341.8101,1075.5264 341.8101,1077.6265 Q341.8101,1079.7183 342.4949,1080.7849 Q343.1797,1081.8516 344.5244,1081.8516 Q345.1553,1081.8516 345.7488,1081.5818 Q346.3423,1081.312 346.9731,1080.731 Z " fill="#000000"/><text fill="#000000" font-family="sans-serif" font-size="12" font-style="italic" lengthAdjust="spacing" textLength="42" x="388.5" y="1074.1016">&#171;value&#187;</text><text fill="#000000" font-family="sans-serif" font-size="14" lengthAdjust="spacing" textLength="103" x="358" y="1090.168">RequestedDate</text><line style="stroke:#181818;stroke-width:0.5;" x1="330" x2="463" y1="1098.1211" y2="1098.1211"/><line style="stroke:#181818;stroke-width:0.5;" x1="330" x2="463" y1="1106.1211" y2="1106.1211"/></g><!--class PersistenceContext--><g id="elem_PersistenceContext"><rect codeLine="45" fill="#F1F1F1" height="73.1094" id="PersistenceContext" rx="2.5" ry="2.5" style="stroke:#181818;stroke-width:0.5;" width="164" x="309.5" y="384"/><ellipse cx="324.5" cy="404.3105" fill="#ADD1B2" rx="11" ry="11" style="stroke:#181818;stroke-width:1.0;"/><path d="M327.4731,409.9536 Q326.8921,410.2524 326.2529,410.4019 Q325.6138,410.5513 324.9082,410.5513 Q322.4014,410.5513 321.0815,408.8994 Q319.7617,407.2476 319.7617,404.1265 Q319.7617,400.9971 321.0815,399.3452 Q322.4014,397.6934 324.9082,397.6934 Q325.6138,397.6934 326.2612,397.8428 Q326.9087,397.9922 327.4731,398.291 L327.4731,401.0137 Q326.8423,400.4326 326.2488,400.1628 Q325.6553,399.8931 325.0244,399.8931 Q323.6797,399.8931 322.9949,400.9597 Q322.3101,402.0264 322.3101,404.1265 Q322.3101,406.2183 322.9949,407.2849 Q323.6797,408.3516 325.0244,408.3516 Q325.6553,408.3516 326.2488,408.0818 Q326.8423,407.812 327.4731,407.231 Z " fill="#000000"/><text fill="#000000" font-family="sans-serif" font-size="12" font-style="italic" lengthAdjust="spacing" textLength="78" x="365.5" y="400.6016">&#171;persistence&#187;</text><text fill="#000000" font-family="sans-serif" font-size="14" lengthAdjust="spacing" textLength="132" x="338.5" y="416.668">PersistenceContext</text><line style="stroke:#181818;stroke-width:0.5;" x1="310.5" x2="472.5" y1="424.6211" y2="424.6211"/><line style="stroke:#181818;stroke-width:0.5;" x1="310.5" x2="472.5" y1="432.6211" y2="432.6211"/><text fill="#000000" font-family="sans-serif" font-size="14" lengthAdjust="spacing" textLength="92" x="315.5" y="450.1563">repositories()</text></g><!--class RepositoryFactory--><g id="elem_RepositoryFactory"><rect codeLine="49" fill="#F1F1F1" height="89.5977" id="RepositoryFactory" rx="2.5" ry="2.5" style="stroke:#181818;stroke-width:0.5;" width="159" x="312" y="518"/><ellipse cx="328.8" cy="538.3105" fill="#ADD1B2" rx="11" ry="11" style="stroke:#181818;stroke-width:1.0;"/><path d="M331.7731,543.9536 Q331.1921,544.2524 330.5529,544.4019 Q329.9138,544.5513 329.2082,544.5513 Q326.7014,544.5513 325.3815,542.8994 Q324.0617,541.2476 324.0617,538.1265 Q324.0617,534.9971 325.3815,533.3452 Q326.7014,531.6934 329.2082,531.6934 Q329.9138,531.6934 330.5612,531.8428 Q331.2087,531.9922 331.7731,532.291 L331.7731,535.0137 Q331.1423,534.4326 330.5488,534.1628 Q329.9553,533.8931 329.3244,533.8931 Q327.9797,533.8931 327.2949,534.9597 Q326.6101,536.0264 326.6101,538.1265 Q326.6101,540.2183 327.2949,541.2849 Q327.9797,542.3516 329.3244,542.3516 Q329.9553,542.3516 330.5488,542.0818 Q331.1423,541.812 331.7731,541.231 Z " fill="#000000"/><text fill="#000000" font-family="sans-serif" font-size="12" font-style="italic" lengthAdjust="spacing" textLength="51" x="379.2" y="534.6016">&#171;factory&#187;</text><text fill="#000000" font-family="sans-serif" font-size="14" lengthAdjust="spacing" textLength="123" x="343.2" y="550.668">RepositoryFactory</text><line style="stroke:#181818;stroke-width:0.5;" x1="313" x2="470" y1="558.6211" y2="558.6211"/><line style="stroke:#181818;stroke-width:0.5;" x1="313" x2="470" y1="566.6211" y2="566.6211"/><text fill="#000000" font-family="sans-serif" font-size="14" lengthAdjust="spacing" textLength="63" x="318" y="584.1563">courses()</text><text fill="#000000" font-family="sans-serif" font-size="14" lengthAdjust="spacing" textLength="147" x="318" y="600.6445">enrollmentRequests()</text></g><!--class CourseRepository--><g id="elem_CourseRepository"><rect codeLine="54" fill="#F1F1F1" height="73.1094" id="CourseRepository" rx="2.5" ry="2.5" style="stroke:#181818;stroke-width:0.5;" width="189" x="432" y="669"/><ellipse cx="462.75" cy="689.3105" fill="#ADD1B2" rx="11" ry="11" style="stroke:#181818;stroke-width:1.0;"/><path d="M465.7231,694.9536 Q465.1421,695.2524 464.5029,695.4019 Q463.8638,695.5513 463.1582,695.5513 Q460.6514,695.5513 459.3315,693.8994 Q458.0117,692.2476 458.0117,689.1265 Q458.0117,685.9971 459.3315,684.3452 Q460.6514,682.6934 463.1582,682.6934 Q463.8638,682.6934 464.5112,682.8428 Q465.1587,682.9922 465.7231,683.291 L465.7231,686.0137 Q465.0923,685.4326 464.4988,685.1628 Q463.9053,684.8931 463.2744,684.8931 Q461.9297,684.8931 461.2449,685.9597 Q460.5601,687.0264 460.5601,689.1265 Q460.5601,691.2183 461.2449,692.2849 Q461.9297,693.3516 463.2744,693.3516 Q463.9053,693.3516 464.4988,693.0818 Q465.0923,692.812 465.7231,692.231 Z " fill="#000000"/><text fill="#000000" font-family="sans-serif" font-size="12" font-style="italic" lengthAdjust="spacing" textLength="70" x="506.25" y="685.6016">&#171;repository&#187;</text><text fill="#000000" font-family="sans-serif" font-size="14" lengthAdjust="spacing" textLength="122" x="480.25" y="701.668">CourseRepository</text><line style="stroke:#181818;stroke-width:0.5;" x1="433" x2="620" y1="709.6211" y2="709.6211"/><line style="stroke:#181818;stroke-width:0.5;" x1="433" x2="620" y1="717.6211" y2="717.6211"/><text fill="#000000" font-family="sans-serif" font-size="14" lengthAdjust="spacing" textLength="177" x="438" y="735.1563">ofIdentity(CourseCode id)</text></g><!--class EnrollmentRequestRepository--><g id="elem_EnrollmentRequestRepository"><rect codeLine="58" fill="#F1F1F1" height="73.1094" id="EnrollmentRequestRepository" rx="2.5" ry="2.5" style="stroke:#181818;stroke-width:0.5;" width="238" x="158.5" y="669"/><ellipse cx="174.85" cy="689.3105" fill="#ADD1B2" rx="11" ry="11" style="stroke:#181818;stroke-width:1.0;"/><path d="M177.8231,694.9536 Q177.2421,695.2524 176.6029,695.4019 Q175.9638,695.5513 175.2582,695.5513 Q172.7514,695.5513 171.4315,693.8994 Q170.1117,692.2476 170.1117,689.1265 Q170.1117,685.9971 171.4315,684.3452 Q172.7514,682.6934 175.2582,682.6934 Q175.9638,682.6934 176.6112,682.8428 Q177.2587,682.9922 177.8231,683.291 L177.8231,686.0137 Q177.1923,685.4326 176.5988,685.1628 Q176.0053,684.8931 175.3744,684.8931 Q174.0297,684.8931 173.3449,685.9597 Q172.6601,687.0264 172.6601,689.1265 Q172.6601,691.2183 173.3449,692.2849 Q174.0297,693.3516 175.3744,693.3516 Q176.0053,693.3516 176.5988,693.0818 Q177.1923,692.812 177.8231,692.231 Z " fill="#000000"/><text fill="#000000" font-family="sans-serif" font-size="12" font-style="italic" lengthAdjust="spacing" textLength="70" x="255.65" y="685.6016">&#171;repository&#187;</text><text fill="#000000" font-family="sans-serif" font-size="14" lengthAdjust="spacing" textLength="203" x="189.15" y="701.668">EnrollmentRequestRepository</text><line style="stroke:#181818;stroke-width:0.5;" x1="159.5" x2="395.5" y1="709.6211" y2="709.6211"/><line style="stroke:#181818;stroke-width:0.5;" x1="159.5" x2="395.5" y1="717.6211" y2="717.6211"/><text fill="#000000" font-family="sans-serif" font-size="14" lengthAdjust="spacing" textLength="226" x="164.5" y="735.1563">save(EnrollmentRequest request)</text></g><!--class EnrollmentRequestManagementService--><g id="elem_EnrollmentRequestManagementService"><rect codeLine="63" fill="#F1F1F1" height="73.1094" id="EnrollmentRequestManagementService" rx="2.5" ry="2.5" style="stroke:#181818;stroke-width:0.5;" width="299" x="377" y="250"/><ellipse cx="392" cy="270.3105" fill="#ADD1B2" rx="11" ry="11" style="stroke:#181818;stroke-width:1.0;"/><path d="M394.9731,275.9536 Q394.3921,276.2524 393.7529,276.4019 Q393.1138,276.5513 392.4082,276.5513 Q389.9014,276.5513 388.5815,274.8994 Q387.2617,273.2476 387.2617,270.1265 Q387.2617,266.9971 388.5815,265.3452 Q389.9014,263.6934 392.4082,263.6934 Q393.1138,263.6934 393.7612,263.8428 Q394.4087,263.9922 394.9731,264.291 L394.9731,267.0137 Q394.3423,266.4326 393.7488,266.1628 Q393.1553,265.8931 392.5244,265.8931 Q391.1797,265.8931 390.4949,266.9597 Q389.8101,268.0264 389.8101,270.1265 Q389.8101,272.2183 390.4949,273.2849 Q391.1797,274.3516 392.5244,274.3516 Q393.1553,274.3516 393.7488,274.0818 Q394.3423,273.812 394.9731,273.231 Z " fill="#000000"/><text fill="#000000" font-family="sans-serif" font-size="12" font-style="italic" lengthAdjust="spacing" textLength="52" x="513.5" y="266.6016">&#171;service&#187;</text><text fill="#000000" font-family="sans-serif" font-size="14" lengthAdjust="spacing" textLength="267" x="406" y="282.668">EnrollmentRequestManagementService</text><line style="stroke:#181818;stroke-width:0.5;" x1="378" x2="675" y1="290.6211" y2="290.6211"/><line style="stroke:#181818;stroke-width:0.5;" x1="378" x2="675" y1="298.6211" y2="298.6211"/><text fill="#000000" font-family="sans-serif" font-size="14" lengthAdjust="spacing" textLength="278" x="383" y="316.1563">createRequest(CourseCode courseCode)</text></g><!--class AuthorizationService--><g id="elem_AuthorizationService"><rect codeLine="67" fill="#F1F1F1" height="73.1094" id="AuthorizationService" rx="2.5" ry="2.5" style="stroke:#181818;stroke-width:0.5;" width="175" x="612" y="526.5"/><ellipse cx="627" cy="546.8105" fill="#ADD1B2" rx="11" ry="11" style="stroke:#181818;stroke-width:1.0;"/><path d="M629.9731,552.4536 Q629.3921,552.7524 628.7529,552.9019 Q628.1138,553.0513 627.4082,553.0513 Q624.9014,553.0513 623.5815,551.3994 Q622.2617,549.7476 622.2617,546.6265 Q622.2617,543.4971 623.5815,541.8452 Q624.9014,540.1934 627.4082,540.1934 Q628.1138,540.1934 628.7612,540.3428 Q629.4087,540.4922 629.9731,540.791 L629.9731,543.5137 Q629.3423,542.9326 628.7488,542.6628 Q628.1553,542.3931 627.5244,542.3931 Q626.1797,542.3931 625.4949,543.4597 Q624.8101,544.5264 624.8101,546.6265 Q624.8101,548.7183 625.4949,549.7849 Q626.1797,550.8516 627.5244,550.8516 Q628.1553,550.8516 628.7488,550.5818 Q629.3423,550.312 629.9731,549.731 Z " fill="#000000"/><text fill="#000000" font-family="sans-serif" font-size="12" font-style="italic" lengthAdjust="spacing" textLength="52" x="686.5" y="543.1016">&#171;service&#187;</text><text fill="#000000" font-family="sans-serif" font-size="14" lengthAdjust="spacing" textLength="143" x="641" y="559.168">AuthorizationService</text><line style="stroke:#181818;stroke-width:0.5;" x1="613" x2="786" y1="567.1211" y2="567.1211"/><line style="stroke:#181818;stroke-width:0.5;" x1="613" x2="786" y1="575.1211" y2="575.1211"/><text fill="#000000" font-family="sans-serif" font-size="14" lengthAdjust="spacing" textLength="61" x="618" y="592.6563">session()</text></g><!--class AuthzRegistry--><g id="elem_AuthzRegistry"><rect codeLine="71" fill="#F1F1F1" height="56.6211" id="AuthzRegistry" rx="2.5" ry="2.5" style="stroke:#181818;stroke-width:0.5;" width="128" x="650.5" y="392"/><ellipse cx="665.5" cy="412.3105" fill="#ADD1B2" rx="11" ry="11" style="stroke:#181818;stroke-width:1.0;"/><path d="M668.4731,417.9536 Q667.8921,418.2524 667.2529,418.4019 Q666.6138,418.5513 665.9082,418.5513 Q663.4014,418.5513 662.0815,416.8994 Q660.7617,415.2476 660.7617,412.1265 Q660.7617,408.9971 662.0815,407.3452 Q663.4014,405.6934 665.9082,405.6934 Q666.6138,405.6934 667.2612,405.8428 Q667.9087,405.9922 668.4731,406.291 L668.4731,409.0137 Q667.8423,408.4326 667.2488,408.1628 Q666.6553,407.8931 666.0244,407.8931 Q664.6797,407.8931 663.9949,408.9597 Q663.3101,410.0264 663.3101,412.1265 Q663.3101,414.2183 663.9949,415.2849 Q664.6797,416.3516 666.0244,416.3516 Q666.6553,416.3516 667.2488,416.0818 Q667.8423,415.812 668.4731,415.231 Z " fill="#000000"/><text fill="#000000" font-family="sans-serif" font-size="12" font-style="italic" lengthAdjust="spacing" textLength="29" x="713" y="408.6016">&#171;util&#187;</text><text fill="#000000" font-family="sans-serif" font-size="14" lengthAdjust="spacing" textLength="96" x="679.5" y="424.668">AuthzRegistry</text><line style="stroke:#181818;stroke-width:0.5;" x1="651.5" x2="777.5" y1="432.6211" y2="432.6211"/><line style="stroke:#181818;stroke-width:0.5;" x1="651.5" x2="777.5" y1="440.6211" y2="440.6211"/></g><!--link EnrollmentRequest to Course--><g id="link_EnrollmentRequest_Course"><path codeLine="75" d="M435.59,972.21 C455.31,993.61 477.94,1018.17 497.03,1038.9 " fill="none" id="EnrollmentRequest-to-Course" style="stroke:#181818;stroke-width:1.0;"/><polygon fill="#181818" points="505.38,1048.04,504.2579,1040.9167,497.251,1039.2128,498.3731,1046.336,505.38,1048.04" style="stroke:#181818;stroke-width:1.0;"/></g><!--link EnrollmentRequest to User--><g id="link_EnrollmentRequest_User"><path codeLine="76" d="M493.09,972.41 C527.11,990.46 564.53,1011.55 597.5,1033 C605.55,1038.24 613.85,1044.19 621.75,1050.14 " fill="none" id="EnrollmentRequest-to-User" style="stroke:#181818;stroke-width:1.0;"/><polygon fill="#181818" points="631.58,1058.49,629.2654,1051.6605,622.071,1051.1703,624.3856,1057.9998,631.58,1058.49" style="stroke:#181818;stroke-width:1.0;"/></g><!--link EnrollmentRequest to RequestState--><g id="link_EnrollmentRequest_RequestState"><path codeLine="77" d="M265.99,972.38 C226.89,990.38 183.79,1011.46 145.5,1033 C143.73,1034 141.94,1035.02 140.15,1036.07 " fill="none" id="EnrollmentRequest-to-RequestState" style="stroke:#181818;stroke-width:1.0;"/><polygon fill="#181818" points="129.26,1043.23,136.4636,1043.5594,139.5383,1037.0367,132.3347,1036.7073,129.26,1043.23" style="stroke:#181818;stroke-width:1.0;"/></g><!--link EnrollmentRequest to RequestedDate--><g id="link_EnrollmentRequest_RequestedDate"><path codeLine="78" d="M390.35,972.21 C391.6,995.18 393.05,1021.78 394.23,1043.39 " fill="none" id="EnrollmentRequest-to-RequestedDate" style="stroke:#181818;stroke-width:1.0;"/><polygon fill="#181818" points="394.98,1056.1,398.6441,1049.8891,394.3202,1044.1182,390.6562,1050.329,394.98,1056.1" style="stroke:#181818;stroke-width:1.0;"/></g><!--link EnrollmentRequest to AnsweredDate--><g id="link_EnrollmentRequest_AnsweredDate"><path codeLine="79" d="M337.19,972.21 C313.79,996.5 286.46,1024.85 265.06,1047.06 " fill="none" id="EnrollmentRequest-to-AnsweredDate" style="stroke:#181818;stroke-width:1.0;"/><polygon fill="none" points="256.38,1056.1,263.4234,1054.5541,264.7055,1047.4579,257.662,1049.0038,256.38,1056.1" style="stroke:#181818;stroke-width:1.0;"/></g><!--link EnrollmentRequestRepository to EnrollmentRequest--><g id="link_EnrollmentRequestRepository_EnrollmentRequest"><path codeLine="81" d="M296.16,742.38 C313,774.75 338.06,822.93 357.67,860.64 " fill="none" id="EnrollmentRequestRepository-to-EnrollmentRequest" style="stroke:#181818;stroke-width:1.0;"/><polygon fill="#181818" points="360.28,864.66,359.6567,854.8309,357.9642,860.2286,352.5665,858.5361,360.28,864.66" style="stroke:#181818;stroke-width:1.0;"/><polygon fill="#000000" points="348.8072,808.5911,347.2408,799.2105,342.0261,801.9227,348.8072,808.5911" style="stroke:#000000;stroke-width:1.0;"/><text fill="#000000" font-family="sans-serif" font-size="13" lengthAdjust="spacing" textLength="41" x="355.5" y="809.0684">knows</text></g><!--link RequestEnrollmentUI to RequestEnrollmentController--><g id="link_RequestEnrollmentUI_RequestEnrollmentController"><path codeLine="83" d="M729.5,55.32 C729.5,70.84 729.5,91.65 729.5,109.94 " fill="none" id="RequestEnrollmentUI-to-RequestEnrollmentController" style="stroke:#181818;stroke-width:1.0;stroke-dasharray:7.0,7.0;"/><polygon fill="#181818" points="729.5,114.53,733.5,105.53,729.5,109.53,725.5,105.53,729.5,114.53" style="stroke:#181818;stroke-width:1.0;"/></g><!--link RequestEnrollmentController to EnrollmentRequestManagementService--><g id="link_RequestEnrollmentController_EnrollmentRequestManagementService"><path codeLine="85" d="M674.3,189.4 C647.11,207.08 614.27,228.43 586.47,246.51 " fill="none" id="RequestEnrollmentController-to-EnrollmentRequestManagementService" style="stroke:#181818;stroke-width:1.0;stroke-dasharray:7.0,7.0;"/><polygon fill="#181818" points="582.69,249.61,592.4139,248.0461,586.8786,246.8795,588.0451,241.3443,582.69,249.61" style="stroke:#181818;stroke-width:1.0;"/></g><!--link RequestEnrollmentController to AuthzRegistry--><g id="link_RequestEnrollmentController_AuthzRegistry"><path codeLine="86" d="M727.48,189.37 C724.56,241.02 719.23,335.63 716.39,385.95 " fill="none" id="RequestEnrollmentController-to-AuthzRegistry" style="stroke:#181818;stroke-width:1.0;stroke-dasharray:7.0,7.0;"/><polygon fill="#181818" points="716.06,390.86,720.5669,382.1029,716.3452,385.8681,712.58,381.6465,716.06,390.86" style="stroke:#181818;stroke-width:1.0;"/></g><!--link RequestEnrollmentController to AuthorizationService--><g id="link_RequestEnrollmentController_AuthorizationService"><path codeLine="87" d="M750.49,189.13 C781.68,246.94 832.87,364.04 796.5,457 C786.75,481.92 768,504.48 749.56,522.25 " fill="none" id="RequestEnrollmentController-to-AuthorizationService" style="stroke:#181818;stroke-width:1.0;"/><polygon fill="#181818" points="746.39,525.19,755.672,521.897,750.0171,521.7485,750.1656,516.0936,746.39,525.19" style="stroke:#181818;stroke-width:1.0;"/></g><!--link EnrollmentRequestManagementService to PersistenceContext--><g id="link_EnrollmentRequestManagementService_PersistenceContext"><path codeLine="89" d="M489.97,323.22 C472.11,340.68 450.56,361.76 432.18,379.73 " fill="none" id="EnrollmentRequestManagementService-to-PersistenceContext" style="stroke:#181818;stroke-width:1.0;stroke-dasharray:7.0,7.0;"/><polygon fill="#181818" points="429.06,382.75,438.2945,379.3259,432.638,379.2575,432.7065,373.601,429.06,382.75" style="stroke:#181818;stroke-width:1.0;"/></g><!--link EnrollmentRequestManagementService to EnrollmentRequestRepository--><g id="link_EnrollmentRequestManagementService_EnrollmentRequestRepository"><path codeLine="90" d="M376.59,319.89 C343.49,334.12 312.16,354.59 291.5,384 C232.53,467.94 251.17,597.01 266.27,662.81 " fill="none" id="EnrollmentRequestManagementService-to-EnrollmentRequestRepository" style="stroke:#181818;stroke-width:1.0;"/><polygon fill="#181818" points="267.62,667.59,269.4523,657.9131,266.4748,662.7229,261.665,659.7454,267.62,667.59" style="stroke:#181818;stroke-width:1.0;"/></g><!--link EnrollmentRequestManagementService to CourseRepository--><g id="link_EnrollmentRequestManagementService_CourseRepository"><path codeLine="91" d="M526.5,323.41 C526.5,400.39 526.5,580.92 526.5,662.8 " fill="none" id="EnrollmentRequestManagementService-to-CourseRepository" style="stroke:#181818;stroke-width:1.0;"/><polygon fill="#181818" points="526.5,667.52,530.5,658.52,526.5,662.52,522.5,658.52,526.5,667.52" style="stroke:#181818;stroke-width:1.0;"/></g><!--link PersistenceContext to RepositoryFactory--><g id="link_PersistenceContext_RepositoryFactory"><path codeLine="93" d="M391.5,457.32 C391.5,473.97 391.5,494.05 391.5,512.15 " fill="none" id="PersistenceContext-to-RepositoryFactory" style="stroke:#181818;stroke-width:1.0;stroke-dasharray:7.0,7.0;"/><polygon fill="#181818" points="391.5,516.7,395.5,507.7,391.5,511.7,387.5,507.7,391.5,516.7" style="stroke:#181818;stroke-width:1.0;"/></g><!--link RepositoryFactory to EnrollmentRequestRepository--><g id="link_RepositoryFactory_EnrollmentRequestRepository"><path codeLine="96" d="M355.43,608.46 C340.88,626.39 324.21,646.93 310.04,664.4 " fill="none" id="RepositoryFactory-to-EnrollmentRequestRepository" style="stroke:#181818;stroke-width:1.0;stroke-dasharray:7.0,7.0;"/><polygon fill="#181818" points="306.49,667.77,315.2599,663.2879,309.6343,663.8824,309.0398,658.2569,306.49,667.77" style="stroke:#181818;stroke-width:1.0;"/></g><!--link RepositoryFactory to CourseRepository--><g id="link_RepositoryFactory_CourseRepository"><path codeLine="97" d="M434.21,608.46 C451.59,626.54 471.52,647.28 488.4,664.84 " fill="none" id="RepositoryFactory-to-CourseRepository" style="stroke:#181818;stroke-width:1.0;stroke-dasharray:7.0,7.0;"/><polygon fill="#181818" points="491.17,667.77,487.8212,658.5079,487.7067,664.1636,482.051,664.0491,491.17,667.77" style="stroke:#181818;stroke-width:1.0;"/></g><!--link AuthzRegistry to AuthorizationService--><g id="link_AuthzRegistry_AuthorizationService"><path codeLine="101" d="M711.54,449.26 C709.37,469.53 706.4,497.37 703.95,520.31 " fill="none" id="AuthzRegistry-to-AuthorizationService" style="stroke:#181818;stroke-width:1.0;stroke-dasharray:7.0,7.0;"/><polygon fill="#181818" points="703.34,525.03,708.2691,516.5033,703.8686,520.058,700.314,515.6575,703.34,525.03" style="stroke:#181818;stroke-width:1.0;"/></g><!--link AuthorizationService to UserSession--><g id="link_AuthorizationService_UserSession"><path codeLine="102" d="M697.55,599.78 C695.13,644.4 691,720.3 688.53,765.64 " fill="none" id="AuthorizationService-to-UserSession" style="stroke:#181818;stroke-width:1.0;"/><polygon fill="#181818" points="688.21,770.56,692.692,761.7901,688.481,765.5674,684.7037,761.3564,688.21,770.56" style="stroke:#181818;stroke-width:1.0;"/></g><!--link UserSession to User--><g id="link_UserSession_User"><path codeLine="103" d="M684.04,836.3 C680.06,886.94 672.21,986.83 667.77,1043.39 " fill="none" id="UserSession-to-User" style="stroke:#181818;stroke-width:1.0;"/><polygon fill="#181818" points="667.32,1048.06,672.0023,1039.3953,667.7057,1043.0749,664.0261,1038.7783,667.32,1048.06" style="stroke:#181818;stroke-width:1.0;"/></g><!--link EnrollmentRequestManagementService to AuthzRegistry--><g id="link_EnrollmentRequestManagementService_AuthzRegistry"><path codeLine="105" d="M580.36,323.35 C594.47,332.89 609.62,343.25 623.5,353 C639.61,364.32 657.1,377.01 672.42,388.25 " fill="none" id="EnrollmentRequestManagementService-to-AuthzRegistry" style="stroke:#181818;stroke-width:1.0;stroke-dasharray:7.0,7.0;"/><polygon fill="#181818" points="676.09,391.68,671.2018,383.1299,672.0593,388.7213,666.4679,389.5789,676.09,391.68" style="stroke:#181818;stroke-width:1.0;"/></g><!--link EnrollmentRequestManagementService to AuthorizationService--><g id="link_EnrollmentRequestManagementService_AuthorizationService"><path codeLine="106" d="M549.12,323.39 C581.24,374.35 639.91,467.44 673.69,521.04 " fill="none" id="EnrollmentRequestManagementService-to-AuthorizationService" style="stroke:#181818;stroke-width:1.0;"/><polygon fill="#181818" points="676.88,525.11,675.4548,515.3648,674.2095,520.8829,668.6914,519.6376,676.88,525.11" style="stroke:#181818;stroke-width:1.0;"/></g><!--SRC=[ZLLTRzem57tth_0ROHhT-rH5ga8s8Mq8mVe3FET2lGMR-JfqRRN_FZjn4YSn51w87P_xUSvrPYNi3JMAQd5uChGG6hWHIX8oenK2vSp-QIYPWOBoaY42alf9j_2d0ZIvrAeiZo3Du-gD_2ENJZCbZLk3flVtx7Gg1MSkKfg-4Mf_N8CDuisIdT527YXNbKR8L05pvtfMg2CJSfH87yDRsm1QAJFqd3oY3OscAYpm8yrgppx0lCOnpk5aacPJ02-5X6JUb-HDXixHEDy1gWupnDZq9f0T8DhgQODWbNcoQRcMGE6E6_YCGbURPQ4fxipA2gZw-SioXGHaTMoRlNEvsDWr8aszxqs-NgxMN-lrGvRbcn_vijuiy-pRQcqtNM8F4fz1Gx4S-ndJ6eVCR8udXS8eBG0_dK2Zi5Z9mLjl-ZTE3l3NKHN0keO5RiB6RTltBryOTmzhlczMNRaDe-XfXB4sSCfexzNnrctQPDH-vIGZp4kITNAaeWZyJ1HuqQLF4jaPagbkFSMUUok3i-XwDq5_Pv8TmBtODK0RoflqpHWCLP3-QB0y_LQ5jkUlzLnUTegDT9EHvUiM3fR7kkJAYB9L1PdMkLXyyBs_SEX6uC9HgFNha4QaKOmQI3sIOa3WOf56hfZFzBTKpqXJGY8N8RsxIwzTWH6Zu7vqnk_J_QwB0IbNqQx46FcHnanLvq9D1_iMosXd-yxVwc8ynOH4xfc6aD7rGHmFuoibslt0UznYcWGXmwbeAPaqEJfshh3WEq72RqPxTZCzGoNSsDQu8CX_]--></g></svg>