<?xml version="1.0" encoding="UTF-8" standalone="no"?><svg xmlns="http://www.w3.org/2000/svg" xmlns:xlink="http://www.w3.org/1999/xlink" contentStyleType="text/css" height="683px" preserveAspectRatio="none" style="width:729px;height:683px;background:#FFFFFF;" version="1.1" viewBox="0 0 729 683" width="729px" zoomAndPan="magnify"><defs/><g><polygon fill="#FFFFFF" points="121.5,118.5703,121.5,118.6404,123.5,118.4322,125.5,118.6347,127.5,118.7035,129.5,118.3325,131.5,118.5703,131.4223,118.5703,131.0735,128.5542,131.1165,138.538,131.4318,148.5219,130.8086,158.5057,132.0536,168.4896,130.8697,178.4734,131.3022,188.4573,131.9319,198.4411,131.4142,208.425,131.5682,218.4089,131.4681,228.3927,131.6785,238.3766,131.7391,248.3604,132.0857,258.3443,132.1711,268.3281,132.1793,278.312,131.7546,288.2958,131.9636,298.2797,132.2022,308.2635,130.7788,318.2474,132.1785,328.2313,131.2035,338.2151,132.0338,348.199,131.005,358.1828,131.4315,368.1667,132.2416,378.1505,131.4513,388.1344,131.6053,398.1182,131.8386,408.1021,131.9162,418.0859,131.4961,428.0698,131.7872,438.0536,130.9276,448.0375,131.7844,458.0214,132.0482,468.0052,131.9445,477.9891,132.113,487.9729,131.0169,497.9568,130.8478,507.9406,130.8786,517.9245,131.4411,527.9083,131.3035,537.8922,132.1814,547.876,131.3253,557.8599,131.5,567.8438,131.5,567.7294,129.5,567.9198,127.5,567.6215,125.5,567.6707,123.5,568.0601,121.5,567.8438,121.9357,567.8438,122.2345,557.8599,121.1782,547.876,121.8192,537.8922,122.0904,527.9083,121.0276,517.9245,121.4041,507.9406,121.626,497.9568,122.1518,487.9729,121.4958,477.9891,121.9626,468.0052,120.9462,458.0214,120.8227,448.0375,122.0036,438.0536,120.7831,428.0698,122.009,418.0859,121.7066,408.1021,121.2321,398.1182,121.1462,388.1344,121.9588,378.1505,121.2007,368.1667,122.0919,358.1828,120.9473,348.199,122.1174,338.2151,121.9843,328.2313,121.745,318.2474,121.5472,308.2635,122.2266,298.2797,122.1136,288.2958,121.6693,278.312,121.7682,268.3281,121.3697,258.3443,122.2165,248.3604,121.6549,238.3766,121.6726,228.3927,120.8916,218.4089,121.0948,208.425,122.0307,198.4411,121.9298,188.4573,121.4571,178.4734,121.1778,168.4896,121.2811,158.5057,120.8138,148.5219,121.9147,138.538,122.2396,128.5542,121.5,118.5703" style="stroke:#181818;stroke-width:1.0;"/><polygon fill="#FFFFFF" points="286.5,270.3281,286.5,270.3982,288.5,270.19,290.5,270.3926,292.5,270.4614,294.5,270.0903,296.5,270.3281,296.4741,270.3281,296.3578,276.3984,296.3722,282.4688,296.4773,288.5391,296.2695,294.6094,296.5,300.6797,296.5,300.8642,294.5,300.4696,292.5,300.6138,290.5,300.8237,288.5,300.6511,286.5,300.6797,286.5227,300.6797,286.4894,294.6094,286.5595,288.5391,286.5797,282.4688,286.6952,276.3984,286.5,270.3281" style="stroke:#181818;stroke-width:1.0;"/><polygon fill="#FFFFFF" points="428.5,342.207,428.5,342.2771,430.5,342.0689,432.5,342.2715,434.5,342.3403,436.5,341.9692,438.5,342.207,438.4223,342.207,438.0735,351.9713,438.1165,361.7355,438.4318,371.4998,437.8086,381.2641,439.0536,391.0283,437.8697,400.7926,438.3022,410.5568,438.9319,420.3211,438.4142,430.0854,438.5682,439.8496,438.4681,449.6139,438.6785,459.3781,438.7391,469.1424,439.0857,478.9066,439.1711,488.6709,439.1793,498.4352,438.7546,508.1994,438.9636,517.9637,439.2022,527.7279,438.5,537.4922,438.5,537.2518,436.5,537.7184,434.5,537.3934,432.5,537.6701,430.5,537.3272,428.5,537.4922,428.4315,537.4922,429.2416,527.7279,428.4513,517.9637,428.6053,508.1994,428.8386,498.4352,428.9162,488.6709,428.4961,478.9066,428.7872,469.1424,427.9276,459.3781,428.7844,449.6139,429.0482,439.8496,428.9445,430.0854,429.113,420.3211,428.0169,410.5568,427.8478,400.7926,427.8786,391.0283,428.4411,381.2641,428.3035,371.4998,429.1814,361.7355,428.3253,351.9713,428.5,342.207" style="stroke:#181818;stroke-width:1.0;"/><polygon fill="#FFFFFF" points="566.5,383.7344,566.5,383.8044,568.5,383.5963,570.5,383.7988,572.5,383.8676,574.5,383.4966,576.5,383.7344,576.4741,383.7344,576.3578,389.8047,576.3722,395.875,576.4773,401.9453,576.2695,408.0156,576.5,414.0859,576.5,414.2705,574.5,413.8758,572.5,414.02,570.5,414.2299,568.5,414.0573,566.5,414.0859,566.5227,414.0859,566.4894,408.0156,566.5595,401.9453,566.5797,395.875,566.6952,389.8047,566.5,383.7344" style="stroke:#181818;stroke-width:1.0;"/><polygon fill="#FFFFFF" points="670.5,444.4375,670.5,444.5076,672.5,444.2994,674.5,444.5019,676.5,444.5707,678.5,444.1997,680.5,444.4375,680.4223,444.4375,680.0735,454.5379,680.1165,464.6384,680.4318,474.7388,679.8086,484.8393,681.0536,494.9397,679.8697,505.0402,680.5,515.1406,680.5,515.0747,678.5,515.2846,676.5,515.112,674.5,515.1634,672.5,515.13,670.5,515.1406,670.6785,515.1406,670.7391,505.0402,671.0857,494.9397,671.1711,484.8393,671.1793,474.7388,670.7546,464.6384,670.9636,454.5379,670.5,444.4375" style="stroke:#181818;stroke-width:1.0;"/><polygon fill="none" points="351.5,459.4375,351.5,459.6477,361.5541,459.0232,371.6081,459.6308,381.6622,459.8372,391.7162,458.7241,401.7703,459.3598,411.8243,459.011,421.8784,459.054,431.9324,459.3693,441.9865,458.7461,452.0405,459.9911,462.0946,458.8072,472.1486,459.2397,482.2027,459.8694,492.2568,459.3517,502.3108,459.5057,512.3649,459.4056,522.4189,459.616,532.473,459.6766,542.527,460.0232,552.5811,460.1086,562.6351,460.1168,572.6892,459.6921,582.7432,459.9011,592.7973,460.1397,602.8514,458.7163,612.9054,460.116,622.9595,459.141,633.0135,459.9713,643.0676,458.9425,653.1216,459.369,663.1757,460.1791,673.2297,459.3888,683.2838,459.5428,693.3378,459.7761,703.3919,459.8537,713.4459,459.4336,723.5,459.4375,723.7872,459.4375,722.9276,469.1781,723.7844,478.9188,724.0482,488.6594,723.9445,498.4,723.5,508.1406,723.5,508.7536,713.4459,507.6575,703.3919,507.4884,693.3378,507.5192,683.2838,508.0817,673.2297,507.9441,663.1757,508.822,653.1216,507.9659,643.0676,507.7976,633.0135,508.3689,622.9595,507.4738,612.9054,507.6215,602.8514,508.7896,592.7973,508.5763,582.7432,508.8751,572.6892,507.8188,562.6351,508.4598,552.5811,508.731,542.527,507.6682,532.473,508.0448,522.4189,508.2666,512.3649,508.7924,502.3108,508.1364,492.2568,508.6032,482.2027,507.5868,472.1486,507.4634,462.0946,508.6442,452.0405,507.4237,441.9865,508.6496,431.9324,508.3473,421.8784,507.8727,411.8243,507.7869,401.7703,508.5994,391.7162,507.8413,381.6622,508.7325,371.6081,507.5879,361.5541,508.7581,351.5,508.1406,351.9843,508.1406,351.745,498.4,351.5472,488.6594,352.2266,478.9188,352.1136,469.1781,351.5,459.4375" style="stroke:#000000;stroke-width:1.5;"/><path d="M22,86.2188 L22.2802,86.2188 L21.4476,96.2113 L22.2577,106.2038 L22.5329,116.1962 L21.0488,126.1888 L21.8964,136.1813 L21.4313,146.1737 L21.4887,156.1663 L21.9091,166.1588 L21.0782,176.1513 L22.7382,186.1438 L21.1596,196.1363 L21.7363,206.1288 L22.5759,216.1213 L21.8856,226.1137 L22.091,236.1063 L21.9574,246.0988 L22.238,256.0913 L22.3188,266.0838 L22.7809,276.0762 L22.8947,286.0688 L22.9057,296.0613 L22.3395,306.0538 L22.6181,316.0463 L22.9363,326.0388 L21.0384,336.0313 L22.9047,346.0238 L21.6047,356.0163 L22.7117,366.0087 L21.34,376.0012 L21.9087,385.9938 L22.9888,395.9863 L21.935,405.9788 L22.1404,415.9713 L22.4515,425.9638 L22.555,435.9563 L21.9948,445.9488 L22.383,455.9412 L21.2368,465.9338 L22.3792,475.9263 L22.7309,485.9188 L22.5927,495.9113 L22.8174,505.9038 L21.3559,515.8963 L21.1304,525.8888 L21.1715,535.8812 L21.9215,545.8738 L21.738,555.8663 L22.9085,565.8588 L21.7671,575.8512 L22,585.8438 " fill="none" style="stroke:#181818;stroke-width:0.5;stroke-dasharray:5.0,5.0;"/><path d="M126,86.2188 L126.2802,86.2188 L125.4476,96.2113 L126.2577,106.2038 L126.5329,116.1962 L125.0488,126.1888 L125.8964,136.1813 L125.4313,146.1737 L125.4887,156.1663 L125.9091,166.1588 L125.0782,176.1513 L126.7382,186.1438 L125.1596,196.1363 L125.7363,206.1288 L126.5759,216.1213 L125.8856,226.1137 L126.091,236.1063 L125.9574,246.0988 L126.238,256.0913 L126.3188,266.0838 L126.7809,276.0762 L126.8947,286.0688 L126.9057,296.0613 L126.3395,306.0538 L126.6181,316.0463 L126.9363,326.0388 L125.0384,336.0313 L126.9047,346.0238 L125.6047,356.0163 L126.7117,366.0087 L125.34,376.0012 L125.9087,385.9938 L126.9888,395.9863 L125.935,405.9788 L126.1404,415.9713 L126.4515,425.9638 L126.555,435.9563 L125.9948,445.9488 L126.383,455.9412 L125.2368,465.9338 L126.3792,475.9263 L126.7309,485.9188 L126.5927,495.9113 L126.8174,505.9038 L125.3559,515.8963 L125.1304,525.8888 L125.1715,535.8812 L125.9215,545.8738 L125.738,555.8663 L126.9085,565.8588 L125.7671,575.8512 L126,585.8438 " fill="none" style="stroke:#181818;stroke-width:0.5;stroke-dasharray:5.0,5.0;"/><path d="M291.5,86.2188 L291.7802,86.2188 L290.9476,96.2113 L291.7577,106.2038 L292.0329,116.1962 L290.5488,126.1888 L291.3964,136.1813 L290.9313,146.1737 L290.9887,156.1663 L291.4091,166.1588 L290.5782,176.1513 L292.2382,186.1438 L290.6596,196.1363 L291.2363,206.1288 L292.0759,216.1213 L291.3856,226.1137 L291.591,236.1063 L291.4574,246.0988 L291.738,256.0913 L291.8188,266.0838 L292.2809,276.0762 L292.3947,286.0688 L292.4057,296.0613 L291.8395,306.0538 L292.1181,316.0463 L292.4363,326.0388 L290.5384,336.0313 L292.4047,346.0238 L291.1047,356.0163 L292.2117,366.0087 L290.84,376.0012 L291.4087,385.9938 L292.4888,395.9863 L291.435,405.9788 L291.6404,415.9713 L291.9515,425.9638 L292.055,435.9563 L291.4948,445.9488 L291.883,455.9412 L290.7368,465.9338 L291.8792,475.9263 L292.2309,485.9188 L292.0927,495.9113 L292.3174,505.9038 L290.8559,515.8963 L290.6304,525.8888 L290.6715,535.8812 L291.4215,545.8738 L291.238,555.8663 L292.4085,565.8588 L291.2671,575.8512 L291.5,585.8438 " fill="none" style="stroke:#181818;stroke-width:0.5;stroke-dasharray:5.0,5.0;"/><path d="M433.5,86.2188 L433.7802,86.2188 L432.9476,96.2113 L433.7577,106.2038 L434.0329,116.1962 L432.5488,126.1888 L433.3964,136.1813 L432.9313,146.1737 L432.9887,156.1663 L433.4091,166.1588 L432.5782,176.1513 L434.2382,186.1438 L432.6596,196.1363 L433.2363,206.1288 L434.0759,216.1213 L433.3856,226.1137 L433.591,236.1063 L433.4574,246.0988 L433.738,256.0913 L433.8188,266.0838 L434.2809,276.0762 L434.3947,286.0688 L434.4057,296.0613 L433.8395,306.0538 L434.1181,316.0463 L434.4363,326.0388 L432.5384,336.0313 L434.4047,346.0238 L433.1047,356.0163 L434.2117,366.0087 L432.84,376.0012 L433.4087,385.9938 L434.4888,395.9863 L433.435,405.9788 L433.6404,415.9713 L433.9515,425.9638 L434.055,435.9563 L433.4948,445.9488 L433.883,455.9412 L432.7368,465.9338 L433.8792,475.9263 L434.2309,485.9188 L434.0927,495.9113 L434.3174,505.9038 L432.8559,515.8963 L432.6304,525.8888 L432.6715,535.8812 L433.4215,545.8738 L433.238,555.8663 L434.4085,565.8588 L433.2671,575.8512 L433.5,585.8438 " fill="none" style="stroke:#181818;stroke-width:0.5;stroke-dasharray:5.0,5.0;"/><path d="M571.5,86.2188 L571.7802,86.2188 L570.9476,96.2113 L571.7577,106.2038 L572.0329,116.1962 L570.5488,126.1888 L571.3964,136.1813 L570.9313,146.1737 L570.9887,156.1663 L571.4091,166.1588 L570.5782,176.1513 L572.2382,186.1438 L570.6596,196.1363 L571.2363,206.1288 L572.0759,216.1213 L571.3856,226.1137 L571.591,236.1063 L571.4574,246.0988 L571.738,256.0913 L571.8188,266.0838 L572.2809,276.0762 L572.3947,286.0688 L572.4057,296.0613 L571.8395,306.0538 L572.1181,316.0463 L572.4363,326.0388 L570.5384,336.0313 L572.4047,346.0238 L571.1047,356.0163 L572.2117,366.0087 L570.84,376.0012 L571.4087,385.9938 L572.4888,395.9863 L571.435,405.9788 L571.6404,415.9713 L571.9515,425.9638 L572.055,435.9563 L571.4948,445.9488 L571.883,455.9412 L570.7368,465.9338 L571.8792,475.9263 L572.2309,485.9188 L572.0927,495.9113 L572.3174,505.9038 L570.8559,515.8963 L570.6304,525.8888 L570.6715,535.8812 L571.4215,545.8738 L571.238,555.8663 L572.4085,565.8588 L571.2671,575.8512 L571.5,585.8438 " fill="none" style="stroke:#181818;stroke-width:0.5;stroke-dasharray:5.0,5.0;"/><path d="M675.5,86.2188 L675.7802,86.2188 L674.9476,96.2113 L675.7577,106.2038 L676.0329,116.1962 L674.5488,126.1888 L675.3964,136.1813 L674.9313,146.1737 L674.9887,156.1663 L675.4091,166.1588 L674.5782,176.1513 L676.2382,186.1438 L674.6596,196.1363 L675.2363,206.1288 L676.0759,216.1213 L675.3856,226.1137 L675.591,236.1063 L675.4574,246.0988 L675.738,256.0913 L675.8188,266.0838 L676.2809,276.0762 L676.3947,286.0688 L676.4057,296.0613 L675.8395,306.0538 L676.1181,316.0463 L676.4363,326.0388 L674.5384,336.0313 L676.4047,346.0238 L675.1047,356.0163 L676.2117,366.0087 L674.84,376.0012 L675.4087,385.9938 L676.4888,395.9863 L675.435,405.9788 L675.6404,415.9713 L675.9515,425.9638 L676.055,435.9563 L675.4948,445.9488 L675.883,455.9412 L674.7368,465.9338 L675.8792,475.9263 L676.2309,485.9188 L676.0927,495.9113 L676.3174,505.9038 L674.8559,515.8963 L674.6304,525.8888 L674.6715,535.8812 L675.4215,545.8738 L675.238,555.8663 L676.4085,565.8588 L675.2671,575.8512 L675.5,585.8438 " fill="none" style="stroke:#181818;stroke-width:0.5;stroke-dasharray:5.0,5.0;"/><text fill="#000000" font-family="FG Virgil" font-size="14" lengthAdjust="spacing" textLength="29" x="5" y="83.1426">User</text><polygon fill="#E3E3E3" points="30.5442,19.0553,29.3715,20.6576,27.9845,23.0044,26.0008,24.586,23.9163,25.4509,22.2542,25.526,20.118,24.4443,18.1023,23.7377,16.5724,22.303,15.7699,20.6605,15.2939,19.3527,14.8277,17.6444,14.0709,16.1744,14.6525,14.7392,15.162,13.167,17.074,11.9235,18.4192,10.3102,20.0843,9.7744,22.0637,9.313,24.6021,9.5872,25.9924,10.2429,27.6089,10.5401,29.5743,12.5537,30.2595,14.6795,30.5571,16.13,30.22,18.5202" style="stroke:#181818;stroke-width:0.5;"/><path d="M22.5,25.1094 L22.6868,25.1094 L22.1317,30.5094 L22.6718,35.9094 L22.8553,41.3094 L21.8659,46.7094 L22.5,52.1094 M9.5,33.1094 L9.5,33.0403 L14.7,32.7303 L19.9,32.7685 L25.1,33.0488 L30.3,32.4948 L35.5,33.1094 M22.5,52.1094 L22.8719,52.4317 L19.4766,54.7425 L17.1672,57.9942 L14.9901,61.3608 L12.0424,64.0594 L9.5,67.1094 M22.5,52.1094 L22.5458,52.1491 L25.0785,55.0908 L27.8199,58.2133 L30.4606,61.2486 L33.2934,64.4503 L35.5,67.1094 " fill="none" style="stroke:#181818;stroke-width:0.5;"/><text fill="#000000" font-family="FG Virgil" font-size="14" lengthAdjust="spacing" textLength="29" x="5" y="599.377">User</text><polygon fill="#E3E3E3" points="30.5442,612.899,29.3715,614.5013,27.9845,616.8482,26.0008,618.4298,23.9163,619.2947,22.2542,619.3697,20.118,618.2881,18.1023,617.5814,16.5724,616.1467,15.7699,614.5042,15.2939,613.1964,14.8277,611.4882,14.0709,610.0182,14.6525,608.5829,15.162,607.0107,17.074,605.7673,18.4192,604.1539,20.0843,603.6182,22.0637,603.1568,24.6021,603.4309,25.9924,604.0866,27.6089,604.3838,29.5743,606.3975,30.2595,608.5233,30.5571,609.9737,30.22,612.3639" style="stroke:#181818;stroke-width:0.5;"/><path d="M22.5,618.9531 L22.6868,618.9531 L22.1317,624.3531 L22.6718,629.7531 L22.8553,635.1531 L21.8659,640.5531 L22.5,645.9531 M9.5,626.9531 L9.5,626.884 L14.7,626.574 L19.9,626.6122 L25.1,626.8925 L30.3,626.3386 L35.5,626.9531 M22.5,645.9531 L22.8719,646.2754 L19.4766,648.5862 L17.1672,651.838 L14.9901,655.2046 L12.0424,657.9032 L9.5,660.9531 M22.5,645.9531 L22.5458,645.9929 L25.0785,648.9345 L27.8199,652.0571 L30.4606,655.0923 L33.2934,658.2941 L35.5,660.9531 " fill="none" style="stroke:#181818;stroke-width:0.5;"/><polygon fill="#E3E3E3" points="75.5,36,75.5,36.2102,85.7,35.5857,95.9,36.1933,106.1,36.3997,116.3,35.2866,126.5,35.9223,136.7,35.5735,146.9,35.6165,157.1,35.9318,167.3,35.3086,177.5,36,177.5706,36.1705,177.7732,35.9523,178.1819,36.232,178.6158,36.5724,178.9033,36.5594,179.2678,36.7322,179.2888,36.7409,179.4044,37.0817,179.6156,37.4621,179.7808,37.8234,180.0339,38.2212,180,38.5,180.2237,38.5,180.2264,47.3438,180.0849,56.1875,180.1545,65.0313,180.2341,73.875,180,82.7188,179.7779,82.6268,180.0625,83.1589,179.6158,83.388,179.7251,83.8475,179.2618,84.0698,179.2678,84.4865,179.259,84.4654,179.0088,84.8613,178.5544,84.7644,178.2205,84.9583,177.8967,85.1766,177.5,85.2188,177.5,85.635,167.3,85.2148,157.1,85.506,146.9,84.6463,136.7,85.5031,126.5,85.7669,116.3,85.6633,106.1,85.8318,95.9,84.7357,85.7,84.5666,75.5,85.2188,75.4207,85.0274,75.1389,85.0542,74.7678,84.8653,74.5263,84.9893,74.0635,84.5792,73.7322,84.4865,73.6266,84.4428,73.6561,84.1621,73.234,83.6943,73.133,83.3596,73.3463,83.1551,73,82.7188,73.1452,82.7188,73.2448,73.875,72.8927,65.0313,73.1064,56.1875,73.1968,47.3438,73,38.5,72.8545,38.4397,73.1169,38.1342,73.3317,37.809,73.6401,37.5225,73.5845,37.0853,73.7322,36.7322,73.7912,36.8747,74.0151,36.4152,74.3529,36.2308,74.8571,36.448,75.055,35.9257,75.5,36" style="stroke:#181818;stroke-width:0.5;"/><text fill="#000000" font-family="FG Virgil" font-size="14" font-style="italic" lengthAdjust="spacing" textLength="83" x="85" y="57.5332">«http server»</text><text fill="#000000" font-family="FG Virgil" font-size="14" lengthAdjust="spacing" textLength="93" x="80" y="75.1426">HttpServerAjax</text><polygon fill="#E3E3E3" points="75.5,584.8438,75.5,585.0539,85.7,584.4294,95.9,585.037,106.1,585.2434,116.3,584.1304,126.5,584.766,136.7,584.4173,146.9,584.4603,157.1,584.7756,167.3,584.1524,177.5,584.8438,177.5706,585.0142,177.7732,584.7961,178.1819,585.0757,178.6158,585.4161,178.9033,585.4031,179.2678,585.576,179.2888,585.5847,179.4044,585.9255,179.6156,586.3059,179.7808,586.6671,180.0339,587.0649,180,587.3438,180.2237,587.3438,180.2264,596.1875,180.0849,605.0313,180.1545,613.875,180.2341,622.7188,180,631.5625,179.7779,631.4705,180.0625,632.0026,179.6158,632.2318,179.7251,632.6913,179.2618,632.9136,179.2678,633.3303,179.259,633.3092,179.0088,633.7051,178.5544,633.6082,178.2205,633.802,177.8967,634.0203,177.5,634.0625,177.5,634.4787,167.3,634.0586,157.1,634.3497,146.9,633.4901,136.7,634.3469,126.5,634.6107,116.3,634.507,106.1,634.6755,95.9,633.5794,85.7,633.4103,75.5,634.0625,75.4207,633.8711,75.1389,633.8979,74.7678,633.7091,74.5263,633.833,74.0635,633.4229,73.7322,633.3303,73.6266,633.2865,73.6561,633.0058,73.234,632.5381,73.133,632.2034,73.3463,631.9988,73,631.5625,73.1452,631.5625,73.2448,622.7188,72.8927,613.875,73.1064,605.0313,73.1968,596.1875,73,587.3438,72.8545,587.2835,73.1169,586.978,73.3317,586.6527,73.6401,586.3662,73.5845,585.929,73.7322,585.576,73.7912,585.7184,74.0151,585.259,74.3529,585.0745,74.8571,585.2917,75.055,584.7694,75.5,584.8438" style="stroke:#181818;stroke-width:0.5;"/><text fill="#000000" font-family="FG Virgil" font-size="14" font-style="italic" lengthAdjust="spacing" textLength="83" x="85" y="606.377">«http server»</text><text fill="#000000" font-family="FG Virgil" font-size="14" lengthAdjust="spacing" textLength="93" x="80" y="623.9863">HttpServerAjax</text><polygon fill="#E3E3E3" points="234,53.6094,234,53.8196,243.5833,53.1951,253.1667,53.8027,262.75,54.0091,272.3333,52.896,281.9167,53.5317,291.5,53.1829,301.0833,53.2259,310.6667,53.5412,320.25,52.918,329.8333,54.163,339.4167,52.9791,349,53.6094,348.9748,53.5485,349.4087,53.8888,349.6962,53.8759,350.0694,54.0697,350.4101,54.1853,350.7678,54.3416,350.8227,54.3644,350.9879,54.7257,351.241,55.1234,351.4138,55.4879,351.5627,55.8425,351.5,56.1094,351.5849,56.1094,351.6545,61.4313,351.7341,66.7531,351.2596,72.075,351.7262,77.3969,351.5,82.7188,351.4087,82.6809,351.5179,83.1404,351.0547,83.3627,351.0396,83.7707,351.1426,84.2276,350.7678,84.4865,350.7616,84.4715,350.4276,84.6654,350.1039,84.8837,349.7602,85.054,349.3531,85.0711,349,85.2188,349,85.506,339.4167,84.6463,329.8333,85.5031,320.25,85.7669,310.6667,85.6633,301.0833,85.8318,291.5,84.7357,281.9167,84.5666,272.3333,84.5973,262.75,85.1599,253.1667,85.0222,243.5833,85.9002,234,85.2188,233.9777,85.165,233.6027,84.9667,233.322,84.9962,232.8543,84.5741,232.5196,84.4731,232.2322,84.4865,232.4321,84.5693,232.22,84.1885,232.1655,83.8731,231.6938,83.3848,231.7447,83.113,231.5,82.7188,231.6968,82.7188,231.3425,77.3969,231.468,72.075,231.542,66.7531,231.7173,61.4313,231.5,56.1094,231.4987,56.1088,231.7889,55.8148,231.6223,55.3316,231.7308,54.9623,232.2409,54.7594,232.2322,54.3416,232.1408,54.1208,232.6507,54.3519,232.9657,54.1123,233.2587,53.8198,233.6013,53.6469,234,53.6094" style="stroke:#181818;stroke-width:0.5;"/><text fill="#000000" font-family="FG Virgil" font-size="14" lengthAdjust="spacing" textLength="106" x="238.5" y="75.1426">SessionManager</text><polygon fill="#E3E3E3" points="234,584.8438,234,585.0539,243.5833,584.4294,253.1667,585.037,262.75,585.2434,272.3333,584.1304,281.9167,584.766,291.5,584.4173,301.0833,584.4603,310.6667,584.7756,320.25,584.1524,329.8333,585.3974,339.4167,584.2135,349,584.8438,348.9748,584.7828,349.4087,585.1232,349.6962,585.1102,350.0694,585.3041,350.4101,585.4197,350.7678,585.576,350.8227,585.5988,350.9879,585.96,351.241,586.3578,351.4138,586.7222,351.5627,587.0768,351.5,587.3438,351.5849,587.3438,351.6545,592.6656,351.7341,597.9875,351.2596,603.3094,351.7262,608.6313,351.5,613.9531,351.4087,613.9153,351.5179,614.3748,351.0547,614.5971,351.0396,615.005,351.1426,615.4619,350.7678,615.7209,350.7616,615.7059,350.4276,615.8998,350.1039,616.1181,349.7602,616.2884,349.3531,616.3055,349,616.4531,349,616.7403,339.4167,615.8807,329.8333,616.7375,320.25,617.0013,310.6667,616.8977,301.0833,617.0661,291.5,615.97,281.9167,615.8009,272.3333,615.8317,262.75,616.3942,253.1667,616.2566,243.5833,617.1345,234,616.4531,233.9777,616.3993,233.6027,616.201,233.322,616.2305,232.8543,615.8084,232.5196,615.7075,232.2322,615.7209,232.4321,615.8037,232.22,615.4229,232.1655,615.1075,231.6938,614.6192,231.7447,614.3474,231.5,613.9531,231.6968,613.9531,231.3425,608.6313,231.468,603.3094,231.542,597.9875,231.7173,592.6656,231.5,587.3438,231.4987,587.3432,231.7889,587.0492,231.6223,586.566,231.7308,586.1967,232.2409,585.9938,232.2322,585.576,232.1408,585.3552,232.6507,585.5863,232.9657,585.3467,233.2587,585.0541,233.6013,584.8812,234,584.8438" style="stroke:#181818;stroke-width:0.5;"/><text fill="#000000" font-family="FG Virgil" font-size="14" lengthAdjust="spacing" textLength="106" x="238.5" y="606.377">SessionManager</text><polygon fill="#E3E3E3" points="364,36,364,36.2102,373.9286,35.5857,383.8571,36.1933,393.7857,36.3997,403.7143,35.2866,413.6429,35.9223,423.5714,35.5735,433.5,35.6165,443.4286,35.9318,453.3571,35.3086,463.2857,36.5536,473.2143,35.3697,483.1429,35.8022,493.0714,36.4319,503,36,502.9891,35.9736,503.3623,36.1675,503.703,36.2831,504.0834,36.4943,504.4447,36.6594,504.7678,36.7322,504.9481,36.8069,505.1209,37.1714,505.2698,37.526,505.2855,37.8254,505.4963,38.2056,505.5,38.5,505.7341,38.5,505.2596,47.3438,505.7262,56.1875,505.4012,65.0313,505.6779,73.875,505.5,82.7188,505.3476,82.6556,505.3325,83.0636,505.4355,83.5205,505.0457,83.7732,504.9466,84.1464,504.7678,84.4865,504.811,84.5908,504.4673,84.7611,504.0602,84.7782,503.7437,85.0143,503.2805,84.896,503,85.2188,503,85.5031,493.0714,85.7669,483.1429,85.6633,473.2143,85.8318,463.2857,84.7357,453.3571,84.5666,443.4286,84.5973,433.5,85.1599,423.5714,85.0222,413.6429,85.9002,403.7143,85.0441,393.7857,84.8757,383.8571,85.447,373.9286,84.5519,364,85.2188,363.9338,85.0589,363.7292,85.2722,363.3485,85.06,363.033,85.0056,362.5447,84.5339,362.2322,84.4865,362.3305,84.5272,362.2676,84.2083,361.7939,83.7191,361.7634,83.4136,361.6852,83.0884,361.5,82.7188,361.7173,82.7188,361.4986,73.875,361.6542,65.0313,361.3154,56.1875,361.2742,47.3438,361.5,38.5,361.6551,38.5642,361.4257,38.055,361.9496,37.8578,362.003,37.4657,362.0033,37.0516,362.2322,36.7322,362.1871,36.6233,362.6443,36.7271,362.9012,36.3472,363.3684,36.4752,363.5759,35.9762,364,36" style="stroke:#181818;stroke-width:0.5;"/><text fill="#000000" font-family="FG Virgil" font-size="14" font-style="italic" lengthAdjust="spacing" textLength="84" x="391.5" y="57.5332">«application»</text><text fill="#000000" font-family="FG Virgil" font-size="14" lengthAdjust="spacing" textLength="130" x="368.5" y="75.1426">GetBoardsController</text><polygon fill="#E3E3E3" points="364,584.8438,364,585.0539,373.9286,584.4294,383.8571,585.037,393.7857,585.2434,403.7143,584.1304,413.6429,584.766,423.5714,584.4173,433.5,584.4603,443.4286,584.7756,453.3571,584.1524,463.2857,585.3974,473.2143,584.2135,483.1429,584.646,493.0714,585.2757,503,584.8438,502.9891,584.8173,503.3623,585.0112,503.703,585.1268,504.0834,585.3381,504.4447,585.5032,504.7678,585.576,504.9481,585.6507,505.1209,586.0151,505.2698,586.3697,505.2855,586.6691,505.4963,587.0493,505.5,587.3438,505.7341,587.3438,505.2596,596.1875,505.7262,605.0313,505.4012,613.875,505.6779,622.7188,505.5,631.5625,505.3476,631.4994,505.3325,631.9073,505.4355,632.3642,505.0457,632.6169,504.9466,632.9901,504.7678,633.3303,504.811,633.4346,504.4673,633.6049,504.0602,633.622,503.7437,633.8581,503.2805,633.7398,503,634.0625,503,634.3469,493.0714,634.6107,483.1429,634.507,473.2143,634.6755,463.2857,633.5794,453.3571,633.4103,443.4286,633.4411,433.5,634.0036,423.5714,633.866,413.6429,634.7439,403.7143,633.8878,393.7857,633.7194,383.8571,634.2908,373.9286,633.3957,364,634.0625,363.9338,633.9026,363.7292,634.1159,363.3485,633.9038,363.033,633.8494,362.5447,633.3776,362.2322,633.3303,362.3305,633.371,362.2676,633.052,361.7939,632.5629,361.7634,632.2574,361.6852,631.9321,361.5,631.5625,361.7173,631.5625,361.4986,622.7188,361.6542,613.875,361.3154,605.0313,361.2742,596.1875,361.5,587.3438,361.6551,587.408,361.4257,586.8987,361.9496,586.7016,362.003,586.3094,362.0033,585.8954,362.2322,585.576,362.1871,585.467,362.6443,585.5708,362.9012,585.1909,363.3684,585.3189,363.5759,584.82,364,584.8438" style="stroke:#181818;stroke-width:0.5;"/><text fill="#000000" font-family="FG Virgil" font-size="14" font-style="italic" lengthAdjust="spacing" textLength="84" x="391.5" y="606.377">«application»</text><text fill="#000000" font-family="FG Virgil" font-size="14" lengthAdjust="spacing" textLength="130" x="368.5" y="623.9863">GetBoardsController</text><text fill="#000000" font-family="FG Virgil" font-size="14" font-style="italic" lengthAdjust="spacing" textLength="79" x="529" y="65.5332">«repository»</text><text fill="#000000" font-family="FG Virgil" font-size="14" lengthAdjust="spacing" textLength="106" x="515.5" y="83.1426">BoardRepository</text><path d="M553.5,15 L553.5,15 L553.5651,15.067 L555.1716,13.118 L557.1599,11.5616 L559.0238,9.8774 L560.479,7.7727 L562.5,6.25 L562.4952,6.2158 L564.2739,5.8122 L566.0766,5.5812 L567.8958,5.47 L569.6577,4.9456 L571.5,5 L571.5,5 L571.5339,5.2437 L573.2615,4.9725 L575.0879,5.4129 L576.9264,5.9402 L578.6948,5.9622 L580.5,6.25 L580.5211,6.2717 L582.2901,7.9898 L584.1553,9.8069 L585.9741,11.5762 L587.8815,13.4366 L589.5,15 L590.0965,15 L590.1038,20.2 L589.7263,25.4 L589.9121,30.6 L590.1242,35.8 L589.5,41 L589.5,41 L589.2766,40.7702 L587.9102,42.9662 L585.8081,44.4055 L584.2654,46.4201 L582.1466,47.8423 L580.5,49.75 L580.4958,49.7198 L578.7453,50.3265 L576.897,50.2285 L575.1064,50.5464 L573.3207,50.8991 L571.5,51 L571.5,51 L571.5254,51.1832 L569.6998,50.7483 L567.9176,50.6264 L566.065,49.998 L564.3174,50.1252 L562.5,49.75 L562.6698,49.9247 L560.8377,48.1417 L559.0899,46.4453 L556.9503,44.3461 L555.0979,42.5422 L553.5,41 L552.9476,41 L553.4477,35.8 L553.3253,30.6 L554.1057,25.4 L553.3447,20.2 L553.5,15 " fill="#E3E3E3" style="stroke:#181818;stroke-width:1.5;"/><path d="M553.5,15 L553.5,15 L553.5651,15.067 L555.1716,16.618 L557.1599,18.5616 L559.0238,20.3774 L560.479,21.7727 L562.5,23.75 L562.4952,23.7158 L564.2739,23.8122 L566.0766,24.0812 L567.8958,24.47 L569.6577,24.4456 L571.5,25 L571.5,25 L571.5339,25.2437 L573.2615,24.4725 L575.0879,24.4129 L576.9264,24.4402 L578.6948,23.9622 L580.5,23.75 L580.5211,23.7717 L582.2901,21.9898 L584.1553,20.3069 L585.9741,18.5762 L587.8815,16.9366 L589.5,15 " fill="none" style="stroke:#181818;stroke-width:1.5;"/><text fill="#000000" font-family="FG Virgil" font-size="14" font-style="italic" lengthAdjust="spacing" textLength="79" x="529" y="599.377">«repository»</text><text fill="#000000" font-family="FG Virgil" font-size="14" lengthAdjust="spacing" textLength="106" x="515.5" y="616.9863">BoardRepository</text><path d="M553.5,630.0625 L553.5,630.0625 L553.5651,630.1295 L555.1716,628.1805 L557.1599,626.6241 L559.0238,624.9399 L560.479,622.8352 L562.5,621.3125 L562.4952,621.2783 L564.2739,620.8747 L566.0766,620.6437 L567.8958,620.5325 L569.6577,620.0081 L571.5,620.0625 L571.5,620.0625 L571.5339,620.3062 L573.2615,620.035 L575.0879,620.4754 L576.9264,621.0027 L578.6948,621.0247 L580.5,621.3125 L580.5211,621.3342 L582.2901,623.0523 L584.1553,624.8694 L585.9741,626.6387 L587.8815,628.4991 L589.5,630.0625 L590.0965,630.0625 L590.1038,635.2625 L589.7263,640.4625 L589.9121,645.6625 L590.1242,650.8625 L589.5,656.0625 L589.5,656.0625 L589.2766,655.8327 L587.9102,658.0287 L585.8081,659.468 L584.2654,661.4826 L582.1466,662.9048 L580.5,664.8125 L580.4958,664.7823 L578.7453,665.389 L576.897,665.291 L575.1064,665.6089 L573.3207,665.9616 L571.5,666.0625 L571.5,666.0625 L571.5254,666.2457 L569.6998,665.8108 L567.9176,665.6889 L566.065,665.0605 L564.3174,665.1877 L562.5,664.8125 L562.6698,664.9872 L560.8377,663.2042 L559.0899,661.5078 L556.9503,659.4086 L555.0979,657.6047 L553.5,656.0625 L552.9476,656.0625 L553.4477,650.8625 L553.3253,645.6625 L554.1057,640.4625 L553.3447,635.2625 L553.5,630.0625 " fill="#E3E3E3" style="stroke:#181818;stroke-width:1.5;"/><path d="M553.5,630.0625 L553.5,630.0625 L553.5651,630.1295 L555.1716,631.6805 L557.1599,633.6241 L559.0238,635.4399 L560.479,636.8352 L562.5,638.8125 L562.4952,638.7783 L564.2739,638.8747 L566.0766,639.1437 L567.8958,639.5325 L569.6577,639.5081 L571.5,640.0625 L571.5,640.0625 L571.5339,640.3062 L573.2615,639.535 L575.0879,639.4754 L576.9264,639.5027 L578.6948,639.0247 L580.5,638.8125 L580.5211,638.8342 L582.2901,637.0523 L584.1553,635.3694 L585.9741,633.6387 L587.8815,631.9991 L589.5,630.0625 " fill="none" style="stroke:#181818;stroke-width:1.5;"/><polygon fill="#E3E3E3" points="640,36,640,36.2102,650.1429,35.5857,660.2857,36.1933,670.4286,36.3997,680.5714,35.2866,690.7143,35.9223,700.8571,35.5735,711,36,710.9511,35.8819,711.3449,36.1255,711.6189,36.08,712.1313,36.6098,712.3338,36.3917,712.7678,36.7322,712.7069,36.707,713.0472,37.1409,713.0342,37.4284,713.2281,37.8016,713.3437,38.1424,713.5,38.5,713.5595,38.5,713.5797,47.3438,713.6952,56.1875,713.7237,65.0313,713.7264,73.875,713.5,82.7188,713.5784,82.7512,713.4963,83.1314,713.4234,83.5154,712.8386,83.6874,713.1232,84.2195,712.7678,84.4865,712.7299,84.3952,712.4823,84.7974,711.9975,84.627,711.6984,84.9048,711.4482,85.3007,711,85.2188,711,85.17,700.8571,85.3241,690.7143,85.5574,680.5714,85.635,670.4286,85.2148,660.2857,85.506,650.1429,84.6463,640,85.2188,640.0363,85.3063,639.7164,85.2411,639.3496,85.0628,639.0175,84.9682,638.5242,84.4842,638.2322,84.4865,638.0314,84.4033,637.8944,84.0537,637.9212,83.7719,637.7324,83.4008,637.8563,83.1592,637.5,82.7188,637.4418,82.7188,637.3856,73.875,637.5761,65.0313,637.2777,56.1875,637.327,47.3438,637.5,38.5,637.6999,38.5828,637.7806,38.202,638.0191,37.8866,637.8402,37.3983,638.1841,37.1265,638.2322,36.7322,638.3075,36.9141,638.5255,36.4403,638.9271,36.4098,639.309,36.3317,639.7296,36.3472,640,36" style="stroke:#181818;stroke-width:0.5;"/><text fill="#000000" font-family="FG Virgil" font-size="14" font-style="italic" lengthAdjust="spacing" textLength="62" x="644.5" y="57.5332">«domain»</text><text fill="#000000" font-family="FG Virgil" font-size="14" lengthAdjust="spacing" textLength="38" x="656.5" y="75.1426">Board</text><polygon fill="#E3E3E3" points="640,584.8438,640,585.0539,650.1429,584.4294,660.2857,585.037,670.4286,585.2434,680.5714,584.1304,690.7143,584.766,700.8571,584.4173,711,584.8438,710.9511,584.7256,711.3449,584.9692,711.6189,584.9237,712.1313,585.4536,712.3338,585.2354,712.7678,585.576,712.7069,585.5508,713.0472,585.9846,713.0342,586.2721,713.2281,586.6453,713.3437,586.9861,713.5,587.3438,713.5595,587.3438,713.5797,596.1875,713.6952,605.0313,713.7237,613.875,713.7264,622.7188,713.5,631.5625,713.5784,631.595,713.4963,631.9752,713.4234,632.3592,712.8386,632.5312,713.1232,633.0633,712.7678,633.3303,712.7299,633.239,712.4823,633.6411,711.9975,633.4707,711.6984,633.7485,711.4482,634.1444,711,634.0625,711,634.0138,700.8571,634.1678,690.7143,634.4011,680.5714,634.4787,670.4286,634.0586,660.2857,634.3497,650.1429,633.4901,640,634.0625,640.0363,634.1501,639.7164,634.0849,639.3496,633.9065,639.0175,633.8119,638.5242,633.3279,638.2322,633.3303,638.0314,633.2471,637.8944,632.8974,637.9212,632.6156,637.7324,632.2445,637.8563,632.003,637.5,631.5625,637.4418,631.5625,637.3856,622.7188,637.5761,613.875,637.2777,605.0313,637.327,596.1875,637.5,587.3438,637.6999,587.4265,637.7806,587.0458,638.0191,586.7303,637.8402,586.242,638.1841,585.9703,638.2322,585.576,638.3075,585.7578,638.5255,585.2841,638.9271,585.2536,639.309,585.1754,639.7296,585.1909,640,584.8438" style="stroke:#181818;stroke-width:0.5;"/><text fill="#000000" font-family="FG Virgil" font-size="14" font-style="italic" lengthAdjust="spacing" textLength="62" x="644.5" y="606.377">«domain»</text><text fill="#000000" font-family="FG Virgil" font-size="14" lengthAdjust="spacing" textLength="38" x="656.5" y="623.9863">Board</text><polygon fill="#FFFFFF" points="121.5,118.5703,121.5,118.6404,123.5,118.4322,125.5,118.6347,127.5,118.7035,129.5,118.3325,131.5,118.5703,131.4223,118.5703,131.0735,128.5542,131.1165,138.538,131.4318,148.5219,130.8086,158.5057,132.0536,168.4896,130.8697,178.4734,131.3022,188.4573,131.9319,198.4411,131.4142,208.425,131.5682,218.4089,131.4681,228.3927,131.6785,238.3766,131.7391,248.3604,132.0857,258.3443,132.1711,268.3281,132.1793,278.312,131.7546,288.2958,131.9636,298.2797,132.2022,308.2635,130.7788,318.2474,132.1785,328.2313,131.2035,338.2151,132.0338,348.199,131.005,358.1828,131.4315,368.1667,132.2416,378.1505,131.4513,388.1344,131.6053,398.1182,131.8386,408.1021,131.9162,418.0859,131.4961,428.0698,131.7872,438.0536,130.9276,448.0375,131.7844,458.0214,132.0482,468.0052,131.9445,477.9891,132.113,487.9729,131.0169,497.9568,130.8478,507.9406,130.8786,517.9245,131.4411,527.9083,131.3035,537.8922,132.1814,547.876,131.3253,557.8599,131.5,567.8438,131.5,567.7294,129.5,567.9198,127.5,567.6215,125.5,567.6707,123.5,568.0601,121.5,567.8438,121.9357,567.8438,122.2345,557.8599,121.1782,547.876,121.8192,537.8922,122.0904,527.9083,121.0276,517.9245,121.4041,507.9406,121.626,497.9568,122.1518,487.9729,121.4958,477.9891,121.9626,468.0052,120.9462,458.0214,120.8227,448.0375,122.0036,438.0536,120.7831,428.0698,122.009,418.0859,121.7066,408.1021,121.2321,398.1182,121.1462,388.1344,121.9588,378.1505,121.2007,368.1667,122.0919,358.1828,120.9473,348.199,122.1174,338.2151,121.9843,328.2313,121.745,318.2474,121.5472,308.2635,122.2266,298.2797,122.1136,288.2958,121.6693,278.312,121.7682,268.3281,121.3697,258.3443,122.2165,248.3604,121.6549,238.3766,121.6726,228.3927,120.8916,218.4089,121.0948,208.425,122.0307,198.4411,121.9298,188.4573,121.4571,178.4734,121.1778,168.4896,121.2811,158.5057,120.8138,148.5219,121.9147,138.538,122.2396,128.5542,121.5,118.5703" style="stroke:#181818;stroke-width:1.0;"/><polygon fill="#FFFFFF" points="286.5,270.3281,286.5,270.3982,288.5,270.19,290.5,270.3926,292.5,270.4614,294.5,270.0903,296.5,270.3281,296.4741,270.3281,296.3578,276.3984,296.3722,282.4688,296.4773,288.5391,296.2695,294.6094,296.5,300.6797,296.5,300.8642,294.5,300.4696,292.5,300.6138,290.5,300.8237,288.5,300.6511,286.5,300.6797,286.5227,300.6797,286.4894,294.6094,286.5595,288.5391,286.5797,282.4688,286.6952,276.3984,286.5,270.3281" style="stroke:#181818;stroke-width:1.0;"/><polygon fill="#FFFFFF" points="428.5,342.207,428.5,342.2771,430.5,342.0689,432.5,342.2715,434.5,342.3403,436.5,341.9692,438.5,342.207,438.4223,342.207,438.0735,351.9713,438.1165,361.7355,438.4318,371.4998,437.8086,381.2641,439.0536,391.0283,437.8697,400.7926,438.3022,410.5568,438.9319,420.3211,438.4142,430.0854,438.5682,439.8496,438.4681,449.6139,438.6785,459.3781,438.7391,469.1424,439.0857,478.9066,439.1711,488.6709,439.1793,498.4352,438.7546,508.1994,438.9636,517.9637,439.2022,527.7279,438.5,537.4922,438.5,537.2518,436.5,537.7184,434.5,537.3934,432.5,537.6701,430.5,537.3272,428.5,537.4922,428.4315,537.4922,429.2416,527.7279,428.4513,517.9637,428.6053,508.1994,428.8386,498.4352,428.9162,488.6709,428.4961,478.9066,428.7872,469.1424,427.9276,459.3781,428.7844,449.6139,429.0482,439.8496,428.9445,430.0854,429.113,420.3211,428.0169,410.5568,427.8478,400.7926,427.8786,391.0283,428.4411,381.2641,428.3035,371.4998,429.1814,361.7355,428.3253,351.9713,428.5,342.207" style="stroke:#181818;stroke-width:1.0;"/><polygon fill="#FFFFFF" points="566.5,383.7344,566.5,383.8044,568.5,383.5963,570.5,383.7988,572.5,383.8676,574.5,383.4966,576.5,383.7344,576.4741,383.7344,576.3578,389.8047,576.3722,395.875,576.4773,401.9453,576.2695,408.0156,576.5,414.0859,576.5,414.2705,574.5,413.8758,572.5,414.02,570.5,414.2299,568.5,414.0573,566.5,414.0859,566.5227,414.0859,566.4894,408.0156,566.5595,401.9453,566.5797,395.875,566.6952,389.8047,566.5,383.7344" style="stroke:#181818;stroke-width:1.0;"/><polygon fill="#FFFFFF" points="670.5,444.4375,670.5,444.5076,672.5,444.2994,674.5,444.5019,676.5,444.5707,678.5,444.1997,680.5,444.4375,680.4223,444.4375,680.0735,454.5379,680.1165,464.6384,680.4318,474.7388,679.8086,484.8393,681.0536,494.9397,679.8697,505.0402,680.5,515.1406,680.5,515.0747,678.5,515.2846,676.5,515.112,674.5,515.1634,672.5,515.13,670.5,515.1406,670.6785,515.1406,670.7391,505.0402,671.0857,494.9397,671.1711,484.8393,671.1793,474.7388,670.7546,464.6384,670.9636,454.5379,670.5,444.4375" style="stroke:#181818;stroke-width:1.0;"/><polygon fill="#181818" points="109.5,114.5703,109.526,114.6354,111.4487,115.2421,113.5239,116.2301,115.5495,117.094,117.4117,117.5495,119.5,118.5703,119.4904,118.5463,117.4472,119.2383,115.4525,120.0516,113.4916,120.9492,111.4144,121.5563,109.5,122.5703,109.6305,122.7008,110.1514,121.6218,111.0534,120.9237,112.0018,120.2721,112.6798,119.3501,113.5,118.5703,113.5161,118.5864,112.6925,117.7628,111.9421,117.0124,111.1564,116.2267,110.438,115.5084,109.5,114.5703" style="stroke:#181818;stroke-width:1.0;"/><path d="M22.5,118.5703 L22.5,118.8506 L32.8333,118.0179 L43.1667,118.828 L53.5,119.1032 L63.8333,117.6191 L74.1667,118.4667 L84.5,118.0017 L94.8333,118.059 L105.1667,118.4794 L115.5,118.5703 " fill="none" style="stroke:#181818;stroke-width:1.0;stroke-dasharray:2.0,2.0;"/><text fill="#000000" font-family="FG Virgil" font-size="13" lengthAdjust="spacing" textLength="70" x="29.5" y="113.7139">Show Board</text><polygon fill="#181818" points="279.5,144.9219,279.526,144.9869,281.4487,145.5936,283.5239,146.5817,285.5495,147.4456,287.4117,147.9011,289.5,148.9219,289.4904,148.8978,287.4472,149.5899,285.4525,150.4032,283.4916,151.3008,281.4144,151.9079,279.5,152.9219,279.6305,153.0524,280.1514,151.9733,281.0534,151.2753,282.0018,150.6237,282.6798,149.7017,283.5,148.9219,283.5161,148.938,282.6925,148.1143,281.9421,147.364,281.1564,146.5782,280.438,145.8599,279.5,144.9219" style="stroke:#181818;stroke-width:1.0;"/><path d="M131.5,148.9219 L131.5,149.2021 L141.7667,148.3694 L152.0333,149.1796 L162.3,149.4548 L172.5667,147.9707 L182.8333,148.8183 L193.1,148.3532 L203.3667,148.4105 L213.6333,148.831 L223.9,148 L234.1667,149.6601 L244.4333,148.0815 L254.7,148.6582 L264.9667,149.4978 L275.2333,148.8075 L285.5,148.9219 " fill="none" style="stroke:#181818;stroke-width:1.0;"/><text fill="#000000" font-family="FG Virgil" font-size="13" lengthAdjust="spacing" textLength="44" x="138.5" y="144.0654">create()</text><polygon fill="#181818" points="421.5,175.2734,421.526,175.3385,423.4487,175.9452,425.5239,176.9333,427.5495,177.7971,429.4117,178.2526,431.5,179.2734,431.4904,179.2494,429.4472,179.9414,427.4525,180.7547,425.4916,181.6523,423.4144,182.2595,421.5,183.2734,421.6305,183.4039,422.1514,182.3249,423.0534,181.6268,424.0018,180.9752,424.6798,180.0532,425.5,179.2734,425.5161,179.2895,424.6925,178.4659,423.9421,177.7155,423.1564,176.9298,422.438,176.2115,421.5,175.2734" style="stroke:#181818;stroke-width:1.0;"/><path d="M131.5,179.2734 L131.5,179.5537 L141.3667,178.721 L151.2333,179.5312 L161.1,179.8063 L170.9667,178.3222 L180.8333,179.1698 L190.7,178.7048 L200.5667,178.7621 L210.4333,179.1826 L220.3,178.3516 L230.1667,180.0116 L240.0333,178.4331 L249.9,179.0097 L259.7667,179.8494 L269.6333,179.1591 L279.5,179.3644 L289.3667,179.2308 L299.2333,179.5115 L309.1,179.5923 L318.9667,180.0544 L328.8333,180.1682 L338.7,180.1791 L348.5667,179.6129 L358.4333,179.8916 L368.3,180.2097 L378.1667,178.3119 L388.0333,180.1781 L397.9,178.8781 L407.7667,179.9852 L417.6333,178.6134 L427.5,179.2734 " fill="none" style="stroke:#181818;stroke-width:1.0;"/><text fill="#000000" font-family="FG Virgil" font-size="13" lengthAdjust="spacing" textLength="44" x="138.5" y="174.417">create()</text><polygon fill="#181818" points="33.5,205.625,33.526,205.69,31.4487,206.2968,29.5239,207.2848,27.5495,208.1487,25.4117,208.6042,23.5,209.625,23.4904,209.6009,25.4472,210.293,27.4525,211.1063,29.4916,212.0039,31.4144,212.611,33.5,213.625,33.6305,213.7555,32.5514,212.6764,31.8534,211.9784,31.2018,211.3268,30.2798,210.4048,29.5,209.625,29.5161,209.6411,30.2925,208.8175,31.1421,208.0671,31.9564,207.2814,32.838,206.563,33.5,205.625" style="stroke:#181818;stroke-width:1.0;"/><path d="M27.5,209.625 L27.5,209.9052 L37.8333,209.0726 L48.1667,209.8827 L58.5,210.1579 L68.8333,208.6738 L79.1667,209.5214 L89.5,209.0563 L99.8333,209.1137 L110.1667,209.5341 L120.5,209.625 " fill="none" style="stroke:#181818;stroke-width:1.0;stroke-dasharray:2.0,2.0;"/><text fill="#000000" font-family="FG Virgil" font-size="13" lengthAdjust="spacing" textLength="73" x="39.5" y="204.7686">Ask board id</text><polygon fill="#181818" points="109.5,235.9766,109.526,236.0416,111.4487,236.6483,113.5239,237.6364,115.5495,238.5003,117.4117,238.9558,119.5,239.9766,119.4904,239.9525,117.4472,240.6446,115.4525,241.4579,113.4916,242.3555,111.4144,242.9626,109.5,243.9766,109.6305,244.1071,110.1514,243.028,111.0534,242.3299,112.0018,241.6784,112.6798,240.7563,113.5,239.9766,113.5161,239.9926,112.6925,239.169,111.9421,238.4186,111.1564,237.6329,110.438,236.9146,109.5,235.9766" style="stroke:#181818;stroke-width:1.0;"/><path d="M22.5,239.9766 L22.5,240.2568 L32.8333,239.4241 L43.1667,240.2343 L53.5,240.5095 L63.8333,239.0254 L74.1667,239.8729 L84.5,239.4079 L94.8333,239.4652 L105.1667,239.8857 L115.5,239.9766 " fill="none" style="stroke:#181818;stroke-width:1.0;stroke-dasharray:2.0,2.0;"/><text fill="#000000" font-family="FG Virgil" font-size="13" lengthAdjust="spacing" textLength="44" x="29.5" y="235.1201">BoardId</text><polygon fill="#181818" points="274.5,266.3281,274.526,266.3932,276.4487,266.9999,278.5239,267.9879,280.5495,268.8518,282.4117,269.3073,284.5,270.3281,284.4904,270.3041,282.4472,270.9961,280.4525,271.8094,278.4916,272.707,276.4144,273.3142,274.5,274.3281,274.6305,274.4586,275.1514,273.3796,276.0534,272.6815,277.0018,272.0299,277.6798,271.1079,278.5,270.3281,278.5161,270.3442,277.6925,269.5206,276.9421,268.7702,276.1564,267.9845,275.438,267.2662,274.5,266.3281" style="stroke:#181818;stroke-width:1.0;"/><path d="M131.5,270.3281 L131.5,270.6084 L141.4333,269.7757 L151.3667,270.5858 L161.3,270.861 L171.2333,269.3769 L181.1667,270.2245 L191.1,269.7595 L201.0333,269.8168 L210.9667,270.2372 L220.9,269.4063 L230.8333,271.0663 L240.7667,269.4878 L250.7,270.0644 L260.6333,270.9041 L270.5667,270.2138 L280.5,270.3281 " fill="none" style="stroke:#181818;stroke-width:1.0;"/><text fill="#000000" font-family="FG Virgil" font-size="13" lengthAdjust="spacing" textLength="136" x="138.5" y="265.4717">getUserByToken(token)</text><polygon fill="#181818" points="142.5,296.6797,142.526,296.7447,140.4487,297.3515,138.5239,298.3395,136.5495,299.2034,134.4117,299.6589,132.5,300.6797,132.4904,300.6556,134.4472,301.3477,136.4525,302.161,138.4916,303.0586,140.4144,303.6657,142.5,304.6797,142.6305,304.8102,141.5514,303.7311,140.8534,303.0331,140.2018,302.3815,139.2798,301.4595,138.5,300.6797,138.5161,300.6958,139.2925,299.8722,140.1421,299.1218,140.9564,298.3361,141.838,297.6177,142.5,296.6797" style="stroke:#181818;stroke-width:1.0;"/><path d="M136.5,300.6797 L136.5,300.9599 L146.7667,300.1273 L157.0333,300.9374 L167.3,301.2126 L177.5667,299.7285 L187.8333,300.5761 L198.1,300.111 L208.3667,300.1684 L218.6333,300.5888 L228.9,299.7579 L239.1667,301.4179 L249.4333,299.8393 L259.7,300.416 L269.9667,301.2556 L280.2333,300.5653 L290.5,300.6797 " fill="none" style="stroke:#181818;stroke-width:1.0;"/><text fill="#000000" font-family="FG Virgil" font-size="13" lengthAdjust="spacing" textLength="52" x="148.5" y="295.8232">authUser</text><polygon fill="#181818" points="416.5,338.207,416.526,338.2721,418.4487,338.8788,420.5239,339.8669,422.5495,340.7307,424.4117,341.1862,426.5,342.207,426.4904,342.183,424.4472,342.875,422.4525,343.6883,420.4916,344.5859,418.4144,345.1931,416.5,346.207,416.6305,346.3375,417.1514,345.2585,418.0534,344.5604,419.0018,343.9088,419.6798,342.9868,420.5,342.207,420.5161,342.2231,419.6925,341.3995,418.9421,340.6491,418.1564,339.8634,417.438,339.1451,416.5,338.207" style="stroke:#181818;stroke-width:1.0;"/><path d="M131.5,342.207 L131.5,342.4873 L141.5345,341.6546 L151.569,342.4647 L161.6034,342.7399 L171.6379,341.2558 L181.6724,342.1034 L191.7069,341.6384 L201.7414,341.6957 L211.7759,342.1162 L221.8103,341.2852 L231.8448,342.9452 L241.8793,341.3667 L251.9138,341.9433 L261.9483,342.783 L271.9828,342.0927 L282.0172,342.298 L292.0517,342.1644 L302.0862,342.4451 L312.1207,342.5259 L322.1552,342.988 L332.1897,343.1018 L342.2241,343.1127 L352.2586,342.5465 L362.2931,342.8251 L372.3276,343.1433 L382.3621,341.2455 L392.3966,343.1117 L402.431,341.8117 L412.4655,342.9188 L422.5,342.207 " fill="none" style="stroke:#181818;stroke-width:1.0;"/><text fill="#000000" font-family="FG Virgil" font-size="13" lengthAdjust="spacing" textLength="188" x="138.5" y="337.3506">getBoardById(boardId, authUser)</text><path d="M443,313.6797 L443.1868,313.6797 L442.6317,322.0797 L443.1718,330.4797 L443.3553,338.8797 L442.3659,347.2797 L443,355.6797 L443,355.4725 L453.0833,354.5424 L463.1667,354.657 L473.25,355.4979 L483.3333,353.836 L493.4167,357.1561 L503.5,353.9989 L513.5833,355.1523 L523.6667,356.8315 L533.75,355.4509 L543.8333,355.8617 L553.9167,355.5945 L564,356.1558 L574.0833,356.3174 L584.1667,357.2415 L594.25,357.4692 L604.3333,357.491 L614.4167,356.3587 L624.5,356.9159 L634.5833,357.5523 L644.6667,353.7565 L654.75,357.489 L664.8333,354.889 L674.9167,357.1032 L685,355.6797 L684.56,355.6797 L684.9391,349.2797 L685.6592,342.8797 L684.9567,336.4797 L685.0936,330.0797 L685,323.6797 L685.2128,323.8925 L683.2616,321.9413 L680.9975,319.6772 L679.1805,317.8602 L676.6402,315.3199 L675,313.6797 L675,314.4381 L664.913,315.1415 L654.8261,314.8651 L644.7391,315.3144 L634.6522,312.3915 L624.5652,311.9405 L614.4783,312.0226 L604.3913,313.5227 L594.3043,313.1556 L584.2174,315.4968 L574.1304,313.2139 L564.0435,312.7649 L553.9565,314.2884 L543.8696,311.9015 L533.7826,312.2954 L523.6957,315.4102 L513.6087,314.8415 L503.5217,315.6383 L493.4348,312.8216 L483.3478,314.5309 L473.2609,315.2541 L463.1739,312.4199 L453.087,313.4241 L443,313.6797 " fill="#FAFAFA" style="stroke:#181818;stroke-width:0.5;"/><path d="M675,313.6797 L675.112,313.6797 L675.5793,315.6797 L674.9963,317.6797 L675.4112,319.6797 L674.5077,321.6797 L675,323.6797 L675,323.0777 L677,324.1273 L679,323.0424 L681,324.1321 L683,323.8634 L685,323.6797 L684.8316,323.5113 L682.7776,321.4573 L681.2883,319.968 L678.8119,317.4915 L677.372,316.0517 L675,313.6797 " fill="#FAFAFA" style="stroke:#181818;stroke-width:0.5;"/><text fill="#000000" font-family="FG Virgil" font-size="13" lengthAdjust="spacing" textLength="221" x="449" y="332.1748">dependency injection was abastracted</text><text fill="#000000" font-family="FG Virgil" font-size="13" lengthAdjust="spacing" textLength="127" x="449" y="348.5264">for diagram readability</text><polygon fill="#181818" points="554.5,379.7344,554.526,379.7994,556.4487,380.4061,558.5239,381.3942,560.5495,382.2581,562.4117,382.7136,564.5,383.7344,564.4904,383.7103,562.4472,384.4024,560.4525,385.2157,558.4916,386.1133,556.4144,386.7204,554.5,387.7344,554.6305,387.8649,555.1514,386.7858,556.0534,386.0878,557.0018,385.4362,557.6798,384.5142,558.5,383.7344,558.5161,383.7505,557.6925,382.9268,556.9421,382.1765,556.1564,381.3907,555.438,380.6724,554.5,379.7344" style="stroke:#181818;stroke-width:1.0;"/><path d="M438.5,383.7344 L438.5,384.0146 L448.6667,383.1819 L458.8333,383.9921 L469,384.2673 L479.1667,382.7832 L489.3333,383.6308 L499.5,383.1657 L509.6667,383.223 L519.8333,383.6435 L530,382.8125 L540.1667,384.4726 L550.3333,382.894 L560.5,383.7344 " fill="none" style="stroke:#181818;stroke-width:1.0;"/><text fill="#000000" font-family="FG Virgil" font-size="13" lengthAdjust="spacing" textLength="102" x="445.5" y="378.8779">ofIdentity(boardId)</text><polygon fill="#181818" points="449.5,410.0859,449.526,410.151,447.4487,410.7577,445.5239,411.7458,443.5495,412.6096,441.4117,413.0651,439.5,414.0859,439.4904,414.0619,441.4472,414.7539,443.4525,415.5672,445.4916,416.4648,447.4144,417.072,449.5,418.0859,449.6305,418.2164,448.5514,417.1374,447.8534,416.4393,447.2018,415.7877,446.2798,414.8657,445.5,414.0859,445.5161,414.102,446.2925,413.2784,447.1421,412.528,447.9564,411.7423,448.838,411.024,449.5,410.0859" style="stroke:#181818;stroke-width:1.0;"/><path d="M443.5,414.0859 L443.5,414.3662 L453.2692,413.5335 L463.0385,414.3437 L472.8077,414.6188 L482.5769,413.1347 L492.3462,413.9823 L502.1154,413.5173 L511.8846,413.5746 L521.6538,413.9951 L531.4231,413.1641 L541.1923,414.8241 L550.9615,413.2456 L560.7308,413.8222 L570.5,414.0859 " fill="none" style="stroke:#181818;stroke-width:1.0;"/><text fill="#000000" font-family="FG Virgil" font-size="13" lengthAdjust="spacing" textLength="32" x="455.5" y="409.2295">board</text><polygon fill="#181818" points="658.5,440.4375,658.526,440.5025,660.4487,441.1093,662.5239,442.0973,664.5495,442.9612,666.4117,443.4167,668.5,444.4375,668.4904,444.4134,666.4472,445.1055,664.4525,445.9188,662.4916,446.8164,660.4144,447.4235,658.5,448.4375,658.6305,448.568,659.1514,447.4889,660.0534,446.7909,661.0018,446.1393,661.6798,445.2173,662.5,444.4375,662.5161,444.4536,661.6925,443.63,660.9421,442.8796,660.1564,442.0939,659.438,441.3755,658.5,440.4375" style="stroke:#181818;stroke-width:1.0;"/><path d="M438.5,444.4375 L438.5,444.7177 L448.3261,443.8851 L458.1522,444.6952 L467.9783,444.9704 L477.8043,443.4863 L487.6304,444.3339 L497.4565,443.8688 L507.2826,443.9262 L517.1087,444.3466 L526.9348,443.5157 L536.7609,445.1757 L546.587,443.5971 L556.413,444.1738 L566.2391,445.0134 L576.0652,444.3231 L585.8913,444.5285 L595.7174,444.3949 L605.5435,444.6755 L615.3696,444.7563 L625.1957,445.2184 L635.0217,445.3322 L644.8478,445.3432 L654.6739,444.777 L664.5,444.4375 " fill="none" style="stroke:#181818;stroke-width:1.0;"/><text fill="#000000" font-family="FG Virgil" font-size="13" lengthAdjust="spacing" textLength="196" x="445.5" y="439.5811">userHasAnyPermission(authUser)</text><path d="M351.5,459.4375 L351.5,459.998 L361.6667,458.3326 L371.8333,459.9529 L382,460.5033 L392.1667,457.5351 L402.3333,459.2303 L412.5,459.4375 L412.1209,459.4375 L412.1591,461.1078 L412.4394,462.7781 L411.8854,464.4484 L412.9921,466.1188 L412.5,467.7891 L412.1038,467.3929 L410.3757,469.6648 L408.7715,472.0606 L406.4461,473.7351 L404.5429,475.832 L402.5,477.7891 L402.5,477.7039 L392.3,478.2651 L382.1,478.4268 L371.9,479.3509 L361.7,479.5785 L351.5,477.7891 L352.1038,477.7891 L351.7263,474.1188 L351.9121,470.4484 L352.1242,466.7781 L350.8589,463.1078 L351.5,459.4375 " fill="#EEEEEE" style="stroke:#000000;stroke-width:1.5;"/><polygon fill="none" points="351.5,459.4375,351.5,459.6477,361.5541,459.0232,371.6081,459.6308,381.6622,459.8372,391.7162,458.7241,401.7703,459.3598,411.8243,459.011,421.8784,459.054,431.9324,459.3693,441.9865,458.7461,452.0405,459.9911,462.0946,458.8072,472.1486,459.2397,482.2027,459.8694,492.2568,459.3517,502.3108,459.5057,512.3649,459.4056,522.4189,459.616,532.473,459.6766,542.527,460.0232,552.5811,460.1086,562.6351,460.1168,572.6892,459.6921,582.7432,459.9011,592.7973,460.1397,602.8514,458.7163,612.9054,460.116,622.9595,459.141,633.0135,459.9713,643.0676,458.9425,653.1216,459.369,663.1757,460.1791,673.2297,459.3888,683.2838,459.5428,693.3378,459.7761,703.3919,459.8537,713.4459,459.4336,723.5,459.4375,723.7872,459.4375,722.9276,469.1781,723.7844,478.9188,724.0482,488.6594,723.9445,498.4,723.5,508.1406,723.5,508.7536,713.4459,507.6575,703.3919,507.4884,693.3378,507.5192,683.2838,508.0817,673.2297,507.9441,663.1757,508.822,653.1216,507.9659,643.0676,507.7976,633.0135,508.3689,622.9595,507.4738,612.9054,507.6215,602.8514,508.7896,592.7973,508.5763,582.7432,508.8751,572.6892,507.8188,562.6351,508.4598,552.5811,508.731,542.527,507.6682,532.473,508.0448,522.4189,508.2666,512.3649,508.7924,502.3108,508.1364,492.2568,508.6032,482.2027,507.5868,472.1486,507.4634,462.0946,508.6442,452.0405,507.4237,441.9865,508.6496,431.9324,508.3473,421.8784,507.8727,411.8243,507.7869,401.7703,508.5994,391.7162,507.8413,381.6622,508.7325,371.6081,507.5879,361.5541,508.7581,351.5,508.1406,351.9843,508.1406,351.745,498.4,351.5472,488.6594,352.2266,478.9188,352.1136,469.1781,351.5,459.4375" style="stroke:#000000;stroke-width:1.5;"/><text fill="#000000" font-family="FG Virgil" font-size="13" font-weight="bold" lengthAdjust="spacing" textLength="16" x="366.5" y="473.9326">alt</text><text fill="#000000" font-family="FG Virgil" font-size="11" font-weight="bold" lengthAdjust="spacing" textLength="178" x="427.5" y="472.8564">[user have access to that board]</text><polygon fill="#181818" points="449.5,496.1406,449.526,496.2057,447.4487,496.8124,445.5239,497.8004,443.5495,498.6643,441.4117,499.1198,439.5,500.1406,439.4904,500.1166,441.4472,500.8086,443.4525,501.6219,445.4916,502.5195,447.4144,503.1267,449.5,504.1406,449.6305,504.2711,448.5514,503.1921,447.8534,502.494,447.2018,501.8424,446.2798,500.9204,445.5,500.1406,445.5161,500.1567,446.2925,499.3331,447.1421,498.5827,447.9564,497.797,448.838,497.0787,449.5,496.1406" style="stroke:#181818;stroke-width:1.0;"/><path d="M443.5,500.1406 L443.5,500.4209 L453.3261,499.5882 L463.1522,500.3983 L472.9783,500.6735 L482.8043,499.1894 L492.6304,500.037 L502.4565,499.572 L512.2826,499.6293 L522.1087,500.0497 L531.9348,499.2188 L541.7609,500.8788 L551.587,499.3003 L561.413,499.8769 L571.2391,500.7166 L581.0652,500.0263 L590.8913,500.2316 L600.7174,500.098 L610.5435,500.3787 L620.3696,500.4595 L630.1957,500.9215 L640.0217,501.0354 L649.8478,501.0463 L659.6739,500.4801 L669.5,500.1406 " fill="none" style="stroke:#181818;stroke-width:1.0;"/><text fill="#000000" font-family="FG Virgil" font-size="13" lengthAdjust="spacing" textLength="22" x="455.5" y="495.2842">true</text><polygon fill="#181818" points="142.5,533.4922,142.526,533.5572,140.4487,534.164,138.5239,535.152,136.5495,536.0159,134.4117,536.4714,132.5,537.4922,132.4904,537.4681,134.4472,538.1602,136.4525,538.9735,138.4916,539.8711,140.4144,540.4782,142.5,541.4922,142.6305,541.6227,141.5514,540.5436,140.8534,539.8456,140.2018,539.194,139.2798,538.272,138.5,537.4922,138.5161,537.5083,139.2925,536.6847,140.1421,535.9343,140.9564,535.1486,141.838,534.4302,142.5,533.4922" style="stroke:#181818;stroke-width:1.0;"/><path d="M136.5,537.4922 L136.5,537.7724 L146.3667,536.9398 L156.2333,537.7499 L166.1,538.0251 L175.9667,536.541 L185.8333,537.3886 L195.7,536.9235 L205.5667,536.9809 L215.4333,537.4013 L225.3,536.5704 L235.1667,538.2304 L245.0333,536.6518 L254.9,537.2285 L264.7667,538.0681 L274.6333,537.3778 L284.5,537.5832 L294.3667,537.4496 L304.2333,537.7302 L314.1,537.811 L323.9667,538.2731 L333.8333,538.3869 L343.7,538.3979 L353.5667,537.8317 L363.4333,538.1103 L373.3,538.4285 L383.1667,536.5306 L393.0333,538.3969 L402.9,537.0968 L412.7667,538.2039 L422.6333,536.8322 L432.5,537.4922 " fill="none" style="stroke:#181818;stroke-width:1.0;"/><text fill="#000000" font-family="FG Virgil" font-size="13" lengthAdjust="spacing" textLength="32" x="148.5" y="532.6357">board</text><polygon fill="#181818" points="33.5,563.8438,33.526,563.9088,31.4487,564.5155,29.5239,565.5036,27.5495,566.3674,25.4117,566.823,23.5,567.8438,23.4904,567.8197,25.4472,568.5118,27.4525,569.3251,29.4916,570.2227,31.4144,570.8298,33.5,571.8438,33.6305,571.9742,32.5514,570.8952,31.8534,570.1971,31.2018,569.5456,30.2798,568.6235,29.5,567.8438,29.5161,567.8598,30.2925,567.0362,31.1421,566.2858,31.9564,565.5001,32.838,564.7818,33.5,563.8438" style="stroke:#181818;stroke-width:1.0;"/><path d="M27.5,567.8438 L27.5,568.124 L37.3,567.2913 L47.1,568.1015 L56.9,568.3767 L66.7,566.8926 L76.5,567.7401 L86.3,567.2751 L96.1,567.3324 L105.9,567.7529 L115.7,566.9219 L125.5,567.8438 " fill="none" style="stroke:#181818;stroke-width:1.0;stroke-dasharray:2.0,2.0;"/><text fill="#000000" font-family="FG Virgil" font-size="13" lengthAdjust="spacing" textLength="75" x="39.5" y="562.9873">displayBoard</text><!--MD5=[0ba460e9fe97f421cb702ea2037389a6]
@startuml
'http://plantuml.com/skinparam.html
skinparam handwritten true
skinparam monochrome true
skinparam packageStyle rect
skinparam defaultFontName FG Virgil
skinparam shadowing false

actor User as Actor
participant HttpServerAjax as Server <<http server>>
participant SessionManager as SM
participant GetBoardsController as Controller <<application>>
database BoardRepository as Repository <<repository>>
participant Board as Domain <<domain>>


Actor - -> Server: Show Board
activate Server
    Server -> SM: create()
    Server -> Controller: create()

    Server - -> Actor: Ask board id
    Actor - -> Server: BoardId


    Server -> SM: getUserByToken(token)
    activate SM
    SM -> Server: authUser
    deactivate SM
        
    Server -> Controller: getBoardById(boardId, authUser)
    activate Controller
    note right: dependency injection was abastracted\nfor diagram readability


    Controller -> Repository: ofIdentity(boardId)
    activate Repository
    Repository -> Controller: board
    deactivate Repository

    Controller -> Domain: userHasAnyPermission(authUser)
    activate Domain
    alt  user have access to that board
    Domain -> Controller: true
    end
    deactivate Domain

    Controller -> Server: board
    deactivate Controller

    Server - -> Actor: displayBoard

deactivate Server
@enduml

@startuml
skinparam handwritten true
skinparam monochrome true
skinparam packageStyle rect
skinparam defaultFontName FG Virgil
skinparam shadowing false

actor User as Actor
participant HttpServerAjax as Server <<http server>>
participant SessionManager as SM
participant GetBoardsController as Controller <<application>>
database BoardRepository as Repository <<repository>>
participant Board as Domain <<domain>>


Actor - -> Server: Show Board
activate Server
    Server -> SM: create()
    Server -> Controller: create()

    Server - -> Actor: Ask board id
    Actor - -> Server: BoardId


    Server -> SM: getUserByToken(token)
    activate SM
    SM -> Server: authUser
    deactivate SM
        
    Server -> Controller: getBoardById(boardId, authUser)
    activate Controller
    note right: dependency injection was abastracted\nfor diagram readability


    Controller -> Repository: ofIdentity(boardId)
    activate Repository
    Repository -> Controller: board
    deactivate Repository

    Controller -> Domain: userHasAnyPermission(authUser)
    activate Domain
    alt  user have access to that board
    Domain -> Controller: true
    end
    deactivate Domain

    Controller -> Server: board
    deactivate Controller

    Server - -> Actor: displayBoard

deactivate Server
@enduml

PlantUML version 1.2022.7(Mon Aug 22 18:01:30 BST 2022)
(GPL source distribution)
Java Runtime: Java(TM) SE Runtime Environment
JVM: Java HotSpot(TM) 64-Bit Server VM
Default Encoding: Cp1252
Language: pt
Country: PT
--></g></svg>