<?xml version="1.0" encoding="UTF-8" standalone="no"?><svg xmlns="http://www.w3.org/2000/svg" xmlns:xlink="http://www.w3.org/1999/xlink" contentStyleType="text/css" height="743px" preserveAspectRatio="none" style="width:898px;height:743px;background:#FFFFFF;" version="1.1" viewBox="0 0 898 743" width="898px" zoomAndPan="magnify"><defs/><g><polygon fill="#FFFFFF" points="174.5,118.5703,174.5,118.6404,176.5,118.4322,178.5,118.6347,180.5,118.7035,182.5,118.3325,184.5,118.5703,184.4223,118.5703,184.0735,128.5699,184.1165,138.5694,184.4318,148.5689,183.8086,158.5685,185.0536,168.568,183.8697,178.5676,184.3022,188.5671,184.9319,198.5666,184.4142,208.5662,184.5682,218.5657,184.4681,228.5653,184.6785,238.5648,184.7391,248.5643,185.0857,258.5639,185.1711,268.5634,185.1793,278.563,184.7546,288.5625,184.9636,298.562,185.2022,308.5616,183.7788,318.5611,185.1785,328.5607,184.2035,338.5602,185.0338,348.5597,184.005,358.5593,184.4315,368.5588,185.2416,378.5584,184.4513,388.5579,184.6053,398.5574,184.8386,408.557,184.9162,418.5565,184.4961,428.5561,184.7872,438.5556,183.9276,448.5551,184.7844,458.5547,185.0482,468.5542,184.9445,478.5538,185.113,488.5533,184.0169,498.5528,183.8478,508.5524,183.8786,518.5519,184.4411,528.5515,184.3035,538.551,185.1814,548.5506,184.3253,558.5501,184.1569,568.5496,184.7283,578.5492,183.8332,588.5487,183.9809,598.5483,185.149,608.5478,184.9357,618.5473,184.5,628.5469,184.5,628.7917,182.5,628.4396,180.5,628.6533,178.5,628.7437,176.5,628.3894,174.5,628.5469,174.4041,628.5469,174.626,618.5473,175.1518,608.5478,174.4958,598.5483,174.9626,588.5487,173.9462,578.5492,173.8227,568.5496,175.0036,558.5501,173.7831,548.5506,175.009,538.551,174.7066,528.5515,174.2321,518.5519,174.1462,508.5524,174.9588,498.5528,174.2007,488.5533,175.0919,478.5538,173.9473,468.5542,175.1174,458.5547,174.9843,448.5551,174.745,438.5556,174.5472,428.5561,175.2266,418.5565,175.1136,408.557,174.6693,398.5574,174.7682,388.5579,174.3697,378.5584,175.2165,368.5588,174.6549,358.5593,174.6726,348.5597,173.8916,338.5602,174.0948,328.5607,175.0307,318.5611,174.9298,308.5616,174.4571,298.562,174.1778,288.5625,174.2811,278.563,173.8138,268.5634,174.9147,258.5639,175.2396,248.5643,175.0264,238.5648,175.1949,228.5653,174.3633,218.5657,174.5872,208.5662,174.1124,198.5666,174.784,188.5671,174.7468,178.5676,175.0524,168.568,174.2703,158.5685,174.3656,148.5689,174.9435,138.5694,175.0673,128.5699,174.5,118.5703" style="stroke:#181818;stroke-width:1.0;"/><polygon fill="#FFFFFF" points="339.5,270.3281,339.5,270.3982,341.5,270.19,343.5,270.3926,345.5,270.4614,347.5,270.0903,349.5,270.3281,349.4741,270.3281,349.3578,276.3984,349.3722,282.4688,349.4773,288.5391,349.2695,294.6094,349.5,300.6797,349.5,300.8642,347.5,300.4696,345.5,300.6138,343.5,300.8237,341.5,300.6511,339.5,300.6797,339.5227,300.6797,339.4894,294.6094,339.5595,288.5391,339.5797,282.4688,339.6952,276.3984,339.5,270.3281" style="stroke:#181818;stroke-width:1.0;"/><polygon fill="#FFFFFF" points="480,342.207,480,342.2771,482,342.0689,484,342.2715,486,342.3403,488,341.9692,490,342.207,489.9223,342.207,489.5735,352.0527,489.6165,361.8984,489.9318,371.7441,489.3086,381.5898,490.5536,391.4355,489.3697,401.2813,489.8022,411.127,490.4319,420.9727,489.9142,430.8184,490.0682,440.6641,489.9681,450.5098,490.1785,460.3555,490.2391,470.2012,490.5857,480.0469,490.6711,489.8926,490.6793,499.7383,490.2546,509.584,490.4636,519.4297,490.7022,529.2754,489.2788,539.1211,490.6785,548.9668,489.7035,558.8125,490.5338,568.6582,489.505,578.5039,489.9315,588.3496,490,598.1953,490,598.4425,488,598.1791,486,598.2304,484,598.3082,482,598.3341,480,598.1953,479.9961,598.1953,480.2872,588.3496,479.4276,578.5039,480.2844,568.6582,480.5482,558.8125,480.4445,548.9668,480.613,539.1211,479.5169,529.2754,479.3478,519.4297,479.3786,509.584,479.9411,499.7383,479.8035,489.8926,480.6814,480.0469,479.8253,470.2012,479.6569,460.3555,480.2283,450.5098,479.3332,440.6641,479.4809,430.8184,480.649,420.9727,480.4357,411.127,480.7345,401.2813,479.6782,391.4355,480.3192,381.5898,480.5904,371.7441,479.5276,361.8984,479.9041,352.0527,480,342.207" style="stroke:#181818;stroke-width:1.0;"/><polygon fill="#FFFFFF" points="616.5,383.7344,616.5,383.8044,618.5,383.5963,620.5,383.7988,622.5,383.8676,624.5,383.4966,626.5,383.7344,626.4741,383.7344,626.3578,389.8047,626.3722,395.875,626.4773,401.9453,626.2695,408.0156,626.5,414.0859,626.5,414.2705,624.5,413.8758,622.5,414.02,620.5,414.2299,618.5,414.0573,616.5,414.0859,616.5227,414.0859,616.4894,408.0156,616.5595,401.9453,616.5797,395.875,616.6952,389.8047,616.5,383.7344" style="stroke:#181818;stroke-width:1.0;"/><polygon fill="#FFFFFF" points="720.5,444.4375,720.5,444.5076,722.5,444.2994,724.5,444.5019,726.5,444.5707,728.5,444.1997,730.5,444.4375,730.4223,444.4375,730.0735,453.7214,730.1165,463.0052,730.4318,472.2891,729.8086,481.5729,731.0536,490.8568,730.5,500.1406,730.5,499.9305,728.5,500.0747,726.5,500.2846,724.5,500.112,722.5,500.1634,720.5,500.1406,720.4681,500.1406,720.6785,490.8568,720.7391,481.5729,721.0857,472.2891,721.1711,463.0052,721.1793,453.7214,720.5,444.4375" style="stroke:#181818;stroke-width:1.0;"/><polygon fill="#FFFFFF" points="823,530.4922,823,530.5622,825,530.3541,827,530.5566,829,530.6254,831,530.2544,833,530.4922,832.9741,530.4922,832.8578,536.5625,832.8722,542.6328,832.9773,548.7031,832.7695,554.7734,833,560.8438,833,561.0283,831,560.6337,829,560.7778,827,560.9877,825,560.8152,823,560.8438,823.0227,560.8438,822.9894,554.7734,823.0595,548.7031,823.0797,542.6328,823.1952,536.5625,823,530.4922" style="stroke:#181818;stroke-width:1.0;"/><polygon fill="none" points="404.5,459.4375,404.5,459.6477,414.4592,459.0232,424.4184,459.6308,434.3776,459.8372,444.3367,458.7241,454.2959,459.3598,464.2551,459.011,474.2143,459.054,484.1735,459.3693,494.1327,458.7461,504.0918,459.9911,514.051,458.8072,524.0102,459.2397,533.9694,459.8694,543.9286,459.3517,553.8878,459.5057,563.8469,459.4056,573.8061,459.616,583.7653,459.6766,593.7245,460.0232,603.6837,460.1086,613.6429,460.1168,623.602,459.6921,633.5612,459.9011,643.5204,460.1397,653.4796,458.7163,663.4388,460.116,673.398,459.141,683.3571,459.9713,693.3163,458.9425,703.2755,459.369,713.2347,460.1791,723.1939,459.3888,733.1531,459.5428,743.1122,459.7761,753.0714,459.8537,763.0306,459.4336,772.9898,459.7247,782.949,458.8651,792.9082,459.7219,802.8673,459.9857,812.8265,459.882,822.7857,460.0505,832.7449,458.9544,842.7041,458.7853,852.6633,458.8161,862.6224,459.3786,872.5816,459.241,882.5408,460.1189,892.5,459.4375,892.3253,459.4375,892.1569,469.3835,892.7283,479.3295,891.8332,489.2756,891.9809,499.2216,893.149,509.1676,892.9357,519.1136,893.2345,529.0597,892.1782,539.0057,892.8192,548.9517,893.0904,558.8977,892.5,568.8438,892.5,568.3713,882.5408,568.7479,872.5816,568.9697,862.6224,569.4955,852.6633,568.8396,842.7041,569.3063,832.7449,568.29,822.7857,568.1665,812.8265,569.3474,802.8673,568.1268,792.9082,569.3527,782.949,569.0504,772.9898,568.5758,763.0306,568.49,753.0714,569.3025,743.1122,568.5444,733.1531,569.4356,723.1939,568.291,713.2347,569.4612,703.2755,569.3281,693.3163,569.0887,683.3571,568.891,673.398,569.5704,663.4388,569.4573,653.4796,569.013,643.5204,569.1119,633.5612,568.7135,623.602,569.5602,613.6429,568.9986,603.6837,569.0163,593.7245,568.2354,583.7653,568.4385,573.8061,569.3745,563.8469,569.2735,553.8878,568.8008,543.9286,568.5216,533.9694,568.6248,524.0102,568.1576,514.051,569.2585,504.0918,569.5833,494.1327,569.3701,484.1735,569.5387,474.2143,568.707,464.2551,568.931,454.2959,568.4562,444.3367,569.1278,434.3776,569.0905,424.4184,569.3961,414.4592,568.6141,404.5,568.8438,404.3656,568.8438,404.9435,558.8977,405.0673,548.9517,403.9875,539.0057,404.3061,529.0597,404.6493,519.1136,403.8892,509.1676,404.8534,499.2216,404.758,489.2756,404.3992,479.3295,404.6422,469.3835,404.5,459.4375" style="stroke:#000000;stroke-width:1.5;"/><path d="M22,86.2188 L22.2802,86.2188 L21.4476,96.2246 L22.2577,106.2305 L22.5329,116.2363 L21.0488,126.2422 L21.8964,136.248 L21.4313,146.2539 L21.4887,156.2598 L21.9091,166.2656 L21.0782,176.2715 L22.7382,186.2773 L21.1596,196.2832 L21.7363,206.2891 L22.5759,216.2949 L21.8856,226.3008 L22.091,236.3066 L21.9574,246.3125 L22.238,256.3184 L22.3188,266.3242 L22.7809,276.3301 L22.8947,286.3359 L22.9057,296.3418 L22.3395,306.3477 L22.6181,316.3535 L22.9363,326.3594 L21.0384,336.3652 L22.9047,346.3711 L21.6047,356.377 L22.7117,366.3828 L21.34,376.3887 L21.9087,386.3945 L22.9888,396.4004 L21.935,406.4063 L22.1404,416.4121 L22.4515,426.418 L22.555,436.4238 L21.9948,446.4297 L22.383,456.4355 L21.2368,466.4414 L22.3792,476.4473 L22.7309,486.4531 L22.5927,496.459 L22.8174,506.4648 L21.3559,516.4707 L21.1304,526.4766 L21.1715,536.4824 L21.9215,546.4883 L21.738,556.4941 L22.9085,566.5 L21.7671,576.5059 L21.5426,586.5117 L22.3044,596.5176 L21.1109,606.5234 L21.3078,616.5293 L22.8653,626.5352 L22.5809,636.541 L22,646.5469 " fill="none" style="stroke:#181818;stroke-width:0.5;stroke-dasharray:5.0,5.0;"/><path d="M179,86.2188 L179.2802,86.2188 L178.4476,96.2246 L179.2577,106.2305 L179.5329,116.2363 L178.0488,126.2422 L178.8964,136.248 L178.4313,146.2539 L178.4887,156.2598 L178.9091,166.2656 L178.0782,176.2715 L179.7382,186.2773 L178.1596,196.2832 L178.7363,206.2891 L179.5759,216.2949 L178.8856,226.3008 L179.091,236.3066 L178.9574,246.3125 L179.238,256.3184 L179.3188,266.3242 L179.7809,276.3301 L179.8947,286.3359 L179.9057,296.3418 L179.3395,306.3477 L179.6181,316.3535 L179.9363,326.3594 L178.0384,336.3652 L179.9047,346.3711 L178.6047,356.377 L179.7117,366.3828 L178.34,376.3887 L178.9087,386.3945 L179.9888,396.4004 L178.935,406.4063 L179.1404,416.4121 L179.4515,426.418 L179.555,436.4238 L178.9948,446.4297 L179.383,456.4355 L178.2368,466.4414 L179.3792,476.4473 L179.7309,486.4531 L179.5927,496.459 L179.8174,506.4648 L178.3559,516.4707 L178.1304,526.4766 L178.1715,536.4824 L178.9215,546.4883 L178.738,556.4941 L179.9085,566.5 L178.7671,576.5059 L178.5426,586.5117 L179.3044,596.5176 L178.1109,606.5234 L178.3078,616.5293 L179.8653,626.5352 L179.5809,636.541 L179,646.5469 " fill="none" style="stroke:#181818;stroke-width:0.5;stroke-dasharray:5.0,5.0;"/><path d="M344.5,86.2188 L344.7802,86.2188 L343.9476,96.2246 L344.7577,106.2305 L345.0329,116.2363 L343.5488,126.2422 L344.3964,136.248 L343.9313,146.2539 L343.9887,156.2598 L344.4091,166.2656 L343.5782,176.2715 L345.2382,186.2773 L343.6596,196.2832 L344.2363,206.2891 L345.0759,216.2949 L344.3856,226.3008 L344.591,236.3066 L344.4574,246.3125 L344.738,256.3184 L344.8188,266.3242 L345.2809,276.3301 L345.3947,286.3359 L345.4057,296.3418 L344.8395,306.3477 L345.1181,316.3535 L345.4363,326.3594 L343.5384,336.3652 L345.4047,346.3711 L344.1047,356.377 L345.2117,366.3828 L343.84,376.3887 L344.4087,386.3945 L345.4888,396.4004 L344.435,406.4063 L344.6404,416.4121 L344.9515,426.418 L345.055,436.4238 L344.4948,446.4297 L344.883,456.4355 L343.7368,466.4414 L344.8792,476.4473 L345.2309,486.4531 L345.0927,496.459 L345.3174,506.4648 L343.8559,516.4707 L343.6304,526.4766 L343.6715,536.4824 L344.4215,546.4883 L344.238,556.4941 L345.4085,566.5 L344.2671,576.5059 L344.0426,586.5117 L344.8044,596.5176 L343.6109,606.5234 L343.8078,616.5293 L345.3653,626.5352 L345.0809,636.541 L344.5,646.5469 " fill="none" style="stroke:#181818;stroke-width:0.5;stroke-dasharray:5.0,5.0;"/><path d="M484.5,86.2188 L484.7802,86.2188 L483.9476,96.2246 L484.7577,106.2305 L485.0329,116.2363 L483.5488,126.2422 L484.3964,136.248 L483.9313,146.2539 L483.9887,156.2598 L484.4091,166.2656 L483.5782,176.2715 L485.2382,186.2773 L483.6596,196.2832 L484.2363,206.2891 L485.0759,216.2949 L484.3856,226.3008 L484.591,236.3066 L484.4574,246.3125 L484.738,256.3184 L484.8188,266.3242 L485.2809,276.3301 L485.3947,286.3359 L485.4057,296.3418 L484.8395,306.3477 L485.1181,316.3535 L485.4363,326.3594 L483.5384,336.3652 L485.4047,346.3711 L484.1047,356.377 L485.2117,366.3828 L483.84,376.3887 L484.4087,386.3945 L485.4888,396.4004 L484.435,406.4063 L484.6404,416.4121 L484.9515,426.418 L485.055,436.4238 L484.4948,446.4297 L484.883,456.4355 L483.7368,466.4414 L484.8792,476.4473 L485.2309,486.4531 L485.0927,496.459 L485.3174,506.4648 L483.8559,516.4707 L483.6304,526.4766 L483.6715,536.4824 L484.4215,546.4883 L484.238,556.4941 L485.4085,566.5 L484.2671,576.5059 L484.0426,586.5117 L484.8044,596.5176 L483.6109,606.5234 L483.8078,616.5293 L485.3653,626.5352 L485.0809,636.541 L484.5,646.5469 " fill="none" style="stroke:#181818;stroke-width:0.5;stroke-dasharray:5.0,5.0;"/><path d="M621.5,86.2188 L621.7802,86.2188 L620.9476,96.2246 L621.7577,106.2305 L622.0329,116.2363 L620.5488,126.2422 L621.3964,136.248 L620.9313,146.2539 L620.9887,156.2598 L621.4091,166.2656 L620.5782,176.2715 L622.2382,186.2773 L620.6596,196.2832 L621.2363,206.2891 L622.0759,216.2949 L621.3856,226.3008 L621.591,236.3066 L621.4574,246.3125 L621.738,256.3184 L621.8188,266.3242 L622.2809,276.3301 L622.3947,286.3359 L622.4057,296.3418 L621.8395,306.3477 L622.1181,316.3535 L622.4363,326.3594 L620.5384,336.3652 L622.4047,346.3711 L621.1047,356.377 L622.2117,366.3828 L620.84,376.3887 L621.4087,386.3945 L622.4888,396.4004 L621.435,406.4063 L621.6404,416.4121 L621.9515,426.418 L622.055,436.4238 L621.4948,446.4297 L621.883,456.4355 L620.7368,466.4414 L621.8792,476.4473 L622.2309,486.4531 L622.0927,496.459 L622.3174,506.4648 L620.8559,516.4707 L620.6304,526.4766 L620.6715,536.4824 L621.4215,546.4883 L621.238,556.4941 L622.4085,566.5 L621.2671,576.5059 L621.0426,586.5117 L621.8044,596.5176 L620.6109,606.5234 L620.8078,616.5293 L622.3653,626.5352 L622.0809,636.541 L621.5,646.5469 " fill="none" style="stroke:#181818;stroke-width:0.5;stroke-dasharray:5.0,5.0;"/><path d="M725.5,86.2188 L725.7802,86.2188 L724.9476,96.2246 L725.7577,106.2305 L726.0329,116.2363 L724.5488,126.2422 L725.3964,136.248 L724.9313,146.2539 L724.9887,156.2598 L725.4091,166.2656 L724.5782,176.2715 L726.2382,186.2773 L724.6596,196.2832 L725.2363,206.2891 L726.0759,216.2949 L725.3856,226.3008 L725.591,236.3066 L725.4574,246.3125 L725.738,256.3184 L725.8188,266.3242 L726.2809,276.3301 L726.3947,286.3359 L726.4057,296.3418 L725.8395,306.3477 L726.1181,316.3535 L726.4363,326.3594 L724.5384,336.3652 L726.4047,346.3711 L725.1047,356.377 L726.2117,366.3828 L724.84,376.3887 L725.4087,386.3945 L726.4888,396.4004 L725.435,406.4063 L725.6404,416.4121 L725.9515,426.418 L726.055,436.4238 L725.4948,446.4297 L725.883,456.4355 L724.7368,466.4414 L725.8792,476.4473 L726.2309,486.4531 L726.0927,496.459 L726.3174,506.4648 L724.8559,516.4707 L724.6304,526.4766 L724.6715,536.4824 L725.4215,546.4883 L725.238,556.4941 L726.4085,566.5 L725.2671,576.5059 L725.0426,586.5117 L725.8044,596.5176 L724.6109,606.5234 L724.8078,616.5293 L726.3653,626.5352 L726.0809,636.541 L725.5,646.5469 " fill="none" style="stroke:#181818;stroke-width:0.5;stroke-dasharray:5.0,5.0;"/><path d="M827.5,86.2188 L827.7802,86.2188 L826.9476,96.2246 L827.7577,106.2305 L828.0329,116.2363 L826.5488,126.2422 L827.3964,136.248 L826.9313,146.2539 L826.9887,156.2598 L827.4091,166.2656 L826.5782,176.2715 L828.2382,186.2773 L826.6596,196.2832 L827.2363,206.2891 L828.0759,216.2949 L827.3856,226.3008 L827.591,236.3066 L827.4574,246.3125 L827.738,256.3184 L827.8188,266.3242 L828.2809,276.3301 L828.3947,286.3359 L828.4057,296.3418 L827.8395,306.3477 L828.1181,316.3535 L828.4363,326.3594 L826.5384,336.3652 L828.4047,346.3711 L827.1047,356.377 L828.2117,366.3828 L826.84,376.3887 L827.4087,386.3945 L828.4888,396.4004 L827.435,406.4063 L827.6404,416.4121 L827.9515,426.418 L828.055,436.4238 L827.4948,446.4297 L827.883,456.4355 L826.7368,466.4414 L827.8792,476.4473 L828.2309,486.4531 L828.0927,496.459 L828.3174,506.4648 L826.8559,516.4707 L826.6304,526.4766 L826.6715,536.4824 L827.4215,546.4883 L827.238,556.4941 L828.4085,566.5 L827.2671,576.5059 L827.0426,586.5117 L827.8044,596.5176 L826.6109,606.5234 L826.8078,616.5293 L828.3653,626.5352 L828.0809,636.541 L827.5,646.5469 " fill="none" style="stroke:#181818;stroke-width:0.5;stroke-dasharray:5.0,5.0;"/><text fill="#000000" font-family="FG Virgil" font-size="14" lengthAdjust="spacing" textLength="29" x="5" y="83.1426">User</text><polygon fill="#E3E3E3" points="30.5442,19.0553,29.3715,20.6576,27.9845,23.0044,26.0008,24.586,23.9163,25.4509,22.2542,25.526,20.118,24.4443,18.1023,23.7377,16.5724,22.303,15.7699,20.6605,15.2939,19.3527,14.8277,17.6444,14.0709,16.1744,14.6525,14.7392,15.162,13.167,17.074,11.9235,18.4192,10.3102,20.0843,9.7744,22.0637,9.313,24.6021,9.5872,25.9924,10.2429,27.6089,10.5401,29.5743,12.5537,30.2595,14.6795,30.5571,16.13,30.22,18.5202" style="stroke:#181818;stroke-width:0.5;"/><path d="M22.5,25.1094 L22.6868,25.1094 L22.1317,30.5094 L22.6718,35.9094 L22.8553,41.3094 L21.8659,46.7094 L22.5,52.1094 M9.5,33.1094 L9.5,33.0403 L14.7,32.7303 L19.9,32.7685 L25.1,33.0488 L30.3,32.4948 L35.5,33.1094 M22.5,52.1094 L22.8719,52.4317 L19.4766,54.7425 L17.1672,57.9942 L14.9901,61.3608 L12.0424,64.0594 L9.5,67.1094 M22.5,52.1094 L22.5458,52.1491 L25.0785,55.0908 L27.8199,58.2133 L30.4606,61.2486 L33.2934,64.4503 L35.5,67.1094 " fill="none" style="stroke:#181818;stroke-width:0.5;"/><text fill="#000000" font-family="FG Virgil" font-size="14" lengthAdjust="spacing" textLength="29" x="5" y="660.0801">User</text><polygon fill="#E3E3E3" points="30.5442,673.6022,29.3715,675.2045,27.9845,677.5513,26.0008,679.1329,23.9163,679.9978,22.2542,680.0728,20.118,678.9912,18.1023,678.2846,16.5724,676.8498,15.7699,675.2074,15.2939,673.8995,14.8277,672.1913,14.0709,670.7213,14.6525,669.2861,15.162,667.7139,17.074,666.4704,18.4192,664.857,20.0843,664.3213,22.0637,663.8599,24.6021,664.134,25.9924,664.7897,27.6089,665.0869,29.5743,667.1006,30.2595,669.2264,30.5571,670.6769,30.22,673.0671" style="stroke:#181818;stroke-width:0.5;"/><path d="M22.5,679.6563 L22.6868,679.6563 L22.1317,685.0563 L22.6718,690.4563 L22.8553,695.8563 L21.8659,701.2563 L22.5,706.6563 M9.5,687.6563 L9.5,687.5872 L14.7,687.2771 L19.9,687.3154 L25.1,687.5957 L30.3,687.0417 L35.5,687.6563 M22.5,706.6563 L22.8719,706.9786 L19.4766,709.2893 L17.1672,712.5411 L14.9901,715.9077 L12.0424,718.6063 L9.5,721.6563 M22.5,706.6563 L22.5458,706.696 L25.0785,709.6377 L27.8199,712.7602 L30.4606,715.7955 L33.2934,718.9972 L35.5,721.6563 " fill="none" style="stroke:#181818;stroke-width:0.5;"/><polygon fill="#E3E3E3" points="128.5,36,128.5,36.2102,138.7,35.5857,148.9,36.1933,159.1,36.3997,169.3,35.2866,179.5,35.9223,189.7,35.5735,199.9,35.6165,210.1,35.9318,220.3,35.3086,230.5,36,230.5706,36.1705,230.7732,35.9523,231.1819,36.232,231.6158,36.5724,231.9033,36.5594,232.2678,36.7322,232.2888,36.7409,232.4044,37.0817,232.6156,37.4621,232.7808,37.8234,233.0339,38.2212,233,38.5,233.2237,38.5,233.2264,47.3438,233.0849,56.1875,233.1545,65.0313,233.2341,73.875,233,82.7188,232.7779,82.6268,233.0625,83.1589,232.6158,83.388,232.7251,83.8475,232.2618,84.0698,232.2678,84.4865,232.259,84.4654,232.0088,84.8613,231.5544,84.7644,231.2205,84.9583,230.8967,85.1766,230.5,85.2188,230.5,85.635,220.3,85.2148,210.1,85.506,199.9,84.6463,189.7,85.5031,179.5,85.7669,169.3,85.6633,159.1,85.8318,148.9,84.7357,138.7,84.5666,128.5,85.2188,128.4207,85.0274,128.1389,85.0542,127.7678,84.8653,127.5263,84.9893,127.0635,84.5792,126.7322,84.4865,126.6266,84.4428,126.6561,84.1621,126.234,83.6943,126.133,83.3596,126.3463,83.1551,126,82.7188,126.1452,82.7188,126.2448,73.875,125.8927,65.0313,126.1064,56.1875,126.1968,47.3438,126,38.5,125.8545,38.4397,126.1169,38.1342,126.3317,37.809,126.6401,37.5225,126.5845,37.0853,126.7322,36.7322,126.7912,36.8747,127.0151,36.4152,127.3529,36.2308,127.8571,36.448,128.055,35.9257,128.5,36" style="stroke:#181818;stroke-width:0.5;"/><text fill="#000000" font-family="FG Virgil" font-size="14" font-style="italic" lengthAdjust="spacing" textLength="83" x="138" y="57.5332">«http server»</text><text fill="#000000" font-family="FG Virgil" font-size="14" lengthAdjust="spacing" textLength="93" x="133" y="75.1426">HttpServerAjax</text><polygon fill="#E3E3E3" points="128.5,645.5469,128.5,645.7571,138.7,645.1326,148.9,645.7402,159.1,645.9466,169.3,644.8335,179.5,645.4692,189.7,645.1204,199.9,645.1634,210.1,645.4787,220.3,644.8555,230.5,645.5469,230.5706,645.7174,230.7732,645.4992,231.1819,645.7789,231.6158,646.1192,231.9033,646.1062,232.2678,646.2791,232.2888,646.2878,232.4044,646.6286,232.6156,647.009,232.7808,647.3703,233.0339,647.768,233,648.0469,233.2237,648.0469,233.2264,656.8906,233.0849,665.7344,233.1545,674.5781,233.2341,683.4219,233,692.2656,232.7779,692.1736,233.0625,692.7057,232.6158,692.9349,232.7251,693.3944,232.2618,693.6167,232.2678,694.0334,232.259,694.0123,232.0088,694.4082,231.5544,694.3113,231.2205,694.5052,230.8967,694.7235,230.5,694.7656,230.5,695.1819,220.3,694.7617,210.1,695.0528,199.9,694.1932,189.7,695.05,179.5,695.3138,169.3,695.2102,159.1,695.3786,148.9,694.2825,138.7,694.1134,128.5,694.7656,128.4207,694.5743,128.1389,694.601,127.7678,694.4122,127.5263,694.5361,127.0635,694.126,126.7322,694.0334,126.6266,693.9896,126.6561,693.709,126.234,693.2412,126.133,692.9065,126.3463,692.702,126,692.2656,126.1452,692.2656,126.2448,683.4219,125.8927,674.5781,126.1064,665.7344,126.1968,656.8906,126,648.0469,125.8545,647.9866,126.1169,647.6811,126.3317,647.3558,126.6401,647.0694,126.5845,646.6321,126.7322,646.2791,126.7912,646.4216,127.0151,645.9621,127.3529,645.7776,127.8571,645.9949,128.055,645.4725,128.5,645.5469" style="stroke:#181818;stroke-width:0.5;"/><text fill="#000000" font-family="FG Virgil" font-size="14" font-style="italic" lengthAdjust="spacing" textLength="83" x="138" y="667.0801">«http server»</text><text fill="#000000" font-family="FG Virgil" font-size="14" lengthAdjust="spacing" textLength="93" x="133" y="684.6895">HttpServerAjax</text><polygon fill="#E3E3E3" points="287,53.6094,287,53.8196,296.5833,53.1951,306.1667,53.8027,315.75,54.0091,325.3333,52.896,334.9167,53.5317,344.5,53.1829,354.0833,53.2259,363.6667,53.5412,373.25,52.918,382.8333,54.163,392.4167,52.9791,402,53.6094,401.9748,53.5485,402.4087,53.8888,402.6962,53.8759,403.0694,54.0697,403.4101,54.1853,403.7678,54.3416,403.8227,54.3644,403.9879,54.7257,404.241,55.1234,404.4138,55.4879,404.5627,55.8425,404.5,56.1094,404.5849,56.1094,404.6545,61.4313,404.7341,66.7531,404.2596,72.075,404.7262,77.3969,404.5,82.7188,404.4087,82.6809,404.5179,83.1404,404.0547,83.3627,404.0396,83.7707,404.1426,84.2276,403.7678,84.4865,403.7616,84.4715,403.4276,84.6654,403.1039,84.8837,402.7602,85.054,402.3531,85.0711,402,85.2188,402,85.506,392.4167,84.6463,382.8333,85.5031,373.25,85.7669,363.6667,85.6633,354.0833,85.8318,344.5,84.7357,334.9167,84.5666,325.3333,84.5973,315.75,85.1599,306.1667,85.0222,296.5833,85.9002,287,85.2188,286.9777,85.165,286.6027,84.9667,286.322,84.9962,285.8543,84.5741,285.5196,84.4731,285.2322,84.4865,285.4321,84.5693,285.22,84.1885,285.1655,83.8731,284.6938,83.3848,284.7447,83.113,284.5,82.7188,284.6968,82.7188,284.3425,77.3969,284.468,72.075,284.542,66.7531,284.7173,61.4313,284.5,56.1094,284.4987,56.1088,284.7889,55.8148,284.6223,55.3316,284.7308,54.9623,285.2409,54.7594,285.2322,54.3416,285.1408,54.1208,285.6507,54.3519,285.9657,54.1123,286.2587,53.8198,286.6013,53.6469,287,53.6094" style="stroke:#181818;stroke-width:0.5;"/><text fill="#000000" font-family="FG Virgil" font-size="14" lengthAdjust="spacing" textLength="106" x="291.5" y="75.1426">SessionManager</text><polygon fill="#E3E3E3" points="287,645.5469,287,645.7571,296.5833,645.1326,306.1667,645.7402,315.75,645.9466,325.3333,644.8335,334.9167,645.4692,344.5,645.1204,354.0833,645.1634,363.6667,645.4787,373.25,644.8555,382.8333,646.1005,392.4167,644.9166,402,645.5469,401.9748,645.486,402.4087,645.8263,402.6962,645.8134,403.0694,646.0072,403.4101,646.1228,403.7678,646.2791,403.8227,646.3019,403.9879,646.6632,404.241,647.0609,404.4138,647.4254,404.5627,647.78,404.5,648.0469,404.5849,648.0469,404.6545,653.3688,404.7341,658.6906,404.2596,664.0125,404.7262,669.3344,404.5,674.6563,404.4087,674.6184,404.5179,675.0779,404.0547,675.3002,404.0396,675.7082,404.1426,676.1651,403.7678,676.424,403.7616,676.409,403.4276,676.6029,403.1039,676.8212,402.7602,676.9915,402.3531,677.0086,402,677.1563,402,677.4435,392.4167,676.5838,382.8333,677.4406,373.25,677.7044,363.6667,677.6008,354.0833,677.7693,344.5,676.6732,334.9167,676.5041,325.3333,676.5348,315.75,677.0974,306.1667,676.9597,296.5833,677.8377,287,677.1563,286.9777,677.1025,286.6027,676.9042,286.322,676.9337,285.8543,676.5116,285.5196,676.4106,285.2322,676.424,285.4321,676.5068,285.22,676.126,285.1655,675.8106,284.6938,675.3223,284.7447,675.0505,284.5,674.6563,284.6968,674.6563,284.3425,669.3344,284.468,664.0125,284.542,658.6906,284.7173,653.3688,284.5,648.0469,284.4987,648.0463,284.7889,647.7523,284.6223,647.2691,284.7308,646.8998,285.2409,646.6969,285.2322,646.2791,285.1408,646.0583,285.6507,646.2894,285.9657,646.0498,286.2587,645.7573,286.6013,645.5844,287,645.5469" style="stroke:#181818;stroke-width:0.5;"/><text fill="#000000" font-family="FG Virgil" font-size="14" lengthAdjust="spacing" textLength="106" x="291.5" y="667.0801">SessionManager</text><polygon fill="#E3E3E3" points="417,36,417,36.2102,426.7143,35.5857,436.4286,36.1933,446.1429,36.3997,455.8571,35.2866,465.5714,35.9223,475.2857,35.5735,485,35.6165,494.7143,35.9318,504.4286,35.3086,514.1429,36.5536,523.8571,35.3697,533.5714,35.8022,543.2857,36.4319,553,36,552.9891,35.9736,553.3623,36.1675,553.703,36.2831,554.0834,36.4943,554.4447,36.6594,554.7678,36.7322,554.9481,36.8069,555.1209,37.1714,555.2698,37.526,555.2855,37.8254,555.4963,38.2056,555.5,38.5,555.7341,38.5,555.2596,47.3438,555.7262,56.1875,555.4012,65.0313,555.6779,73.875,555.5,82.7188,555.3476,82.6556,555.3325,83.0636,555.4355,83.5205,555.0457,83.7732,554.9466,84.1464,554.7678,84.4865,554.811,84.5908,554.4673,84.7611,554.0602,84.7782,553.7437,85.0143,553.2805,84.896,553,85.2188,553,85.5031,543.2857,85.7669,533.5714,85.6633,523.8571,85.8318,514.1429,84.7357,504.4286,84.5666,494.7143,84.5973,485,85.1599,475.2857,85.0222,465.5714,85.9002,455.8571,85.0441,446.1429,84.8757,436.4286,85.447,426.7143,84.5519,417,85.2188,416.9338,85.0589,416.7292,85.2722,416.3485,85.06,416.033,85.0056,415.5447,84.5339,415.2322,84.4865,415.3305,84.5272,415.2676,84.2083,414.7939,83.7191,414.7634,83.4136,414.6852,83.0884,414.5,82.7188,414.7173,82.7188,414.4986,73.875,414.6542,65.0313,414.3154,56.1875,414.2742,47.3438,414.5,38.5,414.6551,38.5642,414.4257,38.055,414.9496,37.8578,415.003,37.4657,415.0033,37.0516,415.2322,36.7322,415.1871,36.6233,415.6443,36.7271,415.9012,36.3472,416.3684,36.4752,416.5759,35.9762,417,36" style="stroke:#181818;stroke-width:0.5;"/><text fill="#000000" font-family="FG Virgil" font-size="14" font-style="italic" lengthAdjust="spacing" textLength="84" x="443" y="57.5332">«application»</text><text fill="#000000" font-family="FG Virgil" font-size="14" lengthAdjust="spacing" textLength="127" x="421.5" y="75.1426">GetPostItsController</text><polygon fill="#E3E3E3" points="417,645.5469,417,645.7571,426.7143,645.1326,436.4286,645.7402,446.1429,645.9466,455.8571,644.8335,465.5714,645.4692,475.2857,645.1204,485,645.1634,494.7143,645.4787,504.4286,644.8555,514.1429,646.1005,523.8571,644.9166,533.5714,645.3491,543.2857,645.9788,553,645.5469,552.9891,645.5205,553.3623,645.7143,553.703,645.8299,554.0834,646.0412,554.4447,646.2063,554.7678,646.2791,554.9481,646.3538,555.1209,646.7183,555.2698,647.0729,555.2855,647.3722,555.4963,647.7525,555.5,648.0469,555.7341,648.0469,555.2596,656.8906,555.7262,665.7344,555.4012,674.5781,555.6779,683.4219,555.5,692.2656,555.3476,692.2025,555.3325,692.6104,555.4355,693.0673,555.0457,693.3201,554.9466,693.6933,554.7678,694.0334,554.811,694.1377,554.4673,694.308,554.0602,694.3251,553.7437,694.5612,553.2805,694.4429,553,694.7656,553,695.05,543.2857,695.3138,533.5714,695.2102,523.8571,695.3786,514.1429,694.2825,504.4286,694.1134,494.7143,694.1442,485,694.7067,475.2857,694.5691,465.5714,695.447,455.8571,694.5909,446.1429,694.4226,436.4286,694.9939,426.7143,694.0988,417,694.7656,416.9338,694.6058,416.7292,694.819,416.3485,694.6069,416.033,694.5525,415.5447,694.0807,415.2322,694.0334,415.3305,694.0741,415.2676,693.7552,414.7939,693.266,414.7634,692.9605,414.6852,692.6352,414.5,692.2656,414.7173,692.2656,414.4986,683.4219,414.6542,674.5781,414.3154,665.7344,414.2742,656.8906,414.5,648.0469,414.6551,648.1111,414.4257,647.6019,414.9496,647.4047,415.003,647.0126,415.0033,646.5985,415.2322,646.2791,415.1871,646.1702,415.6443,646.2739,415.9012,645.894,416.3684,646.022,416.5759,645.5231,417,645.5469" style="stroke:#181818;stroke-width:0.5;"/><text fill="#000000" font-family="FG Virgil" font-size="14" font-style="italic" lengthAdjust="spacing" textLength="84" x="443" y="667.0801">«application»</text><text fill="#000000" font-family="FG Virgil" font-size="14" lengthAdjust="spacing" textLength="127" x="421.5" y="684.6895">GetPostItsController</text><text fill="#000000" font-family="FG Virgil" font-size="14" font-style="italic" lengthAdjust="spacing" textLength="79" x="579" y="65.5332">«repository»</text><text fill="#000000" font-family="FG Virgil" font-size="14" lengthAdjust="spacing" textLength="106" x="565.5" y="83.1426">BoardRepository</text><path d="M603.5,15 L603.5,15 L603.5651,15.067 L605.1716,13.118 L607.1599,11.5616 L609.0238,9.8774 L610.479,7.7727 L612.5,6.25 L612.4952,6.2158 L614.2739,5.8122 L616.0766,5.5812 L617.8958,5.47 L619.6577,4.9456 L621.5,5 L621.5,5 L621.5339,5.2437 L623.2615,4.9725 L625.0879,5.4129 L626.9264,5.9402 L628.6948,5.9622 L630.5,6.25 L630.5211,6.2717 L632.2901,7.9898 L634.1553,9.8069 L635.9741,11.5762 L637.8815,13.4366 L639.5,15 L640.0965,15 L640.1038,20.2 L639.7263,25.4 L639.9121,30.6 L640.1242,35.8 L639.5,41 L639.5,41 L639.2766,40.7702 L637.9102,42.9662 L635.8081,44.4055 L634.2654,46.4201 L632.1466,47.8423 L630.5,49.75 L630.4958,49.7198 L628.7453,50.3265 L626.897,50.2285 L625.1064,50.5464 L623.3207,50.8991 L621.5,51 L621.5,51 L621.5254,51.1832 L619.6998,50.7483 L617.9176,50.6264 L616.065,49.998 L614.3174,50.1252 L612.5,49.75 L612.6698,49.9247 L610.8377,48.1417 L609.0899,46.4453 L606.9503,44.3461 L605.0979,42.5422 L603.5,41 L602.9476,41 L603.4477,35.8 L603.3253,30.6 L604.1057,25.4 L603.3447,20.2 L603.5,15 " fill="#E3E3E3" style="stroke:#181818;stroke-width:1.5;"/><path d="M603.5,15 L603.5,15 L603.5651,15.067 L605.1716,16.618 L607.1599,18.5616 L609.0238,20.3774 L610.479,21.7727 L612.5,23.75 L612.4952,23.7158 L614.2739,23.8122 L616.0766,24.0812 L617.8958,24.47 L619.6577,24.4456 L621.5,25 L621.5,25 L621.5339,25.2437 L623.2615,24.4725 L625.0879,24.4129 L626.9264,24.4402 L628.6948,23.9622 L630.5,23.75 L630.5211,23.7717 L632.2901,21.9898 L634.1553,20.3069 L635.9741,18.5762 L637.8815,16.9366 L639.5,15 " fill="none" style="stroke:#181818;stroke-width:1.5;"/><text fill="#000000" font-family="FG Virgil" font-size="14" font-style="italic" lengthAdjust="spacing" textLength="79" x="579" y="660.0801">«repository»</text><text fill="#000000" font-family="FG Virgil" font-size="14" lengthAdjust="spacing" textLength="106" x="565.5" y="677.6895">BoardRepository</text><path d="M603.5,690.7656 L603.5,690.7656 L603.5651,690.8326 L605.1716,688.8836 L607.1599,687.3272 L609.0238,685.643 L610.479,683.5383 L612.5,682.0156 L612.4952,681.9814 L614.2739,681.5779 L616.0766,681.3468 L617.8958,681.2356 L619.6577,680.7113 L621.5,680.7656 L621.5,680.7656 L621.5339,681.0093 L623.2615,680.7382 L625.0879,681.1786 L626.9264,681.7058 L628.6948,681.7279 L630.5,682.0156 L630.5211,682.0374 L632.2901,683.7554 L634.1553,685.5725 L635.9741,687.3418 L637.8815,689.2023 L639.5,690.7656 L640.0965,690.7656 L640.1038,695.9656 L639.7263,701.1656 L639.9121,706.3656 L640.1242,711.5656 L639.5,716.7656 L639.5,716.7656 L639.2766,716.5358 L637.9102,718.7318 L635.8081,720.1711 L634.2654,722.1857 L632.1466,723.6079 L630.5,725.5156 L630.4958,725.4855 L628.7453,726.0921 L626.897,725.9942 L625.1064,726.312 L623.3207,726.6647 L621.5,726.7656 L621.5,726.7656 L621.5254,726.9489 L619.6998,726.5139 L617.9176,726.3921 L616.065,725.7636 L614.3174,725.8908 L612.5,725.5156 L612.6698,725.6903 L610.8377,723.9073 L609.0899,722.211 L606.9503,720.1117 L605.0979,718.3078 L603.5,716.7656 L602.9476,716.7656 L603.4477,711.5656 L603.3253,706.3656 L604.1057,701.1656 L603.3447,695.9656 L603.5,690.7656 " fill="#E3E3E3" style="stroke:#181818;stroke-width:1.5;"/><path d="M603.5,690.7656 L603.5,690.7656 L603.5651,690.8326 L605.1716,692.3836 L607.1599,694.3272 L609.0238,696.143 L610.479,697.5383 L612.5,699.5156 L612.4952,699.4814 L614.2739,699.5779 L616.0766,699.8468 L617.8958,700.2356 L619.6577,700.2113 L621.5,700.7656 L621.5,700.7656 L621.5339,701.0093 L623.2615,700.2382 L625.0879,700.1786 L626.9264,700.2058 L628.6948,699.7279 L630.5,699.5156 L630.5211,699.5374 L632.2901,697.7554 L634.1553,696.0725 L635.9741,694.3418 L637.8815,692.7023 L639.5,690.7656 " fill="none" style="stroke:#181818;stroke-width:1.5;"/><polygon fill="#E3E3E3" points="690,36,690,36.2102,700.1429,35.5857,710.2857,36.1933,720.4286,36.3997,730.5714,35.2866,740.7143,35.9223,750.8571,35.5735,761,36,760.9511,35.8819,761.3449,36.1255,761.6189,36.08,762.1313,36.6098,762.3338,36.3917,762.7678,36.7322,762.7069,36.707,763.0472,37.1409,763.0342,37.4284,763.2281,37.8016,763.3437,38.1424,763.5,38.5,763.5595,38.5,763.5797,47.3438,763.6952,56.1875,763.7237,65.0313,763.7264,73.875,763.5,82.7188,763.5784,82.7512,763.4963,83.1314,763.4234,83.5154,762.8386,83.6874,763.1232,84.2195,762.7678,84.4865,762.7299,84.3952,762.4823,84.7974,761.9975,84.627,761.6984,84.9048,761.4482,85.3007,761,85.2188,761,85.17,750.8571,85.3241,740.7143,85.5574,730.5714,85.635,720.4286,85.2148,710.2857,85.506,700.1429,84.6463,690,85.2188,690.0363,85.3063,689.7164,85.2411,689.3496,85.0628,689.0175,84.9682,688.5242,84.4842,688.2322,84.4865,688.0314,84.4033,687.8944,84.0537,687.9212,83.7719,687.7324,83.4008,687.8563,83.1592,687.5,82.7188,687.4418,82.7188,687.3856,73.875,687.5761,65.0313,687.2777,56.1875,687.327,47.3438,687.5,38.5,687.6999,38.5828,687.7806,38.202,688.0191,37.8866,687.8402,37.3983,688.1841,37.1265,688.2322,36.7322,688.3075,36.9141,688.5255,36.4403,688.9271,36.4098,689.309,36.3317,689.7296,36.3472,690,36" style="stroke:#181818;stroke-width:0.5;"/><text fill="#000000" font-family="FG Virgil" font-size="14" font-style="italic" lengthAdjust="spacing" textLength="62" x="694.5" y="57.5332">«domain»</text><text fill="#000000" font-family="FG Virgil" font-size="14" lengthAdjust="spacing" textLength="38" x="706.5" y="75.1426">Board</text><polygon fill="#E3E3E3" points="690,645.5469,690,645.7571,700.1429,645.1326,710.2857,645.7402,720.4286,645.9466,730.5714,644.8335,740.7143,645.4692,750.8571,645.1204,761,645.5469,760.9511,645.4288,761.3449,645.6723,761.6189,645.6269,762.1313,646.1567,762.3338,645.9386,762.7678,646.2791,762.7069,646.2539,763.0472,646.6878,763.0342,646.9753,763.2281,647.3485,763.3437,647.6892,763.5,648.0469,763.5595,648.0469,763.5797,656.8906,763.6952,665.7344,763.7237,674.5781,763.7264,683.4219,763.5,692.2656,763.5784,692.2981,763.4963,692.6783,763.4234,693.0623,762.8386,693.2343,763.1232,693.7664,762.7678,694.0334,762.7299,693.9421,762.4823,694.3442,761.9975,694.1738,761.6984,694.4516,761.4482,694.8476,761,694.7656,761,694.7169,750.8571,694.8709,740.7143,695.1043,730.5714,695.1819,720.4286,694.7617,710.2857,695.0528,700.1429,694.1932,690,694.7656,690.0363,694.8532,689.7164,694.788,689.3496,694.6096,689.0175,694.5151,688.5242,694.0311,688.2322,694.0334,688.0314,693.9502,687.8944,693.6006,687.9212,693.3188,687.7324,692.9477,687.8563,692.7061,687.5,692.2656,687.4418,692.2656,687.3856,683.4219,687.5761,674.5781,687.2777,665.7344,687.327,656.8906,687.5,648.0469,687.6999,648.1297,687.7806,647.7489,688.0191,647.4335,687.8402,646.9452,688.1841,646.6734,688.2322,646.2791,688.3075,646.4609,688.5255,645.9872,688.9271,645.9567,689.309,645.8786,689.7296,645.894,690,645.5469" style="stroke:#181818;stroke-width:0.5;"/><text fill="#000000" font-family="FG Virgil" font-size="14" font-style="italic" lengthAdjust="spacing" textLength="62" x="694.5" y="667.0801">«domain»</text><text fill="#000000" font-family="FG Virgil" font-size="14" lengthAdjust="spacing" textLength="38" x="706.5" y="684.6895">Board</text><text fill="#000000" font-family="FG Virgil" font-size="14" font-style="italic" lengthAdjust="spacing" textLength="79" x="785.5" y="65.5332">«repository»</text><text fill="#000000" font-family="FG Virgil" font-size="14" lengthAdjust="spacing" textLength="103" x="773.5" y="83.1426">PostItRepository</text><path d="M810,15 L810,15 L810.0651,15.067 L811.6716,13.118 L813.6599,11.5616 L815.5238,9.8774 L816.979,7.7727 L819,6.25 L818.9952,6.2158 L820.7739,5.8122 L822.5766,5.5812 L824.3958,5.47 L826.1577,4.9456 L828,5 L828,5 L828.0339,5.2437 L829.7615,4.9725 L831.5879,5.4129 L833.4264,5.9402 L835.1948,5.9622 L837,6.25 L837.0211,6.2717 L838.7901,7.9898 L840.6553,9.8069 L842.4741,11.5762 L844.3815,13.4366 L846,15 L846.5965,15 L846.6038,20.2 L846.2263,25.4 L846.4121,30.6 L846.6242,35.8 L846,41 L846,41 L845.7766,40.7702 L844.4102,42.9662 L842.3081,44.4055 L840.7654,46.4201 L838.6466,47.8423 L837,49.75 L836.9958,49.7198 L835.2453,50.3265 L833.397,50.2285 L831.6064,50.5464 L829.8207,50.8991 L828,51 L828,51 L828.0254,51.1832 L826.1998,50.7483 L824.4176,50.6264 L822.565,49.998 L820.8174,50.1252 L819,49.75 L819.1698,49.9247 L817.3377,48.1417 L815.5899,46.4453 L813.4503,44.3461 L811.5979,42.5422 L810,41 L809.4476,41 L809.9477,35.8 L809.8253,30.6 L810.6057,25.4 L809.8447,20.2 L810,15 " fill="#E3E3E3" style="stroke:#181818;stroke-width:1.5;"/><path d="M810,15 L810,15 L810.0651,15.067 L811.6716,16.618 L813.6599,18.5616 L815.5238,20.3774 L816.979,21.7727 L819,23.75 L818.9952,23.7158 L820.7739,23.8122 L822.5766,24.0812 L824.3958,24.47 L826.1577,24.4456 L828,25 L828,25 L828.0339,25.2437 L829.7615,24.4725 L831.5879,24.4129 L833.4264,24.4402 L835.1948,23.9622 L837,23.75 L837.0211,23.7717 L838.7901,21.9898 L840.6553,20.3069 L842.4741,18.5762 L844.3815,16.9366 L846,15 " fill="none" style="stroke:#181818;stroke-width:1.5;"/><text fill="#000000" font-family="FG Virgil" font-size="14" font-style="italic" lengthAdjust="spacing" textLength="79" x="785.5" y="660.0801">«repository»</text><text fill="#000000" font-family="FG Virgil" font-size="14" lengthAdjust="spacing" textLength="103" x="773.5" y="677.6895">PostItRepository</text><path d="M810,690.7656 L810,690.7656 L810.0651,690.8326 L811.6716,688.8836 L813.6599,687.3272 L815.5238,685.643 L816.979,683.5383 L819,682.0156 L818.9952,681.9814 L820.7739,681.5779 L822.5766,681.3468 L824.3958,681.2356 L826.1577,680.7113 L828,680.7656 L828,680.7656 L828.0339,681.0093 L829.7615,680.7382 L831.5879,681.1786 L833.4264,681.7058 L835.1948,681.7279 L837,682.0156 L837.0211,682.0374 L838.7901,683.7554 L840.6553,685.5725 L842.4741,687.3418 L844.3815,689.2023 L846,690.7656 L846.5965,690.7656 L846.6038,695.9656 L846.2263,701.1656 L846.4121,706.3656 L846.6242,711.5656 L846,716.7656 L846,716.7656 L845.7766,716.5358 L844.4102,718.7318 L842.3081,720.1711 L840.7654,722.1857 L838.6466,723.6079 L837,725.5156 L836.9958,725.4855 L835.2453,726.0921 L833.397,725.9942 L831.6064,726.312 L829.8207,726.6647 L828,726.7656 L828,726.7656 L828.0254,726.9489 L826.1998,726.5139 L824.4176,726.3921 L822.565,725.7636 L820.8174,725.8908 L819,725.5156 L819.1698,725.6903 L817.3377,723.9073 L815.5899,722.211 L813.4503,720.1117 L811.5979,718.3078 L810,716.7656 L809.4476,716.7656 L809.9477,711.5656 L809.8253,706.3656 L810.6057,701.1656 L809.8447,695.9656 L810,690.7656 " fill="#E3E3E3" style="stroke:#181818;stroke-width:1.5;"/><path d="M810,690.7656 L810,690.7656 L810.0651,690.8326 L811.6716,692.3836 L813.6599,694.3272 L815.5238,696.143 L816.979,697.5383 L819,699.5156 L818.9952,699.4814 L820.7739,699.5779 L822.5766,699.8468 L824.3958,700.2356 L826.1577,700.2113 L828,700.7656 L828,700.7656 L828.0339,701.0093 L829.7615,700.2382 L831.5879,700.1786 L833.4264,700.2058 L835.1948,699.7279 L837,699.5156 L837.0211,699.5374 L838.7901,697.7554 L840.6553,696.0725 L842.4741,694.3418 L844.3815,692.7023 L846,690.7656 " fill="none" style="stroke:#181818;stroke-width:1.5;"/><polygon fill="#FFFFFF" points="174.5,118.5703,174.5,118.6404,176.5,118.4322,178.5,118.6347,180.5,118.7035,182.5,118.3325,184.5,118.5703,184.4223,118.5703,184.0735,128.5699,184.1165,138.5694,184.4318,148.5689,183.8086,158.5685,185.0536,168.568,183.8697,178.5676,184.3022,188.5671,184.9319,198.5666,184.4142,208.5662,184.5682,218.5657,184.4681,228.5653,184.6785,238.5648,184.7391,248.5643,185.0857,258.5639,185.1711,268.5634,185.1793,278.563,184.7546,288.5625,184.9636,298.562,185.2022,308.5616,183.7788,318.5611,185.1785,328.5607,184.2035,338.5602,185.0338,348.5597,184.005,358.5593,184.4315,368.5588,185.2416,378.5584,184.4513,388.5579,184.6053,398.5574,184.8386,408.557,184.9162,418.5565,184.4961,428.5561,184.7872,438.5556,183.9276,448.5551,184.7844,458.5547,185.0482,468.5542,184.9445,478.5538,185.113,488.5533,184.0169,498.5528,183.8478,508.5524,183.8786,518.5519,184.4411,528.5515,184.3035,538.551,185.1814,548.5506,184.3253,558.5501,184.1569,568.5496,184.7283,578.5492,183.8332,588.5487,183.9809,598.5483,185.149,608.5478,184.9357,618.5473,184.5,628.5469,184.5,628.7917,182.5,628.4396,180.5,628.6533,178.5,628.7437,176.5,628.3894,174.5,628.5469,174.4041,628.5469,174.626,618.5473,175.1518,608.5478,174.4958,598.5483,174.9626,588.5487,173.9462,578.5492,173.8227,568.5496,175.0036,558.5501,173.7831,548.5506,175.009,538.551,174.7066,528.5515,174.2321,518.5519,174.1462,508.5524,174.9588,498.5528,174.2007,488.5533,175.0919,478.5538,173.9473,468.5542,175.1174,458.5547,174.9843,448.5551,174.745,438.5556,174.5472,428.5561,175.2266,418.5565,175.1136,408.557,174.6693,398.5574,174.7682,388.5579,174.3697,378.5584,175.2165,368.5588,174.6549,358.5593,174.6726,348.5597,173.8916,338.5602,174.0948,328.5607,175.0307,318.5611,174.9298,308.5616,174.4571,298.562,174.1778,288.5625,174.2811,278.563,173.8138,268.5634,174.9147,258.5639,175.2396,248.5643,175.0264,238.5648,175.1949,228.5653,174.3633,218.5657,174.5872,208.5662,174.1124,198.5666,174.784,188.5671,174.7468,178.5676,175.0524,168.568,174.2703,158.5685,174.3656,148.5689,174.9435,138.5694,175.0673,128.5699,174.5,118.5703" style="stroke:#181818;stroke-width:1.0;"/><polygon fill="#FFFFFF" points="339.5,270.3281,339.5,270.3982,341.5,270.19,343.5,270.3926,345.5,270.4614,347.5,270.0903,349.5,270.3281,349.4741,270.3281,349.3578,276.3984,349.3722,282.4688,349.4773,288.5391,349.2695,294.6094,349.5,300.6797,349.5,300.8642,347.5,300.4696,345.5,300.6138,343.5,300.8237,341.5,300.6511,339.5,300.6797,339.5227,300.6797,339.4894,294.6094,339.5595,288.5391,339.5797,282.4688,339.6952,276.3984,339.5,270.3281" style="stroke:#181818;stroke-width:1.0;"/><polygon fill="#FFFFFF" points="480,342.207,480,342.2771,482,342.0689,484,342.2715,486,342.3403,488,341.9692,490,342.207,489.9223,342.207,489.5735,352.0527,489.6165,361.8984,489.9318,371.7441,489.3086,381.5898,490.5536,391.4355,489.3697,401.2813,489.8022,411.127,490.4319,420.9727,489.9142,430.8184,490.0682,440.6641,489.9681,450.5098,490.1785,460.3555,490.2391,470.2012,490.5857,480.0469,490.6711,489.8926,490.6793,499.7383,490.2546,509.584,490.4636,519.4297,490.7022,529.2754,489.2788,539.1211,490.6785,548.9668,489.7035,558.8125,490.5338,568.6582,489.505,578.5039,489.9315,588.3496,490,598.1953,490,598.4425,488,598.1791,486,598.2304,484,598.3082,482,598.3341,480,598.1953,479.9961,598.1953,480.2872,588.3496,479.4276,578.5039,480.2844,568.6582,480.5482,558.8125,480.4445,548.9668,480.613,539.1211,479.5169,529.2754,479.3478,519.4297,479.3786,509.584,479.9411,499.7383,479.8035,489.8926,480.6814,480.0469,479.8253,470.2012,479.6569,460.3555,480.2283,450.5098,479.3332,440.6641,479.4809,430.8184,480.649,420.9727,480.4357,411.127,480.7345,401.2813,479.6782,391.4355,480.3192,381.5898,480.5904,371.7441,479.5276,361.8984,479.9041,352.0527,480,342.207" style="stroke:#181818;stroke-width:1.0;"/><polygon fill="#FFFFFF" points="616.5,383.7344,616.5,383.8044,618.5,383.5963,620.5,383.7988,622.5,383.8676,624.5,383.4966,626.5,383.7344,626.4741,383.7344,626.3578,389.8047,626.3722,395.875,626.4773,401.9453,626.2695,408.0156,626.5,414.0859,626.5,414.2705,624.5,413.8758,622.5,414.02,620.5,414.2299,618.5,414.0573,616.5,414.0859,616.5227,414.0859,616.4894,408.0156,616.5595,401.9453,616.5797,395.875,616.6952,389.8047,616.5,383.7344" style="stroke:#181818;stroke-width:1.0;"/><polygon fill="#FFFFFF" points="720.5,444.4375,720.5,444.5076,722.5,444.2994,724.5,444.5019,726.5,444.5707,728.5,444.1997,730.5,444.4375,730.4223,444.4375,730.0735,453.7214,730.1165,463.0052,730.4318,472.2891,729.8086,481.5729,731.0536,490.8568,730.5,500.1406,730.5,499.9305,728.5,500.0747,726.5,500.2846,724.5,500.112,722.5,500.1634,720.5,500.1406,720.4681,500.1406,720.6785,490.8568,720.7391,481.5729,721.0857,472.2891,721.1711,463.0052,721.1793,453.7214,720.5,444.4375" style="stroke:#181818;stroke-width:1.0;"/><polygon fill="#FFFFFF" points="823,530.4922,823,530.5622,825,530.3541,827,530.5566,829,530.6254,831,530.2544,833,530.4922,832.9741,530.4922,832.8578,536.5625,832.8722,542.6328,832.9773,548.7031,832.7695,554.7734,833,560.8438,833,561.0283,831,560.6337,829,560.7778,827,560.9877,825,560.8152,823,560.8438,823.0227,560.8438,822.9894,554.7734,823.0595,548.7031,823.0797,542.6328,823.1952,536.5625,823,530.4922" style="stroke:#181818;stroke-width:1.0;"/><polygon fill="#181818" points="162.5,114.5703,162.526,114.6354,164.4487,115.2421,166.5239,116.2301,168.5495,117.094,170.4117,117.5495,172.5,118.5703,172.4904,118.5463,170.4472,119.2383,168.4525,120.0516,166.4916,120.9492,164.4144,121.5563,162.5,122.5703,162.6305,122.7008,163.1514,121.6218,164.0534,120.9237,165.0018,120.2721,165.6798,119.3501,166.5,118.5703,166.5161,118.5864,165.6925,117.7628,164.9421,117.0124,164.1564,116.2267,163.438,115.5084,162.5,114.5703" style="stroke:#181818;stroke-width:1.0;"/><path d="M22.5,118.5703 L22.5,118.8506 L32.2333,118.0179 L41.9667,118.828 L51.7,119.1032 L61.4333,117.6191 L71.1667,118.4667 L80.9,118.0017 L90.6333,118.059 L100.3667,118.4794 L110.1,117.6485 L119.8333,119.3085 L129.5667,117.7299 L139.3,118.3066 L149.0333,119.1462 L158.7667,118.4559 L168.5,118.5703 " fill="none" style="stroke:#181818;stroke-width:1.0;stroke-dasharray:2.0,2.0;"/><text fill="#000000" font-family="FG Virgil" font-size="13" lengthAdjust="spacing" textLength="133" x="29.5" y="113.7139">Show Post-It's in board</text><polygon fill="#181818" points="332.5,144.9219,332.526,144.9869,334.4487,145.5936,336.5239,146.5817,338.5495,147.4456,340.4117,147.9011,342.5,148.9219,342.4904,148.8978,340.4472,149.5899,338.4525,150.4032,336.4916,151.3008,334.4144,151.9079,332.5,152.9219,332.6305,153.0524,333.1514,151.9733,334.0534,151.2753,335.0018,150.6237,335.6798,149.7017,336.5,148.9219,336.5161,148.938,335.6925,148.1143,334.9421,147.364,334.1564,146.5782,333.438,145.8599,332.5,144.9219" style="stroke:#181818;stroke-width:1.0;"/><path d="M184.5,148.9219 L184.5,149.2021 L194.7667,148.3694 L205.0333,149.1796 L215.3,149.4548 L225.5667,147.9707 L235.8333,148.8183 L246.1,148.3532 L256.3667,148.4105 L266.6333,148.831 L276.9,148 L287.1667,149.6601 L297.4333,148.0815 L307.7,148.6582 L317.9667,149.4978 L328.2333,148.8075 L338.5,148.9219 " fill="none" style="stroke:#181818;stroke-width:1.0;"/><text fill="#000000" font-family="FG Virgil" font-size="13" lengthAdjust="spacing" textLength="44" x="191.5" y="144.0654">create()</text><polygon fill="#181818" points="473,175.2734,473.026,175.3385,474.9487,175.9452,477.0239,176.9333,479.0495,177.7971,480.9117,178.2526,483,179.2734,482.9904,179.2494,480.9472,179.9414,478.9525,180.7547,476.9916,181.6523,474.9144,182.2595,473,183.2734,473.1305,183.4039,473.6514,182.3249,474.5534,181.6268,475.5018,180.9752,476.1798,180.0532,477,179.2734,477.0161,179.2895,476.1925,178.4659,475.4421,177.7155,474.6564,176.9298,473.938,176.2115,473,175.2734" style="stroke:#181818;stroke-width:1.0;"/><path d="M184.5,179.2734 L184.5,179.5537 L194.6552,178.721 L204.8103,179.5312 L214.9655,179.8063 L225.1207,178.3222 L235.2759,179.1698 L245.431,178.7048 L255.5862,178.7621 L265.7414,179.1826 L275.8966,178.3516 L286.0517,180.0116 L296.2069,178.4331 L306.3621,179.0097 L316.5172,179.8494 L326.6724,179.1591 L336.8276,179.3644 L346.9828,179.2308 L357.1379,179.5115 L367.2931,179.5923 L377.4483,180.0544 L387.6034,180.1682 L397.7586,180.1791 L407.9138,179.6129 L418.069,179.8916 L428.2241,180.2097 L438.3793,178.3119 L448.5345,180.1781 L458.6897,178.8781 L468.8448,179.9852 L479,179.2734 " fill="none" style="stroke:#181818;stroke-width:1.0;"/><text fill="#000000" font-family="FG Virgil" font-size="13" lengthAdjust="spacing" textLength="44" x="191.5" y="174.417">create()</text><polygon fill="#181818" points="33.5,205.625,33.526,205.69,31.4487,206.2968,29.5239,207.2848,27.5495,208.1487,25.4117,208.6042,23.5,209.625,23.4904,209.6009,25.4472,210.293,27.4525,211.1063,29.4916,212.0039,31.4144,212.611,33.5,213.625,33.6305,213.7555,32.5514,212.6764,31.8534,211.9784,31.2018,211.3268,30.2798,210.4048,29.5,209.625,29.5161,209.6411,30.2925,208.8175,31.1421,208.0671,31.9564,207.2814,32.838,206.563,33.5,205.625" style="stroke:#181818;stroke-width:1.0;"/><path d="M27.5,209.625 L27.5,209.9052 L37.2333,209.0726 L46.9667,209.8827 L56.7,210.1579 L66.4333,208.6738 L76.1667,209.5214 L85.9,209.0563 L95.6333,209.1137 L105.3667,209.5341 L115.1,208.7032 L124.8333,210.3632 L134.5667,208.7846 L144.3,209.3613 L154.0333,210.2009 L163.7667,209.5106 L173.5,209.625 " fill="none" style="stroke:#181818;stroke-width:1.0;stroke-dasharray:2.0,2.0;"/><text fill="#000000" font-family="FG Virgil" font-size="13" lengthAdjust="spacing" textLength="73" x="39.5" y="204.7686">Ask board id</text><polygon fill="#181818" points="162.5,235.9766,162.526,236.0416,164.4487,236.6483,166.5239,237.6364,168.5495,238.5003,170.4117,238.9558,172.5,239.9766,172.4904,239.9525,170.4472,240.6446,168.4525,241.4579,166.4916,242.3555,164.4144,242.9626,162.5,243.9766,162.6305,244.1071,163.1514,243.028,164.0534,242.3299,165.0018,241.6784,165.6798,240.7563,166.5,239.9766,166.5161,239.9926,165.6925,239.169,164.9421,238.4186,164.1564,237.6329,163.438,236.9146,162.5,235.9766" style="stroke:#181818;stroke-width:1.0;"/><path d="M22.5,239.9766 L22.5,240.2568 L32.2333,239.4241 L41.9667,240.2343 L51.7,240.5095 L61.4333,239.0254 L71.1667,239.8729 L80.9,239.4079 L90.6333,239.4652 L100.3667,239.8857 L110.1,239.0547 L119.8333,240.7148 L129.5667,239.1362 L139.3,239.7129 L149.0333,240.5525 L158.7667,239.8622 L168.5,239.9766 " fill="none" style="stroke:#181818;stroke-width:1.0;stroke-dasharray:2.0,2.0;"/><text fill="#000000" font-family="FG Virgil" font-size="13" lengthAdjust="spacing" textLength="44" x="29.5" y="235.1201">BoardId</text><polygon fill="#181818" points="327.5,266.3281,327.526,266.3932,329.4487,266.9999,331.5239,267.9879,333.5495,268.8518,335.4117,269.3073,337.5,270.3281,337.4904,270.3041,335.4472,270.9961,333.4525,271.8094,331.4916,272.707,329.4144,273.3142,327.5,274.3281,327.6305,274.4586,328.1514,273.3796,329.0534,272.6815,330.0018,272.0299,330.6798,271.1079,331.5,270.3281,331.5161,270.3442,330.6925,269.5206,329.9421,268.7702,329.1564,267.9845,328.438,267.2662,327.5,266.3281" style="stroke:#181818;stroke-width:1.0;"/><path d="M184.5,270.3281 L184.5,270.6084 L194.4333,269.7757 L204.3667,270.5858 L214.3,270.861 L224.2333,269.3769 L234.1667,270.2245 L244.1,269.7595 L254.0333,269.8168 L263.9667,270.2372 L273.9,269.4063 L283.8333,271.0663 L293.7667,269.4878 L303.7,270.0644 L313.6333,270.9041 L323.5667,270.2138 L333.5,270.3281 " fill="none" style="stroke:#181818;stroke-width:1.0;"/><text fill="#000000" font-family="FG Virgil" font-size="13" lengthAdjust="spacing" textLength="136" x="191.5" y="265.4717">getUserByToken(token)</text><polygon fill="#181818" points="195.5,296.6797,195.526,296.7447,193.4487,297.3515,191.5239,298.3395,189.5495,299.2034,187.4117,299.6589,185.5,300.6797,185.4904,300.6556,187.4472,301.3477,189.4525,302.161,191.4916,303.0586,193.4144,303.6657,195.5,304.6797,195.6305,304.8102,194.5514,303.7311,193.8534,303.0331,193.2018,302.3815,192.2798,301.4595,191.5,300.6797,191.5161,300.6958,192.2925,299.8722,193.1421,299.1218,193.9564,298.3361,194.838,297.6177,195.5,296.6797" style="stroke:#181818;stroke-width:1.0;"/><path d="M189.5,300.6797 L189.5,300.9599 L199.7667,300.1273 L210.0333,300.9374 L220.3,301.2126 L230.5667,299.7285 L240.8333,300.5761 L251.1,300.111 L261.3667,300.1684 L271.6333,300.5888 L281.9,299.7579 L292.1667,301.4179 L302.4333,299.8393 L312.7,300.416 L322.9667,301.2556 L333.2333,300.5653 L343.5,300.6797 " fill="none" style="stroke:#181818;stroke-width:1.0;"/><text fill="#000000" font-family="FG Virgil" font-size="13" lengthAdjust="spacing" textLength="52" x="201.5" y="295.8232">authUser</text><polygon fill="#181818" points="468,338.207,468.026,338.2721,469.9487,338.8788,472.0239,339.8669,474.0495,340.7307,475.9117,341.1862,478,342.207,477.9904,342.183,475.9472,342.875,473.9525,343.6883,471.9916,344.5859,469.9144,345.1931,468,346.207,468.1305,346.3375,468.6514,345.2585,469.5534,344.5604,470.5018,343.9088,471.1798,342.9868,472,342.207,472.0161,342.2231,471.1925,341.3995,470.4421,340.6491,469.6564,339.8634,468.938,339.1451,468,338.207" style="stroke:#181818;stroke-width:1.0;"/><path d="M184.5,342.207 L184.5,342.4873 L194.4828,341.6546 L204.4655,342.4647 L214.4483,342.7399 L224.431,341.2558 L234.4138,342.1034 L244.3966,341.6384 L254.3793,341.6957 L264.3621,342.1162 L274.3448,341.2852 L284.3276,342.9452 L294.3103,341.3667 L304.2931,341.9433 L314.2759,342.783 L324.2586,342.0927 L334.2414,342.298 L344.2241,342.1644 L354.2069,342.4451 L364.1897,342.5259 L374.1724,342.988 L384.1552,343.1018 L394.1379,343.1127 L404.1207,342.5465 L414.1034,342.8251 L424.0862,343.1433 L434.069,341.2455 L444.0517,343.1117 L454.0345,341.8117 L464.0172,342.9188 L474,342.207 " fill="none" style="stroke:#181818;stroke-width:1.0;"/><text fill="#000000" font-family="FG Virgil" font-size="13" lengthAdjust="spacing" textLength="244" x="191.5" y="337.3506">getLastPostItsByBoard(boardId, authUser)</text><path d="M495,313.6797 L495.1868,313.6797 L494.6317,322.0797 L495.1718,330.4797 L495.3553,338.8797 L494.3659,347.2797 L495,355.6797 L495,355.4725 L505.0833,354.5424 L515.1667,354.657 L525.25,355.4979 L535.3333,353.836 L545.4167,357.1561 L555.5,353.9989 L565.5833,355.1523 L575.6667,356.8315 L585.75,355.4509 L595.8333,355.8617 L605.9167,355.5945 L616,356.1558 L626.0833,356.3174 L636.1667,357.2415 L646.25,357.4692 L656.3333,357.491 L666.4167,356.3587 L676.5,356.9159 L686.5833,357.5523 L696.6667,353.7565 L706.75,357.489 L716.8333,354.889 L726.9167,357.1032 L737,355.6797 L736.56,355.6797 L736.9391,349.2797 L737.6592,342.8797 L736.9567,336.4797 L737.0936,330.0797 L737,323.6797 L737.2128,323.8925 L735.2616,321.9413 L732.9975,319.6772 L731.1805,317.8602 L728.6402,315.3199 L727,313.6797 L727,314.4381 L716.913,315.1415 L706.8261,314.8651 L696.7391,315.3144 L686.6522,312.3915 L676.5652,311.9405 L666.4783,312.0226 L656.3913,313.5227 L646.3043,313.1556 L636.2174,315.4968 L626.1304,313.2139 L616.0435,312.7649 L605.9565,314.2884 L595.8696,311.9015 L585.7826,312.2954 L575.6957,315.4102 L565.6087,314.8415 L555.5217,315.6383 L545.4348,312.8216 L535.3478,314.5309 L525.2609,315.2541 L515.1739,312.4199 L505.087,313.4241 L495,313.6797 " fill="#FAFAFA" style="stroke:#181818;stroke-width:0.5;"/><path d="M727,313.6797 L727.112,313.6797 L727.5793,315.6797 L726.9963,317.6797 L727.4112,319.6797 L726.5077,321.6797 L727,323.6797 L727,323.0777 L729,324.1273 L731,323.0424 L733,324.1321 L735,323.8634 L737,323.6797 L736.8316,323.5113 L734.7776,321.4573 L733.2883,319.968 L730.8119,317.4915 L729.372,316.0517 L727,313.6797 " fill="#FAFAFA" style="stroke:#181818;stroke-width:0.5;"/><text fill="#000000" font-family="FG Virgil" font-size="13" lengthAdjust="spacing" textLength="221" x="501" y="332.1748">dependency injection was abastracted</text><text fill="#000000" font-family="FG Virgil" font-size="13" lengthAdjust="spacing" textLength="127" x="501" y="348.5264">for diagram readability</text><polygon fill="#181818" points="604.5,379.7344,604.526,379.7994,606.4487,380.4061,608.5239,381.3942,610.5495,382.2581,612.4117,382.7136,614.5,383.7344,614.4904,383.7103,612.4472,384.4024,610.4525,385.2157,608.4916,386.1133,606.4144,386.7204,604.5,387.7344,604.6305,387.8649,605.1514,386.7858,606.0534,386.0878,607.0018,385.4362,607.6798,384.5142,608.5,383.7344,608.5161,383.7505,607.6925,382.9268,606.9421,382.1765,606.1564,381.3907,605.438,380.6724,604.5,379.7344" style="stroke:#181818;stroke-width:1.0;"/><path d="M490,383.7344 L490,384.0146 L500.0417,383.1819 L510.0833,383.9921 L520.125,384.2673 L530.1667,382.7832 L540.2083,383.6308 L550.25,383.1657 L560.2917,383.223 L570.3333,383.6435 L580.375,382.8125 L590.4167,384.4726 L600.4583,382.894 L610.5,383.7344 " fill="none" style="stroke:#181818;stroke-width:1.0;"/><text fill="#000000" font-family="FG Virgil" font-size="13" lengthAdjust="spacing" textLength="102" x="497" y="378.8779">ofIdentity(boardId)</text><polygon fill="#181818" points="501,410.0859,501.026,410.151,498.9487,410.7577,497.0239,411.7458,495.0495,412.6096,492.9117,413.0651,491,414.0859,490.9904,414.0619,492.9472,414.7539,494.9525,415.5672,496.9916,416.4648,498.9144,417.072,501,418.0859,501.1305,418.2164,500.0514,417.1374,499.3534,416.4393,498.7018,415.7877,497.7798,414.8657,497,414.0859,497.0161,414.102,497.7925,413.2784,498.6421,412.528,499.4564,411.7423,500.338,411.024,501,410.0859" style="stroke:#181818;stroke-width:1.0;"/><path d="M495,414.0859 L495,414.3662 L504.6538,413.5335 L514.3077,414.3437 L523.9615,414.6188 L533.6154,413.1347 L543.2692,413.9823 L552.9231,413.5173 L562.5769,413.5746 L572.2308,413.9951 L581.8846,413.1641 L591.5385,414.8241 L601.1923,413.2456 L610.8462,413.8222 L620.5,414.0859 " fill="none" style="stroke:#181818;stroke-width:1.0;"/><text fill="#000000" font-family="FG Virgil" font-size="13" lengthAdjust="spacing" textLength="32" x="507" y="409.2295">board</text><polygon fill="#181818" points="708.5,440.4375,708.526,440.5025,710.4487,441.1093,712.5239,442.0973,714.5495,442.9612,716.4117,443.4167,718.5,444.4375,718.4904,444.4134,716.4472,445.1055,714.4525,445.9188,712.4916,446.8164,710.4144,447.4235,708.5,448.4375,708.6305,448.568,709.1514,447.4889,710.0534,446.7909,711.0018,446.1393,711.6798,445.2173,712.5,444.4375,712.5161,444.4536,711.6925,443.63,710.9421,442.8796,710.1564,442.0939,709.438,441.3755,708.5,440.4375" style="stroke:#181818;stroke-width:1.0;"/><path d="M490,444.4375 L490,444.7177 L500.2045,443.8851 L510.4091,444.6952 L520.6136,444.9704 L530.8182,443.4863 L541.0227,444.3339 L551.2273,443.8688 L561.4318,443.9262 L571.6364,444.3466 L581.8409,443.5157 L592.0455,445.1757 L602.25,443.5971 L612.4545,444.1738 L622.6591,445.0134 L632.8636,444.3231 L643.0682,444.5285 L653.2727,444.3949 L663.4773,444.6755 L673.6818,444.7563 L683.8864,445.2184 L694.0909,445.3322 L704.2955,445.3432 L714.5,444.4375 " fill="none" style="stroke:#181818;stroke-width:1.0;"/><text fill="#000000" font-family="FG Virgil" font-size="13" lengthAdjust="spacing" textLength="196" x="497" y="439.5811">userHasAnyPermission(authUser)</text><path d="M404.5,459.4375 L404.5,459.998 L414.6667,458.3326 L424.8333,459.9529 L435,460.5033 L445.1667,457.5351 L455.3333,459.2303 L465.5,459.4375 L465.1209,459.4375 L465.1591,461.1078 L465.4394,462.7781 L464.8854,464.4484 L465.9921,466.1188 L465.5,467.7891 L465.1038,467.3929 L463.3757,469.6648 L461.7715,472.0606 L459.4461,473.7351 L457.5429,475.832 L455.5,477.7891 L455.5,477.7039 L445.3,478.2651 L435.1,478.4268 L424.9,479.3509 L414.7,479.5785 L404.5,477.7891 L405.1038,477.7891 L404.7263,474.1188 L404.9121,470.4484 L405.1242,466.7781 L403.8589,463.1078 L404.5,459.4375 " fill="#EEEEEE" style="stroke:#000000;stroke-width:1.5;"/><polygon fill="none" points="404.5,459.4375,404.5,459.6477,414.4592,459.0232,424.4184,459.6308,434.3776,459.8372,444.3367,458.7241,454.2959,459.3598,464.2551,459.011,474.2143,459.054,484.1735,459.3693,494.1327,458.7461,504.0918,459.9911,514.051,458.8072,524.0102,459.2397,533.9694,459.8694,543.9286,459.3517,553.8878,459.5057,563.8469,459.4056,573.8061,459.616,583.7653,459.6766,593.7245,460.0232,603.6837,460.1086,613.6429,460.1168,623.602,459.6921,633.5612,459.9011,643.5204,460.1397,653.4796,458.7163,663.4388,460.116,673.398,459.141,683.3571,459.9713,693.3163,458.9425,703.2755,459.369,713.2347,460.1791,723.1939,459.3888,733.1531,459.5428,743.1122,459.7761,753.0714,459.8537,763.0306,459.4336,772.9898,459.7247,782.949,458.8651,792.9082,459.7219,802.8673,459.9857,812.8265,459.882,822.7857,460.0505,832.7449,458.9544,842.7041,458.7853,852.6633,458.8161,862.6224,459.3786,872.5816,459.241,882.5408,460.1189,892.5,459.4375,892.3253,459.4375,892.1569,469.3835,892.7283,479.3295,891.8332,489.2756,891.9809,499.2216,893.149,509.1676,892.9357,519.1136,893.2345,529.0597,892.1782,539.0057,892.8192,548.9517,893.0904,558.8977,892.5,568.8438,892.5,568.3713,882.5408,568.7479,872.5816,568.9697,862.6224,569.4955,852.6633,568.8396,842.7041,569.3063,832.7449,568.29,822.7857,568.1665,812.8265,569.3474,802.8673,568.1268,792.9082,569.3527,782.949,569.0504,772.9898,568.5758,763.0306,568.49,753.0714,569.3025,743.1122,568.5444,733.1531,569.4356,723.1939,568.291,713.2347,569.4612,703.2755,569.3281,693.3163,569.0887,683.3571,568.891,673.398,569.5704,663.4388,569.4573,653.4796,569.013,643.5204,569.1119,633.5612,568.7135,623.602,569.5602,613.6429,568.9986,603.6837,569.0163,593.7245,568.2354,583.7653,568.4385,573.8061,569.3745,563.8469,569.2735,553.8878,568.8008,543.9286,568.5216,533.9694,568.6248,524.0102,568.1576,514.051,569.2585,504.0918,569.5833,494.1327,569.3701,484.1735,569.5387,474.2143,568.707,464.2551,568.931,454.2959,568.4562,444.3367,569.1278,434.3776,569.0905,424.4184,569.3961,414.4592,568.6141,404.5,568.8438,404.3656,568.8438,404.9435,558.8977,405.0673,548.9517,403.9875,539.0057,404.3061,529.0597,404.6493,519.1136,403.8892,509.1676,404.8534,499.2216,404.758,489.2756,404.3992,479.3295,404.6422,469.3835,404.5,459.4375" style="stroke:#000000;stroke-width:1.5;"/><text fill="#000000" font-family="FG Virgil" font-size="13" font-weight="bold" lengthAdjust="spacing" textLength="16" x="419.5" y="473.9326">alt</text><text fill="#000000" font-family="FG Virgil" font-size="11" font-weight="bold" lengthAdjust="spacing" textLength="178" x="480.5" y="472.8564">[user have access to that board]</text><polygon fill="#181818" points="501,496.1406,501.026,496.2057,498.9487,496.8124,497.0239,497.8004,495.0495,498.6643,492.9117,499.1198,491,500.1406,490.9904,500.1166,492.9472,500.8086,494.9525,501.6219,496.9916,502.5195,498.9144,503.1267,501,504.1406,501.1305,504.2711,500.0514,503.1921,499.3534,502.494,498.7018,501.8424,497.7798,500.9204,497,500.1406,497.0161,500.1567,497.7925,499.3331,498.6421,498.5827,499.4564,497.797,500.338,497.0787,501,496.1406" style="stroke:#181818;stroke-width:1.0;"/><path d="M495,500.1406 L495,500.4209 L504.9783,499.5882 L514.9565,500.3983 L524.9348,500.6735 L534.913,499.1894 L544.8913,500.037 L554.8696,499.572 L564.8478,499.6293 L574.8261,500.0497 L584.8043,499.2188 L594.7826,500.8788 L604.7609,499.3003 L614.7391,499.8769 L624.7174,500.7166 L634.6957,500.0263 L644.6739,500.2316 L654.6522,500.098 L664.6304,500.3787 L674.6087,500.4595 L684.587,500.9215 L694.5652,501.0354 L704.5435,501.0463 L714.5217,500.4801 L724.5,500.1406 " fill="none" style="stroke:#181818;stroke-width:1.0;"/><text fill="#000000" font-family="FG Virgil" font-size="13" lengthAdjust="spacing" textLength="22" x="507" y="495.2842">true</text><polygon fill="#181818" points="811,526.4922,811.026,526.5572,812.9487,527.164,815.0239,528.152,817.0495,529.0159,818.9117,529.4714,821,530.4922,820.9904,530.4681,818.9472,531.1602,816.9525,531.9735,814.9916,532.8711,812.9144,533.4782,811,534.4922,811.1305,534.6227,811.6514,533.5436,812.5534,532.8456,813.5018,532.194,814.1798,531.272,815,530.4922,815.0161,530.5083,814.1925,529.6847,813.4421,528.9343,812.6564,528.1486,811.938,527.4302,811,526.4922" style="stroke:#181818;stroke-width:1.0;"/><path d="M490,530.4922 L490,530.7724 L499.9091,529.9398 L509.8182,530.7499 L519.7273,531.0251 L529.6364,529.541 L539.5455,530.3886 L549.4545,529.9235 L559.3636,529.9809 L569.2727,530.4013 L579.1818,529.5704 L589.0909,531.2304 L599,529.6518 L608.9091,530.2285 L618.8182,531.0681 L628.7273,530.3778 L638.6364,530.5832 L648.5455,530.4496 L658.4545,530.7302 L668.3636,530.811 L678.2727,531.2731 L688.1818,531.3869 L698.0909,531.3979 L708,530.8317 L717.9091,531.1103 L727.8182,531.4285 L737.7273,529.5306 L747.6364,531.3969 L757.5455,530.0968 L767.4545,531.2039 L777.3636,529.8322 L787.2727,530.4009 L797.1818,531.481 L807.0909,530.4272 L817,530.4922 " fill="none" style="stroke:#181818;stroke-width:1.0;"/><text fill="#000000" font-family="FG Virgil" font-size="13" lengthAdjust="spacing" textLength="153" x="497" y="525.6357">lastPostItsOnBoard(board)</text><polygon fill="#181818" points="501,556.8438,501.026,556.9088,498.9487,557.5155,497.0239,558.5036,495.0495,559.3674,492.9117,559.823,491,560.8438,490.9904,560.8197,492.9472,561.5118,494.9525,562.3251,496.9916,563.2227,498.9144,563.8298,501,564.8438,501.1305,564.9742,500.0514,563.8952,499.3534,563.1971,498.7018,562.5456,497.7798,561.6235,497,560.8438,497.0161,560.8598,497.7925,560.0362,498.6421,559.2858,499.4564,558.5001,500.338,557.7818,501,556.8438" style="stroke:#181818;stroke-width:1.0;"/><path d="M495,560.8438 L495,561.124 L505.0606,560.2913 L515.1212,561.1015 L525.1818,561.3767 L535.2424,559.8926 L545.303,560.7401 L555.3636,560.2751 L565.4242,560.3324 L575.4848,560.7529 L585.5455,559.9219 L595.6061,561.5819 L605.6667,560.0034 L615.7273,560.5801 L625.7879,561.4197 L635.8485,560.7294 L645.9091,560.9347 L655.9697,560.8012 L666.0303,561.0818 L676.0909,561.1626 L686.1515,561.6247 L696.2121,561.7385 L706.2727,561.7494 L716.3333,561.1833 L726.3939,561.4619 L736.4545,561.7801 L746.5152,559.8822 L756.5758,561.7484 L766.6364,560.4484 L776.697,561.5555 L786.7576,560.1837 L796.8182,560.7524 L806.8788,561.8326 L816.9394,560.7788 L827,560.8438 " fill="none" style="stroke:#181818;stroke-width:1.0;"/><text fill="#000000" font-family="FG Virgil" font-size="13" lengthAdjust="spacing" textLength="39" x="507" y="555.9873">postIts</text><polygon fill="#181818" points="195.5,594.1953,195.526,594.2604,193.4487,594.8671,191.5239,595.8551,189.5495,596.719,187.4117,597.1745,185.5,598.1953,185.4904,598.1713,187.4472,598.8633,189.4525,599.6766,191.4916,600.5742,193.4144,601.1813,195.5,602.1953,195.6305,602.3258,194.5514,601.2468,193.8534,600.5487,193.2018,599.8971,192.2798,598.9751,191.5,598.1953,191.5161,598.2114,192.2925,597.3878,193.1421,596.6374,193.9564,595.8517,194.838,595.1334,195.5,594.1953" style="stroke:#181818;stroke-width:1.0;"/><path d="M189.5,598.1953 L189.5,598.4756 L199.6552,597.6429 L209.8103,598.453 L219.9655,598.7282 L230.1207,597.2441 L240.2759,598.0917 L250.431,597.6267 L260.5862,597.684 L270.7414,598.1044 L280.8966,597.2735 L291.0517,598.9335 L301.2069,597.3549 L311.3621,597.9316 L321.5172,598.7712 L331.6724,598.0809 L341.8276,598.2863 L351.9828,598.1527 L362.1379,598.4333 L372.2931,598.5142 L382.4483,598.9762 L392.6034,599.0901 L402.7586,599.101 L412.9138,598.5348 L423.069,598.8134 L433.2241,599.1316 L443.3793,597.2337 L453.5345,599.1 L463.6897,597.8 L473.8448,598.9071 L484,598.1953 " fill="none" style="stroke:#181818;stroke-width:1.0;"/><text fill="#000000" font-family="FG Virgil" font-size="13" lengthAdjust="spacing" textLength="39" x="201.5" y="593.3389">postIts</text><polygon fill="#181818" points="33.5,624.5469,33.526,624.6119,31.4487,625.2186,29.5239,626.2067,27.5495,627.0706,25.4117,627.5261,23.5,628.5469,23.4904,628.5228,25.4472,629.2149,27.4525,630.0282,29.4916,630.9258,31.4144,631.5329,33.5,632.5469,33.6305,632.6774,32.5514,631.5983,31.8534,630.9003,31.2018,630.2487,30.2798,629.3267,29.5,628.5469,29.5161,628.563,30.2925,627.7393,31.1421,626.989,31.9564,626.2032,32.838,625.4849,33.5,624.5469" style="stroke:#181818;stroke-width:1.0;"/><path d="M27.5,628.5469 L27.5,628.8271 L37.5667,627.9944 L47.6333,628.8046 L57.7,629.0798 L67.7667,627.5957 L77.8333,628.4433 L87.9,627.9782 L97.9667,628.0355 L108.0333,628.456 L118.1,627.625 L128.1667,629.2851 L138.2333,627.7065 L148.3,628.2832 L158.3667,629.1228 L168.4333,628.4325 L178.5,628.5469 " fill="none" style="stroke:#181818;stroke-width:1.0;stroke-dasharray:2.0,2.0;"/><text fill="#000000" font-family="FG Virgil" font-size="13" lengthAdjust="spacing" textLength="82" x="39.5" y="623.6904">displayPostIts</text><!--MD5=[52e0b84ba3ebce789cfc5458c09f3801]
@startuml
'http://plantuml.com/skinparam.html
skinparam handwritten true
skinparam monochrome true
skinparam packageStyle rect
skinparam defaultFontName FG Virgil
skinparam shadowing false

actor User as Actor
participant HttpServerAjax as Server <<http server>>
participant SessionManager as SM
participant GetPostItsController as Controller <<application>>
database BoardRepository as Repository <<repository>>
participant Board as Domain <<domain>>
database PostItRepository as PRepository <<repository>>


Actor - -> Server: Show Post-It's in board
activate Server
    Server -> SM: create()
    Server -> Controller: create()

    Server - -> Actor: Ask board id
    Actor - -> Server: BoardId


    Server -> SM: getUserByToken(token)
    activate SM
    SM -> Server: authUser
    deactivate SM
        
    Server -> Controller: getLastPostItsByBoard(boardId, authUser)
    activate Controller
    note right: dependency injection was abastracted\nfor diagram readability


    Controller -> Repository: ofIdentity(boardId)
    activate Repository
    Repository -> Controller: board
    deactivate Repository

    Controller -> Domain: userHasAnyPermission(authUser)
    activate Domain
        alt  user have access to that board
            Domain -> Controller: true
            deactivate Domain

            Controller -> PRepository: lastPostItsOnBoard(board)
            activate PRepository
            PRepository -> Controller: postIts 
            deactivate PRepository
        end

    Controller -> Server: postIts
    deactivate Controller

    Server - -> Actor: displayPostIts

deactivate Server
@enduml

@startuml
skinparam handwritten true
skinparam monochrome true
skinparam packageStyle rect
skinparam defaultFontName FG Virgil
skinparam shadowing false

actor User as Actor
participant HttpServerAjax as Server <<http server>>
participant SessionManager as SM
participant GetPostItsController as Controller <<application>>
database BoardRepository as Repository <<repository>>
participant Board as Domain <<domain>>
database PostItRepository as PRepository <<repository>>


Actor - -> Server: Show Post-It's in board
activate Server
    Server -> SM: create()
    Server -> Controller: create()

    Server - -> Actor: Ask board id
    Actor - -> Server: BoardId


    Server -> SM: getUserByToken(token)
    activate SM
    SM -> Server: authUser
    deactivate SM
        
    Server -> Controller: getLastPostItsByBoard(boardId, authUser)
    activate Controller
    note right: dependency injection was abastracted\nfor diagram readability


    Controller -> Repository: ofIdentity(boardId)
    activate Repository
    Repository -> Controller: board
    deactivate Repository

    Controller -> Domain: userHasAnyPermission(authUser)
    activate Domain
        alt  user have access to that board
            Domain -> Controller: true
            deactivate Domain

            Controller -> PRepository: lastPostItsOnBoard(board)
            activate PRepository
            PRepository -> Controller: postIts 
            deactivate PRepository
        end

    Controller -> Server: postIts
    deactivate Controller

    Server - -> Actor: displayPostIts

deactivate Server
@enduml

PlantUML version 1.2022.7(Mon Aug 22 18:01:30 BST 2022)
(GPL source distribution)
Java Runtime: Java(TM) SE Runtime Environment
JVM: Java HotSpot(TM) 64-Bit Server VM
Default Encoding: Cp1252
Language: pt
Country: PT
--></g></svg>