<?xml version="1.0" encoding="UTF-8" standalone="no"?><svg xmlns="http://www.w3.org/2000/svg" xmlns:xlink="http://www.w3.org/1999/xlink" contentStyleType="text/css" height="529px" preserveAspectRatio="none" style="width:813px;height:529px;background:#FFFFFF;" version="1.1" viewBox="0 0 813 529" width="813px" zoomAndPan="magnify"><defs/><g><polygon fill="#FFFFFF" points="242.5,118.5703,242.5,118.6404,244.5,118.4322,246.5,118.6347,248.5,118.7035,250.5,118.3325,252.5,118.5703,252.4223,118.5703,252.0735,128.4208,252.1165,138.2714,252.4318,148.1219,251.8086,157.9724,253.0536,167.8229,251.8697,177.6734,252.3022,187.524,252.9319,197.3745,252.4142,207.225,252.5682,217.0755,252.4681,226.926,252.6785,236.7766,252.7391,246.6271,253.0857,256.4776,253.1711,266.3281,253.1793,276.1786,252.7546,286.0292,252.9636,295.8797,253.2022,305.7302,251.7788,315.5807,253.1785,325.4313,252.2035,335.2818,253.0338,345.1323,252.005,354.9828,252.4315,364.8333,253.2416,374.6839,252.4513,384.5344,252.6053,394.3849,252.8386,404.2354,252.5,414.0859,252.5,414.2247,250.5,414.0846,248.5,414.1817,246.5,413.8951,244.5,414.1807,242.5,414.0859,243.0482,414.0859,242.9445,404.2354,243.113,394.3849,242.0169,384.5344,241.8478,374.6839,241.8786,364.8333,242.4411,354.9828,242.3035,345.1323,243.1814,335.2818,242.3253,325.4313,242.1569,315.5807,242.7283,305.7302,241.8332,295.8797,241.9809,286.0292,243.149,276.1786,242.9357,266.3281,243.2345,256.4776,242.1782,246.6271,242.8192,236.7766,243.0904,226.926,242.0276,217.0755,242.4041,207.225,242.626,197.3745,243.1518,187.524,242.4958,177.6734,242.9626,167.8229,241.9462,157.9724,241.8227,148.1219,243.0036,138.2714,241.7831,128.4208,242.5,118.5703" style="stroke:#181818;stroke-width:1.0;"/><polygon fill="#FFFFFF" points="407.5,209.625,407.5,209.6951,409.5,209.4869,411.5,209.6894,413.5,209.7582,415.5,209.3872,417.5,209.625,417.4741,209.625,417.3578,215.6953,417.3722,221.7656,417.4773,227.8359,417.2695,233.9063,417.5,239.9766,417.5,240.1611,415.5,239.7665,413.5,239.9106,411.5,240.1205,409.5,239.948,407.5,239.9766,407.5227,239.9766,407.4894,233.9063,407.5595,227.8359,407.5797,221.7656,407.6952,215.6953,407.5,209.625" style="stroke:#181818;stroke-width:1.0;"/><polygon fill="#FFFFFF" points="549.5,281.5039,549.5,281.574,551.5,281.3658,553.5,281.5683,555.5,281.6371,557.5,281.2661,559.5,281.5039,559.4223,281.5039,559.0735,291.727,559.1165,301.95,559.4318,312.173,558.8086,322.3961,560.0536,332.6191,558.8697,342.8422,559.3022,353.0652,559.9319,363.2883,559.4142,373.5113,559.5,383.7344,559.5,383.7571,557.5,383.7237,555.5,383.7939,553.5,383.8141,551.5,383.9296,549.5,383.7344,550.1711,383.7344,550.1793,373.5113,549.7546,363.2883,549.9636,353.0652,550.2022,342.8422,548.7788,332.6191,550.1785,322.3961,549.2035,312.173,550.0338,301.95,549.005,291.727,549.5,281.5039" style="stroke:#181818;stroke-width:1.0;"/><polygon fill="#FFFFFF" points="740.5,323.0313,740.5,323.1013,742.5,322.8931,744.5,323.0957,746.5,323.1645,748.5,322.7935,750.5,323.0313,750.4741,323.0313,750.3578,329.1016,750.3722,335.1719,750.4773,341.2422,750.2695,347.3125,750.5,353.3828,750.5,353.5674,748.5,353.1727,746.5,353.3169,744.5,353.5268,742.5,353.3542,740.5,353.3828,740.5227,353.3828,740.4894,347.3125,740.5595,341.2422,740.5797,335.1719,740.6952,329.1016,740.5,323.0313" style="stroke:#181818;stroke-width:1.0;"/><path d="M22,86.2188 L22.2802,86.2188 L21.4476,96.1007 L22.2577,105.9826 L22.5329,115.8645 L21.0488,125.7464 L21.8964,135.6283 L21.4313,145.5103 L21.4887,155.3922 L21.9091,165.2741 L21.0782,175.156 L22.7382,185.0379 L21.1596,194.9199 L21.7363,204.8018 L22.5759,214.6837 L21.8856,224.5656 L22.091,234.4475 L21.9574,244.3295 L22.238,254.2114 L22.3188,264.0933 L22.7809,273.9752 L22.8947,283.8571 L22.9057,293.7391 L22.3395,303.621 L22.6181,313.5029 L22.9363,323.3848 L21.0384,333.2667 L22.9047,343.1487 L21.6047,353.0306 L22.7117,362.9125 L21.34,372.7944 L21.9087,382.6763 L22.9888,392.5583 L21.935,402.4402 L22.1404,412.3221 L22.4515,422.204 L22,432.0859 " fill="none" style="stroke:#181818;stroke-width:0.5;stroke-dasharray:5.0,5.0;"/><path d="M247,86.2188 L247.2802,86.2188 L246.4476,96.1007 L247.2577,105.9826 L247.5329,115.8645 L246.0488,125.7464 L246.8964,135.6283 L246.4313,145.5103 L246.4887,155.3922 L246.9091,165.2741 L246.0782,175.156 L247.7382,185.0379 L246.1596,194.9199 L246.7363,204.8018 L247.5759,214.6837 L246.8856,224.5656 L247.091,234.4475 L246.9574,244.3295 L247.238,254.2114 L247.3188,264.0933 L247.7809,273.9752 L247.8947,283.8571 L247.9057,293.7391 L247.3395,303.621 L247.6181,313.5029 L247.9363,323.3848 L246.0384,333.2667 L247.9047,343.1487 L246.6047,353.0306 L247.7117,362.9125 L246.34,372.7944 L246.9087,382.6763 L247.9888,392.5583 L246.935,402.4402 L247.1404,412.3221 L247.4515,422.204 L247,432.0859 " fill="none" style="stroke:#181818;stroke-width:0.5;stroke-dasharray:5.0,5.0;"/><path d="M412.5,86.2188 L412.7802,86.2188 L411.9476,96.1007 L412.7577,105.9826 L413.0329,115.8645 L411.5488,125.7464 L412.3964,135.6283 L411.9313,145.5103 L411.9887,155.3922 L412.4091,165.2741 L411.5782,175.156 L413.2382,185.0379 L411.6596,194.9199 L412.2363,204.8018 L413.0759,214.6837 L412.3856,224.5656 L412.591,234.4475 L412.4574,244.3295 L412.738,254.2114 L412.8188,264.0933 L413.2809,273.9752 L413.3947,283.8571 L413.4057,293.7391 L412.8395,303.621 L413.1181,313.5029 L413.4363,323.3848 L411.5384,333.2667 L413.4047,343.1487 L412.1047,353.0306 L413.2117,362.9125 L411.84,372.7944 L412.4087,382.6763 L413.4888,392.5583 L412.435,402.4402 L412.6404,412.3221 L412.9515,422.204 L412.5,432.0859 " fill="none" style="stroke:#181818;stroke-width:0.5;stroke-dasharray:5.0,5.0;"/><path d="M554.5,86.2188 L554.7802,86.2188 L553.9476,96.1007 L554.7577,105.9826 L555.0329,115.8645 L553.5488,125.7464 L554.3964,135.6283 L553.9313,145.5103 L553.9887,155.3922 L554.4091,165.2741 L553.5782,175.156 L555.2382,185.0379 L553.6596,194.9199 L554.2363,204.8018 L555.0759,214.6837 L554.3856,224.5656 L554.591,234.4475 L554.4574,244.3295 L554.738,254.2114 L554.8188,264.0933 L555.2809,273.9752 L555.3947,283.8571 L555.4057,293.7391 L554.8395,303.621 L555.1181,313.5029 L555.4363,323.3848 L553.5384,333.2667 L555.4047,343.1487 L554.1047,353.0306 L555.2117,362.9125 L553.84,372.7944 L554.4087,382.6763 L555.4888,392.5583 L554.435,402.4402 L554.6404,412.3221 L554.9515,422.204 L554.5,432.0859 " fill="none" style="stroke:#181818;stroke-width:0.5;stroke-dasharray:5.0,5.0;"/><path d="M745.5,86.2188 L745.7802,86.2188 L744.9476,96.1007 L745.7577,105.9826 L746.0329,115.8645 L744.5488,125.7464 L745.3964,135.6283 L744.9313,145.5103 L744.9887,155.3922 L745.4091,165.2741 L744.5782,175.156 L746.2382,185.0379 L744.6596,194.9199 L745.2363,204.8018 L746.0759,214.6837 L745.3856,224.5656 L745.591,234.4475 L745.4574,244.3295 L745.738,254.2114 L745.8188,264.0933 L746.2809,273.9752 L746.3947,283.8571 L746.4057,293.7391 L745.8395,303.621 L746.1181,313.5029 L746.4363,323.3848 L744.5384,333.2667 L746.4047,343.1487 L745.1047,353.0306 L746.2117,362.9125 L744.84,372.7944 L745.4087,382.6763 L746.4888,392.5583 L745.435,402.4402 L745.6404,412.3221 L745.9515,422.204 L745.5,432.0859 " fill="none" style="stroke:#181818;stroke-width:0.5;stroke-dasharray:5.0,5.0;"/><text fill="#000000" font-family="FG Virgil" font-size="14" lengthAdjust="spacing" textLength="29" x="5" y="83.1426">User</text><polygon fill="#E3E3E3" points="30.5442,19.0553,29.3715,20.6576,27.9845,23.0044,26.0008,24.586,23.9163,25.4509,22.2542,25.526,20.118,24.4443,18.1023,23.7377,16.5724,22.303,15.7699,20.6605,15.2939,19.3527,14.8277,17.6444,14.0709,16.1744,14.6525,14.7392,15.162,13.167,17.074,11.9235,18.4192,10.3102,20.0843,9.7744,22.0637,9.313,24.6021,9.5872,25.9924,10.2429,27.6089,10.5401,29.5743,12.5537,30.2595,14.6795,30.5571,16.13,30.22,18.5202" style="stroke:#181818;stroke-width:0.5;"/><path d="M22.5,25.1094 L22.6868,25.1094 L22.1317,30.5094 L22.6718,35.9094 L22.8553,41.3094 L21.8659,46.7094 L22.5,52.1094 M9.5,33.1094 L9.5,33.0403 L14.7,32.7303 L19.9,32.7685 L25.1,33.0488 L30.3,32.4948 L35.5,33.1094 M22.5,52.1094 L22.8719,52.4317 L19.4766,54.7425 L17.1672,57.9942 L14.9901,61.3608 L12.0424,64.0594 L9.5,67.1094 M22.5,52.1094 L22.5458,52.1491 L25.0785,55.0908 L27.8199,58.2133 L30.4606,61.2486 L33.2934,64.4503 L35.5,67.1094 " fill="none" style="stroke:#181818;stroke-width:0.5;"/><text fill="#000000" font-family="FG Virgil" font-size="14" lengthAdjust="spacing" textLength="29" x="5" y="445.6191">User</text><polygon fill="#E3E3E3" points="30.5442,459.1412,29.3715,460.7435,27.9845,463.0904,26.0008,464.672,23.9163,465.5368,22.2542,465.6119,20.118,464.5303,18.1023,463.8236,16.5724,462.3889,15.7699,460.7464,15.2939,459.4386,14.8277,457.7304,14.0709,456.2604,14.6525,454.8251,15.162,453.2529,17.074,452.0095,18.4192,450.3961,20.0843,449.8604,22.0637,449.399,24.6021,449.6731,25.9924,450.3288,27.6089,450.626,29.5743,452.6397,30.2595,454.7655,30.5571,456.2159,30.22,458.6061" style="stroke:#181818;stroke-width:0.5;"/><path d="M22.5,465.1953 L22.6868,465.1953 L22.1317,470.5953 L22.6718,475.9953 L22.8553,481.3953 L21.8659,486.7953 L22.5,492.1953 M9.5,473.1953 L9.5,473.1262 L14.7,472.8162 L19.9,472.8544 L25.1,473.1347 L30.3,472.5808 L35.5,473.1953 M22.5,492.1953 L22.8719,492.5176 L19.4766,494.8284 L17.1672,498.0802 L14.9901,501.4468 L12.0424,504.1454 L9.5,507.1953 M22.5,492.1953 L22.5458,492.235 L25.0785,495.1767 L27.8199,498.2992 L30.4606,501.3345 L33.2934,504.5363 L35.5,507.1953 " fill="none" style="stroke:#181818;stroke-width:0.5;"/><polygon fill="#E3E3E3" points="196.5,36,196.5,36.2102,206.7,35.5857,216.9,36.1933,227.1,36.3997,237.3,35.2866,247.5,35.9223,257.7,35.5735,267.9,35.6165,278.1,35.9318,288.3,35.3086,298.5,36,298.5706,36.1705,298.7732,35.9523,299.1819,36.232,299.6158,36.5724,299.9033,36.5594,300.2678,36.7322,300.2888,36.7409,300.4044,37.0817,300.6156,37.4621,300.7808,37.8234,301.0339,38.2212,301,38.5,301.2237,38.5,301.2264,47.3438,301.0849,56.1875,301.1545,65.0313,301.2341,73.875,301,82.7188,300.7779,82.6268,301.0625,83.1589,300.6158,83.388,300.7251,83.8475,300.2618,84.0698,300.2678,84.4865,300.259,84.4654,300.0088,84.8613,299.5544,84.7644,299.2205,84.9583,298.8967,85.1766,298.5,85.2188,298.5,85.635,288.3,85.2148,278.1,85.506,267.9,84.6463,257.7,85.5031,247.5,85.7669,237.3,85.6633,227.1,85.8318,216.9,84.7357,206.7,84.5666,196.5,85.2188,196.4207,85.0274,196.1389,85.0542,195.7678,84.8653,195.5263,84.9893,195.0635,84.5792,194.7322,84.4865,194.6266,84.4428,194.6561,84.1621,194.234,83.6943,194.133,83.3596,194.3463,83.1551,194,82.7188,194.1452,82.7188,194.2448,73.875,193.8927,65.0313,194.1064,56.1875,194.1968,47.3438,194,38.5,193.8545,38.4397,194.1169,38.1342,194.3317,37.809,194.6401,37.5225,194.5845,37.0853,194.7322,36.7322,194.7912,36.8747,195.0151,36.4152,195.3529,36.2308,195.8571,36.448,196.055,35.9257,196.5,36" style="stroke:#181818;stroke-width:0.5;"/><text fill="#000000" font-family="FG Virgil" font-size="14" font-style="italic" lengthAdjust="spacing" textLength="83" x="206" y="57.5332">«http server»</text><text fill="#000000" font-family="FG Virgil" font-size="14" lengthAdjust="spacing" textLength="93" x="201" y="75.1426">HttpServerAjax</text><polygon fill="#E3E3E3" points="196.5,431.0859,196.5,431.2961,206.7,430.6716,216.9,431.2792,227.1,431.4856,237.3,430.3725,247.5,431.0082,257.7,430.6594,267.9,430.7024,278.1,431.0178,288.3,430.3946,298.5,431.0859,298.5706,431.2564,298.7732,431.0383,299.1819,431.3179,299.6158,431.6583,299.9033,431.6453,300.2678,431.8182,300.2888,431.8269,300.4044,432.1676,300.6156,432.5481,300.7808,432.9093,301.0339,433.3071,301,433.5859,301.2237,433.5859,301.2264,442.4297,301.0849,451.2734,301.1545,460.1172,301.2341,468.9609,301,477.8047,300.7779,477.7127,301.0625,478.2448,300.6158,478.474,300.7251,478.9334,300.2618,479.1558,300.2678,479.5725,300.259,479.5514,300.0088,479.9473,299.5544,479.8503,299.2205,480.0442,298.8967,480.2625,298.5,480.3047,298.5,480.7209,288.3,480.3008,278.1,480.5919,267.9,479.7323,257.7,480.5891,247.5,480.8529,237.3,480.7492,227.1,480.9177,216.9,479.8216,206.7,479.6525,196.5,480.3047,196.4207,480.1133,196.1389,480.1401,195.7678,479.9513,195.5263,480.0752,195.0635,479.6651,194.7322,479.5725,194.6266,479.5287,194.6561,479.248,194.234,478.7803,194.133,478.4456,194.3463,478.241,194,477.8047,194.1452,477.8047,194.2448,468.9609,193.8927,460.1172,194.1064,451.2734,194.1968,442.4297,194,433.5859,193.8545,433.5257,194.1169,433.2202,194.3317,432.8949,194.6401,432.6084,194.5845,432.1712,194.7322,431.8182,194.7912,431.9606,195.0151,431.5012,195.3529,431.3167,195.8571,431.5339,196.055,431.0116,196.5,431.0859" style="stroke:#181818;stroke-width:0.5;"/><text fill="#000000" font-family="FG Virgil" font-size="14" font-style="italic" lengthAdjust="spacing" textLength="83" x="206" y="452.6191">«http server»</text><text fill="#000000" font-family="FG Virgil" font-size="14" lengthAdjust="spacing" textLength="93" x="201" y="470.2285">HttpServerAjax</text><polygon fill="#E3E3E3" points="355,53.6094,355,53.8196,364.5833,53.1951,374.1667,53.8027,383.75,54.0091,393.3333,52.896,402.9167,53.5317,412.5,53.1829,422.0833,53.2259,431.6667,53.5412,441.25,52.918,450.8333,54.163,460.4167,52.9791,470,53.6094,469.9748,53.5485,470.4087,53.8888,470.6962,53.8759,471.0694,54.0697,471.4101,54.1853,471.7678,54.3416,471.8227,54.3644,471.9879,54.7257,472.241,55.1234,472.4138,55.4879,472.5627,55.8425,472.5,56.1094,472.5849,56.1094,472.6545,61.4313,472.7341,66.7531,472.2596,72.075,472.7262,77.3969,472.5,82.7188,472.4087,82.6809,472.5179,83.1404,472.0547,83.3627,472.0396,83.7707,472.1426,84.2276,471.7678,84.4865,471.7616,84.4715,471.4276,84.6654,471.1039,84.8837,470.7602,85.054,470.3531,85.0711,470,85.2188,470,85.506,460.4167,84.6463,450.8333,85.5031,441.25,85.7669,431.6667,85.6633,422.0833,85.8318,412.5,84.7357,402.9167,84.5666,393.3333,84.5973,383.75,85.1599,374.1667,85.0222,364.5833,85.9002,355,85.2188,354.9777,85.165,354.6027,84.9667,354.322,84.9962,353.8543,84.5741,353.5196,84.4731,353.2322,84.4865,353.4321,84.5693,353.22,84.1885,353.1655,83.8731,352.6938,83.3848,352.7447,83.113,352.5,82.7188,352.6968,82.7188,352.3425,77.3969,352.468,72.075,352.542,66.7531,352.7173,61.4313,352.5,56.1094,352.4987,56.1088,352.7889,55.8148,352.6223,55.3316,352.7308,54.9623,353.2409,54.7594,353.2322,54.3416,353.1408,54.1208,353.6507,54.3519,353.9657,54.1123,354.2587,53.8198,354.6013,53.6469,355,53.6094" style="stroke:#181818;stroke-width:0.5;"/><text fill="#000000" font-family="FG Virgil" font-size="14" lengthAdjust="spacing" textLength="106" x="359.5" y="75.1426">SessionManager</text><polygon fill="#E3E3E3" points="355,431.0859,355,431.2961,364.5833,430.6716,374.1667,431.2792,383.75,431.4856,393.3333,430.3725,402.9167,431.0082,412.5,430.6594,422.0833,430.7024,431.6667,431.0178,441.25,430.3946,450.8333,431.6396,460.4167,430.4557,470,431.0859,469.9748,431.025,470.4087,431.3654,470.6962,431.3524,471.0694,431.5463,471.4101,431.6619,471.7678,431.8182,471.8227,431.8409,471.9879,432.2022,472.241,432.6,472.4138,432.9644,472.5627,433.319,472.5,433.5859,472.5849,433.5859,472.6545,438.9078,472.7341,444.2297,472.2596,449.5516,472.7262,454.8734,472.5,460.1953,472.4087,460.1575,472.5179,460.617,472.0547,460.8393,472.0396,461.2472,472.1426,461.7041,471.7678,461.9631,471.7616,461.9481,471.4276,462.142,471.1039,462.3603,470.7602,462.5306,470.3531,462.5477,470,462.6953,470,462.9825,460.4167,462.1229,450.8333,462.9797,441.25,463.2435,431.6667,463.1398,422.0833,463.3083,412.5,462.2122,402.9167,462.0431,393.3333,462.0739,383.75,462.6364,374.1667,462.4988,364.5833,463.3767,355,462.6953,354.9777,462.6415,354.6027,462.4432,354.322,462.4727,353.8543,462.0506,353.5196,461.9497,353.2322,461.9631,353.4321,462.0459,353.22,461.6651,353.1655,461.3497,352.6938,460.8614,352.7447,460.5896,352.5,460.1953,352.6968,460.1953,352.3425,454.8734,352.468,449.5516,352.542,444.2297,352.7173,438.9078,352.5,433.5859,352.4987,433.5854,352.7889,433.2914,352.6223,432.8082,352.7308,432.4389,353.2409,432.236,353.2322,431.8182,353.1408,431.5974,353.6507,431.8285,353.9657,431.5889,354.2587,431.2963,354.6013,431.1234,355,431.0859" style="stroke:#181818;stroke-width:0.5;"/><text fill="#000000" font-family="FG Virgil" font-size="14" lengthAdjust="spacing" textLength="106" x="359.5" y="452.6191">SessionManager</text><polygon fill="#E3E3E3" points="485,36,485,36.2102,494.9286,35.5857,504.8571,36.1933,514.7857,36.3997,524.7143,35.2866,534.6429,35.9223,544.5714,35.5735,554.5,35.6165,564.4286,35.9318,574.3571,35.3086,584.2857,36.5536,594.2143,35.3697,604.1429,35.8022,614.0714,36.4319,624,36,623.9891,35.9736,624.3623,36.1675,624.703,36.2831,625.0834,36.4943,625.4447,36.6594,625.7678,36.7322,625.9481,36.8069,626.1209,37.1714,626.2698,37.526,626.2855,37.8254,626.4963,38.2056,626.5,38.5,626.7341,38.5,626.2596,47.3438,626.7262,56.1875,626.4012,65.0313,626.6779,73.875,626.5,82.7188,626.3476,82.6556,626.3325,83.0636,626.4355,83.5205,626.0457,83.7732,625.9466,84.1464,625.7678,84.4865,625.811,84.5908,625.4673,84.7611,625.0602,84.7782,624.7437,85.0143,624.2805,84.896,624,85.2188,624,85.5031,614.0714,85.7669,604.1429,85.6633,594.2143,85.8318,584.2857,84.7357,574.3571,84.5666,564.4286,84.5973,554.5,85.1599,544.5714,85.0222,534.6429,85.9002,524.7143,85.0441,514.7857,84.8757,504.8571,85.447,494.9286,84.5519,485,85.2188,484.9338,85.0589,484.7292,85.2722,484.3485,85.06,484.033,85.0056,483.5447,84.5339,483.2322,84.4865,483.3305,84.5272,483.2676,84.2083,482.7939,83.7191,482.7634,83.4136,482.6852,83.0884,482.5,82.7188,482.7173,82.7188,482.4986,73.875,482.6542,65.0313,482.3154,56.1875,482.2742,47.3438,482.5,38.5,482.6551,38.5642,482.4257,38.055,482.9496,37.8578,483.003,37.4657,483.0033,37.0516,483.2322,36.7322,483.1871,36.6233,483.6443,36.7271,483.9012,36.3472,484.3684,36.4752,484.5759,35.9762,485,36" style="stroke:#181818;stroke-width:0.5;"/><text fill="#000000" font-family="FG Virgil" font-size="14" font-style="italic" lengthAdjust="spacing" textLength="84" x="512.5" y="57.5332">«application»</text><text fill="#000000" font-family="FG Virgil" font-size="14" lengthAdjust="spacing" textLength="130" x="489.5" y="75.1426">GetBoardsController</text><polygon fill="#E3E3E3" points="485,431.0859,485,431.2961,494.9286,430.6716,504.8571,431.2792,514.7857,431.4856,524.7143,430.3725,534.6429,431.0082,544.5714,430.6594,554.5,430.7024,564.4286,431.0178,574.3571,430.3946,584.2857,431.6396,594.2143,430.4557,604.1429,430.8882,614.0714,431.5179,624,431.0859,623.9891,431.0595,624.3623,431.2534,624.703,431.369,625.0834,431.5803,625.4447,431.7454,625.7678,431.8182,625.9481,431.8929,626.1209,432.2573,626.2698,432.6119,626.2855,432.9113,626.4963,433.2915,626.5,433.5859,626.7341,433.5859,626.2596,442.4297,626.7262,451.2734,626.4012,460.1172,626.6779,468.9609,626.5,477.8047,626.3476,477.7415,626.3325,478.1495,626.4355,478.6064,626.0457,478.8591,625.9466,479.2323,625.7678,479.5725,625.811,479.6767,625.4673,479.8471,625.0602,479.8641,624.7437,480.1002,624.2805,479.982,624,480.3047,624,480.5891,614.0714,480.8529,604.1429,480.7492,594.2143,480.9177,584.2857,479.8216,574.3571,479.6525,564.4286,479.6833,554.5,480.2458,544.5714,480.1082,534.6429,480.9861,524.7143,480.13,514.7857,479.9616,504.8571,480.533,494.9286,479.6378,485,480.3047,484.9338,480.1448,484.7292,480.3581,484.3485,480.146,484.033,480.0915,483.5447,479.6198,483.2322,479.5725,483.3305,479.6132,483.2676,479.2942,482.7939,478.8051,482.7634,478.4996,482.6852,478.1743,482.5,477.8047,482.7173,477.8047,482.4986,468.9609,482.6542,460.1172,482.3154,451.2734,482.2742,442.4297,482.5,433.5859,482.6551,433.6502,482.4257,433.1409,482.9496,432.9438,483.003,432.5516,483.0033,432.1375,483.2322,431.8182,483.1871,431.7092,483.6443,431.813,483.9012,431.4331,484.3684,431.5611,484.5759,431.0622,485,431.0859" style="stroke:#181818;stroke-width:0.5;"/><text fill="#000000" font-family="FG Virgil" font-size="14" font-style="italic" lengthAdjust="spacing" textLength="84" x="512.5" y="452.6191">«application»</text><text fill="#000000" font-family="FG Virgil" font-size="14" lengthAdjust="spacing" textLength="130" x="489.5" y="470.2285">GetBoardsController</text><text fill="#000000" font-family="FG Virgil" font-size="14" font-style="italic" lengthAdjust="spacing" textLength="79" x="703" y="65.5332">«repository»</text><text fill="#000000" font-family="FG Virgil" font-size="14" lengthAdjust="spacing" textLength="106" x="689.5" y="83.1426">BoardRepository</text><path d="M727.5,15 L727.5,15 L727.5651,15.067 L729.1716,13.118 L731.1599,11.5616 L733.0238,9.8774 L734.479,7.7727 L736.5,6.25 L736.4952,6.2158 L738.2739,5.8122 L740.0766,5.5812 L741.8958,5.47 L743.6577,4.9456 L745.5,5 L745.5,5 L745.5339,5.2437 L747.2615,4.9725 L749.0879,5.4129 L750.9264,5.9402 L752.6948,5.9622 L754.5,6.25 L754.5211,6.2717 L756.2901,7.9898 L758.1553,9.8069 L759.9741,11.5762 L761.8815,13.4366 L763.5,15 L764.0965,15 L764.1038,20.2 L763.7263,25.4 L763.9121,30.6 L764.1242,35.8 L763.5,41 L763.5,41 L763.2766,40.7702 L761.9102,42.9662 L759.8081,44.4055 L758.2654,46.4201 L756.1466,47.8423 L754.5,49.75 L754.4958,49.7198 L752.7453,50.3265 L750.897,50.2285 L749.1064,50.5464 L747.3207,50.8991 L745.5,51 L745.5,51 L745.5254,51.1832 L743.6998,50.7483 L741.9176,50.6264 L740.065,49.998 L738.3174,50.1252 L736.5,49.75 L736.6698,49.9247 L734.8377,48.1417 L733.0899,46.4453 L730.9503,44.3461 L729.0979,42.5422 L727.5,41 L726.9476,41 L727.4477,35.8 L727.3253,30.6 L728.1057,25.4 L727.3447,20.2 L727.5,15 " fill="#E3E3E3" style="stroke:#181818;stroke-width:1.5;"/><path d="M727.5,15 L727.5,15 L727.5651,15.067 L729.1716,16.618 L731.1599,18.5616 L733.0238,20.3774 L734.479,21.7727 L736.5,23.75 L736.4952,23.7158 L738.2739,23.8122 L740.0766,24.0812 L741.8958,24.47 L743.6577,24.4456 L745.5,25 L745.5,25 L745.5339,25.2437 L747.2615,24.4725 L749.0879,24.4129 L750.9264,24.4402 L752.6948,23.9622 L754.5,23.75 L754.5211,23.7717 L756.2901,21.9898 L758.1553,20.3069 L759.9741,18.5762 L761.8815,16.9366 L763.5,15 " fill="none" style="stroke:#181818;stroke-width:1.5;"/><text fill="#000000" font-family="FG Virgil" font-size="14" font-style="italic" lengthAdjust="spacing" textLength="79" x="703" y="445.6191">«repository»</text><text fill="#000000" font-family="FG Virgil" font-size="14" lengthAdjust="spacing" textLength="106" x="689.5" y="463.2285">BoardRepository</text><path d="M727.5,476.3047 L727.5,476.3047 L727.5651,476.3717 L729.1716,474.4227 L731.1599,472.8663 L733.0238,471.1821 L734.479,469.0774 L736.5,467.5547 L736.4952,467.5205 L738.2739,467.1169 L740.0766,466.8859 L741.8958,466.7747 L743.6577,466.2503 L745.5,466.3047 L745.5,466.3047 L745.5339,466.5484 L747.2615,466.2772 L749.0879,466.7176 L750.9264,467.2448 L752.6948,467.2669 L754.5,467.5547 L754.5211,467.5764 L756.2901,469.2945 L758.1553,471.1116 L759.9741,472.8809 L761.8815,474.7413 L763.5,476.3047 L764.0965,476.3047 L764.1038,481.5047 L763.7263,486.7047 L763.9121,491.9047 L764.1242,497.1047 L763.5,502.3047 L763.5,502.3047 L763.2766,502.0749 L761.9102,504.2709 L759.8081,505.7102 L758.2654,507.7248 L756.1466,509.1469 L754.5,511.0547 L754.4958,511.0245 L752.7453,511.6312 L750.897,511.5332 L749.1064,511.851 L747.3207,512.2038 L745.5,512.3047 L745.5,512.3047 L745.5254,512.4879 L743.6998,512.053 L741.9176,511.9311 L740.065,511.3027 L738.3174,511.4299 L736.5,511.0547 L736.6698,511.2294 L734.8377,509.4463 L733.0899,507.75 L730.9503,505.6507 L729.0979,503.8469 L727.5,502.3047 L726.9476,502.3047 L727.4477,497.1047 L727.3253,491.9047 L728.1057,486.7047 L727.3447,481.5047 L727.5,476.3047 " fill="#E3E3E3" style="stroke:#181818;stroke-width:1.5;"/><path d="M727.5,476.3047 L727.5,476.3047 L727.5651,476.3717 L729.1716,477.9227 L731.1599,479.8663 L733.0238,481.6821 L734.479,483.0774 L736.5,485.0547 L736.4952,485.0205 L738.2739,485.1169 L740.0766,485.3859 L741.8958,485.7747 L743.6577,485.7503 L745.5,486.3047 L745.5,486.3047 L745.5339,486.5484 L747.2615,485.7772 L749.0879,485.7176 L750.9264,485.7448 L752.6948,485.2669 L754.5,485.0547 L754.5211,485.0764 L756.2901,483.2945 L758.1553,481.6116 L759.9741,479.8809 L761.8815,478.2413 L763.5,476.3047 " fill="none" style="stroke:#181818;stroke-width:1.5;"/><polygon fill="#FFFFFF" points="242.5,118.5703,242.5,118.6404,244.5,118.4322,246.5,118.6347,248.5,118.7035,250.5,118.3325,252.5,118.5703,252.4223,118.5703,252.0735,128.4208,252.1165,138.2714,252.4318,148.1219,251.8086,157.9724,253.0536,167.8229,251.8697,177.6734,252.3022,187.524,252.9319,197.3745,252.4142,207.225,252.5682,217.0755,252.4681,226.926,252.6785,236.7766,252.7391,246.6271,253.0857,256.4776,253.1711,266.3281,253.1793,276.1786,252.7546,286.0292,252.9636,295.8797,253.2022,305.7302,251.7788,315.5807,253.1785,325.4313,252.2035,335.2818,253.0338,345.1323,252.005,354.9828,252.4315,364.8333,253.2416,374.6839,252.4513,384.5344,252.6053,394.3849,252.8386,404.2354,252.5,414.0859,252.5,414.2247,250.5,414.0846,248.5,414.1817,246.5,413.8951,244.5,414.1807,242.5,414.0859,243.0482,414.0859,242.9445,404.2354,243.113,394.3849,242.0169,384.5344,241.8478,374.6839,241.8786,364.8333,242.4411,354.9828,242.3035,345.1323,243.1814,335.2818,242.3253,325.4313,242.1569,315.5807,242.7283,305.7302,241.8332,295.8797,241.9809,286.0292,243.149,276.1786,242.9357,266.3281,243.2345,256.4776,242.1782,246.6271,242.8192,236.7766,243.0904,226.926,242.0276,217.0755,242.4041,207.225,242.626,197.3745,243.1518,187.524,242.4958,177.6734,242.9626,167.8229,241.9462,157.9724,241.8227,148.1219,243.0036,138.2714,241.7831,128.4208,242.5,118.5703" style="stroke:#181818;stroke-width:1.0;"/><polygon fill="#FFFFFF" points="407.5,209.625,407.5,209.6951,409.5,209.4869,411.5,209.6894,413.5,209.7582,415.5,209.3872,417.5,209.625,417.4741,209.625,417.3578,215.6953,417.3722,221.7656,417.4773,227.8359,417.2695,233.9063,417.5,239.9766,417.5,240.1611,415.5,239.7665,413.5,239.9106,411.5,240.1205,409.5,239.948,407.5,239.9766,407.5227,239.9766,407.4894,233.9063,407.5595,227.8359,407.5797,221.7656,407.6952,215.6953,407.5,209.625" style="stroke:#181818;stroke-width:1.0;"/><polygon fill="#FFFFFF" points="549.5,281.5039,549.5,281.574,551.5,281.3658,553.5,281.5683,555.5,281.6371,557.5,281.2661,559.5,281.5039,559.4223,281.5039,559.0735,291.727,559.1165,301.95,559.4318,312.173,558.8086,322.3961,560.0536,332.6191,558.8697,342.8422,559.3022,353.0652,559.9319,363.2883,559.4142,373.5113,559.5,383.7344,559.5,383.7571,557.5,383.7237,555.5,383.7939,553.5,383.8141,551.5,383.9296,549.5,383.7344,550.1711,383.7344,550.1793,373.5113,549.7546,363.2883,549.9636,353.0652,550.2022,342.8422,548.7788,332.6191,550.1785,322.3961,549.2035,312.173,550.0338,301.95,549.005,291.727,549.5,281.5039" style="stroke:#181818;stroke-width:1.0;"/><polygon fill="#FFFFFF" points="740.5,323.0313,740.5,323.1013,742.5,322.8931,744.5,323.0957,746.5,323.1645,748.5,322.7935,750.5,323.0313,750.4741,323.0313,750.3578,329.1016,750.3722,335.1719,750.4773,341.2422,750.2695,347.3125,750.5,353.3828,750.5,353.5674,748.5,353.1727,746.5,353.3169,744.5,353.5268,742.5,353.3542,740.5,353.3828,740.5227,353.3828,740.4894,347.3125,740.5595,341.2422,740.5797,335.1719,740.6952,329.1016,740.5,323.0313" style="stroke:#181818;stroke-width:1.0;"/><polygon fill="#181818" points="230.5,114.5703,230.526,114.6354,232.4487,115.2421,234.5239,116.2301,236.5495,117.094,238.4117,117.5495,240.5,118.5703,240.4904,118.5463,238.4472,119.2383,236.4525,120.0516,234.4916,120.9492,232.4144,121.5563,230.5,122.5703,230.6305,122.7008,231.1514,121.6218,232.0534,120.9237,233.0018,120.2721,233.6798,119.3501,234.5,118.5703,234.5161,118.5864,233.6925,117.7628,232.9421,117.0124,232.1564,116.2267,231.438,115.5084,230.5,114.5703" style="stroke:#181818;stroke-width:1.0;"/><path d="M22.5,118.5703 L22.5,118.8506 L32.6905,118.0179 L42.881,118.828 L53.0714,119.1032 L63.2619,117.6191 L73.4524,118.4667 L83.6429,118.0017 L93.8333,118.059 L104.0238,118.4794 L114.2143,117.6485 L124.4048,119.3085 L134.5952,117.7299 L144.7857,118.3066 L154.9762,119.1462 L165.1667,118.4559 L175.3571,118.6613 L185.5476,118.5277 L195.7381,118.8083 L205.9286,118.8892 L216.119,119.3512 L226.3095,119.4651 L236.5,118.5703 " fill="none" style="stroke:#181818;stroke-width:1.0;stroke-dasharray:2.0,2.0;"/><text fill="#000000" font-family="FG Virgil" font-size="13" lengthAdjust="spacing" textLength="186" x="29.5" y="113.7139">Show Boards that I have access</text><polygon fill="#181818" points="400.5,144.9219,400.526,144.9869,402.4487,145.5936,404.5239,146.5817,406.5495,147.4456,408.4117,147.9011,410.5,148.9219,410.4904,148.8978,408.4472,149.5899,406.4525,150.4032,404.4916,151.3008,402.4144,151.9079,400.5,152.9219,400.6305,153.0524,401.1514,151.9733,402.0534,151.2753,403.0018,150.6237,403.6798,149.7017,404.5,148.9219,404.5161,148.938,403.6925,148.1143,402.9421,147.364,402.1564,146.5782,401.438,145.8599,400.5,144.9219" style="stroke:#181818;stroke-width:1.0;"/><path d="M252.5,148.9219 L252.5,149.2021 L262.7667,148.3694 L273.0333,149.1796 L283.3,149.4548 L293.5667,147.9707 L303.8333,148.8183 L314.1,148.3532 L324.3667,148.4105 L334.6333,148.831 L344.9,148 L355.1667,149.6601 L365.4333,148.0815 L375.7,148.6582 L385.9667,149.4978 L396.2333,148.8075 L406.5,148.9219 " fill="none" style="stroke:#181818;stroke-width:1.0;"/><text fill="#000000" font-family="FG Virgil" font-size="13" lengthAdjust="spacing" textLength="44" x="259.5" y="144.0654">create()</text><polygon fill="#181818" points="542.5,175.2734,542.526,175.3385,544.4487,175.9452,546.5239,176.9333,548.5495,177.7971,550.4117,178.2526,552.5,179.2734,552.4904,179.2494,550.4472,179.9414,548.4525,180.7547,546.4916,181.6523,544.4144,182.2595,542.5,183.2734,542.6305,183.4039,543.1514,182.3249,544.0534,181.6268,545.0018,180.9752,545.6798,180.0532,546.5,179.2734,546.5161,179.2895,545.6925,178.4659,544.9421,177.7155,544.1564,176.9298,543.438,176.2115,542.5,175.2734" style="stroke:#181818;stroke-width:1.0;"/><path d="M252.5,179.2734 L252.5,179.5537 L262.3667,178.721 L272.2333,179.5312 L282.1,179.8063 L291.9667,178.3222 L301.8333,179.1698 L311.7,178.7048 L321.5667,178.7621 L331.4333,179.1826 L341.3,178.3516 L351.1667,180.0116 L361.0333,178.4331 L370.9,179.0097 L380.7667,179.8494 L390.6333,179.1591 L400.5,179.3644 L410.3667,179.2308 L420.2333,179.5115 L430.1,179.5923 L439.9667,180.0544 L449.8333,180.1682 L459.7,180.1791 L469.5667,179.6129 L479.4333,179.8916 L489.3,180.2097 L499.1667,178.3119 L509.0333,180.1781 L518.9,178.8781 L528.7667,179.9852 L538.6333,178.6134 L548.5,179.2734 " fill="none" style="stroke:#181818;stroke-width:1.0;"/><text fill="#000000" font-family="FG Virgil" font-size="13" lengthAdjust="spacing" textLength="44" x="259.5" y="174.417">create()</text><polygon fill="#181818" points="395.5,205.625,395.526,205.69,397.4487,206.2968,399.5239,207.2848,401.5495,208.1487,403.4117,208.6042,405.5,209.625,405.4904,209.6009,403.4472,210.293,401.4525,211.1063,399.4916,212.0039,397.4144,212.611,395.5,213.625,395.6305,213.7555,396.1514,212.6764,397.0534,211.9784,398.0018,211.3268,398.6798,210.4048,399.5,209.625,399.5161,209.6411,398.6925,208.8175,397.9421,208.0671,397.1564,207.2814,396.438,206.563,395.5,205.625" style="stroke:#181818;stroke-width:1.0;"/><path d="M252.5,209.625 L252.5,209.9052 L262.4333,209.0726 L272.3667,209.8827 L282.3,210.1579 L292.2333,208.6738 L302.1667,209.5214 L312.1,209.0563 L322.0333,209.1137 L331.9667,209.5341 L341.9,208.7032 L351.8333,210.3632 L361.7667,208.7846 L371.7,209.3613 L381.6333,210.2009 L391.5667,209.5106 L401.5,209.625 " fill="none" style="stroke:#181818;stroke-width:1.0;"/><text fill="#000000" font-family="FG Virgil" font-size="13" lengthAdjust="spacing" textLength="136" x="259.5" y="204.7686">getUserByToken(token)</text><polygon fill="#181818" points="263.5,235.9766,263.526,236.0416,261.4487,236.6483,259.5239,237.6364,257.5495,238.5003,255.4117,238.9558,253.5,239.9766,253.4904,239.9525,255.4472,240.6446,257.4525,241.4579,259.4916,242.3555,261.4144,242.9626,263.5,243.9766,263.6305,244.1071,262.5514,243.028,261.8534,242.3299,261.2018,241.6784,260.2798,240.7563,259.5,239.9766,259.5161,239.9926,260.2925,239.169,261.1421,238.4186,261.9564,237.6329,262.838,236.9146,263.5,235.9766" style="stroke:#181818;stroke-width:1.0;"/><path d="M257.5,239.9766 L257.5,240.2568 L267.7667,239.4241 L278.0333,240.2343 L288.3,240.5095 L298.5667,239.0254 L308.8333,239.8729 L319.1,239.4079 L329.3667,239.4652 L339.6333,239.8857 L349.9,239.0547 L360.1667,240.7148 L370.4333,239.1362 L380.7,239.7129 L390.9667,240.5525 L401.2333,239.8622 L411.5,239.9766 " fill="none" style="stroke:#181818;stroke-width:1.0;"/><text fill="#000000" font-family="FG Virgil" font-size="13" lengthAdjust="spacing" textLength="52" x="269.5" y="235.1201">authUser</text><polygon fill="#181818" points="537.5,277.5039,537.526,277.569,539.4487,278.1757,541.5239,279.1637,543.5495,280.0276,545.4117,280.4831,547.5,281.5039,547.4904,281.4799,545.4472,282.1719,543.4525,282.9852,541.4916,283.8828,539.4144,284.4899,537.5,285.5039,537.6305,285.6344,538.1514,284.5553,539.0534,283.8573,540.0018,283.2057,540.6798,282.2837,541.5,281.5039,541.5161,281.52,540.6925,280.6964,539.9421,279.946,539.1564,279.1603,538.438,278.442,537.5,277.5039" style="stroke:#181818;stroke-width:1.0;"/><path d="M252.5,281.5039 L252.5,281.7841 L262.5345,280.9515 L272.569,281.7616 L282.6034,282.0368 L292.6379,280.5527 L302.6724,281.4003 L312.7069,280.9352 L322.7414,280.9926 L332.7759,281.413 L342.8103,280.5821 L352.8448,282.2421 L362.8793,280.6635 L372.9138,281.2402 L382.9483,282.0798 L392.9828,281.3895 L403.0172,281.5949 L413.0517,281.4613 L423.0862,281.7419 L433.1207,281.8228 L443.1552,282.2848 L453.1897,282.3986 L463.2241,282.4096 L473.2586,281.8434 L483.2931,282.122 L493.3276,282.4402 L503.3621,280.5423 L513.3966,282.4086 L523.431,281.1086 L533.4655,282.2157 L543.5,281.5039 " fill="none" style="stroke:#181818;stroke-width:1.0;"/><text fill="#000000" font-family="FG Virgil" font-size="13" lengthAdjust="spacing" textLength="162" x="259.5" y="276.6475">getBoardsByUser(authUser)</text><path d="M564,252.9766 L564.1868,252.9766 L563.6317,261.3766 L564.1718,269.7766 L564.3553,278.1766 L563.3659,286.5766 L564,294.9766 L564,294.7693 L574.0833,293.8392 L584.1667,293.9539 L594.25,294.7948 L604.3333,293.1329 L614.4167,296.4529 L624.5,293.2958 L634.5833,294.4492 L644.6667,296.1284 L654.75,294.7478 L664.8333,295.1585 L674.9167,294.8914 L685,295.4526 L695.0833,295.6143 L705.1667,296.5384 L715.25,296.766 L725.3333,296.7879 L735.4167,295.6556 L745.5,296.2128 L755.5833,296.8492 L765.6667,293.0534 L775.75,296.7859 L785.8333,294.1859 L795.9167,296.4001 L806,294.9766 L805.56,294.9766 L805.9391,288.5766 L806.6592,282.1766 L805.9567,275.7766 L806.0936,269.3766 L806,262.9766 L806.2128,263.1894 L804.2616,261.2382 L801.9975,258.9741 L800.1805,257.1571 L797.6402,254.6168 L796,252.9766 L796,253.7349 L785.913,254.4384 L775.8261,254.162 L765.7391,254.6113 L755.6522,251.6883 L745.5652,251.2374 L735.4783,251.3195 L725.3913,252.8195 L715.3043,252.4525 L705.2174,254.7937 L695.1304,252.5108 L685.0435,252.0618 L674.9565,253.5853 L664.8696,251.1983 L654.7826,251.5922 L644.6957,254.7071 L634.6087,254.1383 L624.5217,254.9352 L614.4348,252.1184 L604.3478,253.8278 L594.2609,254.551 L584.1739,251.7168 L574.087,252.7209 L564,252.9766 " fill="#FAFAFA" style="stroke:#181818;stroke-width:0.5;"/><path d="M796,252.9766 L796.112,252.9766 L796.5793,254.9766 L795.9963,256.9766 L796.4112,258.9766 L795.5077,260.9766 L796,262.9766 L796,262.3746 L798,263.4242 L800,262.3393 L802,263.429 L804,263.1602 L806,262.9766 L805.8316,262.8082 L803.7776,260.7542 L802.2883,259.2649 L799.8119,256.7884 L798.372,255.3486 L796,252.9766 " fill="#FAFAFA" style="stroke:#181818;stroke-width:0.5;"/><text fill="#000000" font-family="FG Virgil" font-size="13" lengthAdjust="spacing" textLength="221" x="570" y="271.4717">dependency injection was abastracted</text><text fill="#000000" font-family="FG Virgil" font-size="13" lengthAdjust="spacing" textLength="127" x="570" y="287.8232">for diagram readability</text><polygon fill="#181818" points="728.5,319.0313,728.526,319.0963,730.4487,319.703,732.5239,320.6911,734.5495,321.5549,736.4117,322.0105,738.5,323.0313,738.4904,323.0072,736.4472,323.6993,734.4525,324.5126,732.4916,325.4102,730.4144,326.0173,728.5,327.0313,728.6305,327.1617,729.1514,326.0827,730.0534,325.3846,731.0018,324.7331,731.6798,323.811,732.5,323.0313,732.5161,323.0473,731.6925,322.2237,730.9421,321.4733,730.1564,320.6876,729.438,319.9693,728.5,319.0313" style="stroke:#181818;stroke-width:1.0;"/><path d="M559.5,323.0313 L559.5,323.3115 L569.2222,322.4788 L578.9444,323.289 L588.6667,323.5642 L598.3889,322.0801 L608.1111,322.9276 L617.8333,322.4626 L627.5556,322.5199 L637.2778,322.9404 L647,322.1094 L656.7222,323.7694 L666.4444,322.1909 L676.1667,322.7676 L685.8889,323.6072 L695.6111,322.9169 L705.3333,323.1222 L715.0556,322.9887 L724.7778,323.2693 L734.5,323.0313 " fill="none" style="stroke:#181818;stroke-width:1.0;"/><text fill="#000000" font-family="FG Virgil" font-size="13" lengthAdjust="spacing" textLength="162" x="566.5" y="318.1748">getBoardsByUser(authUser)</text><polygon fill="#181818" points="570.5,349.3828,570.526,349.4479,568.4487,350.0546,566.5239,351.0426,564.5495,351.9065,562.4117,352.362,560.5,353.3828,560.4904,353.3588,562.4472,354.0508,564.4525,354.8641,566.4916,355.7617,568.4144,356.3688,570.5,357.3828,570.6305,357.5133,569.5514,356.4343,568.8534,355.7362,568.2018,355.0846,567.2798,354.1626,566.5,353.3828,566.5161,353.3989,567.2925,352.5753,568.1421,351.8249,568.9564,351.0392,569.838,350.3209,570.5,349.3828" style="stroke:#181818;stroke-width:1.0;"/><path d="M564.5,353.3828 L564.5,353.6631 L574.5,352.8304 L584.5,353.6405 L594.5,353.9157 L604.5,352.4316 L614.5,353.2792 L624.5,352.8142 L634.5,352.8715 L644.5,353.2919 L654.5,352.461 L664.5,354.121 L674.5,352.5424 L684.5,353.1191 L694.5,353.9587 L704.5,353.2684 L714.5,353.4738 L724.5,353.3402 L734.5,353.6208 L744.5,353.3828 " fill="none" style="stroke:#181818;stroke-width:1.0;"/><text fill="#000000" font-family="FG Virgil" font-size="13" lengthAdjust="spacing" textLength="39" x="576.5" y="348.5264">boards</text><polygon fill="#181818" points="263.5,379.7344,263.526,379.7994,261.4487,380.4061,259.5239,381.3942,257.5495,382.2581,255.4117,382.7136,253.5,383.7344,253.4904,383.7103,255.4472,384.4024,257.4525,385.2157,259.4916,386.1133,261.4144,386.7204,263.5,387.7344,263.6305,387.8649,262.5514,386.7858,261.8534,386.0878,261.2018,385.4362,260.2798,384.5142,259.5,383.7344,259.5161,383.7505,260.2925,382.9268,261.1421,382.1765,261.9564,381.3907,262.838,380.6724,263.5,379.7344" style="stroke:#181818;stroke-width:1.0;"/><path d="M257.5,383.7344 L257.5,384.0146 L267.3667,383.1819 L277.2333,383.9921 L287.1,384.2673 L296.9667,382.7832 L306.8333,383.6308 L316.7,383.1657 L326.5667,383.223 L336.4333,383.6435 L346.3,382.8125 L356.1667,384.4726 L366.0333,382.894 L375.9,383.4707 L385.7667,384.3103 L395.6333,383.62 L405.5,383.8254 L415.3667,383.6918 L425.2333,383.9724 L435.1,384.0532 L444.9667,384.5153 L454.8333,384.6291 L464.7,384.6401 L474.5667,384.0739 L484.4333,384.3525 L494.3,384.6707 L504.1667,382.7728 L514.0333,384.6391 L523.9,383.339 L533.7667,384.4461 L543.6333,383.0743 L553.5,383.7344 " fill="none" style="stroke:#181818;stroke-width:1.0;"/><text fill="#000000" font-family="FG Virgil" font-size="13" lengthAdjust="spacing" textLength="39" x="269.5" y="378.8779">boards</text><polygon fill="#181818" points="33.5,410.0859,33.526,410.151,31.4487,410.7577,29.5239,411.7458,27.5495,412.6096,25.4117,413.0651,23.5,414.0859,23.4904,414.0619,25.4472,414.7539,27.4525,415.5672,29.4916,416.4648,31.4144,417.072,33.5,418.0859,33.6305,418.2164,32.5514,417.1374,31.8534,416.4393,31.2018,415.7877,30.2798,414.8657,29.5,414.0859,29.5161,414.102,30.2925,413.2784,31.1421,412.528,31.9564,411.7423,32.838,411.024,33.5,410.0859" style="stroke:#181818;stroke-width:1.0;"/><path d="M27.5,414.0859 L27.5,414.3662 L37.4545,413.5335 L47.4091,414.3437 L57.3636,414.6188 L67.3182,413.1347 L77.2727,413.9823 L87.2273,413.5173 L97.1818,413.5746 L107.1364,413.9951 L117.0909,413.1641 L127.0455,414.8241 L137,413.2456 L146.9545,413.8222 L156.9091,414.6619 L166.8636,413.9716 L176.8182,414.1769 L186.7727,414.0433 L196.7273,414.324 L206.6818,414.4048 L216.6364,414.8669 L226.5909,414.9807 L236.5455,414.9916 L246.5,414.0859 " fill="none" style="stroke:#181818;stroke-width:1.0;stroke-dasharray:2.0,2.0;"/><text fill="#000000" font-family="FG Virgil" font-size="13" lengthAdjust="spacing" textLength="196" x="39.5" y="409.2295">displayAllBoardsUserHaveAccess</text><!--MD5=[176831c9d2be4ccbd8254b90de130e5e]
@startuml
'http://plantuml.com/skinparam.html
skinparam handwritten true
skinparam monochrome true
skinparam packageStyle rect
skinparam defaultFontName FG Virgil
skinparam shadowing false

actor User as Actor
participant HttpServerAjax as Server <<http server>>
participant SessionManager as SM
participant GetBoardsController as Controller <<application>>
database BoardRepository as Repository <<repository>>


Actor - -> Server: Show Boards that I have access
activate Server
    Server -> SM: create()
    Server -> Controller: create()


    Server -> SM: getUserByToken(token)
    activate SM
    SM -> Server: authUser
    deactivate SM
        
    Server -> Controller: getBoardsByUser(authUser)
    activate Controller
    note right: dependency injection was abastracted\nfor diagram readability



    Controller -> Repository: getBoardsByUser(authUser)
    activate Repository
    Repository -> Controller: boards
    deactivate Repository

    Controller -> Server: boards
    deactivate Controller

    Server - -> Actor: displayAllBoardsUserHaveAccess

deactivate Server
@enduml

@startuml
skinparam handwritten true
skinparam monochrome true
skinparam packageStyle rect
skinparam defaultFontName FG Virgil
skinparam shadowing false

actor User as Actor
participant HttpServerAjax as Server <<http server>>
participant SessionManager as SM
participant GetBoardsController as Controller <<application>>
database BoardRepository as Repository <<repository>>


Actor - -> Server: Show Boards that I have access
activate Server
    Server -> SM: create()
    Server -> Controller: create()


    Server -> SM: getUserByToken(token)
    activate SM
    SM -> Server: authUser
    deactivate SM
        
    Server -> Controller: getBoardsByUser(authUser)
    activate Controller
    note right: dependency injection was abastracted\nfor diagram readability



    Controller -> Repository: getBoardsByUser(authUser)
    activate Repository
    Repository -> Controller: boards
    deactivate Repository

    Controller -> Server: boards
    deactivate Controller

    Server - -> Actor: displayAllBoardsUserHaveAccess

deactivate Server
@enduml

PlantUML version 1.2022.7(Mon Aug 22 18:01:30 BST 2022)
(GPL source distribution)
Java Runtime: Java(TM) SE Runtime Environment
JVM: Java HotSpot(TM) 64-Bit Server VM
Default Encoding: Cp1252
Language: pt
Country: PT
--></g></svg>