<?xml version="1.0" encoding="us-ascii" standalone="no"?><svg xmlns="http://www.w3.org/2000/svg" xmlns:xlink="http://www.w3.org/1999/xlink" contentStyleType="text/css" height="874px" preserveAspectRatio="none" style="width:1511px;height:874px;background:#FFFFFF;" version="1.1" viewBox="0 0 1511 874" width="1511px" zoomAndPan="magnify"><defs/><g><rect fill="#FFFFFF" height="472.6855" style="stroke:#181818;stroke-width:1.0;" width="10" x="56" y="98.2422"/><rect fill="#FFFFFF" height="31.291" style="stroke:#181818;stroke-width:1.0;" width="10" x="202" y="176.1152"/><rect fill="#FFFFFF" height="213.6973" style="stroke:#181818;stroke-width:1.0;" width="10" x="345" y="238.6973"/><rect fill="#FFFFFF" height="195.7266" style="stroke:#181818;stroke-width:1.0;" width="10" x="470.5" y="570.9277"/><line style="stroke:#181818;stroke-width:0.5;stroke-dasharray:5.0,5.0;" x1="61" x2="61" y1="88.2422" y2="775.6543"/><line style="stroke:#181818;stroke-width:0.5;stroke-dasharray:5.0,5.0;" x1="207" x2="207" y1="88.2422" y2="775.6543"/><line style="stroke:#181818;stroke-width:0.5;stroke-dasharray:5.0,5.0;" x1="350" x2="350" y1="88.2422" y2="775.6543"/><line style="stroke:#181818;stroke-width:0.5;stroke-dasharray:5.0,5.0;" x1="475" x2="475" y1="88.2422" y2="775.6543"/><line style="stroke:#181818;stroke-width:0.5;stroke-dasharray:5.0,5.0;" x1="630.5" x2="630.5" y1="620.0488" y2="775.6543"/><line style="stroke:#181818;stroke-width:0.5;stroke-dasharray:5.0,5.0;" x1="874.5" x2="874.5" y1="682.291" y2="775.6543"/><line style="stroke:#181818;stroke-width:0.5;stroke-dasharray:5.0,5.0;" x1="1046.5" x2="1046.5" y1="744.5332" y2="775.6543"/><line style="stroke:#181818;stroke-width:0.5;stroke-dasharray:5.0,5.0;" x1="1193.5" x2="1193.5" y1="392.4824" y2="775.6543"/><line style="stroke:#181818;stroke-width:0.5;stroke-dasharray:5.0,5.0;" x1="1311.5" x2="1311.5" y1="492.2051" y2="775.6543"/><line style="stroke:#181818;stroke-width:0.5;stroke-dasharray:5.0,5.0;" x1="1441.5" x2="1441.5" y1="535.8262" y2="775.6543"/><rect fill="#E2E2F0" height="32.6211" rx="2.5" ry="2.5" style="stroke:#181818;stroke-width:0.5;" width="112" x="5" y="54.6211"/><text fill="#000000" font-family="sans-serif" font-size="14" lengthAdjust="spacing" textLength="98" x="12" y="76.7285">XEntryPointApp</text><rect fill="#E2E2F0" height="32.6211" rx="2.5" ry="2.5" style="stroke:#181818;stroke-width:0.5;" width="112" x="5" y="774.6543"/><text fill="#000000" font-family="sans-serif" font-size="14" lengthAdjust="spacing" textLength="98" x="12" y="796.7617">XEntryPointApp</text><rect fill="#E2E2F0" height="51.2422" rx="2.5" ry="2.5" style="stroke:#181818;stroke-width:0.5;" width="136" x="139" y="36"/><text fill="#000000" font-family="sans-serif" font-size="14" font-style="italic" lengthAdjust="spacing" textLength="59" x="177.5" y="58.1074">&#171;factory&#187;</text><text fill="#000000" font-family="sans-serif" font-size="14" lengthAdjust="spacing" textLength="122" x="146" y="76.7285">PersistenceContext</text><rect fill="#E2E2F0" height="51.2422" rx="2.5" ry="2.5" style="stroke:#181818;stroke-width:0.5;" width="136" x="139" y="774.6543"/><text fill="#000000" font-family="sans-serif" font-size="14" font-style="italic" lengthAdjust="spacing" textLength="59" x="177.5" y="796.7617">&#171;factory&#187;</text><text fill="#000000" font-family="sans-serif" font-size="14" lengthAdjust="spacing" textLength="122" x="146" y="815.3828">PersistenceContext</text><rect fill="#E2E2F0" height="51.2422" rx="2.5" ry="2.5" style="stroke:#181818;stroke-width:0.5;" width="130" x="285" y="36"/><text fill="#000000" font-family="sans-serif" font-size="14" font-style="italic" lengthAdjust="spacing" textLength="59" x="320.5" y="58.1074">&#171;factory&#187;</text><text fill="#000000" font-family="sans-serif" font-size="14" lengthAdjust="spacing" textLength="116" x="292" y="76.7285">RepositoryFactory</text><rect fill="#E2E2F0" height="51.2422" rx="2.5" ry="2.5" style="stroke:#181818;stroke-width:0.5;" width="130" x="285" y="774.6543"/><text fill="#000000" font-family="sans-serif" font-size="14" font-style="italic" lengthAdjust="spacing" textLength="59" x="320.5" y="796.7617">&#171;factory&#187;</text><text fill="#000000" font-family="sans-serif" font-size="14" lengthAdjust="spacing" textLength="116" x="292" y="815.3828">RepositoryFactory</text><rect fill="#E2E2F0" height="51.2422" rx="2.5" ry="2.5" style="stroke:#181818;stroke-width:0.5;" width="101" x="425" y="36"/><text fill="#000000" font-family="sans-serif" font-size="14" font-style="italic" lengthAdjust="spacing" textLength="34" x="458.5" y="58.1074">&#171;util&#187;</text><text fill="#000000" font-family="sans-serif" font-size="14" lengthAdjust="spacing" textLength="87" x="432" y="76.7285">AuthzRegistry</text><rect fill="#E2E2F0" height="51.2422" rx="2.5" ry="2.5" style="stroke:#181818;stroke-width:0.5;" width="101" x="425" y="774.6543"/><text fill="#000000" font-family="sans-serif" font-size="14" font-style="italic" lengthAdjust="spacing" textLength="34" x="458.5" y="796.7617">&#171;util&#187;</text><text fill="#000000" font-family="sans-serif" font-size="14" lengthAdjust="spacing" textLength="87" x="432" y="815.3828">AuthzRegistry</text><rect fill="#E2E2F0" height="51.2422" rx="2.5" ry="2.5" style="stroke:#181818;stroke-width:0.5;" width="143" x="559.5" y="774.6543"/><text fill="#000000" font-family="sans-serif" font-size="14" font-style="italic" lengthAdjust="spacing" textLength="60" x="601" y="796.7617">&#171;service&#187;</text><text fill="#000000" font-family="sans-serif" font-size="14" lengthAdjust="spacing" textLength="129" x="566.5" y="815.3828">AuthorizationService</text><rect fill="#E2E2F0" height="51.2422" rx="2.5" ry="2.5" style="stroke:#181818;stroke-width:0.5;" width="151" x="799.5" y="774.6543"/><text fill="#000000" font-family="sans-serif" font-size="14" font-style="italic" lengthAdjust="spacing" textLength="60" x="845" y="796.7617">&#171;service&#187;</text><text fill="#000000" font-family="sans-serif" font-size="14" lengthAdjust="spacing" textLength="137" x="806.5" y="815.3828">AuthenticationService</text><rect fill="#E2E2F0" height="51.2422" rx="2.5" ry="2.5" style="stroke:#181818;stroke-width:0.5;" width="172" x="960.5" y="774.6543"/><text fill="#000000" font-family="sans-serif" font-size="14" font-style="italic" lengthAdjust="spacing" textLength="60" x="1016.5" y="796.7617">&#171;service&#187;</text><text fill="#000000" font-family="sans-serif" font-size="14" lengthAdjust="spacing" textLength="158" x="967.5" y="815.3828">UserManagementService</text><text fill="#000000" font-family="sans-serif" font-size="14" font-style="italic" lengthAdjust="spacing" textLength="79" x="1151.5" y="789.7617">&#171;repository&#187;</text><text fill="#000000" font-family="sans-serif" font-size="14" lengthAdjust="spacing" textLength="97" x="1142.5" y="808.3828">UserRepository</text><path d="M1176,821.8965 C1176,811.8965 1194,811.8965 1194,811.8965 C1194,811.8965 1212,811.8965 1212,821.8965 L1212,847.8965 C1212,857.8965 1194,857.8965 1194,857.8965 C1194,857.8965 1176,857.8965 1176,847.8965 L1176,821.8965 " fill="#E2E2F0" style="stroke:#181818;stroke-width:1.5;"/><path d="M1176,821.8965 C1176,831.8965 1194,831.8965 1194,831.8965 C1194,831.8965 1212,831.8965 1212,821.8965 " fill="none" style="stroke:#181818;stroke-width:1.5;"/><rect fill="#E2E2F0" height="32.6211" rx="2.5" ry="2.5" style="stroke:#181818;stroke-width:0.5;" width="112" x="1255.5" y="774.6543"/><text fill="#000000" font-family="sans-serif" font-size="14" lengthAdjust="spacing" textLength="98" x="1262.5" y="796.7617">PasswordPolicy</text><rect fill="#E2E2F0" height="32.6211" rx="2.5" ry="2.5" style="stroke:#181818;stroke-width:0.5;" width="128" x="1377.5" y="774.6543"/><text fill="#000000" font-family="sans-serif" font-size="14" lengthAdjust="spacing" textLength="114" x="1384.5" y="796.7617">PasswordEncoder</text><rect fill="#FFFFFF" height="472.6855" style="stroke:#181818;stroke-width:1.0;" width="10" x="56" y="98.2422"/><rect fill="#FFFFFF" height="31.291" style="stroke:#181818;stroke-width:1.0;" width="10" x="202" y="176.1152"/><rect fill="#FFFFFF" height="213.6973" style="stroke:#181818;stroke-width:1.0;" width="10" x="345" y="238.6973"/><rect fill="#FFFFFF" height="195.7266" style="stroke:#181818;stroke-width:1.0;" width="10" x="470.5" y="570.9277"/><path d="M71,103.2422 L71,147.2422 L288,147.2422 L288,113.2422 L278,103.2422 L71,103.2422 " fill="#FEFFDD" style="stroke:#181818;stroke-width:0.5;"/><path d="M278,103.2422 L278,113.2422 L288,113.2422 L278,103.2422 " fill="#FEFFDD" style="stroke:#181818;stroke-width:0.5;"/><text fill="#000000" font-family="sans-serif" font-size="13" lengthAdjust="spacing" textLength="196" x="77" y="122.2705">This is the main entry point of any</text><text fill="#000000" font-family="sans-serif" font-size="13" lengthAdjust="spacing" textLength="68" x="77" y="139.5615">of our apps.</text><polygon fill="#181818" points="190,172.1152,200,176.1152,190,180.1152,194,176.1152" style="stroke:#181818;stroke-width:1.0;"/><line style="stroke:#181818;stroke-width:1.0;" x1="66" x2="196" y1="176.1152" y2="176.1152"/><text fill="#000000" font-family="sans-serif" font-size="13" font-weight="bold" lengthAdjust="spacing" textLength="7" x="73" y="170.8525">1</text><text fill="#000000" font-family="sans-serif" font-size="13" lengthAdjust="spacing" textLength="75" x="84" y="170.8525">repositories()</text><polygon fill="#181818" points="77,203.4063,67,207.4063,77,211.4063,73,207.4063" style="stroke:#181818;stroke-width:1.0;"/><line style="stroke:#181818;stroke-width:1.0;stroke-dasharray:2.0,2.0;" x1="71" x2="206" y1="207.4063" y2="207.4063"/><text fill="#000000" font-family="sans-serif" font-size="13" font-weight="bold" lengthAdjust="spacing" textLength="7" x="83" y="202.1436">2</text><text fill="#000000" font-family="sans-serif" font-size="13" lengthAdjust="spacing" textLength="101" x="94" y="202.1436">repositoryFactory</text><polygon fill="#181818" points="333,234.6973,343,238.6973,333,242.6973,337,238.6973" style="stroke:#181818;stroke-width:1.0;"/><line style="stroke:#181818;stroke-width:1.0;" x1="66" x2="339" y1="238.6973" y2="238.6973"/><text fill="#000000" font-family="sans-serif" font-size="13" font-weight="bold" lengthAdjust="spacing" textLength="7" x="73" y="233.4346">3</text><text fill="#000000" font-family="sans-serif" font-size="13" lengthAdjust="spacing" textLength="40" x="84" y="233.4346">users()</text><path d="M360,251.6973 L360,330.6973 L552,330.6973 L552,261.6973 L542,251.6973 L360,251.6973 " fill="#FEFFDD" style="stroke:#181818;stroke-width:0.5;"/><path d="M542,251.6973 L542,261.6973 L552,261.6973 L542,251.6973 " fill="#FEFFDD" style="stroke:#181818;stroke-width:0.5;"/><text fill="#000000" font-family="sans-serif" font-size="13" lengthAdjust="spacing" textLength="99" x="366" y="270.7256">Can either create</text><text fill="#000000" font-family="sans-serif" font-size="13" lengthAdjust="spacing" textLength="171" x="366" y="288.0166">JPA or InMemory repositories</text><text fill="#000000" font-family="sans-serif" font-size="13" lengthAdjust="spacing" textLength="131" x="366" y="305.3076">depending on what's in</text><text fill="#000000" font-family="sans-serif" font-size="13" lengthAdjust="spacing" textLength="76" x="366" y="322.5986">the config file</text><polygon fill="#181818" points="1130.5,355.1523,1140.5,359.1523,1130.5,363.1523,1134.5,359.1523" style="stroke:#181818;stroke-width:1.0;"/><line style="stroke:#181818;stroke-width:1.0;stroke-dasharray:2.0,2.0;" x1="355" x2="1136.5" y1="359.1523" y2="359.1523"/><text fill="#000000" font-family="sans-serif" font-size="13" font-weight="bold" lengthAdjust="spacing" textLength="7" x="362" y="353.8896">4</text><text fill="#000000" font-family="sans-serif" font-size="13" lengthAdjust="spacing" textLength="44" x="373" y="353.8896">create()</text><text fill="#000000" font-family="sans-serif" font-size="14" font-style="italic" lengthAdjust="spacing" textLength="79" x="1151.5" y="396.9688">&#171;repository&#187;</text><text fill="#000000" font-family="sans-serif" font-size="14" lengthAdjust="spacing" textLength="97" x="1142.5" y="415.5898">UserRepository</text><path d="M1176,345.8613 C1176,335.8613 1194,335.8613 1194,335.8613 C1194,335.8613 1212,335.8613 1212,345.8613 L1212,371.8613 C1212,381.8613 1194,381.8613 1194,381.8613 C1194,381.8613 1176,381.8613 1176,371.8613 L1176,345.8613 " fill="#E2E2F0" style="stroke:#181818;stroke-width:1.5;"/><path d="M1176,345.8613 C1176,355.8613 1194,355.8613 1194,355.8613 C1194,355.8613 1212,355.8613 1212,345.8613 " fill="none" style="stroke:#181818;stroke-width:1.5;"/><polygon fill="#181818" points="77,448.3945,67,452.3945,77,456.3945,73,452.3945" style="stroke:#181818;stroke-width:1.0;"/><line style="stroke:#181818;stroke-width:1.0;stroke-dasharray:2.0,2.0;" x1="71" x2="349" y1="452.3945" y2="452.3945"/><text fill="#000000" font-family="sans-serif" font-size="13" font-weight="bold" lengthAdjust="spacing" textLength="7" x="83" y="447.1318">5</text><text fill="#000000" font-family="sans-serif" font-size="13" lengthAdjust="spacing" textLength="55" x="94" y="447.1318">userRepo</text><polygon fill="#181818" points="1243.5,479.6855,1253.5,483.6855,1243.5,487.6855,1247.5,483.6855" style="stroke:#181818;stroke-width:1.0;"/><line style="stroke:#181818;stroke-width:1.0;stroke-dasharray:2.0,2.0;" x1="66" x2="1249.5" y1="483.6855" y2="483.6855"/><text fill="#000000" font-family="sans-serif" font-size="13" font-weight="bold" lengthAdjust="spacing" textLength="7" x="73" y="478.4229">6</text><text fill="#000000" font-family="sans-serif" font-size="13" lengthAdjust="spacing" textLength="44" x="84" y="478.4229">create()</text><rect fill="#E2E2F0" height="32.6211" rx="2.5" ry="2.5" style="stroke:#181818;stroke-width:0.5;" width="112" x="1255.5" y="460.3945"/><text fill="#000000" font-family="sans-serif" font-size="14" lengthAdjust="spacing" textLength="98" x="1262.5" y="482.502">PasswordPolicy</text><polygon fill="#181818" points="1365.5,523.3066,1375.5,527.3066,1365.5,531.3066,1369.5,527.3066" style="stroke:#181818;stroke-width:1.0;"/><line style="stroke:#181818;stroke-width:1.0;stroke-dasharray:2.0,2.0;" x1="66" x2="1371.5" y1="527.3066" y2="527.3066"/><text fill="#000000" font-family="sans-serif" font-size="13" font-weight="bold" lengthAdjust="spacing" textLength="7" x="73" y="522.0439">7</text><text fill="#000000" font-family="sans-serif" font-size="13" lengthAdjust="spacing" textLength="44" x="84" y="522.0439">create()</text><rect fill="#E2E2F0" height="32.6211" rx="2.5" ry="2.5" style="stroke:#181818;stroke-width:0.5;" width="128" x="1377.5" y="504.0156"/><text fill="#000000" font-family="sans-serif" font-size="14" lengthAdjust="spacing" textLength="114" x="1384.5" y="526.123">PasswordEncoder</text><polygon fill="#181818" points="458.5,566.9277,468.5,570.9277,458.5,574.9277,462.5,570.9277" style="stroke:#181818;stroke-width:1.0;"/><line style="stroke:#181818;stroke-width:1.0;" x1="61" x2="464.5" y1="570.9277" y2="570.9277"/><text fill="#000000" font-family="sans-serif" font-size="13" font-weight="bold" lengthAdjust="spacing" textLength="7" x="68" y="565.665">8</text><text fill="#000000" font-family="sans-serif" font-size="13" lengthAdjust="spacing" textLength="211" x="79" y="565.665">configure(userRepo, policy, encoder)</text><polygon fill="#181818" points="547.5,598.2188,557.5,602.2188,547.5,606.2188,551.5,602.2188" style="stroke:#181818;stroke-width:1.0;"/><line style="stroke:#181818;stroke-width:1.0;stroke-dasharray:2.0,2.0;" x1="480.5" x2="553.5" y1="602.2188" y2="602.2188"/><text fill="#000000" font-family="sans-serif" font-size="13" font-weight="bold" lengthAdjust="spacing" textLength="7" x="487.5" y="596.9561">9</text><text fill="#000000" font-family="sans-serif" font-size="13" lengthAdjust="spacing" textLength="44" x="498.5" y="596.9561">create()</text><rect fill="#E2E2F0" height="51.2422" rx="2.5" ry="2.5" style="stroke:#181818;stroke-width:0.5;" width="143" x="559.5" y="578.9277"/><text fill="#000000" font-family="sans-serif" font-size="14" font-style="italic" lengthAdjust="spacing" textLength="60" x="601" y="601.0352">&#171;service&#187;</text><text fill="#000000" font-family="sans-serif" font-size="14" lengthAdjust="spacing" textLength="129" x="566.5" y="619.6563">AuthorizationService</text><polygon fill="#181818" points="787.5,660.4609,797.5,664.4609,787.5,668.4609,791.5,664.4609" style="stroke:#181818;stroke-width:1.0;"/><line style="stroke:#181818;stroke-width:1.0;stroke-dasharray:2.0,2.0;" x1="480.5" x2="793.5" y1="664.4609" y2="664.4609"/><text fill="#000000" font-family="sans-serif" font-size="13" font-weight="bold" lengthAdjust="spacing" textLength="14" x="487.5" y="659.1982">10</text><text fill="#000000" font-family="sans-serif" font-size="13" lengthAdjust="spacing" textLength="277" x="505.5" y="659.1982">create(userRepo, authzService, policy, encoder)</text><rect fill="#E2E2F0" height="51.2422" rx="2.5" ry="2.5" style="stroke:#181818;stroke-width:0.5;" width="151" x="799.5" y="641.1699"/><text fill="#000000" font-family="sans-serif" font-size="14" font-style="italic" lengthAdjust="spacing" textLength="60" x="845" y="663.2773">&#171;service&#187;</text><text fill="#000000" font-family="sans-serif" font-size="14" lengthAdjust="spacing" textLength="137" x="806.5" y="681.8984">AuthenticationService</text><polygon fill="#181818" points="948.5,722.7031,958.5,726.7031,948.5,730.7031,952.5,726.7031" style="stroke:#181818;stroke-width:1.0;"/><line style="stroke:#181818;stroke-width:1.0;stroke-dasharray:2.0,2.0;" x1="480.5" x2="954.5" y1="726.7031" y2="726.7031"/><text fill="#000000" font-family="sans-serif" font-size="13" font-weight="bold" lengthAdjust="spacing" textLength="14" x="487.5" y="721.4404">11</text><text fill="#000000" font-family="sans-serif" font-size="13" lengthAdjust="spacing" textLength="195" x="505.5" y="721.4404">create(userRepo, policy, encoder)</text><rect fill="#E2E2F0" height="51.2422" rx="2.5" ry="2.5" style="stroke:#181818;stroke-width:0.5;" width="172" x="960.5" y="703.4121"/><text fill="#000000" font-family="sans-serif" font-size="14" font-style="italic" lengthAdjust="spacing" textLength="60" x="1016.5" y="725.5195">&#171;service&#187;</text><text fill="#000000" font-family="sans-serif" font-size="14" lengthAdjust="spacing" textLength="158" x="967.5" y="744.1406">UserManagementService</text><!--SRC=[TPFBQkim48RtUWhjUg7f0uGI2AM5Sw1WsXxeeXjLdZW3oKX8Sdfv-ZEoB5jsdU15FFD__sX6OzK6G-tn0vmGmYeNKADL5EJR0mNtNHcaiBLMAYyX1YQQ2fn77u0qt1iAy1MYJeSlUNUtKpeOzxtPJ8XdiCPZJ3ocV0GS1_FhEN3RXltFCpHSBa4g1Xphsu271R5n-AC26de1Tq8D0yE8Jw45Ydj4lOITfVvn-4cHQk38S46rAV5oqXEsLa5zA0yTE8uZ4p72UZSaPkKgvVsdSNLb3gWxod8alIqA7qYR6bnMzgz2a0aW7JRx8Csklrl9lzSzUiaFpq8U5L9AIHiN8IeL9Ht_DItRMkjl1L0jeo7l4DyUdXHx9yj4hpRTLgpbq1U2lxmQnPmL8afMB4rC8SxB8cgO4eDxkKBhRf0J-o8zQtmAtYlk5xbr9xM3IBxJtsehZPD_w0cEKLMsy4urM6uUgP66vETUXGkU7Z4MvwSDxR2HEpo0A0l59lDbNrzptLICJ_nBbcUHvUK8ogxoA1WP5sBgFLNqYp0hFmoq_xpMVG-jWyjyX1jUXkX-muVhFAxAGwLh7qUVZ4JljyhMixgpT9aTotQY_WjRE4HfCdvyorQ_OI7-0m00]--></g></svg>