<?xml version="1.0" encoding="us-ascii" standalone="no"?><svg xmlns="http://www.w3.org/2000/svg" xmlns:xlink="http://www.w3.org/1999/xlink" contentStyleType="text/css" height="627px" preserveAspectRatio="none" style="width:853px;height:627px;background:#FFFFFF;" version="1.1" viewBox="0 0 853 627" width="853px" zoomAndPan="magnify"><defs/><g><!--class AddCourseTeacherUI--><g id="elem_AddCourseTeacherUI"><polygon fill="#F1F1F1" points="295,7,295,7.2102,305.1875,6.5857,315.375,7.1933,325.5625,7.3997,335.75,6.2866,345.9375,6.9223,356.125,6.5735,366.3125,6.6165,376.5,6.9318,386.6875,6.3086,396.875,7.5536,407.0625,6.3697,417.25,6.8022,427.4375,7.4319,437.625,6.9142,447.8125,7.0682,458,7,457.9959,6.9902,458.3763,7.2014,458.7376,7.3665,459.1354,7.6197,459.4998,7.7924,459.7678,7.7322,459.977,7.8189,459.9926,8.1183,460.2034,8.4985,460.4234,8.8825,460.1315,9.0545,460.5,9.5,461.1785,9.5,460.2035,20.1004,461.0338,30.7009,460.005,41.3013,460.4315,51.9018,461.2416,62.5022,460.4513,73.1027,460.5,83.7031,460.5324,83.7166,460.4578,84.0999,460.3353,84.4633,460.0595,84.7633,460.0027,85.154,459.7678,85.4709,459.6947,85.2946,459.4505,85.7049,459.1306,85.9326,458.7638,86.0471,458.4318,86.2455,458,86.2031,458,85.72,447.8125,85.5509,437.625,85.5817,427.4375,86.1442,417.25,86.0066,407.0625,86.8845,396.875,86.0284,386.6875,85.8601,376.5,86.4314,366.3125,85.5363,356.125,85.684,345.9375,86.8521,335.75,86.6388,325.5625,86.9376,315.375,85.8813,305.1875,86.5223,295,86.2031,295.0753,86.385,294.5862,85.9112,294.2807,85.8807,293.9554,85.8026,293.6689,85.8181,293.2322,85.4709,293.2309,85.4704,293.2282,85.1763,292.7688,84.6931,292.5843,84.3238,292.8015,84.1209,292.5,83.7031,291.7831,83.7031,293.009,73.1027,292.7066,62.5022,292.2321,51.9018,292.1462,41.3013,292.9588,30.7009,292.2007,20.1004,292.5,9.5,292.6823,9.5755,292.4762,9.0759,292.983,8.8717,293.0885,8.5011,293.1612,8.117,293.2322,7.7322,293.2383,7.7468,293.6785,7.8096,294.0176,7.6283,294.3145,7.345,294.6807,7.229,295,7" style="stroke:#181818;stroke-width:0.5;"/><polygon fill="#C2C2C2" points="318.5608,31.9667,316.9484,34.1698,315.0412,37.3967,312.3136,39.5714,309.4474,40.7606,307.162,40.8638,304.2247,39.3766,301.4532,38.4049,299.3495,36.4322,298.2461,34.1738,297.5917,32.3756,296.9506,30.0267,295.91,28.0055,296.7096,26.032,297.4102,23.8702,300.0393,22.1605,301.889,19.9421,304.1784,19.2055,306.9001,18.5711,310.3904,18.948,312.3021,19.8495,314.5247,20.2582,317.2272,23.027,318.1693,25.95,318.5786,27.9444,318.115,31.2309" style="stroke:#181818;stroke-width:1.0;"/><path d="M310.2656,25.166 Q310.4219,24.9473 310.6094,24.8379 Q310.7969,24.7285 311.0156,24.7285 Q311.3906,24.7285 311.625,24.9941 Q311.8594,25.2441 311.8594,25.8535 L311.8594,27.3066 Q311.8594,27.916 311.625,28.1816 Q311.3906,28.4473 311.0156,28.4473 Q310.6719,28.4473 310.4688,28.2441 Q310.2656,28.0566 310.1563,27.541 Q310.1094,27.1816 309.9219,26.9941 Q309.5938,26.6191 308.9844,26.4004 Q308.375,26.1816 307.75,26.1816 Q306.9844,26.1816 306.3438,26.5098 Q305.7188,26.8379 305.2188,27.5879 Q304.7344,28.3379 304.7344,29.3691 L304.7344,30.4629 Q304.7344,31.6973 305.625,32.5254 Q306.5156,33.3379 308.1094,33.3379 Q309.0469,33.3379 309.7031,33.0879 Q310.0938,32.9316 310.5156,32.4941 Q310.7813,32.2285 310.9219,32.1504 Q311.0781,32.0723 311.2813,32.0723 Q311.6094,32.0723 311.8594,32.3379 Q312.125,32.5879 312.125,32.9316 Q312.125,33.2754 311.7813,33.6816 Q311.2813,34.2598 310.4844,34.5879 Q309.4063,35.041 308.1094,35.041 Q306.5938,35.041 305.3906,34.416 Q304.4063,33.916 303.7188,32.8535 Q303.0313,31.7754 303.0313,30.4941 L303.0313,29.3379 Q303.0313,28.0098 303.6406,26.8691 Q304.2656,25.7129 305.3594,25.1035 Q306.4531,24.4785 307.6875,24.4785 Q308.4219,24.4785 309.0625,24.6504 Q309.7188,24.8066 310.2656,25.166 Z " fill="#000000"/><text fill="#000000" font-family="FG Virgil" font-size="12" font-style="italic" lengthAdjust="spacing" textLength="82" x="348.5" y="24.9492">&#171;presentation&#187;</text><text fill="#000000" font-family="FG Virgil" font-size="14" lengthAdjust="spacing" textLength="136" x="321.5" y="43.0684">AddCourseTeacherUI</text><path d="M293.5,51.582 L293.5,51.8623 L303.2647,51.0296 L313.0294,51.8397 L322.7941,52.1149 L332.5588,50.6308 L342.3235,51.4784 L352.0882,51.0134 L361.8529,51.0707 L371.6176,51.4912 L381.3824,50.6602 L391.1471,52.3202 L400.9118,50.7417 L410.6765,51.3183 L420.4412,52.158 L430.2059,51.4677 L439.9706,51.673 L449.7353,51.5394 L459.5,51.582 " fill="#F1F1F1" style="stroke:#181818;stroke-width:0.5;"/><path d="M293.5,59.582 L293.5,59.8623 L303.2647,59.0296 L313.0294,59.8397 L322.7941,60.1149 L332.5588,58.6308 L342.3235,59.4784 L352.0882,59.0134 L361.8529,59.0707 L371.6176,59.4912 L381.3824,58.6602 L391.1471,60.3202 L400.9118,58.7417 L410.6765,59.3183 L420.4412,60.158 L430.2059,59.4677 L439.9706,59.673 L449.7353,59.5394 L459.5,59.582 " fill="#F1F1F1" style="stroke:#181818;stroke-width:0.5;"/><text fill="#000000" font-family="FG Virgil" font-size="14" lengthAdjust="spacing" textLength="42" x="298.5" y="78.6895">show()</text></g><!--class AddCourseTeacherController--><g id="elem_AddCourseTeacherController"><polygon fill="#F1F1F1" points="219,207,219,207.2102,228.8438,206.5857,238.6875,207.1933,248.5313,207.3997,258.375,206.2866,268.2188,206.9223,278.0625,206.5735,287.9063,206.6165,297.75,206.9318,307.5938,206.3086,317.4375,207.5536,327.2813,206.3697,337.125,206.8022,346.9688,207.4319,356.8125,206.9142,366.6563,207.0682,376.5,206.9681,386.3438,207.1785,396.1875,207.2391,406.0313,207.5857,415.875,207.6711,425.7188,207.6793,435.5625,207.2546,445.4063,207.4636,455.25,207.7022,465.0938,206.2788,474.9375,207.6785,484.7813,206.7035,494.625,207.5338,504.4688,206.505,514.3125,206.9315,524.1563,207.7416,534,207,533.9938,206.985,534.367,207.1789,534.7503,207.3972,535.1138,207.5675,535.4137,207.5846,535.7678,207.7322,535.8562,207.7689,535.7379,208.0128,536.1482,208.4756,536.3759,208.8628,536.4905,209.2032,536.5,209.5,537.113,209.5,536.0169,219.6314,535.8478,229.7628,535.8786,239.8942,536.4411,250.0256,536.3035,260.157,537.1814,270.2884,536.3253,280.4197,536.1569,290.5511,536.7283,300.6825,535.8332,310.8139,536.5,320.9453,536.3401,320.8791,536.5534,321.3816,536.3413,321.708,536.2869,322.0997,535.8151,322.3185,535.7678,322.7131,535.8085,322.8114,535.4895,323.0414,535.0004,322.8605,534.6949,323.1229,534.3696,323.3377,534,323.4453,534,324.0971,524.1563,323.4411,514.3125,323.9079,504.4688,322.8915,494.625,322.7681,484.7813,323.9489,474.9375,322.7284,465.0938,323.9543,455.25,323.6519,445.4063,323.1774,435.5625,323.0915,425.7188,323.9041,415.875,323.146,406.0313,324.0372,396.1875,322.8926,386.3438,324.0627,376.5,323.9296,366.6563,323.6903,356.8125,323.4925,346.9688,324.1719,337.125,324.0589,327.2813,323.6146,317.4375,323.7135,307.5938,323.315,297.75,324.1618,287.9063,323.6002,278.0625,323.6179,268.2188,322.837,258.375,323.0401,248.5313,323.9761,238.6875,323.8751,228.8438,323.4024,219,323.4453,218.9589,323.3461,218.6185,323.2314,218.2054,322.9411,217.9922,323.1337,217.6801,323.0873,217.2322,322.7131,217.3943,322.7802,217.2998,322.4482,216.8972,321.9885,216.8198,321.6635,216.5271,321.2494,216.5,320.9453,216.784,320.9453,216.7468,310.8139,217.0524,300.6825,216.2703,290.5511,216.3656,280.4197,216.9435,270.2884,217.0673,260.157,215.9875,250.0256,216.3061,239.8942,216.6493,229.7628,215.8892,219.6314,216.5,209.5,216.6088,209.5451,216.7259,209.1794,216.7619,208.78,216.9831,208.4575,217.3102,208.1787,217.2322,207.7322,217.1923,207.6359,217.626,207.6828,217.9758,207.5273,218.3077,207.3285,218.6644,207.1898,219,207" style="stroke:#181818;stroke-width:0.5;"/><polygon fill="#C2C2C2" points="290.3108,231.9667,288.6984,234.1698,286.7912,237.3967,284.0636,239.5714,281.1974,240.7606,278.912,240.8638,275.9747,239.3766,273.2032,238.4049,271.0995,236.4322,269.9961,234.1738,269.3417,232.3756,268.7006,230.0267,267.66,228.0055,268.4596,226.032,269.1602,223.8702,271.7893,222.1605,273.639,219.9421,275.9284,219.2055,278.6501,218.5711,282.1404,218.948,284.0521,219.8495,286.2747,220.2582,288.9772,223.027,289.9193,225.95,290.3286,227.9444,289.865,231.2309" style="stroke:#181818;stroke-width:1.0;"/><path d="M282.0156,225.166 Q282.1719,224.9473 282.3594,224.8379 Q282.5469,224.7285 282.7656,224.7285 Q283.1406,224.7285 283.375,224.9941 Q283.6094,225.2441 283.6094,225.8535 L283.6094,227.3066 Q283.6094,227.916 283.375,228.1816 Q283.1406,228.4473 282.7656,228.4473 Q282.4219,228.4473 282.2188,228.2441 Q282.0156,228.0566 281.9063,227.541 Q281.8594,227.1816 281.6719,226.9941 Q281.3438,226.6191 280.7344,226.4004 Q280.125,226.1816 279.5,226.1816 Q278.7344,226.1816 278.0938,226.5098 Q277.4688,226.8379 276.9688,227.5879 Q276.4844,228.3379 276.4844,229.3691 L276.4844,230.4629 Q276.4844,231.6973 277.375,232.5254 Q278.2656,233.3379 279.8594,233.3379 Q280.7969,233.3379 281.4531,233.0879 Q281.8438,232.9316 282.2656,232.4941 Q282.5313,232.2285 282.6719,232.1504 Q282.8281,232.0723 283.0313,232.0723 Q283.3594,232.0723 283.6094,232.3379 Q283.875,232.5879 283.875,232.9316 Q283.875,233.2754 283.5313,233.6816 Q283.0313,234.2598 282.2344,234.5879 Q281.1563,235.041 279.8594,235.041 Q278.3438,235.041 277.1406,234.416 Q276.1563,233.916 275.4688,232.8535 Q274.7813,231.7754 274.7813,230.4941 L274.7813,229.3379 Q274.7813,228.0098 275.3906,226.8691 Q276.0156,225.7129 277.1094,225.1035 Q278.2031,224.4785 279.4375,224.4785 Q280.1719,224.4785 280.8125,224.6504 Q281.4688,224.8066 282.0156,225.166 Z " fill="#000000"/><text fill="#000000" font-family="FG Virgil" font-size="12" font-style="italic" lengthAdjust="spacing" textLength="74" x="355.75" y="224.9492">&#171;application&#187;</text><text fill="#000000" font-family="FG Virgil" font-size="14" lengthAdjust="spacing" textLength="186" x="299.75" y="243.0684">AddCourseTeacherController</text><path d="M217.5,251.582 L217.5,251.8623 L227.4375,251.0296 L237.375,251.8397 L247.3125,252.1149 L257.25,250.6308 L267.1875,251.4784 L277.125,251.0134 L287.0625,251.0707 L297,251.4912 L306.9375,250.6602 L316.875,252.3202 L326.8125,250.7417 L336.75,251.3183 L346.6875,252.158 L356.625,251.4677 L366.5625,251.673 L376.5,251.5394 L386.4375,251.8201 L396.375,251.9009 L406.3125,252.363 L416.25,252.4768 L426.1875,252.4877 L436.125,251.9215 L446.0625,252.2001 L456,252.5183 L465.9375,250.6205 L475.875,252.4867 L485.8125,251.1867 L495.75,252.2938 L505.6875,250.922 L515.625,251.4907 L525.5625,252.5708 L535.5,251.582 " fill="#F1F1F1" style="stroke:#181818;stroke-width:0.5;"/><path d="M217.5,259.582 L217.5,259.8623 L227.4375,259.0296 L237.375,259.8397 L247.3125,260.1149 L257.25,258.6308 L267.1875,259.4784 L277.125,259.0134 L287.0625,259.0707 L297,259.4912 L306.9375,258.6602 L316.875,260.3202 L326.8125,258.7417 L336.75,259.3183 L346.6875,260.158 L356.625,259.4677 L366.5625,259.673 L376.5,259.5394 L386.4375,259.8201 L396.375,259.9009 L406.3125,260.363 L416.25,260.4768 L426.1875,260.4877 L436.125,259.9215 L446.0625,260.2001 L456,260.5183 L465.9375,258.6205 L475.875,260.4867 L485.8125,259.1867 L495.75,260.2938 L505.6875,258.922 L515.625,259.4907 L525.5625,260.5708 L535.5,259.582 " fill="#F1F1F1" style="stroke:#181818;stroke-width:0.5;"/><text fill="#000000" font-family="FG Virgil" font-size="14" lengthAdjust="spacing" textLength="162" x="222.5" y="278.6895">verifyCourse(String code)</text><text fill="#000000" font-family="FG Virgil" font-size="14" lengthAdjust="spacing" textLength="240" x="222.5" y="297.3105">getTeachersAvailable(Course course)</text><text fill="#000000" font-family="FG Virgil" font-size="14" lengthAdjust="spacing" textLength="308" x="222.5" y="315.9316">addTeacherToCourse(User user,Course course)</text></g><!--class CourseManagementService--><g id="elem_CourseManagementService"><polygon fill="#F1F1F1" points="9.5,392.5,9.5,392.7102,19.58,392.0857,29.66,392.6933,39.74,392.8997,49.82,391.7866,59.9,392.4223,69.98,392.0735,80.06,392.1165,90.14,392.4318,100.22,391.8086,110.3,393.0536,120.38,391.8697,130.46,392.3022,140.54,392.9319,150.62,392.4142,160.7,392.5682,170.78,392.4681,180.86,392.6785,190.94,392.7391,201.02,393.0857,211.1,393.1711,221.18,393.1793,231.26,392.7546,241.34,392.9636,251.42,393.2022,261.5,392.5,261.408,392.2779,261.9401,392.8554,262.1693,392.7016,262.6288,393.1037,262.8511,392.9333,263.2678,393.2322,263.2467,393.2235,263.6426,393.6804,263.5457,393.9331,263.7395,394.3063,263.9578,394.6896,264,395,264.4162,395,263.9961,405.6004,264.2872,416.2009,263.4276,426.8013,264.2844,437.4018,264.5482,448.0022,264.4445,458.6027,264,469.2031,264.1888,469.2813,263.7048,469.4951,263.5063,469.827,263.3693,470.1845,263.3961,470.6098,263.2678,470.9709,263.2427,470.9104,263.0011,471.3272,262.5384,471.21,262.1633,471.3046,261.8827,471.627,261.5,471.7031,261.5,471.0363,251.42,471.184,241.34,472.3521,231.26,472.1388,221.18,472.4376,211.1,471.3813,201.02,472.0223,190.94,472.2935,180.86,471.2307,170.78,471.6073,160.7,471.8291,150.62,472.3549,140.54,471.6989,130.46,472.1657,120.38,471.1493,110.3,471.0259,100.22,472.2067,90.14,470.9862,80.06,472.2121,69.98,471.9098,59.9,471.4352,49.82,471.3494,39.74,472.1619,29.66,471.4038,19.58,472.295,9.5,471.7031,9.4295,471.5329,9.2252,471.7468,8.8547,471.5594,8.4706,471.3392,8.0918,471.1319,7.7322,470.9709,7.956,471.0636,7.7747,470.6956,7.4915,470.2854,7.3755,469.9444,7.1063,469.5401,7,469.2031,7.7165,469.2031,7.1549,458.6027,7.1726,448.0022,6.3916,437.4018,6.5948,426.8013,7.5307,416.2009,7.4298,405.6004,7,395,6.9868,394.9945,7.0472,394.6054,7.2255,394.265,7.228,393.8518,7.7135,393.6387,7.7322,393.2322,7.8266,393.46,8.1529,393.2479,8.528,393.1534,8.7755,392.7508,9.1576,392.6733,9.5,392.5" style="stroke:#181818;stroke-width:0.5;"/><polygon fill="#C2C2C2" points="55.5608,417.4667,53.9484,419.6698,52.0412,422.8967,49.3136,425.0714,46.4474,426.2606,44.162,426.3638,41.2247,424.8766,38.4532,423.9049,36.3495,421.9322,35.2461,419.6738,34.5917,417.8756,33.9506,415.5267,32.91,413.5055,33.7096,411.532,34.4102,409.3702,37.0393,407.6605,38.889,405.4421,41.1784,404.7055,43.9001,404.0711,47.3904,404.448,49.3021,405.3495,51.5247,405.7582,54.2272,408.527,55.1693,411.45,55.5786,413.4444,55.115,416.7309" style="stroke:#181818;stroke-width:1.0;"/><path d="M47.2656,410.666 Q47.4219,410.4473 47.6094,410.3379 Q47.7969,410.2285 48.0156,410.2285 Q48.3906,410.2285 48.625,410.4941 Q48.8594,410.7441 48.8594,411.3535 L48.8594,412.8066 Q48.8594,413.416 48.625,413.6816 Q48.3906,413.9473 48.0156,413.9473 Q47.6719,413.9473 47.4688,413.7441 Q47.2656,413.5566 47.1563,413.041 Q47.1094,412.6816 46.9219,412.4941 Q46.5938,412.1191 45.9844,411.9004 Q45.375,411.6816 44.75,411.6816 Q43.9844,411.6816 43.3438,412.0098 Q42.7188,412.3379 42.2188,413.0879 Q41.7344,413.8379 41.7344,414.8691 L41.7344,415.9629 Q41.7344,417.1973 42.625,418.0254 Q43.5156,418.8379 45.1094,418.8379 Q46.0469,418.8379 46.7031,418.5879 Q47.0938,418.4316 47.5156,417.9941 Q47.7813,417.7285 47.9219,417.6504 Q48.0781,417.5723 48.2813,417.5723 Q48.6094,417.5723 48.8594,417.8379 Q49.125,418.0879 49.125,418.4316 Q49.125,418.7754 48.7813,419.1816 Q48.2813,419.7598 47.4844,420.0879 Q46.4063,420.541 45.1094,420.541 Q43.5938,420.541 42.3906,419.916 Q41.4063,419.416 40.7188,418.3535 Q40.0313,417.2754 40.0313,415.9941 L40.0313,414.8379 Q40.0313,413.5098 40.6406,412.3691 Q41.2656,411.2129 42.3594,410.6035 Q43.4531,409.9785 44.6875,409.9785 Q45.4219,409.9785 46.0625,410.1504 Q46.7188,410.3066 47.2656,410.666 Z " fill="#000000"/><text fill="#000000" font-family="FG Virgil" font-size="12" font-style="italic" lengthAdjust="spacing" textLength="53" x="124.5" y="410.4492">&#171;service&#187;</text><text fill="#000000" font-family="FG Virgil" font-size="14" lengthAdjust="spacing" textLength="175" x="63.5" y="428.5684">CourseManagementService</text><path d="M8,437.082 L8,437.3623 L17.8077,436.5296 L27.6154,437.3397 L37.4231,437.6149 L47.2308,436.1308 L57.0385,436.9784 L66.8462,436.5134 L76.6538,436.5707 L86.4615,436.9912 L96.2692,436.1602 L106.0769,437.8202 L115.8846,436.2417 L125.6923,436.8183 L135.5,437.658 L145.3077,436.9677 L155.1154,437.173 L164.9231,437.0394 L174.7308,437.3201 L184.5385,437.4009 L194.3462,437.863 L204.1538,437.9768 L213.9615,437.9877 L223.7692,437.4215 L233.5769,437.7001 L243.3846,438.0183 L253.1923,436.1205 L263,437.082 " fill="#F1F1F1" style="stroke:#181818;stroke-width:0.5;"/><path d="M8,445.082 L8,445.3623 L17.8077,444.5296 L27.6154,445.3397 L37.4231,445.6149 L47.2308,444.1308 L57.0385,444.9784 L66.8462,444.5134 L76.6538,444.5707 L86.4615,444.9912 L96.2692,444.1602 L106.0769,445.8202 L115.8846,444.2417 L125.6923,444.8183 L135.5,445.658 L145.3077,444.9677 L155.1154,445.173 L164.9231,445.0394 L174.7308,445.3201 L184.5385,445.4009 L194.3462,445.863 L204.1538,445.9768 L213.9615,445.9877 L223.7692,445.4215 L233.5769,445.7001 L243.3846,446.0183 L253.1923,444.1205 L263,445.082 " fill="#F1F1F1" style="stroke:#181818;stroke-width:0.5;"/><text fill="#000000" font-family="FG Virgil" font-size="14" lengthAdjust="spacing" textLength="245" x="13" y="464.1895">addTeacher(User user,Course course)</text></g><!--class Course--><g id="elem_Course"><polygon fill="#F1F1F1" points="58,541,58,541.2102,67.6875,540.5857,77.375,541.1933,87.0625,541.3997,96.75,540.2866,106.4375,540.9223,116.125,540.5735,125.8125,540.6165,135.5,540.9318,145.1875,540.3086,154.875,541.5536,164.5625,540.3697,174.25,540.8022,183.9375,541.4319,193.625,540.9142,203.3125,541.0682,213,541,212.9959,540.9902,213.3763,541.2014,213.7376,541.3665,214.1354,541.6197,214.4998,541.7924,214.7678,541.7322,214.977,541.8189,214.9926,542.1183,215.2034,542.4985,215.4234,542.8825,215.1315,543.0545,215.5,543.5,216.1785,543.5,215.2035,554.1004,216.0338,564.7009,215.005,575.3013,215.4315,585.9018,216.2416,596.5022,215.4513,607.1027,215.5,617.7031,215.5324,617.7166,215.4578,618.0999,215.3353,618.4633,215.0595,618.7633,215.0027,619.154,214.7678,619.4709,214.6947,619.2946,214.4505,619.7049,214.1306,619.9326,213.7638,620.0471,213.4318,620.2455,213,620.2031,213,619.72,203.3125,619.5509,193.625,619.5817,183.9375,620.1442,174.25,620.0066,164.5625,620.8845,154.875,620.0284,145.1875,619.8601,135.5,620.4314,125.8125,619.5363,116.125,619.684,106.4375,620.8521,96.75,620.6388,87.0625,620.9376,77.375,619.8813,67.6875,620.5223,58,620.2031,58.0753,620.385,57.5862,619.9112,57.2807,619.8807,56.9554,619.8026,56.6689,619.8181,56.2322,619.4709,56.2309,619.4704,56.2282,619.1763,55.7688,618.6931,55.5843,618.3238,55.8015,618.1209,55.5,617.7031,54.7831,617.7031,56.009,607.1027,55.7066,596.5022,55.2321,585.9018,55.1462,575.3013,55.9588,564.7009,55.2007,554.1004,55.5,543.5,55.6823,543.5755,55.4762,543.0759,55.983,542.8717,56.0885,542.5011,56.1612,542.117,56.2322,541.7322,56.2383,541.7468,56.6785,541.8096,57.0176,541.6283,57.3145,541.345,57.6807,541.229,58,541" style="stroke:#181818;stroke-width:0.5;"/><polygon fill="#C2C2C2" points="118.8108,565.9667,117.1984,568.1698,115.2912,571.3967,112.5636,573.5714,109.6974,574.7606,107.412,574.8638,104.4747,573.3766,101.7032,572.4049,99.5995,570.4322,98.4961,568.1738,97.8417,566.3756,97.2006,564.0267,96.16,562.0055,96.9596,560.032,97.6602,557.8702,100.2893,556.1605,102.139,553.9421,104.4284,553.2055,107.1501,552.5711,110.6404,552.948,112.5521,553.8495,114.7747,554.2582,117.4772,557.027,118.4193,559.95,118.8286,561.9444,118.365,565.2309" style="stroke:#181818;stroke-width:1.0;"/><path d="M110.5156,559.166 Q110.6719,558.9473 110.8594,558.8379 Q111.0469,558.7285 111.2656,558.7285 Q111.6406,558.7285 111.875,558.9941 Q112.1094,559.2441 112.1094,559.8535 L112.1094,561.3066 Q112.1094,561.916 111.875,562.1816 Q111.6406,562.4473 111.2656,562.4473 Q110.9219,562.4473 110.7188,562.2441 Q110.5156,562.0566 110.4063,561.541 Q110.3594,561.1816 110.1719,560.9941 Q109.8438,560.6191 109.2344,560.4004 Q108.625,560.1816 108,560.1816 Q107.2344,560.1816 106.5938,560.5098 Q105.9688,560.8379 105.4688,561.5879 Q104.9844,562.3379 104.9844,563.3691 L104.9844,564.4629 Q104.9844,565.6973 105.875,566.5254 Q106.7656,567.3379 108.3594,567.3379 Q109.2969,567.3379 109.9531,567.0879 Q110.3438,566.9316 110.7656,566.4941 Q111.0313,566.2285 111.1719,566.1504 Q111.3281,566.0723 111.5313,566.0723 Q111.8594,566.0723 112.1094,566.3379 Q112.375,566.5879 112.375,566.9316 Q112.375,567.2754 112.0313,567.6816 Q111.5313,568.2598 110.7344,568.5879 Q109.6563,569.041 108.3594,569.041 Q106.8438,569.041 105.6406,568.416 Q104.6563,567.916 103.9688,566.8535 Q103.2813,565.7754 103.2813,564.4941 L103.2813,563.3379 Q103.2813,562.0098 103.8906,560.8691 Q104.5156,559.7129 105.6094,559.1035 Q106.7031,558.4785 107.9375,558.4785 Q108.6719,558.4785 109.3125,558.6504 Q109.9688,558.8066 110.5156,559.166 Z " fill="#000000"/><text fill="#000000" font-family="FG Virgil" font-size="12" font-style="italic" lengthAdjust="spacing" textLength="51" x="126.25" y="558.9492">&#171;course&#187;</text><text fill="#000000" font-family="FG Virgil" font-size="14" lengthAdjust="spacing" textLength="46" x="128.75" y="577.0684">Course</text><path d="M56.5,585.582 L56.5,585.8623 L66.375,585.0296 L76.25,585.8397 L86.125,586.1149 L96,584.6308 L105.875,585.4784 L115.75,585.0134 L125.625,585.0707 L135.5,585.4912 L145.375,584.6602 L155.25,586.3202 L165.125,584.7417 L175,585.3183 L184.875,586.158 L194.75,585.4677 L204.625,585.673 L214.5,585.582 " fill="#F1F1F1" style="stroke:#181818;stroke-width:0.5;"/><path d="M56.5,593.582 L56.5,593.8623 L66.375,593.0296 L76.25,593.8397 L86.125,594.1149 L96,592.6308 L105.875,593.4784 L115.75,593.0134 L125.625,593.0707 L135.5,593.4912 L145.375,592.6602 L155.25,594.3202 L165.125,592.7417 L175,593.3183 L184.875,594.158 L194.75,593.4677 L204.625,593.673 L214.5,593.582 " fill="#F1F1F1" style="stroke:#181818;stroke-width:0.5;"/><text fill="#000000" font-family="FG Virgil" font-size="14" lengthAdjust="spacing" textLength="148" x="61.5" y="612.6895">addTeacher(User user)</text></g><!--class PersistenceContext--><g id="elem_PersistenceContext"><polygon fill="#F1F1F1" points="302,392.5,302,392.7102,311.9333,392.0857,321.8667,392.6933,331.8,392.8997,341.7333,391.7866,351.6667,392.4223,361.6,392.0735,371.5333,392.1165,381.4667,392.4318,391.4,391.8086,401.3333,393.0536,411.2667,391.8697,421.2,392.3022,431.1333,392.9319,441.0667,392.4142,451,392.5,451.0087,392.521,451.3495,392.6366,451.7299,392.8479,452.0912,393.013,452.4889,393.2662,452.7678,393.2322,452.9744,393.3178,453.1234,393.6724,453.1391,393.9718,453.3499,394.352,453.5698,394.736,453.5,395,452.7788,395,454.1785,405.6004,453.2035,416.2009,454.0338,426.8013,453.005,437.4018,453.4315,448.0022,454.2416,458.6027,453.5,469.2031,453.485,469.1969,453.386,469.5701,453.3114,469.9534,453.1888,470.3169,452.913,470.6168,452.7678,470.9709,452.8044,471.0593,452.3412,470.9411,452.0969,471.3514,451.777,471.5791,451.4103,471.6936,451,471.7031,451,472.3161,441.0667,471.22,431.1333,471.0509,421.2,471.0817,411.2667,471.6442,401.3333,471.5066,391.4,472.3845,381.4667,471.5284,371.5333,471.3601,361.6,471.9314,351.6667,471.0363,341.7333,471.184,331.8,472.3521,321.8667,472.1388,311.9333,472.4376,302,471.7031,301.959,471.604,301.6872,471.655,301.3682,471.5921,300.8791,471.1183,300.5736,471.0878,300.2322,470.9709,300.271,470.987,300.2865,470.7005,299.938,470.2633,299.9353,469.9692,299.4759,469.486,299.5,469.2031,298.8227,469.2031,300.0036,458.6027,298.7831,448.0022,300.009,437.4018,299.7066,426.8013,299.2321,416.2009,299.1462,405.6004,299.5,395,299.6413,395.0585,299.5543,394.6083,299.9752,394.3684,299.7691,393.8688,300.2759,393.6645,300.2322,393.2322,300.294,393.3814,300.617,393.1612,300.9454,392.9539,301.3856,393.0167,301.7247,392.8354,302,392.5" style="stroke:#181818;stroke-width:0.5;"/><polygon fill="#C2C2C2" points="325.5608,417.4667,323.9484,419.6698,322.0412,422.8967,319.3136,425.0714,316.4474,426.2606,314.162,426.3638,311.2247,424.8766,308.4532,423.9049,306.3495,421.9322,305.2461,419.6738,304.5917,417.8756,303.9506,415.5267,302.91,413.5055,303.7096,411.532,304.4102,409.3702,307.0393,407.6605,308.889,405.4421,311.1784,404.7055,313.9001,404.0711,317.3904,404.448,319.3021,405.3495,321.5247,405.7582,324.2272,408.527,325.1693,411.45,325.5786,413.4444,325.115,416.7309" style="stroke:#181818;stroke-width:1.0;"/><path d="M317.2656,410.666 Q317.4219,410.4473 317.6094,410.3379 Q317.7969,410.2285 318.0156,410.2285 Q318.3906,410.2285 318.625,410.4941 Q318.8594,410.7441 318.8594,411.3535 L318.8594,412.8066 Q318.8594,413.416 318.625,413.6816 Q318.3906,413.9473 318.0156,413.9473 Q317.6719,413.9473 317.4688,413.7441 Q317.2656,413.5566 317.1563,413.041 Q317.1094,412.6816 316.9219,412.4941 Q316.5938,412.1191 315.9844,411.9004 Q315.375,411.6816 314.75,411.6816 Q313.9844,411.6816 313.3438,412.0098 Q312.7188,412.3379 312.2188,413.0879 Q311.7344,413.8379 311.7344,414.8691 L311.7344,415.9629 Q311.7344,417.1973 312.625,418.0254 Q313.5156,418.8379 315.1094,418.8379 Q316.0469,418.8379 316.7031,418.5879 Q317.0938,418.4316 317.5156,417.9941 Q317.7813,417.7285 317.9219,417.6504 Q318.0781,417.5723 318.2813,417.5723 Q318.6094,417.5723 318.8594,417.8379 Q319.125,418.0879 319.125,418.4316 Q319.125,418.7754 318.7813,419.1816 Q318.2813,419.7598 317.4844,420.0879 Q316.4063,420.541 315.1094,420.541 Q313.5938,420.541 312.3906,419.916 Q311.4063,419.416 310.7188,418.3535 Q310.0313,417.2754 310.0313,415.9941 L310.0313,414.8379 Q310.0313,413.5098 310.6406,412.3691 Q311.2656,411.2129 312.3594,410.6035 Q313.4531,409.9785 314.6875,409.9785 Q315.4219,409.9785 316.0625,410.1504 Q316.7188,410.3066 317.2656,410.666 Z " fill="#000000"/><text fill="#000000" font-family="FG Virgil" font-size="12" font-style="italic" lengthAdjust="spacing" textLength="77" x="351" y="410.4492">&#171;persistence&#187;</text><text fill="#000000" font-family="FG Virgil" font-size="14" lengthAdjust="spacing" textLength="122" x="328.5" y="428.5684">PersistenceContext</text><path d="M300.5,437.082 L300.5,437.3623 L310.6333,436.5296 L320.7667,437.3397 L330.9,437.6149 L341.0333,436.1308 L351.1667,436.9784 L361.3,436.5134 L371.4333,436.5707 L381.5667,436.9912 L391.7,436.1602 L401.8333,437.8202 L411.9667,436.2417 L422.1,436.8183 L432.2333,437.658 L442.3667,436.9677 L452.5,437.082 " fill="#F1F1F1" style="stroke:#181818;stroke-width:0.5;"/><path d="M300.5,445.082 L300.5,445.3623 L310.6333,444.5296 L320.7667,445.3397 L330.9,445.6149 L341.0333,444.1308 L351.1667,444.9784 L361.3,444.5134 L371.4333,444.5707 L381.5667,444.9912 L391.7,444.1602 L401.8333,445.8202 L411.9667,444.2417 L422.1,444.8183 L432.2333,445.658 L442.3667,444.9677 L452.5,445.082 " fill="#F1F1F1" style="stroke:#181818;stroke-width:0.5;"/><text fill="#000000" font-family="FG Virgil" font-size="14" lengthAdjust="spacing" textLength="84" x="305.5" y="464.1895">repositories()</text></g><!--class RepositoryFactory--><g id="elem_RepositoryFactory"><polygon fill="#F1F1F1" points="491,383,491,383.2102,501.2143,382.5857,511.4286,383.1933,521.6429,383.3997,531.8571,382.2866,542.0714,382.9223,552.2857,382.5735,562.5,382.6165,572.7143,382.9318,582.9286,382.3086,593.1429,383.5536,603.3571,382.3697,613.5714,382.8022,623.7857,383.4319,634,383,633.9891,382.9736,634.3623,383.1675,634.703,383.2831,635.0834,383.4943,635.4447,383.6594,635.7678,383.7322,635.9481,383.8069,636.1209,384.1714,636.2698,384.526,636.2855,384.8254,636.4963,385.2056,636.5,385.5,637.2022,385.5,635.7788,395.8138,637.1785,406.1276,636.2035,416.4414,637.0338,426.7552,636.005,437.069,636.4315,447.3828,637.2416,457.6966,636.4513,468.0104,636.5,478.3242,636.5324,478.3377,636.4578,478.721,636.3353,479.0844,636.0595,479.3844,636.0027,479.7751,635.7678,480.092,635.6947,479.9157,635.4505,480.326,635.1306,480.5537,634.7638,480.6682,634.4318,480.8666,634,480.8242,634,480.3411,623.7857,480.172,613.5714,480.2028,603.3571,480.7653,593.1429,480.6277,582.9286,481.5056,572.7143,480.6495,562.5,480.4812,552.2857,481.0525,542.0714,480.1574,531.8571,480.3051,521.6429,481.4732,511.4286,481.2599,501.2143,481.5587,491,480.8242,490.959,480.7251,490.6872,480.7761,490.3682,480.7132,489.8791,480.2394,489.5736,480.2089,489.2322,480.092,489.271,480.1081,489.2865,479.8216,488.938,479.3843,488.9353,479.0903,488.4759,478.6071,488.5,478.3242,487.8227,478.3242,489.0036,468.0104,487.7831,457.6966,489.009,447.3828,488.7066,437.069,488.2321,426.7552,488.1462,416.4414,488.9588,406.1276,488.2007,395.8138,488.5,385.5,488.6823,385.5755,488.4762,385.0759,488.983,384.8717,489.0885,384.5011,489.1612,384.117,489.2322,383.7322,489.2383,383.7468,489.6785,383.8096,490.0176,383.6283,490.3145,383.345,490.6807,383.229,491,383" style="stroke:#181818;stroke-width:0.5;"/><polygon fill="#C2C2C2" points="514.5608,407.9667,512.9484,410.1698,511.0412,413.3967,508.3136,415.5714,505.4474,416.7606,503.162,416.8638,500.2247,415.3766,497.4532,414.4049,495.3495,412.4322,494.2461,410.1738,493.5917,408.3756,492.9506,406.0267,491.91,404.0055,492.7096,402.032,493.4102,399.8702,496.0393,398.1605,497.889,395.9421,500.1784,395.2055,502.9001,394.5711,506.3904,394.948,508.3021,395.8495,510.5247,396.2582,513.2272,399.027,514.1693,401.95,514.5786,403.9444,514.115,407.2309" style="stroke:#181818;stroke-width:1.0;"/><path d="M506.2656,401.166 Q506.4219,400.9473 506.6094,400.8379 Q506.7969,400.7285 507.0156,400.7285 Q507.3906,400.7285 507.625,400.9941 Q507.8594,401.2441 507.8594,401.8535 L507.8594,403.3066 Q507.8594,403.916 507.625,404.1816 Q507.3906,404.4473 507.0156,404.4473 Q506.6719,404.4473 506.4688,404.2441 Q506.2656,404.0566 506.1563,403.541 Q506.1094,403.1816 505.9219,402.9941 Q505.5938,402.6191 504.9844,402.4004 Q504.375,402.1816 503.75,402.1816 Q502.9844,402.1816 502.3438,402.5098 Q501.7188,402.8379 501.2188,403.5879 Q500.7344,404.3379 500.7344,405.3691 L500.7344,406.4629 Q500.7344,407.6973 501.625,408.5254 Q502.5156,409.3379 504.1094,409.3379 Q505.0469,409.3379 505.7031,409.0879 Q506.0938,408.9316 506.5156,408.4941 Q506.7813,408.2285 506.9219,408.1504 Q507.0781,408.0723 507.2813,408.0723 Q507.6094,408.0723 507.8594,408.3379 Q508.125,408.5879 508.125,408.9316 Q508.125,409.2754 507.7813,409.6816 Q507.2813,410.2598 506.4844,410.5879 Q505.4063,411.041 504.1094,411.041 Q502.5938,411.041 501.3906,410.416 Q500.4063,409.916 499.7188,408.8535 Q499.0313,407.7754 499.0313,406.4941 L499.0313,405.3379 Q499.0313,404.0098 499.6406,402.8691 Q500.2656,401.7129 501.3594,401.1035 Q502.4531,400.4785 503.6875,400.4785 Q504.4219,400.4785 505.0625,400.6504 Q505.7188,400.8066 506.2656,401.166 Z " fill="#000000"/><text fill="#000000" font-family="FG Virgil" font-size="12" font-style="italic" lengthAdjust="spacing" textLength="50" x="550.5" y="400.9492">&#171;factory&#187;</text><text fill="#000000" font-family="FG Virgil" font-size="14" lengthAdjust="spacing" textLength="116" x="517.5" y="419.0684">RepositoryFactory</text><path d="M489.5,427.582 L489.5,427.8623 L499.2333,427.0296 L508.9667,427.8397 L518.7,428.1149 L528.4333,426.6308 L538.1667,427.4784 L547.9,427.0134 L557.6333,427.0707 L567.3667,427.4912 L577.1,426.6602 L586.8333,428.3202 L596.5667,426.7417 L606.3,427.3183 L616.0333,428.158 L625.7667,427.4677 L635.5,427.582 " fill="#F1F1F1" style="stroke:#181818;stroke-width:0.5;"/><path d="M489.5,435.582 L489.5,435.8623 L499.2333,435.0296 L508.9667,435.8397 L518.7,436.1149 L528.4333,434.6308 L538.1667,435.4784 L547.9,435.0134 L557.6333,435.0707 L567.3667,435.4912 L577.1,434.6602 L586.8333,436.3202 L596.5667,434.7417 L606.3,435.3183 L616.0333,436.158 L625.7667,435.4677 L635.5,435.582 " fill="#F1F1F1" style="stroke:#181818;stroke-width:0.5;"/><text fill="#000000" font-family="FG Virgil" font-size="14" lengthAdjust="spacing" textLength="45" x="494.5" y="454.6895">users()</text><text fill="#000000" font-family="FG Virgil" font-size="14" lengthAdjust="spacing" textLength="60" x="494.5" y="473.3105">courses()</text></g><!--class CourseRepository--><g id="elem_CourseRepository"><polygon fill="#F1F1F1" points="356,541,356,541.2102,365.7619,540.5857,375.5238,541.1933,385.2857,541.3997,395.0476,540.2866,404.8095,540.9223,414.5714,540.5735,424.3333,540.6165,434.0952,540.9318,443.8571,540.3086,453.619,541.5536,463.381,540.3697,473.1429,540.8022,482.9048,541.4319,492.6667,540.9142,502.4286,541.0682,512.1905,540.9681,521.9524,541.1785,531.7143,541.2391,541.4762,541.5857,551.2381,541.6711,561,541,561.0866,541.2092,561.386,541.2249,561.7662,541.4357,562.1502,541.6556,562.3222,541.3637,562.7678,541.7322,562.9767,541.8188,562.8229,542.048,563.2251,542.5074,563.0547,542.7297,563.3325,543.1377,563.5,543.5,564.2416,543.5,563.4513,554.1004,563.6053,564.7009,563.8386,575.3013,563.9162,585.9018,563.4961,596.5022,563.7872,607.1027,563.5,617.7031,563.3237,617.6301,563.4411,618.093,563.3759,618.4802,563.1976,618.8205,563.103,619.1955,562.7678,619.4709,562.7061,619.3221,562.331,619.4165,561.9814,619.5724,561.6996,619.8921,561.3285,619.9962,561,620.2031,561,620.8845,551.2381,620.0284,541.4762,619.8601,531.7143,620.4314,521.9524,619.5363,512.1905,619.684,502.4286,620.8521,492.6667,620.6388,482.9048,620.9376,473.1429,619.8813,463.381,620.5223,453.619,620.7935,443.8571,619.7307,434.0952,620.1073,424.3333,620.3291,414.5714,620.8549,404.8095,620.1989,395.0476,620.6657,385.2857,619.6493,375.5238,619.5259,365.7619,620.7067,356,620.2031,355.9085,619.9823,355.7114,620.2134,355.3193,619.9739,354.9052,619.6813,354.5407,619.5084,354.2322,619.4709,354.3735,619.5294,353.9936,619.0792,354.1216,618.8393,353.6227,618.3397,353.8366,618.1354,353.5,617.7031,353.9843,617.7031,353.745,607.1027,353.5472,596.5022,354.2266,585.9018,354.1136,575.3013,353.6693,564.7009,353.7682,554.1004,353.5,543.5,353.4599,543.4834,353.8671,543.2378,353.8406,542.8126,353.9925,542.4614,353.8984,542.0082,354.2322,541.7322,354.1805,541.6074,354.6535,541.7492,354.9942,541.5717,355.2874,541.2797,355.6054,541.0472,356,541" style="stroke:#181818;stroke-width:0.5;"/><polygon fill="#C2C2C2" points="408.3608,565.9667,406.7484,568.1698,404.8412,571.3967,402.1136,573.5714,399.2474,574.7606,396.962,574.8638,394.0247,573.3766,391.2532,572.4049,389.1495,570.4322,388.0461,568.1738,387.3917,566.3756,386.7506,564.0267,385.71,562.0055,386.5096,560.032,387.2102,557.8702,389.8393,556.1605,391.689,553.9421,393.9784,553.2055,396.7001,552.5711,400.1904,552.948,402.1021,553.8495,404.3247,554.2582,407.0272,557.027,407.9693,559.95,408.3786,561.9444,407.915,565.2309" style="stroke:#181818;stroke-width:1.0;"/><path d="M400.0656,559.166 Q400.2219,558.9473 400.4094,558.8379 Q400.5969,558.7285 400.8156,558.7285 Q401.1906,558.7285 401.425,558.9941 Q401.6594,559.2441 401.6594,559.8535 L401.6594,561.3066 Q401.6594,561.916 401.425,562.1816 Q401.1906,562.4473 400.8156,562.4473 Q400.4719,562.4473 400.2688,562.2441 Q400.0656,562.0566 399.9563,561.541 Q399.9094,561.1816 399.7219,560.9941 Q399.3938,560.6191 398.7844,560.4004 Q398.175,560.1816 397.55,560.1816 Q396.7844,560.1816 396.1438,560.5098 Q395.5188,560.8379 395.0188,561.5879 Q394.5344,562.3379 394.5344,563.3691 L394.5344,564.4629 Q394.5344,565.6973 395.425,566.5254 Q396.3156,567.3379 397.9094,567.3379 Q398.8469,567.3379 399.5031,567.0879 Q399.8938,566.9316 400.3156,566.4941 Q400.5813,566.2285 400.7219,566.1504 Q400.8781,566.0723 401.0813,566.0723 Q401.4094,566.0723 401.6594,566.3379 Q401.925,566.5879 401.925,566.9316 Q401.925,567.2754 401.5813,567.6816 Q401.0813,568.2598 400.2844,568.5879 Q399.2063,569.041 397.9094,569.041 Q396.3938,569.041 395.1906,568.416 Q394.2063,567.916 393.5188,566.8535 Q392.8313,565.7754 392.8313,564.4941 L392.8313,563.3379 Q392.8313,562.0098 393.4406,560.8691 Q394.0656,559.7129 395.1594,559.1035 Q396.2531,558.4785 397.4875,558.4785 Q398.2219,558.4785 398.8625,558.6504 Q399.5188,558.8066 400.0656,559.166 Z " fill="#000000"/><text fill="#000000" font-family="FG Virgil" font-size="12" font-style="italic" lengthAdjust="spacing" textLength="68" x="440.7" y="558.9492">&#171;repository&#187;</text><text fill="#000000" font-family="FG Virgil" font-size="14" lengthAdjust="spacing" textLength="114" x="417.7" y="577.0684">CourseRepository</text><path d="M354.5,585.582 L354.5,585.8623 L364.4048,585.0296 L374.3095,585.8397 L384.2143,586.1149 L394.119,584.6308 L404.0238,585.4784 L413.9286,585.0134 L423.8333,585.0707 L433.7381,585.4912 L443.6429,584.6602 L453.5476,586.3202 L463.4524,584.7417 L473.3571,585.3183 L483.2619,586.158 L493.1667,585.4677 L503.0714,585.673 L512.9762,585.5394 L522.881,585.8201 L532.7857,585.9009 L542.6905,586.363 L552.5952,586.4768 L562.5,585.582 " fill="#F1F1F1" style="stroke:#181818;stroke-width:0.5;"/><path d="M354.5,593.582 L354.5,593.8623 L364.4048,593.0296 L374.3095,593.8397 L384.2143,594.1149 L394.119,592.6308 L404.0238,593.4784 L413.9286,593.0134 L423.8333,593.0707 L433.7381,593.4912 L443.6429,592.6602 L453.5476,594.3202 L463.4524,592.7417 L473.3571,593.3183 L483.2619,594.158 L493.1667,593.4677 L503.0714,593.673 L512.9762,593.5394 L522.881,593.8201 L532.7857,593.9009 L542.6905,594.363 L552.5952,594.4768 L562.5,593.582 " fill="#F1F1F1" style="stroke:#181818;stroke-width:0.5;"/><text fill="#000000" font-family="FG Virgil" font-size="14" lengthAdjust="spacing" textLength="198" x="359.5" y="612.6895">findByCode(CourseCode code)</text></g><!--class UserRepository--><g id="elem_UserRepository"><polygon fill="#F1F1F1" points="601.5,541,601.5,541.2102,611.5833,540.5857,621.6667,541.1933,631.75,541.3997,641.8333,540.2866,651.9167,540.9223,662,540.5735,672.0833,540.6165,682.1667,540.9318,692.25,540.3086,702.3333,541.5536,712.4167,540.3697,722.5,540.8022,732.5833,541.4319,742.6667,540.9142,752.75,541.0682,762.8333,540.9681,772.9167,541.1785,783,541.2391,793.0833,541.5857,803.1667,541.6711,813.25,541.6793,823.3333,541.2546,833.4167,541.4636,843.5,541,843.5896,541.2163,843.7616,540.9244,844.2937,541.5018,844.5228,541.348,844.9823,541.7502,845.2678,541.7322,845.1153,541.6691,845.3931,542.077,845.789,542.5339,845.6921,542.7867,845.886,543.1599,846,543.5,846.3386,543.5,846.4162,554.1004,845.9961,564.7009,846.2872,575.3013,845.4276,585.9018,846.2844,596.5022,846.5482,607.1027,846,617.7031,846.1369,617.7598,846.0423,618.1349,845.5583,618.3486,845.3598,618.6806,845.2228,619.0381,845.2678,619.4709,845.2603,619.4528,844.8891,619.5568,844.6476,619.9736,844.1848,619.8564,843.8098,619.951,843.5,620.2031,843.5,620.4314,833.4167,619.5363,823.3333,619.684,813.25,620.8521,803.1667,620.6388,793.0833,620.9376,783,619.8813,772.9167,620.5223,762.8333,620.7935,752.75,619.7307,742.6667,620.1073,732.5833,620.3291,722.5,620.8549,712.4167,620.1989,702.3333,620.6657,692.25,619.6493,682.1667,619.5259,672.0833,620.7067,662,619.4862,651.9167,620.7121,641.8333,620.4098,631.75,619.9352,621.6667,619.8494,611.5833,620.6619,601.5,620.2031,601.4618,620.1109,601.2219,620.2389,600.7224,619.74,600.5181,619.9539,600.1476,619.7665,599.7322,619.4709,599.8077,619.5021,599.6003,619.1234,599.6631,618.8565,599.4819,618.4885,599.1986,618.0783,599,617.7031,599.2682,617.7031,598.8697,607.1027,599.7165,596.5022,599.1549,585.9018,599.1726,575.3013,598.3916,564.7009,598.5948,554.1004,599,543.5,599.1634,543.5677,599.2788,543.2013,599.2797,542.7874,599.3401,542.3982,599.5184,542.0579,599.7322,541.7322,599.6447,541.5209,600.1387,541.7135,600.5337,541.6671,600.86,541.455,601.2351,541.3605,601.5,541" style="stroke:#181818;stroke-width:0.5;"/><polygon fill="#C2C2C2" points="680.8108,565.9667,679.1984,568.1698,677.2912,571.3967,674.5636,573.5714,671.6974,574.7606,669.412,574.8638,666.4747,573.3766,663.7032,572.4049,661.5995,570.4322,660.4961,568.1738,659.8417,566.3756,659.2006,564.0267,658.16,562.0055,658.9596,560.032,659.6602,557.8702,662.2893,556.1605,664.139,553.9421,666.4284,553.2055,669.1501,552.5711,672.6404,552.948,674.5521,553.8495,676.7747,554.2582,679.4772,557.027,680.4193,559.95,680.8286,561.9444,680.365,565.2309" style="stroke:#181818;stroke-width:1.0;"/><path d="M672.5156,559.166 Q672.6719,558.9473 672.8594,558.8379 Q673.0469,558.7285 673.2656,558.7285 Q673.6406,558.7285 673.875,558.9941 Q674.1094,559.2441 674.1094,559.8535 L674.1094,561.3066 Q674.1094,561.916 673.875,562.1816 Q673.6406,562.4473 673.2656,562.4473 Q672.9219,562.4473 672.7188,562.2441 Q672.5156,562.0566 672.4063,561.541 Q672.3594,561.1816 672.1719,560.9941 Q671.8438,560.6191 671.2344,560.4004 Q670.625,560.1816 670,560.1816 Q669.2344,560.1816 668.5938,560.5098 Q667.9688,560.8379 667.4688,561.5879 Q666.9844,562.3379 666.9844,563.3691 L666.9844,564.4629 Q666.9844,565.6973 667.875,566.5254 Q668.7656,567.3379 670.3594,567.3379 Q671.2969,567.3379 671.9531,567.0879 Q672.3438,566.9316 672.7656,566.4941 Q673.0313,566.2285 673.1719,566.1504 Q673.3281,566.0723 673.5313,566.0723 Q673.8594,566.0723 674.1094,566.3379 Q674.375,566.5879 674.375,566.9316 Q674.375,567.2754 674.0313,567.6816 Q673.5313,568.2598 672.7344,568.5879 Q671.6563,569.041 670.3594,569.041 Q668.8438,569.041 667.6406,568.416 Q666.6563,567.916 665.9688,566.8535 Q665.2813,565.7754 665.2813,564.4941 L665.2813,563.3379 Q665.2813,562.0098 665.8906,560.8691 Q666.5156,559.7129 667.6094,559.1035 Q668.7031,558.4785 669.9375,558.4785 Q670.6719,558.4785 671.3125,558.6504 Q671.9688,558.8066 672.5156,559.166 Z " fill="#000000"/><text fill="#000000" font-family="FG Virgil" font-size="12" font-style="italic" lengthAdjust="spacing" textLength="68" x="704.75" y="558.9492">&#171;repository&#187;</text><text fill="#000000" font-family="FG Virgil" font-size="14" lengthAdjust="spacing" textLength="97" x="690.25" y="577.0684">UserRepository</text><path d="M600,585.582 L600,585.8623 L609.8,585.0296 L619.6,585.8397 L629.4,586.1149 L639.2,584.6308 L649,585.4784 L658.8,585.0134 L668.6,585.0707 L678.4,585.4912 L688.2,584.6602 L698,586.3202 L707.8,584.7417 L717.6,585.3183 L727.4,586.158 L737.2,585.4677 L747,585.673 L756.8,585.5394 L766.6,585.8201 L776.4,585.9009 L786.2,586.363 L796,586.4768 L805.8,586.4877 L815.6,585.9215 L825.4,586.2001 L835.2,586.5183 L845,585.582 " fill="#F1F1F1" style="stroke:#181818;stroke-width:0.5;"/><path d="M600,593.582 L600,593.8623 L609.8,593.0296 L619.6,593.8397 L629.4,594.1149 L639.2,592.6308 L649,593.4784 L658.8,593.0134 L668.6,593.0707 L678.4,593.4912 L688.2,592.6602 L698,594.3202 L707.8,592.7417 L717.6,593.3183 L727.4,594.158 L737.2,593.4677 L747,593.673 L756.8,593.5394 L766.6,593.8201 L776.4,593.9009 L786.2,594.363 L796,594.4768 L805.8,594.4877 L815.6,593.9215 L825.4,594.2001 L835.2,594.5183 L845,593.582 " fill="#F1F1F1" style="stroke:#181818;stroke-width:0.5;"/><text fill="#000000" font-family="FG Virgil" font-size="14" lengthAdjust="spacing" textLength="235" x="605" y="612.6895">findUserByEmail(EmailAddress email)</text></g><!--link AddCourseTeacherUI to AddCourseTeacherController--><g id="link_AddCourseTeacherUI_AddCourseTeacherController"><path d="M376.5,86.21 L376.7802,86.21 L375.9476,95.815 L376.7577,105.42 L377.0329,115.025 L375.5488,124.63 L376.3964,134.235 L375.9313,143.84 L375.9887,153.445 L376.4091,163.05 L375.5782,172.655 L377.2382,182.26 L375.6596,191.865 L376.5,201.47 " fill="none" style="stroke:#181818;stroke-width:1.0;stroke-dasharray:7.0,7.0;"/><polygon fill="#181818" points="376.5,206.9,376.564,206.9285,377.1738,205.0439,378.1589,203.3262,379.0217,201.5541,379.4827,199.6034,380.5,197.9,380.4817,197.8817,379.5995,198.5995,378.8096,199.4096,378.0839,200.2839,377.137,200.937,376.5,201.9,376.6305,202.0305,375.5514,200.9514,374.8534,200.2534,374.2018,199.6018,373.2798,198.6798,372.5,197.9,372.5208,197.9092,373.2903,199.6957,374.1544,201.5242,374.9728,203.3324,375.8784,205.1793,376.5,206.9" style="stroke:#181818;stroke-width:1.0;"/></g><!--link AddCourseTeacherController to PersistenceContext--><g id="link_AddCourseTeacherController_PersistenceContext"><path d="M376.5,323.25 L376.7802,323.25 L375.9476,333.8917 L376.7577,344.5333 L377.0329,355.175 L375.5488,365.8167 L376.3964,376.4583 L376.5,387.1 " fill="none" style="stroke:#181818;stroke-width:1.0;"/><polygon fill="#181818" points="376.5,392.26,376.564,392.2885,377.1738,390.4039,378.1589,388.6862,379.0217,386.9141,379.4827,384.9634,380.5,383.26,380.4817,383.2417,379.5995,383.9595,378.8096,384.7696,378.0839,385.6439,377.137,386.297,376.5,387.26,376.6305,387.3905,375.5514,386.3114,374.8534,385.6134,374.2018,384.9618,373.2798,384.0398,372.5,383.26,372.5208,383.2692,373.2903,385.0557,374.1544,386.8842,374.9728,388.6924,375.8784,390.5393,376.5,392.26" style="stroke:#181818;stroke-width:1.0;"/></g><!--link AddCourseTeacherController to RepositoryFactory--><g id="link_AddCourseTeacherController_RepositoryFactory"><path d="M440.77,323.01 L440.956,323.2196 L448.3234,329.623 L456.781,337.2553 L464.8837,344.4874 L471.8188,350.4035 L480.3012,358.0637 L487.9126,364.7421 L495.8707,371.8112 L504.13,379.22 " fill="none" style="stroke:#181818;stroke-width:1.0;"/><polygon fill="#181818" points="508.12,382.76,508.1837,382.7891,507.1771,380.9105,506.5441,379.2023,505.7895,377.4386,504.6346,375.4924,504.0338,373.7988,504.0079,373.7973,503.9604,374.9195,504.0433,376.0497,504.2168,377.1853,504.078,378.302,504.3767,379.4453,504.3878,379.6295,503.2346,379.3042,502.1141,379.5166,500.9975,379.7947,499.8578,379.6911,498.7302,379.7882,498.7371,379.8099,500.6049,380.3724,502.5041,381.0336,504.3881,381.6473,506.3009,382.3518,508.12,382.76" style="stroke:#181818;stroke-width:1.0;"/></g><!--link AddCourseTeacherController to CourseManagementService--><g id="link_AddCourseTeacherController_CourseManagementService"><path d="M293.22,323.01 L293.3783,323.2412 L284.8204,328.0917 L277.1906,334.2976 L269.2586,340.0622 L260.3326,344.3752 L252.724,350.612 L244.3737,355.7658 L236.3186,361.3506 L228.4687,367.235 L219.9117,372.0869 L212.762,378.9941 L203.7827,383.2291 L196.17,389.46 " fill="none" style="stroke:#181818;stroke-width:1.0;"/><polygon fill="#181818" points="191.88,392.4,191.8925,392.4689,193.7932,391.9113,195.7674,391.7578,197.7176,391.4726,199.5891,390.7548,201.5696,390.6359,201.5648,390.6105,200.4315,390.2858,199.3225,390.0895,198.2305,389.9823,197.0802,389.5678,196.0114,389.5838,196.1928,389.6181,196.0154,388.4331,196.3675,387.3482,196.7842,386.2757,196.8251,385.1319,197.0636,384.0256,197.0829,384.0376,196.0178,385.6949,195.0408,387.4067,194.0212,389.0922,193.0827,390.8279,191.88,392.4" style="stroke:#181818;stroke-width:1.0;"/></g><!--link RepositoryFactory to UserRepository--><g id="link_RepositoryFactory_UserRepository"><path d="M615.33,481.38 L615.5192,481.5867 L622.612,487.9813 L630.814,495.5876 L638.6549,502.7993 L645.3077,508.7134 L653.535,516.3473 L660.876,523.0131 L668.5697,530.0641 L676.57,537.45 " fill="none" style="stroke:#181818;stroke-width:1.0;"/><polygon fill="#181818" points="680.35,540.91,680.4142,540.938,679.4352,539.0495,678.8326,537.3254,678.1075,535.5477,676.9793,533.5941,676.409,531.884,676.3831,531.8829,676.3173,533.0079,676.382,534.1388,676.5373,535.2738,676.3801,536.3948,676.6607,537.5353,676.6689,537.7196,675.5211,537.3757,674.3972,537.5701,673.2763,537.8301,672.1384,537.708,671.0094,537.7869,671.0166,537.8085,672.8742,538.4015,674.7645,539.0926,676.639,539.7364,678.5438,540.4705,680.35,540.91" style="stroke:#181818;stroke-width:1.0;"/></g><!--link RepositoryFactory to CourseRepository--><g id="link_RepositoryFactory_CourseRepository"><path d="M528.16,481.38 L528.3885,481.5422 L522.1124,488.9445 L517.1759,497.2978 L511.8031,505.3413 L504.9958,512.3665 L500.0898,520.7414 L494.1134,528.3565 L488.98,536.57 " fill="none" style="stroke:#181818;stroke-width:1.0;"/><polygon fill="#181818" points="485.9,540.91,485.9359,540.9702,487.5212,539.7826,489.3168,538.9479,491.0439,537.9982,492.5457,536.6708,494.3594,535.8663,494.355,535.8408,493.2203,535.9182,492.1078,536.1242,491.0106,536.4197,489.8604,536.4069,488.7845,536.826,488.9664,536.8573,488.3856,535.6753,488.3357,534.5848,488.3507,533.5055,487.9887,532.3612,487.8249,531.2511,487.8472,531.2555,487.4295,533.1808,487.1133,535.1263,486.7481,537.062,486.4765,539.0164,485.9,540.91" style="stroke:#181818;stroke-width:1.0;"/></g><!--link CourseManagementService to Course--><g id="link_CourseManagementService_Course"><path d="M135.5,471.87 L135.7802,471.87 L134.9476,482.5367 L135.7577,493.2033 L136.0329,503.87 L134.5488,514.5367 L135.3964,525.2033 L135.5,535.87 " fill="none" style="stroke:#181818;stroke-width:1.0;"/><polygon fill="#181818" points="135.5,540.95,135.564,540.9785,136.1738,539.0939,137.1589,537.3762,138.0217,535.6041,138.4827,533.6534,139.5,531.95,139.4817,531.9317,138.5995,532.6495,137.8096,533.4596,137.0839,534.3339,136.137,534.987,135.5,535.95,135.6305,536.0805,134.5514,535.0014,133.8534,534.3034,133.2018,533.6518,132.2798,532.7298,131.5,531.95,131.5208,531.9592,132.2903,533.7457,133.1544,535.5742,133.9728,537.3824,134.8784,539.2293,135.5,540.95" style="stroke:#181818;stroke-width:1.0;"/></g><!--SRC=[ZLBBRi8m4BpxAtm4gVGBB2H0fUgXLLMWzwsz8HQE7QqTQ5JrtsiJ206QqejVEpExdbs_qRO4WeBdODMET0XeUQ0AcMz3XRDEvkGAl8oK83UmnaMe3N926JenXHbK9ioT3IyGgVD7_gvfhKq7utDGRgVjccTWF3B6f07l-KIfcQl8un91vaYh9ov4IUZH1WZQsV7uY_dSxGP3zjr7ciNCv8n14WBAqcZPKhT8EgiRz60HA5KWdS8XMsCuqFra2zh0Xy510uo8j0qPA7N0BDr1O-MHU1MNkmjiMrtp_Wms-bN4RooGjbgY4BuvfB9EmlyM5A89zD4xXDVu9-rZVoKcQ_0pH4zFRqc1i7HU1qSQVTVQj-DxFGUPDY6ovf1OAK-2DvMS4PiYJ_JOnZR7dfjfgwQn4-heSZeUUj6gfD_Sq4YGQVrGn9ODzckSXZWldcEwxBL-6QhH_MZynznSSqunFehKQqjlCQwSl4NecHl6hfJsy7EhUa2NNM6i9qi7_GC0]--></g></svg>