<?xml version="1.0" encoding="us-ascii" standalone="no"?><svg xmlns="http://www.w3.org/2000/svg" xmlns:xlink="http://www.w3.org/1999/xlink" contentStyleType="text/css" height="608px" preserveAspectRatio="none" style="width:1100px;height:608px;background:#FFFFFF;" version="1.1" viewBox="0 0 1100 608" width="1100px" zoomAndPan="magnify"><defs/><g><!--class HttpServerAjax--><g id="elem_HttpServerAjax"><polygon fill="#F1F1F1" points="332.5,16,332.5,16.2102,342.5,15.5857,352.5,16.1933,362.5,16.3997,372.5,15.2866,382.5,15.9223,392.5,15.5735,402.5,15.6165,412.5,15.9318,422.5,15.3086,432.5,16.5536,442.5,15.3697,452.5,16,452.4748,15.9391,452.9087,16.2795,453.1962,16.2665,453.5694,16.4604,453.9101,16.5759,454.2678,16.7322,454.3227,16.755,454.4879,17.1163,454.741,17.5141,454.9138,17.8785,455.0627,18.2331,455,18.5,455.2546,18.5,455.4636,27.7637,455.7022,37.0273,454.2788,46.291,455.6785,55.5547,454.7035,64.8184,455,74.082,455.1644,74.1501,454.7011,74.3724,454.686,74.7804,454.789,75.2373,454.3992,75.49,454.2678,75.8498,454.2812,75.8822,453.9574,76.1005,453.6138,76.2709,453.2066,76.2879,452.8902,76.524,452.5,76.582,452.5,76.0096,442.5,76.8664,432.5,77.1302,422.5,77.0266,412.5,77.1951,402.5,76.099,392.5,75.9298,382.5,75.9606,372.5,76.5232,362.5,76.3855,352.5,77.2634,342.5,76.4074,332.5,76.582,332.4562,76.4764,332.1756,76.5059,331.7078,76.0838,331.3731,75.9828,331.1686,76.1961,330.7322,75.8498,330.8664,75.9054,330.812,75.5899,330.3402,75.1016,330.3912,74.8299,330.3283,74.5109,330,74.082,329.5276,74.082,329.9041,64.8184,330.126,55.5547,330.6518,46.291,329.9958,37.0273,330.4626,27.7637,330,18.5,329.8295,18.4294,329.9379,18.0601,330.448,17.8571,330.2186,17.3479,330.7425,17.1507,330.7322,16.7322,330.7586,16.7959,331.0516,16.5033,331.3942,16.3304,331.8514,16.4342,332.1083,16.0543,332.5,16" style="stroke:#181818;stroke-width:0.5;"/><polygon fill="#C2C2C2" points="356.0608,40.9667,354.4484,43.1698,352.5412,46.3967,349.8136,48.5714,346.9474,49.7606,344.662,49.8638,341.7247,48.3766,338.9532,47.4049,336.8495,45.4322,335.7461,43.1738,335.0917,41.3756,334.4506,39.0267,333.41,37.0055,334.2096,35.032,334.9102,32.8702,337.5393,31.1605,339.389,28.9421,341.6784,28.2055,344.4001,27.5711,347.8904,27.948,349.8021,28.8495,352.0247,29.2582,354.7272,32.027,355.6693,34.95,356.0786,36.9444,355.615,40.2309" style="stroke:#181818;stroke-width:1.0;"/><path d="M347.7656,34.166 Q347.9219,33.9473 348.1094,33.8379 Q348.2969,33.7285 348.5156,33.7285 Q348.8906,33.7285 349.125,33.9941 Q349.3594,34.2441 349.3594,34.8535 L349.3594,36.3066 Q349.3594,36.916 349.125,37.1816 Q348.8906,37.4473 348.5156,37.4473 Q348.1719,37.4473 347.9688,37.2441 Q347.7656,37.0566 347.6563,36.541 Q347.6094,36.1816 347.4219,35.9941 Q347.0938,35.6191 346.4844,35.4004 Q345.875,35.1816 345.25,35.1816 Q344.4844,35.1816 343.8438,35.5098 Q343.2188,35.8379 342.7188,36.5879 Q342.2344,37.3379 342.2344,38.3691 L342.2344,39.4629 Q342.2344,40.6973 343.125,41.5254 Q344.0156,42.3379 345.6094,42.3379 Q346.5469,42.3379 347.2031,42.0879 Q347.5938,41.9316 348.0156,41.4941 Q348.2813,41.2285 348.4219,41.1504 Q348.5781,41.0723 348.7813,41.0723 Q349.1094,41.0723 349.3594,41.3379 Q349.625,41.5879 349.625,41.9316 Q349.625,42.2754 349.2813,42.6816 Q348.7813,43.2598 347.9844,43.5879 Q346.9063,44.041 345.6094,44.041 Q344.0938,44.041 342.8906,43.416 Q341.9063,42.916 341.2188,41.8535 Q340.5313,40.7754 340.5313,39.4941 L340.5313,38.3379 Q340.5313,37.0098 341.1406,35.8691 Q341.7656,34.7129 342.8594,34.1035 Q343.9531,33.4785 345.1875,33.4785 Q345.9219,33.4785 346.5625,33.6504 Q347.2188,33.8066 347.7656,34.166 Z " fill="#000000"/><text fill="#000000" font-family="FG Virgil" font-size="12" font-style="italic" lengthAdjust="spacing" textLength="71" x="370" y="33.9492">&#171;http server&#187;</text><text fill="#000000" font-family="FG Virgil" font-size="14" lengthAdjust="spacing" textLength="93" x="359" y="52.0684">HttpServerAjax</text><path d="M331,60.582 L331,60.8623 L341.25,60.0296 L351.5,60.8397 L361.75,61.1149 L372,59.6308 L382.25,60.4784 L392.5,60.0134 L402.75,60.0707 L413,60.4912 L423.25,59.6602 L433.5,61.3202 L443.75,59.7417 L454,60.582 " fill="#F1F1F1" style="stroke:#181818;stroke-width:0.5;"/><path d="M331,68.582 L331,68.8623 L341.25,68.0296 L351.5,68.8397 L361.75,69.1149 L372,67.6308 L382.25,68.4784 L392.5,68.0134 L402.75,68.0707 L413,68.4912 L423.25,67.6602 L433.5,69.3202 L443.75,67.7417 L454,68.582 " fill="#F1F1F1" style="stroke:#181818;stroke-width:0.5;"/></g><!--class SessionManager--><g id="elem_SessionManager"><polygon fill="#F1F1F1" points="9.5,361.5,9.5,361.7102,19.4,361.0857,29.3,361.6933,39.2,361.8997,49.1,360.7866,59,361.4223,68.9,361.0735,78.8,361.1165,88.7,361.4318,98.6,360.8086,108.5,362.0536,118.4,360.8697,128.3,361.3022,138.2,361.9319,148.1,361.4142,158,361.5682,167.9,361.4681,177.8,361.6785,187.7,361.7391,197.6,362.0857,207.5,361.5,207.5856,361.7067,207.9402,361.8556,208.2396,361.8713,208.6198,362.0821,209.0038,362.302,209.2678,362.2322,209.0457,362.1402,209.6232,362.6723,209.4693,362.9015,209.8715,363.361,209.7011,363.5833,210,364,209.9315,364,210.7416,374.2702,209.9513,384.5404,210.1053,394.8105,210.3386,405.0807,210.4162,415.3509,210,425.6211,209.9988,425.6206,209.942,426.0113,209.5308,426.2552,209.6482,426.718,209.583,427.1052,209.2678,427.3889,209.3245,427.5258,208.9924,427.7241,208.499,427.533,208.1239,427.6274,207.7743,427.7833,207.5,428.1211,207.5,428.0622,197.6,427.9246,187.7,428.8025,177.8,427.9464,167.9,427.778,158,428.3494,148.1,427.4543,138.2,427.602,128.3,428.77,118.4,428.5568,108.5,428.8556,98.6,427.7993,88.7,428.4403,78.8,428.7115,68.9,427.6487,59,428.0252,49.1,428.2471,39.2,428.7729,29.3,428.1169,19.4,428.5837,9.5,428.1211,9.4294,427.9506,9.0601,427.7661,8.8571,427.9833,8.3479,427.461,8.1507,427.692,7.7322,427.3889,7.7959,427.4152,7.5033,427.0011,7.3304,426.6366,7.4342,426.3867,7.0543,425.9365,7,425.6211,7.5919,425.6211,6.4473,415.3509,7.6174,405.0807,7.4843,394.8105,7.245,384.5404,7.0472,374.2702,7,364,7.2238,364.0927,7.3354,363.7247,7.345,363.3145,7.5219,362.9736,7.5457,362.5692,7.7322,362.2322,7.8236,362.4529,8.1055,362.1335,8.4614,361.9925,8.7153,361.6055,9.0948,361.5217,9.5,361.5" style="stroke:#181818;stroke-width:0.5;"/><polygon fill="#C2C2C2" points="62.3108,380.1756,60.6984,382.3788,58.7912,385.6057,56.0636,387.7804,53.1974,388.9696,50.912,389.0728,47.9747,387.5855,45.2032,386.6139,43.0995,384.6412,41.9961,382.3828,41.3417,380.5845,40.7006,378.2357,39.66,376.2145,40.4596,374.241,41.1602,372.0792,43.7893,370.3695,45.639,368.1511,47.9284,367.4144,50.6501,366.7801,54.1404,367.157,56.0521,368.0585,58.2747,368.4672,60.9772,371.236,61.9193,374.159,62.3286,376.1534,61.865,379.4399" style="stroke:#181818;stroke-width:1.0;"/><path d="M54.0156,373.375 Q54.1719,373.1563 54.3594,373.0469 Q54.5469,372.9375 54.7656,372.9375 Q55.1406,372.9375 55.375,373.2031 Q55.6094,373.4531 55.6094,374.0625 L55.6094,375.5156 Q55.6094,376.125 55.375,376.3906 Q55.1406,376.6563 54.7656,376.6563 Q54.4219,376.6563 54.2188,376.4531 Q54.0156,376.2656 53.9063,375.75 Q53.8594,375.3906 53.6719,375.2031 Q53.3438,374.8281 52.7344,374.6094 Q52.125,374.3906 51.5,374.3906 Q50.7344,374.3906 50.0938,374.7188 Q49.4688,375.0469 48.9688,375.7969 Q48.4844,376.5469 48.4844,377.5781 L48.4844,378.6719 Q48.4844,379.9063 49.375,380.7344 Q50.2656,381.5469 51.8594,381.5469 Q52.7969,381.5469 53.4531,381.2969 Q53.8438,381.1406 54.2656,380.7031 Q54.5313,380.4375 54.6719,380.3594 Q54.8281,380.2813 55.0313,380.2813 Q55.3594,380.2813 55.6094,380.5469 Q55.875,380.7969 55.875,381.1406 Q55.875,381.4844 55.5313,381.8906 Q55.0313,382.4688 54.2344,382.7969 Q53.1563,383.25 51.8594,383.25 Q50.3438,383.25 49.1406,382.625 Q48.1563,382.125 47.4688,381.0625 Q46.7813,379.9844 46.7813,378.7031 L46.7813,377.5469 Q46.7813,376.2188 47.3906,375.0781 Q48.0156,373.9219 49.1094,373.3125 Q50.2031,372.6875 51.4375,372.6875 Q52.1719,372.6875 52.8125,372.8594 Q53.4688,373.0156 54.0156,373.375 Z " fill="#000000"/><text fill="#000000" font-family="FG Virgil" font-size="14" lengthAdjust="spacing" textLength="106" x="71.75" y="383.2969">SessionManager</text><path d="M8,393.5 L8,393.7802 L18.05,392.9476 L28.1,393.7577 L38.15,394.0329 L48.2,392.5488 L58.25,393.3964 L68.3,392.9313 L78.35,392.9887 L88.4,393.4091 L98.45,392.5782 L108.5,394.2382 L118.55,392.6596 L128.6,393.2363 L138.65,394.0759 L148.7,393.3856 L158.75,393.591 L168.8,393.4574 L178.85,393.738 L188.9,393.8188 L198.95,394.2809 L209,393.5 " fill="#F1F1F1" style="stroke:#181818;stroke-width:0.5;"/><path d="M8,401.5 L8,401.7802 L18.05,400.9476 L28.1,401.7577 L38.15,402.0329 L48.2,400.5488 L58.25,401.3964 L68.3,400.9313 L78.35,400.9887 L88.4,401.4091 L98.45,400.5782 L108.5,402.2382 L118.55,400.6596 L128.6,401.2363 L138.65,402.0759 L148.7,401.3856 L158.75,401.591 L168.8,401.4574 L178.85,401.738 L188.9,401.8188 L198.95,402.2809 L209,401.5 " fill="#F1F1F1" style="stroke:#181818;stroke-width:0.5;"/><text fill="#000000" font-family="FG Virgil" font-size="14" lengthAdjust="spacing" textLength="191" x="13" y="420.6074">getUserByToken(String token)</text></g><!--class ShareBoardController--><g id="elem_ShareBoardController"><polygon fill="#F1F1F1" points="156,207,156,207.2102,166.0638,206.5857,176.1277,207.1933,186.1915,207.3997,196.2553,206.2866,206.3191,206.9223,216.383,206.5735,226.4468,206.6165,236.5106,206.9318,246.5745,206.3086,256.6383,207.5536,266.7021,206.3697,276.766,206.8022,286.8298,207.4319,296.8936,206.9142,306.9574,207.0682,317.0213,206.9681,327.0851,207.1785,337.1489,207.2391,347.2128,207.5857,357.2766,207.6711,367.3404,207.6793,377.4043,207.2546,387.4681,207.4636,397.5319,207.7022,407.5957,206.2788,417.6596,207.6785,427.7234,206.7035,437.7872,207.5338,447.8511,206.505,457.9149,206.9315,467.9787,207.7416,478.0426,206.9513,488.1064,207.1053,498.1702,207.3386,508.234,207.4162,518.2979,206.9961,528.3617,207.2872,538.4255,206.4276,548.4894,207.2844,558.5532,207.5482,568.617,207.4445,578.6809,207.613,588.7447,206.5169,598.8085,206.3478,608.8723,206.3786,618.9362,206.9411,629,207,628.9749,206.9395,629.4405,207.3563,629.6848,207.2391,630.0169,207.3337,630.4433,207.6561,630.7678,207.7322,630.5624,207.6472,630.7543,208.0196,631.2605,208.5221,631.3413,208.8485,631.5797,209.2401,631.5,209.5,631.1782,209.5,631.8192,220.1004,632.0904,230.7009,631.0276,241.3013,631.4041,251.9018,631.626,262.5022,632.1518,273.1027,631.5,283.7031,631.4987,283.7026,631.496,284.1157,631.0366,284.3396,630.8521,284.6774,631.0693,285.1816,630.7678,285.4709,630.6763,285.2501,630.4791,285.7741,630.087,285.8274,629.6729,285.8277,629.3084,285.9477,629,286.2031,629,286.6619,618.9362,285.9038,608.8723,286.795,598.8085,285.6504,588.7447,286.8206,578.6809,286.6874,568.617,286.4481,558.5532,286.2503,548.4894,286.9297,538.4255,286.8167,528.3617,286.3724,518.2979,286.4713,508.234,286.0729,498.1702,286.9196,488.1064,286.358,478.0426,286.3757,467.9787,285.5948,457.9149,285.7979,447.8511,286.7339,437.7872,286.6329,427.7234,286.1602,417.6596,285.881,407.5957,285.9842,397.5319,285.5169,387.4681,286.6179,377.4043,286.9427,367.3404,286.7295,357.2766,286.8981,347.2128,286.0664,337.1489,286.2903,327.0851,285.8155,317.0213,286.4872,306.9574,286.4499,296.8936,286.7555,286.8298,285.9735,276.766,286.0687,266.7021,286.6466,256.6383,286.7705,246.5745,285.6906,236.5106,286.0092,226.4468,286.3524,216.383,285.5923,206.3191,286.5565,196.2553,286.4611,186.1915,286.1024,176.1277,286.3454,166.0638,286.9318,156,286.2031,155.9601,286.1068,155.6866,286.1537,155.3293,285.9982,154.9541,285.7994,154.6038,285.6607,154.2322,285.4709,154.2672,285.4854,153.8936,285.0377,153.8159,284.7127,153.6508,284.3514,153.6661,284.0648,153.5,283.7031,153.5881,283.7031,153.6617,273.1027,153.209,262.5022,153.4325,251.9018,153.3798,241.3013,154.0769,230.7009,153.9266,220.1004,153.5,209.5,153.3505,209.4381,153.624,209.1371,153.6151,208.7193,154.0282,208.4761,154.2732,208.1634,154.2322,207.7322,154.3017,207.8999,154.5302,207.4517,154.9985,207.5822,155.1981,207.0641,155.672,207.2081,156,207" style="stroke:#181818;stroke-width:0.5;"/><polygon fill="#C2C2C2" points="330.3108,231.9667,328.6984,234.1698,326.7912,237.3967,324.0636,239.5714,321.1974,240.7606,318.912,240.8638,315.9747,239.3766,313.2032,238.4049,311.0995,236.4322,309.9961,234.1738,309.3417,232.3756,308.7006,230.0267,307.66,228.0055,308.4596,226.032,309.1602,223.8702,311.7893,222.1605,313.639,219.9421,315.9284,219.2055,318.6501,218.5711,322.1404,218.948,324.0521,219.8495,326.2747,220.2582,328.9772,223.027,329.9193,225.95,330.3286,227.9444,329.865,231.2309" style="stroke:#181818;stroke-width:1.0;"/><path d="M322.0156,225.166 Q322.1719,224.9473 322.3594,224.8379 Q322.5469,224.7285 322.7656,224.7285 Q323.1406,224.7285 323.375,224.9941 Q323.6094,225.2441 323.6094,225.8535 L323.6094,227.3066 Q323.6094,227.916 323.375,228.1816 Q323.1406,228.4473 322.7656,228.4473 Q322.4219,228.4473 322.2188,228.2441 Q322.0156,228.0566 321.9063,227.541 Q321.8594,227.1816 321.6719,226.9941 Q321.3438,226.6191 320.7344,226.4004 Q320.125,226.1816 319.5,226.1816 Q318.7344,226.1816 318.0938,226.5098 Q317.4688,226.8379 316.9688,227.5879 Q316.4844,228.3379 316.4844,229.3691 L316.4844,230.4629 Q316.4844,231.6973 317.375,232.5254 Q318.2656,233.3379 319.8594,233.3379 Q320.7969,233.3379 321.4531,233.0879 Q321.8438,232.9316 322.2656,232.4941 Q322.5313,232.2285 322.6719,232.1504 Q322.8281,232.0723 323.0313,232.0723 Q323.3594,232.0723 323.6094,232.3379 Q323.875,232.5879 323.875,232.9316 Q323.875,233.2754 323.5313,233.6816 Q323.0313,234.2598 322.2344,234.5879 Q321.1563,235.041 319.8594,235.041 Q318.3438,235.041 317.1406,234.416 Q316.1563,233.916 315.4688,232.8535 Q314.7813,231.7754 314.7813,230.4941 L314.7813,229.3379 Q314.7813,228.0098 315.3906,226.8691 Q316.0156,225.7129 317.1094,225.1035 Q318.2031,224.4785 319.4375,224.4785 Q320.1719,224.4785 320.8125,224.6504 Q321.4688,224.8066 322.0156,225.166 Z " fill="#000000"/><text fill="#000000" font-family="FG Virgil" font-size="12" font-style="italic" lengthAdjust="spacing" textLength="74" x="371.75" y="224.9492">&#171;application&#187;</text><text fill="#000000" font-family="FG Virgil" font-size="14" lengthAdjust="spacing" textLength="138" x="339.75" y="243.0684">ShareBoardController</text><path d="M154.5,251.582 L154.5,251.8623 L164.4167,251.0296 L174.3333,251.8397 L184.25,252.1149 L194.1667,250.6308 L204.0833,251.4784 L214,251.0134 L223.9167,251.0707 L233.8333,251.4912 L243.75,250.6602 L253.6667,252.3202 L263.5833,250.7417 L273.5,251.3183 L283.4167,252.158 L293.3333,251.4677 L303.25,251.673 L313.1667,251.5394 L323.0833,251.8201 L333,251.9009 L342.9167,252.363 L352.8333,252.4768 L362.75,252.4877 L372.6667,251.9215 L382.5833,252.2001 L392.5,252.5183 L402.4167,250.6205 L412.3333,252.4867 L422.25,251.1867 L432.1667,252.2938 L442.0833,250.922 L452,251.4907 L461.9167,252.5708 L471.8333,251.5171 L481.75,251.7224 L491.6667,252.0335 L501.5833,252.137 L511.5,251.5768 L521.4167,251.965 L531.3333,250.8188 L541.25,251.9612 L551.1667,252.313 L561.0833,252.1747 L571,252.3994 L580.9167,250.9379 L590.8333,250.7125 L600.75,250.7535 L610.6667,251.5035 L620.5833,251.32 L630.5,251.582 " fill="#F1F1F1" style="stroke:#181818;stroke-width:0.5;"/><path d="M154.5,259.582 L154.5,259.8623 L164.4167,259.0296 L174.3333,259.8397 L184.25,260.1149 L194.1667,258.6308 L204.0833,259.4784 L214,259.0134 L223.9167,259.0707 L233.8333,259.4912 L243.75,258.6602 L253.6667,260.3202 L263.5833,258.7417 L273.5,259.3183 L283.4167,260.158 L293.3333,259.4677 L303.25,259.673 L313.1667,259.5394 L323.0833,259.8201 L333,259.9009 L342.9167,260.363 L352.8333,260.4768 L362.75,260.4877 L372.6667,259.9215 L382.5833,260.2001 L392.5,260.5183 L402.4167,258.6205 L412.3333,260.4867 L422.25,259.1867 L432.1667,260.2938 L442.0833,258.922 L452,259.4907 L461.9167,260.5708 L471.8333,259.5171 L481.75,259.7224 L491.6667,260.0335 L501.5833,260.137 L511.5,259.5768 L521.4167,259.965 L531.3333,258.8188 L541.25,259.9612 L551.1667,260.313 L561.0833,260.1747 L571,260.3994 L580.9167,258.9379 L590.8333,258.7125 L600.75,258.7535 L610.6667,259.5035 L620.5833,259.32 L630.5,259.582 " fill="#F1F1F1" style="stroke:#181818;stroke-width:0.5;"/><text fill="#000000" font-family="FG Virgil" font-size="14" lengthAdjust="spacing" textLength="466" x="159.5" y="278.6895">shareBoard(long boardId,User user,User boardOwner,String accessLevel)</text></g><!--class BoardService--><g id="elem_BoardService"><polygon fill="#F1F1F1" points="319,346,319,346.2102,328.878,345.5857,338.7561,346.1933,348.6341,346.3997,358.5122,345.2866,368.3902,345.9223,378.2683,345.5735,388.1463,345.6165,398.0244,345.9318,407.9024,345.3086,417.7805,346.5536,427.6585,345.3697,437.5366,345.8022,447.4146,346.4319,457.2927,345.9142,467.1707,346.0682,477.0488,345.9681,486.9268,346.1785,496.8049,346.2391,506.6829,346.5857,516.561,346.6711,526.439,346.6793,536.3171,346.2546,546.1951,346.4636,556.0732,346.7022,565.9512,345.2788,575.8293,346.6785,585.7073,345.7035,595.5854,346.5338,605.4634,345.505,615.3415,345.9315,625.2195,346.7416,635.0976,345.9513,644.9756,346.1053,654.8537,346.3386,664.7317,346.4162,674.6098,345.9961,684.4878,346.2872,694.3659,345.4276,704.2439,346.2844,714.122,346.5482,724,346,724.0567,346.1369,724.4318,346.3352,724.6455,346.1441,724.9775,346.2385,725.3349,346.3944,725.7678,346.7322,725.7496,346.7247,725.8537,347.0607,726.2705,347.5263,726.1533,347.7706,726.2479,348.1027,726.5,348.5,726.7283,348.5,725.8332,358.8138,725.9809,369.1276,727.149,379.4414,726.9357,389.7552,727.2345,400.069,726.1782,410.3828,726.8192,420.6966,727.0904,431.0104,726.5,441.3242,726.3545,441.264,726.324,441.6655,726.2459,442.0474,726.2614,442.468,725.9129,442.7379,725.7678,443.092,725.8268,443.2344,725.3436,443.0679,724.9743,443.1763,724.7713,443.6864,724.2621,443.457,724,443.8242,724,444.3332,714.122,444.0308,704.2439,443.5563,694.3659,443.4704,684.4878,444.283,674.6098,443.5249,664.7317,444.4161,654.8537,443.2715,644.9756,444.4416,635.0976,444.3085,625.2195,444.0692,615.3415,443.8714,605.4634,444.5508,595.5854,444.4378,585.7073,443.9935,575.8293,444.0924,565.9512,443.694,556.0732,444.5407,546.1951,443.9791,536.3171,443.9968,526.439,443.2159,516.561,443.419,506.6829,444.355,496.8049,444.254,486.9268,443.7813,477.0488,443.502,467.1707,443.6053,457.2927,443.138,447.4146,444.239,437.5366,444.5638,427.6585,444.3506,417.7805,444.5192,407.9024,443.6875,398.0244,443.9114,388.1463,443.4366,378.2683,444.1083,368.3902,444.071,358.5122,444.3766,348.6341,443.5946,338.7561,443.6898,328.878,444.2677,319,443.8242,319.0724,443.9989,318.5811,443.5199,318.2682,443.4716,317.9584,443.4308,317.5079,443.0503,317.2322,443.092,317.3411,443.1371,317.1652,442.7713,316.9083,442.372,316.8367,442.0495,316.8708,441.7707,316.5,441.3242,316.1871,441.3242,316.815,431.0104,316.7856,420.6966,316.6158,410.3828,316.6409,400.069,316.6135,389.7552,315.8758,379.4414,316.0992,369.1276,316.0385,358.8138,316.5,348.5,316.5197,348.5081,316.6736,348.1577,316.8427,347.8135,316.8497,347.4022,317.065,347.0772,317.2322,346.7322,317.2169,346.6952,317.6594,346.7634,317.9938,346.5707,318.231,346.1434,318.6371,346.124,319,346" style="stroke:#181818;stroke-width:0.5;"/><polygon fill="#C2C2C2" points="485.8108,370.9667,484.1984,373.1698,482.2912,376.3967,479.5636,378.5714,476.6974,379.7606,474.412,379.8638,471.4747,378.3766,468.7032,377.4049,466.5995,375.4322,465.4961,373.1738,464.8417,371.3756,464.2006,369.0267,463.16,367.0055,463.9596,365.032,464.6602,362.8702,467.2893,361.1605,469.139,358.9421,471.4284,358.2055,474.1501,357.5711,477.6404,357.948,479.5521,358.8495,481.7747,359.2582,484.4772,362.027,485.4193,364.95,485.8286,366.9444,485.365,370.2309" style="stroke:#181818;stroke-width:1.0;"/><path d="M477.5156,364.166 Q477.6719,363.9473 477.8594,363.8379 Q478.0469,363.7285 478.2656,363.7285 Q478.6406,363.7285 478.875,363.9941 Q479.1094,364.2441 479.1094,364.8535 L479.1094,366.3066 Q479.1094,366.916 478.875,367.1816 Q478.6406,367.4473 478.2656,367.4473 Q477.9219,367.4473 477.7188,367.2441 Q477.5156,367.0566 477.4063,366.541 Q477.3594,366.1816 477.1719,365.9941 Q476.8438,365.6191 476.2344,365.4004 Q475.625,365.1816 475,365.1816 Q474.2344,365.1816 473.5938,365.5098 Q472.9688,365.8379 472.4688,366.5879 Q471.9844,367.3379 471.9844,368.3691 L471.9844,369.4629 Q471.9844,370.6973 472.875,371.5254 Q473.7656,372.3379 475.3594,372.3379 Q476.2969,372.3379 476.9531,372.0879 Q477.3438,371.9316 477.7656,371.4941 Q478.0313,371.2285 478.1719,371.1504 Q478.3281,371.0723 478.5313,371.0723 Q478.8594,371.0723 479.1094,371.3379 Q479.375,371.5879 479.375,371.9316 Q479.375,372.2754 479.0313,372.6816 Q478.5313,373.2598 477.7344,373.5879 Q476.6563,374.041 475.3594,374.041 Q473.8438,374.041 472.6406,373.416 Q471.6563,372.916 470.9688,371.8535 Q470.2813,370.7754 470.2813,369.4941 L470.2813,368.3379 Q470.2813,367.0098 470.8906,365.8691 Q471.5156,364.7129 472.6094,364.1035 Q473.7031,363.4785 474.9375,363.4785 Q475.6719,363.4785 476.3125,363.6504 Q476.9688,363.8066 477.5156,364.166 Z " fill="#000000"/><text fill="#000000" font-family="FG Virgil" font-size="12" font-style="italic" lengthAdjust="spacing" textLength="53" x="511.25" y="363.9492">&#171;service&#187;</text><text fill="#000000" font-family="FG Virgil" font-size="14" lengthAdjust="spacing" textLength="85" x="495.25" y="382.0684">BoardService</text><path d="M317.5,390.582 L317.5,390.8623 L327.4512,390.0296 L337.4024,390.8397 L347.3537,391.1149 L357.3049,389.6308 L367.2561,390.4784 L377.2073,390.0134 L387.1585,390.0707 L397.1098,390.4912 L407.061,389.6602 L417.0122,391.3202 L426.9634,389.7417 L436.9146,390.3183 L446.8659,391.158 L456.8171,390.4677 L466.7683,390.673 L476.7195,390.5394 L486.6707,390.8201 L496.622,390.9009 L506.5732,391.363 L516.5244,391.4768 L526.4756,391.4877 L536.4268,390.9215 L546.378,391.2001 L556.3293,391.5183 L566.2805,389.6205 L576.2317,391.4867 L586.1829,390.1867 L596.1341,391.2938 L606.0854,389.922 L616.0366,390.4907 L625.9878,391.5708 L635.939,390.5171 L645.8902,390.7224 L655.8415,391.0335 L665.7927,391.137 L675.7439,390.5768 L685.6951,390.965 L695.6463,389.8188 L705.5976,390.9612 L715.5488,391.313 L725.5,390.582 " fill="#F1F1F1" style="stroke:#181818;stroke-width:0.5;"/><path d="M317.5,398.582 L317.5,398.8623 L327.4512,398.0296 L337.4024,398.8397 L347.3537,399.1149 L357.3049,397.6308 L367.2561,398.4784 L377.2073,398.0134 L387.1585,398.0707 L397.1098,398.4912 L407.061,397.6602 L417.0122,399.3202 L426.9634,397.7417 L436.9146,398.3183 L446.8659,399.158 L456.8171,398.4677 L466.7683,398.673 L476.7195,398.5394 L486.6707,398.8201 L496.622,398.9009 L506.5732,399.363 L516.5244,399.4768 L526.4756,399.4877 L536.4268,398.9215 L546.378,399.2001 L556.3293,399.5183 L566.2805,397.6205 L576.2317,399.4867 L586.1829,398.1867 L596.1341,399.2938 L606.0854,397.922 L616.0366,398.4907 L625.9878,399.5708 L635.939,398.5171 L645.8902,398.7224 L655.8415,399.0335 L665.7927,399.137 L675.7439,398.5768 L685.6951,398.965 L695.6463,397.8188 L705.5976,398.9612 L715.5488,399.313 L725.5,398.582 " fill="#F1F1F1" style="stroke:#181818;stroke-width:0.5;"/><text fill="#000000" font-family="FG Virgil" font-size="14" lengthAdjust="spacing" textLength="398" x="322.5" y="417.6895">addToBoard(Board board,User user,AccessLevel accessLevel)</text><text fill="#000000" font-family="FG Virgil" font-size="14" lengthAdjust="spacing" textLength="246" x="322.5" y="436.3105">confirmLevel(AccessLevel accessLevel</text></g><!--class BoardRepository--><g id="elem_BoardRepository"><polygon fill="#F1F1F1" points="190.5,504,190.5,504.2102,200.2333,503.5857,209.9667,504.1933,219.7,504.3997,229.4333,503.2866,239.1667,503.9223,248.9,503.5735,258.6333,503.6165,268.3667,503.9318,278.1,503.3086,287.8333,504.5536,297.5667,503.3697,307.3,503.8022,317.0333,504.4319,326.7667,503.9142,336.5,504,336.5087,504.021,336.8495,504.1366,337.2299,504.3479,337.5912,504.513,337.9889,504.7662,338.2678,504.7322,338.4744,504.8178,338.6234,505.1724,338.6391,505.4718,338.8499,505.852,339.0698,506.236,339,506.5,338.2788,506.5,339.6785,516.8138,338.7035,527.1276,339.5338,537.4414,338.505,547.7552,338.9315,558.069,339.7416,568.3828,338.9513,578.6966,339.1053,589.0104,339,599.3242,339.1043,599.3674,338.9817,599.7309,338.7059,600.0308,338.6491,600.4215,338.2379,600.6654,338.2678,601.092,338.304,601.1796,337.9841,601.4073,337.6174,601.5218,337.2853,601.7201,336.7919,601.529,336.5,601.8242,336.5,601.172,326.7667,601.2028,317.0333,601.7653,307.3,601.6277,297.5667,602.5056,287.8333,601.6495,278.1,601.4812,268.3667,602.0525,258.6333,601.1574,248.9,601.3051,239.1667,602.4732,229.4333,602.2599,219.7,602.5587,209.9667,601.5024,200.2333,602.1434,190.5,601.8242,190.5753,602.006,190.0862,601.5323,189.7807,601.5018,189.4554,601.4237,189.1689,601.4391,188.7322,601.092,188.7309,601.0915,188.7282,600.7974,188.2688,600.3142,188.0843,599.9449,188.3015,599.742,188,599.3242,187.2831,599.3242,188.509,589.0104,188.2066,578.6966,187.7321,568.3828,187.6462,558.069,188.4588,547.7552,187.7007,537.4414,188.5919,527.1276,187.4473,516.8138,188,506.5,188.1901,506.5788,188.2956,506.2082,188.3683,505.8241,188.4539,505.4454,188.8096,505.1785,188.7322,504.7322,188.8105,504.9212,189.1074,504.6379,189.4736,504.5219,189.7763,504.2528,190.2378,504.3671,190.5,504" style="stroke:#181818;stroke-width:0.5;"/><polygon fill="#C2C2C2" points="219.9108,528.9667,218.2984,531.1698,216.3912,534.3967,213.6636,536.5714,210.7974,537.7606,208.512,537.8638,205.5747,536.3766,202.8032,535.4049,200.6995,533.4322,199.5961,531.1738,198.9417,529.3756,198.3006,527.0267,197.26,525.0055,198.0596,523.032,198.7602,520.8702,201.3893,519.1605,203.239,516.9421,205.5284,516.2055,208.2501,515.5711,211.7404,515.948,213.6521,516.8495,215.8747,517.2582,218.5772,520.027,219.5193,522.95,219.9286,524.9444,219.465,528.2309" style="stroke:#181818;stroke-width:1.0;"/><path d="M211.6156,522.166 Q211.7719,521.9473 211.9594,521.8379 Q212.1469,521.7285 212.3656,521.7285 Q212.7406,521.7285 212.975,521.9941 Q213.2094,522.2441 213.2094,522.8535 L213.2094,524.3066 Q213.2094,524.916 212.975,525.1816 Q212.7406,525.4473 212.3656,525.4473 Q212.0219,525.4473 211.8188,525.2441 Q211.6156,525.0566 211.5063,524.541 Q211.4594,524.1816 211.2719,523.9941 Q210.9438,523.6191 210.3344,523.4004 Q209.725,523.1816 209.1,523.1816 Q208.3344,523.1816 207.6938,523.5098 Q207.0688,523.8379 206.5688,524.5879 Q206.0844,525.3379 206.0844,526.3691 L206.0844,527.4629 Q206.0844,528.6973 206.975,529.5254 Q207.8656,530.3379 209.4594,530.3379 Q210.3969,530.3379 211.0531,530.0879 Q211.4438,529.9316 211.8656,529.4941 Q212.1313,529.2285 212.2719,529.1504 Q212.4281,529.0723 212.6313,529.0723 Q212.9594,529.0723 213.2094,529.3379 Q213.475,529.5879 213.475,529.9316 Q213.475,530.2754 213.1313,530.6816 Q212.6313,531.2598 211.8344,531.5879 Q210.7563,532.041 209.4594,532.041 Q207.9438,532.041 206.7406,531.416 Q205.7563,530.916 205.0688,529.8535 Q204.3813,528.7754 204.3813,527.4941 L204.3813,526.3379 Q204.3813,525.0098 204.9906,523.8691 Q205.6156,522.7129 206.7094,522.1035 Q207.8031,521.4785 209.0375,521.4785 Q209.7719,521.4785 210.4125,521.6504 Q211.0688,521.8066 211.6156,522.166 Z " fill="#000000"/><text fill="#000000" font-family="FG Virgil" font-size="12" font-style="italic" lengthAdjust="spacing" textLength="68" x="243.15" y="521.9492">&#171;repository&#187;</text><text fill="#000000" font-family="FG Virgil" font-size="14" lengthAdjust="spacing" textLength="106" x="224.15" y="540.0684">BoardRepository</text><path d="M189,548.582 L189,548.8623 L198.9333,548.0296 L208.8667,548.8397 L218.8,549.1149 L228.7333,547.6308 L238.6667,548.4784 L248.6,548.0134 L258.5333,548.0707 L268.4667,548.4912 L278.4,547.6602 L288.3333,549.3202 L298.2667,547.7417 L308.2,548.3183 L318.1333,549.158 L328.0667,548.4677 L338,548.582 " fill="#F1F1F1" style="stroke:#181818;stroke-width:0.5;"/><path d="M189,556.582 L189,556.8623 L198.9333,556.0296 L208.8667,556.8397 L218.8,557.1149 L228.7333,555.6308 L238.6667,556.4784 L248.6,556.0134 L258.5333,556.0707 L268.4667,556.4912 L278.4,555.6602 L288.3333,557.3202 L298.2667,555.7417 L308.2,556.3183 L318.1333,557.158 L328.0667,556.4677 L338,556.582 " fill="#F1F1F1" style="stroke:#181818;stroke-width:0.5;"/><text fill="#000000" font-family="FG Virgil" font-size="14" lengthAdjust="spacing" textLength="119" x="194" y="575.6895">save(Board board)</text><text fill="#000000" font-family="FG Virgil" font-size="14" lengthAdjust="spacing" textLength="139" x="194" y="594.3105">findById(long boardId)</text></g><!--class UserRepository--><g id="elem_UserRepository"><polygon fill="#F1F1F1" points="764.5,355.5,764.5,355.7102,774.6379,355.0857,784.7759,355.6933,794.9138,355.8997,805.0517,354.7866,815.1897,355.4223,825.3276,355.0735,835.4655,355.1165,845.6034,355.4318,855.7414,354.8086,865.8793,356.0536,876.0172,354.8697,886.1552,355.3022,896.2931,355.9319,906.431,355.4142,916.569,355.5682,926.7069,355.4681,936.8448,355.6785,946.9828,355.7391,957.1207,356.0857,967.2586,356.1711,977.3966,356.1793,987.5345,355.7546,997.6724,355.9636,1007.8103,356.2022,1017.9483,354.7788,1028.0862,356.1785,1038.2241,355.2035,1048.3621,356.0338,1058.5,355.5,1058.4369,355.3476,1058.8448,355.6254,1059.3017,356.0213,1059.5544,355.9243,1059.9276,356.1182,1060.2678,356.2322,1060.3721,356.2754,1060.5424,356.6389,1060.5595,356.9388,1060.7956,357.3295,1060.6773,357.5734,1061,358,1061.2844,358,1061.5482,368.6004,1061.4445,379.2009,1061.613,389.8013,1060.5169,400.4018,1060.3478,411.0022,1060.3786,421.6027,1061,432.2031,1060.9819,432.1956,1060.793,432.5316,1060.917,432.9972,1060.5069,433.2415,1060.3086,433.5736,1060.2678,433.9709,1060.2969,434.0412,1059.8292,433.912,1059.4944,434.1039,1059.2899,434.6101,1058.9091,434.6908,1058.5,434.7031,1058.5,435.4376,1048.3621,434.3813,1038.2241,435.0223,1028.0862,435.2935,1017.9483,434.2307,1007.8103,434.6073,997.6724,434.8291,987.5345,435.3549,977.3966,434.6989,967.2586,435.1657,957.1207,434.1493,946.9828,434.0259,936.8448,435.2067,926.7069,433.9862,916.569,435.2121,906.431,434.9098,896.2931,434.4352,886.1552,434.3494,876.0172,435.1619,865.8793,434.4038,855.7414,435.295,845.6034,434.1504,835.4655,435.3206,825.3276,435.1874,815.1897,434.9481,805.0517,434.7503,794.9138,435.4297,784.7759,435.3167,774.6379,434.8724,764.5,434.7031,764.5342,434.7857,764.1298,434.5166,763.8843,434.6309,763.4591,434.3115,763.1078,434.1705,762.7322,433.9709,762.5449,433.8933,762.461,433.5656,762.6028,433.3315,762.4252,432.9651,762.1332,432.5512,762,432.2031,761.6778,432.2031,761.7811,421.6027,761.3138,411.0022,762.4147,400.4018,762.7396,389.8013,762.5264,379.2009,762.6949,368.6004,762,358,761.9579,357.9826,762.1733,357.6576,762.1735,357.2435,762.5268,356.9756,762.6618,356.6173,762.7322,356.2322,762.8027,356.4023,763.0565,356.0151,763.4222,355.8979,763.8495,355.9295,764.2188,355.8212,764.5,355.5" style="stroke:#181818;stroke-width:0.5;"/><polygon fill="#C2C2C2" points="869.8108,380.4667,868.1984,382.6698,866.2912,385.8967,863.5636,388.0714,860.6974,389.2606,858.412,389.3638,855.4747,387.8766,852.7032,386.9049,850.5995,384.9322,849.4961,382.6738,848.8417,380.8756,848.2006,378.5267,847.16,376.5055,847.9596,374.532,848.6602,372.3702,851.2893,370.6605,853.139,368.4421,855.4284,367.7055,858.1501,367.0711,861.6404,367.448,863.5521,368.3495,865.7747,368.7582,868.4772,371.527,869.4193,374.45,869.8286,376.4444,869.365,379.7309" style="stroke:#181818;stroke-width:1.0;"/><path d="M861.5156,373.666 Q861.6719,373.4473 861.8594,373.3379 Q862.0469,373.2285 862.2656,373.2285 Q862.6406,373.2285 862.875,373.4941 Q863.1094,373.7441 863.1094,374.3535 L863.1094,375.8066 Q863.1094,376.416 862.875,376.6816 Q862.6406,376.9473 862.2656,376.9473 Q861.9219,376.9473 861.7188,376.7441 Q861.5156,376.5566 861.4063,376.041 Q861.3594,375.6816 861.1719,375.4941 Q860.8438,375.1191 860.2344,374.9004 Q859.625,374.6816 859,374.6816 Q858.2344,374.6816 857.5938,375.0098 Q856.9688,375.3379 856.4688,376.0879 Q855.9844,376.8379 855.9844,377.8691 L855.9844,378.9629 Q855.9844,380.1973 856.875,381.0254 Q857.7656,381.8379 859.3594,381.8379 Q860.2969,381.8379 860.9531,381.5879 Q861.3438,381.4316 861.7656,380.9941 Q862.0313,380.7285 862.1719,380.6504 Q862.3281,380.5723 862.5313,380.5723 Q862.8594,380.5723 863.1094,380.8379 Q863.375,381.0879 863.375,381.4316 Q863.375,381.7754 863.0313,382.1816 Q862.5313,382.7598 861.7344,383.0879 Q860.6563,383.541 859.3594,383.541 Q857.8438,383.541 856.6406,382.916 Q855.6563,382.416 854.9688,381.3535 Q854.2813,380.2754 854.2813,378.9941 L854.2813,377.8379 Q854.2813,376.5098 854.8906,375.3691 Q855.5156,374.2129 856.6094,373.6035 Q857.7031,372.9785 858.9375,372.9785 Q859.6719,372.9785 860.3125,373.1504 Q860.9688,373.3066 861.5156,373.666 Z " fill="#000000"/><text fill="#000000" font-family="FG Virgil" font-size="12" font-style="italic" lengthAdjust="spacing" textLength="68" x="893.75" y="373.4492">&#171;repository&#187;</text><text fill="#000000" font-family="FG Virgil" font-size="14" lengthAdjust="spacing" textLength="97" x="879.25" y="391.5684">UserRepository</text><path d="M763,400.082 L763,400.3623 L772.9,399.5296 L782.8,400.3397 L792.7,400.6149 L802.6,399.1308 L812.5,399.9784 L822.4,399.5134 L832.3,399.5707 L842.2,399.9912 L852.1,399.1602 L862,400.8202 L871.9,399.2417 L881.8,399.8183 L891.7,400.658 L901.6,399.9677 L911.5,400.173 L921.4,400.0394 L931.3,400.3201 L941.2,400.4009 L951.1,400.863 L961,400.9768 L970.9,400.9877 L980.8,400.4215 L990.7,400.7001 L1000.6,401.0183 L1010.5,399.1205 L1020.4,400.9867 L1030.3,399.6867 L1040.2,400.7938 L1050.1,399.422 L1060,400.082 " fill="#F1F1F1" style="stroke:#181818;stroke-width:0.5;"/><path d="M763,408.082 L763,408.3623 L772.9,407.5296 L782.8,408.3397 L792.7,408.6149 L802.6,407.1308 L812.5,407.9784 L822.4,407.5134 L832.3,407.5707 L842.2,407.9912 L852.1,407.1602 L862,408.8202 L871.9,407.2417 L881.8,407.8183 L891.7,408.658 L901.6,407.9677 L911.5,408.173 L921.4,408.0394 L931.3,408.3201 L941.2,408.4009 L951.1,408.863 L961,408.9768 L970.9,408.9877 L980.8,408.4215 L990.7,408.7001 L1000.6,409.0183 L1010.5,407.1205 L1020.4,408.9867 L1030.3,407.6867 L1040.2,408.7938 L1050.1,407.422 L1060,408.082 " fill="#F1F1F1" style="stroke:#181818;stroke-width:0.5;"/><text fill="#000000" font-family="FG Virgil" font-size="14" lengthAdjust="spacing" textLength="287" x="768" y="427.1895">findUserByEmail(EmailAddress emailAddress)</text></g><!--class Board--><g id="elem_Board"><polygon fill="#F1F1F1" points="377,513.5,377,513.7102,386.9655,513.0857,396.931,513.6933,406.8966,513.8997,416.8621,512.7866,426.8276,513.4223,436.7931,513.0735,446.7586,513.1165,456.7241,513.4318,466.6897,512.8086,476.6552,514.0536,486.6207,512.8697,496.5862,513.3022,506.5517,513.9319,516.5172,513.4142,526.4828,513.5682,536.4483,513.4681,546.4138,513.6785,556.3793,513.7391,566.3448,514.0857,576.3103,514.1711,586.2759,514.1793,596.2414,513.7546,606.2069,513.9636,616.1724,514.2022,626.1379,512.7788,636.1034,514.1785,646.069,513.2035,656.0345,514.0338,666,513.5,665.9369,513.3476,666.3448,513.6254,666.8017,514.0213,667.0544,513.9243,667.4276,514.1182,667.7678,514.2322,667.8721,514.2754,668.0424,514.6389,668.0595,514.9388,668.2956,515.3295,668.1773,515.5734,668.5,516,668.7844,516,669.0482,526.6004,668.9445,537.2009,669.113,547.8013,668.0169,558.4018,667.8478,569.0022,667.8786,579.6027,668.5,590.2031,668.4819,590.1956,668.293,590.5316,668.417,590.9972,668.0069,591.2415,667.8086,591.5736,667.7678,591.9709,667.7969,592.0412,667.3292,591.912,666.9944,592.1039,666.7899,592.6101,666.4091,592.6908,666,592.7031,666,593.4376,656.0345,592.3813,646.069,593.0223,636.1034,593.2935,626.1379,592.2307,616.1724,592.6073,606.2069,592.8291,596.2414,593.3549,586.2759,592.6989,576.3103,593.1657,566.3448,592.1493,556.3793,592.0259,546.4138,593.2067,536.4483,591.9862,526.4828,593.2121,516.5172,592.9098,506.5517,592.4352,496.5862,592.3494,486.6207,593.1619,476.6552,592.4038,466.6897,593.295,456.7241,592.1504,446.7586,593.3206,436.7931,593.1874,426.8276,592.9481,416.8621,592.7503,406.8966,593.4297,396.931,593.3167,386.9655,592.8724,377,592.7031,377.0342,592.7857,376.6298,592.5166,376.3843,592.6309,375.9591,592.3115,375.6078,592.1705,375.2322,591.9709,375.0449,591.8933,374.961,591.5656,375.1028,591.3315,374.9252,590.9651,374.6332,590.5512,374.5,590.2031,374.1778,590.2031,374.2811,579.6027,373.8138,569.0022,374.9147,558.4018,375.2396,547.8013,375.0264,537.2009,375.1949,526.6004,374.5,516,374.4579,515.9826,374.6733,515.6576,374.6735,515.2435,375.0268,514.9756,375.1618,514.6173,375.2322,514.2322,375.3027,514.4023,375.5565,514.0151,375.9222,513.8979,376.3495,513.9295,376.7188,513.8212,377,513.5" style="stroke:#181818;stroke-width:0.5;"/><polygon fill="#C2C2C2" points="502.3108,538.4667,500.6984,540.6698,498.7912,543.8967,496.0636,546.0714,493.1974,547.2606,490.912,547.3638,487.9747,545.8766,485.2032,544.9049,483.0995,542.9322,481.9961,540.6738,481.3417,538.8756,480.7006,536.5267,479.66,534.5055,480.4596,532.532,481.1602,530.3702,483.7893,528.6605,485.639,526.4421,487.9284,525.7055,490.6501,525.0711,494.1404,525.448,496.0521,526.3495,498.2747,526.7582,500.9772,529.527,501.9193,532.45,502.3286,534.4444,501.865,537.7309" style="stroke:#181818;stroke-width:1.0;"/><path d="M494.0156,531.666 Q494.1719,531.4473 494.3594,531.3379 Q494.5469,531.2285 494.7656,531.2285 Q495.1406,531.2285 495.375,531.4941 Q495.6094,531.7441 495.6094,532.3535 L495.6094,533.8066 Q495.6094,534.416 495.375,534.6816 Q495.1406,534.9473 494.7656,534.9473 Q494.4219,534.9473 494.2188,534.7441 Q494.0156,534.5566 493.9063,534.041 Q493.8594,533.6816 493.6719,533.4941 Q493.3438,533.1191 492.7344,532.9004 Q492.125,532.6816 491.5,532.6816 Q490.7344,532.6816 490.0938,533.0098 Q489.4688,533.3379 488.9688,534.0879 Q488.4844,534.8379 488.4844,535.8691 L488.4844,536.9629 Q488.4844,538.1973 489.375,539.0254 Q490.2656,539.8379 491.8594,539.8379 Q492.7969,539.8379 493.4531,539.5879 Q493.8438,539.4316 494.2656,538.9941 Q494.5313,538.7285 494.6719,538.6504 Q494.8281,538.5723 495.0313,538.5723 Q495.3594,538.5723 495.6094,538.8379 Q495.875,539.0879 495.875,539.4316 Q495.875,539.7754 495.5313,540.1816 Q495.0313,540.7598 494.2344,541.0879 Q493.1563,541.541 491.8594,541.541 Q490.3438,541.541 489.1406,540.916 Q488.1563,540.416 487.4688,539.3535 Q486.7813,538.2754 486.7813,536.9941 L486.7813,535.8379 Q486.7813,534.5098 487.3906,533.3691 Q488.0156,532.2129 489.1094,531.6035 Q490.2031,530.9785 491.4375,530.9785 Q492.1719,530.9785 492.8125,531.1504 Q493.4688,531.3066 494.0156,531.666 Z " fill="#000000"/><text fill="#000000" font-family="FG Virgil" font-size="12" font-style="italic" lengthAdjust="spacing" textLength="56" x="509.75" y="531.4492">&#171;domain&#187;</text><text fill="#000000" font-family="FG Virgil" font-size="14" lengthAdjust="spacing" textLength="38" x="518.75" y="549.5684">Board</text><path d="M375.5,558.082 L375.5,558.3623 L385.569,557.5296 L395.6379,558.3397 L405.7069,558.6149 L415.7759,557.1308 L425.8448,557.9784 L435.9138,557.5134 L445.9828,557.5707 L456.0517,557.9912 L466.1207,557.1602 L476.1897,558.8202 L486.2586,557.2417 L496.3276,557.8183 L506.3966,558.658 L516.4655,557.9677 L526.5345,558.173 L536.6034,558.0394 L546.6724,558.3201 L556.7414,558.4009 L566.8103,558.863 L576.8793,558.9768 L586.9483,558.9877 L597.0172,558.4215 L607.0862,558.7001 L617.1552,559.0183 L627.2241,557.1205 L637.2931,558.9867 L647.3621,557.6867 L657.431,558.7938 L667.5,558.082 " fill="#F1F1F1" style="stroke:#181818;stroke-width:0.5;"/><path d="M375.5,566.082 L375.5,566.3623 L385.569,565.5296 L395.6379,566.3397 L405.7069,566.6149 L415.7759,565.1308 L425.8448,565.9784 L435.9138,565.5134 L445.9828,565.5707 L456.0517,565.9912 L466.1207,565.1602 L476.1897,566.8202 L486.2586,565.2417 L496.3276,565.8183 L506.3966,566.658 L516.4655,565.9677 L526.5345,566.173 L536.6034,566.0394 L546.6724,566.3201 L556.7414,566.4009 L566.8103,566.863 L576.8793,566.9768 L586.9483,566.9877 L597.0172,566.4215 L607.0862,566.7001 L617.1552,567.0183 L627.2241,565.1205 L637.2931,566.9867 L647.3621,565.6867 L657.431,566.7938 L667.5,566.082 " fill="#F1F1F1" style="stroke:#181818;stroke-width:0.5;"/><text fill="#000000" font-family="FG Virgil" font-size="14" lengthAdjust="spacing" textLength="282" x="380.5" y="585.1895">addPermission(BoardPermission permission)</text></g><!--class BoardPermFactory--><g id="elem_BoardPermFactory"><polygon fill="#F1F1F1" points="493,7,493,7.2102,502.8966,6.5857,512.7931,7.1933,522.6897,7.3997,532.5862,6.2866,542.4828,6.9223,552.3793,6.5735,562.2759,6.6165,572.1724,6.9318,582.069,6.3086,591.9655,7.5536,601.8621,6.3697,611.7586,6.8022,621.6552,7.4319,631.5517,6.9142,641.4483,7.0682,651.3448,6.9681,661.2414,7.1785,671.1379,7.2391,681.0345,7.5857,690.931,7.6711,700.8276,7.6793,710.7241,7.2546,720.6207,7.4636,730.5172,7.7022,740.4138,6.2788,750.3103,7.6785,760.2069,6.7035,770.1034,7.5338,780,7,779.9369,6.8476,780.3448,7.1254,780.8017,7.5213,781.0544,7.4243,781.4276,7.6182,781.7678,7.7322,781.8721,7.7754,782.0424,8.1389,782.0595,8.4388,782.2956,8.8295,782.1773,9.0734,782.5,9.5,782.7844,9.5,783.0482,20.1004,782.9445,30.7009,783.113,41.3013,782.0169,51.9018,781.8478,62.5022,781.8786,73.1027,782.5,83.7031,782.4819,83.6956,782.293,84.0316,782.417,84.4972,782.0069,84.7415,781.8086,85.0736,781.7678,85.4709,781.7969,85.5412,781.3292,85.412,780.9944,85.6039,780.7899,86.1101,780.4091,86.1908,780,86.2031,780,86.9376,770.1034,85.8813,760.2069,86.5223,750.3103,86.7935,740.4138,85.7307,730.5172,86.1073,720.6207,86.3291,710.7241,86.8549,700.8276,86.1989,690.931,86.6657,681.0345,85.6493,671.1379,85.5259,661.2414,86.7067,651.3448,85.4862,641.4483,86.7121,631.5517,86.4098,621.6552,85.9352,611.7586,85.8494,601.8621,86.6619,591.9655,85.9038,582.069,86.795,572.1724,85.6504,562.2759,86.8206,552.3793,86.6874,542.4828,86.4481,532.5862,86.2503,522.6897,86.9297,512.7931,86.8167,502.8966,86.3724,493,86.2031,493.0342,86.2857,492.6298,86.0166,492.3843,86.1309,491.9591,85.8115,491.6078,85.6705,491.2322,85.4709,491.0449,85.3933,490.961,85.0656,491.1028,84.8315,490.9252,84.4651,490.6332,84.0512,490.5,83.7031,490.1778,83.7031,490.2811,73.1027,489.8138,62.5022,490.9147,51.9018,491.2396,41.3013,491.0264,30.7009,491.1949,20.1004,490.5,9.5,490.4579,9.4826,490.6733,9.1576,490.6735,8.7435,491.0268,8.4756,491.1618,8.1173,491.2322,7.7322,491.3027,7.9023,491.5565,7.5151,491.9222,7.3979,492.3495,7.4295,492.7188,7.3212,493,7" style="stroke:#181818;stroke-width:0.5;"/><polygon fill="#C2C2C2" points="583.8108,31.9667,582.1984,34.1698,580.2912,37.3967,577.5636,39.5714,574.6974,40.7606,572.412,40.8638,569.4747,39.3766,566.7032,38.4049,564.5995,36.4322,563.4961,34.1738,562.8417,32.3756,562.2006,30.0267,561.16,28.0055,561.9596,26.032,562.6602,23.8702,565.2893,22.1605,567.139,19.9421,569.4284,19.2055,572.1501,18.5711,575.6404,18.948,577.5521,19.8495,579.7747,20.2582,582.4772,23.027,583.4193,25.95,583.8286,27.9444,583.365,31.2309" style="stroke:#181818;stroke-width:1.0;"/><path d="M575.5156,25.166 Q575.6719,24.9473 575.8594,24.8379 Q576.0469,24.7285 576.2656,24.7285 Q576.6406,24.7285 576.875,24.9941 Q577.1094,25.2441 577.1094,25.8535 L577.1094,27.3066 Q577.1094,27.916 576.875,28.1816 Q576.6406,28.4473 576.2656,28.4473 Q575.9219,28.4473 575.7188,28.2441 Q575.5156,28.0566 575.4063,27.541 Q575.3594,27.1816 575.1719,26.9941 Q574.8438,26.6191 574.2344,26.4004 Q573.625,26.1816 573,26.1816 Q572.2344,26.1816 571.5938,26.5098 Q570.9688,26.8379 570.4688,27.5879 Q569.9844,28.3379 569.9844,29.3691 L569.9844,30.4629 Q569.9844,31.6973 570.875,32.5254 Q571.7656,33.3379 573.3594,33.3379 Q574.2969,33.3379 574.9531,33.0879 Q575.3438,32.9316 575.7656,32.4941 Q576.0313,32.2285 576.1719,32.1504 Q576.3281,32.0723 576.5313,32.0723 Q576.8594,32.0723 577.1094,32.3379 Q577.375,32.5879 577.375,32.9316 Q577.375,33.2754 577.0313,33.6816 Q576.5313,34.2598 575.7344,34.5879 Q574.6563,35.041 573.3594,35.041 Q571.8438,35.041 570.6406,34.416 Q569.6563,33.916 568.9688,32.8535 Q568.2813,31.7754 568.2813,30.4941 L568.2813,29.3379 Q568.2813,28.0098 568.8906,26.8691 Q569.5156,25.7129 570.6094,25.1035 Q571.7031,24.4785 572.9375,24.4785 Q573.6719,24.4785 574.3125,24.6504 Q574.9688,24.8066 575.5156,25.166 Z " fill="#000000"/><text fill="#000000" font-family="FG Virgil" font-size="12" font-style="italic" lengthAdjust="spacing" textLength="50" x="627.75" y="24.9492">&#171;factory&#187;</text><text fill="#000000" font-family="FG Virgil" font-size="14" lengthAdjust="spacing" textLength="119" x="593.25" y="43.0684">BoardPermFactory</text><path d="M491.5,51.582 L491.5,51.8623 L501.5,51.0296 L511.5,51.8397 L521.5,52.1149 L531.5,50.6308 L541.5,51.4784 L551.5,51.0134 L561.5,51.0707 L571.5,51.4912 L581.5,50.6602 L591.5,52.3202 L601.5,50.7417 L611.5,51.3183 L621.5,52.158 L631.5,51.4677 L641.5,51.673 L651.5,51.5394 L661.5,51.8201 L671.5,51.9009 L681.5,52.363 L691.5,52.4768 L701.5,52.4877 L711.5,51.9215 L721.5,52.2001 L731.5,52.5183 L741.5,50.6205 L751.5,52.4867 L761.5,51.1867 L771.5,52.2938 L781.5,51.582 " fill="#F1F1F1" style="stroke:#181818;stroke-width:0.5;"/><path d="M491.5,59.582 L491.5,59.8623 L501.5,59.0296 L511.5,59.8397 L521.5,60.1149 L531.5,58.6308 L541.5,59.4784 L551.5,59.0134 L561.5,59.0707 L571.5,59.4912 L581.5,58.6602 L591.5,60.3202 L601.5,58.7417 L611.5,59.3183 L621.5,60.158 L631.5,59.4677 L641.5,59.673 L651.5,59.5394 L661.5,59.8201 L671.5,59.9009 L681.5,60.363 L691.5,60.4768 L701.5,60.4877 L711.5,59.9215 L721.5,60.2001 L731.5,60.5183 L741.5,58.6205 L751.5,60.4867 L761.5,59.1867 L771.5,60.2938 L781.5,59.582 " fill="#F1F1F1" style="stroke:#181818;stroke-width:0.5;"/><text fill="#000000" font-family="FG Virgil" font-size="14" lengthAdjust="spacing" textLength="280" x="496.5" y="78.6895">create(User user, AccessLevel accessLevel)</text></g><!--class BoardPermission--><g id="elem_BoardPermission"><polygon fill="#F1F1F1" points="820.5,7,820.5,7.2102,830.5,6.5857,840.5,7.1933,850.5,7.3997,860.5,6.2866,870.5,6.9223,880.5,6.5735,890.5,6.6165,900.5,6.9318,910.5,6.3086,920.5,7.5536,930.5,6.3697,940.5,6.8022,950.5,7.4319,960.5,6.9142,970.5,7.0682,980.5,6.9681,990.5,7.1785,1000.5,7.2391,1010.5,7.5857,1020.5,7.6711,1030.5,7.6793,1040.5,7.2546,1050.5,7.4636,1060.5,7.7022,1070.5,6.2788,1080.5,7.6785,1090.5,7,1090.4622,6.9087,1090.9216,7.3108,1091.144,7.1404,1091.5519,7.4182,1092.0088,7.8142,1092.2678,7.7322,1092.2528,7.726,1092.4466,8.0992,1092.6649,8.4825,1092.8353,8.846,1092.8524,9.1459,1093,9.5,1093.2872,9.5,1092.4276,20.1004,1093.2844,30.7009,1093.5482,41.3013,1093.4445,51.9018,1093.613,62.5022,1092.5169,73.1027,1093,83.7031,1092.7992,83.6199,1092.6622,83.9774,1092.689,84.4027,1092.5001,84.7387,1092.6241,85.2043,1092.2678,85.4709,1092.2455,85.4171,1091.8705,85.5117,1091.5898,85.8341,1091.122,85.7049,1090.7873,85.8968,1090.5,86.2031,1090.5,86.8521,1080.5,86.6388,1070.5,86.9376,1060.5,85.8813,1050.5,86.5223,1040.5,86.7935,1030.5,85.7307,1020.5,86.1073,1010.5,86.3291,1000.5,86.8549,990.5,86.1989,980.5,86.6657,970.5,85.6493,960.5,85.5259,950.5,86.7067,940.5,85.4862,930.5,86.7121,920.5,86.4098,910.5,85.9352,900.5,85.8494,890.5,86.6619,880.5,85.9038,870.5,86.795,860.5,85.6504,850.5,86.8206,840.5,86.6874,830.5,86.4481,820.5,86.2031,820.506,86.2177,820.2391,86.2804,819.8712,86.0992,819.4609,85.8159,819.12,85.6999,818.7322,85.4709,818.6921,85.4543,818.8064,85.2087,818.487,84.7835,818.346,84.4322,817.9591,83.9791,818,83.7031,817.5948,83.7031,818.5307,73.1027,818.4298,62.5022,817.9571,51.9018,817.6778,41.3013,817.7811,30.7009,817.3138,20.1004,818,9.5,818.1277,9.5529,818.3742,9.2408,818.455,8.86,818.6534,8.528,818.5437,8.0683,818.7322,7.7322,818.7434,7.7591,819.0363,7.4664,819.4756,7.5268,819.8244,7.3689,820.2169,7.3166,820.5,7" style="stroke:#181818;stroke-width:0.5;"/><polygon fill="#C2C2C2" points="908.8108,31.9667,907.1984,34.1698,905.2912,37.3967,902.5636,39.5714,899.6974,40.7606,897.412,40.8638,894.4747,39.3766,891.7032,38.4049,889.5995,36.4322,888.4961,34.1738,887.8417,32.3756,887.2006,30.0267,886.16,28.0055,886.9596,26.032,887.6602,23.8702,890.2893,22.1605,892.139,19.9421,894.4284,19.2055,897.1501,18.5711,900.6404,18.948,902.5521,19.8495,904.7747,20.2582,907.4772,23.027,908.4193,25.95,908.8286,27.9444,908.365,31.2309" style="stroke:#181818;stroke-width:1.0;"/><path d="M900.5156,25.166 Q900.6719,24.9473 900.8594,24.8379 Q901.0469,24.7285 901.2656,24.7285 Q901.6406,24.7285 901.875,24.9941 Q902.1094,25.2441 902.1094,25.8535 L902.1094,27.3066 Q902.1094,27.916 901.875,28.1816 Q901.6406,28.4473 901.2656,28.4473 Q900.9219,28.4473 900.7188,28.2441 Q900.5156,28.0566 900.4063,27.541 Q900.3594,27.1816 900.1719,26.9941 Q899.8438,26.6191 899.2344,26.4004 Q898.625,26.1816 898,26.1816 Q897.2344,26.1816 896.5938,26.5098 Q895.9688,26.8379 895.4688,27.5879 Q894.9844,28.3379 894.9844,29.3691 L894.9844,30.4629 Q894.9844,31.6973 895.875,32.5254 Q896.7656,33.3379 898.3594,33.3379 Q899.2969,33.3379 899.9531,33.0879 Q900.3438,32.9316 900.7656,32.4941 Q901.0313,32.2285 901.1719,32.1504 Q901.3281,32.0723 901.5313,32.0723 Q901.8594,32.0723 902.1094,32.3379 Q902.375,32.5879 902.375,32.9316 Q902.375,33.2754 902.0313,33.6816 Q901.5313,34.2598 900.7344,34.5879 Q899.6563,35.041 898.3594,35.041 Q896.8438,35.041 895.6406,34.416 Q894.6563,33.916 893.9688,32.8535 Q893.2813,31.7754 893.2813,30.4941 L893.2813,29.3379 Q893.2813,28.0098 893.8906,26.8691 Q894.5156,25.7129 895.6094,25.1035 Q896.7031,24.4785 897.9375,24.4785 Q898.6719,24.4785 899.3125,24.6504 Q899.9688,24.8066 900.5156,25.166 Z " fill="#000000"/><text fill="#000000" font-family="FG Virgil" font-size="12" font-style="italic" lengthAdjust="spacing" textLength="56" x="943.75" y="24.9492">&#171;domain&#187;</text><text fill="#000000" font-family="FG Virgil" font-size="14" lengthAdjust="spacing" textLength="107" x="918.25" y="43.0684">BoardPermission</text><path d="M819,51.582 L819,51.8623 L829.1111,51.0296 L839.2222,51.8397 L849.3333,52.1149 L859.4444,50.6308 L869.5556,51.4784 L879.6667,51.0134 L889.7778,51.0707 L899.8889,51.4912 L910,50.6602 L920.1111,52.3202 L930.2222,50.7417 L940.3333,51.3183 L950.4444,52.158 L960.5556,51.4677 L970.6667,51.673 L980.7778,51.5394 L990.8889,51.8201 L1001,51.9009 L1011.1111,52.363 L1021.2222,52.4768 L1031.3333,52.4877 L1041.4444,51.9215 L1051.5556,52.2001 L1061.6667,52.5183 L1071.7778,50.6205 L1081.8889,52.4867 L1092,51.582 " fill="#F1F1F1" style="stroke:#181818;stroke-width:0.5;"/><path d="M819,59.582 L819,59.8623 L829.1111,59.0296 L839.2222,59.8397 L849.3333,60.1149 L859.4444,58.6308 L869.5556,59.4784 L879.6667,59.0134 L889.7778,59.0707 L899.8889,59.4912 L910,58.6602 L920.1111,60.3202 L930.2222,58.7417 L940.3333,59.3183 L950.4444,60.158 L960.5556,59.4677 L970.6667,59.673 L980.7778,59.5394 L990.8889,59.8201 L1001,59.9009 L1011.1111,60.363 L1021.2222,60.4768 L1031.3333,60.4877 L1041.4444,59.9215 L1051.5556,60.2001 L1061.6667,60.5183 L1071.7778,58.6205 L1081.8889,60.4867 L1092,59.582 " fill="#F1F1F1" style="stroke:#181818;stroke-width:0.5;"/><text fill="#000000" font-family="FG Virgil" font-size="14" lengthAdjust="spacing" textLength="263" x="824" y="78.6895">changeAccess(AccessLevel accessLevel)</text></g><!--link HttpServerAjax to ShareBoardController--><g id="link_HttpServerAjax_ShareBoardController"><path d="M392.5,77.14 L392.7802,77.14 L391.9476,87.5275 L392.7577,97.915 L393.0329,108.3025 L391.5488,118.69 L392.3964,129.0775 L391.9313,139.465 L391.9887,149.8525 L392.4091,160.24 L391.5782,170.6275 L393.2382,181.015 L391.6596,191.4025 L392.5,201.79 " fill="none" style="stroke:#181818;stroke-width:1.0;stroke-dasharray:7.0,7.0;"/><polygon fill="#181818" points="392.5,206.79,392.564,206.8185,393.1738,204.9339,394.1589,203.2162,395.0217,201.4441,395.4827,199.4934,396.5,197.79,396.4817,197.7717,395.5995,198.4895,394.8096,199.2996,394.0839,200.1739,393.137,200.827,392.5,201.79,392.6305,201.9205,391.5514,200.8414,390.8534,200.1434,390.2018,199.4918,389.2798,198.5698,388.5,197.79,388.5208,197.7992,389.2903,199.5857,390.1544,201.4142,390.9728,203.2224,391.8784,205.0693,392.5,206.79" style="stroke:#181818;stroke-width:1.0;"/></g><!--link ShareBoardController to BoardService--><g id="link_ShareBoardController_BoardService"><path d="M426.73,286.37 L426.9403,286.5552 L433.2711,293.9049 L440.8349,302.3403 L447.9971,310.4222 L453.839,317.3414 L461.4308,325.8015 L468.0375,333.3942 L475.42,341.67 " fill="none" style="stroke:#181818;stroke-width:1.0;"/><polygon fill="#181818" points="479.03,345.77,479.0969,345.7909,478.3114,343.8485,477.9179,342.0285,477.3968,340.1687,476.4559,338.1778,476.0961,336.3683,476.0702,336.3666,475.8811,337.4881,475.8222,338.618,475.854,339.7538,475.5736,340.8694,475.7304,342.0133,475.7423,342.1975,474.5878,341.7305,473.4681,341.8013,472.3527,341.9376,471.2125,341.6922,470.0854,341.6476,470.0949,341.6683,471.8698,342.4624,473.6881,343.3506,475.4855,344.1935,477.3228,345.1228,479.03,345.77" style="stroke:#181818;stroke-width:1.0;"/></g><!--link ShareBoardController to BoardRepository--><g id="link_ShareBoardController_BoardRepository"><path d="M345.08,286.26 L345.1466,286.3255 L342.3505,288.7694 L339.9445,291.5975 L337.4115,294.3005 L334.4607,296.592 L332.0883,299.4531 L332.0622,299.4305 L329.4316,302.2309 L326.9326,305.1453 L324.5252,308.1389 L321.8024,310.8595 L319.5213,313.9625 L319.7197,314.108 L317.0088,316.9155 L314.8773,320.1478 L312.8165,323.4319 L310.3444,326.4145 L308.0886,329.5556 L308.1148,329.5709 L306.1586,332.8373 L304.3217,336.1733 L302.4273,339.4758 L300.6426,342.8422 L298.5,346 L298.7696,346.1276 L297.9072,347.9582 L296.8709,349.7065 L296.0892,351.5753 L295.3193,353.4497 L294.1716,355.1452 L293.8762,355.0208 L293.6563,357.1448 L292.4638,358.8591 L292.0108,360.8848 L290.7962,362.5898 L290.2058,364.5577 L290.1773,364.547 L289.7907,366.6003 L288.7382,368.4035 L288.0785,370.3543 L287.4519,372.3174 L286.5873,374.1912 L286.7627,374.25 L285.9283,376.1524 L285.3936,378.1552 L284.374,379.9955 L284.0777,382.0782 L283.3005,383.9997 L283.5339,384.0695 L282.8956,386.0437 L282.3732,388.0526 L281.3123,389.9005 L280.6462,391.8665 L280.3297,393.9369 L280.0629,393.8658 L279.7704,395.9342 L279.1773,397.9224 L279.0203,400.0269 L278.1186,401.9329 L277.6596,403.9568 L277.5112,403.9217 L277.2812,405.9915 L276.4171,407.911 L276.004,409.9374 L276.0321,412.0685 L275.2744,414.0132 L275.4639,414.0531 L275.1707,416.0899 L274.2882,418.0025 L274.1438,420.0705 L273.8387,422.1047 L273.1588,424.06 L272.9523,424.0215 L272.7445,426.0504 L272.4691,428.0666 L272.3265,430.1077 L271.6675,432.0524 L271.297,434.051 L271.4999,434.0843 L270.7295,435.9889 L270.3507,437.9578 L270.5439,440.0207 L269.684,441.9106 L269.6737,443.94 L269.8979,443.9702 L269.246,447.8098 L268.5183,451.6393 L267.9618,455.4917 L267.8009,459.3974 L267.0802,463.2278 L266.9478,463.2146 L266.9766,466.9192 L266.1051,470.534 L266.2573,474.2508 L265.8332,477.9103 L265.2537,481.5542 L265.3623,481.5617 L265.0379,484.9548 L265.1024,488.3749 L264.8155,491.7706 L264.3818,495.1561 L264.07,498.55 " fill="none" style="stroke:#181818;stroke-width:1.0;"/><polygon fill="#181818" points="263.81,503.73,263.8725,503.7617,264.5785,501.9111,265.6508,500.2464,266.6037,498.5211,267.1646,496.5967,268.2683,494.948,268.2509,494.9287,267.3329,495.6001,266.5024,496.3685,265.7326,497.2043,264.7533,497.8078,264.0675,498.7366,264.2046,498.8602,263.1538,497.7558,262.5031,497.0122,261.9013,496.3126,261.0154,495.3569,260.2789,494.5359,260.3001,494.5441,260.9752,496.3709,261.7469,498.2349,262.472,500.0809,263.286,501.9612,263.81,503.73" style="stroke:#181818;stroke-width:1.0;"/></g><!--link ShareBoardController to SessionManager--><g id="link_ShareBoardController_SessionManager"><path d="M317.51,286.18 L317.6385,286.4291 L308.4417,290.2366 L299.9982,295.504 L291.3093,300.2961 L281.8139,303.5247 L273.3875,308.8254 L264.3593,312.9596 L255.5706,317.5581 L246.9483,322.4792 L237.7524,326.2883 L229.6984,332.311 L220.1597,335.4557 L211.6091,340.5157 L203.179,345.8093 L194.0476,349.7434 L185.3267,354.4734 L176.47,358.94 " fill="none" style="stroke:#181818;stroke-width:1.0;"/><polygon fill="#181818" points="171.87,361.31,171.8742,361.3799,173.8281,361.0551,175.8064,361.1402,177.7768,361.0918,179.721,360.6043,181.7014,360.7246,181.6936,360.6999,180.5802,360.2465,179.5063,359.9175,178.4599,359.675,177.3187,359.1344,176.3103,359.0113,176.4862,359.0672,176.4527,357.8695,176.9328,356.8349,177.4755,355.8202,177.6537,354.6897,178.0236,353.6202,178.0413,353.6344,176.7845,355.1515,175.6086,356.7333,174.3937,358.2839,173.2531,359.894,171.87,361.31" style="stroke:#181818;stroke-width:1.0;"/></g><!--link ShareBoardController to UserRepository--><g id="link_ShareBoardController_UserRepository"><path d="M531.33,286.1 L531.4055,286.3699 L540.6862,288.2287 L550.4097,291.6695 L559.989,294.5952 L569.0941,295.8267 L578.8276,299.3036 L588.2074,301.5165 L597.728,304.2324 L607.3464,307.2979 L616.6275,309.1584 L626.5801,313.4177 L635.8863,315.3675 L635.6581,314.5587 L645.6887,317.8985 L655.7905,321.4914 L665.4771,323.6117 L675.4069,326.5942 L685.2446,329.2504 L695.1947,332.3052 L705.0906,335.1678 L715.09,338.3973 L724.9949,341.2916 L734.8719,344.0869 L744.5,346 L744.531,346.1088 L750.1684,347.7962 L755.8095,349.4962 L761.2482,350.4857 L767.0306,352.682 L772.56,353.99 " fill="none" style="stroke:#181818;stroke-width:1.0;"/><polygon fill="#181818" points="777.53,355.4,777.5751,355.4536,775.9336,354.0264,774.5565,352.9136,773.0933,351.6984,771.347,350.1465,769.9926,349.0607,769.9699,349.0481,770.4148,349.9825,770.9741,350.9799,771.6128,352.0212,771.9777,352.9113,772.7262,354.0132,772.8154,354.1748,771.6341,354.376,770.7133,355.0489,769.8242,355.7794,768.7503,356.175,767.7737,356.7468,767.7768,356.7693,769.7235,356.4669,771.6843,356.267,773.6384,356.0177,775.6054,355.8628,777.53,355.4" style="stroke:#181818;stroke-width:1.0;"/></g><!--link BoardService to BoardRepository--><g id="link_BoardService_BoardRepository"><path d="M441.99,444.08 L442.135,444.3198 L432.7778,449.0045 L424.2706,455.0951 L415.4866,460.7278 L405.7924,464.8551 L397.3046,470.9777 L388.1376,475.977 L379.2409,481.4233 L370.5321,487.1804 L361.1758,491.8666 L353.1083,498.6844 L343.8,503.45 " fill="none" style="stroke:#181818;stroke-width:1.0;"/><polygon fill="#181818" points="339.22,506.22,339.2289,506.2895,341.1564,505.8334,343.1359,505.7846,345.0985,505.6032,347.0054,504.9855,348.9894,504.9717,348.9833,504.9466,347.8567,504.5646,346.7612,504.3095,345.6873,504.1426,344.539,503.6718,343.4948,503.6266,343.6741,503.6705,343.5598,502.4777,343.9689,501.4131,344.4418,500.3641,344.5432,499.2241,344.84,498.132,344.8587,498.145,343.7072,499.7435,342.6409,501.4012,341.5335,503.0303,340.5043,504.7138,339.22,506.22" style="stroke:#181818;stroke-width:1.0;"/></g><!--link BoardService to Board--><g id="link_BoardService_Board"><path d="M521.5,444.08 L521.7802,444.08 L520.9476,454.8117 L521.7577,465.5433 L522.0329,476.275 L520.5488,487.0067 L521.3964,497.7383 L521.5,508.47 " fill="none" style="stroke:#181818;stroke-width:1.0;"/><polygon fill="#181818" points="521.5,513.47,521.564,513.4985,522.1738,511.6139,523.1589,509.8962,524.0217,508.1241,524.4827,506.1734,525.5,504.47,525.4817,504.4517,524.5995,505.1695,523.8096,505.9796,523.0839,506.8539,522.137,507.507,521.5,508.47,521.6305,508.6005,520.5514,507.5214,519.8534,506.8234,519.2018,506.1718,518.2798,505.2498,517.5,504.47,517.5208,504.4792,518.2903,506.2657,519.1544,508.0942,519.9728,509.9024,520.8784,511.7493,521.5,513.47" style="stroke:#181818;stroke-width:1.0;"/></g><!--SRC=[XLDDRzim3BthL-Ws5rYI-n0OI8PbBR0lBDtkh4JRQcJ9e9HaGR7_FihEOZjpkej0Ya_lFKhKcoh6vjrYqLXmSL_RkVBr8koCQu2WdbUnjkAIoWgSFfA94PsCjCT1gVREgufyZTUL1jGEIjp6aqL9gEAWfh60lOqRx-8NuAERZ_AdeT8CHKC5sX-DAsK1Dg0GGba8GTwpyotI0Mdr3B_aSfbQaQ7ToVCpQ8iX6Ey-WsCBz29AZ3yOiZuz-XswR1if4SUKt8dVVmzLGBZsGFez6oDlBHBpGzDOeo0oNvw_Y711PTOpoLCA7_JRn2_tl7HHk_trw3W_gu5IxEeJ7j3scYrHQiSePAtGHKa7j7xqdKwxTem3cLNFD-PMtXM6wZRBRg361hvZuuE9daxiWIv9souSS6ZWJXJ6wVNfOTn-tr4o-0fVEjqznOSQZCtQTQKriJE9W-JgZfX8UowxyzryGwfD-yYTkpwNpIMyuaYO3QXaPRaikY3HAKA8cFLNAs_UxJzydT3GdEBlKcB7aBr2T3N8i_aidnn18IO7SyRmuVJy1zK_oIIGSUC_Svjk_C12Z4PuIcyQ8CGV]--></g></svg>