<?xml version="1.0" encoding="us-ascii" standalone="no"?><svg xmlns="http://www.w3.org/2000/svg" xmlns:xlink="http://www.w3.org/1999/xlink" contentStyleType="text/css" height="1000px" preserveAspectRatio="none" style="width:1464px;height:1000px;background:#FFFFFF;" version="1.1" viewBox="0 0 1464 1000" width="1464px" zoomAndPan="magnify"><defs/><g><rect fill="#FFFFFF" height="799.3506" style="stroke:#181818;stroke-width:1.0;" width="10" x="33.5" y="91.4883"/><rect fill="#FFFFFF" height="108.5977" style="stroke:#181818;stroke-width:1.0;" width="10" x="353.5" y="91.4883"/><rect fill="#FFFFFF" height="29.3105" style="stroke:#181818;stroke-width:1.0;" width="10" x="353.5" y="486.8359"/><rect fill="#FFFFFF" height="167.5186" style="stroke:#181818;stroke-width:1.0;" width="10" x="353.5" y="723.3203"/><rect fill="#FFFFFF" height="87.9316" style="stroke:#181818;stroke-width:1.0;" width="10" x="581.5" y="200.0859"/><rect fill="#FFFFFF" height="59.3105" style="stroke:#181818;stroke-width:1.0;" width="10" x="581.5" y="694.0098"/><rect fill="#FFFFFF" height="29.3105" style="stroke:#181818;stroke-width:1.0;" width="10" x="759.5" y="229.3965"/><rect fill="#FFFFFF" height="405.9922" style="stroke:#181818;stroke-width:1.0;" width="10" x="921.5" y="288.0176"/><rect fill="#FFFFFF" height="97.8867" style="stroke:#181818;stroke-width:1.0;" width="10" x="1219.5" y="359.6387"/><rect fill="#FFFFFF" height="29.3105" style="stroke:#181818;stroke-width:1.0;" width="10" x="1314.5" y="552.457"/><rect fill="#FFFFFF" height="29.3105" style="stroke:#181818;stroke-width:1.0;" width="10" x="1413" y="611.0781"/><rect fill="none" height="149.5078" style="stroke:#000000;stroke-width:1.5;" width="1261" x="10" y="374.6387"/><rect fill="none" height="165.8633" style="stroke:#000000;stroke-width:1.5;" width="1005" x="10" y="655.3887"/><line style="stroke:#181818;stroke-width:0.5;stroke-dasharray:5.0,5.0;" x1="38" x2="38" y1="81.4883" y2="919.4941"/><line style="stroke:#181818;stroke-width:0.5;stroke-dasharray:5.0,5.0;" x1="358" x2="358" y1="81.4883" y2="919.4941"/><line style="stroke:#181818;stroke-width:0.5;stroke-dasharray:5.0,5.0;" x1="586.5" x2="586.5" y1="159.7871" y2="919.4941"/><line style="stroke:#181818;stroke-width:0.5;stroke-dasharray:5.0,5.0;" x1="764.5" x2="764.5" y1="81.4883" y2="919.4941"/><line style="stroke:#181818;stroke-width:0.5;stroke-dasharray:5.0,5.0;" x1="926" x2="926" y1="81.4883" y2="919.4941"/><line style="stroke:#181818;stroke-width:0.5;stroke-dasharray:5.0,5.0;" x1="1224" x2="1224" y1="81.4883" y2="919.4941"/><line style="stroke:#181818;stroke-width:0.5;stroke-dasharray:5.0,5.0;" x1="1319" x2="1319" y1="81.4883" y2="919.4941"/><line style="stroke:#181818;stroke-width:0.5;stroke-dasharray:5.0,5.0;" x1="1418" x2="1418" y1="81.4883" y2="919.4941"/><text fill="#000000" font-family="sans-serif" font-size="14" lengthAdjust="spacing" textLength="31" x="20" y="78.5352">User</text><ellipse cx="38.5" cy="13.5" fill="#E2E2F0" rx="8" ry="8" style="stroke:#181818;stroke-width:0.5;"/><path d="M38.5,21.5 L38.5,48.5 M25.5,29.5 L51.5,29.5 M38.5,48.5 L25.5,63.5 M38.5,48.5 L51.5,63.5 " fill="none" style="stroke:#181818;stroke-width:0.5;"/><text fill="#000000" font-family="sans-serif" font-size="14" lengthAdjust="spacing" textLength="31" x="20" y="932.0293">User</text><ellipse cx="38.5" cy="943.4824" fill="#E2E2F0" rx="8" ry="8" style="stroke:#181818;stroke-width:0.5;"/><path d="M38.5,951.4824 L38.5,978.4824 M25.5,959.4824 L51.5,959.4824 M38.5,978.4824 L25.5,993.4824 M38.5,978.4824 L51.5,993.4824 " fill="none" style="stroke:#181818;stroke-width:0.5;"/><rect fill="#E2E2F0" height="46.9766" rx="2.5" ry="2.5" style="stroke:#181818;stroke-width:0.5;" width="115" x="301" y="33.5117"/><text fill="#000000" font-family="sans-serif" font-size="14" font-style="italic" lengthAdjust="spacing" textLength="101" x="308" y="54.0469">&#171;presentation&#187;</text><text fill="#000000" font-family="sans-serif" font-size="14" lengthAdjust="spacing" textLength="23" x="347" y="70.5352">xUI</text><rect fill="#E2E2F0" height="46.9766" rx="2.5" ry="2.5" style="stroke:#181818;stroke-width:0.5;" width="115" x="301" y="918.4941"/><text fill="#000000" font-family="sans-serif" font-size="14" font-style="italic" lengthAdjust="spacing" textLength="101" x="308" y="939.0293">&#171;presentation&#187;</text><text fill="#000000" font-family="sans-serif" font-size="14" lengthAdjust="spacing" textLength="23" x="347" y="955.5176">xUI</text><rect fill="#E2E2F0" height="46.9766" rx="2.5" ry="2.5" style="stroke:#181818;stroke-width:0.5;" width="104" x="534.5" y="918.4941"/><text fill="#000000" font-family="sans-serif" font-size="14" font-style="italic" lengthAdjust="spacing" textLength="90" x="541.5" y="939.0293">&#171;application&#187;</text><text fill="#000000" font-family="sans-serif" font-size="14" lengthAdjust="spacing" textLength="79" x="547" y="955.5176">xController</text><rect fill="#E2E2F0" height="46.9766" rx="2.5" ry="2.5" style="stroke:#181818;stroke-width:0.5;" width="110" x="709.5" y="33.5117"/><text fill="#000000" font-family="sans-serif" font-size="14" font-style="italic" lengthAdjust="spacing" textLength="36" x="746.5" y="54.0469">&#171;util&#187;</text><text fill="#000000" font-family="sans-serif" font-size="14" lengthAdjust="spacing" textLength="96" x="716.5" y="70.5352">AuthzRegistry</text><rect fill="#E2E2F0" height="46.9766" rx="2.5" ry="2.5" style="stroke:#181818;stroke-width:0.5;" width="110" x="709.5" y="918.4941"/><text fill="#000000" font-family="sans-serif" font-size="14" font-style="italic" lengthAdjust="spacing" textLength="36" x="746.5" y="939.0293">&#171;util&#187;</text><text fill="#000000" font-family="sans-serif" font-size="14" lengthAdjust="spacing" textLength="96" x="716.5" y="955.5176">AuthzRegistry</text><rect fill="#E2E2F0" height="46.9766" rx="2.5" ry="2.5" style="stroke:#181818;stroke-width:0.5;" width="157" x="848" y="33.5117"/><text fill="#000000" font-family="sans-serif" font-size="14" font-style="italic" lengthAdjust="spacing" textLength="61" x="896" y="54.0469">&#171;service&#187;</text><text fill="#000000" font-family="sans-serif" font-size="14" lengthAdjust="spacing" textLength="143" x="855" y="70.5352">AuthorizationService</text><rect fill="#E2E2F0" height="46.9766" rx="2.5" ry="2.5" style="stroke:#181818;stroke-width:0.5;" width="157" x="848" y="918.4941"/><text fill="#000000" font-family="sans-serif" font-size="14" font-style="italic" lengthAdjust="spacing" textLength="61" x="896" y="939.0293">&#171;service&#187;</text><text fill="#000000" font-family="sans-serif" font-size="14" lengthAdjust="spacing" textLength="143" x="855" y="955.5176">AuthorizationService</text><rect fill="#E2E2F0" height="30.4883" rx="2.5" ry="2.5" style="stroke:#181818;stroke-width:0.5;" width="73" x="1188" y="50"/><text fill="#000000" font-family="sans-serif" font-size="14" lengthAdjust="spacing" textLength="59" x="1195" y="70.5352">Optional</text><rect fill="#E2E2F0" height="30.4883" rx="2.5" ry="2.5" style="stroke:#181818;stroke-width:0.5;" width="73" x="1188" y="918.4941"/><text fill="#000000" font-family="sans-serif" font-size="14" lengthAdjust="spacing" textLength="59" x="1195" y="939.0293">Optional</text><rect fill="#E2E2F0" height="30.4883" rx="2.5" ry="2.5" style="stroke:#181818;stroke-width:0.5;" width="97" x="1271" y="50"/><text fill="#000000" font-family="sans-serif" font-size="14" lengthAdjust="spacing" textLength="83" x="1278" y="70.5352">UserSession</text><rect fill="#E2E2F0" height="30.4883" rx="2.5" ry="2.5" style="stroke:#181818;stroke-width:0.5;" width="97" x="1271" y="918.4941"/><text fill="#000000" font-family="sans-serif" font-size="14" lengthAdjust="spacing" textLength="83" x="1278" y="939.0293">UserSession</text><rect fill="#E2E2F0" height="46.9766" rx="2.5" ry="2.5" style="stroke:#181818;stroke-width:0.5;" width="80" x="1378" y="33.5117"/><text fill="#000000" font-family="sans-serif" font-size="14" font-style="italic" lengthAdjust="spacing" textLength="66" x="1385" y="54.0469">&#171;domain&#187;</text><text fill="#000000" font-family="sans-serif" font-size="14" lengthAdjust="spacing" textLength="31" x="1402.5" y="70.5352">User</text><rect fill="#E2E2F0" height="46.9766" rx="2.5" ry="2.5" style="stroke:#181818;stroke-width:0.5;" width="80" x="1378" y="918.4941"/><text fill="#000000" font-family="sans-serif" font-size="14" font-style="italic" lengthAdjust="spacing" textLength="66" x="1385" y="939.0293">&#171;domain&#187;</text><text fill="#000000" font-family="sans-serif" font-size="14" lengthAdjust="spacing" textLength="31" x="1402.5" y="955.5176">User</text><rect fill="#FFFFFF" height="799.3506" style="stroke:#181818;stroke-width:1.0;" width="10" x="33.5" y="91.4883"/><rect fill="#FFFFFF" height="108.5977" style="stroke:#181818;stroke-width:1.0;" width="10" x="353.5" y="91.4883"/><rect fill="#FFFFFF" height="29.3105" style="stroke:#181818;stroke-width:1.0;" width="10" x="353.5" y="486.8359"/><rect fill="#FFFFFF" height="167.5186" style="stroke:#181818;stroke-width:1.0;" width="10" x="353.5" y="723.3203"/><rect fill="#FFFFFF" height="87.9316" style="stroke:#181818;stroke-width:1.0;" width="10" x="581.5" y="200.0859"/><rect fill="#FFFFFF" height="59.3105" style="stroke:#181818;stroke-width:1.0;" width="10" x="581.5" y="694.0098"/><rect fill="#FFFFFF" height="29.3105" style="stroke:#181818;stroke-width:1.0;" width="10" x="759.5" y="229.3965"/><rect fill="#FFFFFF" height="405.9922" style="stroke:#181818;stroke-width:1.0;" width="10" x="921.5" y="288.0176"/><rect fill="#FFFFFF" height="97.8867" style="stroke:#181818;stroke-width:1.0;" width="10" x="1219.5" y="359.6387"/><rect fill="#FFFFFF" height="29.3105" style="stroke:#181818;stroke-width:1.0;" width="10" x="1314.5" y="552.457"/><rect fill="#FFFFFF" height="29.3105" style="stroke:#181818;stroke-width:1.0;" width="10" x="1413" y="611.0781"/><polygon fill="#181818" points="341.5,108.7988,351.5,112.7988,341.5,116.7988,345.5,112.7988" style="stroke:#181818;stroke-width:1.0;"/><line style="stroke:#181818;stroke-width:1.0;" x1="43.5" x2="347.5" y1="112.7988" y2="112.7988"/><text fill="#000000" font-family="sans-serif" font-size="13" font-weight="bold" lengthAdjust="spacing" textLength="9" x="50.5" y="108.0566">1</text><text fill="#000000" font-family="sans-serif" font-size="13" lengthAdjust="spacing" textLength="159" x="63.5" y="108.0566">want to perform use case</text><polygon fill="#181818" points="522.5,138.1094,532.5,142.1094,522.5,146.1094,526.5,142.1094" style="stroke:#181818;stroke-width:1.0;"/><line style="stroke:#181818;stroke-width:1.0;" x1="363.5" x2="528.5" y1="142.1094" y2="142.1094"/><text fill="#000000" font-family="sans-serif" font-size="13" font-weight="bold" lengthAdjust="spacing" textLength="9" x="370.5" y="137.3672">2</text><text fill="#000000" font-family="sans-serif" font-size="13" lengthAdjust="spacing" textLength="45" x="383.5" y="137.3672">creates</text><rect fill="#E2E2F0" height="46.9766" rx="2.5" ry="2.5" style="stroke:#181818;stroke-width:0.5;" width="104" x="534.5" y="120.7988"/><text fill="#000000" font-family="sans-serif" font-size="14" font-style="italic" lengthAdjust="spacing" textLength="90" x="541.5" y="141.334">&#171;application&#187;</text><text fill="#000000" font-family="sans-serif" font-size="14" lengthAdjust="spacing" textLength="79" x="547" y="157.8223">xController</text><polygon fill="#181818" points="569.5,196.0859,579.5,200.0859,569.5,204.0859,573.5,200.0859" style="stroke:#181818;stroke-width:1.0;"/><line style="stroke:#181818;stroke-width:1.0;" x1="358.5" x2="575.5" y1="200.0859" y2="200.0859"/><text fill="#000000" font-family="sans-serif" font-size="13" font-weight="bold" lengthAdjust="spacing" textLength="9" x="365.5" y="195.3438">3</text><text fill="#000000" font-family="sans-serif" font-size="13" lengthAdjust="spacing" textLength="121" x="378.5" y="195.3438">checkPermissions()</text><polygon fill="#181818" points="747.5,225.3965,757.5,229.3965,747.5,233.3965,751.5,229.3965" style="stroke:#181818;stroke-width:1.0;"/><line style="stroke:#181818;stroke-width:1.0;" x1="591.5" x2="753.5" y1="229.3965" y2="229.3965"/><text fill="#000000" font-family="sans-serif" font-size="13" font-weight="bold" lengthAdjust="spacing" textLength="9" x="598.5" y="224.6543">4</text><text fill="#000000" font-family="sans-serif" font-size="13" lengthAdjust="spacing" textLength="136" x="611.5" y="224.6543">authorizationService()</text><polygon fill="#181818" points="602.5,254.707,592.5,258.707,602.5,262.707,598.5,258.707" style="stroke:#181818;stroke-width:1.0;"/><line style="stroke:#181818;stroke-width:1.0;stroke-dasharray:2.0,2.0;" x1="596.5" x2="763.5" y1="258.707" y2="258.707"/><text fill="#000000" font-family="sans-serif" font-size="13" font-weight="bold" lengthAdjust="spacing" textLength="9" x="608.5" y="253.9648">5</text><text fill="#000000" font-family="sans-serif" font-size="13" lengthAdjust="spacing" textLength="79" x="621.5" y="253.9648">authzService</text><polygon fill="#181818" points="909.5,284.0176,919.5,288.0176,909.5,292.0176,913.5,288.0176" style="stroke:#181818;stroke-width:1.0;"/><line style="stroke:#181818;stroke-width:1.0;" x1="586.5" x2="915.5" y1="288.0176" y2="288.0176"/><text fill="#000000" font-family="sans-serif" font-size="13" font-weight="bold" lengthAdjust="spacing" textLength="9" x="593.5" y="283.2754">6</text><text fill="#000000" font-family="sans-serif" font-size="13" lengthAdjust="spacing" textLength="207" x="606.5" y="283.2754">ensureUserHasOneOfRoles(roles)</text><line style="stroke:#181818;stroke-width:1.0;" x1="931.5" x2="973.5" y1="317.3281" y2="317.3281"/><line style="stroke:#181818;stroke-width:1.0;" x1="973.5" x2="973.5" y1="317.3281" y2="330.3281"/><line style="stroke:#181818;stroke-width:1.0;" x1="932.5" x2="973.5" y1="330.3281" y2="330.3281"/><polygon fill="#181818" points="942.5,326.3281,932.5,330.3281,942.5,334.3281,938.5,330.3281" style="stroke:#181818;stroke-width:1.0;"/><text fill="#000000" font-family="sans-serif" font-size="13" font-weight="bold" lengthAdjust="spacing" textLength="9" x="938.5" y="312.5859">7</text><text fill="#000000" font-family="sans-serif" font-size="13" lengthAdjust="spacing" textLength="95" x="951.5" y="312.5859">opt = session()</text><polygon fill="#181818" points="1207.5,355.6387,1217.5,359.6387,1207.5,363.6387,1211.5,359.6387" style="stroke:#181818;stroke-width:1.0;"/><line style="stroke:#181818;stroke-width:1.0;" x1="931.5" x2="1213.5" y1="359.6387" y2="359.6387"/><text fill="#000000" font-family="sans-serif" font-size="13" font-weight="bold" lengthAdjust="spacing" textLength="9" x="938.5" y="354.8965">8</text><text fill="#000000" font-family="sans-serif" font-size="13" lengthAdjust="spacing" textLength="85" x="951.5" y="354.8965">orElseThrow()</text><path d="M10,374.6387 L72,374.6387 L72,381.9492 L62,391.9492 L10,391.9492 L10,374.6387 " fill="#EEEEEE" style="stroke:#000000;stroke-width:1.5;"/><rect fill="none" height="149.5078" style="stroke:#000000;stroke-width:1.5;" width="1261" x="10" y="374.6387"/><text fill="#000000" font-family="sans-serif" font-size="13" font-weight="bold" lengthAdjust="spacing" textLength="17" x="25" y="388.207">alt</text><text fill="#000000" font-family="sans-serif" font-size="11" font-weight="bold" lengthAdjust="spacing" textLength="88" x="87" y="387.2734">[user is logged]</text><polygon fill="#181818" points="942.5,409.2598,932.5,413.2598,942.5,417.2598,938.5,413.2598" style="stroke:#181818;stroke-width:1.0;"/><line style="stroke:#181818;stroke-width:1.0;stroke-dasharray:2.0,2.0;" x1="936.5" x2="1218.5" y1="413.2598" y2="413.2598"/><text fill="#000000" font-family="sans-serif" font-size="13" font-weight="bold" lengthAdjust="spacing" textLength="9" x="948.5" y="408.5176">9</text><text fill="#000000" font-family="sans-serif" font-size="13" lengthAdjust="spacing" textLength="48" x="961.5" y="408.5176">session</text><line style="stroke:#000000;stroke-width:1.0;stroke-dasharray:2.0,2.0;" x1="10" x2="1271" y1="422.2598" y2="422.2598"/><text fill="#000000" font-family="sans-serif" font-size="11" font-weight="bold" lengthAdjust="spacing" textLength="125" x="15" y="432.8945">[user is not logged in]</text><polygon fill="#181818" points="942.5,453.5254,932.5,457.5254,942.5,461.5254,938.5,457.5254" style="stroke:#181818;stroke-width:1.0;"/><line style="stroke:#181818;stroke-width:1.0;stroke-dasharray:2.0,2.0;" x1="936.5" x2="1223.5" y1="457.5254" y2="457.5254"/><text fill="#000000" font-family="sans-serif" font-size="13" font-weight="bold" lengthAdjust="spacing" textLength="18" x="948.5" y="452.7832">10</text><text fill="#000000" font-family="sans-serif" font-size="13" lengthAdjust="spacing" textLength="242" x="970.5" y="452.7832">throw new UnauthenticatedException()</text><polygon fill="#181818" points="374.5,482.8359,364.5,486.8359,374.5,490.8359,370.5,486.8359" style="stroke:#181818;stroke-width:1.0;"/><line style="stroke:#181818;stroke-width:1.0;stroke-dasharray:2.0,2.0;" x1="368.5" x2="920.5" y1="486.8359" y2="486.8359"/><text fill="#000000" font-family="sans-serif" font-size="13" font-weight="bold" lengthAdjust="spacing" textLength="18" x="380.5" y="482.0938">11</text><text fill="#000000" font-family="sans-serif" font-size="13" lengthAdjust="spacing" textLength="177" x="402.5" y="482.0938">transports exception into UI</text><polygon fill="#181818" points="54.5,512.1465,44.5,516.1465,54.5,520.1465,50.5,516.1465" style="stroke:#181818;stroke-width:1.0;"/><line style="stroke:#181818;stroke-width:1.0;stroke-dasharray:2.0,2.0;" x1="48.5" x2="357.5" y1="516.1465" y2="516.1465"/><text fill="#000000" font-family="sans-serif" font-size="13" font-weight="bold" lengthAdjust="spacing" textLength="18" x="60.5" y="511.4043">12</text><text fill="#000000" font-family="sans-serif" font-size="13" lengthAdjust="spacing" textLength="264" x="82.5" y="511.4043">informs insuccess of performing use case</text><polygon fill="#181818" points="1302.5,548.457,1312.5,552.457,1302.5,556.457,1306.5,552.457" style="stroke:#181818;stroke-width:1.0;"/><line style="stroke:#181818;stroke-width:1.0;" x1="931.5" x2="1308.5" y1="552.457" y2="552.457"/><text fill="#000000" font-family="sans-serif" font-size="13" font-weight="bold" lengthAdjust="spacing" textLength="18" x="938.5" y="547.7148">13</text><text fill="#000000" font-family="sans-serif" font-size="13" lengthAdjust="spacing" textLength="122" x="960.5" y="547.7148">authenticatedUser()</text><polygon fill="#181818" points="942.5,577.7676,932.5,581.7676,942.5,585.7676,938.5,581.7676" style="stroke:#181818;stroke-width:1.0;"/><line style="stroke:#181818;stroke-width:1.0;stroke-dasharray:2.0,2.0;" x1="936.5" x2="1318.5" y1="581.7676" y2="581.7676"/><text fill="#000000" font-family="sans-serif" font-size="13" font-weight="bold" lengthAdjust="spacing" textLength="18" x="948.5" y="577.0254">14</text><text fill="#000000" font-family="sans-serif" font-size="13" lengthAdjust="spacing" textLength="27" x="970.5" y="577.0254">user</text><polygon fill="#181818" points="1401,607.0781,1411,611.0781,1401,615.0781,1405,611.0781" style="stroke:#181818;stroke-width:1.0;"/><line style="stroke:#181818;stroke-width:1.0;" x1="931.5" x2="1407" y1="611.0781" y2="611.0781"/><text fill="#000000" font-family="sans-serif" font-size="13" font-weight="bold" lengthAdjust="spacing" textLength="18" x="938.5" y="606.3359">15</text><text fill="#000000" font-family="sans-serif" font-size="13" lengthAdjust="spacing" textLength="100" x="960.5" y="606.3359">hasAnyOf(roles)</text><polygon fill="#181818" points="942.5,636.3887,932.5,640.3887,942.5,644.3887,938.5,640.3887" style="stroke:#181818;stroke-width:1.0;"/><line style="stroke:#181818;stroke-width:1.0;stroke-dasharray:2.0,2.0;" x1="936.5" x2="1417" y1="640.3887" y2="640.3887"/><text fill="#000000" font-family="sans-serif" font-size="13" font-weight="bold" lengthAdjust="spacing" textLength="18" x="948.5" y="635.6465">16</text><text fill="#000000" font-family="sans-serif" font-size="13" lengthAdjust="spacing" textLength="28" x="970.5" y="635.6465">bool</text><path d="M10,655.3887 L72,655.3887 L72,662.6992 L62,672.6992 L10,672.6992 L10,655.3887 " fill="#EEEEEE" style="stroke:#000000;stroke-width:1.5;"/><rect fill="none" height="165.8633" style="stroke:#000000;stroke-width:1.5;" width="1005" x="10" y="655.3887"/><text fill="#000000" font-family="sans-serif" font-size="13" font-weight="bold" lengthAdjust="spacing" textLength="17" x="25" y="668.957">alt</text><text fill="#000000" font-family="sans-serif" font-size="11" font-weight="bold" lengthAdjust="spacing" textLength="238" x="87" y="668.0234">[user role is not present in accepted roles]</text><polygon fill="#181818" points="602.5,690.0098,592.5,694.0098,602.5,698.0098,598.5,694.0098" style="stroke:#181818;stroke-width:1.0;"/><line style="stroke:#181818;stroke-width:1.0;stroke-dasharray:2.0,2.0;" x1="596.5" x2="925.5" y1="694.0098" y2="694.0098"/><text fill="#000000" font-family="sans-serif" font-size="13" font-weight="bold" lengthAdjust="spacing" textLength="18" x="608.5" y="689.2676">17</text><text fill="#000000" font-family="sans-serif" font-size="13" lengthAdjust="spacing" textLength="289" x="630.5" y="689.2676">throw new UnauthorizedException(user, roles)</text><polygon fill="#181818" points="374.5,719.3203,364.5,723.3203,374.5,727.3203,370.5,723.3203" style="stroke:#181818;stroke-width:1.0;"/><line style="stroke:#181818;stroke-width:1.0;stroke-dasharray:2.0,2.0;" x1="368.5" x2="580.5" y1="723.3203" y2="723.3203"/><text fill="#000000" font-family="sans-serif" font-size="13" font-weight="bold" lengthAdjust="spacing" textLength="18" x="380.5" y="718.5781">18</text><text fill="#000000" font-family="sans-serif" font-size="13" lengthAdjust="spacing" textLength="177" x="402.5" y="718.5781">transports exception into UI</text><polygon fill="#181818" points="54.5,809.252,44.5,813.252,54.5,817.252,50.5,813.252" style="stroke:#181818;stroke-width:1.0;"/><line style="stroke:#181818;stroke-width:1.0;stroke-dasharray:2.0,2.0;" x1="48.5" x2="352.5" y1="813.252" y2="813.252"/><text fill="#000000" font-family="sans-serif" font-size="13" font-weight="bold" lengthAdjust="spacing" textLength="18" x="60.5" y="793.1992">19</text><text fill="#000000" font-family="sans-serif" font-size="13" lengthAdjust="spacing" textLength="159" x="82.5" y="777.8887">informs that user doesn't</text><text fill="#000000" font-family="sans-serif" font-size="13" lengthAdjust="spacing" textLength="92" x="82.5" y="793.1992">have access to</text><text fill="#000000" font-family="sans-serif" font-size="13" lengthAdjust="spacing" textLength="82" x="82.5" y="808.5098">this use case</text><polygon fill="#181818" points="49.5,886.8389,39.5,890.8389,49.5,894.8389,45.5,890.8389" style="stroke:#181818;stroke-width:1.0;"/><line style="stroke:#181818;stroke-width:1.0;stroke-dasharray:2.0,2.0;" x1="43.5" x2="357.5" y1="890.8389" y2="890.8389"/><text fill="#000000" font-family="sans-serif" font-size="13" font-weight="bold" lengthAdjust="spacing" textLength="18" x="55.5" y="870.7861">20</text><text fill="#000000" font-family="sans-serif" font-size="13" lengthAdjust="spacing" textLength="87" x="77.5" y="855.4756">asks data and</text><text fill="#000000" font-family="sans-serif" font-size="13" lengthAdjust="spacing" textLength="120" x="77.5" y="870.7861">is ready to perform</text><text fill="#000000" font-family="sans-serif" font-size="13" lengthAdjust="spacing" textLength="54" x="77.5" y="886.0967">use case</text><path d="M368,833.252 L368,904.252 L626,904.252 L626,843.252 L616,833.252 L368,833.252 " fill="#FEFFDD" style="stroke:#181818;stroke-width:0.5;"/><path d="M616,833.252 L616,843.252 L626,843.252 L616,833.252 " fill="#FEFFDD" style="stroke:#181818;stroke-width:0.5;"/><text fill="#000000" font-family="sans-serif" font-size="13" lengthAdjust="spacing" textLength="186" x="374" y="850.8203">do nothing since user is valid</text><text fill="#000000" font-family="sans-serif" font-size="13" lengthAdjust="spacing" textLength="206" x="374" y="866.1309">UI has by default to accept users</text><text fill="#000000" font-family="sans-serif" font-size="13" lengthAdjust="spacing" textLength="237" x="374" y="881.4414">only if user does not have permission</text><text fill="#000000" font-family="sans-serif" font-size="13" lengthAdjust="spacing" textLength="102" x="374" y="896.752">throw exception</text><!--SRC=[bLLDJnin4BtxLuoubABc3qGK2I6aSae5pIsNoUuaQ-7OAuyt8VpwpdY_Gtee1qZizsOyxpqRR5BmpM5BqHWiKeXmisQADu0C3SjYZJ7PmjRe4toiN_AwXVlxEXAJJvXiy0yFSzXJy2a6voWgl4ZH2G7hsjdY6lwnITNdA-qjftXMHgIz49fatHLaYFOpLtcZUBG5AG6rWb2uNRfWhMg5erDagDDiJuTz8sO1w3Qt7xz0MZaeFZbabaPbEA3LELGqUyH4MQtnYpL65c3ne6ejuQI5Ke2QuYx4WzQ20fcCx0f69Rgx4rmHIUWyMTR5YehttnGFDX-ERx-RagQjXizAC9abR5LncQMvb4mA31H16KKkndvPpGuwxQJGldYh-1B8SnD99Vg5lFAqshq6HtmRzVVidFbimxVCDssLIJcn1txsBkWnUu1ko7PyTan_gXXEqndKL8CkPOl0ChYmtrDfG7wKk9Xqw1qcAJJWVKWT1wo_IalQ4poTOErrJQAlOQRo-QEWdA-vAteahTCDqESWHVHSXvWOg2TAIqd6-cMM7kLg29GeELeAI8F3yfURef0X8EpwE5c_7nCrZmRv4aGPCohP2T3vFCoX5aurxNNguLCnLBPfdnuxz1YloX8gv4T_NktwI4mkJ0So8tpQPHk2cqqpuA_r7ltNFhsftIibgW4MghSudCznOKwN_4kNzU9CBTRwF-1hjhiqpwAk3ThRyj_cNzwQVuOXLTWDNGPY_orjV8L7ohEAcb9vurDbUKp7a8TPFUHtXX8J0ih-nbjzWx4yJvwiZHzg655MNWExhzgCbq6rhZI5R7qnNgiZEjlUGld78Jc0xHbAsc7ZycFOEfBHhH_1kpFOtJXHzZ1FL0_FNqQsHWqgvh7qLEOY_hFuHFCN]--></g></svg>