<?xml version="1.0" encoding="us-ascii" standalone="no"?><svg xmlns="http://www.w3.org/2000/svg" xmlns:xlink="http://www.w3.org/1999/xlink" contentStyleType="text/css" height="1240px" preserveAspectRatio="none" style="width:2472px;height:1240px;background:#FFFFFF;" version="1.1" viewBox="0 0 2472 1240" width="2472px" zoomAndPan="magnify"><defs/><g><rect fill="#FFFFFF" height="1001.3125" style="stroke:#181818;stroke-width:1.0;" width="10" x="220.5" y="121.5332"/><rect fill="#FFFFFF" height="844.8574" style="stroke:#181818;stroke-width:1.0;" width="10" x="402.5" y="246.6973"/><rect fill="#FFFFFF" height="563.2383" style="stroke:#181818;stroke-width:1.0;" width="10" x="622.5" y="497.0254"/><rect fill="#FFFFFF" height="62.582" style="stroke:#181818;stroke-width:1.0;" width="10" x="796.5" y="340.5703"/><rect fill="#FFFFFF" height="31.291" style="stroke:#181818;stroke-width:1.0;" width="10" x="928.5" y="434.4434"/><rect fill="#FFFFFF" height="62.582" style="stroke:#181818;stroke-width:1.0;" width="10" x="1053" y="559.6074"/><rect fill="#FFFFFF" height="62.582" style="stroke:#181818;stroke-width:1.0;" width="10" x="1196" y="653.4805"/><rect fill="#FFFFFF" height="31.291" style="stroke:#181818;stroke-width:1.0;" width="10" x="1354.5" y="841.2266"/><rect fill="#FFFFFF" height="93.873" style="stroke:#181818;stroke-width:1.0;" width="10" x="1494" y="872.5176"/><rect fill="#FFFFFF" height="31.291" style="stroke:#181818;stroke-width:1.0;" width="10" x="2277" y="903.8086"/><rect fill="#FFFFFF" height="31.291" style="stroke:#181818;stroke-width:1.0;" width="10" x="2412.5" y="747.3535"/><rect fill="#FFFFFF" height="31.291" style="stroke:#181818;stroke-width:1.0;" width="10" x="2412.5" y="997.6816"/><line style="stroke:#181818;stroke-width:0.5;stroke-dasharray:5.0,5.0;" x1="34" x2="34" y1="88.2422" y2="1140.8457"/><line style="stroke:#181818;stroke-width:0.5;stroke-dasharray:5.0,5.0;" x1="225" x2="225" y1="88.2422" y2="1140.8457"/><line style="stroke:#181818;stroke-width:0.5;stroke-dasharray:5.0,5.0;" x1="407" x2="407" y1="88.2422" y2="1140.8457"/><line style="stroke:#181818;stroke-width:0.5;stroke-dasharray:5.0,5.0;" x1="627" x2="627" y1="88.2422" y2="1140.8457"/><line style="stroke:#181818;stroke-width:0.5;stroke-dasharray:5.0,5.0;" x1="801" x2="801" y1="88.2422" y2="1140.8457"/><line style="stroke:#181818;stroke-width:0.5;stroke-dasharray:5.0,5.0;" x1="933" x2="933" y1="88.2422" y2="1140.8457"/><line style="stroke:#181818;stroke-width:0.5;stroke-dasharray:5.0,5.0;" x1="1058" x2="1058" y1="88.2422" y2="1140.8457"/><line style="stroke:#181818;stroke-width:0.5;stroke-dasharray:5.0,5.0;" x1="1201" x2="1201" y1="88.2422" y2="1140.8457"/><line style="stroke:#181818;stroke-width:0.5;stroke-dasharray:5.0,5.0;" x1="1359" x2="1359" y1="88.2422" y2="1140.8457"/><line style="stroke:#181818;stroke-width:0.5;stroke-dasharray:5.0,5.0;" x1="1499" x2="1499" y1="88.2422" y2="1140.8457"/><line style="stroke:#181818;stroke-width:0.5;stroke-dasharray:5.0,5.0;" x1="2281.5" x2="2281.5" y1="88.2422" y2="1140.8457"/><line style="stroke:#181818;stroke-width:0.5;stroke-dasharray:5.0,5.0;" x1="2417.5" x2="2417.5" y1="88.2422" y2="1140.8457"/><text fill="#000000" font-family="FG Virgil" font-size="14" lengthAdjust="spacing" textLength="53" x="5" y="84.7285">Teacher</text><ellipse cx="34.5" cy="18.1211" fill="#E3E3E3" rx="8" ry="8" style="stroke:#181818;stroke-width:0.5;"/><path d="M34.5,26.1211 L34.5,53.1211 M21.5,34.1211 L47.5,34.1211 M34.5,53.1211 L21.5,68.1211 M34.5,53.1211 L47.5,68.1211 " fill="none" style="stroke:#181818;stroke-width:0.5;"/><text fill="#000000" font-family="FG Virgil" font-size="14" lengthAdjust="spacing" textLength="53" x="5" y="1154.9531">Teacher</text><ellipse cx="34.5" cy="1166.9668" fill="#E3E3E3" rx="8" ry="8" style="stroke:#181818;stroke-width:0.5;"/><path d="M34.5,1174.9668 L34.5,1201.9668 M21.5,1182.9668 L47.5,1182.9668 M34.5,1201.9668 L21.5,1216.9668 M34.5,1201.9668 L47.5,1216.9668 " fill="none" style="stroke:#181818;stroke-width:0.5;"/><rect fill="#E3E3E3" height="51.2422" rx="2.5" ry="2.5" style="stroke:#181818;stroke-width:0.5;" width="109" x="171" y="36"/><text fill="#000000" font-family="FG Virgil" font-size="14" font-style="italic" lengthAdjust="spacing" textLength="95" x="178" y="58.1074">&#171;presentation&#187;</text><text fill="#000000" font-family="FG Virgil" font-size="14" lengthAdjust="spacing" textLength="91" x="180" y="76.7285">UpdateExamUI</text><rect fill="#E3E3E3" height="51.2422" rx="2.5" ry="2.5" style="stroke:#181818;stroke-width:0.5;" width="109" x="171" y="1139.8457"/><text fill="#000000" font-family="FG Virgil" font-size="14" font-style="italic" lengthAdjust="spacing" textLength="95" x="178" y="1161.9531">&#171;presentation&#187;</text><text fill="#000000" font-family="FG Virgil" font-size="14" lengthAdjust="spacing" textLength="91" x="180" y="1180.5742">UpdateExamUI</text><rect fill="#E3E3E3" height="51.2422" rx="2.5" ry="2.5" style="stroke:#181818;stroke-width:0.5;" width="155" x="330" y="36"/><text fill="#000000" font-family="FG Virgil" font-size="14" font-style="italic" lengthAdjust="spacing" textLength="84" x="365.5" y="58.1074">&#171;application&#187;</text><text fill="#000000" font-family="FG Virgil" font-size="14" lengthAdjust="spacing" textLength="141" x="337" y="76.7285">UpdateExamController</text><rect fill="#E3E3E3" height="51.2422" rx="2.5" ry="2.5" style="stroke:#181818;stroke-width:0.5;" width="155" x="330" y="1139.8457"/><text fill="#000000" font-family="FG Virgil" font-size="14" font-style="italic" lengthAdjust="spacing" textLength="84" x="365.5" y="1161.9531">&#171;application&#187;</text><text fill="#000000" font-family="FG Virgil" font-size="14" lengthAdjust="spacing" textLength="141" x="337" y="1180.5742">UpdateExamController</text><rect fill="#E3E3E3" height="51.2422" rx="2.5" ry="2.5" style="stroke:#181818;stroke-width:0.5;" width="177" x="539" y="36"/><text fill="#000000" font-family="FG Virgil" font-size="14" font-style="italic" lengthAdjust="spacing" textLength="60" x="597.5" y="58.1074">&#171;service&#187;</text><text fill="#000000" font-family="FG Virgil" font-size="14" lengthAdjust="spacing" textLength="163" x="546" y="76.7285">ExamManagementService</text><rect fill="#E3E3E3" height="51.2422" rx="2.5" ry="2.5" style="stroke:#181818;stroke-width:0.5;" width="177" x="539" y="1139.8457"/><text fill="#000000" font-family="FG Virgil" font-size="14" font-style="italic" lengthAdjust="spacing" textLength="60" x="597.5" y="1161.9531">&#171;service&#187;</text><text fill="#000000" font-family="FG Virgil" font-size="14" lengthAdjust="spacing" textLength="163" x="546" y="1180.5742">ExamManagementService</text><rect fill="#E3E3E3" height="51.2422" rx="2.5" ry="2.5" style="stroke:#181818;stroke-width:0.5;" width="151" x="726" y="36"/><text fill="#000000" font-family="FG Virgil" font-size="14" font-style="italic" lengthAdjust="spacing" textLength="60" x="771.5" y="58.1074">&#171;service&#187;</text><text fill="#000000" font-family="FG Virgil" font-size="14" lengthAdjust="spacing" textLength="137" x="733" y="76.7285">AuthenticationService</text><rect fill="#E3E3E3" height="51.2422" rx="2.5" ry="2.5" style="stroke:#181818;stroke-width:0.5;" width="151" x="726" y="1139.8457"/><text fill="#000000" font-family="FG Virgil" font-size="14" font-style="italic" lengthAdjust="spacing" textLength="60" x="771.5" y="1161.9531">&#171;service&#187;</text><text fill="#000000" font-family="FG Virgil" font-size="14" lengthAdjust="spacing" textLength="137" x="733" y="1180.5742">AuthenticationService</text><rect fill="#E3E3E3" height="51.2422" rx="2.5" ry="2.5" style="stroke:#181818;stroke-width:0.5;" width="93" x="887" y="36"/><text fill="#000000" font-family="FG Virgil" font-size="14" font-style="italic" lengthAdjust="spacing" textLength="64" x="901.5" y="58.1074">&#171;session&#187;</text><text fill="#000000" font-family="FG Virgil" font-size="14" lengthAdjust="spacing" textLength="79" x="894" y="76.7285">UserSession</text><rect fill="#E3E3E3" height="51.2422" rx="2.5" ry="2.5" style="stroke:#181818;stroke-width:0.5;" width="93" x="887" y="1139.8457"/><text fill="#000000" font-family="FG Virgil" font-size="14" font-style="italic" lengthAdjust="spacing" textLength="64" x="901.5" y="1161.9531">&#171;session&#187;</text><text fill="#000000" font-family="FG Virgil" font-size="14" lengthAdjust="spacing" textLength="79" x="894" y="1180.5742">UserSession</text><rect fill="#E3E3E3" height="51.2422" rx="2.5" ry="2.5" style="stroke:#181818;stroke-width:0.5;" width="136" x="990" y="36"/><text fill="#000000" font-family="FG Virgil" font-size="14" font-style="italic" lengthAdjust="spacing" textLength="89" x="1013.5" y="58.1074">&#171;persistence&#187;</text><text fill="#000000" font-family="FG Virgil" font-size="14" lengthAdjust="spacing" textLength="122" x="997" y="76.7285">PersistenceContext</text><rect fill="#E3E3E3" height="51.2422" rx="2.5" ry="2.5" style="stroke:#181818;stroke-width:0.5;" width="136" x="990" y="1139.8457"/><text fill="#000000" font-family="FG Virgil" font-size="14" font-style="italic" lengthAdjust="spacing" textLength="89" x="1013.5" y="1161.9531">&#171;persistence&#187;</text><text fill="#000000" font-family="FG Virgil" font-size="14" lengthAdjust="spacing" textLength="122" x="997" y="1180.5742">PersistenceContext</text><rect fill="#E3E3E3" height="51.2422" rx="2.5" ry="2.5" style="stroke:#181818;stroke-width:0.5;" width="130" x="1136" y="36"/><text fill="#000000" font-family="FG Virgil" font-size="14" font-style="italic" lengthAdjust="spacing" textLength="59" x="1171.5" y="58.1074">&#171;factory&#187;</text><text fill="#000000" font-family="FG Virgil" font-size="14" lengthAdjust="spacing" textLength="116" x="1143" y="76.7285">RepositoryFactory</text><rect fill="#E3E3E3" height="51.2422" rx="2.5" ry="2.5" style="stroke:#181818;stroke-width:0.5;" width="130" x="1136" y="1139.8457"/><text fill="#000000" font-family="FG Virgil" font-size="14" font-style="italic" lengthAdjust="spacing" textLength="59" x="1171.5" y="1161.9531">&#171;factory&#187;</text><text fill="#000000" font-family="FG Virgil" font-size="14" lengthAdjust="spacing" textLength="116" x="1143" y="1180.5742">RepositoryFactory</text><rect fill="#E3E3E3" height="51.2422" rx="2.5" ry="2.5" style="stroke:#181818;stroke-width:0.5;" width="167" x="1276" y="36"/><text fill="#000000" font-family="FG Virgil" font-size="14" font-style="italic" lengthAdjust="spacing" textLength="60" x="1329.5" y="58.1074">&#171;service&#187;</text><text fill="#000000" font-family="FG Virgil" font-size="14" lengthAdjust="spacing" textLength="153" x="1283" y="76.7285">ExamTemplateEvaluator</text><rect fill="#E3E3E3" height="51.2422" rx="2.5" ry="2.5" style="stroke:#181818;stroke-width:0.5;" width="167" x="1276" y="1139.8457"/><text fill="#000000" font-family="FG Virgil" font-size="14" font-style="italic" lengthAdjust="spacing" textLength="60" x="1329.5" y="1161.9531">&#171;service&#187;</text><text fill="#000000" font-family="FG Virgil" font-size="14" lengthAdjust="spacing" textLength="153" x="1283" y="1180.5742">ExamTemplateEvaluator</text><rect fill="#E3E3E3" height="51.2422" rx="2.5" ry="2.5" style="stroke:#181818;stroke-width:0.5;" width="92" x="1453" y="36"/><text fill="#000000" font-family="FG Virgil" font-size="14" font-style="italic" lengthAdjust="spacing" textLength="59" x="1469.5" y="58.1074">&#171;builder&#187;</text><text fill="#000000" font-family="FG Virgil" font-size="14" lengthAdjust="spacing" textLength="78" x="1460" y="76.7285">ExamBuilder</text><rect fill="#E3E3E3" height="51.2422" rx="2.5" ry="2.5" style="stroke:#181818;stroke-width:0.5;" width="92" x="1453" y="1139.8457"/><text fill="#000000" font-family="FG Virgil" font-size="14" font-style="italic" lengthAdjust="spacing" textLength="59" x="1469.5" y="1161.9531">&#171;builder&#187;</text><text fill="#000000" font-family="FG Virgil" font-size="14" lengthAdjust="spacing" textLength="78" x="1460" y="1180.5742">ExamBuilder</text><rect fill="#E3E3E3" height="51.2422" rx="2.5" ry="2.5" style="stroke:#181818;stroke-width:0.5;" width="143" x="2210.5" y="36"/><text fill="#000000" font-family="FG Virgil" font-size="14" font-style="italic" lengthAdjust="spacing" textLength="62" x="2251" y="58.1074">&#171;domain&#187;</text><text fill="#000000" font-family="FG Virgil" font-size="14" lengthAdjust="spacing" textLength="129" x="2217.5" y="76.7285">class:ExamTemplate</text><rect fill="#E3E3E3" height="51.2422" rx="2.5" ry="2.5" style="stroke:#181818;stroke-width:0.5;" width="143" x="2210.5" y="1139.8457"/><text fill="#000000" font-family="FG Virgil" font-size="14" font-style="italic" lengthAdjust="spacing" textLength="62" x="2251" y="1161.9531">&#171;domain&#187;</text><text fill="#000000" font-family="FG Virgil" font-size="14" lengthAdjust="spacing" textLength="129" x="2217.5" y="1180.5742">class:ExamTemplate</text><text fill="#000000" font-family="FG Virgil" font-size="14" font-style="italic" lengthAdjust="spacing" textLength="79" x="2375" y="66.1074">&#171;repository&#187;</text><text fill="#000000" font-family="FG Virgil" font-size="14" lengthAdjust="spacing" textLength="102" x="2363.5" y="84.7285">ExamRepository</text><path d="M2399.5,15 C2399.5,5 2417.5,5 2417.5,5 C2417.5,5 2435.5,5 2435.5,15 L2435.5,41 C2435.5,51 2417.5,51 2417.5,51 C2417.5,51 2399.5,51 2399.5,41 L2399.5,15 " fill="#E3E3E3" style="stroke:#181818;stroke-width:1.5;"/><path d="M2399.5,15 C2399.5,25 2417.5,25 2417.5,25 C2417.5,25 2435.5,25 2435.5,15 " fill="none" style="stroke:#181818;stroke-width:1.5;"/><text fill="#000000" font-family="FG Virgil" font-size="14" font-style="italic" lengthAdjust="spacing" textLength="79" x="2375" y="1154.9531">&#171;repository&#187;</text><text fill="#000000" font-family="FG Virgil" font-size="14" lengthAdjust="spacing" textLength="102" x="2363.5" y="1173.5742">ExamRepository</text><path d="M2399.5,1187.0879 C2399.5,1177.0879 2417.5,1177.0879 2417.5,1177.0879 C2417.5,1177.0879 2435.5,1177.0879 2435.5,1187.0879 L2435.5,1213.0879 C2435.5,1223.0879 2417.5,1223.0879 2417.5,1223.0879 C2417.5,1223.0879 2399.5,1223.0879 2399.5,1213.0879 L2399.5,1187.0879 " fill="#E3E3E3" style="stroke:#181818;stroke-width:1.5;"/><path d="M2399.5,1187.0879 C2399.5,1197.0879 2417.5,1197.0879 2417.5,1197.0879 C2417.5,1197.0879 2435.5,1197.0879 2435.5,1187.0879 " fill="none" style="stroke:#181818;stroke-width:1.5;"/><rect fill="#FFFFFF" height="1001.3125" style="stroke:#181818;stroke-width:1.0;" width="10" x="220.5" y="121.5332"/><rect fill="#FFFFFF" height="844.8574" style="stroke:#181818;stroke-width:1.0;" width="10" x="402.5" y="246.6973"/><rect fill="#FFFFFF" height="563.2383" style="stroke:#181818;stroke-width:1.0;" width="10" x="622.5" y="497.0254"/><rect fill="#FFFFFF" height="62.582" style="stroke:#181818;stroke-width:1.0;" width="10" x="796.5" y="340.5703"/><rect fill="#FFFFFF" height="31.291" style="stroke:#181818;stroke-width:1.0;" width="10" x="928.5" y="434.4434"/><rect fill="#FFFFFF" height="62.582" style="stroke:#181818;stroke-width:1.0;" width="10" x="1053" y="559.6074"/><rect fill="#FFFFFF" height="62.582" style="stroke:#181818;stroke-width:1.0;" width="10" x="1196" y="653.4805"/><rect fill="#FFFFFF" height="31.291" style="stroke:#181818;stroke-width:1.0;" width="10" x="1354.5" y="841.2266"/><rect fill="#FFFFFF" height="93.873" style="stroke:#181818;stroke-width:1.0;" width="10" x="1494" y="872.5176"/><rect fill="#FFFFFF" height="31.291" style="stroke:#181818;stroke-width:1.0;" width="10" x="2277" y="903.8086"/><rect fill="#FFFFFF" height="31.291" style="stroke:#181818;stroke-width:1.0;" width="10" x="2412.5" y="747.3535"/><rect fill="#FFFFFF" height="31.291" style="stroke:#181818;stroke-width:1.0;" width="10" x="2412.5" y="997.6816"/><polygon fill="#181818" points="208.5,117.5332,218.5,121.5332,208.5,125.5332,212.5,121.5332" style="stroke:#181818;stroke-width:1.0;"/><line style="stroke:#181818;stroke-width:1.0;stroke-dasharray:2.0,2.0;" x1="34.5" x2="214.5" y1="121.5332" y2="121.5332"/><text fill="#000000" font-family="FG Virgil" font-size="13" lengthAdjust="spacing" textLength="90" x="41.5" y="116.2705">create an exam</text><polygon fill="#181818" points="395.5,148.8242,405.5,152.8242,395.5,156.8242,399.5,152.8242" style="stroke:#181818;stroke-width:1.0;"/><line style="stroke:#181818;stroke-width:1.0;" x1="230.5" x2="401.5" y1="152.8242" y2="152.8242"/><text fill="#000000" font-family="FG Virgil" font-size="13" lengthAdjust="spacing" textLength="44" x="237.5" y="147.5615">create()</text><polygon fill="#181818" points="45.5,180.1152,35.5,184.1152,45.5,188.1152,41.5,184.1152" style="stroke:#181818;stroke-width:1.0;"/><line style="stroke:#181818;stroke-width:1.0;" x1="39.5" x2="219.5" y1="184.1152" y2="184.1152"/><text fill="#000000" font-family="FG Virgil" font-size="13" lengthAdjust="spacing" textLength="108" x="51.5" y="178.8525">ask exam's details</text><polygon fill="#181818" points="208.5,211.4063,218.5,215.4063,208.5,219.4063,212.5,215.4063" style="stroke:#181818;stroke-width:1.0;"/><line style="stroke:#181818;stroke-width:1.0;" x1="34.5" x2="214.5" y1="215.4063" y2="215.4063"/><text fill="#000000" font-family="FG Virgil" font-size="13" lengthAdjust="spacing" textLength="72" x="41.5" y="210.1436">title, filePath</text><polygon fill="#181818" points="390.5,242.6973,400.5,246.6973,390.5,250.6973,394.5,246.6973" style="stroke:#181818;stroke-width:1.0;"/><line style="stroke:#181818;stroke-width:1.0;" x1="230.5" x2="396.5" y1="246.6973" y2="246.6973"/><text fill="#000000" font-family="FG Virgil" font-size="13" lengthAdjust="spacing" textLength="153" x="237.5" y="241.4346">updateExam(title, filePath)</text><polygon fill="#181818" points="789.5,273.9883,799.5,277.9883,789.5,281.9883,793.5,277.9883" style="stroke:#181818;stroke-width:1.0;"/><line style="stroke:#181818;stroke-width:1.0;" x1="412.5" x2="795.5" y1="277.9883" y2="277.9883"/><text fill="#000000" font-family="FG Virgil" font-size="13" lengthAdjust="spacing" textLength="44" x="419.5" y="272.7256">create()</text><polygon fill="#181818" points="789.5,305.2793,799.5,309.2793,789.5,313.2793,793.5,309.2793" style="stroke:#181818;stroke-width:1.0;"/><line style="stroke:#181818;stroke-width:1.0;" x1="412.5" x2="795.5" y1="309.2793" y2="309.2793"/><text fill="#000000" font-family="FG Virgil" font-size="13" lengthAdjust="spacing" textLength="352" x="419.5" y="304.0166">ensureAuthenticatedUserHasAnyOf(CourseRoles.TEACHER)</text><polygon fill="#181818" points="921.5,336.5703,931.5,340.5703,921.5,344.5703,925.5,340.5703" style="stroke:#181818;stroke-width:1.0;"/><line style="stroke:#181818;stroke-width:1.0;" x1="806.5" x2="927.5" y1="340.5703" y2="340.5703"/><text fill="#000000" font-family="FG Virgil" font-size="13" lengthAdjust="spacing" textLength="44" x="813.5" y="335.3076">create()</text><polygon fill="#181818" points="784.5,367.8613,794.5,371.8613,784.5,375.8613,788.5,371.8613" style="stroke:#181818;stroke-width:1.0;"/><line style="stroke:#181818;stroke-width:1.0;" x1="412.5" x2="790.5" y1="371.8613" y2="371.8613"/><text fill="#000000" font-family="FG Virgil" font-size="13" lengthAdjust="spacing" textLength="53" x="419.5" y="366.5986">session()</text><polygon fill="#181818" points="423.5,399.1523,413.5,403.1523,423.5,407.1523,419.5,403.1523" style="stroke:#181818;stroke-width:1.0;"/><line style="stroke:#181818;stroke-width:1.0;" x1="417.5" x2="800.5" y1="403.1523" y2="403.1523"/><text fill="#000000" font-family="FG Virgil" font-size="13" lengthAdjust="spacing" textLength="45" x="429.5" y="397.8896">session</text><polygon fill="#181818" points="916.5,430.4434,926.5,434.4434,916.5,438.4434,920.5,434.4434" style="stroke:#181818;stroke-width:1.0;"/><line style="stroke:#181818;stroke-width:1.0;" x1="412.5" x2="922.5" y1="434.4434" y2="434.4434"/><text fill="#000000" font-family="FG Virgil" font-size="13" lengthAdjust="spacing" textLength="113" x="419.5" y="429.1807">authenticatedUser()</text><polygon fill="#181818" points="423.5,461.7344,413.5,465.7344,423.5,469.7344,419.5,465.7344" style="stroke:#181818;stroke-width:1.0;"/><line style="stroke:#181818;stroke-width:1.0;" x1="417.5" x2="932.5" y1="465.7344" y2="465.7344"/><text fill="#000000" font-family="FG Virgil" font-size="13" lengthAdjust="spacing" textLength="25" x="429.5" y="460.4717">user</text><polygon fill="#181818" points="610.5,493.0254,620.5,497.0254,610.5,501.0254,614.5,497.0254" style="stroke:#181818;stroke-width:1.0;"/><line style="stroke:#181818;stroke-width:1.0;" x1="412.5" x2="616.5" y1="497.0254" y2="497.0254"/><text fill="#000000" font-family="FG Virgil" font-size="13" lengthAdjust="spacing" textLength="44" x="419.5" y="491.7627">create()</text><polygon fill="#181818" points="610.5,524.3164,620.5,528.3164,610.5,532.3164,614.5,528.3164" style="stroke:#181818;stroke-width:1.0;"/><line style="stroke:#181818;stroke-width:1.0;" x1="412.5" x2="616.5" y1="528.3164" y2="528.3164"/><text fill="#000000" font-family="FG Virgil" font-size="13" lengthAdjust="spacing" textLength="186" x="419.5" y="523.0537">updateExam(title, filePath, user)</text><polygon fill="#181818" points="1041,555.6074,1051,559.6074,1041,563.6074,1045,559.6074" style="stroke:#181818;stroke-width:1.0;"/><line style="stroke:#181818;stroke-width:1.0;" x1="632.5" x2="1047" y1="559.6074" y2="559.6074"/><text fill="#000000" font-family="FG Virgil" font-size="13" lengthAdjust="spacing" textLength="75" x="639.5" y="554.3447">repositories()</text><polygon fill="#181818" points="1189,586.8984,1199,590.8984,1189,594.8984,1193,590.8984" style="stroke:#181818;stroke-width:1.0;"/><line style="stroke:#181818;stroke-width:1.0;" x1="1063" x2="1195" y1="590.8984" y2="590.8984"/><text fill="#000000" font-family="FG Virgil" font-size="13" lengthAdjust="spacing" textLength="44" x="1070" y="585.6357">create()</text><polygon fill="#181818" points="643.5,618.1895,633.5,622.1895,643.5,626.1895,639.5,622.1895" style="stroke:#181818;stroke-width:1.0;"/><line style="stroke:#181818;stroke-width:1.0;" x1="637.5" x2="1057" y1="622.1895" y2="622.1895"/><text fill="#000000" font-family="FG Virgil" font-size="13" lengthAdjust="spacing" textLength="39" x="649.5" y="616.9268">factory</text><polygon fill="#181818" points="1184,649.4805,1194,653.4805,1184,657.4805,1188,653.4805" style="stroke:#181818;stroke-width:1.0;"/><line style="stroke:#181818;stroke-width:1.0;" x1="632.5" x2="1190" y1="653.4805" y2="653.4805"/><text fill="#000000" font-family="FG Virgil" font-size="13" lengthAdjust="spacing" textLength="47" x="639.5" y="648.2178">exams()</text><polygon fill="#181818" points="2405.5,680.7715,2415.5,684.7715,2405.5,688.7715,2409.5,684.7715" style="stroke:#181818;stroke-width:1.0;"/><line style="stroke:#181818;stroke-width:1.0;" x1="1206" x2="2411.5" y1="684.7715" y2="684.7715"/><text fill="#000000" font-family="FG Virgil" font-size="13" lengthAdjust="spacing" textLength="44" x="1213" y="679.5088">create()</text><polygon fill="#181818" points="643.5,712.0625,633.5,716.0625,643.5,720.0625,639.5,716.0625" style="stroke:#181818;stroke-width:1.0;"/><line style="stroke:#181818;stroke-width:1.0;" x1="637.5" x2="1200" y1="716.0625" y2="716.0625"/><text fill="#000000" font-family="FG Virgil" font-size="13" lengthAdjust="spacing" textLength="39" x="649.5" y="710.7998">exams</text><polygon fill="#181818" points="2400.5,743.3535,2410.5,747.3535,2400.5,751.3535,2404.5,747.3535" style="stroke:#181818;stroke-width:1.0;"/><line style="stroke:#181818;stroke-width:1.0;" x1="632.5" x2="2406.5" y1="747.3535" y2="747.3535"/><text fill="#000000" font-family="FG Virgil" font-size="13" lengthAdjust="spacing" textLength="81" x="639.5" y="742.0908">ofIdentity(title)</text><polygon fill="#181818" points="643.5,774.6445,633.5,778.6445,643.5,782.6445,639.5,778.6445" style="stroke:#181818;stroke-width:1.0;"/><line style="stroke:#181818;stroke-width:1.0;" x1="637.5" x2="2416.5" y1="778.6445" y2="778.6445"/><text fill="#000000" font-family="FG Virgil" font-size="13" lengthAdjust="spacing" textLength="32" x="649.5" y="773.3818">exam</text><polygon fill="#181818" points="2405.5,805.9355,2415.5,809.9355,2405.5,813.9355,2409.5,809.9355" style="stroke:#181818;stroke-width:1.0;"/><line style="stroke:#181818;stroke-width:1.0;" x1="632.5" x2="2411.5" y1="809.9355" y2="809.9355"/><text fill="#000000" font-family="FG Virgil" font-size="13" lengthAdjust="spacing" textLength="119" x="639.5" y="804.6729">deleteOfIdentity(title)</text><polygon fill="#181818" points="1342.5,837.2266,1352.5,841.2266,1342.5,845.2266,1346.5,841.2266" style="stroke:#181818;stroke-width:1.0;"/><line style="stroke:#181818;stroke-width:1.0;" x1="632.5" x2="1348.5" y1="841.2266" y2="841.2266"/><text fill="#000000" font-family="FG Virgil" font-size="13" lengthAdjust="spacing" textLength="346" x="639.5" y="835.9639">evaluateFromFile(filePath, teacher, course, courseStudents)</text><polygon fill="#181818" points="1482,868.5176,1492,872.5176,1482,876.5176,1486,872.5176" style="stroke:#181818;stroke-width:1.0;"/><line style="stroke:#181818;stroke-width:1.0;" x1="1359.5" x2="1488" y1="872.5176" y2="872.5176"/><text fill="#000000" font-family="FG Virgil" font-size="13" lengthAdjust="spacing" textLength="35" x="1366.5" y="867.2549">build()</text><polygon fill="#181818" points="2265,899.8086,2275,903.8086,2265,907.8086,2269,903.8086" style="stroke:#181818;stroke-width:1.0;"/><line style="stroke:#181818;stroke-width:1.0;" x1="1504" x2="2271" y1="903.8086" y2="903.8086"/><text fill="#000000" font-family="FG Virgil" font-size="13" lengthAdjust="spacing" textLength="754" x="1511" y="898.5459">ExamTemplate(examTitle, openDate, closeDate, examDescription, feedbackType, gradeType, sections, teacher, students, course)</text><polygon fill="#181818" points="1515,931.0996,1505,935.0996,1515,939.0996,1511,935.0996" style="stroke:#181818;stroke-width:1.0;"/><line style="stroke:#181818;stroke-width:1.0;stroke-dasharray:2.0,2.0;" x1="1509" x2="2281" y1="935.0996" y2="935.0996"/><text fill="#000000" font-family="FG Virgil" font-size="13" lengthAdjust="spacing" textLength="85" x="1521" y="929.8369">examTemplate</text><polygon fill="#181818" points="643.5,962.3906,633.5,966.3906,643.5,970.3906,639.5,966.3906" style="stroke:#181818;stroke-width:1.0;"/><line style="stroke:#181818;stroke-width:1.0;" x1="637.5" x2="1498" y1="966.3906" y2="966.3906"/><text fill="#000000" font-family="FG Virgil" font-size="13" lengthAdjust="spacing" textLength="85" x="649.5" y="961.1279">examTemplate</text><polygon fill="#181818" points="2400.5,993.6816,2410.5,997.6816,2400.5,1001.6816,2404.5,997.6816" style="stroke:#181818;stroke-width:1.0;"/><line style="stroke:#181818;stroke-width:1.0;" x1="632.5" x2="2406.5" y1="997.6816" y2="997.6816"/><text fill="#000000" font-family="FG Virgil" font-size="13" lengthAdjust="spacing" textLength="119" x="639.5" y="992.4189">save(examTemplate)</text><polygon fill="#181818" points="643.5,1024.9727,633.5,1028.9727,643.5,1032.9727,639.5,1028.9727" style="stroke:#181818;stroke-width:1.0;"/><line style="stroke:#181818;stroke-width:1.0;stroke-dasharray:2.0,2.0;" x1="637.5" x2="2416.5" y1="1028.9727" y2="1028.9727"/><text fill="#000000" font-family="FG Virgil" font-size="13" lengthAdjust="spacing" textLength="85" x="649.5" y="1023.71">examTemplate</text><polygon fill="#181818" points="423.5,1056.2637,413.5,1060.2637,423.5,1064.2637,419.5,1060.2637" style="stroke:#181818;stroke-width:1.0;"/><line style="stroke:#181818;stroke-width:1.0;stroke-dasharray:2.0,2.0;" x1="417.5" x2="626.5" y1="1060.2637" y2="1060.2637"/><text fill="#000000" font-family="FG Virgil" font-size="13" lengthAdjust="spacing" textLength="85" x="429.5" y="1055.001">examTemplate</text><polygon fill="#181818" points="241.5,1087.5547,231.5,1091.5547,241.5,1095.5547,237.5,1091.5547" style="stroke:#181818;stroke-width:1.0;"/><line style="stroke:#181818;stroke-width:1.0;stroke-dasharray:2.0,2.0;" x1="235.5" x2="406.5" y1="1091.5547" y2="1091.5547"/><text fill="#000000" font-family="FG Virgil" font-size="13" lengthAdjust="spacing" textLength="85" x="247.5" y="1086.292">examTemplate</text><polygon fill="#181818" points="45.5,1118.8457,35.5,1122.8457,45.5,1126.8457,41.5,1122.8457" style="stroke:#181818;stroke-width:1.0;"/><line style="stroke:#181818;stroke-width:1.0;stroke-dasharray:2.0,2.0;" x1="39.5" x2="224.5" y1="1122.8457" y2="1122.8457"/><text fill="#000000" font-family="FG Virgil" font-size="13" lengthAdjust="spacing" textLength="162" x="51.5" y="1117.583">show the operation success</text><!--SRC=[ZLRDJkCm4BxxAImkMoJO1wWYf2xGXSCkYBPxDycKMhXnv74AtQVViHFNaz18Uu69Pxxvvi_Zuhkk6-NKNkvjRSkTitkGthKWyAHfLFcktc3bZmQaWz8pNGLRrHg_jBN_hGYw_2d_QFUc3RF1dQhiXwxVv5OP125KwQsJQr3b3fnKA1VXG92rrwLkLEtbfgcKX_jFjTyy1WlwMnID0uJQAwzjVNCpONzBeJXhJEUPVHM5QXgZotFm0FobQifoJmGhS0TTGi0diIYmaqR0HUjtXEYzCY0f_kucOHiwNW4YOM9sx3D0eZI2F8D3ZHxg4a9IyEbJVa6aucJz2Fa2ZKLD5JukO-MF0PZ4ejXsqfcAh67Vc53MWpAj2ZqZOFwOIYv0VxJQL5qBabWKhvqqChyeZKASSyABI4G71AhiNkbG36gmUbK8KP5p2gRigoZSwOD08ewMlBw-2ICqbwK3yYzLBO6yn57KXt2oUHHaG6PiOfBvxBBNTSxcHFaUyT-GBe1Nsc3YwMcyzWQkv5ORU5P-TyvrUvhOsSZwaeML8OAXGoXnlbY4vzLGO-k0JIbKOTWU52xguzDsTcjRX_1Y3U3tzVtYzk7-vL9qu90Bcqj6bSEBbXFK_HZFcBz10Ngzg63aRkHl68GQfqB-SnEpgU2mBxKd7UVbk15xkj8i_HEirqqYfbjy5KEWIYRZFi9mbUVoDC4QaFFr5Y9P4YXTuz4WzDeSId_9UTB96uyXkmlZFI3lLIAPa3MxTeoV6MJ-w8wp9tUCVE3ERX-hq6T_x6h78ibsWa6-q74s1faYhC20XwSljCm-hpvYw6HOqekvfAxEScjzzx1ToJ9UhlH_vTlW6bac9uSYkoQUj37dCcvCgYbB9MDEHxszIBWGQbYUyy4MduMYhBivj0tKTtH6iHcBq8b1VmTOEjs4nuoc5Q1wfST_VMn8_UPK1Ps8z2E0B93bYdrsALkUPMX63EXwa1omu0OP1dkMox2jvn2f09FDHNNey-_HV8bDpDD_CJDi9X-lcobmsX-31PAUa2aGUn7YiyAU9TpP3qdhCRJNnHya4jkofCKc1jlkKVm3]--></g></svg>