<?xml version="1.0" encoding="us-ascii" standalone="no"?><svg xmlns="http://www.w3.org/2000/svg" xmlns:xlink="http://www.w3.org/1999/xlink" contentStyleType="text/css" height="926px" preserveAspectRatio="none" style="width:1368px;height:926px;background:#FFFFFF;" version="1.1" viewBox="0 0 1368 926" width="1368px" zoomAndPan="magnify"><defs/><g><rect fill="#FFFFFF" height="719.6934" style="stroke:#181818;stroke-width:1.0;" width="10" x="29.5" y="98.2422"/><rect fill="#FFFFFF" height="375.4922" style="stroke:#181818;stroke-width:1.0;" width="10" x="277.5" y="121.5332"/><rect fill="#FFFFFF" height="280.6191" style="stroke:#181818;stroke-width:1.0;" width="10" x="277.5" y="528.3164"/><rect fill="#FFFFFF" height="312.9102" style="stroke:#181818;stroke-width:1.0;" width="10" x="480.5" y="152.8242"/><rect fill="#FFFFFF" height="200.7461" style="stroke:#181818;stroke-width:1.0;" width="10" x="480.5" y="559.6074"/><rect fill="#FFFFFF" height="250.3281" style="stroke:#181818;stroke-width:1.0;" width="10" x="683.5" y="184.1152"/><rect fill="#FFFFFF" height="93.873" style="stroke:#181818;stroke-width:1.0;" width="10" x="683.5" y="635.1895"/><rect fill="#FFFFFF" height="62.582" style="stroke:#181818;stroke-width:1.0;" width="10" x="906.5" y="215.4063"/><rect fill="#FFFFFF" height="62.582" style="stroke:#181818;stroke-width:1.0;" width="10" x="1049.5" y="309.2793"/><rect fill="#FFFFFF" height="31.291" style="stroke:#181818;stroke-width:1.0;" width="10" x="1178.5" y="666.4805"/><line style="stroke:#181818;stroke-width:0.5;stroke-dasharray:5.0,5.0;" x1="34" x2="34" y1="88.2422" y2="826.9355"/><line style="stroke:#181818;stroke-width:0.5;stroke-dasharray:5.0,5.0;" x1="282.5" x2="282.5" y1="88.2422" y2="826.9355"/><line style="stroke:#181818;stroke-width:0.5;stroke-dasharray:5.0,5.0;" x1="485.5" x2="485.5" y1="88.2422" y2="826.9355"/><line style="stroke:#181818;stroke-width:0.5;stroke-dasharray:5.0,5.0;" x1="688.5" x2="688.5" y1="88.2422" y2="826.9355"/><line style="stroke:#181818;stroke-width:0.5;stroke-dasharray:5.0,5.0;" x1="796.5" x2="796.5" y1="88.2422" y2="826.9355"/><line style="stroke:#181818;stroke-width:0.5;stroke-dasharray:5.0,5.0;" x1="911.5" x2="911.5" y1="88.2422" y2="826.9355"/><line style="stroke:#181818;stroke-width:0.5;stroke-dasharray:5.0,5.0;" x1="1054.5" x2="1054.5" y1="88.2422" y2="826.9355"/><line style="stroke:#181818;stroke-width:0.5;stroke-dasharray:5.0,5.0;" x1="1183.5" x2="1183.5" y1="88.2422" y2="826.9355"/><line style="stroke:#181818;stroke-width:0.5;stroke-dasharray:5.0,5.0;" x1="1307.5" x2="1307.5" y1="88.2422" y2="826.9355"/><text fill="#000000" font-family="sans-serif" font-size="14" lengthAdjust="spacing" textLength="53" x="5" y="84.7285">Teacher</text><ellipse cx="34.5" cy="18.1211" fill="#E2E2F0" rx="8" ry="8" style="stroke:#181818;stroke-width:0.5;"/><path d="M34.5,26.1211 L34.5,53.1211 M21.5,34.1211 L47.5,34.1211 M34.5,53.1211 L21.5,68.1211 M34.5,53.1211 L47.5,68.1211 " fill="none" style="stroke:#181818;stroke-width:0.5;"/><text fill="#000000" font-family="sans-serif" font-size="14" lengthAdjust="spacing" textLength="53" x="5" y="841.043">Teacher</text><ellipse cx="34.5" cy="853.0566" fill="#E2E2F0" rx="8" ry="8" style="stroke:#181818;stroke-width:0.5;"/><path d="M34.5,861.0566 L34.5,888.0566 M21.5,869.0566 L47.5,869.0566 M34.5,888.0566 L21.5,903.0566 M34.5,888.0566 L47.5,903.0566 " fill="none" style="stroke:#181818;stroke-width:0.5;"/><rect fill="#E2E2F0" height="51.2422" rx="2.5" ry="2.5" style="stroke:#181818;stroke-width:0.5;" width="142" x="211.5" y="36"/><text fill="#000000" font-family="sans-serif" font-size="14" font-style="italic" lengthAdjust="spacing" textLength="95" x="235" y="58.1074">&#171;presentation&#187;</text><text fill="#000000" font-family="sans-serif" font-size="14" lengthAdjust="spacing" textLength="128" x="218.5" y="76.7285">ListExamsTeacherUI</text><rect fill="#E2E2F0" height="51.2422" rx="2.5" ry="2.5" style="stroke:#181818;stroke-width:0.5;" width="142" x="211.5" y="825.9355"/><text fill="#000000" font-family="sans-serif" font-size="14" font-style="italic" lengthAdjust="spacing" textLength="95" x="235" y="848.043">&#171;presentation&#187;</text><text fill="#000000" font-family="sans-serif" font-size="14" lengthAdjust="spacing" textLength="128" x="218.5" y="866.6641">ListExamsTeacherUI</text><rect fill="#E2E2F0" height="51.2422" rx="2.5" ry="2.5" style="stroke:#181818;stroke-width:0.5;" width="192" x="389.5" y="36"/><text fill="#000000" font-family="sans-serif" font-size="14" font-style="italic" lengthAdjust="spacing" textLength="84" x="443.5" y="58.1074">&#171;application&#187;</text><text fill="#000000" font-family="sans-serif" font-size="14" lengthAdjust="spacing" textLength="178" x="396.5" y="76.7285">ListExamsTeacherController</text><rect fill="#E2E2F0" height="51.2422" rx="2.5" ry="2.5" style="stroke:#181818;stroke-width:0.5;" width="192" x="389.5" y="825.9355"/><text fill="#000000" font-family="sans-serif" font-size="14" font-style="italic" lengthAdjust="spacing" textLength="84" x="443.5" y="848.043">&#171;application&#187;</text><text fill="#000000" font-family="sans-serif" font-size="14" lengthAdjust="spacing" textLength="178" x="396.5" y="866.6641">ListExamsTeacherController</text><rect fill="#E2E2F0" height="51.2422" rx="2.5" ry="2.5" style="stroke:#181818;stroke-width:0.5;" width="124" x="626.5" y="36"/><text fill="#000000" font-family="sans-serif" font-size="14" font-style="italic" lengthAdjust="spacing" textLength="60" x="658.5" y="58.1074">&#171;service&#187;</text><text fill="#000000" font-family="sans-serif" font-size="14" lengthAdjust="spacing" textLength="110" x="633.5" y="76.7285">ListExamsService</text><rect fill="#E2E2F0" height="51.2422" rx="2.5" ry="2.5" style="stroke:#181818;stroke-width:0.5;" width="124" x="626.5" y="825.9355"/><text fill="#000000" font-family="sans-serif" font-size="14" font-style="italic" lengthAdjust="spacing" textLength="60" x="658.5" y="848.043">&#171;service&#187;</text><text fill="#000000" font-family="sans-serif" font-size="14" lengthAdjust="spacing" textLength="110" x="633.5" y="866.6641">ListExamsService</text><rect fill="#E2E2F0" height="51.2422" rx="2.5" ry="2.5" style="stroke:#181818;stroke-width:0.5;" width="73" x="760.5" y="36"/><text fill="#000000" font-family="sans-serif" font-size="14" font-style="italic" lengthAdjust="spacing" textLength="59" x="767.5" y="58.1074">&#171;course&#187;</text><text fill="#000000" font-family="sans-serif" font-size="14" lengthAdjust="spacing" textLength="46" x="774" y="76.7285">Course</text><rect fill="#E2E2F0" height="51.2422" rx="2.5" ry="2.5" style="stroke:#181818;stroke-width:0.5;" width="73" x="760.5" y="825.9355"/><text fill="#000000" font-family="sans-serif" font-size="14" font-style="italic" lengthAdjust="spacing" textLength="59" x="767.5" y="848.043">&#171;course&#187;</text><text fill="#000000" font-family="sans-serif" font-size="14" lengthAdjust="spacing" textLength="46" x="774" y="866.6641">Course</text><rect fill="#E2E2F0" height="51.2422" rx="2.5" ry="2.5" style="stroke:#181818;stroke-width:0.5;" width="136" x="843.5" y="36"/><text fill="#000000" font-family="sans-serif" font-size="14" font-style="italic" lengthAdjust="spacing" textLength="89" x="867" y="58.1074">&#171;persistence&#187;</text><text fill="#000000" font-family="sans-serif" font-size="14" lengthAdjust="spacing" textLength="122" x="850.5" y="76.7285">PersistenceContext</text><rect fill="#E2E2F0" height="51.2422" rx="2.5" ry="2.5" style="stroke:#181818;stroke-width:0.5;" width="136" x="843.5" y="825.9355"/><text fill="#000000" font-family="sans-serif" font-size="14" font-style="italic" lengthAdjust="spacing" textLength="89" x="867" y="848.043">&#171;persistence&#187;</text><text fill="#000000" font-family="sans-serif" font-size="14" lengthAdjust="spacing" textLength="122" x="850.5" y="866.6641">PersistenceContext</text><rect fill="#E2E2F0" height="51.2422" rx="2.5" ry="2.5" style="stroke:#181818;stroke-width:0.5;" width="130" x="989.5" y="36"/><text fill="#000000" font-family="sans-serif" font-size="14" font-style="italic" lengthAdjust="spacing" textLength="59" x="1025" y="58.1074">&#171;factory&#187;</text><text fill="#000000" font-family="sans-serif" font-size="14" lengthAdjust="spacing" textLength="116" x="996.5" y="76.7285">RepositoryFactory</text><rect fill="#E2E2F0" height="51.2422" rx="2.5" ry="2.5" style="stroke:#181818;stroke-width:0.5;" width="130" x="989.5" y="825.9355"/><text fill="#000000" font-family="sans-serif" font-size="14" font-style="italic" lengthAdjust="spacing" textLength="59" x="1025" y="848.043">&#171;factory&#187;</text><text fill="#000000" font-family="sans-serif" font-size="14" lengthAdjust="spacing" textLength="116" x="996.5" y="866.6641">RepositoryFactory</text><text fill="#000000" font-family="sans-serif" font-size="14" font-style="italic" lengthAdjust="spacing" textLength="79" x="1141" y="66.1074">&#171;repository&#187;</text><text fill="#000000" font-family="sans-serif" font-size="14" lengthAdjust="spacing" textLength="102" x="1129.5" y="84.7285">ExamRepository</text><path d="M1165.5,15 C1165.5,5 1183.5,5 1183.5,5 C1183.5,5 1201.5,5 1201.5,15 L1201.5,41 C1201.5,51 1183.5,51 1183.5,51 C1183.5,51 1165.5,51 1165.5,41 L1165.5,15 " fill="#E2E2F0" style="stroke:#181818;stroke-width:1.5;"/><path d="M1165.5,15 C1165.5,25 1183.5,25 1183.5,25 C1183.5,25 1201.5,25 1201.5,15 " fill="none" style="stroke:#181818;stroke-width:1.5;"/><text fill="#000000" font-family="sans-serif" font-size="14" font-style="italic" lengthAdjust="spacing" textLength="79" x="1141" y="841.043">&#171;repository&#187;</text><text fill="#000000" font-family="sans-serif" font-size="14" lengthAdjust="spacing" textLength="102" x="1129.5" y="859.6641">ExamRepository</text><path d="M1165.5,873.1777 C1165.5,863.1777 1183.5,863.1777 1183.5,863.1777 C1183.5,863.1777 1201.5,863.1777 1201.5,873.1777 L1201.5,899.1777 C1201.5,909.1777 1183.5,909.1777 1183.5,909.1777 C1183.5,909.1777 1165.5,909.1777 1165.5,899.1777 L1165.5,873.1777 " fill="#E2E2F0" style="stroke:#181818;stroke-width:1.5;"/><path d="M1165.5,873.1777 C1165.5,883.1777 1183.5,883.1777 1183.5,883.1777 C1183.5,883.1777 1201.5,883.1777 1201.5,873.1777 " fill="none" style="stroke:#181818;stroke-width:1.5;"/><text fill="#000000" font-family="sans-serif" font-size="14" font-style="italic" lengthAdjust="spacing" textLength="79" x="1265" y="66.1074">&#171;repository&#187;</text><text fill="#000000" font-family="sans-serif" font-size="14" lengthAdjust="spacing" textLength="114" x="1247.5" y="84.7285">CourseRepository</text><path d="M1289.5,15 C1289.5,5 1307.5,5 1307.5,5 C1307.5,5 1325.5,5 1325.5,15 L1325.5,41 C1325.5,51 1307.5,51 1307.5,51 C1307.5,51 1289.5,51 1289.5,41 L1289.5,15 " fill="#E2E2F0" style="stroke:#181818;stroke-width:1.5;"/><path d="M1289.5,15 C1289.5,25 1307.5,25 1307.5,25 C1307.5,25 1325.5,25 1325.5,15 " fill="none" style="stroke:#181818;stroke-width:1.5;"/><text fill="#000000" font-family="sans-serif" font-size="14" font-style="italic" lengthAdjust="spacing" textLength="79" x="1265" y="841.043">&#171;repository&#187;</text><text fill="#000000" font-family="sans-serif" font-size="14" lengthAdjust="spacing" textLength="114" x="1247.5" y="859.6641">CourseRepository</text><path d="M1289.5,873.1777 C1289.5,863.1777 1307.5,863.1777 1307.5,863.1777 C1307.5,863.1777 1325.5,863.1777 1325.5,873.1777 L1325.5,899.1777 C1325.5,909.1777 1307.5,909.1777 1307.5,909.1777 C1307.5,909.1777 1289.5,909.1777 1289.5,899.1777 L1289.5,873.1777 " fill="#E2E2F0" style="stroke:#181818;stroke-width:1.5;"/><path d="M1289.5,873.1777 C1289.5,883.1777 1307.5,883.1777 1307.5,883.1777 C1307.5,883.1777 1325.5,883.1777 1325.5,873.1777 " fill="none" style="stroke:#181818;stroke-width:1.5;"/><rect fill="#FFFFFF" height="719.6934" style="stroke:#181818;stroke-width:1.0;" width="10" x="29.5" y="98.2422"/><rect fill="#FFFFFF" height="375.4922" style="stroke:#181818;stroke-width:1.0;" width="10" x="277.5" y="121.5332"/><rect fill="#FFFFFF" height="280.6191" style="stroke:#181818;stroke-width:1.0;" width="10" x="277.5" y="528.3164"/><rect fill="#FFFFFF" height="312.9102" style="stroke:#181818;stroke-width:1.0;" width="10" x="480.5" y="152.8242"/><rect fill="#FFFFFF" height="200.7461" style="stroke:#181818;stroke-width:1.0;" width="10" x="480.5" y="559.6074"/><rect fill="#FFFFFF" height="250.3281" style="stroke:#181818;stroke-width:1.0;" width="10" x="683.5" y="184.1152"/><rect fill="#FFFFFF" height="93.873" style="stroke:#181818;stroke-width:1.0;" width="10" x="683.5" y="635.1895"/><rect fill="#FFFFFF" height="62.582" style="stroke:#181818;stroke-width:1.0;" width="10" x="906.5" y="215.4063"/><rect fill="#FFFFFF" height="62.582" style="stroke:#181818;stroke-width:1.0;" width="10" x="1049.5" y="309.2793"/><rect fill="#FFFFFF" height="31.291" style="stroke:#181818;stroke-width:1.0;" width="10" x="1178.5" y="666.4805"/><polygon fill="#181818" points="265.5,117.5332,275.5,121.5332,265.5,125.5332,269.5,121.5332" style="stroke:#181818;stroke-width:1.0;"/><line style="stroke:#181818;stroke-width:1.0;" x1="39.5" x2="271.5" y1="121.5332" y2="121.5332"/><text fill="#000000" font-family="sans-serif" font-size="13" font-weight="bold" lengthAdjust="spacing" textLength="7" x="46.5" y="116.2705">1</text><text fill="#000000" font-family="sans-serif" font-size="13" lengthAdjust="spacing" textLength="86" x="57.5" y="116.2705">List the exams</text><polygon fill="#181818" points="468.5,148.8242,478.5,152.8242,468.5,156.8242,472.5,152.8242" style="stroke:#181818;stroke-width:1.0;"/><line style="stroke:#181818;stroke-width:1.0;" x1="287.5" x2="474.5" y1="152.8242" y2="152.8242"/><text fill="#000000" font-family="sans-serif" font-size="13" font-weight="bold" lengthAdjust="spacing" textLength="7" x="294.5" y="147.5615">2</text><text fill="#000000" font-family="sans-serif" font-size="13" lengthAdjust="spacing" textLength="163" x="305.5" y="147.5615">getTeacherCourses(teacher)</text><polygon fill="#181818" points="671.5,180.1152,681.5,184.1152,671.5,188.1152,675.5,184.1152" style="stroke:#181818;stroke-width:1.0;"/><line style="stroke:#181818;stroke-width:1.0;" x1="490.5" x2="677.5" y1="184.1152" y2="184.1152"/><text fill="#000000" font-family="sans-serif" font-size="13" font-weight="bold" lengthAdjust="spacing" textLength="7" x="497.5" y="178.8525">3</text><text fill="#000000" font-family="sans-serif" font-size="13" lengthAdjust="spacing" textLength="163" x="508.5" y="178.8525">getTeacherCourses(teacher)</text><polygon fill="#181818" points="894.5,211.4063,904.5,215.4063,894.5,219.4063,898.5,215.4063" style="stroke:#181818;stroke-width:1.0;"/><line style="stroke:#181818;stroke-width:1.0;" x1="693.5" x2="900.5" y1="215.4063" y2="215.4063"/><text fill="#000000" font-family="sans-serif" font-size="13" font-weight="bold" lengthAdjust="spacing" textLength="7" x="700.5" y="210.1436">4</text><text fill="#000000" font-family="sans-serif" font-size="13" lengthAdjust="spacing" textLength="57" x="711.5" y="210.1436">factories()</text><polygon fill="#181818" points="1042.5,242.6973,1052.5,246.6973,1042.5,250.6973,1046.5,246.6973" style="stroke:#181818;stroke-width:1.0;"/><line style="stroke:#181818;stroke-width:1.0;" x1="916.5" x2="1048.5" y1="246.6973" y2="246.6973"/><text fill="#000000" font-family="sans-serif" font-size="13" font-weight="bold" lengthAdjust="spacing" textLength="7" x="923.5" y="241.4346">5</text><text fill="#000000" font-family="sans-serif" font-size="13" lengthAdjust="spacing" textLength="18" x="934.5" y="241.4346">get</text><polygon fill="#181818" points="704.5,273.9883,694.5,277.9883,704.5,281.9883,700.5,277.9883" style="stroke:#181818;stroke-width:1.0;"/><line style="stroke:#181818;stroke-width:1.0;" x1="698.5" x2="910.5" y1="277.9883" y2="277.9883"/><text fill="#000000" font-family="sans-serif" font-size="13" font-weight="bold" lengthAdjust="spacing" textLength="7" x="710.5" y="272.7256">6</text><text fill="#000000" font-family="sans-serif" font-size="13" lengthAdjust="spacing" textLength="39" x="721.5" y="272.7256">factory</text><polygon fill="#181818" points="1037.5,305.2793,1047.5,309.2793,1037.5,313.2793,1041.5,309.2793" style="stroke:#181818;stroke-width:1.0;"/><line style="stroke:#181818;stroke-width:1.0;" x1="693.5" x2="1043.5" y1="309.2793" y2="309.2793"/><text fill="#000000" font-family="sans-serif" font-size="13" font-weight="bold" lengthAdjust="spacing" textLength="7" x="700.5" y="304.0166">7</text><text fill="#000000" font-family="sans-serif" font-size="13" lengthAdjust="spacing" textLength="54" x="711.5" y="304.0166">courses()</text><polygon fill="#181818" points="1295.5,336.5703,1305.5,340.5703,1295.5,344.5703,1299.5,340.5703" style="stroke:#181818;stroke-width:1.0;"/><line style="stroke:#181818;stroke-width:1.0;" x1="1059.5" x2="1301.5" y1="340.5703" y2="340.5703"/><text fill="#000000" font-family="sans-serif" font-size="13" font-weight="bold" lengthAdjust="spacing" textLength="7" x="1066.5" y="335.3076">8</text><text fill="#000000" font-family="sans-serif" font-size="13" lengthAdjust="spacing" textLength="18" x="1077.5" y="335.3076">get</text><polygon fill="#181818" points="704.5,367.8613,694.5,371.8613,704.5,375.8613,700.5,371.8613" style="stroke:#181818;stroke-width:1.0;"/><line style="stroke:#181818;stroke-width:1.0;" x1="698.5" x2="1053.5" y1="371.8613" y2="371.8613"/><text fill="#000000" font-family="sans-serif" font-size="13" font-weight="bold" lengthAdjust="spacing" textLength="7" x="710.5" y="366.5986">9</text><text fill="#000000" font-family="sans-serif" font-size="13" lengthAdjust="spacing" textLength="46" x="721.5" y="366.5986">courses</text><polygon fill="#181818" points="1295.5,399.1523,1305.5,403.1523,1295.5,407.1523,1299.5,403.1523" style="stroke:#181818;stroke-width:1.0;"/><line style="stroke:#181818;stroke-width:1.0;" x1="693.5" x2="1301.5" y1="403.1523" y2="403.1523"/><text fill="#000000" font-family="sans-serif" font-size="13" font-weight="bold" lengthAdjust="spacing" textLength="14" x="700.5" y="397.8896">10</text><text fill="#000000" font-family="sans-serif" font-size="13" lengthAdjust="spacing" textLength="182" x="718.5" y="397.8896">findCoursesThatITeach(teacher)</text><polygon fill="#181818" points="501.5,430.4434,491.5,434.4434,501.5,438.4434,497.5,434.4434" style="stroke:#181818;stroke-width:1.0;"/><line style="stroke:#181818;stroke-width:1.0;" x1="495.5" x2="687.5" y1="434.4434" y2="434.4434"/><text fill="#000000" font-family="sans-serif" font-size="13" font-weight="bold" lengthAdjust="spacing" textLength="14" x="507.5" y="429.1807">11</text><text fill="#000000" font-family="sans-serif" font-size="13" lengthAdjust="spacing" textLength="60" x="525.5" y="429.1807">courseList</text><polygon fill="#181818" points="298.5,461.7344,288.5,465.7344,298.5,469.7344,294.5,465.7344" style="stroke:#181818;stroke-width:1.0;"/><line style="stroke:#181818;stroke-width:1.0;" x1="292.5" x2="484.5" y1="465.7344" y2="465.7344"/><text fill="#000000" font-family="sans-serif" font-size="13" font-weight="bold" lengthAdjust="spacing" textLength="14" x="304.5" y="460.4717">12</text><text fill="#000000" font-family="sans-serif" font-size="13" lengthAdjust="spacing" textLength="60" x="322.5" y="460.4717">courseList</text><polygon fill="#181818" points="50.5,493.0254,40.5,497.0254,50.5,501.0254,46.5,497.0254" style="stroke:#181818;stroke-width:1.0;"/><line style="stroke:#181818;stroke-width:1.0;stroke-dasharray:2.0,2.0;" x1="44.5" x2="281.5" y1="497.0254" y2="497.0254"/><text fill="#000000" font-family="sans-serif" font-size="13" font-weight="bold" lengthAdjust="spacing" textLength="14" x="56.5" y="491.7627">13</text><text fill="#000000" font-family="sans-serif" font-size="13" lengthAdjust="spacing" textLength="196" x="74.5" y="491.7627">asks which course code he wants</text><polygon fill="#181818" points="265.5,524.3164,275.5,528.3164,265.5,532.3164,269.5,528.3164" style="stroke:#181818;stroke-width:1.0;"/><line style="stroke:#181818;stroke-width:1.0;" x1="39.5" x2="271.5" y1="528.3164" y2="528.3164"/><text fill="#000000" font-family="sans-serif" font-size="13" font-weight="bold" lengthAdjust="spacing" textLength="14" x="46.5" y="523.0537">14</text><text fill="#000000" font-family="sans-serif" font-size="13" lengthAdjust="spacing" textLength="30" x="64.5" y="523.0537">Code</text><polygon fill="#181818" points="468.5,555.6074,478.5,559.6074,468.5,563.6074,472.5,559.6074" style="stroke:#181818;stroke-width:1.0;"/><line style="stroke:#181818;stroke-width:1.0;" x1="287.5" x2="474.5" y1="559.6074" y2="559.6074"/><text fill="#000000" font-family="sans-serif" font-size="13" font-weight="bold" lengthAdjust="spacing" textLength="14" x="294.5" y="554.3447">15</text><text fill="#000000" font-family="sans-serif" font-size="13" lengthAdjust="spacing" textLength="128" x="312.5" y="554.3447">getExams(user, code)</text><line style="stroke:#181818;stroke-width:1.0;" x1="490.5" x2="532.5" y1="590.8984" y2="590.8984"/><line style="stroke:#181818;stroke-width:1.0;" x1="532.5" x2="532.5" y1="590.8984" y2="603.8984"/><line style="stroke:#181818;stroke-width:1.0;" x1="491.5" x2="532.5" y1="603.8984" y2="603.8984"/><polygon fill="#181818" points="501.5,599.8984,491.5,603.8984,501.5,607.8984,497.5,603.8984" style="stroke:#181818;stroke-width:1.0;"/><text fill="#000000" font-family="sans-serif" font-size="13" font-weight="bold" lengthAdjust="spacing" textLength="14" x="497.5" y="585.6357">16</text><text fill="#000000" font-family="sans-serif" font-size="13" lengthAdjust="spacing" textLength="145" x="515.5" y="585.6357">getTeacherCourses(user)</text><polygon fill="#181818" points="671.5,631.1895,681.5,635.1895,671.5,639.1895,675.5,635.1895" style="stroke:#181818;stroke-width:1.0;"/><line style="stroke:#181818;stroke-width:1.0;" x1="490.5" x2="677.5" y1="635.1895" y2="635.1895"/><text fill="#000000" font-family="sans-serif" font-size="13" font-weight="bold" lengthAdjust="spacing" textLength="14" x="497.5" y="629.9268">17</text><text fill="#000000" font-family="sans-serif" font-size="13" lengthAdjust="spacing" textLength="141" x="515.5" y="629.9268">listTeacherGrades(code)</text><polygon fill="#181818" points="1166.5,662.4805,1176.5,666.4805,1166.5,670.4805,1170.5,666.4805" style="stroke:#181818;stroke-width:1.0;"/><line style="stroke:#181818;stroke-width:1.0;" x1="693.5" x2="1172.5" y1="666.4805" y2="666.4805"/><text fill="#000000" font-family="sans-serif" font-size="13" font-weight="bold" lengthAdjust="spacing" textLength="14" x="700.5" y="661.2178">18</text><text fill="#000000" font-family="sans-serif" font-size="13" lengthAdjust="spacing" textLength="166" x="718.5" y="661.2178">findGradesByCourse(course)</text><polygon fill="#181818" points="704.5,693.7715,694.5,697.7715,704.5,701.7715,700.5,697.7715" style="stroke:#181818;stroke-width:1.0;"/><line style="stroke:#181818;stroke-width:1.0;" x1="698.5" x2="1182.5" y1="697.7715" y2="697.7715"/><text fill="#000000" font-family="sans-serif" font-size="13" font-weight="bold" lengthAdjust="spacing" textLength="14" x="710.5" y="692.5088">19</text><text fill="#000000" font-family="sans-serif" font-size="13" lengthAdjust="spacing" textLength="104" x="728.5" y="692.5088">listTeacherExams</text><polygon fill="#181818" points="501.5,725.0625,491.5,729.0625,501.5,733.0625,497.5,729.0625" style="stroke:#181818;stroke-width:1.0;"/><line style="stroke:#181818;stroke-width:1.0;" x1="495.5" x2="687.5" y1="729.0625" y2="729.0625"/><text fill="#000000" font-family="sans-serif" font-size="13" font-weight="bold" lengthAdjust="spacing" textLength="14" x="507.5" y="723.7998">20</text><text fill="#000000" font-family="sans-serif" font-size="13" lengthAdjust="spacing" textLength="104" x="525.5" y="723.7998">listTeacherExams</text><polygon fill="#181818" points="298.5,756.3535,288.5,760.3535,298.5,764.3535,294.5,760.3535" style="stroke:#181818;stroke-width:1.0;"/><line style="stroke:#181818;stroke-width:1.0;" x1="292.5" x2="484.5" y1="760.3535" y2="760.3535"/><text fill="#000000" font-family="sans-serif" font-size="13" font-weight="bold" lengthAdjust="spacing" textLength="14" x="304.5" y="755.0908">21</text><text fill="#000000" font-family="sans-serif" font-size="13" lengthAdjust="spacing" textLength="104" x="322.5" y="755.0908">listTeacherExams</text><polygon fill="#181818" points="50.5,804.9355,40.5,808.9355,50.5,812.9355,46.5,808.9355" style="stroke:#181818;stroke-width:1.0;"/><line style="stroke:#181818;stroke-width:1.0;stroke-dasharray:2.0,2.0;" x1="44.5" x2="281.5" y1="808.9355" y2="808.9355"/><text fill="#000000" font-family="sans-serif" font-size="13" font-weight="bold" lengthAdjust="spacing" textLength="14" x="56.5" y="795.0273">22</text><text fill="#000000" font-family="sans-serif" font-size="13" lengthAdjust="spacing" textLength="148" x="74.5" y="786.3818">shows the list of students</text><text fill="#000000" font-family="sans-serif" font-size="13" lengthAdjust="spacing" textLength="149" x="78.5" y="803.6729">and corresponding grades</text><!--SRC=[jLR9JiCm4BtxAtmi4lm0YdgW0eJ40R7Sk1XdsbWKEx8TIl-USMnQDvcwBO9Jl3o_D-DP7D5vexkFDx2CCI6ziVmPX6nmtWhhbLIjq9xVA-UllyI7IvilTxogMWiEj1TU6JsT5l4pexqrooNOgX9jkrIoUEe9xAUIK5Kk3WQucUcimrtPVmUR3s0Tye2M45JXowEbsxK1-X5QunIwlRxflLzNrJmE45WBBzw40nwCsYBHTRkPvB1ertvWk63rAJnixfYb0R-OKdTysIzotm27i9CnZD6C4Gm4xpOMoBy0lraEnhk9ZzEpWjQMOQoPiUVQAQ8dAwPpcSuF4xAFGutyCNmAUNF2CPGnuZYIZZ8YshmFJdYO4eYn6ehwb4kKkaptbFipmZ4sFefyevHCpf1WmfUalUCBeKsvGaZFbQvJr9yRuU_wHCZYJz4KqpUQ5o0x5XRIXqfJil8EKHzH2w7-q8EV6h_amhqxlcgKR18zVchWMDuhR4QkA1GA_52tc27Rl_I8Vc_IOJi-xqt-u-vmN6SAycU_w3XBN4hOMojgPDhhGh7T35w1cCwHyMeTZPp4iERSkwSO6x1asKTQV1txVfOOGyAJYwR8VcBfq7budC9lAiWrPkNw1p5eS3FdpdSr_eKu_ggvq3McfyN_ajReMka5N_JXELHOtm00]--></g></svg>