<?xml version="1.0" encoding="us-ascii" standalone="no"?><svg xmlns="http://www.w3.org/2000/svg" xmlns:xlink="http://www.w3.org/1999/xlink" contentStyleType="text/css" height="1238px" preserveAspectRatio="none" style="width:803px;height:1238px;background:#FFFFFF;" version="1.1" viewBox="0 0 803 1238" width="803px" zoomAndPan="magnify"><defs/><g><!--class AnswerEnrollmentRequestUI--><g id="elem_AnswerEnrollmentRequestUI"><rect codeLine="5" fill="#F1F1F1" height="73.1094" id="AnswerEnrollmentRequestUI" rx="2.5" ry="2.5" style="stroke:#181818;stroke-width:0.5;" width="227" x="520" y="7"/><ellipse cx="535" cy="27.3105" fill="#ADD1B2" rx="11" ry="11" style="stroke:#181818;stroke-width:1.0;"/><path d="M537.9731,32.9536 Q537.3921,33.2524 536.7529,33.4019 Q536.1138,33.5513 535.4082,33.5513 Q532.9014,33.5513 531.5815,31.8994 Q530.2617,30.2476 530.2617,27.1265 Q530.2617,23.9971 531.5815,22.3452 Q532.9014,20.6934 535.4082,20.6934 Q536.1138,20.6934 536.7612,20.8428 Q537.4087,20.9922 537.9731,21.291 L537.9731,24.0137 Q537.3423,23.4326 536.7488,23.1628 Q536.1553,22.8931 535.5244,22.8931 Q534.1797,22.8931 533.4949,23.9597 Q532.8101,25.0264 532.8101,27.1265 Q532.8101,29.2183 533.4949,30.2849 Q534.1797,31.3516 535.5244,31.3516 Q536.1553,31.3516 536.7488,31.0818 Q537.3423,30.812 537.9731,30.231 Z " fill="#000000"/><text fill="#000000" font-family="sans-serif" font-size="12" font-style="italic" lengthAdjust="spacing" textLength="84" x="604.5" y="23.6016">&#171;presentation&#187;</text><text fill="#000000" font-family="sans-serif" font-size="14" lengthAdjust="spacing" textLength="195" x="549" y="39.668">AnswerEnrollmentRequestUI</text><line style="stroke:#181818;stroke-width:0.5;" x1="521" x2="746" y1="47.6211" y2="47.6211"/><line style="stroke:#181818;stroke-width:0.5;" x1="521" x2="746" y1="55.6211" y2="55.6211"/><text fill="#000000" font-family="sans-serif" font-size="14" lengthAdjust="spacing" textLength="65" x="526" y="73.1563">doShow()</text></g><!--class AnswerEnrollmentRequestController--><g id="elem_AnswerEnrollmentRequestController"><rect codeLine="9" fill="#F1F1F1" height="106.0859" id="AnswerEnrollmentRequestController" rx="2.5" ry="2.5" style="stroke:#181818;stroke-width:0.5;" width="307" x="480" y="141"/><ellipse cx="505.8" cy="161.3105" fill="#ADD1B2" rx="11" ry="11" style="stroke:#181818;stroke-width:1.0;"/><path d="M508.7731,166.9536 Q508.1921,167.2524 507.5529,167.4019 Q506.9138,167.5513 506.2082,167.5513 Q503.7014,167.5513 502.3815,165.8994 Q501.0617,164.2476 501.0617,161.1265 Q501.0617,157.9971 502.3815,156.3452 Q503.7014,154.6934 506.2082,154.6934 Q506.9138,154.6934 507.5612,154.8428 Q508.2087,154.9922 508.7731,155.291 L508.7731,158.0137 Q508.1423,157.4326 507.5488,157.1628 Q506.9553,156.8931 506.3244,156.8931 Q504.9797,156.8931 504.2949,157.9597 Q503.6101,159.0264 503.6101,161.1265 Q503.6101,163.2183 504.2949,164.2849 Q504.9797,165.3516 506.3244,165.3516 Q506.9553,165.3516 507.5488,165.0818 Q508.1423,164.812 508.7731,164.231 Z " fill="#000000"/><text fill="#000000" font-family="sans-serif" font-size="12" font-style="italic" lengthAdjust="spacing" textLength="75" x="610.2" y="157.6016">&#171;application&#187;</text><text fill="#000000" font-family="sans-serif" font-size="14" lengthAdjust="spacing" textLength="251" x="522.2" y="173.668">AnswerEnrollmentRequestController</text><line style="stroke:#181818;stroke-width:0.5;" x1="481" x2="786" y1="181.6211" y2="181.6211"/><line style="stroke:#181818;stroke-width:0.5;" x1="481" x2="786" y1="189.6211" y2="189.6211"/><text fill="#000000" font-family="sans-serif" font-size="14" lengthAdjust="spacing" textLength="295" x="486" y="207.1563">acceptRequest(EnrollmentRequest request)</text><text fill="#000000" font-family="sans-serif" font-size="14" lengthAdjust="spacing" textLength="289" x="486" y="223.6445">rejectRequest(EnrollmentRequest request)</text><text fill="#000000" font-family="sans-serif" font-size="14" lengthAdjust="spacing" textLength="150" x="486" y="240.1328">getPendingRequests()</text></g><!--class EnrollmentRequest--><g id="elem_EnrollmentRequest"><rect codeLine="16" fill="#F1F1F1" height="106.0859" id="EnrollmentRequest" rx="2.5" ry="2.5" style="stroke:#181818;stroke-width:0.5;" width="258" x="226.5" y="958"/><ellipse cx="286.25" cy="978.3105" fill="#ADD1B2" rx="11" ry="11" style="stroke:#181818;stroke-width:1.0;"/><path d="M289.2231,983.9536 Q288.6421,984.2524 288.0029,984.4019 Q287.3638,984.5513 286.6582,984.5513 Q284.1514,984.5513 282.8315,982.8994 Q281.5117,981.2476 281.5117,978.1265 Q281.5117,974.9971 282.8315,973.3452 Q284.1514,971.6934 286.6582,971.6934 Q287.3638,971.6934 288.0112,971.8428 Q288.6587,971.9922 289.2231,972.291 L289.2231,975.0137 Q288.5923,974.4326 287.9988,974.1628 Q287.4053,973.8931 286.7744,973.8931 Q285.4297,973.8931 284.7449,974.9597 Q284.0601,976.0264 284.0601,978.1265 Q284.0601,980.2183 284.7449,981.2849 Q285.4297,982.3516 286.7744,982.3516 Q287.4053,982.3516 287.9988,982.0818 Q288.5923,981.812 289.2231,981.231 Z " fill="#000000"/><text fill="#000000" font-family="sans-serif" font-size="12" font-style="italic" lengthAdjust="spacing" textLength="35" x="354.25" y="974.6016">&#171;root&#187;</text><text fill="#000000" font-family="sans-serif" font-size="14" lengthAdjust="spacing" textLength="130" x="306.75" y="990.668">EnrollmentRequest</text><line style="stroke:#181818;stroke-width:0.5;" x1="227.5" x2="483.5" y1="998.6211" y2="998.6211"/><line style="stroke:#181818;stroke-width:0.5;" x1="227.5" x2="483.5" y1="1006.6211" y2="1006.6211"/><text fill="#000000" font-family="sans-serif" font-size="14" lengthAdjust="spacing" textLength="246" x="232.5" y="1024.1563">create(User student, Course course)</text><text fill="#000000" font-family="sans-serif" font-size="14" lengthAdjust="spacing" textLength="54" x="232.5" y="1040.6445">accept()</text><text fill="#000000" font-family="sans-serif" font-size="14" lengthAdjust="spacing" textLength="59" x="232.5" y="1057.1328">decline()</text></g><!--class Course--><g id="elem_Course"><rect codeLine="22" fill="#F1F1F1" height="73.1094" id="Course" rx="2.5" ry="2.5" style="stroke:#181818;stroke-width:0.5;" width="81" x="343" y="1141.5"/><ellipse cx="358" cy="1161.8105" fill="#ADD1B2" rx="11" ry="11" style="stroke:#181818;stroke-width:1.0;"/><path d="M360.9731,1167.4536 Q360.3921,1167.7524 359.7529,1167.9019 Q359.1138,1168.0513 358.4082,1168.0513 Q355.9014,1168.0513 354.5815,1166.3994 Q353.2617,1164.7476 353.2617,1161.6265 Q353.2617,1158.4971 354.5815,1156.8452 Q355.9014,1155.1934 358.4082,1155.1934 Q359.1138,1155.1934 359.7612,1155.3428 Q360.4087,1155.4922 360.9731,1155.791 L360.9731,1158.5137 Q360.3423,1157.9326 359.7488,1157.6628 Q359.1553,1157.3931 358.5244,1157.3931 Q357.1797,1157.3931 356.4949,1158.4597 Q355.8101,1159.5264 355.8101,1161.6265 Q355.8101,1163.7183 356.4949,1164.7849 Q357.1797,1165.8516 358.5244,1165.8516 Q359.1553,1165.8516 359.7488,1165.5818 Q360.3423,1165.312 360.9731,1164.731 Z " fill="#000000"/><text fill="#000000" font-family="sans-serif" font-size="12" font-style="italic" lengthAdjust="spacing" textLength="35" x="379" y="1158.1016">&#171;root&#187;</text><text fill="#000000" font-family="sans-serif" font-size="14" lengthAdjust="spacing" textLength="49" x="372" y="1174.168">Course</text><line style="stroke:#181818;stroke-width:0.5;" x1="344" x2="423" y1="1182.1211" y2="1182.1211"/><line style="stroke:#181818;stroke-width:0.5;" x1="344" x2="423" y1="1190.1211" y2="1190.1211"/><text fill="#000000" font-family="sans-serif" font-size="14" lengthAdjust="spacing" textLength="43" x="349" y="1207.6563">state()</text></g><!--class User--><g id="elem_User"><rect codeLine="26" fill="#F1F1F1" height="73.1094" id="User" rx="2.5" ry="2.5" style="stroke:#181818;stroke-width:0.5;" width="63" x="629" y="1141.5"/><ellipse cx="644" cy="1161.8105" fill="#ADD1B2" rx="11" ry="11" style="stroke:#181818;stroke-width:1.0;"/><path d="M646.9731,1167.4536 Q646.3921,1167.7524 645.7529,1167.9019 Q645.1138,1168.0513 644.4082,1168.0513 Q641.9014,1168.0513 640.5815,1166.3994 Q639.2617,1164.7476 639.2617,1161.6265 Q639.2617,1158.4971 640.5815,1156.8452 Q641.9014,1155.1934 644.4082,1155.1934 Q645.1138,1155.1934 645.7612,1155.3428 Q646.4087,1155.4922 646.9731,1155.791 L646.9731,1158.5137 Q646.3423,1157.9326 645.7488,1157.6628 Q645.1553,1157.3931 644.5244,1157.3931 Q643.1797,1157.3931 642.4949,1158.4597 Q641.8101,1159.5264 641.8101,1161.6265 Q641.8101,1163.7183 642.4949,1164.7849 Q643.1797,1165.8516 644.5244,1165.8516 Q645.1553,1165.8516 645.7488,1165.5818 Q646.3423,1165.312 646.9731,1164.731 Z " fill="#000000"/><text fill="#000000" font-family="sans-serif" font-size="12" font-style="italic" lengthAdjust="spacing" textLength="35" x="656" y="1158.1016">&#171;root&#187;</text><text fill="#000000" font-family="sans-serif" font-size="14" lengthAdjust="spacing" textLength="31" x="658" y="1174.168">User</text><line style="stroke:#181818;stroke-width:0.5;" x1="630" x2="691" y1="1182.1211" y2="1182.1211"/><line style="stroke:#181818;stroke-width:0.5;" x1="630" x2="691" y1="1190.1211" y2="1190.1211"/><text fill="#000000" font-family="sans-serif" font-size="14" lengthAdjust="spacing" textLength="37" x="635" y="1207.6563">role()</text></g><!--class UserSession--><g id="elem_UserSession"><rect codeLine="30" fill="#F1F1F1" height="64.4883" id="UserSession" rx="2.5" ry="2.5" style="stroke:#181818;stroke-width:0.5;" width="147" x="597" y="864"/><ellipse cx="626.4" cy="880" fill="#ADD1B2" rx="11" ry="11" style="stroke:#181818;stroke-width:1.0;"/><path d="M629.3731,885.6431 Q628.7921,885.9419 628.1529,886.0913 Q627.5138,886.2407 626.8082,886.2407 Q624.3014,886.2407 622.9815,884.5889 Q621.6617,882.937 621.6617,879.8159 Q621.6617,876.6865 622.9815,875.0347 Q624.3014,873.3828 626.8082,873.3828 Q627.5138,873.3828 628.1612,873.5322 Q628.8087,873.6816 629.3731,873.9805 L629.3731,876.7031 Q628.7423,876.1221 628.1488,875.8523 Q627.5553,875.5825 626.9244,875.5825 Q625.5797,875.5825 624.8949,876.6492 Q624.2101,877.7158 624.2101,879.8159 Q624.2101,881.9077 624.8949,882.9744 Q625.5797,884.041 626.9244,884.041 Q627.5553,884.041 628.1488,883.7712 Q628.7423,883.5015 629.3731,882.9204 Z " fill="#000000"/><text fill="#000000" font-family="sans-serif" font-size="14" lengthAdjust="spacing" textLength="83" x="643.6" y="885.291">UserSession</text><line style="stroke:#181818;stroke-width:0.5;" x1="598" x2="743" y1="896" y2="896"/><line style="stroke:#181818;stroke-width:0.5;" x1="598" x2="743" y1="904" y2="904"/><text fill="#000000" font-family="sans-serif" font-size="14" lengthAdjust="spacing" textLength="135" x="603" y="921.5352">authenticatedUser()</text></g><!--class RequestState--><g id="elem_RequestState"><rect codeLine="35" fill="#F1F1F1" height="106.0859" id="RequestState" rx="2.5" ry="2.5" style="stroke:#181818;stroke-width:0.5;" width="121" x="459" y="1125"/><ellipse cx="474" cy="1145.3105" fill="#EB937F" rx="11" ry="11" style="stroke:#181818;stroke-width:1.0;"/><path d="M478.1143,1151.3105 L470.3945,1151.3105 L470.3945,1138.9175 L478.1143,1138.9175 L478.1143,1141.0757 L472.8433,1141.0757 L472.8433,1143.7485 L477.6162,1143.7485 L477.6162,1145.9067 L472.8433,1145.9067 L472.8433,1149.1523 L478.1143,1149.1523 Z " fill="#000000"/><text fill="#000000" font-family="sans-serif" font-size="12" font-style="italic" lengthAdjust="spacing" textLength="42" x="511.5" y="1141.6016">&#171;value&#187;</text><text fill="#000000" font-family="sans-serif" font-size="14" lengthAdjust="spacing" textLength="89" x="488" y="1157.668">RequestState</text><line style="stroke:#181818;stroke-width:0.5;" x1="460" x2="579" y1="1165.6211" y2="1165.6211"/><text fill="#000000" font-family="sans-serif" font-size="14" lengthAdjust="spacing" textLength="60" x="465" y="1183.1563">PENDING</text><text fill="#000000" font-family="sans-serif" font-size="14" lengthAdjust="spacing" textLength="73" x="465" y="1199.6445">ACCEPTED</text><text fill="#000000" font-family="sans-serif" font-size="14" lengthAdjust="spacing" textLength="67" x="465" y="1216.1328">DECLINED</text><line style="stroke:#181818;stroke-width:0.5;" x1="460" x2="579" y1="1223.0859" y2="1223.0859"/></g><!--class AnsweredDate--><g id="elem_AnsweredDate"><rect codeLine="41" fill="#F1F1F1" height="56.6211" id="AnsweredDate" rx="2.5" ry="2.5" style="stroke:#181818;stroke-width:0.5;" width="131" x="7" y="1149.5"/><ellipse cx="22" cy="1169.8105" fill="#ADD1B2" rx="11" ry="11" style="stroke:#181818;stroke-width:1.0;"/><path d="M24.9731,1175.4536 Q24.3921,1175.7524 23.7529,1175.9019 Q23.1138,1176.0513 22.4082,1176.0513 Q19.9014,1176.0513 18.5815,1174.3994 Q17.2617,1172.7476 17.2617,1169.6265 Q17.2617,1166.4971 18.5815,1164.8452 Q19.9014,1163.1934 22.4082,1163.1934 Q23.1138,1163.1934 23.7612,1163.3428 Q24.4087,1163.4922 24.9731,1163.791 L24.9731,1166.5137 Q24.3423,1165.9326 23.7488,1165.6628 Q23.1553,1165.3931 22.5244,1165.3931 Q21.1797,1165.3931 20.4949,1166.4597 Q19.8101,1167.5264 19.8101,1169.6265 Q19.8101,1171.7183 20.4949,1172.7849 Q21.1797,1173.8516 22.5244,1173.8516 Q23.1553,1173.8516 23.7488,1173.5818 Q24.3423,1173.312 24.9731,1172.731 Z " fill="#000000"/><text fill="#000000" font-family="sans-serif" font-size="12" font-style="italic" lengthAdjust="spacing" textLength="42" x="64.5" y="1166.1016">&#171;value&#187;</text><text fill="#000000" font-family="sans-serif" font-size="14" lengthAdjust="spacing" textLength="99" x="36" y="1182.168">AnsweredDate</text><line style="stroke:#181818;stroke-width:0.5;" x1="8" x2="137" y1="1190.1211" y2="1190.1211"/><line style="stroke:#181818;stroke-width:0.5;" x1="8" x2="137" y1="1198.1211" y2="1198.1211"/></g><!--class RequestedDate--><g id="elem_RequestedDate"><rect codeLine="44" fill="#F1F1F1" height="56.6211" id="RequestedDate" rx="2.5" ry="2.5" style="stroke:#181818;stroke-width:0.5;" width="135" x="173" y="1149.5"/><ellipse cx="188" cy="1169.8105" fill="#ADD1B2" rx="11" ry="11" style="stroke:#181818;stroke-width:1.0;"/><path d="M190.9731,1175.4536 Q190.3921,1175.7524 189.7529,1175.9019 Q189.1138,1176.0513 188.4082,1176.0513 Q185.9014,1176.0513 184.5815,1174.3994 Q183.2617,1172.7476 183.2617,1169.6265 Q183.2617,1166.4971 184.5815,1164.8452 Q185.9014,1163.1934 188.4082,1163.1934 Q189.1138,1163.1934 189.7612,1163.3428 Q190.4087,1163.4922 190.9731,1163.791 L190.9731,1166.5137 Q190.3423,1165.9326 189.7488,1165.6628 Q189.1553,1165.3931 188.5244,1165.3931 Q187.1797,1165.3931 186.4949,1166.4597 Q185.8101,1167.5264 185.8101,1169.6265 Q185.8101,1171.7183 186.4949,1172.7849 Q187.1797,1173.8516 188.5244,1173.8516 Q189.1553,1173.8516 189.7488,1173.5818 Q190.3423,1173.312 190.9731,1172.731 Z " fill="#000000"/><text fill="#000000" font-family="sans-serif" font-size="12" font-style="italic" lengthAdjust="spacing" textLength="42" x="232.5" y="1166.1016">&#171;value&#187;</text><text fill="#000000" font-family="sans-serif" font-size="14" lengthAdjust="spacing" textLength="103" x="202" y="1182.168">RequestedDate</text><line style="stroke:#181818;stroke-width:0.5;" x1="174" x2="307" y1="1190.1211" y2="1190.1211"/><line style="stroke:#181818;stroke-width:0.5;" x1="174" x2="307" y1="1198.1211" y2="1198.1211"/></g><!--class PersistenceContext--><g id="elem_PersistenceContext"><rect codeLine="48" fill="#F1F1F1" height="73.1094" id="PersistenceContext" rx="2.5" ry="2.5" style="stroke:#181818;stroke-width:0.5;" width="164" x="262.5" y="459"/><ellipse cx="277.5" cy="479.3105" fill="#ADD1B2" rx="11" ry="11" style="stroke:#181818;stroke-width:1.0;"/><path d="M280.4731,484.9536 Q279.8921,485.2524 279.2529,485.4019 Q278.6138,485.5513 277.9082,485.5513 Q275.4014,485.5513 274.0815,483.8994 Q272.7617,482.2476 272.7617,479.1265 Q272.7617,475.9971 274.0815,474.3452 Q275.4014,472.6934 277.9082,472.6934 Q278.6138,472.6934 279.2612,472.8428 Q279.9087,472.9922 280.4731,473.291 L280.4731,476.0137 Q279.8423,475.4326 279.2488,475.1628 Q278.6553,474.8931 278.0244,474.8931 Q276.6797,474.8931 275.9949,475.9597 Q275.3101,477.0264 275.3101,479.1265 Q275.3101,481.2183 275.9949,482.2849 Q276.6797,483.3516 278.0244,483.3516 Q278.6553,483.3516 279.2488,483.0818 Q279.8423,482.812 280.4731,482.231 Z " fill="#000000"/><text fill="#000000" font-family="sans-serif" font-size="12" font-style="italic" lengthAdjust="spacing" textLength="78" x="318.5" y="475.6016">&#171;persistence&#187;</text><text fill="#000000" font-family="sans-serif" font-size="14" lengthAdjust="spacing" textLength="132" x="291.5" y="491.668">PersistenceContext</text><line style="stroke:#181818;stroke-width:0.5;" x1="263.5" x2="425.5" y1="499.6211" y2="499.6211"/><line style="stroke:#181818;stroke-width:0.5;" x1="263.5" x2="425.5" y1="507.6211" y2="507.6211"/><text fill="#000000" font-family="sans-serif" font-size="14" lengthAdjust="spacing" textLength="92" x="268.5" y="525.1563">repositories()</text></g><!--class RepositoryFactory--><g id="elem_RepositoryFactory"><rect codeLine="52" fill="#F1F1F1" height="89.5977" id="RepositoryFactory" rx="2.5" ry="2.5" style="stroke:#181818;stroke-width:0.5;" width="159" x="265" y="593"/><ellipse cx="281.8" cy="613.3105" fill="#ADD1B2" rx="11" ry="11" style="stroke:#181818;stroke-width:1.0;"/><path d="M284.7731,618.9536 Q284.1921,619.2524 283.5529,619.4019 Q282.9138,619.5513 282.2082,619.5513 Q279.7014,619.5513 278.3815,617.8994 Q277.0617,616.2476 277.0617,613.1265 Q277.0617,609.9971 278.3815,608.3452 Q279.7014,606.6934 282.2082,606.6934 Q282.9138,606.6934 283.5612,606.8428 Q284.2087,606.9922 284.7731,607.291 L284.7731,610.0137 Q284.1423,609.4326 283.5488,609.1628 Q282.9553,608.8931 282.3244,608.8931 Q280.9797,608.8931 280.2949,609.9597 Q279.6101,611.0264 279.6101,613.1265 Q279.6101,615.2183 280.2949,616.2849 Q280.9797,617.3516 282.3244,617.3516 Q282.9553,617.3516 283.5488,617.0818 Q284.1423,616.812 284.7731,616.231 Z " fill="#000000"/><text fill="#000000" font-family="sans-serif" font-size="12" font-style="italic" lengthAdjust="spacing" textLength="51" x="332.2" y="609.6016">&#171;factory&#187;</text><text fill="#000000" font-family="sans-serif" font-size="14" lengthAdjust="spacing" textLength="123" x="296.2" y="625.668">RepositoryFactory</text><line style="stroke:#181818;stroke-width:0.5;" x1="266" x2="423" y1="633.6211" y2="633.6211"/><line style="stroke:#181818;stroke-width:0.5;" x1="266" x2="423" y1="641.6211" y2="641.6211"/><text fill="#000000" font-family="sans-serif" font-size="14" lengthAdjust="spacing" textLength="63" x="271" y="659.1563">courses()</text><text fill="#000000" font-family="sans-serif" font-size="14" lengthAdjust="spacing" textLength="147" x="271" y="675.6445">enrollmentRequests()</text></g><!--class CourseRepository--><g id="elem_CourseRepository"><rect codeLine="57" fill="#F1F1F1" height="89.5977" id="CourseRepository" rx="2.5" ry="2.5" style="stroke:#181818;stroke-width:0.5;" width="271" x="348" y="744"/><ellipse cx="418.25" cy="764.3105" fill="#ADD1B2" rx="11" ry="11" style="stroke:#181818;stroke-width:1.0;"/><path d="M421.2231,769.9536 Q420.6421,770.2524 420.0029,770.4019 Q419.3638,770.5513 418.6582,770.5513 Q416.1514,770.5513 414.8315,768.8994 Q413.5117,767.2476 413.5117,764.1265 Q413.5117,760.9971 414.8315,759.3452 Q416.1514,757.6934 418.6582,757.6934 Q419.3638,757.6934 420.0112,757.8428 Q420.6587,757.9922 421.2231,758.291 L421.2231,761.0137 Q420.5923,760.4326 419.9988,760.1628 Q419.4053,759.8931 418.7744,759.8931 Q417.4297,759.8931 416.7449,760.9597 Q416.0601,762.0264 416.0601,764.1265 Q416.0601,766.2183 416.7449,767.2849 Q417.4297,768.3516 418.7744,768.3516 Q419.4053,768.3516 419.9988,768.0818 Q420.5923,767.812 421.2231,767.231 Z " fill="#000000"/><text fill="#000000" font-family="sans-serif" font-size="12" font-style="italic" lengthAdjust="spacing" textLength="70" x="464.75" y="760.6016">&#171;repository&#187;</text><text fill="#000000" font-family="sans-serif" font-size="14" lengthAdjust="spacing" textLength="122" x="438.75" y="776.668">CourseRepository</text><line style="stroke:#181818;stroke-width:0.5;" x1="349" x2="618" y1="784.6211" y2="784.6211"/><line style="stroke:#181818;stroke-width:0.5;" x1="349" x2="618" y1="792.6211" y2="792.6211"/><text fill="#000000" font-family="sans-serif" font-size="14" lengthAdjust="spacing" textLength="139" x="354" y="810.1563">save(Course course)</text><text fill="#000000" font-family="sans-serif" font-size="14" lengthAdjust="spacing" textLength="259" x="354" y="826.6445">findByCode(CourseCode courseCode)</text></g><!--class EnrollmentRequestRepository--><g id="elem_EnrollmentRequestRepository"><rect codeLine="62" fill="#F1F1F1" height="89.5977" id="EnrollmentRequestRepository" rx="2.5" ry="2.5" style="stroke:#181818;stroke-width:0.5;" width="238" x="74.5" y="744"/><ellipse cx="90.85" cy="764.3105" fill="#ADD1B2" rx="11" ry="11" style="stroke:#181818;stroke-width:1.0;"/><path d="M93.8231,769.9536 Q93.2421,770.2524 92.6029,770.4019 Q91.9638,770.5513 91.2582,770.5513 Q88.7514,770.5513 87.4315,768.8994 Q86.1117,767.2476 86.1117,764.1265 Q86.1117,760.9971 87.4315,759.3452 Q88.7514,757.6934 91.2582,757.6934 Q91.9638,757.6934 92.6112,757.8428 Q93.2587,757.9922 93.8231,758.291 L93.8231,761.0137 Q93.1923,760.4326 92.5988,760.1628 Q92.0053,759.8931 91.3744,759.8931 Q90.0297,759.8931 89.3449,760.9597 Q88.6601,762.0264 88.6601,764.1265 Q88.6601,766.2183 89.3449,767.2849 Q90.0297,768.3516 91.3744,768.3516 Q92.0053,768.3516 92.5988,768.0818 Q93.1923,767.812 93.8231,767.231 Z " fill="#000000"/><text fill="#000000" font-family="sans-serif" font-size="12" font-style="italic" lengthAdjust="spacing" textLength="70" x="171.65" y="760.6016">&#171;repository&#187;</text><text fill="#000000" font-family="sans-serif" font-size="14" lengthAdjust="spacing" textLength="203" x="105.15" y="776.668">EnrollmentRequestRepository</text><line style="stroke:#181818;stroke-width:0.5;" x1="75.5" x2="311.5" y1="784.6211" y2="784.6211"/><line style="stroke:#181818;stroke-width:0.5;" x1="75.5" x2="311.5" y1="792.6211" y2="792.6211"/><text fill="#000000" font-family="sans-serif" font-size="14" lengthAdjust="spacing" textLength="226" x="80.5" y="810.1563">save(EnrollmentRequest request)</text><text fill="#000000" font-family="sans-serif" font-size="14" lengthAdjust="spacing" textLength="155" x="80.5" y="826.6445">findPendingRequests()</text></g><!--class EnrollmentRequestManagementService--><g id="elem_EnrollmentRequestManagementService"><rect codeLine="68" fill="#F1F1F1" height="89.5977" id="EnrollmentRequestManagementService" rx="2.5" ry="2.5" style="stroke:#181818;stroke-width:0.5;" width="307" x="325" y="308"/><ellipse cx="343.6" cy="328.3105" fill="#ADD1B2" rx="11" ry="11" style="stroke:#181818;stroke-width:1.0;"/><path d="M346.5731,333.9536 Q345.9921,334.2524 345.3529,334.4019 Q344.7138,334.5513 344.0082,334.5513 Q341.5014,334.5513 340.1815,332.8994 Q338.8617,331.2476 338.8617,328.1265 Q338.8617,324.9971 340.1815,323.3452 Q341.5014,321.6934 344.0082,321.6934 Q344.7138,321.6934 345.3612,321.8428 Q346.0087,321.9922 346.5731,322.291 L346.5731,325.0137 Q345.9423,324.4326 345.3488,324.1628 Q344.7553,323.8931 344.1244,323.8931 Q342.7797,323.8931 342.0949,324.9597 Q341.4101,326.0264 341.4101,328.1265 Q341.4101,330.2183 342.0949,331.2849 Q342.7797,332.3516 344.1244,332.3516 Q344.7553,332.3516 345.3488,332.0818 Q345.9423,331.812 346.5731,331.231 Z " fill="#000000"/><text fill="#000000" font-family="sans-serif" font-size="12" font-style="italic" lengthAdjust="spacing" textLength="52" x="465.9" y="324.6016">&#171;service&#187;</text><text fill="#000000" font-family="sans-serif" font-size="14" lengthAdjust="spacing" textLength="267" x="358.4" y="340.668">EnrollmentRequestManagementService</text><line style="stroke:#181818;stroke-width:0.5;" x1="326" x2="631" y1="348.6211" y2="348.6211"/><line style="stroke:#181818;stroke-width:0.5;" x1="326" x2="631" y1="356.6211" y2="356.6211"/><text fill="#000000" font-family="sans-serif" font-size="14" lengthAdjust="spacing" textLength="295" x="331" y="374.1563">acceptRequest(EnrollmentRequest request)</text><text fill="#000000" font-family="sans-serif" font-size="14" lengthAdjust="spacing" textLength="289" x="331" y="390.6445">rejectRequest(EnrollmentRequest request)</text></g><!--class AuthorizationService--><g id="elem_AuthorizationService"><rect codeLine="73" fill="#F1F1F1" height="73.1094" id="AuthorizationService" rx="2.5" ry="2.5" style="stroke:#181818;stroke-width:0.5;" width="175" x="595" y="601.5"/><ellipse cx="610" cy="621.8105" fill="#ADD1B2" rx="11" ry="11" style="stroke:#181818;stroke-width:1.0;"/><path d="M612.9731,627.4536 Q612.3921,627.7524 611.7529,627.9019 Q611.1138,628.0513 610.4082,628.0513 Q607.9014,628.0513 606.5815,626.3994 Q605.2617,624.7476 605.2617,621.6265 Q605.2617,618.4971 606.5815,616.8452 Q607.9014,615.1934 610.4082,615.1934 Q611.1138,615.1934 611.7612,615.3428 Q612.4087,615.4922 612.9731,615.791 L612.9731,618.5137 Q612.3423,617.9326 611.7488,617.6628 Q611.1553,617.3931 610.5244,617.3931 Q609.1797,617.3931 608.4949,618.4597 Q607.8101,619.5264 607.8101,621.6265 Q607.8101,623.7183 608.4949,624.7849 Q609.1797,625.8516 610.5244,625.8516 Q611.1553,625.8516 611.7488,625.5818 Q612.3423,625.312 612.9731,624.731 Z " fill="#000000"/><text fill="#000000" font-family="sans-serif" font-size="12" font-style="italic" lengthAdjust="spacing" textLength="52" x="669.5" y="618.1016">&#171;service&#187;</text><text fill="#000000" font-family="sans-serif" font-size="14" lengthAdjust="spacing" textLength="143" x="624" y="634.168">AuthorizationService</text><line style="stroke:#181818;stroke-width:0.5;" x1="596" x2="769" y1="642.1211" y2="642.1211"/><line style="stroke:#181818;stroke-width:0.5;" x1="596" x2="769" y1="650.1211" y2="650.1211"/><text fill="#000000" font-family="sans-serif" font-size="14" lengthAdjust="spacing" textLength="61" x="601" y="667.6563">session()</text></g><!--class AuthzRegistry--><g id="elem_AuthzRegistry"><rect codeLine="77" fill="#F1F1F1" height="73.1094" id="AuthzRegistry" rx="2.5" ry="2.5" style="stroke:#181818;stroke-width:0.5;" width="163" x="604" y="459"/><ellipse cx="634.75" cy="479.3105" fill="#ADD1B2" rx="11" ry="11" style="stroke:#181818;stroke-width:1.0;"/><path d="M637.7231,484.9536 Q637.1421,485.2524 636.5029,485.4019 Q635.8638,485.5513 635.1582,485.5513 Q632.6514,485.5513 631.3315,483.8994 Q630.0117,482.2476 630.0117,479.1265 Q630.0117,475.9971 631.3315,474.3452 Q632.6514,472.6934 635.1582,472.6934 Q635.8638,472.6934 636.5112,472.8428 Q637.1587,472.9922 637.7231,473.291 L637.7231,476.0137 Q637.0923,475.4326 636.4988,475.1628 Q635.9053,474.8931 635.2744,474.8931 Q633.9297,474.8931 633.2449,475.9597 Q632.5601,477.0264 632.5601,479.1265 Q632.5601,481.2183 633.2449,482.2849 Q633.9297,483.3516 635.2744,483.3516 Q635.9053,483.3516 636.4988,483.0818 Q637.0923,482.812 637.7231,482.231 Z " fill="#000000"/><text fill="#000000" font-family="sans-serif" font-size="12" font-style="italic" lengthAdjust="spacing" textLength="29" x="685.75" y="475.6016">&#171;util&#187;</text><text fill="#000000" font-family="sans-serif" font-size="14" lengthAdjust="spacing" textLength="96" x="652.25" y="491.668">AuthzRegistry</text><line style="stroke:#181818;stroke-width:0.5;" x1="605" x2="766" y1="499.6211" y2="499.6211"/><line style="stroke:#181818;stroke-width:0.5;" x1="605" x2="766" y1="507.6211" y2="507.6211"/><text fill="#000000" font-family="sans-serif" font-size="14" lengthAdjust="spacing" textLength="151" x="610" y="525.1563">authorizationService()</text></g><!--link EnrollmentRequest to Course--><g id="link_EnrollmentRequest_Course"><path codeLine="82" d="M364.36,1064.21 C367.79,1084.44 371.7,1107.49 375.09,1127.46 " fill="none" id="EnrollmentRequest-to-Course" style="stroke:#181818;stroke-width:1.0;"/><polygon fill="#181818" points="377.4,1140.04,380.3413,1133.456,375.3951,1128.2087,372.4538,1134.7926,377.4,1140.04" style="stroke:#181818;stroke-width:1.0;"/></g><!--link EnrollmentRequest to User--><g id="link_EnrollmentRequest_User"><path codeLine="83" d="M483.36,1064.37 C521.16,1081.78 561.93,1102.53 597.5,1125 C604.34,1129.32 611.25,1134.29 617.87,1139.42 " fill="none" id="EnrollmentRequest-to-User" style="stroke:#181818;stroke-width:1.0;"/><polygon fill="#181818" points="627.67,1148.09,625.4954,1141.2146,618.3124,1140.5776,620.4871,1147.453,627.67,1148.09" style="stroke:#181818;stroke-width:1.0;"/></g><!--link EnrollmentRequest to RequestState--><g id="link_EnrollmentRequest_RequestState"><path codeLine="84" d="M407.39,1064.21 C423.39,1080.31 441.17,1098.2 457.77,1114.89 " fill="none" id="EnrollmentRequest-to-RequestState" style="stroke:#181818;stroke-width:1.0;"/><polygon fill="#181818" points="466.38,1123.57,464.9933,1116.4935,457.9277,1115.0518,459.3145,1122.1283,466.38,1123.57" style="stroke:#181818;stroke-width:1.0;"/></g><!--link EnrollmentRequest to RequestedDate--><g id="link_EnrollmentRequest_RequestedDate"><path codeLine="85" d="M319.11,1064.21 C302.49,1088.06 283.14,1115.83 267.79,1137.85 " fill="none" id="EnrollmentRequest-to-RequestedDate" style="stroke:#181818;stroke-width:1.0;"/><polygon fill="#181818" points="259.94,1148.1,266.6508,1145.4609,266.7959,1138.2513,260.085,1140.8904,259.94,1148.1" style="stroke:#181818;stroke-width:1.0;"/></g><!--link EnrollmentRequest to AnsweredDate--><g id="link_EnrollmentRequest_AnsweredDate"><path codeLine="86" d="M260.63,1064.44 C227.21,1083.22 189.51,1104.75 155.5,1125 C146.56,1130.32 137.15,1136.07 128.01,1141.74 " fill="none" id="EnrollmentRequest-to-AnsweredDate" style="stroke:#181818;stroke-width:1.0;"/><polygon fill="none" points="117.21,1149.1,124.4179,1149.3154,127.3889,1142.7448,120.1811,1142.5294,117.21,1149.1" style="stroke:#181818;stroke-width:1.0;"/></g><!--link EnrollmentRequestRepository to EnrollmentRequest--><g id="link_EnrollmentRequestRepository_EnrollmentRequest"><path codeLine="88" d="M226.09,834.26 C251.3,868.5 286.41,916.17 313.69,953.22 " fill="none" id="EnrollmentRequestRepository-to-EnrollmentRequest" style="stroke:#181818;stroke-width:1.0;"/><polygon fill="#181818" points="316.98,956.69,314.8568,947.0727,314.0121,952.6662,308.4186,951.8214,316.98,956.69" style="stroke:#181818;stroke-width:1.0;"/><polygon fill="#000000" points="301.4648,900.1814,298.468,891.1554,293.7349,894.6407,301.4648,900.1814" style="stroke:#000000;stroke-width:1.0;"/><text fill="#000000" font-family="sans-serif" font-size="13" lengthAdjust="spacing" textLength="41" x="307.5" y="901.0684">knows</text></g><!--link AnswerEnrollmentRequestUI to AnswerEnrollmentRequestController--><g id="link_AnswerEnrollmentRequestUI_AnswerEnrollmentRequestController"><path codeLine="90" d="M633.5,80.45 C633.5,96.78 633.5,116.53 633.5,134.89 " fill="none" id="AnswerEnrollmentRequestUI-to-AnswerEnrollmentRequestController" style="stroke:#181818;stroke-width:1.0;stroke-dasharray:7.0,7.0;"/><polygon fill="#181818" points="633.5,139.53,637.5,130.53,633.5,134.53,629.5,130.53,633.5,139.53" style="stroke:#181818;stroke-width:1.0;"/></g><!--link AnswerEnrollmentRequestController to EnrollmentRequestManagementService--><g id="link_AnswerEnrollmentRequestController_EnrollmentRequestManagementService"><path codeLine="92" d="M581.89,247.28 C563.96,265.44 543.94,285.72 526.33,303.56 " fill="none" id="AnswerEnrollmentRequestController-to-EnrollmentRequestManagementService" style="stroke:#181818;stroke-width:1.0;stroke-dasharray:7.0,7.0;"/><polygon fill="#181818" points="523.37,306.56,532.5408,302.9688,526.884,303.0031,526.8498,297.3464,523.37,306.56" style="stroke:#181818;stroke-width:1.0;"/></g><!--link AnswerEnrollmentRequestController to AuthzRegistry--><g id="link_AnswerEnrollmentRequestController_AuthzRegistry"><path codeLine="93" d="M642.56,247.17 C652.72,305.71 669,399.48 678.32,453.17 " fill="none" id="AnswerEnrollmentRequestController-to-AuthzRegistry" style="stroke:#181818;stroke-width:1.0;stroke-dasharray:7.0,7.0;"/><polygon fill="#181818" points="679.31,457.87,681.7041,448.3166,678.4509,452.9444,673.8231,449.6912,679.31,457.87" style="stroke:#181818;stroke-width:1.0;"/></g><!--link AnswerEnrollmentRequestController to AuthorizationService--><g id="link_AnswerEnrollmentRequestController_AuthorizationService"><path codeLine="94" d="M674.58,247.45 C711.57,298.26 763.27,379.14 784.5,459 C792.83,490.36 796.7,501.94 784.5,532 C774.28,557.18 754.81,579.64 735.59,597.26 " fill="none" id="AnswerEnrollmentRequestController-to-AuthorizationService" style="stroke:#181818;stroke-width:1.0;"/><polygon fill="#181818" points="732.24,600.18,741.6055,597.1325,735.9565,596.8352,736.2538,591.1861,732.24,600.18" style="stroke:#181818;stroke-width:1.0;"/></g><!--link AnswerEnrollmentRequestController to EnrollmentRequestRepository--><g id="link_AnswerEnrollmentRequestController_EnrollmentRequestRepository"><path codeLine="95" d="M479.59,213.83 C334.28,236.04 138.5,279.42 138.5,352 C138.5,352 138.5,352 138.5,639 C138.5,673.65 151.76,710.19 165.25,738.42 " fill="none" id="AnswerEnrollmentRequestController-to-EnrollmentRequestRepository" style="stroke:#181818;stroke-width:1.0;"/><polygon fill="#181818" points="167.77,742.59,167.3983,732.7482,165.5683,738.1008,160.2156,736.2709,167.77,742.59" style="stroke:#181818;stroke-width:1.0;"/></g><!--link EnrollmentRequestManagementService to PersistenceContext--><g id="link_EnrollmentRequestManagementService_PersistenceContext"><path codeLine="97" d="M436.1,398.46 C418.85,416.54 399.07,437.28 382.32,454.84 " fill="none" id="EnrollmentRequestManagementService-to-PersistenceContext" style="stroke:#181818;stroke-width:1.0;stroke-dasharray:7.0,7.0;"/><polygon fill="#181818" points="379.57,457.77,388.6738,454.0123,383.0186,454.1497,382.8813,448.4945,379.57,457.77" style="stroke:#181818;stroke-width:1.0;"/></g><!--link EnrollmentRequestManagementService to EnrollmentRequestRepository--><g id="link_EnrollmentRequestManagementService_EnrollmentRequestRepository"><path codeLine="98" d="M324.66,397.28 C294.43,412.32 265.83,432.37 245.5,459 C183.04,540.81 182.3,667.91 187.64,737.76 " fill="none" id="EnrollmentRequestManagementService-to-EnrollmentRequestRepository" style="stroke:#181818;stroke-width:1.0;"/><polygon fill="#181818" points="188.11,742.52,191.351,733.2197,187.696,737.5372,183.3785,733.8821,188.11,742.52" style="stroke:#181818;stroke-width:1.0;"/></g><!--link EnrollmentRequestManagementService to CourseRepository--><g id="link_EnrollmentRequestManagementService_CourseRepository"><path codeLine="99" d="M479.01,398.41 C479.95,479.82 481.94,652.44 482.92,737.91 " fill="none" id="EnrollmentRequestManagementService-to-CourseRepository" style="stroke:#181818;stroke-width:1.0;"/><polygon fill="#181818" points="482.99,742.66,486.8869,733.6149,482.9329,737.6603,478.8874,733.7063,482.99,742.66" style="stroke:#181818;stroke-width:1.0;"/></g><!--link PersistenceContext to RepositoryFactory--><g id="link_PersistenceContext_RepositoryFactory"><path codeLine="101" d="M344.5,532.32 C344.5,548.97 344.5,569.05 344.5,587.15 " fill="none" id="PersistenceContext-to-RepositoryFactory" style="stroke:#181818;stroke-width:1.0;stroke-dasharray:7.0,7.0;"/><polygon fill="#181818" points="344.5,591.7,348.5,582.7,344.5,586.7,340.5,582.7,344.5,591.7" style="stroke:#181818;stroke-width:1.0;"/></g><!--link RepositoryFactory to EnrollmentRequestRepository--><g id="link_RepositoryFactory_EnrollmentRequestRepository"><path codeLine="104" d="M299.6,683.3 C281.66,701.01 260.94,721.45 242.6,739.55 " fill="none" id="RepositoryFactory-to-EnrollmentRequestRepository" style="stroke:#181818;stroke-width:1.0;stroke-dasharray:7.0,7.0;"/><polygon fill="#181818" points="239.48,742.61,248.7006,739.1487,243.0439,739.1031,243.0895,733.4464,239.48,742.61" style="stroke:#181818;stroke-width:1.0;"/></g><!--link RepositoryFactory to CourseRepository--><g id="link_RepositoryFactory_CourseRepository"><path codeLine="105" d="M385.83,683.3 C402.34,701.01 421.42,721.45 438.3,739.55 " fill="none" id="RepositoryFactory-to-CourseRepository" style="stroke:#181818;stroke-width:1.0;stroke-dasharray:7.0,7.0;"/><polygon fill="#181818" points="441.09,742.61,437.8721,733.3017,437.6779,738.9552,432.0244,738.761,441.09,742.61" style="stroke:#181818;stroke-width:1.0;"/></g><!--link AuthzRegistry to AuthorizationService--><g id="link_AuthzRegistry_AuthorizationService"><path codeLine="109" d="M684.74,532.32 C684.32,551.56 683.82,575.37 683.39,595.43 " fill="none" id="AuthzRegistry-to-AuthorizationService" style="stroke:#181818;stroke-width:1.0;stroke-dasharray:7.0,7.0;"/><polygon fill="#181818" points="683.26,600.25,687.4646,591.3438,683.3743,595.2513,679.4667,591.1609,683.26,600.25" style="stroke:#181818;stroke-width:1.0;"/></g><!--link AuthorizationService to UserSession--><g id="link_AuthorizationService_UserSession"><path codeLine="110" d="M680.82,674.87 C678.55,723.26 674.53,809.04 672.23,858.01 " fill="none" id="AuthorizationService-to-UserSession" style="stroke:#181818;stroke-width:1.0;"/><polygon fill="#181818" points="671.96,862.79,676.3668,853.9821,672.1883,857.7952,668.3752,853.6167,671.96,862.79" style="stroke:#181818;stroke-width:1.0;"/></g><!--link UserSession to User--><g id="link_UserSession_User"><path codeLine="111" d="M669.38,928.3 C667.57,978.94 664.01,1078.83 661.99,1135.39 " fill="none" id="UserSession-to-User" style="stroke:#181818;stroke-width:1.0;"/><polygon fill="#181818" points="661.78,1140.06,666.1113,1131.2147,661.9656,1135.0634,658.1168,1130.9177,661.78,1140.06" style="stroke:#181818;stroke-width:1.0;"/></g><!--link EnrollmentRequestManagementService to AuthzRegistry--><g id="link_EnrollmentRequestManagementService_AuthzRegistry"><path codeLine="113" d="M544,398.46 C570.87,416.69 601.71,437.63 627.73,455.29 " fill="none" id="EnrollmentRequestManagementService-to-AuthzRegistry" style="stroke:#181818;stroke-width:1.0;stroke-dasharray:7.0,7.0;"/><polygon fill="#181818" points="631.53,458.55,626.3132,450.1963,627.3874,455.7502,621.8335,456.8244,631.53,458.55" style="stroke:#181818;stroke-width:1.0;"/></g><!--link EnrollmentRequestManagementService to AuthorizationService--><g id="link_EnrollmentRequestManagementService_AuthorizationService"><path codeLine="114" d="M502.2,398.33 C522.71,435.31 554.1,488.75 586.5,532 C603.44,554.6 624.4,577.96 642.41,596.9 " fill="none" id="EnrollmentRequestManagementService-to-AuthorizationService" style="stroke:#181818;stroke-width:1.0;"/><polygon fill="#181818" points="645.44,600.11,642.1096,590.8413,641.9839,596.4968,636.3284,596.3711,645.44,600.11" style="stroke:#181818;stroke-width:1.0;"/></g><!--SRC=[jLNRZjem47ttL_YDK9NjUuKYRGEja5g4bku7kCa0ReETsWvqj-g_TvmRJcmWByi3yMNcpF6P6NkImyvG8wdY-uEX6LUG6Yu58HDQQg0fmpy5EJEGqJHdMeCcrPS-2dq6jHHAvlaHX7c2toLeyxoYytcXGECIir1n_9TG_6LoUv3dQ4h-aTi8YHJ6Be5295OKEKzxG2nDeMYD8yyTwLRVQMMiu2UUQAJn7im6HCR5ljdMDTr99e-CYu40FjXyhgGqBSzK0SeMFMiyY3PbXeRlQI9BPNMjFbFdF54zoI3DkG1NfiQb3wwDnNQigZ1z6wJdcMn1QzIIDbAMve2qhC2GsUtcl1IwixKAqHFBIw3oXzLJ4n3baJRdtbek6BkoYEC6UxDSBrRhBzNuCKcMc-_BHJLPB9ElgpLE1eK0sMA8qraqaS8c4-HOICsDL1pqXmAKvcWhKcYyDvSLMrpmnwRACUi4Ss1SuPxQzPVFBBKVTD_Le-wuTKPraqOOreRsCtf1jNdh9bs6sGcYGBdikCW-lIGoQtVjiB6mGoUELw5NGr8dvfqciV73NKAnW4wyKzt3-SO4suDTsDQ6IA9nwHYyJNDVAWqB7jFxMbqerrdekakYWUVh4-onP2hrIiFp2-i0RErCV5QpsRkc0gvisaQyikLst6sJkbM2DhBNS06AJfdCPd7Welj8VmbvrZGcvFepyF0Gtx_Yhm8uhu05kbzC8u5wUHpXOmK8LSr8rnlQ1eJtEyHIzg-lCPxtee-46DvLX0HkKylIkoIn-FsBCvXB1ptiuPF0kkarP9jQFqsXZhS7Srv3uhwCxTxezFGhQgIiGQw4_0S0]--></g></svg>