<?xml version="1.0" encoding="us-ascii" standalone="no"?><svg xmlns="http://www.w3.org/2000/svg" xmlns:xlink="http://www.w3.org/1999/xlink" contentStyleType="text/css" height="1796px" preserveAspectRatio="none" style="width:2323px;height:1796px;background:#FFFFFF;" version="1.1" viewBox="0 0 2323 1796" width="2323px" zoomAndPan="magnify"><defs/><g><rect fill="#FFFFFF" height="31.291" style="stroke:#181818;stroke-width:1.0;" width="10" x="332.5" y="121.5332"/><rect fill="#FFFFFF" height="1494.9297" style="stroke:#181818;stroke-width:1.0;" width="10" x="332.5" y="184.1152"/><rect fill="#FFFFFF" height="219.0371" style="stroke:#181818;stroke-width:1.0;" width="10" x="540.5" y="277.9883"/><rect fill="#FFFFFF" height="1119.4375" style="stroke:#181818;stroke-width:1.0;" width="10" x="540.5" y="528.3164"/><rect fill="#FFFFFF" height="583.5293" style="stroke:#181818;stroke-width:1.0;" width="10" x="846.5" y="1032.9336"/><rect fill="#FFFFFF" height="31.291" style="stroke:#181818;stroke-width:1.0;" width="10" x="1038.5" y="215.4063"/><rect fill="#FFFFFF" height="31.291" style="stroke:#181818;stroke-width:1.0;" width="10" x="1170.5" y="732.6836"/><rect fill="#FFFFFF" height="31.291" style="stroke:#181818;stroke-width:1.0;" width="10" x="1298.5" y="970.3516"/><rect fill="#FFFFFF" height="31.291" style="stroke:#181818;stroke-width:1.0;" width="10" x="1423" y="309.2793"/><rect fill="#FFFFFF" height="31.291" style="stroke:#181818;stroke-width:1.0;" width="10" x="1566" y="371.8613"/><rect fill="#FFFFFF" height="31.291" style="stroke:#181818;stroke-width:1.0;" width="10" x="1566" y="434.4434"/><rect fill="#FFFFFF" height="31.291" style="stroke:#181818;stroke-width:1.0;" width="10" x="1701" y="1064.2246"/><rect fill="#FFFFFF" height="31.291" style="stroke:#181818;stroke-width:1.0;" width="10" x="1868" y="1301.8926"/><rect fill="#FFFFFF" height="31.291" style="stroke:#181818;stroke-width:1.0;" width="10" x="1868" y="1553.8809"/><rect fill="#FFFFFF" height="52.2422" style="stroke:#181818;stroke-width:1.0;" width="10" x="2042" y="1470.3477"/><rect fill="#FFFFFF" height="52.2422" style="stroke:#181818;stroke-width:1.0;" width="10" x="2171.5" y="649.1504"/><rect fill="#FFFFFF" height="136.7949" style="stroke:#181818;stroke-width:1.0;" width="10" x="2267.5" y="795.2656"/><rect fill="#FFFFFF" height="136.7949" style="stroke:#181818;stroke-width:1.0;" width="10" x="2267.5" y="1126.8066"/><rect fill="none" height="129.7949" style="stroke:#000000;stroke-width:1.5;" width="2306" x="10" y="810.2656"/><rect fill="none" height="129.7949" style="stroke:#000000;stroke-width:1.5;" width="2306" x="10" y="1141.8066"/><rect fill="none" height="81.873" style="stroke:#000000;stroke-width:1.5;" width="983" x="10" y="1348.1836"/><line style="stroke:#181818;stroke-width:0.5;stroke-dasharray:5.0,5.0;" x1="47" x2="47" y1="88.2422" y2="1697.0449"/><line style="stroke:#181818;stroke-width:0.5;stroke-dasharray:5.0,5.0;" x1="337.5" x2="337.5" y1="88.2422" y2="1697.0449"/><line style="stroke:#181818;stroke-width:0.5;stroke-dasharray:5.0,5.0;" x1="545.5" x2="545.5" y1="88.2422" y2="1697.0449"/><line style="stroke:#181818;stroke-width:0.5;stroke-dasharray:5.0,5.0;" x1="851" x2="851" y1="88.2422" y2="1697.0449"/><line style="stroke:#181818;stroke-width:0.5;stroke-dasharray:5.0,5.0;" x1="1043" x2="1043" y1="88.2422" y2="1697.0449"/><line style="stroke:#181818;stroke-width:0.5;stroke-dasharray:5.0,5.0;" x1="1175" x2="1175" y1="88.2422" y2="1697.0449"/><line style="stroke:#181818;stroke-width:0.5;stroke-dasharray:5.0,5.0;" x1="1303" x2="1303" y1="88.2422" y2="1697.0449"/><line style="stroke:#181818;stroke-width:0.5;stroke-dasharray:5.0,5.0;" x1="1428" x2="1428" y1="88.2422" y2="1697.0449"/><line style="stroke:#181818;stroke-width:0.5;stroke-dasharray:5.0,5.0;" x1="1571" x2="1571" y1="88.2422" y2="1697.0449"/><line style="stroke:#181818;stroke-width:0.5;stroke-dasharray:5.0,5.0;" x1="1706" x2="1706" y1="88.2422" y2="1697.0449"/><line style="stroke:#181818;stroke-width:0.5;stroke-dasharray:5.0,5.0;" x1="1873" x2="1873" y1="88.2422" y2="1697.0449"/><line style="stroke:#181818;stroke-width:0.5;stroke-dasharray:5.0,5.0;" x1="2047" x2="2047" y1="1478.1777" y2="1697.0449"/><line style="stroke:#181818;stroke-width:0.5;stroke-dasharray:5.0,5.0;" x1="2176" x2="2176" y1="656.9805" y2="1697.0449"/><line style="stroke:#181818;stroke-width:0.5;stroke-dasharray:5.0,5.0;" x1="2272" x2="2272" y1="88.2422" y2="1697.0449"/><text fill="#000000" font-family="sans-serif" font-size="14" lengthAdjust="spacing" textLength="49" x="20" y="84.7285">Student</text><ellipse cx="47.5" cy="18.1211" fill="#E2E2F0" rx="8" ry="8" style="stroke:#181818;stroke-width:0.5;"/><path d="M47.5,26.1211 L47.5,53.1211 M34.5,34.1211 L60.5,34.1211 M47.5,53.1211 L34.5,68.1211 M47.5,53.1211 L60.5,68.1211 " fill="none" style="stroke:#181818;stroke-width:0.5;"/><text fill="#000000" font-family="sans-serif" font-size="14" lengthAdjust="spacing" textLength="49" x="20" y="1711.1523">Student</text><ellipse cx="47.5" cy="1723.166" fill="#E2E2F0" rx="8" ry="8" style="stroke:#181818;stroke-width:0.5;"/><path d="M47.5,1731.166 L47.5,1758.166 M34.5,1739.166 L60.5,1739.166 M47.5,1758.166 L34.5,1773.166 M47.5,1758.166 L60.5,1773.166 " fill="none" style="stroke:#181818;stroke-width:0.5;"/><rect fill="#E2E2F0" height="51.2422" rx="2.5" ry="2.5" style="stroke:#181818;stroke-width:0.5;" width="146" x="264.5" y="36"/><text fill="#000000" font-family="sans-serif" font-size="14" font-style="italic" lengthAdjust="spacing" textLength="95" x="290" y="58.1074">&#171;presentation&#187;</text><text fill="#000000" font-family="sans-serif" font-size="14" lengthAdjust="spacing" textLength="132" x="271.5" y="76.7285">RequestEnrollmentUI</text><rect fill="#E2E2F0" height="51.2422" rx="2.5" ry="2.5" style="stroke:#181818;stroke-width:0.5;" width="146" x="264.5" y="1696.0449"/><text fill="#000000" font-family="sans-serif" font-size="14" font-style="italic" lengthAdjust="spacing" textLength="95" x="290" y="1718.1523">&#171;presentation&#187;</text><text fill="#000000" font-family="sans-serif" font-size="14" lengthAdjust="spacing" textLength="132" x="271.5" y="1736.7734">RequestEnrollmentUI</text><rect fill="#E2E2F0" height="51.2422" rx="2.5" ry="2.5" style="stroke:#181818;stroke-width:0.5;" width="196" x="447.5" y="36"/><text fill="#000000" font-family="sans-serif" font-size="14" font-style="italic" lengthAdjust="spacing" textLength="84" x="503.5" y="58.1074">&#171;application&#187;</text><text fill="#000000" font-family="sans-serif" font-size="14" lengthAdjust="spacing" textLength="182" x="454.5" y="76.7285">RequestEnrollmentController</text><rect fill="#E2E2F0" height="51.2422" rx="2.5" ry="2.5" style="stroke:#181818;stroke-width:0.5;" width="196" x="447.5" y="1696.0449"/><text fill="#000000" font-family="sans-serif" font-size="14" font-style="italic" lengthAdjust="spacing" textLength="84" x="503.5" y="1718.1523">&#171;application&#187;</text><text fill="#000000" font-family="sans-serif" font-size="14" lengthAdjust="spacing" textLength="182" x="454.5" y="1736.7734">RequestEnrollmentController</text><rect fill="#E2E2F0" height="51.2422" rx="2.5" ry="2.5" style="stroke:#181818;stroke-width:0.5;" width="263" x="720" y="36"/><text fill="#000000" font-family="sans-serif" font-size="14" font-style="italic" lengthAdjust="spacing" textLength="60" x="821.5" y="58.1074">&#171;service&#187;</text><text fill="#000000" font-family="sans-serif" font-size="14" lengthAdjust="spacing" textLength="249" x="727" y="76.7285">EnrollmentRequestManagementService</text><rect fill="#E2E2F0" height="51.2422" rx="2.5" ry="2.5" style="stroke:#181818;stroke-width:0.5;" width="263" x="720" y="1696.0449"/><text fill="#000000" font-family="sans-serif" font-size="14" font-style="italic" lengthAdjust="spacing" textLength="60" x="821.5" y="1718.1523">&#171;service&#187;</text><text fill="#000000" font-family="sans-serif" font-size="14" lengthAdjust="spacing" textLength="249" x="727" y="1736.7734">EnrollmentRequestManagementService</text><rect fill="#E2E2F0" height="51.2422" rx="2.5" ry="2.5" style="stroke:#181818;stroke-width:0.5;" width="101" x="993" y="36"/><text fill="#000000" font-family="sans-serif" font-size="14" font-style="italic" lengthAdjust="spacing" textLength="34" x="1026.5" y="58.1074">&#171;util&#187;</text><text fill="#000000" font-family="sans-serif" font-size="14" lengthAdjust="spacing" textLength="87" x="1000" y="76.7285">AuthzRegistry</text><rect fill="#E2E2F0" height="51.2422" rx="2.5" ry="2.5" style="stroke:#181818;stroke-width:0.5;" width="101" x="993" y="1696.0449"/><text fill="#000000" font-family="sans-serif" font-size="14" font-style="italic" lengthAdjust="spacing" textLength="34" x="1026.5" y="1718.1523">&#171;util&#187;</text><text fill="#000000" font-family="sans-serif" font-size="14" lengthAdjust="spacing" textLength="87" x="1000" y="1736.7734">AuthzRegistry</text><rect fill="#E2E2F0" height="51.2422" rx="2.5" ry="2.5" style="stroke:#181818;stroke-width:0.5;" width="143" x="1104" y="36"/><text fill="#000000" font-family="sans-serif" font-size="14" font-style="italic" lengthAdjust="spacing" textLength="60" x="1145.5" y="58.1074">&#171;service&#187;</text><text fill="#000000" font-family="sans-serif" font-size="14" lengthAdjust="spacing" textLength="129" x="1111" y="76.7285">AuthorizationService</text><rect fill="#E2E2F0" height="51.2422" rx="2.5" ry="2.5" style="stroke:#181818;stroke-width:0.5;" width="143" x="1104" y="1696.0449"/><text fill="#000000" font-family="sans-serif" font-size="14" font-style="italic" lengthAdjust="spacing" textLength="60" x="1145.5" y="1718.1523">&#171;service&#187;</text><text fill="#000000" font-family="sans-serif" font-size="14" lengthAdjust="spacing" textLength="129" x="1111" y="1736.7734">AuthorizationService</text><rect fill="#E2E2F0" height="32.6211" rx="2.5" ry="2.5" style="stroke:#181818;stroke-width:0.5;" width="93" x="1257" y="54.6211"/><text fill="#000000" font-family="sans-serif" font-size="14" lengthAdjust="spacing" textLength="79" x="1264" y="76.7285">UserSession</text><rect fill="#E2E2F0" height="32.6211" rx="2.5" ry="2.5" style="stroke:#181818;stroke-width:0.5;" width="93" x="1257" y="1696.0449"/><text fill="#000000" font-family="sans-serif" font-size="14" lengthAdjust="spacing" textLength="79" x="1264" y="1718.1523">UserSession</text><rect fill="#E2E2F0" height="51.2422" rx="2.5" ry="2.5" style="stroke:#181818;stroke-width:0.5;" width="136" x="1360" y="36"/><text fill="#000000" font-family="sans-serif" font-size="14" font-style="italic" lengthAdjust="spacing" textLength="89" x="1383.5" y="58.1074">&#171;persistence&#187;</text><text fill="#000000" font-family="sans-serif" font-size="14" lengthAdjust="spacing" textLength="122" x="1367" y="76.7285">PersistenceContext</text><rect fill="#E2E2F0" height="51.2422" rx="2.5" ry="2.5" style="stroke:#181818;stroke-width:0.5;" width="136" x="1360" y="1696.0449"/><text fill="#000000" font-family="sans-serif" font-size="14" font-style="italic" lengthAdjust="spacing" textLength="89" x="1383.5" y="1718.1523">&#171;persistence&#187;</text><text fill="#000000" font-family="sans-serif" font-size="14" lengthAdjust="spacing" textLength="122" x="1367" y="1736.7734">PersistenceContext</text><rect fill="#E2E2F0" height="51.2422" rx="2.5" ry="2.5" style="stroke:#181818;stroke-width:0.5;" width="130" x="1506" y="36"/><text fill="#000000" font-family="sans-serif" font-size="14" font-style="italic" lengthAdjust="spacing" textLength="59" x="1541.5" y="58.1074">&#171;factory&#187;</text><text fill="#000000" font-family="sans-serif" font-size="14" lengthAdjust="spacing" textLength="116" x="1513" y="76.7285">RepositoryFactory</text><rect fill="#E2E2F0" height="51.2422" rx="2.5" ry="2.5" style="stroke:#181818;stroke-width:0.5;" width="130" x="1506" y="1696.0449"/><text fill="#000000" font-family="sans-serif" font-size="14" font-style="italic" lengthAdjust="spacing" textLength="59" x="1541.5" y="1718.1523">&#171;factory&#187;</text><text fill="#000000" font-family="sans-serif" font-size="14" lengthAdjust="spacing" textLength="116" x="1513" y="1736.7734">RepositoryFactory</text><text fill="#000000" font-family="sans-serif" font-size="14" font-style="italic" lengthAdjust="spacing" textLength="79" x="1663.5" y="66.1074">&#171;repository&#187;</text><text fill="#000000" font-family="sans-serif" font-size="14" lengthAdjust="spacing" textLength="114" x="1646" y="84.7285">CourseRepository</text><path d="M1688,15 C1688,5 1706,5 1706,5 C1706,5 1724,5 1724,15 L1724,41 C1724,51 1706,51 1706,51 C1706,51 1688,51 1688,41 L1688,15 " fill="#E2E2F0" style="stroke:#181818;stroke-width:1.5;"/><path d="M1688,15 C1688,25 1706,25 1706,25 C1706,25 1724,25 1724,15 " fill="none" style="stroke:#181818;stroke-width:1.5;"/><text fill="#000000" font-family="sans-serif" font-size="14" font-style="italic" lengthAdjust="spacing" textLength="79" x="1663.5" y="1711.1523">&#171;repository&#187;</text><text fill="#000000" font-family="sans-serif" font-size="14" lengthAdjust="spacing" textLength="114" x="1646" y="1729.7734">CourseRepository</text><path d="M1688,1743.2871 C1688,1733.2871 1706,1733.2871 1706,1733.2871 C1706,1733.2871 1724,1733.2871 1724,1743.2871 L1724,1769.2871 C1724,1779.2871 1706,1779.2871 1706,1779.2871 C1706,1779.2871 1688,1779.2871 1688,1769.2871 L1688,1743.2871 " fill="#E2E2F0" style="stroke:#181818;stroke-width:1.5;"/><path d="M1688,1743.2871 C1688,1753.2871 1706,1753.2871 1706,1753.2871 C1706,1753.2871 1724,1753.2871 1724,1743.2871 " fill="none" style="stroke:#181818;stroke-width:1.5;"/><text fill="#000000" font-family="sans-serif" font-size="14" font-style="italic" lengthAdjust="spacing" textLength="79" x="1830.5" y="66.1074">&#171;repository&#187;</text><text fill="#000000" font-family="sans-serif" font-size="14" lengthAdjust="spacing" textLength="188" x="1776" y="84.7285">EnrollmentRequestRepository</text><path d="M1855,15 C1855,5 1873,5 1873,5 C1873,5 1891,5 1891,15 L1891,41 C1891,51 1873,51 1873,51 C1873,51 1855,51 1855,41 L1855,15 " fill="#E2E2F0" style="stroke:#181818;stroke-width:1.5;"/><path d="M1855,15 C1855,25 1873,25 1873,25 C1873,25 1891,25 1891,15 " fill="none" style="stroke:#181818;stroke-width:1.5;"/><text fill="#000000" font-family="sans-serif" font-size="14" font-style="italic" lengthAdjust="spacing" textLength="79" x="1830.5" y="1711.1523">&#171;repository&#187;</text><text fill="#000000" font-family="sans-serif" font-size="14" lengthAdjust="spacing" textLength="188" x="1776" y="1729.7734">EnrollmentRequestRepository</text><path d="M1855,1743.2871 C1855,1733.2871 1873,1733.2871 1873,1733.2871 C1873,1733.2871 1891,1733.2871 1891,1743.2871 L1891,1769.2871 C1891,1779.2871 1873,1779.2871 1873,1779.2871 C1873,1779.2871 1855,1779.2871 1855,1769.2871 L1855,1743.2871 " fill="#E2E2F0" style="stroke:#181818;stroke-width:1.5;"/><path d="M1855,1743.2871 C1855,1753.2871 1873,1753.2871 1873,1753.2871 C1873,1753.2871 1891,1753.2871 1891,1743.2871 " fill="none" style="stroke:#181818;stroke-width:1.5;"/><rect fill="#E2E2F0" height="51.2422" rx="2.5" ry="2.5" style="stroke:#181818;stroke-width:0.5;" width="134" x="1980" y="1696.0449"/><text fill="#000000" font-family="sans-serif" font-size="14" font-style="italic" lengthAdjust="spacing" textLength="50" x="2022" y="1718.1523">&#171;entity&#187;</text><text fill="#000000" font-family="sans-serif" font-size="14" lengthAdjust="spacing" textLength="120" x="1987" y="1736.7734">EnrollmentRequest</text><rect fill="#E2E2F0" height="51.2422" rx="2.5" ry="2.5" style="stroke:#181818;stroke-width:0.5;" width="105" x="2124" y="1696.0449"/><text fill="#000000" font-family="sans-serif" font-size="14" font-style="italic" lengthAdjust="spacing" textLength="91" x="2131" y="1718.1523">&#171;value object&#187;</text><text fill="#000000" font-family="sans-serif" font-size="14" lengthAdjust="spacing" textLength="80" x="2136.5" y="1736.7734">CourseCode</text><rect fill="#E2E2F0" height="51.2422" rx="2.5" ry="2.5" style="stroke:#181818;stroke-width:0.5;" width="67" x="2239" y="36"/><text fill="#000000" font-family="sans-serif" font-size="14" font-style="italic" lengthAdjust="spacing" textLength="34" x="2255.5" y="58.1074">&#171;util&#187;</text><text fill="#000000" font-family="sans-serif" font-size="14" lengthAdjust="spacing" textLength="53" x="2246" y="76.7285">Optional</text><rect fill="#E2E2F0" height="51.2422" rx="2.5" ry="2.5" style="stroke:#181818;stroke-width:0.5;" width="67" x="2239" y="1696.0449"/><text fill="#000000" font-family="sans-serif" font-size="14" font-style="italic" lengthAdjust="spacing" textLength="34" x="2255.5" y="1718.1523">&#171;util&#187;</text><text fill="#000000" font-family="sans-serif" font-size="14" lengthAdjust="spacing" textLength="53" x="2246" y="1736.7734">Optional</text><rect fill="#FFFFFF" height="31.291" style="stroke:#181818;stroke-width:1.0;" width="10" x="332.5" y="121.5332"/><rect fill="#FFFFFF" height="1494.9297" style="stroke:#181818;stroke-width:1.0;" width="10" x="332.5" y="184.1152"/><rect fill="#FFFFFF" height="219.0371" style="stroke:#181818;stroke-width:1.0;" width="10" x="540.5" y="277.9883"/><rect fill="#FFFFFF" height="1119.4375" style="stroke:#181818;stroke-width:1.0;" width="10" x="540.5" y="528.3164"/><rect fill="#FFFFFF" height="583.5293" style="stroke:#181818;stroke-width:1.0;" width="10" x="846.5" y="1032.9336"/><rect fill="#FFFFFF" height="31.291" style="stroke:#181818;stroke-width:1.0;" width="10" x="1038.5" y="215.4063"/><rect fill="#FFFFFF" height="31.291" style="stroke:#181818;stroke-width:1.0;" width="10" x="1170.5" y="732.6836"/><rect fill="#FFFFFF" height="31.291" style="stroke:#181818;stroke-width:1.0;" width="10" x="1298.5" y="970.3516"/><rect fill="#FFFFFF" height="31.291" style="stroke:#181818;stroke-width:1.0;" width="10" x="1423" y="309.2793"/><rect fill="#FFFFFF" height="31.291" style="stroke:#181818;stroke-width:1.0;" width="10" x="1566" y="371.8613"/><rect fill="#FFFFFF" height="31.291" style="stroke:#181818;stroke-width:1.0;" width="10" x="1566" y="434.4434"/><rect fill="#FFFFFF" height="31.291" style="stroke:#181818;stroke-width:1.0;" width="10" x="1701" y="1064.2246"/><rect fill="#FFFFFF" height="31.291" style="stroke:#181818;stroke-width:1.0;" width="10" x="1868" y="1301.8926"/><rect fill="#FFFFFF" height="31.291" style="stroke:#181818;stroke-width:1.0;" width="10" x="1868" y="1553.8809"/><rect fill="#FFFFFF" height="52.2422" style="stroke:#181818;stroke-width:1.0;" width="10" x="2042" y="1470.3477"/><rect fill="#FFFFFF" height="52.2422" style="stroke:#181818;stroke-width:1.0;" width="10" x="2171.5" y="649.1504"/><rect fill="#FFFFFF" height="136.7949" style="stroke:#181818;stroke-width:1.0;" width="10" x="2267.5" y="795.2656"/><rect fill="#FFFFFF" height="136.7949" style="stroke:#181818;stroke-width:1.0;" width="10" x="2267.5" y="1126.8066"/><polygon fill="#181818" points="320.5,117.5332,330.5,121.5332,320.5,125.5332,324.5,121.5332" style="stroke:#181818;stroke-width:1.0;"/><line style="stroke:#181818;stroke-width:1.0;" x1="47.5" x2="326.5" y1="121.5332" y2="121.5332"/><text fill="#000000" font-family="sans-serif" font-size="13" font-weight="bold" lengthAdjust="spacing" textLength="7" x="54.5" y="116.2705">1</text><text fill="#000000" font-family="sans-serif" font-size="13" lengthAdjust="spacing" textLength="107" x="65.5" y="116.2705">request enrollment</text><polygon fill="#181818" points="58.5,148.8242,48.5,152.8242,58.5,156.8242,54.5,152.8242" style="stroke:#181818;stroke-width:1.0;"/><line style="stroke:#181818;stroke-width:1.0;stroke-dasharray:2.0,2.0;" x1="52.5" x2="336.5" y1="152.8242" y2="152.8242"/><text fill="#000000" font-family="sans-serif" font-size="13" font-weight="bold" lengthAdjust="spacing" textLength="7" x="64.5" y="147.5615">2</text><text fill="#000000" font-family="sans-serif" font-size="13" lengthAdjust="spacing" textLength="121" x="75.5" y="147.5615">asks for course code</text><polygon fill="#181818" points="320.5,180.1152,330.5,184.1152,320.5,188.1152,324.5,184.1152" style="stroke:#181818;stroke-width:1.0;"/><line style="stroke:#181818;stroke-width:1.0;" x1="47.5" x2="326.5" y1="184.1152" y2="184.1152"/><text fill="#000000" font-family="sans-serif" font-size="13" font-weight="bold" lengthAdjust="spacing" textLength="7" x="54.5" y="178.8525">3</text><text fill="#000000" font-family="sans-serif" font-size="13" lengthAdjust="spacing" textLength="104" x="65.5" y="178.8525">enter course code</text><polygon fill="#181818" points="1026.5,211.4063,1036.5,215.4063,1026.5,219.4063,1030.5,215.4063" style="stroke:#181818;stroke-width:1.0;"/><line style="stroke:#181818;stroke-width:1.0;" x1="342.5" x2="1032.5" y1="215.4063" y2="215.4063"/><text fill="#000000" font-family="sans-serif" font-size="13" font-weight="bold" lengthAdjust="spacing" textLength="7" x="349.5" y="210.1436">4</text><text fill="#000000" font-family="sans-serif" font-size="13" lengthAdjust="spacing" textLength="124" x="360.5" y="210.1436">authorizationService()</text><polygon fill="#181818" points="353.5,242.6973,343.5,246.6973,353.5,250.6973,349.5,246.6973" style="stroke:#181818;stroke-width:1.0;"/><line style="stroke:#181818;stroke-width:1.0;stroke-dasharray:2.0,2.0;" x1="347.5" x2="1042.5" y1="246.6973" y2="246.6973"/><text fill="#000000" font-family="sans-serif" font-size="13" font-weight="bold" lengthAdjust="spacing" textLength="7" x="359.5" y="241.4346">5</text><text fill="#000000" font-family="sans-serif" font-size="13" lengthAdjust="spacing" textLength="74" x="370.5" y="241.4346">authzService</text><polygon fill="#181818" points="528.5,273.9883,538.5,277.9883,528.5,281.9883,532.5,277.9883" style="stroke:#181818;stroke-width:1.0;"/><line style="stroke:#181818;stroke-width:1.0;" x1="342.5" x2="534.5" y1="277.9883" y2="277.9883"/><text fill="#000000" font-family="sans-serif" font-size="13" font-weight="bold" lengthAdjust="spacing" textLength="7" x="349.5" y="272.7256">6</text><text fill="#000000" font-family="sans-serif" font-size="13" lengthAdjust="spacing" textLength="118" x="360.5" y="272.7256">create(authzService)</text><polygon fill="#181818" points="1411,305.2793,1421,309.2793,1411,313.2793,1415,309.2793" style="stroke:#181818;stroke-width:1.0;"/><line style="stroke:#181818;stroke-width:1.0;" x1="550.5" x2="1417" y1="309.2793" y2="309.2793"/><text fill="#000000" font-family="sans-serif" font-size="13" font-weight="bold" lengthAdjust="spacing" textLength="7" x="557.5" y="304.0166">7</text><text fill="#000000" font-family="sans-serif" font-size="13" lengthAdjust="spacing" textLength="75" x="568.5" y="304.0166">repositories()</text><polygon fill="#181818" points="561.5,336.5703,551.5,340.5703,561.5,344.5703,557.5,340.5703" style="stroke:#181818;stroke-width:1.0;"/><line style="stroke:#181818;stroke-width:1.0;stroke-dasharray:2.0,2.0;" x1="555.5" x2="1427" y1="340.5703" y2="340.5703"/><text fill="#000000" font-family="sans-serif" font-size="13" font-weight="bold" lengthAdjust="spacing" textLength="7" x="567.5" y="335.3076">8</text><text fill="#000000" font-family="sans-serif" font-size="13" lengthAdjust="spacing" textLength="101" x="578.5" y="335.3076">repositoryFactory</text><polygon fill="#181818" points="1554,367.8613,1564,371.8613,1554,375.8613,1558,371.8613" style="stroke:#181818;stroke-width:1.0;"/><line style="stroke:#181818;stroke-width:1.0;" x1="550.5" x2="1560" y1="371.8613" y2="371.8613"/><text fill="#000000" font-family="sans-serif" font-size="13" font-weight="bold" lengthAdjust="spacing" textLength="7" x="557.5" y="366.5986">9</text><text fill="#000000" font-family="sans-serif" font-size="13" lengthAdjust="spacing" textLength="54" x="568.5" y="366.5986">courses()</text><polygon fill="#181818" points="561.5,399.1523,551.5,403.1523,561.5,407.1523,557.5,403.1523" style="stroke:#181818;stroke-width:1.0;"/><line style="stroke:#181818;stroke-width:1.0;stroke-dasharray:2.0,2.0;" x1="555.5" x2="1570" y1="403.1523" y2="403.1523"/><text fill="#000000" font-family="sans-serif" font-size="13" font-weight="bold" lengthAdjust="spacing" textLength="14" x="567.5" y="397.8896">10</text><text fill="#000000" font-family="sans-serif" font-size="13" lengthAdjust="spacing" textLength="69" x="585.5" y="397.8896">courseRepo</text><polygon fill="#181818" points="1554,430.4434,1564,434.4434,1554,438.4434,1558,434.4434" style="stroke:#181818;stroke-width:1.0;"/><line style="stroke:#181818;stroke-width:1.0;" x1="550.5" x2="1560" y1="434.4434" y2="434.4434"/><text fill="#000000" font-family="sans-serif" font-size="13" font-weight="bold" lengthAdjust="spacing" textLength="14" x="557.5" y="429.1807">11</text><text fill="#000000" font-family="sans-serif" font-size="13" lengthAdjust="spacing" textLength="123" x="575.5" y="429.1807">enrollmentRequests()</text><polygon fill="#181818" points="561.5,461.7344,551.5,465.7344,561.5,469.7344,557.5,465.7344" style="stroke:#181818;stroke-width:1.0;"/><line style="stroke:#181818;stroke-width:1.0;stroke-dasharray:2.0,2.0;" x1="555.5" x2="1570" y1="465.7344" y2="465.7344"/><text fill="#000000" font-family="sans-serif" font-size="13" font-weight="bold" lengthAdjust="spacing" textLength="14" x="567.5" y="460.4717">12</text><text fill="#000000" font-family="sans-serif" font-size="13" lengthAdjust="spacing" textLength="138" x="585.5" y="460.4717">enrollmentRequestRepo</text><polygon fill="#181818" points="839.5,493.0254,849.5,497.0254,839.5,501.0254,843.5,497.0254" style="stroke:#181818;stroke-width:1.0;"/><line style="stroke:#181818;stroke-width:1.0;" x1="545.5" x2="845.5" y1="497.0254" y2="497.0254"/><text fill="#000000" font-family="sans-serif" font-size="13" font-weight="bold" lengthAdjust="spacing" textLength="14" x="552.5" y="491.7627">13</text><text fill="#000000" font-family="sans-serif" font-size="13" lengthAdjust="spacing" textLength="259" x="570.5" y="491.7627">create(courseRepo, enrollmentRequestRepo)</text><polygon fill="#181818" points="528.5,524.3164,538.5,528.3164,528.5,532.3164,532.5,528.3164" style="stroke:#181818;stroke-width:1.0;"/><line style="stroke:#181818;stroke-width:1.0;" x1="342.5" x2="534.5" y1="528.3164" y2="528.3164"/><text fill="#000000" font-family="sans-serif" font-size="13" font-weight="bold" lengthAdjust="spacing" textLength="14" x="349.5" y="523.0537">14</text><text fill="#000000" font-family="sans-serif" font-size="13" lengthAdjust="spacing" textLength="161" x="367.5" y="523.0537">createRequest(courseCode)</text><polygon fill="#181818" points="1163.5,555.6074,1173.5,559.6074,1163.5,563.6074,1167.5,559.6074" style="stroke:#181818;stroke-width:1.0;"/><line style="stroke:#181818;stroke-width:1.0;" x1="550.5" x2="1169.5" y1="559.6074" y2="559.6074"/><text fill="#000000" font-family="sans-serif" font-size="13" font-weight="bold" lengthAdjust="spacing" textLength="14" x="557.5" y="554.3447">15</text><text fill="#000000" font-family="sans-serif" font-size="13" lengthAdjust="spacing" textLength="350" x="575.5" y="554.3447">ensureAuthenticatedUserHasAnyOf(CourseRoles.STUDENT)</text><rect fill="none" height="43.252" style="stroke:#000000;stroke-width:1.5;" width="180" x="1101" y="567.6074"/><path d="M1101,567.6074 L1163,567.6074 L1163,576.6074 L1153,586.6074 L1101,586.6074 L1101,567.6074 " fill="#EEEEEE" style="stroke:#000000;stroke-width:2.0;"/><text fill="#000000" font-family="sans-serif" font-size="13" font-weight="bold" lengthAdjust="spacing" textLength="17" x="1114" y="583.6357">ref</text><text fill="#000000" font-family="sans-serif" font-size="12" lengthAdjust="spacing" textLength="172" x="1105" y="603.5566">Implementation of authorization</text><polygon fill="#181818" points="2112,635.1504,2122,639.1504,2112,643.1504,2116,639.1504" style="stroke:#181818;stroke-width:1.0;"/><line style="stroke:#181818;stroke-width:1.0;" x1="550.5" x2="2118" y1="639.1504" y2="639.1504"/><text fill="#000000" font-family="sans-serif" font-size="13" font-weight="bold" lengthAdjust="spacing" textLength="14" x="557.5" y="633.8877">16</text><text fill="#000000" font-family="sans-serif" font-size="13" lengthAdjust="spacing" textLength="121" x="575.5" y="633.8877">of(courseCodeString)</text><rect fill="#E2E2F0" height="51.2422" rx="2.5" ry="2.5" style="stroke:#181818;stroke-width:0.5;" width="105" x="2124" y="615.8594"/><text fill="#000000" font-family="sans-serif" font-size="14" font-style="italic" lengthAdjust="spacing" textLength="91" x="2131" y="637.9668">&#171;value object&#187;</text><text fill="#000000" font-family="sans-serif" font-size="14" lengthAdjust="spacing" textLength="80" x="2136.5" y="656.5879">CourseCode</text><polygon fill="#181818" points="561.5,697.3926,551.5,701.3926,561.5,705.3926,557.5,701.3926" style="stroke:#181818;stroke-width:1.0;"/><line style="stroke:#181818;stroke-width:1.0;stroke-dasharray:2.0,2.0;" x1="555.5" x2="2175.5" y1="701.3926" y2="701.3926"/><text fill="#000000" font-family="sans-serif" font-size="13" font-weight="bold" lengthAdjust="spacing" textLength="14" x="567.5" y="696.1299">17</text><text fill="#000000" font-family="sans-serif" font-size="13" lengthAdjust="spacing" textLength="69" x="585.5" y="696.1299">courseCode</text><polygon fill="#181818" points="1158.5,728.6836,1168.5,732.6836,1158.5,736.6836,1162.5,732.6836" style="stroke:#181818;stroke-width:1.0;"/><line style="stroke:#181818;stroke-width:1.0;" x1="550.5" x2="1164.5" y1="732.6836" y2="732.6836"/><text fill="#000000" font-family="sans-serif" font-size="13" font-weight="bold" lengthAdjust="spacing" textLength="14" x="557.5" y="727.4209">18</text><text fill="#000000" font-family="sans-serif" font-size="13" lengthAdjust="spacing" textLength="53" x="575.5" y="727.4209">session()</text><polygon fill="#181818" points="561.5,759.9746,551.5,763.9746,561.5,767.9746,557.5,763.9746" style="stroke:#181818;stroke-width:1.0;"/><line style="stroke:#181818;stroke-width:1.0;stroke-dasharray:2.0,2.0;" x1="555.5" x2="1174.5" y1="763.9746" y2="763.9746"/><text fill="#000000" font-family="sans-serif" font-size="13" font-weight="bold" lengthAdjust="spacing" textLength="14" x="567.5" y="758.7119">19</text><text fill="#000000" font-family="sans-serif" font-size="13" lengthAdjust="spacing" textLength="93" x="585.5" y="758.7119">sessionOptional</text><polygon fill="#181818" points="2255.5,791.2656,2265.5,795.2656,2255.5,799.2656,2259.5,795.2656" style="stroke:#181818;stroke-width:1.0;"/><line style="stroke:#181818;stroke-width:1.0;" x1="550.5" x2="2261.5" y1="795.2656" y2="795.2656"/><text fill="#000000" font-family="sans-serif" font-size="13" font-weight="bold" lengthAdjust="spacing" textLength="14" x="557.5" y="790.0029">20</text><text fill="#000000" font-family="sans-serif" font-size="13" lengthAdjust="spacing" textLength="79" x="575.5" y="790.0029">orElseThrow()</text><path d="M10,810.2656 L71,810.2656 L71,819.5566 L61,829.5566 L10,829.5566 L10,810.2656 " fill="#EEEEEE" style="stroke:#000000;stroke-width:1.5;"/><rect fill="none" height="129.7949" style="stroke:#000000;stroke-width:1.5;" width="2306" x="10" y="810.2656"/><text fill="#000000" font-family="sans-serif" font-size="13" font-weight="bold" lengthAdjust="spacing" textLength="16" x="25" y="825.2939">alt</text><text fill="#000000" font-family="sans-serif" font-size="11" font-weight="bold" lengthAdjust="spacing" textLength="109" x="86" y="824.1357">[user is not logged]</text><polygon fill="#181818" points="353.5,848.8477,343.5,852.8477,353.5,856.8477,349.5,852.8477" style="stroke:#181818;stroke-width:1.0;"/><line style="stroke:#181818;stroke-width:1.0;stroke-dasharray:2.0,2.0;" x1="347.5" x2="2266.5" y1="852.8477" y2="852.8477"/><text fill="#000000" font-family="sans-serif" font-size="13" font-weight="bold" lengthAdjust="spacing" textLength="14" x="359.5" y="847.585">21</text><text fill="#000000" font-family="sans-serif" font-size="13" lengthAdjust="spacing" textLength="370" x="377.5" y="847.585">throw new IllegalArgumentException("There is no user Logged.")</text><polygon fill="#181818" points="58.5,880.1387,48.5,884.1387,58.5,888.1387,54.5,884.1387" style="stroke:#181818;stroke-width:1.0;"/><line style="stroke:#181818;stroke-width:1.0;stroke-dasharray:2.0,2.0;" x1="52.5" x2="331.5" y1="884.1387" y2="884.1387"/><text fill="#000000" font-family="sans-serif" font-size="13" font-weight="bold" lengthAdjust="spacing" textLength="14" x="64.5" y="878.876">22</text><text fill="#000000" font-family="sans-serif" font-size="13" lengthAdjust="spacing" textLength="103" x="82.5" y="878.876">user is not logged</text><line style="stroke:#000000;stroke-width:1.0;stroke-dasharray:2.0,2.0;" x1="10" x2="2316" y1="893.1387" y2="893.1387"/><text fill="#000000" font-family="sans-serif" font-size="11" font-weight="bold" lengthAdjust="spacing" textLength="88" x="15" y="905.0088">[user is logged]</text><polygon fill="#181818" points="561.5,928.0605,551.5,932.0605,561.5,936.0605,557.5,932.0605" style="stroke:#181818;stroke-width:1.0;"/><line style="stroke:#181818;stroke-width:1.0;stroke-dasharray:2.0,2.0;" x1="555.5" x2="2271.5" y1="932.0605" y2="932.0605"/><text fill="#000000" font-family="sans-serif" font-size="13" font-weight="bold" lengthAdjust="spacing" textLength="14" x="567.5" y="926.7979">23</text><text fill="#000000" font-family="sans-serif" font-size="13" lengthAdjust="spacing" textLength="45" x="585.5" y="926.7979">session</text><polygon fill="#181818" points="1286.5,966.3516,1296.5,970.3516,1286.5,974.3516,1290.5,970.3516" style="stroke:#181818;stroke-width:1.0;"/><line style="stroke:#181818;stroke-width:1.0;" x1="550.5" x2="1292.5" y1="970.3516" y2="970.3516"/><text fill="#000000" font-family="sans-serif" font-size="13" font-weight="bold" lengthAdjust="spacing" textLength="14" x="557.5" y="965.0889">24</text><text fill="#000000" font-family="sans-serif" font-size="13" lengthAdjust="spacing" textLength="113" x="575.5" y="965.0889">authenticatedUser()</text><polygon fill="#181818" points="561.5,997.6426,551.5,1001.6426,561.5,1005.6426,557.5,1001.6426" style="stroke:#181818;stroke-width:1.0;"/><line style="stroke:#181818;stroke-width:1.0;stroke-dasharray:2.0,2.0;" x1="555.5" x2="1302.5" y1="1001.6426" y2="1001.6426"/><text fill="#000000" font-family="sans-serif" font-size="13" font-weight="bold" lengthAdjust="spacing" textLength="14" x="567.5" y="996.3799">25</text><text fill="#000000" font-family="sans-serif" font-size="13" lengthAdjust="spacing" textLength="25" x="585.5" y="996.3799">user</text><polygon fill="#181818" points="834.5,1028.9336,844.5,1032.9336,834.5,1036.9336,838.5,1032.9336" style="stroke:#181818;stroke-width:1.0;"/><line style="stroke:#181818;stroke-width:1.0;" x1="550.5" x2="840.5" y1="1032.9336" y2="1032.9336"/><text fill="#000000" font-family="sans-serif" font-size="13" font-weight="bold" lengthAdjust="spacing" textLength="14" x="557.5" y="1027.6709">26</text><text fill="#000000" font-family="sans-serif" font-size="13" lengthAdjust="spacing" textLength="194" x="575.5" y="1027.6709">createRequest(courseCode, user)</text><polygon fill="#181818" points="1689,1060.2246,1699,1064.2246,1689,1068.2246,1693,1064.2246" style="stroke:#181818;stroke-width:1.0;"/><line style="stroke:#181818;stroke-width:1.0;" x1="856.5" x2="1695" y1="1064.2246" y2="1064.2246"/><text fill="#000000" font-family="sans-serif" font-size="13" font-weight="bold" lengthAdjust="spacing" textLength="14" x="863.5" y="1058.9619">27</text><text fill="#000000" font-family="sans-serif" font-size="13" lengthAdjust="spacing" textLength="143" x="881.5" y="1058.9619">findByCode(courseCode)</text><polygon fill="#181818" points="867.5,1091.5156,857.5,1095.5156,867.5,1099.5156,863.5,1095.5156" style="stroke:#181818;stroke-width:1.0;"/><line style="stroke:#181818;stroke-width:1.0;stroke-dasharray:2.0,2.0;" x1="861.5" x2="1705" y1="1095.5156" y2="1095.5156"/><text fill="#000000" font-family="sans-serif" font-size="13" font-weight="bold" lengthAdjust="spacing" textLength="14" x="873.5" y="1090.2529">28</text><text fill="#000000" font-family="sans-serif" font-size="13" lengthAdjust="spacing" textLength="87" x="891.5" y="1090.2529">courseOptional</text><polygon fill="#181818" points="2255.5,1122.8066,2265.5,1126.8066,2255.5,1130.8066,2259.5,1126.8066" style="stroke:#181818;stroke-width:1.0;"/><line style="stroke:#181818;stroke-width:1.0;" x1="856.5" x2="2261.5" y1="1126.8066" y2="1126.8066"/><text fill="#000000" font-family="sans-serif" font-size="13" font-weight="bold" lengthAdjust="spacing" textLength="14" x="863.5" y="1121.5439">29</text><text fill="#000000" font-family="sans-serif" font-size="13" lengthAdjust="spacing" textLength="79" x="881.5" y="1121.5439">orElseThrow()</text><path d="M10,1141.8066 L71,1141.8066 L71,1151.0977 L61,1161.0977 L10,1161.0977 L10,1141.8066 " fill="#EEEEEE" style="stroke:#000000;stroke-width:1.5;"/><rect fill="none" height="129.7949" style="stroke:#000000;stroke-width:1.5;" width="2306" x="10" y="1141.8066"/><text fill="#000000" font-family="sans-serif" font-size="13" font-weight="bold" lengthAdjust="spacing" textLength="16" x="25" y="1156.835">alt</text><text fill="#000000" font-family="sans-serif" font-size="11" font-weight="bold" lengthAdjust="spacing" textLength="129" x="86" y="1155.6768">[course does not exist]</text><polygon fill="#181818" points="353.5,1180.3887,343.5,1184.3887,353.5,1188.3887,349.5,1184.3887" style="stroke:#181818;stroke-width:1.0;"/><line style="stroke:#181818;stroke-width:1.0;stroke-dasharray:2.0,2.0;" x1="347.5" x2="2266.5" y1="1184.3887" y2="1184.3887"/><text fill="#000000" font-family="sans-serif" font-size="13" font-weight="bold" lengthAdjust="spacing" textLength="14" x="359.5" y="1179.126">30</text><text fill="#000000" font-family="sans-serif" font-size="13" lengthAdjust="spacing" textLength="358" x="377.5" y="1179.126">throw new IllegalArgumentException("Course does not exist.")</text><polygon fill="#181818" points="58.5,1211.6797,48.5,1215.6797,58.5,1219.6797,54.5,1215.6797" style="stroke:#181818;stroke-width:1.0;"/><line style="stroke:#181818;stroke-width:1.0;stroke-dasharray:2.0,2.0;" x1="52.5" x2="331.5" y1="1215.6797" y2="1215.6797"/><text fill="#000000" font-family="sans-serif" font-size="13" font-weight="bold" lengthAdjust="spacing" textLength="14" x="64.5" y="1210.417">31</text><text fill="#000000" font-family="sans-serif" font-size="13" lengthAdjust="spacing" textLength="128" x="82.5" y="1210.417">no such course exists</text><line style="stroke:#000000;stroke-width:1.0;stroke-dasharray:2.0,2.0;" x1="10" x2="2316" y1="1224.6797" y2="1224.6797"/><text fill="#000000" font-family="sans-serif" font-size="11" font-weight="bold" lengthAdjust="spacing" textLength="84" x="15" y="1236.5498">[course exists]</text><polygon fill="#181818" points="867.5,1259.6016,857.5,1263.6016,867.5,1267.6016,863.5,1263.6016" style="stroke:#181818;stroke-width:1.0;"/><line style="stroke:#181818;stroke-width:1.0;stroke-dasharray:2.0,2.0;" x1="861.5" x2="2271.5" y1="1263.6016" y2="1263.6016"/><text fill="#000000" font-family="sans-serif" font-size="13" font-weight="bold" lengthAdjust="spacing" textLength="14" x="873.5" y="1258.3389">32</text><text fill="#000000" font-family="sans-serif" font-size="13" lengthAdjust="spacing" textLength="39" x="891.5" y="1258.3389">course</text><polygon fill="#181818" points="1856,1297.8926,1866,1301.8926,1856,1305.8926,1860,1301.8926" style="stroke:#181818;stroke-width:1.0;"/><line style="stroke:#181818;stroke-width:1.0;" x1="856.5" x2="1862" y1="1301.8926" y2="1301.8926"/><text fill="#000000" font-family="sans-serif" font-size="13" font-weight="bold" lengthAdjust="spacing" textLength="14" x="863.5" y="1296.6299">33</text><text fill="#000000" font-family="sans-serif" font-size="13" lengthAdjust="spacing" textLength="207" x="881.5" y="1296.6299">findByCourseAndUser(course, user)</text><polygon fill="#181818" points="867.5,1329.1836,857.5,1333.1836,867.5,1337.1836,863.5,1333.1836" style="stroke:#181818;stroke-width:1.0;"/><line style="stroke:#181818;stroke-width:1.0;stroke-dasharray:2.0,2.0;" x1="861.5" x2="1872" y1="1333.1836" y2="1333.1836"/><text fill="#000000" font-family="sans-serif" font-size="13" font-weight="bold" lengthAdjust="spacing" textLength="14" x="873.5" y="1327.9209">34</text><text fill="#000000" font-family="sans-serif" font-size="13" lengthAdjust="spacing" textLength="43" x="891.5" y="1327.9209">request</text><path d="M10,1348.1836 L71,1348.1836 L71,1357.4746 L61,1367.4746 L10,1367.4746 L10,1348.1836 " fill="#EEEEEE" style="stroke:#000000;stroke-width:1.5;"/><rect fill="none" height="81.873" style="stroke:#000000;stroke-width:1.5;" width="983" x="10" y="1348.1836"/><text fill="#000000" font-family="sans-serif" font-size="13" font-weight="bold" lengthAdjust="spacing" textLength="16" x="25" y="1363.2119">alt</text><text fill="#000000" font-family="sans-serif" font-size="11" font-weight="bold" lengthAdjust="spacing" textLength="87" x="86" y="1362.0537">[request != null]</text><polygon fill="#181818" points="353.5,1386.7656,343.5,1390.7656,353.5,1394.7656,349.5,1390.7656" style="stroke:#181818;stroke-width:1.0;"/><line style="stroke:#181818;stroke-width:1.0;stroke-dasharray:2.0,2.0;" x1="347.5" x2="845.5" y1="1390.7656" y2="1390.7656"/><text fill="#000000" font-family="sans-serif" font-size="13" font-weight="bold" lengthAdjust="spacing" textLength="14" x="359.5" y="1385.5029">35</text><text fill="#000000" font-family="sans-serif" font-size="13" lengthAdjust="spacing" textLength="364" x="377.5" y="1385.5029">throw new IllegalArgumentException("Request already exists.")</text><polygon fill="#181818" points="58.5,1418.0566,48.5,1422.0566,58.5,1426.0566,54.5,1422.0566" style="stroke:#181818;stroke-width:1.0;"/><line style="stroke:#181818;stroke-width:1.0;stroke-dasharray:2.0,2.0;" x1="52.5" x2="331.5" y1="1422.0566" y2="1422.0566"/><text fill="#000000" font-family="sans-serif" font-size="13" font-weight="bold" lengthAdjust="spacing" textLength="14" x="64.5" y="1416.7939">36</text><text fill="#000000" font-family="sans-serif" font-size="13" lengthAdjust="spacing" textLength="192" x="82.5" y="1416.7939">enrollment request already exists</text><polygon fill="#181818" points="1968,1456.3477,1978,1460.3477,1968,1464.3477,1972,1460.3477" style="stroke:#181818;stroke-width:1.0;"/><line style="stroke:#181818;stroke-width:1.0;" x1="856.5" x2="1974" y1="1460.3477" y2="1460.3477"/><text fill="#000000" font-family="sans-serif" font-size="13" font-weight="bold" lengthAdjust="spacing" textLength="14" x="863.5" y="1455.085">37</text><text fill="#000000" font-family="sans-serif" font-size="13" lengthAdjust="spacing" textLength="134" x="881.5" y="1455.085">create(student, course)</text><rect fill="#E2E2F0" height="51.2422" rx="2.5" ry="2.5" style="stroke:#181818;stroke-width:0.5;" width="134" x="1980" y="1437.0566"/><text fill="#000000" font-family="sans-serif" font-size="14" font-style="italic" lengthAdjust="spacing" textLength="50" x="2022" y="1459.1641">&#171;entity&#187;</text><text fill="#000000" font-family="sans-serif" font-size="14" lengthAdjust="spacing" textLength="120" x="1987" y="1477.7852">EnrollmentRequest</text><polygon fill="#181818" points="867.5,1518.5898,857.5,1522.5898,867.5,1526.5898,863.5,1522.5898" style="stroke:#181818;stroke-width:1.0;"/><line style="stroke:#181818;stroke-width:1.0;stroke-dasharray:2.0,2.0;" x1="861.5" x2="2046" y1="1522.5898" y2="1522.5898"/><text fill="#000000" font-family="sans-serif" font-size="13" font-weight="bold" lengthAdjust="spacing" textLength="14" x="873.5" y="1517.3271">38</text><text fill="#000000" font-family="sans-serif" font-size="13" lengthAdjust="spacing" textLength="43" x="891.5" y="1517.3271">request</text><polygon fill="#181818" points="1856,1549.8809,1866,1553.8809,1856,1557.8809,1860,1553.8809" style="stroke:#181818;stroke-width:1.0;"/><line style="stroke:#181818;stroke-width:1.0;" x1="856.5" x2="1862" y1="1553.8809" y2="1553.8809"/><text fill="#000000" font-family="sans-serif" font-size="13" font-weight="bold" lengthAdjust="spacing" textLength="14" x="863.5" y="1548.6182">39</text><text fill="#000000" font-family="sans-serif" font-size="13" lengthAdjust="spacing" textLength="77" x="881.5" y="1548.6182">save(request)</text><polygon fill="#181818" points="867.5,1581.1719,857.5,1585.1719,867.5,1589.1719,863.5,1585.1719" style="stroke:#181818;stroke-width:1.0;"/><line style="stroke:#181818;stroke-width:1.0;stroke-dasharray:2.0,2.0;" x1="861.5" x2="1872" y1="1585.1719" y2="1585.1719"/><text fill="#000000" font-family="sans-serif" font-size="13" font-weight="bold" lengthAdjust="spacing" textLength="14" x="873.5" y="1579.9092">40</text><text fill="#000000" font-family="sans-serif" font-size="13" lengthAdjust="spacing" textLength="98" x="891.5" y="1579.9092">request(mirrored)</text><polygon fill="#181818" points="561.5,1612.4629,551.5,1616.4629,561.5,1620.4629,557.5,1616.4629" style="stroke:#181818;stroke-width:1.0;"/><line style="stroke:#181818;stroke-width:1.0;stroke-dasharray:2.0,2.0;" x1="555.5" x2="850.5" y1="1616.4629" y2="1616.4629"/><text fill="#000000" font-family="sans-serif" font-size="13" font-weight="bold" lengthAdjust="spacing" textLength="14" x="567.5" y="1611.2002">41</text><text fill="#000000" font-family="sans-serif" font-size="13" lengthAdjust="spacing" textLength="43" x="585.5" y="1611.2002">request</text><polygon fill="#181818" points="353.5,1643.7539,343.5,1647.7539,353.5,1651.7539,349.5,1647.7539" style="stroke:#181818;stroke-width:1.0;"/><line style="stroke:#181818;stroke-width:1.0;stroke-dasharray:2.0,2.0;" x1="347.5" x2="544.5" y1="1647.7539" y2="1647.7539"/><text fill="#000000" font-family="sans-serif" font-size="13" font-weight="bold" lengthAdjust="spacing" textLength="14" x="359.5" y="1642.4912">42</text><text fill="#000000" font-family="sans-serif" font-size="13" lengthAdjust="spacing" textLength="43" x="377.5" y="1642.4912">request</text><polygon fill="#181818" points="58.5,1675.0449,48.5,1679.0449,58.5,1683.0449,54.5,1679.0449" style="stroke:#181818;stroke-width:1.0;"/><line style="stroke:#181818;stroke-width:1.0;stroke-dasharray:2.0,2.0;" x1="52.5" x2="336.5" y1="1679.0449" y2="1679.0449"/><text fill="#000000" font-family="sans-serif" font-size="13" font-weight="bold" lengthAdjust="spacing" textLength="14" x="64.5" y="1673.7822">43</text><text fill="#000000" font-family="sans-serif" font-size="13" lengthAdjust="spacing" textLength="243" x="82.5" y="1673.7822">informs request was created with success</text><!--SRC=[dLRRSkCs37tdLx3xKdidJjuzQcPIRphDJDljvF81Z0JRtCgYIbAElLzVWAH8wkBiTlCIcSGv0843a3_lhMtD-kQchKLZkqDzNQh3ZO5_EsXAM5LIxBGuC2Owgvhky0eQlqkhD7-oNGMDvS9mupyPQuMsifGjKl57uZ3slj6ghW-u_V90jftaHT5gCBWYh5JDxUqtS1lLMFe6JVZIwXePHDlMifmbICX0zQTen0veuGdqKPRWOZwMI6Fy0bBa37UTtNzzX9qqLf_9MFVVHT5PMS-OAos_kcWo5u9eBZfvmUKdC0OnBY_fv_0uVuCsw9pAGPc0a_LfE54Uqzw8_H5QPIJMwVoRArSuHglwdqMnzL-KlafOyIeCy8tgj844TgxY6e9qt49SX4rIFcJGQN5CyMxX20kJnQB07zAUntNtiMzK1IbgzwieZgBkWAlNBr3QaTFFBLLDr8HHhKqLPYp8cgzkKRNh_XHPHDG9yYWiu3v3OQ_GCe3MoFUFuLji51y9_gk0LP13nXxm4uRs0sloS1krk7Rw6kjkiKoOtf95-Qw28wVCWCXZYWZlYdfjpKiDkBV8CPaJic6kAHtWjEQnlXBCOc1vOYJRLMJMOv7ciNXppvi9TntoOuOdZVii5tbobKGyF6_2pJkRoEz_-eMvplXc23YSOjvJv5VpRCjXrh0SC-KBzelK5kCQHkUkq1IvwJJGRADsmr4B5OsituMvQywVjuimAbGDvlhf-UNJ_L_FIqp2bgiZJMeYOHp_7WvjxOQlaobNsw5k6JGL9c6R_ASGFtvSetqMyvFLijdbaSSjbZNykEoRKUlbgE6XZP_0UOtzIVmiJyJ1i9yUERi7zCGuK_0G-husyBpNwYsdnZsyJMlhXZ-NXZVAybhjTb2vrD4ywblM4fWtyCOVy2hSYVfExpfAw_sf11V5uiFp7ZHu7a_vX-Ew_h1qTEC9DUCLCCouFXF9uF1k9piu7OUgYITArSpkDJzt1chAiv7VWDbtvfTM1oCqlpDdUcSg-Yk7oPoYDOvXV0j4uL5BhVbMDjMlPu9SQ9aqJxBxSHNzkxKvTMJ0uFQx518kXKg1hnUSS53_a4WsSqoN9892CbsvxzqxM-DLCbpA8yaoyAv4mlcprq7AEu7l6gyHJpKfNOPZ-GiZXX0MXzCsOLnU-qlzfrzuqzMrYzV5vJBAlo-byRbIe-ogSyZ9fPoc8Hwz3u6J34t6FWt6S3q4sgkGy2m_4nIRlgNUozKKFrin8uwm22i_K9t5GMgjD5JBYtNgwz4_6YQHkYRs_JzygytVZ7anP8DFj4Dyel8tUZgwp5RyJTezoR_44JD-kJ7s7m00]--></g></svg>