<?xml version="1.0" encoding="us-ascii" standalone="no"?><svg xmlns="http://www.w3.org/2000/svg" xmlns:xlink="http://www.w3.org/1999/xlink" contentStyleType="text/css" height="867px" preserveAspectRatio="none" style="width:1357px;height:867px;background:#FFFFFF;" version="1.1" viewBox="0 0 1357 867" width="1357px" zoomAndPan="magnify"><defs/><g><!--class TakeExamUI--><g id="elem_TakeExamUI"><rect codeLine="2" fill="#F1F1F1" height="56.6211" id="TakeExamUI" rx="2.5" ry="2.5" style="stroke:#181818;stroke-width:0.5;" width="117" x="676" y="121.93"/><ellipse cx="691" cy="142.2405" fill="#ADD1B2" rx="11" ry="11" style="stroke:#181818;stroke-width:1.0;"/><path d="M693.9731,147.8836 Q693.3921,148.1824 692.7529,148.3319 Q692.1138,148.4813 691.4082,148.4813 Q688.9014,148.4813 687.5815,146.8294 Q686.2617,145.1776 686.2617,142.0565 Q686.2617,138.9271 687.5815,137.2752 Q688.9014,135.6234 691.4082,135.6234 Q692.1138,135.6234 692.7612,135.7728 Q693.4087,135.9222 693.9731,136.221 L693.9731,138.9437 Q693.3423,138.3626 692.7488,138.0928 Q692.1553,137.8231 691.5244,137.8231 Q690.1797,137.8231 689.4949,138.8897 Q688.8101,139.9564 688.8101,142.0565 Q688.8101,144.1483 689.4949,145.2149 Q690.1797,146.2816 691.5244,146.2816 Q692.1553,146.2816 692.7488,146.0118 Q693.3423,145.742 693.9731,145.161 Z " fill="#000000"/><text fill="#000000" font-family="sans-serif" font-size="12" font-style="italic" lengthAdjust="spacing" textLength="84" x="705.5" y="138.5316">&#171;presentation&#187;</text><text fill="#000000" font-family="sans-serif" font-size="14" lengthAdjust="spacing" textLength="85" x="705" y="154.598">TakeExamUI</text><line style="stroke:#181818;stroke-width:0.5;" x1="677" x2="792" y1="162.5511" y2="162.5511"/><line style="stroke:#181818;stroke-width:0.5;" x1="677" x2="792" y1="170.5511" y2="170.5511"/></g><!--class EvaluateExamController--><g id="elem_EvaluateExamController"><rect codeLine="5" fill="#F1F1F1" height="73.1094" id="EvaluateExamController" rx="2.5" ry="2.5" style="stroke:#181818;stroke-width:0.5;" width="318" x="575.5" y="238.55"/><ellipse cx="647.75" cy="258.8605" fill="#ADD1B2" rx="11" ry="11" style="stroke:#181818;stroke-width:1.0;"/><path d="M650.7231,264.5036 Q650.1421,264.8024 649.5029,264.9519 Q648.8638,265.1013 648.1582,265.1013 Q645.6514,265.1013 644.3315,263.4494 Q643.0117,261.7976 643.0117,258.6765 Q643.0117,255.5471 644.3315,253.8952 Q645.6514,252.2434 648.1582,252.2434 Q648.8638,252.2434 649.5112,252.3928 Q650.1587,252.5422 650.7231,252.841 L650.7231,255.5637 Q650.0923,254.9826 649.4988,254.7128 Q648.9053,254.4431 648.2744,254.4431 Q646.9297,254.4431 646.2449,255.5097 Q645.5601,256.5764 645.5601,258.6765 Q645.5601,260.7683 646.2449,261.8349 Q646.9297,262.9016 648.2744,262.9016 Q648.9053,262.9016 649.4988,262.6318 Q650.0923,262.362 650.7231,261.781 Z " fill="#000000"/><text fill="#000000" font-family="sans-serif" font-size="12" font-style="italic" lengthAdjust="spacing" textLength="75" x="713.25" y="255.1516">&#171;application&#187;</text><text fill="#000000" font-family="sans-serif" font-size="14" lengthAdjust="spacing" textLength="165" x="668.25" y="271.218">EvaluateExamController</text><line style="stroke:#181818;stroke-width:0.5;" x1="576.5" x2="892.5" y1="279.1711" y2="279.1711"/><line style="stroke:#181818;stroke-width:0.5;" x1="576.5" x2="892.5" y1="287.1711" y2="287.1711"/><ellipse cx="586.5" cy="300.9152" fill="#84BE84" rx="3" ry="3" style="stroke:#038048;stroke-width:1.0;"/><text fill="#000000" font-family="sans-serif" font-size="14" lengthAdjust="spacing" textLength="292" x="595.5" y="304.7063">evaluateExamFromFile(filePath, examTitle)</text></g><!--class ExamService--><g id="elem_ExamService"><rect codeLine="9" fill="#F1F1F1" height="73.1094" id="ExamService" rx="2.5" ry="2.5" style="stroke:#181818;stroke-width:0.5;" width="378" x="424.5" y="371.66"/><ellipse cx="566.25" cy="391.9705" fill="#ADD1B2" rx="11" ry="11" style="stroke:#181818;stroke-width:1.0;"/><path d="M569.2231,397.6136 Q568.6421,397.9124 568.0029,398.0619 Q567.3638,398.2113 566.6582,398.2113 Q564.1514,398.2113 562.8315,396.5594 Q561.5117,394.9076 561.5117,391.7865 Q561.5117,388.6571 562.8315,387.0052 Q564.1514,385.3534 566.6582,385.3534 Q567.3638,385.3534 568.0112,385.5028 Q568.6587,385.6522 569.2231,385.951 L569.2231,388.6737 Q568.5923,388.0926 567.9988,387.8228 Q567.4053,387.5531 566.7744,387.5531 Q565.4297,387.5531 564.7449,388.6197 Q564.0601,389.6864 564.0601,391.7865 Q564.0601,393.8783 564.7449,394.9449 Q565.4297,396.0116 566.7744,396.0116 Q567.4053,396.0116 567.9988,395.7418 Q568.5923,395.472 569.2231,394.891 Z " fill="#000000"/><text fill="#000000" font-family="sans-serif" font-size="12" font-style="italic" lengthAdjust="spacing" textLength="52" x="603.75" y="388.2616">&#171;service&#187;</text><text fill="#000000" font-family="sans-serif" font-size="14" lengthAdjust="spacing" textLength="86" x="586.75" y="404.328">ExamService</text><line style="stroke:#181818;stroke-width:0.5;" x1="425.5" x2="801.5" y1="412.2811" y2="412.2811"/><line style="stroke:#181818;stroke-width:0.5;" x1="425.5" x2="801.5" y1="420.2811" y2="420.2811"/><ellipse cx="435.5" cy="434.0252" fill="#84BE84" rx="3" ry="3" style="stroke:#038048;stroke-width:1.0;"/><text fill="#000000" font-family="sans-serif" font-size="14" lengthAdjust="spacing" textLength="352" x="444.5" y="437.8163">evaluateExamFromFile(filePath, student, examTitle)</text></g><!--class AuthzRegistry--><g id="elem_AuthzRegistry"><rect codeLine="13" fill="#F1F1F1" height="56.6211" id="AuthzRegistry" rx="2.5" ry="2.5" style="stroke:#181818;stroke-width:0.5;" width="128" x="1094.5" y="379.91"/><ellipse cx="1109.5" cy="400.2205" fill="#ADD1B2" rx="11" ry="11" style="stroke:#181818;stroke-width:1.0;"/><path d="M1112.4731,405.8636 Q1111.8921,406.1624 1111.2529,406.3119 Q1110.6138,406.4613 1109.9082,406.4613 Q1107.4014,406.4613 1106.0815,404.8094 Q1104.7617,403.1576 1104.7617,400.0365 Q1104.7617,396.9071 1106.0815,395.2552 Q1107.4014,393.6034 1109.9082,393.6034 Q1110.6138,393.6034 1111.2612,393.7528 Q1111.9087,393.9022 1112.4731,394.201 L1112.4731,396.9237 Q1111.8423,396.3426 1111.2488,396.0728 Q1110.6553,395.8031 1110.0244,395.8031 Q1108.6797,395.8031 1107.9949,396.8697 Q1107.3101,397.9364 1107.3101,400.0365 Q1107.3101,402.1283 1107.9949,403.1949 Q1108.6797,404.2616 1110.0244,404.2616 Q1110.6553,404.2616 1111.2488,403.9918 Q1111.8423,403.722 1112.4731,403.141 Z " fill="#000000"/><text fill="#000000" font-family="sans-serif" font-size="12" font-style="italic" lengthAdjust="spacing" textLength="42" x="1150.5" y="396.5116">&#171;utility&#187;</text><text fill="#000000" font-family="sans-serif" font-size="14" lengthAdjust="spacing" textLength="96" x="1123.5" y="412.578">AuthzRegistry</text><line style="stroke:#181818;stroke-width:0.5;" x1="1095.5" x2="1221.5" y1="420.5311" y2="420.5311"/><line style="stroke:#181818;stroke-width:0.5;" x1="1095.5" x2="1221.5" y1="428.5311" y2="428.5311"/></g><!--class AuthorizationService--><g id="elem_AuthorizationService"><rect codeLine="16" fill="#F1F1F1" height="89.5977" id="AuthorizationService" rx="2.5" ry="2.5" style="stroke:#181818;stroke-width:0.5;" width="326" x="1024.5" y="504.77"/><ellipse cx="1111.75" cy="525.0805" fill="#ADD1B2" rx="11" ry="11" style="stroke:#181818;stroke-width:1.0;"/><path d="M1114.7231,530.7236 Q1114.1421,531.0224 1113.5029,531.1719 Q1112.8638,531.3213 1112.1582,531.3213 Q1109.6514,531.3213 1108.3315,529.6694 Q1107.0117,528.0176 1107.0117,524.8965 Q1107.0117,521.7671 1108.3315,520.1152 Q1109.6514,518.4634 1112.1582,518.4634 Q1112.8638,518.4634 1113.5112,518.6128 Q1114.1587,518.7622 1114.7231,519.061 L1114.7231,521.7837 Q1114.0923,521.2026 1113.4988,520.9328 Q1112.9053,520.6631 1112.2744,520.6631 Q1110.9297,520.6631 1110.2449,521.7297 Q1109.5601,522.7964 1109.5601,524.8965 Q1109.5601,526.9883 1110.2449,528.0549 Q1110.9297,529.1216 1112.2744,529.1216 Q1112.9053,529.1216 1113.4988,528.8518 Q1114.0923,528.582 1114.7231,528.001 Z " fill="#000000"/><text fill="#000000" font-family="sans-serif" font-size="12" font-style="italic" lengthAdjust="spacing" textLength="52" x="1177.75" y="521.3716">&#171;service&#187;</text><text fill="#000000" font-family="sans-serif" font-size="14" lengthAdjust="spacing" textLength="143" x="1132.25" y="537.438">AuthorizationService</text><line style="stroke:#181818;stroke-width:0.5;" x1="1025.5" x2="1349.5" y1="545.3911" y2="545.3911"/><line style="stroke:#181818;stroke-width:0.5;" x1="1025.5" x2="1349.5" y1="553.3911" y2="553.3911"/><ellipse cx="1035.5" cy="567.1352" fill="#84BE84" rx="3" ry="3" style="stroke:#038048;stroke-width:1.0;"/><text fill="#000000" font-family="sans-serif" font-size="14" lengthAdjust="spacing" textLength="300" x="1044.5" y="570.9263">ensureAuthenticatedUserHasAnyOf(actions)</text><ellipse cx="1035.5" cy="583.6235" fill="#84BE84" rx="3" ry="3" style="stroke:#038048;stroke-width:1.0;"/><text fill="#000000" font-family="sans-serif" font-size="14" lengthAdjust="spacing" textLength="61" x="1044.5" y="587.4145">session()</text></g><!--class ExamRepository--><g id="elem_ExamRepository"><rect codeLine="21" fill="#F1F1F1" height="73.1094" id="ExamRepository" rx="2.5" ry="2.5" style="stroke:#181818;stroke-width:0.5;" width="143" x="249" y="513.02"/><ellipse cx="264" cy="533.3305" fill="#ADD1B2" rx="11" ry="11" style="stroke:#181818;stroke-width:1.0;"/><path d="M266.9731,538.9736 Q266.3921,539.2724 265.7529,539.4219 Q265.1138,539.5713 264.4082,539.5713 Q261.9014,539.5713 260.5815,537.9194 Q259.2617,536.2676 259.2617,533.1465 Q259.2617,530.0171 260.5815,528.3652 Q261.9014,526.7134 264.4082,526.7134 Q265.1138,526.7134 265.7612,526.8628 Q266.4087,527.0122 266.9731,527.311 L266.9731,530.0337 Q266.3423,529.4526 265.7488,529.1828 Q265.1553,528.9131 264.5244,528.9131 Q263.1797,528.9131 262.4949,529.9797 Q261.8101,531.0464 261.8101,533.1465 Q261.8101,535.2383 262.4949,536.3049 Q263.1797,537.3716 264.5244,537.3716 Q265.1553,537.3716 265.7488,537.1018 Q266.3423,536.832 266.9731,536.251 Z " fill="#000000"/><text fill="#000000" font-family="sans-serif" font-size="12" font-style="italic" lengthAdjust="spacing" textLength="70" x="298.5" y="529.6216">&#171;repository&#187;</text><text fill="#000000" font-family="sans-serif" font-size="14" lengthAdjust="spacing" textLength="111" x="278" y="545.688">ExamRepository</text><line style="stroke:#181818;stroke-width:0.5;" x1="250" x2="391" y1="553.6411" y2="553.6411"/><line style="stroke:#181818;stroke-width:0.5;" x1="250" x2="391" y1="561.6411" y2="561.6411"/><ellipse cx="260" cy="575.3852" fill="#84BE84" rx="3" ry="3" style="stroke:#038048;stroke-width:1.0;"/><text fill="#000000" font-family="sans-serif" font-size="14" lengthAdjust="spacing" textLength="78" x="269" y="579.1763">save(exam)</text></g><!--class ExamTemplateRepository--><g id="elem_ExamTemplateRepository"><rect codeLine="25" fill="#F1F1F1" height="73.1094" id="ExamTemplateRepository" rx="2.5" ry="2.5" style="stroke:#181818;stroke-width:0.5;" width="207" x="7" y="513.02"/><ellipse cx="22" cy="533.3305" fill="#ADD1B2" rx="11" ry="11" style="stroke:#181818;stroke-width:1.0;"/><path d="M24.9731,538.9736 Q24.3921,539.2724 23.7529,539.4219 Q23.1138,539.5713 22.4082,539.5713 Q19.9014,539.5713 18.5815,537.9194 Q17.2617,536.2676 17.2617,533.1465 Q17.2617,530.0171 18.5815,528.3652 Q19.9014,526.7134 22.4082,526.7134 Q23.1138,526.7134 23.7612,526.8628 Q24.4087,527.0122 24.9731,527.311 L24.9731,530.0337 Q24.3423,529.4526 23.7488,529.1828 Q23.1553,528.9131 22.5244,528.9131 Q21.1797,528.9131 20.4949,529.9797 Q19.8101,531.0464 19.8101,533.1465 Q19.8101,535.2383 20.4949,536.3049 Q21.1797,537.3716 22.5244,537.3716 Q23.1553,537.3716 23.7488,537.1018 Q24.3423,536.832 24.9731,536.251 Z " fill="#000000"/><text fill="#000000" font-family="sans-serif" font-size="12" font-style="italic" lengthAdjust="spacing" textLength="70" x="88.5" y="529.6216">&#171;repository&#187;</text><text fill="#000000" font-family="sans-serif" font-size="14" lengthAdjust="spacing" textLength="175" x="36" y="545.688">ExamTemplateRepository</text><line style="stroke:#181818;stroke-width:0.5;" x1="8" x2="213" y1="553.6411" y2="553.6411"/><line style="stroke:#181818;stroke-width:0.5;" x1="8" x2="213" y1="561.6411" y2="561.6411"/><ellipse cx="18" cy="575.3852" fill="#84BE84" rx="3" ry="3" style="stroke:#038048;stroke-width:1.0;"/><text fill="#000000" font-family="sans-serif" font-size="14" lengthAdjust="spacing" textLength="108" x="27" y="579.1763">findByTitle(title)</text></g><!--class CourseRepository--><g id="elem_CourseRepository"><rect codeLine="29" fill="#F1F1F1" height="73.1094" id="CourseRepository" rx="2.5" ry="2.5" style="stroke:#181818;stroke-width:0.5;" width="154" x="835.5" y="513.02"/><ellipse cx="850.5" cy="533.3305" fill="#ADD1B2" rx="11" ry="11" style="stroke:#181818;stroke-width:1.0;"/><path d="M853.4731,538.9736 Q852.8921,539.2724 852.2529,539.4219 Q851.6138,539.5713 850.9082,539.5713 Q848.4014,539.5713 847.0815,537.9194 Q845.7617,536.2676 845.7617,533.1465 Q845.7617,530.0171 847.0815,528.3652 Q848.4014,526.7134 850.9082,526.7134 Q851.6138,526.7134 852.2612,526.8628 Q852.9087,527.0122 853.4731,527.311 L853.4731,530.0337 Q852.8423,529.4526 852.2488,529.1828 Q851.6553,528.9131 851.0244,528.9131 Q849.6797,528.9131 848.9949,529.9797 Q848.3101,531.0464 848.3101,533.1465 Q848.3101,535.2383 848.9949,536.3049 Q849.6797,537.3716 851.0244,537.3716 Q851.6553,537.3716 852.2488,537.1018 Q852.8423,536.832 853.4731,536.251 Z " fill="#000000"/><text fill="#000000" font-family="sans-serif" font-size="12" font-style="italic" lengthAdjust="spacing" textLength="70" x="890.5" y="529.6216">&#171;repository&#187;</text><text fill="#000000" font-family="sans-serif" font-size="14" lengthAdjust="spacing" textLength="122" x="864.5" y="545.688">CourseRepository</text><line style="stroke:#181818;stroke-width:0.5;" x1="836.5" x2="988.5" y1="553.6411" y2="553.6411"/><line style="stroke:#181818;stroke-width:0.5;" x1="836.5" x2="988.5" y1="561.6411" y2="561.6411"/><ellipse cx="846.5" cy="575.3852" fill="#84BE84" rx="3" ry="3" style="stroke:#038048;stroke-width:1.0;"/><text fill="#000000" font-family="sans-serif" font-size="14" lengthAdjust="spacing" textLength="108" x="855.5" y="579.1763">findByTitle(title)</text></g><!--class ExamEvaluator--><g id="elem_ExamEvaluator"><rect codeLine="33" fill="#F1F1F1" height="73.1094" id="ExamEvaluator" rx="2.5" ry="2.5" style="stroke:#181818;stroke-width:0.5;" width="374" x="426.5" y="513.02"/><ellipse cx="558.25" cy="533.3305" fill="#ADD1B2" rx="11" ry="11" style="stroke:#181818;stroke-width:1.0;"/><path d="M561.2231,538.9736 Q560.6421,539.2724 560.0029,539.4219 Q559.3638,539.5713 558.6582,539.5713 Q556.1514,539.5713 554.8315,537.9194 Q553.5117,536.2676 553.5117,533.1465 Q553.5117,530.0171 554.8315,528.3652 Q556.1514,526.7134 558.6582,526.7134 Q559.3638,526.7134 560.0112,526.8628 Q560.6587,527.0122 561.2231,527.311 L561.2231,530.0337 Q560.5923,529.4526 559.9988,529.1828 Q559.4053,528.9131 558.7744,528.9131 Q557.4297,528.9131 556.7449,529.9797 Q556.0601,531.0464 556.0601,533.1465 Q556.0601,535.2383 556.7449,536.3049 Q557.4297,537.3716 558.7744,537.3716 Q559.4053,537.3716 559.9988,537.1018 Q560.5923,536.832 561.2231,536.251 Z " fill="#000000"/><text fill="#000000" font-family="sans-serif" font-size="12" font-style="italic" lengthAdjust="spacing" textLength="42" x="608.75" y="529.6216">&#171;utility&#187;</text><text fill="#000000" font-family="sans-serif" font-size="14" lengthAdjust="spacing" textLength="102" x="578.75" y="545.688">ExamEvaluator</text><line style="stroke:#181818;stroke-width:0.5;" x1="427.5" x2="799.5" y1="553.6411" y2="553.6411"/><line style="stroke:#181818;stroke-width:0.5;" x1="427.5" x2="799.5" y1="561.6411" y2="561.6411"/><ellipse cx="437.5" cy="575.3852" fill="#84BE84" rx="3" ry="3" style="stroke:#038048;stroke-width:1.0;"/><text fill="#000000" font-family="sans-serif" font-size="14" lengthAdjust="spacing" textLength="348" x="446.5" y="579.1763">evaluateFromFile(filePath, student, examTemplate)</text></g><!--class ExamTemplate--><g id="elem_ExamTemplate"><rect codeLine="37" fill="#F1F1F1" height="56.6211" id="ExamTemplate" rx="2.5" ry="2.5" style="stroke:#181818;stroke-width:0.5;" width="134" x="92.5" y="803.97"/><ellipse cx="107.5" cy="824.2805" fill="#ADD1B2" rx="11" ry="11" style="stroke:#181818;stroke-width:1.0;"/><path d="M110.4731,829.9236 Q109.8921,830.2224 109.2529,830.3719 Q108.6138,830.5213 107.9082,830.5213 Q105.4014,830.5213 104.0815,828.8694 Q102.7617,827.2176 102.7617,824.0965 Q102.7617,820.9671 104.0815,819.3152 Q105.4014,817.6634 107.9082,817.6634 Q108.6138,817.6634 109.2612,817.8128 Q109.9087,817.9622 110.4731,818.261 L110.4731,820.9837 Q109.8423,820.4026 109.2488,820.1328 Q108.6553,819.8631 108.0244,819.8631 Q106.6797,819.8631 105.9949,820.9297 Q105.3101,821.9964 105.3101,824.0965 Q105.3101,826.1883 105.9949,827.2549 Q106.6797,828.3216 108.0244,828.3216 Q108.6553,828.3216 109.2488,828.0518 Q109.8423,827.782 110.4731,827.201 Z " fill="#000000"/><text fill="#000000" font-family="sans-serif" font-size="12" font-style="italic" lengthAdjust="spacing" textLength="55" x="145" y="820.5716">&#171;domain&#187;</text><text fill="#000000" font-family="sans-serif" font-size="14" lengthAdjust="spacing" textLength="102" x="121.5" y="836.638">ExamTemplate</text><line style="stroke:#181818;stroke-width:0.5;" x1="93.5" x2="225.5" y1="844.5911" y2="844.5911"/><line style="stroke:#181818;stroke-width:0.5;" x1="93.5" x2="225.5" y1="852.5911" y2="852.5911"/></g><!--class Exam--><g id="elem_Exam"><rect codeLine="40" fill="#F1F1F1" height="89.5977" id="Exam" rx="2.5" ry="2.5" style="stroke:#181818;stroke-width:0.5;" width="98" x="262.5" y="654.37"/><ellipse cx="284.25" cy="674.6805" fill="#ADD1B2" rx="11" ry="11" style="stroke:#181818;stroke-width:1.0;"/><path d="M287.2231,680.3236 Q286.6421,680.6224 286.0029,680.7719 Q285.3638,680.9213 284.6582,680.9213 Q282.1514,680.9213 280.8315,679.2694 Q279.5117,677.6176 279.5117,674.4965 Q279.5117,671.3671 280.8315,669.7152 Q282.1514,668.0634 284.6582,668.0634 Q285.3638,668.0634 286.0112,668.2128 Q286.6587,668.3622 287.2231,668.661 L287.2231,671.3837 Q286.5923,670.8026 285.9988,670.5328 Q285.4053,670.2631 284.7744,670.2631 Q283.4297,670.2631 282.7449,671.3297 Q282.0601,672.3964 282.0601,674.4965 Q282.0601,676.5883 282.7449,677.6549 Q283.4297,678.7216 284.7744,678.7216 Q285.4053,678.7216 285.9988,678.4518 Q286.5923,678.182 287.2231,677.601 Z " fill="#000000"/><text fill="#000000" font-family="sans-serif" font-size="12" font-style="italic" lengthAdjust="spacing" textLength="55" x="297.75" y="670.9716">&#171;domain&#187;</text><text fill="#000000" font-family="sans-serif" font-size="14" lengthAdjust="spacing" textLength="38" x="306.25" y="687.038">Exam</text><line style="stroke:#181818;stroke-width:0.5;" x1="263.5" x2="359.5" y1="694.9911" y2="694.9911"/><rect fill="none" height="6" style="stroke:#C82930;stroke-width:1.0;" width="6" x="270.5" y="705.7352"/><text fill="#000000" font-family="sans-serif" font-size="14" lengthAdjust="spacing" textLength="40" x="282.5" y="712.5263">grade</text><rect fill="none" height="6" style="stroke:#C82930;stroke-width:1.0;" width="6" x="270.5" y="722.2235"/><text fill="#000000" font-family="sans-serif" font-size="14" lengthAdjust="spacing" textLength="72" x="282.5" y="729.0145">totalGrade</text><line style="stroke:#181818;stroke-width:0.5;" x1="263.5" x2="359.5" y1="735.9677" y2="735.9677"/></g><!--class User--><g id="elem_User"><rect codeLine="45" fill="#F1F1F1" height="56.6211" id="User" rx="2.5" ry="2.5" style="stroke:#181818;stroke-width:0.5;" width="83" x="270" y="803.97"/><ellipse cx="285" cy="824.2805" fill="#ADD1B2" rx="11" ry="11" style="stroke:#181818;stroke-width:1.0;"/><path d="M287.9731,829.9236 Q287.3921,830.2224 286.7529,830.3719 Q286.1138,830.5213 285.4082,830.5213 Q282.9014,830.5213 281.5815,828.8694 Q280.2617,827.2176 280.2617,824.0965 Q280.2617,820.9671 281.5815,819.3152 Q282.9014,817.6634 285.4082,817.6634 Q286.1138,817.6634 286.7612,817.8128 Q287.4087,817.9622 287.9731,818.261 L287.9731,820.9837 Q287.3423,820.4026 286.7488,820.1328 Q286.1553,819.8631 285.5244,819.8631 Q284.1797,819.8631 283.4949,820.9297 Q282.8101,821.9964 282.8101,824.0965 Q282.8101,826.1883 283.4949,827.2549 Q284.1797,828.3216 285.5244,828.3216 Q286.1553,828.3216 286.7488,828.0518 Q287.3423,827.782 287.9731,827.201 Z " fill="#000000"/><text fill="#000000" font-family="sans-serif" font-size="12" font-style="italic" lengthAdjust="spacing" textLength="55" x="297" y="820.5716">&#171;domain&#187;</text><text fill="#000000" font-family="sans-serif" font-size="14" lengthAdjust="spacing" textLength="31" x="309" y="836.638">User</text><line style="stroke:#181818;stroke-width:0.5;" x1="271" x2="352" y1="844.5911" y2="844.5911"/><line style="stroke:#181818;stroke-width:0.5;" x1="271" x2="352" y1="852.5911" y2="852.5911"/></g><g id="elem_GMN30"><path d="M490,6 L490,61.9316 A0,0 0 0 0 490,61.9316 L730.5,61.9316 L734.5,121.7 L738.5,61.9316 L979,61.9316 A0,0 0 0 0 979,61.9316 L979,16 L969,6 L490,6 A0,0 0 0 0 490,6 " fill="#FEFFDD" style="stroke:#181818;stroke-width:0.5;"/><path d="M969,6 L969,16 L979,16 L969,6 " fill="#FEFFDD" style="stroke:#181818;stroke-width:0.5;"/><text fill="#000000" font-family="sans-serif" font-size="13" lengthAdjust="spacing" textLength="443" x="496" y="23.5684">Some domain logic was abstracted for the sake of diagram readability.</text><text fill="#000000" font-family="sans-serif" font-size="13" lengthAdjust="spacing" textLength="369" x="496" y="38.8789">Mostly mentioning ExamTemplate details and User details.</text><text fill="#000000" font-family="sans-serif" font-size="13" lengthAdjust="spacing" textLength="468" x="496" y="54.1895">Also ANTLR parsing logic was abstracted, since it includes a lot of details.</text></g><!--link TakeExamUI to EvaluateExamController--><g id="link_TakeExamUI_EvaluateExamController"><path codeLine="48" d="M734.5,178.82 C734.5,194.58 734.5,214.67 734.5,232.34 " fill="none" id="TakeExamUI-to-EvaluateExamController" style="stroke:#181818;stroke-width:1.0;stroke-dasharray:7.0,7.0;"/><polygon fill="#181818" points="734.5,237.23,738.5,228.23,734.5,232.23,730.5,228.23,734.5,237.23" style="stroke:#181818;stroke-width:1.0;"/></g><!--link EvaluateExamController to ExamService--><g id="link_EvaluateExamController_ExamService"><path codeLine="50" d="M701.44,311.94 C685.7,328.99 666.81,349.45 650.59,367.03 " fill="none" id="EvaluateExamController-to-ExamService" style="stroke:#181818;stroke-width:1.0;"/><polygon fill="#181818" points="647.52,370.44,656.57,366.5545,650.9173,366.7715,650.7004,361.1188,647.52,370.44" style="stroke:#181818;stroke-width:1.0;"/></g><!--link EvaluateExamController to AuthorizationService--><g id="link_EvaluateExamController_AuthorizationService"><path codeLine="51" d="M794.19,312.01 C875.07,360.65 1019.62,447.6 1109.15,501.45 " fill="none" id="EvaluateExamController-to-AuthorizationService" style="stroke:#181818;stroke-width:1.0;"/><polygon fill="#181818" points="1113.17,504.47,1107.5303,496.3957,1108.8888,501.887,1103.3975,503.2456,1113.17,504.47" style="stroke:#181818;stroke-width:1.0;"/></g><!--link EvaluateExamController to AuthzRegistry--><g id="link_EvaluateExamController_AuthzRegistry"><path codeLine="52" d="M850.92,312.11 C927.23,335.7 1024.43,365.76 1088.92,385.7 " fill="none" id="EvaluateExamController-to-AuthzRegistry" style="stroke:#181818;stroke-width:1.0;stroke-dasharray:7.0,7.0;"/><polygon fill="#181818" points="1093.28,387.36,1085.8761,380.8652,1088.5061,385.8735,1083.4977,388.5035,1093.28,387.36" style="stroke:#181818;stroke-width:1.0;"/></g><!--link AuthzRegistry to AuthorizationService--><g id="link_AuthzRegistry_AuthorizationService"><path codeLine="53" d="M1164.23,436.75 C1167.9,454.37 1172.76,477.75 1177.09,498.57 " fill="none" id="AuthzRegistry-to-AuthorizationService" style="stroke:#181818;stroke-width:1.0;stroke-dasharray:7.0,7.0;"/><polygon fill="#181818" points="1178.3,503.37,1180.3927,493.746,1177.2865,498.4738,1172.5587,495.3676,1178.3,503.37" style="stroke:#181818;stroke-width:1.0;"/></g><!--link EvaluateExamController to ExamRepository--><g id="link_EvaluateExamController_ExamRepository"><path codeLine="54" d="M575.19,295 C516.92,308.54 453.76,331.79 406.5,371.66 C364.79,406.86 341.64,467.06 330.13,507.33 " fill="none" id="EvaluateExamController-to-ExamRepository" style="stroke:#181818;stroke-width:1.0;stroke-dasharray:7.0,7.0;"/><polygon fill="#181818" points="328.65,511.63,334.921,504.0356,329.9934,506.8138,327.2152,501.8862,328.65,511.63" style="stroke:#181818;stroke-width:1.0;"/></g><!--link EvaluateExamController to ExamTemplateRepository--><g id="link_EvaluateExamController_ExamTemplateRepository"><path codeLine="55" d="M575.25,300.35 C503.1,315.06 418.13,337.74 346.5,371.66 C271.63,407.13 197.14,468.42 152.45,508.73 " fill="none" id="EvaluateExamController-to-ExamTemplateRepository" style="stroke:#181818;stroke-width:1.0;stroke-dasharray:7.0,7.0;"/><polygon fill="#181818" points="149.22,511.57,158.579,508.5026,152.9294,508.2173,153.2147,502.5676,149.22,511.57" style="stroke:#181818;stroke-width:1.0;"/></g><!--link EvaluateExamController to CourseRepository--><g id="link_EvaluateExamController_CourseRepository"><path codeLine="56" d="M770.23,312.03 C786.34,329.26 804.97,350.67 819.5,371.66 C849.81,415.44 877.2,470.3 894.28,507.23 " fill="none" id="EvaluateExamController-to-CourseRepository" style="stroke:#181818;stroke-width:1.0;stroke-dasharray:7.0,7.0;"/><polygon fill="#181818" points="896.72,511.54,896.6,501.6919,894.6338,506.996,889.3296,505.0298,896.72,511.54" style="stroke:#181818;stroke-width:1.0;"/></g><!--link ExamService to ExamEvaluator--><g id="link_ExamService_ExamEvaluator"><path codeLine="58" d="M613.5,445.11 C613.5,463.96 613.5,487.17 613.5,506.83 " fill="none" id="ExamService-to-ExamEvaluator" style="stroke:#181818;stroke-width:1.0;stroke-dasharray:7.0,7.0;"/><polygon fill="#181818" points="613.5,511.81,617.5,502.81,613.5,506.81,609.5,502.81,613.5,511.81" style="stroke:#181818;stroke-width:1.0;"/></g><!--link ExamService to ExamRepository--><g id="link_ExamService_ExamRepository"><path codeLine="59" d="M535.84,445.17 C497.69,462.93 451.1,484.8 409.5,504.77 C405.57,506.66 401.55,508.6 397.49,510.57 " fill="none" id="ExamService-to-ExamRepository" style="stroke:#181818;stroke-width:1.0;"/><polygon fill="#181818" points="393.33,513.07,403.1728,512.7236,397.8248,510.8799,399.6685,505.5319,393.33,513.07" style="stroke:#181818;stroke-width:1.0;"/></g><!--link ExamService to ExamTemplateRepository--><g id="link_ExamService_ExamTemplateRepository"><path codeLine="60" d="M454.06,445.25 C385.17,461.81 303.91,482.67 231.5,504.77 C225.32,506.66 219,508.68 212.64,510.77 " fill="none" id="ExamService-to-ExamTemplateRepository" style="stroke:#181818;stroke-width:1.0;"/><polygon fill="#181818" points="208.29,512.55,218.0939,513.4898,213.032,510.9646,215.5572,505.9026,208.29,512.55" style="stroke:#181818;stroke-width:1.0;"/></g><!--link ExamService to CourseRepository--><g id="link_ExamService_CourseRepository"><path codeLine="61" d="M690.5,445.11 C733.23,465.02 786.39,489.8 829.98,510.11 " fill="none" id="ExamService-to-CourseRepository" style="stroke:#181818;stroke-width:1.0;"/><polygon fill="#181818" points="834.24,512.57,827.7772,505.1382,829.7094,510.4548,824.3928,512.3871,834.24,512.57" style="stroke:#181818;stroke-width:1.0;"/></g><!--link ExamRepository to Exam--><g id="link_ExamRepository_Exam"><path codeLine="63" d="M318.32,586.3 C317.19,604.86 315.79,627.84 314.55,648.14 " fill="none" id="ExamRepository-to-Exam" style="stroke:#181818;stroke-width:1.0;"/><polygon fill="#181818" points="314.19,653.06,318.7233,644.3165,314.4903,648.069,310.7378,643.836,314.19,653.06" style="stroke:#181818;stroke-width:1.0;"/></g><!--link Exam to ExamTemplate--><g id="link_Exam_ExamTemplate"><path codeLine="64" d="M262.15,742.74 C242.73,759.49 220.65,778.53 201.96,794.66 " fill="none" id="Exam-to-ExamTemplate" style="stroke:#181818;stroke-width:1.0;"/><polygon fill="#181818" points="192.39,803.77,199.5455,802.8758,201.4722,795.9269,194.3167,796.8211,192.39,803.77" style="stroke:#181818;stroke-width:1.0;"/></g><!--link Exam to User--><g id="link_Exam_User"><path codeLine="65" d="M311.5,744.19 C311.5,758.92 311.5,775.28 311.5,789.81 " fill="none" id="Exam-to-User" style="stroke:#181818;stroke-width:1.0;"/><polygon fill="#181818" points="311.5,802.6,315.5,796.6,311.5,790.6,307.5,796.6,311.5,802.6" style="stroke:#181818;stroke-width:1.0;"/></g><!--link ExamTemplateRepository to ExamTemplate--><g id="link_ExamTemplateRepository_ExamTemplate"><path codeLine="67" d="M116.76,586.41 C126.31,641.17 144.42,744.9 153.7,798.06 " fill="none" id="ExamTemplateRepository-to-ExamTemplate" style="stroke:#181818;stroke-width:1.0;"/><polygon fill="#181818" points="154.68,802.66,157.0471,793.0998,153.807,797.7368,149.17,794.4967,154.68,802.66" style="stroke:#181818;stroke-width:1.0;"/></g><!--SRC=[fLJRRjim37ttL-ZHtPPyGH4WAzfrm6v8qmzWBJeLAak6H6TpX_txADbEBTT9DjGFjaKT7bvqg4A3zs8BJtZz2whxp-BoidReqH2GicQr-ftzoR8Yegxte1kWYBooXfpL6XrxG5rhLHmS13_l1OxGDyvMDqfZNlBh1z3Z1u5itYhIU34AmBOxT7jL8BFwxk-V6JqralEUfrutzFYymPtov5ecRqXfHMrINy1OfvvZ8QVoCBvn6D0SBjIDyfv1j-3NflrUvb040d_Hmprwp-jyKkW6Q-iLsPYEEonUmdZOOnvgcJXkiQer1prBK2eZFxQn4pbD-d5b6-VVHX5owILXNThIzBpEdbLVq94wcLhQ2jH4Z8n8TaBCXTWvaDZ_aoNGdwBXu1OEQaeuKlzokJeYyomx8l_5OZKMxYdOdC2EuKCcYMYpLCB3_l_mfR8xXtojirCUKq5nlqRJF70Uz9Bi3YqSHvhPdaje0flFOYJpWIlQUVKkONwn1frqpZFZDaqeounbdPAjXIr7bsdKuPsjK7Hw4zhkL25-WXVmmAV85mLAKVBqy5N2y_w4mLygO1LNmY58U8WpjOnCNwqdtOegt3hMABDBnqGYWT9CRMGdyzxGEQ-rjsBzRVjb8sfmFdZFPSEZgGmtKv7Wh-OfvLr6Kini84GE4KhE_W80]--></g></svg>