<?xml version="1.0" encoding="us-ascii" standalone="no"?><svg xmlns="http://www.w3.org/2000/svg" xmlns:xlink="http://www.w3.org/1999/xlink" contentStyleType="text/css" height="1864px" preserveAspectRatio="none" style="width:2386px;height:1864px;background:#FFFFFF;" version="1.1" viewBox="0 0 2386 1864" width="2386px" zoomAndPan="magnify"><defs/><g><rect fill="#FFFFFF" height="1545.5801" style="stroke:#181818;stroke-width:1.0;" width="10" x="274.5" y="201.4063"/><rect fill="#FFFFFF" height="31.291" style="stroke:#181818;stroke-width:1.0;" width="10" x="826.5" y="232.6973"/><rect fill="#FFFFFF" height="946.8086" style="stroke:#181818;stroke-width:1.0;" width="10" x="826.5" y="768.8867"/><rect fill="#FFFFFF" height="884.2266" style="stroke:#181818;stroke-width:1.0;" width="10" x="1249.5" y="800.1777"/><rect fill="#FFFFFF" height="31.291" style="stroke:#181818;stroke-width:1.0;" width="10" x="1673.5" y="367.1523"/><rect fill="#FFFFFF" height="31.291" style="stroke:#181818;stroke-width:1.0;" width="10" x="1673.5" y="429.7344"/><rect fill="#FFFFFF" height="31.291" style="stroke:#181818;stroke-width:1.0;" width="10" x="1791.5" y="554.5586"/><rect fill="#FFFFFF" height="31.291" style="stroke:#181818;stroke-width:1.0;" width="10" x="1791.5" y="617.1406"/><rect fill="#FFFFFF" height="31.291" style="stroke:#181818;stroke-width:1.0;" width="10" x="1905.5" y="831.4688"/><rect fill="#FFFFFF" height="31.291" style="stroke:#181818;stroke-width:1.0;" width="10" x="2026" y="1026.9238"/><rect fill="#FFFFFF" height="31.291" style="stroke:#181818;stroke-width:1.0;" width="10" x="2026" y="1489.6582"/><rect fill="#FFFFFF" height="31.291" style="stroke:#181818;stroke-width:1.0;" width="10" x="2026" y="1621.8223"/><rect fill="#FFFFFF" height="31.291" style="stroke:#181818;stroke-width:1.0;" width="10" x="2128.5" y="1089.5059"/><rect fill="#FFFFFF" height="31.291" style="stroke:#181818;stroke-width:1.0;" width="10" x="2317" y="1427.0762"/><rect fill="#FFFFFF" height="31.291" style="stroke:#181818;stroke-width:1.0;" width="10" x="2317" y="1559.2402"/><rect fill="none" height="83.873" style="stroke:#000000;stroke-width:1.5;" width="1077" x="1196.5" y="1180.0879"/><rect fill="none" height="188.7461" style="stroke:#000000;stroke-width:1.5;" width="1184" x="1196.5" y="1340.2031"/><line style="stroke:#181818;stroke-width:0.5;stroke-dasharray:5.0,5.0;" x1="22" x2="22" y1="88.2422" y2="1764.9863"/><line style="stroke:#181818;stroke-width:0.5;stroke-dasharray:5.0,5.0;" x1="279" x2="279" y1="88.2422" y2="1764.9863"/><line style="stroke:#181818;stroke-width:0.5;stroke-dasharray:5.0,5.0;" x1="831.5" x2="831.5" y1="88.2422" y2="1764.9863"/><line style="stroke:#181818;stroke-width:0.5;stroke-dasharray:5.0,5.0;" x1="1254.5" x2="1254.5" y1="88.2422" y2="1764.9863"/><line style="stroke:#181818;stroke-width:0.5;stroke-dasharray:5.0,5.0;" x1="1678.5" x2="1678.5" y1="88.2422" y2="1764.9863"/><line style="stroke:#181818;stroke-width:0.5;stroke-dasharray:5.0,5.0;" x1="1796.5" x2="1796.5" y1="510.1465" y2="1764.9863"/><line style="stroke:#181818;stroke-width:0.5;stroke-dasharray:5.0,5.0;" x1="1910.5" x2="1910.5" y1="88.2422" y2="1764.9863"/><line style="stroke:#181818;stroke-width:0.5;stroke-dasharray:5.0,5.0;" x1="2030.5" x2="2030.5" y1="88.2422" y2="1764.9863"/><line style="stroke:#181818;stroke-width:0.5;stroke-dasharray:5.0,5.0;" x1="2133.5" x2="2133.5" y1="88.2422" y2="1764.9863"/><line style="stroke:#181818;stroke-width:0.5;stroke-dasharray:5.0,5.0;" x1="2222.5" x2="2222.5" y1="88.2422" y2="1764.9863"/><line style="stroke:#181818;stroke-width:0.5;stroke-dasharray:5.0,5.0;" x1="2321.5" x2="2321.5" y1="1312.082" y2="1764.9863"/><text fill="#000000" font-family="sans-serif" font-size="14" lengthAdjust="spacing" textLength="29" x="5" y="84.7285">User</text><ellipse cx="22.5" cy="18.1211" fill="#E2E2F0" rx="8" ry="8" style="stroke:#181818;stroke-width:0.5;"/><path d="M22.5,26.1211 L22.5,53.1211 M9.5,34.1211 L35.5,34.1211 M22.5,53.1211 L9.5,68.1211 M22.5,53.1211 L35.5,68.1211 " fill="none" style="stroke:#181818;stroke-width:0.5;"/><text fill="#000000" font-family="sans-serif" font-size="14" lengthAdjust="spacing" textLength="29" x="5" y="1779.0938">User</text><ellipse cx="22.5" cy="1791.1074" fill="#E2E2F0" rx="8" ry="8" style="stroke:#181818;stroke-width:0.5;"/><path d="M22.5,1799.1074 L22.5,1826.1074 M9.5,1807.1074 L35.5,1807.1074 M22.5,1826.1074 L9.5,1841.1074 M22.5,1826.1074 L35.5,1841.1074 " fill="none" style="stroke:#181818;stroke-width:0.5;"/><rect fill="#E2E2F0" height="51.2422" rx="2.5" ry="2.5" style="stroke:#181818;stroke-width:0.5;" width="107" x="226" y="36"/><text fill="#000000" font-family="sans-serif" font-size="14" font-style="italic" lengthAdjust="spacing" textLength="83" x="238" y="58.1074">&#171;http server&#187;</text><text fill="#000000" font-family="sans-serif" font-size="14" lengthAdjust="spacing" textLength="93" x="233" y="76.7285">HttpServerAjax</text><rect fill="#E2E2F0" height="51.2422" rx="2.5" ry="2.5" style="stroke:#181818;stroke-width:0.5;" width="107" x="226" y="1763.9863"/><text fill="#000000" font-family="sans-serif" font-size="14" font-style="italic" lengthAdjust="spacing" textLength="83" x="238" y="1786.0938">&#171;http server&#187;</text><text fill="#000000" font-family="sans-serif" font-size="14" lengthAdjust="spacing" textLength="93" x="233" y="1804.7148">HttpServerAjax</text><rect fill="#E2E2F0" height="51.2422" rx="2.5" ry="2.5" style="stroke:#181818;stroke-width:0.5;" width="144" x="759.5" y="36"/><text fill="#000000" font-family="sans-serif" font-size="14" font-style="italic" lengthAdjust="spacing" textLength="84" x="789.5" y="58.1074">&#171;application&#187;</text><text fill="#000000" font-family="sans-serif" font-size="14" lengthAdjust="spacing" textLength="130" x="766.5" y="76.7285">UndoPostItController</text><rect fill="#E2E2F0" height="51.2422" rx="2.5" ry="2.5" style="stroke:#181818;stroke-width:0.5;" width="144" x="759.5" y="1763.9863"/><text fill="#000000" font-family="sans-serif" font-size="14" font-style="italic" lengthAdjust="spacing" textLength="84" x="789.5" y="1786.0938">&#171;application&#187;</text><text fill="#000000" font-family="sans-serif" font-size="14" lengthAdjust="spacing" textLength="130" x="766.5" y="1804.7148">UndoPostItController</text><rect fill="#E2E2F0" height="51.2422" rx="2.5" ry="2.5" style="stroke:#181818;stroke-width:0.5;" width="96" x="1206.5" y="36"/><text fill="#000000" font-family="sans-serif" font-size="14" font-style="italic" lengthAdjust="spacing" textLength="60" x="1224.5" y="58.1074">&#171;service&#187;</text><text fill="#000000" font-family="sans-serif" font-size="14" lengthAdjust="spacing" textLength="82" x="1213.5" y="76.7285">PostItService</text><rect fill="#E2E2F0" height="51.2422" rx="2.5" ry="2.5" style="stroke:#181818;stroke-width:0.5;" width="96" x="1206.5" y="1763.9863"/><text fill="#000000" font-family="sans-serif" font-size="14" font-style="italic" lengthAdjust="spacing" textLength="60" x="1224.5" y="1786.0938">&#171;service&#187;</text><text fill="#000000" font-family="sans-serif" font-size="14" lengthAdjust="spacing" textLength="82" x="1213.5" y="1804.7148">PostItService</text><rect fill="#E2E2F0" height="51.2422" rx="2.5" ry="2.5" style="stroke:#181818;stroke-width:0.5;" width="120" x="1618.5" y="36"/><text fill="#000000" font-family="sans-serif" font-size="14" font-style="italic" lengthAdjust="spacing" textLength="60" x="1648.5" y="58.1074">&#171;service&#187;</text><text fill="#000000" font-family="sans-serif" font-size="14" lengthAdjust="spacing" textLength="106" x="1625.5" y="76.7285">SessionManager</text><rect fill="#E2E2F0" height="51.2422" rx="2.5" ry="2.5" style="stroke:#181818;stroke-width:0.5;" width="120" x="1618.5" y="1763.9863"/><text fill="#000000" font-family="sans-serif" font-size="14" font-style="italic" lengthAdjust="spacing" textLength="60" x="1648.5" y="1786.0938">&#171;service&#187;</text><text fill="#000000" font-family="sans-serif" font-size="14" lengthAdjust="spacing" textLength="106" x="1625.5" y="1804.7148">SessionManager</text><rect fill="#E2E2F0" height="51.2422" rx="2.5" ry="2.5" style="stroke:#181818;stroke-width:0.5;" width="96" x="1748.5" y="1763.9863"/><text fill="#000000" font-family="sans-serif" font-size="14" font-style="italic" lengthAdjust="spacing" textLength="60" x="1766.5" y="1786.0938">&#171;service&#187;</text><text fill="#000000" font-family="sans-serif" font-size="14" lengthAdjust="spacing" textLength="82" x="1755.5" y="1804.7148">Synchronizer</text><text fill="#000000" font-family="sans-serif" font-size="14" font-style="italic" lengthAdjust="spacing" textLength="79" x="1868" y="66.1074">&#171;repository&#187;</text><text fill="#000000" font-family="sans-serif" font-size="14" lengthAdjust="spacing" textLength="106" x="1854.5" y="84.7285">BoardRepository</text><path d="M1892.5,15 C1892.5,5 1910.5,5 1910.5,5 C1910.5,5 1928.5,5 1928.5,15 L1928.5,41 C1928.5,51 1910.5,51 1910.5,51 C1910.5,51 1892.5,51 1892.5,41 L1892.5,15 " fill="#E2E2F0" style="stroke:#181818;stroke-width:1.5;"/><path d="M1892.5,15 C1892.5,25 1910.5,25 1910.5,25 C1910.5,25 1928.5,25 1928.5,15 " fill="none" style="stroke:#181818;stroke-width:1.5;"/><text fill="#000000" font-family="sans-serif" font-size="14" font-style="italic" lengthAdjust="spacing" textLength="79" x="1868" y="1779.0938">&#171;repository&#187;</text><text fill="#000000" font-family="sans-serif" font-size="14" lengthAdjust="spacing" textLength="106" x="1854.5" y="1797.7148">BoardRepository</text><path d="M1892.5,1811.2285 C1892.5,1801.2285 1910.5,1801.2285 1910.5,1801.2285 C1910.5,1801.2285 1928.5,1801.2285 1928.5,1811.2285 L1928.5,1837.2285 C1928.5,1847.2285 1910.5,1847.2285 1910.5,1847.2285 C1910.5,1847.2285 1892.5,1847.2285 1892.5,1837.2285 L1892.5,1811.2285 " fill="#E2E2F0" style="stroke:#181818;stroke-width:1.5;"/><path d="M1892.5,1811.2285 C1892.5,1821.2285 1910.5,1821.2285 1910.5,1821.2285 C1910.5,1821.2285 1928.5,1821.2285 1928.5,1811.2285 " fill="none" style="stroke:#181818;stroke-width:1.5;"/><text fill="#000000" font-family="sans-serif" font-size="14" font-style="italic" lengthAdjust="spacing" textLength="79" x="1988.5" y="66.1074">&#171;repository&#187;</text><text fill="#000000" font-family="sans-serif" font-size="14" lengthAdjust="spacing" textLength="103" x="1976.5" y="84.7285">PostItRepository</text><path d="M2013,15 C2013,5 2031,5 2031,5 C2031,5 2049,5 2049,15 L2049,41 C2049,51 2031,51 2031,51 C2031,51 2013,51 2013,41 L2013,15 " fill="#E2E2F0" style="stroke:#181818;stroke-width:1.5;"/><path d="M2013,15 C2013,25 2031,25 2031,25 C2031,25 2049,25 2049,15 " fill="none" style="stroke:#181818;stroke-width:1.5;"/><text fill="#000000" font-family="sans-serif" font-size="14" font-style="italic" lengthAdjust="spacing" textLength="79" x="1988.5" y="1779.0938">&#171;repository&#187;</text><text fill="#000000" font-family="sans-serif" font-size="14" lengthAdjust="spacing" textLength="103" x="1976.5" y="1797.7148">PostItRepository</text><path d="M2013,1811.2285 C2013,1801.2285 2031,1801.2285 2031,1801.2285 C2031,1801.2285 2049,1801.2285 2049,1811.2285 L2049,1837.2285 C2049,1847.2285 2031,1847.2285 2031,1847.2285 C2031,1847.2285 2013,1847.2285 2013,1837.2285 L2013,1811.2285 " fill="#E2E2F0" style="stroke:#181818;stroke-width:1.5;"/><path d="M2013,1811.2285 C2013,1821.2285 2031,1821.2285 2031,1821.2285 C2031,1821.2285 2049,1821.2285 2049,1811.2285 " fill="none" style="stroke:#181818;stroke-width:1.5;"/><rect fill="#E2E2F0" height="51.2422" rx="2.5" ry="2.5" style="stroke:#181818;stroke-width:0.5;" width="76" x="2095.5" y="36"/><text fill="#000000" font-family="sans-serif" font-size="14" font-style="italic" lengthAdjust="spacing" textLength="62" x="2102.5" y="58.1074">&#171;domain&#187;</text><text fill="#000000" font-family="sans-serif" font-size="14" lengthAdjust="spacing" textLength="35" x="2116" y="76.7285">PostIt</text><rect fill="#E2E2F0" height="51.2422" rx="2.5" ry="2.5" style="stroke:#181818;stroke-width:0.5;" width="76" x="2095.5" y="1763.9863"/><text fill="#000000" font-family="sans-serif" font-size="14" font-style="italic" lengthAdjust="spacing" textLength="62" x="2102.5" y="1786.0938">&#171;domain&#187;</text><text fill="#000000" font-family="sans-serif" font-size="14" lengthAdjust="spacing" textLength="35" x="2116" y="1804.7148">PostIt</text><rect fill="#E2E2F0" height="51.2422" rx="2.5" ry="2.5" style="stroke:#181818;stroke-width:0.5;" width="82" x="2181.5" y="36"/><text fill="#000000" font-family="sans-serif" font-size="14" font-style="italic" lengthAdjust="spacing" textLength="62" x="2191.5" y="58.1074">&#171;domain&#187;</text><text fill="#000000" font-family="sans-serif" font-size="14" lengthAdjust="spacing" textLength="68" x="2188.5" y="76.7285">PostItState</text><rect fill="#E2E2F0" height="51.2422" rx="2.5" ry="2.5" style="stroke:#181818;stroke-width:0.5;" width="82" x="2181.5" y="1763.9863"/><text fill="#000000" font-family="sans-serif" font-size="14" font-style="italic" lengthAdjust="spacing" textLength="62" x="2191.5" y="1786.0938">&#171;domain&#187;</text><text fill="#000000" font-family="sans-serif" font-size="14" lengthAdjust="spacing" textLength="68" x="2188.5" y="1804.7148">PostItState</text><rect fill="#E2E2F0" height="51.2422" rx="2.5" ry="2.5" style="stroke:#181818;stroke-width:0.5;" width="97" x="2273.5" y="1763.9863"/><text fill="#000000" font-family="sans-serif" font-size="14" font-style="italic" lengthAdjust="spacing" textLength="59" x="2292.5" y="1786.0938">&#171;factory&#187;</text><text fill="#000000" font-family="sans-serif" font-size="14" lengthAdjust="spacing" textLength="83" x="2280.5" y="1804.7148">PostItFactory</text><rect fill="#FFFFFF" height="1545.5801" style="stroke:#181818;stroke-width:1.0;" width="10" x="274.5" y="201.4063"/><rect fill="#FFFFFF" height="31.291" style="stroke:#181818;stroke-width:1.0;" width="10" x="826.5" y="232.6973"/><rect fill="#FFFFFF" height="946.8086" style="stroke:#181818;stroke-width:1.0;" width="10" x="826.5" y="768.8867"/><rect fill="#FFFFFF" height="884.2266" style="stroke:#181818;stroke-width:1.0;" width="10" x="1249.5" y="800.1777"/><rect fill="#FFFFFF" height="31.291" style="stroke:#181818;stroke-width:1.0;" width="10" x="1673.5" y="367.1523"/><rect fill="#FFFFFF" height="31.291" style="stroke:#181818;stroke-width:1.0;" width="10" x="1673.5" y="429.7344"/><rect fill="#FFFFFF" height="31.291" style="stroke:#181818;stroke-width:1.0;" width="10" x="1791.5" y="554.5586"/><rect fill="#FFFFFF" height="31.291" style="stroke:#181818;stroke-width:1.0;" width="10" x="1791.5" y="617.1406"/><rect fill="#FFFFFF" height="31.291" style="stroke:#181818;stroke-width:1.0;" width="10" x="1905.5" y="831.4688"/><rect fill="#FFFFFF" height="31.291" style="stroke:#181818;stroke-width:1.0;" width="10" x="2026" y="1026.9238"/><rect fill="#FFFFFF" height="31.291" style="stroke:#181818;stroke-width:1.0;" width="10" x="2026" y="1489.6582"/><rect fill="#FFFFFF" height="31.291" style="stroke:#181818;stroke-width:1.0;" width="10" x="2026" y="1621.8223"/><rect fill="#FFFFFF" height="31.291" style="stroke:#181818;stroke-width:1.0;" width="10" x="2128.5" y="1089.5059"/><rect fill="#FFFFFF" height="31.291" style="stroke:#181818;stroke-width:1.0;" width="10" x="2317" y="1427.0762"/><rect fill="#FFFFFF" height="31.291" style="stroke:#181818;stroke-width:1.0;" width="10" x="2317" y="1559.2402"/><polygon fill="#181818" points="267.5,117.5332,277.5,121.5332,267.5,125.5332,271.5,121.5332" style="stroke:#181818;stroke-width:1.0;"/><line style="stroke:#181818;stroke-width:1.0;stroke-dasharray:2.0,2.0;" x1="22.5" x2="273.5" y1="121.5332" y2="121.5332"/><text fill="#000000" font-family="sans-serif" font-size="13" font-weight="bold" lengthAdjust="spacing" textLength="7" x="29.5" y="116.2705">1</text><text fill="#000000" font-family="sans-serif" font-size="13" lengthAdjust="spacing" textLength="132" x="40.5" y="116.2705">wants to undo a post-it</text><polygon fill="#181818" points="33.5,148.8242,23.5,152.8242,33.5,156.8242,29.5,152.8242" style="stroke:#181818;stroke-width:1.0;"/><line style="stroke:#181818;stroke-width:1.0;stroke-dasharray:2.0,2.0;" x1="27.5" x2="278.5" y1="152.8242" y2="152.8242"/><text fill="#000000" font-family="sans-serif" font-size="13" font-weight="bold" lengthAdjust="spacing" textLength="7" x="39.5" y="147.5615">2</text><text fill="#000000" font-family="sans-serif" font-size="13" lengthAdjust="spacing" textLength="134" x="50.5" y="147.5615">waits for the post-it info</text><polygon fill="#181818" points="262.5,197.4063,272.5,201.4063,262.5,205.4063,266.5,201.4063" style="stroke:#181818;stroke-width:1.0;"/><line style="stroke:#181818;stroke-width:1.0;stroke-dasharray:2.0,2.0;" x1="22.5" x2="268.5" y1="201.4063" y2="201.4063"/><text fill="#000000" font-family="sans-serif" font-size="13" font-weight="bold" lengthAdjust="spacing" textLength="7" x="29.5" y="187.498">3</text><text fill="#000000" font-family="sans-serif" font-size="13" lengthAdjust="spacing" textLength="187" x="40.5" y="178.8525">sends through http request body</text><text fill="#000000" font-family="sans-serif" font-size="13" lengthAdjust="spacing" textLength="193" x="40.5" y="196.1436">the row, column, board and token</text><polygon fill="#181818" points="814.5,228.6973,824.5,232.6973,814.5,236.6973,818.5,232.6973" style="stroke:#181818;stroke-width:1.0;"/><line style="stroke:#181818;stroke-width:1.0;" x1="284.5" x2="820.5" y1="232.6973" y2="232.6973"/><text fill="#000000" font-family="sans-serif" font-size="13" font-weight="bold" lengthAdjust="spacing" textLength="7" x="291.5" y="227.4346">4</text><text fill="#000000" font-family="sans-serif" font-size="13" lengthAdjust="spacing" textLength="44" x="302.5" y="227.4346">create()</text><polygon fill="#181818" points="1242.5,259.9883,1252.5,263.9883,1242.5,267.9883,1246.5,263.9883" style="stroke:#181818;stroke-width:1.0;"/><line style="stroke:#181818;stroke-width:1.0;" x1="831.5" x2="1248.5" y1="263.9883" y2="263.9883"/><text fill="#000000" font-family="sans-serif" font-size="13" font-weight="bold" lengthAdjust="spacing" textLength="7" x="838.5" y="258.7256">5</text><text fill="#000000" font-family="sans-serif" font-size="13" lengthAdjust="spacing" textLength="44" x="849.5" y="258.7256">create()</text><path d="M1259,276.9883 L1259,337.9883 L1494,337.9883 L1494,286.9883 L1484,276.9883 L1259,276.9883 " fill="#FEFFDD" style="stroke:#181818;stroke-width:0.5;"/><path d="M1484,276.9883 L1484,286.9883 L1494,286.9883 L1484,276.9883 " fill="#FEFFDD" style="stroke:#181818;stroke-width:0.5;"/><text fill="#000000" font-family="sans-serif" font-size="13" lengthAdjust="spacing" textLength="214" x="1265" y="296.0166">dependency injection was abstracted</text><text fill="#000000" font-family="sans-serif" font-size="13" lengthAdjust="spacing" textLength="68" x="1265" y="313.3076">for the sake</text><text fill="#000000" font-family="sans-serif" font-size="13" lengthAdjust="spacing" textLength="123" x="1265" y="330.5986">of diagram readability</text><polygon fill="#181818" points="1661.5,363.1523,1671.5,367.1523,1661.5,371.1523,1665.5,367.1523" style="stroke:#181818;stroke-width:1.0;"/><line style="stroke:#181818;stroke-width:1.0;" x1="284.5" x2="1667.5" y1="367.1523" y2="367.1523"/><text fill="#000000" font-family="sans-serif" font-size="13" font-weight="bold" lengthAdjust="spacing" textLength="7" x="291.5" y="361.8896">6</text><text fill="#000000" font-family="sans-serif" font-size="13" lengthAdjust="spacing" textLength="75" x="302.5" y="361.8896">getInstance()</text><polygon fill="#181818" points="295.5,394.4434,285.5,398.4434,295.5,402.4434,291.5,398.4434" style="stroke:#181818;stroke-width:1.0;"/><line style="stroke:#181818;stroke-width:1.0;stroke-dasharray:2.0,2.0;" x1="289.5" x2="1677.5" y1="398.4434" y2="398.4434"/><text fill="#000000" font-family="sans-serif" font-size="13" font-weight="bold" lengthAdjust="spacing" textLength="7" x="301.5" y="393.1807">7</text><text fill="#000000" font-family="sans-serif" font-size="13" lengthAdjust="spacing" textLength="103" x="312.5" y="393.1807">sessionManager()</text><polygon fill="#181818" points="1661.5,425.7344,1671.5,429.7344,1661.5,433.7344,1665.5,429.7344" style="stroke:#181818;stroke-width:1.0;"/><line style="stroke:#181818;stroke-width:1.0;" x1="284.5" x2="1667.5" y1="429.7344" y2="429.7344"/><text fill="#000000" font-family="sans-serif" font-size="13" font-weight="bold" lengthAdjust="spacing" textLength="7" x="291.5" y="424.4717">8</text><text fill="#000000" font-family="sans-serif" font-size="13" lengthAdjust="spacing" textLength="136" x="302.5" y="424.4717">getUserByToken(token)</text><polygon fill="#181818" points="295.5,457.0254,285.5,461.0254,295.5,465.0254,291.5,461.0254" style="stroke:#181818;stroke-width:1.0;"/><line style="stroke:#181818;stroke-width:1.0;stroke-dasharray:2.0,2.0;" x1="289.5" x2="1677.5" y1="461.0254" y2="461.0254"/><text fill="#000000" font-family="sans-serif" font-size="13" font-weight="bold" lengthAdjust="spacing" textLength="7" x="301.5" y="455.7627">9</text><text fill="#000000" font-family="sans-serif" font-size="13" lengthAdjust="spacing" textLength="52" x="312.5" y="455.7627">authUser</text><polygon fill="#181818" points="1736.5,488.3164,1746.5,492.3164,1736.5,496.3164,1740.5,492.3164" style="stroke:#181818;stroke-width:1.0;"/><line style="stroke:#181818;stroke-width:1.0;" x1="284.5" x2="1742.5" y1="492.3164" y2="492.3164"/><text fill="#000000" font-family="sans-serif" font-size="13" font-weight="bold" lengthAdjust="spacing" textLength="14" x="291.5" y="487.0537">10</text><text fill="#000000" font-family="sans-serif" font-size="13" lengthAdjust="spacing" textLength="75" x="309.5" y="487.0537">getInstance()</text><rect fill="#E2E2F0" height="51.2422" rx="2.5" ry="2.5" style="stroke:#181818;stroke-width:0.5;" width="96" x="1748.5" y="469.0254"/><text fill="#000000" font-family="sans-serif" font-size="14" font-style="italic" lengthAdjust="spacing" textLength="60" x="1766.5" y="491.1328">&#171;service&#187;</text><text fill="#000000" font-family="sans-serif" font-size="14" lengthAdjust="spacing" textLength="82" x="1755.5" y="509.7539">Synchronizer</text><polygon fill="#181818" points="1779.5,550.5586,1789.5,554.5586,1779.5,558.5586,1783.5,554.5586" style="stroke:#181818;stroke-width:1.0;"/><line style="stroke:#181818;stroke-width:1.0;" x1="284.5" x2="1785.5" y1="554.5586" y2="554.5586"/><text fill="#000000" font-family="sans-serif" font-size="13" font-weight="bold" lengthAdjust="spacing" textLength="14" x="291.5" y="549.2959">11</text><text fill="#000000" font-family="sans-serif" font-size="13" lengthAdjust="spacing" textLength="182" x="309.5" y="549.2959">generateLockKey(requestBody)</text><polygon fill="#181818" points="295.5,581.8496,285.5,585.8496,295.5,589.8496,291.5,585.8496" style="stroke:#181818;stroke-width:1.0;"/><line style="stroke:#181818;stroke-width:1.0;stroke-dasharray:2.0,2.0;" x1="289.5" x2="1795.5" y1="585.8496" y2="585.8496"/><text fill="#000000" font-family="sans-serif" font-size="13" font-weight="bold" lengthAdjust="spacing" textLength="14" x="301.5" y="580.5869">12</text><text fill="#000000" font-family="sans-serif" font-size="13" lengthAdjust="spacing" textLength="47" x="319.5" y="580.5869">lockKey</text><polygon fill="#181818" points="1779.5,613.1406,1789.5,617.1406,1779.5,621.1406,1783.5,617.1406" style="stroke:#181818;stroke-width:1.0;"/><line style="stroke:#181818;stroke-width:1.0;" x1="284.5" x2="1785.5" y1="617.1406" y2="617.1406"/><text fill="#000000" font-family="sans-serif" font-size="13" font-weight="bold" lengthAdjust="spacing" textLength="14" x="291.5" y="611.8779">13</text><text fill="#000000" font-family="sans-serif" font-size="13" lengthAdjust="spacing" textLength="191" x="309.5" y="611.8779">getOrCreateLockObject(lockKey)</text><polygon fill="#181818" points="295.5,644.4316,285.5,648.4316,295.5,652.4316,291.5,648.4316" style="stroke:#181818;stroke-width:1.0;"/><line style="stroke:#181818;stroke-width:1.0;stroke-dasharray:2.0,2.0;" x1="289.5" x2="1795.5" y1="648.4316" y2="648.4316"/><text fill="#000000" font-family="sans-serif" font-size="13" font-weight="bold" lengthAdjust="spacing" textLength="14" x="301.5" y="643.1689">14</text><text fill="#000000" font-family="sans-serif" font-size="13" lengthAdjust="spacing" textLength="62" x="319.5" y="643.1689">lockObject</text><path d="M289,661.4316 L289,740.4316 L538,740.4316 L538,671.4316 L528,661.4316 L289,661.4316 " fill="#FEFFDD" style="stroke:#181818;stroke-width:0.5;"/><path d="M528,661.4316 L528,671.4316 L538,671.4316 L528,661.4316 " fill="#FEFFDD" style="stroke:#181818;stroke-width:0.5;"/><text fill="#000000" font-family="sans-serif" font-size="13" lengthAdjust="spacing" textLength="178" x="295" y="680.46">the lockKey gets or creates an</text><text fill="#000000" font-family="sans-serif" font-size="13" lengthAdjust="spacing" textLength="174" x="295" y="697.751">object that will act as a mutex</text><text fill="#000000" font-family="sans-serif" font-size="13" lengthAdjust="spacing" textLength="137" x="295" y="715.042">when changing a post-it</text><text fill="#000000" font-family="sans-serif" font-size="13" lengthAdjust="spacing" textLength="228" x="295" y="732.333">(based on the row, column and boardId)</text><polygon fill="#181818" points="814.5,764.8867,824.5,768.8867,814.5,772.8867,818.5,768.8867" style="stroke:#181818;stroke-width:1.0;"/><line style="stroke:#181818;stroke-width:1.0;" x1="284.5" x2="820.5" y1="768.8867" y2="768.8867"/><text fill="#000000" font-family="sans-serif" font-size="13" font-weight="bold" lengthAdjust="spacing" textLength="14" x="291.5" y="763.624">15</text><text fill="#000000" font-family="sans-serif" font-size="13" lengthAdjust="spacing" textLength="505" x="309.5" y="763.624">undoPostIt(requestBody.row(), requestBody.column(), requestBody.boardId(), authUser)</text><polygon fill="#181818" points="1237.5,796.1777,1247.5,800.1777,1237.5,804.1777,1241.5,800.1777" style="stroke:#181818;stroke-width:1.0;"/><line style="stroke:#181818;stroke-width:1.0;" x1="836.5" x2="1243.5" y1="800.1777" y2="800.1777"/><text fill="#000000" font-family="sans-serif" font-size="13" font-weight="bold" lengthAdjust="spacing" textLength="14" x="843.5" y="794.915">16</text><text fill="#000000" font-family="sans-serif" font-size="13" lengthAdjust="spacing" textLength="376" x="861.5" y="794.915">undoPostIt(row, column, Long.parseLong(boardId), authenticated)</text><polygon fill="#181818" points="1893.5,827.4688,1903.5,831.4688,1893.5,835.4688,1897.5,831.4688" style="stroke:#181818;stroke-width:1.0;"/><line style="stroke:#181818;stroke-width:1.0;" x1="1259.5" x2="1899.5" y1="831.4688" y2="831.4688"/><text fill="#000000" font-family="sans-serif" font-size="13" font-weight="bold" lengthAdjust="spacing" textLength="14" x="1266.5" y="826.2061">17</text><text fill="#000000" font-family="sans-serif" font-size="13" lengthAdjust="spacing" textLength="102" x="1284.5" y="826.2061">ofIdentity(boardId)</text><polygon fill="#181818" points="1270.5,858.7598,1260.5,862.7598,1270.5,866.7598,1266.5,862.7598" style="stroke:#181818;stroke-width:1.0;"/><line style="stroke:#181818;stroke-width:1.0;stroke-dasharray:2.0,2.0;" x1="1264.5" x2="1909.5" y1="862.7598" y2="862.7598"/><text fill="#000000" font-family="sans-serif" font-size="13" font-weight="bold" lengthAdjust="spacing" textLength="14" x="1276.5" y="857.4971">18</text><text fill="#000000" font-family="sans-serif" font-size="13" lengthAdjust="spacing" textLength="32" x="1294.5" y="857.4971">board</text><line style="stroke:#181818;stroke-width:1.0;" x1="1259.5" x2="1301.5" y1="894.0508" y2="894.0508"/><line style="stroke:#181818;stroke-width:1.0;" x1="1301.5" x2="1301.5" y1="894.0508" y2="907.0508"/><line style="stroke:#181818;stroke-width:1.0;" x1="1260.5" x2="1301.5" y1="907.0508" y2="907.0508"/><polygon fill="#181818" points="1270.5,903.0508,1260.5,907.0508,1270.5,911.0508,1266.5,907.0508" style="stroke:#181818;stroke-width:1.0;"/><text fill="#000000" font-family="sans-serif" font-size="13" font-weight="bold" lengthAdjust="spacing" textLength="14" x="1266.5" y="888.7881">19</text><text fill="#000000" font-family="sans-serif" font-size="13" lengthAdjust="spacing" textLength="199" x="1284.5" y="888.7881">checkIfIsRowEntryTitle(row, board)</text><line style="stroke:#181818;stroke-width:1.0;" x1="1259.5" x2="1301.5" y1="938.3418" y2="938.3418"/><line style="stroke:#181818;stroke-width:1.0;" x1="1301.5" x2="1301.5" y1="938.3418" y2="951.3418"/><line style="stroke:#181818;stroke-width:1.0;" x1="1260.5" x2="1301.5" y1="951.3418" y2="951.3418"/><polygon fill="#181818" points="1270.5,947.3418,1260.5,951.3418,1270.5,955.3418,1266.5,951.3418" style="stroke:#181818;stroke-width:1.0;"/><text fill="#000000" font-family="sans-serif" font-size="13" font-weight="bold" lengthAdjust="spacing" textLength="14" x="1266.5" y="933.0791">20</text><text fill="#000000" font-family="sans-serif" font-size="13" lengthAdjust="spacing" textLength="240" x="1284.5" y="933.0791">checkIfIsColumnEntryTitle(column, board)</text><line style="stroke:#181818;stroke-width:1.0;" x1="1259.5" x2="1301.5" y1="982.6328" y2="982.6328"/><line style="stroke:#181818;stroke-width:1.0;" x1="1301.5" x2="1301.5" y1="982.6328" y2="995.6328"/><line style="stroke:#181818;stroke-width:1.0;" x1="1260.5" x2="1301.5" y1="995.6328" y2="995.6328"/><polygon fill="#181818" points="1270.5,991.6328,1260.5,995.6328,1270.5,999.6328,1266.5,995.6328" style="stroke:#181818;stroke-width:1.0;"/><text fill="#000000" font-family="sans-serif" font-size="13" font-weight="bold" lengthAdjust="spacing" textLength="14" x="1266.5" y="977.3701">21</text><text fill="#000000" font-family="sans-serif" font-size="13" lengthAdjust="spacing" textLength="243" x="1284.5" y="977.3701">postItByPosition(row, column, board, true)</text><polygon fill="#181818" points="2014,1022.9238,2024,1026.9238,2014,1030.9238,2018,1026.9238" style="stroke:#181818;stroke-width:1.0;"/><line style="stroke:#181818;stroke-width:1.0;" x1="1259.5" x2="2020" y1="1026.9238" y2="1026.9238"/><text fill="#000000" font-family="sans-serif" font-size="13" font-weight="bold" lengthAdjust="spacing" textLength="14" x="1266.5" y="1021.6611">22</text><text fill="#000000" font-family="sans-serif" font-size="13" lengthAdjust="spacing" textLength="209" x="1284.5" y="1021.6611">positByPosition(row, column, board)</text><polygon fill="#181818" points="1270.5,1054.2148,1260.5,1058.2148,1270.5,1062.2148,1266.5,1058.2148" style="stroke:#181818;stroke-width:1.0;"/><line style="stroke:#181818;stroke-width:1.0;stroke-dasharray:2.0,2.0;" x1="1264.5" x2="2030" y1="1058.2148" y2="1058.2148"/><text fill="#000000" font-family="sans-serif" font-size="13" font-weight="bold" lengthAdjust="spacing" textLength="14" x="1276.5" y="1052.9521">23</text><text fill="#000000" font-family="sans-serif" font-size="13" lengthAdjust="spacing" textLength="55" x="1294.5" y="1052.9521">lastPostIt</text><polygon fill="#181818" points="2116.5,1085.5059,2126.5,1089.5059,2116.5,1093.5059,2120.5,1089.5059" style="stroke:#181818;stroke-width:1.0;"/><line style="stroke:#181818;stroke-width:1.0;" x1="1259.5" x2="2122.5" y1="1089.5059" y2="1089.5059"/><text fill="#000000" font-family="sans-serif" font-size="13" font-weight="bold" lengthAdjust="spacing" textLength="14" x="1266.5" y="1084.2432">24</text><text fill="#000000" font-family="sans-serif" font-size="13" lengthAdjust="spacing" textLength="87" x="1284.5" y="1084.2432">rollbackPostIt()</text><polygon fill="#181818" points="1270.5,1116.7969,1260.5,1120.7969,1270.5,1124.7969,1266.5,1120.7969" style="stroke:#181818;stroke-width:1.0;"/><line style="stroke:#181818;stroke-width:1.0;stroke-dasharray:2.0,2.0;" x1="1264.5" x2="2132.5" y1="1120.7969" y2="1120.7969"/><text fill="#000000" font-family="sans-serif" font-size="13" font-weight="bold" lengthAdjust="spacing" textLength="14" x="1276.5" y="1115.5342">25</text><text fill="#000000" font-family="sans-serif" font-size="13" lengthAdjust="spacing" textLength="81" x="1294.5" y="1115.5342">previousPostIt</text><line style="stroke:#181818;stroke-width:1.0;" x1="1259.5" x2="1301.5" y1="1152.0879" y2="1152.0879"/><line style="stroke:#181818;stroke-width:1.0;" x1="1301.5" x2="1301.5" y1="1152.0879" y2="1165.0879"/><line style="stroke:#181818;stroke-width:1.0;" x1="1260.5" x2="1301.5" y1="1165.0879" y2="1165.0879"/><polygon fill="#181818" points="1270.5,1161.0879,1260.5,1165.0879,1270.5,1169.0879,1266.5,1165.0879" style="stroke:#181818;stroke-width:1.0;"/><text fill="#000000" font-family="sans-serif" font-size="13" font-weight="bold" lengthAdjust="spacing" textLength="14" x="1266.5" y="1146.8252">26</text><text fill="#000000" font-family="sans-serif" font-size="13" lengthAdjust="spacing" textLength="305" x="1284.5" y="1146.8252">checkForUserOwnership(authUser, board, lastPostIt)</text><path d="M1196.5,1180.0879 L1257.5,1180.0879 L1257.5,1189.3789 L1247.5,1199.3789 L1196.5,1199.3789 L1196.5,1180.0879 " fill="#EEEEEE" style="stroke:#000000;stroke-width:1.5;"/><rect fill="none" height="83.873" style="stroke:#000000;stroke-width:1.5;" width="1077" x="1196.5" y="1180.0879"/><text fill="#000000" font-family="sans-serif" font-size="13" font-weight="bold" lengthAdjust="spacing" textLength="16" x="1211.5" y="1195.1162">alt</text><text fill="#000000" font-family="sans-serif" font-size="11" font-weight="bold" lengthAdjust="spacing" textLength="269" x="1272.5" y="1193.958">[previousState.equals(PostItStateType.DELETED)]</text><polygon fill="#181818" points="2210.5,1218.6699,2220.5,1222.6699,2210.5,1226.6699,2214.5,1222.6699" style="stroke:#181818;stroke-width:1.0;"/><line style="stroke:#181818;stroke-width:1.0;" x1="1259.5" x2="2216.5" y1="1222.6699" y2="1222.6699"/><text fill="#000000" font-family="sans-serif" font-size="13" font-weight="bold" lengthAdjust="spacing" textLength="14" x="1266.5" y="1217.4072">27</text><text fill="#000000" font-family="sans-serif" font-size="13" lengthAdjust="spacing" textLength="226" x="1284.5" y="1217.4072">newState = PostItStateType.DELETED</text><line style="stroke:#000000;stroke-width:1.0;stroke-dasharray:2.0,2.0;" x1="1196.5" x2="2273.5" y1="1231.6699" y2="1231.6699"/><polygon fill="#181818" points="2210.5,1251.9609,2220.5,1255.9609,2210.5,1259.9609,2214.5,1255.9609" style="stroke:#181818;stroke-width:1.0;"/><line style="stroke:#181818;stroke-width:1.0;" x1="1259.5" x2="2216.5" y1="1255.9609" y2="1255.9609"/><text fill="#000000" font-family="sans-serif" font-size="13" font-weight="bold" lengthAdjust="spacing" textLength="14" x="1266.5" y="1250.6982">28</text><text fill="#000000" font-family="sans-serif" font-size="13" lengthAdjust="spacing" textLength="228" x="1284.5" y="1250.6982">newState = PostItStateType.UPDATED</text><polygon fill="#181818" points="2261.5,1290.252,2271.5,1294.252,2261.5,1298.252,2265.5,1294.252" style="stroke:#181818;stroke-width:1.0;"/><line style="stroke:#181818;stroke-width:1.0;" x1="1259.5" x2="2267.5" y1="1294.252" y2="1294.252"/><text fill="#000000" font-family="sans-serif" font-size="13" font-weight="bold" lengthAdjust="spacing" textLength="14" x="1266.5" y="1288.9893">29</text><text fill="#000000" font-family="sans-serif" font-size="13" lengthAdjust="spacing" textLength="44" x="1284.5" y="1288.9893">create()</text><rect fill="#E2E2F0" height="51.2422" rx="2.5" ry="2.5" style="stroke:#181818;stroke-width:0.5;" width="97" x="2273.5" y="1270.9609"/><text fill="#000000" font-family="sans-serif" font-size="14" font-style="italic" lengthAdjust="spacing" textLength="59" x="2292.5" y="1293.0684">&#171;factory&#187;</text><text fill="#000000" font-family="sans-serif" font-size="14" lengthAdjust="spacing" textLength="83" x="2280.5" y="1311.6895">PostItFactory</text><path d="M1196.5,1340.2031 L1257.5,1340.2031 L1257.5,1349.4941 L1247.5,1359.4941 L1196.5,1359.4941 L1196.5,1340.2031 " fill="#EEEEEE" style="stroke:#000000;stroke-width:1.5;"/><rect fill="none" height="188.7461" style="stroke:#000000;stroke-width:1.5;" width="1184" x="1196.5" y="1340.2031"/><text fill="#000000" font-family="sans-serif" font-size="13" font-weight="bold" lengthAdjust="spacing" textLength="16" x="1211.5" y="1355.2314">alt</text><text fill="#000000" font-family="sans-serif" font-size="11" font-weight="bold" lengthAdjust="spacing" textLength="262" x="1272.5" y="1354.0732">[previousState.equals(PostItStateType.MOVED)]</text><line style="stroke:#181818;stroke-width:1.0;" x1="1259.5" x2="1301.5" y1="1382.7852" y2="1382.7852"/><line style="stroke:#181818;stroke-width:1.0;" x1="1301.5" x2="1301.5" y1="1382.7852" y2="1395.7852"/><line style="stroke:#181818;stroke-width:1.0;" x1="1260.5" x2="1301.5" y1="1395.7852" y2="1395.7852"/><polygon fill="#181818" points="1270.5,1391.7852,1260.5,1395.7852,1270.5,1399.7852,1266.5,1395.7852" style="stroke:#181818;stroke-width:1.0;"/><text fill="#000000" font-family="sans-serif" font-size="13" font-weight="bold" lengthAdjust="spacing" textLength="14" x="1266.5" y="1377.5225">30</text><text fill="#000000" font-family="sans-serif" font-size="13" lengthAdjust="spacing" textLength="382" x="1284.5" y="1377.5225">savePreviousPostItMoved(lastPostIt, previousPostIt, postItFactory)</text><polygon fill="#181818" points="2305,1423.0762,2315,1427.0762,2305,1431.0762,2309,1427.0762" style="stroke:#181818;stroke-width:1.0;"/><line style="stroke:#181818;stroke-width:1.0;" x1="1259.5" x2="2311" y1="1427.0762" y2="1427.0762"/><text fill="#000000" font-family="sans-serif" font-size="13" font-weight="bold" lengthAdjust="spacing" textLength="14" x="1266.5" y="1421.8135">31</text><text fill="#000000" font-family="sans-serif" font-size="13" lengthAdjust="spacing" textLength="853" x="1284.5" y="1421.8135">createChange(lastPostIt.content(), lastPostIt.rowPos(), lastPostIt.columnPos(), lastPostIt.owner(), lastPostIt.board(), PostItStateType.MOVED, null)</text><polygon fill="#181818" points="1270.5,1454.3672,1260.5,1458.3672,1270.5,1462.3672,1266.5,1458.3672" style="stroke:#181818;stroke-width:1.0;"/><line style="stroke:#181818;stroke-width:1.0;stroke-dasharray:2.0,2.0;" x1="1264.5" x2="2321" y1="1458.3672" y2="1458.3672"/><text fill="#000000" font-family="sans-serif" font-size="13" font-weight="bold" lengthAdjust="spacing" textLength="14" x="1276.5" y="1453.1045">32</text><text fill="#000000" font-family="sans-serif" font-size="13" lengthAdjust="spacing" textLength="71" x="1294.5" y="1453.1045">movedPostIt</text><polygon fill="#181818" points="2014,1485.6582,2024,1489.6582,2014,1493.6582,2018,1489.6582" style="stroke:#181818;stroke-width:1.0;"/><line style="stroke:#181818;stroke-width:1.0;" x1="1259.5" x2="2020" y1="1489.6582" y2="1489.6582"/><text fill="#000000" font-family="sans-serif" font-size="13" font-weight="bold" lengthAdjust="spacing" textLength="14" x="1266.5" y="1484.3955">33</text><text fill="#000000" font-family="sans-serif" font-size="13" lengthAdjust="spacing" textLength="105" x="1284.5" y="1484.3955">save(movedPostIt)</text><polygon fill="#181818" points="1270.5,1516.9492,1260.5,1520.9492,1270.5,1524.9492,1266.5,1520.9492" style="stroke:#181818;stroke-width:1.0;"/><line style="stroke:#181818;stroke-width:1.0;stroke-dasharray:2.0,2.0;" x1="1264.5" x2="2030" y1="1520.9492" y2="1520.9492"/><text fill="#000000" font-family="sans-serif" font-size="13" font-weight="bold" lengthAdjust="spacing" textLength="14" x="1276.5" y="1515.6865">34</text><text fill="#000000" font-family="sans-serif" font-size="13" lengthAdjust="spacing" textLength="142" x="1294.5" y="1515.6865">lastPostIt = movedPostIt</text><polygon fill="#181818" points="2305,1555.2402,2315,1559.2402,2305,1563.2402,2309,1559.2402" style="stroke:#181818;stroke-width:1.0;"/><line style="stroke:#181818;stroke-width:1.0;" x1="1259.5" x2="2311" y1="1559.2402" y2="1559.2402"/><text fill="#000000" font-family="sans-serif" font-size="13" font-weight="bold" lengthAdjust="spacing" textLength="14" x="1266.5" y="1553.9775">35</text><text fill="#000000" font-family="sans-serif" font-size="13" lengthAdjust="spacing" textLength="927" x="1284.5" y="1553.9775">createChange(previousPostIt.content(), previousPostIt.rowPos(), previousPostIt.columnPos(), previousPostIt.owner(), previousPostIt.board(), newState, lastPostIt)</text><polygon fill="#181818" points="1270.5,1586.5313,1260.5,1590.5313,1270.5,1594.5313,1266.5,1590.5313" style="stroke:#181818;stroke-width:1.0;"/><line style="stroke:#181818;stroke-width:1.0;stroke-dasharray:2.0,2.0;" x1="1264.5" x2="2321" y1="1590.5313" y2="1590.5313"/><text fill="#000000" font-family="sans-serif" font-size="13" font-weight="bold" lengthAdjust="spacing" textLength="14" x="1276.5" y="1585.2686">36</text><text fill="#000000" font-family="sans-serif" font-size="13" lengthAdjust="spacing" textLength="57" x="1294.5" y="1585.2686">newPostIt</text><polygon fill="#181818" points="2014,1617.8223,2024,1621.8223,2014,1625.8223,2018,1621.8223" style="stroke:#181818;stroke-width:1.0;"/><line style="stroke:#181818;stroke-width:1.0;" x1="1259.5" x2="2020" y1="1621.8223" y2="1621.8223"/><text fill="#000000" font-family="sans-serif" font-size="13" font-weight="bold" lengthAdjust="spacing" textLength="14" x="1266.5" y="1616.5596">37</text><text fill="#000000" font-family="sans-serif" font-size="13" lengthAdjust="spacing" textLength="91" x="1284.5" y="1616.5596">save(newPostIt)</text><polygon fill="#181818" points="1270.5,1649.1133,1260.5,1653.1133,1270.5,1657.1133,1266.5,1653.1133" style="stroke:#181818;stroke-width:1.0;"/><line style="stroke:#181818;stroke-width:1.0;stroke-dasharray:2.0,2.0;" x1="1264.5" x2="2030" y1="1653.1133" y2="1653.1133"/><text fill="#000000" font-family="sans-serif" font-size="13" font-weight="bold" lengthAdjust="spacing" textLength="14" x="1276.5" y="1647.8506">38</text><text fill="#000000" font-family="sans-serif" font-size="13" lengthAdjust="spacing" textLength="57" x="1294.5" y="1647.8506">newPostIt</text><polygon fill="#181818" points="847.5,1680.4043,837.5,1684.4043,847.5,1688.4043,843.5,1684.4043" style="stroke:#181818;stroke-width:1.0;"/><line style="stroke:#181818;stroke-width:1.0;stroke-dasharray:2.0,2.0;" x1="841.5" x2="1253.5" y1="1684.4043" y2="1684.4043"/><text fill="#000000" font-family="sans-serif" font-size="13" font-weight="bold" lengthAdjust="spacing" textLength="14" x="853.5" y="1679.1416">39</text><text fill="#000000" font-family="sans-serif" font-size="13" lengthAdjust="spacing" textLength="57" x="871.5" y="1679.1416">newPostIt</text><polygon fill="#181818" points="295.5,1711.6953,285.5,1715.6953,295.5,1719.6953,291.5,1715.6953" style="stroke:#181818;stroke-width:1.0;"/><line style="stroke:#181818;stroke-width:1.0;stroke-dasharray:2.0,2.0;" x1="289.5" x2="830.5" y1="1715.6953" y2="1715.6953"/><text fill="#000000" font-family="sans-serif" font-size="13" font-weight="bold" lengthAdjust="spacing" textLength="14" x="301.5" y="1710.4326">40</text><text fill="#000000" font-family="sans-serif" font-size="13" lengthAdjust="spacing" textLength="57" x="319.5" y="1710.4326">newPostIt</text><polygon fill="#181818" points="33.5,1742.9863,23.5,1746.9863,33.5,1750.9863,29.5,1746.9863" style="stroke:#181818;stroke-width:1.0;"/><line style="stroke:#181818;stroke-width:1.0;stroke-dasharray:2.0,2.0;" x1="27.5" x2="278.5" y1="1746.9863" y2="1746.9863"/><text fill="#000000" font-family="sans-serif" font-size="13" font-weight="bold" lengthAdjust="spacing" textLength="14" x="39.5" y="1741.7236">41</text><text fill="#000000" font-family="sans-serif" font-size="13" lengthAdjust="spacing" textLength="210" x="57.5" y="1741.7236">sends response and updates screen</text><!--SRC=[dLTBRziu4BxhL_2sSc4xTyCRe7aKQpH1WZRPqrveYRPOowHAKdQrltvdI4eY9TaDDfSem_c-6SwJ-QCmfjAhcvkgfCBKntAPoUEDPZzh9ZAso3dTAtfC4beRAUhZbYdupenKv5qpHQWcjKPPHPNX6Q-0XFm5bD-PEZ7r-GVzXJfeXApNzfUs9xUtCUPTvF9LQhCnzr8O9SlIiMT6bO2aLLNoZ1eknH3fK6YFPmmXsd-kr_vhYFZEj0QYPohetbdHJd85qeYiK5BmVpq0_ewrSshebcf6xYHL-JTMISqXJ0rgRriHG5Ht4g7SBM9OrSb6k740UW0ev_98-QL86MfSdEp7TUKlDjVMcvt_NA_z5o8Ip3vPB6vTYbVa35XDZ2Gr99HGwzA2coInvwXe4QZ8GN47XMGArgeHBdPoJAgPo84K4b3l2oTKMA7QG6ZpXlmZa4F9yvnaigoFOkv2JgZ8mPS34xPe-GalZF3MdLjNNokIAGPdwIpGmvCaiUUWrnPLg2eag2c-Bqnxd13uoLa5_aBxD72T7op3eeNhQaAtsYZWPxdLQ- -kwS41vOxuVeFhqPnkUSbDam0PGLD9pWREjPTeotT5zini12GMUZUwZDT8abOrYcxO3WWB37N0ILiu0-wQDunmQkFyKPimJeftEpYkse8k-_HfVAr8mHuBfe3XIMQ7hwn9VN7SGMr43e4sU8EOm9NIWM9FhER8YdbHzpRxQEXbYxbDFVnZTXncmbHGIhO-RM5uQZIi2HIBgpoe8v4GQPb0ZHfovcL9W12xb99ZRTYlX9mB9aXMKB7dOXyq8abntkG4yZ5e6jijjcys-Qolkc6hrDsa3kEy1A9qDYUXoD4EfTu2Yjig-4ZRXMR3Hd-IOh-4mQKPVgMj_uwS2ODRW-LnNRfUJLfoiDDFw1MquIP7e6awjW3TQIP93rf4hbfvbEG051WDPah1iiDcjz7VvFaHrb_pnat9t4KjTlOxuBqDHu2D1k4bk5iOTyqhhXPelNGyG-V4g9h51C5YiXpyEiMiZrwFX6tJiyJnAwasBjLH44Fio1c0uQDXIxE3hv8mQPLdyxgnkKgn4vUrlcZoMko_I8KL_7A62QGBNgLjJNVXws-37fMcisSNyH8wWvOw3NRpMrEnvSFZq-FRuyFCBeRGl5tQAoBOsItoFya5QC9ApVu7_FtruRE5mm00TwFB-yrlPtAmCZzwgUUNlwUkr4LKqnDxZRBnB4yiJ_iGpWVPcliK-NSAE3CWRryjhR_tE15Pm0XJIXXeTvn7WHIg6Bu6GbVLOxd4x0zaDliecmp2d8YwBBsxNRbvPvsqzJmkrYC6fArKzzgOXbzgLunn6h0CVGYx30y-qALGHDVS2XYlrDGmGt6UmomDJlfCZI11jWPdNSO6yYvhROCC-tSKw-aq0NnYd7IWgydfiEC9zfl1EMrrScxs-tmQr2r9judxPyoqUlWUxT_uxjskcAwaWFzny7rHLxbzmsX8DZxB0mxtCFyF]--></g></svg>