<?xml version="1.0" encoding="us-ascii" standalone="no"?><svg xmlns="http://www.w3.org/2000/svg" xmlns:xlink="http://www.w3.org/1999/xlink" contentStyleType="text/css" height="927px" preserveAspectRatio="none" style="width:1660px;height:927px;background:#FFFFFF;" version="1.1" viewBox="0 0 1660 927" width="1660px" zoomAndPan="magnify"><defs/><g><rect fill="#FFFFFF" height="688.4023" style="stroke:#181818;stroke-width:1.0;" width="10" x="326.5" y="121.5332"/><rect fill="#FFFFFF" height="594.5293" style="stroke:#181818;stroke-width:1.0;" width="10" x="496.5" y="184.1152"/><rect fill="#FFFFFF" height="62.582" style="stroke:#181818;stroke-width:1.0;" width="10" x="877.5" y="277.9883"/><rect fill="#FFFFFF" height="31.291" style="stroke:#181818;stroke-width:1.0;" width="10" x="1009.5" y="371.8613"/><rect fill="#FFFFFF" height="281.6191" style="stroke:#181818;stroke-width:1.0;" width="10" x="1154.5" y="465.7344"/><rect fill="#FFFFFF" height="62.582" style="stroke:#181818;stroke-width:1.0;" width="10" x="1321" y="497.0254"/><rect fill="#FFFFFF" height="62.582" style="stroke:#181818;stroke-width:1.0;" width="10" x="1464" y="590.8984"/><rect fill="#FFFFFF" height="31.291" style="stroke:#181818;stroke-width:1.0;" width="10" x="1596.5" y="684.7715"/><line style="stroke:#181818;stroke-width:0.5;stroke-dasharray:5.0,5.0;" x1="38" x2="38" y1="88.2422" y2="827.9355"/><line style="stroke:#181818;stroke-width:0.5;stroke-dasharray:5.0,5.0;" x1="331" x2="331" y1="88.2422" y2="827.9355"/><line style="stroke:#181818;stroke-width:0.5;stroke-dasharray:5.0,5.0;" x1="501" x2="501" y1="88.2422" y2="827.9355"/><line style="stroke:#181818;stroke-width:0.5;stroke-dasharray:5.0,5.0;" x1="882" x2="882" y1="88.2422" y2="827.9355"/><line style="stroke:#181818;stroke-width:0.5;stroke-dasharray:5.0,5.0;" x1="1014" x2="1014" y1="88.2422" y2="827.9355"/><line style="stroke:#181818;stroke-width:0.5;stroke-dasharray:5.0,5.0;" x1="1159" x2="1159" y1="88.2422" y2="827.9355"/><line style="stroke:#181818;stroke-width:0.5;stroke-dasharray:5.0,5.0;" x1="1326" x2="1326" y1="88.2422" y2="827.9355"/><line style="stroke:#181818;stroke-width:0.5;stroke-dasharray:5.0,5.0;" x1="1469" x2="1469" y1="88.2422" y2="827.9355"/><line style="stroke:#181818;stroke-width:0.5;stroke-dasharray:5.0,5.0;" x1="1601" x2="1601" y1="88.2422" y2="827.9355"/><rect fill="#E2E2F0" height="32.6211" rx="2.5" ry="2.5" style="stroke:#181818;stroke-width:0.5;" width="67" x="5" y="54.6211"/><text fill="#000000" font-family="sans-serif" font-size="14" lengthAdjust="spacing" textLength="53" x="12" y="76.7285">Teacher</text><rect fill="#E2E2F0" height="32.6211" rx="2.5" ry="2.5" style="stroke:#181818;stroke-width:0.5;" width="67" x="5" y="826.9355"/><text fill="#000000" font-family="sans-serif" font-size="14" lengthAdjust="spacing" textLength="53" x="12" y="849.043">Teacher</text><rect fill="#E2E2F0" height="51.2422" rx="2.5" ry="2.5" style="stroke:#181818;stroke-width:0.5;" width="135" x="264" y="36"/><text fill="#000000" font-family="sans-serif" font-size="14" font-style="italic" lengthAdjust="spacing" textLength="95" x="284" y="58.1074">&#171;presentation&#187;</text><text fill="#000000" font-family="sans-serif" font-size="14" lengthAdjust="spacing" textLength="121" x="271" y="76.7285">ListCourseExamsUI</text><rect fill="#E2E2F0" height="51.2422" rx="2.5" ry="2.5" style="stroke:#181818;stroke-width:0.5;" width="135" x="264" y="826.9355"/><text fill="#000000" font-family="sans-serif" font-size="14" font-style="italic" lengthAdjust="spacing" textLength="95" x="284" y="849.043">&#171;presentation&#187;</text><text fill="#000000" font-family="sans-serif" font-size="14" lengthAdjust="spacing" textLength="121" x="271" y="867.6641">ListCourseExamsUI</text><rect fill="#E2E2F0" height="32.6211" rx="2.5" ry="2.5" style="stroke:#181818;stroke-width:0.5;" width="185" x="409" y="54.6211"/><text fill="#000000" font-family="sans-serif" font-size="14" lengthAdjust="spacing" textLength="171" x="416" y="76.7285">ListCourseExamsController</text><rect fill="#E2E2F0" height="32.6211" rx="2.5" ry="2.5" style="stroke:#181818;stroke-width:0.5;" width="185" x="409" y="826.9355"/><text fill="#000000" font-family="sans-serif" font-size="14" lengthAdjust="spacing" textLength="171" x="416" y="849.043">ListCourseExamsController</text><rect fill="#E2E2F0" height="51.2422" rx="2.5" ry="2.5" style="stroke:#181818;stroke-width:0.5;" width="151" x="807" y="36"/><text fill="#000000" font-family="sans-serif" font-size="14" font-style="italic" lengthAdjust="spacing" textLength="60" x="852.5" y="58.1074">&#171;service&#187;</text><text fill="#000000" font-family="sans-serif" font-size="14" lengthAdjust="spacing" textLength="137" x="814" y="76.7285">AuthenticationService</text><rect fill="#E2E2F0" height="51.2422" rx="2.5" ry="2.5" style="stroke:#181818;stroke-width:0.5;" width="151" x="807" y="826.9355"/><text fill="#000000" font-family="sans-serif" font-size="14" font-style="italic" lengthAdjust="spacing" textLength="60" x="852.5" y="849.043">&#171;service&#187;</text><text fill="#000000" font-family="sans-serif" font-size="14" lengthAdjust="spacing" textLength="137" x="814" y="867.6641">AuthenticationService</text><rect fill="#E2E2F0" height="51.2422" rx="2.5" ry="2.5" style="stroke:#181818;stroke-width:0.5;" width="93" x="968" y="36"/><text fill="#000000" font-family="sans-serif" font-size="14" font-style="italic" lengthAdjust="spacing" textLength="64" x="982.5" y="58.1074">&#171;session&#187;</text><text fill="#000000" font-family="sans-serif" font-size="14" lengthAdjust="spacing" textLength="79" x="975" y="76.7285">UserSession</text><rect fill="#E2E2F0" height="51.2422" rx="2.5" ry="2.5" style="stroke:#181818;stroke-width:0.5;" width="93" x="968" y="826.9355"/><text fill="#000000" font-family="sans-serif" font-size="14" font-style="italic" lengthAdjust="spacing" textLength="64" x="982.5" y="849.043">&#171;session&#187;</text><text fill="#000000" font-family="sans-serif" font-size="14" lengthAdjust="spacing" textLength="79" x="975" y="867.6641">UserSession</text><rect fill="#E2E2F0" height="51.2422" rx="2.5" ry="2.5" style="stroke:#181818;stroke-width:0.5;" width="177" x="1071" y="36"/><text fill="#000000" font-family="sans-serif" font-size="14" font-style="italic" lengthAdjust="spacing" textLength="60" x="1129.5" y="58.1074">&#171;service&#187;</text><text fill="#000000" font-family="sans-serif" font-size="14" lengthAdjust="spacing" textLength="163" x="1078" y="76.7285">ExamManagementService</text><rect fill="#E2E2F0" height="51.2422" rx="2.5" ry="2.5" style="stroke:#181818;stroke-width:0.5;" width="177" x="1071" y="826.9355"/><text fill="#000000" font-family="sans-serif" font-size="14" font-style="italic" lengthAdjust="spacing" textLength="60" x="1129.5" y="849.043">&#171;service&#187;</text><text fill="#000000" font-family="sans-serif" font-size="14" lengthAdjust="spacing" textLength="163" x="1078" y="867.6641">ExamManagementService</text><rect fill="#E2E2F0" height="51.2422" rx="2.5" ry="2.5" style="stroke:#181818;stroke-width:0.5;" width="136" x="1258" y="36"/><text fill="#000000" font-family="sans-serif" font-size="14" font-style="italic" lengthAdjust="spacing" textLength="89" x="1281.5" y="58.1074">&#171;persistence&#187;</text><text fill="#000000" font-family="sans-serif" font-size="14" lengthAdjust="spacing" textLength="122" x="1265" y="76.7285">PersistenceContext</text><rect fill="#E2E2F0" height="51.2422" rx="2.5" ry="2.5" style="stroke:#181818;stroke-width:0.5;" width="136" x="1258" y="826.9355"/><text fill="#000000" font-family="sans-serif" font-size="14" font-style="italic" lengthAdjust="spacing" textLength="89" x="1281.5" y="849.043">&#171;persistence&#187;</text><text fill="#000000" font-family="sans-serif" font-size="14" lengthAdjust="spacing" textLength="122" x="1265" y="867.6641">PersistenceContext</text><rect fill="#E2E2F0" height="51.2422" rx="2.5" ry="2.5" style="stroke:#181818;stroke-width:0.5;" width="130" x="1404" y="36"/><text fill="#000000" font-family="sans-serif" font-size="14" font-style="italic" lengthAdjust="spacing" textLength="59" x="1439.5" y="58.1074">&#171;factory&#187;</text><text fill="#000000" font-family="sans-serif" font-size="14" lengthAdjust="spacing" textLength="116" x="1411" y="76.7285">RepositoryFactory</text><rect fill="#E2E2F0" height="51.2422" rx="2.5" ry="2.5" style="stroke:#181818;stroke-width:0.5;" width="130" x="1404" y="826.9355"/><text fill="#000000" font-family="sans-serif" font-size="14" font-style="italic" lengthAdjust="spacing" textLength="59" x="1439.5" y="849.043">&#171;factory&#187;</text><text fill="#000000" font-family="sans-serif" font-size="14" lengthAdjust="spacing" textLength="116" x="1411" y="867.6641">RepositoryFactory</text><text fill="#000000" font-family="sans-serif" font-size="14" font-style="italic" lengthAdjust="spacing" textLength="79" x="1559" y="66.1074">&#171;repository&#187;</text><text fill="#000000" font-family="sans-serif" font-size="14" lengthAdjust="spacing" textLength="109" x="1544" y="84.7285">ExamsRepository</text><path d="M1583.5,15 C1583.5,5 1601.5,5 1601.5,5 C1601.5,5 1619.5,5 1619.5,15 L1619.5,41 C1619.5,51 1601.5,51 1601.5,51 C1601.5,51 1583.5,51 1583.5,41 L1583.5,15 " fill="#E2E2F0" style="stroke:#181818;stroke-width:1.5;"/><path d="M1583.5,15 C1583.5,25 1601.5,25 1601.5,25 C1601.5,25 1619.5,25 1619.5,15 " fill="none" style="stroke:#181818;stroke-width:1.5;"/><text fill="#000000" font-family="sans-serif" font-size="14" font-style="italic" lengthAdjust="spacing" textLength="79" x="1559" y="842.043">&#171;repository&#187;</text><text fill="#000000" font-family="sans-serif" font-size="14" lengthAdjust="spacing" textLength="109" x="1544" y="860.6641">ExamsRepository</text><path d="M1583.5,874.1777 C1583.5,864.1777 1601.5,864.1777 1601.5,864.1777 C1601.5,864.1777 1619.5,864.1777 1619.5,874.1777 L1619.5,900.1777 C1619.5,910.1777 1601.5,910.1777 1601.5,910.1777 C1601.5,910.1777 1583.5,910.1777 1583.5,900.1777 L1583.5,874.1777 " fill="#E2E2F0" style="stroke:#181818;stroke-width:1.5;"/><path d="M1583.5,874.1777 C1583.5,884.1777 1601.5,884.1777 1601.5,884.1777 C1601.5,884.1777 1619.5,884.1777 1619.5,874.1777 " fill="none" style="stroke:#181818;stroke-width:1.5;"/><rect fill="#FFFFFF" height="688.4023" style="stroke:#181818;stroke-width:1.0;" width="10" x="326.5" y="121.5332"/><rect fill="#FFFFFF" height="594.5293" style="stroke:#181818;stroke-width:1.0;" width="10" x="496.5" y="184.1152"/><rect fill="#FFFFFF" height="62.582" style="stroke:#181818;stroke-width:1.0;" width="10" x="877.5" y="277.9883"/><rect fill="#FFFFFF" height="31.291" style="stroke:#181818;stroke-width:1.0;" width="10" x="1009.5" y="371.8613"/><rect fill="#FFFFFF" height="281.6191" style="stroke:#181818;stroke-width:1.0;" width="10" x="1154.5" y="465.7344"/><rect fill="#FFFFFF" height="62.582" style="stroke:#181818;stroke-width:1.0;" width="10" x="1321" y="497.0254"/><rect fill="#FFFFFF" height="62.582" style="stroke:#181818;stroke-width:1.0;" width="10" x="1464" y="590.8984"/><rect fill="#FFFFFF" height="31.291" style="stroke:#181818;stroke-width:1.0;" width="10" x="1596.5" y="684.7715"/><polygon fill="#181818" points="314.5,117.5332,324.5,121.5332,314.5,125.5332,318.5,121.5332" style="stroke:#181818;stroke-width:1.0;"/><line style="stroke:#181818;stroke-width:1.0;stroke-dasharray:2.0,2.0;" x1="38.5" x2="320.5" y1="121.5332" y2="121.5332"/><text fill="#000000" font-family="sans-serif" font-size="13" lengthAdjust="spacing" textLength="96" x="45.5" y="116.2705">list future exams</text><polygon fill="#181818" points="489.5,148.8242,499.5,152.8242,489.5,156.8242,493.5,152.8242" style="stroke:#181818;stroke-width:1.0;"/><line style="stroke:#181818;stroke-width:1.0;" x1="336.5" x2="495.5" y1="152.8242" y2="152.8242"/><text fill="#000000" font-family="sans-serif" font-size="13" lengthAdjust="spacing" textLength="44" x="343.5" y="147.5615">create()</text><polygon fill="#181818" points="484.5,180.1152,494.5,184.1152,484.5,188.1152,488.5,184.1152" style="stroke:#181818;stroke-width:1.0;"/><line style="stroke:#181818;stroke-width:1.0;" x1="336.5" x2="490.5" y1="184.1152" y2="184.1152"/><text fill="#000000" font-family="sans-serif" font-size="13" lengthAdjust="spacing" textLength="107" x="343.5" y="178.8525">listCourseExams()</text><polygon fill="#181818" points="870.5,211.4063,880.5,215.4063,870.5,219.4063,874.5,215.4063" style="stroke:#181818;stroke-width:1.0;"/><line style="stroke:#181818;stroke-width:1.0;" x1="506.5" x2="876.5" y1="215.4063" y2="215.4063"/><text fill="#000000" font-family="sans-serif" font-size="13" lengthAdjust="spacing" textLength="44" x="513.5" y="210.1436">create()</text><polygon fill="#181818" points="870.5,242.6973,880.5,246.6973,870.5,250.6973,874.5,246.6973" style="stroke:#181818;stroke-width:1.0;"/><line style="stroke:#181818;stroke-width:1.0;" x1="506.5" x2="876.5" y1="246.6973" y2="246.6973"/><text fill="#000000" font-family="sans-serif" font-size="13" lengthAdjust="spacing" textLength="352" x="513.5" y="241.4346">ensureAuthenticatedUserHasAnyOf(CourseRoles.TEACHER)</text><polygon fill="#181818" points="1002.5,273.9883,1012.5,277.9883,1002.5,281.9883,1006.5,277.9883" style="stroke:#181818;stroke-width:1.0;"/><line style="stroke:#181818;stroke-width:1.0;" x1="887.5" x2="1008.5" y1="277.9883" y2="277.9883"/><text fill="#000000" font-family="sans-serif" font-size="13" lengthAdjust="spacing" textLength="44" x="894.5" y="272.7256">create()</text><polygon fill="#181818" points="865.5,305.2793,875.5,309.2793,865.5,313.2793,869.5,309.2793" style="stroke:#181818;stroke-width:1.0;"/><line style="stroke:#181818;stroke-width:1.0;" x1="506.5" x2="871.5" y1="309.2793" y2="309.2793"/><text fill="#000000" font-family="sans-serif" font-size="13" lengthAdjust="spacing" textLength="53" x="513.5" y="304.0166">session()</text><polygon fill="#181818" points="517.5,336.5703,507.5,340.5703,517.5,344.5703,513.5,340.5703" style="stroke:#181818;stroke-width:1.0;"/><line style="stroke:#181818;stroke-width:1.0;" x1="511.5" x2="881.5" y1="340.5703" y2="340.5703"/><text fill="#000000" font-family="sans-serif" font-size="13" lengthAdjust="spacing" textLength="45" x="523.5" y="335.3076">session</text><polygon fill="#181818" points="997.5,367.8613,1007.5,371.8613,997.5,375.8613,1001.5,371.8613" style="stroke:#181818;stroke-width:1.0;"/><line style="stroke:#181818;stroke-width:1.0;" x1="506.5" x2="1003.5" y1="371.8613" y2="371.8613"/><text fill="#000000" font-family="sans-serif" font-size="13" lengthAdjust="spacing" textLength="113" x="513.5" y="366.5986">authenticatedUser()</text><polygon fill="#181818" points="517.5,399.1523,507.5,403.1523,517.5,407.1523,513.5,403.1523" style="stroke:#181818;stroke-width:1.0;"/><line style="stroke:#181818;stroke-width:1.0;" x1="511.5" x2="1013.5" y1="403.1523" y2="403.1523"/><text fill="#000000" font-family="sans-serif" font-size="13" lengthAdjust="spacing" textLength="25" x="523.5" y="397.8896">user</text><polygon fill="#181818" points="1147.5,430.4434,1157.5,434.4434,1147.5,438.4434,1151.5,434.4434" style="stroke:#181818;stroke-width:1.0;"/><line style="stroke:#181818;stroke-width:1.0;" x1="506.5" x2="1153.5" y1="434.4434" y2="434.4434"/><text fill="#000000" font-family="sans-serif" font-size="13" lengthAdjust="spacing" textLength="44" x="513.5" y="429.1807">create()</text><polygon fill="#181818" points="1142.5,461.7344,1152.5,465.7344,1142.5,469.7344,1146.5,465.7344" style="stroke:#181818;stroke-width:1.0;"/><line style="stroke:#181818;stroke-width:1.0;" x1="506.5" x2="1148.5" y1="465.7344" y2="465.7344"/><text fill="#000000" font-family="sans-serif" font-size="13" lengthAdjust="spacing" textLength="107" x="513.5" y="460.4717">listCourseExams()</text><polygon fill="#181818" points="1309,493.0254,1319,497.0254,1309,501.0254,1313,497.0254" style="stroke:#181818;stroke-width:1.0;"/><line style="stroke:#181818;stroke-width:1.0;" x1="1164.5" x2="1315" y1="497.0254" y2="497.0254"/><text fill="#000000" font-family="sans-serif" font-size="13" lengthAdjust="spacing" textLength="75" x="1171.5" y="491.7627">repositories()</text><polygon fill="#181818" points="1457,524.3164,1467,528.3164,1457,532.3164,1461,528.3164" style="stroke:#181818;stroke-width:1.0;"/><line style="stroke:#181818;stroke-width:1.0;" x1="1331" x2="1463" y1="528.3164" y2="528.3164"/><text fill="#000000" font-family="sans-serif" font-size="13" lengthAdjust="spacing" textLength="44" x="1338" y="523.0537">create()</text><polygon fill="#181818" points="1175.5,555.6074,1165.5,559.6074,1175.5,563.6074,1171.5,559.6074" style="stroke:#181818;stroke-width:1.0;"/><line style="stroke:#181818;stroke-width:1.0;" x1="1169.5" x2="1325" y1="559.6074" y2="559.6074"/><text fill="#000000" font-family="sans-serif" font-size="13" lengthAdjust="spacing" textLength="39" x="1181.5" y="554.3447">factory</text><polygon fill="#181818" points="1452,586.8984,1462,590.8984,1452,594.8984,1456,590.8984" style="stroke:#181818;stroke-width:1.0;"/><line style="stroke:#181818;stroke-width:1.0;" x1="1164.5" x2="1458" y1="590.8984" y2="590.8984"/><text fill="#000000" font-family="sans-serif" font-size="13" lengthAdjust="spacing" textLength="47" x="1171.5" y="585.6357">exams()</text><polygon fill="#181818" points="1589.5,618.1895,1599.5,622.1895,1589.5,626.1895,1593.5,622.1895" style="stroke:#181818;stroke-width:1.0;"/><line style="stroke:#181818;stroke-width:1.0;" x1="1474" x2="1595.5" y1="622.1895" y2="622.1895"/><text fill="#000000" font-family="sans-serif" font-size="13" lengthAdjust="spacing" textLength="44" x="1481" y="616.9268">create()</text><polygon fill="#181818" points="1175.5,649.4805,1165.5,653.4805,1175.5,657.4805,1171.5,653.4805" style="stroke:#181818;stroke-width:1.0;"/><line style="stroke:#181818;stroke-width:1.0;" x1="1169.5" x2="1468" y1="653.4805" y2="653.4805"/><text fill="#000000" font-family="sans-serif" font-size="13" lengthAdjust="spacing" textLength="94" x="1181.5" y="648.2178">examRepository</text><polygon fill="#181818" points="1584.5,680.7715,1594.5,684.7715,1584.5,688.7715,1588.5,684.7715" style="stroke:#181818;stroke-width:1.0;"/><line style="stroke:#181818;stroke-width:1.0;" x1="1164.5" x2="1590.5" y1="684.7715" y2="684.7715"/><text fill="#000000" font-family="sans-serif" font-size="13" lengthAdjust="spacing" textLength="200" x="1171.5" y="679.5088">listCourseExams = findByCourse()</text><polygon fill="#181818" points="1175.5,712.0625,1165.5,716.0625,1175.5,720.0625,1171.5,716.0625" style="stroke:#181818;stroke-width:1.0;"/><line style="stroke:#181818;stroke-width:1.0;stroke-dasharray:2.0,2.0;" x1="1169.5" x2="1600.5" y1="716.0625" y2="716.0625"/><text fill="#000000" font-family="sans-serif" font-size="13" lengthAdjust="spacing" textLength="99" x="1181.5" y="710.7998">listCourseExams</text><polygon fill="#181818" points="517.5,743.3535,507.5,747.3535,517.5,751.3535,513.5,747.3535" style="stroke:#181818;stroke-width:1.0;"/><line style="stroke:#181818;stroke-width:1.0;stroke-dasharray:2.0,2.0;" x1="511.5" x2="1158.5" y1="747.3535" y2="747.3535"/><text fill="#000000" font-family="sans-serif" font-size="13" lengthAdjust="spacing" textLength="99" x="523.5" y="742.0908">listCourseExams</text><polygon fill="#181818" points="347.5,774.6445,337.5,778.6445,347.5,782.6445,343.5,778.6445" style="stroke:#181818;stroke-width:1.0;"/><line style="stroke:#181818;stroke-width:1.0;stroke-dasharray:2.0,2.0;" x1="341.5" x2="500.5" y1="778.6445" y2="778.6445"/><text fill="#000000" font-family="sans-serif" font-size="13" lengthAdjust="spacing" textLength="99" x="353.5" y="773.3818">listCourseExams</text><polygon fill="#181818" points="49.5,805.9355,39.5,809.9355,49.5,813.9355,45.5,809.9355" style="stroke:#181818;stroke-width:1.0;"/><line style="stroke:#181818;stroke-width:1.0;" x1="43.5" x2="330.5" y1="809.9355" y2="809.9355"/><text fill="#000000" font-family="sans-serif" font-size="13" lengthAdjust="spacing" textLength="264" x="55.5" y="804.6729">show the operation result and print the results</text><!--SRC=[XLH1JiCm4Bpx5JwMGtb05IgLggX8851f7s2IBRMKsf7j0ENrhECuthYqN2B7EpCxzgwt4SR9KZP2ERu5KHx0S67vedJQi8O4dwHrIzqQ2wjlSRIxHm_3Rr4q1Yme9vpKQZw_HbfgvOokwv0Z_OquYzOTK4wMdU0Rc4zPGkUfTJy7p6V3LfPgXzjlO2roEcVarrEwLKRndfw54Xzmn8GaKrnUolKAnkB9G9NW3m7VBfx7B_56KZnZRg3HLkBTdXw4l-AJ9yPbKUp32acLSE9TMEXCsaJpUF9N56RuGHRhwiQdqxalpOpNw8BlMzSQuE256CCCybCuG0133299LMQyD831oGtxArYFo-bHWnof9k6WGYWRKVux3CgYIr9yg7mDry8krEbbFmbvDxe6UxjTBPRhrUQ61R8_BIatFSHWhqDUIDrtnuJeZOxTnra5cLocDpOXygEWVhhy16MKbgTkCKRpKbwMFJRjnPjEW6jrx54iedj7lh5dV6Ws2UVLHmYBK6J5hixyzD5afkzvUigeHaqaEJZptCTOn22Sl15YW02I0Q-NuDH7rAK-HiBPHV8xlfUgkZ-5lP57ae58JA_LXL4lX3-u-UTzZlYnhhGdw9Yun2FlEao4C6BmLHpq5ySMvnh7NJUhiJriM-CiL1LlZCHnvyDXSooAi-SN]--></g></svg>