<?xml version="1.0" encoding="us-ascii" standalone="no"?><svg xmlns="http://www.w3.org/2000/svg" xmlns:xlink="http://www.w3.org/1999/xlink" contentStyleType="text/css" height="902px" preserveAspectRatio="none" style="width:1678px;height:902px;background:#FFFFFF;" version="1.1" viewBox="0 0 1678 902" width="1678px" zoomAndPan="magnify"><defs/><g><!--class ScheduleClassUI--><g id="elem_ScheduleClassUI"><rect codeLine="7" fill="#F1F1F1" height="79.2031" id="ScheduleClassUI" rx="2.5" ry="2.5" style="stroke:#181818;stroke-width:0.5;" width="138" x="685.5" y="7"/><ellipse cx="700.5" cy="29.291" fill="#C2C2C2" rx="11" ry="11" style="stroke:#181818;stroke-width:1.0;"/><path d="M703.2656,25.166 Q703.4219,24.9473 703.6094,24.8379 Q703.7969,24.7285 704.0156,24.7285 Q704.3906,24.7285 704.625,24.9941 Q704.8594,25.2441 704.8594,25.8535 L704.8594,27.3066 Q704.8594,27.916 704.625,28.1816 Q704.3906,28.4473 704.0156,28.4473 Q703.6719,28.4473 703.4688,28.2441 Q703.2656,28.0566 703.1563,27.541 Q703.1094,27.1816 702.9219,26.9941 Q702.5938,26.6191 701.9844,26.4004 Q701.375,26.1816 700.75,26.1816 Q699.9844,26.1816 699.3438,26.5098 Q698.7188,26.8379 698.2188,27.5879 Q697.7344,28.3379 697.7344,29.3691 L697.7344,30.4629 Q697.7344,31.6973 698.625,32.5254 Q699.5156,33.3379 701.1094,33.3379 Q702.0469,33.3379 702.7031,33.0879 Q703.0938,32.9316 703.5156,32.4941 Q703.7813,32.2285 703.9219,32.1504 Q704.0781,32.0723 704.2813,32.0723 Q704.6094,32.0723 704.8594,32.3379 Q705.125,32.5879 705.125,32.9316 Q705.125,33.2754 704.7813,33.6816 Q704.2813,34.2598 703.4844,34.5879 Q702.4063,35.041 701.1094,35.041 Q699.5938,35.041 698.3906,34.416 Q697.4063,33.916 696.7188,32.8535 Q696.0313,31.7754 696.0313,30.4941 L696.0313,29.3379 Q696.0313,28.0098 696.6406,26.8691 Q697.2656,25.7129 698.3594,25.1035 Q699.4531,24.4785 700.6875,24.4785 Q701.4219,24.4785 702.0625,24.6504 Q702.7188,24.8066 703.2656,25.166 Z " fill="#000000"/><text fill="#000000" font-family="FG Virgil" font-size="12" font-style="italic" lengthAdjust="spacing" textLength="82" x="726.5" y="24.9492">&#171;presentation&#187;</text><text fill="#000000" font-family="FG Virgil" font-size="14" lengthAdjust="spacing" textLength="106" x="714.5" y="43.0684">ScheduleClassUI</text><line style="stroke:#181818;stroke-width:0.5;" x1="686.5" x2="822.5" y1="51.582" y2="51.582"/><line style="stroke:#181818;stroke-width:0.5;" x1="686.5" x2="822.5" y1="59.582" y2="59.582"/><text fill="#000000" font-family="FG Virgil" font-size="14" lengthAdjust="spacing" textLength="60" x="691.5" y="78.6895">doShow()</text></g><!--class ScheduleClassController--><g id="elem_ScheduleClassController"><rect codeLine="10" fill="#F1F1F1" height="79.2031" id="ScheduleClassController" rx="2.5" ry="2.5" style="stroke:#181818;stroke-width:0.5;" width="331" x="589" y="165"/><ellipse cx="672.25" cy="187.291" fill="#C2C2C2" rx="11" ry="11" style="stroke:#181818;stroke-width:1.0;"/><path d="M675.0156,183.166 Q675.1719,182.9473 675.3594,182.8379 Q675.5469,182.7285 675.7656,182.7285 Q676.1406,182.7285 676.375,182.9941 Q676.6094,183.2441 676.6094,183.8535 L676.6094,185.3066 Q676.6094,185.916 676.375,186.1816 Q676.1406,186.4473 675.7656,186.4473 Q675.4219,186.4473 675.2188,186.2441 Q675.0156,186.0566 674.9063,185.541 Q674.8594,185.1816 674.6719,184.9941 Q674.3438,184.6191 673.7344,184.4004 Q673.125,184.1816 672.5,184.1816 Q671.7344,184.1816 671.0938,184.5098 Q670.4688,184.8379 669.9688,185.5879 Q669.4844,186.3379 669.4844,187.3691 L669.4844,188.4629 Q669.4844,189.6973 670.375,190.5254 Q671.2656,191.3379 672.8594,191.3379 Q673.7969,191.3379 674.4531,191.0879 Q674.8438,190.9316 675.2656,190.4941 Q675.5313,190.2285 675.6719,190.1504 Q675.8281,190.0723 676.0313,190.0723 Q676.3594,190.0723 676.6094,190.3379 Q676.875,190.5879 676.875,190.9316 Q676.875,191.2754 676.5313,191.6816 Q676.0313,192.2598 675.2344,192.5879 Q674.1563,193.041 672.8594,193.041 Q671.3438,193.041 670.1406,192.416 Q669.1563,191.916 668.4688,190.8535 Q667.7813,189.7754 667.7813,188.4941 L667.7813,187.3379 Q667.7813,186.0098 668.3906,184.8691 Q669.0156,183.7129 670.1094,183.1035 Q671.2031,182.4785 672.4375,182.4785 Q673.1719,182.4785 673.8125,182.6504 Q674.4688,182.8066 675.0156,183.166 Z " fill="#000000"/><text fill="#000000" font-family="FG Virgil" font-size="12" font-style="italic" lengthAdjust="spacing" textLength="74" x="733.75" y="182.9492">&#171;application&#187;</text><text fill="#000000" font-family="FG Virgil" font-size="14" lengthAdjust="spacing" textLength="156" x="692.75" y="201.0684">ScheduleClassController</text><line style="stroke:#181818;stroke-width:0.5;" x1="590" x2="919" y1="209.582" y2="209.582"/><line style="stroke:#181818;stroke-width:0.5;" x1="590" x2="919" y1="217.582" y2="217.582"/><text fill="#000000" font-family="FG Virgil" font-size="14" lengthAdjust="spacing" textLength="319" x="595" y="236.6895">scheduleClass(String, String, String, String, String)</text></g><!--class AuthorizationService--><g id="elem_AuthorizationService"><rect codeLine="14" fill="#F1F1F1" height="97.8242" id="AuthorizationService" rx="2.5" ry="2.5" style="stroke:#181818;stroke-width:0.5;" width="286" x="877.5" y="323"/><ellipse cx="951.75" cy="345.291" fill="#C2C2C2" rx="11" ry="11" style="stroke:#181818;stroke-width:1.0;"/><path d="M954.5156,341.166 Q954.6719,340.9473 954.8594,340.8379 Q955.0469,340.7285 955.2656,340.7285 Q955.6406,340.7285 955.875,340.9941 Q956.1094,341.2441 956.1094,341.8535 L956.1094,343.3066 Q956.1094,343.916 955.875,344.1816 Q955.6406,344.4473 955.2656,344.4473 Q954.9219,344.4473 954.7188,344.2441 Q954.5156,344.0566 954.4063,343.541 Q954.3594,343.1816 954.1719,342.9941 Q953.8438,342.6191 953.2344,342.4004 Q952.625,342.1816 952,342.1816 Q951.2344,342.1816 950.5938,342.5098 Q949.9688,342.8379 949.4688,343.5879 Q948.9844,344.3379 948.9844,345.3691 L948.9844,346.4629 Q948.9844,347.6973 949.875,348.5254 Q950.7656,349.3379 952.3594,349.3379 Q953.2969,349.3379 953.9531,349.0879 Q954.3438,348.9316 954.7656,348.4941 Q955.0313,348.2285 955.1719,348.1504 Q955.3281,348.0723 955.5313,348.0723 Q955.8594,348.0723 956.1094,348.3379 Q956.375,348.5879 956.375,348.9316 Q956.375,349.2754 956.0313,349.6816 Q955.5313,350.2598 954.7344,350.5879 Q953.6563,351.041 952.3594,351.041 Q950.8438,351.041 949.6406,350.416 Q948.6563,349.916 947.9688,348.8535 Q947.2813,347.7754 947.2813,346.4941 L947.2813,345.3379 Q947.2813,344.0098 947.8906,342.8691 Q948.5156,341.7129 949.6094,341.1035 Q950.7031,340.4785 951.9375,340.4785 Q952.6719,340.4785 953.3125,340.6504 Q953.9688,340.8066 954.5156,341.166 Z " fill="#000000"/><text fill="#000000" font-family="FG Virgil" font-size="12" font-style="italic" lengthAdjust="spacing" textLength="53" x="1010.25" y="340.9492">&#171;service&#187;</text><text fill="#000000" font-family="FG Virgil" font-size="14" lengthAdjust="spacing" textLength="129" x="972.25" y="359.0684">AuthorizationService</text><line style="stroke:#181818;stroke-width:0.5;" x1="878.5" x2="1162.5" y1="367.582" y2="367.582"/><line style="stroke:#181818;stroke-width:0.5;" x1="878.5" x2="1162.5" y1="375.582" y2="375.582"/><text fill="#000000" font-family="FG Virgil" font-size="14" lengthAdjust="spacing" textLength="274" x="883.5" y="394.6895">ensureAuthenticatedUserHasAnyOf(Role...)</text><text fill="#000000" font-family="FG Virgil" font-size="14" lengthAdjust="spacing" textLength="58" x="883.5" y="413.3105">session()</text></g><!--class UserSession--><g id="elem_UserSession"><rect codeLine="19" fill="#F1F1F1" height="66.6211" id="UserSession" rx="2.5" ry="2.5" style="stroke:#181818;stroke-width:0.5;" width="137" x="952" y="506"/><ellipse cx="978.7" cy="522" fill="#C2C2C2" rx="11" ry="11" style="stroke:#181818;stroke-width:1.0;"/><path d="M981.4656,517.875 Q981.6219,517.6563 981.8094,517.5469 Q981.9969,517.4375 982.2156,517.4375 Q982.5906,517.4375 982.825,517.7031 Q983.0594,517.9531 983.0594,518.5625 L983.0594,520.0156 Q983.0594,520.625 982.825,520.8906 Q982.5906,521.1563 982.2156,521.1563 Q981.8719,521.1563 981.6688,520.9531 Q981.4656,520.7656 981.3563,520.25 Q981.3094,519.8906 981.1219,519.7031 Q980.7938,519.3281 980.1844,519.1094 Q979.575,518.8906 978.95,518.8906 Q978.1844,518.8906 977.5438,519.2188 Q976.9188,519.5469 976.4188,520.2969 Q975.9344,521.0469 975.9344,522.0781 L975.9344,523.1719 Q975.9344,524.4063 976.825,525.2344 Q977.7156,526.0469 979.3094,526.0469 Q980.2469,526.0469 980.9031,525.7969 Q981.2938,525.6406 981.7156,525.2031 Q981.9813,524.9375 982.1219,524.8594 Q982.2781,524.7813 982.4813,524.7813 Q982.8094,524.7813 983.0594,525.0469 Q983.325,525.2969 983.325,525.6406 Q983.325,525.9844 982.9813,526.3906 Q982.4813,526.9688 981.6844,527.2969 Q980.6063,527.75 979.3094,527.75 Q977.7938,527.75 976.5906,527.125 Q975.6063,526.625 974.9188,525.5625 Q974.2313,524.4844 974.2313,523.2031 L974.2313,522.0469 Q974.2313,520.7188 974.8406,519.5781 Q975.4656,518.4219 976.5594,517.8125 Q977.6531,517.1875 978.8875,517.1875 Q979.6219,517.1875 980.2625,517.3594 Q980.9188,517.5156 981.4656,517.875 Z " fill="#000000"/><text fill="#000000" font-family="FG Virgil" font-size="14" lengthAdjust="spacing" textLength="79" x="995.3" y="527.7969">UserSession</text><line style="stroke:#181818;stroke-width:0.5;" x1="953" x2="1088" y1="538" y2="538"/><line style="stroke:#181818;stroke-width:0.5;" x1="953" x2="1088" y1="546" y2="546"/><text fill="#000000" font-family="FG Virgil" font-size="14" lengthAdjust="spacing" textLength="125" x="958" y="565.1074">authenticatedUser()</text></g><!--class CourseManagementService--><g id="elem_CourseManagementService"><rect codeLine="23" fill="#F1F1F1" height="79.2031" id="CourseManagementService" rx="2.5" ry="2.5" style="stroke:#181818;stroke-width:0.5;" width="357" x="7" y="332.5"/><ellipse cx="93.75" cy="354.791" fill="#C2C2C2" rx="11" ry="11" style="stroke:#181818;stroke-width:1.0;"/><path d="M96.5156,350.666 Q96.6719,350.4473 96.8594,350.3379 Q97.0469,350.2285 97.2656,350.2285 Q97.6406,350.2285 97.875,350.4941 Q98.1094,350.7441 98.1094,351.3535 L98.1094,352.8066 Q98.1094,353.416 97.875,353.6816 Q97.6406,353.9473 97.2656,353.9473 Q96.9219,353.9473 96.7188,353.7441 Q96.5156,353.5566 96.4063,353.041 Q96.3594,352.6816 96.1719,352.4941 Q95.8438,352.1191 95.2344,351.9004 Q94.625,351.6816 94,351.6816 Q93.2344,351.6816 92.5938,352.0098 Q91.9688,352.3379 91.4688,353.0879 Q90.9844,353.8379 90.9844,354.8691 L90.9844,355.9629 Q90.9844,357.1973 91.875,358.0254 Q92.7656,358.8379 94.3594,358.8379 Q95.2969,358.8379 95.9531,358.5879 Q96.3438,358.4316 96.7656,357.9941 Q97.0313,357.7285 97.1719,357.6504 Q97.3281,357.5723 97.5313,357.5723 Q97.8594,357.5723 98.1094,357.8379 Q98.375,358.0879 98.375,358.4316 Q98.375,358.7754 98.0313,359.1816 Q97.5313,359.7598 96.7344,360.0879 Q95.6563,360.541 94.3594,360.541 Q92.8438,360.541 91.6406,359.916 Q90.6563,359.416 89.9688,358.3535 Q89.2813,357.2754 89.2813,355.9941 L89.2813,354.8379 Q89.2813,353.5098 89.8906,352.3691 Q90.5156,351.2129 91.6094,350.6035 Q92.7031,349.9785 93.9375,349.9785 Q94.6719,349.9785 95.3125,350.1504 Q95.9688,350.3066 96.5156,350.666 Z " fill="#000000"/><text fill="#000000" font-family="FG Virgil" font-size="12" font-style="italic" lengthAdjust="spacing" textLength="53" x="175.25" y="350.4492">&#171;service&#187;</text><text fill="#000000" font-family="FG Virgil" font-size="14" lengthAdjust="spacing" textLength="175" x="114.25" y="368.5684">CourseManagementService</text><line style="stroke:#181818;stroke-width:0.5;" x1="8" x2="363" y1="377.082" y2="377.082"/><line style="stroke:#181818;stroke-width:0.5;" x1="8" x2="363" y1="385.082" y2="385.082"/><text fill="#000000" font-family="FG Virgil" font-size="14" lengthAdjust="spacing" textLength="345" x="13" y="404.1895">scheduleNewClass(String, String, String, String, String)</text></g><!--class class:Course--><g id="elem_class:Course"><rect codeLine="27" fill="#F1F1F1" height="79.2031" id="class:Course" rx="2.5" ry="2.5" style="stroke:#181818;stroke-width:0.5;" width="116" x="1188.5" y="165"/><ellipse cx="1204.4" cy="187.291" fill="#C2C2C2" rx="11" ry="11" style="stroke:#181818;stroke-width:1.0;"/><path d="M1207.1656,183.166 Q1207.3219,182.9473 1207.5094,182.8379 Q1207.6969,182.7285 1207.9156,182.7285 Q1208.2906,182.7285 1208.525,182.9941 Q1208.7594,183.2441 1208.7594,183.8535 L1208.7594,185.3066 Q1208.7594,185.916 1208.525,186.1816 Q1208.2906,186.4473 1207.9156,186.4473 Q1207.5719,186.4473 1207.3688,186.2441 Q1207.1656,186.0566 1207.0563,185.541 Q1207.0094,185.1816 1206.8219,184.9941 Q1206.4938,184.6191 1205.8844,184.4004 Q1205.275,184.1816 1204.65,184.1816 Q1203.8844,184.1816 1203.2438,184.5098 Q1202.6188,184.8379 1202.1188,185.5879 Q1201.6344,186.3379 1201.6344,187.3691 L1201.6344,188.4629 Q1201.6344,189.6973 1202.525,190.5254 Q1203.4156,191.3379 1205.0094,191.3379 Q1205.9469,191.3379 1206.6031,191.0879 Q1206.9938,190.9316 1207.4156,190.4941 Q1207.6813,190.2285 1207.8219,190.1504 Q1207.9781,190.0723 1208.1813,190.0723 Q1208.5094,190.0723 1208.7594,190.3379 Q1209.025,190.5879 1209.025,190.9316 Q1209.025,191.2754 1208.6813,191.6816 Q1208.1813,192.2598 1207.3844,192.5879 Q1206.3063,193.041 1205.0094,193.041 Q1203.4938,193.041 1202.2906,192.416 Q1201.3063,191.916 1200.6188,190.8535 Q1199.9313,189.7754 1199.9313,188.4941 L1199.9313,187.3379 Q1199.9313,186.0098 1200.5406,184.8691 Q1201.1656,183.7129 1202.2594,183.1035 Q1203.3531,182.4785 1204.5875,182.4785 Q1205.3219,182.4785 1205.9625,182.6504 Q1206.6188,182.8066 1207.1656,183.166 Z " fill="#000000"/><text fill="#000000" font-family="FG Virgil" font-size="12" font-style="italic" lengthAdjust="spacing" textLength="56" x="1231.6" y="182.9492">&#171;domain&#187;</text><text fill="#000000" font-family="FG Virgil" font-size="14" lengthAdjust="spacing" textLength="82" x="1218.6" y="201.0684">class:Course</text><line style="stroke:#181818;stroke-width:0.5;" x1="1189.5" x2="1303.5" y1="209.582" y2="209.582"/><line style="stroke:#181818;stroke-width:0.5;" x1="1189.5" x2="1303.5" y1="217.582" y2="217.582"/><text fill="#000000" font-family="FG Virgil" font-size="14" lengthAdjust="spacing" textLength="104" x="1194.5" y="236.6895">addClass(Class)</text></g><!--class ClassFactory--><g id="elem_ClassFactory"><rect codeLine="31" fill="#F1F1F1" height="79.2031" id="ClassFactory" rx="2.5" ry="2.5" style="stroke:#181818;stroke-width:0.5;" width="380" x="462.5" y="332.5"/><ellipse cx="606.75" cy="354.791" fill="#C2C2C2" rx="11" ry="11" style="stroke:#181818;stroke-width:1.0;"/><path d="M609.5156,350.666 Q609.6719,350.4473 609.8594,350.3379 Q610.0469,350.2285 610.2656,350.2285 Q610.6406,350.2285 610.875,350.4941 Q611.1094,350.7441 611.1094,351.3535 L611.1094,352.8066 Q611.1094,353.416 610.875,353.6816 Q610.6406,353.9473 610.2656,353.9473 Q609.9219,353.9473 609.7188,353.7441 Q609.5156,353.5566 609.4063,353.041 Q609.3594,352.6816 609.1719,352.4941 Q608.8438,352.1191 608.2344,351.9004 Q607.625,351.6816 607,351.6816 Q606.2344,351.6816 605.5938,352.0098 Q604.9688,352.3379 604.4688,353.0879 Q603.9844,353.8379 603.9844,354.8691 L603.9844,355.9629 Q603.9844,357.1973 604.875,358.0254 Q605.7656,358.8379 607.3594,358.8379 Q608.2969,358.8379 608.9531,358.5879 Q609.3438,358.4316 609.7656,357.9941 Q610.0313,357.7285 610.1719,357.6504 Q610.3281,357.5723 610.5313,357.5723 Q610.8594,357.5723 611.1094,357.8379 Q611.375,358.0879 611.375,358.4316 Q611.375,358.7754 611.0313,359.1816 Q610.5313,359.7598 609.7344,360.0879 Q608.6563,360.541 607.3594,360.541 Q605.8438,360.541 604.6406,359.916 Q603.6563,359.416 602.9688,358.3535 Q602.2813,357.2754 602.2813,355.9941 L602.2813,354.8379 Q602.2813,353.5098 602.8906,352.3691 Q603.5156,351.2129 604.6094,350.6035 Q605.7031,349.9785 606.9375,349.9785 Q607.6719,349.9785 608.3125,350.1504 Q608.9688,350.3066 609.5156,350.666 Z " fill="#000000"/><text fill="#000000" font-family="FG Virgil" font-size="12" font-style="italic" lengthAdjust="spacing" textLength="50" x="643.75" y="350.4492">&#171;factory&#187;</text><text fill="#000000" font-family="FG Virgil" font-size="14" lengthAdjust="spacing" textLength="83" x="627.25" y="368.5684">ClassFactory</text><line style="stroke:#181818;stroke-width:0.5;" x1="463.5" x2="841.5" y1="377.082" y2="377.082"/><line style="stroke:#181818;stroke-width:0.5;" x1="463.5" x2="841.5" y1="385.082" y2="385.082"/><text fill="#000000" font-family="FG Virgil" font-size="14" lengthAdjust="spacing" textLength="368" x="468.5" y="404.1895">createClass(String, String, String, String, User, Set&lt;User&gt;)</text></g><!--class class:Class--><g id="elem_class:Class"><rect codeLine="35" fill="#F1F1F1" height="79.2031" id="class:Class" rx="2.5" ry="2.5" style="stroke:#181818;stroke-width:0.5;" width="402" x="1269.5" y="332.5"/><ellipse cx="1430.75" cy="354.791" fill="#C2C2C2" rx="11" ry="11" style="stroke:#181818;stroke-width:1.0;"/><path d="M1433.5156,350.666 Q1433.6719,350.4473 1433.8594,350.3379 Q1434.0469,350.2285 1434.2656,350.2285 Q1434.6406,350.2285 1434.875,350.4941 Q1435.1094,350.7441 1435.1094,351.3535 L1435.1094,352.8066 Q1435.1094,353.416 1434.875,353.6816 Q1434.6406,353.9473 1434.2656,353.9473 Q1433.9219,353.9473 1433.7188,353.7441 Q1433.5156,353.5566 1433.4063,353.041 Q1433.3594,352.6816 1433.1719,352.4941 Q1432.8438,352.1191 1432.2344,351.9004 Q1431.625,351.6816 1431,351.6816 Q1430.2344,351.6816 1429.5938,352.0098 Q1428.9688,352.3379 1428.4688,353.0879 Q1427.9844,353.8379 1427.9844,354.8691 L1427.9844,355.9629 Q1427.9844,357.1973 1428.875,358.0254 Q1429.7656,358.8379 1431.3594,358.8379 Q1432.2969,358.8379 1432.9531,358.5879 Q1433.3438,358.4316 1433.7656,357.9941 Q1434.0313,357.7285 1434.1719,357.6504 Q1434.3281,357.5723 1434.5313,357.5723 Q1434.8594,357.5723 1435.1094,357.8379 Q1435.375,358.0879 1435.375,358.4316 Q1435.375,358.7754 1435.0313,359.1816 Q1434.5313,359.7598 1433.7344,360.0879 Q1432.6563,360.541 1431.3594,360.541 Q1429.8438,360.541 1428.6406,359.916 Q1427.6563,359.416 1426.9688,358.3535 Q1426.2813,357.2754 1426.2813,355.9941 L1426.2813,354.8379 Q1426.2813,353.5098 1426.8906,352.3691 Q1427.5156,351.2129 1428.6094,350.6035 Q1429.7031,349.9785 1430.9375,349.9785 Q1431.6719,349.9785 1432.3125,350.1504 Q1432.9688,350.3066 1433.5156,350.666 Z " fill="#000000"/><text fill="#000000" font-family="FG Virgil" font-size="12" font-style="italic" lengthAdjust="spacing" textLength="56" x="1458.75" y="350.4492">&#171;domain&#187;</text><text fill="#000000" font-family="FG Virgil" font-size="14" lengthAdjust="spacing" textLength="71" x="1451.25" y="368.5684">class:Class</text><line style="stroke:#181818;stroke-width:0.5;" x1="1270.5" x2="1670.5" y1="377.082" y2="377.082"/><line style="stroke:#181818;stroke-width:0.5;" x1="1270.5" x2="1670.5" y1="385.082" y2="385.082"/><text fill="#000000" font-family="FG Virgil" font-size="14" lengthAdjust="spacing" textLength="390" x="1275.5" y="404.1895">Class(Title, DayOfWeek, Time, Teacher, Set&lt;User&gt; Students)</text></g><!--class PersistenceContext--><g id="elem_PersistenceContext"><rect codeLine="39" fill="#F1F1F1" height="79.2031" id="PersistenceContext" rx="2.5" ry="2.5" style="stroke:#181818;stroke-width:0.5;" width="154" x="108.5" y="500"/><ellipse cx="123.5" cy="522.291" fill="#C2C2C2" rx="11" ry="11" style="stroke:#181818;stroke-width:1.0;"/><path d="M126.2656,518.166 Q126.4219,517.9473 126.6094,517.8379 Q126.7969,517.7285 127.0156,517.7285 Q127.3906,517.7285 127.625,517.9941 Q127.8594,518.2441 127.8594,518.8535 L127.8594,520.3066 Q127.8594,520.916 127.625,521.1816 Q127.3906,521.4473 127.0156,521.4473 Q126.6719,521.4473 126.4688,521.2441 Q126.2656,521.0566 126.1563,520.541 Q126.1094,520.1816 125.9219,519.9941 Q125.5938,519.6191 124.9844,519.4004 Q124.375,519.1816 123.75,519.1816 Q122.9844,519.1816 122.3438,519.5098 Q121.7188,519.8379 121.2188,520.5879 Q120.7344,521.3379 120.7344,522.3691 L120.7344,523.4629 Q120.7344,524.6973 121.625,525.5254 Q122.5156,526.3379 124.1094,526.3379 Q125.0469,526.3379 125.7031,526.0879 Q126.0938,525.9316 126.5156,525.4941 Q126.7813,525.2285 126.9219,525.1504 Q127.0781,525.0723 127.2813,525.0723 Q127.6094,525.0723 127.8594,525.3379 Q128.125,525.5879 128.125,525.9316 Q128.125,526.2754 127.7813,526.6816 Q127.2813,527.2598 126.4844,527.5879 Q125.4063,528.041 124.1094,528.041 Q122.5938,528.041 121.3906,527.416 Q120.4063,526.916 119.7188,525.8535 Q119.0313,524.7754 119.0313,523.4941 L119.0313,522.3379 Q119.0313,521.0098 119.6406,519.8691 Q120.2656,518.7129 121.3594,518.1035 Q122.4531,517.4785 123.6875,517.4785 Q124.4219,517.4785 125.0625,517.6504 Q125.7188,517.8066 126.2656,518.166 Z " fill="#000000"/><text fill="#000000" font-family="FG Virgil" font-size="12" font-style="italic" lengthAdjust="spacing" textLength="77" x="160" y="517.9492">&#171;persistence&#187;</text><text fill="#000000" font-family="FG Virgil" font-size="14" lengthAdjust="spacing" textLength="122" x="137.5" y="536.0684">PersistenceContext</text><line style="stroke:#181818;stroke-width:0.5;" x1="109.5" x2="261.5" y1="544.582" y2="544.582"/><line style="stroke:#181818;stroke-width:0.5;" x1="109.5" x2="261.5" y1="552.582" y2="552.582"/><text fill="#000000" font-family="FG Virgil" font-size="14" lengthAdjust="spacing" textLength="84" x="114.5" y="571.6895">repositories()</text></g><!--class RepositoryFactory--><g id="elem_RepositoryFactory"><rect codeLine="43" fill="#F1F1F1" height="79.2031" id="RepositoryFactory" rx="2.5" ry="2.5" style="stroke:#181818;stroke-width:0.5;" width="148" x="113.5" y="658"/><ellipse cx="128.5" cy="680.291" fill="#C2C2C2" rx="11" ry="11" style="stroke:#181818;stroke-width:1.0;"/><path d="M131.2656,676.166 Q131.4219,675.9473 131.6094,675.8379 Q131.7969,675.7285 132.0156,675.7285 Q132.3906,675.7285 132.625,675.9941 Q132.8594,676.2441 132.8594,676.8535 L132.8594,678.3066 Q132.8594,678.916 132.625,679.1816 Q132.3906,679.4473 132.0156,679.4473 Q131.6719,679.4473 131.4688,679.2441 Q131.2656,679.0566 131.1563,678.541 Q131.1094,678.1816 130.9219,677.9941 Q130.5938,677.6191 129.9844,677.4004 Q129.375,677.1816 128.75,677.1816 Q127.9844,677.1816 127.3438,677.5098 Q126.7188,677.8379 126.2188,678.5879 Q125.7344,679.3379 125.7344,680.3691 L125.7344,681.4629 Q125.7344,682.6973 126.625,683.5254 Q127.5156,684.3379 129.1094,684.3379 Q130.0469,684.3379 130.7031,684.0879 Q131.0938,683.9316 131.5156,683.4941 Q131.7813,683.2285 131.9219,683.1504 Q132.0781,683.0723 132.2813,683.0723 Q132.6094,683.0723 132.8594,683.3379 Q133.125,683.5879 133.125,683.9316 Q133.125,684.2754 132.7813,684.6816 Q132.2813,685.2598 131.4844,685.5879 Q130.4063,686.041 129.1094,686.041 Q127.5938,686.041 126.3906,685.416 Q125.4063,684.916 124.7188,683.8535 Q124.0313,682.7754 124.0313,681.4941 L124.0313,680.3379 Q124.0313,679.0098 124.6406,677.8691 Q125.2656,676.7129 126.3594,676.1035 Q127.4531,675.4785 128.6875,675.4785 Q129.4219,675.4785 130.0625,675.6504 Q130.7188,675.8066 131.2656,676.166 Z " fill="#000000"/><text fill="#000000" font-family="FG Virgil" font-size="12" font-style="italic" lengthAdjust="spacing" textLength="50" x="175.5" y="675.9492">&#171;factory&#187;</text><text fill="#000000" font-family="FG Virgil" font-size="14" lengthAdjust="spacing" textLength="116" x="142.5" y="694.0684">RepositoryFactory</text><line style="stroke:#181818;stroke-width:0.5;" x1="114.5" x2="260.5" y1="702.582" y2="702.582"/><line style="stroke:#181818;stroke-width:0.5;" x1="114.5" x2="260.5" y1="710.582" y2="710.582"/><text fill="#000000" font-family="FG Virgil" font-size="14" lengthAdjust="spacing" textLength="60" x="119.5" y="729.6895">courses()</text></g><!--class CourseRepository--><g id="elem_CourseRepository"><rect codeLine="47" fill="#F1F1F1" height="79.2031" id="CourseRepository" rx="2.5" ry="2.5" style="stroke:#181818;stroke-width:0.5;" width="146" x="242.5" y="816"/><ellipse cx="257.5" cy="838.291" fill="#C2C2C2" rx="11" ry="11" style="stroke:#181818;stroke-width:1.0;"/><path d="M260.2656,834.166 Q260.4219,833.9473 260.6094,833.8379 Q260.7969,833.7285 261.0156,833.7285 Q261.3906,833.7285 261.625,833.9941 Q261.8594,834.2441 261.8594,834.8535 L261.8594,836.3066 Q261.8594,836.916 261.625,837.1816 Q261.3906,837.4473 261.0156,837.4473 Q260.6719,837.4473 260.4688,837.2441 Q260.2656,837.0566 260.1563,836.541 Q260.1094,836.1816 259.9219,835.9941 Q259.5938,835.6191 258.9844,835.4004 Q258.375,835.1816 257.75,835.1816 Q256.9844,835.1816 256.3438,835.5098 Q255.7188,835.8379 255.2188,836.5879 Q254.7344,837.3379 254.7344,838.3691 L254.7344,839.4629 Q254.7344,840.6973 255.625,841.5254 Q256.5156,842.3379 258.1094,842.3379 Q259.0469,842.3379 259.7031,842.0879 Q260.0938,841.9316 260.5156,841.4941 Q260.7813,841.2285 260.9219,841.1504 Q261.0781,841.0723 261.2813,841.0723 Q261.6094,841.0723 261.8594,841.3379 Q262.125,841.5879 262.125,841.9316 Q262.125,842.2754 261.7813,842.6816 Q261.2813,843.2598 260.4844,843.5879 Q259.4063,844.041 258.1094,844.041 Q256.5938,844.041 255.3906,843.416 Q254.4063,842.916 253.7188,841.8535 Q253.0313,840.7754 253.0313,839.4941 L253.0313,838.3379 Q253.0313,837.0098 253.6406,835.8691 Q254.2656,834.7129 255.3594,834.1035 Q256.4531,833.4785 257.6875,833.4785 Q258.4219,833.4785 259.0625,833.6504 Q259.7188,833.8066 260.2656,834.166 Z " fill="#000000"/><text fill="#000000" font-family="FG Virgil" font-size="12" font-style="italic" lengthAdjust="spacing" textLength="68" x="294.5" y="833.9492">&#171;repository&#187;</text><text fill="#000000" font-family="FG Virgil" font-size="14" lengthAdjust="spacing" textLength="114" x="271.5" y="852.0684">CourseRepository</text><line style="stroke:#181818;stroke-width:0.5;" x1="243.5" x2="387.5" y1="860.582" y2="860.582"/><line style="stroke:#181818;stroke-width:0.5;" x1="243.5" x2="387.5" y1="868.582" y2="868.582"/><text fill="#000000" font-family="FG Virgil" font-size="14" lengthAdjust="spacing" textLength="75" x="248.5" y="887.6895">save(Class)</text></g><!--class User--><g id="elem_User"><rect fill="#F1F1F1" height="48" id="User" rx="2.5" ry="2.5" style="stroke:#181818;stroke-width:0.5;" width="61" x="1384" y="180.5"/><ellipse cx="1399" cy="196.5" fill="#C2C2C2" rx="11" ry="11" style="stroke:#181818;stroke-width:1.0;"/><path d="M1401.7656,192.375 Q1401.9219,192.1563 1402.1094,192.0469 Q1402.2969,191.9375 1402.5156,191.9375 Q1402.8906,191.9375 1403.125,192.2031 Q1403.3594,192.4531 1403.3594,193.0625 L1403.3594,194.5156 Q1403.3594,195.125 1403.125,195.3906 Q1402.8906,195.6563 1402.5156,195.6563 Q1402.1719,195.6563 1401.9688,195.4531 Q1401.7656,195.2656 1401.6563,194.75 Q1401.6094,194.3906 1401.4219,194.2031 Q1401.0938,193.8281 1400.4844,193.6094 Q1399.875,193.3906 1399.25,193.3906 Q1398.4844,193.3906 1397.8438,193.7188 Q1397.2188,194.0469 1396.7188,194.7969 Q1396.2344,195.5469 1396.2344,196.5781 L1396.2344,197.6719 Q1396.2344,198.9063 1397.125,199.7344 Q1398.0156,200.5469 1399.6094,200.5469 Q1400.5469,200.5469 1401.2031,200.2969 Q1401.5938,200.1406 1402.0156,199.7031 Q1402.2813,199.4375 1402.4219,199.3594 Q1402.5781,199.2813 1402.7813,199.2813 Q1403.1094,199.2813 1403.3594,199.5469 Q1403.625,199.7969 1403.625,200.1406 Q1403.625,200.4844 1403.2813,200.8906 Q1402.7813,201.4688 1401.9844,201.7969 Q1400.9063,202.25 1399.6094,202.25 Q1398.0938,202.25 1396.8906,201.625 Q1395.9063,201.125 1395.2188,200.0625 Q1394.5313,198.9844 1394.5313,197.7031 L1394.5313,196.5469 Q1394.5313,195.2188 1395.1406,194.0781 Q1395.7656,192.9219 1396.8594,192.3125 Q1397.9531,191.6875 1399.1875,191.6875 Q1399.9219,191.6875 1400.5625,191.8594 Q1401.2188,192.0156 1401.7656,192.375 Z " fill="#000000"/><text fill="#000000" font-family="FG Virgil" font-size="14" lengthAdjust="spacing" textLength="29" x="1413" y="202.2969">User</text><line style="stroke:#181818;stroke-width:0.5;" x1="1385" x2="1444" y1="212.5" y2="212.5"/><line style="stroke:#181818;stroke-width:0.5;" x1="1385" x2="1444" y1="220.5" y2="220.5"/></g><!--link ScheduleClassUI to ScheduleClassController--><g id="link_ScheduleClassUI_ScheduleClassController"><path codeLine="51" d="M754.5,86.06 C754.5,108.37 754.5,136.53 754.5,159.68 " fill="none" id="ScheduleClassUI-to-ScheduleClassController" style="stroke:#181818;stroke-width:1.0;"/><polygon fill="#181818" points="754.5,164.84,758.5,155.84,754.5,159.84,750.5,155.84,754.5,164.84" style="stroke:#181818;stroke-width:1.0;"/><text fill="#000000" font-family="FG Virgil" font-size="13" lengthAdjust="spacing" textLength="73" x="755.5" y="131.0283">theController</text></g><!--link ScheduleClassController to CourseManagementService--><g id="link_ScheduleClassController_CourseManagementService"><path codeLine="52" d="M621.81,244.09 C531.96,270.23 413.55,304.67 322.75,331.08 " fill="none" id="ScheduleClassController-to-CourseManagementService" style="stroke:#181818;stroke-width:1.0;"/><polygon fill="#181818" points="317.9,332.49,327.6563,333.8368,322.7038,331.1032,325.4374,326.1507,317.9,332.49" style="stroke:#181818;stroke-width:1.0;"/><text fill="#000000" font-family="FG Virgil" font-size="13" lengthAdjust="spacing" textLength="60" x="505.5" y="289.0283">theService</text></g><!--link ScheduleClassController to AuthorizationService--><g id="link_ScheduleClassController_AuthorizationService"><path codeLine="53" d="M816.53,244.09 C852.97,266.76 899.46,295.69 938.85,320.2 " fill="none" id="ScheduleClassController-to-AuthorizationService" style="stroke:#181818;stroke-width:1.0;"/><polygon fill="#181818" points="943.12,322.86,937.5957,314.7064,938.876,320.2164,933.3659,321.4968,943.12,322.86" style="stroke:#181818;stroke-width:1.0;"/><text fill="#000000" font-family="FG Virgil" font-size="13" lengthAdjust="spacing" textLength="32" x="888.5" y="289.0283">autzh</text></g><!--link AuthorizationService to UserSession--><g id="link_AuthorizationService_UserSession"><path codeLine="54" d="M1020.5,421.31 C1020.5,446.59 1020.5,477.09 1020.5,500.64 " fill="none" id="AuthorizationService-to-UserSession" style="stroke:#181818;stroke-width:1.0;"/><polygon fill="#181818" points="1020.5,505.86,1024.5,496.86,1020.5,500.86,1016.5,496.86,1020.5,505.86" style="stroke:#181818;stroke-width:1.0;"/><text fill="#000000" font-family="FG Virgil" font-size="13" lengthAdjust="spacing" textLength="45" x="1021.5" y="466.0283">session</text></g><!--link CourseManagementService to ClassFactory--><g id="link_CourseManagementService_ClassFactory"><path codeLine="55" d="M364.05,372 C394.48,372 426.22,372 457.06,372 " fill="none" id="CourseManagementService-to-ClassFactory" style="stroke:#181818;stroke-width:1.0;"/><polygon fill="#181818" points="462.4,372,453.4,368,457.4,372,453.4,376,462.4,372" style="stroke:#181818;stroke-width:1.0;"/><text fill="#000000" font-family="FG Virgil" font-size="13" lengthAdjust="spacing" textLength="62" x="382.25" y="365.0283">theFactory</text></g><!--link ClassFactory to class:Class--><g id="link_ClassFactory_class:Class"><path codeLine="56" d="M731.36,332.48 C773.45,313.59 826.79,293.04 877,283.5 C1028.95,254.63 1072.64,256.88 1225,283.5 C1277.64,292.7 1333.89,312.21 1379.25,330.57 " fill="none" id="ClassFactory-to-class:Class" style="stroke:#181818;stroke-width:1.0;"/><polygon fill="#181818" points="1383.88,332.46,1377.0467,325.3673,1379.2475,330.5785,1374.0363,332.7793,1383.88,332.46" style="stroke:#181818;stroke-width:1.0;"/></g><!--link CourseManagementService to PersistenceContext--><g id="link_CourseManagementService_PersistenceContext"><path codeLine="57" d="M185.5,411.8 C185.5,436.7 185.5,469.08 185.5,494.87 " fill="none" id="CourseManagementService-to-PersistenceContext" style="stroke:#181818;stroke-width:1.0;"/><polygon fill="#181818" points="185.5,499.94,189.5,490.94,185.5,494.94,181.5,490.94,185.5,499.94" style="stroke:#181818;stroke-width:1.0;"/><text fill="#000000" font-family="FG Virgil" font-size="13" lengthAdjust="spacing" textLength="67" x="186.5" y="466.0283">persistence</text></g><!--link PersistenceContext to RepositoryFactory--><g id="link_PersistenceContext_RepositoryFactory"><path codeLine="58" d="M185.99,579.06 C186.28,601.37 186.64,629.53 186.94,652.68 " fill="none" id="PersistenceContext-to-RepositoryFactory" style="stroke:#181818;stroke-width:1.0;"/><polygon fill="#181818" points="187,657.84,190.8969,648.7949,186.9429,652.8403,182.8974,648.8863,187,657.84" style="stroke:#181818;stroke-width:1.0;"/><text fill="#000000" font-family="FG Virgil" font-size="13" lengthAdjust="spacing" textLength="39" x="188.5" y="624.0283">factory</text></g><!--link RepositoryFactory to CourseRepository--><g id="link_RepositoryFactory_CourseRepository"><path codeLine="59" d="M202.16,737.23 C209.3,753.26 218.87,771.46 230.5,786 C237.96,795.32 246.89,804.21 256.13,812.3 " fill="none" id="RepositoryFactory-to-CourseRepository" style="stroke:#181818;stroke-width:1.0;"/><polygon fill="#181818" points="260.1,815.72,255.8699,806.8259,256.3037,812.466,250.6635,812.8999,260.1,815.72" style="stroke:#181818;stroke-width:1.0;"/><text fill="#000000" font-family="FG Virgil" font-size="13" lengthAdjust="spacing" textLength="57" x="231.5" y="782.0283">repository</text></g><!--link CourseManagementService to CourseRepository--><g id="link_CourseManagementService_CourseRepository"><path codeLine="60" d="M230.43,411.72 C242.06,423.43 253.76,436.94 262.5,451 C333.43,565.04 328.25,732.18 320.88,810.7 " fill="none" id="CourseManagementService-to-CourseRepository" style="stroke:#181818;stroke-width:1.0;"/><polygon fill="#181818" points="320.39,815.74,325.2462,807.1716,320.8762,810.7637,317.2841,806.3937,320.39,815.74" style="stroke:#181818;stroke-width:1.0;"/><text fill="#000000" font-family="FG Virgil" font-size="13" lengthAdjust="spacing" textLength="57" x="320.5" y="624.0283">repository</text></g><!--link class:Course to class:Class--><g id="link_class:Course_class:Class"><path codeLine="61" d="M1298.74,244.09 C1333.27,269.61 1378.53,303.05 1413.92,329.19 " fill="none" id="class:Course-to-class:Class" style="stroke:#181818;stroke-width:1.0;"/><polygon fill="#181818" points="1418.18,332.35,1413.326,323.7804,1414.1612,329.3752,1408.5663,330.2105,1418.18,332.35" style="stroke:#181818;stroke-width:1.0;"/><text fill="#000000" font-family="FG Virgil" font-size="13" lengthAdjust="spacing" textLength="54" x="1359.5" y="289.0283">addClass</text></g><!--link class:Course to User--><g id="link_class:Course_User"><path codeLine="62" d="M1304.79,204.5 C1329.35,204.5 1357.17,204.5 1378.64,204.5 " fill="none" id="class:Course-to-User" style="stroke:#181818;stroke-width:1.0;"/><polygon fill="#181818" points="1383.68,204.5,1374.68,200.5,1378.68,204.5,1374.68,208.5,1383.68,204.5" style="stroke:#181818;stroke-width:1.0;"/><text fill="#000000" font-family="FG Virgil" font-size="13" lengthAdjust="spacing" textLength="43" x="1322.75" y="197.5283">teacher</text></g><!--link class:Course to CourseRepository--><g id="link_class:Course_CourseRepository"><path codeLine="63" d="M1235.41,244.26 C1226.87,277.58 1216.5,327.05 1216.5,371 C1216.5,371 1216.5,371 1216.5,698.5 C1216.5,781.64 613.23,833.17 393.96,849.15 " fill="none" id="class:Course-to-CourseRepository" style="stroke:#181818;stroke-width:1.0;"/><polygon fill="#181818" points="388.85,849.52,398.1128,852.8667,393.8372,849.1627,397.5412,844.8872,388.85,849.52" style="stroke:#181818;stroke-width:1.0;"/><text fill="#000000" font-family="FG Virgil" font-size="13" lengthAdjust="spacing" textLength="26" x="1217.5" y="545.0283">save</text></g><!--SRC=[dLFRZjem47ttLrZxn4h01qG8QKN5jW_TLXksVHuv0x5mxCXsbcQh_dl7IKWC9AXg7XnVpfavStD7gKkmKF32Q2DoQmhatbR8NFzIWZZ20LDVA-GMXO_UCjn3fVpMQFy2HDq-yn_I7gIAC2w7p9oaFl0zA8UC2GNEyLJac5KAD-7qzeMlLgL5Xzg3bqQlr_mtu_Hb9itDQVR8_epnDkJO6gNG4X_AKabnINSnUfPwIphc_Fu_-EgSFLK-DrP-D4PJjEzI87boxQxtWjfL5WEOz0S9cBqHvZEu9rr_syzUZSBbSldOIaBdoDeiSXF0QNlTMOHhMp5yOohhy2jeAaj1g6bXv_1VyFIV6NXeVadhye5SPAO0EIGOigortAonoB1kGNXZQwBjsrtF4nOfj7yJ5UAd4_fLsAr7r8LrH5nhVYUzmZd_15IAduZ7ET_9WYvs29IUs39vh39AQ1p7TxHEEezQOEWs_EL3gmwNlJEBfN6IWfJeucgzdk_hEzbeqkjkYpoGYTLx68WEtZ5A_VLGBHRhoO59EBNOS6PJk61ZgkCQ6ztXhe7HGKf2ct_aRFGniEAvICw3mwR419rnqpNYkWExU27aHUTCcoJaI0CaF6e0DW88lDkw9xohExjz6x8SbJmPcgg-g_4-ysg65zVXXq9qOto3ROiGSjbEomXWn7beI_ON]--></g></svg>