<?xml version="1.0" encoding="us-ascii" standalone="no"?><svg xmlns="http://www.w3.org/2000/svg" xmlns:xlink="http://www.w3.org/1999/xlink" contentStyleType="text/css" height="751px" preserveAspectRatio="none" style="width:1192px;height:751px;background:#FFFFFF;" version="1.1" viewBox="0 0 1192 751" width="1192px" zoomAndPan="magnify"><defs/><g><!--class HttpServerAjax--><g id="elem_HttpServerAjax"><rect codeLine="3" fill="#F1F1F1" height="106.0859" id="HttpServerAjax" rx="2.5" ry="2.5" style="stroke:#181818;stroke-width:0.5;" width="247" x="351.5" y="7"/><ellipse cx="419.25" cy="27.3105" fill="#ADD1B2" rx="11" ry="11" style="stroke:#181818;stroke-width:1.0;"/><path d="M422.2231,32.9536 Q421.6421,33.2524 421.0029,33.4019 Q420.3638,33.5513 419.6582,33.5513 Q417.1514,33.5513 415.8315,31.8994 Q414.5117,30.2476 414.5117,27.1265 Q414.5117,23.9971 415.8315,22.3452 Q417.1514,20.6934 419.6582,20.6934 Q420.3638,20.6934 421.0112,20.8428 Q421.6587,20.9922 422.2231,21.291 L422.2231,24.0137 Q421.5923,23.4326 420.9988,23.1628 Q420.4053,22.8931 419.7744,22.8931 Q418.4297,22.8931 417.7449,23.9597 Q417.0601,25.0264 417.0601,27.1265 Q417.0601,29.2183 417.7449,30.2849 Q418.4297,31.3516 419.7744,31.3516 Q420.4053,31.3516 420.9988,31.0818 Q421.5923,30.812 422.2231,30.231 Z " fill="#000000"/><text fill="#000000" font-family="sans-serif" font-size="12" font-style="italic" lengthAdjust="spacing" textLength="75" x="453.75" y="23.6016">&#171;http server&#187;</text><text fill="#000000" font-family="sans-serif" font-size="14" lengthAdjust="spacing" textLength="103" x="439.75" y="39.668">HttpServerAjax</text><line style="stroke:#181818;stroke-width:0.5;" x1="352.5" x2="597.5" y1="47.6211" y2="47.6211"/><line style="stroke:#181818;stroke-width:0.5;" x1="352.5" x2="597.5" y1="55.6211" y2="55.6211"/><ellipse cx="362.5" cy="69.3652" fill="#84BE84" rx="3" ry="3" style="stroke:#038048;stroke-width:1.0;"/><text fill="#000000" font-family="sans-serif" font-size="14" lengthAdjust="spacing" textLength="216" x="371.5" y="73.1563">undoPostIt(requestBody, token)</text><rect fill="#F24D5C" height="6" style="stroke:#C82930;stroke-width:1.0;" width="6" x="359.5" y="82.8535"/><text fill="#000000" font-family="sans-serif" font-size="14" lengthAdjust="spacing" textLength="211" x="371.5" y="89.6445">generateLockKey(requestBody)</text><rect fill="#F24D5C" height="6" style="stroke:#C82930;stroke-width:1.0;" width="6" x="359.5" y="99.3418"/><text fill="#000000" font-family="sans-serif" font-size="14" lengthAdjust="spacing" textLength="221" x="371.5" y="106.1328">getOrCreateLockObject(lockKey)</text></g><!--class SessionManager--><g id="elem_SessionManager"><rect codeLine="9" fill="#F1F1F1" height="73.1094" id="SessionManager" rx="2.5" ry="2.5" style="stroke:#181818;stroke-width:0.5;" width="186" x="236" y="173.08"/><ellipse cx="269.9" cy="193.3905" fill="#ADD1B2" rx="11" ry="11" style="stroke:#181818;stroke-width:1.0;"/><path d="M272.8731,199.0336 Q272.2921,199.3324 271.6529,199.4819 Q271.0138,199.6313 270.3082,199.6313 Q267.8014,199.6313 266.4815,197.9794 Q265.1617,196.3276 265.1617,193.2065 Q265.1617,190.0771 266.4815,188.4252 Q267.8014,186.7734 270.3082,186.7734 Q271.0138,186.7734 271.6612,186.9228 Q272.3087,187.0722 272.8731,187.371 L272.8731,190.0937 Q272.2423,189.5126 271.6488,189.2428 Q271.0553,188.9731 270.4244,188.9731 Q269.0797,188.9731 268.3949,190.0397 Q267.7101,191.1064 267.7101,193.2065 Q267.7101,195.2983 268.3949,196.3649 Q269.0797,197.4316 270.4244,197.4316 Q271.0553,197.4316 271.6488,197.1618 Q272.2423,196.892 272.8731,196.311 Z " fill="#000000"/><text fill="#000000" font-family="sans-serif" font-size="12" font-style="italic" lengthAdjust="spacing" textLength="52" x="318.1" y="189.6816">&#171;service&#187;</text><text fill="#000000" font-family="sans-serif" font-size="14" lengthAdjust="spacing" textLength="112" x="288.1" y="205.748">SessionManager</text><line style="stroke:#181818;stroke-width:0.5;" x1="237" x2="421" y1="213.7011" y2="213.7011"/><line style="stroke:#181818;stroke-width:0.5;" x1="237" x2="421" y1="221.7011" y2="221.7011"/><ellipse cx="247" cy="235.4452" fill="#84BE84" rx="3" ry="3" style="stroke:#038048;stroke-width:1.0;"/><text fill="#000000" font-family="sans-serif" font-size="14" lengthAdjust="spacing" textLength="160" x="256" y="239.2363">getUserByToken(token)</text></g><!--class User--><g id="elem_User"><rect codeLine="13" fill="#F1F1F1" height="56.6211" id="User" rx="2.5" ry="2.5" style="stroke:#181818;stroke-width:0.5;" width="83" x="277.5" y="355.66"/><ellipse cx="292.5" cy="375.9705" fill="#ADD1B2" rx="11" ry="11" style="stroke:#181818;stroke-width:1.0;"/><path d="M295.4731,381.6136 Q294.8921,381.9124 294.2529,382.0619 Q293.6138,382.2113 292.9082,382.2113 Q290.4014,382.2113 289.0815,380.5594 Q287.7617,378.9076 287.7617,375.7865 Q287.7617,372.6571 289.0815,371.0052 Q290.4014,369.3534 292.9082,369.3534 Q293.6138,369.3534 294.2612,369.5028 Q294.9087,369.6522 295.4731,369.951 L295.4731,372.6737 Q294.8423,372.0926 294.2488,371.8228 Q293.6553,371.5531 293.0244,371.5531 Q291.6797,371.5531 290.9949,372.6197 Q290.3101,373.6864 290.3101,375.7865 Q290.3101,377.8783 290.9949,378.9449 Q291.6797,380.0116 293.0244,380.0116 Q293.6553,380.0116 294.2488,379.7418 Q294.8423,379.472 295.4731,378.891 Z " fill="#000000"/><text fill="#000000" font-family="sans-serif" font-size="12" font-style="italic" lengthAdjust="spacing" textLength="55" x="304.5" y="372.2616">&#171;domain&#187;</text><text fill="#000000" font-family="sans-serif" font-size="14" lengthAdjust="spacing" textLength="31" x="316.5" y="388.328">User</text><line style="stroke:#181818;stroke-width:0.5;" x1="278.5" x2="359.5" y1="396.2811" y2="396.2811"/><line style="stroke:#181818;stroke-width:0.5;" x1="278.5" x2="359.5" y1="404.2811" y2="404.2811"/></g><!--class UndoPostItController--><g id="elem_UndoPostItController"><rect codeLine="16" fill="#F1F1F1" height="73.1094" id="UndoPostItController" rx="2.5" ry="2.5" style="stroke:#181818;stroke-width:0.5;" width="327" x="462.5" y="173.08"/><ellipse cx="549.25" cy="193.3905" fill="#ADD1B2" rx="11" ry="11" style="stroke:#181818;stroke-width:1.0;"/><path d="M552.2231,199.0336 Q551.6421,199.3324 551.0029,199.4819 Q550.3638,199.6313 549.6582,199.6313 Q547.1514,199.6313 545.8315,197.9794 Q544.5117,196.3276 544.5117,193.2065 Q544.5117,190.0771 545.8315,188.4252 Q547.1514,186.7734 549.6582,186.7734 Q550.3638,186.7734 551.0112,186.9228 Q551.6587,187.0722 552.2231,187.371 L552.2231,190.0937 Q551.5923,189.5126 550.9988,189.2428 Q550.4053,188.9731 549.7744,188.9731 Q548.4297,188.9731 547.7449,190.0397 Q547.0601,191.1064 547.0601,193.2065 Q547.0601,195.2983 547.7449,196.3649 Q548.4297,197.4316 549.7744,197.4316 Q550.4053,197.4316 550.9988,197.1618 Q551.5923,196.892 552.2231,196.311 Z " fill="#000000"/><text fill="#000000" font-family="sans-serif" font-size="12" font-style="italic" lengthAdjust="spacing" textLength="75" x="604.75" y="189.6816">&#171;application&#187;</text><text fill="#000000" font-family="sans-serif" font-size="14" lengthAdjust="spacing" textLength="145" x="569.75" y="205.748">UndoPostItController</text><line style="stroke:#181818;stroke-width:0.5;" x1="463.5" x2="788.5" y1="213.7011" y2="213.7011"/><line style="stroke:#181818;stroke-width:0.5;" x1="463.5" x2="788.5" y1="221.7011" y2="221.7011"/><ellipse cx="473.5" cy="235.4452" fill="#84BE84" rx="3" ry="3" style="stroke:#038048;stroke-width:1.0;"/><text fill="#000000" font-family="sans-serif" font-size="14" lengthAdjust="spacing" textLength="301" x="482.5" y="239.2363">undoPostIt(row, column, boardId, authUser)</text></g><!--class PostItService--><g id="elem_PostItService"><rect codeLine="20" fill="#F1F1F1" height="155.5508" id="PostItService" rx="2.5" ry="2.5" style="stroke:#181818;stroke-width:0.5;" width="471" x="395.5" y="306.19"/><ellipse cx="583.75" cy="326.5005" fill="#ADD1B2" rx="11" ry="11" style="stroke:#181818;stroke-width:1.0;"/><path d="M586.7231,332.1436 Q586.1421,332.4424 585.5029,332.5919 Q584.8638,332.7413 584.1582,332.7413 Q581.6514,332.7413 580.3315,331.0894 Q579.0117,329.4376 579.0117,326.3165 Q579.0117,323.1871 580.3315,321.5352 Q581.6514,319.8834 584.1582,319.8834 Q584.8638,319.8834 585.5112,320.0328 Q586.1587,320.1822 586.7231,320.481 L586.7231,323.2037 Q586.0923,322.6226 585.4988,322.3528 Q584.9053,322.0831 584.2744,322.0831 Q582.9297,322.0831 582.2449,323.1497 Q581.5601,324.2164 581.5601,326.3165 Q581.5601,328.4083 582.2449,329.4749 Q582.9297,330.5416 584.2744,330.5416 Q584.9053,330.5416 585.4988,330.2718 Q586.0923,330.002 586.7231,329.421 Z " fill="#000000"/><text fill="#000000" font-family="sans-serif" font-size="12" font-style="italic" lengthAdjust="spacing" textLength="52" x="621.25" y="322.7916">&#171;service&#187;</text><text fill="#000000" font-family="sans-serif" font-size="14" lengthAdjust="spacing" textLength="86" x="604.25" y="338.858">PostItService</text><line style="stroke:#181818;stroke-width:0.5;" x1="396.5" x2="865.5" y1="346.8111" y2="346.8111"/><line style="stroke:#181818;stroke-width:0.5;" x1="396.5" x2="865.5" y1="354.8111" y2="354.8111"/><ellipse cx="406.5" cy="368.5552" fill="#84BE84" rx="3" ry="3" style="stroke:#038048;stroke-width:1.0;"/><text fill="#000000" font-family="sans-serif" font-size="14" lengthAdjust="spacing" textLength="301" x="415.5" y="372.3463">undoPostIt(row, column, boardId, authUser)</text><rect fill="#F24D5C" height="6" style="stroke:#C82930;stroke-width:1.0;" width="6" x="403.5" y="382.0435"/><text fill="#000000" font-family="sans-serif" font-size="14" lengthAdjust="spacing" textLength="238" x="415.5" y="388.8345">checkIfIsRowEntryTitle(row, board)</text><rect fill="#F24D5C" height="6" style="stroke:#C82930;stroke-width:1.0;" width="6" x="403.5" y="398.5318"/><text fill="#000000" font-family="sans-serif" font-size="14" lengthAdjust="spacing" textLength="288" x="415.5" y="405.3228">checkIfIsColumnEntryTitle(column, board)</text><rect fill="#F24D5C" height="6" style="stroke:#C82930;stroke-width:1.0;" width="6" x="403.5" y="415.0201"/><text fill="#000000" font-family="sans-serif" font-size="14" lengthAdjust="spacing" textLength="364" x="415.5" y="421.8111">postItByPosition(row, column, board, isUndoBoolean)</text><rect fill="#F24D5C" height="6" style="stroke:#C82930;stroke-width:1.0;" width="6" x="403.5" y="431.5084"/><text fill="#000000" font-family="sans-serif" font-size="14" lengthAdjust="spacing" textLength="358" x="415.5" y="438.2994">checkForUserOwnership(authUser, board, lastPostIt)</text><rect fill="#F24D5C" height="6" style="stroke:#C82930;stroke-width:1.0;" width="6" x="403.5" y="447.9966"/><text fill="#000000" font-family="sans-serif" font-size="14" lengthAdjust="spacing" textLength="445" x="415.5" y="454.7877">savePreviousPostItMoved(lastPostIt, previousPostIt, postItFactory)</text></g><!--class PostItRepository--><g id="elem_PostItRepository"><rect codeLine="29" fill="#F1F1F1" height="89.5977" id="PostItRepository" rx="2.5" ry="2.5" style="stroke:#181818;stroke-width:0.5;" width="274" x="7" y="521.74"/><ellipse cx="84.25" cy="542.0505" fill="#B4A7E5" rx="11" ry="11" style="stroke:#181818;stroke-width:1.0;"/><path d="M80.1777,537.8157 L80.1777,535.6575 L87.5571,535.6575 L87.5571,537.8157 L85.0918,537.8157 L85.0918,545.8923 L87.5571,545.8923 L87.5571,548.0505 L80.1777,548.0505 L80.1777,545.8923 L82.6431,545.8923 L82.6431,537.8157 Z " fill="#000000"/><text fill="#000000" font-family="sans-serif" font-size="12" font-style="italic" lengthAdjust="spacing" textLength="70" x="125.25" y="538.3416">&#171;repository&#187;</text><text fill="#000000" font-family="sans-serif" font-size="14" font-style="italic" lengthAdjust="spacing" textLength="111" x="104.75" y="554.408">PostItRepository</text><line style="stroke:#181818;stroke-width:0.5;" x1="8" x2="280" y1="562.3611" y2="562.3611"/><line style="stroke:#181818;stroke-width:0.5;" x1="8" x2="280" y1="570.3611" y2="570.3611"/><ellipse cx="18" cy="584.1052" fill="#84BE84" rx="3" ry="3" style="stroke:#038048;stroke-width:1.0;"/><text fill="#000000" font-family="sans-serif" font-size="14" lengthAdjust="spacing" textLength="79" x="27" y="587.8963">save(postIt)</text><ellipse cx="18" cy="600.5935" fill="#84BE84" rx="3" ry="3" style="stroke:#038048;stroke-width:1.0;"/><text fill="#000000" font-family="sans-serif" font-size="14" lengthAdjust="spacing" textLength="248" x="27" y="604.3845">positByPosition(row, column, board)</text></g><!--class BoardRepository--><g id="elem_BoardRepository"><rect codeLine="34" fill="#F1F1F1" height="73.1094" id="BoardRepository" rx="2.5" ry="2.5" style="stroke:#181818;stroke-width:0.5;" width="145" x="909.5" y="529.99"/><ellipse cx="924.5" cy="550.3005" fill="#B4A7E5" rx="11" ry="11" style="stroke:#181818;stroke-width:1.0;"/><path d="M920.4277,546.0657 L920.4277,543.9075 L927.8071,543.9075 L927.8071,546.0657 L925.3418,546.0657 L925.3418,554.1423 L927.8071,554.1423 L927.8071,556.3005 L920.4277,556.3005 L920.4277,554.1423 L922.8931,554.1423 L922.8931,546.0657 Z " fill="#000000"/><text fill="#000000" font-family="sans-serif" font-size="12" font-style="italic" lengthAdjust="spacing" textLength="70" x="960" y="546.5916">&#171;repository&#187;</text><text fill="#000000" font-family="sans-serif" font-size="14" font-style="italic" lengthAdjust="spacing" textLength="113" x="938.5" y="562.658">BoardRepository</text><line style="stroke:#181818;stroke-width:0.5;" x1="910.5" x2="1053.5" y1="570.6111" y2="570.6111"/><line style="stroke:#181818;stroke-width:0.5;" x1="910.5" x2="1053.5" y1="578.6111" y2="578.6111"/><ellipse cx="920.5" cy="592.3552" fill="#84BE84" rx="3" ry="3" style="stroke:#038048;stroke-width:1.0;"/><text fill="#000000" font-family="sans-serif" font-size="14" lengthAdjust="spacing" textLength="88" x="929.5" y="596.1463">ofIdentity(id)</text></g><!--class PostIt--><g id="elem_PostIt"><rect codeLine="38" fill="#F1F1F1" height="73.1094" id="PostIt" rx="2.5" ry="2.5" style="stroke:#181818;stroke-width:0.5;" width="129" x="269.5" y="671.34"/><ellipse cx="305.2" cy="691.6505" fill="#ADD1B2" rx="11" ry="11" style="stroke:#181818;stroke-width:1.0;"/><path d="M308.1731,697.2936 Q307.5921,697.5924 306.9529,697.7419 Q306.3138,697.8913 305.6082,697.8913 Q303.1014,697.8913 301.7815,696.2394 Q300.4617,694.5876 300.4617,691.4665 Q300.4617,688.3371 301.7815,686.6852 Q303.1014,685.0334 305.6082,685.0334 Q306.3138,685.0334 306.9612,685.1828 Q307.6087,685.3322 308.1731,685.631 L308.1731,688.3537 Q307.5423,687.7726 306.9488,687.5028 Q306.3553,687.2331 305.7244,687.2331 Q304.3797,687.2331 303.6949,688.2997 Q303.0101,689.3664 303.0101,691.4665 Q303.0101,693.5583 303.6949,694.6249 Q304.3797,695.6916 305.7244,695.6916 Q306.3553,695.6916 306.9488,695.4218 Q307.5423,695.152 308.1731,694.571 Z " fill="#000000"/><text fill="#000000" font-family="sans-serif" font-size="12" font-style="italic" lengthAdjust="spacing" textLength="55" x="321.8" y="687.9416">&#171;domain&#187;</text><text fill="#000000" font-family="sans-serif" font-size="14" lengthAdjust="spacing" textLength="38" x="330.3" y="704.008">PostIt</text><line style="stroke:#181818;stroke-width:0.5;" x1="270.5" x2="397.5" y1="711.9611" y2="711.9611"/><line style="stroke:#181818;stroke-width:0.5;" x1="270.5" x2="397.5" y1="719.9611" y2="719.9611"/><ellipse cx="280.5" cy="733.7052" fill="#84BE84" rx="3" ry="3" style="stroke:#038048;stroke-width:1.0;"/><text fill="#000000" font-family="sans-serif" font-size="14" lengthAdjust="spacing" textLength="103" x="289.5" y="737.4963">rollbackPostIt()</text></g><!--class Board--><g id="elem_Board"><rect codeLine="42" fill="#F1F1F1" height="73.1094" id="Board" rx="2.5" ry="2.5" style="stroke:#181818;stroke-width:0.5;" width="280" x="905" y="671.34"/><ellipse cx="1015.25" cy="691.6505" fill="#ADD1B2" rx="11" ry="11" style="stroke:#181818;stroke-width:1.0;"/><path d="M1018.2231,697.2936 Q1017.6421,697.5924 1017.0029,697.7419 Q1016.3638,697.8913 1015.6582,697.8913 Q1013.1514,697.8913 1011.8315,696.2394 Q1010.5117,694.5876 1010.5117,691.4665 Q1010.5117,688.3371 1011.8315,686.6852 Q1013.1514,685.0334 1015.6582,685.0334 Q1016.3638,685.0334 1017.0112,685.1828 Q1017.6587,685.3322 1018.2231,685.631 L1018.2231,688.3537 Q1017.5923,687.7726 1016.9988,687.5028 Q1016.4053,687.2331 1015.7744,687.2331 Q1014.4297,687.2331 1013.7449,688.2997 Q1013.0601,689.3664 1013.0601,691.4665 Q1013.0601,693.5583 1013.7449,694.6249 Q1014.4297,695.6916 1015.7744,695.6916 Q1016.4053,695.6916 1016.9988,695.4218 Q1017.5923,695.152 1018.2231,694.571 Z " fill="#000000"/><text fill="#000000" font-family="sans-serif" font-size="12" font-style="italic" lengthAdjust="spacing" textLength="55" x="1033.75" y="687.9416">&#171;domain&#187;</text><text fill="#000000" font-family="sans-serif" font-size="14" lengthAdjust="spacing" textLength="40" x="1041.25" y="704.008">Board</text><line style="stroke:#181818;stroke-width:0.5;" x1="906" x2="1184" y1="711.9611" y2="711.9611"/><line style="stroke:#181818;stroke-width:0.5;" x1="906" x2="1184" y1="719.9611" y2="719.9611"/><ellipse cx="916" cy="733.7052" fill="#84BE84" rx="3" ry="3" style="stroke:#038048;stroke-width:1.0;"/><text fill="#000000" font-family="sans-serif" font-size="14" lengthAdjust="spacing" textLength="254" x="925" y="737.4963">userHasPermission(user, permission)</text></g><!--class PostItFactory--><g id="elem_PostItFactory"><rect codeLine="46" fill="#F1F1F1" height="73.1094" id="PostItFactory" rx="2.5" ry="2.5" style="stroke:#181818;stroke-width:0.5;" width="487" x="387.5" y="529.99"/><ellipse cx="582.75" cy="550.3005" fill="#ADD1B2" rx="11" ry="11" style="stroke:#181818;stroke-width:1.0;"/><path d="M585.7231,555.9436 Q585.1421,556.2424 584.5029,556.3919 Q583.8638,556.5413 583.1582,556.5413 Q580.6514,556.5413 579.3315,554.8894 Q578.0117,553.2376 578.0117,550.1165 Q578.0117,546.9871 579.3315,545.3352 Q580.6514,543.6834 583.1582,543.6834 Q583.8638,543.6834 584.5112,543.8328 Q585.1587,543.9822 585.7231,544.281 L585.7231,547.0037 Q585.0923,546.4226 584.4988,546.1528 Q583.9053,545.8831 583.2744,545.8831 Q581.9297,545.8831 581.2449,546.9497 Q580.5601,548.0164 580.5601,550.1165 Q580.5601,552.2083 581.2449,553.2749 Q581.9297,554.3416 583.2744,554.3416 Q583.9053,554.3416 584.4988,554.0718 Q585.0923,553.802 585.7231,553.221 Z " fill="#000000"/><text fill="#000000" font-family="sans-serif" font-size="12" font-style="italic" lengthAdjust="spacing" textLength="51" x="621.75" y="546.5916">&#171;factory&#187;</text><text fill="#000000" font-family="sans-serif" font-size="14" lengthAdjust="spacing" textLength="88" x="603.25" y="562.658">PostItFactory</text><line style="stroke:#181818;stroke-width:0.5;" x1="388.5" x2="873.5" y1="570.6111" y2="570.6111"/><line style="stroke:#181818;stroke-width:0.5;" x1="388.5" x2="873.5" y1="578.6111" y2="578.6111"/><ellipse cx="398.5" cy="592.3552" fill="#84BE84" rx="3" ry="3" style="stroke:#038048;stroke-width:1.0;"/><text fill="#000000" font-family="sans-serif" font-size="14" lengthAdjust="spacing" text-decoration="underline" textLength="461" x="407.5" y="596.1463">createChange(content, row, column, owner, board, state, lastPostIt)</text></g><!--link HttpServerAjax to SessionManager--><g id="link_HttpServerAjax_SessionManager"><path codeLine="50" d="M423.11,113.49 C405.13,131.67 385.28,151.74 368.46,168.75 " fill="none" id="HttpServerAjax-to-SessionManager" style="stroke:#181818;stroke-width:1.0;"/><polygon fill="#181818" points="365.25,172,374.4281,168.4274,368.7712,168.4502,368.7484,162.7934,365.25,172" style="stroke:#181818;stroke-width:1.0;"/></g><!--link HttpServerAjax to UndoPostItController--><g id="link_HttpServerAjax_UndoPostItController"><path codeLine="51" d="M528.66,113.49 C547.42,131.83 568.14,152.08 585.63,169.18 " fill="none" id="HttpServerAjax-to-UndoPostItController" style="stroke:#181818;stroke-width:1.0;"/><polygon fill="#181818" points="588.54,172,584.8935,162.851,584.962,168.5075,579.3055,168.5759,588.54,172" style="stroke:#181818;stroke-width:1.0;"/></g><!--link SessionManager to User--><g id="link_SessionManager_User"><path codeLine="53" d="M326.93,246.34 C325.17,276.66 322.66,319.84 320.94,349.5 " fill="none" id="SessionManager-to-User" style="stroke:#181818;stroke-width:1.0;stroke-dasharray:7.0,7.0;"/><polygon fill="#181818" points="320.61,354.24,325.1169,345.4829,320.8952,349.2481,317.13,345.0265,320.61,354.24" style="stroke:#181818;stroke-width:1.0;"/></g><!--link UndoPostItController to PostItService--><g id="link_UndoPostItController_PostItService"><path codeLine="55" d="M627.04,246.34 C627.49,261.98 628.04,281.04 628.59,299.9 " fill="none" id="UndoPostItController-to-PostItService" style="stroke:#181818;stroke-width:1.0;"/><polygon fill="#181818" points="628.76,304.74,632.5013,295.6294,628.6172,299.742,624.5046,295.8579,628.76,304.74" style="stroke:#181818;stroke-width:1.0;"/></g><!--link PostItService to PostItRepository--><g id="link_PostItService_PostItRepository"><path codeLine="57" d="M422.7,462.2 C370.21,481.66 315.5,501.95 268.58,519.35 " fill="none" id="PostItService-to-PostItRepository" style="stroke:#181818;stroke-width:1.0;"/><polygon fill="#181818" points="264.2,521.35,274.0282,521.9879,268.891,519.6195,271.2594,514.4823,264.2,521.35" style="stroke:#181818;stroke-width:1.0;"/></g><!--link PostItService to BoardRepository--><g id="link_PostItService_BoardRepository"><path codeLine="58" d="M781.13,462.2 C824.79,484.66 870.59,508.22 907.41,527.17 " fill="none" id="PostItService-to-BoardRepository" style="stroke:#181818;stroke-width:1.0;"/><polygon fill="#181818" points="911.31,529.69,905.1369,522.0158,906.8639,527.4026,901.4771,529.1296,911.31,529.69" style="stroke:#181818;stroke-width:1.0;"/></g><!--link PostItService to PostItFactory--><g id="link_PostItService_PostItFactory"><path codeLine="60" d="M631,462.07 C631,483.44 631,505.82 631,524.27 " fill="none" id="PostItService-to-PostItFactory" style="stroke:#181818;stroke-width:1.0;"/><polygon fill="#181818" points="631,528.87,635,519.87,631,523.87,627,519.87,631,528.87" style="stroke:#181818;stroke-width:1.0;"/></g><!--link PostItRepository to PostIt--><g id="link_PostItRepository_PostIt"><path codeLine="62" d="M204.38,611.83 C228.73,629.68 256.59,650.12 280.22,667.45 " fill="none" id="PostItRepository-to-PostIt" style="stroke:#181818;stroke-width:1.0;"/><polygon fill="#181818" points="283.89,670.88,279.0018,662.3299,279.8593,667.9213,274.2679,668.7789,283.89,670.88" style="stroke:#181818;stroke-width:1.0;"/></g><!--link PostItFactory to PostIt--><g id="link_PostItFactory_PostIt"><path codeLine="63" d="M554.52,603.43 C508.01,625.25 449.07,652.9 403.83,674.13 " fill="none" id="PostItFactory-to-PostIt" style="stroke:#181818;stroke-width:1.0;"/><polygon fill="#181818" points="399.66,676.55,409.5069,676.3551,404.188,674.4293,406.1138,669.1104,399.66,676.55" style="stroke:#181818;stroke-width:1.0;"/></g><!--link BoardRepository to Board--><g id="link_BoardRepository_Board"><path codeLine="65" d="M998.22,603.43 C1006.86,622.53 1017.51,646.1 1026.47,665.91 " fill="none" id="BoardRepository-to-Board" style="stroke:#181818;stroke-width:1.0;"/><polygon fill="#181818" points="1028.83,670.13,1028.7729,660.2813,1026.7728,665.5728,1021.4813,663.5728,1028.83,670.13" style="stroke:#181818;stroke-width:1.0;"/></g><!--link PostItService to Board--><g id="link_PostItService_Board"><path codeLine="66" d="M866.75,431.65 C957.24,454.77 1045.31,485.52 1072,521.74 C1102.8,563.54 1084.62,625.31 1066.61,665.83 " fill="none" id="PostItService-to-Board" style="stroke:#181818;stroke-width:1.0;stroke-dasharray:7.0,7.0;"/><polygon fill="#181818" points="1064.19,670.16,1071.5634,663.6306,1066.2644,665.6106,1064.2844,660.3116,1064.19,670.16" style="stroke:#181818;stroke-width:1.0;"/></g><!--link PostItService to PostIt--><g id="link_PostItService_PostIt"><path codeLine="68" d="M434.3,462.24 C409.82,478.77 387.34,498.46 370,521.74 C338.96,563.42 332.57,624.58 332.2,665.05 " fill="none" id="PostItService-to-PostIt" style="stroke:#181818;stroke-width:1.0;"/><polygon fill="#181818" points="332.18,669.86,336.2057,660.8715,332.1943,664.86,328.2057,660.8486,332.18,669.86" style="stroke:#181818;stroke-width:1.0;"/></g><!--SRC=[bLHTRzem57tth_3RKZN0-rGX3TIgqLQ1IlS3Z7C1byGtinrOLFM_pnyXNuHDorDYdtFFkL_vSZ2cq5zdio9ZqfHvDkMOptZ6j9waWkqLomdnd_JP8ZUWJg2-lRFVzE71KQds9_Cv_I3KFlUqb2ckKPl4H0f-bQ3D0jCgfWQF8EyyQ4Bt844n0p-G7xz3rKMs4BDIImKrQhLz1swYB13koEV5rWQq5YXVc6HxKDQMSoGuT2pPK3_jwQ9wSnwYsaaJmTrPNeev4zBJsgiccILAep3BF9GLHIOuCrRtHkPuZYd7hCnbJBV8L9gaCMMbEJYnZdR0RuBbKVF_4JKKZX-07vDTeb_n_6XDLs_2P138ddG5NFgG7MnFum8ll8b5PSq8b_c8dPWAxKgsGCo0oPxG4ohdSdMsdTS7KKGNtmtN5iI4J2z4pKwmLd0IMEfmyu8dIACM6TEYTn_NDfyODwZ2d0XfGEsOhM_0l4BXKh3Njk2g-UZKtEb6HSVAFVMeloO_q5guitzBuIv9GHfXgaYaLuFH7yl0S5EuPVnO3qM7uoN7AAKjypFJQr2vyDiIbRxmHNDmfLmNq4RRXRSct8SsTlBvfutB_Nek3qpktT3OtANjGAyqwFhTjDXHeTzfgpluiqmcyy5MZo76LfEGmTzWEftxzIPaT9DTdDu64j9Vo1RGTd84CkZrxIXrLI-0pdYq6D9lGEU236UgqHu8khJ3-Kqdv0y0]--></g></svg>