<?xml version="1.0" encoding="us-ascii" standalone="no"?><svg xmlns="http://www.w3.org/2000/svg" xmlns:xlink="http://www.w3.org/1999/xlink" contentStyleType="text/css" height="896px" preserveAspectRatio="none" style="width:1740px;height:896px;background:#FFFFFF;" version="1.1" viewBox="0 0 1740 896" width="1740px" zoomAndPan="magnify"><defs/><g><!--class CreateExamUI--><g id="elem_CreateExamUI"><rect codeLine="9" fill="#F1F1F1" height="79.2031" id="CreateExamUI" rx="2.5" ry="2.5" style="stroke:#181818;stroke-width:0.5;" width="121" x="439.5" y="7"/><ellipse cx="454.5" cy="29.291" fill="#C2C2C2" rx="11" ry="11" style="stroke:#181818;stroke-width:1.0;"/><path d="M457.2656,25.166 Q457.4219,24.9473 457.6094,24.8379 Q457.7969,24.7285 458.0156,24.7285 Q458.3906,24.7285 458.625,24.9941 Q458.8594,25.2441 458.8594,25.8535 L458.8594,27.3066 Q458.8594,27.916 458.625,28.1816 Q458.3906,28.4473 458.0156,28.4473 Q457.6719,28.4473 457.4688,28.2441 Q457.2656,28.0566 457.1563,27.541 Q457.1094,27.1816 456.9219,26.9941 Q456.5938,26.6191 455.9844,26.4004 Q455.375,26.1816 454.75,26.1816 Q453.9844,26.1816 453.3438,26.5098 Q452.7188,26.8379 452.2188,27.5879 Q451.7344,28.3379 451.7344,29.3691 L451.7344,30.4629 Q451.7344,31.6973 452.625,32.5254 Q453.5156,33.3379 455.1094,33.3379 Q456.0469,33.3379 456.7031,33.0879 Q457.0938,32.9316 457.5156,32.4941 Q457.7813,32.2285 457.9219,32.1504 Q458.0781,32.0723 458.2813,32.0723 Q458.6094,32.0723 458.8594,32.3379 Q459.125,32.5879 459.125,32.9316 Q459.125,33.2754 458.7813,33.6816 Q458.2813,34.2598 457.4844,34.5879 Q456.4063,35.041 455.1094,35.041 Q453.5938,35.041 452.3906,34.416 Q451.4063,33.916 450.7188,32.8535 Q450.0313,31.7754 450.0313,30.4941 L450.0313,29.3379 Q450.0313,28.0098 450.6406,26.8691 Q451.2656,25.7129 452.3594,25.1035 Q453.4531,24.4785 454.6875,24.4785 Q455.4219,24.4785 456.0625,24.6504 Q456.7188,24.8066 457.2656,25.166 Z " fill="#000000"/><text fill="#000000" font-family="FG Virgil" font-size="12" font-style="italic" lengthAdjust="spacing" textLength="75" x="475.5" y="24.9492">&#171;presntation&#187;</text><text fill="#000000" font-family="FG Virgil" font-size="14" lengthAdjust="spacing" textLength="89" x="468.5" y="43.0684">CreateExamUI</text><line style="stroke:#181818;stroke-width:0.5;" x1="440.5" x2="559.5" y1="51.582" y2="51.582"/><line style="stroke:#181818;stroke-width:0.5;" x1="440.5" x2="559.5" y1="59.582" y2="59.582"/><text fill="#000000" font-family="FG Virgil" font-size="14" lengthAdjust="spacing" textLength="60" x="445.5" y="78.6895">doShow()</text></g><!--class CreateExamController--><g id="elem_CreateExamController"><rect codeLine="13" fill="#F1F1F1" height="79.2031" id="CreateExamController" rx="2.5" ry="2.5" style="stroke:#181818;stroke-width:0.5;" width="178" x="411" y="140"/><ellipse cx="429.15" cy="162.291" fill="#C2C2C2" rx="11" ry="11" style="stroke:#181818;stroke-width:1.0;"/><path d="M431.9156,158.166 Q432.0719,157.9473 432.2594,157.8379 Q432.4469,157.7285 432.6656,157.7285 Q433.0406,157.7285 433.275,157.9941 Q433.5094,158.2441 433.5094,158.8535 L433.5094,160.3066 Q433.5094,160.916 433.275,161.1816 Q433.0406,161.4473 432.6656,161.4473 Q432.3219,161.4473 432.1188,161.2441 Q431.9156,161.0566 431.8063,160.541 Q431.7594,160.1816 431.5719,159.9941 Q431.2438,159.6191 430.6344,159.4004 Q430.025,159.1816 429.4,159.1816 Q428.6344,159.1816 427.9938,159.5098 Q427.3688,159.8379 426.8688,160.5879 Q426.3844,161.3379 426.3844,162.3691 L426.3844,163.4629 Q426.3844,164.6973 427.275,165.5254 Q428.1656,166.3379 429.7594,166.3379 Q430.6969,166.3379 431.3531,166.0879 Q431.7438,165.9316 432.1656,165.4941 Q432.4313,165.2285 432.5719,165.1504 Q432.7281,165.0723 432.9313,165.0723 Q433.2594,165.0723 433.5094,165.3379 Q433.775,165.5879 433.775,165.9316 Q433.775,166.2754 433.4313,166.6816 Q432.9313,167.2598 432.1344,167.5879 Q431.0563,168.041 429.7594,168.041 Q428.2438,168.041 427.0406,167.416 Q426.0563,166.916 425.3688,165.8535 Q424.6813,164.7754 424.6813,163.4941 L424.6813,162.3379 Q424.6813,161.0098 425.2906,159.8691 Q425.9156,158.7129 427.0094,158.1035 Q428.1031,157.4785 429.3375,157.4785 Q430.0719,157.4785 430.7125,157.6504 Q431.3688,157.8066 431.9156,158.166 Z " fill="#000000"/><text fill="#000000" font-family="FG Virgil" font-size="12" font-style="italic" lengthAdjust="spacing" textLength="74" x="476.35" y="157.9492">&#171;application&#187;</text><text fill="#000000" font-family="FG Virgil" font-size="14" lengthAdjust="spacing" textLength="139" x="443.85" y="176.0684">CreateExamController</text><line style="stroke:#181818;stroke-width:0.5;" x1="412" x2="588" y1="184.582" y2="184.582"/><line style="stroke:#181818;stroke-width:0.5;" x1="412" x2="588" y1="192.582" y2="192.582"/><text fill="#000000" font-family="FG Virgil" font-size="14" lengthAdjust="spacing" textLength="166" x="417" y="211.6895">createExam(String, String)</text></g><!--class ExamManagementService--><g id="elem_ExamManagementService"><rect codeLine="17" fill="#F1F1F1" height="79.2031" id="ExamManagementService" rx="2.5" ry="2.5" style="stroke:#181818;stroke-width:0.5;" width="258" x="371" y="273"/><ellipse cx="414.35" cy="295.291" fill="#C2C2C2" rx="11" ry="11" style="stroke:#181818;stroke-width:1.0;"/><path d="M417.1156,291.166 Q417.2719,290.9473 417.4594,290.8379 Q417.6469,290.7285 417.8656,290.7285 Q418.2406,290.7285 418.475,290.9941 Q418.7094,291.2441 418.7094,291.8535 L418.7094,293.3066 Q418.7094,293.916 418.475,294.1816 Q418.2406,294.4473 417.8656,294.4473 Q417.5219,294.4473 417.3188,294.2441 Q417.1156,294.0566 417.0063,293.541 Q416.9594,293.1816 416.7719,292.9941 Q416.4438,292.6191 415.8344,292.4004 Q415.225,292.1816 414.6,292.1816 Q413.8344,292.1816 413.1938,292.5098 Q412.5688,292.8379 412.0688,293.5879 Q411.5844,294.3379 411.5844,295.3691 L411.5844,296.4629 Q411.5844,297.6973 412.475,298.5254 Q413.3656,299.3379 414.9594,299.3379 Q415.8969,299.3379 416.5531,299.0879 Q416.9438,298.9316 417.3656,298.4941 Q417.6313,298.2285 417.7719,298.1504 Q417.9281,298.0723 418.1313,298.0723 Q418.4594,298.0723 418.7094,298.3379 Q418.975,298.5879 418.975,298.9316 Q418.975,299.2754 418.6313,299.6816 Q418.1313,300.2598 417.3344,300.5879 Q416.2563,301.041 414.9594,301.041 Q413.4438,301.041 412.2406,300.416 Q411.2563,299.916 410.5688,298.8535 Q409.8813,297.7754 409.8813,296.4941 L409.8813,295.3379 Q409.8813,294.0098 410.4906,292.8691 Q411.1156,291.7129 412.2094,291.1035 Q413.3031,290.4785 414.5375,290.4785 Q415.2719,290.4785 415.9125,290.6504 Q416.5688,290.8066 417.1156,291.166 Z " fill="#000000"/><text fill="#000000" font-family="FG Virgil" font-size="12" font-style="italic" lengthAdjust="spacing" textLength="53" x="489.65" y="290.9492">&#171;service&#187;</text><text fill="#000000" font-family="FG Virgil" font-size="14" lengthAdjust="spacing" textLength="163" x="434.65" y="309.0684">ExamManagementService</text><line style="stroke:#181818;stroke-width:0.5;" x1="372" x2="628" y1="317.582" y2="317.582"/><line style="stroke:#181818;stroke-width:0.5;" x1="372" x2="628" y1="325.582" y2="325.582"/><text fill="#000000" font-family="FG Virgil" font-size="14" lengthAdjust="spacing" textLength="246" x="377" y="344.6895">createExam(String, CourseCode, User)</text></g><!--class AuthorizationService--><g id="elem_AuthorizationService"><rect codeLine="21" fill="#F1F1F1" height="97.8242" id="AuthorizationService" rx="2.5" ry="2.5" style="stroke:#181818;stroke-width:0.5;" width="286" x="357" y="671.5"/><ellipse cx="431.25" cy="693.791" fill="#C2C2C2" rx="11" ry="11" style="stroke:#181818;stroke-width:1.0;"/><path d="M434.0156,689.666 Q434.1719,689.4473 434.3594,689.3379 Q434.5469,689.2285 434.7656,689.2285 Q435.1406,689.2285 435.375,689.4941 Q435.6094,689.7441 435.6094,690.3535 L435.6094,691.8066 Q435.6094,692.416 435.375,692.6816 Q435.1406,692.9473 434.7656,692.9473 Q434.4219,692.9473 434.2188,692.7441 Q434.0156,692.5566 433.9063,692.041 Q433.8594,691.6816 433.6719,691.4941 Q433.3438,691.1191 432.7344,690.9004 Q432.125,690.6816 431.5,690.6816 Q430.7344,690.6816 430.0938,691.0098 Q429.4688,691.3379 428.9688,692.0879 Q428.4844,692.8379 428.4844,693.8691 L428.4844,694.9629 Q428.4844,696.1973 429.375,697.0254 Q430.2656,697.8379 431.8594,697.8379 Q432.7969,697.8379 433.4531,697.5879 Q433.8438,697.4316 434.2656,696.9941 Q434.5313,696.7285 434.6719,696.6504 Q434.8281,696.5723 435.0313,696.5723 Q435.3594,696.5723 435.6094,696.8379 Q435.875,697.0879 435.875,697.4316 Q435.875,697.7754 435.5313,698.1816 Q435.0313,698.7598 434.2344,699.0879 Q433.1563,699.541 431.8594,699.541 Q430.3438,699.541 429.1406,698.916 Q428.1563,698.416 427.4688,697.3535 Q426.7813,696.2754 426.7813,694.9941 L426.7813,693.8379 Q426.7813,692.5098 427.3906,691.3691 Q428.0156,690.2129 429.1094,689.6035 Q430.2031,688.9785 431.4375,688.9785 Q432.1719,688.9785 432.8125,689.1504 Q433.4688,689.3066 434.0156,689.666 Z " fill="#000000"/><text fill="#000000" font-family="FG Virgil" font-size="12" font-style="italic" lengthAdjust="spacing" textLength="53" x="489.75" y="689.4492">&#171;service&#187;</text><text fill="#000000" font-family="FG Virgil" font-size="14" lengthAdjust="spacing" textLength="129" x="451.75" y="707.5684">AuthorizationService</text><line style="stroke:#181818;stroke-width:0.5;" x1="358" x2="642" y1="716.082" y2="716.082"/><line style="stroke:#181818;stroke-width:0.5;" x1="358" x2="642" y1="724.082" y2="724.082"/><text fill="#000000" font-family="FG Virgil" font-size="14" lengthAdjust="spacing" textLength="274" x="363" y="743.1895">ensureAuthenticatedUserHasAnyOf(Role...)</text><text fill="#000000" font-family="FG Virgil" font-size="14" lengthAdjust="spacing" textLength="58" x="363" y="761.8105">session()</text></g><!--class UserSession--><g id="elem_UserSession"><rect codeLine="26" fill="#F1F1F1" height="66.6211" id="UserSession" rx="2.5" ry="2.5" style="stroke:#181818;stroke-width:0.5;" width="137" x="431.5" y="823"/><ellipse cx="458.2" cy="839" fill="#C2C2C2" rx="11" ry="11" style="stroke:#181818;stroke-width:1.0;"/><path d="M460.9656,834.875 Q461.1219,834.6563 461.3094,834.5469 Q461.4969,834.4375 461.7156,834.4375 Q462.0906,834.4375 462.325,834.7031 Q462.5594,834.9531 462.5594,835.5625 L462.5594,837.0156 Q462.5594,837.625 462.325,837.8906 Q462.0906,838.1563 461.7156,838.1563 Q461.3719,838.1563 461.1688,837.9531 Q460.9656,837.7656 460.8563,837.25 Q460.8094,836.8906 460.6219,836.7031 Q460.2938,836.3281 459.6844,836.1094 Q459.075,835.8906 458.45,835.8906 Q457.6844,835.8906 457.0438,836.2188 Q456.4188,836.5469 455.9188,837.2969 Q455.4344,838.0469 455.4344,839.0781 L455.4344,840.1719 Q455.4344,841.4063 456.325,842.2344 Q457.2156,843.0469 458.8094,843.0469 Q459.7469,843.0469 460.4031,842.7969 Q460.7938,842.6406 461.2156,842.2031 Q461.4813,841.9375 461.6219,841.8594 Q461.7781,841.7813 461.9813,841.7813 Q462.3094,841.7813 462.5594,842.0469 Q462.825,842.2969 462.825,842.6406 Q462.825,842.9844 462.4813,843.3906 Q461.9813,843.9688 461.1844,844.2969 Q460.1063,844.75 458.8094,844.75 Q457.2938,844.75 456.0906,844.125 Q455.1063,843.625 454.4188,842.5625 Q453.7313,841.4844 453.7313,840.2031 L453.7313,839.0469 Q453.7313,837.7188 454.3406,836.5781 Q454.9656,835.4219 456.0594,834.8125 Q457.1531,834.1875 458.3875,834.1875 Q459.1219,834.1875 459.7625,834.3594 Q460.4188,834.5156 460.9656,834.875 Z " fill="#000000"/><text fill="#000000" font-family="FG Virgil" font-size="14" lengthAdjust="spacing" textLength="79" x="474.8" y="844.7969">UserSession</text><line style="stroke:#181818;stroke-width:0.5;" x1="432.5" x2="567.5" y1="855" y2="855"/><line style="stroke:#181818;stroke-width:0.5;" x1="432.5" x2="567.5" y1="863" y2="863"/><text fill="#000000" font-family="FG Virgil" font-size="14" lengthAdjust="spacing" textLength="125" x="437.5" y="882.1074">authenticatedUser()</text></g><!--class class:ExamTemplate--><g id="elem_class:ExamTemplate"><rect codeLine="31" fill="#F1F1F1" height="79.2031" id="class:ExamTemplate" rx="2.5" ry="2.5" style="stroke:#181818;stroke-width:0.5;" width="860" x="70" y="557"/><ellipse cx="431.25" cy="579.291" fill="#C2C2C2" rx="11" ry="11" style="stroke:#181818;stroke-width:1.0;"/><path d="M434.0156,575.166 Q434.1719,574.9473 434.3594,574.8379 Q434.5469,574.7285 434.7656,574.7285 Q435.1406,574.7285 435.375,574.9941 Q435.6094,575.2441 435.6094,575.8535 L435.6094,577.3066 Q435.6094,577.916 435.375,578.1816 Q435.1406,578.4473 434.7656,578.4473 Q434.4219,578.4473 434.2188,578.2441 Q434.0156,578.0566 433.9063,577.541 Q433.8594,577.1816 433.6719,576.9941 Q433.3438,576.6191 432.7344,576.4004 Q432.125,576.1816 431.5,576.1816 Q430.7344,576.1816 430.0938,576.5098 Q429.4688,576.8379 428.9688,577.5879 Q428.4844,578.3379 428.4844,579.3691 L428.4844,580.4629 Q428.4844,581.6973 429.375,582.5254 Q430.2656,583.3379 431.8594,583.3379 Q432.7969,583.3379 433.4531,583.0879 Q433.8438,582.9316 434.2656,582.4941 Q434.5313,582.2285 434.6719,582.1504 Q434.8281,582.0723 435.0313,582.0723 Q435.3594,582.0723 435.6094,582.3379 Q435.875,582.5879 435.875,582.9316 Q435.875,583.2754 435.5313,583.6816 Q435.0313,584.2598 434.2344,584.5879 Q433.1563,585.041 431.8594,585.041 Q430.3438,585.041 429.1406,584.416 Q428.1563,583.916 427.4688,582.8535 Q426.7813,581.7754 426.7813,580.4941 L426.7813,579.3379 Q426.7813,578.0098 427.3906,576.8691 Q428.0156,575.7129 429.1094,575.1035 Q430.2031,574.4785 431.4375,574.4785 Q432.1719,574.4785 432.8125,574.6504 Q433.4688,574.8066 434.0156,575.166 Z " fill="#000000"/><text fill="#000000" font-family="FG Virgil" font-size="12" font-style="italic" lengthAdjust="spacing" textLength="56" x="488.25" y="574.9492">&#171;domain&#187;</text><text fill="#000000" font-family="FG Virgil" font-size="14" lengthAdjust="spacing" textLength="129" x="451.75" y="593.0684">class:ExamTemplate</text><line style="stroke:#181818;stroke-width:0.5;" x1="71" x2="929" y1="601.582" y2="601.582"/><line style="stroke:#181818;stroke-width:0.5;" x1="71" x2="929" y1="609.582" y2="609.582"/><text fill="#000000" font-family="FG Virgil" font-size="14" lengthAdjust="spacing" textLength="848" x="76" y="628.6895">ExamTemplate(ExamTitle, OpenDate, CloseDate, ExamDescription, FeedbackType, GradeType, Sections, Teacher, Students, Course)</text></g><!--class ExamBuilder--><g id="elem_ExamBuilder"><rect codeLine="35" fill="#F1F1F1" height="97.8242" id="ExamBuilder" rx="2.5" ry="2.5" style="stroke:#181818;stroke-width:0.5;" width="791" x="104.5" y="405.5"/><ellipse cx="456.75" cy="427.791" fill="#C2C2C2" rx="11" ry="11" style="stroke:#181818;stroke-width:1.0;"/><path d="M459.5156,423.666 Q459.6719,423.4473 459.8594,423.3379 Q460.0469,423.2285 460.2656,423.2285 Q460.6406,423.2285 460.875,423.4941 Q461.1094,423.7441 461.1094,424.3535 L461.1094,425.8066 Q461.1094,426.416 460.875,426.6816 Q460.6406,426.9473 460.2656,426.9473 Q459.9219,426.9473 459.7188,426.7441 Q459.5156,426.5566 459.4063,426.041 Q459.3594,425.6816 459.1719,425.4941 Q458.8438,425.1191 458.2344,424.9004 Q457.625,424.6816 457,424.6816 Q456.2344,424.6816 455.5938,425.0098 Q454.9688,425.3379 454.4688,426.0879 Q453.9844,426.8379 453.9844,427.8691 L453.9844,428.9629 Q453.9844,430.1973 454.875,431.0254 Q455.7656,431.8379 457.3594,431.8379 Q458.2969,431.8379 458.9531,431.5879 Q459.3438,431.4316 459.7656,430.9941 Q460.0313,430.7285 460.1719,430.6504 Q460.3281,430.5723 460.5313,430.5723 Q460.8594,430.5723 461.1094,430.8379 Q461.375,431.0879 461.375,431.4316 Q461.375,431.7754 461.0313,432.1816 Q460.5313,432.7598 459.7344,433.0879 Q458.6563,433.541 457.3594,433.541 Q455.8438,433.541 454.6406,432.916 Q453.6563,432.416 452.9688,431.3535 Q452.2813,430.2754 452.2813,428.9941 L452.2813,427.8379 Q452.2813,426.5098 452.8906,425.3691 Q453.5156,424.2129 454.6094,423.6035 Q455.7031,422.9785 456.9375,422.9785 Q457.6719,422.9785 458.3125,423.1504 Q458.9688,423.3066 459.5156,423.666 Z " fill="#000000"/><text fill="#000000" font-family="FG Virgil" font-size="12" font-style="italic" lengthAdjust="spacing" textLength="42" x="495.25" y="423.4492">&#171;build&#187;</text><text fill="#000000" font-family="FG Virgil" font-size="14" lengthAdjust="spacing" textLength="78" x="477.25" y="441.5684">ExamBuilder</text><line style="stroke:#181818;stroke-width:0.5;" x1="105.5" x2="894.5" y1="450.082" y2="450.082"/><line style="stroke:#181818;stroke-width:0.5;" x1="105.5" x2="894.5" y1="458.082" y2="458.082"/><text fill="#000000" font-family="FG Virgil" font-size="14" lengthAdjust="spacing" textLength="40" x="110.5" y="477.1895">build()</text><text fill="#000000" font-family="FG Virgil" font-size="14" lengthAdjust="spacing" textLength="779" x="110.5" y="495.8105">with(ExamTitle, OpenDate, CloseDate, ExamDescription, FeedbackType, GradeType, Sections, Teacher, Students, Course)</text></g><!--class PersistenceContext--><g id="elem_PersistenceContext"><rect codeLine="41" fill="#F1F1F1" height="79.2031" id="PersistenceContext" rx="2.5" ry="2.5" style="stroke:#181818;stroke-width:0.5;" width="154" x="1059" y="218"/><ellipse cx="1074" cy="240.291" fill="#C2C2C2" rx="11" ry="11" style="stroke:#181818;stroke-width:1.0;"/><path d="M1076.7656,236.166 Q1076.9219,235.9473 1077.1094,235.8379 Q1077.2969,235.7285 1077.5156,235.7285 Q1077.8906,235.7285 1078.125,235.9941 Q1078.3594,236.2441 1078.3594,236.8535 L1078.3594,238.3066 Q1078.3594,238.916 1078.125,239.1816 Q1077.8906,239.4473 1077.5156,239.4473 Q1077.1719,239.4473 1076.9688,239.2441 Q1076.7656,239.0566 1076.6563,238.541 Q1076.6094,238.1816 1076.4219,237.9941 Q1076.0938,237.6191 1075.4844,237.4004 Q1074.875,237.1816 1074.25,237.1816 Q1073.4844,237.1816 1072.8438,237.5098 Q1072.2188,237.8379 1071.7188,238.5879 Q1071.2344,239.3379 1071.2344,240.3691 L1071.2344,241.4629 Q1071.2344,242.6973 1072.125,243.5254 Q1073.0156,244.3379 1074.6094,244.3379 Q1075.5469,244.3379 1076.2031,244.0879 Q1076.5938,243.9316 1077.0156,243.4941 Q1077.2813,243.2285 1077.4219,243.1504 Q1077.5781,243.0723 1077.7813,243.0723 Q1078.1094,243.0723 1078.3594,243.3379 Q1078.625,243.5879 1078.625,243.9316 Q1078.625,244.2754 1078.2813,244.6816 Q1077.7813,245.2598 1076.9844,245.5879 Q1075.9063,246.041 1074.6094,246.041 Q1073.0938,246.041 1071.8906,245.416 Q1070.9063,244.916 1070.2188,243.8535 Q1069.5313,242.7754 1069.5313,241.4941 L1069.5313,240.3379 Q1069.5313,239.0098 1070.1406,237.8691 Q1070.7656,236.7129 1071.8594,236.1035 Q1072.9531,235.4785 1074.1875,235.4785 Q1074.9219,235.4785 1075.5625,235.6504 Q1076.2188,235.8066 1076.7656,236.166 Z " fill="#000000"/><text fill="#000000" font-family="FG Virgil" font-size="12" font-style="italic" lengthAdjust="spacing" textLength="77" x="1110.5" y="235.9492">&#171;persistence&#187;</text><text fill="#000000" font-family="FG Virgil" font-size="14" lengthAdjust="spacing" textLength="122" x="1088" y="254.0684">PersistenceContext</text><line style="stroke:#181818;stroke-width:0.5;" x1="1060" x2="1212" y1="262.582" y2="262.582"/><line style="stroke:#181818;stroke-width:0.5;" x1="1060" x2="1212" y1="270.582" y2="270.582"/><text fill="#000000" font-family="FG Virgil" font-size="14" lengthAdjust="spacing" textLength="84" x="1065" y="289.6895">repositories()</text></g><!--class RepositoryFactory--><g id="elem_RepositoryFactory"><rect codeLine="45" fill="#F1F1F1" height="79.2031" id="RepositoryFactory" rx="2.5" ry="2.5" style="stroke:#181818;stroke-width:0.5;" width="148" x="1332" y="218"/><ellipse cx="1347" cy="240.291" fill="#C2C2C2" rx="11" ry="11" style="stroke:#181818;stroke-width:1.0;"/><path d="M1349.7656,236.166 Q1349.9219,235.9473 1350.1094,235.8379 Q1350.2969,235.7285 1350.5156,235.7285 Q1350.8906,235.7285 1351.125,235.9941 Q1351.3594,236.2441 1351.3594,236.8535 L1351.3594,238.3066 Q1351.3594,238.916 1351.125,239.1816 Q1350.8906,239.4473 1350.5156,239.4473 Q1350.1719,239.4473 1349.9688,239.2441 Q1349.7656,239.0566 1349.6563,238.541 Q1349.6094,238.1816 1349.4219,237.9941 Q1349.0938,237.6191 1348.4844,237.4004 Q1347.875,237.1816 1347.25,237.1816 Q1346.4844,237.1816 1345.8438,237.5098 Q1345.2188,237.8379 1344.7188,238.5879 Q1344.2344,239.3379 1344.2344,240.3691 L1344.2344,241.4629 Q1344.2344,242.6973 1345.125,243.5254 Q1346.0156,244.3379 1347.6094,244.3379 Q1348.5469,244.3379 1349.2031,244.0879 Q1349.5938,243.9316 1350.0156,243.4941 Q1350.2813,243.2285 1350.4219,243.1504 Q1350.5781,243.0723 1350.7813,243.0723 Q1351.1094,243.0723 1351.3594,243.3379 Q1351.625,243.5879 1351.625,243.9316 Q1351.625,244.2754 1351.2813,244.6816 Q1350.7813,245.2598 1349.9844,245.5879 Q1348.9063,246.041 1347.6094,246.041 Q1346.0938,246.041 1344.8906,245.416 Q1343.9063,244.916 1343.2188,243.8535 Q1342.5313,242.7754 1342.5313,241.4941 L1342.5313,240.3379 Q1342.5313,239.0098 1343.1406,237.8691 Q1343.7656,236.7129 1344.8594,236.1035 Q1345.9531,235.4785 1347.1875,235.4785 Q1347.9219,235.4785 1348.5625,235.6504 Q1349.2188,235.8066 1349.7656,236.166 Z " fill="#000000"/><text fill="#000000" font-family="FG Virgil" font-size="12" font-style="italic" lengthAdjust="spacing" textLength="50" x="1394" y="235.9492">&#171;factory&#187;</text><text fill="#000000" font-family="FG Virgil" font-size="14" lengthAdjust="spacing" textLength="116" x="1361" y="254.0684">RepositoryFactory</text><line style="stroke:#181818;stroke-width:0.5;" x1="1333" x2="1479" y1="262.582" y2="262.582"/><line style="stroke:#181818;stroke-width:0.5;" x1="1333" x2="1479" y1="270.582" y2="270.582"/><text fill="#000000" font-family="FG Virgil" font-size="14" lengthAdjust="spacing" textLength="60" x="1338" y="289.6895">courses()</text></g><!--class ExamRepository--><g id="elem_ExamRepository"><rect codeLine="49" fill="#F1F1F1" height="79.2031" id="ExamRepository" rx="2.5" ry="2.5" style="stroke:#181818;stroke-width:0.5;" width="134" x="1599" y="282"/><ellipse cx="1614" cy="304.291" fill="#C2C2C2" rx="11" ry="11" style="stroke:#181818;stroke-width:1.0;"/><path d="M1616.7656,300.166 Q1616.9219,299.9473 1617.1094,299.8379 Q1617.2969,299.7285 1617.5156,299.7285 Q1617.8906,299.7285 1618.125,299.9941 Q1618.3594,300.2441 1618.3594,300.8535 L1618.3594,302.3066 Q1618.3594,302.916 1618.125,303.1816 Q1617.8906,303.4473 1617.5156,303.4473 Q1617.1719,303.4473 1616.9688,303.2441 Q1616.7656,303.0566 1616.6563,302.541 Q1616.6094,302.1816 1616.4219,301.9941 Q1616.0938,301.6191 1615.4844,301.4004 Q1614.875,301.1816 1614.25,301.1816 Q1613.4844,301.1816 1612.8438,301.5098 Q1612.2188,301.8379 1611.7188,302.5879 Q1611.2344,303.3379 1611.2344,304.3691 L1611.2344,305.4629 Q1611.2344,306.6973 1612.125,307.5254 Q1613.0156,308.3379 1614.6094,308.3379 Q1615.5469,308.3379 1616.2031,308.0879 Q1616.5938,307.9316 1617.0156,307.4941 Q1617.2813,307.2285 1617.4219,307.1504 Q1617.5781,307.0723 1617.7813,307.0723 Q1618.1094,307.0723 1618.3594,307.3379 Q1618.625,307.5879 1618.625,307.9316 Q1618.625,308.2754 1618.2813,308.6816 Q1617.7813,309.2598 1616.9844,309.5879 Q1615.9063,310.041 1614.6094,310.041 Q1613.0938,310.041 1611.8906,309.416 Q1610.9063,308.916 1610.2188,307.8535 Q1609.5313,306.7754 1609.5313,305.4941 L1609.5313,304.3379 Q1609.5313,303.0098 1610.1406,301.8691 Q1610.7656,300.7129 1611.8594,300.1035 Q1612.9531,299.4785 1614.1875,299.4785 Q1614.9219,299.4785 1615.5625,299.6504 Q1616.2188,299.8066 1616.7656,300.166 Z " fill="#000000"/><text fill="#000000" font-family="FG Virgil" font-size="12" font-style="italic" lengthAdjust="spacing" textLength="68" x="1645" y="299.9492">&#171;repository&#187;</text><text fill="#000000" font-family="FG Virgil" font-size="14" lengthAdjust="spacing" textLength="102" x="1628" y="318.0684">ExamRepository</text><line style="stroke:#181818;stroke-width:0.5;" x1="1600" x2="1732" y1="326.582" y2="326.582"/><line style="stroke:#181818;stroke-width:0.5;" x1="1600" x2="1732" y1="334.582" y2="334.582"/><text fill="#000000" font-family="FG Virgil" font-size="14" lengthAdjust="spacing" textLength="74" x="1605" y="353.6895">save(Exam)</text></g><!--link CreateExamUI to CreateExamController--><g id="link_CreateExamUI_CreateExamController"><path codeLine="53" d="M500,86.12 C500,101.4 500,118.96 500,134.69 " fill="none" id="CreateExamUI-to-CreateExamController" style="stroke:#181818;stroke-width:1.0;"/><polygon fill="#181818" points="500,139.96,504,130.96,500,134.96,496,130.96,500,139.96" style="stroke:#181818;stroke-width:1.0;"/><text fill="#000000" font-family="FG Virgil" font-size="13" lengthAdjust="spacing" textLength="73" x="451" y="118.5283">theController</text></g><!--link CreateExamController to ExamManagementService--><g id="link_CreateExamController_ExamManagementService"><path codeLine="54" d="M500,219.12 C500,234.4 500,251.96 500,267.69 " fill="none" id="CreateExamController-to-ExamManagementService" style="stroke:#181818;stroke-width:1.0;"/><polygon fill="#181818" points="500,272.96,504,263.96,500,267.96,496,263.96,500,272.96" style="stroke:#181818;stroke-width:1.0;"/><text fill="#000000" font-family="FG Virgil" font-size="13" lengthAdjust="spacing" textLength="60" x="457.5" y="251.5283">theService</text></g><!--link ExamManagementService to AuthorizationService--><g id="link_ExamManagementService_AuthorizationService"><path codeLine="55" d="M370.97,296.92 C276.25,293.46 152.77,307.2 85,388.5 C9.59,478.97 8.64,563.83 85,653.5 C148.73,728.35 260.3,742.98 351.71,740.04 " fill="none" id="ExamManagementService-to-AuthorizationService" style="stroke:#181818;stroke-width:1.0;"/><polygon fill="#181818" points="356.87,739.86,347.7273,736.1978,351.8735,740.0461,348.0251,744.1922,356.87,739.86" style="stroke:#181818;stroke-width:1.0;"/><text fill="#000000" font-family="FG Virgil" font-size="13" lengthAdjust="spacing" textLength="32" x="7" y="518.0283">autzh</text></g><!--link AuthorizationService to UserSession--><g id="link_AuthorizationService_UserSession"><path codeLine="56" d="M500,769.65 C500,785.39 500,802.59 500,817.5 " fill="none" id="AuthorizationService-to-UserSession" style="stroke:#181818;stroke-width:1.0;"/><polygon fill="#181818" points="500,822.88,504,813.88,500,817.88,496,813.88,500,822.88" style="stroke:#181818;stroke-width:1.0;"/><text fill="#000000" font-family="FG Virgil" font-size="13" lengthAdjust="spacing" textLength="45" x="465" y="801.7783">session</text></g><!--link ExamManagementService to ExamBuilder--><g id="link_ExamManagementService_ExamBuilder"><path codeLine="57" d="M500,352.3 C500,367.06 500,384.06 500,399.91 " fill="none" id="ExamManagementService-to-ExamBuilder" style="stroke:#181818;stroke-width:1.0;"/><polygon fill="#181818" points="500,405.23,504,396.23,500,400.23,496,396.23,500,405.23" style="stroke:#181818;stroke-width:1.0;"/><text fill="#000000" font-family="FG Virgil" font-size="13" lengthAdjust="spacing" textLength="58" x="458.5" y="384.2783">theBuilder</text></g><!--link ExamBuilder to class:ExamTemplate--><g id="link_ExamBuilder_class:ExamTemplate"><path codeLine="58" d="M500,503.72 C500,519.35 500,536.54 500,551.84 " fill="none" id="ExamBuilder-to-class:ExamTemplate" style="stroke:#181818;stroke-width:1.0;"/><polygon fill="#181818" points="500,556.95,504,547.95,500,551.95,496,547.95,500,556.95" style="stroke:#181818;stroke-width:1.0;"/><text fill="#000000" font-family="FG Virgil" font-size="13" lengthAdjust="spacing" textLength="32" x="471.5" y="535.7783">exam</text></g><!--link ExamManagementService to PersistenceContext--><g id="link_ExamManagementService_PersistenceContext"><path codeLine="59" d="M629.3,301.37 C756.1,290.37 946.23,273.88 1053.59,264.56 " fill="none" id="ExamManagementService-to-PersistenceContext" style="stroke:#181818;stroke-width:1.0;"/><polygon fill="#181818" points="1058.64,264.12,1049.3305,260.9055,1053.6584,264.5482,1050.0156,268.8761,1058.64,264.12" style="stroke:#181818;stroke-width:1.0;"/><text fill="#000000" font-family="FG Virgil" font-size="13" lengthAdjust="spacing" textLength="67" x="961" y="263.5283">persistence</text></g><!--link PersistenceContext to RepositoryFactory--><g id="link_PersistenceContext_RepositoryFactory"><path codeLine="60" d="M1213.08,257.5 C1248.63,257.5 1290.91,257.5 1326.73,257.5 " fill="none" id="PersistenceContext-to-RepositoryFactory" style="stroke:#181818;stroke-width:1.0;"/><polygon fill="#181818" points="1331.96,257.5,1322.96,253.5,1326.96,257.5,1322.96,261.5,1331.96,257.5" style="stroke:#181818;stroke-width:1.0;"/><text fill="#000000" font-family="FG Virgil" font-size="13" lengthAdjust="spacing" textLength="39" x="1253" y="253.5283">factory</text></g><!--link RepositoryFactory to ExamRepository--><g id="link_RepositoryFactory_ExamRepository"><path codeLine="61" d="M1480.24,275.67 C1515.74,284.47 1558.21,295.01 1593.48,303.76 " fill="none" id="RepositoryFactory-to-ExamRepository" style="stroke:#181818;stroke-width:1.0;"/><polygon fill="#181818" points="1598.63,305.04,1590.8521,298.9981,1593.7759,303.8408,1588.9333,306.7646,1598.63,305.04" style="stroke:#181818;stroke-width:1.0;"/><text fill="#000000" font-family="FG Virgil" font-size="13" lengthAdjust="spacing" textLength="57" x="1511" y="280.5283">repository</text></g><!--link ExamManagementService to ExamRepository--><g id="link_ExamManagementService_ExamRepository"><path codeLine="62" d="M629.18,313.49 C874.3,315.39 1402.16,319.47 1593.71,320.95 " fill="none" id="ExamManagementService-to-ExamRepository" style="stroke:#181818;stroke-width:1.0;"/><polygon fill="#181818" points="1598.73,320.99,1589.7646,316.913,1593.7302,320.9471,1589.696,324.9127,1598.73,320.99" style="stroke:#181818;stroke-width:1.0;"/><text fill="#000000" font-family="FG Virgil" font-size="13" lengthAdjust="spacing" textLength="57" x="1244" y="313.5283">repository</text></g><!--SRC=[nLF1Rjim3BthAuIUN23D1nX5W2vTkXss3dMwkoeniL1PCaIvgJlitqVPJgmqJgxpnPButjEZIEAhjhNmekALiqwMtbN0Ws-0uI5I2_agjb24rW3t84CIKx0HZGahPyDFGTJL0_-j_LQR18EbK6wdxPPlX45WpC0cyE2urzioSAMZfdQMCMa48bzw406-lelg-Jk_lQqze0qY8XOB_eTn-fGhIhVBhjdVKzAIl7Xd37WYYxesMXwJvG6Q5S6Jhndl_ubSZFuGbjAkm8O2_9kMG7hOhovfBLtZ4PPEmOm_4pvHlMj2wRp-wFoS5mMBZOS8fhkZUr1Hw9l0Ezi-Rh8dPs0-drztO0H4KalV8eAB_dXG59-rUlY0l-f-USnY3LLj27H5jfIhX1wVBGrdtKO7Gpa-rc3lwOmoDmwXNyRuFQ3qkewvplWAGBrG8wtRci8FNYZebqLVV9pnDGXPWe_LQ1IvnVrRVghBbqORrLNt9QuE1hjTrh_AJeVoFvWSNFu2Zne3M0cn6-4zn3uU3m-MFTGETQ2U04mh-BG_RrT2nX_nD_rgRBtksYDQJ6Ya4kUWFz9GlFNbwtX7itQpc1wZd5FtZ7is2IBozD1qx673fY74dHoDF3RkHyacWqHA6ptVJyBvEzBcwLmD6vO623Sv3pa7sfyJ9zP4qNEU59rD02BljDOv7shDJcCtGnv9cVEnZTeB_Ywn_W40]--></g></svg>