<?xml version="1.0" encoding="us-ascii" standalone="no"?><svg xmlns="http://www.w3.org/2000/svg" xmlns:xlink="http://www.w3.org/1999/xlink" contentStyleType="text/css" height="896px" preserveAspectRatio="none" style="width:1740px;height:896px;background:#FFFFFF;" version="1.1" viewBox="0 0 1740 896" width="1740px" zoomAndPan="magnify"><defs/><g><!--class UpdatExamUI--><g id="elem_UpdatExamUI"><rect codeLine="9" fill="#F1F1F1" height="79.2031" id="UpdatExamUI" rx="2.5" ry="2.5" style="stroke:#181818;stroke-width:0.5;" width="115" x="442.5" y="7"/><ellipse cx="457.5" cy="29.291" fill="#C2C2C2" rx="11" ry="11" style="stroke:#181818;stroke-width:1.0;"/><path d="M460.2656,25.166 Q460.4219,24.9473 460.6094,24.8379 Q460.7969,24.7285 461.0156,24.7285 Q461.3906,24.7285 461.625,24.9941 Q461.8594,25.2441 461.8594,25.8535 L461.8594,27.3066 Q461.8594,27.916 461.625,28.1816 Q461.3906,28.4473 461.0156,28.4473 Q460.6719,28.4473 460.4688,28.2441 Q460.2656,28.0566 460.1563,27.541 Q460.1094,27.1816 459.9219,26.9941 Q459.5938,26.6191 458.9844,26.4004 Q458.375,26.1816 457.75,26.1816 Q456.9844,26.1816 456.3438,26.5098 Q455.7188,26.8379 455.2188,27.5879 Q454.7344,28.3379 454.7344,29.3691 L454.7344,30.4629 Q454.7344,31.6973 455.625,32.5254 Q456.5156,33.3379 458.1094,33.3379 Q459.0469,33.3379 459.7031,33.0879 Q460.0938,32.9316 460.5156,32.4941 Q460.7813,32.2285 460.9219,32.1504 Q461.0781,32.0723 461.2813,32.0723 Q461.6094,32.0723 461.8594,32.3379 Q462.125,32.5879 462.125,32.9316 Q462.125,33.2754 461.7813,33.6816 Q461.2813,34.2598 460.4844,34.5879 Q459.4063,35.041 458.1094,35.041 Q456.5938,35.041 455.3906,34.416 Q454.4063,33.916 453.7188,32.8535 Q453.0313,31.7754 453.0313,30.4941 L453.0313,29.3379 Q453.0313,28.0098 453.6406,26.8691 Q454.2656,25.7129 455.3594,25.1035 Q456.4531,24.4785 457.6875,24.4785 Q458.4219,24.4785 459.0625,24.6504 Q459.7188,24.8066 460.2656,25.166 Z " fill="#000000"/><text fill="#000000" font-family="FG Virgil" font-size="12" font-style="italic" lengthAdjust="spacing" textLength="75" x="475.5" y="24.9492">&#171;presntation&#187;</text><text fill="#000000" font-family="FG Virgil" font-size="14" lengthAdjust="spacing" textLength="83" x="471.5" y="43.0684">UpdatExamUI</text><line style="stroke:#181818;stroke-width:0.5;" x1="443.5" x2="556.5" y1="51.582" y2="51.582"/><line style="stroke:#181818;stroke-width:0.5;" x1="443.5" x2="556.5" y1="59.582" y2="59.582"/><text fill="#000000" font-family="FG Virgil" font-size="14" lengthAdjust="spacing" textLength="60" x="448.5" y="78.6895">doShow()</text></g><!--class UpdateExamController--><g id="elem_UpdateExamController"><rect codeLine="13" fill="#F1F1F1" height="79.2031" id="UpdateExamController" rx="2.5" ry="2.5" style="stroke:#181818;stroke-width:0.5;" width="182" x="409" y="140"/><ellipse cx="428.05" cy="162.291" fill="#C2C2C2" rx="11" ry="11" style="stroke:#181818;stroke-width:1.0;"/><path d="M430.8156,158.166 Q430.9719,157.9473 431.1594,157.8379 Q431.3469,157.7285 431.5656,157.7285 Q431.9406,157.7285 432.175,157.9941 Q432.4094,158.2441 432.4094,158.8535 L432.4094,160.3066 Q432.4094,160.916 432.175,161.1816 Q431.9406,161.4473 431.5656,161.4473 Q431.2219,161.4473 431.0188,161.2441 Q430.8156,161.0566 430.7063,160.541 Q430.6594,160.1816 430.4719,159.9941 Q430.1438,159.6191 429.5344,159.4004 Q428.925,159.1816 428.3,159.1816 Q427.5344,159.1816 426.8938,159.5098 Q426.2688,159.8379 425.7688,160.5879 Q425.2844,161.3379 425.2844,162.3691 L425.2844,163.4629 Q425.2844,164.6973 426.175,165.5254 Q427.0656,166.3379 428.6594,166.3379 Q429.5969,166.3379 430.2531,166.0879 Q430.6438,165.9316 431.0656,165.4941 Q431.3313,165.2285 431.4719,165.1504 Q431.6281,165.0723 431.8313,165.0723 Q432.1594,165.0723 432.4094,165.3379 Q432.675,165.5879 432.675,165.9316 Q432.675,166.2754 432.3313,166.6816 Q431.8313,167.2598 431.0344,167.5879 Q429.9563,168.041 428.6594,168.041 Q427.1438,168.041 425.9406,167.416 Q424.9563,166.916 424.2688,165.8535 Q423.5813,164.7754 423.5813,163.4941 L423.5813,162.3379 Q423.5813,161.0098 424.1906,159.8691 Q424.8156,158.7129 425.9094,158.1035 Q427.0031,157.4785 428.2375,157.4785 Q428.9719,157.4785 429.6125,157.6504 Q430.2688,157.8066 430.8156,158.166 Z " fill="#000000"/><text fill="#000000" font-family="FG Virgil" font-size="12" font-style="italic" lengthAdjust="spacing" textLength="74" x="476.45" y="157.9492">&#171;application&#187;</text><text fill="#000000" font-family="FG Virgil" font-size="14" lengthAdjust="spacing" textLength="141" x="442.95" y="176.0684">UpdateExamController</text><line style="stroke:#181818;stroke-width:0.5;" x1="410" x2="590" y1="184.582" y2="184.582"/><line style="stroke:#181818;stroke-width:0.5;" x1="410" x2="590" y1="192.582" y2="192.582"/><text fill="#000000" font-family="FG Virgil" font-size="14" lengthAdjust="spacing" textLength="170" x="415" y="211.6895">updateExam(String, String)</text></g><!--class ExamManagementService--><g id="elem_ExamManagementService"><rect codeLine="17" fill="#F1F1F1" height="79.2031" id="ExamManagementService" rx="2.5" ry="2.5" style="stroke:#181818;stroke-width:0.5;" width="209" x="395.5" y="273"/><ellipse cx="416.8" cy="295.291" fill="#C2C2C2" rx="11" ry="11" style="stroke:#181818;stroke-width:1.0;"/><path d="M419.5656,291.166 Q419.7219,290.9473 419.9094,290.8379 Q420.0969,290.7285 420.3156,290.7285 Q420.6906,290.7285 420.925,290.9941 Q421.1594,291.2441 421.1594,291.8535 L421.1594,293.3066 Q421.1594,293.916 420.925,294.1816 Q420.6906,294.4473 420.3156,294.4473 Q419.9719,294.4473 419.7688,294.2441 Q419.5656,294.0566 419.4563,293.541 Q419.4094,293.1816 419.2219,292.9941 Q418.8938,292.6191 418.2844,292.4004 Q417.675,292.1816 417.05,292.1816 Q416.2844,292.1816 415.6438,292.5098 Q415.0188,292.8379 414.5188,293.5879 Q414.0344,294.3379 414.0344,295.3691 L414.0344,296.4629 Q414.0344,297.6973 414.925,298.5254 Q415.8156,299.3379 417.4094,299.3379 Q418.3469,299.3379 419.0031,299.0879 Q419.3938,298.9316 419.8156,298.4941 Q420.0813,298.2285 420.2219,298.1504 Q420.3781,298.0723 420.5813,298.0723 Q420.9094,298.0723 421.1594,298.3379 Q421.425,298.5879 421.425,298.9316 Q421.425,299.2754 421.0813,299.6816 Q420.5813,300.2598 419.7844,300.5879 Q418.7063,301.041 417.4094,301.041 Q415.8938,301.041 414.6906,300.416 Q413.7063,299.916 413.0188,298.8535 Q412.3313,297.7754 412.3313,296.4941 L412.3313,295.3379 Q412.3313,294.0098 412.9406,292.8691 Q413.5656,291.7129 414.6594,291.1035 Q415.7531,290.4785 416.9875,290.4785 Q417.7219,290.4785 418.3625,290.6504 Q419.0188,290.8066 419.5656,291.166 Z " fill="#000000"/><text fill="#000000" font-family="FG Virgil" font-size="12" font-style="italic" lengthAdjust="spacing" textLength="53" x="487.2" y="290.9492">&#171;service&#187;</text><text fill="#000000" font-family="FG Virgil" font-size="14" lengthAdjust="spacing" textLength="163" x="432.2" y="309.0684">ExamManagementService</text><line style="stroke:#181818;stroke-width:0.5;" x1="396.5" x2="603.5" y1="317.582" y2="317.582"/><line style="stroke:#181818;stroke-width:0.5;" x1="396.5" x2="603.5" y1="325.582" y2="325.582"/><text fill="#000000" font-family="FG Virgil" font-size="14" lengthAdjust="spacing" textLength="197" x="401.5" y="344.6895">updateExam(Title, String, User)</text></g><!--class AuthorizationService--><g id="elem_AuthorizationService"><rect codeLine="21" fill="#F1F1F1" height="97.8242" id="AuthorizationService" rx="2.5" ry="2.5" style="stroke:#181818;stroke-width:0.5;" width="286" x="357" y="671.5"/><ellipse cx="431.25" cy="693.791" fill="#C2C2C2" rx="11" ry="11" style="stroke:#181818;stroke-width:1.0;"/><path d="M434.0156,689.666 Q434.1719,689.4473 434.3594,689.3379 Q434.5469,689.2285 434.7656,689.2285 Q435.1406,689.2285 435.375,689.4941 Q435.6094,689.7441 435.6094,690.3535 L435.6094,691.8066 Q435.6094,692.416 435.375,692.6816 Q435.1406,692.9473 434.7656,692.9473 Q434.4219,692.9473 434.2188,692.7441 Q434.0156,692.5566 433.9063,692.041 Q433.8594,691.6816 433.6719,691.4941 Q433.3438,691.1191 432.7344,690.9004 Q432.125,690.6816 431.5,690.6816 Q430.7344,690.6816 430.0938,691.0098 Q429.4688,691.3379 428.9688,692.0879 Q428.4844,692.8379 428.4844,693.8691 L428.4844,694.9629 Q428.4844,696.1973 429.375,697.0254 Q430.2656,697.8379 431.8594,697.8379 Q432.7969,697.8379 433.4531,697.5879 Q433.8438,697.4316 434.2656,696.9941 Q434.5313,696.7285 434.6719,696.6504 Q434.8281,696.5723 435.0313,696.5723 Q435.3594,696.5723 435.6094,696.8379 Q435.875,697.0879 435.875,697.4316 Q435.875,697.7754 435.5313,698.1816 Q435.0313,698.7598 434.2344,699.0879 Q433.1563,699.541 431.8594,699.541 Q430.3438,699.541 429.1406,698.916 Q428.1563,698.416 427.4688,697.3535 Q426.7813,696.2754 426.7813,694.9941 L426.7813,693.8379 Q426.7813,692.5098 427.3906,691.3691 Q428.0156,690.2129 429.1094,689.6035 Q430.2031,688.9785 431.4375,688.9785 Q432.1719,688.9785 432.8125,689.1504 Q433.4688,689.3066 434.0156,689.666 Z " fill="#000000"/><text fill="#000000" font-family="FG Virgil" font-size="12" font-style="italic" lengthAdjust="spacing" textLength="53" x="489.75" y="689.4492">&#171;service&#187;</text><text fill="#000000" font-family="FG Virgil" font-size="14" lengthAdjust="spacing" textLength="129" x="451.75" y="707.5684">AuthorizationService</text><line style="stroke:#181818;stroke-width:0.5;" x1="358" x2="642" y1="716.082" y2="716.082"/><line style="stroke:#181818;stroke-width:0.5;" x1="358" x2="642" y1="724.082" y2="724.082"/><text fill="#000000" font-family="FG Virgil" font-size="14" lengthAdjust="spacing" textLength="274" x="363" y="743.1895">ensureAuthenticatedUserHasAnyOf(Role...)</text><text fill="#000000" font-family="FG Virgil" font-size="14" lengthAdjust="spacing" textLength="58" x="363" y="761.8105">session()</text></g><!--class UserSession--><g id="elem_UserSession"><rect codeLine="26" fill="#F1F1F1" height="66.6211" id="UserSession" rx="2.5" ry="2.5" style="stroke:#181818;stroke-width:0.5;" width="137" x="431.5" y="823"/><ellipse cx="458.2" cy="839" fill="#C2C2C2" rx="11" ry="11" style="stroke:#181818;stroke-width:1.0;"/><path d="M460.9656,834.875 Q461.1219,834.6563 461.3094,834.5469 Q461.4969,834.4375 461.7156,834.4375 Q462.0906,834.4375 462.325,834.7031 Q462.5594,834.9531 462.5594,835.5625 L462.5594,837.0156 Q462.5594,837.625 462.325,837.8906 Q462.0906,838.1563 461.7156,838.1563 Q461.3719,838.1563 461.1688,837.9531 Q460.9656,837.7656 460.8563,837.25 Q460.8094,836.8906 460.6219,836.7031 Q460.2938,836.3281 459.6844,836.1094 Q459.075,835.8906 458.45,835.8906 Q457.6844,835.8906 457.0438,836.2188 Q456.4188,836.5469 455.9188,837.2969 Q455.4344,838.0469 455.4344,839.0781 L455.4344,840.1719 Q455.4344,841.4063 456.325,842.2344 Q457.2156,843.0469 458.8094,843.0469 Q459.7469,843.0469 460.4031,842.7969 Q460.7938,842.6406 461.2156,842.2031 Q461.4813,841.9375 461.6219,841.8594 Q461.7781,841.7813 461.9813,841.7813 Q462.3094,841.7813 462.5594,842.0469 Q462.825,842.2969 462.825,842.6406 Q462.825,842.9844 462.4813,843.3906 Q461.9813,843.9688 461.1844,844.2969 Q460.1063,844.75 458.8094,844.75 Q457.2938,844.75 456.0906,844.125 Q455.1063,843.625 454.4188,842.5625 Q453.7313,841.4844 453.7313,840.2031 L453.7313,839.0469 Q453.7313,837.7188 454.3406,836.5781 Q454.9656,835.4219 456.0594,834.8125 Q457.1531,834.1875 458.3875,834.1875 Q459.1219,834.1875 459.7625,834.3594 Q460.4188,834.5156 460.9656,834.875 Z " fill="#000000"/><text fill="#000000" font-family="FG Virgil" font-size="14" lengthAdjust="spacing" textLength="79" x="474.8" y="844.7969">UserSession</text><line style="stroke:#181818;stroke-width:0.5;" x1="432.5" x2="567.5" y1="855" y2="855"/><line style="stroke:#181818;stroke-width:0.5;" x1="432.5" x2="567.5" y1="863" y2="863"/><text fill="#000000" font-family="FG Virgil" font-size="14" lengthAdjust="spacing" textLength="125" x="437.5" y="882.1074">authenticatedUser()</text></g><!--class class:ExamTemplate--><g id="elem_class:ExamTemplate"><rect codeLine="31" fill="#F1F1F1" height="79.2031" id="class:ExamTemplate" rx="2.5" ry="2.5" style="stroke:#181818;stroke-width:0.5;" width="860" x="70" y="557"/><ellipse cx="431.25" cy="579.291" fill="#C2C2C2" rx="11" ry="11" style="stroke:#181818;stroke-width:1.0;"/><path d="M434.0156,575.166 Q434.1719,574.9473 434.3594,574.8379 Q434.5469,574.7285 434.7656,574.7285 Q435.1406,574.7285 435.375,574.9941 Q435.6094,575.2441 435.6094,575.8535 L435.6094,577.3066 Q435.6094,577.916 435.375,578.1816 Q435.1406,578.4473 434.7656,578.4473 Q434.4219,578.4473 434.2188,578.2441 Q434.0156,578.0566 433.9063,577.541 Q433.8594,577.1816 433.6719,576.9941 Q433.3438,576.6191 432.7344,576.4004 Q432.125,576.1816 431.5,576.1816 Q430.7344,576.1816 430.0938,576.5098 Q429.4688,576.8379 428.9688,577.5879 Q428.4844,578.3379 428.4844,579.3691 L428.4844,580.4629 Q428.4844,581.6973 429.375,582.5254 Q430.2656,583.3379 431.8594,583.3379 Q432.7969,583.3379 433.4531,583.0879 Q433.8438,582.9316 434.2656,582.4941 Q434.5313,582.2285 434.6719,582.1504 Q434.8281,582.0723 435.0313,582.0723 Q435.3594,582.0723 435.6094,582.3379 Q435.875,582.5879 435.875,582.9316 Q435.875,583.2754 435.5313,583.6816 Q435.0313,584.2598 434.2344,584.5879 Q433.1563,585.041 431.8594,585.041 Q430.3438,585.041 429.1406,584.416 Q428.1563,583.916 427.4688,582.8535 Q426.7813,581.7754 426.7813,580.4941 L426.7813,579.3379 Q426.7813,578.0098 427.3906,576.8691 Q428.0156,575.7129 429.1094,575.1035 Q430.2031,574.4785 431.4375,574.4785 Q432.1719,574.4785 432.8125,574.6504 Q433.4688,574.8066 434.0156,575.166 Z " fill="#000000"/><text fill="#000000" font-family="FG Virgil" font-size="12" font-style="italic" lengthAdjust="spacing" textLength="56" x="488.25" y="574.9492">&#171;domain&#187;</text><text fill="#000000" font-family="FG Virgil" font-size="14" lengthAdjust="spacing" textLength="129" x="451.75" y="593.0684">class:ExamTemplate</text><line style="stroke:#181818;stroke-width:0.5;" x1="71" x2="929" y1="601.582" y2="601.582"/><line style="stroke:#181818;stroke-width:0.5;" x1="71" x2="929" y1="609.582" y2="609.582"/><text fill="#000000" font-family="FG Virgil" font-size="14" lengthAdjust="spacing" textLength="848" x="76" y="628.6895">ExamTemplate(ExamTitle, OpenDate, CloseDate, ExamDescription, FeedbackType, GradeType, Sections, Teacher, Students, Course)</text></g><!--class ExamBuilder--><g id="elem_ExamBuilder"><rect codeLine="35" fill="#F1F1F1" height="97.8242" id="ExamBuilder" rx="2.5" ry="2.5" style="stroke:#181818;stroke-width:0.5;" width="791" x="104.5" y="405.5"/><ellipse cx="456.75" cy="427.791" fill="#C2C2C2" rx="11" ry="11" style="stroke:#181818;stroke-width:1.0;"/><path d="M459.5156,423.666 Q459.6719,423.4473 459.8594,423.3379 Q460.0469,423.2285 460.2656,423.2285 Q460.6406,423.2285 460.875,423.4941 Q461.1094,423.7441 461.1094,424.3535 L461.1094,425.8066 Q461.1094,426.416 460.875,426.6816 Q460.6406,426.9473 460.2656,426.9473 Q459.9219,426.9473 459.7188,426.7441 Q459.5156,426.5566 459.4063,426.041 Q459.3594,425.6816 459.1719,425.4941 Q458.8438,425.1191 458.2344,424.9004 Q457.625,424.6816 457,424.6816 Q456.2344,424.6816 455.5938,425.0098 Q454.9688,425.3379 454.4688,426.0879 Q453.9844,426.8379 453.9844,427.8691 L453.9844,428.9629 Q453.9844,430.1973 454.875,431.0254 Q455.7656,431.8379 457.3594,431.8379 Q458.2969,431.8379 458.9531,431.5879 Q459.3438,431.4316 459.7656,430.9941 Q460.0313,430.7285 460.1719,430.6504 Q460.3281,430.5723 460.5313,430.5723 Q460.8594,430.5723 461.1094,430.8379 Q461.375,431.0879 461.375,431.4316 Q461.375,431.7754 461.0313,432.1816 Q460.5313,432.7598 459.7344,433.0879 Q458.6563,433.541 457.3594,433.541 Q455.8438,433.541 454.6406,432.916 Q453.6563,432.416 452.9688,431.3535 Q452.2813,430.2754 452.2813,428.9941 L452.2813,427.8379 Q452.2813,426.5098 452.8906,425.3691 Q453.5156,424.2129 454.6094,423.6035 Q455.7031,422.9785 456.9375,422.9785 Q457.6719,422.9785 458.3125,423.1504 Q458.9688,423.3066 459.5156,423.666 Z " fill="#000000"/><text fill="#000000" font-family="FG Virgil" font-size="12" font-style="italic" lengthAdjust="spacing" textLength="42" x="495.25" y="423.4492">&#171;build&#187;</text><text fill="#000000" font-family="FG Virgil" font-size="14" lengthAdjust="spacing" textLength="78" x="477.25" y="441.5684">ExamBuilder</text><line style="stroke:#181818;stroke-width:0.5;" x1="105.5" x2="894.5" y1="450.082" y2="450.082"/><line style="stroke:#181818;stroke-width:0.5;" x1="105.5" x2="894.5" y1="458.082" y2="458.082"/><text fill="#000000" font-family="FG Virgil" font-size="14" lengthAdjust="spacing" textLength="40" x="110.5" y="477.1895">build()</text><text fill="#000000" font-family="FG Virgil" font-size="14" lengthAdjust="spacing" textLength="779" x="110.5" y="495.8105">with(ExamTitle, OpenDate, CloseDate, ExamDescription, FeedbackType, GradeType, Sections, Teacher, Students, Course)</text></g><!--class PersistenceContext--><g id="elem_PersistenceContext"><rect codeLine="41" fill="#F1F1F1" height="79.2031" id="PersistenceContext" rx="2.5" ry="2.5" style="stroke:#181818;stroke-width:0.5;" width="154" x="1059" y="218"/><ellipse cx="1074" cy="240.291" fill="#C2C2C2" rx="11" ry="11" style="stroke:#181818;stroke-width:1.0;"/><path d="M1076.7656,236.166 Q1076.9219,235.9473 1077.1094,235.8379 Q1077.2969,235.7285 1077.5156,235.7285 Q1077.8906,235.7285 1078.125,235.9941 Q1078.3594,236.2441 1078.3594,236.8535 L1078.3594,238.3066 Q1078.3594,238.916 1078.125,239.1816 Q1077.8906,239.4473 1077.5156,239.4473 Q1077.1719,239.4473 1076.9688,239.2441 Q1076.7656,239.0566 1076.6563,238.541 Q1076.6094,238.1816 1076.4219,237.9941 Q1076.0938,237.6191 1075.4844,237.4004 Q1074.875,237.1816 1074.25,237.1816 Q1073.4844,237.1816 1072.8438,237.5098 Q1072.2188,237.8379 1071.7188,238.5879 Q1071.2344,239.3379 1071.2344,240.3691 L1071.2344,241.4629 Q1071.2344,242.6973 1072.125,243.5254 Q1073.0156,244.3379 1074.6094,244.3379 Q1075.5469,244.3379 1076.2031,244.0879 Q1076.5938,243.9316 1077.0156,243.4941 Q1077.2813,243.2285 1077.4219,243.1504 Q1077.5781,243.0723 1077.7813,243.0723 Q1078.1094,243.0723 1078.3594,243.3379 Q1078.625,243.5879 1078.625,243.9316 Q1078.625,244.2754 1078.2813,244.6816 Q1077.7813,245.2598 1076.9844,245.5879 Q1075.9063,246.041 1074.6094,246.041 Q1073.0938,246.041 1071.8906,245.416 Q1070.9063,244.916 1070.2188,243.8535 Q1069.5313,242.7754 1069.5313,241.4941 L1069.5313,240.3379 Q1069.5313,239.0098 1070.1406,237.8691 Q1070.7656,236.7129 1071.8594,236.1035 Q1072.9531,235.4785 1074.1875,235.4785 Q1074.9219,235.4785 1075.5625,235.6504 Q1076.2188,235.8066 1076.7656,236.166 Z " fill="#000000"/><text fill="#000000" font-family="FG Virgil" font-size="12" font-style="italic" lengthAdjust="spacing" textLength="77" x="1110.5" y="235.9492">&#171;persistence&#187;</text><text fill="#000000" font-family="FG Virgil" font-size="14" lengthAdjust="spacing" textLength="122" x="1088" y="254.0684">PersistenceContext</text><line style="stroke:#181818;stroke-width:0.5;" x1="1060" x2="1212" y1="262.582" y2="262.582"/><line style="stroke:#181818;stroke-width:0.5;" x1="1060" x2="1212" y1="270.582" y2="270.582"/><text fill="#000000" font-family="FG Virgil" font-size="14" lengthAdjust="spacing" textLength="84" x="1065" y="289.6895">repositories()</text></g><!--class ExamRepository--><g id="elem_ExamRepository"><rect codeLine="46" fill="#F1F1F1" height="79.2031" id="ExamRepository" rx="2.5" ry="2.5" style="stroke:#181818;stroke-width:0.5;" width="134" x="1599" y="282"/><ellipse cx="1614" cy="304.291" fill="#C2C2C2" rx="11" ry="11" style="stroke:#181818;stroke-width:1.0;"/><path d="M1616.7656,300.166 Q1616.9219,299.9473 1617.1094,299.8379 Q1617.2969,299.7285 1617.5156,299.7285 Q1617.8906,299.7285 1618.125,299.9941 Q1618.3594,300.2441 1618.3594,300.8535 L1618.3594,302.3066 Q1618.3594,302.916 1618.125,303.1816 Q1617.8906,303.4473 1617.5156,303.4473 Q1617.1719,303.4473 1616.9688,303.2441 Q1616.7656,303.0566 1616.6563,302.541 Q1616.6094,302.1816 1616.4219,301.9941 Q1616.0938,301.6191 1615.4844,301.4004 Q1614.875,301.1816 1614.25,301.1816 Q1613.4844,301.1816 1612.8438,301.5098 Q1612.2188,301.8379 1611.7188,302.5879 Q1611.2344,303.3379 1611.2344,304.3691 L1611.2344,305.4629 Q1611.2344,306.6973 1612.125,307.5254 Q1613.0156,308.3379 1614.6094,308.3379 Q1615.5469,308.3379 1616.2031,308.0879 Q1616.5938,307.9316 1617.0156,307.4941 Q1617.2813,307.2285 1617.4219,307.1504 Q1617.5781,307.0723 1617.7813,307.0723 Q1618.1094,307.0723 1618.3594,307.3379 Q1618.625,307.5879 1618.625,307.9316 Q1618.625,308.2754 1618.2813,308.6816 Q1617.7813,309.2598 1616.9844,309.5879 Q1615.9063,310.041 1614.6094,310.041 Q1613.0938,310.041 1611.8906,309.416 Q1610.9063,308.916 1610.2188,307.8535 Q1609.5313,306.7754 1609.5313,305.4941 L1609.5313,304.3379 Q1609.5313,303.0098 1610.1406,301.8691 Q1610.7656,300.7129 1611.8594,300.1035 Q1612.9531,299.4785 1614.1875,299.4785 Q1614.9219,299.4785 1615.5625,299.6504 Q1616.2188,299.8066 1616.7656,300.166 Z " fill="#000000"/><text fill="#000000" font-family="FG Virgil" font-size="12" font-style="italic" lengthAdjust="spacing" textLength="68" x="1645" y="299.9492">&#171;repository&#187;</text><text fill="#000000" font-family="FG Virgil" font-size="14" lengthAdjust="spacing" textLength="102" x="1628" y="318.0684">ExamRepository</text><line style="stroke:#181818;stroke-width:0.5;" x1="1600" x2="1732" y1="326.582" y2="326.582"/><line style="stroke:#181818;stroke-width:0.5;" x1="1600" x2="1732" y1="334.582" y2="334.582"/><text fill="#000000" font-family="FG Virgil" font-size="14" lengthAdjust="spacing" textLength="74" x="1605" y="353.6895">save(Exam)</text></g><!--class RepositoryFactory--><g id="elem_RepositoryFactory"><rect fill="#F1F1F1" height="48" id="RepositoryFactory" rx="2.5" ry="2.5" style="stroke:#181818;stroke-width:0.5;" width="148" x="1332" y="241.5"/><ellipse cx="1347" cy="257.5" fill="#C2C2C2" rx="11" ry="11" style="stroke:#181818;stroke-width:1.0;"/><path d="M1349.7656,253.375 Q1349.9219,253.1563 1350.1094,253.0469 Q1350.2969,252.9375 1350.5156,252.9375 Q1350.8906,252.9375 1351.125,253.2031 Q1351.3594,253.4531 1351.3594,254.0625 L1351.3594,255.5156 Q1351.3594,256.125 1351.125,256.3906 Q1350.8906,256.6563 1350.5156,256.6563 Q1350.1719,256.6563 1349.9688,256.4531 Q1349.7656,256.2656 1349.6563,255.75 Q1349.6094,255.3906 1349.4219,255.2031 Q1349.0938,254.8281 1348.4844,254.6094 Q1347.875,254.3906 1347.25,254.3906 Q1346.4844,254.3906 1345.8438,254.7188 Q1345.2188,255.0469 1344.7188,255.7969 Q1344.2344,256.5469 1344.2344,257.5781 L1344.2344,258.6719 Q1344.2344,259.9063 1345.125,260.7344 Q1346.0156,261.5469 1347.6094,261.5469 Q1348.5469,261.5469 1349.2031,261.2969 Q1349.5938,261.1406 1350.0156,260.7031 Q1350.2813,260.4375 1350.4219,260.3594 Q1350.5781,260.2813 1350.7813,260.2813 Q1351.1094,260.2813 1351.3594,260.5469 Q1351.625,260.7969 1351.625,261.1406 Q1351.625,261.4844 1351.2813,261.8906 Q1350.7813,262.4688 1349.9844,262.7969 Q1348.9063,263.25 1347.6094,263.25 Q1346.0938,263.25 1344.8906,262.625 Q1343.9063,262.125 1343.2188,261.0625 Q1342.5313,259.9844 1342.5313,258.7031 L1342.5313,257.5469 Q1342.5313,256.2188 1343.1406,255.0781 Q1343.7656,253.9219 1344.8594,253.3125 Q1345.9531,252.6875 1347.1875,252.6875 Q1347.9219,252.6875 1348.5625,252.8594 Q1349.2188,253.0156 1349.7656,253.375 Z " fill="#000000"/><text fill="#000000" font-family="FG Virgil" font-size="14" lengthAdjust="spacing" textLength="116" x="1361" y="263.2969">RepositoryFactory</text><line style="stroke:#181818;stroke-width:0.5;" x1="1333" x2="1479" y1="273.5" y2="273.5"/><line style="stroke:#181818;stroke-width:0.5;" x1="1333" x2="1479" y1="281.5" y2="281.5"/></g><!--link UpdatExamUI to UpdateExamController--><g id="link_UpdatExamUI_UpdateExamController"><path codeLine="50" d="M500,86.12 C500,101.4 500,118.96 500,134.69 " fill="none" id="UpdatExamUI-to-UpdateExamController" style="stroke:#181818;stroke-width:1.0;"/><polygon fill="#181818" points="500,139.96,504,130.96,500,134.96,496,130.96,500,139.96" style="stroke:#181818;stroke-width:1.0;"/><text fill="#000000" font-family="FG Virgil" font-size="13" lengthAdjust="spacing" textLength="73" x="451" y="118.5283">theController</text></g><!--link UpdateExamController to ExamManagementService--><g id="link_UpdateExamController_ExamManagementService"><path codeLine="51" d="M500,219.12 C500,234.4 500,251.96 500,267.69 " fill="none" id="UpdateExamController-to-ExamManagementService" style="stroke:#181818;stroke-width:1.0;"/><polygon fill="#181818" points="500,272.96,504,263.96,500,267.96,496,263.96,500,272.96" style="stroke:#181818;stroke-width:1.0;"/><text fill="#000000" font-family="FG Virgil" font-size="13" lengthAdjust="spacing" textLength="60" x="457.5" y="251.5283">theService</text></g><!--link ExamManagementService to AuthorizationService--><g id="link_ExamManagementService_AuthorizationService"><path codeLine="52" d="M395.31,298.21 C298.48,291.57 158.75,300.02 85,388.5 C9.59,478.97 8.64,563.83 85,653.5 C148.73,728.35 260.3,742.98 351.71,740.04 " fill="none" id="ExamManagementService-to-AuthorizationService" style="stroke:#181818;stroke-width:1.0;"/><polygon fill="#181818" points="356.87,739.86,347.7273,736.1978,351.8735,740.0461,348.0251,744.1922,356.87,739.86" style="stroke:#181818;stroke-width:1.0;"/><text fill="#000000" font-family="FG Virgil" font-size="13" lengthAdjust="spacing" textLength="32" x="7" y="518.0283">autzh</text></g><!--link AuthorizationService to UserSession--><g id="link_AuthorizationService_UserSession"><path codeLine="53" d="M500,769.65 C500,785.39 500,802.59 500,817.5 " fill="none" id="AuthorizationService-to-UserSession" style="stroke:#181818;stroke-width:1.0;"/><polygon fill="#181818" points="500,822.88,504,813.88,500,817.88,496,813.88,500,822.88" style="stroke:#181818;stroke-width:1.0;"/><text fill="#000000" font-family="FG Virgil" font-size="13" lengthAdjust="spacing" textLength="45" x="465" y="801.7783">session</text></g><!--link ExamManagementService to ExamBuilder--><g id="link_ExamManagementService_ExamBuilder"><path codeLine="54" d="M500,352.3 C500,367.06 500,384.06 500,399.91 " fill="none" id="ExamManagementService-to-ExamBuilder" style="stroke:#181818;stroke-width:1.0;"/><polygon fill="#181818" points="500,405.23,504,396.23,500,400.23,496,396.23,500,405.23" style="stroke:#181818;stroke-width:1.0;"/><text fill="#000000" font-family="FG Virgil" font-size="13" lengthAdjust="spacing" textLength="58" x="458.5" y="384.2783">theBuilder</text></g><!--link ExamBuilder to class:ExamTemplate--><g id="link_ExamBuilder_class:ExamTemplate"><path codeLine="55" d="M500,503.72 C500,519.35 500,536.54 500,551.84 " fill="none" id="ExamBuilder-to-class:ExamTemplate" style="stroke:#181818;stroke-width:1.0;"/><polygon fill="#181818" points="500,556.95,504,547.95,500,551.95,496,547.95,500,556.95" style="stroke:#181818;stroke-width:1.0;"/><text fill="#000000" font-family="FG Virgil" font-size="13" lengthAdjust="spacing" textLength="32" x="471.5" y="535.7783">exam</text></g><!--link ExamManagementService to PersistenceContext--><g id="link_ExamManagementService_PersistenceContext"><path codeLine="56" d="M604.63,303.51 C730.21,292.62 939.17,274.49 1053.73,264.55 " fill="none" id="ExamManagementService-to-PersistenceContext" style="stroke:#181818;stroke-width:1.0;"/><polygon fill="#181818" points="1058.77,264.11,1049.4605,260.8955,1053.7884,264.5382,1050.1456,268.8661,1058.77,264.11" style="stroke:#181818;stroke-width:1.0;"/><text fill="#000000" font-family="FG Virgil" font-size="13" lengthAdjust="spacing" textLength="67" x="961" y="263.5283">persistence</text></g><!--link PersistenceContext to RepositoryFactory--><g id="link_PersistenceContext_RepositoryFactory"><path codeLine="57" d="M1213.08,259.77 C1248.63,260.83 1290.91,262.09 1326.73,263.16 " fill="none" id="PersistenceContext-to-RepositoryFactory" style="stroke:#181818;stroke-width:1.0;"/><polygon fill="#181818" points="1331.96,263.32,1323.0901,259.0393,1326.9625,263.1629,1322.8388,267.0353,1331.96,263.32" style="stroke:#181818;stroke-width:1.0;"/><text fill="#000000" font-family="FG Virgil" font-size="13" lengthAdjust="spacing" textLength="39" x="1253" y="257.5283">factory</text></g><!--link RepositoryFactory to ExamRepository--><g id="link_RepositoryFactory_ExamRepository"><path codeLine="58" d="M1480.24,281.4 C1515.74,289.1 1558.21,298.32 1593.48,305.98 " fill="none" id="RepositoryFactory-to-ExamRepository" style="stroke:#181818;stroke-width:1.0;"/><polygon fill="#181818" points="1598.63,307.09,1590.6957,301.255,1593.7461,306.019,1588.9821,309.0693,1598.63,307.09" style="stroke:#181818;stroke-width:1.0;"/><text fill="#000000" font-family="FG Virgil" font-size="13" lengthAdjust="spacing" textLength="57" x="1511" y="284.5283">repository</text></g><!--link ExamManagementService to ExamRepository--><g id="link_ExamManagementService_ExamRepository"><path codeLine="59" d="M604.55,313.3 C837.04,315.1 1395.61,319.42 1593.78,320.95 " fill="none" id="ExamManagementService-to-ExamRepository" style="stroke:#181818;stroke-width:1.0;"/><polygon fill="#181818" points="1598.97,320.99,1589.993,316.9386,1593.9701,320.9614,1589.9473,324.9385,1598.97,320.99" style="stroke:#181818;stroke-width:1.0;"/><text fill="#000000" font-family="FG Virgil" font-size="13" lengthAdjust="spacing" textLength="57" x="1244" y="313.5283">repository</text></g><!--SRC=[nLH1Rjim4Bpp5KHE3k3u0K9W87NYj8SsHMJtpeXhYmX54bmgZbBqxrrIiaodIgxrHLpkp6Z87HcVbN72YuOtrjYgzhO17dmB3CUE4zMps4CPEWtSGnModeITQ7LOMnD-2AAkx_alvVTAPnYiXRG7PVPy9pG2OnfsWGVBlThNWKiLDPKrZ5LQ8FAjaoBSlOfc-urVNpiFQ8A8WEMI_sQSVjAMjJtCBjcVCmv4qegiUAirU28BvxIgpidj29sLmPEjEU-VcLpiVXU6Jjs02INu5rK1wM6_cjBQgA3XA3NdMu9cWZTjgArNRydAntfWiFKGmVJQQ1na5FegyCPq3xlPezMmM2mk4nW1aTJEhe70PRyzA8htMZrym5-aHn4Fi876QG9Ta2rf6w5EDvQtPwdep_hWmDpItfolj4Nebx5_2rXvvU9PvtmD89yeGflEKVlU2mdzikp7ZdE-0L7LuEFjjPBSqjRAjXxXtKY-j4hBDDYdk1eDfchMtyf1XVe_c1nS_WIF2WEO2c8GuJN429ysHyiUd4KLA1E0PoE9rXwFpOxO8x8RoIXU-a4aOlwzN2sdFuM2KmnEDPi44Naw-8az56mQGjp9Z1SnWMyrcsn6jrbYYsEaFtv7deBaQYXOtY3SPB0B3bH_94wiYUaLF9iUcm14tcbUQr6biHNqNvTMxD_UrN2ERCh5AG_T9_u-O_q5]--></g></svg>