<?xml version="1.0" encoding="us-ascii" standalone="no"?><svg xmlns="http://www.w3.org/2000/svg" xmlns:xlink="http://www.w3.org/1999/xlink" contentStyleType="text/css" height="902px" preserveAspectRatio="none" style="width:651px;height:902px;background:#FFFFFF;" version="1.1" viewBox="0 0 651 902" width="651px" zoomAndPan="magnify"><defs/><g><!--class ListCourseExamsUI--><g id="elem_ListCourseExamsUI"><rect codeLine="7" fill="#F1F1F1" height="79.2031" id="ListCourseExamsUI" rx="2.5" ry="2.5" style="stroke:#181818;stroke-width:0.5;" width="153" x="349.5" y="7"/><ellipse cx="364.5" cy="29.291" fill="#C2C2C2" rx="11" ry="11" style="stroke:#181818;stroke-width:1.0;"/><path d="M367.2656,25.166 Q367.4219,24.9473 367.6094,24.8379 Q367.7969,24.7285 368.0156,24.7285 Q368.3906,24.7285 368.625,24.9941 Q368.8594,25.2441 368.8594,25.8535 L368.8594,27.3066 Q368.8594,27.916 368.625,28.1816 Q368.3906,28.4473 368.0156,28.4473 Q367.6719,28.4473 367.4688,28.2441 Q367.2656,28.0566 367.1563,27.541 Q367.1094,27.1816 366.9219,26.9941 Q366.5938,26.6191 365.9844,26.4004 Q365.375,26.1816 364.75,26.1816 Q363.9844,26.1816 363.3438,26.5098 Q362.7188,26.8379 362.2188,27.5879 Q361.7344,28.3379 361.7344,29.3691 L361.7344,30.4629 Q361.7344,31.6973 362.625,32.5254 Q363.5156,33.3379 365.1094,33.3379 Q366.0469,33.3379 366.7031,33.0879 Q367.0938,32.9316 367.5156,32.4941 Q367.7813,32.2285 367.9219,32.1504 Q368.0781,32.0723 368.2813,32.0723 Q368.6094,32.0723 368.8594,32.3379 Q369.125,32.5879 369.125,32.9316 Q369.125,33.2754 368.7813,33.6816 Q368.2813,34.2598 367.4844,34.5879 Q366.4063,35.041 365.1094,35.041 Q363.5938,35.041 362.3906,34.416 Q361.4063,33.916 360.7188,32.8535 Q360.0313,31.7754 360.0313,30.4941 L360.0313,29.3379 Q360.0313,28.0098 360.6406,26.8691 Q361.2656,25.7129 362.3594,25.1035 Q363.4531,24.4785 364.6875,24.4785 Q365.4219,24.4785 366.0625,24.6504 Q366.7188,24.8066 367.2656,25.166 Z " fill="#000000"/><text fill="#000000" font-family="FG Virgil" font-size="12" font-style="italic" lengthAdjust="spacing" textLength="82" x="398" y="24.9492">&#171;presentation&#187;</text><text fill="#000000" font-family="FG Virgil" font-size="14" lengthAdjust="spacing" textLength="121" x="378.5" y="43.0684">ListCourseExamsUI</text><line style="stroke:#181818;stroke-width:0.5;" x1="350.5" x2="501.5" y1="51.582" y2="51.582"/><line style="stroke:#181818;stroke-width:0.5;" x1="350.5" x2="501.5" y1="59.582" y2="59.582"/><text fill="#000000" font-family="FG Virgil" font-size="14" lengthAdjust="spacing" textLength="60" x="355.5" y="78.6895">doShow()</text></g><!--class ListCourseExamsController--><g id="elem_ListCourseExamsController"><rect codeLine="10" fill="#F1F1F1" height="79.2031" id="ListCourseExamsController" rx="2.5" ry="2.5" style="stroke:#181818;stroke-width:0.5;" width="203" x="324.5" y="165"/><ellipse cx="339.5" cy="187.291" fill="#C2C2C2" rx="11" ry="11" style="stroke:#181818;stroke-width:1.0;"/><path d="M342.2656,183.166 Q342.4219,182.9473 342.6094,182.8379 Q342.7969,182.7285 343.0156,182.7285 Q343.3906,182.7285 343.625,182.9941 Q343.8594,183.2441 343.8594,183.8535 L343.8594,185.3066 Q343.8594,185.916 343.625,186.1816 Q343.3906,186.4473 343.0156,186.4473 Q342.6719,186.4473 342.4688,186.2441 Q342.2656,186.0566 342.1563,185.541 Q342.1094,185.1816 341.9219,184.9941 Q341.5938,184.6191 340.9844,184.4004 Q340.375,184.1816 339.75,184.1816 Q338.9844,184.1816 338.3438,184.5098 Q337.7188,184.8379 337.2188,185.5879 Q336.7344,186.3379 336.7344,187.3691 L336.7344,188.4629 Q336.7344,189.6973 337.625,190.5254 Q338.5156,191.3379 340.1094,191.3379 Q341.0469,191.3379 341.7031,191.0879 Q342.0938,190.9316 342.5156,190.4941 Q342.7813,190.2285 342.9219,190.1504 Q343.0781,190.0723 343.2813,190.0723 Q343.6094,190.0723 343.8594,190.3379 Q344.125,190.5879 344.125,190.9316 Q344.125,191.2754 343.7813,191.6816 Q343.2813,192.2598 342.4844,192.5879 Q341.4063,193.041 340.1094,193.041 Q338.5938,193.041 337.3906,192.416 Q336.4063,191.916 335.7188,190.8535 Q335.0313,189.7754 335.0313,188.4941 L335.0313,187.3379 Q335.0313,186.0098 335.6406,184.8691 Q336.2656,183.7129 337.3594,183.1035 Q338.4531,182.4785 339.6875,182.4785 Q340.4219,182.4785 341.0625,182.6504 Q341.7188,182.8066 342.2656,183.166 Z " fill="#000000"/><text fill="#000000" font-family="FG Virgil" font-size="12" font-style="italic" lengthAdjust="spacing" textLength="74" x="402" y="182.9492">&#171;application&#187;</text><text fill="#000000" font-family="FG Virgil" font-size="14" lengthAdjust="spacing" textLength="171" x="353.5" y="201.0684">ListCourseExamsController</text><line style="stroke:#181818;stroke-width:0.5;" x1="325.5" x2="526.5" y1="209.582" y2="209.582"/><line style="stroke:#181818;stroke-width:0.5;" x1="325.5" x2="526.5" y1="217.582" y2="217.582"/><text fill="#000000" font-family="FG Virgil" font-size="14" lengthAdjust="spacing" textLength="114" x="330.5" y="236.6895">listCourseExams()</text></g><!--class AuthorizationService--><g id="elem_AuthorizationService"><rect codeLine="14" fill="#F1F1F1" height="97.8242" id="AuthorizationService" rx="2.5" ry="2.5" style="stroke:#181818;stroke-width:0.5;" width="286" x="7" y="323"/><ellipse cx="81.25" cy="345.291" fill="#C2C2C2" rx="11" ry="11" style="stroke:#181818;stroke-width:1.0;"/><path d="M84.0156,341.166 Q84.1719,340.9473 84.3594,340.8379 Q84.5469,340.7285 84.7656,340.7285 Q85.1406,340.7285 85.375,340.9941 Q85.6094,341.2441 85.6094,341.8535 L85.6094,343.3066 Q85.6094,343.916 85.375,344.1816 Q85.1406,344.4473 84.7656,344.4473 Q84.4219,344.4473 84.2188,344.2441 Q84.0156,344.0566 83.9063,343.541 Q83.8594,343.1816 83.6719,342.9941 Q83.3438,342.6191 82.7344,342.4004 Q82.125,342.1816 81.5,342.1816 Q80.7344,342.1816 80.0938,342.5098 Q79.4688,342.8379 78.9688,343.5879 Q78.4844,344.3379 78.4844,345.3691 L78.4844,346.4629 Q78.4844,347.6973 79.375,348.5254 Q80.2656,349.3379 81.8594,349.3379 Q82.7969,349.3379 83.4531,349.0879 Q83.8438,348.9316 84.2656,348.4941 Q84.5313,348.2285 84.6719,348.1504 Q84.8281,348.0723 85.0313,348.0723 Q85.3594,348.0723 85.6094,348.3379 Q85.875,348.5879 85.875,348.9316 Q85.875,349.2754 85.5313,349.6816 Q85.0313,350.2598 84.2344,350.5879 Q83.1563,351.041 81.8594,351.041 Q80.3438,351.041 79.1406,350.416 Q78.1563,349.916 77.4688,348.8535 Q76.7813,347.7754 76.7813,346.4941 L76.7813,345.3379 Q76.7813,344.0098 77.3906,342.8691 Q78.0156,341.7129 79.1094,341.1035 Q80.2031,340.4785 81.4375,340.4785 Q82.1719,340.4785 82.8125,340.6504 Q83.4688,340.8066 84.0156,341.166 Z " fill="#000000"/><text fill="#000000" font-family="FG Virgil" font-size="12" font-style="italic" lengthAdjust="spacing" textLength="53" x="139.75" y="340.9492">&#171;service&#187;</text><text fill="#000000" font-family="FG Virgil" font-size="14" lengthAdjust="spacing" textLength="129" x="101.75" y="359.0684">AuthorizationService</text><line style="stroke:#181818;stroke-width:0.5;" x1="8" x2="292" y1="367.582" y2="367.582"/><line style="stroke:#181818;stroke-width:0.5;" x1="8" x2="292" y1="375.582" y2="375.582"/><text fill="#000000" font-family="FG Virgil" font-size="14" lengthAdjust="spacing" textLength="274" x="13" y="394.6895">ensureAuthenticatedUserHasAnyOf(Role...)</text><text fill="#000000" font-family="FG Virgil" font-size="14" lengthAdjust="spacing" textLength="58" x="13" y="413.3105">session()</text></g><!--class UserSession--><g id="elem_UserSession"><rect codeLine="19" fill="#F1F1F1" height="66.6211" id="UserSession" rx="2.5" ry="2.5" style="stroke:#181818;stroke-width:0.5;" width="137" x="81.5" y="506"/><ellipse cx="108.2" cy="522" fill="#C2C2C2" rx="11" ry="11" style="stroke:#181818;stroke-width:1.0;"/><path d="M110.9656,517.875 Q111.1219,517.6563 111.3094,517.5469 Q111.4969,517.4375 111.7156,517.4375 Q112.0906,517.4375 112.325,517.7031 Q112.5594,517.9531 112.5594,518.5625 L112.5594,520.0156 Q112.5594,520.625 112.325,520.8906 Q112.0906,521.1563 111.7156,521.1563 Q111.3719,521.1563 111.1688,520.9531 Q110.9656,520.7656 110.8563,520.25 Q110.8094,519.8906 110.6219,519.7031 Q110.2938,519.3281 109.6844,519.1094 Q109.075,518.8906 108.45,518.8906 Q107.6844,518.8906 107.0438,519.2188 Q106.4188,519.5469 105.9188,520.2969 Q105.4344,521.0469 105.4344,522.0781 L105.4344,523.1719 Q105.4344,524.4063 106.325,525.2344 Q107.2156,526.0469 108.8094,526.0469 Q109.7469,526.0469 110.4031,525.7969 Q110.7938,525.6406 111.2156,525.2031 Q111.4813,524.9375 111.6219,524.8594 Q111.7781,524.7813 111.9813,524.7813 Q112.3094,524.7813 112.5594,525.0469 Q112.825,525.2969 112.825,525.6406 Q112.825,525.9844 112.4813,526.3906 Q111.9813,526.9688 111.1844,527.2969 Q110.1063,527.75 108.8094,527.75 Q107.2938,527.75 106.0906,527.125 Q105.1063,526.625 104.4188,525.5625 Q103.7313,524.4844 103.7313,523.2031 L103.7313,522.0469 Q103.7313,520.7188 104.3406,519.5781 Q104.9656,518.4219 106.0594,517.8125 Q107.1531,517.1875 108.3875,517.1875 Q109.1219,517.1875 109.7625,517.3594 Q110.4188,517.5156 110.9656,517.875 Z " fill="#000000"/><text fill="#000000" font-family="FG Virgil" font-size="14" lengthAdjust="spacing" textLength="79" x="124.8" y="527.7969">UserSession</text><line style="stroke:#181818;stroke-width:0.5;" x1="82.5" x2="217.5" y1="538" y2="538"/><line style="stroke:#181818;stroke-width:0.5;" x1="82.5" x2="217.5" y1="546" y2="546"/><text fill="#000000" font-family="FG Virgil" font-size="14" lengthAdjust="spacing" textLength="125" x="87.5" y="565.1074">authenticatedUser()</text></g><!--class ExamManagementService--><g id="elem_ExamManagementService"><rect codeLine="23" fill="#F1F1F1" height="79.2031" id="ExamManagementService" rx="2.5" ry="2.5" style="stroke:#181818;stroke-width:0.5;" width="195" x="328.5" y="332.5"/><ellipse cx="343.5" cy="354.791" fill="#C2C2C2" rx="11" ry="11" style="stroke:#181818;stroke-width:1.0;"/><path d="M346.2656,350.666 Q346.4219,350.4473 346.6094,350.3379 Q346.7969,350.2285 347.0156,350.2285 Q347.3906,350.2285 347.625,350.4941 Q347.8594,350.7441 347.8594,351.3535 L347.8594,352.8066 Q347.8594,353.416 347.625,353.6816 Q347.3906,353.9473 347.0156,353.9473 Q346.6719,353.9473 346.4688,353.7441 Q346.2656,353.5566 346.1563,353.041 Q346.1094,352.6816 345.9219,352.4941 Q345.5938,352.1191 344.9844,351.9004 Q344.375,351.6816 343.75,351.6816 Q342.9844,351.6816 342.3438,352.0098 Q341.7188,352.3379 341.2188,353.0879 Q340.7344,353.8379 340.7344,354.8691 L340.7344,355.9629 Q340.7344,357.1973 341.625,358.0254 Q342.5156,358.8379 344.1094,358.8379 Q345.0469,358.8379 345.7031,358.5879 Q346.0938,358.4316 346.5156,357.9941 Q346.7813,357.7285 346.9219,357.6504 Q347.0781,357.5723 347.2813,357.5723 Q347.6094,357.5723 347.8594,357.8379 Q348.125,358.0879 348.125,358.4316 Q348.125,358.7754 347.7813,359.1816 Q347.2813,359.7598 346.4844,360.0879 Q345.4063,360.541 344.1094,360.541 Q342.5938,360.541 341.3906,359.916 Q340.4063,359.416 339.7188,358.3535 Q339.0313,357.2754 339.0313,355.9941 L339.0313,354.8379 Q339.0313,353.5098 339.6406,352.3691 Q340.2656,351.2129 341.3594,350.6035 Q342.4531,349.9785 343.6875,349.9785 Q344.4219,349.9785 345.0625,350.1504 Q345.7188,350.3066 346.2656,350.666 Z " fill="#000000"/><text fill="#000000" font-family="FG Virgil" font-size="12" font-style="italic" lengthAdjust="spacing" textLength="53" x="412.5" y="350.4492">&#171;service&#187;</text><text fill="#000000" font-family="FG Virgil" font-size="14" lengthAdjust="spacing" textLength="163" x="357.5" y="368.5684">ExamManagementService</text><line style="stroke:#181818;stroke-width:0.5;" x1="329.5" x2="522.5" y1="377.082" y2="377.082"/><line style="stroke:#181818;stroke-width:0.5;" x1="329.5" x2="522.5" y1="385.082" y2="385.082"/><text fill="#000000" font-family="FG Virgil" font-size="14" lengthAdjust="spacing" textLength="114" x="334.5" y="404.1895">listCourseExams()</text></g><!--class PersistenceContext--><g id="elem_PersistenceContext"><rect codeLine="27" fill="#F1F1F1" height="79.2031" id="PersistenceContext" rx="2.5" ry="2.5" style="stroke:#181818;stroke-width:0.5;" width="154" x="479" y="500"/><ellipse cx="494" cy="522.291" fill="#C2C2C2" rx="11" ry="11" style="stroke:#181818;stroke-width:1.0;"/><path d="M496.7656,518.166 Q496.9219,517.9473 497.1094,517.8379 Q497.2969,517.7285 497.5156,517.7285 Q497.8906,517.7285 498.125,517.9941 Q498.3594,518.2441 498.3594,518.8535 L498.3594,520.3066 Q498.3594,520.916 498.125,521.1816 Q497.8906,521.4473 497.5156,521.4473 Q497.1719,521.4473 496.9688,521.2441 Q496.7656,521.0566 496.6563,520.541 Q496.6094,520.1816 496.4219,519.9941 Q496.0938,519.6191 495.4844,519.4004 Q494.875,519.1816 494.25,519.1816 Q493.4844,519.1816 492.8438,519.5098 Q492.2188,519.8379 491.7188,520.5879 Q491.2344,521.3379 491.2344,522.3691 L491.2344,523.4629 Q491.2344,524.6973 492.125,525.5254 Q493.0156,526.3379 494.6094,526.3379 Q495.5469,526.3379 496.2031,526.0879 Q496.5938,525.9316 497.0156,525.4941 Q497.2813,525.2285 497.4219,525.1504 Q497.5781,525.0723 497.7813,525.0723 Q498.1094,525.0723 498.3594,525.3379 Q498.625,525.5879 498.625,525.9316 Q498.625,526.2754 498.2813,526.6816 Q497.7813,527.2598 496.9844,527.5879 Q495.9063,528.041 494.6094,528.041 Q493.0938,528.041 491.8906,527.416 Q490.9063,526.916 490.2188,525.8535 Q489.5313,524.7754 489.5313,523.4941 L489.5313,522.3379 Q489.5313,521.0098 490.1406,519.8691 Q490.7656,518.7129 491.8594,518.1035 Q492.9531,517.4785 494.1875,517.4785 Q494.9219,517.4785 495.5625,517.6504 Q496.2188,517.8066 496.7656,518.166 Z " fill="#000000"/><text fill="#000000" font-family="FG Virgil" font-size="12" font-style="italic" lengthAdjust="spacing" textLength="77" x="530.5" y="517.9492">&#171;persistence&#187;</text><text fill="#000000" font-family="FG Virgil" font-size="14" lengthAdjust="spacing" textLength="122" x="508" y="536.0684">PersistenceContext</text><line style="stroke:#181818;stroke-width:0.5;" x1="480" x2="632" y1="544.582" y2="544.582"/><line style="stroke:#181818;stroke-width:0.5;" x1="480" x2="632" y1="552.582" y2="552.582"/><text fill="#000000" font-family="FG Virgil" font-size="14" lengthAdjust="spacing" textLength="84" x="485" y="571.6895">repositories()</text></g><!--class RepositoryFactory--><g id="elem_RepositoryFactory"><rect codeLine="31" fill="#F1F1F1" height="79.2031" id="RepositoryFactory" rx="2.5" ry="2.5" style="stroke:#181818;stroke-width:0.5;" width="148" x="480" y="658"/><ellipse cx="495" cy="680.291" fill="#C2C2C2" rx="11" ry="11" style="stroke:#181818;stroke-width:1.0;"/><path d="M497.7656,676.166 Q497.9219,675.9473 498.1094,675.8379 Q498.2969,675.7285 498.5156,675.7285 Q498.8906,675.7285 499.125,675.9941 Q499.3594,676.2441 499.3594,676.8535 L499.3594,678.3066 Q499.3594,678.916 499.125,679.1816 Q498.8906,679.4473 498.5156,679.4473 Q498.1719,679.4473 497.9688,679.2441 Q497.7656,679.0566 497.6563,678.541 Q497.6094,678.1816 497.4219,677.9941 Q497.0938,677.6191 496.4844,677.4004 Q495.875,677.1816 495.25,677.1816 Q494.4844,677.1816 493.8438,677.5098 Q493.2188,677.8379 492.7188,678.5879 Q492.2344,679.3379 492.2344,680.3691 L492.2344,681.4629 Q492.2344,682.6973 493.125,683.5254 Q494.0156,684.3379 495.6094,684.3379 Q496.5469,684.3379 497.2031,684.0879 Q497.5938,683.9316 498.0156,683.4941 Q498.2813,683.2285 498.4219,683.1504 Q498.5781,683.0723 498.7813,683.0723 Q499.1094,683.0723 499.3594,683.3379 Q499.625,683.5879 499.625,683.9316 Q499.625,684.2754 499.2813,684.6816 Q498.7813,685.2598 497.9844,685.5879 Q496.9063,686.041 495.6094,686.041 Q494.0938,686.041 492.8906,685.416 Q491.9063,684.916 491.2188,683.8535 Q490.5313,682.7754 490.5313,681.4941 L490.5313,680.3379 Q490.5313,679.0098 491.1406,677.8691 Q491.7656,676.7129 492.8594,676.1035 Q493.9531,675.4785 495.1875,675.4785 Q495.9219,675.4785 496.5625,675.6504 Q497.2188,675.8066 497.7656,676.166 Z " fill="#000000"/><text fill="#000000" font-family="FG Virgil" font-size="12" font-style="italic" lengthAdjust="spacing" textLength="50" x="542" y="675.9492">&#171;factory&#187;</text><text fill="#000000" font-family="FG Virgil" font-size="14" lengthAdjust="spacing" textLength="116" x="509" y="694.0684">RepositoryFactory</text><line style="stroke:#181818;stroke-width:0.5;" x1="481" x2="627" y1="702.582" y2="702.582"/><line style="stroke:#181818;stroke-width:0.5;" x1="481" x2="627" y1="710.582" y2="710.582"/><text fill="#000000" font-family="FG Virgil" font-size="14" lengthAdjust="spacing" textLength="60" x="486" y="729.6895">courses()</text></g><!--class ExamRepository--><g id="elem_ExamRepository"><rect codeLine="35" fill="#F1F1F1" height="79.2031" id="ExamRepository" rx="2.5" ry="2.5" style="stroke:#181818;stroke-width:0.5;" width="134" x="388" y="816"/><ellipse cx="403" cy="838.291" fill="#C2C2C2" rx="11" ry="11" style="stroke:#181818;stroke-width:1.0;"/><path d="M405.7656,834.166 Q405.9219,833.9473 406.1094,833.8379 Q406.2969,833.7285 406.5156,833.7285 Q406.8906,833.7285 407.125,833.9941 Q407.3594,834.2441 407.3594,834.8535 L407.3594,836.3066 Q407.3594,836.916 407.125,837.1816 Q406.8906,837.4473 406.5156,837.4473 Q406.1719,837.4473 405.9688,837.2441 Q405.7656,837.0566 405.6563,836.541 Q405.6094,836.1816 405.4219,835.9941 Q405.0938,835.6191 404.4844,835.4004 Q403.875,835.1816 403.25,835.1816 Q402.4844,835.1816 401.8438,835.5098 Q401.2188,835.8379 400.7188,836.5879 Q400.2344,837.3379 400.2344,838.3691 L400.2344,839.4629 Q400.2344,840.6973 401.125,841.5254 Q402.0156,842.3379 403.6094,842.3379 Q404.5469,842.3379 405.2031,842.0879 Q405.5938,841.9316 406.0156,841.4941 Q406.2813,841.2285 406.4219,841.1504 Q406.5781,841.0723 406.7813,841.0723 Q407.1094,841.0723 407.3594,841.3379 Q407.625,841.5879 407.625,841.9316 Q407.625,842.2754 407.2813,842.6816 Q406.7813,843.2598 405.9844,843.5879 Q404.9063,844.041 403.6094,844.041 Q402.0938,844.041 400.8906,843.416 Q399.9063,842.916 399.2188,841.8535 Q398.5313,840.7754 398.5313,839.4941 L398.5313,838.3379 Q398.5313,837.0098 399.1406,835.8691 Q399.7656,834.7129 400.8594,834.1035 Q401.9531,833.4785 403.1875,833.4785 Q403.9219,833.4785 404.5625,833.6504 Q405.2188,833.8066 405.7656,834.166 Z " fill="#000000"/><text fill="#000000" font-family="FG Virgil" font-size="12" font-style="italic" lengthAdjust="spacing" textLength="68" x="434" y="833.9492">&#171;repository&#187;</text><text fill="#000000" font-family="FG Virgil" font-size="14" lengthAdjust="spacing" textLength="102" x="417" y="852.0684">ExamRepository</text><line style="stroke:#181818;stroke-width:0.5;" x1="389" x2="521" y1="860.582" y2="860.582"/><text fill="#000000" font-family="FG Virgil" font-size="14" lengthAdjust="spacing" textLength="85" x="394" y="879.6895">findByCourse</text><line style="stroke:#181818;stroke-width:0.5;" x1="389" x2="521" y1="887.2031" y2="887.2031"/></g><!--link ListCourseExamsUI to ListCourseExamsController--><g id="link_ListCourseExamsUI_ListCourseExamsController"><path codeLine="39" d="M426,86.06 C426,108.37 426,136.53 426,159.68 " fill="none" id="ListCourseExamsUI-to-ListCourseExamsController" style="stroke:#181818;stroke-width:1.0;"/><polygon fill="#181818" points="426,164.84,430,155.84,426,159.84,422,155.84,426,164.84" style="stroke:#181818;stroke-width:1.0;"/><text fill="#000000" font-family="FG Virgil" font-size="13" lengthAdjust="spacing" textLength="75" x="427" y="131.0283">the controller</text></g><!--link ListCourseExamsController to AuthorizationService--><g id="link_ListCourseExamsController_AuthorizationService"><path codeLine="40" d="M361.64,244.09 C323.83,266.76 275.6,295.69 234.72,320.2 " fill="none" id="ListCourseExamsController-to-AuthorizationService" style="stroke:#181818;stroke-width:1.0;"/><polygon fill="#181818" points="230.29,322.86,240.0672,321.6739,234.5812,320.2938,235.9613,314.8079,230.29,322.86" style="stroke:#181818;stroke-width:1.0;"/><text fill="#000000" font-family="FG Virgil" font-size="13" lengthAdjust="spacing" textLength="32" x="306" y="289.0283">autzh</text></g><!--link ListCourseExamsController to ExamManagementService--><g id="link_ListCourseExamsController_ExamManagementService"><path codeLine="41" d="M426,244.3 C426,269.2 426,301.58 426,327.37 " fill="none" id="ListCourseExamsController-to-ExamManagementService" style="stroke:#181818;stroke-width:1.0;"/><polygon fill="#181818" points="426,332.44,430,323.44,426,327.44,422,323.44,426,332.44" style="stroke:#181818;stroke-width:1.0;"/><text fill="#000000" font-family="FG Virgil" font-size="13" lengthAdjust="spacing" textLength="40" x="427" y="289.0283">service</text></g><!--link ListCourseExamsController to PersistenceContext--><g id="link_ListCourseExamsController_PersistenceContext"><path codeLine="42" d="M474.53,244.12 C497.87,265.12 524.33,292.92 541,323 C573.37,381.4 579.64,403.67 572,470 C571.07,478.04 569.56,486.5 567.81,494.64 " fill="none" id="ListCourseExamsController-to-PersistenceContext" style="stroke:#181818;stroke-width:1.0;"/><polygon fill="#181818" points="566.7,499.65,572.562,491.7357,567.7877,494.7697,564.7536,489.9954,566.7,499.65" style="stroke:#181818;stroke-width:1.0;"/><text fill="#000000" font-family="FG Virgil" font-size="13" lengthAdjust="spacing" textLength="67" x="576" y="377.5283">persistence</text></g><!--link AuthorizationService to UserSession--><g id="link_AuthorizationService_UserSession"><path codeLine="43" d="M150,421.31 C150,446.59 150,477.09 150,500.64 " fill="none" id="AuthorizationService-to-UserSession" style="stroke:#181818;stroke-width:1.0;"/><polygon fill="#181818" points="150,505.86,154,496.86,150,500.86,146,496.86,150,505.86" style="stroke:#181818;stroke-width:1.0;"/><text fill="#000000" font-family="FG Virgil" font-size="13" lengthAdjust="spacing" textLength="45" x="151" y="466.0283">session</text></g><!--link ExamManagementService to PersistenceContext--><g id="link_ExamManagementService_PersistenceContext"><path codeLine="44" d="M454.35,411.57 C467.7,429.49 483.96,451 499,470 C505.6,478.34 512.77,487.14 519.72,495.55 " fill="none" id="ExamManagementService-to-PersistenceContext" style="stroke:#181818;stroke-width:1.0;"/><polygon fill="#181818" points="523.11,499.65,520.4455,490.1684,519.9189,495.8007,514.2867,495.2741,523.11,499.65" style="stroke:#181818;stroke-width:1.0;"/><text fill="#000000" font-family="FG Virgil" font-size="13" lengthAdjust="spacing" textLength="67" x="500" y="466.0283">persistence</text></g><!--link ExamManagementService to ExamRepository--><g id="link_ExamManagementService_ExamRepository"><path codeLine="45" d="M428.32,411.59 C433.65,500.07 446.73,717.14 452.35,810.56 " fill="none" id="ExamManagementService-to-ExamRepository" style="stroke:#181818;stroke-width:1.0;"/><polygon fill="#181818" points="452.66,815.73,456.1122,806.506,452.3597,810.739,448.1267,806.9865,452.66,815.73" style="stroke:#181818;stroke-width:1.0;"/><text fill="#000000" font-family="FG Virgil" font-size="13" lengthAdjust="spacing" textLength="25" x="443" y="624.0283">repo</text></g><!--link PersistenceContext to RepositoryFactory--><g id="link_PersistenceContext_RepositoryFactory"><path codeLine="46" d="M555.51,579.06 C555.22,601.37 554.86,629.53 554.56,652.68 " fill="none" id="PersistenceContext-to-RepositoryFactory" style="stroke:#181818;stroke-width:1.0;"/><polygon fill="#181818" points="554.5,657.84,558.6026,648.8863,554.5571,652.8403,550.6031,648.7949,554.5,657.84" style="stroke:#181818;stroke-width:1.0;"/><text fill="#000000" font-family="FG Virgil" font-size="13" lengthAdjust="spacing" textLength="39" x="557" y="624.0283">factory</text></g><!--link RepositoryFactory to ExamRepository--><g id="link_RepositoryFactory_ExamRepository"><path codeLine="47" d="M529.53,737.06 C515.19,759.66 497.05,788.24 482.26,811.55 " fill="none" id="RepositoryFactory-to-ExamRepository" style="stroke:#181818;stroke-width:1.0;"/><polygon fill="#181818" points="479.53,815.84,487.7401,810.3999,482.2172,811.6235,480.9936,806.1005,479.53,815.84" style="stroke:#181818;stroke-width:1.0;"/><text fill="#000000" font-family="FG Virgil" font-size="13" lengthAdjust="spacing" textLength="25" x="512" y="782.0283">repo</text></g><!--SRC=[ZPBFRi8m3CRlUOeSuG0FK24aXiOsQVz4nUvHwjA8DAdYT52clVkS0gL0WVNIolw-drtRk5Ac44xaFBV6oipP7BXt9J1iCeMGAx64s5SQk0FfMxa4Kb5gFxF6lmkopfxubt9BfLiQp4HYryeiUIeq0cDI2qJ-gj1FRUaG7ZSYnyKB7uqA1mZ62w-i6O_v3-Fq93RExBhNPx_TpYaLTrPhS4GGHQ6LF0NeKtrDsgCcfS-iKzlQ48FxLXA8WhklXW06ImT1JDq5F2GBqZmBd9Zg8-tDhORXSDYlnGY8H6kN2U9u5zuJnJchBGzjlWb3Gyz9Sxsj6p_s2Guf2qP2c0ziV1ZlCTWm71GMbQSXm0bWVeXNCo73Y_pfxglnohesdhT-j9AduHzjgJB9GxLhF3WlBs4m6D_OSiHfTbJy463NfG7KkUCeR62RtR5sBoBY-qNSSNVi8EAj7R3EpeApVI_HuQ1OTpV_gdJTUhQmg3u8rW4CuikZYFZ-ADXbxZgU_G40]--></g></svg>