<?xml version="1.0" encoding="us-ascii" standalone="no"?><svg xmlns="http://www.w3.org/2000/svg" xmlns:xlink="http://www.w3.org/1999/xlink" contentStyleType="text/css" height="476.4px" preserveAspectRatio="none" style="width:415px;height:476px;background:#FFFFFF;" version="1.1" viewBox="0 0 415 476" width="415.2px" zoomAndPan="magnify"><defs/><g><text fill="#000000" font-family="sans-serif" font-size="8.4" font-weight="bold" lengthAdjust="spacing" textLength="94.8" x="156" y="15.0645">Domain Model Excerpt</text><!--cluster User Aggregate--><g id="cluster_User Aggregate"><rect fill="none" height="73.8" rx="1.5" ry="1.5" style="stroke:#000000;stroke-width:0.8999999999999999;" width="75.6" x="329.4" y="399.3727"/><text fill="#000000" font-family="sans-serif" font-size="8.4" font-weight="bold" lengthAdjust="spacing" textLength="66" x="334.2" y="409.6371">User Aggregate</text></g><!--cluster BoardAggregate--><g id="cluster_BoardAggregate"><rect fill="none" height="357" rx="1.5" ry="1.5" style="stroke:#000000;stroke-width:0.8999999999999999;" width="407.4" x="4.2" y="27.9727"/><text fill="#000000" font-family="sans-serif" font-size="8.4" font-weight="bold" lengthAdjust="spacing" textLength="69" x="173.4" y="38.2371">BoardAggregate</text></g><!--class User--><g id="elem_User"><rect codeLine="28" fill="#D8F5FF" height="41.1258" id="User" rx="1.5" ry="1.5" style="stroke:#1E90FF;stroke-width:0.3;" width="42.6" x="345.6" y="421.8727"/><ellipse cx="354.6" cy="440.0355" fill="#ADD1B2" rx="6.6" ry="6.6" style="stroke:#181818;stroke-width:0.6;"/><path d="M353.9156,440.5137 L353.9156,442.0137 L356.5125,442.0137 L356.5125,441.4605 Q356.5125,441.0949 356.6531,440.9355 Q356.8031,440.7762 357.0281,440.7762 Q357.2531,440.7762 357.3938,440.9355 Q357.5344,441.0949 357.5344,441.4605 L357.5344,443.0355 L352.7344,443.0355 Q352.3594,443.0355 352.2,442.8949 Q352.05,442.7543 352.05,442.5199 Q352.05,442.2949 352.2094,442.1543 Q352.3688,442.0137 352.7344,442.0137 L352.8938,442.0137 L352.8938,438.0199 L352.7344,438.0199 Q352.3594,438.0199 352.2,437.8793 Q352.05,437.7387 352.05,437.5043 Q352.05,437.2793 352.2,437.1387 Q352.3594,436.998 352.7344,436.998 L357.3094,436.998 L357.3094,438.5543 Q357.3094,438.9199 357.1688,439.0793 Q357.0375,439.2293 356.8031,439.2293 Q356.5781,439.2293 356.4375,439.0793 Q356.2969,438.9199 356.2969,438.5543 L356.2969,438.0199 L353.9156,438.0199 L353.9156,439.4918 L354.8063,439.4918 Q354.8063,439.098 354.8812,438.9855 Q355.0406,438.7418 355.3219,438.7418 Q355.5469,438.7418 355.6875,438.9012 Q355.8281,439.0512 355.8281,439.4168 L355.8281,440.598 Q355.8281,440.9262 355.7531,441.0387 Q355.5938,441.273 355.3219,441.273 Q355.0406,441.273 354.8812,441.0293 Q354.8063,440.9168 354.8063,440.5137 L353.9156,440.5137 Z " fill="#000000"/><text fill="#000000" font-family="sans-serif" font-size="7.2" font-style="italic" lengthAdjust="spacing" textLength="25.8" x="361.8" y="432.6422">&#171;entity&#187;</text><text fill="#000000" font-family="sans-serif" font-size="7.2" font-style="italic" lengthAdjust="spacing" textLength="21" x="364.2" y="442.2188">&#171;root&#187;</text><text fill="#000000" font-family="sans-serif" font-size="8.4" lengthAdjust="spacing" textLength="17.4" x="366" y="453.0902">User</text><line style="stroke:#1E90FF;stroke-width:0.3;" x1="346.2" x2="387.6" y1="458.1984" y2="458.1984"/></g><!--class SharedBoard--><g id="elem_SharedBoard"><rect codeLine="32" fill="#D8F5FF" height="41.1258" id="SharedBoard" rx="1.5" ry="1.5" style="stroke:#1E90FF;stroke-width:0.3;" width="69.6" x="332.1" y="218.4727"/><ellipse cx="341.1" cy="236.6355" fill="#ADD1B2" rx="6.6" ry="6.6" style="stroke:#181818;stroke-width:0.6;"/><path d="M340.4156,237.1137 L340.4156,238.6137 L343.0125,238.6137 L343.0125,238.0605 Q343.0125,237.6949 343.1531,237.5355 Q343.3031,237.3762 343.5281,237.3762 Q343.7531,237.3762 343.8938,237.5355 Q344.0344,237.6949 344.0344,238.0605 L344.0344,239.6355 L339.2344,239.6355 Q338.8594,239.6355 338.7,239.4949 Q338.55,239.3543 338.55,239.1199 Q338.55,238.8949 338.7094,238.7543 Q338.8688,238.6137 339.2344,238.6137 L339.3938,238.6137 L339.3938,234.6199 L339.2344,234.6199 Q338.8594,234.6199 338.7,234.4793 Q338.55,234.3387 338.55,234.1043 Q338.55,233.8793 338.7,233.7387 Q338.8594,233.598 339.2344,233.598 L343.8094,233.598 L343.8094,235.1543 Q343.8094,235.5199 343.6688,235.6793 Q343.5375,235.8293 343.3031,235.8293 Q343.0781,235.8293 342.9375,235.6793 Q342.7969,235.5199 342.7969,235.1543 L342.7969,234.6199 L340.4156,234.6199 L340.4156,236.0918 L341.3063,236.0918 Q341.3063,235.698 341.3812,235.5855 Q341.5406,235.3418 341.8219,235.3418 Q342.0469,235.3418 342.1875,235.5012 Q342.3281,235.6512 342.3281,236.0168 L342.3281,237.198 Q342.3281,237.5262 342.2531,237.6387 Q342.0938,237.873 341.8219,237.873 Q341.5406,237.873 341.3812,237.6293 Q341.3063,237.5168 341.3063,237.1137 L340.4156,237.1137 Z " fill="#000000"/><text fill="#000000" font-family="sans-serif" font-size="7.2" font-style="italic" lengthAdjust="spacing" textLength="25.8" x="361.8" y="229.2422">&#171;entity&#187;</text><text fill="#000000" font-family="sans-serif" font-size="7.2" font-style="italic" lengthAdjust="spacing" textLength="21" x="364.2" y="238.8188">&#171;root&#187;</text><text fill="#000000" font-family="sans-serif" font-size="8.4" lengthAdjust="spacing" textLength="50.4" x="349.5" y="249.6902">SharedBoard</text><line style="stroke:#1E90FF;stroke-width:0.3;" x1="332.7" x2="401.1" y1="254.7984" y2="254.7984"/></g><!--class BoardEntry--><g id="elem_BoardEntry"><rect codeLine="51" fill="#D8F5FF" height="31.5492" id="BoardEntry" rx="1.5" ry="1.5" style="stroke:#1E90FF;stroke-width:0.3;" width="61.8" x="212.1" y="103.2727"/><ellipse cx="221.1" cy="116.6473" fill="#ADD1B2" rx="6.6" ry="6.6" style="stroke:#181818;stroke-width:0.6;"/><path d="M220.4156,117.1254 L220.4156,118.6254 L223.0125,118.6254 L223.0125,118.0723 Q223.0125,117.7066 223.1531,117.5473 Q223.3031,117.3879 223.5281,117.3879 Q223.7531,117.3879 223.8937,117.5473 Q224.0344,117.7066 224.0344,118.0723 L224.0344,119.6473 L219.2344,119.6473 Q218.8594,119.6473 218.7,119.5066 Q218.55,119.366 218.55,119.1316 Q218.55,118.9066 218.7094,118.766 Q218.8688,118.6254 219.2344,118.6254 L219.3937,118.6254 L219.3937,114.6316 L219.2344,114.6316 Q218.8594,114.6316 218.7,114.491 Q218.55,114.3504 218.55,114.116 Q218.55,113.891 218.7,113.7504 Q218.8594,113.6098 219.2344,113.6098 L223.8094,113.6098 L223.8094,115.166 Q223.8094,115.5316 223.6688,115.691 Q223.5375,115.841 223.3031,115.841 Q223.0781,115.841 222.9375,115.691 Q222.7969,115.5316 222.7969,115.166 L222.7969,114.6316 L220.4156,114.6316 L220.4156,116.1035 L221.3063,116.1035 Q221.3063,115.7098 221.3813,115.5973 Q221.5406,115.3535 221.8219,115.3535 Q222.0469,115.3535 222.1875,115.5129 Q222.3281,115.6629 222.3281,116.0285 L222.3281,117.2098 Q222.3281,117.5379 222.2531,117.6504 Q222.0938,117.8848 221.8219,117.8848 Q221.5406,117.8848 221.3813,117.641 Q221.3063,117.5285 221.3063,117.1254 L220.4156,117.1254 Z " fill="#000000"/><text fill="#000000" font-family="sans-serif" font-size="7.2" font-style="italic" lengthAdjust="spacing" textLength="26.4" x="237.6" y="114.0422">&#171;Entity&#187;</text><text fill="#000000" font-family="sans-serif" font-size="8.4" lengthAdjust="spacing" textLength="42.6" x="229.5" y="124.9137">BoardEntry</text><line style="stroke:#1E90FF;stroke-width:0.3;" x1="212.7" x2="273.3" y1="130.0219" y2="130.0219"/></g><!--class BoardPermissions--><g id="elem_BoardPermissions"><rect codeLine="65" fill="#D8F5FF" height="31.5492" id="BoardPermissions" rx="1.5" ry="1.5" style="stroke:#1E90FF;stroke-width:0.3;" width="87.6" x="199.2" y="343.2727"/><ellipse cx="208.2" cy="356.6473" fill="#ADD1B2" rx="6.6" ry="6.6" style="stroke:#181818;stroke-width:0.6;"/><path d="M207.5156,357.1254 L207.5156,358.6254 L210.1125,358.6254 L210.1125,358.0723 Q210.1125,357.7066 210.2531,357.5473 Q210.4031,357.3879 210.6281,357.3879 Q210.8531,357.3879 210.9938,357.5473 Q211.1344,357.7066 211.1344,358.0723 L211.1344,359.6473 L206.3344,359.6473 Q205.9594,359.6473 205.8,359.5066 Q205.65,359.366 205.65,359.1316 Q205.65,358.9066 205.8094,358.766 Q205.9688,358.6254 206.3344,358.6254 L206.4938,358.6254 L206.4938,354.6316 L206.3344,354.6316 Q205.9594,354.6316 205.8,354.491 Q205.65,354.3504 205.65,354.116 Q205.65,353.891 205.8,353.7504 Q205.9594,353.6098 206.3344,353.6098 L210.9094,353.6098 L210.9094,355.166 Q210.9094,355.5316 210.7687,355.691 Q210.6375,355.841 210.4031,355.841 Q210.1781,355.841 210.0375,355.691 Q209.8969,355.5316 209.8969,355.166 L209.8969,354.6316 L207.5156,354.6316 L207.5156,356.1035 L208.4063,356.1035 Q208.4063,355.7098 208.4813,355.5973 Q208.6406,355.3535 208.9219,355.3535 Q209.1469,355.3535 209.2875,355.5129 Q209.4281,355.6629 209.4281,356.0285 L209.4281,357.2098 Q209.4281,357.5379 209.3531,357.6504 Q209.1938,357.8848 208.9219,357.8848 Q208.6406,357.8848 208.4813,357.641 Q208.4063,357.5285 208.4063,357.1254 L207.5156,357.1254 Z " fill="#000000"/><text fill="#000000" font-family="sans-serif" font-size="7.2" font-style="italic" lengthAdjust="spacing" textLength="26.4" x="237.6" y="354.0422">&#171;Entity&#187;</text><text fill="#000000" font-family="sans-serif" font-size="8.4" lengthAdjust="spacing" textLength="68.4" x="216.6" y="364.9137">BoardPermissions</text><line style="stroke:#1E90FF;stroke-width:0.3;" x1="199.8" x2="286.2" y1="370.0219" y2="370.0219"/></g><!--class BoardCreateConfig--><g id="elem_BoardCreateConfig"><rect codeLine="73" fill="#D8F5FF" height="31.5492" id="BoardCreateConfig" rx="1.5" ry="1.5" style="stroke:#1E90FF;stroke-width:0.3;" width="92.4" x="196.8" y="50.4727"/><ellipse cx="205.8" cy="63.8473" fill="#ADD1B2" rx="6.6" ry="6.6" style="stroke:#181818;stroke-width:0.6;"/><path d="M207.4594,61.3723 Q207.5531,61.241 207.6656,61.1754 Q207.7781,61.1098 207.9094,61.1098 Q208.1344,61.1098 208.275,61.2691 Q208.4156,61.4191 208.4156,61.7848 L208.4156,62.6566 Q208.4156,63.0223 208.275,63.1816 Q208.1344,63.341 207.9094,63.341 Q207.7031,63.341 207.5812,63.2191 Q207.4594,63.1066 207.3937,62.7973 Q207.3656,62.5816 207.2531,62.4691 Q207.0563,62.2441 206.6906,62.1129 Q206.325,61.9816 205.95,61.9816 Q205.4906,61.9816 205.1063,62.1785 Q204.7313,62.3754 204.4313,62.8254 Q204.1406,63.2754 204.1406,63.8941 L204.1406,64.5504 Q204.1406,65.291 204.675,65.7879 Q205.2094,66.2754 206.1656,66.2754 Q206.7281,66.2754 207.1219,66.1254 Q207.3563,66.0316 207.6094,65.7691 Q207.7687,65.6098 207.8531,65.5629 Q207.9469,65.516 208.0688,65.516 Q208.2656,65.516 208.4156,65.6754 Q208.575,65.8254 208.575,66.0316 Q208.575,66.2379 208.3688,66.4816 Q208.0688,66.8285 207.5906,67.0254 Q206.9438,67.2973 206.1656,67.2973 Q205.2563,67.2973 204.5344,66.9223 Q203.9438,66.6223 203.5313,65.9848 Q203.1188,65.3379 203.1188,64.5691 L203.1188,63.8754 Q203.1188,63.0785 203.4844,62.3941 Q203.8594,61.7004 204.5156,61.3348 Q205.1719,60.9598 205.9125,60.9598 Q206.3531,60.9598 206.7375,61.0629 Q207.1313,61.1566 207.4594,61.3723 Z " fill="#000000"/><text fill="#000000" font-family="sans-serif" font-size="7.2" font-style="italic" lengthAdjust="spacing" textLength="19.2" x="241.2" y="61.2422">&#171;Util&#187;</text><text fill="#000000" font-family="sans-serif" font-size="8.4" lengthAdjust="spacing" textLength="73.2" x="214.2" y="72.1137">BoardCreateConfig</text><line style="stroke:#1E90FF;stroke-width:0.3;" x1="197.4" x2="288.6" y1="77.2219" y2="77.2219"/></g><g id="elem_GMN30"><path d="M13.8,50.1727 L13.8,87.2965 A0,0 0 0 0 13.8,87.2965 L160.8,87.2965 A0,0 0 0 0 160.8,87.2965 L160.8,70.0387 L196.626,67.0867 L160.8,65.2387 L160.8,56.1727 L154.8,50.1727 L13.8,50.1727 A0,0 0 0 0 13.8,50.1727 " fill="#FEFFDD" style="stroke:#181818;stroke-width:0.3;"/><path d="M154.8,50.1727 L154.8,56.1727 L160.8,56.1727 L154.8,50.1727 " fill="#FEFFDD" style="stroke:#181818;stroke-width:0.3;"/><text fill="#000000" font-family="sans-serif" font-size="7.8" lengthAdjust="spacing" textLength="134.4" x="17.4" y="61.5896">This will be extracted from a config file,</text><text fill="#000000" font-family="sans-serif" font-size="7.8" lengthAdjust="spacing" textLength="64.2" x="17.4" y="71.9643">the default value is</text><text fill="#000000" font-family="sans-serif" font-size="7.8" lengthAdjust="spacing" textLength="84.6" x="17.4" y="82.3389">20 rows and 10 columns</text></g><!--entity BoardTitle--><g id="elem_BoardTitle"><rect fill="#D8F5FF" height="25.9453" rx="1.5" ry="1.5" style="stroke:#1E90FF;stroke-width:0.3;" width="70.2" x="207.9" y="156.0727"/><text fill="#000000" font-family="sans-serif" font-size="8.4" font-style="italic" lengthAdjust="spacing" textLength="58.2" x="213.9" y="166.9371">&#171;Value Object&#187;</text><text fill="#000000" font-family="sans-serif" font-size="8.4" lengthAdjust="spacing" textLength="39" x="223.5" y="178.1098">BoardTitle</text></g><!--entity BoardNRow--><g id="elem_BoardNRow"><rect fill="#D8F5FF" height="25.9453" rx="1.5" ry="1.5" style="stroke:#1E90FF;stroke-width:0.3;" width="70.2" x="207.9" y="202.8727"/><text fill="#000000" font-family="sans-serif" font-size="8.4" font-style="italic" lengthAdjust="spacing" textLength="58.2" x="213.9" y="213.7371">&#171;Value Object&#187;</text><text fill="#000000" font-family="sans-serif" font-size="8.4" lengthAdjust="spacing" textLength="44.4" x="220.8" y="224.9098">BoardNRow</text></g><!--entity BoardNCol--><g id="elem_BoardNCol"><rect fill="#D8F5FF" height="25.9453" rx="1.5" ry="1.5" style="stroke:#1E90FF;stroke-width:0.3;" width="70.2" x="207.9" y="249.6727"/><text fill="#000000" font-family="sans-serif" font-size="8.4" font-style="italic" lengthAdjust="spacing" textLength="58.2" x="213.9" y="260.5371">&#171;Value Object&#187;</text><text fill="#000000" font-family="sans-serif" font-size="8.4" lengthAdjust="spacing" textLength="40.8" x="222.6" y="271.7098">BoardNCol</text></g><!--entity BoardState--><g id="elem_BoardState"><rect fill="#D8F5FF" height="25.9453" rx="1.5" ry="1.5" style="stroke:#1E90FF;stroke-width:0.3;" width="70.2" x="207.9" y="296.4727"/><text fill="#000000" font-family="sans-serif" font-size="8.4" font-style="italic" lengthAdjust="spacing" textLength="58.2" x="213.9" y="307.3371">&#171;Value Object&#187;</text><text fill="#000000" font-family="sans-serif" font-size="8.4" lengthAdjust="spacing" textLength="42.6" x="221.7" y="318.5098">BoardState</text></g><!--entity EntryTitle--><g id="elem_EntryTitle"><rect fill="#D8F5FF" height="25.9453" rx="1.5" ry="1.5" style="stroke:#1E90FF;stroke-width:0.3;" width="70.2" x="52.2" y="155.4727"/><text fill="#000000" font-family="sans-serif" font-size="8.4" font-style="italic" lengthAdjust="spacing" textLength="58.2" x="58.2" y="166.3371">&#171;Value Object&#187;</text><text fill="#000000" font-family="sans-serif" font-size="8.4" lengthAdjust="spacing" textLength="36" x="69.3" y="177.5098">EntryTitle</text></g><!--entity EntryNumber--><g id="elem_EntryNumber"><rect fill="#D8F5FF" height="25.9453" rx="1.5" ry="1.5" style="stroke:#1E90FF;stroke-width:0.3;" width="70.2" x="52.2" y="202.2727"/><text fill="#000000" font-family="sans-serif" font-size="8.4" font-style="italic" lengthAdjust="spacing" textLength="58.2" x="58.2" y="213.1371">&#171;Value Object&#187;</text><text fill="#000000" font-family="sans-serif" font-size="8.4" lengthAdjust="spacing" textLength="49.2" x="62.7" y="224.3098">EntryNumber</text></g><!--entity BoardRow--><g id="elem_BoardRow"><rect fill="#D8F5FF" height="25.9453" rx="1.5" ry="1.5" style="stroke:#1E90FF;stroke-width:0.3;" width="70.2" x="52.2" y="249.0727"/><text fill="#000000" font-family="sans-serif" font-size="8.4" font-style="italic" lengthAdjust="spacing" textLength="58.2" x="58.2" y="259.9371">&#171;Value Object&#187;</text><text fill="#000000" font-family="sans-serif" font-size="8.4" lengthAdjust="spacing" textLength="39" x="67.8" y="271.1098">BoardRow</text></g><!--entity BoardCol--><g id="elem_BoardCol"><rect fill="#D8F5FF" height="25.9453" rx="1.5" ry="1.5" style="stroke:#1E90FF;stroke-width:0.3;" width="70.2" x="52.2" y="108.6727"/><text fill="#000000" font-family="sans-serif" font-size="8.4" font-style="italic" lengthAdjust="spacing" textLength="58.2" x="58.2" y="119.5371">&#171;Value Object&#187;</text><text fill="#000000" font-family="sans-serif" font-size="8.4" lengthAdjust="spacing" textLength="35.4" x="69.6" y="130.7098">BoardCol</text></g><!--entity AccessLevel--><g id="elem_AccessLevel"><rect fill="#D8F5FF" height="25.9453" rx="1.5" ry="1.5" style="stroke:#1E90FF;stroke-width:0.3;" width="70.2" x="331.8" y="346.2727"/><text fill="#000000" font-family="sans-serif" font-size="8.4" font-style="italic" lengthAdjust="spacing" textLength="58.2" x="337.8" y="357.1371">&#171;Value Object&#187;</text><text fill="#000000" font-family="sans-serif" font-size="8.4" lengthAdjust="spacing" textLength="47.4" x="343.2" y="368.3098">AccessLevel</text></g><!--entity BoardMaxRow--><g id="elem_BoardMaxRow"><rect fill="#D8F5FF" height="25.9453" rx="1.5" ry="1.5" style="stroke:#1E90FF;stroke-width:0.3;" width="70.2" x="331.8" y="99.0727"/><text fill="#000000" font-family="sans-serif" font-size="8.4" font-style="italic" lengthAdjust="spacing" textLength="58.2" x="337.8" y="109.9371">&#171;Value Object&#187;</text><text fill="#000000" font-family="sans-serif" font-size="8.4" lengthAdjust="spacing" textLength="54" x="339.9" y="121.1098">BoardMaxRow</text></g><!--entity BoardMaxCol--><g id="elem_BoardMaxCol"><rect fill="#D8F5FF" height="25.9453" rx="1.5" ry="1.5" style="stroke:#1E90FF;stroke-width:0.3;" width="70.2" x="331.8" y="52.2727"/><text fill="#000000" font-family="sans-serif" font-size="8.4" font-style="italic" lengthAdjust="spacing" textLength="58.2" x="337.8" y="63.1371">&#171;Value Object&#187;</text><text fill="#000000" font-family="sans-serif" font-size="8.4" lengthAdjust="spacing" textLength="50.4" x="341.7" y="74.3098">BoardMaxCol</text></g><!--reverse link BoardTitle to SharedBoard--><g id="link_BoardTitle_SharedBoard"><path codeLine="46" d="M272.322,183.3187 C277.956,186.2407 283.794,189.3487 289.2,192.3727 C303.822,200.5507 319.692,210.0667 333.21,218.3767 " fill="none" id="BoardTitle-backto-SharedBoard" style="stroke:#1E90FF;stroke-width:0.6;"/><polygon fill="#1E90FF" points="269.574,181.8967,273.2661,186.5106,272.2382,183.2759,275.4729,182.2479,269.574,181.8967" style="stroke:#1E90FF;stroke-width:0.6;"/></g><!--reverse link BoardNRow to SharedBoard--><g id="link_BoardNRow_SharedBoard"><path codeLine="47" d="M281.106,222.9247 C297.336,226.0207 316.206,229.6207 332.052,232.6387 " fill="none" id="BoardNRow-backto-SharedBoard" style="stroke:#1E90FF;stroke-width:0.6;"/><polygon fill="#1E90FF" points="278.106,222.3547,282.9552,225.7318,281.052,222.9215,283.8622,221.0182,278.106,222.3547" style="stroke:#1E90FF;stroke-width:0.6;"/></g><!--reverse link BoardNCol to SharedBoard--><g id="link_BoardNCol_SharedBoard"><path codeLine="48" d="M281.106,255.4207 C297.336,252.3247 316.206,248.7247 332.052,245.7067 " fill="none" id="BoardNCol-backto-SharedBoard" style="stroke:#1E90FF;stroke-width:0.6;"/><polygon fill="#1E90FF" points="278.106,255.9907,283.8622,257.3271,281.052,255.4238,282.9552,252.6135,278.106,255.9907" style="stroke:#1E90FF;stroke-width:0.6;"/></g><!--reverse link BoardState to SharedBoard--><g id="link_BoardState_SharedBoard"><path codeLine="49" d="M272.322,295.0267 C277.956,292.1047 283.794,288.9967 289.2,285.9727 C303.822,277.7947 319.692,268.2787 333.21,259.9687 " fill="none" id="BoardState-backto-SharedBoard" style="stroke:#1E90FF;stroke-width:0.6;"/><polygon fill="#1E90FF" points="269.574,296.4487,275.4729,296.0974,272.2382,295.0695,273.2661,291.8348,269.574,296.4487" style="stroke:#1E90FF;stroke-width:0.6;"/></g><!--reverse link BoardEntry to SharedBoard--><g id="link_BoardEntry_SharedBoard"><path codeLine="58" d="M276.774,136.4767 C281.124,139.2847 285.384,142.3387 289.2,145.5727 C314.73,167.2207 338.292,198.0847 352.476,218.3647 " fill="none" id="BoardEntry-backto-SharedBoard" style="stroke:#1E90FF;stroke-width:0.6;"/><polygon fill="#1E90FF" points="274.062,134.7607,277.3454,139.6738,276.5983,136.363,279.9091,135.6158,274.062,134.7607" style="stroke:#1E90FF;stroke-width:0.6;"/></g><!--reverse link BoardRow to BoardEntry--><g id="link_BoardRow_BoardEntry"><path codeLine="59" d="M125.526,256.6027 C138.018,253.2067 151.176,247.6507 160.8,238.5727 C193.05,208.1647 167.988,179.2507 196.8,145.5727 C201.024,140.6347 206.412,136.4107 211.992,132.8767 " fill="none" id="BoardRow-backto-BoardEntry" style="stroke:#1E90FF;stroke-width:0.6;"/><polygon fill="#1E90FF" points="122.538,257.3827,128.3685,258.3447,125.4412,256.6268,127.1591,253.6995,122.538,257.3827" style="stroke:#1E90FF;stroke-width:0.6;"/></g><!--reverse link BoardCol to BoardEntry--><g id="link_BoardCol_BoardEntry"><path codeLine="60" d="M125.604,120.9847 C152.16,120.5767 187.26,120.0307 212.022,119.6467 " fill="none" id="BoardCol-backto-BoardEntry" style="stroke:#1E90FF;stroke-width:0.6;"/><polygon fill="#1E90FF" points="122.574,121.0327,128.0077,123.3553,125.5737,120.9898,127.9392,118.5558,122.574,121.0327" style="stroke:#1E90FF;stroke-width:0.6;"/></g><!--reverse link EntryNumber to BoardEntry--><g id="link_EntryNumber_BoardEntry"><path codeLine="61" d="M125.52,207.7267 C137.508,204.1867 150.354,199.0687 160.8,191.7727 C182.142,176.8687 177.174,162.6727 196.8,145.5727 C201.42,141.5467 206.748,137.8207 212.088,134.5087 " fill="none" id="EntryNumber-backto-BoardEntry" style="stroke:#1E90FF;stroke-width:0.6;"/><polygon fill="#1E90FF" points="122.496,208.5907,128.3492,209.4034,125.379,207.7608,127.0215,204.7906,122.496,208.5907" style="stroke:#1E90FF;stroke-width:0.6;"/></g><!--reverse link EntryTitle to BoardEntry--><g id="link_EntryTitle_BoardEntry"><path codeLine="62" d="M125.442,156.4147 C152.022,147.9547 187.206,136.7467 212.022,128.8447 " fill="none" id="EntryTitle-backto-BoardEntry" style="stroke:#1E90FF;stroke-width:0.6;"/><polygon fill="#1E90FF" points="122.574,157.3327,128.447,157.9867,125.4335,156.4252,126.995,153.4116,122.574,157.3327" style="stroke:#1E90FF;stroke-width:0.6;"/></g><!--reverse link BoardPermissions to SharedBoard--><g id="link_BoardPermissions_SharedBoard"><path codeLine="69" d="M277.368,341.4847 C281.508,338.7847 285.558,335.8567 289.2,332.7727 C314.73,311.1247 338.292,280.2607 352.476,259.9807 " fill="none" id="BoardPermissions-backto-SharedBoard" style="stroke:#1E90FF;stroke-width:0.6;"/><polygon fill="#1E90FF" points="274.782,343.1347,280.6257,342.2565,277.3119,341.5224,278.046,338.2086,274.782,343.1347" style="stroke:#1E90FF;stroke-width:0.6;"/></g><!--link BoardPermissions to User--><g id="link_BoardPermissions_User"><path codeLine="70" d="M267.258,375.2527 C289.074,390.0787 321.27,411.9667 342.978,426.7207 " fill="none" id="BoardPermissions-to-User" style="stroke:#1E90FF;stroke-width:0.6;"/><polygon fill="#1E90FF" points="345.57,428.4847,342.4518,423.465,343.0884,426.7989,339.7546,427.4355,345.57,428.4847" style="stroke:#1E90FF;stroke-width:0.6;"/></g><!--link BoardPermissions to AccessLevel--><g id="link_BoardPermissions_AccessLevel"><path codeLine="71" d="M286.86,359.1727 C300.462,359.1727 315.372,359.1727 328.566,359.1727 " fill="none" id="BoardPermissions-to-AccessLevel" style="stroke:#1E90FF;stroke-width:0.6;"/><polygon fill="#1E90FF" points="331.704,359.1727,326.304,356.7727,328.704,359.1727,326.304,361.5727,331.704,359.1727" style="stroke:#1E90FF;stroke-width:0.6;"/></g><!--link BoardCreateConfig to BoardMaxRow--><g id="link_BoardCreateConfig_BoardMaxRow"><path codeLine="86" d="M286.512,82.3207 C300.324,87.4507 315.504,93.0967 328.884,98.0647 " fill="none" id="BoardCreateConfig-to-BoardMaxRow" style="stroke:#1E90FF;stroke-width:0.6;"/><polygon fill="#1E90FF" points="331.71,99.1147,327.4854,94.9827,328.8982,98.0688,325.8121,99.4816,331.71,99.1147" style="stroke:#1E90FF;stroke-width:0.6;"/></g><!--link BoardCreateConfig to BoardMaxCol--><g id="link_BoardCreateConfig_BoardMaxCol"><path codeLine="87" d="M289.29,65.9287 C302.226,65.7967 316.164,65.6647 328.578,65.5387 " fill="none" id="BoardCreateConfig-to-BoardMaxCol" style="stroke:#1E90FF;stroke-width:0.6;"/><polygon fill="#1E90FF" points="331.698,65.5087,326.2709,63.1705,328.6982,65.5429,326.3258,67.9702,331.698,65.5087" style="stroke:#1E90FF;stroke-width:0.6;"/></g><!--SRC=[pLJ1Zjem4BtdAqRRQv7ObIhr44K25YGabaM5xTt4ayHTnqRsP85M- -yrJfOaGDeSDxVaFS-yzpmP4YGH7dNEX88dpL72z12ZsL4GP88Zv4YPvZQGc12G1YFIZ80BWp49hOB0lWgrOuRb44jcxOZ8Y6r1E8-rMelV2CCh3lm9m3qBaU12A1nhmz5CjDJ6AU4fch4ii4rXyMjgTA5uIHkjLelvPBIPFoyzxnB_ylXzzcqsyzZ86Bs_MRsZyNjJyCvLPYckwUXoEfbcAfNOiiGC__oEAXzmzsBHTKjJWoaZlAkKeo91H_1W69PlKHI6HckAecQ1iNP-p-VRnzSPCyWzurQL4zEdvHaRFtfX-9CvYV2y_UN2ZQAotli5T_b3x_jIdVkUr3MT7FoNErLaZZtLUkwooBS-nzlawgRg20Q3Pd8rNBhkHBtHBhJoTW4tByj_yNgTqcbrLxU3wf_-lyAlnLLTkxH_sAwvDVPX-W9hvTu1rsatqEj8LcXoOQrRRhOHJErp5CTexGBVi8_LLhKkmqtIO13vtx0RRGWe6vLBjOp7eBltYLQ9I9sw5nBIQVSifTr0-3MkaskofvoUJIOix8MKi4N00naM4t98ZCw1GLnMJeJ4h-SZb25mJ5WX2Tvy7iAUmOSXk6rbWIaEzqDNG1QvibNgtAiABeReYHtwJvmZznkwLZId71kzUh1S4xS6_m80]--></g></svg>