<?xml version="1.0" encoding="UTF-8" standalone="no"?><svg xmlns="http://www.w3.org/2000/svg" xmlns:xlink="http://www.w3.org/1999/xlink" contentStyleType="text/css" height="795px" preserveAspectRatio="none" style="width:1119px;height:795px;background:#FFFFFF;" version="1.1" viewBox="0 0 1119 795" width="1119px" zoomAndPan="magnify"><defs/><g><!--MD5=[475f3b715ca7ffb20b7527e2f35f29f1]
class HttpServerAjax--><g id="elem_HttpServerAjax"><polygon fill="#F1F1F1" points="715.5,7,715.5,7.2102,725.4355,6.5857,735.371,7.1933,745.3065,7.3997,755.2419,6.2866,765.1774,6.9223,775.1129,6.5735,785.0484,6.6165,794.9839,6.9318,804.9194,6.3086,814.8548,7.5536,824.7903,6.3697,834.7258,6.8022,844.6613,7.4319,854.5968,6.9142,864.5323,7.0682,874.4677,6.9681,884.4032,7.1785,894.3387,7.2391,904.2742,7.5857,914.2097,7.6711,924.1452,7.6793,934.0806,7.2546,944.0161,7.4636,953.9516,7.7022,963.8871,6.2788,973.8226,7.6785,983.7581,6.7035,993.6935,7.5338,1003.629,6.505,1013.5645,6.9315,1023.5,7,1023.5946,7.2284,1023.8473,7.1314,1024.2205,7.3253,1024.6039,7.5436,1024.9673,7.714,1025.2678,7.7322,1025.2666,7.7317,1025.5027,8.1224,1025.3844,8.3663,1025.7947,8.8292,1026.0224,9.2164,1026,9.5,1026.4445,9.5,1026.613,19.6875,1025.5169,29.875,1025.3478,40.0625,1025.3786,50.25,1025.9411,60.4375,1025.8035,70.625,1026,80.8125,1026.2098,80.8994,1025.7998,81.1438,1025.6015,81.4758,1025.631,81.9023,1025.2089,82.1417,1025.2678,82.5803,1025.2015,82.4204,1024.997,82.9266,1024.6162,83.0073,1024.3008,83.2458,1023.8125,83.067,1023.5,83.3125,1023.5,83.6317,1013.5645,83.9029,1003.629,82.8401,993.6935,83.2166,983.7581,83.4385,973.8226,83.9643,963.8871,83.3083,953.9516,83.7751,944.0161,82.7587,934.0806,82.6352,924.1452,83.8161,914.2097,82.5956,904.2742,83.8215,894.3387,83.5191,884.4032,83.0446,874.4677,82.9587,864.5323,83.7713,854.5968,83.0132,844.6613,83.9044,834.7258,82.7598,824.7903,83.9299,814.8548,83.7968,804.9194,83.5575,794.9839,83.3597,785.0484,84.0391,775.1129,83.9261,765.1774,83.4818,755.2419,83.5807,745.3065,83.1822,735.371,84.029,725.4355,83.4674,715.5,83.3125,715.522,83.3656,715.0688,82.9787,714.7412,82.8948,714.507,83.0366,714.1406,82.8591,713.7322,82.5803,713.719,82.5748,713.4866,82.1856,713.3719,81.8452,713.0816,81.4321,713.2742,81.219,713,80.8125,713.7396,80.8125,713.5264,70.625,713.6949,60.4375,712.8633,50.25,713.0872,40.0625,712.6124,29.875,713.284,19.6875,713,9.5,713.076,9.5315,713.3166,9.2169,713.2222,8.7636,713.3979,8.4222,713.7224,8.1424,713.7322,7.7322,713.8046,7.9069,714.0204,7.4279,714.4146,7.3796,714.8119,7.3389,715.0685,6.9583,715.5,7" style="stroke:#181818;stroke-width:0.5;"/><polygon fill="#C2C2C2" points="829.8108,31.0272,828.1984,33.2304,826.2912,36.4573,823.5636,38.632,820.6974,39.8212,818.412,39.9244,815.4747,38.4371,812.7032,37.4655,810.5995,35.4927,809.4961,33.2343,808.8417,31.4361,808.2006,29.0873,807.16,27.066,807.9596,25.0926,808.6602,22.9308,811.2893,21.221,813.139,19.0027,815.4284,18.266,818.1501,17.6316,821.6404,18.0085,823.5521,18.9101,825.7747,19.3188,828.4772,22.0875,829.4193,25.0105,829.8286,27.0049,829.365,30.2914" style="stroke:#181818;stroke-width:1.0;"/><path d="M821.5156,24.2266 Q821.6719,24.0078 821.8594,23.8984 Q822.0469,23.7891 822.2656,23.7891 Q822.6406,23.7891 822.875,24.0547 Q823.1094,24.3047 823.1094,24.9141 L823.1094,26.3672 Q823.1094,26.9766 822.875,27.2422 Q822.6406,27.5078 822.2656,27.5078 Q821.9219,27.5078 821.7188,27.3047 Q821.5156,27.1172 821.4063,26.6016 Q821.3594,26.2422 821.1719,26.0547 Q820.8438,25.6797 820.2344,25.4609 Q819.625,25.2422 819,25.2422 Q818.2344,25.2422 817.5938,25.5703 Q816.9688,25.8984 816.4688,26.6484 Q815.9844,27.3984 815.9844,28.4297 L815.9844,29.5234 Q815.9844,30.7578 816.875,31.5859 Q817.7656,32.3984 819.3594,32.3984 Q820.2969,32.3984 820.9531,32.1484 Q821.3438,31.9922 821.7656,31.5547 Q822.0313,31.2891 822.1719,31.2109 Q822.3281,31.1328 822.5313,31.1328 Q822.8594,31.1328 823.1094,31.3984 Q823.375,31.6484 823.375,31.9922 Q823.375,32.3359 823.0313,32.7422 Q822.5313,33.3203 821.7344,33.6484 Q820.6563,34.1016 819.3594,34.1016 Q817.8438,34.1016 816.6406,33.4766 Q815.6563,32.9766 814.9688,31.9141 Q814.2813,30.8359 814.2813,29.5547 L814.2813,28.3984 Q814.2813,27.0703 814.8906,25.9297 Q815.5156,24.7734 816.6094,24.1641 Q817.7031,23.5391 818.9375,23.5391 Q819.6719,23.5391 820.3125,23.7109 Q820.9688,23.8672 821.5156,24.2266 Z " fill="#000000"/><text fill="#000000" font-family="FG Virgil" font-size="12" font-style="italic" lengthAdjust="spacing" textLength="71" x="850.25" y="24.457">«http server»</text><text fill="#000000" font-family="FG Virgil" font-size="14" lengthAdjust="spacing" textLength="93" x="839.25" y="41.627">HttpServerAjax</text><path d="M714,49.7031 L714,49.9834 L724.0323,49.1507 L734.0645,49.9608 L744.0968,50.236 L754.129,48.7519 L764.1613,49.5995 L774.1935,49.1345 L784.2258,49.1918 L794.2581,49.6122 L804.2903,48.7813 L814.3226,50.4413 L824.3548,48.8628 L834.3871,49.4394 L844.4194,50.2791 L854.4516,49.5888 L864.4839,49.7941 L874.5161,49.6605 L884.5484,49.9412 L894.5806,50.022 L904.6129,50.484 L914.6452,50.5979 L924.6774,50.6088 L934.7097,50.0426 L944.7419,50.3212 L954.7742,50.6394 L964.8065,48.7415 L974.8387,50.6078 L984.871,49.3078 L994.9032,50.4149 L1004.9355,49.0431 L1014.9677,49.6118 L1025,49.7031 " fill="#F1F1F1" style="stroke:#181818;stroke-width:0.5;"/><path d="M714,57.7031 L714,57.9834 L724.0323,57.1507 L734.0645,57.9608 L744.0968,58.236 L754.129,56.7519 L764.1613,57.5995 L774.1935,57.1345 L784.2258,57.1918 L794.2581,57.6122 L804.2903,56.7813 L814.3226,58.4413 L824.3548,56.8628 L834.3871,57.4394 L844.4194,58.2791 L854.4516,57.5888 L864.4839,57.7941 L874.5161,57.6605 L884.5484,57.9412 L894.5806,58.022 L904.6129,58.484 L914.6452,58.5979 L924.6774,58.6088 L934.7097,58.0426 L944.7419,58.3212 L954.7742,58.6394 L964.8065,56.7415 L974.8387,58.6078 L984.871,57.3078 L994.9032,58.4149 L1004.9355,57.0431 L1014.9677,57.6118 L1025,57.7031 " fill="#F1F1F1" style="stroke:#181818;stroke-width:0.5;"/><text fill="#000000" font-family="FG Virgil" font-size="14" lengthAdjust="spacing" textLength="301" x="719" y="76.2363">updatePostItPosition(PostItPositionBody, String)</text></g><!--MD5=[5eab4bf4ec930e8a9633e83263067ee1]
class UpdatePostItController--><g id="elem_UpdatePostItController"><polygon fill="#F1F1F1" points="510.5,161,510.5,161.2102,520.5,160.5857,530.5,161.1933,540.5,161.3997,550.5,160.2866,560.5,160.9223,570.5,160.5735,580.5,160.6165,590.5,160.9318,600.5,160.3086,610.5,161.5536,620.5,160.3697,630.5,160.8022,640.5,161.4319,650.5,160.9142,660.5,161.0682,670.5,160.9681,680.5,161.1785,690.5,161.2391,700.5,161.5857,710.5,161.6711,720.5,161.6793,730.5,161.2546,740.5,161.4636,750.5,161.7022,760.5,160.2788,770.5,161.6785,780.5,160.7035,790.5,161.5338,800.5,160.505,810.5,160.9315,820.5,161.7416,830.5,160.9513,840.5,161.1053,850.5,161.3386,860.5,161.4162,870.5,160.9961,880.5,161.2872,890.5,160.4276,900.5,161.2844,910.5,161,910.5699,161.1688,910.9103,161.2833,911.2853,161.4817,911.499,161.2906,911.831,161.3849,912.2678,161.7322,912.0764,161.653,912.3961,162.0783,912.5001,162.4143,912.917,162.8798,912.7998,163.1242,913,163.5,912.6569,163.5,913.2283,173.6875,912.3332,183.875,912.4809,194.0625,913.649,204.25,913.4357,214.4375,913.7345,224.625,913,234.8125,912.9009,234.7715,912.9519,235.2068,912.8889,235.5949,912.4152,235.8129,912.3847,236.2145,912.2678,236.5803,912.2838,236.6191,911.9974,236.9274,911.5601,236.8719,911.2661,237.1621,910.7829,236.9955,910.5,237.3125,910.5,236.6352,900.5,237.8161,890.5,236.5956,880.5,237.8215,870.5,237.5191,860.5,237.0446,850.5,236.9587,840.5,237.7713,830.5,237.0132,820.5,237.9044,810.5,236.7598,800.5,237.9299,790.5,237.7968,780.5,237.5575,770.5,237.3597,760.5,238.0391,750.5,237.9261,740.5,237.4818,730.5,237.5807,720.5,237.1822,710.5,238.029,700.5,237.4674,690.5,237.4851,680.5,236.7041,670.5,236.9073,660.5,237.8432,650.5,237.7423,640.5,237.2696,630.5,236.9903,620.5,237.0936,610.5,236.6263,600.5,237.7272,590.5,238.0521,580.5,237.8389,570.5,238.0074,560.5,237.1758,550.5,237.3997,540.5,236.9249,530.5,237.5965,520.5,237.5593,510.5,237.3125,510.5705,237.4826,510.1172,237.0953,509.7757,236.9782,509.4959,237.0097,509.1582,236.9014,508.7322,236.5803,508.5744,236.5149,508.5261,236.202,508.4853,235.8922,508.1048,235.4417,508.2553,235.2111,508,234.8125,508.258,234.8125,507.8992,224.625,508.1422,214.4375,508.7287,204.25,507.6871,194.0625,508.315,183.875,508.2856,173.6875,508,163.5,508.0357,163.5148,508.1898,163.1644,508.3278,162.8074,508.2471,162.3597,508.4624,162.0347,508.7322,161.7322,508.6734,161.5901,509.0939,161.6054,509.4506,161.4665,509.8135,161.3427,510.1093,161.0568,510.5,161" style="stroke:#181818;stroke-width:0.5;"/><polygon fill="#C2C2C2" points="646.3108,185.0272,644.6984,187.2304,642.7912,190.4573,640.0636,192.632,637.1974,193.8212,634.912,193.9244,631.9747,192.4371,629.2032,191.4655,627.0995,189.4927,625.9961,187.2343,625.3417,185.4361,624.7006,183.0873,623.66,181.066,624.4596,179.0926,625.1602,176.9308,627.7893,175.221,629.639,173.0027,631.9284,172.266,634.6501,171.6316,638.1404,172.0085,640.0521,172.9101,642.2747,173.3188,644.9772,176.0875,645.9193,179.0105,646.3286,181.0049,645.865,184.2914" style="stroke:#181818;stroke-width:1.0;"/><path d="M638.0156,178.2266 Q638.1719,178.0078 638.3594,177.8984 Q638.5469,177.7891 638.7656,177.7891 Q639.1406,177.7891 639.375,178.0547 Q639.6094,178.3047 639.6094,178.9141 L639.6094,180.3672 Q639.6094,180.9766 639.375,181.2422 Q639.1406,181.5078 638.7656,181.5078 Q638.4219,181.5078 638.2188,181.3047 Q638.0156,181.1172 637.9063,180.6016 Q637.8594,180.2422 637.6719,180.0547 Q637.3438,179.6797 636.7344,179.4609 Q636.125,179.2422 635.5,179.2422 Q634.7344,179.2422 634.0938,179.5703 Q633.4688,179.8984 632.9688,180.6484 Q632.4844,181.3984 632.4844,182.4297 L632.4844,183.5234 Q632.4844,184.7578 633.375,185.5859 Q634.2656,186.3984 635.8594,186.3984 Q636.7969,186.3984 637.4531,186.1484 Q637.8438,185.9922 638.2656,185.5547 Q638.5313,185.2891 638.6719,185.2109 Q638.8281,185.1328 639.0313,185.1328 Q639.3594,185.1328 639.6094,185.3984 Q639.875,185.6484 639.875,185.9922 Q639.875,186.3359 639.5313,186.7422 Q639.0313,187.3203 638.2344,187.6484 Q637.1563,188.1016 635.8594,188.1016 Q634.3438,188.1016 633.1406,187.4766 Q632.1563,186.9766 631.4688,185.9141 Q630.7813,184.8359 630.7813,183.5547 L630.7813,182.3984 Q630.7813,181.0703 631.3906,179.9297 Q632.0156,178.7734 633.1094,178.1641 Q634.2031,177.5391 635.4375,177.5391 Q636.1719,177.5391 636.8125,177.7109 Q637.4688,177.8672 638.0156,178.2266 Z " fill="#000000"/><text fill="#000000" font-family="FG Virgil" font-size="12" font-style="italic" lengthAdjust="spacing" textLength="74" x="689.75" y="178.457">«application»</text><text fill="#000000" font-family="FG Virgil" font-size="14" lengthAdjust="spacing" textLength="142" x="655.75" y="195.627">UpdatePostItController</text><path d="M509,203.7031 L509,203.9834 L519.075,203.1507 L529.15,203.9608 L539.225,204.236 L549.3,202.7519 L559.375,203.5995 L569.45,203.1345 L579.525,203.1918 L589.6,203.6122 L599.675,202.7813 L609.75,204.4413 L619.825,202.8628 L629.9,203.4394 L639.975,204.2791 L650.05,203.5888 L660.125,203.7941 L670.2,203.6605 L680.275,203.9412 L690.35,204.022 L700.425,204.484 L710.5,204.5979 L720.575,204.6088 L730.65,204.0426 L740.725,204.3212 L750.8,204.6394 L760.875,202.7415 L770.95,204.6078 L781.025,203.3078 L791.1,204.4149 L801.175,203.0431 L811.25,203.6118 L821.325,204.6919 L831.4,203.6381 L841.475,203.8435 L851.55,204.1546 L861.625,204.2581 L871.7,203.6979 L881.775,204.0861 L891.85,202.9399 L901.925,204.0823 L912,203.7031 " fill="#F1F1F1" style="stroke:#181818;stroke-width:0.5;"/><path d="M509,211.7031 L509,211.9834 L519.075,211.1507 L529.15,211.9608 L539.225,212.236 L549.3,210.7519 L559.375,211.5995 L569.45,211.1345 L579.525,211.1918 L589.6,211.6122 L599.675,210.7813 L609.75,212.4413 L619.825,210.8628 L629.9,211.4394 L639.975,212.2791 L650.05,211.5888 L660.125,211.7941 L670.2,211.6605 L680.275,211.9412 L690.35,212.022 L700.425,212.484 L710.5,212.5979 L720.575,212.6088 L730.65,212.0426 L740.725,212.3212 L750.8,212.6394 L760.875,210.7415 L770.95,212.6078 L781.025,211.3078 L791.1,212.4149 L801.175,211.0431 L811.25,211.6118 L821.325,212.6919 L831.4,211.6381 L841.475,211.8435 L851.55,212.1546 L861.625,212.2581 L871.7,211.6979 L881.775,212.0861 L891.85,210.9399 L901.925,212.0823 L912,211.7031 " fill="#F1F1F1" style="stroke:#181818;stroke-width:0.5;"/><text fill="#000000" font-family="FG Virgil" font-size="14" lengthAdjust="spacing" textLength="393" x="514" y="230.2363">updatePostItPosition(String, String, String, String, String, User)</text></g><!--MD5=[f097a9da547c6f19ba7a5c97c093eb18]
class SessionManager--><g id="elem_SessionManager"><polygon fill="#F1F1F1" points="951,166,951,166.2102,960.9375,165.5857,970.875,166.1933,980.8125,166.3997,990.75,165.2866,1000.6875,165.9223,1010.625,165.5735,1020.5625,165.6165,1030.5,165.9318,1040.4375,165.3086,1050.375,166.5536,1060.3125,165.3697,1070.25,165.8022,1080.1875,166.4319,1090.125,165.9142,1100.0625,166.0682,1110,166,1109.9959,165.9902,1110.3763,166.2014,1110.7376,166.3665,1111.1354,166.6197,1111.4998,166.7924,1111.7678,166.7322,1111.977,166.8189,1111.9926,167.1183,1112.2034,167.4985,1112.4234,167.8825,1112.1315,168.0545,1112.5,168.5,1113.1785,168.5,1112.2035,178.6016,1113.0338,188.7031,1112.005,198.8047,1112.4315,208.9063,1113.2416,219.0078,1112.5,229.1094,1112.485,229.1032,1112.386,229.4764,1112.3114,229.8597,1112.1888,230.2231,1111.913,230.5231,1111.7678,230.8771,1111.8044,230.9656,1111.3412,230.8473,1111.0969,231.2576,1110.777,231.4853,1110.4103,231.5998,1110,231.6094,1110,232.2224,1100.0625,231.1263,1090.125,230.9572,1080.1875,230.988,1070.25,231.5505,1060.3125,231.4128,1050.375,232.2908,1040.4375,231.4347,1030.5,231.2663,1020.5625,231.8376,1010.625,230.9425,1000.6875,231.0902,990.75,232.2583,980.8125,232.045,970.875,232.3439,960.9375,231.2876,951,231.6094,951.0407,231.7077,950.7218,231.6448,950.2326,231.171,949.9271,231.1405,949.6019,231.0624,949.2322,230.8771,949.4329,230.9603,949.0845,230.5231,949.0818,230.229,948.6223,229.7458,948.4379,229.3765,948.5,229.1094,949.0036,229.1094,947.7831,219.0078,949.009,208.9063,948.7066,198.8047,948.2321,188.7031,948.1462,178.6016,948.5,168.5,948.6413,168.5585,948.5543,168.1083,948.9752,167.8684,948.7691,167.3688,949.2759,167.1645,949.2322,166.7322,949.294,166.8814,949.617,166.6612,949.9454,166.4539,950.3856,166.5167,950.7247,166.3354,951,166" style="stroke:#181818;stroke-width:0.5;"/><polygon fill="#C2C2C2" points="986.2608,184.6756,984.6484,186.8788,982.7412,190.1057,980.0136,192.2804,977.1474,193.4696,974.862,193.5728,971.9247,192.0855,969.1532,191.1139,967.0495,189.1412,965.9461,186.8828,965.2917,185.0845,964.6506,182.7357,963.61,180.7145,964.4096,178.741,965.1102,176.5792,967.7393,174.8695,969.589,172.6511,971.8784,171.9144,974.6001,171.2801,978.0904,171.657,980.0021,172.5585,982.2247,172.9672,984.9272,175.736,985.8693,178.659,986.2786,180.6534,985.815,183.9399" style="stroke:#181818;stroke-width:1.0;"/><path d="M977.9656,177.875 Q978.1219,177.6563 978.3094,177.5469 Q978.4969,177.4375 978.7156,177.4375 Q979.0906,177.4375 979.325,177.7031 Q979.5594,177.9531 979.5594,178.5625 L979.5594,180.0156 Q979.5594,180.625 979.325,180.8906 Q979.0906,181.1563 978.7156,181.1563 Q978.3719,181.1563 978.1688,180.9531 Q977.9656,180.7656 977.8563,180.25 Q977.8094,179.8906 977.6219,179.7031 Q977.2938,179.3281 976.6844,179.1094 Q976.075,178.8906 975.45,178.8906 Q974.6844,178.8906 974.0438,179.2188 Q973.4188,179.5469 972.9188,180.2969 Q972.4344,181.0469 972.4344,182.0781 L972.4344,183.1719 Q972.4344,184.4063 973.325,185.2344 Q974.2156,186.0469 975.8094,186.0469 Q976.7469,186.0469 977.4031,185.7969 Q977.7938,185.6406 978.2156,185.2031 Q978.4813,184.9375 978.6219,184.8594 Q978.7781,184.7813 978.9813,184.7813 Q979.3094,184.7813 979.5594,185.0469 Q979.825,185.2969 979.825,185.6406 Q979.825,185.9844 979.4813,186.3906 Q978.9813,186.9688 978.1844,187.2969 Q977.1063,187.75 975.8094,187.75 Q974.2938,187.75 973.0906,187.125 Q972.1063,186.625 971.4188,185.5625 Q970.7313,184.4844 970.7313,183.2031 L970.7313,182.0469 Q970.7313,180.7188 971.3406,179.5781 Q971.9656,178.4219 973.0594,177.8125 Q974.1531,177.1875 975.3875,177.1875 Q976.1219,177.1875 976.7625,177.3594 Q977.4188,177.5156 977.9656,177.875 Z " fill="#000000"/><text fill="#000000" font-family="FG Virgil" font-size="14" lengthAdjust="spacing" textLength="106" x="991.8" y="187.7285">SessionManager</text><path d="M949.5,198 L949.5,198.2802 L959.625,197.4476 L969.75,198.2577 L979.875,198.5329 L990,197.0488 L1000.125,197.8964 L1010.25,197.4313 L1020.375,197.4887 L1030.5,197.9091 L1040.625,197.0782 L1050.75,198.7382 L1060.875,197.1596 L1071,197.7363 L1081.125,198.5759 L1091.25,197.8856 L1101.375,198.091 L1111.5,198 " fill="#F1F1F1" style="stroke:#181818;stroke-width:0.5;"/><path d="M949.5,206 L949.5,206.2802 L959.625,205.4476 L969.75,206.2577 L979.875,206.5329 L990,205.0488 L1000.125,205.8964 L1010.25,205.4313 L1020.375,205.4887 L1030.5,205.9091 L1040.625,205.0782 L1050.75,206.7382 L1060.875,205.1596 L1071,205.7363 L1081.125,206.5759 L1091.25,205.8856 L1101.375,206.091 L1111.5,206 " fill="#F1F1F1" style="stroke:#181818;stroke-width:0.5;"/><text fill="#000000" font-family="FG Virgil" font-size="14" lengthAdjust="spacing" textLength="152" x="954.5" y="224.5332">getUserByToken(String)</text></g><!--MD5=[eb95342d67c177a44e4018fdebeb06c1]
class PostItService--><g id="elem_PostItService"><polygon fill="#F1F1F1" points="471,315,471,315.2102,480.9792,314.5857,490.9583,315.1933,500.9375,315.3997,510.9167,314.2866,520.8958,314.9223,530.875,314.5735,540.8542,314.6165,550.8333,314.9318,560.8125,314.3086,570.7917,315.5536,580.7708,314.3697,590.75,314.8022,600.7292,315.4319,610.7083,314.9142,620.6875,315.0682,630.6667,314.9681,640.6458,315.1785,650.625,315.2391,660.6042,315.5857,670.5833,315.6711,680.5625,315.6793,690.5417,315.2546,700.5208,315.4636,710.5,315.7022,720.4792,314.2788,730.4583,315.6785,740.4375,314.7035,750.4167,315.5338,760.3958,314.505,770.375,314.9315,780.3542,315.7416,790.3333,314.9513,800.3125,315.1053,810.2917,315.3386,820.2708,315.4162,830.25,314.9961,840.2292,315.2872,850.2083,314.4276,860.1875,315.2844,870.1667,315.5482,880.1458,315.4445,890.125,315.613,900.1042,314.5169,910.0833,314.3478,920.0625,314.3786,930.0417,314.9411,940.0208,314.8035,950,315,950.0869,315.2098,950.3313,315.0927,950.6633,315.1872,951.0898,315.5096,951.3292,315.3804,951.7678,315.7322,951.6079,315.666,952.1141,316.1686,952.1948,316.4949,952.4333,316.8866,952.2545,317.1054,952.5,317.5,952.8192,317.5,953.0904,327.46,952.0276,337.4199,952.4041,347.3799,952.626,357.3398,953.1518,367.2998,952.4958,377.2598,952.9626,387.2197,951.9462,397.1797,951.8227,407.1396,953.0036,417.0996,951.7831,427.0596,953.009,437.0195,952.7066,446.9795,952.2321,456.9395,952.1462,466.8994,952.5,476.8594,952.6413,476.9179,952.2614,477.1747,952.3894,477.642,951.8904,477.8495,952.1044,478.3523,951.7678,478.6271,951.8295,478.7763,951.4455,478.849,951.0667,478.9346,950.7998,479.2902,950.4318,479.4019,950,479.3594,950,479.5286,940.0208,479.6276,930.0417,479.2291,920.0625,480.0758,910.0833,479.5142,900.1042,479.5319,890.125,478.751,880.1458,478.9542,870.1667,479.8901,860.1875,479.7891,850.2083,479.3164,840.2292,479.0372,830.25,479.1404,820.2708,478.6732,810.2917,479.7741,800.3125,480.0989,790.3333,479.8858,780.3542,480.0543,770.375,479.2226,760.3958,479.4466,750.4167,478.9718,740.4375,479.6434,730.4583,479.6061,720.4792,479.9118,710.5,479.1297,700.5208,479.225,690.5417,479.8028,680.5625,479.9267,670.5833,478.8468,660.6042,479.1655,650.625,479.5086,640.6458,478.7485,630.6667,479.7128,620.6875,479.6174,610.7083,479.2586,600.7292,479.5016,590.75,480.0881,580.7708,479.0465,570.7917,479.6744,560.8125,479.645,550.8333,479.4751,540.8542,479.5003,530.875,479.4729,520.8958,478.7352,510.9167,478.9586,500.9375,478.8978,490.9583,479.4232,480.9792,479.4475,471,479.3594,471.0206,479.4092,470.6093,479.1233,470.2843,479.0457,469.924,478.883,469.6594,478.9512,469.2322,478.6271,469.3636,478.6816,468.9363,478.2117,468.9169,477.9107,468.6151,477.4928,468.7353,477.2497,468.5,476.8594,469.1085,476.8594,469.0446,466.8994,468.0644,456.9395,468.964,446.9795,467.7572,437.0195,468.7002,427.0596,468.2007,417.0996,468.5967,407.1396,468.7403,397.1797,468.9721,387.2197,467.7801,377.2598,468.9755,367.2998,468.6782,357.3398,468.8553,347.3799,469.2478,337.4199,468.5055,327.46,468.5,317.5,468.554,317.5224,468.7122,317.1737,468.8536,316.8181,468.9391,316.4392,469.3047,316.1764,469.2322,315.7322,469.1545,315.5445,469.6579,315.7599,469.8597,315.2472,470.224,315.1265,470.6516,315.1588,471,315" style="stroke:#181818;stroke-width:0.5;"/><polygon fill="#C2C2C2" points="676.3108,339.0272,674.6984,341.2304,672.7912,344.4573,670.0636,346.632,667.1974,347.8212,664.912,347.9244,661.9747,346.4371,659.2032,345.4655,657.0995,343.4927,655.9961,341.2343,655.3417,339.4361,654.7006,337.0873,653.66,335.066,654.4596,333.0926,655.1602,330.9308,657.7893,329.221,659.639,327.0027,661.9284,326.266,664.6501,325.6316,668.1404,326.0085,670.0521,326.9101,672.2747,327.3188,674.9772,330.0875,675.9193,333.0105,676.3286,335.0049,675.865,338.2914" style="stroke:#181818;stroke-width:1.0;"/><path d="M668.0156,332.2266 Q668.1719,332.0078 668.3594,331.8984 Q668.5469,331.7891 668.7656,331.7891 Q669.1406,331.7891 669.375,332.0547 Q669.6094,332.3047 669.6094,332.9141 L669.6094,334.3672 Q669.6094,334.9766 669.375,335.2422 Q669.1406,335.5078 668.7656,335.5078 Q668.4219,335.5078 668.2188,335.3047 Q668.0156,335.1172 667.9063,334.6016 Q667.8594,334.2422 667.6719,334.0547 Q667.3438,333.6797 666.7344,333.4609 Q666.125,333.2422 665.5,333.2422 Q664.7344,333.2422 664.0938,333.5703 Q663.4688,333.8984 662.9688,334.6484 Q662.4844,335.3984 662.4844,336.4297 L662.4844,337.5234 Q662.4844,338.7578 663.375,339.5859 Q664.2656,340.3984 665.8594,340.3984 Q666.7969,340.3984 667.4531,340.1484 Q667.8438,339.9922 668.2656,339.5547 Q668.5313,339.2891 668.6719,339.2109 Q668.8281,339.1328 669.0313,339.1328 Q669.3594,339.1328 669.6094,339.3984 Q669.875,339.6484 669.875,339.9922 Q669.875,340.3359 669.5313,340.7422 Q669.0313,341.3203 668.2344,341.6484 Q667.1563,342.1016 665.8594,342.1016 Q664.3438,342.1016 663.1406,341.4766 Q662.1563,340.9766 661.4688,339.9141 Q660.7813,338.8359 660.7813,337.5547 L660.7813,336.3984 Q660.7813,335.0703 661.3906,333.9297 Q662.0156,332.7734 663.1094,332.1641 Q664.2031,331.5391 665.4375,331.5391 Q666.1719,331.5391 666.8125,331.7109 Q667.4688,331.8672 668.0156,332.2266 Z " fill="#000000"/><text fill="#000000" font-family="FG Virgil" font-size="12" font-style="italic" lengthAdjust="spacing" textLength="53" x="700.25" y="332.457">«service»</text><text fill="#000000" font-family="FG Virgil" font-size="14" lengthAdjust="spacing" textLength="82" x="685.75" y="349.627">PostItService</text><path d="M469.5,357.7031 L469.5,357.9834 L479.5417,357.1507 L489.5833,357.9608 L499.625,358.236 L509.6667,356.7519 L519.7083,357.5995 L529.75,357.1345 L539.7917,357.1918 L549.8333,357.6122 L559.875,356.7813 L569.9167,358.4413 L579.9583,356.8628 L590,357.4394 L600.0417,358.2791 L610.0833,357.5888 L620.125,357.7941 L630.1667,357.6605 L640.2083,357.9412 L650.25,358.022 L660.2917,358.484 L670.3333,358.5979 L680.375,358.6088 L690.4167,358.0426 L700.4583,358.3212 L710.5,358.6394 L720.5417,356.7415 L730.5833,358.6078 L740.625,357.3078 L750.6667,358.4149 L760.7083,357.0431 L770.75,357.6118 L780.7917,358.6919 L790.8333,357.6381 L800.875,357.8435 L810.9167,358.1546 L820.9583,358.2581 L831,357.6979 L841.0417,358.0861 L851.0833,356.9399 L861.125,358.0823 L871.1667,358.4341 L881.2083,358.2958 L891.25,358.5205 L901.2917,357.059 L911.3333,356.8335 L921.375,356.8746 L931.4167,357.6246 L941.4583,357.4411 L951.5,357.7031 " fill="#F1F1F1" style="stroke:#181818;stroke-width:0.5;"/><path d="M469.5,365.7031 L469.5,365.9834 L479.5417,365.1507 L489.5833,365.9608 L499.625,366.236 L509.6667,364.7519 L519.7083,365.5995 L529.75,365.1345 L539.7917,365.1918 L549.8333,365.6122 L559.875,364.7813 L569.9167,366.4413 L579.9583,364.8628 L590,365.4394 L600.0417,366.2791 L610.0833,365.5888 L620.125,365.7941 L630.1667,365.6605 L640.2083,365.9412 L650.25,366.022 L660.2917,366.484 L670.3333,366.5979 L680.375,366.6088 L690.4167,366.0426 L700.4583,366.3212 L710.5,366.6394 L720.5417,364.7415 L730.5833,366.6078 L740.625,365.3078 L750.6667,366.4149 L760.7083,365.0431 L770.75,365.6118 L780.7917,366.6919 L790.8333,365.6381 L800.875,365.8435 L810.9167,366.1546 L820.9583,366.2581 L831,365.6979 L841.0417,366.0861 L851.0833,364.9399 L861.125,366.0823 L871.1667,366.4341 L881.2083,366.2958 L891.25,366.5205 L901.2917,365.059 L911.3333,364.8335 L921.375,364.8746 L931.4167,365.6246 L941.4583,365.4411 L951.5,365.7031 " fill="#F1F1F1" style="stroke:#181818;stroke-width:0.5;"/><text fill="#000000" font-family="FG Virgil" font-size="14" lengthAdjust="spacing" textLength="472" x="474.5" y="384.2363">changePostItPosition(String, String, String, String, String, User, PostItState)</text><text fill="#000000" font-family="FG Virgil" font-size="14" lengthAdjust="spacing" textLength="234" x="474.5" y="401.8457">checkIfIsRowEntryTitle(String, Board)</text><text fill="#000000" font-family="FG Virgil" font-size="14" lengthAdjust="spacing" textLength="255" x="474.5" y="419.4551">checkIfIsColumnEntryTitle(String, Board)</text><text fill="#000000" font-family="FG Virgil" font-size="14" lengthAdjust="spacing" textLength="297" x="474.5" y="437.0645">postItByPosition(String, String, Board, boolean)</text><text fill="#000000" font-family="FG Virgil" font-size="14" lengthAdjust="spacing" textLength="283" x="474.5" y="454.6738">checkForUserOwnership(User, Board, PostIt)</text><text fill="#000000" font-family="FG Virgil" font-size="14" lengthAdjust="spacing" textLength="108" x="474.5" y="472.2832">isNumeric(String)</text></g><!--MD5=[0182a422c6ed2cd05fe32b6e46ab69a0]
class PostItFactory--><g id="elem_PostItFactory"><polygon fill="#F1F1F1" points="9.5,566,9.5,566.2102,19.4091,565.5857,29.3182,566.1933,39.2273,566.3997,49.1364,565.2866,59.0455,565.9223,68.9545,565.5735,78.8636,565.6165,88.7727,565.9318,98.6818,565.3086,108.5909,566.5536,118.5,565.3697,128.4091,565.8022,138.3182,566.4319,148.2273,565.9142,158.1364,566.0682,168.0455,565.9681,177.9545,566.1785,187.8636,566.2391,197.7727,566.5857,207.6818,566.6711,217.5909,566.6793,227.5,566.2546,237.4091,566.4636,247.3182,566.7022,257.2273,565.2788,267.1364,566.6785,277.0455,565.7035,286.9545,566.5338,296.8636,565.505,306.7727,565.9315,316.6818,566.7416,326.5909,565.9513,336.5,566.1053,346.4091,566.3386,356.3182,566.4162,366.2273,565.9961,376.1364,566.2872,386.0455,565.4276,395.9545,566.2844,405.8636,566.5482,415.7727,566.4445,425.6818,566.613,435.5909,565.5169,445.5,566,445.4168,565.7992,445.7743,565.9551,446.1996,566.2748,446.5356,566.3788,447.0011,566.7956,447.2678,566.7322,447.214,566.71,447.3086,567.042,447.631,567.4685,447.5017,567.7078,447.6937,568.0802,448,568.5,448.649,568.5,448.4357,578.6875,448.7345,588.875,447.6782,599.0625,448.3192,609.25,448.5904,619.4375,447.5276,629.625,448,639.8125,447.9705,639.8003,447.8924,640.1821,447.9078,640.6027,447.5594,640.8726,447.5567,641.2857,447.2678,641.5803,447.1971,641.4097,446.8278,641.5181,446.6249,642.0283,446.1157,641.7988,445.9185,642.3228,445.5,642.3125,445.5,642.5191,435.5909,642.0446,425.6818,641.9587,415.7727,642.7713,405.8636,642.0132,395.9545,642.9044,386.0455,641.7598,376.1364,642.9299,366.2273,642.7968,356.3182,642.5575,346.4091,642.3597,336.5,643.0391,326.5909,642.9261,316.6818,642.4818,306.7727,642.5807,296.8636,642.1822,286.9545,643.029,277.0455,642.4674,267.1364,642.4851,257.2273,641.7041,247.3182,641.9073,237.4091,642.8432,227.5,642.7423,217.5909,642.2696,207.6818,641.9903,197.7727,642.0936,187.8636,641.6263,177.9545,642.7272,168.0455,643.0521,158.1364,642.8389,148.2273,643.0074,138.3182,642.1758,128.4091,642.3997,118.5,641.9249,108.5909,642.5965,98.6818,642.5593,88.7727,642.8649,78.8636,642.0828,68.9545,642.1781,59.0455,642.756,49.1364,642.8798,39.2273,641.8,29.3182,642.1186,19.4091,642.4618,9.5,642.3125,9.4221,642.1244,9.1915,642.2749,8.8258,642.0991,8.4265,641.8421,8.1039,641.7705,7.7322,641.5803,7.9566,641.6732,7.4894,641.1868,7.5363,640.9133,7.3809,640.556,7.1821,640.1808,7,639.8125,7.1409,639.8125,7.1135,629.625,6.3758,619.4375,6.5992,609.25,6.5385,599.0625,7.0638,588.875,7.0881,578.6875,7,568.5,7.0498,568.5206,7.0568,568.1093,7.2721,567.7843,7.4023,567.424,7.7634,567.1594,7.7322,566.7322,7.7866,566.8636,8.0239,566.4363,8.43,566.4169,8.7193,566.1151,9.1832,566.2353,9.5,566" style="stroke:#181818;stroke-width:0.5;"/><polygon fill="#C2C2C2" points="192.8108,590.0272,191.1984,592.2304,189.2912,595.4573,186.5636,597.632,183.6974,598.8212,181.412,598.9244,178.4747,597.4371,175.7032,596.4655,173.5995,594.4927,172.4961,592.2343,171.8417,590.4361,171.2006,588.0873,170.16,586.066,170.9596,584.0926,171.6602,581.9308,174.2893,580.221,176.139,578.0027,178.4284,577.266,181.1501,576.6316,184.6404,577.0085,186.5521,577.9101,188.7747,578.3188,191.4772,581.0875,192.4193,584.0105,192.8286,586.0049,192.365,589.2914" style="stroke:#181818;stroke-width:1.0;"/><path d="M184.5156,583.2266 Q184.6719,583.0078 184.8594,582.8984 Q185.0469,582.7891 185.2656,582.7891 Q185.6406,582.7891 185.875,583.0547 Q186.1094,583.3047 186.1094,583.9141 L186.1094,585.3672 Q186.1094,585.9766 185.875,586.2422 Q185.6406,586.5078 185.2656,586.5078 Q184.9219,586.5078 184.7188,586.3047 Q184.5156,586.1172 184.4063,585.6016 Q184.3594,585.2422 184.1719,585.0547 Q183.8438,584.6797 183.2344,584.4609 Q182.625,584.2422 182,584.2422 Q181.2344,584.2422 180.5938,584.5703 Q179.9688,584.8984 179.4688,585.6484 Q178.9844,586.3984 178.9844,587.4297 L178.9844,588.5234 Q178.9844,589.7578 179.875,590.5859 Q180.7656,591.3984 182.3594,591.3984 Q183.2969,591.3984 183.9531,591.1484 Q184.3438,590.9922 184.7656,590.5547 Q185.0313,590.2891 185.1719,590.2109 Q185.3281,590.1328 185.5313,590.1328 Q185.8594,590.1328 186.1094,590.3984 Q186.375,590.6484 186.375,590.9922 Q186.375,591.3359 186.0313,591.7422 Q185.5313,592.3203 184.7344,592.6484 Q183.6563,593.1016 182.3594,593.1016 Q180.8438,593.1016 179.6406,592.4766 Q178.6563,591.9766 177.9688,590.9141 Q177.2813,589.8359 177.2813,588.5547 L177.2813,587.3984 Q177.2813,586.0703 177.8906,584.9297 Q178.5156,583.7734 179.6094,583.1641 Q180.7031,582.5391 181.9375,582.5391 Q182.6719,582.5391 183.3125,582.7109 Q183.9688,582.8672 184.5156,583.2266 Z " fill="#000000"/><text fill="#000000" font-family="FG Virgil" font-size="12" font-style="italic" lengthAdjust="spacing" textLength="50" x="218.75" y="583.457">«factory»</text><text fill="#000000" font-family="FG Virgil" font-size="14" lengthAdjust="spacing" textLength="83" x="202.25" y="600.627">PostItFactory</text><path d="M8,608.7031 L8,608.9834 L17.9773,608.1507 L27.9545,608.9608 L37.9318,609.236 L47.9091,607.7519 L57.8864,608.5995 L67.8636,608.1345 L77.8409,608.1918 L87.8182,608.6122 L97.7955,607.7813 L107.7727,609.4413 L117.75,607.8628 L127.7273,608.4394 L137.7045,609.2791 L147.6818,608.5888 L157.6591,608.7941 L167.6364,608.6605 L177.6136,608.9412 L187.5909,609.022 L197.5682,609.484 L207.5455,609.5979 L217.5227,609.6088 L227.5,609.0426 L237.4773,609.3212 L247.4545,609.6394 L257.4318,607.7415 L267.4091,609.6078 L277.3864,608.3078 L287.3636,609.4149 L297.3409,608.0431 L307.3182,608.6118 L317.2955,609.6919 L327.2727,608.6381 L337.25,608.8435 L347.2273,609.1546 L357.2045,609.2581 L367.1818,608.6979 L377.1591,609.0861 L387.1364,607.9399 L397.1136,609.0823 L407.0909,609.4341 L417.0682,609.2958 L427.0455,609.5205 L437.0227,608.059 L447,608.7031 " fill="#F1F1F1" style="stroke:#181818;stroke-width:0.5;"/><path d="M8,616.7031 L8,616.9834 L17.9773,616.1507 L27.9545,616.9608 L37.9318,617.236 L47.9091,615.7519 L57.8864,616.5995 L67.8636,616.1345 L77.8409,616.1918 L87.8182,616.6122 L97.7955,615.7813 L107.7727,617.4413 L117.75,615.8628 L127.7273,616.4394 L137.7045,617.2791 L147.6818,616.5888 L157.6591,616.7941 L167.6364,616.6605 L177.6136,616.9412 L187.5909,617.022 L197.5682,617.484 L207.5455,617.5979 L217.5227,617.6088 L227.5,617.0426 L237.4773,617.3212 L247.4545,617.6394 L257.4318,615.7415 L267.4091,617.6078 L277.3864,616.3078 L287.3636,617.4149 L297.3409,616.0431 L307.3182,616.6118 L317.2955,617.6919 L327.2727,616.6381 L337.25,616.8435 L347.2273,617.1546 L357.2045,617.2581 L367.1818,616.6979 L377.1591,617.0861 L387.1364,615.9399 L397.1136,617.0823 L407.0909,617.4341 L417.0682,617.2958 L427.0455,617.5205 L437.0227,616.059 L447,616.7031 " fill="#F1F1F1" style="stroke:#181818;stroke-width:0.5;"/><text fill="#000000" font-family="FG Virgil" font-size="14" lengthAdjust="spacing" textLength="429" x="13" y="635.2363">createChange(String, String, String, User, Board, PostItState, PostIt)</text></g><!--MD5=[d98fa60e7e29446a1b02022748feb6fd]
class PostItRepository--><g id="elem_PostItRepository"><polygon fill="#F1F1F1" points="590,557,590,557.2102,600.0417,556.5857,610.0833,557.1933,620.125,557.3997,630.1667,556.2866,640.2083,556.9223,650.25,556.5735,660.2917,556.6165,670.3333,556.9318,680.375,556.3086,690.4167,557.5536,700.4583,556.3697,710.5,556.8022,720.5417,557.4319,730.5833,556.9142,740.625,557.0682,750.6667,556.9681,760.7083,557.1785,770.75,557.2391,780.7917,557.5857,790.8333,557.6711,800.875,557.6793,810.9167,557.2546,820.9583,557.4636,831,557,831.0896,557.2163,831.2616,556.9244,831.7937,557.5018,832.0228,557.348,832.4823,557.7502,832.7678,557.7322,832.6153,557.6691,832.8931,558.077,833.289,558.5339,833.1921,558.7867,833.386,559.1599,833.5,559.5,833.8386,559.5,833.9162,569.3802,833.4961,579.2604,833.7872,589.1406,832.9276,599.0208,833.7844,608.901,834.0482,618.7813,833.9445,628.6615,834.113,638.5417,833.5,648.4219,833.3512,648.3603,833.1527,648.6922,833.0157,649.0497,833.0425,649.475,832.8537,649.811,832.7678,650.1896,832.8547,650.3995,832.3919,650.2823,832.0169,650.3769,831.7362,650.6993,831.2685,650.5701,831,650.9219,831,650.4027,820.9583,651.5708,810.9167,651.3575,800.875,651.6564,790.8333,650.6001,780.7917,651.2411,770.75,651.5123,760.7083,650.4495,750.6667,650.826,740.625,651.0479,730.5833,651.5736,720.5417,650.9177,710.5,651.3844,700.4583,650.3681,690.4167,650.2446,680.375,651.4255,670.3333,650.2049,660.2917,651.4308,650.25,651.1285,640.2083,650.654,630.1667,650.5681,620.125,651.3806,610.0833,650.6225,600.0417,651.5137,590,650.9219,589.9295,650.7517,589.7252,650.9656,589.3547,650.7781,588.9706,650.558,588.5918,650.3506,588.2322,650.1896,588.456,650.2823,588.2747,649.9144,587.9915,649.5041,587.8755,649.1632,587.6063,648.7588,587.5,648.4219,588.2165,648.4219,587.6549,638.5417,587.6726,628.6615,586.8916,618.7813,587.0948,608.901,588.0307,599.0208,587.9298,589.1406,587.4571,579.2604,587.1778,569.3802,587.5,559.5,587.4326,559.4721,587.4351,559.0589,587.9206,558.8458,588.1671,558.5337,588.2479,558.1529,588.2322,557.7322,588.3209,557.9462,588.5683,557.5437,588.9505,557.4662,589.2435,557.1735,589.6827,557.2339,590,557" style="stroke:#181818;stroke-width:0.5;"/><polygon fill="#C2C2C2" points="665.8108,581.0272,664.1984,583.2304,662.2912,586.4573,659.5636,588.632,656.6974,589.8212,654.412,589.9244,651.4747,588.4371,648.7032,587.4655,646.5995,585.4927,645.4961,583.2343,644.8417,581.4361,644.2006,579.0873,643.16,577.066,643.9596,575.0926,644.6602,572.9308,647.2893,571.221,649.139,569.0027,651.4284,568.266,654.1501,567.6316,657.6404,568.0085,659.5521,568.9101,661.7747,569.3188,664.4772,572.0875,665.4193,575.0105,665.8286,577.0049,665.365,580.2914" style="stroke:#181818;stroke-width:1.0;"/><path d="M657.5156,574.2266 Q657.6719,574.0078 657.8594,573.8984 Q658.0469,573.7891 658.2656,573.7891 Q658.6406,573.7891 658.875,574.0547 Q659.1094,574.3047 659.1094,574.9141 L659.1094,576.3672 Q659.1094,576.9766 658.875,577.2422 Q658.6406,577.5078 658.2656,577.5078 Q657.9219,577.5078 657.7188,577.3047 Q657.5156,577.1172 657.4063,576.6016 Q657.3594,576.2422 657.1719,576.0547 Q656.8438,575.6797 656.2344,575.4609 Q655.625,575.2422 655,575.2422 Q654.2344,575.2422 653.5938,575.5703 Q652.9688,575.8984 652.4688,576.6484 Q651.9844,577.3984 651.9844,578.4297 L651.9844,579.5234 Q651.9844,580.7578 652.875,581.5859 Q653.7656,582.3984 655.3594,582.3984 Q656.2969,582.3984 656.9531,582.1484 Q657.3438,581.9922 657.7656,581.5547 Q658.0313,581.2891 658.1719,581.2109 Q658.3281,581.1328 658.5313,581.1328 Q658.8594,581.1328 659.1094,581.3984 Q659.375,581.6484 659.375,581.9922 Q659.375,582.3359 659.0313,582.7422 Q658.5313,583.3203 657.7344,583.6484 Q656.6563,584.1016 655.3594,584.1016 Q653.8438,584.1016 652.6406,583.4766 Q651.6563,582.9766 650.9688,581.9141 Q650.2813,580.8359 650.2813,579.5547 L650.2813,578.3984 Q650.2813,577.0703 650.8906,575.9297 Q651.5156,574.7734 652.6094,574.1641 Q653.7031,573.5391 654.9375,573.5391 Q655.6719,573.5391 656.3125,573.7109 Q656.9688,573.8672 657.5156,574.2266 Z " fill="#000000"/><text fill="#000000" font-family="FG Virgil" font-size="12" font-style="italic" lengthAdjust="spacing" textLength="68" x="692.75" y="574.457">«repository»</text><text fill="#000000" font-family="FG Virgil" font-size="14" lengthAdjust="spacing" textLength="103" x="675.25" y="591.627">PostItRepository</text><path d="M588.5,599.7031 L588.5,599.9834 L598.6667,599.1507 L608.8333,599.9608 L619,600.236 L629.1667,598.7519 L639.3333,599.5995 L649.5,599.1345 L659.6667,599.1918 L669.8333,599.6122 L680,598.7813 L690.1667,600.4413 L700.3333,598.8628 L710.5,599.4394 L720.6667,600.2791 L730.8333,599.5888 L741,599.7941 L751.1667,599.6605 L761.3333,599.9412 L771.5,600.022 L781.6667,600.484 L791.8333,600.5979 L802,600.6088 L812.1667,600.0426 L822.3333,600.3212 L832.5,599.7031 " fill="#F1F1F1" style="stroke:#181818;stroke-width:0.5;"/><path d="M588.5,607.7031 L588.5,607.9834 L598.6667,607.1507 L608.8333,607.9608 L619,608.236 L629.1667,606.7519 L639.3333,607.5995 L649.5,607.1345 L659.6667,607.1918 L669.8333,607.6122 L680,606.7813 L690.1667,608.4413 L700.3333,606.8628 L710.5,607.4394 L720.6667,608.2791 L730.8333,607.5888 L741,607.7941 L751.1667,607.6605 L761.3333,607.9412 L771.5,608.022 L781.6667,608.484 L791.8333,608.5979 L802,608.6088 L812.1667,608.0426 L822.3333,608.3212 L832.5,607.7031 " fill="#F1F1F1" style="stroke:#181818;stroke-width:0.5;"/><text fill="#000000" font-family="FG Virgil" font-size="14" lengthAdjust="spacing" textLength="234" x="593.5" y="626.2363">positByPosition(String, String, Board)</text><text fill="#000000" font-family="FG Virgil" font-size="14" lengthAdjust="spacing" textLength="75" x="593.5" y="643.8457">save(PostIt)</text></g><!--MD5=[343839bb48731e46d0fda742d45fdd31]
class BoardRepository--><g id="elem_BoardRepository"><polygon fill="#F1F1F1" points="975,566,975,566.2102,985.2308,565.5857,995.4615,566.1933,1005.6923,566.3997,1015.9231,565.2866,1026.1538,565.9223,1036.3846,565.5735,1046.6154,565.6165,1056.8462,565.9318,1067.0769,565.3086,1077.3077,566.5536,1087.5385,565.3697,1097.7692,565.8022,1108,566,1108.0551,566.133,1108.3426,566.12,1108.7158,566.3139,1109.0566,566.4295,1109.437,566.6408,1109.7678,566.7322,1109.8414,566.7627,1110.0946,567.1605,1110.2673,567.5249,1110.4163,567.8795,1110.432,568.1789,1110.5,568.5,1110.9636,568.5,1111.2022,578.6875,1109.7788,588.875,1111.1785,599.0625,1110.2035,609.25,1111.0338,619.4375,1110.005,629.625,1110.5,639.8125,1110.4789,639.8038,1110.5819,640.2607,1110.1921,640.5134,1110.0931,640.8866,1110.0185,641.2699,1109.7678,641.5803,1109.8209,641.7084,1109.4137,641.7255,1109.0973,641.9616,1108.6341,641.8433,1108.3898,642.2536,1108,642.3125,1108,642.8607,1097.7692,642.757,1087.5385,642.9255,1077.3077,641.8294,1067.0769,641.6603,1056.8462,641.6911,1046.6154,642.2536,1036.3846,642.116,1026.1538,642.9939,1015.9231,642.1378,1005.6923,641.9694,995.4615,642.5408,985.2308,641.6457,975,642.3125,974.9338,642.1526,974.7292,642.3659,974.3485,642.1538,974.033,642.0994,973.5447,641.6276,973.2322,641.5803,973.3305,641.621,973.2676,641.302,972.7939,640.8129,972.7634,640.5074,972.6852,640.1821,972.5,639.8125,973.1518,639.8125,972.4958,629.625,972.9626,619.4375,971.9462,609.25,971.8227,599.0625,973.0036,588.875,971.7831,578.6875,972.5,568.5,972.6567,568.5649,972.7101,568.1728,972.7104,567.7587,972.8304,567.3942,973.2271,567.1443,973.2322,566.7322,973.194,566.6401,973.6613,566.7681,973.8688,566.2691,974.3717,566.483,974.7082,566.2956,975,566" style="stroke:#181818;stroke-width:0.5;"/><polygon fill="#C2C2C2" points="998.5608,590.0272,996.9484,592.2304,995.0412,595.4573,992.3136,597.632,989.4474,598.8212,987.162,598.9244,984.2247,597.4371,981.4532,596.4655,979.3495,594.4927,978.2461,592.2343,977.5917,590.4361,976.9506,588.0873,975.91,586.066,976.7096,584.0926,977.4102,581.9308,980.0393,580.221,981.889,578.0027,984.1784,577.266,986.9001,576.6316,990.3904,577.0085,992.3021,577.9101,994.5247,578.3188,997.2272,581.0875,998.1693,584.0105,998.5786,586.0049,998.115,589.2914" style="stroke:#181818;stroke-width:1.0;"/><path d="M990.2656,583.2266 Q990.4219,583.0078 990.6094,582.8984 Q990.7969,582.7891 991.0156,582.7891 Q991.3906,582.7891 991.625,583.0547 Q991.8594,583.3047 991.8594,583.9141 L991.8594,585.3672 Q991.8594,585.9766 991.625,586.2422 Q991.3906,586.5078 991.0156,586.5078 Q990.6719,586.5078 990.4688,586.3047 Q990.2656,586.1172 990.1563,585.6016 Q990.1094,585.2422 989.9219,585.0547 Q989.5938,584.6797 988.9844,584.4609 Q988.375,584.2422 987.75,584.2422 Q986.9844,584.2422 986.3438,584.5703 Q985.7188,584.8984 985.2188,585.6484 Q984.7344,586.3984 984.7344,587.4297 L984.7344,588.5234 Q984.7344,589.7578 985.625,590.5859 Q986.5156,591.3984 988.1094,591.3984 Q989.0469,591.3984 989.7031,591.1484 Q990.0938,590.9922 990.5156,590.5547 Q990.7813,590.2891 990.9219,590.2109 Q991.0781,590.1328 991.2813,590.1328 Q991.6094,590.1328 991.8594,590.3984 Q992.125,590.6484 992.125,590.9922 Q992.125,591.3359 991.7813,591.7422 Q991.2813,592.3203 990.4844,592.6484 Q989.4063,593.1016 988.1094,593.1016 Q986.5938,593.1016 985.3906,592.4766 Q984.4063,591.9766 983.7188,590.9141 Q983.0313,589.8359 983.0313,588.5547 L983.0313,587.3984 Q983.0313,586.0703 983.6406,584.9297 Q984.2656,583.7734 985.3594,583.1641 Q986.4531,582.5391 987.6875,582.5391 Q988.4219,582.5391 989.0625,582.7109 Q989.7188,582.8672 990.2656,583.2266 Z " fill="#000000"/><text fill="#000000" font-family="FG Virgil" font-size="12" font-style="italic" lengthAdjust="spacing" textLength="68" x="1020.5" y="583.457">«repository»</text><text fill="#000000" font-family="FG Virgil" font-size="14" lengthAdjust="spacing" textLength="106" x="1001.5" y="600.627">BoardRepository</text><path d="M973.5,608.7031 L973.5,608.9834 L983.2143,608.1507 L992.9286,608.9608 L1002.6429,609.236 L1012.3571,607.7519 L1022.0714,608.5995 L1031.7857,608.1345 L1041.5,608.1918 L1051.2143,608.6122 L1060.9286,607.7813 L1070.6429,609.4413 L1080.3571,607.8628 L1090.0714,608.4394 L1099.7857,609.2791 L1109.5,608.7031 " fill="#F1F1F1" style="stroke:#181818;stroke-width:0.5;"/><path d="M973.5,616.7031 L973.5,616.9834 L983.2143,616.1507 L992.9286,616.9608 L1002.6429,617.236 L1012.3571,615.7519 L1022.0714,616.5995 L1031.7857,616.1345 L1041.5,616.1918 L1051.2143,616.6122 L1060.9286,615.7813 L1070.6429,617.4413 L1080.3571,615.8628 L1090.0714,616.4394 L1099.7857,617.2791 L1109.5,616.7031 " fill="#F1F1F1" style="stroke:#181818;stroke-width:0.5;"/><text fill="#000000" font-family="FG Virgil" font-size="14" lengthAdjust="spacing" textLength="99" x="978.5" y="635.2363">ofIdentity(Long)</text></g><!--MD5=[458552462bbdcbc92793825846cc11c0]
class PostIt--><g id="elem_PostIt"><polygon fill="#F1F1F1" points="268.5,712,268.5,712.2102,278.5,711.5857,288.5,712.1933,298.5,712.3997,308.5,711.2866,318.5,711.9223,328.5,711.5735,338.5,711.6165,348.5,711.9318,358.5,711.3086,368.5,712.5536,378.5,711.3697,388.5,711.8022,398.5,712.4319,408.5,711.9142,418.5,712.0682,428.5,711.9681,438.5,712.1785,448.5,712.2391,458.5,712.5857,468.5,712.6711,478.5,712.6793,488.5,712.2546,498.5,712.4636,508.5,712.7022,518.5,711.2788,528.5,712.6785,538.5,711.7035,548.5,712.5338,558.5,711.505,568.5,711.9315,578.5,712.7416,588.5,711.9513,598.5,712.1053,608.5,712.3386,618.5,712.4162,628.5,711.9961,638.5,712.2872,648.5,711.4276,658.5,712.2844,668.5,712.5482,678.5,712.4445,688.5,712.613,698.5,711.5169,708.5,711.3478,718.5,711.3786,728.5,711.9411,738.5,711.8035,748.5,712.6814,758.5,711.8253,768.5,712,768.4562,711.8944,768.8827,712.2167,769.122,712.0875,769.4944,712.2795,769.997,712.7856,770.2678,712.7322,770.4019,712.7878,770.6404,713.1795,770.4616,713.3983,770.8054,713.8336,771.0354,714.2218,771,714.5,770.5276,714.5,770.9041,724.6875,771.126,734.875,771.6518,745.0625,770.9958,755.25,771.4626,765.4375,770.4462,775.625,771,785.8125,770.7914,785.7261,771.0086,786.2303,770.4863,786.4282,770.7174,786.9381,770.4778,787.2531,770.2678,787.5803,770.2336,787.4978,769.8691,787.6178,769.6192,788.0144,769.1689,787.9274,768.9291,788.3483,768.5,788.3125,768.5,787.7598,758.5,788.9299,748.5,788.7968,738.5,788.5575,728.5,788.3597,718.5,789.0391,708.5,788.9261,698.5,788.4818,688.5,788.5807,678.5,788.1822,668.5,789.029,658.5,788.4674,648.5,788.4851,638.5,787.7041,628.5,787.9073,618.5,788.8432,608.5,788.7423,598.5,788.2696,588.5,787.9903,578.5,788.0936,568.5,787.6263,558.5,788.7272,548.5,789.0521,538.5,788.8389,528.5,789.0074,518.5,788.1758,508.5,788.3997,498.5,787.9249,488.5,788.5965,478.5,788.5593,468.5,788.8649,458.5,788.0828,448.5,788.1781,438.5,788.756,428.5,788.8798,418.5,787.8,408.5,788.1186,398.5,788.4618,388.5,787.7017,378.5,788.6659,368.5,788.5705,358.5,788.2117,348.5,788.4547,338.5,789.0412,328.5,787.9996,318.5,788.6275,308.5,788.5981,298.5,788.4283,288.5,788.4534,278.5,788.426,268.5,788.3125,268.4204,788.1203,268.0953,788.0426,267.734,787.8775,267.4475,787.8928,267.097,787.7539,266.7322,787.5803,266.782,787.6009,266.4962,787.1896,266.4185,786.8645,266.2559,786.5043,266.3241,786.2396,266,785.8125,266.4266,785.8125,265.5145,775.625,265.9271,765.4375,265.4228,755.25,266.2884,745.0625,266.6085,734.875,266.5446,724.6875,266,714.5,265.8659,714.4444,266.2893,714.2056,266.0641,713.6981,266.501,713.4649,266.4936,713.0476,266.7322,712.7322,266.7446,712.762,267.1164,712.6598,267.4996,712.5847,267.7011,712.0712,268.2071,712.2929,268.5,712" style="stroke:#181818;stroke-width:0.5;"/><polygon fill="#C2C2C2" points="499.3108,736.0272,497.6984,738.2304,495.7912,741.4573,493.0636,743.632,490.1974,744.8212,487.912,744.9244,484.9747,743.4371,482.2032,742.4655,480.0995,740.4927,478.9961,738.2343,478.3417,736.4361,477.7006,734.0873,476.66,732.066,477.4596,730.0926,478.1602,727.9308,480.7893,726.221,482.639,724.0027,484.9284,723.266,487.6501,722.6316,491.1404,723.0085,493.0521,723.9101,495.2747,724.3188,497.9772,727.0875,498.9193,730.0105,499.3286,732.0049,498.865,735.2914" style="stroke:#181818;stroke-width:1.0;"/><path d="M491.0156,729.2266 Q491.1719,729.0078 491.3594,728.8984 Q491.5469,728.7891 491.7656,728.7891 Q492.1406,728.7891 492.375,729.0547 Q492.6094,729.3047 492.6094,729.9141 L492.6094,731.3672 Q492.6094,731.9766 492.375,732.2422 Q492.1406,732.5078 491.7656,732.5078 Q491.4219,732.5078 491.2188,732.3047 Q491.0156,732.1172 490.9063,731.6016 Q490.8594,731.2422 490.6719,731.0547 Q490.3438,730.6797 489.7344,730.4609 Q489.125,730.2422 488.5,730.2422 Q487.7344,730.2422 487.0938,730.5703 Q486.4688,730.8984 485.9688,731.6484 Q485.4844,732.3984 485.4844,733.4297 L485.4844,734.5234 Q485.4844,735.7578 486.375,736.5859 Q487.2656,737.3984 488.8594,737.3984 Q489.7969,737.3984 490.4531,737.1484 Q490.8438,736.9922 491.2656,736.5547 Q491.5313,736.2891 491.6719,736.2109 Q491.8281,736.1328 492.0313,736.1328 Q492.3594,736.1328 492.6094,736.3984 Q492.875,736.6484 492.875,736.9922 Q492.875,737.3359 492.5313,737.7422 Q492.0313,738.3203 491.2344,738.6484 Q490.1563,739.1016 488.8594,739.1016 Q487.3438,739.1016 486.1406,738.4766 Q485.1563,737.9766 484.4688,736.9141 Q483.7813,735.8359 483.7813,734.5547 L483.7813,733.3984 Q483.7813,732.0703 484.3906,730.9297 Q485.0156,729.7734 486.1094,729.1641 Q487.2031,728.5391 488.4375,728.5391 Q489.1719,728.5391 489.8125,728.7109 Q490.4688,728.8672 491.0156,729.2266 Z " fill="#000000"/><text fill="#000000" font-family="FG Virgil" font-size="12" font-style="italic" lengthAdjust="spacing" textLength="56" x="506.75" y="729.457">«domain»</text><text fill="#000000" font-family="FG Virgil" font-size="14" lengthAdjust="spacing" textLength="35" x="517.25" y="746.627">PostIt</text><path d="M267,754.7031 L267,754.9834 L277.06,754.1507 L287.12,754.9608 L297.18,755.236 L307.24,753.7519 L317.3,754.5995 L327.36,754.1345 L337.42,754.1918 L347.48,754.6122 L357.54,753.7813 L367.6,755.4413 L377.66,753.8628 L387.72,754.4394 L397.78,755.2791 L407.84,754.5888 L417.9,754.7941 L427.96,754.6605 L438.02,754.9412 L448.08,755.022 L458.14,755.484 L468.2,755.5979 L478.26,755.6088 L488.32,755.0426 L498.38,755.3212 L508.44,755.6394 L518.5,753.7415 L528.56,755.6078 L538.62,754.3078 L548.68,755.4149 L558.74,754.0431 L568.8,754.6118 L578.86,755.6919 L588.92,754.6381 L598.98,754.8435 L609.04,755.1546 L619.1,755.2581 L629.16,754.6979 L639.22,755.0861 L649.28,753.9399 L659.34,755.0823 L669.4,755.4341 L679.46,755.2958 L689.52,755.5205 L699.58,754.059 L709.64,753.8335 L719.7,753.8746 L729.76,754.6246 L739.82,754.4411 L749.88,755.6117 L759.94,754.4702 L770,754.7031 " fill="#F1F1F1" style="stroke:#181818;stroke-width:0.5;"/><path d="M267,762.7031 L267,762.9834 L277.06,762.1507 L287.12,762.9608 L297.18,763.236 L307.24,761.7519 L317.3,762.5995 L327.36,762.1345 L337.42,762.1918 L347.48,762.6122 L357.54,761.7813 L367.6,763.4413 L377.66,761.8628 L387.72,762.4394 L397.78,763.2791 L407.84,762.5888 L417.9,762.7941 L427.96,762.6605 L438.02,762.9412 L448.08,763.022 L458.14,763.484 L468.2,763.5979 L478.26,763.6088 L488.32,763.0426 L498.38,763.3212 L508.44,763.6394 L518.5,761.7415 L528.56,763.6078 L538.62,762.3078 L548.68,763.4149 L558.74,762.0431 L568.8,762.6118 L578.86,763.6919 L588.92,762.6381 L598.98,762.8435 L609.04,763.1546 L619.1,763.2581 L629.16,762.6979 L639.22,763.0861 L649.28,761.9399 L659.34,763.0823 L669.4,763.4341 L679.46,763.2958 L689.52,763.5205 L699.58,762.059 L709.64,761.8335 L719.7,761.8746 L729.76,762.6246 L739.82,762.4411 L749.88,763.6117 L759.94,762.4702 L770,762.7031 " fill="#F1F1F1" style="stroke:#181818;stroke-width:0.5;"/><text fill="#000000" font-family="FG Virgil" font-size="14" lengthAdjust="spacing" textLength="493" x="272" y="781.2363">PostIt(PostItContent, PostItRow, PostItColumn, User, Board, PostItState, PostIt)</text></g><!--MD5=[3fd616f346a44cd59a91eb10b19e157c]
class User--><g id="elem_User"><polygon fill="#F1F1F1" points="991,367.5,991,367.7102,1000.875,367.0857,1010.75,367.6933,1020.625,367.8997,1030.5,366.7866,1040.375,367.4223,1050.25,367.0735,1060.125,367.1165,1070,367.5,1069.9913,367.479,1070.2654,367.4335,1070.7777,367.9634,1070.9803,367.7452,1071.389,368.0249,1071.7678,368.2322,1071.9008,368.2873,1071.8878,368.5748,1072.0817,368.948,1072.1973,369.2888,1072.4085,369.6692,1072.5,370,1072.7391,370,1073.0857,380.7406,1073.1711,391.4813,1073.1793,402.2219,1072.7546,412.9625,1072.5,423.7031,1072.6428,423.7623,1072.5698,424.1463,1071.985,424.3182,1072.2696,424.8503,1071.8229,425.0795,1071.7678,425.4709,1071.8359,425.6353,1071.3511,425.4649,1071.0519,425.7427,1070.8017,426.1386,1070.3473,426.0417,1070,426.2031,1070,426.3084,1060.125,426.5418,1050.25,426.6194,1040.375,426.1992,1030.5,426.4903,1020.625,425.6307,1010.75,426.4875,1000.875,426.7513,991,426.2031,991.0567,426.34,990.7246,426.2455,990.2313,425.7615,989.8561,425.5629,989.5065,425.426,989.2322,425.4709,989.2141,425.4634,989.0253,425.0923,989.1492,424.8507,988.7391,424.3879,988.5408,424.0129,988.5,423.7031,988.7283,423.7031,987.8332,412.9625,987.9809,402.2219,989.149,391.4813,988.9357,380.7406,988.5,370,988.7262,370.0937,988.5473,369.6054,988.8912,369.3336,989.1212,369.0147,988.9403,368.5255,989.2322,368.2322,989.22,368.2027,989.6019,368.1246,990.0225,368.1401,990.2924,367.7916,990.7055,367.7889,991,367.5" style="stroke:#181818;stroke-width:0.5;"/><polygon fill="#C2C2C2" points="1014.5608,391.5272,1012.9484,393.7304,1011.0412,396.9573,1008.3136,399.132,1005.4474,400.3212,1003.162,400.4244,1000.2247,398.9371,997.4532,397.9655,995.3495,395.9927,994.2461,393.7343,993.5917,391.9361,992.9506,389.5873,991.91,387.566,992.7096,385.5926,993.4102,383.4308,996.0393,381.721,997.889,379.5027,1000.1784,378.766,1002.9001,378.1316,1006.3904,378.5085,1008.3021,379.4101,1010.5247,379.8188,1013.2272,382.5875,1014.1693,385.5105,1014.5786,387.5049,1014.115,390.7914" style="stroke:#181818;stroke-width:1.0;"/><path d="M1006.2656,384.7266 Q1006.4219,384.5078 1006.6094,384.3984 Q1006.7969,384.2891 1007.0156,384.2891 Q1007.3906,384.2891 1007.625,384.5547 Q1007.8594,384.8047 1007.8594,385.4141 L1007.8594,386.8672 Q1007.8594,387.4766 1007.625,387.7422 Q1007.3906,388.0078 1007.0156,388.0078 Q1006.6719,388.0078 1006.4688,387.8047 Q1006.2656,387.6172 1006.1563,387.1016 Q1006.1094,386.7422 1005.9219,386.5547 Q1005.5938,386.1797 1004.9844,385.9609 Q1004.375,385.7422 1003.75,385.7422 Q1002.9844,385.7422 1002.3438,386.0703 Q1001.7188,386.3984 1001.2188,387.1484 Q1000.7344,387.8984 1000.7344,388.9297 L1000.7344,390.0234 Q1000.7344,391.2578 1001.625,392.0859 Q1002.5156,392.8984 1004.1094,392.8984 Q1005.0469,392.8984 1005.7031,392.6484 Q1006.0938,392.4922 1006.5156,392.0547 Q1006.7813,391.7891 1006.9219,391.7109 Q1007.0781,391.6328 1007.2813,391.6328 Q1007.6094,391.6328 1007.8594,391.8984 Q1008.125,392.1484 1008.125,392.4922 Q1008.125,392.8359 1007.7813,393.2422 Q1007.2813,393.8203 1006.4844,394.1484 Q1005.4063,394.6016 1004.1094,394.6016 Q1002.5938,394.6016 1001.3906,393.9766 Q1000.4063,393.4766 999.7188,392.4141 Q999.0313,391.3359 999.0313,390.0547 L999.0313,388.8984 Q999.0313,387.5703 999.6406,386.4297 Q1000.2656,385.2734 1001.3594,384.6641 Q1002.4531,384.0391 1003.6875,384.0391 Q1004.4219,384.0391 1005.0625,384.2109 Q1005.7188,384.3672 1006.2656,384.7266 Z " fill="#000000"/><text fill="#000000" font-family="FG Virgil" font-size="12" font-style="italic" lengthAdjust="spacing" textLength="56" x="1015.5" y="384.957">«domain»</text><text fill="#000000" font-family="FG Virgil" font-size="14" lengthAdjust="spacing" textLength="29" x="1029" y="402.127">User</text><path d="M989.5,410.2031 L989.5,410.4834 L999.75,409.6507 L1010,410.4608 L1020.25,410.736 L1030.5,409.2519 L1040.75,410.0995 L1051,409.6345 L1061.25,409.6918 L1071.5,410.2031 " fill="#F1F1F1" style="stroke:#181818;stroke-width:0.5;"/><path d="M989.5,418.2031 L989.5,418.4834 L999.75,417.6507 L1010,418.4608 L1020.25,418.736 L1030.5,417.2519 L1040.75,418.0995 L1051,417.6345 L1061.25,417.6918 L1071.5,418.2031 " fill="#F1F1F1" style="stroke:#181818;stroke-width:0.5;"/></g><!--MD5=[9563755d011c5cec7ec66dc53565a59e]
class Board--><g id="elem_Board"><polygon fill="#F1F1F1" points="837.5,712,837.5,712.2102,847.66,711.5857,857.82,712.1933,867.98,712.3997,878.14,711.2866,888.3,711.9223,898.46,711.5735,908.62,711.6165,918.78,711.9318,928.94,711.3086,939.1,712.5536,949.26,711.3697,959.42,711.8022,969.58,712.4319,979.74,711.9142,989.9,712.0682,1000.06,711.9681,1010.22,712.1785,1020.38,712.2391,1030.54,712.5857,1040.7,712.6711,1050.86,712.6793,1061.02,712.2546,1071.18,712.4636,1081.34,712.7022,1091.5,712,1091.408,711.7779,1091.9401,712.3554,1092.1693,712.2016,1092.6288,712.6037,1092.8511,712.4333,1093.2678,712.7322,1093.2467,712.7235,1093.6426,713.1804,1093.5457,713.4331,1093.7395,713.8063,1093.9578,714.1896,1094,714.5,1094.4162,714.5,1093.9961,724.6875,1094.2872,734.875,1093.4276,745.0625,1094.2844,755.25,1094.5482,765.4375,1094.4445,775.625,1094,785.8125,1094.1888,785.8907,1093.7048,786.1044,1093.5063,786.4364,1093.3693,786.7939,1093.3961,787.2192,1093.2678,787.5803,1093.2427,787.5197,1093.0011,787.9366,1092.5384,787.8194,1092.1633,787.914,1091.8827,788.2364,1091.5,788.3125,1091.5,787.6457,1081.34,787.7934,1071.18,788.9615,1061.02,788.7482,1050.86,789.047,1040.7,787.9907,1030.54,788.6317,1020.38,788.9029,1010.22,787.8401,1000.06,788.2166,989.9,788.4385,979.74,788.9643,969.58,788.3083,959.42,788.7751,949.26,787.7587,939.1,787.6352,928.94,788.8161,918.78,787.5956,908.62,788.8215,898.46,788.5191,888.3,788.0446,878.14,787.9587,867.98,788.7713,857.82,788.0132,847.66,788.9044,837.5,788.3125,837.4295,788.1423,837.2252,788.3562,836.8547,788.1688,836.4706,787.9486,836.0918,787.7413,835.7322,787.5803,835.956,787.673,835.7747,787.305,835.4915,786.8948,835.3755,786.5538,835.1063,786.1494,835,785.8125,835.7165,785.8125,835.1549,775.625,835.1726,765.4375,834.3916,755.25,834.5948,745.0625,835.5307,734.875,835.4298,724.6875,835,714.5,834.9868,714.4945,835.0472,714.1054,835.2255,713.765,835.228,713.3518,835.7135,713.1387,835.7322,712.7322,835.8266,712.96,836.1529,712.7479,836.528,712.6534,836.7755,712.2508,837.1576,712.1733,837.5,712" style="stroke:#181818;stroke-width:0.5;"/><polygon fill="#C2C2C2" points="945.3108,736.0272,943.6984,738.2304,941.7912,741.4573,939.0636,743.632,936.1974,744.8212,933.912,744.9244,930.9747,743.4371,928.2032,742.4655,926.0995,740.4927,924.9961,738.2343,924.3417,736.4361,923.7006,734.0873,922.66,732.066,923.4596,730.0926,924.1602,727.9308,926.7893,726.221,928.639,724.0027,930.9284,723.266,933.6501,722.6316,937.1404,723.0085,939.0521,723.9101,941.2747,724.3188,943.9772,727.0875,944.9193,730.0105,945.3286,732.0049,944.865,735.2914" style="stroke:#181818;stroke-width:1.0;"/><path d="M937.0156,729.2266 Q937.1719,729.0078 937.3594,728.8984 Q937.5469,728.7891 937.7656,728.7891 Q938.1406,728.7891 938.375,729.0547 Q938.6094,729.3047 938.6094,729.9141 L938.6094,731.3672 Q938.6094,731.9766 938.375,732.2422 Q938.1406,732.5078 937.7656,732.5078 Q937.4219,732.5078 937.2188,732.3047 Q937.0156,732.1172 936.9063,731.6016 Q936.8594,731.2422 936.6719,731.0547 Q936.3438,730.6797 935.7344,730.4609 Q935.125,730.2422 934.5,730.2422 Q933.7344,730.2422 933.0938,730.5703 Q932.4688,730.8984 931.9688,731.6484 Q931.4844,732.3984 931.4844,733.4297 L931.4844,734.5234 Q931.4844,735.7578 932.375,736.5859 Q933.2656,737.3984 934.8594,737.3984 Q935.7969,737.3984 936.4531,737.1484 Q936.8438,736.9922 937.2656,736.5547 Q937.5313,736.2891 937.6719,736.2109 Q937.8281,736.1328 938.0313,736.1328 Q938.3594,736.1328 938.6094,736.3984 Q938.875,736.6484 938.875,736.9922 Q938.875,737.3359 938.5313,737.7422 Q938.0313,738.3203 937.2344,738.6484 Q936.1563,739.1016 934.8594,739.1016 Q933.3438,739.1016 932.1406,738.4766 Q931.1563,737.9766 930.4688,736.9141 Q929.7813,735.8359 929.7813,734.5547 L929.7813,733.3984 Q929.7813,732.0703 930.3906,730.9297 Q931.0156,729.7734 932.1094,729.1641 Q933.2031,728.5391 934.4375,728.5391 Q935.1719,728.5391 935.8125,728.7109 Q936.4688,728.8672 937.0156,729.2266 Z " fill="#000000"/><text fill="#000000" font-family="FG Virgil" font-size="12" font-style="italic" lengthAdjust="spacing" textLength="56" x="952.75" y="729.457">«domain»</text><text fill="#000000" font-family="FG Virgil" font-size="14" lengthAdjust="spacing" textLength="38" x="961.75" y="746.627">Board</text><path d="M836,754.7031 L836,754.9834 L845.8846,754.1507 L855.7692,754.9608 L865.6538,755.236 L875.5385,753.7519 L885.4231,754.5995 L895.3077,754.1345 L905.1923,754.1918 L915.0769,754.6122 L924.9615,753.7813 L934.8462,755.4413 L944.7308,753.8628 L954.6154,754.4394 L964.5,755.2791 L974.3846,754.5888 L984.2692,754.7941 L994.1538,754.6605 L1004.0385,754.9412 L1013.9231,755.022 L1023.8077,755.484 L1033.6923,755.5979 L1043.5769,755.6088 L1053.4615,755.0426 L1063.3462,755.3212 L1073.2308,755.6394 L1083.1154,753.7415 L1093,754.7031 " fill="#F1F1F1" style="stroke:#181818;stroke-width:0.5;"/><path d="M836,762.7031 L836,762.9834 L845.8846,762.1507 L855.7692,762.9608 L865.6538,763.236 L875.5385,761.7519 L885.4231,762.5995 L895.3077,762.1345 L905.1923,762.1918 L915.0769,762.6122 L924.9615,761.7813 L934.8462,763.4413 L944.7308,761.8628 L954.6154,762.4394 L964.5,763.2791 L974.3846,762.5888 L984.2692,762.7941 L994.1538,762.6605 L1004.0385,762.9412 L1013.9231,763.022 L1023.8077,763.484 L1033.6923,763.5979 L1043.5769,763.6088 L1053.4615,763.0426 L1063.3462,763.3212 L1073.2308,763.6394 L1083.1154,761.7415 L1093,762.7031 " fill="#F1F1F1" style="stroke:#181818;stroke-width:0.5;"/><text fill="#000000" font-family="FG Virgil" font-size="14" lengthAdjust="spacing" textLength="247" x="841" y="781.2363">userHasPermission(User, AccessLevel)</text></g><!--MD5=[47beac5dbee6efa3980ddc3ef6d9a79a]
link HttpServerAjax to UpdatePostItController--><g id="link_HttpServerAjax_UpdatePostItController"><path d="M830.6,83.18 L830.7937,83.3826 L823.1719,89.518 L816.6854,96.8408 L809.8292,103.777 L801.7572,109.4416 L795.2966,116.7915 L787.9288,123.1926 L780.9221,129.9713 L774.1663,137.0125 L766.5457,143.1492 L760.6465,151.0863 L753.09,157.29 " fill="none" style="stroke:#181818;stroke-width:1.0;"/><polygon fill="#181818" points="749.27,160.94,749.2937,161.0059,751.077,160.1439,752.9993,159.6685,754.8763,159.0671,756.6045,158.0519,758.5387,157.6096,758.5381,157.5837,757.4044,157.4423,756.2736,157.4315,755.1449,157.5114,754.0092,157.2786,752.8832,157.4839,753.0677,157.488,752.6983,156.3481,752.8676,155.2202,753.1026,154.0938,752.9552,152.9589,753.0089,151.8284,753.0299,151.8371,752.2513,153.6467,751.5684,155.4956,750.8393,157.3256,750.1984,159.1918,749.27,160.94" style="stroke:#181818;stroke-width:1.0;"/><text fill="#000000" font-family="FG Virgil" font-size="13" lengthAdjust="spacing" textLength="73" x="796.5" y="127.4951">theController</text></g><!--MD5=[886edeef38e246f68555233ed43ef7bd]
link HttpServerAjax to SessionManager--><g id="link_HttpServerAjax_SessionManager"><path d="M908.89,83.18 L909.0824,83.3838 L915.5007,89.3783 L923.0469,96.5674 L930.2259,103.3675 L936.197,108.8884 L943.7689,116.1047 L950.4396,122.3665 L957.469,129.0082 L964.7476,135.9139 L971.1671,141.9097 L979.2968,149.7167 L985.2031,155.169 L992.77,162.38 " fill="none" style="stroke:#181818;stroke-width:1.0;"/><polygon fill="#181818" points="996.43,165.83,996.4947,165.8569,995.5473,163.9578,994.9792,162.2161,994.2877,160.4232,993.1899,158.4617,992.6544,156.7336,992.6285,156.7329,992.5419,157.8608,992.586,158.9922,992.7207,160.1259,992.5428,161.2515,992.8029,162.3885,992.8077,162.573,991.6664,162.2082,990.5392,162.382,989.4137,162.6215,988.2782,162.4787,987.148,162.537,987.1556,162.5585,989.0008,163.1856,990.8807,163.9103,992.7438,164.5879,994.6389,165.3554,996.43,165.83" style="stroke:#181818;stroke-width:1.0;"/><text fill="#000000" font-family="FG Virgil" font-size="13" lengthAdjust="spacing" textLength="95" x="956.5" y="127.4951">sessionManager</text></g><!--MD5=[cfa8c6cc09150aa1a34895e749736282]
link SessionManager to User--><g id="link_SessionManager_User"><path d="M1030.5,232.37 L1030.7802,232.37 L1029.9476,242.3569 L1030.7577,252.3438 L1031.0329,262.3308 L1029.5488,272.3177 L1030.3964,282.3046 L1029.9313,292.2915 L1029.9887,302.2785 L1030.4091,312.2654 L1029.5782,322.2523 L1031.2382,332.2392 L1029.6596,342.2262 L1030.2363,352.2131 L1030.5,362.2 " fill="none" style="stroke:#181818;stroke-width:1.0;stroke-dasharray:7.0,7.0;"/><polygon fill="#181818" points="1030.5,367.41,1030.564,367.4385,1031.1738,365.5539,1032.1589,363.8362,1033.0217,362.0641,1033.4827,360.1134,1034.5,358.41,1034.4817,358.3917,1033.5995,359.1095,1032.8096,359.9196,1032.0839,360.7939,1031.137,361.447,1030.5,362.41,1030.6305,362.5405,1029.5514,361.4614,1028.8534,360.7634,1028.2018,360.1118,1027.2798,359.1898,1026.5,358.41,1026.5208,358.4192,1027.2903,360.2057,1028.1544,362.0342,1028.9728,363.8424,1029.8784,365.6893,1030.5,367.41" style="stroke:#181818;stroke-width:1.0;"/></g><!--MD5=[0796f57925d31cfb4e32dac1eed2abd2]
link UpdatePostItController to PostItService--><g id="link_UpdatePostItController_PostItService"><path d="M710.5,237.33 L710.7802,237.33 L709.9476,247.6986 L710.7577,258.0671 L711.0329,268.4357 L709.5488,278.8043 L710.3964,289.1729 L709.9313,299.5414 L710.5,309.91 " fill="none" style="stroke:#181818;stroke-width:1.0;"/><polygon fill="#181818" points="710.5,314.98,710.564,315.0085,711.1738,313.1239,712.1589,311.4062,713.0217,309.6341,713.4827,307.6834,714.5,305.98,714.4817,305.9617,713.5995,306.6795,712.8096,307.4896,712.0839,308.3639,711.137,309.017,710.5,309.98,710.6305,310.1105,709.5514,309.0314,708.8534,308.3334,708.2018,307.6818,707.2798,306.7598,706.5,305.98,706.5208,305.9892,707.2903,307.7757,708.1544,309.6042,708.9728,311.4124,709.8784,313.2593,710.5,314.98" style="stroke:#181818;stroke-width:1.0;"/><text fill="#000000" font-family="FG Virgil" font-size="13" lengthAdjust="spacing" textLength="53" x="711.5" y="281.4951">postItSvc</text></g><!--MD5=[b9692feec0cb1506ec17cf1d0e1e1acb]
link PostItService to PostItFactory--><g id="link_PostItService_PostItFactory"><path d="M486.43,479.11 L486.4648,479.1967 L482.7037,480.4078 L479.1466,482.1272 L475.523,483.681 L471.681,484.6906 L468.1414,486.4536 L468.1283,486.4216 L464.4375,487.7677 L460.8127,489.275 L457.2338,490.8942 L453.4967,492.1274 L449.9813,493.9013 L450.0765,494.1281 L446.2891,495.1479 L442.7799,496.83 L439.3046,498.593 L435.6319,499.8857 L432.063,501.4258 L432.075,501.4536 L428.5448,502.9276 L425.0692,504.5283 L421.5673,506.0679 L418.1157,507.7242 L414.5,509 L414.6212,509.2725 L411.7528,510.5528 L408.8061,511.6573 L405.974,513.0192 L403.1472,514.3931 L400.1504,515.3849 L400.0167,515.0935 L397.3691,516.9924 L394.2814,517.932 L391.5282,519.6009 L388.4306,520.5188 L385.6153,522.0522 L385.6022,522.0247 L379.9294,525.1234 L373.9509,527.5798 L368.1527,530.4151 L362.3697,533.2823 L356.4775,535.92 L356.5595,536.0858 L350.7939,538.7295 L345.1685,541.6565 L339.3163,544.1252 L333.8023,547.2775 L328.0634,549.9753 L328.1741,550.1924 L322.8105,552.8743 L317.5018,555.6639 L311.9379,557.9528 L306.5611,560.6088 L301.35,563.59 " fill="none" style="stroke:#181818;stroke-width:1.0;"/><polygon fill="#181818" points="296.81,565.94,296.8143,566.0099,298.7677,565.6825,300.7462,565.765,302.7165,565.714,304.6601,565.224,306.6407,565.3417,306.6329,565.317,305.5191,564.8649,304.4447,564.5373,303.3978,564.2963,302.2564,563.757,301.2473,563.6355,301.4232,563.6912,301.3882,562.4934,301.8669,561.4582,302.4082,560.4429,302.585,559.3121,302.9535,558.2421,302.9712,558.2563,301.7164,559.775,300.5426,561.3584,299.3297,562.9106,298.1913,564.5222,296.81,565.94" style="stroke:#181818;stroke-width:1.0;"/><text fill="#000000" font-family="FG Virgil" font-size="13" lengthAdjust="spacing" textLength="76" x="415.5" y="523.4951">postItFactory</text></g><!--MD5=[778855c556e50cd29727724975a88767]
link PostItService to PostItRepository--><g id="link_PostItService_PostItRepository"><path d="M710.5,479.02 L710.7802,479.02 L709.9476,489.3871 L710.7577,499.7543 L711.0329,510.1214 L709.5488,520.4886 L710.3964,530.8557 L709.9313,541.2229 L710.5,551.59 " fill="none" style="stroke:#181818;stroke-width:1.0;"/><polygon fill="#181818" points="710.5,556.79,710.564,556.8185,711.1738,554.9339,712.1589,553.2162,713.0217,551.4441,713.4827,549.4934,714.5,547.79,714.4817,547.7717,713.5995,548.4895,712.8096,549.2996,712.0839,550.1739,711.137,550.827,710.5,551.79,710.6305,551.9205,709.5514,550.8414,708.8534,550.1434,708.2018,549.4918,707.2798,548.5698,706.5,547.79,706.5208,547.7992,707.2903,549.5857,708.1544,551.4142,708.9728,553.2224,709.8784,555.0693,710.5,556.79" style="stroke:#181818;stroke-width:1.0;"/><text fill="#000000" font-family="FG Virgil" font-size="13" lengthAdjust="spacing" textLength="94" x="711.5" y="523.4951">postItRepository</text></g><!--MD5=[85f25023764845daeae7ec7566bd8a25]
link PostItService to BoardRepository--><g id="link_PostItService_BoardRepository"><path d="M880.12,479.03 L880.1664,479.1111 L882.565,480.3234 L885.2357,482.011 L887.8178,483.5438 L890.1084,484.5678 L892.8025,486.2961 L892.7849,486.2664 L895.2077,487.6192 L897.7195,489.1216 L900.293,490.7281 L902.6536,491.976 L905.3125,493.7263 L905.4418,493.9356 L907.617,495.0029 L910.1698,496.6813 L912.7687,498.4343 L915.0995,499.7534 L917.5713,501.3008 L917.5877,501.3263 L919.9493,502.8287 L922.3858,504.4471 L924.7861,506.0096 L927.2554,507.6789 L929.5,509 L929.6677,509.2466 L931.4614,510.468 L933.147,511.5302 L934.9909,512.8254 L936.8422,514.1314 L938.4584,515.0916 L938.2718,514.831 L940.4263,516.6201 L941.9664,517.5511 L943.9737,519.1344 L945.4999,520.0459 L947.4203,521.5081 L947.4021,521.4837 L949.3986,523.1043 L950.969,524.1553 L952.7909,525.5423 L954.6339,526.9576 L956.3246,528.1693 L956.4381,528.3154 L958.0806,529.5331 L959.9171,531.0004 L961.4397,532.0638 L963.4305,533.7297 L965.11,534.995 L965.2625,535.185 L966.9548,536.5311 L968.7228,537.9715 L970.1388,538.9736 L971.8129,540.2971 L973.7154,541.9051 L973.5395,541.6922 L975.3716,543.2678 L977.0055,544.6035 L978.9269,546.2871 L980.3574,547.3767 L982.0797,548.8194 L981.9804,548.7037 L985.2978,551.6005 L988.1908,554.0027 L991.3856,556.7566 L994.8757,559.8548 L997.84,562.34 " fill="none" style="stroke:#181818;stroke-width:1.0;"/><polygon fill="#181818" points="1001.78,565.81,1001.8437,565.8392,1000.8338,563.9618,1000.1973,562.2555,999.4392,560.4934,998.2813,558.5482,997.6768,556.8566,997.651,556.855,997.6056,557.9768,997.6907,559.1069,997.8663,560.2426,997.7297,561.3588,998.0304,562.5024,998.0419,562.6865,996.8881,562.3634,995.768,562.578,994.6519,562.8582,993.512,562.7567,992.3846,562.8559,992.3914,562.8776,994.2605,563.4366,996.1606,564.0943,998.0457,564.7044,999.9595,565.4054,1001.78,565.81" style="stroke:#181818;stroke-width:1.0;"/><text fill="#000000" font-family="FG Virgil" font-size="13" lengthAdjust="spacing" textLength="94" x="953.5" y="523.4951">boardRepository</text></g><!--MD5=[2dd22cea3aeea39cf43778b727913196]
link PostItFactory to PostIt--><g id="link_PostItFactory_PostIt"><path d="M302.44,642.08 L302.5643,642.3312 L311.2957,646.0882 L320.7556,651.3176 L329.9783,656.0676 L338.4208,659.2408 L347.8974,664.5038 L356.7918,668.5903 L365.9179,673.145 L375.205,678.0252 L383.9372,681.7838 L393.7741,687.775 L402.1746,690.8635 L411.5311,695.8837 L421.0041,701.1395 L429.7986,705.0242 L438.95,709.63 " fill="none" style="stroke:#181818;stroke-width:1.0;"/><polygon fill="#181818" points="443.56,711.92,443.614,711.9647,442.1975,710.3146,441.0975,708.9264,439.8944,707.453,438.3525,705.6991,437.2796,704.3334,437.2551,704.3251,437.5054,705.3605,437.8795,706.4374,438.3396,707.5433,438.5032,708.5495,439.0822,709.6953,439.141,709.8703,437.9428,709.8567,436.9164,710.3539,435.9109,710.9133,434.7835,711.1103,433.7202,711.4979,433.7212,711.5206,435.6877,711.5717,437.6587,711.7262,439.6275,711.8308,441.6004,712.0306,443.56,711.92" style="stroke:#181818;stroke-width:1.0;"/></g><!--MD5=[a179befad2a701e07a9299659a8da84c]
link PostItRepository to PostIt--><g id="link_PostItRepository_PostIt"><path d="M648.96,651.16 L649.1281,651.3842 L640.9286,656.492 L633.7146,662.9142 L626.1797,668.9084 L617.5893,673.495 L610.3978,679.9471 L602.4188,685.349 L594.7532,691.1689 L587.3055,697.2793 L579.107,702.3885 L571.96,708.9 " fill="none" style="stroke:#181818;stroke-width:1.0;"/><polygon fill="#181818" points="567.86,711.98,567.8756,712.0483,569.7492,711.4054,571.7144,711.1628,573.6498,710.7899,575.4869,709.9882,577.46,709.78,577.4563,709.7544,576.3199,709.4793,575.2019,709.3335,574.0968,709.2775,572.9474,708.9119,571.86,708.98,572.0427,709.0061,571.812,707.8303,572.1147,706.7307,572.4825,705.6404,572.4717,704.496,572.66,703.38,572.6799,703.3911,571.6907,705.0948,570.792,706.849,569.8496,708.5788,568.9905,710.3551,567.86,711.98" style="stroke:#181818;stroke-width:1.0;"/></g><!--MD5=[c2b2d28b8f8fd1e85bbeebc0fff5bd46]
link BoardRepository to Board--><g id="link_BoardRepository_Board"><path d="M1021.67,642.08 L1021.9171,642.2122 L1016.2271,651.0866 L1011.9858,660.7358 L1007.2728,670.1327 L1001.0084,678.7 L996.8001,688.3669 L991.4343,697.4147 L986.98,706.95 " fill="none" style="stroke:#181818;stroke-width:1.0;"/><polygon fill="#181818" points="984.53,711.54,984.5731,711.5953,985.9986,710.2201,987.6767,709.1689,989.2726,708.0121,990.598,706.5085,992.2978,705.4851,992.2902,705.4603,991.1739,705.6779,990.0956,706.0205,989.0436,706.45,987.9007,706.58,986.8852,707.1294,987.0617,707.1831,986.3553,705.9858,986.1644,704.9452,986.0363,703.9237,985.5423,702.791,985.2408,701.7168,985.2635,701.7185,985.088,703.6807,985.0159,705.6504,984.8938,707.6165,984.8669,709.5895,984.53,711.54" style="stroke:#181818;stroke-width:1.0;"/></g><!--MD5=[90d69ff1202b184f782b05dfe7501887]
link PostItService to PostIt--><g id="link_PostItService_PostIt"><path d="M595.89,479.26 L595.9551,479.327 L593.9954,480.8457 L592.4175,482.7571 L590.7153,484.5406 L588.6042,485.9037 L587.0591,487.8488 L587.0342,487.8248 L585.2007,489.5044 L583.4926,491.3047 L581.8716,493.1891 L579.9503,494.7841 L578.4497,496.7844 L578.6329,496.9487 L576.5781,498.4514 L575.0581,500.4338 L573.6033,502.4748 L571.7689,504.1752 L570.1342,506.0547 L570.1575,506.074 L568.5334,507.9642 L567.0156,509.9424 L565.4465,511.8782 L563.9753,513.895 L562.185,515.6475 L562.4226,515.8277 L560.9235,517.8105 L559.271,519.6771 L557.8429,521.7139 L556.4253,523.7586 L554.6746,525.5506 L554.4103,525.3693 L553.5234,527.7615 L551.7662,529.5566 L550.6706,531.8056 L548.8937,533.5872 L547.6753,535.7519 L547.6493,535.736 L546.6733,538.0213 L545.0906,539.9354 L543.8658,542.0686 L542.6712,544.2202 L541.2596,546.2391 L541.4227,546.3264 L540.1062,548.3904 L539.0683,550.6037 L537.5796,552.5756 L536.7634,554.9075 L535.5,557 L535.7243,557.0952 L534.1272,560.7391 L532.6415,564.4302 L530.6384,567.9017 L529.0146,571.5342 L527.7268,575.3094 L527.4647,575.2223 L527.0684,577.2083 L526.3768,579.0962 L526.1135,581.1264 L525.1188,582.9136 L524.5589,584.8453 L524.4121,584.8041 L524.1116,586.8167 L523.1835,588.6533 L522.7017,590.6151 L522.6565,592.6993 L521.8338,594.5655 L522.0223,594.6097 L521.6896,596.6104 L520.7706,598.4737 L520.5859,600.5091 L520.2413,602.507 L519.5239,604.4176 L519.3177,604.3777 L519.0977,606.3958 L518.8101,608.4008 L518.6551,610.4316 L517.9845,612.3625 L517.602,614.3492 L517.8051,614.381 L517.0465,616.3028 L516.68,618.286 L516.8863,620.359 L516.0381,622.2668 L516.0406,624.3079 L516.2651,624.3356 L515.8861,626.3058 L515.4312,628.2666 L515.1477,630.2486 L515.2605,632.2796 L514.8125,634.2413 L514.6799,634.2306 L514.7615,638.1785 L513.9412,642.0542 L514.1464,646.0119 L513.7742,649.9235 L513.2465,653.8226 L513.3553,653.8258 L513.1552,657.5935 L513.3447,661.3727 L513.1822,665.1415 L512.8725,668.9059 L512.685,672.6739 L512.8042,672.6754 L512.6719,676.2136 L513.0931,679.7588 L512.8883,683.2961 L512.941,686.8366 L512.9091,690.3761 L512.6391,690.3629 L512.8874,693.5941 L513.4611,696.8412 L513.5744,700.0658 L513.5228,703.2823 L513.7,706.51 " fill="none" style="stroke:#181818;stroke-width:1.0;"/><polygon fill="#181818" points="514.08,711.85,514.1459,711.8738,514.6195,709.9505,515.4793,708.1668,516.2133,706.3376,516.5337,704.359,517.4267,702.5872,517.4071,702.5702,516.5785,703.3492,515.8485,704.2137,515.1872,705.1377,514.2894,705.8568,513.7227,706.8628,513.8436,707.0023,512.7301,705.9632,511.9694,705.3314,511.2517,704.7492,510.2836,703.878,509.4472,703.1588,509.4672,703.1695,510.3643,704.892,511.3528,706.6633,512.2972,708.411,513.3257,710.2036,514.08,711.85" style="stroke:#181818;stroke-width:1.0;"/><text fill="#000000" font-family="FG Virgil" font-size="13" lengthAdjust="spacing" textLength="32" x="536.5" y="609.4951">postIt</text></g><!--MD5=[c1d64969c1e6637ffbfc0335cb94ce1b]
link PostItService to Board--><g id="link_PostItService_Board"><path d="M788.49,479.22 L788.5598,479.2821 L791.0059,482.0816 L793.8612,485.2451 L796.5832,488.29 L798.8671,490.9453 L801.7575,494.14 L801.7313,494.1175 L804.1621,496.9886 L806.7251,499.973 L809.38,503.0363 L811.7182,505.828 L814.5,509 L814.6904,509.1558 L816.2785,511.2614 L818.4225,513.8219 L820.6344,516.4379 L822.4515,518.731 L824.4763,521.1939 L824.5002,521.2125 L826.4314,523.7049 L828.4714,526.2822 L830.459,528.8185 L832.5467,531.433 L834.3077,533.7926 L834.5466,533.9712 L836.4819,536.5579 L838.2632,539.0293 L840.27,541.6694 L842.2874,544.3174 L843.9698,546.715 L843.7096,546.5278 L846.1083,549.524 L847.6502,551.9039 L849.8434,554.7523 L851.3659,557.1183 L853.4381,559.8797 L853.4131,559.8623 L855.5589,562.7328 L857.1204,565.1977 L859.0266,567.9019 L860.9618,570.6262 L862.6882,573.2055 L862.8418,573.3087 L864.4883,575.8857 L866.3972,578.639 L867.8815,581.1071 L869.9991,584.0006 L871.6957,586.6113 L871.8998,586.7444 L873.6093,589.4001 L875.4201,592.1219 L876.7601,594.5367 L878.4452,597.1765 L880.4361,600.0157 L880.2029,599.8678 L882.1038,602.666 L883.7419,605.2976 L885.7612,608.171 L887.1297,610.6316 L888.885,613.3375 L888.7553,613.2573 L890.5979,616.0224 L891.8861,618.4449 L893.5685,621.111 L895.6367,624.0155 L897.018,626.4955 L897.1837,626.5955 L898.856,629.2467 L900.0125,631.5868 L901.815,634.3165 L903.4767,636.9614 L904.8105,639.4084 L904.6293,639.3025 L907.667,644.34 L910.6454,649.3429 L913.7405,654.4139 L916.382,659.22 L919.2769,664.1741 L919.4561,664.2747 L921.6246,668.6156 L924.1391,673.1509 L927.159,677.97 L929.2484,682.2664 L932.0885,686.9846 L932.2873,687.0924 L934.3615,691.0694 L936.3684,695.01 L938.5272,699.0329 L941.0369,703.2461 L943.05,707.19 " fill="none" style="stroke:#181818;stroke-width:1.0;"/><polygon fill="#181818" points="945.55,711.91,945.6199,711.9149,945.275,709.9354,945.3398,707.9845,945.2713,706.0243,944.7639,704.0335,944.8639,702.0851,944.8392,702.0775,944.3964,703.1251,944.0785,704.211,943.8474,705.3235,943.3172,706.3443,943.206,707.4935,943.2601,707.6699,942.0627,706.961,941.0233,706.7673,940.0031,706.6364,938.8708,706.1398,937.7975,705.8355,937.8116,705.8534,939.3415,707.042,940.9352,708.3122,942.4982,709.543,944.1199,710.8488,945.55,711.91" style="stroke:#181818;stroke-width:1.0;"/><text fill="#000000" font-family="FG Virgil" font-size="13" lengthAdjust="spacing" textLength="32" x="912.5" y="609.4951">board</text></g><!--MD5=[8152e82bb03b730d1eb91c9116b0e2b6]
@startuml
'http://plantuml.com/skinparam.html
skinparam handwritten true
skinparam monochrome true
skinparam packageStyle rect
skinparam defaultFontName FG Virgil
skinparam shadowing false


class HttpServerAjax <<http server>>
class UpdatePostItController <<application>>
class SessionManager
class PostItService <<service>>
class PostItFactory <<factory>>
class PostItRepository <<repository>>
class BoardRepository <<repository>>
class PostIt <<domain>>
class User <<domain>>
class Board <<domain>>


HttpServerAjax - -> UpdatePostItController: theController
HttpServerAjax - -> SessionManager: sessionManager
SessionManager ..> User
UpdatePostItController - -> PostItService: postItSvc
PostItService - -> PostItFactory: postItFactory
PostItService - -> PostItRepository: postItRepository
PostItService - -> BoardRepository: boardRepository
PostItFactory - -> PostIt
PostItRepository - -> PostIt
BoardRepository - -> Board
PostItService - -> PostIt: postIt
PostItService - -> Board: board



HttpServerAjax : updatePostItPosition(PostItPositionBody, String)
SessionManager : getUserByToken(String)
UpdatePostItController : updatePostItPosition(String, String, String, String, String, User)
PostItService : changePostItPosition(String, String, String, String, String, User, PostItState)
PostItService : checkIfIsRowEntryTitle(String, Board)
PostItService : checkIfIsColumnEntryTitle(String, Board)
PostItService : postItByPosition(String, String, Board, boolean)
PostItService : checkForUserOwnership(User, Board, PostIt)
PostItService : isNumeric(String)
PostItFactory : createChange(String, String, String, User, Board, PostItState, PostIt)
BoardRepository : ofIdentity(Long)
Board : userHasPermission(User, AccessLevel)
PostItRepository : positByPosition(String, String, Board)
PostItRepository : save(PostIt)
PostIt : PostIt(PostItContent, PostItRow, PostItColumn, User, Board, PostItState, PostIt)


@enduml

@startuml
skinparam handwritten true
skinparam monochrome true
skinparam packageStyle rect
skinparam defaultFontName FG Virgil
skinparam shadowing false


class HttpServerAjax <<http server>>
class UpdatePostItController <<application>>
class SessionManager
class PostItService <<service>>
class PostItFactory <<factory>>
class PostItRepository <<repository>>
class BoardRepository <<repository>>
class PostIt <<domain>>
class User <<domain>>
class Board <<domain>>


HttpServerAjax - -> UpdatePostItController: theController
HttpServerAjax - -> SessionManager: sessionManager
SessionManager ..> User
UpdatePostItController - -> PostItService: postItSvc
PostItService - -> PostItFactory: postItFactory
PostItService - -> PostItRepository: postItRepository
PostItService - -> BoardRepository: boardRepository
PostItFactory - -> PostIt
PostItRepository - -> PostIt
BoardRepository - -> Board
PostItService - -> PostIt: postIt
PostItService - -> Board: board



HttpServerAjax : updatePostItPosition(PostItPositionBody, String)
SessionManager : getUserByToken(String)
UpdatePostItController : updatePostItPosition(String, String, String, String, String, User)
PostItService : changePostItPosition(String, String, String, String, String, User, PostItState)
PostItService : checkIfIsRowEntryTitle(String, Board)
PostItService : checkIfIsColumnEntryTitle(String, Board)
PostItService : postItByPosition(String, String, Board, boolean)
PostItService : checkForUserOwnership(User, Board, PostIt)
PostItService : isNumeric(String)
PostItFactory : createChange(String, String, String, User, Board, PostItState, PostIt)
BoardRepository : ofIdentity(Long)
Board : userHasPermission(User, AccessLevel)
PostItRepository : positByPosition(String, String, Board)
PostItRepository : save(PostIt)
PostIt : PostIt(PostItContent, PostItRow, PostItColumn, User, Board, PostItState, PostIt)


@enduml

PlantUML version 1.2022.7(Mon Aug 22 18:01:30 BST 2022)
(GPL source distribution)
Java Runtime: Java(TM) SE Runtime Environment
JVM: Java HotSpot(TM) 64-Bit Server VM
Default Encoding: Cp1252
Language: pt
Country: PT
--></g></svg>