<?xml version="1.0" encoding="UTF-8" standalone="no"?><svg xmlns="http://www.w3.org/2000/svg" xmlns:xlink="http://www.w3.org/1999/xlink" contentStyleType="text/css" height="831px" preserveAspectRatio="none" style="width:1117px;height:831px;background:#FFFFFF;" version="1.1" viewBox="0 0 1117 831" width="1117px" zoomAndPan="magnify"><defs/><g><!--MD5=[475f3b715ca7ffb20b7527e2f35f29f1]
class HttpServerAjax--><g id="elem_HttpServerAjax"><polygon fill="#F1F1F1" points="747.5,7,747.5,7.2102,757.7,6.5857,767.9,7.1933,778.1,7.3997,788.3,6.2866,798.5,6.9223,808.7,6.5735,818.9,6.6165,829.1,6.9318,839.3,6.3086,849.5,7.5536,859.7,6.3697,869.9,6.8022,880.1,7.4319,890.3,6.9142,900.5,7.0682,910.7,6.9681,920.9,7.1785,931.1,7.2391,941.3,7.5857,951.5,7,951.5856,7.2067,951.9402,7.3556,952.2396,7.3713,952.6198,7.5821,953.0038,7.802,953.2678,7.7322,953.0457,7.6402,953.6232,8.1723,953.4693,8.4015,953.8715,8.861,953.7011,9.0833,954,9.5,953.9315,9.5,954.7416,19.1847,953.9513,28.8693,954.1053,38.554,954.3386,48.2386,954.4162,57.9233,953.9961,67.608,954.2872,77.2926,953.4276,86.9773,954.2844,96.6619,954.5482,106.3466,954,116.0313,954.1369,116.088,954.0423,116.463,953.5583,116.6767,953.3598,117.0087,953.2228,117.3662,953.2678,117.799,953.2603,117.7809,952.8891,117.8849,952.6476,118.3018,952.1848,118.1846,951.8098,118.2792,951.5,118.5313,951.5,118.7595,941.3,117.8644,931.1,118.0121,920.9,119.1802,910.7,118.9669,900.5,119.2657,890.3,118.2095,880.1,118.8504,869.9,119.1217,859.7,118.0588,849.5,118.4354,839.3,118.6572,829.1,119.183,818.9,118.5271,808.7,118.9938,798.5,117.9775,788.3,117.854,778.1,119.0349,767.9,117.8143,757.7,119.0402,747.5,118.5313,747.5264,118.5949,747.1123,118.3023,746.7478,118.1294,746.4979,118.2332,746.0476,117.8533,745.7322,117.799,745.9145,117.8745,745.4156,117.375,745.6295,117.1707,745.442,116.8001,745.2219,116.4161,745,116.0313,745.0472,116.0313,745.7266,106.3466,745.6136,96.6619,745.1693,86.9773,745.2682,77.2926,744.8697,67.608,745.7165,57.9233,745.1549,48.2386,745.1726,38.554,744.3916,28.8693,744.5948,19.1847,745,9.5,745.1634,9.5677,745.2788,9.2013,745.2797,8.7874,745.3401,8.3982,745.5184,8.0579,745.7322,7.7322,745.6447,7.5209,746.1387,7.7135,746.5337,7.6671,746.86,7.455,747.2351,7.3605,747.5,7" style="stroke:#181818;stroke-width:0.5;"/><polygon fill="#C2C2C2" points="809.8108,31.0272,808.1984,33.2304,806.2912,36.4573,803.5636,38.632,800.6974,39.8212,798.412,39.9244,795.4747,38.4371,792.7032,37.4655,790.5995,35.4927,789.4961,33.2343,788.8417,31.4361,788.2006,29.0873,787.16,27.066,787.9596,25.0926,788.6602,22.9308,791.2893,21.221,793.139,19.0027,795.4284,18.266,798.1501,17.6316,801.6404,18.0085,803.5521,18.9101,805.7747,19.3188,808.4772,22.0875,809.4193,25.0105,809.8286,27.0049,809.365,30.2914" style="stroke:#181818;stroke-width:1.0;"/><path d="M801.5156,24.2266 Q801.6719,24.0078 801.8594,23.8984 Q802.0469,23.7891 802.2656,23.7891 Q802.6406,23.7891 802.875,24.0547 Q803.1094,24.3047 803.1094,24.9141 L803.1094,26.3672 Q803.1094,26.9766 802.875,27.2422 Q802.6406,27.5078 802.2656,27.5078 Q801.9219,27.5078 801.7188,27.3047 Q801.5156,27.1172 801.4063,26.6016 Q801.3594,26.2422 801.1719,26.0547 Q800.8438,25.6797 800.2344,25.4609 Q799.625,25.2422 799,25.2422 Q798.2344,25.2422 797.5938,25.5703 Q796.9688,25.8984 796.4688,26.6484 Q795.9844,27.3984 795.9844,28.4297 L795.9844,29.5234 Q795.9844,30.7578 796.875,31.5859 Q797.7656,32.3984 799.3594,32.3984 Q800.2969,32.3984 800.9531,32.1484 Q801.3438,31.9922 801.7656,31.5547 Q802.0313,31.2891 802.1719,31.2109 Q802.3281,31.1328 802.5313,31.1328 Q802.8594,31.1328 803.1094,31.3984 Q803.375,31.6484 803.375,31.9922 Q803.375,32.3359 803.0313,32.7422 Q802.5313,33.3203 801.7344,33.6484 Q800.6563,34.1016 799.3594,34.1016 Q797.8438,34.1016 796.6406,33.4766 Q795.6563,32.9766 794.9688,31.9141 Q794.2813,30.8359 794.2813,29.5547 L794.2813,28.3984 Q794.2813,27.0703 794.8906,25.9297 Q795.5156,24.7734 796.6094,24.1641 Q797.7031,23.5391 798.9375,23.5391 Q799.6719,23.5391 800.3125,23.7109 Q800.9688,23.8672 801.5156,24.2266 Z " fill="#000000"/><text fill="#000000" font-family="FG Virgil" font-size="12" font-style="italic" lengthAdjust="spacing" textLength="71" x="830.25" y="24.457">«http server»</text><text fill="#000000" font-family="FG Virgil" font-size="14" lengthAdjust="spacing" textLength="93" x="819.25" y="41.627">HttpServerAjax</text><path d="M746,49.7031 L746,49.9834 L755.8571,49.1507 L765.7143,49.9608 L775.5714,50.236 L785.4286,48.7519 L795.2857,49.5995 L805.1429,49.1345 L815,49.1918 L824.8571,49.6122 L834.7143,48.7813 L844.5714,50.4413 L854.4286,48.8628 L864.2857,49.4394 L874.1429,50.2791 L884,49.5888 L893.8571,49.7941 L903.7143,49.6605 L913.5714,49.9412 L923.4286,50.022 L933.2857,50.484 L943.1429,50.5979 L953,49.7031 " fill="#F1F1F1" style="stroke:#181818;stroke-width:0.5;"/><path d="M746,57.7031 L746,57.9834 L755.8571,57.1507 L765.7143,57.9608 L775.5714,58.236 L785.4286,56.7519 L795.2857,57.5995 L805.1429,57.1345 L815,57.1918 L824.8571,57.6122 L834.7143,56.7813 L844.5714,58.4413 L854.4286,56.8628 L864.2857,57.4394 L874.1429,58.2791 L884,57.5888 L893.8571,57.7941 L903.7143,57.6605 L913.5714,57.9412 L923.4286,58.022 L933.2857,58.484 L943.1429,58.5979 L953,57.7031 " fill="#F1F1F1" style="stroke:#181818;stroke-width:0.5;"/><text fill="#000000" font-family="FG Virgil" font-size="14" lengthAdjust="spacing" textLength="196" x="751" y="76.2363">deletePostIt(PostItBody, String)</text><text fill="#000000" font-family="FG Virgil" font-size="14" lengthAdjust="spacing" textLength="188" x="751" y="93.8457">generateLockKey(PostItBody)</text><text fill="#000000" font-family="FG Virgil" font-size="14" lengthAdjust="spacing" textLength="197" x="751" y="111.4551">getOrCreateLockObject(String)</text></g><!--MD5=[1b4fe0dc8c47aa7bf1500c81a3f32c58]
class DeletePostItController--><g id="elem_DeletePostItController"><polygon fill="#F1F1F1" points="599,197,599,197.2102,608.8077,196.5857,618.6154,197.1933,628.4231,197.3997,638.2308,196.2866,648.0385,196.9223,657.8462,196.5735,667.6538,196.6165,677.4615,196.9318,687.2692,196.3086,697.0769,197.5536,706.8846,196.3697,716.6923,196.8022,726.5,197.4319,736.3077,196.9142,746.1154,197.0682,755.9231,196.9681,765.7308,197.1785,775.5385,197.2391,785.3462,197.5857,795.1538,197.6711,804.9615,197.6793,814.7692,197.2546,824.5769,197.4636,834.3846,197.7022,844.1923,196.2788,854,197,854.0866,197.209,854.3157,197.0551,854.7752,197.4573,854.9975,197.2869,855.4055,197.5647,855.7678,197.7322,855.9962,197.8268,855.8992,198.0796,856.0931,198.4528,856.3114,198.8361,856.4817,199.1995,856.5,199.5,856.4961,199.5,856.7872,209.6875,855.9276,219.875,856.7844,230.0625,857.0482,240.25,856.9445,250.4375,857.113,260.625,856.5,270.8125,856.3512,270.7509,856.1527,271.0829,856.0157,271.4403,856.0425,271.8656,855.8537,272.2016,855.7678,272.5803,855.8547,272.7901,855.3919,272.6729,855.0169,272.7675,854.7362,273.0899,854.2685,272.9607,854,273.3125,854,272.7934,844.1923,273.9615,834.3846,273.7482,824.5769,274.047,814.7692,272.9907,804.9615,273.6317,795.1538,273.9029,785.3462,272.8401,775.5385,273.2166,765.7308,273.4385,755.9231,273.9643,746.1154,273.3083,736.3077,273.7751,726.5,272.7587,716.6923,272.6352,706.8846,273.8161,697.0769,272.5956,687.2692,273.8215,677.4615,273.5191,667.6538,273.0446,657.8462,272.9587,648.0385,273.7713,638.2308,273.0132,628.4231,273.9044,618.6154,272.7598,608.8077,273.9299,599,273.3125,599.0618,273.4616,598.6777,273.2415,598.2989,273.0341,598.032,273.0969,597.6641,272.9157,597.2322,272.5803,597.2844,272.6019,597.1684,272.2609,596.8992,271.8565,597.0135,271.611,596.6941,271.1858,596.5,270.8125,596.6726,270.8125,595.8916,260.625,596.0948,250.4375,597.0307,240.25,596.9298,230.0625,596.4571,219.875,596.1778,209.6875,596.5,199.5,596.4326,199.4721,596.4351,199.0589,596.9206,198.8458,597.1671,198.5337,597.2479,198.1529,597.2322,197.7322,597.3209,197.9462,597.5683,197.5437,597.9505,197.4662,598.2435,197.1735,598.6827,197.2339,599,197" style="stroke:#181818;stroke-width:0.5;"/><polygon fill="#C2C2C2" points="664.3108,221.0272,662.6984,223.2304,660.7912,226.4573,658.0636,228.632,655.1974,229.8212,652.912,229.9244,649.9747,228.4371,647.2032,227.4655,645.0995,225.4927,643.9961,223.2343,643.3417,221.4361,642.7006,219.0873,641.66,217.066,642.4596,215.0926,643.1602,212.9308,645.7893,211.221,647.639,209.0027,649.9284,208.266,652.6501,207.6316,656.1404,208.0085,658.0521,208.9101,660.2747,209.3188,662.9772,212.0875,663.9193,215.0105,664.3286,217.0049,663.865,220.2914" style="stroke:#181818;stroke-width:1.0;"/><path d="M656.0156,214.2266 Q656.1719,214.0078 656.3594,213.8984 Q656.5469,213.7891 656.7656,213.7891 Q657.1406,213.7891 657.375,214.0547 Q657.6094,214.3047 657.6094,214.9141 L657.6094,216.3672 Q657.6094,216.9766 657.375,217.2422 Q657.1406,217.5078 656.7656,217.5078 Q656.4219,217.5078 656.2188,217.3047 Q656.0156,217.1172 655.9063,216.6016 Q655.8594,216.2422 655.6719,216.0547 Q655.3438,215.6797 654.7344,215.4609 Q654.125,215.2422 653.5,215.2422 Q652.7344,215.2422 652.0938,215.5703 Q651.4688,215.8984 650.9688,216.6484 Q650.4844,217.3984 650.4844,218.4297 L650.4844,219.5234 Q650.4844,220.7578 651.375,221.5859 Q652.2656,222.3984 653.8594,222.3984 Q654.7969,222.3984 655.4531,222.1484 Q655.8438,221.9922 656.2656,221.5547 Q656.5313,221.2891 656.6719,221.2109 Q656.8281,221.1328 657.0313,221.1328 Q657.3594,221.1328 657.6094,221.3984 Q657.875,221.6484 657.875,221.9922 Q657.875,222.3359 657.5313,222.7422 Q657.0313,223.3203 656.2344,223.6484 Q655.1563,224.1016 653.8594,224.1016 Q652.3438,224.1016 651.1406,223.4766 Q650.1563,222.9766 649.4688,221.9141 Q648.7813,220.8359 648.7813,219.5547 L648.7813,218.3984 Q648.7813,217.0703 649.3906,215.9297 Q650.0156,214.7734 651.1094,214.1641 Q652.2031,213.5391 653.4375,213.5391 Q654.1719,213.5391 654.8125,213.7109 Q655.4688,213.8672 656.0156,214.2266 Z " fill="#000000"/><text fill="#000000" font-family="FG Virgil" font-size="12" font-style="italic" lengthAdjust="spacing" textLength="74" x="705.75" y="214.457">«application»</text><text fill="#000000" font-family="FG Virgil" font-size="14" lengthAdjust="spacing" textLength="138" x="673.75" y="231.627">DeletePostItController</text><path d="M597.5,239.7031 L597.5,239.9834 L607.4231,239.1507 L617.3462,239.9608 L627.2692,240.236 L637.1923,238.7519 L647.1154,239.5995 L657.0385,239.1345 L666.9615,239.1918 L676.8846,239.6122 L686.8077,238.7813 L696.7308,240.4413 L706.6538,238.8628 L716.5769,239.4394 L726.5,240.2791 L736.4231,239.5888 L746.3462,239.7941 L756.2692,239.6605 L766.1923,239.9412 L776.1154,240.022 L786.0385,240.484 L795.9615,240.5979 L805.8846,240.6088 L815.8077,240.0426 L825.7308,240.3212 L835.6538,240.6394 L845.5769,238.7415 L855.5,239.7031 " fill="#F1F1F1" style="stroke:#181818;stroke-width:0.5;"/><path d="M597.5,247.7031 L597.5,247.9834 L607.4231,247.1507 L617.3462,247.9608 L627.2692,248.236 L637.1923,246.7519 L647.1154,247.5995 L657.0385,247.1345 L666.9615,247.1918 L676.8846,247.6122 L686.8077,246.7813 L696.7308,248.4413 L706.6538,246.8628 L716.5769,247.4394 L726.5,248.2791 L736.4231,247.5888 L746.3462,247.7941 L756.2692,247.6605 L766.1923,247.9412 L776.1154,248.022 L786.0385,248.484 L795.9615,248.5979 L805.8846,248.6088 L815.8077,248.0426 L825.7308,248.3212 L835.6538,248.6394 L845.5769,246.7415 L855.5,247.7031 " fill="#F1F1F1" style="stroke:#181818;stroke-width:0.5;"/><text fill="#000000" font-family="FG Virgil" font-size="14" lengthAdjust="spacing" textLength="248" x="602.5" y="266.2363">deletePostIt(String, String, String, User)</text></g><!--MD5=[f097a9da547c6f19ba7a5c97c093eb18]
class SessionManager--><g id="elem_SessionManager"><polygon fill="#F1F1F1" points="900,202,900,202.2102,909.9375,201.5857,919.875,202.1933,929.8125,202.3997,939.75,201.2866,949.6875,201.9223,959.625,201.5735,969.5625,201.6165,979.5,201.9318,989.4375,201.3086,999.375,202.5536,1009.3125,201.3697,1019.25,201.8022,1029.1875,202.4319,1039.125,201.9142,1049.0625,202.0682,1059,202,1058.9959,201.9902,1059.3763,202.2014,1059.7376,202.3665,1060.1354,202.6197,1060.4998,202.7924,1060.7678,202.7322,1060.977,202.8189,1060.9926,203.1183,1061.2034,203.4985,1061.4234,203.8825,1061.1315,204.0545,1061.5,204.5,1062.1785,204.5,1061.2035,214.6016,1062.0338,224.7031,1061.005,234.8047,1061.4315,244.9063,1062.2416,255.0078,1061.5,265.1094,1061.485,265.1032,1061.386,265.4764,1061.3114,265.8597,1061.1888,266.2231,1060.913,266.5231,1060.7678,266.8771,1060.8044,266.9656,1060.3412,266.8473,1060.0969,267.2576,1059.777,267.4853,1059.4103,267.5998,1059,267.6094,1059,268.2224,1049.0625,267.1263,1039.125,266.9572,1029.1875,266.988,1019.25,267.5505,1009.3125,267.4128,999.375,268.2908,989.4375,267.4347,979.5,267.2663,969.5625,267.8376,959.625,266.9425,949.6875,267.0902,939.75,268.2583,929.8125,268.045,919.875,268.3439,909.9375,267.2876,900,267.6094,900.0407,267.7077,899.7218,267.6448,899.2326,267.171,898.9271,267.1405,898.6019,267.0624,898.2322,266.8771,898.4329,266.9603,898.0845,266.5231,898.0818,266.229,897.6223,265.7458,897.4379,265.3765,897.5,265.1094,898.0036,265.1094,896.7831,255.0078,898.009,244.9063,897.7066,234.8047,897.2321,224.7031,897.1462,214.6016,897.5,204.5,897.6413,204.5585,897.5543,204.1083,897.9752,203.8684,897.7691,203.3688,898.2759,203.1645,898.2322,202.7322,898.294,202.8814,898.617,202.6612,898.9454,202.4539,899.3856,202.5167,899.7247,202.3354,900,202" style="stroke:#181818;stroke-width:0.5;"/><polygon fill="#C2C2C2" points="935.2608,220.6756,933.6484,222.8788,931.7412,226.1057,929.0136,228.2804,926.1474,229.4696,923.862,229.5728,920.9247,228.0855,918.1532,227.1139,916.0495,225.1412,914.9461,222.8828,914.2917,221.0845,913.6506,218.7357,912.61,216.7145,913.4096,214.741,914.1102,212.5792,916.7393,210.8695,918.589,208.6511,920.8784,207.9144,923.6001,207.2801,927.0904,207.657,929.0021,208.5585,931.2247,208.9672,933.9272,211.736,934.8693,214.659,935.2786,216.6534,934.815,219.9399" style="stroke:#181818;stroke-width:1.0;"/><path d="M926.9656,213.875 Q927.1219,213.6563 927.3094,213.5469 Q927.4969,213.4375 927.7156,213.4375 Q928.0906,213.4375 928.325,213.7031 Q928.5594,213.9531 928.5594,214.5625 L928.5594,216.0156 Q928.5594,216.625 928.325,216.8906 Q928.0906,217.1563 927.7156,217.1563 Q927.3719,217.1563 927.1688,216.9531 Q926.9656,216.7656 926.8563,216.25 Q926.8094,215.8906 926.6219,215.7031 Q926.2938,215.3281 925.6844,215.1094 Q925.075,214.8906 924.45,214.8906 Q923.6844,214.8906 923.0438,215.2188 Q922.4188,215.5469 921.9188,216.2969 Q921.4344,217.0469 921.4344,218.0781 L921.4344,219.1719 Q921.4344,220.4063 922.325,221.2344 Q923.2156,222.0469 924.8094,222.0469 Q925.7469,222.0469 926.4031,221.7969 Q926.7938,221.6406 927.2156,221.2031 Q927.4813,220.9375 927.6219,220.8594 Q927.7781,220.7813 927.9813,220.7813 Q928.3094,220.7813 928.5594,221.0469 Q928.825,221.2969 928.825,221.6406 Q928.825,221.9844 928.4813,222.3906 Q927.9813,222.9688 927.1844,223.2969 Q926.1063,223.75 924.8094,223.75 Q923.2938,223.75 922.0906,223.125 Q921.1063,222.625 920.4188,221.5625 Q919.7313,220.4844 919.7313,219.2031 L919.7313,218.0469 Q919.7313,216.7188 920.3406,215.5781 Q920.9656,214.4219 922.0594,213.8125 Q923.1531,213.1875 924.3875,213.1875 Q925.1219,213.1875 925.7625,213.3594 Q926.4188,213.5156 926.9656,213.875 Z " fill="#000000"/><text fill="#000000" font-family="FG Virgil" font-size="14" lengthAdjust="spacing" textLength="106" x="940.8" y="223.7285">SessionManager</text><path d="M898.5,234 L898.5,234.2802 L908.625,233.4476 L918.75,234.2577 L928.875,234.5329 L939,233.0488 L949.125,233.8964 L959.25,233.4313 L969.375,233.4887 L979.5,233.9091 L989.625,233.0782 L999.75,234.7382 L1009.875,233.1596 L1020,233.7363 L1030.125,234.5759 L1040.25,233.8856 L1050.375,234.091 L1060.5,234 " fill="#F1F1F1" style="stroke:#181818;stroke-width:0.5;"/><path d="M898.5,242 L898.5,242.2802 L908.625,241.4476 L918.75,242.2577 L928.875,242.5329 L939,241.0488 L949.125,241.8964 L959.25,241.4313 L969.375,241.4887 L979.5,241.9091 L989.625,241.0782 L999.75,242.7382 L1009.875,241.1596 L1020,241.7363 L1030.125,242.5759 L1040.25,241.8856 L1050.375,242.091 L1060.5,242 " fill="#F1F1F1" style="stroke:#181818;stroke-width:0.5;"/><text fill="#000000" font-family="FG Virgil" font-size="14" lengthAdjust="spacing" textLength="152" x="903.5" y="260.5332">getUserByToken(String)</text></g><!--MD5=[eb95342d67c177a44e4018fdebeb06c1]
class PostItService--><g id="elem_PostItService"><polygon fill="#F1F1F1" points="518.5,351,518.5,351.2102,528.6053,350.5857,538.7105,351.1933,548.8158,351.3997,558.9211,350.2866,569.0263,350.9223,579.1316,350.5735,589.2368,350.6165,599.3421,350.9318,609.4474,350.3086,619.5526,351.5536,629.6579,350.3697,639.7632,350.8022,649.8684,351.4319,659.9737,350.9142,670.0789,351.0682,680.1842,350.9681,690.2895,351.1785,700.3947,351.2391,710.5,351.5857,720.6053,351.6711,730.7105,351.6793,740.8158,351.2546,750.9211,351.4636,761.0263,351.7022,771.1316,350.2788,781.2368,351.6785,791.3421,350.7035,801.4474,351.5338,811.5526,350.505,821.6579,350.9315,831.7632,351.7416,841.8684,350.9513,851.9737,351.1053,862.0789,351.3386,872.1842,351.4162,882.2895,350.9961,892.3947,351.2872,902.5,351,902.427,350.8237,902.8898,351.234,903.277,351.4617,903.6174,351.5762,903.9924,351.7746,904.2678,351.7322,904.119,351.6706,904.2134,352.0026,904.3693,352.3601,904.689,352.7854,904.793,353.1214,905,353.5,905.6814,353.5,904.8253,363.46,904.6569,373.4199,905.2283,383.3799,904.3332,393.3398,904.4809,403.2998,905.649,413.2598,905.4357,423.2197,905.7345,433.1797,904.6782,443.1396,905.3192,453.0996,905.5904,463.0596,904.5276,473.0195,904.9041,482.9795,905.126,492.9395,905.6518,502.8994,905,512.8594,904.9987,512.8588,904.996,513.2719,904.5366,513.4958,904.3521,513.8336,904.5693,514.3378,904.2678,514.6271,904.1763,514.4064,903.9791,514.9303,903.587,514.9837,903.1729,514.984,902.8084,515.104,902.5,515.3594,902.5,515.8181,892.3947,515.06,882.2895,515.9512,872.1842,514.8066,862.0789,515.9768,851.9737,515.8437,841.8684,515.6043,831.7632,515.4066,821.6579,516.086,811.5526,515.973,801.4474,515.5286,791.3421,515.6276,781.2368,515.2291,771.1316,516.0758,761.0263,515.5142,750.9211,515.5319,740.8158,514.751,730.7105,514.9542,720.6053,515.8901,710.5,515.7891,700.3947,515.3164,690.2895,515.0372,680.1842,515.1404,670.0789,514.6732,659.9737,515.7741,649.8684,516.0989,639.7632,515.8858,629.6579,516.0543,619.5526,515.2226,609.4474,515.4466,599.3421,514.9718,589.2368,515.6434,579.1316,515.6061,569.0263,515.9118,558.9211,515.1297,548.8158,515.225,538.7105,515.8028,528.6053,515.9267,518.5,515.3594,518.4346,515.2015,518.1217,515.1532,517.8119,515.1124,517.3614,514.7319,517.1309,514.8824,516.7322,514.6271,516.8117,514.6601,516.5548,514.2607,516.4831,513.9382,516.5173,513.6594,516.0501,513.173,516,512.8594,516.315,512.8594,516.2856,502.8994,516.1158,492.9395,516.1409,482.9795,516.1135,473.0195,515.3758,463.0596,515.5992,453.0996,515.5385,443.1396,516.0638,433.1797,516.0881,423.2197,516.1617,413.2598,515.709,403.2998,515.9325,393.3398,515.8798,383.3799,516.5769,373.4199,516.4266,363.46,516,353.5,515.8505,353.4381,516.124,353.1371,516.1151,352.7193,516.5282,352.4761,516.7732,352.1634,516.7322,351.7322,516.8017,351.8999,517.0302,351.4517,517.4985,351.5822,517.6981,351.0641,518.172,351.2081,518.5,351" style="stroke:#181818;stroke-width:0.5;"/><polygon fill="#C2C2C2" points="676.3108,375.0272,674.6984,377.2304,672.7912,380.4573,670.0636,382.632,667.1974,383.8212,664.912,383.9244,661.9747,382.4371,659.2032,381.4655,657.0995,379.4927,655.9961,377.2343,655.3417,375.4361,654.7006,373.0873,653.66,371.066,654.4596,369.0926,655.1602,366.9308,657.7893,365.221,659.639,363.0027,661.9284,362.266,664.6501,361.6316,668.1404,362.0085,670.0521,362.9101,672.2747,363.3188,674.9772,366.0875,675.9193,369.0105,676.3286,371.0049,675.865,374.2914" style="stroke:#181818;stroke-width:1.0;"/><path d="M668.0156,368.2266 Q668.1719,368.0078 668.3594,367.8984 Q668.5469,367.7891 668.7656,367.7891 Q669.1406,367.7891 669.375,368.0547 Q669.6094,368.3047 669.6094,368.9141 L669.6094,370.3672 Q669.6094,370.9766 669.375,371.2422 Q669.1406,371.5078 668.7656,371.5078 Q668.4219,371.5078 668.2188,371.3047 Q668.0156,371.1172 667.9063,370.6016 Q667.8594,370.2422 667.6719,370.0547 Q667.3438,369.6797 666.7344,369.4609 Q666.125,369.2422 665.5,369.2422 Q664.7344,369.2422 664.0938,369.5703 Q663.4688,369.8984 662.9688,370.6484 Q662.4844,371.3984 662.4844,372.4297 L662.4844,373.5234 Q662.4844,374.7578 663.375,375.5859 Q664.2656,376.3984 665.8594,376.3984 Q666.7969,376.3984 667.4531,376.1484 Q667.8438,375.9922 668.2656,375.5547 Q668.5313,375.2891 668.6719,375.2109 Q668.8281,375.1328 669.0313,375.1328 Q669.3594,375.1328 669.6094,375.3984 Q669.875,375.6484 669.875,375.9922 Q669.875,376.3359 669.5313,376.7422 Q669.0313,377.3203 668.2344,377.6484 Q667.1563,378.1016 665.8594,378.1016 Q664.3438,378.1016 663.1406,377.4766 Q662.1563,376.9766 661.4688,375.9141 Q660.7813,374.8359 660.7813,373.5547 L660.7813,372.3984 Q660.7813,371.0703 661.3906,369.9297 Q662.0156,368.7734 663.1094,368.1641 Q664.2031,367.5391 665.4375,367.5391 Q666.1719,367.5391 666.8125,367.7109 Q667.4688,367.8672 668.0156,368.2266 Z " fill="#000000"/><text fill="#000000" font-family="FG Virgil" font-size="12" font-style="italic" lengthAdjust="spacing" textLength="53" x="700.25" y="368.457">«service»</text><text fill="#000000" font-family="FG Virgil" font-size="14" lengthAdjust="spacing" textLength="82" x="685.75" y="385.627">PostItService</text><path d="M517,393.7031 L517,393.9834 L526.9231,393.1507 L536.8462,393.9608 L546.7692,394.236 L556.6923,392.7519 L566.6154,393.5995 L576.5385,393.1345 L586.4615,393.1918 L596.3846,393.6122 L606.3077,392.7813 L616.2308,394.4413 L626.1538,392.8628 L636.0769,393.4394 L646,394.2791 L655.9231,393.5888 L665.8462,393.7941 L675.7692,393.6605 L685.6923,393.9412 L695.6154,394.022 L705.5385,394.484 L715.4615,394.5979 L725.3846,394.6088 L735.3077,394.0426 L745.2308,394.3212 L755.1538,394.6394 L765.0769,392.7415 L775,394.6078 L784.9231,393.3078 L794.8462,394.4149 L804.7692,393.0431 L814.6923,393.6118 L824.6154,394.6919 L834.5385,393.6381 L844.4615,393.8435 L854.3846,394.1546 L864.3077,394.2581 L874.2308,393.6979 L884.1538,394.0861 L894.0769,392.9399 L904,393.7031 " fill="#F1F1F1" style="stroke:#181818;stroke-width:0.5;"/><path d="M517,401.7031 L517,401.9834 L526.9231,401.1507 L536.8462,401.9608 L546.7692,402.236 L556.6923,400.7519 L566.6154,401.5995 L576.5385,401.1345 L586.4615,401.1918 L596.3846,401.6122 L606.3077,400.7813 L616.2308,402.4413 L626.1538,400.8628 L636.0769,401.4394 L646,402.2791 L655.9231,401.5888 L665.8462,401.7941 L675.7692,401.6605 L685.6923,401.9412 L695.6154,402.022 L705.5385,402.484 L715.4615,402.5979 L725.3846,402.6088 L735.3077,402.0426 L745.2308,402.3212 L755.1538,402.6394 L765.0769,400.7415 L775,402.6078 L784.9231,401.3078 L794.8462,402.4149 L804.7692,401.0431 L814.6923,401.6118 L824.6154,402.6919 L834.5385,401.6381 L844.4615,401.8435 L854.3846,402.1546 L864.3077,402.2581 L874.2308,401.6979 L884.1538,402.0861 L894.0769,400.9399 L904,401.7031 " fill="#F1F1F1" style="stroke:#181818;stroke-width:0.5;"/><text fill="#000000" font-family="FG Virgil" font-size="14" lengthAdjust="spacing" textLength="377" x="522" y="420.2363">changePostIt(String, String, String, String, User, PostItState)</text><text fill="#000000" font-family="FG Virgil" font-size="14" lengthAdjust="spacing" textLength="234" x="522" y="437.8457">checkIfIsRowEntryTitle(String, Board)</text><text fill="#000000" font-family="FG Virgil" font-size="14" lengthAdjust="spacing" textLength="255" x="522" y="455.4551">checkIfIsColumnEntryTitle(String, Board)</text><text fill="#000000" font-family="FG Virgil" font-size="14" lengthAdjust="spacing" textLength="297" x="522" y="473.0645">postItByPosition(String, String, Board, boolean)</text><text fill="#000000" font-family="FG Virgil" font-size="14" lengthAdjust="spacing" textLength="283" x="522" y="490.6738">checkForUserOwnership(User, Board, PostIt)</text><text fill="#000000" font-family="FG Virgil" font-size="14" lengthAdjust="spacing" textLength="108" x="522" y="508.2832">isNumeric(String)</text></g><!--MD5=[0182a422c6ed2cd05fe32b6e46ab69a0]
class PostItFactory--><g id="elem_PostItFactory"><polygon fill="#F1F1F1" points="9.5,602,9.5,602.2102,19.4091,601.5857,29.3182,602.1933,39.2273,602.3997,49.1364,601.2866,59.0455,601.9223,68.9545,601.5735,78.8636,601.6165,88.7727,601.9318,98.6818,601.3086,108.5909,602.5536,118.5,601.3697,128.4091,601.8022,138.3182,602.4319,148.2273,601.9142,158.1364,602.0682,168.0455,601.9681,177.9545,602.1785,187.8636,602.2391,197.7727,602.5857,207.6818,602.6711,217.5909,602.6793,227.5,602.2546,237.4091,602.4636,247.3182,602.7022,257.2273,601.2788,267.1364,602.6785,277.0455,601.7035,286.9545,602.5338,296.8636,601.505,306.7727,601.9315,316.6818,602.7416,326.5909,601.9513,336.5,602.1053,346.4091,602.3386,356.3182,602.4162,366.2273,601.9961,376.1364,602.2872,386.0455,601.4276,395.9545,602.2844,405.8636,602.5482,415.7727,602.4445,425.6818,602.613,435.5909,601.5169,445.5,602,445.4168,601.7992,445.7743,601.9551,446.1996,602.2748,446.5356,602.3788,447.0011,602.7956,447.2678,602.7322,447.214,602.71,447.3086,603.042,447.631,603.4685,447.5017,603.7078,447.6937,604.0802,448,604.5,448.649,604.5,448.4357,614.6875,448.7345,624.875,447.6782,635.0625,448.3192,645.25,448.5904,655.4375,447.5276,665.625,448,675.8125,447.9705,675.8003,447.8924,676.1821,447.9078,676.6027,447.5594,676.8726,447.5567,677.2857,447.2678,677.5803,447.1971,677.4097,446.8278,677.5181,446.6249,678.0283,446.1157,677.7988,445.9185,678.3228,445.5,678.3125,445.5,678.5191,435.5909,678.0446,425.6818,677.9587,415.7727,678.7713,405.8636,678.0132,395.9545,678.9044,386.0455,677.7598,376.1364,678.9299,366.2273,678.7968,356.3182,678.5575,346.4091,678.3597,336.5,679.0391,326.5909,678.9261,316.6818,678.4818,306.7727,678.5807,296.8636,678.1822,286.9545,679.029,277.0455,678.4674,267.1364,678.4851,257.2273,677.7041,247.3182,677.9073,237.4091,678.8432,227.5,678.7423,217.5909,678.2696,207.6818,677.9903,197.7727,678.0936,187.8636,677.6263,177.9545,678.7272,168.0455,679.0521,158.1364,678.8389,148.2273,679.0074,138.3182,678.1758,128.4091,678.3997,118.5,677.9249,108.5909,678.5965,98.6818,678.5593,88.7727,678.8649,78.8636,678.0828,68.9545,678.1781,59.0455,678.756,49.1364,678.8798,39.2273,677.8,29.3182,678.1186,19.4091,678.4618,9.5,678.3125,9.4221,678.1244,9.1915,678.2749,8.8258,678.0991,8.4265,677.8421,8.1039,677.7705,7.7322,677.5803,7.9566,677.6732,7.4894,677.1868,7.5363,676.9133,7.3809,676.556,7.1821,676.1808,7,675.8125,7.1409,675.8125,7.1135,665.625,6.3758,655.4375,6.5992,645.25,6.5385,635.0625,7.0638,624.875,7.0881,614.6875,7,604.5,7.0498,604.5206,7.0568,604.1093,7.2721,603.7843,7.4023,603.424,7.7634,603.1594,7.7322,602.7322,7.7866,602.8636,8.0239,602.4363,8.43,602.4169,8.7193,602.1151,9.1832,602.2353,9.5,602" style="stroke:#181818;stroke-width:0.5;"/><polygon fill="#C2C2C2" points="192.8108,626.0272,191.1984,628.2304,189.2912,631.4573,186.5636,633.632,183.6974,634.8212,181.412,634.9244,178.4747,633.4371,175.7032,632.4655,173.5995,630.4927,172.4961,628.2343,171.8417,626.4361,171.2006,624.0873,170.16,622.066,170.9596,620.0926,171.6602,617.9308,174.2893,616.221,176.139,614.0027,178.4284,613.266,181.1501,612.6316,184.6404,613.0085,186.5521,613.9101,188.7747,614.3188,191.4772,617.0875,192.4193,620.0105,192.8286,622.0049,192.365,625.2914" style="stroke:#181818;stroke-width:1.0;"/><path d="M184.5156,619.2266 Q184.6719,619.0078 184.8594,618.8984 Q185.0469,618.7891 185.2656,618.7891 Q185.6406,618.7891 185.875,619.0547 Q186.1094,619.3047 186.1094,619.9141 L186.1094,621.3672 Q186.1094,621.9766 185.875,622.2422 Q185.6406,622.5078 185.2656,622.5078 Q184.9219,622.5078 184.7188,622.3047 Q184.5156,622.1172 184.4063,621.6016 Q184.3594,621.2422 184.1719,621.0547 Q183.8438,620.6797 183.2344,620.4609 Q182.625,620.2422 182,620.2422 Q181.2344,620.2422 180.5938,620.5703 Q179.9688,620.8984 179.4688,621.6484 Q178.9844,622.3984 178.9844,623.4297 L178.9844,624.5234 Q178.9844,625.7578 179.875,626.5859 Q180.7656,627.3984 182.3594,627.3984 Q183.2969,627.3984 183.9531,627.1484 Q184.3438,626.9922 184.7656,626.5547 Q185.0313,626.2891 185.1719,626.2109 Q185.3281,626.1328 185.5313,626.1328 Q185.8594,626.1328 186.1094,626.3984 Q186.375,626.6484 186.375,626.9922 Q186.375,627.3359 186.0313,627.7422 Q185.5313,628.3203 184.7344,628.6484 Q183.6563,629.1016 182.3594,629.1016 Q180.8438,629.1016 179.6406,628.4766 Q178.6563,627.9766 177.9688,626.9141 Q177.2813,625.8359 177.2813,624.5547 L177.2813,623.3984 Q177.2813,622.0703 177.8906,620.9297 Q178.5156,619.7734 179.6094,619.1641 Q180.7031,618.5391 181.9375,618.5391 Q182.6719,618.5391 183.3125,618.7109 Q183.9688,618.8672 184.5156,619.2266 Z " fill="#000000"/><text fill="#000000" font-family="FG Virgil" font-size="12" font-style="italic" lengthAdjust="spacing" textLength="50" x="218.75" y="619.457">«factory»</text><text fill="#000000" font-family="FG Virgil" font-size="14" lengthAdjust="spacing" textLength="83" x="202.25" y="636.627">PostItFactory</text><path d="M8,644.7031 L8,644.9834 L17.9773,644.1507 L27.9545,644.9608 L37.9318,645.236 L47.9091,643.7519 L57.8864,644.5995 L67.8636,644.1345 L77.8409,644.1918 L87.8182,644.6122 L97.7955,643.7813 L107.7727,645.4413 L117.75,643.8628 L127.7273,644.4394 L137.7045,645.2791 L147.6818,644.5888 L157.6591,644.7941 L167.6364,644.6605 L177.6136,644.9412 L187.5909,645.022 L197.5682,645.484 L207.5455,645.5979 L217.5227,645.6088 L227.5,645.0426 L237.4773,645.3212 L247.4545,645.6394 L257.4318,643.7415 L267.4091,645.6078 L277.3864,644.3078 L287.3636,645.4149 L297.3409,644.0431 L307.3182,644.6118 L317.2955,645.6919 L327.2727,644.6381 L337.25,644.8435 L347.2273,645.1546 L357.2045,645.2581 L367.1818,644.6979 L377.1591,645.0861 L387.1364,643.9399 L397.1136,645.0823 L407.0909,645.4341 L417.0682,645.2958 L427.0455,645.5205 L437.0227,644.059 L447,644.7031 " fill="#F1F1F1" style="stroke:#181818;stroke-width:0.5;"/><path d="M8,652.7031 L8,652.9834 L17.9773,652.1507 L27.9545,652.9608 L37.9318,653.236 L47.9091,651.7519 L57.8864,652.5995 L67.8636,652.1345 L77.8409,652.1918 L87.8182,652.6122 L97.7955,651.7813 L107.7727,653.4413 L117.75,651.8628 L127.7273,652.4394 L137.7045,653.2791 L147.6818,652.5888 L157.6591,652.7941 L167.6364,652.6605 L177.6136,652.9412 L187.5909,653.022 L197.5682,653.484 L207.5455,653.5979 L217.5227,653.6088 L227.5,653.0426 L237.4773,653.3212 L247.4545,653.6394 L257.4318,651.7415 L267.4091,653.6078 L277.3864,652.3078 L287.3636,653.4149 L297.3409,652.0431 L307.3182,652.6118 L317.2955,653.6919 L327.2727,652.6381 L337.25,652.8435 L347.2273,653.1546 L357.2045,653.2581 L367.1818,652.6979 L377.1591,653.0861 L387.1364,651.9399 L397.1136,653.0823 L407.0909,653.4341 L417.0682,653.2958 L427.0455,653.5205 L437.0227,652.059 L447,652.7031 " fill="#F1F1F1" style="stroke:#181818;stroke-width:0.5;"/><text fill="#000000" font-family="FG Virgil" font-size="14" lengthAdjust="spacing" textLength="429" x="13" y="671.2363">createChange(String, String, String, User, Board, PostItState, PostIt)</text></g><!--MD5=[d98fa60e7e29446a1b02022748feb6fd]
class PostItRepository--><g id="elem_PostItRepository"><polygon fill="#F1F1F1" points="590,593,590,593.2102,600.0417,592.5857,610.0833,593.1933,620.125,593.3997,630.1667,592.2866,640.2083,592.9223,650.25,592.5735,660.2917,592.6165,670.3333,592.9318,680.375,592.3086,690.4167,593.5536,700.4583,592.3697,710.5,592.8022,720.5417,593.4319,730.5833,592.9142,740.625,593.0682,750.6667,592.9681,760.7083,593.1785,770.75,593.2391,780.7917,593.5857,790.8333,593.6711,800.875,593.6793,810.9167,593.2546,820.9583,593.4636,831,593,831.0896,593.2163,831.2616,592.9244,831.7937,593.5018,832.0228,593.348,832.4823,593.7502,832.7678,593.7322,832.6153,593.6691,832.8931,594.077,833.289,594.5339,833.1921,594.7867,833.386,595.1599,833.5,595.5,833.8386,595.5,833.9162,605.3802,833.4961,615.2604,833.7872,625.1406,832.9276,635.0208,833.7844,644.901,834.0482,654.7813,833.9445,664.6615,834.113,674.5417,833.5,684.4219,833.3512,684.3603,833.1527,684.6922,833.0157,685.0497,833.0425,685.475,832.8537,685.811,832.7678,686.1896,832.8547,686.3995,832.3919,686.2823,832.0169,686.3769,831.7362,686.6993,831.2685,686.5701,831,686.9219,831,686.4027,820.9583,687.5708,810.9167,687.3575,800.875,687.6564,790.8333,686.6001,780.7917,687.2411,770.75,687.5123,760.7083,686.4495,750.6667,686.826,740.625,687.0479,730.5833,687.5736,720.5417,686.9177,710.5,687.3844,700.4583,686.3681,690.4167,686.2446,680.375,687.4255,670.3333,686.2049,660.2917,687.4308,650.25,687.1285,640.2083,686.654,630.1667,686.5681,620.125,687.3806,610.0833,686.6225,600.0417,687.5137,590,686.9219,589.9295,686.7517,589.7252,686.9656,589.3547,686.7781,588.9706,686.558,588.5918,686.3506,588.2322,686.1896,588.456,686.2823,588.2747,685.9144,587.9915,685.5041,587.8755,685.1632,587.6063,684.7588,587.5,684.4219,588.2165,684.4219,587.6549,674.5417,587.6726,664.6615,586.8916,654.7813,587.0948,644.901,588.0307,635.0208,587.9298,625.1406,587.4571,615.2604,587.1778,605.3802,587.5,595.5,587.4326,595.4721,587.4351,595.0589,587.9206,594.8458,588.1671,594.5337,588.2479,594.1529,588.2322,593.7322,588.3209,593.9462,588.5683,593.5437,588.9505,593.4662,589.2435,593.1735,589.6827,593.2339,590,593" style="stroke:#181818;stroke-width:0.5;"/><polygon fill="#C2C2C2" points="665.8108,617.0272,664.1984,619.2304,662.2912,622.4573,659.5636,624.632,656.6974,625.8212,654.412,625.9244,651.4747,624.4371,648.7032,623.4655,646.5995,621.4927,645.4961,619.2343,644.8417,617.4361,644.2006,615.0873,643.16,613.066,643.9596,611.0926,644.6602,608.9308,647.2893,607.221,649.139,605.0027,651.4284,604.266,654.1501,603.6316,657.6404,604.0085,659.5521,604.9101,661.7747,605.3188,664.4772,608.0875,665.4193,611.0105,665.8286,613.0049,665.365,616.2914" style="stroke:#181818;stroke-width:1.0;"/><path d="M657.5156,610.2266 Q657.6719,610.0078 657.8594,609.8984 Q658.0469,609.7891 658.2656,609.7891 Q658.6406,609.7891 658.875,610.0547 Q659.1094,610.3047 659.1094,610.9141 L659.1094,612.3672 Q659.1094,612.9766 658.875,613.2422 Q658.6406,613.5078 658.2656,613.5078 Q657.9219,613.5078 657.7188,613.3047 Q657.5156,613.1172 657.4063,612.6016 Q657.3594,612.2422 657.1719,612.0547 Q656.8438,611.6797 656.2344,611.4609 Q655.625,611.2422 655,611.2422 Q654.2344,611.2422 653.5938,611.5703 Q652.9688,611.8984 652.4688,612.6484 Q651.9844,613.3984 651.9844,614.4297 L651.9844,615.5234 Q651.9844,616.7578 652.875,617.5859 Q653.7656,618.3984 655.3594,618.3984 Q656.2969,618.3984 656.9531,618.1484 Q657.3438,617.9922 657.7656,617.5547 Q658.0313,617.2891 658.1719,617.2109 Q658.3281,617.1328 658.5313,617.1328 Q658.8594,617.1328 659.1094,617.3984 Q659.375,617.6484 659.375,617.9922 Q659.375,618.3359 659.0313,618.7422 Q658.5313,619.3203 657.7344,619.6484 Q656.6563,620.1016 655.3594,620.1016 Q653.8438,620.1016 652.6406,619.4766 Q651.6563,618.9766 650.9688,617.9141 Q650.2813,616.8359 650.2813,615.5547 L650.2813,614.3984 Q650.2813,613.0703 650.8906,611.9297 Q651.5156,610.7734 652.6094,610.1641 Q653.7031,609.5391 654.9375,609.5391 Q655.6719,609.5391 656.3125,609.7109 Q656.9688,609.8672 657.5156,610.2266 Z " fill="#000000"/><text fill="#000000" font-family="FG Virgil" font-size="12" font-style="italic" lengthAdjust="spacing" textLength="68" x="692.75" y="610.457">«repository»</text><text fill="#000000" font-family="FG Virgil" font-size="14" lengthAdjust="spacing" textLength="103" x="675.25" y="627.627">PostItRepository</text><path d="M588.5,635.7031 L588.5,635.9834 L598.6667,635.1507 L608.8333,635.9608 L619,636.236 L629.1667,634.7519 L639.3333,635.5995 L649.5,635.1345 L659.6667,635.1918 L669.8333,635.6122 L680,634.7813 L690.1667,636.4413 L700.3333,634.8628 L710.5,635.4394 L720.6667,636.2791 L730.8333,635.5888 L741,635.7941 L751.1667,635.6605 L761.3333,635.9412 L771.5,636.022 L781.6667,636.484 L791.8333,636.5979 L802,636.6088 L812.1667,636.0426 L822.3333,636.3212 L832.5,635.7031 " fill="#F1F1F1" style="stroke:#181818;stroke-width:0.5;"/><path d="M588.5,643.7031 L588.5,643.9834 L598.6667,643.1507 L608.8333,643.9608 L619,644.236 L629.1667,642.7519 L639.3333,643.5995 L649.5,643.1345 L659.6667,643.1918 L669.8333,643.6122 L680,642.7813 L690.1667,644.4413 L700.3333,642.8628 L710.5,643.4394 L720.6667,644.2791 L730.8333,643.5888 L741,643.7941 L751.1667,643.6605 L761.3333,643.9412 L771.5,644.022 L781.6667,644.484 L791.8333,644.5979 L802,644.6088 L812.1667,644.0426 L822.3333,644.3212 L832.5,643.7031 " fill="#F1F1F1" style="stroke:#181818;stroke-width:0.5;"/><text fill="#000000" font-family="FG Virgil" font-size="14" lengthAdjust="spacing" textLength="234" x="593.5" y="662.2363">positByPosition(String, String, Board)</text><text fill="#000000" font-family="FG Virgil" font-size="14" lengthAdjust="spacing" textLength="75" x="593.5" y="679.8457">save(PostIt)</text></g><!--MD5=[343839bb48731e46d0fda742d45fdd31]
class BoardRepository--><g id="elem_BoardRepository"><polygon fill="#F1F1F1" points="975,602,975,602.2102,985.2308,601.5857,995.4615,602.1933,1005.6923,602.3997,1015.9231,601.2866,1026.1538,601.9223,1036.3846,601.5735,1046.6154,601.6165,1056.8462,601.9318,1067.0769,601.3086,1077.3077,602.5536,1087.5385,601.3697,1097.7692,601.8022,1108,602,1108.0551,602.133,1108.3426,602.12,1108.7158,602.3139,1109.0566,602.4295,1109.437,602.6408,1109.7678,602.7322,1109.8414,602.7627,1110.0946,603.1605,1110.2673,603.5249,1110.4163,603.8795,1110.432,604.1789,1110.5,604.5,1110.9636,604.5,1111.2022,614.6875,1109.7788,624.875,1111.1785,635.0625,1110.2035,645.25,1111.0338,655.4375,1110.005,665.625,1110.5,675.8125,1110.4789,675.8038,1110.5819,676.2607,1110.1921,676.5134,1110.0931,676.8866,1110.0185,677.2699,1109.7678,677.5803,1109.8209,677.7084,1109.4137,677.7255,1109.0973,677.9616,1108.6341,677.8433,1108.3898,678.2536,1108,678.3125,1108,678.8607,1097.7692,678.757,1087.5385,678.9255,1077.3077,677.8294,1067.0769,677.6603,1056.8462,677.6911,1046.6154,678.2536,1036.3846,678.116,1026.1538,678.9939,1015.9231,678.1378,1005.6923,677.9694,995.4615,678.5408,985.2308,677.6457,975,678.3125,974.9338,678.1526,974.7292,678.3659,974.3485,678.1538,974.033,678.0994,973.5447,677.6276,973.2322,677.5803,973.3305,677.621,973.2676,677.302,972.7939,676.8129,972.7634,676.5074,972.6852,676.1821,972.5,675.8125,973.1518,675.8125,972.4958,665.625,972.9626,655.4375,971.9462,645.25,971.8227,635.0625,973.0036,624.875,971.7831,614.6875,972.5,604.5,972.6567,604.5649,972.7101,604.1728,972.7104,603.7587,972.8304,603.3942,973.2271,603.1443,973.2322,602.7322,973.194,602.6401,973.6613,602.7681,973.8688,602.2691,974.3717,602.483,974.7082,602.2956,975,602" style="stroke:#181818;stroke-width:0.5;"/><polygon fill="#C2C2C2" points="998.5608,626.0272,996.9484,628.2304,995.0412,631.4573,992.3136,633.632,989.4474,634.8212,987.162,634.9244,984.2247,633.4371,981.4532,632.4655,979.3495,630.4927,978.2461,628.2343,977.5917,626.4361,976.9506,624.0873,975.91,622.066,976.7096,620.0926,977.4102,617.9308,980.0393,616.221,981.889,614.0027,984.1784,613.266,986.9001,612.6316,990.3904,613.0085,992.3021,613.9101,994.5247,614.3188,997.2272,617.0875,998.1693,620.0105,998.5786,622.0049,998.115,625.2914" style="stroke:#181818;stroke-width:1.0;"/><path d="M990.2656,619.2266 Q990.4219,619.0078 990.6094,618.8984 Q990.7969,618.7891 991.0156,618.7891 Q991.3906,618.7891 991.625,619.0547 Q991.8594,619.3047 991.8594,619.9141 L991.8594,621.3672 Q991.8594,621.9766 991.625,622.2422 Q991.3906,622.5078 991.0156,622.5078 Q990.6719,622.5078 990.4688,622.3047 Q990.2656,622.1172 990.1563,621.6016 Q990.1094,621.2422 989.9219,621.0547 Q989.5938,620.6797 988.9844,620.4609 Q988.375,620.2422 987.75,620.2422 Q986.9844,620.2422 986.3438,620.5703 Q985.7188,620.8984 985.2188,621.6484 Q984.7344,622.3984 984.7344,623.4297 L984.7344,624.5234 Q984.7344,625.7578 985.625,626.5859 Q986.5156,627.3984 988.1094,627.3984 Q989.0469,627.3984 989.7031,627.1484 Q990.0938,626.9922 990.5156,626.5547 Q990.7813,626.2891 990.9219,626.2109 Q991.0781,626.1328 991.2813,626.1328 Q991.6094,626.1328 991.8594,626.3984 Q992.125,626.6484 992.125,626.9922 Q992.125,627.3359 991.7813,627.7422 Q991.2813,628.3203 990.4844,628.6484 Q989.4063,629.1016 988.1094,629.1016 Q986.5938,629.1016 985.3906,628.4766 Q984.4063,627.9766 983.7188,626.9141 Q983.0313,625.8359 983.0313,624.5547 L983.0313,623.3984 Q983.0313,622.0703 983.6406,620.9297 Q984.2656,619.7734 985.3594,619.1641 Q986.4531,618.5391 987.6875,618.5391 Q988.4219,618.5391 989.0625,618.7109 Q989.7188,618.8672 990.2656,619.2266 Z " fill="#000000"/><text fill="#000000" font-family="FG Virgil" font-size="12" font-style="italic" lengthAdjust="spacing" textLength="68" x="1020.5" y="619.457">«repository»</text><text fill="#000000" font-family="FG Virgil" font-size="14" lengthAdjust="spacing" textLength="106" x="1001.5" y="636.627">BoardRepository</text><path d="M973.5,644.7031 L973.5,644.9834 L983.2143,644.1507 L992.9286,644.9608 L1002.6429,645.236 L1012.3571,643.7519 L1022.0714,644.5995 L1031.7857,644.1345 L1041.5,644.1918 L1051.2143,644.6122 L1060.9286,643.7813 L1070.6429,645.4413 L1080.3571,643.8628 L1090.0714,644.4394 L1099.7857,645.2791 L1109.5,644.7031 " fill="#F1F1F1" style="stroke:#181818;stroke-width:0.5;"/><path d="M973.5,652.7031 L973.5,652.9834 L983.2143,652.1507 L992.9286,652.9608 L1002.6429,653.236 L1012.3571,651.7519 L1022.0714,652.5995 L1031.7857,652.1345 L1041.5,652.1918 L1051.2143,652.6122 L1060.9286,651.7813 L1070.6429,653.4413 L1080.3571,651.8628 L1090.0714,652.4394 L1099.7857,653.2791 L1109.5,652.7031 " fill="#F1F1F1" style="stroke:#181818;stroke-width:0.5;"/><text fill="#000000" font-family="FG Virgil" font-size="14" lengthAdjust="spacing" textLength="99" x="978.5" y="671.2363">ofIdentity(Long)</text></g><!--MD5=[458552462bbdcbc92793825846cc11c0]
class PostIt--><g id="elem_PostIt"><polygon fill="#F1F1F1" points="268.5,748,268.5,748.2102,278.5,747.5857,288.5,748.1933,298.5,748.3997,308.5,747.2866,318.5,747.9223,328.5,747.5735,338.5,747.6165,348.5,747.9318,358.5,747.3086,368.5,748.5536,378.5,747.3697,388.5,747.8022,398.5,748.4319,408.5,747.9142,418.5,748.0682,428.5,747.9681,438.5,748.1785,448.5,748.2391,458.5,748.5857,468.5,748.6711,478.5,748.6793,488.5,748.2546,498.5,748.4636,508.5,748.7022,518.5,747.2788,528.5,748.6785,538.5,747.7035,548.5,748.5338,558.5,747.505,568.5,747.9315,578.5,748.7416,588.5,747.9513,598.5,748.1053,608.5,748.3386,618.5,748.4162,628.5,747.9961,638.5,748.2872,648.5,747.4276,658.5,748.2844,668.5,748.5482,678.5,748.4445,688.5,748.613,698.5,747.5169,708.5,747.3478,718.5,747.3786,728.5,747.9411,738.5,747.8035,748.5,748.6814,758.5,747.8253,768.5,748,768.4562,747.8944,768.8827,748.2167,769.122,748.0875,769.4944,748.2795,769.997,748.7856,770.2678,748.7322,770.4019,748.7878,770.6404,749.1795,770.4616,749.3983,770.8054,749.8336,771.0354,750.2218,771,750.5,770.5276,750.5,770.9041,760.6875,771.126,770.875,771.6518,781.0625,770.9958,791.25,771.4626,801.4375,770.4462,811.625,771,821.8125,770.7914,821.7261,771.0086,822.2303,770.4863,822.4282,770.7174,822.9381,770.4778,823.2531,770.2678,823.5803,770.2336,823.4978,769.8691,823.6178,769.6192,824.0144,769.1689,823.9274,768.9291,824.3483,768.5,824.3125,768.5,823.7598,758.5,824.9299,748.5,824.7968,738.5,824.5575,728.5,824.3597,718.5,825.0391,708.5,824.9261,698.5,824.4818,688.5,824.5807,678.5,824.1822,668.5,825.029,658.5,824.4674,648.5,824.4851,638.5,823.7041,628.5,823.9073,618.5,824.8432,608.5,824.7423,598.5,824.2696,588.5,823.9903,578.5,824.0936,568.5,823.6263,558.5,824.7272,548.5,825.0521,538.5,824.8389,528.5,825.0074,518.5,824.1758,508.5,824.3997,498.5,823.9249,488.5,824.5965,478.5,824.5593,468.5,824.8649,458.5,824.0828,448.5,824.1781,438.5,824.756,428.5,824.8798,418.5,823.8,408.5,824.1186,398.5,824.4618,388.5,823.7017,378.5,824.6659,368.5,824.5705,358.5,824.2117,348.5,824.4547,338.5,825.0412,328.5,823.9996,318.5,824.6275,308.5,824.5981,298.5,824.4283,288.5,824.4534,278.5,824.426,268.5,824.3125,268.4204,824.1203,268.0953,824.0426,267.734,823.8775,267.4475,823.8928,267.097,823.7539,266.7322,823.5803,266.782,823.6009,266.4962,823.1896,266.4185,822.8645,266.2559,822.5043,266.3241,822.2396,266,821.8125,266.4266,821.8125,265.5145,811.625,265.9271,801.4375,265.4228,791.25,266.2884,781.0625,266.6085,770.875,266.5446,760.6875,266,750.5,265.8659,750.4444,266.2893,750.2056,266.0641,749.6981,266.501,749.4649,266.4936,749.0476,266.7322,748.7322,266.7446,748.762,267.1164,748.6598,267.4996,748.5847,267.7011,748.0712,268.2071,748.2929,268.5,748" style="stroke:#181818;stroke-width:0.5;"/><polygon fill="#C2C2C2" points="499.3108,772.0272,497.6984,774.2304,495.7912,777.4573,493.0636,779.632,490.1974,780.8212,487.912,780.9244,484.9747,779.4371,482.2032,778.4655,480.0995,776.4927,478.9961,774.2343,478.3417,772.4361,477.7006,770.0873,476.66,768.066,477.4596,766.0926,478.1602,763.9308,480.7893,762.221,482.639,760.0027,484.9284,759.266,487.6501,758.6316,491.1404,759.0085,493.0521,759.9101,495.2747,760.3188,497.9772,763.0875,498.9193,766.0105,499.3286,768.0049,498.865,771.2914" style="stroke:#181818;stroke-width:1.0;"/><path d="M491.0156,765.2266 Q491.1719,765.0078 491.3594,764.8984 Q491.5469,764.7891 491.7656,764.7891 Q492.1406,764.7891 492.375,765.0547 Q492.6094,765.3047 492.6094,765.9141 L492.6094,767.3672 Q492.6094,767.9766 492.375,768.2422 Q492.1406,768.5078 491.7656,768.5078 Q491.4219,768.5078 491.2188,768.3047 Q491.0156,768.1172 490.9063,767.6016 Q490.8594,767.2422 490.6719,767.0547 Q490.3438,766.6797 489.7344,766.4609 Q489.125,766.2422 488.5,766.2422 Q487.7344,766.2422 487.0938,766.5703 Q486.4688,766.8984 485.9688,767.6484 Q485.4844,768.3984 485.4844,769.4297 L485.4844,770.5234 Q485.4844,771.7578 486.375,772.5859 Q487.2656,773.3984 488.8594,773.3984 Q489.7969,773.3984 490.4531,773.1484 Q490.8438,772.9922 491.2656,772.5547 Q491.5313,772.2891 491.6719,772.2109 Q491.8281,772.1328 492.0313,772.1328 Q492.3594,772.1328 492.6094,772.3984 Q492.875,772.6484 492.875,772.9922 Q492.875,773.3359 492.5313,773.7422 Q492.0313,774.3203 491.2344,774.6484 Q490.1563,775.1016 488.8594,775.1016 Q487.3438,775.1016 486.1406,774.4766 Q485.1563,773.9766 484.4688,772.9141 Q483.7813,771.8359 483.7813,770.5547 L483.7813,769.3984 Q483.7813,768.0703 484.3906,766.9297 Q485.0156,765.7734 486.1094,765.1641 Q487.2031,764.5391 488.4375,764.5391 Q489.1719,764.5391 489.8125,764.7109 Q490.4688,764.8672 491.0156,765.2266 Z " fill="#000000"/><text fill="#000000" font-family="FG Virgil" font-size="12" font-style="italic" lengthAdjust="spacing" textLength="56" x="506.75" y="765.457">«domain»</text><text fill="#000000" font-family="FG Virgil" font-size="14" lengthAdjust="spacing" textLength="35" x="517.25" y="782.627">PostIt</text><path d="M267,790.7031 L267,790.9834 L277.06,790.1507 L287.12,790.9608 L297.18,791.236 L307.24,789.7519 L317.3,790.5995 L327.36,790.1345 L337.42,790.1918 L347.48,790.6122 L357.54,789.7813 L367.6,791.4413 L377.66,789.8628 L387.72,790.4394 L397.78,791.2791 L407.84,790.5888 L417.9,790.7941 L427.96,790.6605 L438.02,790.9412 L448.08,791.022 L458.14,791.484 L468.2,791.5979 L478.26,791.6088 L488.32,791.0426 L498.38,791.3212 L508.44,791.6394 L518.5,789.7415 L528.56,791.6078 L538.62,790.3078 L548.68,791.4149 L558.74,790.0431 L568.8,790.6118 L578.86,791.6919 L588.92,790.6381 L598.98,790.8435 L609.04,791.1546 L619.1,791.2581 L629.16,790.6979 L639.22,791.0861 L649.28,789.9399 L659.34,791.0823 L669.4,791.4341 L679.46,791.2958 L689.52,791.5205 L699.58,790.059 L709.64,789.8335 L719.7,789.8746 L729.76,790.6246 L739.82,790.4411 L749.88,791.6117 L759.94,790.4702 L770,790.7031 " fill="#F1F1F1" style="stroke:#181818;stroke-width:0.5;"/><path d="M267,798.7031 L267,798.9834 L277.06,798.1507 L287.12,798.9608 L297.18,799.236 L307.24,797.7519 L317.3,798.5995 L327.36,798.1345 L337.42,798.1918 L347.48,798.6122 L357.54,797.7813 L367.6,799.4413 L377.66,797.8628 L387.72,798.4394 L397.78,799.2791 L407.84,798.5888 L417.9,798.7941 L427.96,798.6605 L438.02,798.9412 L448.08,799.022 L458.14,799.484 L468.2,799.5979 L478.26,799.6088 L488.32,799.0426 L498.38,799.3212 L508.44,799.6394 L518.5,797.7415 L528.56,799.6078 L538.62,798.3078 L548.68,799.4149 L558.74,798.0431 L568.8,798.6118 L578.86,799.6919 L588.92,798.6381 L598.98,798.8435 L609.04,799.1546 L619.1,799.2581 L629.16,798.6979 L639.22,799.0861 L649.28,797.9399 L659.34,799.0823 L669.4,799.4341 L679.46,799.2958 L689.52,799.5205 L699.58,798.059 L709.64,797.8335 L719.7,797.8746 L729.76,798.6246 L739.82,798.4411 L749.88,799.6117 L759.94,798.4702 L770,798.7031 " fill="#F1F1F1" style="stroke:#181818;stroke-width:0.5;"/><text fill="#000000" font-family="FG Virgil" font-size="14" lengthAdjust="spacing" textLength="493" x="272" y="817.2363">PostIt(PostItContent, PostItRow, PostItColumn, User, Board, PostItState, PostIt)</text></g><!--MD5=[3fd616f346a44cd59a91eb10b19e157c]
class User--><g id="elem_User"><polygon fill="#F1F1F1" points="943,403.5,943,403.7102,952.875,403.0857,962.75,403.6933,972.625,403.8997,982.5,402.7866,992.375,403.4223,1002.25,403.0735,1012.125,403.1165,1022,403.5,1021.9913,403.479,1022.2654,403.4335,1022.7777,403.9634,1022.9803,403.7452,1023.389,404.0249,1023.7678,404.2322,1023.9008,404.2873,1023.8878,404.5748,1024.0817,404.948,1024.1973,405.2888,1024.4085,405.6692,1024.5,406,1024.7391,406,1025.0857,416.7406,1025.1711,427.4813,1025.1793,438.2219,1024.7546,448.9625,1024.5,459.7031,1024.6428,459.7623,1024.5698,460.1463,1023.985,460.3182,1024.2696,460.8503,1023.8229,461.0795,1023.7678,461.4709,1023.8359,461.6353,1023.3511,461.4649,1023.0519,461.7427,1022.8017,462.1386,1022.3473,462.0417,1022,462.2031,1022,462.3084,1012.125,462.5418,1002.25,462.6194,992.375,462.1992,982.5,462.4903,972.625,461.6307,962.75,462.4875,952.875,462.7513,943,462.2031,943.0567,462.34,942.7246,462.2455,942.2313,461.7615,941.8561,461.5629,941.5065,461.426,941.2322,461.4709,941.2141,461.4634,941.0253,461.0923,941.1492,460.8507,940.7391,460.3879,940.5408,460.0129,940.5,459.7031,940.7283,459.7031,939.8332,448.9625,939.9809,438.2219,941.149,427.4813,940.9357,416.7406,940.5,406,940.7262,406.0937,940.5473,405.6054,940.8912,405.3336,941.1212,405.0147,940.9403,404.5255,941.2322,404.2322,941.22,404.2027,941.6019,404.1246,942.0225,404.1401,942.2924,403.7916,942.7055,403.7889,943,403.5" style="stroke:#181818;stroke-width:0.5;"/><polygon fill="#C2C2C2" points="966.5608,427.5272,964.9484,429.7304,963.0412,432.9573,960.3136,435.132,957.4474,436.3212,955.162,436.4244,952.2247,434.9371,949.4532,433.9655,947.3495,431.9927,946.2461,429.7343,945.5917,427.9361,944.9506,425.5873,943.91,423.566,944.7096,421.5926,945.4102,419.4308,948.0393,417.721,949.889,415.5027,952.1784,414.766,954.9001,414.1316,958.3904,414.5085,960.3021,415.4101,962.5247,415.8188,965.2272,418.5875,966.1693,421.5105,966.5786,423.5049,966.115,426.7914" style="stroke:#181818;stroke-width:1.0;"/><path d="M958.2656,420.7266 Q958.4219,420.5078 958.6094,420.3984 Q958.7969,420.2891 959.0156,420.2891 Q959.3906,420.2891 959.625,420.5547 Q959.8594,420.8047 959.8594,421.4141 L959.8594,422.8672 Q959.8594,423.4766 959.625,423.7422 Q959.3906,424.0078 959.0156,424.0078 Q958.6719,424.0078 958.4688,423.8047 Q958.2656,423.6172 958.1563,423.1016 Q958.1094,422.7422 957.9219,422.5547 Q957.5938,422.1797 956.9844,421.9609 Q956.375,421.7422 955.75,421.7422 Q954.9844,421.7422 954.3438,422.0703 Q953.7188,422.3984 953.2188,423.1484 Q952.7344,423.8984 952.7344,424.9297 L952.7344,426.0234 Q952.7344,427.2578 953.625,428.0859 Q954.5156,428.8984 956.1094,428.8984 Q957.0469,428.8984 957.7031,428.6484 Q958.0938,428.4922 958.5156,428.0547 Q958.7813,427.7891 958.9219,427.7109 Q959.0781,427.6328 959.2813,427.6328 Q959.6094,427.6328 959.8594,427.8984 Q960.125,428.1484 960.125,428.4922 Q960.125,428.8359 959.7813,429.2422 Q959.2813,429.8203 958.4844,430.1484 Q957.4063,430.6016 956.1094,430.6016 Q954.5938,430.6016 953.3906,429.9766 Q952.4063,429.4766 951.7188,428.4141 Q951.0313,427.3359 951.0313,426.0547 L951.0313,424.8984 Q951.0313,423.5703 951.6406,422.4297 Q952.2656,421.2734 953.3594,420.6641 Q954.4531,420.0391 955.6875,420.0391 Q956.4219,420.0391 957.0625,420.2109 Q957.7188,420.3672 958.2656,420.7266 Z " fill="#000000"/><text fill="#000000" font-family="FG Virgil" font-size="12" font-style="italic" lengthAdjust="spacing" textLength="56" x="967.5" y="420.957">«domain»</text><text fill="#000000" font-family="FG Virgil" font-size="14" lengthAdjust="spacing" textLength="29" x="981" y="438.127">User</text><path d="M941.5,446.2031 L941.5,446.4834 L951.75,445.6507 L962,446.4608 L972.25,446.736 L982.5,445.2519 L992.75,446.0995 L1003,445.6345 L1013.25,445.6918 L1023.5,446.2031 " fill="#F1F1F1" style="stroke:#181818;stroke-width:0.5;"/><path d="M941.5,454.2031 L941.5,454.4834 L951.75,453.6507 L962,454.4608 L972.25,454.736 L982.5,453.2519 L992.75,454.0995 L1003,453.6345 L1013.25,453.6918 L1023.5,454.2031 " fill="#F1F1F1" style="stroke:#181818;stroke-width:0.5;"/></g><!--MD5=[9563755d011c5cec7ec66dc53565a59e]
class Board--><g id="elem_Board"><polygon fill="#F1F1F1" points="837.5,748,837.5,748.2102,847.66,747.5857,857.82,748.1933,867.98,748.3997,878.14,747.2866,888.3,747.9223,898.46,747.5735,908.62,747.6165,918.78,747.9318,928.94,747.3086,939.1,748.5536,949.26,747.3697,959.42,747.8022,969.58,748.4319,979.74,747.9142,989.9,748.0682,1000.06,747.9681,1010.22,748.1785,1020.38,748.2391,1030.54,748.5857,1040.7,748.6711,1050.86,748.6793,1061.02,748.2546,1071.18,748.4636,1081.34,748.7022,1091.5,748,1091.408,747.7779,1091.9401,748.3554,1092.1693,748.2016,1092.6288,748.6037,1092.8511,748.4333,1093.2678,748.7322,1093.2467,748.7235,1093.6426,749.1804,1093.5457,749.4331,1093.7395,749.8063,1093.9578,750.1896,1094,750.5,1094.4162,750.5,1093.9961,760.6875,1094.2872,770.875,1093.4276,781.0625,1094.2844,791.25,1094.5482,801.4375,1094.4445,811.625,1094,821.8125,1094.1888,821.8907,1093.7048,822.1044,1093.5063,822.4364,1093.3693,822.7939,1093.3961,823.2192,1093.2678,823.5803,1093.2427,823.5197,1093.0011,823.9366,1092.5384,823.8194,1092.1633,823.914,1091.8827,824.2364,1091.5,824.3125,1091.5,823.6457,1081.34,823.7934,1071.18,824.9615,1061.02,824.7482,1050.86,825.047,1040.7,823.9907,1030.54,824.6317,1020.38,824.9029,1010.22,823.8401,1000.06,824.2166,989.9,824.4385,979.74,824.9643,969.58,824.3083,959.42,824.7751,949.26,823.7587,939.1,823.6352,928.94,824.8161,918.78,823.5956,908.62,824.8215,898.46,824.5191,888.3,824.0446,878.14,823.9587,867.98,824.7713,857.82,824.0132,847.66,824.9044,837.5,824.3125,837.4295,824.1423,837.2252,824.3562,836.8547,824.1688,836.4706,823.9486,836.0918,823.7413,835.7322,823.5803,835.956,823.673,835.7747,823.305,835.4915,822.8948,835.3755,822.5538,835.1063,822.1494,835,821.8125,835.7165,821.8125,835.1549,811.625,835.1726,801.4375,834.3916,791.25,834.5948,781.0625,835.5307,770.875,835.4298,760.6875,835,750.5,834.9868,750.4945,835.0472,750.1054,835.2255,749.765,835.228,749.3518,835.7135,749.1387,835.7322,748.7322,835.8266,748.96,836.1529,748.7479,836.528,748.6534,836.7755,748.2508,837.1576,748.1733,837.5,748" style="stroke:#181818;stroke-width:0.5;"/><polygon fill="#C2C2C2" points="945.3108,772.0272,943.6984,774.2304,941.7912,777.4573,939.0636,779.632,936.1974,780.8212,933.912,780.9244,930.9747,779.4371,928.2032,778.4655,926.0995,776.4927,924.9961,774.2343,924.3417,772.4361,923.7006,770.0873,922.66,768.066,923.4596,766.0926,924.1602,763.9308,926.7893,762.221,928.639,760.0027,930.9284,759.266,933.6501,758.6316,937.1404,759.0085,939.0521,759.9101,941.2747,760.3188,943.9772,763.0875,944.9193,766.0105,945.3286,768.0049,944.865,771.2914" style="stroke:#181818;stroke-width:1.0;"/><path d="M937.0156,765.2266 Q937.1719,765.0078 937.3594,764.8984 Q937.5469,764.7891 937.7656,764.7891 Q938.1406,764.7891 938.375,765.0547 Q938.6094,765.3047 938.6094,765.9141 L938.6094,767.3672 Q938.6094,767.9766 938.375,768.2422 Q938.1406,768.5078 937.7656,768.5078 Q937.4219,768.5078 937.2188,768.3047 Q937.0156,768.1172 936.9063,767.6016 Q936.8594,767.2422 936.6719,767.0547 Q936.3438,766.6797 935.7344,766.4609 Q935.125,766.2422 934.5,766.2422 Q933.7344,766.2422 933.0938,766.5703 Q932.4688,766.8984 931.9688,767.6484 Q931.4844,768.3984 931.4844,769.4297 L931.4844,770.5234 Q931.4844,771.7578 932.375,772.5859 Q933.2656,773.3984 934.8594,773.3984 Q935.7969,773.3984 936.4531,773.1484 Q936.8438,772.9922 937.2656,772.5547 Q937.5313,772.2891 937.6719,772.2109 Q937.8281,772.1328 938.0313,772.1328 Q938.3594,772.1328 938.6094,772.3984 Q938.875,772.6484 938.875,772.9922 Q938.875,773.3359 938.5313,773.7422 Q938.0313,774.3203 937.2344,774.6484 Q936.1563,775.1016 934.8594,775.1016 Q933.3438,775.1016 932.1406,774.4766 Q931.1563,773.9766 930.4688,772.9141 Q929.7813,771.8359 929.7813,770.5547 L929.7813,769.3984 Q929.7813,768.0703 930.3906,766.9297 Q931.0156,765.7734 932.1094,765.1641 Q933.2031,764.5391 934.4375,764.5391 Q935.1719,764.5391 935.8125,764.7109 Q936.4688,764.8672 937.0156,765.2266 Z " fill="#000000"/><text fill="#000000" font-family="FG Virgil" font-size="12" font-style="italic" lengthAdjust="spacing" textLength="56" x="952.75" y="765.457">«domain»</text><text fill="#000000" font-family="FG Virgil" font-size="14" lengthAdjust="spacing" textLength="38" x="961.75" y="782.627">Board</text><path d="M836,790.7031 L836,790.9834 L845.8846,790.1507 L855.7692,790.9608 L865.6538,791.236 L875.5385,789.7519 L885.4231,790.5995 L895.3077,790.1345 L905.1923,790.1918 L915.0769,790.6122 L924.9615,789.7813 L934.8462,791.4413 L944.7308,789.8628 L954.6154,790.4394 L964.5,791.2791 L974.3846,790.5888 L984.2692,790.7941 L994.1538,790.6605 L1004.0385,790.9412 L1013.9231,791.022 L1023.8077,791.484 L1033.6923,791.5979 L1043.5769,791.6088 L1053.4615,791.0426 L1063.3462,791.3212 L1073.2308,791.6394 L1083.1154,789.7415 L1093,790.7031 " fill="#F1F1F1" style="stroke:#181818;stroke-width:0.5;"/><path d="M836,798.7031 L836,798.9834 L845.8846,798.1507 L855.7692,798.9608 L865.6538,799.236 L875.5385,797.7519 L885.4231,798.5995 L895.3077,798.1345 L905.1923,798.1918 L915.0769,798.6122 L924.9615,797.7813 L934.8462,799.4413 L944.7308,797.8628 L954.6154,798.4394 L964.5,799.2791 L974.3846,798.5888 L984.2692,798.7941 L994.1538,798.6605 L1004.0385,798.9412 L1013.9231,799.022 L1023.8077,799.484 L1033.6923,799.5979 L1043.5769,799.6088 L1053.4615,799.0426 L1063.3462,799.3212 L1073.2308,799.6394 L1083.1154,797.7415 L1093,798.7031 " fill="#F1F1F1" style="stroke:#181818;stroke-width:0.5;"/><text fill="#000000" font-family="FG Virgil" font-size="14" lengthAdjust="spacing" textLength="247" x="841" y="817.2363">userHasPermission(User, AccessLevel)</text></g><!--MD5=[5c97539c9a1e616ab3ab9d934a75de46]
link HttpServerAjax to DeletePostItController--><g id="link_HttpServerAjax_DeletePostItController"><path d="M809.57,119.19 L809.797,119.3543 L803.2113,127.0362 L797.9566,135.6811 L792.2684,144.0124 L785.1549,151.3124 L779.9305,159.9793 L773.6426,167.8767 L767.778,176.0803 L762.2075,184.4967 L756.37,192.72 " fill="none" style="stroke:#181818;stroke-width:1.0;"/><polygon fill="#181818" points="753.43,196.78,753.4653,196.8405,755.0627,195.6694,756.8668,194.8531,758.6036,193.9213,760.119,192.6094,761.9409,191.8237,761.9367,191.7981,760.8013,191.8638,759.6867,192.0583,758.5866,192.3425,757.4365,192.3179,756.3564,192.7259,756.5386,192.7553,755.9686,191.5755,755.9305,190.4816,755.9572,189.3981,755.6064,188.2537,755.4542,187.1414,755.4765,187.1461,755.039,189.0669,754.7028,191.0091,754.3177,192.9409,754.0259,194.8924,753.43,196.78" style="stroke:#181818;stroke-width:1.0;"/><text fill="#000000" font-family="FG Virgil" font-size="13" lengthAdjust="spacing" textLength="73" x="789.5" y="163.4951">theController</text></g><!--MD5=[886edeef38e246f68555233ed43ef7bd]
link HttpServerAjax to SessionManager--><g id="link_HttpServerAjax_SessionManager"><path d="M891.71,119.19 L891.9326,119.3602 L897.2732,126.7034 L903.9187,135.0445 L910.1393,143.0607 L914.9624,150.0082 L921.6377,158.3721 L927.2703,165.9386 L933.3178,173.8224 L939.6538,181.9268 L944.9957,189.271 L951.73,197.68 " fill="none" style="stroke:#181818;stroke-width:1.0;"/><polygon fill="#181818" points="954.93,201.86,954.9982,201.8762,954.3403,199.9117,954.082,198.0421,953.6935,196.1416,952.8772,194.1394,952.6532,192.2779,952.6275,192.2745,952.3613,193.3802,952.2244,194.5034,952.1776,195.6386,951.8207,196.7321,951.8981,197.8842,951.9227,198.0671,950.7488,197.5249,949.6468,197.5168,948.5535,197.5738,947.4093,197.2517,946.2918,197.129,946.3028,197.149,948.0144,198.0659,949.7757,199.0736,951.513,200.0375,953.2961,201.085,954.93,201.86" style="stroke:#181818;stroke-width:1.0;"/><text fill="#000000" font-family="FG Virgil" font-size="13" lengthAdjust="spacing" textLength="95" x="927.5" y="163.4951">sessionManager</text></g><!--MD5=[cfa8c6cc09150aa1a34895e749736282]
link SessionManager to User--><g id="link_SessionManager_User"><path d="M980,268.37 L980.2802,268.3743 L979.5999,278.3485 L980.5623,288.3478 L980.9898,298.3389 L979.6581,308.3032 L980.6579,318.303 L980.3453,328.2829 L980.5549,338.2707 L981.1276,348.264 L980.4491,358.2383 L982.2612,368.2505 L980.8351,378.2133 L981.564,388.2091 L981.98,398.2 " fill="none" style="stroke:#181818;stroke-width:1.0;stroke-dasharray:7.0,7.0;"/><polygon fill="#181818" points="982.06,403.41,982.1244,403.4375,982.7072,401.5445,983.6677,399.8128,984.5051,398.0286,984.9382,396.0716,985.931,394.3538,985.9125,394.3357,985.0406,395.066,984.2624,395.8874,983.5493,396.772,982.6118,397.4386,981.9886,398.4105,982.1172,398.5429,981.0308,397.4714,980.3199,396.7863,979.6549,396.1483,978.7233,395.236,977.9318,394.4681,977.9525,394.4776,978.7478,396.252,979.6371,398.0698,980.4811,399.8666,981.4116,401.7034,982.06,403.41" style="stroke:#181818;stroke-width:1.0;"/></g><!--MD5=[80875efc03a2af532df68f258a896240]
link DeletePostItController to PostItService--><g id="link_DeletePostItController_PostItService"><path d="M723.45,273.33 L723.7293,273.3528 L722.0537,283.6537 L722.0154,294.0881 L721.444,304.479 L719.1191,314.727 L719.1182,325.1644 L717.8089,335.4952 L717.53,345.91 " fill="none" style="stroke:#181818;stroke-width:1.0;"/><polygon fill="#181818" points="717.11,350.98,717.1714,351.0137,717.9352,349.1861,719.0591,347.5558,720.0658,345.8613,720.6867,343.9555,721.8415,342.3421,721.8248,342.3224,720.8862,342.9646,720.0319,343.7066,719.2364,344.5178,718.2386,345.0903,717.524,345.9972,717.6649,346.1164,716.6327,344.9979,716.0117,344.2276,715.4409,343.4997,714.5782,342.5247,713.869,341.6797,713.8905,341.6872,714.5072,343.5362,715.2216,345.4194,715.8889,347.2861,716.6462,349.1842,717.11,350.98" style="stroke:#181818;stroke-width:1.0;"/><text fill="#000000" font-family="FG Virgil" font-size="13" lengthAdjust="spacing" textLength="53" x="722.5" y="317.4951">postItSvc</text></g><!--MD5=[b9692feec0cb1506ec17cf1d0e1e1acb]
link PostItService to PostItFactory--><g id="link_PostItService_PostItFactory"><path d="M515.85,503.6 L515.884,503.687 L510.6558,505.4313 L505.6268,507.6856 L500.533,509.7738 L495.2258,511.3158 L490.2139,513.6139 L490.201,513.5819 L485.0148,515.4965 L479.8934,517.5727 L474.817,519.7612 L469.5853,521.5626 L464.5713,523.9063 L464.6654,524.1336 L459.396,525.7453 L454.4013,528.0207 L449.4402,530.3772 L444.284,532.2624 L439.2305,534.3955 L439.2424,534.4233 L434.2788,536.5033 L429.3696,538.7102 L424.4341,540.8559 L419.5487,543.1183 L414.5,545 L414.6212,545.2725 L411.7528,546.5528 L408.8061,547.6573 L405.974,549.0192 L403.1472,550.3931 L400.1504,551.3849 L400.0167,551.0935 L397.3691,552.9924 L394.2814,553.932 L391.5282,555.6009 L388.4306,556.5188 L385.6153,558.0522 L385.6022,558.0247 L379.9294,561.1234 L373.9509,563.5798 L368.1527,566.4151 L362.3697,569.2823 L356.4775,571.92 L356.5595,572.0858 L350.7939,574.7295 L345.1685,577.6565 L339.3163,580.1252 L333.8023,583.2775 L328.0634,585.9753 L328.1741,586.1924 L322.8105,588.8743 L317.5018,591.6639 L311.9379,593.9528 L306.5611,596.6088 L301.35,599.59 " fill="none" style="stroke:#181818;stroke-width:1.0;"/><polygon fill="#181818" points="296.81,601.94,296.8143,602.0099,298.7677,601.6825,300.7462,601.765,302.7165,601.714,304.6601,601.224,306.6407,601.3417,306.6329,601.317,305.5191,600.8649,304.4447,600.5373,303.3978,600.2963,302.2564,599.757,301.2473,599.6355,301.4232,599.6912,301.3882,598.4934,301.8669,597.4582,302.4082,596.4429,302.585,595.3121,302.9535,594.2421,302.9712,594.2563,301.7164,595.775,300.5426,597.3584,299.3297,598.9106,298.1913,600.5222,296.81,601.94" style="stroke:#181818;stroke-width:1.0;"/><text fill="#000000" font-family="FG Virgil" font-size="13" lengthAdjust="spacing" textLength="76" x="415.5" y="559.4951">postItFactory</text></g><!--MD5=[778855c556e50cd29727724975a88767]
link PostItService to PostItRepository--><g id="link_PostItService_PostItRepository"><path d="M710.5,515.02 L710.7802,515.02 L709.9476,525.3871 L710.7577,535.7543 L711.0329,546.1214 L709.5488,556.4886 L710.3964,566.8557 L709.9313,577.2229 L710.5,587.59 " fill="none" style="stroke:#181818;stroke-width:1.0;"/><polygon fill="#181818" points="710.5,592.79,710.564,592.8185,711.1738,590.9339,712.1589,589.2162,713.0217,587.4441,713.4827,585.4934,714.5,583.79,714.4817,583.7717,713.5995,584.4895,712.8096,585.2996,712.0839,586.1739,711.137,586.827,710.5,587.79,710.6305,587.9205,709.5514,586.8414,708.8534,586.1434,708.2018,585.4918,707.2798,584.5698,706.5,583.79,706.5208,583.7992,707.2903,585.5857,708.1544,587.4142,708.9728,589.2224,709.8784,591.0693,710.5,592.79" style="stroke:#181818;stroke-width:1.0;"/><text fill="#000000" font-family="FG Virgil" font-size="13" lengthAdjust="spacing" textLength="94" x="711.5" y="559.4951">postItRepository</text></g><!--MD5=[85f25023764845daeae7ec7566bd8a25]
link PostItService to BoardRepository--><g id="link_PostItService_BoardRepository"><path d="M880.12,515.03 L880.1664,515.1111 L882.565,516.3234 L885.2357,518.011 L887.8178,519.5438 L890.1084,520.5678 L892.8025,522.2961 L892.7849,522.2664 L895.2077,523.6192 L897.7195,525.1216 L900.293,526.7281 L902.6536,527.976 L905.3125,529.7263 L905.4418,529.9356 L907.617,531.0029 L910.1698,532.6813 L912.7687,534.4343 L915.0995,535.7534 L917.5713,537.3008 L917.5877,537.3263 L919.9493,538.8287 L922.3858,540.4471 L924.7861,542.0096 L927.2554,543.6789 L929.5,545 L929.6677,545.2466 L931.4614,546.468 L933.147,547.5302 L934.9909,548.8254 L936.8422,550.1314 L938.4584,551.0916 L938.2718,550.831 L940.4263,552.6201 L941.9664,553.5511 L943.9737,555.1344 L945.4999,556.0459 L947.4203,557.5081 L947.4021,557.4837 L949.3986,559.1043 L950.969,560.1553 L952.7909,561.5423 L954.6339,562.9576 L956.3246,564.1693 L956.4381,564.3154 L958.0806,565.5331 L959.9171,567.0004 L961.4397,568.0638 L963.4305,569.7297 L965.11,570.995 L965.2625,571.185 L966.9548,572.5311 L968.7228,573.9715 L970.1388,574.9736 L971.8129,576.2971 L973.7154,577.9051 L973.5395,577.6922 L975.3716,579.2678 L977.0055,580.6035 L978.9269,582.2871 L980.3574,583.3767 L982.0797,584.8194 L981.9804,584.7037 L985.2978,587.6005 L988.1908,590.0027 L991.3856,592.7566 L994.8757,595.8548 L997.84,598.34 " fill="none" style="stroke:#181818;stroke-width:1.0;"/><polygon fill="#181818" points="1001.78,601.81,1001.8437,601.8392,1000.8338,599.9618,1000.1973,598.2555,999.4392,596.4934,998.2813,594.5482,997.6768,592.8566,997.651,592.855,997.6056,593.9768,997.6907,595.1069,997.8663,596.2426,997.7297,597.3588,998.0304,598.5024,998.0419,598.6865,996.8881,598.3634,995.768,598.578,994.6519,598.8582,993.512,598.7567,992.3846,598.8559,992.3914,598.8776,994.2605,599.4366,996.1606,600.0943,998.0457,600.7044,999.9595,601.4054,1001.78,601.81" style="stroke:#181818;stroke-width:1.0;"/><text fill="#000000" font-family="FG Virgil" font-size="13" lengthAdjust="spacing" textLength="94" x="953.5" y="559.4951">boardRepository</text></g><!--MD5=[2dd22cea3aeea39cf43778b727913196]
link PostItFactory to PostIt--><g id="link_PostItFactory_PostIt"><path d="M302.44,678.08 L302.5643,678.3312 L311.2957,682.0882 L320.7556,687.3176 L329.9783,692.0676 L338.4208,695.2408 L347.8974,700.5038 L356.7918,704.5903 L365.9179,709.145 L375.205,714.0252 L383.9372,717.7838 L393.7741,723.775 L402.1746,726.8635 L411.5311,731.8837 L421.0041,737.1395 L429.7986,741.0242 L438.95,745.63 " fill="none" style="stroke:#181818;stroke-width:1.0;"/><polygon fill="#181818" points="443.56,747.92,443.614,747.9647,442.1975,746.3146,441.0975,744.9264,439.8944,743.453,438.3525,741.6991,437.2796,740.3334,437.2551,740.3251,437.5054,741.3605,437.8795,742.4374,438.3396,743.5433,438.5032,744.5495,439.0822,745.6953,439.141,745.8703,437.9428,745.8567,436.9164,746.3539,435.9109,746.9133,434.7835,747.1103,433.7202,747.4979,433.7212,747.5206,435.6877,747.5717,437.6587,747.7262,439.6275,747.8308,441.6004,748.0306,443.56,747.92" style="stroke:#181818;stroke-width:1.0;"/></g><!--MD5=[a179befad2a701e07a9299659a8da84c]
link PostItRepository to PostIt--><g id="link_PostItRepository_PostIt"><path d="M648.96,687.16 L649.1281,687.3842 L640.9286,692.492 L633.7146,698.9142 L626.1797,704.9084 L617.5893,709.495 L610.3978,715.9471 L602.4188,721.349 L594.7532,727.1689 L587.3055,733.2793 L579.107,738.3885 L571.96,744.9 " fill="none" style="stroke:#181818;stroke-width:1.0;"/><polygon fill="#181818" points="567.86,747.98,567.8756,748.0483,569.7492,747.4054,571.7144,747.1628,573.6498,746.7899,575.4869,745.9882,577.46,745.78,577.4563,745.7544,576.3199,745.4793,575.2019,745.3335,574.0968,745.2775,572.9474,744.9119,571.86,744.98,572.0427,745.0061,571.812,743.8303,572.1147,742.7307,572.4825,741.6404,572.4717,740.496,572.66,739.38,572.6799,739.3911,571.6907,741.0948,570.792,742.849,569.8496,744.5788,568.9905,746.3551,567.86,747.98" style="stroke:#181818;stroke-width:1.0;"/></g><!--MD5=[c2b2d28b8f8fd1e85bbeebc0fff5bd46]
link BoardRepository to Board--><g id="link_BoardRepository_Board"><path d="M1021.67,678.08 L1021.9171,678.2122 L1016.2271,687.0866 L1011.9858,696.7358 L1007.2728,706.1327 L1001.0084,714.7 L996.8001,724.3669 L991.4343,733.4147 L986.98,742.95 " fill="none" style="stroke:#181818;stroke-width:1.0;"/><polygon fill="#181818" points="984.53,747.54,984.5731,747.5953,985.9986,746.2201,987.6767,745.1689,989.2726,744.0121,990.598,742.5085,992.2978,741.4851,992.2902,741.4603,991.1739,741.6779,990.0956,742.0205,989.0436,742.45,987.9007,742.58,986.8852,743.1294,987.0617,743.1831,986.3553,741.9858,986.1644,740.9452,986.0363,739.9237,985.5423,738.791,985.2408,737.7168,985.2635,737.7185,985.088,739.6807,985.0159,741.6504,984.8938,743.6165,984.8669,745.5895,984.53,747.54" style="stroke:#181818;stroke-width:1.0;"/></g><!--MD5=[90d69ff1202b184f782b05dfe7501887]
link PostItService to PostIt--><g id="link_PostItService_PostIt"><path d="M595.89,515.26 L595.9551,515.327 L593.9954,516.8457 L592.4175,518.7571 L590.7153,520.5406 L588.6042,521.9037 L587.0591,523.8488 L587.0342,523.8248 L585.2007,525.5044 L583.4926,527.3047 L581.8716,529.1891 L579.9503,530.7841 L578.4497,532.7844 L578.6329,532.9487 L576.5781,534.4514 L575.0581,536.4338 L573.6033,538.4748 L571.7689,540.1752 L570.1342,542.0547 L570.1575,542.074 L568.5334,543.9642 L567.0156,545.9424 L565.4465,547.8782 L563.9753,549.895 L562.185,551.6475 L562.4226,551.8277 L560.9235,553.8105 L559.271,555.6771 L557.8429,557.7139 L556.4253,559.7586 L554.6746,561.5506 L554.4103,561.3693 L553.5234,563.7615 L551.7662,565.5566 L550.6706,567.8056 L548.8937,569.5872 L547.6753,571.7519 L547.6493,571.736 L546.6733,574.0213 L545.0906,575.9354 L543.8658,578.0686 L542.6712,580.2202 L541.2596,582.2391 L541.4227,582.3264 L540.1062,584.3904 L539.0683,586.6037 L537.5796,588.5756 L536.7634,590.9075 L535.5,593 L535.7243,593.0952 L534.1272,596.7391 L532.6415,600.4302 L530.6384,603.9017 L529.0146,607.5342 L527.7268,611.3094 L527.4647,611.2223 L527.0684,613.2083 L526.3768,615.0962 L526.1135,617.1264 L525.1188,618.9136 L524.5589,620.8453 L524.4121,620.8041 L524.1116,622.8167 L523.1835,624.6533 L522.7017,626.6151 L522.6565,628.6993 L521.8338,630.5655 L522.0223,630.6097 L521.6896,632.6104 L520.7706,634.4737 L520.5859,636.5091 L520.2413,638.507 L519.5239,640.4176 L519.3177,640.3777 L519.0977,642.3958 L518.8101,644.4008 L518.6551,646.4316 L517.9845,648.3625 L517.602,650.3492 L517.8051,650.381 L517.0465,652.3028 L516.68,654.286 L516.8863,656.359 L516.0381,658.2668 L516.0406,660.3079 L516.2651,660.3356 L515.8861,662.3058 L515.4312,664.2666 L515.1477,666.2486 L515.2605,668.2796 L514.8125,670.2413 L514.6799,670.2306 L514.7615,674.1785 L513.9412,678.0542 L514.1464,682.0119 L513.7742,685.9235 L513.2465,689.8226 L513.3553,689.8258 L513.1552,693.5935 L513.3447,697.3727 L513.1822,701.1415 L512.8725,704.9059 L512.685,708.6739 L512.8042,708.6754 L512.6719,712.2136 L513.0931,715.7588 L512.8883,719.2961 L512.941,722.8366 L512.9091,726.3761 L512.6391,726.3629 L512.8874,729.5941 L513.4611,732.8412 L513.5744,736.0658 L513.5228,739.2823 L513.7,742.51 " fill="none" style="stroke:#181818;stroke-width:1.0;"/><polygon fill="#181818" points="514.08,747.85,514.1459,747.8738,514.6195,745.9505,515.4793,744.1668,516.2133,742.3376,516.5337,740.359,517.4267,738.5872,517.4071,738.5702,516.5785,739.3492,515.8485,740.2137,515.1872,741.1377,514.2894,741.8568,513.7227,742.8628,513.8436,743.0023,512.7301,741.9632,511.9694,741.3314,511.2517,740.7492,510.2836,739.878,509.4472,739.1588,509.4672,739.1695,510.3643,740.892,511.3528,742.6633,512.2972,744.411,513.3257,746.2036,514.08,747.85" style="stroke:#181818;stroke-width:1.0;"/><text fill="#000000" font-family="FG Virgil" font-size="13" lengthAdjust="spacing" textLength="32" x="536.5" y="645.4951">postIt</text></g><!--MD5=[c1d64969c1e6637ffbfc0335cb94ce1b]
link PostItService to Board--><g id="link_PostItService_Board"><path d="M788.49,515.22 L788.5598,515.2821 L791.0059,518.0816 L793.8612,521.2451 L796.5832,524.29 L798.8671,526.9453 L801.7575,530.14 L801.7313,530.1175 L804.1621,532.9886 L806.7251,535.973 L809.38,539.0363 L811.7182,541.828 L814.5,545 L814.6904,545.1558 L816.2785,547.2614 L818.4225,549.8219 L820.6344,552.4379 L822.4515,554.731 L824.4763,557.1939 L824.5002,557.2125 L826.4314,559.7049 L828.4714,562.2822 L830.459,564.8185 L832.5467,567.433 L834.3077,569.7926 L834.5466,569.9712 L836.4819,572.5579 L838.2632,575.0293 L840.27,577.6694 L842.2874,580.3174 L843.9698,582.715 L843.7096,582.5278 L846.1083,585.524 L847.6502,587.9039 L849.8434,590.7523 L851.3659,593.1183 L853.4381,595.8797 L853.4131,595.8623 L855.5589,598.7328 L857.1204,601.1977 L859.0266,603.9019 L860.9618,606.6262 L862.6882,609.2055 L862.8418,609.3087 L864.4883,611.8857 L866.3972,614.639 L867.8815,617.1071 L869.9991,620.0006 L871.6957,622.6113 L871.8998,622.7444 L873.6093,625.4001 L875.4201,628.1219 L876.7601,630.5367 L878.4452,633.1765 L880.4361,636.0157 L880.2029,635.8678 L882.1038,638.666 L883.7419,641.2976 L885.7612,644.171 L887.1297,646.6316 L888.885,649.3375 L888.7553,649.2573 L890.5979,652.0224 L891.8861,654.4449 L893.5685,657.111 L895.6367,660.0155 L897.018,662.4955 L897.1837,662.5955 L898.856,665.2467 L900.0125,667.5868 L901.815,670.3165 L903.4767,672.9614 L904.8105,675.4084 L904.6293,675.3025 L907.667,680.34 L910.6454,685.3429 L913.7405,690.4139 L916.382,695.22 L919.2769,700.1741 L919.4561,700.2747 L921.6246,704.6156 L924.1391,709.1509 L927.159,713.97 L929.2484,718.2664 L932.0885,722.9846 L932.2873,723.0924 L934.3615,727.0694 L936.3684,731.01 L938.5272,735.0329 L941.0369,739.2461 L943.05,743.19 " fill="none" style="stroke:#181818;stroke-width:1.0;"/><polygon fill="#181818" points="945.55,747.91,945.6199,747.9149,945.275,745.9354,945.3398,743.9845,945.2713,742.0243,944.7639,740.0335,944.8639,738.0851,944.8392,738.0775,944.3964,739.1251,944.0785,740.211,943.8474,741.3235,943.3172,742.3443,943.206,743.4935,943.2601,743.6699,942.0627,742.961,941.0233,742.7673,940.0031,742.6364,938.8708,742.1398,937.7975,741.8355,937.8116,741.8534,939.3415,743.042,940.9352,744.3122,942.4982,745.543,944.1199,746.8488,945.55,747.91" style="stroke:#181818;stroke-width:1.0;"/><text fill="#000000" font-family="FG Virgil" font-size="13" lengthAdjust="spacing" textLength="32" x="912.5" y="645.4951">board</text></g><!--MD5=[b971edb82dc24740db2731fe11e7662c]
@startuml
'http://plantuml.com/skinparam.html
skinparam handwritten true
skinparam monochrome true
skinparam packageStyle rect
skinparam defaultFontName FG Virgil
skinparam shadowing false


class HttpServerAjax <<http server>>
class DeletePostItController <<application>>
class SessionManager
class PostItService <<service>>
class PostItFactory <<factory>>
class PostItRepository <<repository>>
class BoardRepository <<repository>>
class PostIt <<domain>>
class User <<domain>>
class Board <<domain>>


HttpServerAjax - -> DeletePostItController: theController
HttpServerAjax - -> SessionManager: sessionManager
SessionManager ..> User
DeletePostItController - -> PostItService: postItSvc
PostItService - -> PostItFactory: postItFactory
PostItService - -> PostItRepository: postItRepository
PostItService - -> BoardRepository: boardRepository
PostItFactory - -> PostIt
PostItRepository - -> PostIt
BoardRepository - -> Board
PostItService - -> PostIt: postIt
PostItService - -> Board: board



HttpServerAjax : deletePostIt(PostItBody, String)
HttpServerAjax : generateLockKey(PostItBody)
HttpServerAjax : getOrCreateLockObject(String)
SessionManager : getUserByToken(String)
DeletePostItController : deletePostIt(String, String, String, User)
PostItService : changePostIt(String, String, String, String, User, PostItState)
PostItService : checkIfIsRowEntryTitle(String, Board)
PostItService : checkIfIsColumnEntryTitle(String, Board)
PostItService : postItByPosition(String, String, Board, boolean)
PostItService : checkForUserOwnership(User, Board, PostIt)
PostItService : isNumeric(String)
PostItFactory : createChange(String, String, String, User, Board, PostItState, PostIt)
BoardRepository : ofIdentity(Long)
Board : userHasPermission(User, AccessLevel)
PostItRepository : positByPosition(String, String, Board)
PostItRepository : save(PostIt)
PostIt : PostIt(PostItContent, PostItRow, PostItColumn, User, Board, PostItState, PostIt)


@enduml

@startuml
skinparam handwritten true
skinparam monochrome true
skinparam packageStyle rect
skinparam defaultFontName FG Virgil
skinparam shadowing false


class HttpServerAjax <<http server>>
class DeletePostItController <<application>>
class SessionManager
class PostItService <<service>>
class PostItFactory <<factory>>
class PostItRepository <<repository>>
class BoardRepository <<repository>>
class PostIt <<domain>>
class User <<domain>>
class Board <<domain>>


HttpServerAjax - -> DeletePostItController: theController
HttpServerAjax - -> SessionManager: sessionManager
SessionManager ..> User
DeletePostItController - -> PostItService: postItSvc
PostItService - -> PostItFactory: postItFactory
PostItService - -> PostItRepository: postItRepository
PostItService - -> BoardRepository: boardRepository
PostItFactory - -> PostIt
PostItRepository - -> PostIt
BoardRepository - -> Board
PostItService - -> PostIt: postIt
PostItService - -> Board: board



HttpServerAjax : deletePostIt(PostItBody, String)
HttpServerAjax : generateLockKey(PostItBody)
HttpServerAjax : getOrCreateLockObject(String)
SessionManager : getUserByToken(String)
DeletePostItController : deletePostIt(String, String, String, User)
PostItService : changePostIt(String, String, String, String, User, PostItState)
PostItService : checkIfIsRowEntryTitle(String, Board)
PostItService : checkIfIsColumnEntryTitle(String, Board)
PostItService : postItByPosition(String, String, Board, boolean)
PostItService : checkForUserOwnership(User, Board, PostIt)
PostItService : isNumeric(String)
PostItFactory : createChange(String, String, String, User, Board, PostItState, PostIt)
BoardRepository : ofIdentity(Long)
Board : userHasPermission(User, AccessLevel)
PostItRepository : positByPosition(String, String, Board)
PostItRepository : save(PostIt)
PostIt : PostIt(PostItContent, PostItRow, PostItColumn, User, Board, PostItState, PostIt)


@enduml

PlantUML version 1.2022.7(Mon Aug 22 18:01:30 BST 2022)
(GPL source distribution)
Java Runtime: Java(TM) SE Runtime Environment
JVM: Java HotSpot(TM) 64-Bit Server VM
Default Encoding: Cp1252
Language: pt
Country: PT
--></g></svg>