<?xml version="1.0" encoding="us-ascii" standalone="no"?><svg xmlns="http://www.w3.org/2000/svg" xmlns:xlink="http://www.w3.org/1999/xlink" contentStyleType="text/css" height="1446px" preserveAspectRatio="none" style="width:1610px;height:1446px;background:#FFFFFF;" version="1.1" viewBox="0 0 1610 1446" width="1610px" zoomAndPan="magnify"><defs/><g><rect fill="#FFFFFF" height="1226.9766" style="stroke:#181818;stroke-width:1.0;" width="10" x="311.5" y="115.2871"/><rect fill="#FFFFFF" height="87.9316" style="stroke:#181818;stroke-width:1.0;" width="10" x="614.5" y="566.9004"/><rect fill="#FFFFFF" height="87.9316" style="stroke:#181818;stroke-width:1.0;" width="10" x="614.5" y="699.0977"/><rect fill="#FFFFFF" height="231.1738" style="stroke:#181818;stroke-width:1.0;" width="10" x="614.5" y="816.3398"/><rect fill="#FFFFFF" height="87.9316" style="stroke:#181818;stroke-width:1.0;" width="10" x="614.5" y="1091.7793"/><rect fill="#FFFFFF" height="87.9316" style="stroke:#181818;stroke-width:1.0;" width="10" x="614.5" y="1209.0215"/><rect fill="#FFFFFF" height="29.3105" style="stroke:#181818;stroke-width:1.0;" width="10" x="897.5" y="596.2109"/><rect fill="#FFFFFF" height="29.3105" style="stroke:#181818;stroke-width:1.0;" width="10" x="897.5" y="728.4082"/><rect fill="#FFFFFF" height="29.3105" style="stroke:#181818;stroke-width:1.0;" width="10" x="897.5" y="845.6504"/><rect fill="#FFFFFF" height="29.3105" style="stroke:#181818;stroke-width:1.0;" width="10" x="897.5" y="946.582"/><rect fill="#FFFFFF" height="29.3105" style="stroke:#181818;stroke-width:1.0;" width="10" x="897.5" y="1121.0898"/><rect fill="#FFFFFF" height="29.3105" style="stroke:#181818;stroke-width:1.0;" width="10" x="897.5" y="1238.332"/><rect fill="#FFFFFF" height="29.3105" style="stroke:#181818;stroke-width:1.0;" width="10" x="1026.5" y="144.5977"/><rect fill="#FFFFFF" height="29.3105" style="stroke:#181818;stroke-width:1.0;" width="10" x="1170" y="203.2188"/><rect fill="#FFFFFF" height="29.3105" style="stroke:#181818;stroke-width:1.0;" width="10" x="1307" y="425.3477"/><rect fill="#FFFFFF" height="29.3105" style="stroke:#181818;stroke-width:1.0;" width="10" x="1398.5" y="483.9688"/><rect fill="#FFFFFF" height="97.8867" style="stroke:#181818;stroke-width:1.0;" width="10" x="1552" y="261.8398"/><rect fill="none" height="120.1973" style="stroke:#000000;stroke-width:1.5;" width="1593.5" x="10" y="276.8398"/><rect fill="none" height="776.6738" style="stroke:#000000;stroke-width:1.5;" width="727.5" x="249" y="528.2793"/><line style="stroke:#181818;stroke-width:0.5;stroke-dasharray:5.0,5.0;" x1="38" x2="38" y1="83.9766" y2="1351.2637"/><line style="stroke:#181818;stroke-width:0.5;stroke-dasharray:5.0,5.0;" x1="316" x2="316" y1="83.9766" y2="1351.2637"/><line style="stroke:#181818;stroke-width:0.5;stroke-dasharray:5.0,5.0;" x1="619" x2="619" y1="83.9766" y2="1351.2637"/><line style="stroke:#181818;stroke-width:0.5;stroke-dasharray:5.0,5.0;" x1="902.5" x2="902.5" y1="83.9766" y2="1351.2637"/><line style="stroke:#181818;stroke-width:0.5;stroke-dasharray:5.0,5.0;" x1="1031.5" x2="1031.5" y1="83.9766" y2="1351.2637"/><line style="stroke:#181818;stroke-width:0.5;stroke-dasharray:5.0,5.0;" x1="1174.5" x2="1174.5" y1="83.9766" y2="1351.2637"/><line style="stroke:#181818;stroke-width:0.5;stroke-dasharray:5.0,5.0;" x1="1311.5" x2="1311.5" y1="83.9766" y2="1351.2637"/><line style="stroke:#181818;stroke-width:0.5;stroke-dasharray:5.0,5.0;" x1="1403.5" x2="1403.5" y1="83.9766" y2="1351.2637"/><line style="stroke:#181818;stroke-width:0.5;stroke-dasharray:5.0,5.0;" x1="1478.5" x2="1478.5" y1="83.9766" y2="1351.2637"/><line style="stroke:#181818;stroke-width:0.5;stroke-dasharray:5.0,5.0;" x1="1556.5" x2="1556.5" y1="83.9766" y2="1351.2637"/><text fill="#000000" font-family="sans-serif" font-size="14" lengthAdjust="spacing" textLength="31" x="20" y="81.0234">User</text><ellipse cx="38.5" cy="15.9883" fill="#E2E2F0" rx="8" ry="8" style="stroke:#181818;stroke-width:0.5;"/><path d="M38.5,23.9883 L38.5,50.9883 M25.5,31.9883 L51.5,31.9883 M38.5,50.9883 L25.5,65.9883 M38.5,50.9883 L51.5,65.9883 " fill="none" style="stroke:#181818;stroke-width:0.5;"/><text fill="#000000" font-family="sans-serif" font-size="14" lengthAdjust="spacing" textLength="31" x="20" y="1363.7988">User</text><ellipse cx="38.5" cy="1375.252" fill="#E2E2F0" rx="8" ry="8" style="stroke:#181818;stroke-width:0.5;"/><path d="M38.5,1383.252 L38.5,1410.252 M25.5,1391.252 L51.5,1391.252 M38.5,1410.252 L25.5,1425.252 M38.5,1410.252 L51.5,1425.252 " fill="none" style="stroke:#181818;stroke-width:0.5;"/><rect fill="#E2E2F0" height="46.9766" rx="2.5" ry="2.5" style="stroke:#181818;stroke-width:0.5;" width="115" x="259" y="36"/><text fill="#000000" font-family="sans-serif" font-size="14" font-style="italic" lengthAdjust="spacing" textLength="101" x="266" y="56.5352">&#171;presentation&#187;</text><text fill="#000000" font-family="sans-serif" font-size="14" lengthAdjust="spacing" textLength="93" x="270" y="73.0234">ListCoursesUI</text><rect fill="#E2E2F0" height="46.9766" rx="2.5" ry="2.5" style="stroke:#181818;stroke-width:0.5;" width="115" x="259" y="1350.2637"/><text fill="#000000" font-family="sans-serif" font-size="14" font-style="italic" lengthAdjust="spacing" textLength="101" x="266" y="1370.7988">&#171;presentation&#187;</text><text fill="#000000" font-family="sans-serif" font-size="14" lengthAdjust="spacing" textLength="93" x="270" y="1387.2871">ListCoursesUI</text><rect fill="#E2E2F0" height="46.9766" rx="2.5" ry="2.5" style="stroke:#181818;stroke-width:0.5;" width="195" x="522" y="36"/><text fill="#000000" font-family="sans-serif" font-size="14" font-style="italic" lengthAdjust="spacing" textLength="81" x="579" y="56.5352">&#171;controller&#187;</text><text fill="#000000" font-family="sans-serif" font-size="14" lengthAdjust="spacing" textLength="181" x="529" y="73.0234">RetrieveCoursesController</text><rect fill="#E2E2F0" height="46.9766" rx="2.5" ry="2.5" style="stroke:#181818;stroke-width:0.5;" width="195" x="522" y="1350.2637"/><text fill="#000000" font-family="sans-serif" font-size="14" font-style="italic" lengthAdjust="spacing" textLength="81" x="579" y="1370.7988">&#171;controller&#187;</text><text fill="#000000" font-family="sans-serif" font-size="14" lengthAdjust="spacing" textLength="181" x="529" y="1387.2871">RetrieveCoursesController</text><text fill="#000000" font-family="sans-serif" font-size="14" font-style="italic" lengthAdjust="spacing" textLength="84" x="857.5" y="64.5352">&#171;repository&#187;</text><text fill="#000000" font-family="sans-serif" font-size="14" lengthAdjust="spacing" textLength="122" x="838.5" y="81.0234">CourseRepository</text><path d="M884.5,15 C884.5,5 902.5,5 902.5,5 C902.5,5 920.5,5 920.5,15 L920.5,41 C920.5,51 902.5,51 902.5,51 C902.5,51 884.5,51 884.5,41 L884.5,15 " fill="#E2E2F0" style="stroke:#181818;stroke-width:1.5;"/><path d="M884.5,15 C884.5,25 902.5,25 902.5,25 C902.5,25 920.5,25 920.5,15 " fill="none" style="stroke:#181818;stroke-width:1.5;"/><text fill="#000000" font-family="sans-serif" font-size="14" font-style="italic" lengthAdjust="spacing" textLength="84" x="857.5" y="1363.7988">&#171;repository&#187;</text><text fill="#000000" font-family="sans-serif" font-size="14" lengthAdjust="spacing" textLength="122" x="838.5" y="1380.2871">CourseRepository</text><path d="M884.5,1393.2402 C884.5,1383.2402 902.5,1383.2402 902.5,1383.2402 C902.5,1383.2402 920.5,1383.2402 920.5,1393.2402 L920.5,1419.2402 C920.5,1429.2402 902.5,1429.2402 902.5,1429.2402 C902.5,1429.2402 884.5,1429.2402 884.5,1419.2402 L884.5,1393.2402 " fill="#E2E2F0" style="stroke:#181818;stroke-width:1.5;"/><path d="M884.5,1393.2402 C884.5,1403.2402 902.5,1403.2402 902.5,1403.2402 C902.5,1403.2402 920.5,1403.2402 920.5,1393.2402 " fill="none" style="stroke:#181818;stroke-width:1.5;"/><rect fill="#E2E2F0" height="46.9766" rx="2.5" ry="2.5" style="stroke:#181818;stroke-width:0.5;" width="110" x="976.5" y="36"/><text fill="#000000" font-family="sans-serif" font-size="14" font-style="italic" lengthAdjust="spacing" textLength="52" x="1005.5" y="56.5352">&#171;utility&#187;</text><text fill="#000000" font-family="sans-serif" font-size="14" lengthAdjust="spacing" textLength="96" x="983.5" y="73.0234">AuthzRegistry</text><rect fill="#E2E2F0" height="46.9766" rx="2.5" ry="2.5" style="stroke:#181818;stroke-width:0.5;" width="110" x="976.5" y="1350.2637"/><text fill="#000000" font-family="sans-serif" font-size="14" font-style="italic" lengthAdjust="spacing" textLength="52" x="1005.5" y="1370.7988">&#171;utility&#187;</text><text fill="#000000" font-family="sans-serif" font-size="14" lengthAdjust="spacing" textLength="96" x="983.5" y="1387.2871">AuthzRegistry</text><rect fill="#E2E2F0" height="46.9766" rx="2.5" ry="2.5" style="stroke:#181818;stroke-width:0.5;" width="157" x="1096.5" y="36"/><text fill="#000000" font-family="sans-serif" font-size="14" font-style="italic" lengthAdjust="spacing" textLength="61" x="1144.5" y="56.5352">&#171;service&#187;</text><text fill="#000000" font-family="sans-serif" font-size="14" lengthAdjust="spacing" textLength="143" x="1103.5" y="73.0234">AuthorizationService</text><rect fill="#E2E2F0" height="46.9766" rx="2.5" ry="2.5" style="stroke:#181818;stroke-width:0.5;" width="157" x="1096.5" y="1350.2637"/><text fill="#000000" font-family="sans-serif" font-size="14" font-style="italic" lengthAdjust="spacing" textLength="61" x="1144.5" y="1370.7988">&#171;service&#187;</text><text fill="#000000" font-family="sans-serif" font-size="14" lengthAdjust="spacing" textLength="143" x="1103.5" y="1387.2871">AuthorizationService</text><rect fill="#E2E2F0" height="46.9766" rx="2.5" ry="2.5" style="stroke:#181818;stroke-width:0.5;" width="97" x="1263.5" y="36"/><text fill="#000000" font-family="sans-serif" font-size="14" font-style="italic" lengthAdjust="spacing" textLength="52" x="1286" y="56.5352">&#171;utility&#187;</text><text fill="#000000" font-family="sans-serif" font-size="14" lengthAdjust="spacing" textLength="83" x="1270.5" y="73.0234">UserSession</text><rect fill="#E2E2F0" height="46.9766" rx="2.5" ry="2.5" style="stroke:#181818;stroke-width:0.5;" width="97" x="1263.5" y="1350.2637"/><text fill="#000000" font-family="sans-serif" font-size="14" font-style="italic" lengthAdjust="spacing" textLength="52" x="1286" y="1370.7988">&#171;utility&#187;</text><text fill="#000000" font-family="sans-serif" font-size="14" lengthAdjust="spacing" textLength="83" x="1270.5" y="1387.2871">UserSession</text><rect fill="#E2E2F0" height="46.9766" rx="2.5" ry="2.5" style="stroke:#181818;stroke-width:0.5;" width="66" x="1370.5" y="36"/><text fill="#000000" font-family="sans-serif" font-size="14" font-style="italic" lengthAdjust="spacing" textLength="52" x="1377.5" y="56.5352">&#171;entity&#187;</text><text fill="#000000" font-family="sans-serif" font-size="14" lengthAdjust="spacing" textLength="31" x="1388" y="73.0234">User</text><rect fill="#E2E2F0" height="46.9766" rx="2.5" ry="2.5" style="stroke:#181818;stroke-width:0.5;" width="66" x="1370.5" y="1350.2637"/><text fill="#000000" font-family="sans-serif" font-size="14" font-style="italic" lengthAdjust="spacing" textLength="52" x="1377.5" y="1370.7988">&#171;entity&#187;</text><text fill="#000000" font-family="sans-serif" font-size="14" lengthAdjust="spacing" textLength="31" x="1388" y="1387.2871">User</text><rect fill="#E2E2F0" height="46.9766" rx="2.5" ry="2.5" style="stroke:#181818;stroke-width:0.5;" width="64" x="1446.5" y="36"/><text fill="#000000" font-family="sans-serif" font-size="14" font-style="italic" lengthAdjust="spacing" textLength="50" x="1453.5" y="56.5352">&#171;value&#187;</text><text fill="#000000" font-family="sans-serif" font-size="14" lengthAdjust="spacing" textLength="30" x="1463.5" y="73.0234">Role</text><rect fill="#E2E2F0" height="46.9766" rx="2.5" ry="2.5" style="stroke:#181818;stroke-width:0.5;" width="64" x="1446.5" y="1350.2637"/><text fill="#000000" font-family="sans-serif" font-size="14" font-style="italic" lengthAdjust="spacing" textLength="50" x="1453.5" y="1370.7988">&#171;value&#187;</text><text fill="#000000" font-family="sans-serif" font-size="14" lengthAdjust="spacing" textLength="30" x="1463.5" y="1387.2871">Role</text><rect fill="#E2E2F0" height="46.9766" rx="2.5" ry="2.5" style="stroke:#181818;stroke-width:0.5;" width="73" x="1520.5" y="36"/><text fill="#000000" font-family="sans-serif" font-size="14" font-style="italic" lengthAdjust="spacing" textLength="52" x="1531" y="56.5352">&#171;utility&#187;</text><text fill="#000000" font-family="sans-serif" font-size="14" lengthAdjust="spacing" textLength="59" x="1527.5" y="73.0234">Optional</text><rect fill="#E2E2F0" height="46.9766" rx="2.5" ry="2.5" style="stroke:#181818;stroke-width:0.5;" width="73" x="1520.5" y="1350.2637"/><text fill="#000000" font-family="sans-serif" font-size="14" font-style="italic" lengthAdjust="spacing" textLength="52" x="1531" y="1370.7988">&#171;utility&#187;</text><text fill="#000000" font-family="sans-serif" font-size="14" lengthAdjust="spacing" textLength="59" x="1527.5" y="1387.2871">Optional</text><rect fill="#FFFFFF" height="1226.9766" style="stroke:#181818;stroke-width:1.0;" width="10" x="311.5" y="115.2871"/><rect fill="#FFFFFF" height="87.9316" style="stroke:#181818;stroke-width:1.0;" width="10" x="614.5" y="566.9004"/><rect fill="#FFFFFF" height="87.9316" style="stroke:#181818;stroke-width:1.0;" width="10" x="614.5" y="699.0977"/><rect fill="#FFFFFF" height="231.1738" style="stroke:#181818;stroke-width:1.0;" width="10" x="614.5" y="816.3398"/><rect fill="#FFFFFF" height="87.9316" style="stroke:#181818;stroke-width:1.0;" width="10" x="614.5" y="1091.7793"/><rect fill="#FFFFFF" height="87.9316" style="stroke:#181818;stroke-width:1.0;" width="10" x="614.5" y="1209.0215"/><rect fill="#FFFFFF" height="29.3105" style="stroke:#181818;stroke-width:1.0;" width="10" x="897.5" y="596.2109"/><rect fill="#FFFFFF" height="29.3105" style="stroke:#181818;stroke-width:1.0;" width="10" x="897.5" y="728.4082"/><rect fill="#FFFFFF" height="29.3105" style="stroke:#181818;stroke-width:1.0;" width="10" x="897.5" y="845.6504"/><rect fill="#FFFFFF" height="29.3105" style="stroke:#181818;stroke-width:1.0;" width="10" x="897.5" y="946.582"/><rect fill="#FFFFFF" height="29.3105" style="stroke:#181818;stroke-width:1.0;" width="10" x="897.5" y="1121.0898"/><rect fill="#FFFFFF" height="29.3105" style="stroke:#181818;stroke-width:1.0;" width="10" x="897.5" y="1238.332"/><rect fill="#FFFFFF" height="29.3105" style="stroke:#181818;stroke-width:1.0;" width="10" x="1026.5" y="144.5977"/><rect fill="#FFFFFF" height="29.3105" style="stroke:#181818;stroke-width:1.0;" width="10" x="1170" y="203.2188"/><rect fill="#FFFFFF" height="29.3105" style="stroke:#181818;stroke-width:1.0;" width="10" x="1307" y="425.3477"/><rect fill="#FFFFFF" height="29.3105" style="stroke:#181818;stroke-width:1.0;" width="10" x="1398.5" y="483.9688"/><rect fill="#FFFFFF" height="97.8867" style="stroke:#181818;stroke-width:1.0;" width="10" x="1552" y="261.8398"/><polygon fill="#181818" points="299.5,111.2871,309.5,115.2871,299.5,119.2871,303.5,115.2871" style="stroke:#181818;stroke-width:1.0;"/><line style="stroke:#181818;stroke-width:1.0;" x1="38.5" x2="305.5" y1="115.2871" y2="115.2871"/><text fill="#000000" font-family="sans-serif" font-size="13" font-weight="bold" lengthAdjust="spacing" textLength="9" x="45.5" y="110.5449">1</text><text fill="#000000" font-family="sans-serif" font-size="13" lengthAdjust="spacing" textLength="190" x="58.5" y="110.5449">wants to list available courses</text><polygon fill="#181818" points="1014.5,140.5977,1024.5,144.5977,1014.5,148.5977,1018.5,144.5977" style="stroke:#181818;stroke-width:1.0;"/><line style="stroke:#181818;stroke-width:1.0;" x1="321.5" x2="1020.5" y1="144.5977" y2="144.5977"/><text fill="#000000" font-family="sans-serif" font-size="13" font-weight="bold" lengthAdjust="spacing" textLength="9" x="328.5" y="139.8555">2</text><text fill="#000000" font-family="sans-serif" font-size="13" lengthAdjust="spacing" textLength="136" x="341.5" y="139.8555">authorizationService()</text><polygon fill="#181818" points="332.5,169.9082,322.5,173.9082,332.5,177.9082,328.5,173.9082" style="stroke:#181818;stroke-width:1.0;"/><line style="stroke:#181818;stroke-width:1.0;stroke-dasharray:2.0,2.0;" x1="326.5" x2="1030.5" y1="173.9082" y2="173.9082"/><text fill="#000000" font-family="sans-serif" font-size="13" font-weight="bold" lengthAdjust="spacing" textLength="9" x="338.5" y="169.166">3</text><text fill="#000000" font-family="sans-serif" font-size="13" lengthAdjust="spacing" textLength="56" x="351.5" y="169.166">authzSvc</text><polygon fill="#181818" points="1158,199.2188,1168,203.2188,1158,207.2188,1162,203.2188" style="stroke:#181818;stroke-width:1.0;"/><line style="stroke:#181818;stroke-width:1.0;" x1="321.5" x2="1164" y1="203.2188" y2="203.2188"/><text fill="#000000" font-family="sans-serif" font-size="13" font-weight="bold" lengthAdjust="spacing" textLength="9" x="328.5" y="198.4766">4</text><text fill="#000000" font-family="sans-serif" font-size="13" lengthAdjust="spacing" textLength="56" x="341.5" y="198.4766">session()</text><polygon fill="#181818" points="332.5,228.5293,322.5,232.5293,332.5,236.5293,328.5,232.5293" style="stroke:#181818;stroke-width:1.0;"/><line style="stroke:#181818;stroke-width:1.0;stroke-dasharray:2.0,2.0;" x1="326.5" x2="1174" y1="232.5293" y2="232.5293"/><text fill="#000000" font-family="sans-serif" font-size="13" font-weight="bold" lengthAdjust="spacing" textLength="9" x="338.5" y="227.7871">5</text><text fill="#000000" font-family="sans-serif" font-size="13" lengthAdjust="spacing" textLength="52" x="351.5" y="227.7871">optional</text><polygon fill="#181818" points="1540,257.8398,1550,261.8398,1540,265.8398,1544,261.8398" style="stroke:#181818;stroke-width:1.0;"/><line style="stroke:#181818;stroke-width:1.0;" x1="321.5" x2="1546" y1="261.8398" y2="261.8398"/><text fill="#000000" font-family="sans-serif" font-size="13" font-weight="bold" lengthAdjust="spacing" textLength="9" x="328.5" y="257.0977">6</text><text fill="#000000" font-family="sans-serif" font-size="13" lengthAdjust="spacing" textLength="70" x="341.5" y="257.0977">orElse(null)</text><path d="M10,276.8398 L72,276.8398 L72,284.1504 L62,294.1504 L10,294.1504 L10,276.8398 " fill="#EEEEEE" style="stroke:#000000;stroke-width:1.5;"/><rect fill="none" height="120.1973" style="stroke:#000000;stroke-width:1.5;" width="1593.5" x="10" y="276.8398"/><text fill="#000000" font-family="sans-serif" font-size="13" font-weight="bold" lengthAdjust="spacing" textLength="17" x="25" y="290.4082">alt</text><text fill="#000000" font-family="sans-serif" font-size="11" font-weight="bold" lengthAdjust="spacing" textLength="88" x="87" y="289.4746">[user is logged]</text><polygon fill="#181818" points="332.5,311.4609,322.5,315.4609,332.5,319.4609,328.5,315.4609" style="stroke:#181818;stroke-width:1.0;"/><line style="stroke:#181818;stroke-width:1.0;stroke-dasharray:2.0,2.0;" x1="326.5" x2="1551" y1="315.4609" y2="315.4609"/><text fill="#000000" font-family="sans-serif" font-size="13" font-weight="bold" lengthAdjust="spacing" textLength="9" x="338.5" y="310.7188">7</text><text fill="#000000" font-family="sans-serif" font-size="13" lengthAdjust="spacing" textLength="48" x="351.5" y="310.7188">session</text><line style="stroke:#000000;stroke-width:1.0;stroke-dasharray:2.0,2.0;" x1="10" x2="1603.5" y1="324.4609" y2="324.4609"/><text fill="#000000" font-family="sans-serif" font-size="11" font-weight="bold" lengthAdjust="spacing" textLength="110" x="15" y="335.0957">[user is not logged]</text><polygon fill="#181818" points="332.5,355.7266,322.5,359.7266,332.5,363.7266,328.5,359.7266" style="stroke:#181818;stroke-width:1.0;"/><line style="stroke:#181818;stroke-width:1.0;stroke-dasharray:2.0,2.0;" x1="326.5" x2="1556" y1="359.7266" y2="359.7266"/><text fill="#000000" font-family="sans-serif" font-size="13" font-weight="bold" lengthAdjust="spacing" textLength="9" x="338.5" y="354.9844">8</text><text fill="#000000" font-family="sans-serif" font-size="13" lengthAdjust="spacing" textLength="24" x="351.5" y="354.9844">null</text><polygon fill="#181818" points="49.5,385.0371,39.5,389.0371,49.5,393.0371,45.5,389.0371" style="stroke:#181818;stroke-width:1.0;"/><line style="stroke:#181818;stroke-width:1.0;stroke-dasharray:2.0,2.0;" x1="43.5" x2="310.5" y1="389.0371" y2="389.0371"/><text fill="#000000" font-family="sans-serif" font-size="13" font-weight="bold" lengthAdjust="spacing" textLength="9" x="55.5" y="384.2949">9</text><text fill="#000000" font-family="sans-serif" font-size="13" lengthAdjust="spacing" textLength="236" x="68.5" y="384.2949">asks user to log in to use this feature</text><polygon fill="#181818" points="1295,421.3477,1305,425.3477,1295,429.3477,1299,425.3477" style="stroke:#181818;stroke-width:1.0;"/><line style="stroke:#181818;stroke-width:1.0;" x1="321.5" x2="1301" y1="425.3477" y2="425.3477"/><text fill="#000000" font-family="sans-serif" font-size="13" font-weight="bold" lengthAdjust="spacing" textLength="18" x="328.5" y="420.6055">10</text><text fill="#000000" font-family="sans-serif" font-size="13" lengthAdjust="spacing" textLength="122" x="350.5" y="420.6055">authenticatedUser()</text><polygon fill="#181818" points="332.5,450.6582,322.5,454.6582,332.5,458.6582,328.5,454.6582" style="stroke:#181818;stroke-width:1.0;"/><line style="stroke:#181818;stroke-width:1.0;stroke-dasharray:2.0,2.0;" x1="326.5" x2="1311" y1="454.6582" y2="454.6582"/><text fill="#000000" font-family="sans-serif" font-size="13" font-weight="bold" lengthAdjust="spacing" textLength="18" x="338.5" y="449.916">11</text><text fill="#000000" font-family="sans-serif" font-size="13" lengthAdjust="spacing" textLength="63" x="360.5" y="449.916">userEntity</text><polygon fill="#181818" points="1386.5,479.9688,1396.5,483.9688,1386.5,487.9688,1390.5,483.9688" style="stroke:#181818;stroke-width:1.0;"/><line style="stroke:#181818;stroke-width:1.0;" x1="321.5" x2="1392.5" y1="483.9688" y2="483.9688"/><text fill="#000000" font-family="sans-serif" font-size="13" font-weight="bold" lengthAdjust="spacing" textLength="18" x="328.5" y="479.2266">12</text><text fill="#000000" font-family="sans-serif" font-size="13" lengthAdjust="spacing" textLength="32" x="350.5" y="479.2266">role()</text><polygon fill="#181818" points="332.5,509.2793,322.5,513.2793,332.5,517.2793,328.5,513.2793" style="stroke:#181818;stroke-width:1.0;"/><line style="stroke:#181818;stroke-width:1.0;stroke-dasharray:2.0,2.0;" x1="326.5" x2="1402.5" y1="513.2793" y2="513.2793"/><text fill="#000000" font-family="sans-serif" font-size="13" font-weight="bold" lengthAdjust="spacing" textLength="18" x="338.5" y="508.5371">13</text><text fill="#000000" font-family="sans-serif" font-size="13" lengthAdjust="spacing" textLength="61" x="360.5" y="508.5371">roleString</text><path d="M249,528.2793 L311,528.2793 L311,535.5898 L301,545.5898 L249,545.5898 L249,528.2793 " fill="#EEEEEE" style="stroke:#000000;stroke-width:1.5;"/><rect fill="none" height="776.6738" style="stroke:#000000;stroke-width:1.5;" width="727.5" x="249" y="528.2793"/><text fill="#000000" font-family="sans-serif" font-size="13" font-weight="bold" lengthAdjust="spacing" textLength="17" x="264" y="541.8477">alt</text><text fill="#000000" font-family="sans-serif" font-size="11" font-weight="bold" lengthAdjust="spacing" textLength="295" x="326" y="540.9141">[roleString.equals(CourseRoles.MANAGER.toString())]</text><polygon fill="#181818" points="602.5,562.9004,612.5,566.9004,602.5,570.9004,606.5,566.9004" style="stroke:#181818;stroke-width:1.0;"/><line style="stroke:#181818;stroke-width:1.0;" x1="321.5" x2="608.5" y1="566.9004" y2="566.9004"/><text fill="#000000" font-family="sans-serif" font-size="13" font-weight="bold" lengthAdjust="spacing" textLength="18" x="328.5" y="562.1582">14</text><text fill="#000000" font-family="sans-serif" font-size="13" lengthAdjust="spacing" textLength="96" x="350.5" y="562.1582">getAllCourses()</text><polygon fill="#181818" points="885.5,592.2109,895.5,596.2109,885.5,600.2109,889.5,596.2109" style="stroke:#181818;stroke-width:1.0;"/><line style="stroke:#181818;stroke-width:1.0;" x1="624.5" x2="891.5" y1="596.2109" y2="596.2109"/><text fill="#000000" font-family="sans-serif" font-size="13" font-weight="bold" lengthAdjust="spacing" textLength="18" x="631.5" y="591.4688">15</text><text fill="#000000" font-family="sans-serif" font-size="13" lengthAdjust="spacing" textLength="50" x="653.5" y="591.4688">findAll()</text><polygon fill="#181818" points="635.5,621.5215,625.5,625.5215,635.5,629.5215,631.5,625.5215" style="stroke:#181818;stroke-width:1.0;"/><line style="stroke:#181818;stroke-width:1.0;stroke-dasharray:2.0,2.0;" x1="629.5" x2="901.5" y1="625.5215" y2="625.5215"/><text fill="#000000" font-family="sans-serif" font-size="13" font-weight="bold" lengthAdjust="spacing" textLength="18" x="641.5" y="620.7793">16</text><text fill="#000000" font-family="sans-serif" font-size="13" lengthAdjust="spacing" textLength="49" x="663.5" y="620.7793">courses</text><polygon fill="#181818" points="332.5,650.832,322.5,654.832,332.5,658.832,328.5,654.832" style="stroke:#181818;stroke-width:1.0;"/><line style="stroke:#181818;stroke-width:1.0;stroke-dasharray:2.0,2.0;" x1="326.5" x2="618.5" y1="654.832" y2="654.832"/><text fill="#000000" font-family="sans-serif" font-size="13" font-weight="bold" lengthAdjust="spacing" textLength="18" x="338.5" y="650.0898">17</text><text fill="#000000" font-family="sans-serif" font-size="13" lengthAdjust="spacing" textLength="49" x="360.5" y="650.0898">courses</text><line style="stroke:#000000;stroke-width:1.0;stroke-dasharray:2.0,2.0;" x1="249" x2="976.5" y1="663.832" y2="663.832"/><text fill="#000000" font-family="sans-serif" font-size="11" font-weight="bold" lengthAdjust="spacing" textLength="292" x="254" y="674.4668">[roleString.equals(CourseRoles.STUDENT.toString())]</text><polygon fill="#181818" points="602.5,695.0977,612.5,699.0977,602.5,703.0977,606.5,699.0977" style="stroke:#181818;stroke-width:1.0;"/><line style="stroke:#181818;stroke-width:1.0;" x1="321.5" x2="608.5" y1="699.0977" y2="699.0977"/><text fill="#000000" font-family="sans-serif" font-size="13" font-weight="bold" lengthAdjust="spacing" textLength="18" x="328.5" y="694.3555">18</text><text fill="#000000" font-family="sans-serif" font-size="13" lengthAdjust="spacing" textLength="227" x="350.5" y="694.3555">getCoursesTakenByStudent(student)</text><polygon fill="#181818" points="885.5,724.4082,895.5,728.4082,885.5,732.4082,889.5,728.4082" style="stroke:#181818;stroke-width:1.0;"/><line style="stroke:#181818;stroke-width:1.0;" x1="624.5" x2="891.5" y1="728.4082" y2="728.4082"/><text fill="#000000" font-family="sans-serif" font-size="13" font-weight="bold" lengthAdjust="spacing" textLength="18" x="631.5" y="723.666">19</text><text fill="#000000" font-family="sans-serif" font-size="13" lengthAdjust="spacing" textLength="232" x="653.5" y="723.666">findCoursesTakenByStudent(student)</text><polygon fill="#181818" points="635.5,753.7188,625.5,757.7188,635.5,761.7188,631.5,757.7188" style="stroke:#181818;stroke-width:1.0;"/><line style="stroke:#181818;stroke-width:1.0;stroke-dasharray:2.0,2.0;" x1="629.5" x2="901.5" y1="757.7188" y2="757.7188"/><text fill="#000000" font-family="sans-serif" font-size="13" font-weight="bold" lengthAdjust="spacing" textLength="18" x="641.5" y="752.9766">20</text><text fill="#000000" font-family="sans-serif" font-size="13" lengthAdjust="spacing" textLength="86" x="663.5" y="752.9766">takenCourses</text><polygon fill="#181818" points="332.5,783.0293,322.5,787.0293,332.5,791.0293,328.5,787.0293" style="stroke:#181818;stroke-width:1.0;"/><line style="stroke:#181818;stroke-width:1.0;stroke-dasharray:2.0,2.0;" x1="326.5" x2="618.5" y1="787.0293" y2="787.0293"/><text fill="#000000" font-family="sans-serif" font-size="13" font-weight="bold" lengthAdjust="spacing" textLength="18" x="338.5" y="782.2871">21</text><text fill="#000000" font-family="sans-serif" font-size="13" lengthAdjust="spacing" textLength="86" x="360.5" y="782.2871">takenCourses</text><polygon fill="#181818" points="602.5,812.3398,612.5,816.3398,602.5,820.3398,606.5,816.3398" style="stroke:#181818;stroke-width:1.0;"/><line style="stroke:#181818;stroke-width:1.0;" x1="321.5" x2="608.5" y1="816.3398" y2="816.3398"/><text fill="#000000" font-family="sans-serif" font-size="13" font-weight="bold" lengthAdjust="spacing" textLength="18" x="328.5" y="811.5977">22</text><text fill="#000000" font-family="sans-serif" font-size="13" lengthAdjust="spacing" textLength="252" x="350.5" y="811.5977">getCoursesAvailableForStudent(student)</text><polygon fill="#181818" points="885.5,841.6504,895.5,845.6504,885.5,849.6504,889.5,845.6504" style="stroke:#181818;stroke-width:1.0;"/><line style="stroke:#181818;stroke-width:1.0;" x1="624.5" x2="891.5" y1="845.6504" y2="845.6504"/><text fill="#000000" font-family="sans-serif" font-size="13" font-weight="bold" lengthAdjust="spacing" textLength="18" x="631.5" y="840.9082">23</text><text fill="#000000" font-family="sans-serif" font-size="13" lengthAdjust="spacing" textLength="154" x="653.5" y="840.9082">findOpenForEnrollment()</text><polygon fill="#181818" points="635.5,870.9609,625.5,874.9609,635.5,878.9609,631.5,874.9609" style="stroke:#181818;stroke-width:1.0;"/><line style="stroke:#181818;stroke-width:1.0;stroke-dasharray:2.0,2.0;" x1="629.5" x2="901.5" y1="874.9609" y2="874.9609"/><text fill="#000000" font-family="sans-serif" font-size="13" font-weight="bold" lengthAdjust="spacing" textLength="18" x="641.5" y="870.2188">24</text><text fill="#000000" font-family="sans-serif" font-size="13" lengthAdjust="spacing" textLength="49" x="663.5" y="870.2188">courses</text><line style="stroke:#181818;stroke-width:1.0;" x1="624.5" x2="666.5" y1="904.2715" y2="904.2715"/><line style="stroke:#181818;stroke-width:1.0;" x1="666.5" x2="666.5" y1="904.2715" y2="917.2715"/><line style="stroke:#181818;stroke-width:1.0;" x1="625.5" x2="666.5" y1="917.2715" y2="917.2715"/><polygon fill="#181818" points="635.5,913.2715,625.5,917.2715,635.5,921.2715,631.5,917.2715" style="stroke:#181818;stroke-width:1.0;"/><text fill="#000000" font-family="sans-serif" font-size="13" font-weight="bold" lengthAdjust="spacing" textLength="18" x="631.5" y="899.5293">25</text><text fill="#000000" font-family="sans-serif" font-size="13" lengthAdjust="spacing" textLength="227" x="653.5" y="899.5293">getCoursesTakenByStudent(student)</text><polygon fill="#181818" points="885.5,942.582,895.5,946.582,885.5,950.582,889.5,946.582" style="stroke:#181818;stroke-width:1.0;"/><line style="stroke:#181818;stroke-width:1.0;" x1="624.5" x2="891.5" y1="946.582" y2="946.582"/><text fill="#000000" font-family="sans-serif" font-size="13" font-weight="bold" lengthAdjust="spacing" textLength="18" x="631.5" y="941.8398">26</text><text fill="#000000" font-family="sans-serif" font-size="13" lengthAdjust="spacing" textLength="232" x="653.5" y="941.8398">findCoursesTakenByStudent(student)</text><polygon fill="#181818" points="635.5,971.8926,625.5,975.8926,635.5,979.8926,631.5,975.8926" style="stroke:#181818;stroke-width:1.0;"/><line style="stroke:#181818;stroke-width:1.0;stroke-dasharray:2.0,2.0;" x1="629.5" x2="901.5" y1="975.8926" y2="975.8926"/><text fill="#000000" font-family="sans-serif" font-size="13" font-weight="bold" lengthAdjust="spacing" textLength="18" x="641.5" y="971.1504">27</text><text fill="#000000" font-family="sans-serif" font-size="13" lengthAdjust="spacing" textLength="86" x="663.5" y="971.1504">takenCourses</text><line style="stroke:#181818;stroke-width:1.0;" x1="624.5" x2="666.5" y1="1005.2031" y2="1005.2031"/><line style="stroke:#181818;stroke-width:1.0;" x1="666.5" x2="666.5" y1="1005.2031" y2="1018.2031"/><line style="stroke:#181818;stroke-width:1.0;" x1="625.5" x2="666.5" y1="1018.2031" y2="1018.2031"/><polygon fill="#181818" points="635.5,1014.2031,625.5,1018.2031,635.5,1022.2031,631.5,1018.2031" style="stroke:#181818;stroke-width:1.0;"/><text fill="#000000" font-family="sans-serif" font-size="13" font-weight="bold" lengthAdjust="spacing" textLength="18" x="631.5" y="1000.4609">28</text><text fill="#000000" font-family="sans-serif" font-size="13" lengthAdjust="spacing" textLength="210" x="653.5" y="1000.4609">courses.removeAll(takenCourses)</text><polygon fill="#181818" points="332.5,1043.5137,322.5,1047.5137,332.5,1051.5137,328.5,1047.5137" style="stroke:#181818;stroke-width:1.0;"/><line style="stroke:#181818;stroke-width:1.0;stroke-dasharray:2.0,2.0;" x1="326.5" x2="618.5" y1="1047.5137" y2="1047.5137"/><text fill="#000000" font-family="sans-serif" font-size="13" font-weight="bold" lengthAdjust="spacing" textLength="18" x="338.5" y="1042.7715">29</text><text fill="#000000" font-family="sans-serif" font-size="13" lengthAdjust="spacing" textLength="49" x="360.5" y="1042.7715">courses</text><line style="stroke:#000000;stroke-width:1.0;stroke-dasharray:2.0,2.0;" x1="249" x2="976.5" y1="1056.5137" y2="1056.5137"/><text fill="#000000" font-family="sans-serif" font-size="11" font-weight="bold" lengthAdjust="spacing" textLength="293" x="254" y="1067.1484">[roleString.equals(CourseRoles.TEACHER.toString())]</text><polygon fill="#181818" points="602.5,1087.7793,612.5,1091.7793,602.5,1095.7793,606.5,1091.7793" style="stroke:#181818;stroke-width:1.0;"/><line style="stroke:#181818;stroke-width:1.0;" x1="321.5" x2="608.5" y1="1091.7793" y2="1091.7793"/><text fill="#000000" font-family="sans-serif" font-size="13" font-weight="bold" lengthAdjust="spacing" textLength="18" x="328.5" y="1087.0371">30</text><text fill="#000000" font-family="sans-serif" font-size="13" lengthAdjust="spacing" textLength="186" x="350.5" y="1087.0371">getCoursesThatILead(teacher)</text><polygon fill="#181818" points="885.5,1117.0898,895.5,1121.0898,885.5,1125.0898,889.5,1121.0898" style="stroke:#181818;stroke-width:1.0;"/><line style="stroke:#181818;stroke-width:1.0;" x1="624.5" x2="891.5" y1="1121.0898" y2="1121.0898"/><text fill="#000000" font-family="sans-serif" font-size="13" font-weight="bold" lengthAdjust="spacing" textLength="18" x="631.5" y="1116.3477">31</text><text fill="#000000" font-family="sans-serif" font-size="13" lengthAdjust="spacing" textLength="191" x="653.5" y="1116.3477">findCoursesThatILead(teacher)</text><polygon fill="#181818" points="635.5,1146.4004,625.5,1150.4004,635.5,1154.4004,631.5,1150.4004" style="stroke:#181818;stroke-width:1.0;"/><line style="stroke:#181818;stroke-width:1.0;stroke-dasharray:2.0,2.0;" x1="629.5" x2="901.5" y1="1150.4004" y2="1150.4004"/><text fill="#000000" font-family="sans-serif" font-size="13" font-weight="bold" lengthAdjust="spacing" textLength="18" x="641.5" y="1145.6582">32</text><text fill="#000000" font-family="sans-serif" font-size="13" lengthAdjust="spacing" textLength="97" x="663.5" y="1145.6582">leadingCourses</text><polygon fill="#181818" points="332.5,1175.7109,322.5,1179.7109,332.5,1183.7109,328.5,1179.7109" style="stroke:#181818;stroke-width:1.0;"/><line style="stroke:#181818;stroke-width:1.0;stroke-dasharray:2.0,2.0;" x1="326.5" x2="618.5" y1="1179.7109" y2="1179.7109"/><text fill="#000000" font-family="sans-serif" font-size="13" font-weight="bold" lengthAdjust="spacing" textLength="18" x="338.5" y="1174.9688">33</text><text fill="#000000" font-family="sans-serif" font-size="13" lengthAdjust="spacing" textLength="97" x="360.5" y="1174.9688">leadingCourses</text><polygon fill="#181818" points="602.5,1205.0215,612.5,1209.0215,602.5,1213.0215,606.5,1209.0215" style="stroke:#181818;stroke-width:1.0;"/><line style="stroke:#181818;stroke-width:1.0;" x1="321.5" x2="608.5" y1="1209.0215" y2="1209.0215"/><text fill="#000000" font-family="sans-serif" font-size="13" font-weight="bold" lengthAdjust="spacing" textLength="18" x="328.5" y="1204.2793">34</text><text fill="#000000" font-family="sans-serif" font-size="13" lengthAdjust="spacing" textLength="194" x="350.5" y="1204.2793">getCoursesThatITeach(teacher)</text><polygon fill="#181818" points="885.5,1234.332,895.5,1238.332,885.5,1242.332,889.5,1238.332" style="stroke:#181818;stroke-width:1.0;"/><line style="stroke:#181818;stroke-width:1.0;" x1="624.5" x2="891.5" y1="1238.332" y2="1238.332"/><text fill="#000000" font-family="sans-serif" font-size="13" font-weight="bold" lengthAdjust="spacing" textLength="18" x="631.5" y="1233.5898">35</text><text fill="#000000" font-family="sans-serif" font-size="13" lengthAdjust="spacing" textLength="199" x="653.5" y="1233.5898">findCoursesThatITeach(teacher)</text><polygon fill="#181818" points="635.5,1263.6426,625.5,1267.6426,635.5,1271.6426,631.5,1267.6426" style="stroke:#181818;stroke-width:1.0;"/><line style="stroke:#181818;stroke-width:1.0;stroke-dasharray:2.0,2.0;" x1="629.5" x2="901.5" y1="1267.6426" y2="1267.6426"/><text fill="#000000" font-family="sans-serif" font-size="13" font-weight="bold" lengthAdjust="spacing" textLength="18" x="641.5" y="1262.9004">36</text><text fill="#000000" font-family="sans-serif" font-size="13" lengthAdjust="spacing" textLength="105" x="663.5" y="1262.9004">teachingCourses</text><polygon fill="#181818" points="332.5,1292.9531,322.5,1296.9531,332.5,1300.9531,328.5,1296.9531" style="stroke:#181818;stroke-width:1.0;"/><line style="stroke:#181818;stroke-width:1.0;stroke-dasharray:2.0,2.0;" x1="326.5" x2="618.5" y1="1296.9531" y2="1296.9531"/><text fill="#000000" font-family="sans-serif" font-size="13" font-weight="bold" lengthAdjust="spacing" textLength="18" x="338.5" y="1292.2109">37</text><text fill="#000000" font-family="sans-serif" font-size="13" lengthAdjust="spacing" textLength="105" x="360.5" y="1292.2109">teachingCourses</text><polygon fill="#181818" points="49.5,1329.2637,39.5,1333.2637,49.5,1337.2637,45.5,1333.2637" style="stroke:#181818;stroke-width:1.0;"/><line style="stroke:#181818;stroke-width:1.0;stroke-dasharray:2.0,2.0;" x1="43.5" x2="310.5" y1="1333.2637" y2="1333.2637"/><text fill="#000000" font-family="sans-serif" font-size="13" font-weight="bold" lengthAdjust="spacing" textLength="18" x="55.5" y="1328.5215">38</text><text fill="#000000" font-family="sans-serif" font-size="13" lengthAdjust="spacing" textLength="188" x="77.5" y="1328.5215">shows correspondent courses</text><!--SRC=[nLR1Rjim3BthAtHC3iq71461BCks0bqB9Ea7g3QR25KbJw9Tj5y_Kh8TnKZIT1kmN69Bxv6FZxHiLQEpzSiZU25KWSxBXm1UgY3hm6kLygWBNIcBybO7NBZQ1mWFDn6YvMnMUGXWKQ5szlhwWB02z1eQQ4aBPz4xOrBy0hqXUj4l4hbKg1vL09aOAwXSq2JgZGcUxeZW-qKY7AIRrxXxNy6MP7QCzdesgr4RZMy3WSnmNhz7yMlmZIw0YOeZ4IkafG6B7Lf32CHXS6WlJoN93LrQ90118LuC_N8cflVyFvirojGmBFA-OgtACCvLU91L2CuXhwwvCrFvIlWWqKb3BaZLA6tK8qKkKZjYmtMZ40XELCt4th9fD65epcYy9tLG8NhILPSw6hXk2b724NnAbKoUTlxbeUEMI80-fcihpsCcO1kGxI2ONve08riRCyvAf4swCnZR87MGncstK0eczIbQAG8eGW-q3e-2EKEkXJEm4DvdAhaGdbFROnFSLchBLxGYSKUHdq1XxK60BONegkZ6APd8Sr9Gz9AdABUeazh1UrdxCSl5TV2K8nl5QPosF78M8CFryHc-fkVQRlFu6Icwl4TDu5UjJ1YrZpIjXydF-Tty-t8rGPSme_6uLHPFXQdS0iwDQS-DN1plYmYAmqedmbG-QLiI-d0sAoVYzjK-Q3Vt1pD9k1Ikg-y8AYQDCt6-hFNcuUloRdEshBQcZNe6- -LjZNL9BHw5z7z1ePVoZpg0p5fSPCCfQDHregXvTyHyS_xpbTrNO8cujFmwU67ktpNq4wx_1v-7HKmylBW6U8vpzlZVJUTcEL_y-E2XwwhUARov1LMEaFBim7zYCCzGZtfb24jgBflAq-1pSnarRLZE7zPpYdky-GoxkA8pwDHOMqewKCNWrH9sxfM-ePodhw_AMHxA_NkTVhy1]--></g></svg>