<?xml version="1.0" encoding="us-ascii" standalone="no"?><svg xmlns="http://www.w3.org/2000/svg" xmlns:xlink="http://www.w3.org/1999/xlink" contentStyleType="text/css" height="795px" preserveAspectRatio="none" style="width:978px;height:795px;background:#FFFFFF;" version="1.1" viewBox="0 0 978 795" width="978px" zoomAndPan="magnify"><defs/><g><!--class AuthzRegistry--><g id="elem_AuthzRegistry"><rect codeLine="3" fill="#F1F1F1" height="56.6211" id="AuthzRegistry" rx="2.5" ry="2.5" style="stroke:#181818;stroke-width:0.5;" width="128" x="369" y="7"/><ellipse cx="384" cy="27.3105" fill="#ADD1B2" rx="11" ry="11" style="stroke:#181818;stroke-width:1.0;"/><path d="M386.9731,32.9536 Q386.3921,33.2524 385.7529,33.4019 Q385.1138,33.5513 384.4082,33.5513 Q381.9014,33.5513 380.5815,31.8994 Q379.2617,30.2476 379.2617,27.1265 Q379.2617,23.9971 380.5815,22.3452 Q381.9014,20.6934 384.4082,20.6934 Q385.1138,20.6934 385.7612,20.8428 Q386.4087,20.9922 386.9731,21.291 L386.9731,24.0137 Q386.3423,23.4326 385.7488,23.1628 Q385.1553,22.8931 384.5244,22.8931 Q383.1797,22.8931 382.4949,23.9597 Q381.8101,25.0264 381.8101,27.1265 Q381.8101,29.2183 382.4949,30.2849 Q383.1797,31.3516 384.5244,31.3516 Q385.1553,31.3516 385.7488,31.0818 Q386.3423,30.812 386.9731,30.231 Z " fill="#000000"/><text fill="#000000" font-family="sans-serif" font-size="12" font-style="italic" lengthAdjust="spacing" textLength="43" x="424.5" y="23.6016">&#171;Utility&#187;</text><text fill="#000000" font-family="sans-serif" font-size="14" lengthAdjust="spacing" textLength="96" x="398" y="39.668">AuthzRegistry</text><line style="stroke:#181818;stroke-width:0.5;" x1="370" x2="496" y1="47.6211" y2="47.6211"/><line style="stroke:#181818;stroke-width:0.5;" x1="370" x2="496" y1="55.6211" y2="55.6211"/></g><!--class AuthenticationService--><g id="elem_AuthenticationService"><rect codeLine="7" fill="#F1F1F1" height="73.1094" id="AuthenticationService" rx="2.5" ry="2.5" style="stroke:#181818;stroke-width:0.5;" width="181" x="459.5" y="124"/><ellipse cx="474.5" cy="144.3105" fill="#ADD1B2" rx="11" ry="11" style="stroke:#181818;stroke-width:1.0;"/><path d="M477.4731,149.9536 Q476.8921,150.2524 476.2529,150.4019 Q475.6138,150.5513 474.9082,150.5513 Q472.4014,150.5513 471.0815,148.8994 Q469.7617,147.2476 469.7617,144.1265 Q469.7617,140.9971 471.0815,139.3452 Q472.4014,137.6934 474.9082,137.6934 Q475.6138,137.6934 476.2612,137.8428 Q476.9087,137.9922 477.4731,138.291 L477.4731,141.0137 Q476.8423,140.4326 476.2488,140.1628 Q475.6553,139.8931 475.0244,139.8931 Q473.6797,139.8931 472.9949,140.9597 Q472.3101,142.0264 472.3101,144.1265 Q472.3101,146.2183 472.9949,147.2849 Q473.6797,148.3516 475.0244,148.3516 Q475.6553,148.3516 476.2488,148.0818 Q476.8423,147.812 477.4731,147.231 Z " fill="#000000"/><text fill="#000000" font-family="sans-serif" font-size="12" font-style="italic" lengthAdjust="spacing" textLength="52" x="537" y="140.6016">&#171;service&#187;</text><text fill="#000000" font-family="sans-serif" font-size="14" lengthAdjust="spacing" textLength="149" x="488.5" y="156.668">AuthenticationService</text><line style="stroke:#181818;stroke-width:0.5;" x1="460.5" x2="639.5" y1="164.6211" y2="164.6211"/><line style="stroke:#181818;stroke-width:0.5;" x1="460.5" x2="639.5" y1="172.6211" y2="172.6211"/><ellipse cx="470.5" cy="186.3652" fill="#84BE84" rx="3" ry="3" style="stroke:#038048;stroke-width:1.0;"/><text fill="#000000" font-family="sans-serif" font-size="14" lengthAdjust="spacing" textLength="95" x="479.5" y="190.1563">authenticate()</text></g><!--class AuthorizationService--><g id="elem_AuthorizationService"><rect codeLine="11" fill="#F1F1F1" height="73.1094" id="AuthorizationService" rx="2.5" ry="2.5" style="stroke:#181818;stroke-width:0.5;" width="220" x="122" y="257"/><ellipse cx="157.25" cy="277.3105" fill="#ADD1B2" rx="11" ry="11" style="stroke:#181818;stroke-width:1.0;"/><path d="M160.2231,282.9536 Q159.6421,283.2524 159.0029,283.4019 Q158.3638,283.5513 157.6582,283.5513 Q155.1514,283.5513 153.8315,281.8994 Q152.5117,280.2476 152.5117,277.1265 Q152.5117,273.9971 153.8315,272.3452 Q155.1514,270.6934 157.6582,270.6934 Q158.3638,270.6934 159.0112,270.8428 Q159.6587,270.9922 160.2231,271.291 L160.2231,274.0137 Q159.5923,273.4326 158.9988,273.1628 Q158.4053,272.8931 157.7744,272.8931 Q156.4297,272.8931 155.7449,273.9597 Q155.0601,275.0264 155.0601,277.1265 Q155.0601,279.2183 155.7449,280.2849 Q156.4297,281.3516 157.7744,281.3516 Q158.4053,281.3516 158.9988,281.0818 Q159.5923,280.812 160.2231,280.231 Z " fill="#000000"/><text fill="#000000" font-family="sans-serif" font-size="12" font-style="italic" lengthAdjust="spacing" textLength="52" x="221.25" y="273.6016">&#171;service&#187;</text><text fill="#000000" font-family="sans-serif" font-size="14" lengthAdjust="spacing" textLength="143" x="175.75" y="289.668">AuthorizationService</text><line style="stroke:#181818;stroke-width:0.5;" x1="123" x2="341" y1="297.6211" y2="297.6211"/><line style="stroke:#181818;stroke-width:0.5;" x1="123" x2="341" y1="305.6211" y2="305.6211"/><ellipse cx="133" cy="319.3652" fill="#84BE84" rx="3" ry="3" style="stroke:#038048;stroke-width:1.0;"/><text fill="#000000" font-family="sans-serif" font-size="14" lengthAdjust="spacing" textLength="194" x="142" y="323.1563">ensureUserHasOneOfRoles()</text></g><!--class PasswordEncoder--><g id="elem_PasswordEncoder"><rect codeLine="15" fill="#F1F1F1" height="56.6211" id="PasswordEncoder" rx="2.5" ry="2.5" style="stroke:#181818;stroke-width:0.5;" width="153" x="818.5" y="732"/><ellipse cx="833.5" cy="752.3105" fill="#ADD1B2" rx="11" ry="11" style="stroke:#181818;stroke-width:1.0;"/><path d="M836.4731,757.9536 Q835.8921,758.2524 835.2529,758.4019 Q834.6138,758.5513 833.9082,758.5513 Q831.4014,758.5513 830.0815,756.8994 Q828.7617,755.2476 828.7617,752.1265 Q828.7617,748.9971 830.0815,747.3452 Q831.4014,745.6934 833.9082,745.6934 Q834.6138,745.6934 835.2612,745.8428 Q835.9087,745.9922 836.4731,746.291 L836.4731,749.0137 Q835.8423,748.4326 835.2488,748.1628 Q834.6553,747.8931 834.0244,747.8931 Q832.6797,747.8931 831.9949,748.9597 Q831.3101,750.0264 831.3101,752.1265 Q831.3101,754.2183 831.9949,755.2849 Q832.6797,756.3516 834.0244,756.3516 Q834.6553,756.3516 835.2488,756.0818 Q835.8423,755.812 836.4731,755.231 Z " fill="#000000"/><text fill="#000000" font-family="sans-serif" font-size="12" font-style="italic" lengthAdjust="spacing" textLength="52" x="882" y="748.6016">&#171;service&#187;</text><text fill="#000000" font-family="sans-serif" font-size="14" lengthAdjust="spacing" textLength="121" x="847.5" y="764.668">PasswordEncoder</text><line style="stroke:#181818;stroke-width:0.5;" x1="819.5" x2="970.5" y1="772.6211" y2="772.6211"/><line style="stroke:#181818;stroke-width:0.5;" x1="819.5" x2="970.5" y1="780.6211" y2="780.6211"/></g><!--class PasswordPolicy--><g id="elem_PasswordPolicy"><rect codeLine="18" fill="#F1F1F1" height="56.6211" id="PasswordPolicy" rx="2.5" ry="2.5" style="stroke:#181818;stroke-width:0.5;" width="136" x="641" y="732"/><ellipse cx="656" cy="752.3105" fill="#ADD1B2" rx="11" ry="11" style="stroke:#181818;stroke-width:1.0;"/><path d="M658.9731,757.9536 Q658.3921,758.2524 657.7529,758.4019 Q657.1138,758.5513 656.4082,758.5513 Q653.9014,758.5513 652.5815,756.8994 Q651.2617,755.2476 651.2617,752.1265 Q651.2617,748.9971 652.5815,747.3452 Q653.9014,745.6934 656.4082,745.6934 Q657.1138,745.6934 657.7612,745.8428 Q658.4087,745.9922 658.9731,746.291 L658.9731,749.0137 Q658.3423,748.4326 657.7488,748.1628 Q657.1553,747.8931 656.5244,747.8931 Q655.1797,747.8931 654.4949,748.9597 Q653.8101,750.0264 653.8101,752.1265 Q653.8101,754.2183 654.4949,755.2849 Q655.1797,756.3516 656.5244,756.3516 Q657.1553,756.3516 657.7488,756.0818 Q658.3423,755.812 658.9731,755.231 Z " fill="#000000"/><text fill="#000000" font-family="sans-serif" font-size="12" font-style="italic" lengthAdjust="spacing" textLength="52" x="696" y="748.6016">&#171;service&#187;</text><text fill="#000000" font-family="sans-serif" font-size="14" lengthAdjust="spacing" textLength="104" x="670" y="764.668">PasswordPolicy</text><line style="stroke:#181818;stroke-width:0.5;" x1="642" x2="776" y1="772.6211" y2="772.6211"/><line style="stroke:#181818;stroke-width:0.5;" x1="642" x2="776" y1="780.6211" y2="780.6211"/></g><!--class UserSession--><g id="elem_UserSession"><rect codeLine="21" fill="#F1F1F1" height="48" id="UserSession" rx="2.5" ry="2.5" style="stroke:#181818;stroke-width:0.5;" width="115" x="188.5" y="390"/><ellipse cx="203.5" cy="406" fill="#ADD1B2" rx="11" ry="11" style="stroke:#181818;stroke-width:1.0;"/><path d="M206.4731,411.6431 Q205.8921,411.9419 205.2529,412.0913 Q204.6138,412.2407 203.9082,412.2407 Q201.4014,412.2407 200.0815,410.5889 Q198.7617,408.937 198.7617,405.8159 Q198.7617,402.6865 200.0815,401.0347 Q201.4014,399.3828 203.9082,399.3828 Q204.6138,399.3828 205.2612,399.5322 Q205.9087,399.6816 206.4731,399.9805 L206.4731,402.7031 Q205.8423,402.1221 205.2488,401.8523 Q204.6553,401.5825 204.0244,401.5825 Q202.6797,401.5825 201.9949,402.6492 Q201.3101,403.7158 201.3101,405.8159 Q201.3101,407.9077 201.9949,408.9744 Q202.6797,410.041 204.0244,410.041 Q204.6553,410.041 205.2488,409.7712 Q205.8423,409.5015 206.4731,408.9204 Z " fill="#000000"/><text fill="#000000" font-family="sans-serif" font-size="14" lengthAdjust="spacing" textLength="83" x="217.5" y="411.291">UserSession</text><line style="stroke:#181818;stroke-width:0.5;" x1="189.5" x2="302.5" y1="422" y2="422"/><line style="stroke:#181818;stroke-width:0.5;" x1="189.5" x2="302.5" y1="430" y2="430"/></g><!--class User--><g id="elem_User"><rect codeLine="26" fill="#F1F1F1" height="56.6211" id="User" rx="2.5" ry="2.5" style="stroke:#181818;stroke-width:0.5;" width="63" x="398.5" y="498"/><ellipse cx="413.5" cy="518.3105" fill="#ADD1B2" rx="11" ry="11" style="stroke:#181818;stroke-width:1.0;"/><path d="M416.4731,523.9536 Q415.8921,524.2524 415.2529,524.4019 Q414.6138,524.5513 413.9082,524.5513 Q411.4014,524.5513 410.0815,522.8994 Q408.7617,521.2476 408.7617,518.1265 Q408.7617,514.9971 410.0815,513.3452 Q411.4014,511.6934 413.9082,511.6934 Q414.6138,511.6934 415.2612,511.8428 Q415.9087,511.9922 416.4731,512.291 L416.4731,515.0137 Q415.8423,514.4326 415.2488,514.1628 Q414.6553,513.8931 414.0244,513.8931 Q412.6797,513.8931 411.9949,514.9597 Q411.3101,516.0264 411.3101,518.1265 Q411.3101,520.2183 411.9949,521.2849 Q412.6797,522.3516 414.0244,522.3516 Q414.6553,522.3516 415.2488,522.0818 Q415.8423,521.812 416.4731,521.231 Z " fill="#000000"/><text fill="#000000" font-family="sans-serif" font-size="12" font-style="italic" lengthAdjust="spacing" textLength="35" x="425.5" y="514.6016">&#171;root&#187;</text><text fill="#000000" font-family="sans-serif" font-size="14" lengthAdjust="spacing" textLength="31" x="427.5" y="530.668">User</text><line style="stroke:#181818;stroke-width:0.5;" x1="399.5" x2="460.5" y1="538.6211" y2="538.6211"/><line style="stroke:#181818;stroke-width:0.5;" x1="399.5" x2="460.5" y1="546.6211" y2="546.6211"/></g><!--class UserState--><g id="elem_UserState"><rect codeLine="29" fill="#F1F1F1" height="56.6211" id="UserState" rx="2.5" ry="2.5" style="stroke:#181818;stroke-width:0.5;" width="97" x="386.5" y="615"/><ellipse cx="401.5" cy="635.3105" fill="#ADD1B2" rx="11" ry="11" style="stroke:#181818;stroke-width:1.0;"/><path d="M404.4731,640.9536 Q403.8921,641.2524 403.2529,641.4019 Q402.6138,641.5513 401.9082,641.5513 Q399.4014,641.5513 398.0815,639.8994 Q396.7617,638.2476 396.7617,635.1265 Q396.7617,631.9971 398.0815,630.3452 Q399.4014,628.6934 401.9082,628.6934 Q402.6138,628.6934 403.2612,628.8428 Q403.9087,628.9922 404.4731,629.291 L404.4731,632.0137 Q403.8423,631.4326 403.2488,631.1628 Q402.6553,630.8931 402.0244,630.8931 Q400.6797,630.8931 399.9949,631.9597 Q399.3101,633.0264 399.3101,635.1265 Q399.3101,637.2183 399.9949,638.2849 Q400.6797,639.3516 402.0244,639.3516 Q402.6553,639.3516 403.2488,639.0818 Q403.8423,638.812 404.4731,638.231 Z " fill="#000000"/><text fill="#000000" font-family="sans-serif" font-size="12" font-style="italic" lengthAdjust="spacing" textLength="42" x="427" y="631.6016">&#171;value&#187;</text><text fill="#000000" font-family="sans-serif" font-size="14" lengthAdjust="spacing" textLength="65" x="415.5" y="647.668">UserState</text><line style="stroke:#181818;stroke-width:0.5;" x1="387.5" x2="482.5" y1="655.6211" y2="655.6211"/><line style="stroke:#181818;stroke-width:0.5;" x1="387.5" x2="482.5" y1="663.6211" y2="663.6211"/></g><!--class ShortName--><g id="elem_ShortName"><rect codeLine="32" fill="#F1F1F1" height="56.6211" id="ShortName" rx="2.5" ry="2.5" style="stroke:#181818;stroke-width:0.5;" width="108" x="112" y="615"/><ellipse cx="127" cy="635.3105" fill="#ADD1B2" rx="11" ry="11" style="stroke:#181818;stroke-width:1.0;"/><path d="M129.9731,640.9536 Q129.3921,641.2524 128.7529,641.4019 Q128.1138,641.5513 127.4082,641.5513 Q124.9014,641.5513 123.5815,639.8994 Q122.2617,638.2476 122.2617,635.1265 Q122.2617,631.9971 123.5815,630.3452 Q124.9014,628.6934 127.4082,628.6934 Q128.1138,628.6934 128.7612,628.8428 Q129.4087,628.9922 129.9731,629.291 L129.9731,632.0137 Q129.3423,631.4326 128.7488,631.1628 Q128.1553,630.8931 127.5244,630.8931 Q126.1797,630.8931 125.4949,631.9597 Q124.8101,633.0264 124.8101,635.1265 Q124.8101,637.2183 125.4949,638.2849 Q126.1797,639.3516 127.5244,639.3516 Q128.1553,639.3516 128.7488,639.0818 Q129.3423,638.812 129.9731,638.231 Z " fill="#000000"/><text fill="#000000" font-family="sans-serif" font-size="12" font-style="italic" lengthAdjust="spacing" textLength="42" x="158" y="631.6016">&#171;value&#187;</text><text fill="#000000" font-family="sans-serif" font-size="14" lengthAdjust="spacing" textLength="76" x="141" y="647.668">ShortName</text><line style="stroke:#181818;stroke-width:0.5;" x1="113" x2="219" y1="655.6211" y2="655.6211"/><line style="stroke:#181818;stroke-width:0.5;" x1="113" x2="219" y1="663.6211" y2="663.6211"/></g><!--class FullName--><g id="elem_FullName"><rect codeLine="35" fill="#F1F1F1" height="56.6211" id="FullName" rx="2.5" ry="2.5" style="stroke:#181818;stroke-width:0.5;" width="96" x="255" y="615"/><ellipse cx="270" cy="635.3105" fill="#ADD1B2" rx="11" ry="11" style="stroke:#181818;stroke-width:1.0;"/><path d="M272.9731,640.9536 Q272.3921,641.2524 271.7529,641.4019 Q271.1138,641.5513 270.4082,641.5513 Q267.9014,641.5513 266.5815,639.8994 Q265.2617,638.2476 265.2617,635.1265 Q265.2617,631.9971 266.5815,630.3452 Q267.9014,628.6934 270.4082,628.6934 Q271.1138,628.6934 271.7612,628.8428 Q272.4087,628.9922 272.9731,629.291 L272.9731,632.0137 Q272.3423,631.4326 271.7488,631.1628 Q271.1553,630.8931 270.5244,630.8931 Q269.1797,630.8931 268.4949,631.9597 Q267.8101,633.0264 267.8101,635.1265 Q267.8101,637.2183 268.4949,638.2849 Q269.1797,639.3516 270.5244,639.3516 Q271.1553,639.3516 271.7488,639.0818 Q272.3423,638.812 272.9731,638.231 Z " fill="#000000"/><text fill="#000000" font-family="sans-serif" font-size="12" font-style="italic" lengthAdjust="spacing" textLength="42" x="295" y="631.6016">&#171;value&#187;</text><text fill="#000000" font-family="sans-serif" font-size="14" lengthAdjust="spacing" textLength="64" x="284" y="647.668">FullName</text><line style="stroke:#181818;stroke-width:0.5;" x1="256" x2="350" y1="655.6211" y2="655.6211"/><line style="stroke:#181818;stroke-width:0.5;" x1="256" x2="350" y1="663.6211" y2="663.6211"/></g><!--class EmailAddress--><g id="elem_EmailAddress"><rect codeLine="38" fill="#F1F1F1" height="56.6211" id="EmailAddress" rx="2.5" ry="2.5" style="stroke:#181818;stroke-width:0.5;" width="125" x="518.5" y="615"/><ellipse cx="533.5" cy="635.3105" fill="#ADD1B2" rx="11" ry="11" style="stroke:#181818;stroke-width:1.0;"/><path d="M536.4731,640.9536 Q535.8921,641.2524 535.2529,641.4019 Q534.6138,641.5513 533.9082,641.5513 Q531.4014,641.5513 530.0815,639.8994 Q528.7617,638.2476 528.7617,635.1265 Q528.7617,631.9971 530.0815,630.3452 Q531.4014,628.6934 533.9082,628.6934 Q534.6138,628.6934 535.2612,628.8428 Q535.9087,628.9922 536.4731,629.291 L536.4731,632.0137 Q535.8423,631.4326 535.2488,631.1628 Q534.6553,630.8931 534.0244,630.8931 Q532.6797,630.8931 531.9949,631.9597 Q531.3101,633.0264 531.3101,635.1265 Q531.3101,637.2183 531.9949,638.2849 Q532.6797,639.3516 534.0244,639.3516 Q534.6553,639.3516 535.2488,639.0818 Q535.8423,638.812 536.4731,638.231 Z " fill="#000000"/><text fill="#000000" font-family="sans-serif" font-size="12" font-style="italic" lengthAdjust="spacing" textLength="42" x="573" y="631.6016">&#171;value&#187;</text><text fill="#000000" font-family="sans-serif" font-size="14" lengthAdjust="spacing" textLength="93" x="547.5" y="647.668">EmailAddress</text><line style="stroke:#181818;stroke-width:0.5;" x1="519.5" x2="642.5" y1="655.6211" y2="655.6211"/><line style="stroke:#181818;stroke-width:0.5;" x1="519.5" x2="642.5" y1="663.6211" y2="663.6211"/></g><!--class Password--><g id="elem_Password"><rect codeLine="41" fill="#F1F1F1" height="56.6211" id="Password" rx="2.5" ry="2.5" style="stroke:#181818;stroke-width:0.5;" width="97" x="750.5" y="615"/><ellipse cx="765.5" cy="635.3105" fill="#ADD1B2" rx="11" ry="11" style="stroke:#181818;stroke-width:1.0;"/><path d="M768.4731,640.9536 Q767.8921,641.2524 767.2529,641.4019 Q766.6138,641.5513 765.9082,641.5513 Q763.4014,641.5513 762.0815,639.8994 Q760.7617,638.2476 760.7617,635.1265 Q760.7617,631.9971 762.0815,630.3452 Q763.4014,628.6934 765.9082,628.6934 Q766.6138,628.6934 767.2612,628.8428 Q767.9087,628.9922 768.4731,629.291 L768.4731,632.0137 Q767.8423,631.4326 767.2488,631.1628 Q766.6553,630.8931 766.0244,630.8931 Q764.6797,630.8931 763.9949,631.9597 Q763.3101,633.0264 763.3101,635.1265 Q763.3101,637.2183 763.9949,638.2849 Q764.6797,639.3516 766.0244,639.3516 Q766.6553,639.3516 767.2488,639.0818 Q767.8423,638.812 768.4731,638.231 Z " fill="#000000"/><text fill="#000000" font-family="sans-serif" font-size="12" font-style="italic" lengthAdjust="spacing" textLength="42" x="791" y="631.6016">&#171;value&#187;</text><text fill="#000000" font-family="sans-serif" font-size="14" lengthAdjust="spacing" textLength="65" x="779.5" y="647.668">Password</text><line style="stroke:#181818;stroke-width:0.5;" x1="751.5" x2="846.5" y1="655.6211" y2="655.6211"/><line style="stroke:#181818;stroke-width:0.5;" x1="751.5" x2="846.5" y1="663.6211" y2="663.6211"/></g><!--class Role--><g id="elem_Role"><rect codeLine="44" fill="#F1F1F1" height="56.6211" id="Role" rx="2.5" ry="2.5" style="stroke:#181818;stroke-width:0.5;" width="70" x="7" y="615"/><ellipse cx="22" cy="635.3105" fill="#ADD1B2" rx="11" ry="11" style="stroke:#181818;stroke-width:1.0;"/><path d="M24.9731,640.9536 Q24.3921,641.2524 23.7529,641.4019 Q23.1138,641.5513 22.4082,641.5513 Q19.9014,641.5513 18.5815,639.8994 Q17.2617,638.2476 17.2617,635.1265 Q17.2617,631.9971 18.5815,630.3452 Q19.9014,628.6934 22.4082,628.6934 Q23.1138,628.6934 23.7612,628.8428 Q24.4087,628.9922 24.9731,629.291 L24.9731,632.0137 Q24.3423,631.4326 23.7488,631.1628 Q23.1553,630.8931 22.5244,630.8931 Q21.1797,630.8931 20.4949,631.9597 Q19.8101,633.0264 19.8101,635.1265 Q19.8101,637.2183 20.4949,638.2849 Q21.1797,639.3516 22.5244,639.3516 Q23.1553,639.3516 23.7488,639.0818 Q24.3423,638.812 24.9731,638.231 Z " fill="#000000"/><text fill="#000000" font-family="sans-serif" font-size="12" font-style="italic" lengthAdjust="spacing" textLength="42" x="34" y="631.6016">&#171;value&#187;</text><text fill="#000000" font-family="sans-serif" font-size="14" lengthAdjust="spacing" textLength="30" x="40" y="647.668">Role</text><line style="stroke:#181818;stroke-width:0.5;" x1="8" x2="76" y1="655.6211" y2="655.6211"/><line style="stroke:#181818;stroke-width:0.5;" x1="8" x2="76" y1="663.6211" y2="663.6211"/></g><!--link User to ShortName--><g id="link_User_ShortName"><path codeLine="50" d="M398.24,542.53 C389.45,546.64 379.88,551.04 371,555 C322.3,576.74 266.63,600.43 225.6,617.67 " fill="none" id="User-to-ShortName" style="stroke:#181818;stroke-width:1.0;"/><polygon fill="#181818" points="221.16,619.95,231.0069,620.144,225.7682,618.0097,227.9025,612.7709,221.16,619.95" style="stroke:#181818;stroke-width:1.0;"/></g><!--link User to FullName--><g id="link_User_FullName"><path codeLine="51" d="M399.26,555.34 C380.83,572.02 357.33,593.3 338.17,610.65 " fill="none" id="User-to-FullName" style="stroke:#181818;stroke-width:1.0;"/><polygon fill="#181818" points="334.9,613.52,344.2531,610.4347,338.6029,610.1602,338.8774,604.51,334.9,613.52" style="stroke:#181818;stroke-width:1.0;"/></g><!--link User to EmailAddress--><g id="link_User_EmailAddress"><path codeLine="52" d="M461.65,551.61 C484.37,568.91 515.19,592.38 539.81,611.13 " fill="none" id="User-to-EmailAddress" style="stroke:#181818;stroke-width:1.0;"/><polygon fill="#181818" points="543.34,614.58,538.609,605.9418,539.3642,611.5481,533.7579,612.3032,543.34,614.58" style="stroke:#181818;stroke-width:1.0;"/></g><!--link User to Password--><g id="link_User_Password"><path codeLine="53" d="M461.78,537.4 C524.86,557.06 666.52,601.21 744.67,625.57 " fill="none" id="User-to-Password" style="stroke:#181818;stroke-width:1.0;"/><polygon fill="#181818" points="749.19,627.29,741.7861,620.7952,744.4161,625.8035,739.4077,628.4335,749.19,627.29" style="stroke:#181818;stroke-width:1.0;"/></g><!--link User to UserState--><g id="link_User_UserState"><path codeLine="54" d="M431.21,555.34 C431.91,571.46 432.8,591.87 433.54,608.89 " fill="none" id="User-to-UserState" style="stroke:#181818;stroke-width:1.0;"/><polygon fill="#181818" points="433.78,613.52,437.3898,604.3565,433.5653,608.5246,429.3972,604.7001,433.78,613.52" style="stroke:#181818;stroke-width:1.0;"/></g><!--link User to Role--><g id="link_User_Role"><path codeLine="55" d="M398.07,543.96 C389.44,547.97 380,551.97 371,555 C251.62,595.19 212.33,571.82 94,615 C90.17,616.4 86.28,618.02 82.43,619.78 " fill="none" id="User-to-Role" style="stroke:#181818;stroke-width:1.0;"/><polygon fill="#181818" points="78.22,622.24,88.0667,622.0316,82.7451,620.1131,84.6636,614.7915,78.22,622.24" style="stroke:#181818;stroke-width:1.0;"/></g><!--link AuthenticationService to AuthorizationService--><g id="link_AuthenticationService_AuthorizationService"><path codeLine="58" d="M462.68,197.47 C419.84,215.12 368.21,236.39 324.66,254.33 " fill="none" id="AuthenticationService-to-AuthorizationService" style="stroke:#181818;stroke-width:1.0;stroke-dasharray:7.0,7.0;"/><polygon fill="#181818" points="320.12,256.61,329.9651,256.882,324.7434,254.7063,326.9191,249.4845,320.12,256.61" style="stroke:#181818;stroke-width:1.0;"/></g><!--link AuthenticationService to EmailAddress--><g id="link_AuthenticationService_EmailAddress"><path codeLine="59" d="M552.3,197.26 C558.09,287.07 573.18,521.19 578.83,608.78 " fill="none" id="AuthenticationService-to-EmailAddress" style="stroke:#181818;stroke-width:1.0;stroke-dasharray:7.0,7.0;"/><polygon fill="#181818" points="579.2,613.58,582.6275,604.3468,578.8863,608.5898,574.6433,604.8487,579.2,613.58" style="stroke:#181818;stroke-width:1.0;"/></g><!--link AuthenticationService to Password--><g id="link_AuthenticationService_Password"><path codeLine="60" d="M641,193.35 C671.33,208.24 702.57,229.01 723,257 C802.61,366.06 804.55,536.93 801.33,608.83 " fill="none" id="AuthenticationService-to-Password" style="stroke:#181818;stroke-width:1.0;stroke-dasharray:7.0,7.0;"/><polygon fill="#181818" points="801.05,613.66,805.4819,604.8647,801.2926,608.6659,797.4913,604.4765,801.05,613.66" style="stroke:#181818;stroke-width:1.0;"/></g><!--link AuthenticationService to UserState--><g id="link_AuthenticationService_UserState"><path codeLine="61" d="M547,197.36 C540.38,267.56 521.59,427.42 479,555 C472.71,573.86 462.98,593.74 454.28,609.78 " fill="none" id="AuthenticationService-to-UserState" style="stroke:#181818;stroke-width:1.0;stroke-dasharray:7.0,7.0;"/><polygon fill="#181818" points="451.61,613.62,459.4394,607.6451,454.0103,609.2338,452.4215,603.8046,451.61,613.62" style="stroke:#181818;stroke-width:1.0;"/></g><!--link AuthenticationService to Role--><g id="link_AuthenticationService_Role"><path codeLine="62" d="M524.68,197.5 C484.91,252.68 403.78,359.98 321,438 C243.15,511.37 138.56,581.64 82.14,617.61 " fill="none" id="AuthenticationService-to-Role" style="stroke:#181818;stroke-width:1.0;stroke-dasharray:7.0,7.0;"/><polygon fill="#181818" points="78.16,620.77,87.9017,619.3213,82.3807,618.0893,83.6126,612.5682,78.16,620.77" style="stroke:#181818;stroke-width:1.0;"/></g><!--link AuthenticationService to PasswordPolicy--><g id="link_AuthenticationService_PasswordPolicy"><path codeLine="63" d="M587.47,197.26 C631.03,242.87 697,326.26 697,413 C697,413 697,413 697,527.5 C697,598.14 702.62,680.71 706.16,725.82 " fill="none" id="AuthenticationService-to-PasswordPolicy" style="stroke:#181818;stroke-width:1.0;stroke-dasharray:7.0,7.0;"/><polygon fill="#181818" points="706.63,730.67,709.9239,721.3883,706.2443,725.6849,701.9477,722.0053,706.63,730.67" style="stroke:#181818;stroke-width:1.0;"/></g><!--link AuthenticationService to PasswordEncoder--><g id="link_AuthenticationService_PasswordEncoder"><path codeLine="64" d="M640.85,184.01 C744.85,215.86 901,285 901,413 C901,413 901,413 901,527.5 C901,598.06 898.19,680.66 896.42,725.8 " fill="none" id="AuthenticationService-to-PasswordEncoder" style="stroke:#181818;stroke-width:1.0;stroke-dasharray:7.0,7.0;"/><polygon fill="#181818" points="896.19,730.65,900.5222,721.8051,896.3761,725.6535,892.5278,721.5073,896.19,730.65" style="stroke:#181818;stroke-width:1.0;"/></g><!--link AuthorizationService to UserSession--><g id="link_AuthorizationService_UserSession"><path codeLine="67" d="M236.24,330.38 C238.26,347.48 240.65,367.69 242.55,383.84 " fill="none" id="AuthorizationService-to-UserSession" style="stroke:#181818;stroke-width:1.0;"/><polygon fill="#181818" points="243.23,388.59,246.1495,379.1838,242.645,383.6243,238.2044,380.1198,243.23,388.59" style="stroke:#181818;stroke-width:1.0;"/></g><!--link UserSession to User--><g id="link_UserSession_User"><path codeLine="70" d="M285.02,438.43 C316.96,457.62 361.83,484.56 393.17,503.38 " fill="none" id="UserSession-to-User" style="stroke:#181818;stroke-width:1.0;"/><polygon fill="#181818" points="397.07,506.33,391.4105,498.2696,392.7825,503.7575,387.2946,505.1295,397.07,506.33" style="stroke:#181818;stroke-width:1.0;"/></g><!--link Password to PasswordPolicy--><g id="link_Password_PasswordPolicy"><path codeLine="74" d="M777.21,672.34 C764.26,688.88 747.78,709.94 734.27,727.21 " fill="none" id="Password-to-PasswordPolicy" style="stroke:#181818;stroke-width:1.0;stroke-dasharray:7.0,7.0;"/><polygon fill="#181818" points="730.9,730.52,739.5968,725.8977,733.9815,726.5825,733.2968,720.9672,730.9,730.52" style="stroke:#181818;stroke-width:1.0;"/></g><!--link Password to PasswordEncoder--><g id="link_Password_PasswordEncoder"><path codeLine="75" d="M822.24,672.34 C836.05,688.88 853.63,709.94 868.05,727.21 " fill="none" id="Password-to-PasswordEncoder" style="stroke:#181818;stroke-width:1.0;stroke-dasharray:7.0,7.0;"/><polygon fill="#181818" points="871.64,730.52,868.9547,721.0443,868.4405,726.6777,862.807,726.1635,871.64,730.52" style="stroke:#181818;stroke-width:1.0;"/></g><!--link AuthzRegistry to AuthenticationService--><g id="link_AuthzRegistry_AuthenticationService"><path codeLine="77" d="M459.55,64.41 C475.09,80.75 494.98,101.66 512.15,119.71 " fill="none" id="AuthzRegistry-to-AuthenticationService" style="stroke:#181818;stroke-width:1.0;"/><polygon fill="#181818" points="514.99,122.75,511.6787,113.4745,511.5414,119.1297,505.8862,118.9923,514.99,122.75" style="stroke:#181818;stroke-width:1.0;"/></g><!--link AuthzRegistry to AuthorizationService--><g id="link_AuthzRegistry_AuthorizationService"><path codeLine="78" d="M411.11,64.38 C375.45,109.79 304.7,199.9 263.6,252.25 " fill="none" id="AuthzRegistry-to-AuthorizationService" style="stroke:#181818;stroke-width:1.0;"/><polygon fill="#181818" points="259.96,255.89,268.6568,251.2677,263.0415,251.9525,262.3568,246.3372,259.96,255.89" style="stroke:#181818;stroke-width:1.0;"/></g><!--SRC=[ZLJBRi8m4BpdA_O6g88lGAauKFLK417gsJZRuChOoEjGXQh_NZiXSSYZr8SesfqTpwx7vf8HmIgtn-iECq7M5B1SxgsGmXPn3D_HJnHD845p4HmfuWqUbHMSMQ7LBUdggFehwy2j9s01YTEP9miCseZhGm9Kb1lSkyGheut2pSTEIwGsrzPzlhH9ruhh54s7fWVRQYbuCORoEoL8v6HLOTUzZm7BCeEPQwC5T2H6Qpl0O1tGPIzCvfqD4jUtVMEdaVHBBkLuTdrYGgxIr3Y5muYwo-6idrqtqtHOHa4VFf5RYihGV1u7mI5KYmoHjh0GhSM4I3ES4FAQl8Rt8xEGQgIsQVmnv8JFqR3b5ejuq4f_mE-KZiCQwUEGqCiufcpkyIwL9_y1l7cyFwzc0d1abzkyUXUiEO7Au1qMFsW3T3D_HTE-3dLrj-nSMwuyg0bC4w7SPi8w3e93Ja9vkqgT2Gucbxv8fS2PcbWu8AJ2ECV9ml-VqP1xXJ2THOsJ1mOrc6jcS_-SUTc3Wnt1zRparoy0]--></g></svg>