<?xml version="1.0" encoding="us-ascii" standalone="no"?><svg xmlns="http://www.w3.org/2000/svg" xmlns:xlink="http://www.w3.org/1999/xlink" contentStyleType="text/css" height="1741px" preserveAspectRatio="none" style="width:1573px;height:1741px;background:#FFFFFF;" version="1.1" viewBox="0 0 1573 1741" width="1573px" zoomAndPan="magnify"><defs/><g><!--cluster Exam Aggregate--><g id="cluster_Exam Aggregate"><rect fill="none" height="175" rx="2.5" ry="2.5" style="stroke:#000000;stroke-width:1.5;" width="391" x="382.5" y="1560"/><text fill="#000000" font-family="sans-serif" font-size="14" font-weight="bold" lengthAdjust="spacing" textLength="114" x="521" y="1577.1074">Exam Aggregate</text></g><!--cluster User Aggregate--><g id="cluster_User Aggregate"><rect fill="none" height="799" rx="2.5" ry="2.5" style="stroke:#000000;stroke-width:1.5;" width="825" x="7" y="7"/><text fill="#000000" font-family="sans-serif" font-size="14" font-weight="bold" lengthAdjust="spacing" textLength="110" x="364.5" y="24.1074">User Aggregate</text></g><!--cluster ExamTemplate Aggregate--><g id="cluster_ExamTemplate Aggregate"><rect fill="none" height="706" rx="2.5" ry="2.5" style="stroke:#000000;stroke-width:1.5;" width="1211.5" x="355.5" y="830"/><text fill="#000000" font-family="sans-serif" font-size="14" font-weight="bold" lengthAdjust="spacing" textLength="178" x="872.25" y="847.1074">ExamTemplate Aggregate</text></g><!--cluster ANTLR Service--><g id="cluster_ANTLR Service"><rect fill="none" height="79" rx="2.5" ry="2.5" style="stroke:#000000;stroke-width:1.5;" width="119" x="60.5" y="1318"/><text fill="#000000" font-family="sans-serif" font-size="14" font-weight="bold" lengthAdjust="spacing" textLength="103" x="68.5" y="1335.1074">ANTLR Service</text></g><!--class Exam--><g id="elem_Exam"><rect codeLine="25" fill="#D8F5FF" height="68.543" id="Exam" rx="2.5" ry="2.5" style="stroke:#1E90FF;stroke-width:0.5;" width="71" x="398.5" y="1597.5"/><ellipse cx="413.5" cy="1627.7715" fill="#ADD1B2" rx="11" ry="11" style="stroke:#181818;stroke-width:1.0;"/><path d="M412.3594,1628.5684 L412.3594,1631.0684 L416.6875,1631.0684 L416.6875,1630.1465 Q416.6875,1629.5371 416.9219,1629.2715 Q417.1719,1629.0059 417.5469,1629.0059 Q417.9219,1629.0059 418.1563,1629.2715 Q418.3906,1629.5371 418.3906,1630.1465 L418.3906,1632.7715 L410.3906,1632.7715 Q409.7656,1632.7715 409.5,1632.5371 Q409.25,1632.3027 409.25,1631.9121 Q409.25,1631.5371 409.5156,1631.3027 Q409.7813,1631.0684 410.3906,1631.0684 L410.6563,1631.0684 L410.6563,1624.4121 L410.3906,1624.4121 Q409.7656,1624.4121 409.5,1624.1777 Q409.25,1623.9434 409.25,1623.5527 Q409.25,1623.1777 409.5,1622.9434 Q409.7656,1622.709 410.3906,1622.709 L418.0156,1622.709 L418.0156,1625.3027 Q418.0156,1625.9121 417.7813,1626.1777 Q417.5625,1626.4277 417.1719,1626.4277 Q416.7969,1626.4277 416.5625,1626.1777 Q416.3281,1625.9121 416.3281,1625.3027 L416.3281,1624.4121 L412.3594,1624.4121 L412.3594,1626.8652 L413.8438,1626.8652 Q413.8438,1626.209 413.9688,1626.0215 Q414.2344,1625.6152 414.7031,1625.6152 Q415.0781,1625.6152 415.3125,1625.8809 Q415.5469,1626.1309 415.5469,1626.7402 L415.5469,1628.709 Q415.5469,1629.2559 415.4219,1629.4434 Q415.1563,1629.834 414.7031,1629.834 Q414.2344,1629.834 413.9688,1629.4277 Q413.8438,1629.2402 413.8438,1628.5684 L412.3594,1628.5684 Z " fill="#000000"/><text fill="#000000" font-family="sans-serif" font-size="12" font-style="italic" lengthAdjust="spacing" textLength="43" x="425.5" y="1615.4492">&#171;entity&#187;</text><text fill="#000000" font-family="sans-serif" font-size="12" font-style="italic" lengthAdjust="spacing" textLength="35" x="429.5" y="1631.4102">&#171;root&#187;</text><text fill="#000000" font-family="sans-serif" font-size="14" lengthAdjust="spacing" textLength="34" x="430" y="1649.5293">Exam</text><line style="stroke:#1E90FF;stroke-width:0.5;" x1="399.5" x2="468.5" y1="1658.043" y2="1658.043"/></g><!--entity Grade--><g id="elem_Grade"><rect fill="#D8F5FF" height="43.2422" rx="2.5" ry="2.5" style="stroke:#1E90FF;stroke-width:0.5;" width="117" x="640.5" y="1675.5"/><text fill="#000000" font-family="sans-serif" font-size="14" font-style="italic" lengthAdjust="spacing" textLength="97" x="650.5" y="1693.6074">&#171;Value Object&#187;</text><text fill="#000000" font-family="sans-serif" font-size="14" lengthAdjust="spacing" textLength="40" x="679" y="1712.2285">Grade</text></g><!--entity TotalGrade--><g id="elem_TotalGrade"><rect fill="#D8F5FF" height="43.2422" rx="2.5" ry="2.5" style="stroke:#1E90FF;stroke-width:0.5;" width="117" x="640.5" y="1597.5"/><text fill="#000000" font-family="sans-serif" font-size="14" font-style="italic" lengthAdjust="spacing" textLength="97" x="650.5" y="1615.6074">&#171;Value Object&#187;</text><text fill="#000000" font-family="sans-serif" font-size="14" lengthAdjust="spacing" textLength="72" x="663" y="1634.2285">TotalGrade</text></g><!--class User--><g id="elem_User"><rect codeLine="37" fill="#D8F5FF" height="68.543" id="User" rx="2.5" ry="2.5" style="stroke:#1E90FF;stroke-width:0.5;" width="71" x="84.5" y="469.5"/><ellipse cx="99.5" cy="499.7715" fill="#ADD1B2" rx="11" ry="11" style="stroke:#181818;stroke-width:1.0;"/><path d="M98.3594,500.5684 L98.3594,503.0684 L102.6875,503.0684 L102.6875,502.1465 Q102.6875,501.5371 102.9219,501.2715 Q103.1719,501.0059 103.5469,501.0059 Q103.9219,501.0059 104.1563,501.2715 Q104.3906,501.5371 104.3906,502.1465 L104.3906,504.7715 L96.3906,504.7715 Q95.7656,504.7715 95.5,504.5371 Q95.25,504.3027 95.25,503.9121 Q95.25,503.5371 95.5156,503.3027 Q95.7813,503.0684 96.3906,503.0684 L96.6563,503.0684 L96.6563,496.4121 L96.3906,496.4121 Q95.7656,496.4121 95.5,496.1777 Q95.25,495.9434 95.25,495.5527 Q95.25,495.1777 95.5,494.9434 Q95.7656,494.709 96.3906,494.709 L104.0156,494.709 L104.0156,497.3027 Q104.0156,497.9121 103.7813,498.1777 Q103.5625,498.4277 103.1719,498.4277 Q102.7969,498.4277 102.5625,498.1777 Q102.3281,497.9121 102.3281,497.3027 L102.3281,496.4121 L98.3594,496.4121 L98.3594,498.8652 L99.8438,498.8652 Q99.8438,498.209 99.9688,498.0215 Q100.2344,497.6152 100.7031,497.6152 Q101.0781,497.6152 101.3125,497.8809 Q101.5469,498.1309 101.5469,498.7402 L101.5469,500.709 Q101.5469,501.2559 101.4219,501.4434 Q101.1563,501.834 100.7031,501.834 Q100.2344,501.834 99.9688,501.4277 Q99.8438,501.2402 99.8438,500.5684 L98.3594,500.5684 Z " fill="#000000"/><text fill="#000000" font-family="sans-serif" font-size="12" font-style="italic" lengthAdjust="spacing" textLength="43" x="111.5" y="487.4492">&#171;entity&#187;</text><text fill="#000000" font-family="sans-serif" font-size="12" font-style="italic" lengthAdjust="spacing" textLength="35" x="115.5" y="503.4102">&#171;root&#187;</text><text fill="#000000" font-family="sans-serif" font-size="14" lengthAdjust="spacing" textLength="29" x="118.5" y="521.5293">User</text><line style="stroke:#1E90FF;stroke-width:0.5;" x1="85.5" x2="154.5" y1="530.043" y2="530.043"/></g><g id="elem_GMN20"><path d="M582,52.5 L582,62 L492.72,66 L582,70 L582,79.791 A0,0 0 0 0 582,79.791 L816,79.791 A0,0 0 0 0 816,79.791 L816,62.5 L806,52.5 L582,52.5 A0,0 0 0 0 582,52.5 " fill="#FEFFDD" style="stroke:#181818;stroke-width:0.5;"/><path d="M806,52.5 L806,62.5 L816,62.5 L806,52.5 " fill="#FEFFDD" style="stroke:#181818;stroke-width:0.5;"/><text fill="#000000" font-family="sans-serif" font-size="13" lengthAdjust="spacing" textLength="213" x="588" y="71.5283">Can be Teacher, Student or Manager</text></g><g id="elem_GMN33"><path d="M23,44.5 L23,89.082 A0,0 0 0 0 23,89.082 L217,89.082 A0,0 0 0 0 217,89.082 L217,70.69 L375.28,66.19 L217,62.69 L217,54.5 L207,44.5 L23,44.5 A0,0 0 0 0 23,44.5 " fill="#FEFFDD" style="stroke:#181818;stroke-width:0.5;"/><path d="M207,44.5 L207,54.5 L217,54.5 L207,44.5 " fill="#FEFFDD" style="stroke:#181818;stroke-width:0.5;"/><text fill="#000000" font-family="sans-serif" font-size="13" lengthAdjust="spacing" textLength="173" x="29" y="63.5283">This is only used for purposes</text><text fill="#000000" font-family="sans-serif" font-size="13" lengthAdjust="spacing" textLength="88" x="29" y="80.8193">of authorization</text></g><!--entity EmailAddress--><g id="elem_EmailAddress"><rect fill="#D8F5FF" height="43.2422" rx="2.5" ry="2.5" style="stroke:#1E90FF;stroke-width:0.5;" width="117" x="375.5" y="356.5"/><text fill="#000000" font-family="sans-serif" font-size="14" font-style="italic" lengthAdjust="spacing" textLength="97" x="385.5" y="374.6074">&#171;Value Object&#187;</text><text fill="#000000" font-family="sans-serif" font-size="14" lengthAdjust="spacing" textLength="86" x="391" y="393.2285">EmailAddress</text></g><!--entity Password--><g id="elem_Password"><rect fill="#D8F5FF" height="43.2422" rx="2.5" ry="2.5" style="stroke:#1E90FF;stroke-width:0.5;" width="117" x="375.5" y="278.5"/><text fill="#000000" font-family="sans-serif" font-size="14" font-style="italic" lengthAdjust="spacing" textLength="97" x="385.5" y="296.6074">&#171;Value Object&#187;</text><text fill="#000000" font-family="sans-serif" font-size="14" lengthAdjust="spacing" textLength="61" x="403.5" y="315.2285">Password</text></g><!--entity FullName--><g id="elem_FullName"><rect fill="#D8F5FF" height="43.2422" rx="2.5" ry="2.5" style="stroke:#1E90FF;stroke-width:0.5;" width="117" x="375.5" y="200.5"/><text fill="#000000" font-family="sans-serif" font-size="14" font-style="italic" lengthAdjust="spacing" textLength="97" x="385.5" y="218.6074">&#171;Value Object&#187;</text><text fill="#000000" font-family="sans-serif" font-size="14" lengthAdjust="spacing" textLength="59" x="404.5" y="237.2285">FullName</text></g><!--entity ShortName--><g id="elem_ShortName"><rect fill="#D8F5FF" height="43.2422" rx="2.5" ry="2.5" style="stroke:#1E90FF;stroke-width:0.5;" width="117" x="375.5" y="122.5"/><text fill="#000000" font-family="sans-serif" font-size="14" font-style="italic" lengthAdjust="spacing" textLength="97" x="385.5" y="140.6074">&#171;Value Object&#187;</text><text fill="#000000" font-family="sans-serif" font-size="14" lengthAdjust="spacing" textLength="70" x="399" y="159.2285">ShortName</text></g><!--entity UserState--><g id="elem_UserState"><rect fill="#D8F5FF" height="43.2422" rx="2.5" ry="2.5" style="stroke:#1E90FF;stroke-width:0.5;" width="117" x="375.5" y="746.5"/><text fill="#000000" font-family="sans-serif" font-size="14" font-style="italic" lengthAdjust="spacing" textLength="97" x="385.5" y="764.6074">&#171;Value Object&#187;</text><text fill="#000000" font-family="sans-serif" font-size="14" lengthAdjust="spacing" textLength="62" x="403" y="783.2285">UserState</text></g><!--entity MechanographicNumber--><g id="elem_MechanographicNumber"><rect fill="#D8F5FF" height="43.2422" rx="2.5" ry="2.5" style="stroke:#1E90FF;stroke-width:0.5;" width="174" x="347" y="668.5"/><text fill="#000000" font-family="sans-serif" font-size="14" font-style="italic" lengthAdjust="spacing" textLength="97" x="385.5" y="686.6074">&#171;Value Object&#187;</text><text fill="#000000" font-family="sans-serif" font-size="14" lengthAdjust="spacing" textLength="154" x="357" y="705.2285">MechanographicNumber</text></g><!--entity Acronym--><g id="elem_Acronym"><rect fill="#D8F5FF" height="43.2422" rx="2.5" ry="2.5" style="stroke:#1E90FF;stroke-width:0.5;" width="117" x="375.5" y="590.5"/><text fill="#000000" font-family="sans-serif" font-size="14" font-style="italic" lengthAdjust="spacing" textLength="97" x="385.5" y="608.6074">&#171;Value Object&#187;</text><text fill="#000000" font-family="sans-serif" font-size="14" lengthAdjust="spacing" textLength="55" x="406.5" y="627.2285">Acronym</text></g><!--entity BirthDate--><g id="elem_BirthDate"><rect fill="#D8F5FF" height="43.2422" rx="2.5" ry="2.5" style="stroke:#1E90FF;stroke-width:0.5;" width="117" x="375.5" y="512.5"/><text fill="#000000" font-family="sans-serif" font-size="14" font-style="italic" lengthAdjust="spacing" textLength="97" x="385.5" y="530.6074">&#171;Value Object&#187;</text><text fill="#000000" font-family="sans-serif" font-size="14" lengthAdjust="spacing" textLength="59" x="404.5" y="549.2285">BirthDate</text></g><!--entity TaxPayerNumber--><g id="elem_TaxPayerNumber"><rect fill="#D8F5FF" height="43.2422" rx="2.5" ry="2.5" style="stroke:#1E90FF;stroke-width:0.5;" width="129" x="369.5" y="434.5"/><text fill="#000000" font-family="sans-serif" font-size="14" font-style="italic" lengthAdjust="spacing" textLength="97" x="385.5" y="452.6074">&#171;Value Object&#187;</text><text fill="#000000" font-family="sans-serif" font-size="14" lengthAdjust="spacing" textLength="109" x="379.5" y="471.2285">TaxPayerNumber</text></g><!--entity Role--><g id="elem_Role"><rect fill="#D8F5FF" height="43.2422" rx="2.5" ry="2.5" style="stroke:#1E90FF;stroke-width:0.5;" width="117" x="375.5" y="44.5"/><text fill="#000000" font-family="sans-serif" font-size="14" font-style="italic" lengthAdjust="spacing" textLength="97" x="385.5" y="62.6074">&#171;Value Object&#187;</text><text fill="#000000" font-family="sans-serif" font-size="14" lengthAdjust="spacing" textLength="29" x="419.5" y="81.2285">Role</text></g><!--class ExamTemplate--><g id="elem_ExamTemplate"><rect codeLine="79" fill="#D8F5FF" height="68.543" id="ExamTemplate" rx="2.5" ry="2.5" style="stroke:#1E90FF;stroke-width:0.5;" width="125" x="371.5" y="1152.5"/><ellipse cx="386.5" cy="1182.7715" fill="#ADD1B2" rx="11" ry="11" style="stroke:#181818;stroke-width:1.0;"/><path d="M385.3594,1183.5684 L385.3594,1186.0684 L389.6875,1186.0684 L389.6875,1185.1465 Q389.6875,1184.5371 389.9219,1184.2715 Q390.1719,1184.0059 390.5469,1184.0059 Q390.9219,1184.0059 391.1563,1184.2715 Q391.3906,1184.5371 391.3906,1185.1465 L391.3906,1187.7715 L383.3906,1187.7715 Q382.7656,1187.7715 382.5,1187.5371 Q382.25,1187.3027 382.25,1186.9121 Q382.25,1186.5371 382.5156,1186.3027 Q382.7813,1186.0684 383.3906,1186.0684 L383.6563,1186.0684 L383.6563,1179.4121 L383.3906,1179.4121 Q382.7656,1179.4121 382.5,1179.1777 Q382.25,1178.9434 382.25,1178.5527 Q382.25,1178.1777 382.5,1177.9434 Q382.7656,1177.709 383.3906,1177.709 L391.0156,1177.709 L391.0156,1180.3027 Q391.0156,1180.9121 390.7813,1181.1777 Q390.5625,1181.4277 390.1719,1181.4277 Q389.7969,1181.4277 389.5625,1181.1777 Q389.3281,1180.9121 389.3281,1180.3027 L389.3281,1179.4121 L385.3594,1179.4121 L385.3594,1181.8652 L386.8438,1181.8652 Q386.8438,1181.209 386.9688,1181.0215 Q387.2344,1180.6152 387.7031,1180.6152 Q388.0781,1180.6152 388.3125,1180.8809 Q388.5469,1181.1309 388.5469,1181.7402 L388.5469,1183.709 Q388.5469,1184.2559 388.4219,1184.4434 Q388.1563,1184.834 387.7031,1184.834 Q387.2344,1184.834 386.9688,1184.4277 Q386.8438,1184.2402 386.8438,1183.5684 L385.3594,1183.5684 Z " fill="#000000"/><text fill="#000000" font-family="sans-serif" font-size="12" font-style="italic" lengthAdjust="spacing" textLength="44" x="425" y="1170.4492">&#171;Entity&#187;</text><text fill="#000000" font-family="sans-serif" font-size="12" font-style="italic" lengthAdjust="spacing" textLength="35" x="429.5" y="1186.4102">&#171;root&#187;</text><text fill="#000000" font-family="sans-serif" font-size="14" lengthAdjust="spacing" textLength="93" x="400.5" y="1204.5293">ExamTemplate</text><line style="stroke:#1E90FF;stroke-width:0.5;" x1="372.5" x2="495.5" y1="1213.043" y2="1213.043"/></g><!--class FeedbackType--><g id="elem_FeedbackType"><rect codeLine="94" fill="#D8F5FF" height="108.4453" id="FeedbackType" rx="2.5" ry="2.5" style="stroke:#1E90FF;stroke-width:0.5;" width="127" x="635.5" y="1333"/><ellipse cx="650.5" cy="1355.291" fill="#EB937F" rx="11" ry="11" style="stroke:#181818;stroke-width:1.0;"/><path d="M649.3594,1356.0879 L649.3594,1358.5879 L653.6875,1358.5879 L653.6875,1357.666 Q653.6875,1357.0566 653.9219,1356.791 Q654.1719,1356.5254 654.5469,1356.5254 Q654.9219,1356.5254 655.1563,1356.791 Q655.3906,1357.0566 655.3906,1357.666 L655.3906,1360.291 L647.3906,1360.291 Q646.7656,1360.291 646.5,1360.0566 Q646.25,1359.8223 646.25,1359.4316 Q646.25,1359.0566 646.5156,1358.8223 Q646.7813,1358.5879 647.3906,1358.5879 L647.6563,1358.5879 L647.6563,1351.9316 L647.3906,1351.9316 Q646.7656,1351.9316 646.5,1351.6973 Q646.25,1351.4629 646.25,1351.0723 Q646.25,1350.6973 646.5,1350.4629 Q646.7656,1350.2285 647.3906,1350.2285 L655.0156,1350.2285 L655.0156,1352.8223 Q655.0156,1353.4316 654.7813,1353.6973 Q654.5625,1353.9473 654.1719,1353.9473 Q653.7969,1353.9473 653.5625,1353.6973 Q653.3281,1353.4316 653.3281,1352.8223 L653.3281,1351.9316 L649.3594,1351.9316 L649.3594,1354.3848 L650.8438,1354.3848 Q650.8438,1353.7285 650.9688,1353.541 Q651.2344,1353.1348 651.7031,1353.1348 Q652.0781,1353.1348 652.3125,1353.4004 Q652.5469,1353.6504 652.5469,1354.2598 L652.5469,1356.2285 Q652.5469,1356.7754 652.4219,1356.9629 Q652.1563,1357.3535 651.7031,1357.3535 Q651.2344,1357.3535 650.9688,1356.9473 Q650.8438,1356.7598 650.8438,1356.0879 L649.3594,1356.0879 Z " fill="#000000"/><text fill="#000000" font-family="sans-serif" font-size="12" font-style="italic" lengthAdjust="spacing" textLength="85" x="669.5" y="1350.9492">&#171;Enumeration&#187;</text><text fill="#000000" font-family="sans-serif" font-size="14" lengthAdjust="spacing" textLength="95" x="664.5" y="1369.0684">FeedbackType</text><line style="stroke:#1E90FF;stroke-width:0.5;" x1="636.5" x2="761.5" y1="1377.582" y2="1377.582"/><text fill="#000000" font-family="sans-serif" font-size="14" lengthAdjust="spacing" textLength="33" x="641.5" y="1396.6895">None</text><text fill="#000000" font-family="sans-serif" font-size="14" lengthAdjust="spacing" textLength="96" x="641.5" y="1415.3105">On-Submission</text><text fill="#000000" font-family="sans-serif" font-size="14" lengthAdjust="spacing" textLength="82" x="641.5" y="1433.9316">After-Closing</text></g><!--class GradeType--><g id="elem_GradeType"><rect codeLine="100" fill="#D8F5FF" height="108.4453" id="GradeType" rx="2.5" ry="2.5" style="stroke:#1E90FF;stroke-width:0.5;" width="113" x="642.5" y="1190"/><ellipse cx="657.5" cy="1212.291" fill="#EB937F" rx="11" ry="11" style="stroke:#181818;stroke-width:1.0;"/><path d="M656.3594,1213.0879 L656.3594,1215.5879 L660.6875,1215.5879 L660.6875,1214.666 Q660.6875,1214.0566 660.9219,1213.791 Q661.1719,1213.5254 661.5469,1213.5254 Q661.9219,1213.5254 662.1563,1213.791 Q662.3906,1214.0566 662.3906,1214.666 L662.3906,1217.291 L654.3906,1217.291 Q653.7656,1217.291 653.5,1217.0566 Q653.25,1216.8223 653.25,1216.4316 Q653.25,1216.0566 653.5156,1215.8223 Q653.7813,1215.5879 654.3906,1215.5879 L654.6563,1215.5879 L654.6563,1208.9316 L654.3906,1208.9316 Q653.7656,1208.9316 653.5,1208.6973 Q653.25,1208.4629 653.25,1208.0723 Q653.25,1207.6973 653.5,1207.4629 Q653.7656,1207.2285 654.3906,1207.2285 L662.0156,1207.2285 L662.0156,1209.8223 Q662.0156,1210.4316 661.7813,1210.6973 Q661.5625,1210.9473 661.1719,1210.9473 Q660.7969,1210.9473 660.5625,1210.6973 Q660.3281,1210.4316 660.3281,1209.8223 L660.3281,1208.9316 L656.3594,1208.9316 L656.3594,1211.3848 L657.8438,1211.3848 Q657.8438,1210.7285 657.9688,1210.541 Q658.2344,1210.1348 658.7031,1210.1348 Q659.0781,1210.1348 659.3125,1210.4004 Q659.5469,1210.6504 659.5469,1211.2598 L659.5469,1213.2285 Q659.5469,1213.7754 659.4219,1213.9629 Q659.1563,1214.3535 658.7031,1214.3535 Q658.2344,1214.3535 657.9688,1213.9473 Q657.8438,1213.7598 657.8438,1213.0879 L656.3594,1213.0879 Z " fill="#000000"/><text fill="#000000" font-family="sans-serif" font-size="12" font-style="italic" lengthAdjust="spacing" textLength="85" x="669.5" y="1207.9492">&#171;Enumeration&#187;</text><text fill="#000000" font-family="sans-serif" font-size="14" lengthAdjust="spacing" textLength="72" x="676" y="1226.0684">GradeType</text><line style="stroke:#1E90FF;stroke-width:0.5;" x1="643.5" x2="754.5" y1="1234.582" y2="1234.582"/><text fill="#000000" font-family="sans-serif" font-size="14" lengthAdjust="spacing" textLength="33" x="648.5" y="1253.6895">None</text><text fill="#000000" font-family="sans-serif" font-size="14" lengthAdjust="spacing" textLength="96" x="648.5" y="1272.3105">On-Submission</text><text fill="#000000" font-family="sans-serif" font-size="14" lengthAdjust="spacing" textLength="82" x="648.5" y="1290.9316">After-Closing</text></g><!--class Section--><g id="elem_Section"><rect codeLine="106" fill="#D8F5FF" height="52.582" id="Section" rx="2.5" ry="2.5" style="stroke:#1E90FF;stroke-width:0.5;" width="79" x="659.5" y="1101.5"/><ellipse cx="674.5" cy="1123.791" fill="#ADD1B2" rx="11" ry="11" style="stroke:#181818;stroke-width:1.0;"/><path d="M673.3594,1124.5879 L673.3594,1127.0879 L677.6875,1127.0879 L677.6875,1126.166 Q677.6875,1125.5566 677.9219,1125.291 Q678.1719,1125.0254 678.5469,1125.0254 Q678.9219,1125.0254 679.1563,1125.291 Q679.3906,1125.5566 679.3906,1126.166 L679.3906,1128.791 L671.3906,1128.791 Q670.7656,1128.791 670.5,1128.5566 Q670.25,1128.3223 670.25,1127.9316 Q670.25,1127.5566 670.5156,1127.3223 Q670.7813,1127.0879 671.3906,1127.0879 L671.6563,1127.0879 L671.6563,1120.4316 L671.3906,1120.4316 Q670.7656,1120.4316 670.5,1120.1973 Q670.25,1119.9629 670.25,1119.5723 Q670.25,1119.1973 670.5,1118.9629 Q670.7656,1118.7285 671.3906,1118.7285 L679.0156,1118.7285 L679.0156,1121.3223 Q679.0156,1121.9316 678.7813,1122.1973 Q678.5625,1122.4473 678.1719,1122.4473 Q677.7969,1122.4473 677.5625,1122.1973 Q677.3281,1121.9316 677.3281,1121.3223 L677.3281,1120.4316 L673.3594,1120.4316 L673.3594,1122.8848 L674.8438,1122.8848 Q674.8438,1122.2285 674.9688,1122.041 Q675.2344,1121.6348 675.7031,1121.6348 Q676.0781,1121.6348 676.3125,1121.9004 Q676.5469,1122.1504 676.5469,1122.7598 L676.5469,1124.7285 Q676.5469,1125.2754 676.4219,1125.4629 Q676.1563,1125.8535 675.7031,1125.8535 Q675.2344,1125.8535 674.9688,1125.4473 Q674.8438,1125.2598 674.8438,1124.5879 L673.3594,1124.5879 Z " fill="#000000"/><text fill="#000000" font-family="sans-serif" font-size="12" font-style="italic" lengthAdjust="spacing" textLength="43" x="690.5" y="1119.4492">&#171;entity&#187;</text><text fill="#000000" font-family="sans-serif" font-size="14" lengthAdjust="spacing" textLength="47" x="688.5" y="1137.5684">Section</text><line style="stroke:#1E90FF;stroke-width:0.5;" x1="660.5" x2="737.5" y1="1146.082" y2="1146.082"/></g><!--class ExamTemplateQuestion--><g id="elem_ExamTemplateQuestion"><rect codeLine="115" fill="#D8F5FF" height="52.582" id="ExamTemplateQuestion" rx="2.5" ry="2.5" style="stroke:#1E90FF;stroke-width:0.5;" width="182" x="879" y="1189.5"/><ellipse cx="894" cy="1211.791" fill="#ADD1B2" rx="11" ry="11" style="stroke:#181818;stroke-width:1.0;"/><path d="M892.8594,1212.5879 L892.8594,1215.0879 L897.1875,1215.0879 L897.1875,1214.166 Q897.1875,1213.5566 897.4219,1213.291 Q897.6719,1213.0254 898.0469,1213.0254 Q898.4219,1213.0254 898.6563,1213.291 Q898.8906,1213.5566 898.8906,1214.166 L898.8906,1216.791 L890.8906,1216.791 Q890.2656,1216.791 890,1216.5566 Q889.75,1216.3223 889.75,1215.9316 Q889.75,1215.5566 890.0156,1215.3223 Q890.2813,1215.0879 890.8906,1215.0879 L891.1563,1215.0879 L891.1563,1208.4316 L890.8906,1208.4316 Q890.2656,1208.4316 890,1208.1973 Q889.75,1207.9629 889.75,1207.5723 Q889.75,1207.1973 890,1206.9629 Q890.2656,1206.7285 890.8906,1206.7285 L898.5156,1206.7285 L898.5156,1209.3223 Q898.5156,1209.9316 898.2813,1210.1973 Q898.0625,1210.4473 897.6719,1210.4473 Q897.2969,1210.4473 897.0625,1210.1973 Q896.8281,1209.9316 896.8281,1209.3223 L896.8281,1208.4316 L892.8594,1208.4316 L892.8594,1210.8848 L894.3438,1210.8848 Q894.3438,1210.2285 894.4688,1210.041 Q894.7344,1209.6348 895.2031,1209.6348 Q895.5781,1209.6348 895.8125,1209.9004 Q896.0469,1210.1504 896.0469,1210.7598 L896.0469,1212.7285 Q896.0469,1213.2754 895.9219,1213.4629 Q895.6563,1213.8535 895.2031,1213.8535 Q894.7344,1213.8535 894.4688,1213.4473 Q894.3438,1213.2598 894.3438,1212.5879 L892.8594,1212.5879 Z " fill="#000000"/><text fill="#000000" font-family="sans-serif" font-size="12" font-style="italic" lengthAdjust="spacing" textLength="43" x="961.5" y="1207.4492">&#171;entity&#187;</text><text fill="#000000" font-family="sans-serif" font-size="14" lengthAdjust="spacing" textLength="150" x="908" y="1225.5684">ExamTemplateQuestion</text><line style="stroke:#1E90FF;stroke-width:0.5;" x1="880" x2="1060" y1="1234.082" y2="1234.082"/></g><!--class QuestionType--><g id="elem_QuestionType"><rect codeLine="133" fill="#D8F5FF" height="164.3086" id="QuestionType" rx="2.5" ry="2.5" style="stroke:#1E90FF;stroke-width:0.5;" width="121" x="1174.5" y="1351"/><ellipse cx="1189.5" cy="1373.291" fill="#EB937F" rx="11" ry="11" style="stroke:#181818;stroke-width:1.0;"/><path d="M1188.3594,1374.0879 L1188.3594,1376.5879 L1192.6875,1376.5879 L1192.6875,1375.666 Q1192.6875,1375.0566 1192.9219,1374.791 Q1193.1719,1374.5254 1193.5469,1374.5254 Q1193.9219,1374.5254 1194.1563,1374.791 Q1194.3906,1375.0566 1194.3906,1375.666 L1194.3906,1378.291 L1186.3906,1378.291 Q1185.7656,1378.291 1185.5,1378.0566 Q1185.25,1377.8223 1185.25,1377.4316 Q1185.25,1377.0566 1185.5156,1376.8223 Q1185.7813,1376.5879 1186.3906,1376.5879 L1186.6563,1376.5879 L1186.6563,1369.9316 L1186.3906,1369.9316 Q1185.7656,1369.9316 1185.5,1369.6973 Q1185.25,1369.4629 1185.25,1369.0723 Q1185.25,1368.6973 1185.5,1368.4629 Q1185.7656,1368.2285 1186.3906,1368.2285 L1194.0156,1368.2285 L1194.0156,1370.8223 Q1194.0156,1371.4316 1193.7813,1371.6973 Q1193.5625,1371.9473 1193.1719,1371.9473 Q1192.7969,1371.9473 1192.5625,1371.6973 Q1192.3281,1371.4316 1192.3281,1370.8223 L1192.3281,1369.9316 L1188.3594,1369.9316 L1188.3594,1372.3848 L1189.8438,1372.3848 Q1189.8438,1371.7285 1189.9688,1371.541 Q1190.2344,1371.1348 1190.7031,1371.1348 Q1191.0781,1371.1348 1191.3125,1371.4004 Q1191.5469,1371.6504 1191.5469,1372.2598 L1191.5469,1374.2285 Q1191.5469,1374.7754 1191.4219,1374.9629 Q1191.1563,1375.3535 1190.7031,1375.3535 Q1190.2344,1375.3535 1189.9688,1374.9473 Q1189.8438,1374.7598 1189.8438,1374.0879 L1188.3594,1374.0879 Z " fill="#000000"/><text fill="#000000" font-family="sans-serif" font-size="12" font-style="italic" lengthAdjust="spacing" textLength="85" x="1205.5" y="1368.9492">&#171;Value Object&#187;</text><text fill="#000000" font-family="sans-serif" font-size="14" lengthAdjust="spacing" textLength="89" x="1203.5" y="1387.0684">QuestionType</text><line style="stroke:#1E90FF;stroke-width:0.5;" x1="1175.5" x2="1294.5" y1="1395.582" y2="1395.582"/><text fill="#000000" font-family="sans-serif" font-size="14" lengthAdjust="spacing" textLength="57" x="1180.5" y="1414.6895">Matching</text><text fill="#000000" font-family="sans-serif" font-size="14" lengthAdjust="spacing" textLength="92" x="1180.5" y="1433.3105">MultipleChoice</text><text fill="#000000" font-family="sans-serif" font-size="14" lengthAdjust="spacing" textLength="80" x="1180.5" y="1451.9316">ShortAnswer</text><text fill="#000000" font-family="sans-serif" font-size="14" lengthAdjust="spacing" textLength="62" x="1180.5" y="1470.5527">Numerical</text><text fill="#000000" font-family="sans-serif" font-size="14" lengthAdjust="spacing" textLength="88" x="1180.5" y="1489.1738">MissingWords</text><text fill="#000000" font-family="sans-serif" font-size="14" lengthAdjust="spacing" textLength="65" x="1180.5" y="1507.7949">TrueFalse</text></g><g id="elem_GMN64"><path d="M1122,1054.5 L1122,1081.791 A0,0 0 0 0 1122,1081.791 L1170.6,1081.791 L1028.72,1114.83 L1178.6,1081.791 L1348,1081.791 A0,0 0 0 0 1348,1081.791 L1348,1064.5 L1338,1054.5 L1122,1054.5 A0,0 0 0 0 1122,1054.5 " fill="#FEFFDD" style="stroke:#181818;stroke-width:0.5;"/><path d="M1338,1054.5 L1338,1064.5 L1348,1064.5 L1338,1054.5 " fill="#FEFFDD" style="stroke:#181818;stroke-width:0.5;"/><text fill="#000000" font-family="sans-serif" font-size="13" lengthAdjust="spacing" textLength="205" x="1128" y="1073.5283">Its number will be auto-incremented</text></g><!--entity Title--><g id="elem_Title"><rect fill="#D8F5FF" height="43.2422" rx="2.5" ry="2.5" style="stroke:#1E90FF;stroke-width:0.5;" width="117" x="640.5" y="1023.5"/><text fill="#000000" font-family="sans-serif" font-size="14" font-style="italic" lengthAdjust="spacing" textLength="97" x="650.5" y="1041.6074">&#171;Value Object&#187;</text><text fill="#000000" font-family="sans-serif" font-size="14" lengthAdjust="spacing" textLength="27" x="685.5" y="1060.2285">Title</text></g><!--entity OpenDate--><g id="elem_OpenDate"><rect fill="#D8F5FF" height="43.2422" rx="2.5" ry="2.5" style="stroke:#1E90FF;stroke-width:0.5;" width="117" x="640.5" y="945.5"/><text fill="#000000" font-family="sans-serif" font-size="14" font-style="italic" lengthAdjust="spacing" textLength="97" x="650.5" y="963.6074">&#171;Value Object&#187;</text><text fill="#000000" font-family="sans-serif" font-size="14" lengthAdjust="spacing" textLength="65" x="666.5" y="982.2285">OpenDate</text></g><!--entity CloseDate--><g id="elem_CloseDate"><rect fill="#D8F5FF" height="43.2422" rx="2.5" ry="2.5" style="stroke:#1E90FF;stroke-width:0.5;" width="117" x="640.5" y="867.5"/><text fill="#000000" font-family="sans-serif" font-size="14" font-style="italic" lengthAdjust="spacing" textLength="97" x="650.5" y="885.6074">&#171;Value Object&#187;</text><text fill="#000000" font-family="sans-serif" font-size="14" lengthAdjust="spacing" textLength="66" x="666" y="904.2285">CloseDate</text></g><!--entity ExamDescription--><g id="elem_ExamDescription"><rect fill="#D8F5FF" height="43.2422" rx="2.5" ry="2.5" style="stroke:#1E90FF;stroke-width:0.5;" width="125" x="636.5" y="1476.5"/><text fill="#000000" font-family="sans-serif" font-size="14" font-style="italic" lengthAdjust="spacing" textLength="97" x="650.5" y="1494.6074">&#171;Value Object&#187;</text><text fill="#000000" font-family="sans-serif" font-size="14" lengthAdjust="spacing" textLength="105" x="646.5" y="1513.2285">ExamDescription</text></g><!--entity SectionNumber--><g id="elem_SectionNumber"><rect fill="#D8F5FF" height="43.2422" rx="2.5" ry="2.5" style="stroke:#1E90FF;stroke-width:0.5;" width="117" x="911.5" y="1106.5"/><text fill="#000000" font-family="sans-serif" font-size="14" font-style="italic" lengthAdjust="spacing" textLength="97" x="921.5" y="1124.6074">&#171;Value Object&#187;</text><text fill="#000000" font-family="sans-serif" font-size="14" lengthAdjust="spacing" textLength="96" x="922" y="1143.2285">SectionNumber</text></g><!--entity SectionDescription--><g id="elem_SectionDescription"><rect fill="#D8F5FF" height="43.2422" rx="2.5" ry="2.5" style="stroke:#1E90FF;stroke-width:0.5;" width="138" x="901" y="1028.5"/><text fill="#000000" font-family="sans-serif" font-size="14" font-style="italic" lengthAdjust="spacing" textLength="97" x="921.5" y="1046.6074">&#171;Value Object&#187;</text><text fill="#000000" font-family="sans-serif" font-size="14" lengthAdjust="spacing" textLength="118" x="911" y="1065.2285">SectionDescription</text></g><!--entity Solution--><g id="elem_Solution"><rect fill="#D8F5FF" height="43.2422" rx="2.5" ry="2.5" style="stroke:#1E90FF;stroke-width:0.5;" width="117" x="1176.5" y="1272.5"/><text fill="#000000" font-family="sans-serif" font-size="14" font-style="italic" lengthAdjust="spacing" textLength="97" x="1186.5" y="1290.6074">&#171;Value Object&#187;</text><text fill="#000000" font-family="sans-serif" font-size="14" lengthAdjust="spacing" textLength="51" x="1209.5" y="1309.2285">Solution</text></g><!--entity SolutionDescription--><g id="elem_SolutionDescription"><rect fill="#D8F5FF" height="43.2422" rx="2.5" ry="2.5" style="stroke:#1E90FF;stroke-width:0.5;" width="142" x="1409" y="1303.5"/><text fill="#000000" font-family="sans-serif" font-size="14" font-style="italic" lengthAdjust="spacing" textLength="97" x="1431.5" y="1321.6074">&#171;Value Object&#187;</text><text fill="#000000" font-family="sans-serif" font-size="14" lengthAdjust="spacing" textLength="122" x="1419" y="1340.2285">SolutionDescription</text></g><!--entity SolutionWeight--><g id="elem_SolutionWeight"><rect fill="#D8F5FF" height="43.2422" rx="2.5" ry="2.5" style="stroke:#1E90FF;stroke-width:0.5;" width="117" x="1421.5" y="1225.5"/><text fill="#000000" font-family="sans-serif" font-size="14" font-style="italic" lengthAdjust="spacing" textLength="97" x="1431.5" y="1243.6074">&#171;Value Object&#187;</text><text fill="#000000" font-family="sans-serif" font-size="14" lengthAdjust="spacing" textLength="95" x="1432.5" y="1262.2285">SolutionWeight</text></g><!--entity QuestionDescription--><g id="elem_QuestionDescription"><rect fill="#D8F5FF" height="43.2422" rx="2.5" ry="2.5" style="stroke:#1E90FF;stroke-width:0.5;" width="148" x="1161" y="1194.5"/><text fill="#000000" font-family="sans-serif" font-size="14" font-style="italic" lengthAdjust="spacing" textLength="97" x="1186.5" y="1212.6074">&#171;Value Object&#187;</text><text fill="#000000" font-family="sans-serif" font-size="14" lengthAdjust="spacing" textLength="128" x="1171" y="1231.2285">QuestionDescription</text></g><!--entity Answer--><g id="elem_Answer"><rect fill="#D8F5FF" height="43.2422" rx="2.5" ry="2.5" style="stroke:#1E90FF;stroke-width:0.5;" width="117" x="1176.5" y="1116.5"/><text fill="#000000" font-family="sans-serif" font-size="14" font-style="italic" lengthAdjust="spacing" textLength="97" x="1186.5" y="1134.6074">&#171;Value Object&#187;</text><text fill="#000000" font-family="sans-serif" font-size="14" lengthAdjust="spacing" textLength="46" x="1212" y="1153.2285">Answer</text></g><!--entity ANTLR--><g id="elem_ANTLR"><rect fill="#D8F5FF" height="24.6211" rx="2.5" ry="2.5" style="stroke:#1E90FF;stroke-width:0.5;" width="65" x="87.5" y="1355.5"/><text fill="#000000" font-family="sans-serif" font-size="14" lengthAdjust="spacing" textLength="45" x="97.5" y="1373.6074">ANTLR</text></g><!--link Exam to TotalGrade--><g id="link_Exam_TotalGrade"><path codeLine="32" d="M469.65,1630.29 C511.66,1628.21 583.25,1624.67 635.09,1622.11 " fill="none" id="Exam-to-TotalGrade" style="stroke:#1E90FF;stroke-width:1.0;"/><polygon fill="#1E90FF" points="640.36,1621.85,631.1659,1618.3189,635.3666,1622.1075,631.578,1626.3083,640.36,1621.85" style="stroke:#1E90FF;stroke-width:1.0;"/></g><!--link Exam to Grade--><g id="link_Exam_Grade"><path codeLine="33" d="M469.65,1640.56 C511.74,1650.97 583.54,1668.71 635.41,1681.53 " fill="none" id="Exam-to-Grade" style="stroke:#1E90FF;stroke-width:1.0;"/><polygon fill="#1E90FF" points="640.36,1682.76,632.5862,1676.7128,635.5068,1681.5574,630.6621,1684.478,640.36,1682.76" style="stroke:#1E90FF;stroke-width:1.0;"/></g><!--link User to EmailAddress--><g id="link_User_EmailAddress"><path codeLine="61" d="M155.58,490.03 C208.46,468.68 310.07,427.65 374.54,401.61 " fill="none" id="User-to-EmailAddress" style="stroke:#1E90FF;stroke-width:1.0;"/><polygon fill="#1E90FF" points="379.5,399.6,369.6572,399.2547,374.8626,401.4692,372.648,406.6746,379.5,399.6" style="stroke:#1E90FF;stroke-width:1.0;"/></g><!--link User to Password--><g id="link_User_Password"><path codeLine="62" d="M155.85,475.05 C198.96,440.07 275.46,380.74 347,339 C356.21,333.63 366.29,328.47 376.21,323.76 " fill="none" id="User-to-Password" style="stroke:#1E90FF;stroke-width:1.0;"/><polygon fill="#1E90FF" points="380.75,321.63,370.9031,321.8249,376.222,323.7507,374.2962,329.0696,380.75,321.63" style="stroke:#1E90FF;stroke-width:1.0;"/></g><!--link User to FullName--><g id="link_User_FullName"><path codeLine="63" d="M146.03,469.33 C184.43,418.16 262.35,321.9 347,261 C354.64,255.51 363.17,250.52 371.81,246.08 " fill="none" id="User-to-FullName" style="stroke:#1E90FF;stroke-width:1.0;"/><polygon fill="#1E90FF" points="376.62,243.67,366.7807,244.1046,372.145,245.9003,370.3493,251.2646,376.62,243.67" style="stroke:#1E90FF;stroke-width:1.0;"/></g><!--link User to ShortName--><g id="link_User_ShortName"><path codeLine="64" d="M136.7,469.41 C167.83,404.46 243.43,263.53 347,183 C354.21,177.4 362.35,172.38 370.68,167.97 " fill="none" id="User-to-ShortName" style="stroke:#1E90FF;stroke-width:1.0;"/><polygon fill="#1E90FF" points="375.32,165.58,365.4871,166.1404,370.8739,167.8674,369.1469,173.2542,375.32,165.58" style="stroke:#1E90FF;stroke-width:1.0;"/></g><!--link User to Role--><g id="link_User_Role"><path codeLine="65" d="M130.88,469.37 C154.72,392.11 222.79,204.61 347,105 C354.12,99.29 362.22,94.22 370.52,89.78 " fill="none" id="User-to-Role" style="stroke:#1E90FF;stroke-width:1.0;"/><polygon fill="#1E90FF" points="375.15,87.37,365.3186,87.9554,370.7097,89.6687,368.9964,95.0598,375.15,87.37" style="stroke:#1E90FF;stroke-width:1.0;"/></g><!--link User to UserState--><g id="link_User_UserState"><path codeLine="66" d="M147.77,538.63 C186.87,587.13 263.99,675.36 347,729 C355.52,734.51 364.95,739.63 374.34,744.23 " fill="none" id="User-to-UserState" style="stroke:#1E90FF;stroke-width:1.0;"/><polygon fill="#1E90FF" points="378.95,746.45,372.5734,738.9441,374.4442,744.2826,369.1056,746.1534,378.95,746.45" style="stroke:#1E90FF;stroke-width:1.0;"/></g><!--link User to MechanographicNumber--><g id="link_User_MechanographicNumber"><path codeLine="67" d="M155.6,528.87 C199.1,559.56 276.6,612.43 347,651 C356.6,656.26 367.04,661.43 377.24,666.2 " fill="none" id="User-to-MechanographicNumber" style="stroke:#1E90FF;stroke-width:1.0;"/><polygon fill="#1E90FF" points="381.9,668.36,375.4179,660.945,377.364,666.2565,372.0524,668.2026,381.9,668.36" style="stroke:#1E90FF;stroke-width:1.0;"/></g><!--link User to Acronym--><g id="link_User_Acronym"><path codeLine="68" d="M155.58,515.97 C207.31,533.87 305.63,567.91 370.25,590.28 " fill="none" id="User-to-Acronym" style="stroke:#1E90FF;stroke-width:1.0;"/><polygon fill="#1E90FF" points="375.23,592,368.0231,585.2873,370.5025,590.3718,365.418,592.8512,375.23,592" style="stroke:#1E90FF;stroke-width:1.0;"/></g><!--link User to BirthDate--><g id="link_User_BirthDate"><path codeLine="69" d="M155.58,507.33 C207.31,512.3 305.63,521.75 370.25,527.97 " fill="none" id="User-to-BirthDate" style="stroke:#1E90FF;stroke-width:1.0;"/><polygon fill="#1E90FF" points="375.23,528.44,366.6603,523.5862,370.2536,527.9552,365.8846,531.5485,375.23,528.44" style="stroke:#1E90FF;stroke-width:1.0;"/></g><!--link User to TaxPayerNumber--><g id="link_User_TaxPayerNumber"><path codeLine="70" d="M155.58,498.68 C205.76,490.96 299.8,476.49 364.36,466.56 " fill="none" id="User-to-TaxPayerNumber" style="stroke:#1E90FF;stroke-width:1.0;"/><polygon fill="#1E90FF" points="369.35,465.79,359.8481,463.1988,364.4076,466.5471,361.0594,471.1066,369.35,465.79" style="stroke:#1E90FF;stroke-width:1.0;"/></g><!--link ExamTemplate to Title--><g id="link_ExamTemplate_Title"><path codeLine="142" d="M477.31,1152.43 C505.62,1130.57 544.45,1102.97 582,1084 C598.73,1075.55 617.7,1068.29 635.38,1062.41 " fill="none" id="ExamTemplate-to-Title" style="stroke:#1E90FF;stroke-width:1.0;"/><polygon fill="#1E90FF" points="640.33,1060.79,630.5322,1059.7882,635.5781,1062.3454,633.0209,1067.3913,640.33,1060.79" style="stroke:#1E90FF;stroke-width:1.0;"/></g><!--link ExamTemplate to OpenDate--><g id="link_ExamTemplate_OpenDate"><path codeLine="143" d="M454.7,1152.37 C479.46,1111.78 525.62,1045.11 582,1006 C597.88,994.99 617.11,986.87 635.32,980.99 " fill="none" id="ExamTemplate-to-OpenDate" style="stroke:#1E90FF;stroke-width:1.0;"/><polygon fill="#1E90FF" points="640.42,979.39,630.6347,978.2732,635.6501,980.8895,633.0339,985.905,640.42,979.39" style="stroke:#1E90FF;stroke-width:1.0;"/></g><!--link ExamTemplate to CloseDate--><g id="link_ExamTemplate_CloseDate"><path codeLine="144" d="M445.62,1152.32 C464.29,1097.01 508.2,988.84 582,928 C597.21,915.46 616.63,906.89 635.21,901.05 " fill="none" id="ExamTemplate-to-CloseDate" style="stroke:#1E90FF;stroke-width:1.0;"/><polygon fill="#1E90FF" points="640.43,899.48,630.6585,898.2482,635.6428,900.9233,632.9677,905.9077,640.43,899.48" style="stroke:#1E90FF;stroke-width:1.0;"/></g><!--link ExamTemplate to Section--><g id="link_ExamTemplate_Section"><path codeLine="145" d="M496.66,1173.17 C544.95,1162.33 610.95,1147.53 654.01,1137.87 " fill="none" id="ExamTemplate-to-Section" style="stroke:#1E90FF;stroke-width:1.0;"/><polygon fill="#1E90FF" points="659.15,1136.72,649.4912,1134.7945,654.2721,1137.8182,651.2484,1142.5991,659.15,1136.72" style="stroke:#1E90FF;stroke-width:1.0;"/></g><!--link ExamTemplate to FeedbackType--><g id="link_ExamTemplate_FeedbackType"><path codeLine="146" d="M471.38,1221.61 C500.32,1248.41 542.39,1285.76 582,1315 C597.34,1326.32 614.49,1337.64 630.8,1347.84 " fill="none" id="ExamTemplate-to-FeedbackType" style="stroke:#1E90FF;stroke-width:1.0;"/><polygon fill="#1E90FF" points="635.38,1350.68,629.8434,1342.5347,631.132,1348.0428,625.6239,1349.3315,635.38,1350.68" style="stroke:#1E90FF;stroke-width:1.0;"/></g><!--link ExamTemplate to GradeType--><g id="link_ExamTemplate_GradeType"><path codeLine="147" d="M496.66,1200.36 C538.97,1209.53 594.87,1221.65 637.03,1230.79 " fill="none" id="ExamTemplate-to-GradeType" style="stroke:#1E90FF;stroke-width:1.0;"/><polygon fill="#1E90FF" points="642.1,1231.89,634.1657,1226.055,637.2161,1230.819,632.4521,1233.8693,642.1,1231.89" style="stroke:#1E90FF;stroke-width:1.0;"/></g><!--link ExamTemplate to ExamDescription--><g id="link_ExamTemplate_ExamDescription"><path codeLine="148" d="M444.78,1221.81 C462.63,1279.13 505.84,1393.47 582,1458 C596.11,1469.96 614,1478.41 631.47,1484.35 " fill="none" id="ExamTemplate-to-ExamDescription" style="stroke:#1E90FF;stroke-width:1.0;"/><polygon fill="#1E90FF" points="636.39,1485.96,629.0809,1479.3587,631.6381,1484.4046,626.5922,1486.9618,636.39,1485.96" style="stroke:#1E90FF;stroke-width:1.0;"/></g><!--link Section to SectionDescription--><g id="link_Section_SectionDescription"><path codeLine="150" d="M738.54,1116.82 C779.5,1104.95 845.22,1085.89 896.02,1071.16 " fill="none" id="Section-to-SectionDescription" style="stroke:#1E90FF;stroke-width:1.0;"/><polygon fill="#1E90FF" points="900.88,1069.75,891.12,1068.43,896.08,1071.15,893.36,1076.11,900.88,1069.75" style="stroke:#1E90FF;stroke-width:1.0;"/></g><!--link Section to ExamTemplateQuestion--><g id="link_Section_ExamTemplateQuestion"><path codeLine="151" d="M738.71,1139.89 C766.86,1148.6 805.86,1160.82 840,1172 C855.28,1177.01 871.55,1182.46 887.19,1187.76 " fill="none" id="Section-to-ExamTemplateQuestion" style="stroke:#1E90FF;stroke-width:1.0;"/><polygon fill="#1E90FF" points="892.02,1189.4,884.795,1182.7068,887.2881,1187.7846,882.2103,1190.2778,892.02,1189.4" style="stroke:#1E90FF;stroke-width:1.0;"/></g><!--link Section to SectionNumber--><g id="link_Section_SectionNumber"><path codeLine="152" d="M738.54,1128 C782.29,1128 854.31,1128 906.2,1128 " fill="none" id="Section-to-SectionNumber" style="stroke:#1E90FF;stroke-width:1.0;"/><polygon fill="#1E90FF" points="911.47,1128,902.47,1124,906.47,1128,902.47,1132,911.47,1128" style="stroke:#1E90FF;stroke-width:1.0;"/></g><!--link ExamTemplateQuestion to QuestionType--><g id="link_ExamTemplateQuestion_QuestionType"><path codeLine="158" d="M1003.25,1242.61 C1044.69,1276.8 1117.57,1336.94 1170.36,1380.49 " fill="none" id="ExamTemplateQuestion-to-QuestionType" style="stroke:#1E90FF;stroke-width:1.0;"/><polygon fill="#1E90FF" points="1174.44,1383.86,1170.048,1375.0446,1170.5849,1380.676,1164.9536,1381.2128,1174.44,1383.86" style="stroke:#1E90FF;stroke-width:1.0;"/></g><!--link ExamTemplateQuestion to QuestionDescription--><g id="link_ExamTemplateQuestion_QuestionDescription"><path codeLine="159" d="M1061.14,1216 C1091.93,1216 1126.08,1216 1155.84,1216 " fill="none" id="ExamTemplateQuestion-to-QuestionDescription" style="stroke:#1E90FF;stroke-width:1.0;"/><polygon fill="#1E90FF" points="1160.96,1216,1151.96,1212,1155.96,1216,1151.96,1220,1160.96,1216" style="stroke:#1E90FF;stroke-width:1.0;"/></g><!--link ExamTemplateQuestion to Answer--><g id="link_ExamTemplateQuestion_Answer"><path codeLine="160" d="M1060.41,1189.48 C1096.88,1178.67 1138.19,1166.41 1171.36,1156.58 " fill="none" id="ExamTemplateQuestion-to-Answer" style="stroke:#1E90FF;stroke-width:1.0;"/><polygon fill="#1E90FF" points="1176.19,1155.14,1166.4219,1153.8814,1171.3989,1156.5702,1168.7102,1161.5472,1176.19,1155.14" style="stroke:#1E90FF;stroke-width:1.0;"/></g><!--link ExamTemplateQuestion to Solution--><g id="link_ExamTemplateQuestion_Solution"><path codeLine="161" d="M1060.41,1242.52 C1096.88,1253.33 1138.19,1265.59 1171.36,1275.42 " fill="none" id="ExamTemplateQuestion-to-Solution" style="stroke:#1E90FF;stroke-width:1.0;"/><polygon fill="#1E90FF" points="1176.19,1276.86,1168.7102,1270.4528,1171.3989,1275.4298,1166.4219,1278.1186,1176.19,1276.86" style="stroke:#1E90FF;stroke-width:1.0;"/></g><!--link Solution to SolutionDescription--><g id="link_Solution_SolutionDescription"><path codeLine="163" d="M1293.59,1301.35 C1326.49,1305.54 1368.15,1310.86 1403.63,1315.39 " fill="none" id="Solution-to-SolutionDescription" style="stroke:#1E90FF;stroke-width:1.0;"/><polygon fill="#1E90FF" points="1408.82,1316.05,1400.3947,1310.9496,1403.8597,1315.421,1399.3883,1318.8861,1408.82,1316.05" style="stroke:#1E90FF;stroke-width:1.0;"/></g><!--link Solution to SolutionWeight--><g id="link_Solution_SolutionWeight"><path codeLine="164" d="M1293.59,1282.86 C1330.53,1275.72 1378.48,1266.44 1416.37,1259.11 " fill="none" id="Solution-to-SolutionWeight" style="stroke:#1E90FF;stroke-width:1.0;"/><polygon fill="#1E90FF" points="1421.41,1258.14,1411.8113,1255.9344,1416.5022,1259.0959,1413.3407,1263.7868,1421.41,1258.14" style="stroke:#1E90FF;stroke-width:1.0;"/></g><!--link Exam to ExamTemplate--><g id="link_Exam_ExamTemplate"><path codeLine="172" d="M434,1597.45 C434,1516.06 434,1312.67 434,1226.53 " fill="none" id="Exam-to-ExamTemplate" style="stroke:#1E90FF;stroke-width:1.0;"/><polygon fill="#1E90FF" points="434,1221.53,430,1230.53,434,1226.53,438,1230.53,434,1221.53" style="stroke:#1E90FF;stroke-width:1.0;"/><text fill="#000000" font-family="sans-serif" font-size="13" lengthAdjust="spacing" textLength="67" x="388" y="1415.0283">is based on</text><text fill="#000000" font-family="sans-serif" font-size="13" lengthAdjust="spacing" textLength="7" x="426.3984" y="1243.0184">1</text></g><!--link User to Exam--><g id="link_User_Exam"><path codeLine="173" d="M130.77,538.79 C168.62,673.73 304.11,1158.46 317,1229 C341.64,1363.86 291.86,1410.49 347,1536 C357.63,1560.19 376.75,1582.49 394.26,1599.49 " fill="none" id="User-to-Exam" style="stroke:#1E90FF;stroke-width:1.0;"/><polygon fill="#1E90FF" points="398.2,1603.26,394.4611,1594.1484,394.5868,1599.8039,388.9313,1599.9296,398.2,1603.26" style="stroke:#1E90FF;stroke-width:1.0;"/><text fill="#000000" font-family="sans-serif" font-size="13" lengthAdjust="spacing" textLength="32" x="266" y="955.0283">takes</text><text fill="#000000" font-family="sans-serif" font-size="13" lengthAdjust="spacing" textLength="9" x="381.5178" y="1613.5014">N</text></g><!--link ExamTemplate to User--><g id="link_ExamTemplate_User"><path codeLine="174" d="M417.13,1152.26 C364.34,1036.69 194.8,665.56 139,543.4 " fill="none" id="ExamTemplate-to-User" style="stroke:#1E90FF;stroke-width:1.0;"/><polygon fill="#1E90FF" points="136.9,538.81,136.9944,548.6584,138.9744,543.3594,144.2734,545.3394,136.9,538.81" style="stroke:#1E90FF;stroke-width:1.0;"/><text fill="#000000" font-family="sans-serif" font-size="13" lengthAdjust="spacing" textLength="68" x="248" y="781.0283">has teacher</text><text fill="#000000" font-family="sans-serif" font-size="13" lengthAdjust="spacing" textLength="7" x="132.1194" y="560.0735">1</text></g><!--link ANTLR to ExamTemplate--><g id="link_ANTLR_ExamTemplate"><path codeLine="175" d="M142.94,1355.27 C189.22,1328.42 298.37,1265.1 368.79,1224.25 " fill="none" id="ANTLR-to-ExamTemplate" style="stroke:#1E90FF;stroke-width:1.0;"/><polygon fill="#1E90FF" points="373.38,1221.59,363.5901,1222.6657,369.0601,1224.1076,367.6182,1229.5776,373.38,1221.59" style="stroke:#1E90FF;stroke-width:1.0;"/><text fill="#000000" font-family="sans-serif" font-size="13" lengthAdjust="spacing" textLength="39" x="262.5" y="1252.0283">parses</text><text fill="#000000" font-family="sans-serif" font-size="13" lengthAdjust="spacing" textLength="9" x="354.4085" y="1242.2737">N</text></g><!--link ANTLR to Exam--><g id="link_ANTLR_Exam"><path codeLine="176" d="M136.05,1380.73 C182.53,1420.07 324.88,1540.51 394.22,1599.19 " fill="none" id="ANTLR-to-Exam" style="stroke:#1E90FF;stroke-width:1.0;"/><polygon fill="#1E90FF" points="398.28,1602.62,393.9948,1593.7523,394.4636,1599.3896,388.8262,1599.8585,398.28,1602.62" style="stroke:#1E90FF;stroke-width:1.0;"/><text fill="#000000" font-family="sans-serif" font-size="13" lengthAdjust="spacing" textLength="39" x="262.5" y="1473.0283">parses</text><text fill="#000000" font-family="sans-serif" font-size="13" lengthAdjust="spacing" textLength="9" x="381.6131" y="1592.4987">N</text></g><!--SRC=[pLTRRzem57xdLrZiTKZRmwIfGfLIA1CI1LQozTaaXyIhOqUsivPE_U_p9JUJqD27IOjGeJxVyRbzvnn8IGme0vNoM8ue71HI70cIf0h5H42a26UZaNmaBCS2PoYYMCf0AK7sXO9bnDcEl03wrC6WFoEadnKvm8emkE4Y1Z7Zb0iqvt42ueOMu4Dmz9W8Nh3OmOBjThMS1U5oixQuK_c7-TV5byN2oW8X-5FlxMSClxOTplNDE86TEb909cZC4WfUI5Z4_tz4PHneVFkiVGwIH4225OnBpu4feex82gTJzz_rjVueE5VwWqEzshysu6y2QtPCfp-nDe0s-rywDNsua2jC1y3spPgUJAvR6lwvEsg7yaE2E1kA5JQXL96C6jTkCqne4CS2D2LFdUi4ijN4VTBf7KOk2ahNE8DXv2xbGbq6DU7ib0vp67e7KOePJmJEKnAjYsnlCp6W5KI2isDsGKblY53flC-LdlBZvoq-WZZZHLVXdjE1UndNbjqOuWUBlq8ppD0UK0WuIa5yH3jLnBhoIBV17MQQBCBLtPB2aAbTUrzIrTa_hMhgdzRryu-DJ_v9NJt_kAzIFgAiYdzO5y0_zdCzQf9bPtUPAtjgdZ0b4kaNP_I82WanEkXivON8kGHPmxGQBlGA4EG5su7lMYosDtS6ImXPJWqptXemDMWwlJqxQ5eK8eeE3GyBtEJ0tgPbWvrH7UMbOEFq76GaI6vICA02hCZG0Y3Uwyo4nzp5MMGWR09hk7dMd3KLsR39hjXdHCegptRO7nI8YV6NiAHZnmx5Vsh4bctdjdrxDNJJL8A6MhsZy9xKTaZqlG1vWMkS5XVSxs4lTyjJUm0xcYxGg5n_fw60oQV1_5foL0PAVlJYpNE7LPHMXRS71LKafp1BEOaQxjXnvymtv3AS8n6cZRBX5aiUz0njnaWe2bXWAflBMck_7WXsYfbsxnTL3TulhLkwNroIhL_ORjT-HDre_UAJ4U5YgxgcPRwDEONqqVhSFPqPNoz47r1bUwaaOgundmYbPbdgiSudX4K2Cjqv4FkJlHDctMZ6YpQpBaEU1dvMeSMlivYgryeqLytT5dKItGTolUfjiM0Thkvr4iLlpVngURc-ivAgoxHE_Srq_7diC-BABDOzDajLcwyNz7ZjS5gkyADUiXqQcPii_0gbM2Bbli-CdEds5IrJ-bU8MTXTJ2Fx2m00]--></g></svg>