<?xml version="1.0" encoding="us-ascii" standalone="no"?><svg xmlns="http://www.w3.org/2000/svg" xmlns:xlink="http://www.w3.org/1999/xlink" contentStyleType="text/css" height="666px" preserveAspectRatio="none" style="width:1157px;height:666px;background:#FFFFFF;" version="1.1" viewBox="0 0 1157 666" width="1157px" zoomAndPan="magnify"><defs/><g><!--cluster Course Aggregate--><g id="cluster_Course Aggregate"><rect fill="none" height="653" rx="2.5" ry="2.5" style="stroke:#000000;stroke-width:1.5;" width="1144" x="7" y="7"/><text fill="#000000" font-family="sans-serif" font-size="14" font-weight="bold" lengthAdjust="spacing" textLength="128" x="515" y="24.1074">Course Aggregate</text></g><!--class Course--><g id="elem_Course"><rect codeLine="26" fill="#D8F5FF" height="68.543" id="Course" rx="2.5" ry="2.5" style="stroke:#1E90FF;stroke-width:0.5;" width="78" x="78" y="314.5"/><ellipse cx="93" cy="344.7715" fill="#ADD1B2" rx="11" ry="11" style="stroke:#181818;stroke-width:1.0;"/><path d="M91.8594,345.5684 L91.8594,348.0684 L96.1875,348.0684 L96.1875,347.1465 Q96.1875,346.5371 96.4219,346.2715 Q96.6719,346.0059 97.0469,346.0059 Q97.4219,346.0059 97.6563,346.2715 Q97.8906,346.5371 97.8906,347.1465 L97.8906,349.7715 L89.8906,349.7715 Q89.2656,349.7715 89,349.5371 Q88.75,349.3027 88.75,348.9121 Q88.75,348.5371 89.0156,348.3027 Q89.2813,348.0684 89.8906,348.0684 L90.1563,348.0684 L90.1563,341.4121 L89.8906,341.4121 Q89.2656,341.4121 89,341.1777 Q88.75,340.9434 88.75,340.5527 Q88.75,340.1777 89,339.9434 Q89.2656,339.709 89.8906,339.709 L97.5156,339.709 L97.5156,342.3027 Q97.5156,342.9121 97.2813,343.1777 Q97.0625,343.4277 96.6719,343.4277 Q96.2969,343.4277 96.0625,343.1777 Q95.8281,342.9121 95.8281,342.3027 L95.8281,341.4121 L91.8594,341.4121 L91.8594,343.8652 L93.3438,343.8652 Q93.3438,343.209 93.4688,343.0215 Q93.7344,342.6152 94.2031,342.6152 Q94.5781,342.6152 94.8125,342.8809 Q95.0469,343.1309 95.0469,343.7402 L95.0469,345.709 Q95.0469,346.2559 94.9219,346.4434 Q94.6563,346.834 94.2031,346.834 Q93.7344,346.834 93.4688,346.4277 Q93.3438,346.2402 93.3438,345.5684 L91.8594,345.5684 Z " fill="#000000"/><text fill="#000000" font-family="sans-serif" font-size="12" font-style="italic" lengthAdjust="spacing" textLength="43" x="108.5" y="332.4492">&#171;entity&#187;</text><text fill="#000000" font-family="sans-serif" font-size="12" font-style="italic" lengthAdjust="spacing" textLength="35" x="112.5" y="348.4102">&#171;root&#187;</text><text fill="#000000" font-family="sans-serif" font-size="14" lengthAdjust="spacing" textLength="46" x="107" y="366.5293">Course</text><line style="stroke:#1E90FF;stroke-width:0.5;" x1="79" x2="155" y1="375.043" y2="375.043"/></g><g id="elem_GMN18"><path d="M512,437 L512,473.28 L439.17,470.99 L512,481.28 L512,533.4551 A0,0 0 0 0 512,533.4551 L692,533.4551 A0,0 0 0 0 692,533.4551 L692,447 L682,437 L512,437 A0,0 0 0 0 512,437 " fill="#FEFFDD" style="stroke:#181818;stroke-width:0.5;"/><path d="M682,437 L682,447 L692,447 L682,437 " fill="#FEFFDD" style="stroke:#181818;stroke-width:0.5;"/><text fill="#000000" font-family="sans-serif" font-size="13" lengthAdjust="spacing" textLength="159" x="518" y="456.0283">Can be one of the following:</text><text fill="#000000" font-family="sans-serif" font-size="13" lengthAdjust="spacing" textLength="39" x="534" y="473.3193">- Open</text><text fill="#000000" font-family="sans-serif" font-size="13" lengthAdjust="spacing" textLength="48" x="534" y="490.6104">- Closed</text><text fill="#000000" font-family="sans-serif" font-size="13" lengthAdjust="spacing" textLength="41" x="534" y="507.9014">- Enroll</text><text fill="#000000" font-family="sans-serif" font-size="13" lengthAdjust="spacing" textLength="70" x="534" y="525.1924">- InProgress</text></g><g id="elem_GMN21"><path d="M500,44.5 L500,62.54 L439.17,66.26 L500,70.54 L500,89.082 A0,0 0 0 0 500,89.082 L704,89.082 A0,0 0 0 0 704,89.082 L704,54.5 L694,44.5 L500,44.5 A0,0 0 0 0 500,44.5 " fill="#FEFFDD" style="stroke:#181818;stroke-width:0.5;"/><path d="M694,44.5 L694,54.5 L704,54.5 L694,44.5 " fill="#FEFFDD" style="stroke:#181818;stroke-width:0.5;"/><text fill="#000000" font-family="sans-serif" font-size="13" lengthAdjust="spacing" textLength="183" x="506" y="63.5283">Each course has a unique code</text><text fill="#000000" font-family="sans-serif" font-size="13" lengthAdjust="spacing" textLength="113" x="506" y="80.8193">Example: "JAVA-1"</text></g><g id="elem_GMN24"><path d="M23,582 L23,643.873 A0,0 0 0 0 23,643.873 L211,643.873 A0,0 0 0 0 211,643.873 L211,620.21 L321.64,620.01 L211,612.21 L211,592 L201,582 L23,582 A0,0 0 0 0 23,582 " fill="#FEFFDD" style="stroke:#181818;stroke-width:0.5;"/><path d="M201,582 L201,592 L211,592 L201,582 " fill="#FEFFDD" style="stroke:#181818;stroke-width:0.5;"/><text fill="#000000" font-family="sans-serif" font-size="13" lengthAdjust="spacing" textLength="164" x="29" y="601.0283">Different editions of a course</text><text fill="#000000" font-family="sans-serif" font-size="13" lengthAdjust="spacing" textLength="167" x="29" y="618.3193">are to be considered different</text><text fill="#000000" font-family="sans-serif" font-size="13" lengthAdjust="spacing" textLength="46" x="29" y="635.6104">courses</text></g><!--class Class--><g id="elem_Class"><rect codeLine="71" fill="#D8F5FF" height="52.582" id="Class" rx="2.5" ry="2.5" style="stroke:#1E90FF;stroke-width:0.5;" width="71" x="345" y="122.5"/><ellipse cx="360" cy="144.791" fill="#ADD1B2" rx="11" ry="11" style="stroke:#181818;stroke-width:1.0;"/><path d="M358.8594,145.5879 L358.8594,148.0879 L363.1875,148.0879 L363.1875,147.166 Q363.1875,146.5566 363.4219,146.291 Q363.6719,146.0254 364.0469,146.0254 Q364.4219,146.0254 364.6563,146.291 Q364.8906,146.5566 364.8906,147.166 L364.8906,149.791 L356.8906,149.791 Q356.2656,149.791 356,149.5566 Q355.75,149.3223 355.75,148.9316 Q355.75,148.5566 356.0156,148.3223 Q356.2813,148.0879 356.8906,148.0879 L357.1563,148.0879 L357.1563,141.4316 L356.8906,141.4316 Q356.2656,141.4316 356,141.1973 Q355.75,140.9629 355.75,140.5723 Q355.75,140.1973 356,139.9629 Q356.2656,139.7285 356.8906,139.7285 L364.5156,139.7285 L364.5156,142.3223 Q364.5156,142.9316 364.2813,143.1973 Q364.0625,143.4473 363.6719,143.4473 Q363.2969,143.4473 363.0625,143.1973 Q362.8281,142.9316 362.8281,142.3223 L362.8281,141.4316 L358.8594,141.4316 L358.8594,143.8848 L360.3438,143.8848 Q360.3438,143.2285 360.4688,143.041 Q360.7344,142.6348 361.2031,142.6348 Q361.5781,142.6348 361.8125,142.9004 Q362.0469,143.1504 362.0469,143.7598 L362.0469,145.7285 Q362.0469,146.2754 361.9219,146.4629 Q361.6563,146.8535 361.2031,146.8535 Q360.7344,146.8535 360.4688,146.4473 Q360.3438,146.2598 360.3438,145.5879 L358.8594,145.5879 Z " fill="#000000"/><text fill="#000000" font-family="sans-serif" font-size="12" font-style="italic" lengthAdjust="spacing" textLength="43" x="372" y="140.4492">&#171;entity&#187;</text><text fill="#000000" font-family="sans-serif" font-size="14" lengthAdjust="spacing" textLength="35" x="376" y="158.5684">Class</text><line style="stroke:#1E90FF;stroke-width:0.5;" x1="346" x2="415" y1="167.082" y2="167.082"/></g><g id="elem_GMN32"><path d="M765,211 L765,290.06 L660.52,299.17 L765,298.06 L765,359.3281 A0,0 0 0 0 765,359.3281 L1135,359.3281 A0,0 0 0 0 1135,359.3281 L1135,221 L1125,211 L765,211 A0,0 0 0 0 765,211 " fill="#FEFFDD" style="stroke:#181818;stroke-width:0.5;"/><path d="M1125,211 L1125,221 L1135,221 L1125,211 " fill="#FEFFDD" style="stroke:#181818;stroke-width:0.5;"/><text fill="#000000" font-family="sans-serif" font-size="13" lengthAdjust="spacing" textLength="249" x="771" y="230.0283">A class is always a recurring weekly event.</text><text fill="#000000" font-family="sans-serif" font-size="13" lengthAdjust="spacing" textLength="4" x="771" y="247.3193">&#160;</text><text fill="#000000" font-family="sans-serif" font-size="13" lengthAdjust="spacing" textLength="279" x="771" y="264.6104">It should be impossible to schedule classes that</text><text fill="#000000" font-family="sans-serif" font-size="13" lengthAdjust="spacing" textLength="309" x="771" y="281.9014">are coincident with other classes of the same course.</text><text fill="#000000" font-family="sans-serif" font-size="13" lengthAdjust="spacing" textLength="4" x="771" y="299.1924">&#160;</text><text fill="#000000" font-family="sans-serif" font-size="13" lengthAdjust="spacing" textLength="311" x="771" y="316.4834">The system should also warn if one of the participants</text><text fill="#000000" font-family="sans-serif" font-size="13" lengthAdjust="spacing" textLength="349" x="771" y="333.7744">in the class (either a teacher or a student) has other classes</text><text fill="#000000" font-family="sans-serif" font-size="13" lengthAdjust="spacing" textLength="326" x="771" y="351.0654">at the same time. Teachers can schedule extra classes.</text></g><g id="elem_GMN35"><path d="M847,132.5 L847,142 L660.52,146 L847,150 L847,159.791 A0,0 0 0 0 847,159.791 L1053,159.791 A0,0 0 0 0 1053,159.791 L1053,142.5 L1043,132.5 L847,132.5 A0,0 0 0 0 847,132.5 " fill="#FEFFDD" style="stroke:#181818;stroke-width:0.5;"/><path d="M1043,132.5 L1043,142.5 L1053,142.5 L1043,132.5 " fill="#FEFFDD" style="stroke:#181818;stroke-width:0.5;"/><text fill="#000000" font-family="sans-serif" font-size="13" lengthAdjust="spacing" textLength="185" x="853" y="151.5283">A class must have a unique title</text></g><g id="elem_GMN43"><path d="M860,394 L860,409.4 L660.52,387.48 L860,417.4 L860,455.873 A0,0 0 0 0 860,455.873 L1040,455.873 A0,0 0 0 0 1040,455.873 L1040,404 L1030,394 L860,394 A0,0 0 0 0 860,394 " fill="#FEFFDD" style="stroke:#181818;stroke-width:0.5;"/><path d="M1030,394 L1030,404 L1040,404 L1030,394 " fill="#FEFFDD" style="stroke:#181818;stroke-width:0.5;"/><text fill="#000000" font-family="sans-serif" font-size="13" lengthAdjust="spacing" textLength="159" x="866" y="413.0283">Can be one of the following:</text><text fill="#000000" font-family="sans-serif" font-size="13" lengthAdjust="spacing" textLength="63" x="882" y="430.3193">- Recurring</text><text fill="#000000" font-family="sans-serif" font-size="13" lengthAdjust="spacing" textLength="39" x="882" y="447.6104">- Extra</text></g><!--entity Code--><g id="elem_Code"><rect fill="#D8F5FF" height="43.2422" rx="2.5" ry="2.5" style="stroke:#1E90FF;stroke-width:0.5;" width="117" x="322" y="44.5"/><text fill="#000000" font-family="sans-serif" font-size="14" font-style="italic" lengthAdjust="spacing" textLength="97" x="332" y="62.6074">&#171;Value Object&#187;</text><text fill="#000000" font-family="sans-serif" font-size="14" lengthAdjust="spacing" textLength="34" x="363.5" y="81.2285">Code</text></g><!--entity Name--><g id="elem_Name"><rect fill="#D8F5FF" height="43.2422" rx="2.5" ry="2.5" style="stroke:#1E90FF;stroke-width:0.5;" width="117" x="322" y="522.5"/><text fill="#000000" font-family="sans-serif" font-size="14" font-style="italic" lengthAdjust="spacing" textLength="97" x="332" y="540.6074">&#171;Value Object&#187;</text><text fill="#000000" font-family="sans-serif" font-size="14" lengthAdjust="spacing" textLength="36" x="362.5" y="559.2285">Name</text></g><!--entity State--><g id="elem_State"><rect fill="#D8F5FF" height="43.2422" rx="2.5" ry="2.5" style="stroke:#1E90FF;stroke-width:0.5;" width="117" x="322" y="444.5"/><text fill="#000000" font-family="sans-serif" font-size="14" font-style="italic" lengthAdjust="spacing" textLength="97" x="332" y="462.6074">&#171;Value Object&#187;</text><text fill="#000000" font-family="sans-serif" font-size="14" lengthAdjust="spacing" textLength="33" x="364" y="481.2285">State</text></g><!--entity Description--><g id="elem_Description"><rect fill="#D8F5FF" height="43.2422" rx="2.5" ry="2.5" style="stroke:#1E90FF;stroke-width:0.5;" width="117" x="322" y="366.5"/><text fill="#000000" font-family="sans-serif" font-size="14" font-style="italic" lengthAdjust="spacing" textLength="97" x="332" y="384.6074">&#171;Value Object&#187;</text><text fill="#000000" font-family="sans-serif" font-size="14" lengthAdjust="spacing" textLength="71" x="345" y="403.2285">Description</text></g><!--entity MaxStudents--><g id="elem_MaxStudents"><rect fill="#D8F5FF" height="43.2422" rx="2.5" ry="2.5" style="stroke:#1E90FF;stroke-width:0.5;" width="117" x="322" y="288.5"/><text fill="#000000" font-family="sans-serif" font-size="14" font-style="italic" lengthAdjust="spacing" textLength="97" x="332" y="306.6074">&#171;Value Object&#187;</text><text fill="#000000" font-family="sans-serif" font-size="14" lengthAdjust="spacing" textLength="81" x="340" y="325.2285">MaxStudents</text></g><!--entity MinStudents--><g id="elem_MinStudents"><rect fill="#D8F5FF" height="43.2422" rx="2.5" ry="2.5" style="stroke:#1E90FF;stroke-width:0.5;" width="117" x="322" y="210.5"/><text fill="#000000" font-family="sans-serif" font-size="14" font-style="italic" lengthAdjust="spacing" textLength="97" x="332" y="228.6074">&#171;Value Object&#187;</text><text fill="#000000" font-family="sans-serif" font-size="14" lengthAdjust="spacing" textLength="78" x="341.5" y="247.2285">MinStudents</text></g><!--entity Edition--><g id="elem_Edition"><rect fill="#D8F5FF" height="43.2422" rx="2.5" ry="2.5" style="stroke:#1E90FF;stroke-width:0.5;" width="117" x="322" y="600.5"/><text fill="#000000" font-family="sans-serif" font-size="14" font-style="italic" lengthAdjust="spacing" textLength="97" x="332" y="618.6074">&#171;Value Object&#187;</text><text fill="#000000" font-family="sans-serif" font-size="14" lengthAdjust="spacing" textLength="43" x="359" y="637.2285">Edition</text></g><!--entity ClassDate--><g id="elem_ClassDate"><rect fill="#D8F5FF" height="43.2422" rx="2.5" ry="2.5" style="stroke:#1E90FF;stroke-width:0.5;" width="117" x="543.5" y="280.5"/><text fill="#000000" font-family="sans-serif" font-size="14" font-style="italic" lengthAdjust="spacing" textLength="97" x="553.5" y="298.6074">&#171;Value Object&#187;</text><text fill="#000000" font-family="sans-serif" font-size="14" lengthAdjust="spacing" textLength="65" x="569.5" y="317.2285">ClassDate</text></g><!--entity ClassDuration--><g id="elem_ClassDuration"><rect fill="#D8F5FF" height="43.2422" rx="2.5" ry="2.5" style="stroke:#1E90FF;stroke-width:0.5;" width="117" x="543.5" y="202.5"/><text fill="#000000" font-family="sans-serif" font-size="14" font-style="italic" lengthAdjust="spacing" textLength="97" x="553.5" y="220.6074">&#171;Value Object&#187;</text><text fill="#000000" font-family="sans-serif" font-size="14" lengthAdjust="spacing" textLength="89" x="557.5" y="239.2285">ClassDuration</text></g><!--entity ClassTitle--><g id="elem_ClassTitle"><rect fill="#D8F5FF" height="43.2422" rx="2.5" ry="2.5" style="stroke:#1E90FF;stroke-width:0.5;" width="117" x="543.5" y="124.5"/><text fill="#000000" font-family="sans-serif" font-size="14" font-style="italic" lengthAdjust="spacing" textLength="97" x="553.5" y="142.6074">&#171;Value Object&#187;</text><text fill="#000000" font-family="sans-serif" font-size="14" lengthAdjust="spacing" textLength="62" x="571" y="161.2285">ClassTitle</text></g><!--entity ClassType--><g id="elem_ClassType"><rect fill="#D8F5FF" height="43.2422" rx="2.5" ry="2.5" style="stroke:#1E90FF;stroke-width:0.5;" width="117" x="543.5" y="358.5"/><text fill="#000000" font-family="sans-serif" font-size="14" font-style="italic" lengthAdjust="spacing" textLength="97" x="553.5" y="376.6074">&#171;Value Object&#187;</text><text fill="#000000" font-family="sans-serif" font-size="14" lengthAdjust="spacing" textLength="67" x="568.5" y="395.2285">ClassType</text></g><!--link Course to Name--><g id="link_Course_Name"><path codeLine="44" d="M156.24,379.28 C196.87,411.2 263.22,462.64 322,505 C328.65,509.79 335.81,514.78 342.75,519.53 " fill="none" id="Course-to-Name" style="stroke:#1E90FF;stroke-width:1.0;"/><polygon fill="#1E90FF" points="347.04,522.45,341.8762,514.0634,342.9152,519.624,337.3546,520.6631,347.04,522.45" style="stroke:#1E90FF;stroke-width:1.0;"/></g><!--link Course to State--><g id="link_Course_State"><path codeLine="45" d="M156.02,366.01 C200.9,386.09 275.79,419.6 326.38,442.23 " fill="none" id="Course-to-State" style="stroke:#1E90FF;stroke-width:1.0;"/><polygon fill="#1E90FF" points="331.2,444.39,324.6236,437.0585,326.6375,442.3447,321.3512,444.3585,331.2,444.39" style="stroke:#1E90FF;stroke-width:1.0;"/></g><!--link Course to Description--><g id="link_Course_Description"><path codeLine="46" d="M156.02,354.67 C198.07,360.94 266.47,371.14 316.53,378.61 " fill="none" id="Course-to-Description" style="stroke:#1E90FF;stroke-width:1.0;"/><polygon fill="#1E90FF" points="321.63,379.37,313.3244,374.0768,316.6855,378.6269,312.1355,381.988,321.63,379.37" style="stroke:#1E90FF;stroke-width:1.0;"/></g><!--link Course to MaxStudents--><g id="link_Course_MaxStudents"><path codeLine="47" d="M156.02,343.33 C198.07,337.06 266.47,326.86 316.53,319.39 " fill="none" id="Course-to-MaxStudents" style="stroke:#1E90FF;stroke-width:1.0;"/><polygon fill="#1E90FF" points="321.63,318.63,312.1355,316.012,316.6855,319.3731,313.3244,323.9232,321.63,318.63" style="stroke:#1E90FF;stroke-width:1.0;"/></g><!--link Course to MinStudents--><g id="link_Course_MinStudents"><path codeLine="48" d="M156.02,331.99 C200.9,311.91 275.79,278.4 326.38,255.77 " fill="none" id="Course-to-MinStudents" style="stroke:#1E90FF;stroke-width:1.0;"/><polygon fill="#1E90FF" points="331.2,253.61,321.3512,253.6415,326.6375,255.6553,324.6236,260.9415,331.2,253.61" style="stroke:#1E90FF;stroke-width:1.0;"/></g><!--link Course to Code--><g id="link_Course_Code"><path codeLine="49" d="M141.36,314.41 C176.45,264.16 246.72,169.89 322,105 C327.72,100.07 334.07,95.22 340.41,90.71 " fill="none" id="Course-to-Code" style="stroke:#1E90FF;stroke-width:1.0;"/><polygon fill="#1E90FF" points="344.8,87.64,335.1291,89.5039,340.6978,90.4987,339.703,96.0674,344.8,87.64" style="stroke:#1E90FF;stroke-width:1.0;"/></g><!--link Course to Edition--><g id="link_Course_Edition"><path codeLine="50" d="M143.58,383.62 C180.01,431.6 250.39,519.57 322,583 C327.65,588 333.97,592.89 340.3,597.42 " fill="none" id="Course-to-Edition" style="stroke:#1E90FF;stroke-width:1.0;"/><polygon fill="#1E90FF" points="344.67,600.49,339.6066,592.0424,340.5792,597.615,335.0066,598.5876,344.67,600.49" style="stroke:#1E90FF;stroke-width:1.0;"/></g><!--link Class to ClassDate--><g id="link_Class_ClassDate"><path codeLine="100" d="M416.17,173.74 C423.93,179.76 431.94,186.38 439,193 C469.09,221.24 466.21,239.32 500,263 C511.58,271.12 525.09,277.83 538.38,283.27 " fill="none" id="Class-to-ClassDate" style="stroke:#1E90FF;stroke-width:1.0;"/><polygon fill="#1E90FF" points="543.26,285.21,536.3706,278.1718,538.6127,283.3654,533.4192,285.6075,543.26,285.21" style="stroke:#1E90FF;stroke-width:1.0;"/></g><!--link Class to ClassDuration--><g id="link_Class_ClassDuration"><path codeLine="101" d="M416.28,160.88 C449.04,172.08 498.87,189.1 538.52,202.65 " fill="none" id="Class-to-ClassDuration" style="stroke:#1E90FF;stroke-width:1.0;"/><polygon fill="#1E90FF" points="543.3,204.28,536.075,197.5868,538.5681,202.6646,533.4903,205.1578,543.3,204.28" style="stroke:#1E90FF;stroke-width:1.0;"/></g><!--link Class to ClassTitle--><g id="link_Class_ClassTitle"><path codeLine="102" d="M416.28,148.52 C448.91,148.08 498.46,147.4 538.03,146.86 " fill="none" id="Class-to-ClassTitle" style="stroke:#1E90FF;stroke-width:1.0;"/><polygon fill="#1E90FF" points="543.3,146.79,534.2549,142.8931,538.3003,146.8471,534.3463,150.8926,543.3,146.79" style="stroke:#1E90FF;stroke-width:1.0;"/></g><!--link Class to ClassType--><g id="link_Class_ClassType"><path codeLine="103" d="M416.09,170.78 C424.37,177.19 432.65,184.72 439,193 C482.3,249.45 449.13,291.26 500,341 C510.75,351.51 524.63,359.26 538.65,364.94 " fill="none" id="Class-to-ClassType" style="stroke:#1E90FF;stroke-width:1.0;"/><polygon fill="#1E90FF" points="543.4,366.79,536.4659,359.7959,538.7411,364.975,533.5619,367.2502,543.4,366.79" style="stroke:#1E90FF;stroke-width:1.0;"/></g><!--link Course to Class--><g id="link_Course_Class"><path codeLine="104" d="M156.02,319.92 C205.35,282.19 290.95,216.73 340.67,178.7 " fill="none" id="Course-to-Class" style="stroke:#1E90FF;stroke-width:1.0;"/><polygon fill="#1E90FF" points="344.77,175.56,335.1879,177.8368,340.7942,178.5919,340.039,184.1982,344.77,175.56" style="stroke:#1E90FF;stroke-width:1.0;"/><text fill="#000000" font-family="sans-serif" font-size="13" lengthAdjust="spacing" textLength="49" x="242" y="216.0283">contains</text><text fill="#000000" font-family="sans-serif" font-size="13" lengthAdjust="spacing" textLength="5" x="331.8851" y="196.8926">*</text></g><!--SRC=[pLNBRjim4BphAnRkeG_0GNieK0I60CLE01Tf4zH6xhIqbhQXI9MauhX5_hqa9LaMxSJfhRn8uWoN-vXT5PGXb6WAcUc8uzg0aQ0eBmnaf30r94KKwNiI5LEiX9GphHDZ5ArgW_DKYWNzHlXum84_4TXrJMky9e4NKcMeff9B1JEPvQWkU8r32allSoLhaJMqvFRsUZvDblERxvuNuczcNwu-NrrvB55ARevQV-RYfts7AskPvRWmMuxWWcOYvpW8YQdi_uyeQWE1qLJMIYCaUQumPmP7hVCe39ajjF1aqdp7yMIYf3Hn77dMsnP_ODOmoDLFcnBj4P-7gSpSsJkFtdWqZjiBddhQTrOUqWvO2sFTEqsReKuLLKwEfydVsEF2r9aDJh-2JEBrvCkCNdJ1FzhiZSUnpq6uvoCED_VY2w6zQ0wWtlSGSaKAzrhl6o-5j7blEbskzvpoPvY0bQsyG8UP0c4jEPSR4ldvZkJM66ug5C7Mb4kDMR1vAPGr4MpEnQsILg9Qj-hCl5l77Dp5uzObImj8cy0Afe51BUYNhKSwO3soik9u3gEloLqo_ZHwxX8_z-mTNNuw0pDQhr7Px08sY7Oirjwyep65RcgktFL2su6gCBFJipsxepMdZaNQTQMVctrJHdijvw3PIvqIScl5JYkrvo_9y5SRNswh4zmZzUiY64WWQNyMP6l8DsphIca7SAsKbHfi4E_v5l31PkGi6XoS6z25h7dcqavb9RMc5VTrq6c1MMtVlMdKLh_C30wxWgMIH4gkTM13fW1fLQvsHrhLQpV2che5zoyTkjK6oyuFnhM43LC2QBtVEVO7OYYbYdLDsYqI7cyIy0x9Ey30e1MtVPFkGpVT_TwhVE3YC23Jksken3DODbQqhPheCuAFHh7EmjdEn52DpzJEA-HeySfQ6-lW0_PzQ0RaeVr6vdv63JGHxhSAFeRrleI0LMOuzKOVHYtjt3MeOIJqqGapCF2FO_179zfmxBcC3rl-AVeB]--></g></svg>