<?xml version="1.0" encoding="us-ascii" standalone="no"?><svg xmlns="http://www.w3.org/2000/svg" xmlns:xlink="http://www.w3.org/1999/xlink" contentStyleType="text/css" height="1011px" preserveAspectRatio="none" style="width:1862px;height:1011px;background:#FFFFFF;" version="1.1" viewBox="0 0 1862 1011" width="1862px" zoomAndPan="magnify"><defs/><g><rect fill="#FFFFFF" height="109.2422" style="stroke:#181818;stroke-width:1.0;" width="10" x="255.5" y="115.2871"/><rect fill="#FFFFFF" height="29.3105" style="stroke:#181818;stroke-width:1.0;" width="10" x="255.5" y="253.8398"/><rect fill="#FFFFFF" height="595.166" style="stroke:#181818;stroke-width:1.0;" width="10" x="255.5" y="312.4609"/><rect fill="#FFFFFF" height="39.9658" style="stroke:#181818;stroke-width:1.0;" width="10" x="562.5" y="144.5977"/><rect fill="#FFFFFF" height="527.5449" style="stroke:#181818;stroke-width:1.0;" width="10" x="562.5" y="341.7715"/><rect fill="#FFFFFF" height="29.3105" style="stroke:#181818;stroke-width:1.0;" width="10" x="974.5" y="400.3926"/><rect fill="#FFFFFF" height="29.3105" style="stroke:#181818;stroke-width:1.0;" width="10" x="1099.5" y="459.0137"/><rect fill="#FFFFFF" height="29.3105" style="stroke:#181818;stroke-width:1.0;" width="10" x="1194.5" y="517.6348"/><rect fill="#FFFFFF" height="263.75" style="stroke:#181818;stroke-width:1.0;" width="10" x="1303" y="576.2559"/><rect fill="#FFFFFF" height="29.3105" style="stroke:#181818;stroke-width:1.0;" width="10" x="1495" y="605.5664"/><rect fill="#FFFFFF" height="87.8867" style="stroke:#181818;stroke-width:1.0;" width="10" x="1671" y="664.1875"/><rect fill="#FFFFFF" height="29.3105" style="stroke:#181818;stroke-width:1.0;" width="10" x="1797.5" y="781.3848"/><line style="stroke:#181818;stroke-width:0.5;stroke-dasharray:5.0,5.0;" x1="34" x2="34" y1="83.9766" y2="916.627"/><line style="stroke:#181818;stroke-width:0.5;stroke-dasharray:5.0,5.0;" x1="260" x2="260" y1="83.9766" y2="916.627"/><line style="stroke:#181818;stroke-width:0.5;stroke-dasharray:5.0,5.0;" x1="567" x2="567" y1="83.9766" y2="916.627"/><line style="stroke:#181818;stroke-width:0.5;stroke-dasharray:5.0,5.0;" x1="979" x2="979" y1="83.9766" y2="916.627"/><line style="stroke:#181818;stroke-width:0.5;stroke-dasharray:5.0,5.0;" x1="1104" x2="1104" y1="83.9766" y2="916.627"/><line style="stroke:#181818;stroke-width:0.5;stroke-dasharray:5.0,5.0;" x1="1199" x2="1199" y1="83.9766" y2="916.627"/><line style="stroke:#181818;stroke-width:0.5;stroke-dasharray:5.0,5.0;" x1="1308" x2="1308" y1="83.9766" y2="916.627"/><line style="stroke:#181818;stroke-width:0.5;stroke-dasharray:5.0,5.0;" x1="1499.5" x2="1499.5" y1="83.9766" y2="916.627"/><line style="stroke:#181818;stroke-width:0.5;stroke-dasharray:5.0,5.0;" x1="1676" x2="1676" y1="83.9766" y2="916.627"/><line style="stroke:#181818;stroke-width:0.5;stroke-dasharray:5.0,5.0;" x1="1802" x2="1802" y1="83.9766" y2="916.627"/><text fill="#000000" font-family="sans-serif" font-size="14" lengthAdjust="spacing" textLength="53" x="5" y="81.0234">Student</text><ellipse cx="34.5" cy="15.9883" fill="#E2E2F0" rx="8" ry="8" style="stroke:#181818;stroke-width:0.5;"/><path d="M34.5,23.9883 L34.5,50.9883 M21.5,31.9883 L47.5,31.9883 M34.5,50.9883 L21.5,65.9883 M34.5,50.9883 L47.5,65.9883 " fill="none" style="stroke:#181818;stroke-width:0.5;"/><text fill="#000000" font-family="sans-serif" font-size="14" lengthAdjust="spacing" textLength="53" x="5" y="929.1621">Student</text><ellipse cx="34.5" cy="940.6152" fill="#E2E2F0" rx="8" ry="8" style="stroke:#181818;stroke-width:0.5;"/><path d="M34.5,948.6152 L34.5,975.6152 M21.5,956.6152 L47.5,956.6152 M34.5,975.6152 L21.5,990.6152 M34.5,975.6152 L47.5,990.6152 " fill="none" style="stroke:#181818;stroke-width:0.5;"/><rect fill="#E2E2F0" height="46.9766" rx="2.5" ry="2.5" style="stroke:#181818;stroke-width:0.5;" width="115" x="203" y="36"/><text fill="#000000" font-family="sans-serif" font-size="14" font-style="italic" lengthAdjust="spacing" textLength="101" x="210" y="56.5352">&#171;presentation&#187;</text><text fill="#000000" font-family="sans-serif" font-size="14" lengthAdjust="spacing" textLength="85" x="218" y="73.0234">TakeExamUI</text><rect fill="#E2E2F0" height="46.9766" rx="2.5" ry="2.5" style="stroke:#181818;stroke-width:0.5;" width="115" x="203" y="915.627"/><text fill="#000000" font-family="sans-serif" font-size="14" font-style="italic" lengthAdjust="spacing" textLength="101" x="210" y="936.1621">&#171;presentation&#187;</text><text fill="#000000" font-family="sans-serif" font-size="14" lengthAdjust="spacing" textLength="85" x="218" y="952.6504">TakeExamUI</text><rect fill="#E2E2F0" height="46.9766" rx="2.5" ry="2.5" style="stroke:#181818;stroke-width:0.5;" width="179" x="478" y="36"/><text fill="#000000" font-family="sans-serif" font-size="14" font-style="italic" lengthAdjust="spacing" textLength="90" x="522.5" y="56.5352">&#171;application&#187;</text><text fill="#000000" font-family="sans-serif" font-size="14" lengthAdjust="spacing" textLength="165" x="485" y="73.0234">EvaluateExamController</text><rect fill="#E2E2F0" height="46.9766" rx="2.5" ry="2.5" style="stroke:#181818;stroke-width:0.5;" width="179" x="478" y="915.627"/><text fill="#000000" font-family="sans-serif" font-size="14" font-style="italic" lengthAdjust="spacing" textLength="90" x="522.5" y="936.1621">&#171;application&#187;</text><text fill="#000000" font-family="sans-serif" font-size="14" lengthAdjust="spacing" textLength="165" x="485" y="952.6504">EvaluateExamController</text><rect fill="#E2E2F0" height="46.9766" rx="2.5" ry="2.5" style="stroke:#181818;stroke-width:0.5;" width="157" x="901" y="36"/><text fill="#000000" font-family="sans-serif" font-size="14" font-style="italic" lengthAdjust="spacing" textLength="61" x="949" y="56.5352">&#171;service&#187;</text><text fill="#000000" font-family="sans-serif" font-size="14" lengthAdjust="spacing" textLength="143" x="908" y="73.0234">AuthorizationService</text><rect fill="#E2E2F0" height="46.9766" rx="2.5" ry="2.5" style="stroke:#181818;stroke-width:0.5;" width="157" x="901" y="915.627"/><text fill="#000000" font-family="sans-serif" font-size="14" font-style="italic" lengthAdjust="spacing" textLength="61" x="949" y="936.1621">&#171;service&#187;</text><text fill="#000000" font-family="sans-serif" font-size="14" lengthAdjust="spacing" textLength="143" x="908" y="952.6504">AuthorizationService</text><rect fill="#E2E2F0" height="46.9766" rx="2.5" ry="2.5" style="stroke:#181818;stroke-width:0.5;" width="73" x="1068" y="36"/><text fill="#000000" font-family="sans-serif" font-size="14" font-style="italic" lengthAdjust="spacing" textLength="58" x="1075.5" y="56.5352">&#171;library&#187;</text><text fill="#000000" font-family="sans-serif" font-size="14" lengthAdjust="spacing" textLength="59" x="1075" y="73.0234">Optional</text><rect fill="#E2E2F0" height="46.9766" rx="2.5" ry="2.5" style="stroke:#181818;stroke-width:0.5;" width="73" x="1068" y="915.627"/><text fill="#000000" font-family="sans-serif" font-size="14" font-style="italic" lengthAdjust="spacing" textLength="58" x="1075.5" y="936.1621">&#171;library&#187;</text><text fill="#000000" font-family="sans-serif" font-size="14" lengthAdjust="spacing" textLength="59" x="1075" y="952.6504">Optional</text><rect fill="#E2E2F0" height="46.9766" rx="2.5" ry="2.5" style="stroke:#181818;stroke-width:0.5;" width="97" x="1151" y="36"/><text fill="#000000" font-family="sans-serif" font-size="14" font-style="italic" lengthAdjust="spacing" textLength="66" x="1166.5" y="56.5352">&#171;domain&#187;</text><text fill="#000000" font-family="sans-serif" font-size="14" lengthAdjust="spacing" textLength="83" x="1158" y="73.0234">UserSession</text><rect fill="#E2E2F0" height="46.9766" rx="2.5" ry="2.5" style="stroke:#181818;stroke-width:0.5;" width="97" x="1151" y="915.627"/><text fill="#000000" font-family="sans-serif" font-size="14" font-style="italic" lengthAdjust="spacing" textLength="66" x="1166.5" y="936.1621">&#171;domain&#187;</text><text fill="#000000" font-family="sans-serif" font-size="14" lengthAdjust="spacing" textLength="83" x="1158" y="952.6504">UserSession</text><rect fill="#E2E2F0" height="46.9766" rx="2.5" ry="2.5" style="stroke:#181818;stroke-width:0.5;" width="100" x="1258" y="36"/><text fill="#000000" font-family="sans-serif" font-size="14" font-style="italic" lengthAdjust="spacing" textLength="61" x="1277.5" y="56.5352">&#171;service&#187;</text><text fill="#000000" font-family="sans-serif" font-size="14" lengthAdjust="spacing" textLength="86" x="1265" y="73.0234">ExamService</text><rect fill="#E2E2F0" height="46.9766" rx="2.5" ry="2.5" style="stroke:#181818;stroke-width:0.5;" width="100" x="1258" y="915.627"/><text fill="#000000" font-family="sans-serif" font-size="14" font-style="italic" lengthAdjust="spacing" textLength="61" x="1277.5" y="936.1621">&#171;service&#187;</text><text fill="#000000" font-family="sans-serif" font-size="14" lengthAdjust="spacing" textLength="86" x="1265" y="952.6504">ExamService</text><text fill="#000000" font-family="sans-serif" font-size="14" font-style="italic" lengthAdjust="spacing" textLength="84" x="1455" y="64.5352">&#171;repository&#187;</text><text fill="#000000" font-family="sans-serif" font-size="14" lengthAdjust="spacing" textLength="175" x="1409.5" y="81.0234">ExamTemplateRepository</text><path d="M1482,15 C1482,5 1500,5 1500,5 C1500,5 1518,5 1518,15 L1518,41 C1518,51 1500,51 1500,51 C1500,51 1482,51 1482,41 L1482,15 " fill="#E2E2F0" style="stroke:#181818;stroke-width:1.5;"/><path d="M1482,15 C1482,25 1500,25 1500,25 C1500,25 1518,25 1518,15 " fill="none" style="stroke:#181818;stroke-width:1.5;"/><text fill="#000000" font-family="sans-serif" font-size="14" font-style="italic" lengthAdjust="spacing" textLength="84" x="1455" y="929.1621">&#171;repository&#187;</text><text fill="#000000" font-family="sans-serif" font-size="14" lengthAdjust="spacing" textLength="175" x="1409.5" y="945.6504">ExamTemplateRepository</text><path d="M1482,958.6035 C1482,948.6035 1500,948.6035 1500,948.6035 C1500,948.6035 1518,948.6035 1518,958.6035 L1518,984.6035 C1518,994.6035 1500,994.6035 1500,994.6035 C1500,994.6035 1482,994.6035 1482,984.6035 L1482,958.6035 " fill="#E2E2F0" style="stroke:#181818;stroke-width:1.5;"/><path d="M1482,958.6035 C1482,968.6035 1500,968.6035 1500,968.6035 C1500,968.6035 1518,968.6035 1518,958.6035 " fill="none" style="stroke:#181818;stroke-width:1.5;"/><rect fill="#E2E2F0" height="46.9766" rx="2.5" ry="2.5" style="stroke:#181818;stroke-width:0.5;" width="116" x="1618" y="36"/><text fill="#000000" font-family="sans-serif" font-size="14" font-style="italic" lengthAdjust="spacing" textLength="52" x="1650" y="56.5352">&#171;utility&#187;</text><text fill="#000000" font-family="sans-serif" font-size="14" lengthAdjust="spacing" textLength="102" x="1625" y="73.0234">ExamEvaluator</text><rect fill="#E2E2F0" height="46.9766" rx="2.5" ry="2.5" style="stroke:#181818;stroke-width:0.5;" width="116" x="1618" y="915.627"/><text fill="#000000" font-family="sans-serif" font-size="14" font-style="italic" lengthAdjust="spacing" textLength="52" x="1650" y="936.1621">&#171;utility&#187;</text><text fill="#000000" font-family="sans-serif" font-size="14" lengthAdjust="spacing" textLength="102" x="1625" y="952.6504">ExamEvaluator</text><text fill="#000000" font-family="sans-serif" font-size="14" font-style="italic" lengthAdjust="spacing" textLength="84" x="1757.5" y="64.5352">&#171;repository&#187;</text><text fill="#000000" font-family="sans-serif" font-size="14" lengthAdjust="spacing" textLength="111" x="1744" y="81.0234">ExamRepository</text><path d="M1784.5,15 C1784.5,5 1802.5,5 1802.5,5 C1802.5,5 1820.5,5 1820.5,15 L1820.5,41 C1820.5,51 1802.5,51 1802.5,51 C1802.5,51 1784.5,51 1784.5,41 L1784.5,15 " fill="#E2E2F0" style="stroke:#181818;stroke-width:1.5;"/><path d="M1784.5,15 C1784.5,25 1802.5,25 1802.5,25 C1802.5,25 1820.5,25 1820.5,15 " fill="none" style="stroke:#181818;stroke-width:1.5;"/><text fill="#000000" font-family="sans-serif" font-size="14" font-style="italic" lengthAdjust="spacing" textLength="84" x="1757.5" y="929.1621">&#171;repository&#187;</text><text fill="#000000" font-family="sans-serif" font-size="14" lengthAdjust="spacing" textLength="111" x="1744" y="945.6504">ExamRepository</text><path d="M1784.5,958.6035 C1784.5,948.6035 1802.5,948.6035 1802.5,948.6035 C1802.5,948.6035 1820.5,948.6035 1820.5,958.6035 L1820.5,984.6035 C1820.5,994.6035 1802.5,994.6035 1802.5,994.6035 C1802.5,994.6035 1784.5,994.6035 1784.5,984.6035 L1784.5,958.6035 " fill="#E2E2F0" style="stroke:#181818;stroke-width:1.5;"/><path d="M1784.5,958.6035 C1784.5,968.6035 1802.5,968.6035 1802.5,968.6035 C1802.5,968.6035 1820.5,968.6035 1820.5,958.6035 " fill="none" style="stroke:#181818;stroke-width:1.5;"/><rect fill="#FFFFFF" height="109.2422" style="stroke:#181818;stroke-width:1.0;" width="10" x="255.5" y="115.2871"/><rect fill="#FFFFFF" height="29.3105" style="stroke:#181818;stroke-width:1.0;" width="10" x="255.5" y="253.8398"/><rect fill="#FFFFFF" height="595.166" style="stroke:#181818;stroke-width:1.0;" width="10" x="255.5" y="312.4609"/><rect fill="#FFFFFF" height="39.9658" style="stroke:#181818;stroke-width:1.0;" width="10" x="562.5" y="144.5977"/><rect fill="#FFFFFF" height="527.5449" style="stroke:#181818;stroke-width:1.0;" width="10" x="562.5" y="341.7715"/><rect fill="#FFFFFF" height="29.3105" style="stroke:#181818;stroke-width:1.0;" width="10" x="974.5" y="400.3926"/><rect fill="#FFFFFF" height="29.3105" style="stroke:#181818;stroke-width:1.0;" width="10" x="1099.5" y="459.0137"/><rect fill="#FFFFFF" height="29.3105" style="stroke:#181818;stroke-width:1.0;" width="10" x="1194.5" y="517.6348"/><rect fill="#FFFFFF" height="263.75" style="stroke:#181818;stroke-width:1.0;" width="10" x="1303" y="576.2559"/><rect fill="#FFFFFF" height="29.3105" style="stroke:#181818;stroke-width:1.0;" width="10" x="1495" y="605.5664"/><rect fill="#FFFFFF" height="87.8867" style="stroke:#181818;stroke-width:1.0;" width="10" x="1671" y="664.1875"/><rect fill="#FFFFFF" height="29.3105" style="stroke:#181818;stroke-width:1.0;" width="10" x="1797.5" y="781.3848"/><polygon fill="#181818" points="243.5,111.2871,253.5,115.2871,243.5,119.2871,247.5,115.2871" style="stroke:#181818;stroke-width:1.0;"/><line style="stroke:#181818;stroke-width:1.0;" x1="34.5" x2="249.5" y1="115.2871" y2="115.2871"/><text fill="#000000" font-family="sans-serif" font-size="13" font-weight="bold" lengthAdjust="spacing" textLength="9" x="41.5" y="110.5449">1</text><text fill="#000000" font-family="sans-serif" font-size="13" lengthAdjust="spacing" textLength="123" x="54.5" y="110.5449">wants to take exam</text><polygon fill="#181818" points="550.5,140.5977,560.5,144.5977,550.5,148.5977,554.5,144.5977" style="stroke:#181818;stroke-width:1.0;"/><line style="stroke:#181818;stroke-width:1.0;" x1="265.5" x2="556.5" y1="144.5977" y2="144.5977"/><text fill="#000000" font-family="sans-serif" font-size="13" font-weight="bold" lengthAdjust="spacing" textLength="9" x="272.5" y="139.8555">2</text><text fill="#000000" font-family="sans-serif" font-size="13" lengthAdjust="spacing" textLength="46" x="285.5" y="139.8555">create()</text><polygon fill="#181818" points="1296,180.5635,1306,184.5635,1296,188.5635,1300,184.5635" style="stroke:#181818;stroke-width:1.0;"/><line style="stroke:#181818;stroke-width:1.0;" x1="567.5" x2="1302" y1="184.5635" y2="184.5635"/><text fill="#000000" font-family="sans-serif" font-size="13" font-weight="bold" lengthAdjust="spacing" textLength="9" x="574.5" y="179.8213">3</text><text fill="#000000" font-family="sans-serif" font-size="13" lengthAdjust="spacing" textLength="46" x="587.5" y="179.8213">create()</text><path d="M1313,157.5977 L1313,197.5977 L1547,197.5977 L1547,167.5977 L1537,157.5977 L1313,157.5977 " fill="#FEFFDD" style="stroke:#181818;stroke-width:0.5;"/><path d="M1537,157.5977 L1537,167.5977 L1547,167.5977 L1537,157.5977 " fill="#FEFFDD" style="stroke:#181818;stroke-width:0.5;"/><text fill="#000000" font-family="sans-serif" font-size="13" lengthAdjust="spacing" textLength="162" x="1319" y="175.166">dependency injection was</text><text fill="#000000" font-family="sans-serif" font-size="13" lengthAdjust="spacing" textLength="213" x="1319" y="190.4766">abstracted for diagram readability</text><polygon fill="#181818" points="45.5,220.5293,35.5,224.5293,45.5,228.5293,41.5,224.5293" style="stroke:#181818;stroke-width:1.0;"/><line style="stroke:#181818;stroke-width:1.0;stroke-dasharray:2.0,2.0;" x1="39.5" x2="259.5" y1="224.5293" y2="224.5293"/><text fill="#000000" font-family="sans-serif" font-size="13" font-weight="bold" lengthAdjust="spacing" textLength="9" x="51.5" y="219.7871">4</text><text fill="#000000" font-family="sans-serif" font-size="13" lengthAdjust="spacing" textLength="118" x="64.5" y="219.7871">asks for exam title</text><polygon fill="#181818" points="243.5,249.8398,253.5,253.8398,243.5,257.8398,247.5,253.8398" style="stroke:#181818;stroke-width:1.0;"/><line style="stroke:#181818;stroke-width:1.0;" x1="34.5" x2="249.5" y1="253.8398" y2="253.8398"/><text fill="#000000" font-family="sans-serif" font-size="13" font-weight="bold" lengthAdjust="spacing" textLength="9" x="41.5" y="249.0977">5</text><text fill="#000000" font-family="sans-serif" font-size="13" lengthAdjust="spacing" textLength="121" x="54.5" y="249.0977">provides exam title</text><polygon fill="#181818" points="45.5,279.1504,35.5,283.1504,45.5,287.1504,41.5,283.1504" style="stroke:#181818;stroke-width:1.0;"/><line style="stroke:#181818;stroke-width:1.0;stroke-dasharray:2.0,2.0;" x1="39.5" x2="259.5" y1="283.1504" y2="283.1504"/><text fill="#000000" font-family="sans-serif" font-size="13" font-weight="bold" lengthAdjust="spacing" textLength="9" x="51.5" y="278.4082">6</text><text fill="#000000" font-family="sans-serif" font-size="13" lengthAdjust="spacing" textLength="184" x="64.5" y="278.4082">asks for submission file path</text><polygon fill="#181818" points="243.5,308.4609,253.5,312.4609,243.5,316.4609,247.5,312.4609" style="stroke:#181818;stroke-width:1.0;"/><line style="stroke:#181818;stroke-width:1.0;" x1="34.5" x2="249.5" y1="312.4609" y2="312.4609"/><text fill="#000000" font-family="sans-serif" font-size="13" font-weight="bold" lengthAdjust="spacing" textLength="9" x="41.5" y="307.7188">7</text><text fill="#000000" font-family="sans-serif" font-size="13" lengthAdjust="spacing" textLength="187" x="54.5" y="307.7188">provides submission file path</text><polygon fill="#181818" points="550.5,337.7715,560.5,341.7715,550.5,345.7715,554.5,341.7715" style="stroke:#181818;stroke-width:1.0;"/><line style="stroke:#181818;stroke-width:1.0;stroke-dasharray:2.0,2.0;" x1="265.5" x2="556.5" y1="341.7715" y2="341.7715"/><text fill="#000000" font-family="sans-serif" font-size="13" font-weight="bold" lengthAdjust="spacing" textLength="9" x="272.5" y="337.0293">8</text><text fill="#000000" font-family="sans-serif" font-size="13" lengthAdjust="spacing" textLength="265" x="285.5" y="337.0293">evaluateExamFromFile(filePath, examTitle)</text><polygon fill="#181818" points="967.5,367.082,977.5,371.082,967.5,375.082,971.5,371.082" style="stroke:#181818;stroke-width:1.0;"/><line style="stroke:#181818;stroke-width:1.0;" x1="572.5" x2="973.5" y1="371.082" y2="371.082"/><text fill="#000000" font-family="sans-serif" font-size="13" font-weight="bold" lengthAdjust="spacing" textLength="9" x="579.5" y="366.3398">9</text><text fill="#000000" font-family="sans-serif" font-size="13" lengthAdjust="spacing" textLength="370" x="592.5" y="366.3398">ensureAuthenticatedUserHasAnyOf(CourseRoles.STUDENT)</text><polygon fill="#181818" points="962.5,396.3926,972.5,400.3926,962.5,404.3926,966.5,400.3926" style="stroke:#181818;stroke-width:1.0;"/><line style="stroke:#181818;stroke-width:1.0;" x1="572.5" x2="968.5" y1="400.3926" y2="400.3926"/><text fill="#000000" font-family="sans-serif" font-size="13" font-weight="bold" lengthAdjust="spacing" textLength="18" x="579.5" y="395.6504">10</text><text fill="#000000" font-family="sans-serif" font-size="13" lengthAdjust="spacing" textLength="56" x="601.5" y="395.6504">session()</text><polygon fill="#181818" points="583.5,425.7031,573.5,429.7031,583.5,433.7031,579.5,429.7031" style="stroke:#181818;stroke-width:1.0;"/><line style="stroke:#181818;stroke-width:1.0;stroke-dasharray:2.0,2.0;" x1="577.5" x2="978.5" y1="429.7031" y2="429.7031"/><text fill="#000000" font-family="sans-serif" font-size="13" font-weight="bold" lengthAdjust="spacing" textLength="18" x="589.5" y="424.9609">11</text><text fill="#000000" font-family="sans-serif" font-size="13" lengthAdjust="spacing" textLength="102" x="611.5" y="424.9609">sessionOptional</text><polygon fill="#181818" points="1087.5,455.0137,1097.5,459.0137,1087.5,463.0137,1091.5,459.0137" style="stroke:#181818;stroke-width:1.0;"/><line style="stroke:#181818;stroke-width:1.0;" x1="572.5" x2="1093.5" y1="459.0137" y2="459.0137"/><text fill="#000000" font-family="sans-serif" font-size="13" font-weight="bold" lengthAdjust="spacing" textLength="18" x="579.5" y="454.2715">12</text><text fill="#000000" font-family="sans-serif" font-size="13" lengthAdjust="spacing" textLength="85" x="601.5" y="454.2715">orElseThrow()</text><polygon fill="#181818" points="583.5,484.3242,573.5,488.3242,583.5,492.3242,579.5,488.3242" style="stroke:#181818;stroke-width:1.0;"/><line style="stroke:#181818;stroke-width:1.0;stroke-dasharray:2.0,2.0;" x1="577.5" x2="1103.5" y1="488.3242" y2="488.3242"/><text fill="#000000" font-family="sans-serif" font-size="13" font-weight="bold" lengthAdjust="spacing" textLength="18" x="589.5" y="483.582">13</text><text fill="#000000" font-family="sans-serif" font-size="13" lengthAdjust="spacing" textLength="48" x="611.5" y="483.582">session</text><polygon fill="#181818" points="1182.5,513.6348,1192.5,517.6348,1182.5,521.6348,1186.5,517.6348" style="stroke:#181818;stroke-width:1.0;"/><line style="stroke:#181818;stroke-width:1.0;stroke-dasharray:2.0,2.0;" x1="572.5" x2="1188.5" y1="517.6348" y2="517.6348"/><text fill="#000000" font-family="sans-serif" font-size="13" font-weight="bold" lengthAdjust="spacing" textLength="18" x="579.5" y="512.8926">14</text><text fill="#000000" font-family="sans-serif" font-size="13" lengthAdjust="spacing" textLength="122" x="601.5" y="512.8926">authenticatedUser()</text><polygon fill="#181818" points="583.5,542.9453,573.5,546.9453,583.5,550.9453,579.5,546.9453" style="stroke:#181818;stroke-width:1.0;"/><line style="stroke:#181818;stroke-width:1.0;stroke-dasharray:2.0,2.0;" x1="577.5" x2="1198.5" y1="546.9453" y2="546.9453"/><text fill="#000000" font-family="sans-serif" font-size="13" font-weight="bold" lengthAdjust="spacing" textLength="18" x="589.5" y="542.2031">15</text><text fill="#000000" font-family="sans-serif" font-size="13" lengthAdjust="spacing" textLength="27" x="611.5" y="542.2031">user</text><polygon fill="#181818" points="1291,572.2559,1301,576.2559,1291,580.2559,1295,576.2559" style="stroke:#181818;stroke-width:1.0;"/><line style="stroke:#181818;stroke-width:1.0;" x1="572.5" x2="1297" y1="576.2559" y2="576.2559"/><text fill="#000000" font-family="sans-serif" font-size="13" font-weight="bold" lengthAdjust="spacing" textLength="18" x="579.5" y="571.5137">16</text><text fill="#000000" font-family="sans-serif" font-size="13" lengthAdjust="spacing" textLength="431" x="601.5" y="571.5137">evaluateExamFromFile(filePath, loggedUser, ExamTitle.of(examTitle))</text><polygon fill="#181818" points="1483,601.5664,1493,605.5664,1483,609.5664,1487,605.5664" style="stroke:#181818;stroke-width:1.0;"/><line style="stroke:#181818;stroke-width:1.0;" x1="1313" x2="1489" y1="605.5664" y2="605.5664"/><text fill="#000000" font-family="sans-serif" font-size="13" font-weight="bold" lengthAdjust="spacing" textLength="18" x="1320" y="600.8242">17</text><text fill="#000000" font-family="sans-serif" font-size="13" lengthAdjust="spacing" textLength="141" x="1342" y="600.8242">findByTitle(examTitle))</text><polygon fill="#181818" points="1324,630.877,1314,634.877,1324,638.877,1320,634.877" style="stroke:#181818;stroke-width:1.0;"/><line style="stroke:#181818;stroke-width:1.0;stroke-dasharray:2.0,2.0;" x1="1318" x2="1499" y1="634.877" y2="634.877"/><text fill="#000000" font-family="sans-serif" font-size="13" font-weight="bold" lengthAdjust="spacing" textLength="18" x="1330" y="630.1348">18</text><text fill="#000000" font-family="sans-serif" font-size="13" lengthAdjust="spacing" textLength="92" x="1352" y="630.1348">examTemplate</text><polygon fill="#181818" points="1659,660.1875,1669,664.1875,1659,668.1875,1663,664.1875" style="stroke:#181818;stroke-width:1.0;"/><line style="stroke:#181818;stroke-width:1.0;" x1="1313" x2="1665" y1="664.1875" y2="664.1875"/><text fill="#000000" font-family="sans-serif" font-size="13" font-weight="bold" lengthAdjust="spacing" textLength="18" x="1320" y="659.4453">19</text><text fill="#000000" font-family="sans-serif" font-size="13" lengthAdjust="spacing" textLength="317" x="1342" y="659.4453">evaluateFromFile(filePath, student, examTemplate)</text><rect fill="none" height="53.5762" style="stroke:#000000;stroke-width:1.5;" width="127" x="1615" y="672.1875"/><path d="M1615,672.1875 L1679,672.1875 L1679,679.1875 L1669,689.1875 L1615,689.1875 L1615,672.1875 " fill="#EEEEEE" style="stroke:#000000;stroke-width:2.0;"/><text fill="#000000" font-family="sans-serif" font-size="13" font-weight="bold" lengthAdjust="spacing" textLength="19" x="1628" y="686.7559">ref</text><text fill="#000000" font-family="sans-serif" font-size="12" lengthAdjust="spacing" textLength="119" x="1619" y="704.7891">ANTLR4 parser logic</text><text fill="#000000" font-family="sans-serif" font-size="12" lengthAdjust="spacing" textLength="65" x="1646" y="718.9219">(antlr4.svg)</text><polygon fill="#181818" points="1324,748.0742,1314,752.0742,1324,756.0742,1320,752.0742" style="stroke:#181818;stroke-width:1.0;"/><line style="stroke:#181818;stroke-width:1.0;stroke-dasharray:2.0,2.0;" x1="1318" x2="1675" y1="752.0742" y2="752.0742"/><text fill="#000000" font-family="sans-serif" font-size="13" font-weight="bold" lengthAdjust="spacing" textLength="18" x="1330" y="747.332">20</text><text fill="#000000" font-family="sans-serif" font-size="13" lengthAdjust="spacing" textLength="94" x="1352" y="747.332">evaluatedExam</text><polygon fill="#181818" points="1785.5,777.3848,1795.5,781.3848,1785.5,785.3848,1789.5,781.3848" style="stroke:#181818;stroke-width:1.0;"/><line style="stroke:#181818;stroke-width:1.0;" x1="1313" x2="1791.5" y1="781.3848" y2="781.3848"/><text fill="#000000" font-family="sans-serif" font-size="13" font-weight="bold" lengthAdjust="spacing" textLength="18" x="1320" y="776.6426">21</text><text fill="#000000" font-family="sans-serif" font-size="13" lengthAdjust="spacing" textLength="130" x="1342" y="776.6426">save(evaluatedExam)</text><polygon fill="#181818" points="1324,806.6953,1314,810.6953,1324,814.6953,1320,810.6953" style="stroke:#181818;stroke-width:1.0;"/><line style="stroke:#181818;stroke-width:1.0;stroke-dasharray:2.0,2.0;" x1="1318" x2="1801.5" y1="810.6953" y2="810.6953"/><text fill="#000000" font-family="sans-serif" font-size="13" font-weight="bold" lengthAdjust="spacing" textLength="18" x="1330" y="805.9531">22</text><text fill="#000000" font-family="sans-serif" font-size="13" lengthAdjust="spacing" textLength="34" x="1352" y="805.9531">exam</text><polygon fill="#181818" points="583.5,836.0059,573.5,840.0059,583.5,844.0059,579.5,840.0059" style="stroke:#181818;stroke-width:1.0;"/><line style="stroke:#181818;stroke-width:1.0;stroke-dasharray:2.0,2.0;" x1="577.5" x2="1307" y1="840.0059" y2="840.0059"/><text fill="#000000" font-family="sans-serif" font-size="13" font-weight="bold" lengthAdjust="spacing" textLength="18" x="589.5" y="835.2637">23</text><text fill="#000000" font-family="sans-serif" font-size="13" lengthAdjust="spacing" textLength="34" x="611.5" y="835.2637">exam</text><polygon fill="#181818" points="276.5,865.3164,266.5,869.3164,276.5,873.3164,272.5,869.3164" style="stroke:#181818;stroke-width:1.0;"/><line style="stroke:#181818;stroke-width:1.0;stroke-dasharray:2.0,2.0;" x1="270.5" x2="566.5" y1="869.3164" y2="869.3164"/><text fill="#000000" font-family="sans-serif" font-size="13" font-weight="bold" lengthAdjust="spacing" textLength="18" x="282.5" y="864.5742">24</text><text fill="#000000" font-family="sans-serif" font-size="13" lengthAdjust="spacing" textLength="34" x="304.5" y="864.5742">exam</text><polygon fill="#181818" points="45.5,894.627,35.5,898.627,45.5,902.627,41.5,898.627" style="stroke:#181818;stroke-width:1.0;"/><line style="stroke:#181818;stroke-width:1.0;stroke-dasharray:2.0,2.0;" x1="39.5" x2="254.5" y1="898.627" y2="898.627"/><text fill="#000000" font-family="sans-serif" font-size="13" font-weight="bold" lengthAdjust="spacing" textLength="18" x="51.5" y="893.8848">25</text><text fill="#000000" font-family="sans-serif" font-size="13" lengthAdjust="spacing" textLength="159" x="73.5" y="893.8848">displays calculated grade</text><!--SRC=[ZLN1Rjim3BthAtHR2ZJffISZAD1rAJPWQ8SclUsYM4oYLROyKNQNVlr8EOuLsy2MaoE_Hpu-YlIdGmWLPZStbLLbg0kxo5rnW_2xXZA7kJPgxrKXXAg3A-jY2vwUy-2yN8TQGncaGedjen2Lyi7afg9GSgFUOFL75Q_V658RkLnM7f1mAXXNtjrTe5UDihKAaV7Wok2TjU2PcGTlYQkgofgyervmx-jmSDvyn9Thy8t9WPca-V2nRd9YOtiwIFfSCKDP1hig4CwQhLV-ECpmIlmr818w5fFyNIwrAvGPYU924Yqua26q2cgh429m0mNv7-05AeU6t3qo1mPlA80_0wRodKnqqJSu_rakws2i2STHtd6-oJod_ihv7VSna- -K46LmCb2F8utlX6b89m648111kN6Pp3tGyUogH_2vY5qb4FcIO3HSeaJfwD6R_I5aKaC59Ud8ZzAKlo3dtf4Kb3zBjSNWYGfQxgZWqwsL55QhRIoz5SK9JxLaLF4RHZWN88C95b81NCYmyCgxncZ0b3AgV3e9rjl2j5TcPop8IeN3VwUR94ybZhPcNU_ZD3rwLpmIQSRC7qIyRYyMYnzsvToMy-XGh19h3pnZ98qd43IFmrU5z-NnUJTxSBL7U74MSB7Ul7vPFMsk9WDXEp7fLUZUnltIuf8gJeHkIbEtUcANYEStaywlBCBcuDrxceTU2i68SVGqQeIr0Ra5oPHdCUE50Mdy14gjI7X9FZw-Q7ZAISRXt-spRhzlDLotsuDRkN2xMT_NH1koInoNmeysIaRtgTIVZv4rpHzoX1X5cVVAarTfiUCWdQBpbkhBdYZvD1dN5u5IaLqO8Jpif6lesz6VIVhTFss-lzpIvD1bzMoXoUFvZ7QPzRSBRFPNWlOBBOqTbNYMDHzrHRFd5yNroHEVJ_wYQiZOb3hmjlTqmikXXubtoRGFWDZFHRT9Xf1ssaVRIXiaPu_qqLKshzbZBMcJQX12_0K0]--></g></svg>