<?xml version="1.0" encoding="us-ascii" standalone="no"?><svg xmlns="http://www.w3.org/2000/svg" xmlns:xlink="http://www.w3.org/1999/xlink" contentStyleType="text/css" height="962px" preserveAspectRatio="none" style="width:817px;height:962px;background:#FFFFFF;" version="1.1" viewBox="0 0 817 962" width="817px" zoomAndPan="magnify"><defs/><g><!--class CreateCourseUI--><g id="elem_CreateCourseUI"><polygon fill="#F1F1F1" points="344.14,7,344.14,7.2102,353.9862,6.5857,363.8323,7.1933,373.6785,7.3997,383.5246,6.2866,393.3708,6.9223,403.2169,6.5735,413.0631,6.6165,422.9092,6.9318,432.7554,6.3086,442.6015,7.5536,452.4477,6.3697,462.2938,6.8022,472.14,7,472.1951,7.133,472.4826,7.12,472.8558,7.3139,473.1966,7.4295,473.577,7.6408,473.9078,7.7322,473.9814,7.7627,474.2346,8.1605,474.4073,8.5249,474.5563,8.8795,474.572,9.1789,474.64,9.5,475.1036,9.5,475.3422,20.1004,473.9188,30.7009,475.3185,41.3013,474.3435,51.9018,475.1738,62.5022,474.145,73.1027,474.64,83.7031,474.6189,83.6944,474.7219,84.1513,474.3321,84.404,474.2331,84.7772,474.1585,85.1605,473.9078,85.4709,473.9609,85.5991,473.5537,85.6161,473.2373,85.8522,472.7741,85.734,472.5298,86.1443,472.14,86.2031,472.14,86.7513,462.2938,86.6477,452.4477,86.8161,442.6015,85.72,432.7554,85.5509,422.9092,85.5817,413.0631,86.1442,403.2169,86.0066,393.3708,86.8845,383.5246,86.0284,373.6785,85.8601,363.8323,86.4314,353.9862,85.5363,344.14,86.2031,344.0738,86.0433,343.8692,86.2565,343.4885,86.0444,343.173,85.99,342.6847,85.5182,342.3722,85.4709,342.4705,85.5116,342.4076,85.1927,341.9339,84.7035,341.9034,84.398,341.8252,84.0727,341.64,83.7031,342.2918,83.7031,341.6358,73.1027,342.1026,62.5022,341.0862,51.9018,340.9627,41.3013,342.1436,30.7009,340.9231,20.1004,341.64,9.5,341.7967,9.5649,341.8501,9.1728,341.8504,8.7587,341.9704,8.3942,342.3671,8.1443,342.3722,7.7322,342.334,7.6401,342.8013,7.7681,343.0088,7.2691,343.5117,7.483,343.8482,7.2956,344.14,7" style="stroke:#181818;stroke-width:0.5;"/><polygon fill="#C2C2C2" points="367.7008,31.9667,366.0884,34.1698,364.1812,37.3967,361.4536,39.5714,358.5874,40.7606,356.302,40.8638,353.3647,39.3766,350.5932,38.4049,348.4895,36.4322,347.3861,34.1738,346.7317,32.3756,346.0906,30.0267,345.05,28.0055,345.8496,26.032,346.5502,23.8702,349.1793,22.1605,351.029,19.9421,353.3184,19.2055,356.0401,18.5711,359.5304,18.948,361.4421,19.8495,363.6647,20.2582,366.3672,23.027,367.3093,25.95,367.7186,27.9444,367.255,31.2309" style="stroke:#181818;stroke-width:1.0;"/><path d="M359.4056,25.166 Q359.5619,24.9473 359.7494,24.8379 Q359.9369,24.7285 360.1556,24.7285 Q360.5306,24.7285 360.765,24.9941 Q360.9994,25.2441 360.9994,25.8535 L360.9994,27.3066 Q360.9994,27.916 360.765,28.1816 Q360.5306,28.4473 360.1556,28.4473 Q359.8119,28.4473 359.6088,28.2441 Q359.4056,28.0566 359.2963,27.541 Q359.2494,27.1816 359.0619,26.9941 Q358.7338,26.6191 358.1244,26.4004 Q357.515,26.1816 356.89,26.1816 Q356.1244,26.1816 355.4838,26.5098 Q354.8588,26.8379 354.3588,27.5879 Q353.8744,28.3379 353.8744,29.3691 L353.8744,30.4629 Q353.8744,31.6973 354.765,32.5254 Q355.6556,33.3379 357.2494,33.3379 Q358.1869,33.3379 358.8431,33.0879 Q359.2338,32.9316 359.6556,32.4941 Q359.9213,32.2285 360.0619,32.1504 Q360.2181,32.0723 360.4213,32.0723 Q360.7494,32.0723 360.9994,32.3379 Q361.265,32.5879 361.265,32.9316 Q361.265,33.2754 360.9213,33.6816 Q360.4213,34.2598 359.6244,34.5879 Q358.5463,35.041 357.2494,35.041 Q355.7338,35.041 354.5306,34.416 Q353.5463,33.916 352.8588,32.8535 Q352.1713,31.7754 352.1713,30.4941 L352.1713,29.3379 Q352.1713,28.0098 352.7806,26.8691 Q353.4056,25.7129 354.4994,25.1035 Q355.5931,24.4785 356.8275,24.4785 Q357.5619,24.4785 358.2025,24.6504 Q358.8588,24.8066 359.4056,25.166 Z " fill="#000000"/><text fill="#000000" font-family="FG Virgil" font-size="12" font-style="italic" lengthAdjust="spacing" textLength="82" x="380.14" y="24.9492">&#171;presentation&#187;</text><text fill="#000000" font-family="FG Virgil" font-size="14" lengthAdjust="spacing" textLength="101" x="370.64" y="43.0684">CreateCourseUI</text><path d="M342.64,51.582 L342.64,51.8623 L352.7169,51.0296 L362.7938,51.8397 L372.8708,52.1149 L382.9477,50.6308 L393.0246,51.4784 L403.1015,51.0134 L413.1785,51.0707 L423.2554,51.4912 L433.3323,50.6602 L443.4092,52.3202 L453.4862,50.7417 L463.5631,51.3183 L473.64,51.582 " fill="#F1F1F1" style="stroke:#181818;stroke-width:0.5;"/><path d="M342.64,59.582 L342.64,59.8623 L352.7169,59.0296 L362.7938,59.8397 L372.8708,60.1149 L382.9477,58.6308 L393.0246,59.4784 L403.1015,59.0134 L413.1785,59.0707 L423.2554,59.4912 L433.3323,58.6602 L443.4092,60.3202 L453.4862,58.7417 L463.5631,59.3183 L473.64,59.582 " fill="#F1F1F1" style="stroke:#181818;stroke-width:0.5;"/><text fill="#000000" font-family="FG Virgil" font-size="14" lengthAdjust="spacing" textLength="42" x="347.64" y="78.6895">show()</text></g><!--class CreateCourseController--><g id="elem_CreateCourseController"><polygon fill="#F1F1F1" points="148.64,207,148.64,207.2102,158.6208,206.5857,168.6015,207.1933,178.5823,207.3997,188.5631,206.2866,198.5438,206.9223,208.5246,206.5735,218.5054,206.6165,228.4862,206.9318,238.4669,206.3086,248.4477,207.5536,258.4285,206.3697,268.4092,206.8022,278.39,207.4319,288.3708,206.9142,298.3515,207.0682,308.3323,206.9681,318.3131,207.1785,328.2938,207.2391,338.2746,207.5857,348.2554,207.6711,358.2362,207.6793,368.2169,207.2546,378.1977,207.4636,388.1785,207.7022,398.1592,206.2788,408.14,207.6785,418.1208,206.7035,428.1015,207.5338,438.0823,206.505,448.0631,206.9315,458.0438,207.7416,468.0246,206.9513,478.0054,207.1053,487.9862,207.3386,497.9669,207.4162,507.9477,206.9961,517.9285,207.2872,527.9092,206.4276,537.89,207.2844,547.8708,207.5482,557.8515,207.4445,567.8323,207.613,577.8131,206.5169,587.7938,206.3478,597.7746,206.3786,607.7554,206.9411,617.7362,206.8035,627.7169,207.6814,637.6977,206.8253,647.6785,206.6569,657.6592,207.2283,667.64,207,667.5549,206.7946,667.9273,206.9866,668.4299,207.4927,668.7562,207.5735,669.1479,207.812,669.4078,207.7322,669.3087,207.6912,669.6525,208.1265,669.8825,208.5147,669.7016,208.7326,669.964,209.1342,670.14,209.5,670.266,209.5,670.7918,219.8138,670.1358,230.1276,670.6026,240.4414,669.5862,250.7552,669.4627,261.069,670.6436,271.3828,669.4231,281.6966,670.649,292.0104,670.14,302.3242,670.2036,302.3506,669.911,302.6436,669.7382,302.9862,669.8419,303.4434,669.462,303.7002,669.4078,304.092,669.4833,304.2743,668.9837,304.0682,668.7794,304.575,668.4089,304.6805,668.0248,304.7532,667.64,304.8242,667.64,304.8714,657.6592,305.5508,647.6785,305.4378,637.6977,304.9935,627.7169,305.0924,617.7362,304.694,607.7554,305.5407,597.7746,304.9791,587.7938,304.9968,577.8131,304.2159,567.8323,304.419,557.8515,305.355,547.8708,305.254,537.89,304.7813,527.9092,304.502,517.9285,304.6053,507.9477,304.138,497.9669,305.239,487.9862,305.5638,478.0054,305.3506,468.0246,305.5192,458.0438,304.6875,448.0631,304.9114,438.0823,304.4366,428.1015,305.1083,418.1208,305.071,408.14,305.3766,398.1592,304.5946,388.1785,304.6898,378.1977,305.2677,368.2169,305.3916,358.2362,304.3117,348.2554,304.6303,338.2746,304.9735,328.2938,304.2134,318.3131,305.1776,308.3323,305.0822,298.3515,304.7235,288.3708,304.9665,278.39,305.5529,268.4092,304.5113,258.4285,305.1392,248.4477,305.1099,238.4669,304.94,228.4862,304.9651,218.5054,304.9377,208.5246,304.2001,198.5438,304.4234,188.5631,304.3627,178.5823,304.888,168.6015,304.9123,158.6208,304.986,148.64,304.8242,148.6029,304.7346,148.2778,304.657,147.9176,304.4943,147.6529,304.5625,147.2802,304.3698,146.8722,304.092,146.7227,304.0301,146.7033,303.7291,146.4016,303.3112,146.5217,303.0681,146.4738,302.7554,146.14,302.3242,146.6846,302.3242,145.7044,292.0104,146.604,281.6966,145.3972,271.3828,146.3402,261.069,145.8407,250.7552,146.2367,240.4414,146.3803,230.1276,146.6121,219.8138,146.14,209.5,145.9183,209.4082,146.4329,209.2071,146.4878,208.8156,146.6888,208.4847,146.9561,208.1812,146.8722,207.7322,146.8729,207.7339,147.2481,207.6398,147.6066,207.5051,147.9581,207.3536,148.2863,207.1462,148.64,207" style="stroke:#181818;stroke-width:0.5;"/><polygon fill="#C2C2C2" points="339.4508,231.9667,337.8384,234.1698,335.9312,237.3967,333.2036,239.5714,330.3374,240.7606,328.052,240.8638,325.1147,239.3766,322.3432,238.4049,320.2395,236.4322,319.1361,234.1738,318.4817,232.3756,317.8406,230.0267,316.8,228.0055,317.5996,226.032,318.3002,223.8702,320.9293,222.1605,322.779,219.9421,325.0684,219.2055,327.7901,218.5711,331.2804,218.948,333.1921,219.8495,335.4147,220.2582,338.1172,223.027,339.0593,225.95,339.4686,227.9444,339.005,231.2309" style="stroke:#181818;stroke-width:1.0;"/><path d="M331.1556,225.166 Q331.3119,224.9473 331.4994,224.8379 Q331.6869,224.7285 331.9056,224.7285 Q332.2806,224.7285 332.515,224.9941 Q332.7494,225.2441 332.7494,225.8535 L332.7494,227.3066 Q332.7494,227.916 332.515,228.1816 Q332.2806,228.4473 331.9056,228.4473 Q331.5619,228.4473 331.3588,228.2441 Q331.1556,228.0566 331.0463,227.541 Q330.9994,227.1816 330.8119,226.9941 Q330.4838,226.6191 329.8744,226.4004 Q329.265,226.1816 328.64,226.1816 Q327.8744,226.1816 327.2338,226.5098 Q326.6088,226.8379 326.1088,227.5879 Q325.6244,228.3379 325.6244,229.3691 L325.6244,230.4629 Q325.6244,231.6973 326.515,232.5254 Q327.4056,233.3379 328.9994,233.3379 Q329.9369,233.3379 330.5931,233.0879 Q330.9838,232.9316 331.4056,232.4941 Q331.6713,232.2285 331.8119,232.1504 Q331.9681,232.0723 332.1713,232.0723 Q332.4994,232.0723 332.7494,232.3379 Q333.015,232.5879 333.015,232.9316 Q333.015,233.2754 332.6713,233.6816 Q332.1713,234.2598 331.3744,234.5879 Q330.2963,235.041 328.9994,235.041 Q327.4838,235.041 326.2806,234.416 Q325.2963,233.916 324.6088,232.8535 Q323.9213,231.7754 323.9213,230.4941 L323.9213,229.3379 Q323.9213,228.0098 324.5306,226.8691 Q325.1556,225.7129 326.2494,225.1035 Q327.3431,224.4785 328.5775,224.4785 Q329.3119,224.4785 329.9525,224.6504 Q330.6088,224.8066 331.1556,225.166 Z " fill="#000000"/><text fill="#000000" font-family="FG Virgil" font-size="12" font-style="italic" lengthAdjust="spacing" textLength="74" x="387.39" y="224.9492">&#171;application&#187;</text><text fill="#000000" font-family="FG Virgil" font-size="14" lengthAdjust="spacing" textLength="151" x="348.89" y="243.0684">CreateCourseController</text><path d="M147.14,251.582 L147.14,251.8623 L157.1785,251.0296 L167.2169,251.8397 L177.2554,252.1149 L187.2938,250.6308 L197.3323,251.4784 L207.3708,251.0134 L217.4092,251.0707 L227.4477,251.4912 L237.4862,250.6602 L247.5246,252.3202 L257.5631,250.7417 L267.6015,251.3183 L277.64,252.158 L287.6785,251.4677 L297.7169,251.673 L307.7554,251.5394 L317.7938,251.8201 L327.8323,251.9009 L337.8708,252.363 L347.9092,252.4768 L357.9477,252.4877 L367.9862,251.9215 L378.0246,252.2001 L388.0631,252.5183 L398.1015,250.6205 L408.14,252.4867 L418.1785,251.1867 L428.2169,252.2938 L438.2554,250.922 L448.2938,251.4907 L458.3323,252.5708 L468.3708,251.5171 L478.4092,251.7224 L488.4477,252.0335 L498.4862,252.137 L508.5246,251.5768 L518.5631,251.965 L528.6015,250.8188 L538.64,251.9612 L548.6785,252.313 L558.7169,252.1747 L568.7554,252.3994 L578.7938,250.9379 L588.8323,250.7125 L598.8708,250.7535 L608.9092,251.5035 L618.9477,251.32 L628.9862,252.4906 L639.0246,251.3491 L649.0631,251.1246 L659.1015,251.8864 L669.14,251.582 " fill="#F1F1F1" style="stroke:#181818;stroke-width:0.5;"/><path d="M147.14,259.582 L147.14,259.8623 L157.1785,259.0296 L167.2169,259.8397 L177.2554,260.1149 L187.2938,258.6308 L197.3323,259.4784 L207.3708,259.0134 L217.4092,259.0707 L227.4477,259.4912 L237.4862,258.6602 L247.5246,260.3202 L257.5631,258.7417 L267.6015,259.3183 L277.64,260.158 L287.6785,259.4677 L297.7169,259.673 L307.7554,259.5394 L317.7938,259.8201 L327.8323,259.9009 L337.8708,260.363 L347.9092,260.4768 L357.9477,260.4877 L367.9862,259.9215 L378.0246,260.2001 L388.0631,260.5183 L398.1015,258.6205 L408.14,260.4867 L418.1785,259.1867 L428.2169,260.2938 L438.2554,258.922 L448.2938,259.4907 L458.3323,260.5708 L468.3708,259.5171 L478.4092,259.7224 L488.4477,260.0335 L498.4862,260.137 L508.5246,259.5768 L518.5631,259.965 L528.6015,258.8188 L538.64,259.9612 L548.6785,260.313 L558.7169,260.1747 L568.7554,260.3994 L578.7938,258.9379 L588.8323,258.7125 L598.8708,258.7535 L608.9092,259.5035 L618.9477,259.32 L628.9862,260.4906 L639.0246,259.3491 L649.0631,259.1246 L659.1015,259.8864 L669.14,259.582 " fill="#F1F1F1" style="stroke:#181818;stroke-width:0.5;"/><text fill="#000000" font-family="FG Virgil" font-size="14" lengthAdjust="spacing" textLength="326" x="152.14" y="278.6895">addCourse(String name, String code, String edition,</text><text fill="#000000" font-family="FG Virgil" font-size="14" lengthAdjust="spacing" textLength="508" x="156.14" y="297.3105">String description, Integer maximum, Integer minimum, String headTeacherEmail)</text></g><!--class CourseManagementService--><g id="elem_CourseManagementService"><polygon fill="#F1F1F1" points="148.64,365,148.64,365.2102,158.6208,364.5857,168.6015,365.1933,178.5823,365.3997,188.5631,364.2866,198.5438,364.9223,208.5246,364.5735,218.5054,364.6165,228.4862,364.9318,238.4669,364.3086,248.4477,365.5536,258.4285,364.3697,268.4092,364.8022,278.39,365.4319,288.3708,364.9142,298.3515,365.0682,308.3323,364.9681,318.3131,365.1785,328.2938,365.2391,338.2746,365.5857,348.2554,365.6711,358.2362,365.6793,368.2169,365.2546,378.1977,365.4636,388.1785,365.7022,398.1592,364.2788,408.14,365.6785,418.1208,364.7035,428.1015,365.5338,438.0823,364.505,448.0631,364.9315,458.0438,365.7416,468.0246,364.9513,478.0054,365.1053,487.9862,365.3386,497.9669,365.4162,507.9477,364.9961,517.9285,365.2872,527.9092,364.4276,537.89,365.2844,547.8708,365.5482,557.8515,365.4445,567.8323,365.613,577.8131,364.5169,587.7938,364.3478,597.7746,364.3786,607.7554,364.9411,617.7362,364.8035,627.7169,365.6814,637.6977,364.8253,647.6785,364.6569,657.6592,365.2283,667.64,365,667.5549,364.7946,667.9273,364.9866,668.4299,365.4927,668.7562,365.5735,669.1479,365.812,669.4078,365.7322,669.3087,365.6912,669.6525,366.1265,669.8825,366.5147,669.7016,366.7326,669.964,367.1342,670.14,367.5,670.266,367.5,670.7918,377.8138,670.1358,388.1276,670.6026,398.4414,669.5862,408.7552,669.4627,419.069,670.6436,429.3828,669.4231,439.6966,670.649,450.0104,670.14,460.3242,670.2036,460.3506,669.911,460.6436,669.7382,460.9862,669.8419,461.4434,669.462,461.7002,669.4078,462.092,669.4833,462.2743,668.9837,462.0682,668.7794,462.575,668.4089,462.6805,668.0248,462.7532,667.64,462.8242,667.64,462.8714,657.6592,463.5508,647.6785,463.4378,637.6977,462.9935,627.7169,463.0924,617.7362,462.694,607.7554,463.5407,597.7746,462.9791,587.7938,462.9968,577.8131,462.2159,567.8323,462.419,557.8515,463.355,547.8708,463.254,537.89,462.7813,527.9092,462.502,517.9285,462.6053,507.9477,462.138,497.9669,463.239,487.9862,463.5638,478.0054,463.3506,468.0246,463.5192,458.0438,462.6875,448.0631,462.9114,438.0823,462.4366,428.1015,463.1083,418.1208,463.071,408.14,463.3766,398.1592,462.5946,388.1785,462.6898,378.1977,463.2677,368.2169,463.3916,358.2362,462.3117,348.2554,462.6303,338.2746,462.9735,328.2938,462.2134,318.3131,463.1776,308.3323,463.0822,298.3515,462.7235,288.3708,462.9665,278.39,463.5529,268.4092,462.5113,258.4285,463.1392,248.4477,463.1099,238.4669,462.94,228.4862,462.9651,218.5054,462.9377,208.5246,462.2001,198.5438,462.4234,188.5631,462.3627,178.5823,462.888,168.6015,462.9123,158.6208,462.986,148.64,462.8242,148.6029,462.7346,148.2778,462.657,147.9176,462.4943,147.6529,462.5625,147.2802,462.3698,146.8722,462.092,146.7227,462.0301,146.7033,461.7291,146.4016,461.3112,146.5217,461.0681,146.4738,460.7554,146.14,460.3242,146.6846,460.3242,145.7044,450.0104,146.604,439.6966,145.3972,429.3828,146.3402,419.069,145.8407,408.7552,146.2367,398.4414,146.3803,388.1276,146.6121,377.8138,146.14,367.5,145.9183,367.4082,146.4329,367.2071,146.4878,366.8156,146.6888,366.4847,146.9561,366.1812,146.8722,365.7322,146.8729,365.7339,147.2481,365.6398,147.6066,365.5051,147.9581,365.3536,148.2863,365.1462,148.64,365" style="stroke:#181818;stroke-width:0.5;"/><polygon fill="#C2C2C2" points="327.4508,389.9667,325.8384,392.1698,323.9312,395.3967,321.2036,397.5714,318.3374,398.7606,316.052,398.8638,313.1147,397.3766,310.3432,396.4049,308.2395,394.4322,307.1361,392.1738,306.4817,390.3756,305.8406,388.0267,304.8,386.0055,305.5996,384.032,306.3002,381.8702,308.9293,380.1605,310.779,377.9421,313.0684,377.2055,315.7901,376.5711,319.2804,376.948,321.1921,377.8495,323.4147,378.2582,326.1172,381.027,327.0593,383.95,327.4686,385.9444,327.005,389.2309" style="stroke:#181818;stroke-width:1.0;"/><path d="M319.1556,383.166 Q319.3119,382.9473 319.4994,382.8379 Q319.6869,382.7285 319.9056,382.7285 Q320.2806,382.7285 320.515,382.9941 Q320.7494,383.2441 320.7494,383.8535 L320.7494,385.3066 Q320.7494,385.916 320.515,386.1816 Q320.2806,386.4473 319.9056,386.4473 Q319.5619,386.4473 319.3588,386.2441 Q319.1556,386.0566 319.0463,385.541 Q318.9994,385.1816 318.8119,384.9941 Q318.4838,384.6191 317.8744,384.4004 Q317.265,384.1816 316.64,384.1816 Q315.8744,384.1816 315.2338,384.5098 Q314.6088,384.8379 314.1088,385.5879 Q313.6244,386.3379 313.6244,387.3691 L313.6244,388.4629 Q313.6244,389.6973 314.515,390.5254 Q315.4056,391.3379 316.9994,391.3379 Q317.9369,391.3379 318.5931,391.0879 Q318.9838,390.9316 319.4056,390.4941 Q319.6713,390.2285 319.8119,390.1504 Q319.9681,390.0723 320.1713,390.0723 Q320.4994,390.0723 320.7494,390.3379 Q321.015,390.5879 321.015,390.9316 Q321.015,391.2754 320.6713,391.6816 Q320.1713,392.2598 319.3744,392.5879 Q318.2963,393.041 316.9994,393.041 Q315.4838,393.041 314.2806,392.416 Q313.2963,391.916 312.6088,390.8535 Q311.9213,389.7754 311.9213,388.4941 L311.9213,387.3379 Q311.9213,386.0098 312.5306,384.8691 Q313.1556,383.7129 314.2494,383.1035 Q315.3431,382.4785 316.5775,382.4785 Q317.3119,382.4785 317.9525,382.6504 Q318.6088,382.8066 319.1556,383.166 Z " fill="#000000"/><text fill="#000000" font-family="FG Virgil" font-size="12" font-style="italic" lengthAdjust="spacing" textLength="53" x="397.89" y="382.9492">&#171;service&#187;</text><text fill="#000000" font-family="FG Virgil" font-size="14" lengthAdjust="spacing" textLength="175" x="336.89" y="401.0684">CourseManagementService</text><path d="M147.14,409.582 L147.14,409.8623 L157.1785,409.0296 L167.2169,409.8397 L177.2554,410.1149 L187.2938,408.6308 L197.3323,409.4784 L207.3708,409.0134 L217.4092,409.0707 L227.4477,409.4912 L237.4862,408.6602 L247.5246,410.3202 L257.5631,408.7417 L267.6015,409.3183 L277.64,410.158 L287.6785,409.4677 L297.7169,409.673 L307.7554,409.5394 L317.7938,409.8201 L327.8323,409.9009 L337.8708,410.363 L347.9092,410.4768 L357.9477,410.4877 L367.9862,409.9215 L378.0246,410.2001 L388.0631,410.5183 L398.1015,408.6205 L408.14,410.4867 L418.1785,409.1867 L428.2169,410.2938 L438.2554,408.922 L448.2938,409.4907 L458.3323,410.5708 L468.3708,409.5171 L478.4092,409.7224 L488.4477,410.0335 L498.4862,410.137 L508.5246,409.5768 L518.5631,409.965 L528.6015,408.8188 L538.64,409.9612 L548.6785,410.313 L558.7169,410.1747 L568.7554,410.3994 L578.7938,408.9379 L588.8323,408.7125 L598.8708,408.7535 L608.9092,409.5035 L618.9477,409.32 L628.9862,410.4906 L639.0246,409.3491 L649.0631,409.1246 L659.1015,409.8864 L669.14,409.582 " fill="#F1F1F1" style="stroke:#181818;stroke-width:0.5;"/><path d="M147.14,417.582 L147.14,417.8623 L157.1785,417.0296 L167.2169,417.8397 L177.2554,418.1149 L187.2938,416.6308 L197.3323,417.4784 L207.3708,417.0134 L217.4092,417.0707 L227.4477,417.4912 L237.4862,416.6602 L247.5246,418.3202 L257.5631,416.7417 L267.6015,417.3183 L277.64,418.158 L287.6785,417.4677 L297.7169,417.673 L307.7554,417.5394 L317.7938,417.8201 L327.8323,417.9009 L337.8708,418.363 L347.9092,418.4768 L357.9477,418.4877 L367.9862,417.9215 L378.0246,418.2001 L388.0631,418.5183 L398.1015,416.6205 L408.14,418.4867 L418.1785,417.1867 L428.2169,418.2938 L438.2554,416.922 L448.2938,417.4907 L458.3323,418.5708 L468.3708,417.5171 L478.4092,417.7224 L488.4477,418.0335 L498.4862,418.137 L508.5246,417.5768 L518.5631,417.965 L528.6015,416.8188 L538.64,417.9612 L548.6785,418.313 L558.7169,418.1747 L568.7554,418.3994 L578.7938,416.9379 L588.8323,416.7125 L598.8708,416.7535 L608.9092,417.5035 L618.9477,417.32 L628.9862,418.4906 L639.0246,417.3491 L649.0631,417.1246 L659.1015,417.8864 L669.14,417.582 " fill="#F1F1F1" style="stroke:#181818;stroke-width:0.5;"/><text fill="#000000" font-family="FG Virgil" font-size="14" lengthAdjust="spacing" textLength="342" x="152.14" y="436.6895">createCourse(String name, String code, String edition,</text><text fill="#000000" font-family="FG Virgil" font-size="14" lengthAdjust="spacing" textLength="508" x="156.14" y="455.3105">String description, Integer maximum, Integer minimum, String headTeacherEmail)</text></g><!--class Course--><g id="elem_Course"><polygon fill="#F1F1F1" points="62.14,523,62.14,523.2102,72.169,522.5857,82.198,523.1933,92.227,523.3997,102.2559,522.2866,112.2849,522.9223,122.3139,522.5735,132.3429,522.6165,142.3719,522.9318,152.4009,522.3086,162.4299,523.5536,172.4588,522.3697,182.4878,522.8022,192.5168,523.4319,202.5458,522.9142,212.5748,523.0682,222.6038,522.9681,232.6328,523.1785,242.6617,523.2391,252.6907,523.5857,262.7197,523.6711,272.7487,523.6793,282.7777,523.2546,292.8067,523.4636,302.8357,523.7022,312.8646,522.2788,322.8936,523.6785,332.9226,522.7035,342.9516,523.5338,352.9806,522.505,363.0096,522.9315,373.0386,523.7416,383.0675,522.9513,393.0965,523.1053,403.1255,523.3386,413.1545,523.4162,423.1835,522.9961,433.2125,523.2872,443.2414,522.4276,453.2704,523.2844,463.2994,523.5482,473.3284,523.4445,483.3574,523.613,493.3864,522.5169,503.4154,522.3478,513.4443,522.3786,523.4733,522.9411,533.5023,522.8035,543.5313,523.6814,553.5603,522.8253,563.5893,522.6569,573.6183,523.2283,583.6472,522.3332,593.6762,522.4809,603.7052,523.649,613.7342,523.4357,623.7632,523.7345,633.7922,522.6782,643.8212,523.3192,653.8501,523.5904,663.8791,522.5276,673.9081,522.9041,683.9371,523.126,693.9661,523.6518,703.9951,522.9958,714.0241,523.4626,724.053,522.4462,734.082,522.3227,744.111,523.5036,754.14,523,754.0485,522.7792,754.5585,523.3032,754.8735,523.3565,755.1665,523.3568,755.5091,523.4768,755.9078,523.7322,756.049,523.7908,755.962,524.0476,756.3829,524.5148,756.1769,524.7224,756.6837,525.2252,756.64,525.5,757.1243,525.5,756.885,535.4125,756.6872,545.325,757.3666,555.2375,757.2536,565.15,756.8093,575.0625,756.9082,584.975,756.5097,594.8875,757.3565,604.8,756.7949,614.7125,756.8126,624.625,756.0316,634.5375,756.2348,644.45,757.1707,654.3625,757.0698,664.275,756.64,674.1875,756.6268,674.182,756.3943,674.5,756.2797,674.8667,755.9893,675.1606,756.1819,675.6546,755.9078,675.9553,756.0021,676.183,755.6214,676.2638,755.2893,676.4622,754.8297,676.3525,754.5047,676.5679,754.14,676.6875,754.14,676.2999,744.111,676.9715,734.082,676.9343,724.053,677.2399,714.0241,676.4578,703.9951,676.5531,693.9661,677.131,683.9371,677.2548,673.9081,676.175,663.8791,676.4936,653.8501,676.8368,643.8212,676.0767,633.7922,677.0409,623.7632,676.9455,613.7342,676.5867,603.7052,676.8297,593.6762,677.4162,583.6472,676.3746,573.6183,677.0025,563.5893,676.9731,553.5603,676.8033,543.5313,676.8284,533.5023,676.801,523.4733,676.0633,513.4443,676.2867,503.4154,676.226,493.3864,676.7513,483.3574,676.7756,473.3284,676.8492,463.2994,676.3965,453.2704,676.62,443.2414,676.5673,433.2125,677.2644,423.1835,677.1141,413.1545,676.202,403.1255,676.6146,393.0965,676.1103,383.0675,676.9759,373.0386,677.296,363.0096,677.2321,352.9806,676.2519,342.9516,677.1515,332.9226,675.9447,322.8936,676.8877,312.8646,676.3882,302.8357,676.7842,292.8067,676.9278,282.7777,677.1596,272.7487,675.9676,262.7197,677.163,252.6907,676.8657,242.6617,677.0428,232.6328,677.4353,222.6038,676.693,212.5748,676.8628,202.5458,676.9009,192.5168,676.8847,182.4878,676.6867,172.4588,677.3982,162.4299,676.0778,152.4009,677.2528,142.3719,676.0635,132.3429,676.1472,122.3139,676.7275,112.2849,676.7158,102.2559,676.1947,92.227,677.1012,82.198,676.7964,72.169,677.4142,62.14,676.6875,62.2251,676.8929,61.7293,676.403,61.3821,676.2721,61.0629,676.2084,60.7711,676.2112,60.3722,675.9553,60.4963,676.0067,60.3185,675.6401,59.974,675.2045,60.1289,674.9758,59.9816,674.6219,59.64,674.1875,59.5927,674.1875,59.4009,664.275,59.2386,654.3625,59.4254,644.45,59.7774,634.5375,59.5716,624.625,59.2222,614.7125,60.1274,604.8,59.1811,594.8875,60.1424,584.975,60.0672,575.0625,60.0119,565.15,60.3325,555.2375,59.3941,545.325,59.3394,535.4125,59.64,525.5,59.7998,525.5662,59.6026,525.0703,59.8608,524.763,60.1149,524.4541,60.2469,524.0945,60.3722,523.7322,60.3265,523.6218,60.7203,523.5726,61.1743,523.6686,61.5156,523.4926,61.7104,522.9628,62.14,523" style="stroke:#181818;stroke-width:0.5;"/><polygon fill="#C2C2C2" points="391.4508,547.9667,389.8384,550.1698,387.9312,553.3967,385.2036,555.5714,382.3374,556.7606,380.052,556.8638,377.1147,555.3766,374.3432,554.4049,372.2395,552.4322,371.1361,550.1738,370.4817,548.3756,369.8406,546.0267,368.8,544.0055,369.5996,542.032,370.3002,539.8702,372.9293,538.1605,374.779,535.9421,377.0684,535.2055,379.7901,534.5711,383.2804,534.948,385.1921,535.8495,387.4147,536.2582,390.1172,539.027,391.0593,541.95,391.4686,543.9444,391.005,547.2309" style="stroke:#181818;stroke-width:1.0;"/><path d="M383.1556,541.166 Q383.3119,540.9473 383.4994,540.8379 Q383.6869,540.7285 383.9056,540.7285 Q384.2806,540.7285 384.515,540.9941 Q384.7494,541.2441 384.7494,541.8535 L384.7494,543.3066 Q384.7494,543.916 384.515,544.1816 Q384.2806,544.4473 383.9056,544.4473 Q383.5619,544.4473 383.3588,544.2441 Q383.1556,544.0566 383.0463,543.541 Q382.9994,543.1816 382.8119,542.9941 Q382.4838,542.6191 381.8744,542.4004 Q381.265,542.1816 380.64,542.1816 Q379.8744,542.1816 379.2338,542.5098 Q378.6088,542.8379 378.1088,543.5879 Q377.6244,544.3379 377.6244,545.3691 L377.6244,546.4629 Q377.6244,547.6973 378.515,548.5254 Q379.4056,549.3379 380.9994,549.3379 Q381.9369,549.3379 382.5931,549.0879 Q382.9838,548.9316 383.4056,548.4941 Q383.6713,548.2285 383.8119,548.1504 Q383.9681,548.0723 384.1713,548.0723 Q384.4994,548.0723 384.7494,548.3379 Q385.015,548.5879 385.015,548.9316 Q385.015,549.2754 384.6713,549.6816 Q384.1713,550.2598 383.3744,550.5879 Q382.2963,551.041 380.9994,551.041 Q379.4838,551.041 378.2806,550.416 Q377.2963,549.916 376.6088,548.8535 Q375.9213,547.7754 375.9213,546.4941 L375.9213,545.3379 Q375.9213,544.0098 376.5306,542.8691 Q377.1556,541.7129 378.2494,541.1035 Q379.3431,540.4785 380.5775,540.4785 Q381.3119,540.4785 381.9525,540.6504 Q382.6088,540.8066 383.1556,541.166 Z " fill="#000000"/><text fill="#000000" font-family="FG Virgil" font-size="12" font-style="italic" lengthAdjust="spacing" textLength="51" x="398.89" y="540.9492">&#171;course&#187;</text><text fill="#000000" font-family="FG Virgil" font-size="14" lengthAdjust="spacing" textLength="46" x="401.39" y="559.0684">Course</text><path d="M60.64,567.582 L60.64,567.8623 L70.5686,567.0296 L80.4971,567.8397 L90.4257,568.1149 L100.3543,566.6308 L110.2829,567.4784 L120.2114,567.0134 L130.14,567.0707 L140.0686,567.4912 L149.9971,566.6602 L159.9257,568.3202 L169.8543,566.7417 L179.7829,567.3183 L189.7114,568.158 L199.64,567.4677 L209.5686,567.673 L219.4971,567.5394 L229.4257,567.8201 L239.3543,567.9009 L249.2829,568.363 L259.2114,568.4768 L269.14,568.4877 L279.0686,567.9215 L288.9971,568.2001 L298.9257,568.5183 L308.8543,566.6205 L318.7829,568.4867 L328.7114,567.1867 L338.64,568.2938 L348.5686,566.922 L358.4971,567.4907 L368.4257,568.5708 L378.3543,567.5171 L388.2829,567.7224 L398.2114,568.0335 L408.14,568.137 L418.0686,567.5768 L427.9971,567.965 L437.9257,566.8188 L447.8543,567.9612 L457.7829,568.313 L467.7114,568.1747 L477.64,568.3994 L487.5686,566.9379 L497.4971,566.7125 L507.4257,566.7535 L517.3543,567.5035 L527.2829,567.32 L537.2114,568.4906 L547.14,567.3491 L557.0686,567.1246 L566.9971,567.8864 L576.9257,566.6929 L586.8543,566.8899 L596.7829,568.4473 L606.7114,568.1629 L616.64,568.5614 L626.5686,567.153 L636.4971,568.0076 L646.4257,568.3693 L656.3543,566.9522 L666.2829,567.4542 L676.2114,567.75 L686.14,568.451 L696.0686,567.5764 L705.9971,568.1988 L715.9257,566.8437 L725.8543,566.679 L735.7829,568.2535 L745.7114,566.6261 L755.64,567.582 " fill="#F1F1F1" style="stroke:#181818;stroke-width:0.5;"/><path d="M60.64,575.582 L60.64,575.8623 L70.5686,575.0296 L80.4971,575.8397 L90.4257,576.1149 L100.3543,574.6308 L110.2829,575.4784 L120.2114,575.0134 L130.14,575.0707 L140.0686,575.4912 L149.9971,574.6602 L159.9257,576.3202 L169.8543,574.7417 L179.7829,575.3183 L189.7114,576.158 L199.64,575.4677 L209.5686,575.673 L219.4971,575.5394 L229.4257,575.8201 L239.3543,575.9009 L249.2829,576.363 L259.2114,576.4768 L269.14,576.4877 L279.0686,575.9215 L288.9971,576.2001 L298.9257,576.5183 L308.8543,574.6205 L318.7829,576.4867 L328.7114,575.1867 L338.64,576.2938 L348.5686,574.922 L358.4971,575.4907 L368.4257,576.5708 L378.3543,575.5171 L388.2829,575.7224 L398.2114,576.0335 L408.14,576.137 L418.0686,575.5768 L427.9971,575.965 L437.9257,574.8188 L447.8543,575.9612 L457.7829,576.313 L467.7114,576.1747 L477.64,576.3994 L487.5686,574.9379 L497.4971,574.7125 L507.4257,574.7535 L517.3543,575.5035 L527.2829,575.32 L537.2114,576.4906 L547.14,575.3491 L557.0686,575.1246 L566.9971,575.8864 L576.9257,574.6929 L586.8543,574.8899 L596.7829,576.4473 L606.7114,576.1629 L616.64,576.5614 L626.5686,575.153 L636.4971,576.0076 L646.4257,576.3693 L656.3543,574.9522 L666.2829,575.4542 L676.2114,575.75 L686.14,576.451 L696.0686,575.5764 L705.9971,576.1988 L715.9257,574.8437 L725.8543,574.679 L735.7829,576.2535 L745.7114,574.6261 L755.64,575.582 " fill="#F1F1F1" style="stroke:#181818;stroke-width:0.5;"/><text fill="#000000" font-family="FG Virgil" font-size="14" lengthAdjust="spacing" textLength="636" x="65.64" y="594.6895">Course(CourseName name, CourseCode code, CourseEdition edition, CourseDescription description</text><text fill="#000000" font-family="FG Virgil" font-size="14" lengthAdjust="spacing" textLength="685" x="65.64" y="613.3105">, CourseMaxNumberLimit maximum, CourseMinNumberLimit minimum, CourseState state, User headTeacher)</text><text fill="#000000" font-family="FG Virgil" font-size="14" lengthAdjust="spacing" textLength="391" x="65.64" y="631.9316">necessaryParameters(CourseName name, CourseCode code,</text><text fill="#000000" font-family="FG Virgil" font-size="14" lengthAdjust="spacing" textLength="485" x="69.64" y="650.5527">CourseEdition edition, CourseMaxNumberLimit maximum, User headTeacher)</text><text fill="#000000" font-family="FG Virgil" font-size="14" lengthAdjust="spacing" textLength="530" x="65.64" y="669.1738">validateMaxMin(CourseMaxNumberLimit maximum, CourseMinNumberLimit minimum)</text></g><!--class PersistenceContext--><g id="elem_PersistenceContext"><polygon fill="#F1F1F1" points="186.64,746.5,186.64,746.7102,196.5733,746.0857,206.5067,746.6933,216.44,746.8997,226.3733,745.7866,236.3067,746.4223,246.24,746.0735,256.1733,746.1165,266.1067,746.4318,276.04,745.8086,285.9733,747.0536,295.9067,745.8697,305.84,746.3022,315.7733,746.9319,325.7067,746.4142,335.64,746.5,335.6487,746.521,335.9895,746.6366,336.3699,746.8479,336.7312,747.013,337.1289,747.2662,337.4078,747.2322,337.6144,747.3178,337.7634,747.6724,337.7791,747.9718,337.9899,748.352,338.2098,748.736,338.14,749,337.4188,749,338.8185,759.6004,337.8435,770.2009,338.6738,780.8013,337.645,791.4018,338.0715,802.0022,338.8816,812.6027,338.14,823.2031,338.125,823.1969,338.026,823.5701,337.9514,823.9534,337.8288,824.3169,337.553,824.6168,337.4078,824.9709,337.4444,825.0593,336.9812,824.9411,336.7369,825.3514,336.417,825.5791,336.0503,825.6936,335.64,825.7031,335.64,826.3161,325.7067,825.22,315.7733,825.0509,305.84,825.0817,295.9067,825.6442,285.9733,825.5066,276.04,826.3845,266.1067,825.5284,256.1733,825.3601,246.24,825.9314,236.3067,825.0363,226.3733,825.184,216.44,826.3521,206.5067,826.1388,196.5733,826.4376,186.64,825.7031,186.599,825.604,186.3272,825.655,186.0082,825.5921,185.5191,825.1183,185.2136,825.0878,184.8722,824.9709,184.911,824.987,184.9265,824.7005,184.578,824.2633,184.5753,823.9692,184.1159,823.486,184.14,823.2031,183.4627,823.2031,184.6436,812.6027,183.4231,802.0022,184.649,791.4018,184.3466,780.8013,183.8721,770.2009,183.7862,759.6004,184.14,749,184.2813,749.0585,184.1943,748.6083,184.6152,748.3684,184.4091,747.8688,184.9159,747.6645,184.8722,747.2322,184.934,747.3814,185.257,747.1612,185.5854,746.9539,186.0256,747.0167,186.3647,746.8354,186.64,746.5" style="stroke:#181818;stroke-width:0.5;"/><polygon fill="#C2C2C2" points="210.2008,771.4667,208.5884,773.6698,206.6812,776.8967,203.9536,779.0714,201.0874,780.2606,198.802,780.3638,195.8647,778.8766,193.0932,777.9049,190.9895,775.9322,189.8861,773.6738,189.2317,771.8756,188.5906,769.5267,187.55,767.5055,188.3496,765.532,189.0502,763.3702,191.6793,761.6605,193.529,759.4421,195.8184,758.7055,198.5401,758.0711,202.0304,758.448,203.9421,759.3495,206.1647,759.7582,208.8672,762.527,209.8093,765.45,210.2186,767.4444,209.755,770.7309" style="stroke:#181818;stroke-width:1.0;"/><path d="M201.9056,764.666 Q202.0619,764.4473 202.2494,764.3379 Q202.4369,764.2285 202.6556,764.2285 Q203.0306,764.2285 203.265,764.4941 Q203.4994,764.7441 203.4994,765.3535 L203.4994,766.8066 Q203.4994,767.416 203.265,767.6816 Q203.0306,767.9473 202.6556,767.9473 Q202.3119,767.9473 202.1088,767.7441 Q201.9056,767.5566 201.7963,767.041 Q201.7494,766.6816 201.5619,766.4941 Q201.2338,766.1191 200.6244,765.9004 Q200.015,765.6816 199.39,765.6816 Q198.6244,765.6816 197.9838,766.0098 Q197.3588,766.3379 196.8588,767.0879 Q196.3744,767.8379 196.3744,768.8691 L196.3744,769.9629 Q196.3744,771.1973 197.265,772.0254 Q198.1556,772.8379 199.7494,772.8379 Q200.6869,772.8379 201.3431,772.5879 Q201.7338,772.4316 202.1556,771.9941 Q202.4213,771.7285 202.5619,771.6504 Q202.7181,771.5723 202.9213,771.5723 Q203.2494,771.5723 203.4994,771.8379 Q203.765,772.0879 203.765,772.4316 Q203.765,772.7754 203.4213,773.1816 Q202.9213,773.7598 202.1244,774.0879 Q201.0463,774.541 199.7494,774.541 Q198.2338,774.541 197.0306,773.916 Q196.0463,773.416 195.3588,772.3535 Q194.6713,771.2754 194.6713,769.9941 L194.6713,768.8379 Q194.6713,767.5098 195.2806,766.3691 Q195.9056,765.2129 196.9994,764.6035 Q198.0931,763.9785 199.3275,763.9785 Q200.0619,763.9785 200.7025,764.1504 Q201.3588,764.3066 201.9056,764.666 Z " fill="#000000"/><text fill="#000000" font-family="FG Virgil" font-size="12" font-style="italic" lengthAdjust="spacing" textLength="77" x="235.64" y="764.4492">&#171;persistence&#187;</text><text fill="#000000" font-family="FG Virgil" font-size="14" lengthAdjust="spacing" textLength="122" x="213.14" y="782.5684">PersistenceContext</text><path d="M185.14,791.082 L185.14,791.3623 L195.2733,790.5296 L205.4067,791.3397 L215.54,791.6149 L225.6733,790.1308 L235.8067,790.9784 L245.94,790.5134 L256.0733,790.5707 L266.2067,790.9912 L276.34,790.1602 L286.4733,791.8202 L296.6067,790.2417 L306.74,790.8183 L316.8733,791.658 L327.0067,790.9677 L337.14,791.082 " fill="#F1F1F1" style="stroke:#181818;stroke-width:0.5;"/><path d="M185.14,799.082 L185.14,799.3623 L195.2733,798.5296 L205.4067,799.3397 L215.54,799.6149 L225.6733,798.1308 L235.8067,798.9784 L245.94,798.5134 L256.0733,798.5707 L266.2067,798.9912 L276.34,798.1602 L286.4733,799.8202 L296.6067,798.2417 L306.74,798.8183 L316.8733,799.658 L327.0067,798.9677 L337.14,799.082 " fill="#F1F1F1" style="stroke:#181818;stroke-width:0.5;"/><text fill="#000000" font-family="FG Virgil" font-size="14" lengthAdjust="spacing" textLength="84" x="190.14" y="818.1895">repositories()</text></g><!--class RepositoryFactory--><g id="elem_RepositoryFactory"><polygon fill="#F1F1F1" points="483.64,737,483.64,737.2102,493.8543,736.5857,504.0686,737.1933,514.2829,737.3997,524.4971,736.2866,534.7114,736.9223,544.9257,736.5735,555.14,736.6165,565.3543,736.9318,575.5686,736.3086,585.7829,737.5536,595.9971,736.3697,606.2114,736.8022,616.4257,737.4319,626.64,737,626.6291,736.9736,627.0023,737.1675,627.343,737.2831,627.7234,737.4943,628.0847,737.6594,628.4078,737.7322,628.5881,737.8069,628.7609,738.1714,628.9098,738.526,628.9255,738.8254,629.1363,739.2056,629.14,739.5,629.8422,739.5,628.4188,749.8138,629.8185,760.1276,628.8435,770.4414,629.6738,780.7552,628.645,791.069,629.0715,801.3828,629.8816,811.6966,629.0913,822.0104,629.14,832.3242,629.1724,832.3377,629.0978,832.721,628.9753,833.0844,628.6995,833.3844,628.6427,833.7751,628.4078,834.092,628.3347,833.9157,628.0905,834.326,627.7706,834.5537,627.4038,834.6682,627.0718,834.8666,626.64,834.8242,626.64,834.3411,616.4257,834.172,606.2114,834.2028,595.9971,834.7653,585.7829,834.6277,575.5686,835.5056,565.3543,834.6495,555.14,834.4812,544.9257,835.0525,534.7114,834.1574,524.4971,834.3051,514.2829,835.4732,504.0686,835.2599,493.8543,835.5587,483.64,834.8242,483.599,834.7251,483.3272,834.7761,483.0082,834.7132,482.5191,834.2394,482.2136,834.2089,481.8722,834.092,481.911,834.1081,481.9265,833.8216,481.578,833.3843,481.5753,833.0903,481.1159,832.6071,481.14,832.3242,480.4627,832.3242,481.6436,822.0104,480.4231,811.6966,481.649,801.3828,481.3466,791.069,480.8721,780.7552,480.7862,770.4414,481.5988,760.1276,480.8407,749.8138,481.14,739.5,481.3223,739.5755,481.1162,739.0759,481.623,738.8717,481.7285,738.5011,481.8012,738.117,481.8722,737.7322,481.8783,737.7468,482.3185,737.8096,482.6576,737.6283,482.9545,737.345,483.3207,737.229,483.64,737" style="stroke:#181818;stroke-width:0.5;"/><polygon fill="#C2C2C2" points="507.2008,761.9667,505.5884,764.1698,503.6812,767.3967,500.9536,769.5714,498.0874,770.7606,495.802,770.8638,492.8647,769.3766,490.0932,768.4049,487.9895,766.4322,486.8861,764.1738,486.2317,762.3756,485.5906,760.0267,484.55,758.0055,485.3496,756.032,486.0502,753.8702,488.6793,752.1605,490.529,749.9421,492.8184,749.2055,495.5401,748.5711,499.0304,748.948,500.9421,749.8495,503.1647,750.2582,505.8672,753.027,506.8093,755.95,507.2186,757.9444,506.755,761.2309" style="stroke:#181818;stroke-width:1.0;"/><path d="M498.9056,755.166 Q499.0619,754.9473 499.2494,754.8379 Q499.4369,754.7285 499.6556,754.7285 Q500.0306,754.7285 500.265,754.9941 Q500.4994,755.2441 500.4994,755.8535 L500.4994,757.3066 Q500.4994,757.916 500.265,758.1816 Q500.0306,758.4473 499.6556,758.4473 Q499.3119,758.4473 499.1088,758.2441 Q498.9056,758.0566 498.7963,757.541 Q498.7494,757.1816 498.5619,756.9941 Q498.2338,756.6191 497.6244,756.4004 Q497.015,756.1816 496.39,756.1816 Q495.6244,756.1816 494.9838,756.5098 Q494.3588,756.8379 493.8588,757.5879 Q493.3744,758.3379 493.3744,759.3691 L493.3744,760.4629 Q493.3744,761.6973 494.265,762.5254 Q495.1556,763.3379 496.7494,763.3379 Q497.6869,763.3379 498.3431,763.0879 Q498.7338,762.9316 499.1556,762.4941 Q499.4213,762.2285 499.5619,762.1504 Q499.7181,762.0723 499.9213,762.0723 Q500.2494,762.0723 500.4994,762.3379 Q500.765,762.5879 500.765,762.9316 Q500.765,763.2754 500.4213,763.6816 Q499.9213,764.2598 499.1244,764.5879 Q498.0463,765.041 496.7494,765.041 Q495.2338,765.041 494.0306,764.416 Q493.0463,763.916 492.3588,762.8535 Q491.6713,761.7754 491.6713,760.4941 L491.6713,759.3379 Q491.6713,758.0098 492.2806,756.8691 Q492.9056,755.7129 493.9994,755.1035 Q495.0931,754.4785 496.3275,754.4785 Q497.0619,754.4785 497.7025,754.6504 Q498.3588,754.8066 498.9056,755.166 Z " fill="#000000"/><text fill="#000000" font-family="FG Virgil" font-size="12" font-style="italic" lengthAdjust="spacing" textLength="50" x="543.14" y="754.9492">&#171;factory&#187;</text><text fill="#000000" font-family="FG Virgil" font-size="14" lengthAdjust="spacing" textLength="116" x="510.14" y="773.0684">RepositoryFactory</text><path d="M482.14,781.582 L482.14,781.8623 L491.8733,781.0296 L501.6067,781.8397 L511.34,782.1149 L521.0733,780.6308 L530.8067,781.4784 L540.54,781.0134 L550.2733,781.0707 L560.0067,781.4912 L569.74,780.6602 L579.4733,782.3202 L589.2067,780.7417 L598.94,781.3183 L608.6733,782.158 L618.4067,781.4677 L628.14,781.582 " fill="#F1F1F1" style="stroke:#181818;stroke-width:0.5;"/><path d="M482.14,789.582 L482.14,789.8623 L491.8733,789.0296 L501.6067,789.8397 L511.34,790.1149 L521.0733,788.6308 L530.8067,789.4784 L540.54,789.0134 L550.2733,789.0707 L560.0067,789.4912 L569.74,788.6602 L579.4733,790.3202 L589.2067,788.7417 L598.94,789.3183 L608.6733,790.158 L618.4067,789.4677 L628.14,789.582 " fill="#F1F1F1" style="stroke:#181818;stroke-width:0.5;"/><text fill="#000000" font-family="FG Virgil" font-size="14" lengthAdjust="spacing" textLength="45" x="487.14" y="808.6895">users()</text><text fill="#000000" font-family="FG Virgil" font-size="14" lengthAdjust="spacing" textLength="60" x="487.14" y="827.3105">courses()</text></g><!--class UserRepository--><g id="elem_UserRepository"><polygon fill="#F1F1F1" points="407.14,895,407.14,895.2102,417.4733,894.5857,427.8067,895.1933,438.14,895.3997,448.4733,894.2866,458.8067,894.9223,469.14,894.5735,479.4733,894.6165,489.8067,894.9318,500.14,894.3086,510.4733,895.5536,520.8067,894.3697,531.14,895,531.1148,894.9391,531.5487,895.2795,531.8362,895.2665,532.2094,895.4604,532.5501,895.5759,532.9078,895.7322,532.9627,895.755,533.1279,896.1163,533.381,896.5141,533.5538,896.8785,533.7027,897.2331,533.64,897.5,533.8946,897.5,534.1036,906.7637,534.3422,916.0273,532.9188,925.291,534.3185,934.5547,533.3435,943.8184,533.64,953.082,533.8044,953.1501,533.3411,953.3724,533.326,953.7804,533.429,954.2373,533.0392,954.49,532.9078,954.8498,532.9212,954.8822,532.5974,955.1005,532.2538,955.2709,531.8466,955.2879,531.5302,955.524,531.14,955.582,531.14,955.0096,520.8067,955.8664,510.4733,956.1302,500.14,956.0266,489.8067,956.1951,479.4733,955.099,469.14,954.9298,458.8067,954.9606,448.4733,955.5232,438.14,955.3855,427.8067,956.2634,417.4733,955.4074,407.14,955.582,407.0962,955.4764,406.8156,955.5059,406.3478,955.0838,406.0131,954.9828,405.8086,955.1961,405.3722,954.8498,405.5064,954.9054,405.452,954.5899,404.9802,954.1016,405.0312,953.8299,404.9683,953.5109,404.64,953.082,404.1676,953.082,404.5441,943.8184,404.766,934.5547,405.2918,925.291,404.6358,916.0273,405.1026,906.7637,404.64,897.5,404.4695,897.4294,404.5779,897.0601,405.088,896.8571,404.8586,896.3479,405.3825,896.1507,405.3722,895.7322,405.3986,895.7959,405.6916,895.5033,406.0342,895.3304,406.4914,895.4342,406.7483,895.0543,407.14,895" style="stroke:#181818;stroke-width:0.5;"/><polygon fill="#C2C2C2" points="430.7008,919.9667,429.0884,922.1698,427.1812,925.3967,424.4536,927.5714,421.5874,928.7606,419.302,928.8638,416.3647,927.3766,413.5932,926.4049,411.4895,924.4322,410.3861,922.1738,409.7317,920.3756,409.0906,918.0267,408.05,916.0055,408.8496,914.032,409.5502,911.8702,412.1793,910.1605,414.029,907.9421,416.3184,907.2055,419.0401,906.5711,422.5304,906.948,424.4421,907.8495,426.6647,908.2582,429.3672,911.027,430.3093,913.95,430.7186,915.9444,430.255,919.2309" style="stroke:#181818;stroke-width:1.0;"/><path d="M422.4056,913.166 Q422.5619,912.9473 422.7494,912.8379 Q422.9369,912.7285 423.1556,912.7285 Q423.5306,912.7285 423.765,912.9941 Q423.9994,913.2441 423.9994,913.8535 L423.9994,915.3066 Q423.9994,915.916 423.765,916.1816 Q423.5306,916.4473 423.1556,916.4473 Q422.8119,916.4473 422.6088,916.2441 Q422.4056,916.0566 422.2963,915.541 Q422.2494,915.1816 422.0619,914.9941 Q421.7338,914.6191 421.1244,914.4004 Q420.515,914.1816 419.89,914.1816 Q419.1244,914.1816 418.4838,914.5098 Q417.8588,914.8379 417.3588,915.5879 Q416.8744,916.3379 416.8744,917.3691 L416.8744,918.4629 Q416.8744,919.6973 417.765,920.5254 Q418.6556,921.3379 420.2494,921.3379 Q421.1869,921.3379 421.8431,921.0879 Q422.2338,920.9316 422.6556,920.4941 Q422.9213,920.2285 423.0619,920.1504 Q423.2181,920.0723 423.4213,920.0723 Q423.7494,920.0723 423.9994,920.3379 Q424.265,920.5879 424.265,920.9316 Q424.265,921.2754 423.9213,921.6816 Q423.4213,922.2598 422.6244,922.5879 Q421.5463,923.041 420.2494,923.041 Q418.7338,923.041 417.5306,922.416 Q416.5463,921.916 415.8588,920.8535 Q415.1713,919.7754 415.1713,918.4941 L415.1713,917.3379 Q415.1713,916.0098 415.7806,914.8691 Q416.4056,913.7129 417.4994,913.1035 Q418.5931,912.4785 419.8275,912.4785 Q420.5619,912.4785 421.2025,912.6504 Q421.8588,912.8066 422.4056,913.166 Z " fill="#000000"/><text fill="#000000" font-family="FG Virgil" font-size="12" font-style="italic" lengthAdjust="spacing" textLength="68" x="448.14" y="912.9492">&#171;repository&#187;</text><text fill="#000000" font-family="FG Virgil" font-size="14" lengthAdjust="spacing" textLength="97" x="433.64" y="931.0684">UserRepository</text><path d="M405.64,939.582 L405.64,939.8623 L415.4092,939.0296 L425.1785,939.8397 L434.9477,940.1149 L444.7169,938.6308 L454.4862,939.4784 L464.2554,939.0134 L474.0246,939.0707 L483.7938,939.4912 L493.5631,938.6602 L503.3323,940.3202 L513.1015,938.7417 L522.8708,939.3183 L532.64,939.582 " fill="#F1F1F1" style="stroke:#181818;stroke-width:0.5;"/><path d="M405.64,947.582 L405.64,947.8623 L415.4092,947.0296 L425.1785,947.8397 L434.9477,948.1149 L444.7169,946.6308 L454.4862,947.4784 L464.2554,947.0134 L474.0246,947.0707 L483.7938,947.4912 L493.5631,946.6602 L503.3323,948.3202 L513.1015,946.7417 L522.8708,947.3183 L532.64,947.582 " fill="#F1F1F1" style="stroke:#181818;stroke-width:0.5;"/></g><!--class CourseRepository--><g id="elem_CourseRepository"><polygon fill="#F1F1F1" points="571.64,895,571.64,895.2102,581.7114,894.5857,591.7829,895.1933,601.8543,895.3997,611.9257,894.2866,621.9971,894.9223,632.0686,894.5735,642.14,894.6165,652.2114,894.9318,662.2829,894.3086,672.3543,895.5536,682.4257,894.3697,692.4971,894.8022,702.5686,895.4319,712.64,895,712.6291,894.9736,713.0023,895.1675,713.343,895.2831,713.7234,895.4943,714.0847,895.6594,714.4078,895.7322,714.5881,895.8069,714.7609,896.1714,714.9098,896.526,714.9255,896.8254,715.1363,897.2056,715.14,897.5,715.8422,897.5,714.4188,906.7637,715.8185,916.0273,714.8435,925.291,715.6738,934.5547,714.645,943.8184,715.14,953.082,715.1189,953.0733,715.2219,953.5302,714.8321,953.7829,714.7331,954.1561,714.6585,954.5394,714.4078,954.8498,714.4609,954.978,714.0537,954.995,713.7373,955.2311,713.2741,955.1129,713.0298,955.5232,712.64,955.582,712.64,956.1302,702.5686,956.0266,692.4971,956.1951,682.4257,955.099,672.3543,954.9298,662.2829,954.9606,652.2114,955.5232,642.14,955.3855,632.0686,956.2634,621.9971,955.4074,611.9257,955.239,601.8543,955.8103,591.7829,954.9152,581.7114,955.0629,571.64,955.582,571.7228,955.7819,571.342,955.5698,571.0266,955.5153,570.5383,955.0436,570.2665,955.0945,569.8722,954.8498,570.0541,954.9251,569.5803,954.436,569.5498,954.1305,569.4717,953.8052,569.4872,953.5187,569.14,953.082,569.1358,953.082,569.6026,943.8184,568.5862,934.5547,568.4627,925.291,569.6436,916.0273,568.4231,906.7637,569.14,897.5,569.2967,897.5649,569.3501,897.1728,569.3504,896.7587,569.4704,896.3942,569.8671,896.1443,569.8722,895.7322,569.834,895.6401,570.3013,895.7681,570.5088,895.2691,571.0117,895.483,571.3482,895.2956,571.64,895" style="stroke:#181818;stroke-width:0.5;"/><polygon fill="#C2C2C2" points="595.2008,919.9667,593.5884,922.1698,591.6812,925.3967,588.9536,927.5714,586.0874,928.7606,583.802,928.8638,580.8647,927.3766,578.0932,926.4049,575.9895,924.4322,574.8861,922.1738,574.2317,920.3756,573.5906,918.0267,572.55,916.0055,573.3496,914.032,574.0502,911.8702,576.6793,910.1605,578.529,907.9421,580.8184,907.2055,583.5401,906.5711,587.0304,906.948,588.9421,907.8495,591.1647,908.2582,593.8672,911.027,594.8093,913.95,595.2186,915.9444,594.755,919.2309" style="stroke:#181818;stroke-width:1.0;"/><path d="M586.9056,913.166 Q587.0619,912.9473 587.2494,912.8379 Q587.4369,912.7285 587.6556,912.7285 Q588.0306,912.7285 588.265,912.9941 Q588.4994,913.2441 588.4994,913.8535 L588.4994,915.3066 Q588.4994,915.916 588.265,916.1816 Q588.0306,916.4473 587.6556,916.4473 Q587.3119,916.4473 587.1088,916.2441 Q586.9056,916.0566 586.7963,915.541 Q586.7494,915.1816 586.5619,914.9941 Q586.2338,914.6191 585.6244,914.4004 Q585.015,914.1816 584.39,914.1816 Q583.6244,914.1816 582.9838,914.5098 Q582.3588,914.8379 581.8588,915.5879 Q581.3744,916.3379 581.3744,917.3691 L581.3744,918.4629 Q581.3744,919.6973 582.265,920.5254 Q583.1556,921.3379 584.7494,921.3379 Q585.6869,921.3379 586.3431,921.0879 Q586.7338,920.9316 587.1556,920.4941 Q587.4213,920.2285 587.5619,920.1504 Q587.7181,920.0723 587.9213,920.0723 Q588.2494,920.0723 588.4994,920.3379 Q588.765,920.5879 588.765,920.9316 Q588.765,921.2754 588.4213,921.6816 Q587.9213,922.2598 587.1244,922.5879 Q586.0463,923.041 584.7494,923.041 Q583.2338,923.041 582.0306,922.416 Q581.0463,921.916 580.3588,920.8535 Q579.6713,919.7754 579.6713,918.4941 L579.6713,917.3379 Q579.6713,916.0098 580.2806,914.8691 Q580.9056,913.7129 581.9994,913.1035 Q583.0931,912.4785 584.3275,912.4785 Q585.0619,912.4785 585.7025,912.6504 Q586.3588,912.8066 586.9056,913.166 Z " fill="#000000"/><text fill="#000000" font-family="FG Virgil" font-size="12" font-style="italic" lengthAdjust="spacing" textLength="68" x="621.14" y="912.9492">&#171;repository&#187;</text><text fill="#000000" font-family="FG Virgil" font-size="14" lengthAdjust="spacing" textLength="114" x="598.14" y="931.0684">CourseRepository</text><path d="M570.14,939.582 L570.14,939.8623 L580.4257,939.0296 L590.7114,939.8397 L600.9971,940.1149 L611.2829,938.6308 L621.5686,939.4784 L631.8543,939.0134 L642.14,939.0707 L652.4257,939.4912 L662.7114,938.6602 L672.9971,940.3202 L683.2829,938.7417 L693.5686,939.3183 L703.8543,940.158 L714.14,939.582 " fill="#F1F1F1" style="stroke:#181818;stroke-width:0.5;"/><path d="M570.14,947.582 L570.14,947.8623 L580.4257,947.0296 L590.7114,947.8397 L600.9971,948.1149 L611.2829,946.6308 L621.5686,947.4784 L631.8543,947.0134 L642.14,947.0707 L652.4257,947.4912 L662.7114,946.6602 L672.9971,948.3202 L683.2829,946.7417 L693.5686,947.3183 L703.8543,948.158 L714.14,947.582 " fill="#F1F1F1" style="stroke:#181818;stroke-width:0.5;"/></g><!--link CreateCourseUI to CreateCourseController--><g id="link_CreateCourseUI_CreateCourseController"><path d="M408.14,86.04 L408.4202,86.04 L407.5876,95.6658 L408.3977,105.2917 L408.6729,114.9175 L407.1888,124.5433 L408.0364,134.1692 L407.5713,143.795 L407.6287,153.4208 L408.0491,163.0467 L407.2182,172.6725 L408.8782,182.2983 L407.2996,191.9242 L408.14,201.55 " fill="none" style="stroke:#181818;stroke-width:1.0;stroke-dasharray:7.0,7.0;"/><polygon fill="#181818" points="408.14,206.8,408.204,206.8285,408.8138,204.9439,409.7989,203.2262,410.6617,201.4541,411.1227,199.5034,412.14,197.8,412.1217,197.7817,411.2395,198.4995,410.4496,199.3096,409.7239,200.1839,408.777,200.837,408.14,201.8,408.2705,201.9305,407.1914,200.8514,406.4934,200.1534,405.8418,199.5018,404.9198,198.5798,404.14,197.8,404.1608,197.8092,404.9303,199.5957,405.7944,201.4242,406.6128,203.2324,407.5184,205.0793,408.14,206.8" style="stroke:#181818;stroke-width:1.0;"/></g><!--link CreateCourseController to CourseManagementService--><g id="link_CreateCourseController_CourseManagementService"><path d="M408.14,305.08 L408.4202,305.08 L407.5876,315.944 L408.3977,326.808 L408.6729,337.672 L407.1888,348.536 L408.14,359.4 " fill="none" style="stroke:#181818;stroke-width:1.0;"/><polygon fill="#181818" points="408.14,364.81,408.204,364.8385,408.8138,362.9539,409.7989,361.2362,410.6617,359.4641,411.1227,357.5134,412.14,355.81,412.1217,355.7917,411.2395,356.5095,410.4496,357.3196,409.7239,358.1939,408.777,358.847,408.14,359.81,408.2705,359.9405,407.1914,358.8614,406.4934,358.1634,405.8418,357.5118,404.9198,356.5898,404.14,355.81,404.1608,355.8192,404.9303,357.6057,405.7944,359.4342,406.6128,361.2424,407.5184,363.0893,408.14,364.81" style="stroke:#181818;stroke-width:1.0;"/></g><!--link CreateCourseController to PersistenceContext--><g id="link_CreateCourseController_PersistenceContext"><path d="M227.65,305.05 L227.6878,305.1354 L224.9097,306.0614 L222.3533,307.4882 L219.7246,308.7519 L216.8586,309.4793 L214.3212,310.9491 L214.3063,310.9179 L211.596,312.0438 L208.961,313.3267 L206.3782,314.7188 L203.6153,315.7347 L201.1047,317.2775 L201.2181,317.4959 L198.3689,318.3831 L195.8509,319.9079 L193.3732,321.5104 L190.6605,322.6604 L188.0714,324.0484 L188.0864,324.0748 L185.5087,325.4814 L182.9989,327.0081 L180.4564,328.4769 L177.9764,330.0563 L175.2925,331.275 L175.4493,331.5287 L172.9605,333.0709 L170.3705,334.4494 L167.9286,336.0675 L165.4937,337.6968 L162.8389,338.9703 L162.659,338.705 L160.5967,340.8553 L157.942,342.1321 L155.7376,344.073 L153.0695,345.33 L150.7816,347.1475 L150.7633,347.1231 L148.661,349.1458 L146.1326,350.599 L143.8556,352.3883 L141.5998,354.2058 L139.1916,355.8197 L139.3098,355.962 L136.9802,357.6544 L134.8525,359.59 L132.3981,361.1322 L130.4311,363.2612 L128.14,365 L128.3032,365.1809 L126.142,367.0692 L124.0619,369.0474 L121.6051,370.6083 L119.4244,372.4751 L117.4883,374.6128 L117.2967,374.4139 L115.5727,376.4215 L113.6328,378.205 L112.0061,380.3135 L109.8447,381.867 L108.0011,383.7504 L107.8911,383.6449 L106.39,385.5751 L104.4187,387.0539 L102.7818,388.8537 L101.472,390.9676 L99.5797,392.5222 L99.7253,392.6497 L98.3344,394.4402 L96.4902,395.834 L95.2137,397.7247 L93.8135,399.5072 L92.1252,401.0373 L91.9602,400.9075 L90.7744,402.6846 L89.5346,404.4191 L88.401,406.2373 L86.8546,407.7305 L85.5388,409.4053 L85.7074,409.523 L84.1737,410.9303 L82.9653,412.5649 L82.2322,414.5314 L80.6241,415.8868 L79.7219,417.7353 L79.9183,417.8476 L77.8575,421.1776 L75.7303,424.4695 L73.7531,427.8472 L72.1223,431.4233 L70.0013,434.7188 L69.8791,434.666 L68.6771,438.4517 L66.6443,441.8789 L65.5562,445.7137 L63.9362,449.3189 L62.1729,452.8624 L62.2756,452.8986 L61.5024,454.8254 L61.0968,456.8819 L60.3592,458.8213 L59.4827,460.7116 L58.7214,462.6426 L58.8351,462.6784 L58.0113,464.7048 L57.7153,466.8975 L56.8223,468.9022 L56.1748,470.9842 L55.4467,473.0408 L55.1869,472.9661 L54.6343,475.2161 L54.3947,477.5561 L53.7123,479.7688 L52.871,481.9359 L52.25,484.1663 L52.1117,484.1291 L51.5125,486.5335 L50.6685,488.8719 L50.4975,491.3915 L49.9934,493.8214 L49.0325,496.1285 L49.2591,496.1866 L47.9532,501.5795 L46.2166,506.862 L44.9345,512.261 L43.3516,517.5829 L42.14,523 L42.262,523.0323 L41.6103,525.4324 L41.1058,527.8715 L40.1341,530.187 L39.5392,532.6022 L38.9612,535.0218 L39.151,535.0749 L38.574,537.3409 L37.4819,539.4626 L36.9883,541.7519 L36.5052,544.0441 L35.8113,546.2773 L35.5502,546.2029 L34.7874,550.4394 L33.5717,554.5468 L32.2434,558.6221 L31.1723,562.7707 L29.9366,566.8723 L30.2505,566.9521 L28.8531,570.5738 L28.1748,574.3782 L27.2134,578.1107 L26.1915,581.8278 L25.1929,585.5509 L25.2547,585.5612 L24.6556,589.0648 L23.7452,592.5162 L23.256,596.0382 L22.6423,599.5393 L22.2575,603.0788 L22.2859,603.0795 L22.2066,606.5084 L22.1493,609.9378 L21.8582,613.3612 L21.8674,616.7924 L21.8074,620.2218 L21.7546,620.2136 L22.6032,623.7658 L23.0797,627.2604 L23.2215,630.7032 L23.9452,634.236 L24.5197,637.7458 L24.2776,637.6608 L25.951,641.5224 L27.3956,645.3036 L28.6792,649.0284 L29.5785,652.6183 L31.0715,656.4166 L31.2565,656.5077 L31.7608,658.2717 L33.1223,660.4578 L33.9086,662.3607 L35.052,664.4394 L35.9989,666.4214 L36.0912,666.475 L37.4086,668.6424 L38.1786,670.4922 L39.8663,672.8746 L40.9803,674.924 L42.14,677 L42.2708,677.0884 L43.6001,678.9391 L44.5115,680.5073 L45.7587,682.3025 L46.9575,684.0649 L48.0637,685.7648 L48.1325,685.819 L49.37,687.4229 L50.9249,689.2769 L51.7706,690.5719 L53.4874,692.5534 L54.5966,694.0563 L54.391,693.8702 L55.836,695.4612 L57.4446,697.2005 L58.8582,698.7631 L60.1039,700.1738 L61.6837,701.8869 L61.8119,702.0187 L63.2346,703.3981 L64.9433,705.0714 L66.4421,706.5289 L67.6135,707.6501 L69.2697,709.2694 L69.154,709.1356 L70.8381,710.6153 L72.585,712.1676 L74.2048,713.5729 L75.7811,714.928 L77.2995,716.2161 L77.2064,716.096 L79.1564,717.7444 L80.8394,719.0482 L82.3377,720.1136 L83.9692,721.351 L85.7179,722.7397 L85.6158,722.5934 L87.4137,723.8841 L89.2537,725.2349 L90.9517,726.3825 L92.6131,727.4778 L94.4698,728.8526 L94.5857,729.0357 L96.1668,729.8233 L98.2013,731.3273 L99.9895,732.442 L101.7823,733.5642 L103.5,734.5675 L103.6536,734.8342 L105.2961,735.5387 L107.1346,736.5834 L109.1671,737.9649 L110.7702,738.6011 L112.7533,739.8968 L112.7049,739.8048 L114.6615,740.9335 L116.536,741.9064 L118.3319,742.7296 L120.2814,743.845 L122.1746,744.8531 L122.3183,745.1512 L124.2065,746.0319 L125.8731,746.4527 L127.9102,747.6421 L129.7026,748.3241 L131.7086,749.449 L131.7039,749.4383 L133.6797,750.4176 L135.6209,751.3188 L137.344,751.7276 L139.4541,753.0101 L141.3003,753.6969 L141.3017,753.7003 L143.1259,754.2508 L145.0589,755.068 L147.1116,756.1788 L149.0176,756.9297 L150.8945,757.6094 L150.8919,757.6026 L152.6976,758.0477 L154.814,759.319 L156.5705,759.6335 L158.445,760.2615 L160.4359,761.1991 L160.4264,761.1707 L164.2599,762.6998 L168.0044,763.9628 L171.6633,764.9704 L175.3779,766.1441 L179.14,767.46 " fill="none" style="stroke:#181818;stroke-width:1.0;"/><polygon fill="#181818" points="184.14,768.98,184.1857,769.0331,182.5574,767.5898,181.1971,766.4578,179.7496,765.2243,178.015,763.6577,176.6777,762.5523,176.6549,762.5401,177.0875,763.482,177.6351,764.4856,178.2628,765.5322,178.6148,766.4309,179.3528,767.5367,179.4401,767.6993,178.2566,767.8866,177.3279,768.5487,176.4303,769.2686,175.3518,769.6516,174.3685,770.2118,174.3713,770.2344,176.3214,769.9549,178.2845,769.7781,180.2414,769.5518,182.2101,769.4201,184.14,768.98" style="stroke:#181818;stroke-width:1.0;"/></g><!--link CreateCourseController to RepositoryFactory--><g id="link_CreateCourseController_RepositoryFactory"><path d="M588.63,305.05 L588.6678,305.1354 L591.2213,306.0614 L593.9964,307.4882 L596.6994,308.7519 L599.165,309.4793 L601.9592,310.9491 L601.9443,310.9179 L604.5208,312.0438 L607.1726,313.3267 L609.8766,314.7188 L612.4005,315.7347 L615.1767,317.2775 L615.2901,317.4959 L617.6545,318.3831 L620.35,319.9079 L623.0859,321.5104 L625.5867,322.6604 L628.2112,324.0484 L628.2261,324.0748 L630.7602,325.4814 L633.3623,327.0081 L635.9315,328.4769 L638.5634,330.0563 L640.9912,331.275 L641.148,331.5287 L643.6408,333.0709 L646.0324,334.4494 L648.5721,336.0675 L651.1187,337.6968 L653.4455,338.9703 L653.2656,338.705 L656.0262,340.8553 L658.1944,342.1321 L660.813,344.073 L662.9677,345.33 L665.5027,347.1475 L665.4844,347.1231 L668.0179,349.1458 L670.1251,350.599 L672.4839,352.3883 L674.8637,354.2057 L677.0913,355.8197 L677.2095,355.962 L679.2999,357.6544 L681.5923,359.59 L683.5579,361.1322 L686.011,363.2612 L688.14,365 L688.3032,365.1809 L690.403,367.0692 L692.5839,369.0474 L694.3882,370.6083 L696.4685,372.4751 L698.7933,374.6128 L698.6018,374.4139 L700.6729,376.4215 L702.5281,378.205 L704.6965,380.3135 L706.3302,381.867 L708.2818,383.7504 L708.1718,383.6449 L710.0394,385.5751 L711.4369,387.0539 L713.1687,388.8537 L715.2276,390.9676 L716.7041,392.5222 L716.8497,392.6497 L718.4407,394.4402 L719.5785,395.834 L721.2838,397.7247 L722.8655,399.5072 L724.1591,401.0373 L723.9941,400.9075 L725.4429,402.6846 L726.8377,404.4191 L728.3386,406.2373 L729.4268,407.7305 L730.7456,409.4053 L730.9141,409.523 L731.7072,410.9303 L732.8256,412.5649 L734.4192,414.5314 L735.1378,415.8868 L736.5625,417.7353 L736.7588,417.8476 L738.5862,421.1776 L740.3471,424.4695 L742.258,427.8473 L744.5155,431.4233 L746.2825,434.7188 L746.1603,434.6661 L748.0895,438.4517 L749.1878,441.8789 L751.2308,445.7136 L752.7419,449.3189 L754.1097,452.8624 L754.2124,452.8986 L754.8197,454.8254 L755.7946,456.8819 L756.4374,458.8213 L756.9413,460.7116 L757.5606,462.6426 L757.6743,462.6784 L758.1602,464.7048 L759.1739,466.8975 L759.5907,468.9022 L760.253,470.9842 L760.8347,473.0408 L760.5748,472.9661 L761.3008,475.2162 L762.3399,477.5561 L762.936,479.7688 L763.3733,481.9359 L764.0309,484.1663 L763.8926,484.1291 L764.5803,486.5335 L765.0232,488.872 L766.1391,491.3915 L766.9219,493.8214 L767.2479,496.1285 L767.4745,496.1866 L768.9255,501.5795 L769.9459,506.862 L771.4207,512.261 L772.5947,517.5829 L774.14,523 L774.262,523.0323 L774.8821,525.4324 L775.6496,527.8715 L775.9497,530.187 L776.6267,532.6022 L777.3205,535.0218 L777.5103,535.075 L778.1936,537.3409 L778.3618,539.4626 L779.1284,541.7519 L779.9056,544.0441 L780.472,546.2773 L780.2109,546.2028 L781.7984,550.4394 L782.9331,554.5468 L783.9552,558.622 L785.2344,562.7707 L786.3491,566.8723 L786.6629,566.9521 L787.1633,570.5738 L788.3828,574.3782 L789.3191,578.1107 L790.195,581.8278 L791.0941,585.5509 L791.1559,585.5612 L791.731,589.0648 L791.9949,592.5162 L792.6799,596.0382 L793.2405,599.5393 L794.03,603.0788 L794.0584,603.0795 L794.1591,606.5084 L794.2817,609.9378 L794.1705,613.3612 L794.3597,616.7924 L794.4796,620.2218 L794.4268,620.2136 L794.1903,623.7658 L793.5815,627.2604 L792.6382,630.7032 L792.2767,634.236 L791.7659,637.7458 L791.5239,637.6608 L790.576,641.5224 L789.3994,645.3037 L788.0618,649.0284 L786.3399,652.6183 L785.2118,656.4166 L785.3967,656.5077 L783.9298,658.2716 L783.32,660.4578 L782.1351,662.3607 L781.3072,664.4394 L780.2829,666.4214 L780.3753,666.475 L779.2358,668.6424 L777.549,670.4921 L776.7799,672.8747 L775.4371,674.924 L774.14,677 L774.2708,677.0885 L773.2058,678.9733 L771.7232,680.5754 L770.5763,682.4047 L769.3809,684.2012 L768.0929,685.9351 L768.1617,685.9895 L766.7567,687.6234 L765.6687,689.5082 L763.8726,690.8326 L762.9462,692.8452 L761.4132,694.3779 L761.2082,694.1912 L759.7849,695.809 L758.5248,697.5755 L757.0702,699.1647 L755.4482,700.6016 L754.1593,702.3418 L754.287,702.4741 L752.639,703.8763 L751.2758,705.5735 L749.7035,707.0542 L747.8054,708.1971 L746.3898,709.8402 L746.2748,709.7058 L744.7072,711.2058 L743.202,712.7786 L741.5704,714.2038 L739.8957,715.5786 L738.1633,716.8862 L738.0709,716.7655 L736.6102,718.4321 L734.8845,719.7526 L732.9754,720.8338 L731.1986,722.0875 L729.5381,723.4933 L729.4369,723.3464 L727.691,724.651 L725.9867,726.0161 L724.1418,727.1771 L722.2606,728.2855 L720.573,729.6747 L720.6876,729.8585 L718.6157,730.6554 L716.9925,732.1717 L715.1254,733.2972 L713.2631,734.4302 L711.3263,735.4438 L711.4781,735.7115 L709.3784,736.4227 L707.4725,737.4755 L705.7582,738.8664 L703.6196,739.509 L701.8565,740.8138 L701.8087,740.7214 L699.9533,741.8563 L698.0169,742.8347 L696.0028,743.6629 L694.1404,744.7843 L692.2223,745.7981 L692.3639,746.0972 L690.3976,746.981 L688.2128,747.4034 L686.3932,748.5969 L684.3324,749.2813 L682.4822,750.4101 L682.4775,750.3994 L680.5765,751.3801 L678.6415,752.2824 L676.4918,752.6909 L674.723,753.9757 L672.6945,754.663 L672.6959,754.6664 L670.6476,755.2152 L668.7062,756.0314 L666.8825,757.142 L664.9145,757.8918 L662.918,758.5701 L662.9155,758.5632 L660.8734,759.0047 L659.1363,760.2744 L657.0459,760.5848 L655.0713,761.2096 L653.211,762.1447 L653.2017,762.1163 L649.4983,763.6349 L645.7077,764.8868 L641.8333,765.8827 L638.0133,767.0451 L634.24,768.35 " fill="none" style="stroke:#181818;stroke-width:1.0;"/><polygon fill="#181818" points="629.18,769.85,629.1892,769.9195,631.1146,769.9717,633.0939,770.4312,635.0556,770.758,636.9596,770.6489,638.9436,771.1432,638.9312,771.1205,637.8821,770.4771,636.8954,769.9484,635.9523,769.4995,634.8594,768.7758,633.9761,768.4369,634.1382,768.5251,634.3329,767.3428,635.0008,766.4183,635.7264,765.5253,636.1162,764.4492,636.6825,763.4694,636.6973,763.4867,635.1751,764.7374,633.7201,766.067,632.2327,767.3585,630.807,768.7226,629.18,769.85" style="stroke:#181818;stroke-width:1.0;"/></g><!--link CourseManagementService to Course--><g id="link_CourseManagementService_Course"><path d="M408.14,463.34 L408.4202,463.34 L407.5876,474.202 L408.3977,485.064 L408.6729,495.926 L407.1888,506.788 L408.14,517.65 " fill="none" style="stroke:#181818;stroke-width:1.0;"/><polygon fill="#181818" points="408.14,522.86,408.204,522.8885,408.8138,521.0039,409.7989,519.2862,410.6617,517.5141,411.1227,515.5634,412.14,513.86,412.1217,513.8417,411.2395,514.5595,410.4496,515.3696,409.7239,516.2439,408.777,516.897,408.14,517.86,408.2705,517.9905,407.1914,516.9114,406.4934,516.2134,405.8418,515.5618,404.9198,514.6398,404.14,513.86,404.1608,513.8692,404.9303,515.6557,405.7944,517.4842,406.6128,519.2924,407.5184,521.1393,408.14,522.86" style="stroke:#181818;stroke-width:1.0;"/></g><!--link Course to PersistenceContext--><g id="link_Course_PersistenceContext"><path d="M347.29,677.17 L347.5089,677.3449 L340.4021,684.9064 L334.5788,693.4934 L328.3376,701.7464 L320.7219,708.9013 L314.9278,717.5116 L308.1082,725.3026 L301.6968,733.4196 L295.64,741.82 " fill="none" style="stroke:#181818;stroke-width:1.0;"/><polygon fill="#181818" points="292.2,746.13,292.2324,746.1921,293.8829,745.097,295.7232,744.3662,297.5017,743.5167,299.0769,742.2772,300.9336,741.5776,300.9306,741.5518,299.7934,741.5643,298.6709,741.7065,297.5587,741.9388,296.4111,741.8604,295.313,742.2173,295.4964,742.2382,294.9763,741.0694,294.9916,739.9616,295.0722,738.8613,294.7728,737.7176,294.6733,736.5967,294.6953,736.6025,294.1683,738.5007,293.7416,740.425,293.2665,742.3367,292.8836,744.2724,292.2,746.13" style="stroke:#181818;stroke-width:1.0;"/></g><!--link Course to RepositoryFactory--><g id="link_Course_RepositoryFactory"><path d="M469,677.17 L469.219,677.3449 L474.877,684.7223 L481.8185,693.1251 L488.3421,701.194 L493.4911,708.1649 L500.4619,716.591 L506.4071,724.1979 L513.16,732.45 " fill="none" style="stroke:#181818;stroke-width:1.0;"/><polygon fill="#181818" points="516.62,736.78,516.6878,736.7976,515.9917,734.8387,515.6931,732.9829,515.265,731.0935,514.4112,729.0937,514.1467,727.2467,514.121,727.2438,513.8775,728.3548,513.7638,729.4805,513.7403,730.6165,513.406,731.7171,513.507,732.8673,513.5279,733.0507,512.3591,732.5306,511.2513,732.5459,510.1509,732.6265,509.0073,732.3271,507.8864,732.2276,507.8969,732.2477,509.6282,733.1286,511.4074,734.1013,513.1634,735.0297,514.9635,736.0426,516.62,736.78" style="stroke:#181818;stroke-width:1.0;"/></g><!--link RepositoryFactory to UserRepository--><g id="link_RepositoryFactory_UserRepository"><path d="M525.07,835.09 L525.3076,835.2386 L518.87,843.9604 L513.8252,853.5533 L508.3268,862.8626 L501.3369,871.2389 L496.3238,880.8517 L490.68,890.07 " fill="none" style="stroke:#181818;stroke-width:1.0;"/><polygon fill="#181818" points="487.8,894.66,487.8393,894.718,489.3533,893.4408,491.0976,892.5036,492.7669,891.4557,494.1895,890.0437,495.9536,889.1357,495.9478,889.1104,494.8194,889.2532,493.7207,889.5233,492.6424,889.8817,491.4934,889.9355,490.4436,890.416,490.6233,890.4578,489.9829,889.2664,489.8672,888.1971,489.8156,887.1426,489.3914,886.0015,489.1632,884.9059,489.1858,884.9091,488.88,886.8553,488.6769,888.8158,488.4242,890.7694,488.266,892.7362,487.8,894.66" style="stroke:#181818;stroke-width:1.0;"/></g><!--link RepositoryFactory to CourseRepository--><g id="link_RepositoryFactory_CourseRepository"><path d="M585.57,835.09 L585.8068,835.2399 L590.0732,842.6489 L595.7278,850.9364 L600.9303,858.9378 L604.6462,865.9985 L610.3324,874.306 L614.9095,881.9116 L620.36,890.07 " fill="none" style="stroke:#181818;stroke-width:1.0;"/><polygon fill="#181818" points="623.27,894.66,623.3393,894.6701,622.8483,892.691,622.7637,890.7712,622.5467,888.8322,621.8945,886.8294,621.8448,884.9148,621.8195,884.9091,621.457,885.9871,621.222,887.0939,621.0754,888.2207,620.6238,889.2785,620.5995,890.4329,620.6401,890.6129,619.4496,889.9789,618.3778,889.8705,617.3203,889.8262,616.1787,889.4088,615.0814,889.1876,615.0941,889.2065,616.7132,890.2732,618.3899,891.426,620.0389,892.5373,621.7408,893.7278,623.27,894.66" style="stroke:#181818;stroke-width:1.0;"/></g><!--SRC=[pLHDRzim3BthL-Ys16YQ-s3aaZL3WRKebdMdNZY9YONgmv3a9e6n_pxPScpLTj9XfrqiwV7HV2H5VSgzBzpdvRAGe7sfv2qpQiaaEBVW0lOM527kLUW2mfRceFd12kzHKszBJ4pAQCDoQnGEBGMmLzZZrfyaKelC9pQEEoYbtnZj7o6uRhxIdyBkXKmuBWTk3aBlwGwaGq8QUNHj4JokJMaTFj_JB2iiEjGUl31wjPfWhKCKQwH4csLG55Am0RTXFO0EQbNuqnRjcs2OPIvk1iGiOytQmKzedN2XDgm9XKSVHFLOn_kEXN726tlQ0AkNBDl5JKTv3Y5xMaZETeU1YhzZqKJiPFqgud9pcCt9RtArSXK1pYCustfRTqM7njtGzi0Cxm_8HLtWcnTzHZWwPaNHeFG-r6YFbYeu2bMg110w0grNZi1_8B0SxPq28LELqpsh24la_qTAAz9AYajpwQEiSwKvjj8YS1ULTGfR-4ilBvLANph60nmVI_KBxJUXXE-bjrQXtrdFUKJhDamHKbT_Rvgxc2Os9nePEWVsz5GFAFfmnp_E9vJsQaQNz8x3lu4KF4WB7Y6DsR-dctHdFBiLwQP9e4idOpI_5IbTNOCvYKCMsOC7Qd6xM5qOAaAcSRgeNQPl-3MNSJBNsADq2BaGCz5pvboCrrid_Z-26kBxH-y2QVZg_G40]--></g></svg>