<?xml version="1.0" encoding="us-ascii" standalone="no"?><svg xmlns="http://www.w3.org/2000/svg" xmlns:xlink="http://www.w3.org/1999/xlink" contentStyleType="text/css" height="435px" preserveAspectRatio="none" style="width:582px;height:435px;background:#FFFFFF;" version="1.1" viewBox="0 0 582 435" width="582px" zoomAndPan="magnify"><defs/><g><text fill="#000000" font-family="sans-serif" font-size="14" font-weight="bold" lengthAdjust="spacing" textLength="162" x="203" y="23.5352">Domain Model Excerpt</text><!--cluster User Aggregate--><g id="cluster_User Aggregate"><rect fill="none" height="113" rx="2.5" ry="2.5" style="stroke:#000000;stroke-width:1.5;" width="126" x="437.5" y="121.4883"/><text fill="#000000" font-family="sans-serif" font-size="14" font-weight="bold" lengthAdjust="spacing" textLength="110" x="445.5" y="137.0234">User Aggregate</text></g><!--cluster BoardAggregate--><g id="cluster_BoardAggregate"><rect fill="none" height="113" rx="2.5" ry="2.5" style="stroke:#000000;stroke-width:1.5;" width="152" x="424" y="258.4883"/><text fill="#000000" font-family="sans-serif" font-size="14" font-weight="bold" lengthAdjust="spacing" textLength="114" x="443" y="274.0234">BoardAggregate</text></g><!--cluster PostItAggregate--><g id="cluster_PostItAggregate"><rect fill="none" height="385" rx="2.5" ry="2.5" style="stroke:#000000;stroke-width:1.5;" width="333" x="7" y="44.4883"/><text fill="#000000" font-family="sans-serif" font-size="14" font-weight="bold" lengthAdjust="spacing" textLength="116" x="115.5" y="60.0234">PostItAggregate</text></g><!--class User--><g id="elem_User"><rect codeLine="28" fill="#D8F5FF" height="62.7539" id="User" rx="2.5" ry="2.5" style="stroke:#1E90FF;stroke-width:0.5;" width="71" x="464.5" y="156.1083"/><ellipse cx="479.5" cy="183.4852" fill="#ADD1B2" rx="11" ry="11" style="stroke:#181818;stroke-width:1.0;"/><path d="M483.6143,189.4852 L475.8945,189.4852 L475.8945,177.0922 L483.6143,177.0922 L483.6143,179.2504 L478.3433,179.2504 L478.3433,181.9232 L483.1162,181.9232 L483.1162,184.0814 L478.3433,184.0814 L478.3433,187.327 L483.6143,187.327 Z " fill="#000000"/><text fill="#000000" font-family="sans-serif" font-size="12" font-style="italic" lengthAdjust="spacing" textLength="43" x="491.5" y="172.7098">&#171;entity&#187;</text><text fill="#000000" font-family="sans-serif" font-size="12" font-style="italic" lengthAdjust="spacing" textLength="35" x="495.5" y="186.8427">&#171;root&#187;</text><text fill="#000000" font-family="sans-serif" font-size="14" lengthAdjust="spacing" textLength="31" x="497.5" y="202.9091">User</text><line style="stroke:#1E90FF;stroke-width:0.5;" x1="465.5" x2="534.5" y1="210.8622" y2="210.8622"/></g><!--class SharedBoard--><g id="elem_SharedBoard"><rect codeLine="32" fill="#D8F5FF" height="62.7539" id="SharedBoard" rx="2.5" ry="2.5" style="stroke:#1E90FF;stroke-width:0.5;" width="120" x="440" y="293.1083"/><ellipse cx="455" cy="320.4852" fill="#ADD1B2" rx="11" ry="11" style="stroke:#181818;stroke-width:1.0;"/><path d="M459.1143,326.4852 L451.3945,326.4852 L451.3945,314.0922 L459.1143,314.0922 L459.1143,316.2504 L453.8433,316.2504 L453.8433,318.9232 L458.6162,318.9232 L458.6162,321.0814 L453.8433,321.0814 L453.8433,324.327 L459.1143,324.327 Z " fill="#000000"/><text fill="#000000" font-family="sans-serif" font-size="12" font-style="italic" lengthAdjust="spacing" textLength="43" x="491.5" y="309.7098">&#171;entity&#187;</text><text fill="#000000" font-family="sans-serif" font-size="12" font-style="italic" lengthAdjust="spacing" textLength="35" x="495.5" y="323.8427">&#171;root&#187;</text><text fill="#000000" font-family="sans-serif" font-size="14" lengthAdjust="spacing" textLength="88" x="469" y="339.9091">SharedBoard</text><line style="stroke:#1E90FF;stroke-width:0.5;" x1="441" x2="559" y1="347.8622" y2="347.8622"/></g><!--class PostIt--><g id="elem_PostIt"><rect codeLine="36" fill="#D8F5FF" height="62.7539" id="PostIt" rx="2.5" ry="2.5" style="stroke:#1E90FF;stroke-width:0.5;" width="71" x="236" y="215.1083"/><ellipse cx="251" cy="242.4852" fill="#ADD1B2" rx="11" ry="11" style="stroke:#181818;stroke-width:1.0;"/><path d="M255.1143,248.4852 L247.3945,248.4852 L247.3945,236.0922 L255.1143,236.0922 L255.1143,238.2504 L249.8433,238.2504 L249.8433,240.9232 L254.6162,240.9232 L254.6162,243.0814 L249.8433,243.0814 L249.8433,246.327 L255.1143,246.327 Z " fill="#000000"/><text fill="#000000" font-family="sans-serif" font-size="12" font-style="italic" lengthAdjust="spacing" textLength="43" x="263" y="231.7098">&#171;entity&#187;</text><text fill="#000000" font-family="sans-serif" font-size="12" font-style="italic" lengthAdjust="spacing" textLength="35" x="267" y="245.8427">&#171;root&#187;</text><text fill="#000000" font-family="sans-serif" font-size="14" lengthAdjust="spacing" textLength="38" x="265.5" y="261.9091">PostIt</text><line style="stroke:#1E90FF;stroke-width:0.5;" x1="237" x2="306" y1="269.8622" y2="269.8622"/></g><g id="elem_GMN13"><path d="M219,341.8683 L219,378.4083 L150.61,388.8783 L219,386.4083 L219,413.1105 A0,0 0 0 0 219,413.1105 L324,413.1105 A0,0 0 0 0 324,413.1105 L324,351.8683 L314,341.8683 L219,341.8683 A0,0 0 0 0 219,341.8683 " fill="#FEFFDD" style="stroke:#181818;stroke-width:0.5;"/><path d="M314,341.8683 L314,351.8683 L324,351.8683 L314,341.8683 " fill="#FEFFDD" style="stroke:#181818;stroke-width:0.5;"/><text fill="#000000" font-family="sans-serif" font-size="13" lengthAdjust="spacing" textLength="82" x="225" y="359.4366">0 - CREATED</text><text fill="#000000" font-family="sans-serif" font-size="13" lengthAdjust="spacing" textLength="84" x="225" y="374.7472">1 - UPDATED</text><text fill="#000000" font-family="sans-serif" font-size="13" lengthAdjust="spacing" textLength="70" x="225" y="390.0577">2 - MOVED</text><text fill="#000000" font-family="sans-serif" font-size="13" lengthAdjust="spacing" textLength="80" x="225" y="405.3683">3 - DELETED</text></g><!--entity PostItContent--><g id="elem_PostItContent"><rect fill="#D8F5FF" height="38.9766" rx="2.5" ry="2.5" style="stroke:#1E90FF;stroke-width:0.5;" width="120" x="30.5" y="78.9983"/><text fill="#000000" font-family="sans-serif" font-size="14" font-style="italic" lengthAdjust="spacing" textLength="100" x="40.5" y="95.5334">&#171;Value Object&#187;</text><text fill="#000000" font-family="sans-serif" font-size="14" lengthAdjust="spacing" textLength="93" x="44" y="112.0217">PostItContent</text></g><!--entity PostItRow--><g id="elem_PostItRow"><rect fill="#D8F5FF" height="38.9766" rx="2.5" ry="2.5" style="stroke:#1E90FF;stroke-width:0.5;" width="120" x="30.5" y="152.9983"/><text fill="#000000" font-family="sans-serif" font-size="14" font-style="italic" lengthAdjust="spacing" textLength="100" x="40.5" y="169.5334">&#171;Value Object&#187;</text><text fill="#000000" font-family="sans-serif" font-size="14" lengthAdjust="spacing" textLength="67" x="57" y="186.0217">PostItRow</text></g><!--entity PostItCol--><g id="elem_PostItCol"><rect fill="#D8F5FF" height="38.9766" rx="2.5" ry="2.5" style="stroke:#1E90FF;stroke-width:0.5;" width="120" x="30.5" y="226.9983"/><text fill="#000000" font-family="sans-serif" font-size="14" font-style="italic" lengthAdjust="spacing" textLength="100" x="40.5" y="243.5334">&#171;Value Object&#187;</text><text fill="#000000" font-family="sans-serif" font-size="14" lengthAdjust="spacing" textLength="61" x="60" y="260.0217">PostItCol</text></g><!--entity PostItTimeStamp--><g id="elem_PostItTimeStamp"><rect fill="#D8F5FF" height="38.9766" rx="2.5" ry="2.5" style="stroke:#1E90FF;stroke-width:0.5;" width="135" x="23" y="300.9983"/><text fill="#000000" font-family="sans-serif" font-size="14" font-style="italic" lengthAdjust="spacing" textLength="100" x="40.5" y="317.5334">&#171;Value Object&#187;</text><text fill="#000000" font-family="sans-serif" font-size="14" lengthAdjust="spacing" textLength="115" x="33" y="334.0217">PostItTimeStamp</text></g><!--entity PostItState--><g id="elem_PostItState"><rect fill="#D8F5FF" height="38.9766" rx="2.5" ry="2.5" style="stroke:#1E90FF;stroke-width:0.5;" width="120" x="30.5" y="374.9983"/><text fill="#000000" font-family="sans-serif" font-size="14" font-style="italic" lengthAdjust="spacing" textLength="100" x="40.5" y="391.5334">&#171;Value Object&#187;</text><text fill="#000000" font-family="sans-serif" font-size="14" lengthAdjust="spacing" textLength="72" x="54.5" y="408.0217">PostItState</text></g><!--reverse link PostItContent to PostIt--><g id="link_PostItContent_PostIt"><path codeLine="56" d="M136.41,121.2783 C143.84,125.6683 151.3,130.4683 158,135.4883 C189.62,159.1883 221.26,191.3483 242.9,214.9483 " fill="none" id="PostItContent-backto-PostIt" style="stroke:#1E90FF;stroke-width:1.0;"/><polygon fill="#1E90FF" points="132.28,118.3083,138.0533,126.2876,136.6035,120.8196,142.0715,119.3699,132.28,118.3083" style="stroke:#1E90FF;stroke-width:1.0;"/></g><!--reverse link PostItRow to PostIt--><g id="link_PostItRow_PostIt"><path codeLine="57" d="M144.88,194.5583 C174.29,206.7183 209.94,221.4583 235.74,232.1183 " fill="none" id="PostItRow-backto-PostIt" style="stroke:#1E90FF;stroke-width:1.0;"/><polygon fill="#1E90FF" points="140.47,192.3183,147.258,199.4543,145.0904,194.2292,150.3155,192.0616,140.47,192.3183" style="stroke:#1E90FF;stroke-width:1.0;"/></g><!--reverse link PostItCol to PostIt--><g id="link_PostItCol_PostIt"><path codeLine="58" d="M156.28,246.4883 C183.13,246.4883 213.2,246.4883 235.74,246.4883 " fill="none" id="PostItCol-backto-PostIt" style="stroke:#1E90FF;stroke-width:1.0;"/><polygon fill="#1E90FF" points="151.61,246.4883,160.61,250.4883,156.61,246.4883,160.61,242.4883,151.61,246.4883" style="stroke:#1E90FF;stroke-width:1.0;"/></g><!--reverse link PostItTimeStamp to PostIt--><g id="link_PostItTimeStamp_PostIt"><path codeLine="59" d="M144.88,298.4183 C174.29,286.2583 209.94,271.5183 235.74,260.8583 " fill="none" id="PostItTimeStamp-backto-PostIt" style="stroke:#1E90FF;stroke-width:1.0;"/><polygon fill="#1E90FF" points="140.47,300.6583,150.3155,300.915,145.0904,298.7474,147.258,293.5223,140.47,300.6583" style="stroke:#1E90FF;stroke-width:1.0;"/></g><!--reverse link PostItState to PostIt--><g id="link_PostItState_PostIt"><path codeLine="60" d="M136.41,371.6983 C143.84,367.3083 151.3,362.5083 158,357.4883 C189.62,333.7883 221.26,301.6283 242.9,278.0283 " fill="none" id="PostItState-backto-PostIt" style="stroke:#1E90FF;stroke-width:1.0;"/><polygon fill="#1E90FF" points="132.28,374.6683,142.0715,373.6067,136.6035,372.1569,138.0533,366.689,132.28,374.6683" style="stroke:#1E90FF;stroke-width:1.0;"/></g><!--link PostIt to User--><g id="link_PostIt_User"><path codeLine="63" d="M307.39,237.3983 C348.13,226.7883 415.39,209.2683 458.42,198.0583 " fill="none" id="PostIt-to-User" style="stroke:#1E90FF;stroke-width:1.0;"/><polygon fill="#1E90FF" points="463.07,196.5883,453.3525,194.9849,458.2313,197.8481,455.3682,202.7268,463.07,196.5883" style="stroke:#1E90FF;stroke-width:1.0;"/><text fill="#000000" font-family="sans-serif" font-size="13" lengthAdjust="spacing" textLength="38" x="363" y="209.0566">owner</text><text fill="#000000" font-family="sans-serif" font-size="13" lengthAdjust="spacing" textLength="8" x="448.4583" y="212.3512">1</text></g><!--link PostIt to SharedBoard--><g id="link_PostIt_SharedBoard"><path codeLine="64" d="M307.39,258.5083 C341.12,270.1183 393.04,287.9983 434.32,302.2183 " fill="none" id="PostIt-to-SharedBoard" style="stroke:#1E90FF;stroke-width:1.0;"/><polygon fill="#1E90FF" points="438.82,304.1083,431.6131,297.3956,434.0925,302.4801,429.008,304.9595,438.82,304.1083" style="stroke:#1E90FF;stroke-width:1.0;"/><text fill="#000000" font-family="sans-serif" font-size="13" lengthAdjust="spacing" textLength="50" x="357" y="273.0566">belongs</text><text fill="#000000" font-family="sans-serif" font-size="13" lengthAdjust="spacing" textLength="8" x="423.9981" y="315.1262">1</text></g><!--link PostIt to PostIt--><g id="link_PostIt_PostIt"><path codeLine="65" d="M256.74,214.7283 C253.85,196.7583 258.77,180.1083 271.5,180.1083 C282.83,180.1083 287.98,193.3083 286.93,208.8983 " fill="none" id="PostIt-to-PostIt" style="stroke:#1E90FF;stroke-width:1.0;"/><polygon fill="#1E90FF" points="286.26,213.7283,291.2375,205.2298,286.8169,208.7594,283.2872,204.3388,286.26,213.7283" style="stroke:#1E90FF;stroke-width:1.0;"/><text fill="#000000" font-family="sans-serif" font-size="13" lengthAdjust="spacing" textLength="102" x="220.5" y="171.6766">keeps history of</text></g><!--SRC=[pPDDRzf048Rl_XKZUhQKfAfK8MJ9O2CXaO02oNtn3lOMUyTQ3oAqwd_lO3k98QRDiNkovtrsFbwFsN2E456XZ8LxqfX3_9AWAzdpCgCH2kICTENbk6LW0cVIZ44RXmaRifvNxOmjbLC59Bcggf3PcSsUSPQGNPcV23SV6FZbWPovsUBSM1oJq-Wcb9EJJdIARfplyHnHoIvrjBUwmSBbSZwRXElPug7cBlKlqVVfj-cqraBdwD2R_KhXtzs6IyciKbpnKNmw3QrickFPIChf_t-YTWuOF5KerTBKOQeO1stdQDdm4MfnD6hUWc0qSaGS1Dq4Ov9vt-wVNrzbog6kYNzaMLB5CxwIfX7xCfoWsky6cP1bOOHyLZ8dB3O_v0i5GPDDobtmZtIuodv8dNyMNPj2zaCLvMSl22mZ_xLfIq8q_nfjkzTgzNHkm8V9Onoku-WjTYknfsLq5hkJsFtYkHFvAf4ediUl55fTrsigNpZh-ssa8zOszWcrQNr2nw8-kJNaNH8NsYNm_G06juDcCuTqiEWkfUxM3JUOaqshBjC-3c67M5QGcOh97SLNxmy0]--></g></svg>