<?xml version="1.0" encoding="us-ascii" standalone="no"?><svg xmlns="http://www.w3.org/2000/svg" xmlns:xlink="http://www.w3.org/1999/xlink" contentStyleType="text/css" height="1450px" preserveAspectRatio="none" style="width:1383px;height:1450px;background:#FFFFFF;" version="1.1" viewBox="0 0 1383 1450" width="1383px" zoomAndPan="magnify"><defs/><g><text fill="#000000" font-family="sans-serif" font-size="14" font-weight="bold" lengthAdjust="spacing" textLength="158" x="605.5" y="25.1074">Domain Model Excerpt</text><!--cluster User Aggregate--><g id="cluster_User Aggregate"><rect fill="none" height="799" rx="2.5" ry="2.5" style="stroke:#000000;stroke-width:1.5;" width="795" x="582" y="645.6211"/><text fill="#000000" font-family="sans-serif" font-size="14" font-weight="bold" lengthAdjust="spacing" textLength="110" x="924.5" y="662.7285">User Aggregate</text></g><!--cluster Course Aggregate--><g id="cluster_Course Aggregate"><rect fill="none" height="575" rx="2.5" ry="2.5" style="stroke:#000000;stroke-width:1.5;" width="1073" x="7" y="46.6211"/><text fill="#000000" font-family="sans-serif" font-size="14" font-weight="bold" lengthAdjust="spacing" textLength="128" x="479.5" y="63.7285">Course Aggregate</text></g><!--class User--><g id="elem_User"><rect codeLine="28" fill="#D8F5FF" height="68.543" id="User" rx="2.5" ry="2.5" style="stroke:#1E90FF;stroke-width:0.5;" width="71" x="659.5" y="826.1211"/><ellipse cx="674.5" cy="856.3926" fill="#ADD1B2" rx="11" ry="11" style="stroke:#181818;stroke-width:1.0;"/><path d="M673.3594,857.1895 L673.3594,859.6895 L677.6875,859.6895 L677.6875,858.7676 Q677.6875,858.1582 677.9219,857.8926 Q678.1719,857.627 678.5469,857.627 Q678.9219,857.627 679.1563,857.8926 Q679.3906,858.1582 679.3906,858.7676 L679.3906,861.3926 L671.3906,861.3926 Q670.7656,861.3926 670.5,861.1582 Q670.25,860.9238 670.25,860.5332 Q670.25,860.1582 670.5156,859.9238 Q670.7813,859.6895 671.3906,859.6895 L671.6563,859.6895 L671.6563,853.0332 L671.3906,853.0332 Q670.7656,853.0332 670.5,852.7988 Q670.25,852.5645 670.25,852.1738 Q670.25,851.7988 670.5,851.5645 Q670.7656,851.3301 671.3906,851.3301 L679.0156,851.3301 L679.0156,853.9238 Q679.0156,854.5332 678.7813,854.7988 Q678.5625,855.0488 678.1719,855.0488 Q677.7969,855.0488 677.5625,854.7988 Q677.3281,854.5332 677.3281,853.9238 L677.3281,853.0332 L673.3594,853.0332 L673.3594,855.4863 L674.8438,855.4863 Q674.8438,854.8301 674.9688,854.6426 Q675.2344,854.2363 675.7031,854.2363 Q676.0781,854.2363 676.3125,854.502 Q676.5469,854.752 676.5469,855.3613 L676.5469,857.3301 Q676.5469,857.877 676.4219,858.0645 Q676.1563,858.4551 675.7031,858.4551 Q675.2344,858.4551 674.9688,858.0488 Q674.8438,857.8613 674.8438,857.1895 L673.3594,857.1895 Z " fill="#000000"/><text fill="#000000" font-family="sans-serif" font-size="12" font-style="italic" lengthAdjust="spacing" textLength="43" x="686.5" y="844.0703">&#171;entity&#187;</text><text fill="#000000" font-family="sans-serif" font-size="12" font-style="italic" lengthAdjust="spacing" textLength="35" x="690.5" y="860.0313">&#171;root&#187;</text><text fill="#000000" font-family="sans-serif" font-size="14" lengthAdjust="spacing" textLength="29" x="693.5" y="878.1504">User</text><line style="stroke:#1E90FF;stroke-width:0.5;" x1="660.5" x2="729.5" y1="886.6641" y2="886.6641"/></g><g id="elem_GMN14"><path d="M1127,1393.1211 L1127,1402.6211 L1019.54,1406.6211 L1127,1410.6211 L1127,1420.4121 A0,0 0 0 0 1127,1420.4121 L1361,1420.4121 A0,0 0 0 0 1361,1420.4121 L1361,1403.1211 L1351,1393.1211 L1127,1393.1211 A0,0 0 0 0 1127,1393.1211 " fill="#FEFFDD" style="stroke:#181818;stroke-width:0.5;"/><path d="M1351,1393.1211 L1351,1403.1211 L1361,1403.1211 L1351,1393.1211 " fill="#FEFFDD" style="stroke:#181818;stroke-width:0.5;"/><text fill="#000000" font-family="sans-serif" font-size="13" lengthAdjust="spacing" textLength="213" x="1133" y="1412.1494">Can be Teacher, Student or Manager</text></g><g id="elem_GMN27"><path d="M598,1383.1211 L598,1427.7031 A0,0 0 0 0 598,1427.7031 L792,1427.7031 A0,0 0 0 0 792,1427.7031 L792,1409.9811 L902.42,1406.4011 L792,1401.9811 L792,1393.1211 L782,1383.1211 L598,1383.1211 A0,0 0 0 0 598,1383.1211 " fill="#FEFFDD" style="stroke:#181818;stroke-width:0.5;"/><path d="M782,1383.1211 L782,1393.1211 L792,1393.1211 L782,1383.1211 " fill="#FEFFDD" style="stroke:#181818;stroke-width:0.5;"/><text fill="#000000" font-family="sans-serif" font-size="13" lengthAdjust="spacing" textLength="173" x="604" y="1402.1494">This is only used for purposes</text><text fill="#000000" font-family="sans-serif" font-size="13" lengthAdjust="spacing" textLength="88" x="604" y="1419.4404">of authorization</text></g><!--entity EmailAddress--><g id="elem_EmailAddress"><rect fill="#D8F5FF" height="43.2422" rx="2.5" ry="2.5" style="stroke:#1E90FF;stroke-width:0.5;" width="117" x="902.5" y="839.1211"/><text fill="#000000" font-family="sans-serif" font-size="14" font-style="italic" lengthAdjust="spacing" textLength="97" x="912.5" y="857.2285">&#171;Value Object&#187;</text><text fill="#000000" font-family="sans-serif" font-size="14" lengthAdjust="spacing" textLength="86" x="918" y="875.8496">EmailAddress</text></g><!--entity Password--><g id="elem_Password"><rect fill="#D8F5FF" height="43.2422" rx="2.5" ry="2.5" style="stroke:#1E90FF;stroke-width:0.5;" width="117" x="902.5" y="761.1211"/><text fill="#000000" font-family="sans-serif" font-size="14" font-style="italic" lengthAdjust="spacing" textLength="97" x="912.5" y="779.2285">&#171;Value Object&#187;</text><text fill="#000000" font-family="sans-serif" font-size="14" lengthAdjust="spacing" textLength="61" x="930.5" y="797.8496">Password</text></g><!--entity FullName--><g id="elem_FullName"><rect fill="#D8F5FF" height="43.2422" rx="2.5" ry="2.5" style="stroke:#1E90FF;stroke-width:0.5;" width="117" x="902.5" y="683.1211"/><text fill="#000000" font-family="sans-serif" font-size="14" font-style="italic" lengthAdjust="spacing" textLength="97" x="912.5" y="701.2285">&#171;Value Object&#187;</text><text fill="#000000" font-family="sans-serif" font-size="14" lengthAdjust="spacing" textLength="59" x="931.5" y="719.8496">FullName</text></g><!--entity ShortName--><g id="elem_ShortName"><rect fill="#D8F5FF" height="43.2422" rx="2.5" ry="2.5" style="stroke:#1E90FF;stroke-width:0.5;" width="117" x="902.5" y="1307.1211"/><text fill="#000000" font-family="sans-serif" font-size="14" font-style="italic" lengthAdjust="spacing" textLength="97" x="912.5" y="1325.2285">&#171;Value Object&#187;</text><text fill="#000000" font-family="sans-serif" font-size="14" lengthAdjust="spacing" textLength="70" x="926" y="1343.8496">ShortName</text></g><!--entity UserState--><g id="elem_UserState"><rect fill="#D8F5FF" height="43.2422" rx="2.5" ry="2.5" style="stroke:#1E90FF;stroke-width:0.5;" width="117" x="902.5" y="1229.1211"/><text fill="#000000" font-family="sans-serif" font-size="14" font-style="italic" lengthAdjust="spacing" textLength="97" x="912.5" y="1247.2285">&#171;Value Object&#187;</text><text fill="#000000" font-family="sans-serif" font-size="14" lengthAdjust="spacing" textLength="62" x="930" y="1265.8496">UserState</text></g><!--entity MechanographicNumber--><g id="elem_MechanographicNumber"><rect fill="#D8F5FF" height="43.2422" rx="2.5" ry="2.5" style="stroke:#1E90FF;stroke-width:0.5;" width="174" x="874" y="1151.1211"/><text fill="#000000" font-family="sans-serif" font-size="14" font-style="italic" lengthAdjust="spacing" textLength="97" x="912.5" y="1169.2285">&#171;Value Object&#187;</text><text fill="#000000" font-family="sans-serif" font-size="14" lengthAdjust="spacing" textLength="154" x="884" y="1187.8496">MechanographicNumber</text></g><!--entity Acronym--><g id="elem_Acronym"><rect fill="#D8F5FF" height="43.2422" rx="2.5" ry="2.5" style="stroke:#1E90FF;stroke-width:0.5;" width="117" x="902.5" y="1073.1211"/><text fill="#000000" font-family="sans-serif" font-size="14" font-style="italic" lengthAdjust="spacing" textLength="97" x="912.5" y="1091.2285">&#171;Value Object&#187;</text><text fill="#000000" font-family="sans-serif" font-size="14" lengthAdjust="spacing" textLength="55" x="933.5" y="1109.8496">Acronym</text></g><!--entity BirthDate--><g id="elem_BirthDate"><rect fill="#D8F5FF" height="43.2422" rx="2.5" ry="2.5" style="stroke:#1E90FF;stroke-width:0.5;" width="117" x="902.5" y="995.1211"/><text fill="#000000" font-family="sans-serif" font-size="14" font-style="italic" lengthAdjust="spacing" textLength="97" x="912.5" y="1013.2285">&#171;Value Object&#187;</text><text fill="#000000" font-family="sans-serif" font-size="14" lengthAdjust="spacing" textLength="59" x="931.5" y="1031.8496">BirthDate</text></g><!--entity TaxPayerNumber--><g id="elem_TaxPayerNumber"><rect fill="#D8F5FF" height="43.2422" rx="2.5" ry="2.5" style="stroke:#1E90FF;stroke-width:0.5;" width="129" x="896.5" y="917.1211"/><text fill="#000000" font-family="sans-serif" font-size="14" font-style="italic" lengthAdjust="spacing" textLength="97" x="912.5" y="935.2285">&#171;Value Object&#187;</text><text fill="#000000" font-family="sans-serif" font-size="14" lengthAdjust="spacing" textLength="109" x="906.5" y="953.8496">TaxPayerNumber</text></g><!--entity Role--><g id="elem_Role"><rect fill="#D8F5FF" height="43.2422" rx="2.5" ry="2.5" style="stroke:#1E90FF;stroke-width:0.5;" width="117" x="902.5" y="1385.1211"/><text fill="#000000" font-family="sans-serif" font-size="14" font-style="italic" lengthAdjust="spacing" textLength="97" x="912.5" y="1403.2285">&#171;Value Object&#187;</text><text fill="#000000" font-family="sans-serif" font-size="14" lengthAdjust="spacing" textLength="29" x="946.5" y="1421.8496">Role</text></g><!--class Course--><g id="elem_Course"><rect codeLine="72" fill="#D8F5FF" height="68.543" id="Course" rx="2.5" ry="2.5" style="stroke:#1E90FF;stroke-width:0.5;" width="78" x="78" y="432.1211"/><ellipse cx="93" cy="462.3926" fill="#ADD1B2" rx="11" ry="11" style="stroke:#181818;stroke-width:1.0;"/><path d="M91.8594,463.1895 L91.8594,465.6895 L96.1875,465.6895 L96.1875,464.7676 Q96.1875,464.1582 96.4219,463.8926 Q96.6719,463.627 97.0469,463.627 Q97.4219,463.627 97.6563,463.8926 Q97.8906,464.1582 97.8906,464.7676 L97.8906,467.3926 L89.8906,467.3926 Q89.2656,467.3926 89,467.1582 Q88.75,466.9238 88.75,466.5332 Q88.75,466.1582 89.0156,465.9238 Q89.2813,465.6895 89.8906,465.6895 L90.1563,465.6895 L90.1563,459.0332 L89.8906,459.0332 Q89.2656,459.0332 89,458.7988 Q88.75,458.5645 88.75,458.1738 Q88.75,457.7988 89,457.5645 Q89.2656,457.3301 89.8906,457.3301 L97.5156,457.3301 L97.5156,459.9238 Q97.5156,460.5332 97.2813,460.7988 Q97.0625,461.0488 96.6719,461.0488 Q96.2969,461.0488 96.0625,460.7988 Q95.8281,460.5332 95.8281,459.9238 L95.8281,459.0332 L91.8594,459.0332 L91.8594,461.4863 L93.3438,461.4863 Q93.3438,460.8301 93.4688,460.6426 Q93.7344,460.2363 94.2031,460.2363 Q94.5781,460.2363 94.8125,460.502 Q95.0469,460.752 95.0469,461.3613 L95.0469,463.3301 Q95.0469,463.877 94.9219,464.0645 Q94.6563,464.4551 94.2031,464.4551 Q93.7344,464.4551 93.4688,464.0488 Q93.3438,463.8613 93.3438,463.1895 L91.8594,463.1895 Z " fill="#000000"/><text fill="#000000" font-family="sans-serif" font-size="12" font-style="italic" lengthAdjust="spacing" textLength="43" x="108.5" y="450.0703">&#171;entity&#187;</text><text fill="#000000" font-family="sans-serif" font-size="12" font-style="italic" lengthAdjust="spacing" textLength="35" x="112.5" y="466.0313">&#171;root&#187;</text><text fill="#000000" font-family="sans-serif" font-size="14" lengthAdjust="spacing" textLength="46" x="107" y="484.1504">Course</text><line style="stroke:#1E90FF;stroke-width:0.5;" x1="79" x2="155" y1="492.6641" y2="492.6641"/></g><g id="elem_GMN44"><path d="M605,194.6211 L605,244.0511 L439.18,258.1111 L605,252.0511 L605,291.0762 A0,0 0 0 0 605,291.0762 L785,291.0762 A0,0 0 0 0 785,291.0762 L785,204.6211 L775,194.6211 L605,194.6211 A0,0 0 0 0 605,194.6211 " fill="#FEFFDD" style="stroke:#181818;stroke-width:0.5;"/><path d="M775,194.6211 L775,204.6211 L785,204.6211 L775,194.6211 " fill="#FEFFDD" style="stroke:#181818;stroke-width:0.5;"/><text fill="#000000" font-family="sans-serif" font-size="13" lengthAdjust="spacing" textLength="159" x="611" y="213.6494">Can be one of the following:</text><text fill="#000000" font-family="sans-serif" font-size="13" lengthAdjust="spacing" textLength="39" x="627" y="230.9404">- Open</text><text fill="#000000" font-family="sans-serif" font-size="13" lengthAdjust="spacing" textLength="48" x="627" y="248.2314">- Closed</text><text fill="#000000" font-family="sans-serif" font-size="13" lengthAdjust="spacing" textLength="41" x="627" y="265.5225">- Enroll</text><text fill="#000000" font-family="sans-serif" font-size="13" lengthAdjust="spacing" textLength="70" x="627" y="282.8135">- InProgress</text></g><g id="elem_GMN47"><path d="M38.5,83.6211 L38.5,145.4941 A0,0 0 0 0 38.5,145.4941 L195.5,145.4941 A0,0 0 0 0 195.5,145.4941 L195.5,115.9411 L321.99,107.6011 L195.5,107.9411 L195.5,93.6211 L185.5,83.6211 L38.5,83.6211 A0,0 0 0 0 38.5,83.6211 " fill="#FEFFDD" style="stroke:#181818;stroke-width:0.5;"/><path d="M185.5,83.6211 L185.5,93.6211 L195.5,93.6211 L185.5,83.6211 " fill="#FEFFDD" style="stroke:#181818;stroke-width:0.5;"/><text fill="#000000" font-family="sans-serif" font-size="13" lengthAdjust="spacing" textLength="136" x="44.5" y="102.6494">Each course as a lower</text><text fill="#000000" font-family="sans-serif" font-size="13" lengthAdjust="spacing" textLength="88" x="44.5" y="119.9404">and higher limit</text><text fill="#000000" font-family="sans-serif" font-size="13" lengthAdjust="spacing" textLength="111" x="44.5" y="137.2314">number of students</text></g><g id="elem_GMN50"><path d="M593,326.1211 L593,370.7031 A0,0 0 0 0 593,370.7031 L593,370.7031 L439.18,404.8811 L601,370.7031 L797,370.7031 A0,0 0 0 0 797,370.7031 L797,336.1211 L787,326.1211 L593,326.1211 A0,0 0 0 0 593,326.1211 " fill="#FEFFDD" style="stroke:#181818;stroke-width:0.5;"/><path d="M787,326.1211 L787,336.1211 L797,336.1211 L787,326.1211 " fill="#FEFFDD" style="stroke:#181818;stroke-width:0.5;"/><text fill="#000000" font-family="sans-serif" font-size="13" lengthAdjust="spacing" textLength="183" x="599" y="345.1494">Each course has a unique code</text><text fill="#000000" font-family="sans-serif" font-size="13" lengthAdjust="spacing" textLength="113" x="599" y="362.4404">Example: "JAVA-1"</text></g><g id="elem_GMN53"><path d="M23,180.6211 L23,242.4941 A0,0 0 0 0 23,242.4941 L211,242.4941 A0,0 0 0 0 211,242.4941 L211,205.6311 L321.64,189.8211 L211,197.6311 L211,190.6211 L201,180.6211 L23,180.6211 A0,0 0 0 0 23,180.6211 " fill="#FEFFDD" style="stroke:#181818;stroke-width:0.5;"/><path d="M201,180.6211 L201,190.6211 L211,190.6211 L201,180.6211 " fill="#FEFFDD" style="stroke:#181818;stroke-width:0.5;"/><text fill="#000000" font-family="sans-serif" font-size="13" lengthAdjust="spacing" textLength="164" x="29" y="199.6494">Different editions of a course</text><text fill="#000000" font-family="sans-serif" font-size="13" lengthAdjust="spacing" textLength="167" x="29" y="216.9404">are to be considered different</text><text fill="#000000" font-family="sans-serif" font-size="13" lengthAdjust="spacing" textLength="46" x="29" y="234.2314">courses</text></g><!--class Class--><g id="elem_Class"><rect codeLine="121" fill="#D8F5FF" height="52.582" id="Class" rx="2.5" ry="2.5" style="stroke:#1E90FF;stroke-width:0.5;" width="71" x="345" y="474.1211"/><ellipse cx="360" cy="496.4121" fill="#ADD1B2" rx="11" ry="11" style="stroke:#181818;stroke-width:1.0;"/><path d="M358.8594,497.209 L358.8594,499.709 L363.1875,499.709 L363.1875,498.7871 Q363.1875,498.1777 363.4219,497.9121 Q363.6719,497.6465 364.0469,497.6465 Q364.4219,497.6465 364.6563,497.9121 Q364.8906,498.1777 364.8906,498.7871 L364.8906,501.4121 L356.8906,501.4121 Q356.2656,501.4121 356,501.1777 Q355.75,500.9434 355.75,500.5527 Q355.75,500.1777 356.0156,499.9434 Q356.2813,499.709 356.8906,499.709 L357.1563,499.709 L357.1563,493.0527 L356.8906,493.0527 Q356.2656,493.0527 356,492.8184 Q355.75,492.584 355.75,492.1934 Q355.75,491.8184 356,491.584 Q356.2656,491.3496 356.8906,491.3496 L364.5156,491.3496 L364.5156,493.9434 Q364.5156,494.5527 364.2813,494.8184 Q364.0625,495.0684 363.6719,495.0684 Q363.2969,495.0684 363.0625,494.8184 Q362.8281,494.5527 362.8281,493.9434 L362.8281,493.0527 L358.8594,493.0527 L358.8594,495.5059 L360.3438,495.5059 Q360.3438,494.8496 360.4688,494.6621 Q360.7344,494.2559 361.2031,494.2559 Q361.5781,494.2559 361.8125,494.5215 Q362.0469,494.7715 362.0469,495.3809 L362.0469,497.3496 Q362.0469,497.8965 361.9219,498.084 Q361.6563,498.4746 361.2031,498.4746 Q360.7344,498.4746 360.4688,498.0684 Q360.3438,497.8809 360.3438,497.209 L358.8594,497.209 Z " fill="#000000"/><text fill="#000000" font-family="sans-serif" font-size="12" font-style="italic" lengthAdjust="spacing" textLength="43" x="372" y="492.0703">&#171;entity&#187;</text><text fill="#000000" font-family="sans-serif" font-size="14" lengthAdjust="spacing" textLength="35" x="376" y="510.1895">Class</text><line style="stroke:#1E90FF;stroke-width:0.5;" x1="346" x2="415" y1="518.7031" y2="518.7031"/></g><g id="elem_GMN60"><path d="M858,492.1211 L858,501.6211 L753.61,505.6211 L858,509.6211 L858,519.4121 A0,0 0 0 0 858,519.4121 L1064,519.4121 A0,0 0 0 0 1064,519.4121 L1064,502.1211 L1054,492.1211 L858,492.1211 A0,0 0 0 0 858,492.1211 " fill="#FEFFDD" style="stroke:#181818;stroke-width:0.5;"/><path d="M1054,492.1211 L1054,502.1211 L1064,502.1211 L1054,492.1211 " fill="#FEFFDD" style="stroke:#181818;stroke-width:0.5;"/><text fill="#000000" font-family="sans-serif" font-size="13" lengthAdjust="spacing" textLength="185" x="864" y="511.1494">A class must have a unique title</text></g><!--entity Code--><g id="elem_Code"><rect fill="#D8F5FF" height="43.2422" rx="2.5" ry="2.5" style="stroke:#1E90FF;stroke-width:0.5;" width="117" x="322" y="396.1211"/><text fill="#000000" font-family="sans-serif" font-size="14" font-style="italic" lengthAdjust="spacing" textLength="97" x="332" y="414.2285">&#171;Value Object&#187;</text><text fill="#000000" font-family="sans-serif" font-size="14" lengthAdjust="spacing" textLength="34" x="363.5" y="432.8496">Code</text></g><!--entity Name--><g id="elem_Name"><rect fill="#D8F5FF" height="43.2422" rx="2.5" ry="2.5" style="stroke:#1E90FF;stroke-width:0.5;" width="117" x="322" y="318.1211"/><text fill="#000000" font-family="sans-serif" font-size="14" font-style="italic" lengthAdjust="spacing" textLength="97" x="332" y="336.2285">&#171;Value Object&#187;</text><text fill="#000000" font-family="sans-serif" font-size="14" lengthAdjust="spacing" textLength="36" x="362.5" y="354.8496">Name</text></g><!--entity State--><g id="elem_State"><rect fill="#D8F5FF" height="43.2422" rx="2.5" ry="2.5" style="stroke:#1E90FF;stroke-width:0.5;" width="117" x="322" y="240.1211"/><text fill="#000000" font-family="sans-serif" font-size="14" font-style="italic" lengthAdjust="spacing" textLength="97" x="332" y="258.2285">&#171;Value Object&#187;</text><text fill="#000000" font-family="sans-serif" font-size="14" lengthAdjust="spacing" textLength="33" x="364" y="276.8496">State</text></g><!--entity Description--><g id="elem_Description"><rect fill="#D8F5FF" height="43.2422" rx="2.5" ry="2.5" style="stroke:#1E90FF;stroke-width:0.5;" width="117" x="322" y="562.1211"/><text fill="#000000" font-family="sans-serif" font-size="14" font-style="italic" lengthAdjust="spacing" textLength="97" x="332" y="580.2285">&#171;Value Object&#187;</text><text fill="#000000" font-family="sans-serif" font-size="14" lengthAdjust="spacing" textLength="71" x="345" y="598.8496">Description</text></g><!--entity Limit--><g id="elem_Limit"><rect fill="#D8F5FF" height="43.2422" rx="2.5" ry="2.5" style="stroke:#1E90FF;stroke-width:0.5;" width="117" x="322" y="84.1211"/><text fill="#000000" font-family="sans-serif" font-size="14" font-style="italic" lengthAdjust="spacing" textLength="97" x="332" y="102.2285">&#171;Value Object&#187;</text><text fill="#000000" font-family="sans-serif" font-size="14" lengthAdjust="spacing" textLength="29" x="366" y="120.8496">Limit</text></g><!--entity Edition--><g id="elem_Edition"><rect fill="#D8F5FF" height="43.2422" rx="2.5" ry="2.5" style="stroke:#1E90FF;stroke-width:0.5;" width="117" x="322" y="162.1211"/><text fill="#000000" font-family="sans-serif" font-size="14" font-style="italic" lengthAdjust="spacing" textLength="97" x="332" y="180.2285">&#171;Value Object&#187;</text><text fill="#000000" font-family="sans-serif" font-size="14" lengthAdjust="spacing" textLength="43" x="359" y="198.8496">Edition</text></g><!--entity ClassTime--><g id="elem_ClassTime"><rect fill="#D8F5FF" height="43.2422" rx="2.5" ry="2.5" style="stroke:#1E90FF;stroke-width:0.5;" width="117" x="636.5" y="562.1211"/><text fill="#000000" font-family="sans-serif" font-size="14" font-style="italic" lengthAdjust="spacing" textLength="97" x="646.5" y="580.2285">&#171;Value Object&#187;</text><text fill="#000000" font-family="sans-serif" font-size="14" lengthAdjust="spacing" textLength="66" x="662" y="598.8496">ClassTime</text></g><!--entity ClassTitle--><g id="elem_ClassTitle"><rect fill="#D8F5FF" height="43.2422" rx="2.5" ry="2.5" style="stroke:#1E90FF;stroke-width:0.5;" width="117" x="636.5" y="484.1211"/><text fill="#000000" font-family="sans-serif" font-size="14" font-style="italic" lengthAdjust="spacing" textLength="97" x="646.5" y="502.2285">&#171;Value Object&#187;</text><text fill="#000000" font-family="sans-serif" font-size="14" lengthAdjust="spacing" textLength="62" x="664" y="520.8496">ClassTitle</text></g><!--entity ClassDayOfWeek--><g id="elem_ClassDayOfWeek"><rect fill="#D8F5FF" height="43.2422" rx="2.5" ry="2.5" style="stroke:#1E90FF;stroke-width:0.5;" width="131" x="629.5" y="406.1211"/><text fill="#000000" font-family="sans-serif" font-size="14" font-style="italic" lengthAdjust="spacing" textLength="97" x="646.5" y="424.2285">&#171;Value Object&#187;</text><text fill="#000000" font-family="sans-serif" font-size="14" lengthAdjust="spacing" textLength="111" x="639.5" y="442.8496">ClassDayOfWeek</text></g><!--link User to EmailAddress--><g id="link_User_EmailAddress"><path codeLine="54" d="M730.51,860.6211 C772.67,860.6211 844.81,860.6211 896.97,860.6211 " fill="none" id="User-to-EmailAddress" style="stroke:#1E90FF;stroke-width:1.0;"/><polygon fill="#1E90FF" points="902.27,860.6211,893.27,856.6211,897.27,860.6211,893.27,864.6211,902.27,860.6211" style="stroke:#1E90FF;stroke-width:1.0;"/></g><!--link User to Password--><g id="link_User_Password"><path codeLine="55" d="M730.51,850.4211 C772.76,837.9411 845.1,816.5711 897.28,801.1511 " fill="none" id="User-to-Password" style="stroke:#1E90FF;stroke-width:1.0;"/><polygon fill="#1E90FF" points="902.27,799.6811,892.5054,798.3957,897.475,801.0981,894.7726,806.0677,902.27,799.6811" style="stroke:#1E90FF;stroke-width:1.0;"/></g><!--link User to FullName--><g id="link_User_FullName"><path codeLine="56" d="M730.58,831.5411 C762.24,805.9611 811.15,768.9311 858,743.6211 C870.4,736.9211 884.21,730.8211 897.55,725.5411 " fill="none" id="User-to-FullName" style="stroke:#1E90FF;stroke-width:1.0;"/><polygon fill="#1E90FF" points="902.45,723.6311,892.6119,723.1709,897.7911,725.4461,895.5159,730.6252,902.45,723.6311" style="stroke:#1E90FF;stroke-width:1.0;"/></g><!--link User to ShortName--><g id="link_User_ShortName"><path codeLine="57" d="M699.51,895.2211 C709.44,975.4411 744.8,1175.9511 858,1289.6211 C868.88,1300.5411 883.13,1308.4611 897.53,1314.1811 " fill="none" id="User-to-ShortName" style="stroke:#1E90FF;stroke-width:1.0;"/><polygon fill="#1E90FF" points="902.41,1316.0411,895.4315,1309.0912,897.7396,1314.2558,892.575,1316.5638,902.41,1316.0411" style="stroke:#1E90FF;stroke-width:1.0;"/></g><!--link User to Role--><g id="link_User_Role"><path codeLine="58" d="M697.16,895.2611 C702.01,985.3011 727.22,1229.3111 858,1367.6211 C868.65,1378.8811 882.9,1386.9311 897.37,1392.6711 " fill="none" id="User-to-Role" style="stroke:#1E90FF;stroke-width:1.0;"/><polygon fill="#1E90FF" points="902.28,1394.5211,895.283,1387.5899,897.6048,1392.7483,892.4465,1395.0701,902.28,1394.5211" style="stroke:#1E90FF;stroke-width:1.0;"/></g><!--link User to UserState--><g id="link_User_UserState"><path codeLine="59" d="M702.81,895.1511 C718.22,964.5611 762.16,1122.0111 858,1211.6211 C869.14,1222.0311 883.34,1229.7511 897.58,1235.4411 " fill="none" id="User-to-UserState" style="stroke:#1E90FF;stroke-width:1.0;"/><polygon fill="#1E90FF" points="902.41,1237.2911,895.4315,1230.3412,897.7396,1235.5058,892.575,1237.8138,902.41,1237.2911" style="stroke:#1E90FF;stroke-width:1.0;"/></g><!--link User to MechanographicNumber--><g id="link_User_MechanographicNumber"><path codeLine="60" d="M707.96,895.4111 C729.34,952.7711 779.4,1067.3911 858,1133.6211 C864.91,1139.4411 872.79,1144.4511 881.02,1148.7411 " fill="none" id="User-to-MechanographicNumber" style="stroke:#1E90FF;stroke-width:1.0;"/><polygon fill="#1E90FF" points="885.64,1151.0611,879.3887,1143.4505,881.1707,1148.8193,875.8019,1150.6013,885.64,1151.0611" style="stroke:#1E90FF;stroke-width:1.0;"/></g><!--link User to Acronym--><g id="link_User_Acronym"><path codeLine="61" d="M716.76,895.2211 C744.18,938.2511 796.27,1011.4211 858,1055.6211 C869.81,1064.0711 883.68,1070.9611 897.32,1076.4611 " fill="none" id="User-to-Acronym" style="stroke:#1E90FF;stroke-width:1.0;"/><polygon fill="#1E90FF" points="902.34,1078.4211,895.4245,1071.4085,897.6859,1076.5937,892.5007,1078.8551,902.34,1078.4211" style="stroke:#1E90FF;stroke-width:1.0;"/></g><!--link User to BirthDate--><g id="link_User_BirthDate"><path codeLine="62" d="M730.58,889.7011 C762.24,915.2811 811.15,952.3111 858,977.6211 C870.4,984.3211 884.21,990.4211 897.55,995.7011 " fill="none" id="User-to-BirthDate" style="stroke:#1E90FF;stroke-width:1.0;"/><polygon fill="#1E90FF" points="902.45,997.6111,895.5159,990.617,897.7911,995.7961,892.6119,998.0713,902.45,997.6111" style="stroke:#1E90FF;stroke-width:1.0;"/></g><!--link User to TaxPayerNumber--><g id="link_User_TaxPayerNumber"><path codeLine="63" d="M730.51,870.8211 C771.2,882.8411 839.81,903.1111 891.43,918.3611 " fill="none" id="User-to-TaxPayerNumber" style="stroke:#1E90FF;stroke-width:1.0;"/><polygon fill="#1E90FF" points="896.37,919.8211,888.8902,913.4139,891.5789,918.3909,886.6019,921.0797,896.37,919.8211" style="stroke:#1E90FF;stroke-width:1.0;"/></g><!--link Course to Name--><g id="link_Course_Name"><path codeLine="88" d="M156.02,448.1511 C202.09,425.7811 279.79,388.0511 330.35,363.4911 " fill="none" id="Course-to-Name" style="stroke:#1E90FF;stroke-width:1.0;"/><polygon fill="#1E90FF" points="334.86,361.3011,325.0168,361.6352,330.3625,363.4856,328.512,368.8313,334.86,361.3011" style="stroke:#1E90FF;stroke-width:1.0;"/></g><!--link Course to State--><g id="link_Course_State"><path codeLine="89" d="M156.31,433.7711 C196.72,399.5111 262.65,344.7711 322,300.6211 C328.49,295.7911 335.53,290.8211 342.38,286.1011 " fill="none" id="Course-to-State" style="stroke:#1E90FF;stroke-width:1.0;"/><polygon fill="#1E90FF" points="346.62,283.2011,336.9346,284.988,342.4952,286.0271,341.4562,291.5877,346.62,283.2011" style="stroke:#1E90FF;stroke-width:1.0;"/></g><!--link Course to Description--><g id="link_Course_Description"><path codeLine="90" d="M156.02,483.6311 C200.9,503.7111 275.79,537.2211 326.38,559.8511 " fill="none" id="Course-to-Description" style="stroke:#1E90FF;stroke-width:1.0;"/><polygon fill="#1E90FF" points="331.2,562.0111,324.6236,554.6796,326.6375,559.9658,321.3512,561.9796,331.2,562.0111" style="stroke:#1E90FF;stroke-width:1.0;"/></g><!--link Course to Limit--><g id="link_Course_Limit"><path codeLine="91" d="M133.91,431.8611 C163.9,369.0211 233.8,234.7011 322,144.6211 C327.01,139.5111 332.78,134.6711 338.69,130.2611 " fill="none" id="Course-to-Limit" style="stroke:#1E90FF;stroke-width:1.0;"/><polygon fill="#1E90FF" points="342.8,127.2711,333.1696,129.3337,338.7576,130.2137,337.8776,135.8017,342.8,127.2711" style="stroke:#1E90FF;stroke-width:1.0;"/></g><!--link Course to Code--><g id="link_Course_Code"><path codeLine="92" d="M156.02,459.4911 C198.07,451.6211 266.47,438.8011 316.53,429.4211 " fill="none" id="Course-to-Code" style="stroke:#1E90FF;stroke-width:1.0;"/><polygon fill="#1E90FF" points="321.63,428.4611,312.0502,426.1747,316.7143,429.3756,313.5135,434.0398,321.63,428.4611" style="stroke:#1E90FF;stroke-width:1.0;"/></g><!--link Course to Edition--><g id="link_Course_Edition"><path codeLine="93" d="M142.07,432.0911 C177.77,382.3111 248.49,289.1011 322,222.6211 C327.52,217.6211 333.73,212.7711 339.96,208.2811 " fill="none" id="Course-to-Edition" style="stroke:#1E90FF;stroke-width:1.0;"/><polygon fill="#1E90FF" points="344.28,205.2311,334.6243,207.172,340.2007,208.1224,339.2503,213.6988,344.28,205.2311" style="stroke:#1E90FF;stroke-width:1.0;"/></g><!--link Class to ClassTime--><g id="link_Class_ClassTime"><path codeLine="136" d="M416.03,503.7311 C465.27,508.4211 551.05,517.6011 563,525.6211 C571.1,531.0611 566.41,538.4811 574,544.6211 C590.41,557.8911 611.46,566.7011 631.34,572.5211 " fill="none" id="Class-to-ClassTime" style="stroke:#1E90FF;stroke-width:1.0;"/><polygon fill="#1E90FF" points="636.36,573.9411,628.7656,567.6701,631.5438,572.5977,626.6162,575.3759,636.36,573.9411" style="stroke:#1E90FF;stroke-width:1.0;"/></g><!--link Class to ClassTitle--><g id="link_Class_ClassTitle"><path codeLine="137" d="M416.14,501.1711 C467.92,502.0011 566.33,503.5811 631.05,504.6111 " fill="none" id="Class-to-ClassTitle" style="stroke:#1E90FF;stroke-width:1.0;"/><polygon fill="#1E90FF" points="636.42,504.7011,627.4781,500.5729,631.4205,504.6297,627.3638,508.5721,636.42,504.7011" style="stroke:#1E90FF;stroke-width:1.0;"/></g><!--link Class to ClassDayOfWeek--><g id="link_Class_ClassDayOfWeek"><path codeLine="138" d="M416.14,492.5311 C466.16,480.8411 559.71,458.9911 624.36,443.8911 " fill="none" id="Class-to-ClassDayOfWeek" style="stroke:#1E90FF;stroke-width:1.0;"/><polygon fill="#1E90FF" points="629.35,442.7211,619.6731,440.8888,624.4829,443.8663,621.5054,448.6761,629.35,442.7211" style="stroke:#1E90FF;stroke-width:1.0;"/></g><!--link Course to Class--><g id="link_Course_Class"><path codeLine="139" d="M156.02,471.5611 C205.05,477.9411 289.92,488.9711 339.76,495.4511 " fill="none" id="Course-to-Class" style="stroke:#1E90FF;stroke-width:1.0;"/><polygon fill="#1E90FF" points="344.77,496.1011,336.3573,490.9799,339.8113,495.4599,335.3313,498.9139,344.77,496.1011" style="stroke:#1E90FF;stroke-width:1.0;"/><text fill="#000000" font-family="sans-serif" font-size="13" lengthAdjust="spacing" textLength="49" x="242" y="479.6494">contains</text><text fill="#000000" font-family="sans-serif" font-size="13" lengthAdjust="spacing" textLength="5" x="331.8851" y="511.0234">*</text></g><!--link Course to User--><g id="link_Course_User"><path codeLine="143" d="M150.94,501.1711 C189.12,539.6411 255.38,601.6411 322,641.6211 C420.58,700.7811 466.02,673.8811 563,735.6211 C600.41,759.4311 636.36,794.9611 661.11,822.0611 " fill="none" id="Course-to-User" style="stroke:#1E90FF;stroke-width:1.0;"/><polygon fill="#1E90FF" points="664.68,825.9911,661.5947,816.638,661.3202,822.2882,655.67,822.0137,664.68,825.9911" style="stroke:#1E90FF;stroke-width:1.0;"/><text fill="#000000" font-family="sans-serif" font-size="13" lengthAdjust="spacing" textLength="51" x="355" y="637.6494">is owned</text><text fill="#000000" font-family="sans-serif" font-size="13" lengthAdjust="spacing" textLength="7" x="651.2331" y="814.8691">1</text></g><!--link Course to User--><g id="link_Course_User"><path codeLine="144" d="M137.37,501.2311 C169.05,554.7011 237.03,657.1011 322,713.6211 C431.82,786.6711 583.47,832.2411 654.41,850.9011 " fill="none" id="Course-to-User-1" style="stroke:#1E90FF;stroke-width:1.0;"/><polygon fill="#1E90FF" points="659.38,852.2011,651.6738,846.0681,654.5404,850.9448,649.6637,853.8114,659.38,852.2011" style="stroke:#1E90FF;stroke-width:1.0;"/><text fill="#000000" font-family="sans-serif" font-size="13" lengthAdjust="spacing" textLength="21" x="370" y="709.6494">has</text><text fill="#000000" font-family="sans-serif" font-size="13" lengthAdjust="spacing" textLength="9" x="642.4814" y="845.9719">N</text></g><!--link Course to User--><g id="link_Course_User"><path codeLine="145" d="M127.42,501.2211 C148.69,571.8811 207.73,732.0011 322,801.6211 C428.34,866.4111 582.32,867.4611 654.22,863.7411 " fill="none" id="Course-to-User-2" style="stroke:#1E90FF;stroke-width:1.0;"/><polygon fill="#1E90FF" points="659.25,863.4711,650.0464,859.9648,654.2574,863.7421,650.4801,867.9531,659.25,863.4711" style="stroke:#1E90FF;stroke-width:1.0;"/><text fill="#000000" font-family="sans-serif" font-size="13" lengthAdjust="spacing" textLength="46" x="357.5" y="797.6494">teaches</text><text fill="#000000" font-family="sans-serif" font-size="13" lengthAdjust="spacing" textLength="9" x="642.5773" y="879.7343">N</text></g><!--link Class to User--><g id="link_Class_User"><path codeLine="147" d="M416.2,522.7911 C432.01,532.4911 451.15,543.6711 469,552.6211 C509.43,572.8911 531.69,558.9811 563,591.6211 C572.83,601.8711 568.36,608.5911 574,621.6211 C605.17,693.6511 647.5,774.7711 672.66,821.5611 " fill="none" id="Class-to-User" style="stroke:#1E90FF;stroke-width:1.0;"/><polygon fill="#1E90FF" points="675.04,825.9811,674.2912,816.1607,672.6678,821.5797,667.2489,819.9563,675.04,825.9811" style="stroke:#1E90FF;stroke-width:1.0;"/><text fill="#000000" font-family="sans-serif" font-size="13" lengthAdjust="spacing" textLength="92" x="470" y="548.6494">has participants</text></g><!--link Class to User--><g id="link_Class_User"><path codeLine="148" d="M416.12,522.3811 C424.41,528.7811 432.67,536.3211 439,544.6211 C460.52,572.8411 443.2,594.2511 469,618.6211 C501.08,648.9211 528.42,623.1911 563,650.6211 C620.45,696.1911 659.51,774.3111 679.18,821.3411 " fill="none" id="Class-to-User-1" style="stroke:#1E90FF;stroke-width:1.0;"/><polygon fill="#1E90FF" points="681.14,826.0811,681.3859,816.2353,679.224,821.4628,673.9966,819.3009,681.14,826.0811" style="stroke:#1E90FF;stroke-width:1.0;"/><text fill="#000000" font-family="sans-serif" font-size="13" lengthAdjust="spacing" textLength="68" x="482" y="614.6494">has teacher</text></g><!--SRC=[pLPBQnin4Bxlhn3keL0QQ0-54enXOpkGaeUftVGixuvtrMYbxKYRn2dzxnrf7xRMpsE5mNZccz6ylh6ii1BOH1TSA7QdKv1i-fe0bZQASf42Ay3cEZMHX9LbLZCKMMvPAX0IAxIA8lCaLCcH5ooHt9ZOMXJBoi9DejLSl07xj8DXVo96vrQiu5OekDAO0ewrr4YHf1dWbQmWXF3aAKDTgRI6nRFPxSquNjmyt7jSN_zkylNwo_MrryM8-cMlzmCN_zqEk2JFF8EvNLETND9SPHA2b3Yc_tz6JHviyCC0tPPb21ctC6WY1sM5NJEl70xhNwFHS8XQsz4eYjvxpJCdRqmlVr4TZBVpoKzfUcISfWZKs-7mqQCUF6eqglt_tQ1dD04l5ETfv7KbvJqlu3Hodckqvq5T8dDBgP-6ta6ISwKpv6KkalkgMFhgdB2A4zHgNUm0sGxoIg3D9_j2sSKk-EkChm4FHB5hy5tB8txzbz9qTKrelV86bspC5Li2Mm1FSi2FR6whbCQ1qK3TSKKJXBMjduUBYr7G_53JDZgKjaqDfLq3Gx6BAPHqxGl5-reL8fgsXCAk0w4uBFPMiVmMR6hbfUuiSc4OVRIIQrOPIDcAgbLMM6e3feEH6QzecQ9uutvrrhnBlUU0ecDTeO6396tK-sZgKEyR_G6oZcd9dp4-P_BkF29Dm2GeIfVrQV2jA8Gz3PkcugW__zMKmlMq6wujsMQGjeHRmVPLFhI-q1MqBsk2sqUppPtUfgQRLk1qDWUQ7IdrYr3PPGTovu8zbA1weh6a2Kjxmgb2Sj4JtgWP4ZjQZdPZjplQcnpTcT8QO4cT63UCCugjOPOxdFpab1dnHWPsgbvJvC_K2-JWlLrXkZhsxytznPKIlwdDIO1wvKNfjjRWM_mONtmUd4gkxKlhO29MAq2ttw3M64_JvkPDcWZkxRDqroj3po8aagUjRGUhhVgP1jJrpvyDSwCjNZhLGXnXtGxMohF14xv-MFq4U3fkqEj8TqsNOjoyu8hAM6hCCsmwOpjWs80wPy-KDiNzyjQyf-X2xvDiy67GO2zTNomzOOtRepkupuDwjL_wBVsY6ifiG-ux24tR4Qtr_uireXVinfuUZMX58ahUplrULEqBety0]--></g></svg>