<?xml version="1.0" encoding="us-ascii" standalone="no"?><svg xmlns="http://www.w3.org/2000/svg" xmlns:xlink="http://www.w3.org/1999/xlink" contentStyleType="text/css" height="1177px" preserveAspectRatio="none" style="width:2793px;height:1177px;background:#FFFFFF;" version="1.1" viewBox="0 0 2793 1177" width="2793px" zoomAndPan="magnify"><defs/><g><rect fill="#FFFFFF" height="938.7305" style="stroke:#181818;stroke-width:1.0;" width="10" x="351.5" y="121.5332"/><rect fill="#FFFFFF" height="782.2754" style="stroke:#181818;stroke-width:1.0;" width="10" x="766.5" y="246.6973"/><rect fill="#FFFFFF" height="62.582" style="stroke:#181818;stroke-width:1.0;" width="10" x="1147.5" y="340.5703"/><rect fill="#FFFFFF" height="31.291" style="stroke:#181818;stroke-width:1.0;" width="10" x="1279.5" y="434.4434"/><rect fill="#FFFFFF" height="500.6563" style="stroke:#181818;stroke-width:1.0;" width="10" x="1425" y="497.0254"/><rect fill="#FFFFFF" height="125.1641" style="stroke:#181818;stroke-width:1.0;" width="10" x="1828" y="747.3535"/><rect fill="#FFFFFF" height="31.291" style="stroke:#181818;stroke-width:1.0;" width="10" x="2223" y="809.9355"/><rect fill="#FFFFFF" height="62.582" style="stroke:#181818;stroke-width:1.0;" width="10" x="2449.5" y="559.6074"/><rect fill="#FFFFFF" height="62.582" style="stroke:#181818;stroke-width:1.0;" width="10" x="2592.5" y="653.4805"/><rect fill="#FFFFFF" height="31.291" style="stroke:#181818;stroke-width:1.0;" width="10" x="2727.5" y="935.0996"/><line style="stroke:#181818;stroke-width:0.5;stroke-dasharray:5.0,5.0;" x1="34" x2="34" y1="88.2422" y2="1078.2637"/><line style="stroke:#181818;stroke-width:0.5;stroke-dasharray:5.0,5.0;" x1="356.5" x2="356.5" y1="88.2422" y2="1078.2637"/><line style="stroke:#181818;stroke-width:0.5;stroke-dasharray:5.0,5.0;" x1="771.5" x2="771.5" y1="88.2422" y2="1078.2637"/><line style="stroke:#181818;stroke-width:0.5;stroke-dasharray:5.0,5.0;" x1="1152" x2="1152" y1="88.2422" y2="1078.2637"/><line style="stroke:#181818;stroke-width:0.5;stroke-dasharray:5.0,5.0;" x1="1284" x2="1284" y1="88.2422" y2="1078.2637"/><line style="stroke:#181818;stroke-width:0.5;stroke-dasharray:5.0,5.0;" x1="1430" x2="1430" y1="88.2422" y2="1078.2637"/><line style="stroke:#181818;stroke-width:0.5;stroke-dasharray:5.0,5.0;" x1="1832.5" x2="1832.5" y1="88.2422" y2="1078.2637"/><line style="stroke:#181818;stroke-width:0.5;stroke-dasharray:5.0,5.0;" x1="2227.5" x2="2227.5" y1="88.2422" y2="1078.2637"/><line style="stroke:#181818;stroke-width:0.5;stroke-dasharray:5.0,5.0;" x1="2328.5" x2="2328.5" y1="88.2422" y2="1078.2637"/><line style="stroke:#181818;stroke-width:0.5;stroke-dasharray:5.0,5.0;" x1="2454.5" x2="2454.5" y1="88.2422" y2="1078.2637"/><line style="stroke:#181818;stroke-width:0.5;stroke-dasharray:5.0,5.0;" x1="2597.5" x2="2597.5" y1="88.2422" y2="1078.2637"/><line style="stroke:#181818;stroke-width:0.5;stroke-dasharray:5.0,5.0;" x1="2732.5" x2="2732.5" y1="88.2422" y2="1078.2637"/><text fill="#000000" font-family="FG Virgil" font-size="14" lengthAdjust="spacing" textLength="53" x="5" y="84.7285">Teacher</text><ellipse cx="34.5" cy="18.1211" fill="#E3E3E3" rx="8" ry="8" style="stroke:#181818;stroke-width:0.5;"/><path d="M34.5,26.1211 L34.5,53.1211 M21.5,34.1211 L47.5,34.1211 M34.5,53.1211 L21.5,68.1211 M34.5,53.1211 L47.5,68.1211 " fill="none" style="stroke:#181818;stroke-width:0.5;"/><text fill="#000000" font-family="FG Virgil" font-size="14" lengthAdjust="spacing" textLength="53" x="5" y="1092.3711">Teacher</text><ellipse cx="34.5" cy="1104.3848" fill="#E3E3E3" rx="8" ry="8" style="stroke:#181818;stroke-width:0.5;"/><path d="M34.5,1112.3848 L34.5,1139.3848 M21.5,1120.3848 L47.5,1120.3848 M34.5,1139.3848 L21.5,1154.3848 M34.5,1139.3848 L47.5,1154.3848 " fill="none" style="stroke:#181818;stroke-width:0.5;"/><rect fill="#E3E3E3" height="51.2422" rx="2.5" ry="2.5" style="stroke:#181818;stroke-width:0.5;" width="120" x="296.5" y="36"/><text fill="#000000" font-family="FG Virgil" font-size="14" font-style="italic" lengthAdjust="spacing" textLength="95" x="309" y="58.1074">&#171;presentation&#187;</text><text fill="#000000" font-family="FG Virgil" font-size="14" lengthAdjust="spacing" textLength="106" x="303.5" y="76.7285">ScheduleClassUI</text><rect fill="#E3E3E3" height="51.2422" rx="2.5" ry="2.5" style="stroke:#181818;stroke-width:0.5;" width="120" x="296.5" y="1077.2637"/><text fill="#000000" font-family="FG Virgil" font-size="14" font-style="italic" lengthAdjust="spacing" textLength="95" x="309" y="1099.3711">&#171;presentation&#187;</text><text fill="#000000" font-family="FG Virgil" font-size="14" lengthAdjust="spacing" textLength="106" x="303.5" y="1117.9922">ScheduleClassUI</text><rect fill="#E3E3E3" height="51.2422" rx="2.5" ry="2.5" style="stroke:#181818;stroke-width:0.5;" width="170" x="686.5" y="36"/><text fill="#000000" font-family="FG Virgil" font-size="14" font-style="italic" lengthAdjust="spacing" textLength="84" x="729.5" y="58.1074">&#171;application&#187;</text><text fill="#000000" font-family="FG Virgil" font-size="14" lengthAdjust="spacing" textLength="156" x="693.5" y="76.7285">ScheduleClassController</text><rect fill="#E3E3E3" height="51.2422" rx="2.5" ry="2.5" style="stroke:#181818;stroke-width:0.5;" width="170" x="686.5" y="1077.2637"/><text fill="#000000" font-family="FG Virgil" font-size="14" font-style="italic" lengthAdjust="spacing" textLength="84" x="729.5" y="1099.3711">&#171;application&#187;</text><text fill="#000000" font-family="FG Virgil" font-size="14" lengthAdjust="spacing" textLength="156" x="693.5" y="1117.9922">ScheduleClassController</text><rect fill="#E3E3E3" height="51.2422" rx="2.5" ry="2.5" style="stroke:#181818;stroke-width:0.5;" width="151" x="1077" y="36"/><text fill="#000000" font-family="FG Virgil" font-size="14" font-style="italic" lengthAdjust="spacing" textLength="60" x="1122.5" y="58.1074">&#171;service&#187;</text><text fill="#000000" font-family="FG Virgil" font-size="14" lengthAdjust="spacing" textLength="137" x="1084" y="76.7285">AuthenticationService</text><rect fill="#E3E3E3" height="51.2422" rx="2.5" ry="2.5" style="stroke:#181818;stroke-width:0.5;" width="151" x="1077" y="1077.2637"/><text fill="#000000" font-family="FG Virgil" font-size="14" font-style="italic" lengthAdjust="spacing" textLength="60" x="1122.5" y="1099.3711">&#171;service&#187;</text><text fill="#000000" font-family="FG Virgil" font-size="14" lengthAdjust="spacing" textLength="137" x="1084" y="1117.9922">AuthenticationService</text><rect fill="#E3E3E3" height="51.2422" rx="2.5" ry="2.5" style="stroke:#181818;stroke-width:0.5;" width="93" x="1238" y="36"/><text fill="#000000" font-family="FG Virgil" font-size="14" font-style="italic" lengthAdjust="spacing" textLength="64" x="1252.5" y="58.1074">&#171;session&#187;</text><text fill="#000000" font-family="FG Virgil" font-size="14" lengthAdjust="spacing" textLength="79" x="1245" y="76.7285">UserSession</text><rect fill="#E3E3E3" height="51.2422" rx="2.5" ry="2.5" style="stroke:#181818;stroke-width:0.5;" width="93" x="1238" y="1077.2637"/><text fill="#000000" font-family="FG Virgil" font-size="14" font-style="italic" lengthAdjust="spacing" textLength="64" x="1252.5" y="1099.3711">&#171;session&#187;</text><text fill="#000000" font-family="FG Virgil" font-size="14" lengthAdjust="spacing" textLength="79" x="1245" y="1117.9922">UserSession</text><rect fill="#E3E3E3" height="51.2422" rx="2.5" ry="2.5" style="stroke:#181818;stroke-width:0.5;" width="178" x="1341" y="36"/><text fill="#000000" font-family="FG Virgil" font-size="14" font-style="italic" lengthAdjust="spacing" textLength="60" x="1400" y="58.1074">&#171;service&#187;</text><text fill="#000000" font-family="FG Virgil" font-size="14" lengthAdjust="spacing" textLength="164" x="1348" y="76.7285">ClassManagementService</text><rect fill="#E3E3E3" height="51.2422" rx="2.5" ry="2.5" style="stroke:#181818;stroke-width:0.5;" width="178" x="1341" y="1077.2637"/><text fill="#000000" font-family="FG Virgil" font-size="14" font-style="italic" lengthAdjust="spacing" textLength="60" x="1400" y="1099.3711">&#171;service&#187;</text><text fill="#000000" font-family="FG Virgil" font-size="14" lengthAdjust="spacing" textLength="164" x="1348" y="1117.9922">ClassManagementService</text><rect fill="#E3E3E3" height="51.2422" rx="2.5" ry="2.5" style="stroke:#181818;stroke-width:0.5;" width="97" x="1784.5" y="36"/><text fill="#000000" font-family="FG Virgil" font-size="14" font-style="italic" lengthAdjust="spacing" textLength="59" x="1803.5" y="58.1074">&#171;factory&#187;</text><text fill="#000000" font-family="FG Virgil" font-size="14" lengthAdjust="spacing" textLength="83" x="1791.5" y="76.7285">ClassFactory</text><rect fill="#E3E3E3" height="51.2422" rx="2.5" ry="2.5" style="stroke:#181818;stroke-width:0.5;" width="97" x="1784.5" y="1077.2637"/><text fill="#000000" font-family="FG Virgil" font-size="14" font-style="italic" lengthAdjust="spacing" textLength="59" x="1803.5" y="1099.3711">&#171;factory&#187;</text><text fill="#000000" font-family="FG Virgil" font-size="14" lengthAdjust="spacing" textLength="83" x="1791.5" y="1117.9922">ClassFactory</text><rect fill="#E3E3E3" height="51.2422" rx="2.5" ry="2.5" style="stroke:#181818;stroke-width:0.5;" width="85" x="2185.5" y="36"/><text fill="#000000" font-family="FG Virgil" font-size="14" font-style="italic" lengthAdjust="spacing" textLength="62" x="2197" y="58.1074">&#171;domain&#187;</text><text fill="#000000" font-family="FG Virgil" font-size="14" lengthAdjust="spacing" textLength="71" x="2192.5" y="76.7285">class:Class</text><rect fill="#E3E3E3" height="51.2422" rx="2.5" ry="2.5" style="stroke:#181818;stroke-width:0.5;" width="85" x="2185.5" y="1077.2637"/><text fill="#000000" font-family="FG Virgil" font-size="14" font-style="italic" lengthAdjust="spacing" textLength="62" x="2197" y="1099.3711">&#171;domain&#187;</text><text fill="#000000" font-family="FG Virgil" font-size="14" lengthAdjust="spacing" textLength="71" x="2192.5" y="1117.9922">class:Class</text><rect fill="#E3E3E3" height="51.2422" rx="2.5" ry="2.5" style="stroke:#181818;stroke-width:0.5;" width="96" x="2280.5" y="36"/><text fill="#000000" font-family="FG Virgil" font-size="14" font-style="italic" lengthAdjust="spacing" textLength="62" x="2297.5" y="58.1074">&#171;domain&#187;</text><text fill="#000000" font-family="FG Virgil" font-size="14" lengthAdjust="spacing" textLength="82" x="2287.5" y="76.7285">class:Course</text><rect fill="#E3E3E3" height="51.2422" rx="2.5" ry="2.5" style="stroke:#181818;stroke-width:0.5;" width="96" x="2280.5" y="1077.2637"/><text fill="#000000" font-family="FG Virgil" font-size="14" font-style="italic" lengthAdjust="spacing" textLength="62" x="2297.5" y="1099.3711">&#171;domain&#187;</text><text fill="#000000" font-family="FG Virgil" font-size="14" lengthAdjust="spacing" textLength="82" x="2287.5" y="1117.9922">class:Course</text><rect fill="#E3E3E3" height="51.2422" rx="2.5" ry="2.5" style="stroke:#181818;stroke-width:0.5;" width="136" x="2386.5" y="36"/><text fill="#000000" font-family="FG Virgil" font-size="14" font-style="italic" lengthAdjust="spacing" textLength="89" x="2410" y="58.1074">&#171;persistence&#187;</text><text fill="#000000" font-family="FG Virgil" font-size="14" lengthAdjust="spacing" textLength="122" x="2393.5" y="76.7285">PersistenceContext</text><rect fill="#E3E3E3" height="51.2422" rx="2.5" ry="2.5" style="stroke:#181818;stroke-width:0.5;" width="136" x="2386.5" y="1077.2637"/><text fill="#000000" font-family="FG Virgil" font-size="14" font-style="italic" lengthAdjust="spacing" textLength="89" x="2410" y="1099.3711">&#171;persistence&#187;</text><text fill="#000000" font-family="FG Virgil" font-size="14" lengthAdjust="spacing" textLength="122" x="2393.5" y="1117.9922">PersistenceContext</text><rect fill="#E3E3E3" height="51.2422" rx="2.5" ry="2.5" style="stroke:#181818;stroke-width:0.5;" width="130" x="2532.5" y="36"/><text fill="#000000" font-family="FG Virgil" font-size="14" font-style="italic" lengthAdjust="spacing" textLength="59" x="2568" y="58.1074">&#171;factory&#187;</text><text fill="#000000" font-family="FG Virgil" font-size="14" lengthAdjust="spacing" textLength="116" x="2539.5" y="76.7285">RepositoryFactory</text><rect fill="#E3E3E3" height="51.2422" rx="2.5" ry="2.5" style="stroke:#181818;stroke-width:0.5;" width="130" x="2532.5" y="1077.2637"/><text fill="#000000" font-family="FG Virgil" font-size="14" font-style="italic" lengthAdjust="spacing" textLength="59" x="2568" y="1099.3711">&#171;factory&#187;</text><text fill="#000000" font-family="FG Virgil" font-size="14" lengthAdjust="spacing" textLength="116" x="2539.5" y="1117.9922">RepositoryFactory</text><text fill="#000000" font-family="FG Virgil" font-size="14" font-style="italic" lengthAdjust="spacing" textLength="79" x="2690" y="66.1074">&#171;repository&#187;</text><text fill="#000000" font-family="FG Virgil" font-size="14" lengthAdjust="spacing" textLength="114" x="2672.5" y="84.7285">CourseRepository</text><path d="M2714.5,15 C2714.5,5 2732.5,5 2732.5,5 C2732.5,5 2750.5,5 2750.5,15 L2750.5,41 C2750.5,51 2732.5,51 2732.5,51 C2732.5,51 2714.5,51 2714.5,41 L2714.5,15 " fill="#E3E3E3" style="stroke:#181818;stroke-width:1.5;"/><path d="M2714.5,15 C2714.5,25 2732.5,25 2732.5,25 C2732.5,25 2750.5,25 2750.5,15 " fill="none" style="stroke:#181818;stroke-width:1.5;"/><text fill="#000000" font-family="FG Virgil" font-size="14" font-style="italic" lengthAdjust="spacing" textLength="79" x="2690" y="1092.3711">&#171;repository&#187;</text><text fill="#000000" font-family="FG Virgil" font-size="14" lengthAdjust="spacing" textLength="114" x="2672.5" y="1110.9922">CourseRepository</text><path d="M2714.5,1124.5059 C2714.5,1114.5059 2732.5,1114.5059 2732.5,1114.5059 C2732.5,1114.5059 2750.5,1114.5059 2750.5,1124.5059 L2750.5,1150.5059 C2750.5,1160.5059 2732.5,1160.5059 2732.5,1160.5059 C2732.5,1160.5059 2714.5,1160.5059 2714.5,1150.5059 L2714.5,1124.5059 " fill="#E3E3E3" style="stroke:#181818;stroke-width:1.5;"/><path d="M2714.5,1124.5059 C2714.5,1134.5059 2732.5,1134.5059 2732.5,1134.5059 C2732.5,1134.5059 2750.5,1134.5059 2750.5,1124.5059 " fill="none" style="stroke:#181818;stroke-width:1.5;"/><rect fill="#FFFFFF" height="938.7305" style="stroke:#181818;stroke-width:1.0;" width="10" x="351.5" y="121.5332"/><rect fill="#FFFFFF" height="782.2754" style="stroke:#181818;stroke-width:1.0;" width="10" x="766.5" y="246.6973"/><rect fill="#FFFFFF" height="62.582" style="stroke:#181818;stroke-width:1.0;" width="10" x="1147.5" y="340.5703"/><rect fill="#FFFFFF" height="31.291" style="stroke:#181818;stroke-width:1.0;" width="10" x="1279.5" y="434.4434"/><rect fill="#FFFFFF" height="500.6563" style="stroke:#181818;stroke-width:1.0;" width="10" x="1425" y="497.0254"/><rect fill="#FFFFFF" height="125.1641" style="stroke:#181818;stroke-width:1.0;" width="10" x="1828" y="747.3535"/><rect fill="#FFFFFF" height="31.291" style="stroke:#181818;stroke-width:1.0;" width="10" x="2223" y="809.9355"/><rect fill="#FFFFFF" height="62.582" style="stroke:#181818;stroke-width:1.0;" width="10" x="2449.5" y="559.6074"/><rect fill="#FFFFFF" height="62.582" style="stroke:#181818;stroke-width:1.0;" width="10" x="2592.5" y="653.4805"/><rect fill="#FFFFFF" height="31.291" style="stroke:#181818;stroke-width:1.0;" width="10" x="2727.5" y="935.0996"/><polygon fill="#181818" points="339.5,117.5332,349.5,121.5332,339.5,125.5332,343.5,121.5332" style="stroke:#181818;stroke-width:1.0;"/><line style="stroke:#181818;stroke-width:1.0;stroke-dasharray:2.0,2.0;" x1="34.5" x2="345.5" y1="121.5332" y2="121.5332"/><text fill="#000000" font-family="FG Virgil" font-size="13" lengthAdjust="spacing" textLength="87" x="41.5" y="116.2705">schedule class</text><polygon fill="#181818" points="759.5,148.8242,769.5,152.8242,759.5,156.8242,763.5,152.8242" style="stroke:#181818;stroke-width:1.0;"/><line style="stroke:#181818;stroke-width:1.0;" x1="361.5" x2="765.5" y1="152.8242" y2="152.8242"/><text fill="#000000" font-family="FG Virgil" font-size="13" lengthAdjust="spacing" textLength="44" x="368.5" y="147.5615">create()</text><polygon fill="#181818" points="45.5,180.1152,35.5,184.1152,45.5,188.1152,41.5,184.1152" style="stroke:#181818;stroke-width:1.0;"/><line style="stroke:#181818;stroke-width:1.0;" x1="39.5" x2="350.5" y1="184.1152" y2="184.1152"/><text fill="#000000" font-family="FG Virgil" font-size="13" lengthAdjust="spacing" textLength="98" x="51.5" y="178.8525">ask class details</text><polygon fill="#181818" points="339.5,211.4063,349.5,215.4063,339.5,219.4063,343.5,215.4063" style="stroke:#181818;stroke-width:1.0;"/><line style="stroke:#181818;stroke-width:1.0;" x1="34.5" x2="345.5" y1="215.4063" y2="215.4063"/><text fill="#000000" font-family="FG Virgil" font-size="13" lengthAdjust="spacing" textLength="293" x="41.5" y="210.1436">courseCode, title, dayOfWeek, startTime, endTime</text><polygon fill="#181818" points="754.5,242.6973,764.5,246.6973,754.5,250.6973,758.5,246.6973" style="stroke:#181818;stroke-width:1.0;"/><line style="stroke:#181818;stroke-width:1.0;" x1="361.5" x2="760.5" y1="246.6973" y2="246.6973"/><text fill="#000000" font-family="FG Virgil" font-size="13" lengthAdjust="spacing" textLength="386" x="368.5" y="241.4346">scheduleClass(courseCode, title, dayOfWeek, startTime, endTime)</text><polygon fill="#181818" points="1140.5,273.9883,1150.5,277.9883,1140.5,281.9883,1144.5,277.9883" style="stroke:#181818;stroke-width:1.0;"/><line style="stroke:#181818;stroke-width:1.0;" x1="776.5" x2="1146.5" y1="277.9883" y2="277.9883"/><text fill="#000000" font-family="FG Virgil" font-size="13" lengthAdjust="spacing" textLength="44" x="783.5" y="272.7256">create()</text><polygon fill="#181818" points="1140.5,305.2793,1150.5,309.2793,1140.5,313.2793,1144.5,309.2793" style="stroke:#181818;stroke-width:1.0;"/><line style="stroke:#181818;stroke-width:1.0;" x1="776.5" x2="1146.5" y1="309.2793" y2="309.2793"/><text fill="#000000" font-family="FG Virgil" font-size="13" lengthAdjust="spacing" textLength="352" x="783.5" y="304.0166">ensureAuthenticatedUserHasAnyOf(CourseRoles.TEACHER)</text><polygon fill="#181818" points="1272.5,336.5703,1282.5,340.5703,1272.5,344.5703,1276.5,340.5703" style="stroke:#181818;stroke-width:1.0;"/><line style="stroke:#181818;stroke-width:1.0;" x1="1157.5" x2="1278.5" y1="340.5703" y2="340.5703"/><text fill="#000000" font-family="FG Virgil" font-size="13" lengthAdjust="spacing" textLength="44" x="1164.5" y="335.3076">create()</text><polygon fill="#181818" points="1135.5,367.8613,1145.5,371.8613,1135.5,375.8613,1139.5,371.8613" style="stroke:#181818;stroke-width:1.0;"/><line style="stroke:#181818;stroke-width:1.0;" x1="776.5" x2="1141.5" y1="371.8613" y2="371.8613"/><text fill="#000000" font-family="FG Virgil" font-size="13" lengthAdjust="spacing" textLength="53" x="783.5" y="366.5986">session()</text><polygon fill="#181818" points="787.5,399.1523,777.5,403.1523,787.5,407.1523,783.5,403.1523" style="stroke:#181818;stroke-width:1.0;"/><line style="stroke:#181818;stroke-width:1.0;" x1="781.5" x2="1151.5" y1="403.1523" y2="403.1523"/><text fill="#000000" font-family="FG Virgil" font-size="13" lengthAdjust="spacing" textLength="45" x="793.5" y="397.8896">session</text><polygon fill="#181818" points="1267.5,430.4434,1277.5,434.4434,1267.5,438.4434,1271.5,434.4434" style="stroke:#181818;stroke-width:1.0;"/><line style="stroke:#181818;stroke-width:1.0;" x1="776.5" x2="1273.5" y1="434.4434" y2="434.4434"/><text fill="#000000" font-family="FG Virgil" font-size="13" lengthAdjust="spacing" textLength="113" x="783.5" y="429.1807">authenticatedUser()</text><polygon fill="#181818" points="787.5,461.7344,777.5,465.7344,787.5,469.7344,783.5,465.7344" style="stroke:#181818;stroke-width:1.0;"/><line style="stroke:#181818;stroke-width:1.0;" x1="781.5" x2="1283.5" y1="465.7344" y2="465.7344"/><text fill="#000000" font-family="FG Virgil" font-size="13" lengthAdjust="spacing" textLength="25" x="793.5" y="460.4717">user</text><polygon fill="#181818" points="1413,493.0254,1423,497.0254,1413,501.0254,1417,497.0254" style="stroke:#181818;stroke-width:1.0;"/><line style="stroke:#181818;stroke-width:1.0;" x1="776.5" x2="1419" y1="497.0254" y2="497.0254"/><text fill="#000000" font-family="FG Virgil" font-size="13" lengthAdjust="spacing" textLength="44" x="783.5" y="491.7627">create()</text><polygon fill="#181818" points="1413,524.3164,1423,528.3164,1413,532.3164,1417,528.3164" style="stroke:#181818;stroke-width:1.0;"/><line style="stroke:#181818;stroke-width:1.0;" x1="776.5" x2="1419" y1="528.3164" y2="528.3164"/><text fill="#000000" font-family="FG Virgil" font-size="13" lengthAdjust="spacing" textLength="462" x="783.5" y="523.0537">scheduleNewClass(courseCode, title, dayOfWeek, startTime, endTime, teacher)</text><polygon fill="#181818" points="2437.5,555.6074,2447.5,559.6074,2437.5,563.6074,2441.5,559.6074" style="stroke:#181818;stroke-width:1.0;"/><line style="stroke:#181818;stroke-width:1.0;" x1="1435" x2="2443.5" y1="559.6074" y2="559.6074"/><text fill="#000000" font-family="FG Virgil" font-size="13" lengthAdjust="spacing" textLength="75" x="1442" y="554.3447">repositories()</text><polygon fill="#181818" points="2585.5,586.8984,2595.5,590.8984,2585.5,594.8984,2589.5,590.8984" style="stroke:#181818;stroke-width:1.0;"/><line style="stroke:#181818;stroke-width:1.0;" x1="2459.5" x2="2591.5" y1="590.8984" y2="590.8984"/><text fill="#000000" font-family="FG Virgil" font-size="13" lengthAdjust="spacing" textLength="44" x="2466.5" y="585.6357">create()</text><polygon fill="#181818" points="1446,618.1895,1436,622.1895,1446,626.1895,1442,622.1895" style="stroke:#181818;stroke-width:1.0;"/><line style="stroke:#181818;stroke-width:1.0;" x1="1440" x2="2453.5" y1="622.1895" y2="622.1895"/><text fill="#000000" font-family="FG Virgil" font-size="13" lengthAdjust="spacing" textLength="39" x="1452" y="616.9268">factory</text><polygon fill="#181818" points="2580.5,649.4805,2590.5,653.4805,2580.5,657.4805,2584.5,653.4805" style="stroke:#181818;stroke-width:1.0;"/><line style="stroke:#181818;stroke-width:1.0;" x1="1435" x2="2586.5" y1="653.4805" y2="653.4805"/><text fill="#000000" font-family="FG Virgil" font-size="13" lengthAdjust="spacing" textLength="54" x="1442" y="648.2178">courses()</text><polygon fill="#181818" points="2720.5,680.7715,2730.5,684.7715,2720.5,688.7715,2724.5,684.7715" style="stroke:#181818;stroke-width:1.0;"/><line style="stroke:#181818;stroke-width:1.0;" x1="2602.5" x2="2726.5" y1="684.7715" y2="684.7715"/><text fill="#000000" font-family="FG Virgil" font-size="13" lengthAdjust="spacing" textLength="44" x="2609.5" y="679.5088">create()</text><polygon fill="#181818" points="1446,712.0625,1436,716.0625,1446,720.0625,1442,716.0625" style="stroke:#181818;stroke-width:1.0;"/><line style="stroke:#181818;stroke-width:1.0;" x1="1440" x2="2596.5" y1="716.0625" y2="716.0625"/><text fill="#000000" font-family="FG Virgil" font-size="13" lengthAdjust="spacing" textLength="101" x="1452" y="710.7998">courseRepository</text><polygon fill="#181818" points="1816,743.3535,1826,747.3535,1816,751.3535,1820,747.3535" style="stroke:#181818;stroke-width:1.0;"/><line style="stroke:#181818;stroke-width:1.0;" x1="1435" x2="1822" y1="747.3535" y2="747.3535"/><text fill="#000000" font-family="FG Virgil" font-size="13" lengthAdjust="spacing" textLength="44" x="1442" y="742.0908">create()</text><polygon fill="#181818" points="1816,774.6445,1826,778.6445,1816,782.6445,1820,778.6445" style="stroke:#181818;stroke-width:1.0;"/><line style="stroke:#181818;stroke-width:1.0;" x1="1435" x2="1822" y1="778.6445" y2="778.6445"/><text fill="#000000" font-family="FG Virgil" font-size="13" lengthAdjust="spacing" textLength="369" x="1442" y="773.3818">create(title, dayOfWeek, startTime, endTime, teacher, students)</text><polygon fill="#181818" points="2211,805.9355,2221,809.9355,2211,813.9355,2215,809.9355" style="stroke:#181818;stroke-width:1.0;"/><line style="stroke:#181818;stroke-width:1.0;" x1="1838" x2="2217" y1="809.9355" y2="809.9355"/><text fill="#000000" font-family="FG Virgil" font-size="13" lengthAdjust="spacing" textLength="366" x="1845" y="804.6729">Class(title, dayOfWeek, startTime, endTime, teacher, students)</text><polygon fill="#181818" points="1849,837.2266,1839,841.2266,1849,845.2266,1845,841.2266" style="stroke:#181818;stroke-width:1.0;"/><line style="stroke:#181818;stroke-width:1.0;" x1="1843" x2="2227" y1="841.2266" y2="841.2266"/><text fill="#000000" font-family="FG Virgil" font-size="13" lengthAdjust="spacing" textLength="31" x="1855" y="835.9639">class</text><polygon fill="#181818" points="1446,868.5176,1436,872.5176,1446,876.5176,1442,872.5176" style="stroke:#181818;stroke-width:1.0;"/><line style="stroke:#181818;stroke-width:1.0;" x1="1440" x2="1832" y1="872.5176" y2="872.5176"/><text fill="#000000" font-family="FG Virgil" font-size="13" lengthAdjust="spacing" textLength="31" x="1452" y="867.2549">class</text><polygon fill="#181818" points="2316.5,899.8086,2326.5,903.8086,2316.5,907.8086,2320.5,903.8086" style="stroke:#181818;stroke-width:1.0;"/><line style="stroke:#181818;stroke-width:1.0;" x1="1435" x2="2322.5" y1="903.8086" y2="903.8086"/><text fill="#000000" font-family="FG Virgil" font-size="13" lengthAdjust="spacing" textLength="93" x="1442" y="898.5459">addClass(class)</text><polygon fill="#181818" points="2715.5,931.0996,2725.5,935.0996,2715.5,939.0996,2719.5,935.0996" style="stroke:#181818;stroke-width:1.0;"/><line style="stroke:#181818;stroke-width:1.0;" x1="1435" x2="2721.5" y1="935.0996" y2="935.0996"/><text fill="#000000" font-family="FG Virgil" font-size="13" lengthAdjust="spacing" textLength="65" x="1442" y="929.8369">save(class)</text><polygon fill="#181818" points="1446,962.3906,1436,966.3906,1446,970.3906,1442,966.3906" style="stroke:#181818;stroke-width:1.0;"/><line style="stroke:#181818;stroke-width:1.0;stroke-dasharray:2.0,2.0;" x1="1440" x2="2731.5" y1="966.3906" y2="966.3906"/><text fill="#000000" font-family="FG Virgil" font-size="13" lengthAdjust="spacing" textLength="31" x="1452" y="961.1279">class</text><polygon fill="#181818" points="787.5,993.6816,777.5,997.6816,787.5,1001.6816,783.5,997.6816" style="stroke:#181818;stroke-width:1.0;"/><line style="stroke:#181818;stroke-width:1.0;stroke-dasharray:2.0,2.0;" x1="781.5" x2="1429" y1="997.6816" y2="997.6816"/><text fill="#000000" font-family="FG Virgil" font-size="13" lengthAdjust="spacing" textLength="31" x="793.5" y="992.4189">class</text><polygon fill="#181818" points="372.5,1024.9727,362.5,1028.9727,372.5,1032.9727,368.5,1028.9727" style="stroke:#181818;stroke-width:1.0;"/><line style="stroke:#181818;stroke-width:1.0;stroke-dasharray:2.0,2.0;" x1="366.5" x2="770.5" y1="1028.9727" y2="1028.9727"/><text fill="#000000" font-family="FG Virgil" font-size="13" lengthAdjust="spacing" textLength="31" x="378.5" y="1023.71">class</text><polygon fill="#181818" points="45.5,1056.2637,35.5,1060.2637,45.5,1064.2637,41.5,1060.2637" style="stroke:#181818;stroke-width:1.0;"/><line style="stroke:#181818;stroke-width:1.0;" x1="39.5" x2="355.5" y1="1060.2637" y2="1060.2637"/><text fill="#000000" font-family="FG Virgil" font-size="13" lengthAdjust="spacing" textLength="145" x="51.5" y="1055.001">show the operation result</text><!--SRC=[dLRDRjim3BxhAOIU4g3T0mH6WI1hrnxM3KsxdJMRQOGubY7AoRgd7oLBCQqw1TgBBOdVnp-Hj76dcrPPjPTxqvXoQyqUfBCT23n9MbNkr0kitMiDqaBfcAo2ZUfgTsiQzw28UljD_jBsHTSCWrjLcQDkNkH6rGX2gD8PAvz0bLkmKg5S-WD1QATBtQh6oJM9ggw6LQqGd-yzY9v5qLf0Q9nosZJNr-SfAtB8chhkzRDTKQYshNKvfM7PkIqfZy8rs8Ck8VZNkNzRec9_bD6UwNWDYCG9VhAjfuHLHWa-VbSDfNLF5fcfj3ndB31lGmPVGsXfNHIRVfKHBahFM0JUHM3u5S4hirUwEOCsdKK8yAy1TWx_4ongTD2Ku9CCVrtAjr_IVGtoZFa8hK7j7MRHJ0LJAQV-A0JPEpNmF87jYiAUDaGJeQZarTMrhvo5n5WUCaGOYb0Vb0EI2W8GZ5N9GfOMI3YRYoZijIt8vgxNGANlbAunsObcok3aobHmAPrsDRqgzVfZynjWTodHKGQUz9vEeQdyGamPHrxAiu-gd0-n3Lg5O1PyFA6aMPpJOcYmiy0Q0ofVttSAbmsvC8jtOch0BqytozNTpUDSz6IV4TOAFAKd_mBoZEdOEJEcRvoaNYugoDHb-iPEg3oK6KiNWmfEoqrt9EDsEI-pdlgPXN-YHTbPHYg31pX-hX88rGzPodbI6sFnxRcGfuxHWBEiRWWX4f98gJMpaedImUdOk3mzIHltWQaBGOtCHw588CApHcSUC01BT3Odk2lJfydUA4aJ0GyH9SQxX0zTaHTs5PKcqcMjM63zl5xqxy_h77plvr-lDlCxYFZDHUnqdj-Wf_8Oln_KULKLgzW_vnmpkbnK1qWOCNLn37trlaECD9XxC-bpLchBKL-UvlkReDc87NygS6kEagQDDFGL3ByKr6z8VqjYD3lk_mC0]--></g></svg>