<?xml version="1.0" encoding="UTF-8" standalone="no"?><svg xmlns="http://www.w3.org/2000/svg" xmlns:xlink="http://www.w3.org/1999/xlink" contentStyleType="text/css" height="457px" preserveAspectRatio="none" style="width:874px;height:457px;background:#FFFFFF;" version="1.1" viewBox="0 0 874 457" width="874px" zoomAndPan="magnify"><defs/><g><polygon fill="#FFFFFF" points="251.5,114.9609,251.5,115.031,253.5,114.8228,255.5,115.0254,257.5,115.0942,259.5,114.7231,261.5,114.9609,261.4223,114.9609,261.0735,125.0781,261.1165,135.1953,261.4318,145.3125,260.8086,155.4297,262.0536,165.5469,260.8697,175.6641,261.3022,185.7813,261.9319,195.8984,261.4142,206.0156,261.5682,216.1328,261.4681,226.25,261.6785,236.3672,261.7391,246.4844,262.0857,256.6016,262.1711,266.7188,262.1793,276.8359,261.7546,286.9531,261.9636,297.0703,262.2022,307.1875,260.7788,317.3047,262.1785,327.4219,261.2035,337.5391,262.0338,347.6563,261.5,357.7734,261.5,357.6084,259.5,357.7506,257.5,358.0206,255.5,357.7572,253.5,357.8085,251.5,357.7734,251.8386,357.7734,251.9162,347.6563,251.4961,337.5391,251.7872,327.4219,250.9276,317.3047,251.7844,307.1875,252.0482,297.0703,251.9445,286.9531,252.113,276.8359,251.0169,266.7188,250.8478,256.6016,250.8786,246.4844,251.4411,236.3672,251.3035,226.25,252.1814,216.1328,251.3253,206.0156,251.1569,195.8984,251.7283,185.7813,250.8332,175.6641,250.9809,165.5469,252.149,155.4297,251.9357,145.3125,252.2345,135.1953,251.1782,125.0781,251.5,114.9609" style="stroke:#181818;stroke-width:1.0;"/><polygon fill="#FFFFFF" points="436.5,175.6641,436.5,175.7341,438.5,175.526,440.5,175.7285,442.5,175.7973,444.5,175.4263,446.5,175.6641,446.4223,175.6641,446.0735,185.7813,446.1165,195.8984,446.4318,206.0156,445.8086,216.1328,447.0536,226.25,445.8697,236.3672,446.3022,246.4844,446.9319,256.6016,446.4142,266.7188,446.5682,276.8359,446.4681,286.9531,446.6785,297.0703,446.7391,307.1875,447.0857,317.3047,446.5,327.4219,446.5,327.6456,444.5,327.6483,442.5,327.5068,440.5,327.5764,438.5,327.656,436.5,327.4219,435.7788,327.4219,437.1785,317.3047,436.2035,307.1875,437.0338,297.0703,436.005,286.9531,436.4315,276.8359,437.2416,266.7188,436.4513,256.6016,436.6053,246.4844,436.8386,236.3672,436.9162,226.25,436.4961,216.1328,436.7872,206.0156,435.9276,195.8984,436.7844,185.7813,436.5,175.6641" style="stroke:#181818;stroke-width:1.0;"/><polygon fill="#FFFFFF" points="805.5,266.7188,805.5,266.7888,807.5,266.5806,809.5,266.7832,811.5,266.852,813.5,266.481,815.5,266.7188,815.4741,266.7188,815.3578,272.7891,815.3722,278.8594,815.4773,284.9297,815.2695,291,815.5,297.0703,815.5,297.2549,813.5,296.8602,811.5,297.0044,809.5,297.2143,807.5,297.0417,805.5,297.0703,805.5227,297.0703,805.4894,291,805.5595,284.9297,805.5797,278.8594,805.6952,272.7891,805.5,266.7188" style="stroke:#181818;stroke-width:1.0;"/><path d="M22,82.6094 L22.2802,82.6094 L21.4476,92.7185 L22.2577,102.8276 L22.5329,112.9367 L21.0488,123.0458 L21.8964,133.1549 L21.4313,143.264 L21.4887,153.3731 L21.9091,163.4822 L21.0782,173.5913 L22.7382,183.7004 L21.1596,193.8095 L21.7363,203.9186 L22.5759,214.0277 L21.8856,224.1369 L22.091,234.246 L21.9574,244.3551 L22.238,254.4642 L22.3188,264.5733 L22.7809,274.6824 L22.8947,284.7915 L22.9057,294.9006 L22.3395,305.0097 L22.6181,315.1188 L22.9363,325.2279 L21.0384,335.337 L22.9047,345.4461 L21.6047,355.5552 L22.7117,365.6643 L22,375.7734 " fill="none" style="stroke:#181818;stroke-width:0.5;stroke-dasharray:5.0,5.0;"/><path d="M256,82.6094 L256.2802,82.6094 L255.4476,92.7185 L256.2577,102.8276 L256.5329,112.9367 L255.0488,123.0458 L255.8964,133.1549 L255.4313,143.264 L255.4887,153.3731 L255.9091,163.4822 L255.0782,173.5913 L256.7382,183.7004 L255.1596,193.8095 L255.7363,203.9186 L256.5759,214.0277 L255.8856,224.1369 L256.091,234.246 L255.9574,244.3551 L256.238,254.4642 L256.3188,264.5733 L256.7809,274.6824 L256.8947,284.7915 L256.9057,294.9006 L256.3395,305.0097 L256.6181,315.1188 L256.9363,325.2279 L255.0384,335.337 L256.9047,345.4461 L255.6047,355.5552 L256.7117,365.6643 L256,375.7734 " fill="none" style="stroke:#181818;stroke-width:0.5;stroke-dasharray:5.0,5.0;"/><path d="M441,82.6094 L441.2802,82.6094 L440.4476,92.7185 L441.2577,102.8276 L441.5329,112.9367 L440.0488,123.0458 L440.8964,133.1549 L440.4313,143.264 L440.4887,153.3731 L440.9091,163.4822 L440.0782,173.5913 L441.7382,183.7004 L440.1596,193.8095 L440.7363,203.9186 L441.5759,214.0277 L440.8856,224.1369 L441.091,234.246 L440.9574,244.3551 L441.238,254.4642 L441.3188,264.5733 L441.7809,274.6824 L441.8947,284.7915 L441.9057,294.9006 L441.3395,305.0097 L441.6181,315.1188 L441.9363,325.2279 L440.0384,335.337 L441.9047,345.4461 L440.6047,355.5552 L441.7117,365.6643 L441,375.7734 " fill="none" style="stroke:#181818;stroke-width:0.5;stroke-dasharray:5.0,5.0;"/><path d="M810.5,82.6094 L810.7802,82.6094 L809.9476,92.7185 L810.7577,102.8276 L811.0329,112.9367 L809.5488,123.0458 L810.3964,133.1549 L809.9313,143.264 L809.9887,153.3731 L810.4091,163.4822 L809.5782,173.5913 L811.2382,183.7004 L809.6596,193.8095 L810.2363,203.9186 L811.0759,214.0277 L810.3856,224.1369 L810.591,234.246 L810.4574,244.3551 L810.738,254.4642 L810.8188,264.5733 L811.2809,274.6824 L811.3947,284.7915 L811.4057,294.9006 L810.8395,305.0097 L811.1181,315.1188 L811.4363,325.2279 L809.5384,335.337 L811.4047,345.4461 L810.1047,355.5552 L811.2117,365.6643 L810.5,375.7734 " fill="none" style="stroke:#181818;stroke-width:0.5;stroke-dasharray:5.0,5.0;"/><text fill="#000000" font-family="FG Virgil" font-size="14" lengthAdjust="spacing" textLength="29" x="5" y="79.5332">User</text><polygon fill="#E3E3E3" points="30.5442,15.4459,29.3715,17.0482,27.9845,19.3951,26.0008,20.9767,23.9163,21.8415,22.2542,21.9166,20.118,20.8349,18.1023,20.1283,16.5724,18.6936,15.7699,17.0511,15.2939,15.7433,14.8277,14.0351,14.0709,12.5651,14.6525,11.1298,15.162,9.5576,17.074,8.3142,18.4192,6.7008,20.0843,6.165,22.0637,5.7037,24.6021,5.9778,25.9924,6.6335,27.6089,6.9307,29.5743,8.9443,30.2595,11.0701,30.5571,12.5206,30.22,14.9108" style="stroke:#181818;stroke-width:0.5;"/><path d="M22.5,21.5 L22.6868,21.5 L22.1317,26.9 L22.6718,32.3 L22.8553,37.7 L21.8659,43.1 L22.5,48.5 M9.5,29.5 L9.5,29.4309 L14.7,29.1209 L19.9,29.1591 L25.1,29.4394 L30.3,28.8854 L35.5,29.5 M22.5,48.5 L22.8719,48.8223 L19.4766,51.1331 L17.1672,54.3849 L14.9901,57.7515 L12.0424,60.4501 L9.5,63.5 M22.5,48.5 L22.5458,48.5397 L25.0785,51.4814 L27.8199,54.6039 L30.4606,57.6392 L33.2934,60.841 L35.5,63.5 " fill="none" style="stroke:#181818;stroke-width:0.5;"/><text fill="#000000" font-family="FG Virgil" font-size="14" lengthAdjust="spacing" textLength="29" x="5" y="389.3066">User</text><polygon fill="#E3E3E3" points="30.5442,402.8287,29.3715,404.431,27.9845,406.7779,26.0008,408.3595,23.9163,409.2243,22.2542,409.2994,20.118,408.2178,18.1023,407.5111,16.5724,406.0764,15.7699,404.4339,15.2939,403.1261,14.8277,401.4179,14.0709,399.9479,14.6525,398.5126,15.162,396.9404,17.074,395.697,18.4192,394.0836,20.0843,393.5479,22.0637,393.0865,24.6021,393.3606,25.9924,394.0163,27.6089,394.3135,29.5743,396.3272,30.2595,398.453,30.5571,399.9034,30.22,402.2936" style="stroke:#181818;stroke-width:0.5;"/><path d="M22.5,408.8828 L22.6868,408.8828 L22.1317,414.2828 L22.6718,419.6828 L22.8553,425.0828 L21.8659,430.4828 L22.5,435.8828 M9.5,416.8828 L9.5,416.8137 L14.7,416.5037 L19.9,416.5419 L25.1,416.8222 L30.3,416.2683 L35.5,416.8828 M22.5,435.8828 L22.8719,436.2051 L19.4766,438.5159 L17.1672,441.7677 L14.9901,445.1343 L12.0424,447.8329 L9.5,450.8828 M22.5,435.8828 L22.5458,435.9225 L25.0785,438.8642 L27.8199,441.9867 L30.4606,445.022 L33.2934,448.2238 L35.5,450.8828 " fill="none" style="stroke:#181818;stroke-width:0.5;"/><polygon fill="#E3E3E3" points="204.5,32.3906,204.5,32.6008,214.9,31.9763,225.3,32.5839,235.7,32.7903,246.1,31.6772,256.5,32.3129,266.9,31.9641,277.3,32.0071,287.7,32.3225,298.1,31.6993,308.5,32.3906,308.5706,32.5611,308.7732,32.343,309.1819,32.6226,309.6158,32.963,309.9033,32.95,310.2678,33.1229,310.2888,33.1316,310.4044,33.4723,310.6156,33.8527,310.7808,34.214,311.0339,34.6118,311,34.8906,311.2237,34.8906,311.2264,43.7344,311.0849,52.5781,311.1545,61.4219,311.2341,70.2656,311,79.1094,310.7779,79.0174,311.0625,79.5495,310.6158,79.7787,310.7251,80.2381,310.2618,80.4604,310.2678,80.8771,310.259,80.856,310.0088,81.252,309.5544,81.155,309.2205,81.3489,308.8967,81.5672,308.5,81.6094,308.5,82.0256,298.1,81.6055,287.7,81.8966,277.3,81.037,266.9,81.8938,256.5,82.1576,246.1,82.0539,235.7,82.2224,225.3,81.1263,214.9,80.9572,204.5,81.6094,204.4207,81.418,204.1389,81.4448,203.7678,81.256,203.5263,81.3799,203.0635,80.9698,202.7322,80.8771,202.6266,80.8334,202.6561,80.5527,202.234,80.085,202.133,79.7503,202.3463,79.5457,202,79.1094,202.1452,79.1094,202.2448,70.2656,201.8927,61.4219,202.1064,52.5781,202.1968,43.7344,202,34.8906,201.8545,34.8304,202.1169,34.5248,202.3317,34.1996,202.6401,33.9131,202.5845,33.4759,202.7322,33.1229,202.7912,33.2653,203.0151,32.8059,203.3529,32.6214,203.8571,32.8386,204.055,32.3163,204.5,32.3906" style="stroke:#181818;stroke-width:0.5;"/><text fill="#000000" font-family="FG Virgil" font-size="14" font-style="italic" lengthAdjust="spacing" textLength="95" x="209" y="53.9238">«presentation»</text><text fill="#000000" font-family="FG Virgil" font-size="14" lengthAdjust="spacing" textLength="77" x="218" y="71.5332">MainMenuUI</text><polygon fill="#E3E3E3" points="204.5,374.7734,204.5,374.9836,214.9,374.3591,225.3,374.9667,235.7,375.1731,246.1,374.06,256.5,374.6957,266.9,374.3469,277.3,374.3899,287.7,374.7053,298.1,374.0821,308.5,374.7734,308.5706,374.9439,308.7732,374.7258,309.1819,375.0054,309.6158,375.3458,309.9033,375.3328,310.2678,375.5057,310.2888,375.5144,310.4044,375.8551,310.6156,376.2356,310.7808,376.5968,311.0339,376.9946,311,377.2734,311.2237,377.2734,311.2264,386.1172,311.0849,394.9609,311.1545,403.8047,311.2341,412.6484,311,421.4922,310.7779,421.4002,311.0625,421.9323,310.6158,422.1615,310.7251,422.6209,310.2618,422.8433,310.2678,423.26,310.259,423.2389,310.0088,423.6348,309.5544,423.5378,309.2205,423.7317,308.8967,423.95,308.5,423.9922,308.5,424.4084,298.1,423.9883,287.7,424.2794,277.3,423.4198,266.9,424.2766,256.5,424.5404,246.1,424.4367,235.7,424.6052,225.3,423.5091,214.9,423.34,204.5,423.9922,204.4207,423.8008,204.1389,423.8276,203.7678,423.6388,203.5263,423.7627,203.0635,423.3526,202.7322,423.26,202.6266,423.2162,202.6561,422.9355,202.234,422.4678,202.133,422.1331,202.3463,421.9285,202,421.4922,202.1452,421.4922,202.2448,412.6484,201.8927,403.8047,202.1064,394.9609,202.1968,386.1172,202,377.2734,201.8545,377.2132,202.1169,376.9077,202.3317,376.5824,202.6401,376.2959,202.5845,375.8587,202.7322,375.5057,202.7912,375.6481,203.0151,375.1887,203.3529,375.0042,203.8571,375.2214,204.055,374.6991,204.5,374.7734" style="stroke:#181818;stroke-width:0.5;"/><text fill="#000000" font-family="FG Virgil" font-size="14" font-style="italic" lengthAdjust="spacing" textLength="95" x="209" y="396.3066">«presentation»</text><text fill="#000000" font-family="FG Virgil" font-size="14" lengthAdjust="spacing" textLength="77" x="218" y="413.916">MainMenuUI</text><polygon fill="#E3E3E3" points="351.5,32.3906,351.5,32.6008,361.5,31.9763,371.5,32.5839,381.5,32.7903,391.5,31.6772,401.5,32.3129,411.5,31.9641,421.5,32.0071,431.5,32.3225,441.5,31.6993,451.5,32.9443,461.5,31.7603,471.5,32.1929,481.5,32.8226,491.5,32.3048,501.5,32.4589,511.5,32.3587,521.5,32.5692,531.5,32.3906,531.5305,32.4643,531.9283,32.7174,532.2927,32.8902,532.6473,33.0391,532.9467,33.0548,533.2678,33.1229,533.4105,33.182,533.6305,33.566,533.3386,33.738,533.9161,34.2701,533.7622,34.4992,534,34.8906,534.1779,34.8906,533.835,43.7344,533.9772,52.5781,534.2472,61.4219,533.9838,70.2656,534,79.1094,534.0324,79.1228,533.9578,79.5061,533.8353,79.8696,533.5595,80.1695,533.5027,80.5602,533.2678,80.8771,533.1947,80.7009,532.9505,81.1112,532.6306,81.3389,532.2638,81.4534,531.9318,81.6517,531.5,81.6094,531.5,81.1263,521.5,80.9572,511.5,80.988,501.5,81.5505,491.5,81.4128,481.5,82.2908,471.5,81.4347,461.5,81.2663,451.5,81.8376,441.5,80.9425,431.5,81.0902,421.5,82.2583,411.5,82.045,401.5,82.3439,391.5,81.2876,381.5,81.9286,371.5,82.1998,361.5,81.137,351.5,81.6094,351.4878,81.5799,351.1625,81.5017,350.876,81.5172,350.4388,81.1687,350.1448,81.166,349.7322,80.8771,349.5617,80.8065,349.3772,80.4372,349.5944,80.2343,349.0721,79.725,349.3032,79.5279,349,79.1094,349.0689,79.1094,348.9107,70.2656,348.8821,61.4219,349.1529,52.5781,348.9002,43.7344,349,34.8906,349.1823,34.9661,348.9762,34.4666,349.483,34.2623,349.5885,33.8917,349.6612,33.5077,349.7322,33.1229,349.7383,33.1374,350.1785,33.2002,350.5176,33.0189,350.8145,32.7356,351.1807,32.6197,351.5,32.3906" style="stroke:#181818;stroke-width:0.5;"/><text fill="#000000" font-family="FG Virgil" font-size="14" font-style="italic" lengthAdjust="spacing" textLength="84" x="399.5" y="53.9238">«application»</text><text fill="#000000" font-family="FG Virgil" font-size="14" lengthAdjust="spacing" textLength="171" x="356" y="71.5332">SharedBoardAppController</text><polygon fill="#E3E3E3" points="351.5,374.7734,351.5,374.9836,361.5,374.3591,371.5,374.9667,381.5,375.1731,391.5,374.06,401.5,374.6957,411.5,374.3469,421.5,374.3899,431.5,374.7053,441.5,374.0821,451.5,375.3271,461.5,374.1432,471.5,374.5757,481.5,375.2054,491.5,374.6877,501.5,374.8417,511.5,374.7415,521.5,374.952,531.5,374.7734,531.5305,374.8471,531.9283,375.1003,532.2927,375.273,532.6473,375.422,532.9467,375.4376,533.2678,375.5057,533.4105,375.5648,533.6305,375.9488,533.3386,376.1208,533.9161,376.6529,533.7622,376.8821,534,377.2734,534.1779,377.2734,533.835,386.1172,533.9772,394.9609,534.2472,403.8047,533.9838,412.6484,534,421.4922,534.0324,421.5056,533.9578,421.8889,533.8353,422.2524,533.5595,422.5523,533.5027,422.943,533.2678,423.26,533.1947,423.0837,532.9505,423.494,532.6306,423.7217,532.2638,423.8362,531.9318,424.0345,531.5,423.9922,531.5,423.5091,521.5,423.34,511.5,423.3708,501.5,423.9333,491.5,423.7957,481.5,424.6736,471.5,423.8175,461.5,423.6491,451.5,424.2205,441.5,423.3253,431.5,423.4731,421.5,424.6411,411.5,424.4279,401.5,424.7267,391.5,423.6704,381.5,424.3114,371.5,424.5826,361.5,423.5198,351.5,423.9922,351.4878,423.9627,351.1625,423.8845,350.876,423.9,350.4388,423.5516,350.1448,423.5489,349.7322,423.26,349.5617,423.1893,349.3772,422.82,349.5944,422.6171,349.0721,422.1078,349.3032,421.9107,349,421.4922,349.0689,421.4922,348.9107,412.6484,348.8821,403.8047,349.1529,394.9609,348.9002,386.1172,349,377.2734,349.1823,377.3489,348.9762,376.8494,349.483,376.6451,349.5885,376.2746,349.6612,375.8905,349.7322,375.5057,349.7383,375.5202,350.1785,375.583,350.5176,375.4017,350.8145,375.1185,351.1807,375.0025,351.5,374.7734" style="stroke:#181818;stroke-width:0.5;"/><text fill="#000000" font-family="FG Virgil" font-size="14" font-style="italic" lengthAdjust="spacing" textLength="84" x="399.5" y="396.3066">«application»</text><text fill="#000000" font-family="FG Virgil" font-size="14" lengthAdjust="spacing" textLength="171" x="356" y="413.916">SharedBoardAppController</text><polygon fill="#E3E3E3" points="755,32.3906,755,32.6008,765.0909,31.9763,775.1818,32.5839,785.2727,32.7903,795.3636,31.6772,805.4545,32.3129,815.5455,31.9641,825.6364,32.0071,835.7273,32.3225,845.8182,31.6993,855.9091,32.9443,866,32.3906,865.9196,32.1965,866.3283,32.4762,866.7622,32.8165,867.0497,32.8035,867.4229,32.9974,867.7678,33.1229,867.7579,33.1188,867.9692,33.4992,868.1343,33.8605,868.3875,34.2582,868.5602,34.6227,868.5,34.8906,868.7264,34.8906,868.5849,43.7344,868.6545,52.5781,868.7341,61.4219,868.2596,70.2656,868.5,79.1094,868.709,79.1959,868.2622,79.4251,868.3715,79.8846,867.9082,80.1069,867.8931,80.5149,867.7678,80.8771,867.8624,81.1055,867.408,81.0086,867.0741,81.2025,866.7503,81.4208,866.4066,81.5911,866,81.6094,866,81.6055,855.9091,81.8966,845.8182,81.037,835.7273,81.8938,825.6364,82.1576,815.5455,82.0539,805.4545,82.2224,795.3636,81.1263,785.2727,80.9572,775.1818,80.988,765.0909,81.5505,755,81.6094,754.9749,81.5489,754.7334,81.6728,754.2706,81.2627,753.8956,81.0644,753.6149,81.0939,753.2322,80.8771,753.0269,80.7921,752.9259,80.4574,753.1392,80.2528,752.9271,79.8721,752.8726,79.5566,752.5,79.1094,752.3927,79.1094,752.6064,70.2656,752.6968,61.4219,752.3425,52.5781,752.468,43.7344,752.5,34.8906,752.5388,34.9067,752.8472,34.6202,752.7916,34.183,753.0818,33.889,752.9152,33.4058,753.2322,33.1229,753.1458,32.9143,753.65,33.1315,753.8479,32.6092,754.3578,32.8403,754.6728,32.6007,755,32.3906" style="stroke:#181818;stroke-width:0.5;"/><text fill="#000000" font-family="FG Virgil" font-size="14" font-style="italic" lengthAdjust="spacing" textLength="34" x="793.5" y="53.9238">«util»</text><text fill="#000000" font-family="FG Virgil" font-size="14" lengthAdjust="spacing" textLength="102" x="759.5" y="71.5332">MessageFormat</text><polygon fill="#E3E3E3" points="755,374.7734,755,374.9836,765.0909,374.3591,775.1818,374.9667,785.2727,375.1731,795.3636,374.06,805.4545,374.6957,815.5455,374.3469,825.6364,374.3899,835.7273,374.7053,845.8182,374.0821,855.9091,375.3271,866,374.7734,865.9196,374.5793,866.3283,374.859,866.7622,375.1994,867.0497,375.1864,867.4229,375.3802,867.7678,375.5057,867.7579,375.5016,867.9692,375.882,868.1343,376.2433,868.3875,376.641,868.5602,377.0055,868.5,377.2734,868.7264,377.2734,868.5849,386.1172,868.6545,394.9609,868.7341,403.8047,868.2596,412.6484,868.5,421.4922,868.709,421.5787,868.2622,421.8079,868.3715,422.2674,867.9082,422.4897,867.8931,422.8977,867.7678,423.26,867.8624,423.4883,867.408,423.3914,867.0741,423.5853,866.7503,423.8036,866.4066,423.9739,866,423.9922,866,423.9883,855.9091,424.2794,845.8182,423.4198,835.7273,424.2766,825.6364,424.5404,815.5455,424.4367,805.4545,424.6052,795.3636,423.5091,785.2727,423.34,775.1818,423.3708,765.0909,423.9333,755,423.9922,754.9749,423.9317,754.7334,424.0556,754.2706,423.6455,753.8956,423.4472,753.6149,423.4767,753.2322,423.26,753.0269,423.1749,752.9259,422.8402,753.1392,422.6356,752.9271,422.2549,752.8726,421.9394,752.5,421.4922,752.3927,421.4922,752.6064,412.6484,752.6968,403.8047,752.3425,394.9609,752.468,386.1172,752.5,377.2734,752.5388,377.2895,752.8472,377.003,752.7916,376.5658,753.0818,376.2718,752.9152,375.7886,753.2322,375.5057,753.1458,375.2971,753.65,375.5143,753.8479,374.992,754.3578,375.2231,754.6728,374.9835,755,374.7734" style="stroke:#181818;stroke-width:0.5;"/><text fill="#000000" font-family="FG Virgil" font-size="14" font-style="italic" lengthAdjust="spacing" textLength="34" x="793.5" y="396.3066">«util»</text><text fill="#000000" font-family="FG Virgil" font-size="14" lengthAdjust="spacing" textLength="102" x="759.5" y="413.916">MessageFormat</text><polygon fill="#FFFFFF" points="251.5,114.9609,251.5,115.031,253.5,114.8228,255.5,115.0254,257.5,115.0942,259.5,114.7231,261.5,114.9609,261.4223,114.9609,261.0735,125.0781,261.1165,135.1953,261.4318,145.3125,260.8086,155.4297,262.0536,165.5469,260.8697,175.6641,261.3022,185.7813,261.9319,195.8984,261.4142,206.0156,261.5682,216.1328,261.4681,226.25,261.6785,236.3672,261.7391,246.4844,262.0857,256.6016,262.1711,266.7188,262.1793,276.8359,261.7546,286.9531,261.9636,297.0703,262.2022,307.1875,260.7788,317.3047,262.1785,327.4219,261.2035,337.5391,262.0338,347.6563,261.5,357.7734,261.5,357.6084,259.5,357.7506,257.5,358.0206,255.5,357.7572,253.5,357.8085,251.5,357.7734,251.8386,357.7734,251.9162,347.6563,251.4961,337.5391,251.7872,327.4219,250.9276,317.3047,251.7844,307.1875,252.0482,297.0703,251.9445,286.9531,252.113,276.8359,251.0169,266.7188,250.8478,256.6016,250.8786,246.4844,251.4411,236.3672,251.3035,226.25,252.1814,216.1328,251.3253,206.0156,251.1569,195.8984,251.7283,185.7813,250.8332,175.6641,250.9809,165.5469,252.149,155.4297,251.9357,145.3125,252.2345,135.1953,251.1782,125.0781,251.5,114.9609" style="stroke:#181818;stroke-width:1.0;"/><polygon fill="#FFFFFF" points="436.5,175.6641,436.5,175.7341,438.5,175.526,440.5,175.7285,442.5,175.7973,444.5,175.4263,446.5,175.6641,446.4223,175.6641,446.0735,185.7813,446.1165,195.8984,446.4318,206.0156,445.8086,216.1328,447.0536,226.25,445.8697,236.3672,446.3022,246.4844,446.9319,256.6016,446.4142,266.7188,446.5682,276.8359,446.4681,286.9531,446.6785,297.0703,446.7391,307.1875,447.0857,317.3047,446.5,327.4219,446.5,327.6456,444.5,327.6483,442.5,327.5068,440.5,327.5764,438.5,327.656,436.5,327.4219,435.7788,327.4219,437.1785,317.3047,436.2035,307.1875,437.0338,297.0703,436.005,286.9531,436.4315,276.8359,437.2416,266.7188,436.4513,256.6016,436.6053,246.4844,436.8386,236.3672,436.9162,226.25,436.4961,216.1328,436.7872,206.0156,435.9276,195.8984,436.7844,185.7813,436.5,175.6641" style="stroke:#181818;stroke-width:1.0;"/><polygon fill="#FFFFFF" points="805.5,266.7188,805.5,266.7888,807.5,266.5806,809.5,266.7832,811.5,266.852,813.5,266.481,815.5,266.7188,815.4741,266.7188,815.3578,272.7891,815.3722,278.8594,815.4773,284.9297,815.2695,291,815.5,297.0703,815.5,297.2549,813.5,296.8602,811.5,297.0044,809.5,297.2143,807.5,297.0417,805.5,297.0703,805.5227,297.0703,805.4894,291,805.5595,284.9297,805.5797,278.8594,805.6952,272.7891,805.5,266.7188" style="stroke:#181818;stroke-width:1.0;"/><polygon fill="#181818" points="239.5,110.9609,239.526,111.026,241.4487,111.6327,243.5239,112.6208,245.5495,113.4846,247.4117,113.9401,249.5,114.9609,249.4904,114.9369,247.4472,115.6289,245.4525,116.4422,243.4916,117.3398,241.4144,117.947,239.5,118.9609,239.6305,119.0914,240.1514,118.0124,241.0534,117.3143,242.0018,116.6627,242.6798,115.7407,243.5,114.9609,243.5161,114.977,242.6925,114.1534,241.9421,113.403,241.1564,112.6173,240.438,111.899,239.5,110.9609" style="stroke:#181818;stroke-width:1.0;"/><path d="M22.5,114.9609 L22.5,115.2412 L32.6364,114.4085 L42.7727,115.2187 L52.9091,115.4938 L63.0455,114.0097 L73.1818,114.8573 L83.3182,114.3923 L93.4545,114.4496 L103.5909,114.8701 L113.7273,114.0391 L123.8636,115.6991 L134,114.1206 L144.1364,114.6972 L154.2727,115.5369 L164.4091,114.8466 L174.5455,115.0519 L184.6818,114.9183 L194.8182,115.199 L204.9545,115.2798 L215.0909,115.7419 L225.2273,115.8557 L235.3636,115.8666 L245.5,114.9609 " fill="none" style="stroke:#181818;stroke-width:1.0;stroke-dasharray:2.0,2.0;"/><text fill="#000000" font-family="FG Virgil" font-size="13" lengthAdjust="spacing" textLength="116" x="29.5" y="110.1045">Communication test</text><polygon fill="#181818" points="429.5,141.3125,429.526,141.3775,431.4487,141.9843,433.5239,142.9723,435.5495,143.8362,437.4117,144.2917,439.5,145.3125,439.4904,145.2884,437.4472,145.9805,435.4525,146.7938,433.4916,147.6914,431.4144,148.2985,429.5,149.3125,429.6305,149.443,430.1514,148.3639,431.0534,147.6659,432.0018,147.0143,432.6798,146.0923,433.5,145.3125,433.5161,145.3286,432.6925,144.505,431.9421,143.7546,431.1564,142.9689,430.438,142.2505,429.5,141.3125" style="stroke:#181818;stroke-width:1.0;"/><path d="M261.5,145.3125 L261.5,145.5927 L271.7353,144.7601 L281.9706,145.5702 L292.2059,145.8454 L302.4412,144.3613 L312.6765,145.2089 L322.9118,144.7438 L333.1471,144.8012 L343.3824,145.2216 L353.6176,144.3907 L363.8529,146.0507 L374.0882,144.4721 L384.3235,145.0488 L394.5588,145.8884 L404.7941,145.1981 L415.0294,145.4035 L425.2647,145.2699 L435.5,145.3125 " fill="none" style="stroke:#181818;stroke-width:1.0;"/><text fill="#000000" font-family="FG Virgil" font-size="13" lengthAdjust="spacing" textLength="72" x="268.5" y="140.4561">create(sock)</text><polygon fill="#181818" points="798.5,171.6641,798.526,171.7291,800.4487,172.3358,802.5239,173.3239,804.5495,174.1878,806.4117,174.6433,808.5,175.6641,808.4904,175.64,806.4472,176.3321,804.4525,177.1454,802.4916,178.043,800.4144,178.6501,798.5,179.6641,798.6305,179.7946,799.1514,178.7155,800.0534,178.0174,801.0018,177.3659,801.6798,176.4438,802.5,175.6641,802.5161,175.6801,801.6925,174.8565,800.9421,174.1061,800.1564,173.3204,799.438,172.6021,798.5,171.6641" style="stroke:#181818;stroke-width:1.0;"/><path d="M446.5,175.6641 L446.5,175.9443 L456.4444,175.1116 L466.3889,175.9218 L476.3333,176.197 L486.2778,174.7129 L496.2222,175.5604 L506.1667,175.0954 L516.1111,175.1527 L526.0556,175.5732 L536,174.7422 L545.9444,176.4023 L555.8889,174.8237 L565.8333,175.4004 L575.7778,176.24 L585.7222,175.5497 L595.6667,175.755 L605.6111,175.6215 L615.5556,175.9021 L625.5,175.9829 L635.4444,176.445 L645.3889,176.5588 L655.3333,176.5697 L665.2778,176.0036 L675.2222,176.2822 L685.1667,176.6004 L695.1111,174.7025 L705.0556,176.5687 L715,175.2687 L724.9444,176.3758 L734.8889,175.004 L744.8333,175.5727 L754.7778,176.6529 L764.7222,175.5991 L774.6667,175.8045 L784.6111,176.1156 L794.5556,176.219 L804.5,175.6641 " fill="none" style="stroke:#181818;stroke-width:1.0;"/><text fill="#000000" font-family="FG Virgil" font-size="13" lengthAdjust="spacing" textLength="72" x="453.5" y="170.8076">create(sock)</text><polygon fill="#181818" points="424.5,202.0156,424.526,202.0807,426.4487,202.6874,428.5239,203.6754,430.5495,204.5393,432.4117,204.9948,434.5,206.0156,434.4904,205.9916,432.4472,206.6836,430.4525,207.4969,428.4916,208.3945,426.4144,209.0017,424.5,210.0156,424.6305,210.1461,425.1514,209.0671,426.0534,208.369,427.0018,207.7174,427.6798,206.7954,428.5,206.0156,428.5161,206.0317,427.6925,205.2081,426.9421,204.4577,426.1564,203.672,425.438,202.9537,424.5,202.0156" style="stroke:#181818;stroke-width:1.0;"/><path d="M261.5,206.0156 L261.5,206.2959 L271.4412,205.4632 L281.3824,206.2733 L291.3235,206.5485 L301.2647,205.0644 L311.2059,205.912 L321.1471,205.447 L331.0882,205.5043 L341.0294,205.9247 L350.9706,205.0938 L360.9118,206.7538 L370.8529,205.1753 L380.7941,205.7519 L390.7353,206.5916 L400.6765,205.9013 L410.6176,206.1066 L420.5588,205.973 L430.5,206.0156 " fill="none" style="stroke:#181818;stroke-width:1.0;"/><text fill="#000000" font-family="FG Virgil" font-size="13" lengthAdjust="spacing" textLength="151" x="268.5" y="201.1592">sendCommunicationTest()</text><polygon fill="#181818" points="798.5,232.3672,798.526,232.4322,800.4487,233.039,802.5239,234.027,804.5495,234.8909,806.4117,235.3464,808.5,236.3672,808.4904,236.3431,806.4472,237.0352,804.4525,237.8485,802.4916,238.7461,800.4144,239.3532,798.5,240.3672,798.6305,240.4977,799.1514,239.4186,800.0534,238.7206,801.0018,238.069,801.6798,237.147,802.5,236.3672,802.5161,236.3833,801.6925,235.5597,800.9421,234.8093,800.1564,234.0236,799.438,233.3052,798.5,232.3672" style="stroke:#181818;stroke-width:1.0;"/><path d="M446.5,236.3672 L446.5,236.6474 L456.4444,235.8148 L466.3889,236.6249 L476.3333,236.9001 L486.2778,235.416 L496.2222,236.2636 L506.1667,235.7985 L516.1111,235.8559 L526.0556,236.2763 L536,235.4454 L545.9444,237.1054 L555.8889,235.5268 L565.8333,236.1035 L575.7778,236.9431 L585.7222,236.2528 L595.6667,236.4582 L605.6111,236.3246 L615.5556,236.6052 L625.5,236.686 L635.4444,237.1481 L645.3889,237.2619 L655.3333,237.2729 L665.2778,236.7067 L675.2222,236.9853 L685.1667,237.3035 L695.1111,235.4056 L705.0556,237.2719 L715,235.9718 L724.9444,237.0789 L734.8889,235.7072 L744.8333,236.2759 L754.7778,237.356 L764.7222,236.3022 L774.6667,236.5076 L784.6111,236.8187 L794.5556,236.9222 L804.5,236.3672 " fill="none" style="stroke:#181818;stroke-width:1.0;"/><text fill="#000000" font-family="FG Virgil" font-size="13" lengthAdjust="spacing" textLength="340" x="453.5" y="231.5107">sendMessage(VERSION, MessageCodes.COMMTEST, "")</text><polygon fill="#181818" points="793.5,262.7188,793.526,262.7838,795.4487,263.3905,797.5239,264.3786,799.5495,265.2424,801.4117,265.698,803.5,266.7188,803.4904,266.6947,801.4472,267.3868,799.4525,268.2001,797.4916,269.0977,795.4144,269.7048,793.5,270.7188,793.6305,270.8492,794.1514,269.7702,795.0534,269.0721,796.0018,268.4206,796.6798,267.4985,797.5,266.7188,797.5161,266.7348,796.6925,265.9112,795.9421,265.1608,795.1564,264.3751,794.438,263.6568,793.5,262.7188" style="stroke:#181818;stroke-width:1.0;"/><path d="M446.5,266.7188 L446.5,266.999 L456.5857,266.1663 L466.6714,266.9765 L476.7571,267.2517 L486.8429,265.7676 L496.9286,266.6151 L507.0143,266.1501 L517.1,266.2074 L527.1857,266.6279 L537.2714,265.7969 L547.3571,267.4569 L557.4429,265.8784 L567.5286,266.4551 L577.6143,267.2947 L587.7,266.6044 L597.7857,266.8097 L607.8714,266.6762 L617.9571,266.9568 L628.0429,267.0376 L638.1286,267.4997 L648.2143,267.6135 L658.3,267.6244 L668.3857,267.0583 L678.4714,267.3369 L688.5571,267.6551 L698.6429,265.7572 L708.7286,267.6234 L718.8143,266.3234 L728.9,267.4305 L738.9857,266.0587 L749.0714,266.6274 L759.1571,267.7076 L769.2429,266.6538 L779.3286,266.8592 L789.4143,267.1703 L799.5,266.7188 " fill="none" style="stroke:#181818;stroke-width:1.0;"/><text fill="#000000" font-family="FG Virgil" font-size="13" lengthAdjust="spacing" textLength="86" x="453.5" y="261.8623">readMessage()</text><polygon fill="#181818" points="457.5,293.0703,457.526,293.1354,455.4487,293.7421,453.5239,294.7301,451.5495,295.594,449.4117,296.0495,447.5,297.0703,447.4904,297.0463,449.4472,297.7383,451.4525,298.5516,453.4916,299.4492,455.4144,300.0563,457.5,301.0703,457.6305,301.2008,456.5514,300.1218,455.8534,299.4237,455.2018,298.7721,454.2798,297.8501,453.5,297.0703,453.5161,297.0864,454.2925,296.2628,455.1421,295.5124,455.9564,294.7267,456.838,294.0084,457.5,293.0703" style="stroke:#181818;stroke-width:1.0;"/><path d="M451.5,297.0703 L451.5,297.3506 L461.4444,296.5179 L471.3889,297.328 L481.3333,297.6032 L491.2778,296.1191 L501.2222,296.9667 L511.1667,296.5017 L521.1111,296.559 L531.0556,296.9794 L541,296.1485 L550.9444,297.8085 L560.8889,296.2299 L570.8333,296.8066 L580.7778,297.6462 L590.7222,296.9559 L600.6667,297.1613 L610.6111,297.0277 L620.5556,297.3083 L630.5,297.3892 L640.4444,297.8512 L650.3889,297.9651 L660.3333,297.976 L670.2778,297.4098 L680.2222,297.6884 L690.1667,298.0066 L700.1111,296.1087 L710.0556,297.975 L720,296.675 L729.9444,297.7821 L739.8889,296.4103 L749.8333,296.979 L759.7778,298.0591 L769.7222,297.0053 L779.6667,297.2107 L789.6111,297.5218 L799.5556,297.6253 L809.5,297.0703 " fill="none" style="stroke:#181818;stroke-width:1.0;"/><text fill="#000000" font-family="FG Virgil" font-size="13" lengthAdjust="spacing" textLength="32" x="463.5" y="292.2139">result</text><polygon fill="#181818" points="272.5,323.4219,272.526,323.4869,270.4487,324.0936,268.5239,325.0817,266.5495,325.9456,264.4117,326.4011,262.5,327.4219,262.4904,327.3978,264.4472,328.0899,266.4525,328.9032,268.4916,329.8008,270.4144,330.4079,272.5,331.4219,272.6305,331.5524,271.5514,330.4733,270.8534,329.7753,270.2018,329.1237,269.2798,328.2017,268.5,327.4219,268.5161,327.438,269.2925,326.6143,270.1421,325.864,270.9564,325.0782,271.838,324.3599,272.5,323.4219" style="stroke:#181818;stroke-width:1.0;"/><path d="M266.5,327.4219 L266.5,327.7021 L276.7353,326.8694 L286.9706,327.6796 L297.2059,327.9548 L307.4412,326.4707 L317.6765,327.3183 L327.9118,326.8532 L338.1471,326.9105 L348.3824,327.331 L358.6176,326.5 L368.8529,328.1601 L379.0882,326.5815 L389.3235,327.1582 L399.5588,327.9978 L409.7941,327.3075 L420.0294,327.5129 L430.2647,327.3793 L440.5,327.4219 " fill="none" style="stroke:#181818;stroke-width:1.0;"/><text fill="#000000" font-family="FG Virgil" font-size="13" lengthAdjust="spacing" textLength="32" x="278.5" y="322.5654">result</text><polygon fill="#181818" points="33.5,353.7734,33.526,353.8385,31.4487,354.4452,29.5239,355.4333,27.5495,356.2971,25.4117,356.7526,23.5,357.7734,23.4904,357.7494,25.4472,358.4414,27.4525,359.2547,29.4916,360.1523,31.4144,360.7595,33.5,361.7734,33.6305,361.9039,32.5514,360.8249,31.8534,360.1268,31.2018,359.4752,30.2798,358.5532,29.5,357.7734,29.5161,357.7895,30.2925,356.9659,31.1421,356.2155,31.9564,355.4298,32.838,354.7115,33.5,353.7734" style="stroke:#181818;stroke-width:1.0;"/><path d="M27.5,357.7734 L27.5,358.0537 L37.413,357.221 L47.3261,358.0312 L57.2391,358.3063 L67.1522,356.8222 L77.0652,357.6698 L86.9783,357.2048 L96.8913,357.2621 L106.8043,357.6826 L116.7174,356.8516 L126.6304,358.5116 L136.5435,356.9331 L146.4565,357.5097 L156.3696,358.3494 L166.2826,357.6591 L176.1957,357.8644 L186.1087,357.7308 L196.0217,358.0115 L205.9348,358.0923 L215.8478,358.5544 L225.7609,358.6682 L235.6739,358.6791 L245.587,358.1129 L255.5,357.7734 " fill="none" style="stroke:#181818;stroke-width:1.0;stroke-dasharray:2.0,2.0;"/><text fill="#000000" font-family="FG Virgil" font-size="13" lengthAdjust="spacing" textLength="205" x="39.5" y="352.917">displayCommunicationSuccessfully</text><!--MD5=[a5ec08ec4d7acb496ce88afbf741116e]
@startuml
'http://plantuml.com/skinparam.html
skinparam handwritten true
skinparam monochrome true
skinparam packageStyle rect
skinparam defaultFontName FG Virgil
skinparam shadowing false

actor User as Actor
participant MainMenuUI as UI <<presentation>>
participant SharedBoardAppController as Controller <<application>>
participant MessageFormat as MF <<util>>

Actor - -> UI: Communication test
activate UI
    UI -> Controller: create(sock)

    Controller -> MF: create(sock)
    activate Controller
    UI -> Controller: sendCommunicationTest()

    Controller -> MF: sendMessage(VERSION, MessageCodes.COMMTEST, "")

    Controller -> MF: readMessage()
    activate MF
    MF -> Controller: result
    deactivate MF

    Controller -> UI: result
    deactivate Controller



    UI - -> Actor: displayCommunicationSuccessfully

deactivate UI
@enduml

@startuml
skinparam handwritten true
skinparam monochrome true
skinparam packageStyle rect
skinparam defaultFontName FG Virgil
skinparam shadowing false

actor User as Actor
participant MainMenuUI as UI <<presentation>>
participant SharedBoardAppController as Controller <<application>>
participant MessageFormat as MF <<util>>

Actor - -> UI: Communication test
activate UI
    UI -> Controller: create(sock)

    Controller -> MF: create(sock)
    activate Controller
    UI -> Controller: sendCommunicationTest()

    Controller -> MF: sendMessage(VERSION, MessageCodes.COMMTEST, "")

    Controller -> MF: readMessage()
    activate MF
    MF -> Controller: result
    deactivate MF

    Controller -> UI: result
    deactivate Controller



    UI - -> Actor: displayCommunicationSuccessfully

deactivate UI
@enduml

PlantUML version 1.2022.7(Mon Aug 22 18:01:30 BST 2022)
(GPL source distribution)
Java Runtime: Java(TM) SE Runtime Environment
JVM: Java HotSpot(TM) 64-Bit Server VM
Default Encoding: Cp1252
Language: pt
Country: PT
--></g></svg>