<?xml version="1.0" encoding="UTF-8" standalone="no"?><svg xmlns="http://www.w3.org/2000/svg" xmlns:xlink="http://www.w3.org/1999/xlink" contentStyleType="text/css" height="457px" preserveAspectRatio="none" style="width:824px;height:457px;background:#FFFFFF;" version="1.1" viewBox="0 0 824 457" width="824px" zoomAndPan="magnify"><defs/><g><polygon fill="#FFFFFF" points="244.5,114.9609,244.5,115.031,246.5,114.8228,248.5,115.0254,250.5,115.0942,252.5,114.7231,254.5,114.9609,254.4223,114.9609,254.0735,125.0781,254.1165,135.1953,254.4318,145.3125,253.8086,155.4297,255.0536,165.5469,253.8697,175.6641,254.3022,185.7813,254.9319,195.8984,254.4142,206.0156,254.5682,216.1328,254.4681,226.25,254.6785,236.3672,254.7391,246.4844,255.0857,256.6016,255.1711,266.7188,255.1793,276.8359,254.7546,286.9531,254.9636,297.0703,255.2022,307.1875,253.7788,317.3047,255.1785,327.4219,254.2035,337.5391,255.0338,347.6563,254.5,357.7734,254.5,357.6084,252.5,357.7506,250.5,358.0206,248.5,357.7572,246.5,357.8085,244.5,357.7734,244.8386,357.7734,244.9162,347.6563,244.4961,337.5391,244.7872,327.4219,243.9276,317.3047,244.7844,307.1875,245.0482,297.0703,244.9445,286.9531,245.113,276.8359,244.0169,266.7188,243.8478,256.6016,243.8786,246.4844,244.4411,236.3672,244.3035,226.25,245.1814,216.1328,244.3253,206.0156,244.1569,195.8984,244.7283,185.7813,243.8332,175.6641,243.9809,165.5469,245.149,155.4297,244.9357,145.3125,245.2345,135.1953,244.1782,125.0781,244.5,114.9609" style="stroke:#181818;stroke-width:1.0;"/><polygon fill="#FFFFFF" points="401.5,175.6641,401.5,175.7341,403.5,175.526,405.5,175.7285,407.5,175.7973,409.5,175.4263,411.5,175.6641,411.4223,175.6641,411.0735,185.7813,411.1165,195.8984,411.4318,206.0156,410.8086,216.1328,412.0536,226.25,410.8697,236.3672,411.3022,246.4844,411.9319,256.6016,411.4142,266.7188,411.5682,276.8359,411.4681,286.9531,411.6785,297.0703,411.7391,307.1875,412.0857,317.3047,411.5,327.4219,411.5,327.6456,409.5,327.6483,407.5,327.5068,405.5,327.5764,403.5,327.656,401.5,327.4219,400.7788,327.4219,402.1785,317.3047,401.2035,307.1875,402.0338,297.0703,401.005,286.9531,401.4315,276.8359,402.2416,266.7188,401.4513,256.6016,401.6053,246.4844,401.8386,236.3672,401.9162,226.25,401.4961,216.1328,401.7872,206.0156,400.9276,195.8984,401.7844,185.7813,401.5,175.6641" style="stroke:#181818;stroke-width:1.0;"/><polygon fill="#FFFFFF" points="755.5,266.7188,755.5,266.7888,757.5,266.5806,759.5,266.7832,761.5,266.852,763.5,266.481,765.5,266.7188,765.4741,266.7188,765.3578,272.7891,765.3722,278.8594,765.4773,284.9297,765.2695,291,765.5,297.0703,765.5,297.2549,763.5,296.8602,761.5,297.0044,759.5,297.2143,757.5,297.0417,755.5,297.0703,755.5227,297.0703,755.4894,291,755.5595,284.9297,755.5797,278.8594,755.6952,272.7891,755.5,266.7188" style="stroke:#181818;stroke-width:1.0;"/><path d="M22,82.6094 L22.2802,82.6094 L21.4476,92.7185 L22.2577,102.8276 L22.5329,112.9367 L21.0488,123.0458 L21.8964,133.1549 L21.4313,143.264 L21.4887,153.3731 L21.9091,163.4822 L21.0782,173.5913 L22.7382,183.7004 L21.1596,193.8095 L21.7363,203.9186 L22.5759,214.0277 L21.8856,224.1369 L22.091,234.246 L21.9574,244.3551 L22.238,254.4642 L22.3188,264.5733 L22.7809,274.6824 L22.8947,284.7915 L22.9057,294.9006 L22.3395,305.0097 L22.6181,315.1188 L22.9363,325.2279 L21.0384,335.337 L22.9047,345.4461 L21.6047,355.5552 L22.7117,365.6643 L22,375.7734 " fill="none" style="stroke:#181818;stroke-width:0.5;stroke-dasharray:5.0,5.0;"/><path d="M249,82.6094 L249.2802,82.6094 L248.4476,92.7185 L249.2577,102.8276 L249.5329,112.9367 L248.0488,123.0458 L248.8964,133.1549 L248.4313,143.264 L248.4887,153.3731 L248.9091,163.4822 L248.0782,173.5913 L249.7382,183.7004 L248.1596,193.8095 L248.7363,203.9186 L249.5759,214.0277 L248.8856,224.1369 L249.091,234.246 L248.9574,244.3551 L249.238,254.4642 L249.3188,264.5733 L249.7809,274.6824 L249.8947,284.7915 L249.9057,294.9006 L249.3395,305.0097 L249.6181,315.1188 L249.9363,325.2279 L248.0384,335.337 L249.9047,345.4461 L248.6047,355.5552 L249.7117,365.6643 L249,375.7734 " fill="none" style="stroke:#181818;stroke-width:0.5;stroke-dasharray:5.0,5.0;"/><path d="M406,82.6094 L406.2802,82.6094 L405.4476,92.7185 L406.2577,102.8276 L406.5329,112.9367 L405.0488,123.0458 L405.8964,133.1549 L405.4313,143.264 L405.4887,153.3731 L405.9091,163.4822 L405.0782,173.5913 L406.7382,183.7004 L405.1596,193.8095 L405.7363,203.9186 L406.5759,214.0277 L405.8856,224.1369 L406.091,234.246 L405.9574,244.3551 L406.238,254.4642 L406.3188,264.5733 L406.7809,274.6824 L406.8947,284.7915 L406.9057,294.9006 L406.3395,305.0097 L406.6181,315.1188 L406.9363,325.2279 L405.0384,335.337 L406.9047,345.4461 L405.6047,355.5552 L406.7117,365.6643 L406,375.7734 " fill="none" style="stroke:#181818;stroke-width:0.5;stroke-dasharray:5.0,5.0;"/><path d="M760.5,82.6094 L760.7802,82.6094 L759.9476,92.7185 L760.7577,102.8276 L761.0329,112.9367 L759.5488,123.0458 L760.3964,133.1549 L759.9313,143.264 L759.9887,153.3731 L760.4091,163.4822 L759.5782,173.5913 L761.2382,183.7004 L759.6596,193.8095 L760.2363,203.9186 L761.0759,214.0277 L760.3856,224.1369 L760.591,234.246 L760.4574,244.3551 L760.738,254.4642 L760.8188,264.5733 L761.2809,274.6824 L761.3947,284.7915 L761.4057,294.9006 L760.8395,305.0097 L761.1181,315.1188 L761.4363,325.2279 L759.5384,335.337 L761.4047,345.4461 L760.1047,355.5552 L761.2117,365.6643 L760.5,375.7734 " fill="none" style="stroke:#181818;stroke-width:0.5;stroke-dasharray:5.0,5.0;"/><text fill="#000000" font-family="FG Virgil" font-size="14" lengthAdjust="spacing" textLength="29" x="5" y="79.5332">User</text><polygon fill="#E3E3E3" points="30.5442,15.4459,29.3715,17.0482,27.9845,19.3951,26.0008,20.9767,23.9163,21.8415,22.2542,21.9166,20.118,20.8349,18.1023,20.1283,16.5724,18.6936,15.7699,17.0511,15.2939,15.7433,14.8277,14.0351,14.0709,12.5651,14.6525,11.1298,15.162,9.5576,17.074,8.3142,18.4192,6.7008,20.0843,6.165,22.0637,5.7037,24.6021,5.9778,25.9924,6.6335,27.6089,6.9307,29.5743,8.9443,30.2595,11.0701,30.5571,12.5206,30.22,14.9108" style="stroke:#181818;stroke-width:0.5;"/><path d="M22.5,21.5 L22.6868,21.5 L22.1317,26.9 L22.6718,32.3 L22.8553,37.7 L21.8659,43.1 L22.5,48.5 M9.5,29.5 L9.5,29.4309 L14.7,29.1209 L19.9,29.1591 L25.1,29.4394 L30.3,28.8854 L35.5,29.5 M22.5,48.5 L22.8719,48.8223 L19.4766,51.1331 L17.1672,54.3849 L14.9901,57.7515 L12.0424,60.4501 L9.5,63.5 M22.5,48.5 L22.5458,48.5397 L25.0785,51.4814 L27.8199,54.6039 L30.4606,57.6392 L33.2934,60.841 L35.5,63.5 " fill="none" style="stroke:#181818;stroke-width:0.5;"/><text fill="#000000" font-family="FG Virgil" font-size="14" lengthAdjust="spacing" textLength="29" x="5" y="389.3066">User</text><polygon fill="#E3E3E3" points="30.5442,402.8287,29.3715,404.431,27.9845,406.7779,26.0008,408.3595,23.9163,409.2243,22.2542,409.2994,20.118,408.2178,18.1023,407.5111,16.5724,406.0764,15.7699,404.4339,15.2939,403.1261,14.8277,401.4179,14.0709,399.9479,14.6525,398.5126,15.162,396.9404,17.074,395.697,18.4192,394.0836,20.0843,393.5479,22.0637,393.0865,24.6021,393.3606,25.9924,394.0163,27.6089,394.3135,29.5743,396.3272,30.2595,398.453,30.5571,399.9034,30.22,402.2936" style="stroke:#181818;stroke-width:0.5;"/><path d="M22.5,408.8828 L22.6868,408.8828 L22.1317,414.2828 L22.6718,419.6828 L22.8553,425.0828 L21.8659,430.4828 L22.5,435.8828 M9.5,416.8828 L9.5,416.8137 L14.7,416.5037 L19.9,416.5419 L25.1,416.8222 L30.3,416.2683 L35.5,416.8828 M22.5,435.8828 L22.8719,436.2051 L19.4766,438.5159 L17.1672,441.7677 L14.9901,445.1343 L12.0424,447.8329 L9.5,450.8828 M22.5,435.8828 L22.5458,435.9225 L25.0785,438.8642 L27.8199,441.9867 L30.4606,445.022 L33.2934,448.2238 L35.5,450.8828 " fill="none" style="stroke:#181818;stroke-width:0.5;"/><polygon fill="#E3E3E3" points="197.5,32.3906,197.5,32.6008,207.9,31.9763,218.3,32.5839,228.7,32.7903,239.1,31.6772,249.5,32.3129,259.9,31.9641,270.3,32.0071,280.7,32.3225,291.1,31.6993,301.5,32.3906,301.5706,32.5611,301.7732,32.343,302.1819,32.6226,302.6158,32.963,302.9033,32.95,303.2678,33.1229,303.2888,33.1316,303.4044,33.4723,303.6156,33.8527,303.7808,34.214,304.0339,34.6118,304,34.8906,304.2237,34.8906,304.2264,43.7344,304.0849,52.5781,304.1545,61.4219,304.2341,70.2656,304,79.1094,303.7779,79.0174,304.0625,79.5495,303.6158,79.7787,303.7251,80.2381,303.2618,80.4604,303.2678,80.8771,303.259,80.856,303.0088,81.252,302.5544,81.155,302.2205,81.3489,301.8967,81.5672,301.5,81.6094,301.5,82.0256,291.1,81.6055,280.7,81.8966,270.3,81.037,259.9,81.8938,249.5,82.1576,239.1,82.0539,228.7,82.2224,218.3,81.1263,207.9,80.9572,197.5,81.6094,197.4207,81.418,197.1389,81.4448,196.7678,81.256,196.5263,81.3799,196.0635,80.9698,195.7322,80.8771,195.6266,80.8334,195.6561,80.5527,195.234,80.085,195.133,79.7503,195.3463,79.5457,195,79.1094,195.1452,79.1094,195.2448,70.2656,194.8927,61.4219,195.1064,52.5781,195.1968,43.7344,195,34.8906,194.8545,34.8304,195.1169,34.5248,195.3317,34.1996,195.6401,33.9131,195.5845,33.4759,195.7322,33.1229,195.7912,33.2653,196.0151,32.8059,196.3529,32.6214,196.8571,32.8386,197.055,32.3163,197.5,32.3906" style="stroke:#181818;stroke-width:0.5;"/><text fill="#000000" font-family="FG Virgil" font-size="14" font-style="italic" lengthAdjust="spacing" textLength="95" x="202" y="53.9238">«presentation»</text><text fill="#000000" font-family="FG Virgil" font-size="14" lengthAdjust="spacing" textLength="77" x="211" y="71.5332">MainMenuUI</text><polygon fill="#E3E3E3" points="197.5,374.7734,197.5,374.9836,207.9,374.3591,218.3,374.9667,228.7,375.1731,239.1,374.06,249.5,374.6957,259.9,374.3469,270.3,374.3899,280.7,374.7053,291.1,374.0821,301.5,374.7734,301.5706,374.9439,301.7732,374.7258,302.1819,375.0054,302.6158,375.3458,302.9033,375.3328,303.2678,375.5057,303.2888,375.5144,303.4044,375.8551,303.6156,376.2356,303.7808,376.5968,304.0339,376.9946,304,377.2734,304.2237,377.2734,304.2264,386.1172,304.0849,394.9609,304.1545,403.8047,304.2341,412.6484,304,421.4922,303.7779,421.4002,304.0625,421.9323,303.6158,422.1615,303.7251,422.6209,303.2618,422.8433,303.2678,423.26,303.259,423.2389,303.0088,423.6348,302.5544,423.5378,302.2205,423.7317,301.8967,423.95,301.5,423.9922,301.5,424.4084,291.1,423.9883,280.7,424.2794,270.3,423.4198,259.9,424.2766,249.5,424.5404,239.1,424.4367,228.7,424.6052,218.3,423.5091,207.9,423.34,197.5,423.9922,197.4207,423.8008,197.1389,423.8276,196.7678,423.6388,196.5263,423.7627,196.0635,423.3526,195.7322,423.26,195.6266,423.2162,195.6561,422.9355,195.234,422.4678,195.133,422.1331,195.3463,421.9285,195,421.4922,195.1452,421.4922,195.2448,412.6484,194.8927,403.8047,195.1064,394.9609,195.1968,386.1172,195,377.2734,194.8545,377.2132,195.1169,376.9077,195.3317,376.5824,195.6401,376.2959,195.5845,375.8587,195.7322,375.5057,195.7912,375.6481,196.0151,375.1887,196.3529,375.0042,196.8571,375.2214,197.055,374.6991,197.5,374.7734" style="stroke:#181818;stroke-width:0.5;"/><text fill="#000000" font-family="FG Virgil" font-size="14" font-style="italic" lengthAdjust="spacing" textLength="95" x="202" y="396.3066">«presentation»</text><text fill="#000000" font-family="FG Virgil" font-size="14" lengthAdjust="spacing" textLength="77" x="211" y="413.916">MainMenuUI</text><polygon fill="#E3E3E3" points="316.5,32.3906,316.5,32.6008,326.5,31.9763,336.5,32.5839,346.5,32.7903,356.5,31.6772,366.5,32.3129,376.5,31.9641,386.5,32.0071,396.5,32.3225,406.5,31.6993,416.5,32.9443,426.5,31.7603,436.5,32.1929,446.5,32.8226,456.5,32.3048,466.5,32.4589,476.5,32.3587,486.5,32.5692,496.5,32.3906,496.5305,32.4643,496.9283,32.7174,497.2927,32.8902,497.6473,33.0391,497.9467,33.0548,498.2678,33.1229,498.4105,33.182,498.6305,33.566,498.3386,33.738,498.9161,34.2701,498.7622,34.4992,499,34.8906,499.1779,34.8906,498.835,43.7344,498.9772,52.5781,499.2472,61.4219,498.9838,70.2656,499,79.1094,499.0324,79.1228,498.9578,79.5061,498.8353,79.8696,498.5595,80.1695,498.5027,80.5602,498.2678,80.8771,498.1947,80.7009,497.9505,81.1112,497.6306,81.3389,497.2638,81.4534,496.9318,81.6517,496.5,81.6094,496.5,81.1263,486.5,80.9572,476.5,80.988,466.5,81.5505,456.5,81.4128,446.5,82.2908,436.5,81.4347,426.5,81.2663,416.5,81.8376,406.5,80.9425,396.5,81.0902,386.5,82.2583,376.5,82.045,366.5,82.3439,356.5,81.2876,346.5,81.9286,336.5,82.1998,326.5,81.137,316.5,81.6094,316.4878,81.5799,316.1625,81.5017,315.876,81.5172,315.4388,81.1687,315.1448,81.166,314.7322,80.8771,314.5617,80.8065,314.3772,80.4372,314.5944,80.2343,314.0721,79.725,314.3032,79.5279,314,79.1094,314.0689,79.1094,313.9107,70.2656,313.8821,61.4219,314.1529,52.5781,313.9002,43.7344,314,34.8906,314.1823,34.9661,313.9762,34.4666,314.483,34.2623,314.5885,33.8917,314.6612,33.5077,314.7322,33.1229,314.7383,33.1374,315.1785,33.2002,315.5176,33.0189,315.8145,32.7356,316.1807,32.6197,316.5,32.3906" style="stroke:#181818;stroke-width:0.5;"/><text fill="#000000" font-family="FG Virgil" font-size="14" font-style="italic" lengthAdjust="spacing" textLength="84" x="364.5" y="53.9238">«application»</text><text fill="#000000" font-family="FG Virgil" font-size="14" lengthAdjust="spacing" textLength="171" x="321" y="71.5332">SharedBoardAppController</text><polygon fill="#E3E3E3" points="316.5,374.7734,316.5,374.9836,326.5,374.3591,336.5,374.9667,346.5,375.1731,356.5,374.06,366.5,374.6957,376.5,374.3469,386.5,374.3899,396.5,374.7053,406.5,374.0821,416.5,375.3271,426.5,374.1432,436.5,374.5757,446.5,375.2054,456.5,374.6877,466.5,374.8417,476.5,374.7415,486.5,374.952,496.5,374.7734,496.5305,374.8471,496.9283,375.1003,497.2927,375.273,497.6473,375.422,497.9467,375.4376,498.2678,375.5057,498.4105,375.5648,498.6305,375.9488,498.3386,376.1208,498.9161,376.6529,498.7622,376.8821,499,377.2734,499.1779,377.2734,498.835,386.1172,498.9772,394.9609,499.2472,403.8047,498.9838,412.6484,499,421.4922,499.0324,421.5056,498.9578,421.8889,498.8353,422.2524,498.5595,422.5523,498.5027,422.943,498.2678,423.26,498.1947,423.0837,497.9505,423.494,497.6306,423.7217,497.2638,423.8362,496.9318,424.0345,496.5,423.9922,496.5,423.5091,486.5,423.34,476.5,423.3708,466.5,423.9333,456.5,423.7957,446.5,424.6736,436.5,423.8175,426.5,423.6491,416.5,424.2205,406.5,423.3253,396.5,423.4731,386.5,424.6411,376.5,424.4279,366.5,424.7267,356.5,423.6704,346.5,424.3114,336.5,424.5826,326.5,423.5198,316.5,423.9922,316.4878,423.9627,316.1625,423.8845,315.876,423.9,315.4388,423.5516,315.1448,423.5489,314.7322,423.26,314.5617,423.1893,314.3772,422.82,314.5944,422.6171,314.0721,422.1078,314.3032,421.9107,314,421.4922,314.0689,421.4922,313.9107,412.6484,313.8821,403.8047,314.1529,394.9609,313.9002,386.1172,314,377.2734,314.1823,377.3489,313.9762,376.8494,314.483,376.6451,314.5885,376.2746,314.6612,375.8905,314.7322,375.5057,314.7383,375.5202,315.1785,375.583,315.5176,375.4017,315.8145,375.1185,316.1807,375.0025,316.5,374.7734" style="stroke:#181818;stroke-width:0.5;"/><text fill="#000000" font-family="FG Virgil" font-size="14" font-style="italic" lengthAdjust="spacing" textLength="84" x="364.5" y="396.3066">«application»</text><text fill="#000000" font-family="FG Virgil" font-size="14" lengthAdjust="spacing" textLength="171" x="321" y="413.916">SharedBoardAppController</text><polygon fill="#E3E3E3" points="705,32.3906,705,32.6008,715.0909,31.9763,725.1818,32.5839,735.2727,32.7903,745.3636,31.6772,755.4545,32.3129,765.5455,31.9641,775.6364,32.0071,785.7273,32.3225,795.8182,31.6993,805.9091,32.9443,816,32.3906,815.9196,32.1965,816.3283,32.4762,816.7622,32.8165,817.0497,32.8035,817.4229,32.9974,817.7678,33.1229,817.7579,33.1188,817.9692,33.4992,818.1343,33.8605,818.3875,34.2582,818.5602,34.6227,818.5,34.8906,818.7264,34.8906,818.5849,43.7344,818.6545,52.5781,818.7341,61.4219,818.2596,70.2656,818.5,79.1094,818.709,79.1959,818.2622,79.4251,818.3715,79.8846,817.9082,80.1069,817.8931,80.5149,817.7678,80.8771,817.8624,81.1055,817.408,81.0086,817.0741,81.2025,816.7503,81.4208,816.4066,81.5911,816,81.6094,816,81.6055,805.9091,81.8966,795.8182,81.037,785.7273,81.8938,775.6364,82.1576,765.5455,82.0539,755.4545,82.2224,745.3636,81.1263,735.2727,80.9572,725.1818,80.988,715.0909,81.5505,705,81.6094,704.9749,81.5489,704.7334,81.6728,704.2706,81.2627,703.8956,81.0644,703.6149,81.0939,703.2322,80.8771,703.0269,80.7921,702.9259,80.4574,703.1392,80.2528,702.9271,79.8721,702.8726,79.5566,702.5,79.1094,702.3927,79.1094,702.6064,70.2656,702.6968,61.4219,702.3425,52.5781,702.468,43.7344,702.5,34.8906,702.5388,34.9067,702.8472,34.6202,702.7916,34.183,703.0818,33.889,702.9152,33.4058,703.2322,33.1229,703.1458,32.9143,703.65,33.1315,703.8479,32.6092,704.3578,32.8403,704.6728,32.6007,705,32.3906" style="stroke:#181818;stroke-width:0.5;"/><text fill="#000000" font-family="FG Virgil" font-size="14" font-style="italic" lengthAdjust="spacing" textLength="34" x="743.5" y="53.9238">«util»</text><text fill="#000000" font-family="FG Virgil" font-size="14" lengthAdjust="spacing" textLength="102" x="709.5" y="71.5332">MessageFormat</text><polygon fill="#E3E3E3" points="705,374.7734,705,374.9836,715.0909,374.3591,725.1818,374.9667,735.2727,375.1731,745.3636,374.06,755.4545,374.6957,765.5455,374.3469,775.6364,374.3899,785.7273,374.7053,795.8182,374.0821,805.9091,375.3271,816,374.7734,815.9196,374.5793,816.3283,374.859,816.7622,375.1994,817.0497,375.1864,817.4229,375.3802,817.7678,375.5057,817.7579,375.5016,817.9692,375.882,818.1343,376.2433,818.3875,376.641,818.5602,377.0055,818.5,377.2734,818.7264,377.2734,818.5849,386.1172,818.6545,394.9609,818.7341,403.8047,818.2596,412.6484,818.5,421.4922,818.709,421.5787,818.2622,421.8079,818.3715,422.2674,817.9082,422.4897,817.8931,422.8977,817.7678,423.26,817.8624,423.4883,817.408,423.3914,817.0741,423.5853,816.7503,423.8036,816.4066,423.9739,816,423.9922,816,423.9883,805.9091,424.2794,795.8182,423.4198,785.7273,424.2766,775.6364,424.5404,765.5455,424.4367,755.4545,424.6052,745.3636,423.5091,735.2727,423.34,725.1818,423.3708,715.0909,423.9333,705,423.9922,704.9749,423.9317,704.7334,424.0556,704.2706,423.6455,703.8956,423.4472,703.6149,423.4767,703.2322,423.26,703.0269,423.1749,702.9259,422.8402,703.1392,422.6356,702.9271,422.2549,702.8726,421.9394,702.5,421.4922,702.3927,421.4922,702.6064,412.6484,702.6968,403.8047,702.3425,394.9609,702.468,386.1172,702.5,377.2734,702.5388,377.2895,702.8472,377.003,702.7916,376.5658,703.0818,376.2718,702.9152,375.7886,703.2322,375.5057,703.1458,375.2971,703.65,375.5143,703.8479,374.992,704.3578,375.2231,704.6728,374.9835,705,374.7734" style="stroke:#181818;stroke-width:0.5;"/><text fill="#000000" font-family="FG Virgil" font-size="14" font-style="italic" lengthAdjust="spacing" textLength="34" x="743.5" y="396.3066">«util»</text><text fill="#000000" font-family="FG Virgil" font-size="14" lengthAdjust="spacing" textLength="102" x="709.5" y="413.916">MessageFormat</text><polygon fill="#FFFFFF" points="244.5,114.9609,244.5,115.031,246.5,114.8228,248.5,115.0254,250.5,115.0942,252.5,114.7231,254.5,114.9609,254.4223,114.9609,254.0735,125.0781,254.1165,135.1953,254.4318,145.3125,253.8086,155.4297,255.0536,165.5469,253.8697,175.6641,254.3022,185.7813,254.9319,195.8984,254.4142,206.0156,254.5682,216.1328,254.4681,226.25,254.6785,236.3672,254.7391,246.4844,255.0857,256.6016,255.1711,266.7188,255.1793,276.8359,254.7546,286.9531,254.9636,297.0703,255.2022,307.1875,253.7788,317.3047,255.1785,327.4219,254.2035,337.5391,255.0338,347.6563,254.5,357.7734,254.5,357.6084,252.5,357.7506,250.5,358.0206,248.5,357.7572,246.5,357.8085,244.5,357.7734,244.8386,357.7734,244.9162,347.6563,244.4961,337.5391,244.7872,327.4219,243.9276,317.3047,244.7844,307.1875,245.0482,297.0703,244.9445,286.9531,245.113,276.8359,244.0169,266.7188,243.8478,256.6016,243.8786,246.4844,244.4411,236.3672,244.3035,226.25,245.1814,216.1328,244.3253,206.0156,244.1569,195.8984,244.7283,185.7813,243.8332,175.6641,243.9809,165.5469,245.149,155.4297,244.9357,145.3125,245.2345,135.1953,244.1782,125.0781,244.5,114.9609" style="stroke:#181818;stroke-width:1.0;"/><polygon fill="#FFFFFF" points="401.5,175.6641,401.5,175.7341,403.5,175.526,405.5,175.7285,407.5,175.7973,409.5,175.4263,411.5,175.6641,411.4223,175.6641,411.0735,185.7813,411.1165,195.8984,411.4318,206.0156,410.8086,216.1328,412.0536,226.25,410.8697,236.3672,411.3022,246.4844,411.9319,256.6016,411.4142,266.7188,411.5682,276.8359,411.4681,286.9531,411.6785,297.0703,411.7391,307.1875,412.0857,317.3047,411.5,327.4219,411.5,327.6456,409.5,327.6483,407.5,327.5068,405.5,327.5764,403.5,327.656,401.5,327.4219,400.7788,327.4219,402.1785,317.3047,401.2035,307.1875,402.0338,297.0703,401.005,286.9531,401.4315,276.8359,402.2416,266.7188,401.4513,256.6016,401.6053,246.4844,401.8386,236.3672,401.9162,226.25,401.4961,216.1328,401.7872,206.0156,400.9276,195.8984,401.7844,185.7813,401.5,175.6641" style="stroke:#181818;stroke-width:1.0;"/><polygon fill="#FFFFFF" points="755.5,266.7188,755.5,266.7888,757.5,266.5806,759.5,266.7832,761.5,266.852,763.5,266.481,765.5,266.7188,765.4741,266.7188,765.3578,272.7891,765.3722,278.8594,765.4773,284.9297,765.2695,291,765.5,297.0703,765.5,297.2549,763.5,296.8602,761.5,297.0044,759.5,297.2143,757.5,297.0417,755.5,297.0703,755.5227,297.0703,755.4894,291,755.5595,284.9297,755.5797,278.8594,755.6952,272.7891,755.5,266.7188" style="stroke:#181818;stroke-width:1.0;"/><polygon fill="#181818" points="232.5,110.9609,232.526,111.026,234.4487,111.6327,236.5239,112.6208,238.5495,113.4846,240.4117,113.9401,242.5,114.9609,242.4904,114.9369,240.4472,115.6289,238.4525,116.4422,236.4916,117.3398,234.4144,117.947,232.5,118.9609,232.6305,119.0914,233.1514,118.0124,234.0534,117.3143,235.0018,116.6627,235.6798,115.7407,236.5,114.9609,236.5161,114.977,235.6925,114.1534,234.9421,113.403,234.1564,112.6173,233.438,111.899,232.5,110.9609" style="stroke:#181818;stroke-width:1.0;"/><path d="M22.5,114.9609 L22.5,115.2412 L32.3182,114.4085 L42.1364,115.2187 L51.9545,115.4938 L61.7727,114.0097 L71.5909,114.8573 L81.4091,114.3923 L91.2273,114.4496 L101.0455,114.8701 L110.8636,114.0391 L120.6818,115.6991 L130.5,114.1206 L140.3182,114.6972 L150.1364,115.5369 L159.9545,114.8466 L169.7727,115.0519 L179.5909,114.9183 L189.4091,115.199 L199.2273,115.2798 L209.0455,115.7419 L218.8636,115.8557 L228.6818,115.8666 L238.5,114.9609 " fill="none" style="stroke:#181818;stroke-width:1.0;stroke-dasharray:2.0,2.0;"/><text fill="#000000" font-family="FG Virgil" font-size="13" lengthAdjust="spacing" textLength="133" x="29.5" y="110.1045">End of session request</text><polygon fill="#181818" points="394.5,141.3125,394.526,141.3775,396.4487,141.9843,398.5239,142.9723,400.5495,143.8362,402.4117,144.2917,404.5,145.3125,404.4904,145.2884,402.4472,145.9805,400.4525,146.7938,398.4916,147.6914,396.4144,148.2985,394.5,149.3125,394.6305,149.443,395.1514,148.3639,396.0534,147.6659,397.0018,147.0143,397.6798,146.0923,398.5,145.3125,398.5161,145.3286,397.6925,144.505,396.9421,143.7546,396.1564,142.9689,395.438,142.2505,394.5,141.3125" style="stroke:#181818;stroke-width:1.0;"/><path d="M254.5,145.3125 L254.5,145.5927 L264.2333,144.7601 L273.9667,145.5702 L283.7,145.8454 L293.4333,144.3613 L303.1667,145.2089 L312.9,144.7438 L322.6333,144.8012 L332.3667,145.2216 L342.1,144.3907 L351.8333,146.0507 L361.5667,144.4721 L371.3,145.0488 L381.0333,145.8884 L390.7667,145.1981 L400.5,145.3125 " fill="none" style="stroke:#181818;stroke-width:1.0;"/><text fill="#000000" font-family="FG Virgil" font-size="13" lengthAdjust="spacing" textLength="72" x="261.5" y="140.4561">create(sock)</text><polygon fill="#181818" points="748.5,171.6641,748.526,171.7291,750.4487,172.3358,752.5239,173.3239,754.5495,174.1878,756.4117,174.6433,758.5,175.6641,758.4904,175.64,756.4472,176.3321,754.4525,177.1454,752.4916,178.043,750.4144,178.6501,748.5,179.6641,748.6305,179.7946,749.1514,178.7155,750.0534,178.0174,751.0018,177.3659,751.6798,176.4438,752.5,175.6641,752.5161,175.6801,751.6925,174.8565,750.9421,174.1061,750.1564,173.3204,749.438,172.6021,748.5,171.6641" style="stroke:#181818;stroke-width:1.0;"/><path d="M411.5,175.6641 L411.5,175.9443 L421.5882,175.1116 L431.6765,175.9218 L441.7647,176.197 L451.8529,174.7129 L461.9412,175.5604 L472.0294,175.0954 L482.1176,175.1527 L492.2059,175.5732 L502.2941,174.7422 L512.3824,176.4023 L522.4706,174.8237 L532.5588,175.4004 L542.6471,176.24 L552.7353,175.5497 L562.8235,175.755 L572.9118,175.6215 L583,175.9021 L593.0882,175.9829 L603.1765,176.445 L613.2647,176.5588 L623.3529,176.5697 L633.4412,176.0036 L643.5294,176.2822 L653.6176,176.6004 L663.7059,174.7025 L673.7941,176.5687 L683.8824,175.2687 L693.9706,176.3758 L704.0588,175.004 L714.1471,175.5727 L724.2353,176.6529 L734.3235,175.5991 L744.4118,175.8045 L754.5,175.6641 " fill="none" style="stroke:#181818;stroke-width:1.0;"/><text fill="#000000" font-family="FG Virgil" font-size="13" lengthAdjust="spacing" textLength="72" x="418.5" y="170.8076">create(sock)</text><polygon fill="#181818" points="389.5,202.0156,389.526,202.0807,391.4487,202.6874,393.5239,203.6754,395.5495,204.5393,397.4117,204.9948,399.5,206.0156,399.4904,205.9916,397.4472,206.6836,395.4525,207.4969,393.4916,208.3945,391.4144,209.0017,389.5,210.0156,389.6305,210.1461,390.1514,209.0671,391.0534,208.369,392.0018,207.7174,392.6798,206.7954,393.5,206.0156,393.5161,206.0317,392.6925,205.2081,391.9421,204.4577,391.1564,203.672,390.438,202.9537,389.5,202.0156" style="stroke:#181818;stroke-width:1.0;"/><path d="M254.5,206.0156 L254.5,206.2959 L264.5714,205.4632 L274.6429,206.2733 L284.7143,206.5485 L294.7857,205.0644 L304.8571,205.912 L314.9286,205.447 L325,205.5043 L335.0714,205.9247 L345.1429,205.0938 L355.2143,206.7538 L365.2857,205.1753 L375.3571,205.7519 L385.4286,206.5916 L395.5,206.0156 " fill="none" style="stroke:#181818;stroke-width:1.0;"/><text fill="#000000" font-family="FG Virgil" font-size="13" lengthAdjust="spacing" textLength="119" x="261.5" y="201.1592">sendEndOfSession()</text><polygon fill="#181818" points="748.5,232.3672,748.526,232.4322,750.4487,233.039,752.5239,234.027,754.5495,234.8909,756.4117,235.3464,758.5,236.3672,758.4904,236.3431,756.4472,237.0352,754.4525,237.8485,752.4916,238.7461,750.4144,239.3532,748.5,240.3672,748.6305,240.4977,749.1514,239.4186,750.0534,238.7206,751.0018,238.069,751.6798,237.147,752.5,236.3672,752.5161,236.3833,751.6925,235.5597,750.9421,234.8093,750.1564,234.0236,749.438,233.3052,748.5,232.3672" style="stroke:#181818;stroke-width:1.0;"/><path d="M411.5,236.3672 L411.5,236.6474 L421.5882,235.8148 L431.6765,236.6249 L441.7647,236.9001 L451.8529,235.416 L461.9412,236.2636 L472.0294,235.7985 L482.1176,235.8559 L492.2059,236.2763 L502.2941,235.4454 L512.3824,237.1054 L522.4706,235.5268 L532.5588,236.1035 L542.6471,236.9431 L552.7353,236.2528 L562.8235,236.4582 L572.9118,236.3246 L583,236.6052 L593.0882,236.686 L603.1765,237.1481 L613.2647,237.2619 L623.3529,237.2729 L633.4412,236.7067 L643.5294,236.9853 L653.6176,237.3035 L663.7059,235.4056 L673.7941,237.2719 L683.8824,235.9718 L693.9706,237.0789 L704.0588,235.7072 L714.1471,236.2759 L724.2353,237.356 L734.3235,236.3022 L744.4118,236.5076 L754.5,236.3672 " fill="none" style="stroke:#181818;stroke-width:1.0;"/><text fill="#000000" font-family="FG Virgil" font-size="13" lengthAdjust="spacing" textLength="325" x="418.5" y="231.5107">sendMessage(VERSION, MessageCodes.DISCONN, "")</text><polygon fill="#181818" points="743.5,262.7188,743.526,262.7838,745.4487,263.3905,747.5239,264.3786,749.5495,265.2424,751.4117,265.698,753.5,266.7188,753.4904,266.6947,751.4472,267.3868,749.4525,268.2001,747.4916,269.0977,745.4144,269.7048,743.5,270.7188,743.6305,270.8492,744.1514,269.7702,745.0534,269.0721,746.0018,268.4206,746.6798,267.4985,747.5,266.7188,747.5161,266.7348,746.6925,265.9112,745.9421,265.1608,745.1564,264.3751,744.438,263.6568,743.5,262.7188" style="stroke:#181818;stroke-width:1.0;"/><path d="M411.5,266.7188 L411.5,266.999 L421.4412,266.1663 L431.3824,266.9765 L441.3235,267.2517 L451.2647,265.7676 L461.2059,266.6151 L471.1471,266.1501 L481.0882,266.2074 L491.0294,266.6279 L500.9706,265.7969 L510.9118,267.4569 L520.8529,265.8784 L530.7941,266.4551 L540.7353,267.2947 L550.6765,266.6044 L560.6176,266.8097 L570.5588,266.6762 L580.5,266.9568 L590.4412,267.0376 L600.3824,267.4997 L610.3235,267.6135 L620.2647,267.6244 L630.2059,267.0583 L640.1471,267.3369 L650.0882,267.6551 L660.0294,265.7572 L669.9706,267.6234 L679.9118,266.3234 L689.8529,267.4305 L699.7941,266.0587 L709.7353,266.6274 L719.6765,267.7076 L729.6176,266.6538 L739.5588,266.8592 L749.5,266.7188 " fill="none" style="stroke:#181818;stroke-width:1.0;"/><text fill="#000000" font-family="FG Virgil" font-size="13" lengthAdjust="spacing" textLength="86" x="418.5" y="261.8623">readMessage()</text><polygon fill="#181818" points="422.5,293.0703,422.526,293.1354,420.4487,293.7421,418.5239,294.7301,416.5495,295.594,414.4117,296.0495,412.5,297.0703,412.4904,297.0463,414.4472,297.7383,416.4525,298.5516,418.4916,299.4492,420.4144,300.0563,422.5,301.0703,422.6305,301.2008,421.5514,300.1218,420.8534,299.4237,420.2018,298.7721,419.2798,297.8501,418.5,297.0703,418.5161,297.0864,419.2925,296.2628,420.1421,295.5124,420.9564,294.7267,421.838,294.0084,422.5,293.0703" style="stroke:#181818;stroke-width:1.0;"/><path d="M416.5,297.0703 L416.5,297.3506 L426.5882,296.5179 L436.6765,297.328 L446.7647,297.6032 L456.8529,296.1191 L466.9412,296.9667 L477.0294,296.5017 L487.1176,296.559 L497.2059,296.9794 L507.2941,296.1485 L517.3824,297.8085 L527.4706,296.2299 L537.5588,296.8066 L547.6471,297.6462 L557.7353,296.9559 L567.8235,297.1613 L577.9118,297.0277 L588,297.3083 L598.0882,297.3892 L608.1765,297.8512 L618.2647,297.9651 L628.3529,297.976 L638.4412,297.4098 L648.5294,297.6884 L658.6176,298.0066 L668.7059,296.1087 L678.7941,297.975 L688.8824,296.675 L698.9706,297.7821 L709.0588,296.4103 L719.1471,296.979 L729.2353,298.0591 L739.3235,297.0053 L749.4118,297.2107 L759.5,297.0703 " fill="none" style="stroke:#181818;stroke-width:1.0;"/><text fill="#000000" font-family="FG Virgil" font-size="13" lengthAdjust="spacing" textLength="32" x="428.5" y="292.2139">result</text><polygon fill="#181818" points="265.5,323.4219,265.526,323.4869,263.4487,324.0936,261.5239,325.0817,259.5495,325.9456,257.4117,326.4011,255.5,327.4219,255.4904,327.3978,257.4472,328.0899,259.4525,328.9032,261.4916,329.8008,263.4144,330.4079,265.5,331.4219,265.6305,331.5524,264.5514,330.4733,263.8534,329.7753,263.2018,329.1237,262.2798,328.2017,261.5,327.4219,261.5161,327.438,262.2925,326.6143,263.1421,325.864,263.9564,325.0782,264.838,324.3599,265.5,323.4219" style="stroke:#181818;stroke-width:1.0;"/><path d="M259.5,327.4219 L259.5,327.7021 L269.2333,326.8694 L278.9667,327.6796 L288.7,327.9548 L298.4333,326.4707 L308.1667,327.3183 L317.9,326.8532 L327.6333,326.9105 L337.3667,327.331 L347.1,326.5 L356.8333,328.1601 L366.5667,326.5815 L376.3,327.1582 L386.0333,327.9978 L395.7667,327.3075 L405.5,327.4219 " fill="none" style="stroke:#181818;stroke-width:1.0;"/><text fill="#000000" font-family="FG Virgil" font-size="13" lengthAdjust="spacing" textLength="32" x="271.5" y="322.5654">result</text><polygon fill="#181818" points="33.5,353.7734,33.526,353.8385,31.4487,354.4452,29.5239,355.4333,27.5495,356.2971,25.4117,356.7526,23.5,357.7734,23.4904,357.7494,25.4472,358.4414,27.4525,359.2547,29.4916,360.1523,31.4144,360.7595,33.5,361.7734,33.6305,361.9039,32.5514,360.8249,31.8534,360.1268,31.2018,359.4752,30.2798,358.5532,29.5,357.7734,29.5161,357.7895,30.2925,356.9659,31.1421,356.2155,31.9564,355.4298,32.838,354.7115,33.5,353.7734" style="stroke:#181818;stroke-width:1.0;"/><path d="M27.5,357.7734 L27.5,358.0537 L37.5455,357.221 L47.5909,358.0312 L57.6364,358.3063 L67.6818,356.8222 L77.7273,357.6698 L87.7727,357.2048 L97.8182,357.2621 L107.8636,357.6826 L117.9091,356.8516 L127.9545,358.5116 L138,356.9331 L148.0455,357.5097 L158.0909,358.3494 L168.1364,357.6591 L178.1818,357.8644 L188.2273,357.7308 L198.2727,358.0115 L208.3182,358.0923 L218.3636,358.5544 L228.4091,358.6682 L238.4545,358.6791 L248.5,357.7734 " fill="none" style="stroke:#181818;stroke-width:1.0;stroke-dasharray:2.0,2.0;"/><text fill="#000000" font-family="FG Virgil" font-size="13" lengthAdjust="spacing" textLength="198" x="39.5" y="352.917">displayEndOfSessionSuccessfully</text><!--MD5=[6b868d1923481e4af889bc86ab1256fa]
@startuml
'http://plantuml.com/skinparam.html
skinparam handwritten true
skinparam monochrome true
skinparam packageStyle rect
skinparam defaultFontName FG Virgil
skinparam shadowing false

actor User as Actor
participant MainMenuUI as UI <<presentation>>
participant SharedBoardAppController as Controller <<application>>
participant MessageFormat as MF <<util>>

Actor - -> UI: End of session request
activate UI
    UI -> Controller: create(sock)

    Controller -> MF: create(sock)
    activate Controller
    UI -> Controller: sendEndOfSession()

    Controller -> MF: sendMessage(VERSION, MessageCodes.DISCONN, "")

    Controller -> MF: readMessage()
    activate MF
    MF -> Controller: result
    deactivate MF

    Controller -> UI: result
    deactivate Controller



    UI - -> Actor: displayEndOfSessionSuccessfully

deactivate UI
@enduml

@startuml
skinparam handwritten true
skinparam monochrome true
skinparam packageStyle rect
skinparam defaultFontName FG Virgil
skinparam shadowing false

actor User as Actor
participant MainMenuUI as UI <<presentation>>
participant SharedBoardAppController as Controller <<application>>
participant MessageFormat as MF <<util>>

Actor - -> UI: End of session request
activate UI
    UI -> Controller: create(sock)

    Controller -> MF: create(sock)
    activate Controller
    UI -> Controller: sendEndOfSession()

    Controller -> MF: sendMessage(VERSION, MessageCodes.DISCONN, "")

    Controller -> MF: readMessage()
    activate MF
    MF -> Controller: result
    deactivate MF

    Controller -> UI: result
    deactivate Controller



    UI - -> Actor: displayEndOfSessionSuccessfully

deactivate UI
@enduml

PlantUML version 1.2022.7(Mon Aug 22 18:01:30 BST 2022)
(GPL source distribution)
Java Runtime: Java(TM) SE Runtime Environment
JVM: Java HotSpot(TM) 64-Bit Server VM
Default Encoding: Cp1252
Language: pt
Country: PT
--></g></svg>