<?xml version="1.0" encoding="UTF-8" standalone="no"?><svg xmlns="http://www.w3.org/2000/svg" xmlns:xlink="http://www.w3.org/1999/xlink" contentStyleType="text/css" height="579px" preserveAspectRatio="none" style="width:831px;height:579px;background:#FFFFFF;" version="1.1" viewBox="0 0 831 579" width="831px" zoomAndPan="magnify"><defs/><g><polygon fill="#FFFFFF" points="114.5,114.9609,114.5,115.031,116.5,114.8228,118.5,115.0254,120.5,115.0942,122.5,114.7231,124.5,114.9609,124.4223,114.9609,124.0735,125.0781,124.1165,135.1953,124.4318,145.3125,123.8086,155.4297,125.0536,165.5469,123.8697,175.6641,124.3022,185.7813,124.9319,195.8984,124.4142,206.0156,124.5682,216.1328,124.4681,226.25,124.6785,236.3672,124.7391,246.4844,125.0857,256.6016,125.1711,266.7188,125.1793,276.8359,124.7546,286.9531,124.9636,297.0703,125.2022,307.1875,123.7788,317.3047,125.1785,327.4219,124.2035,337.5391,125.0338,347.6563,124.005,357.7734,124.4315,367.8906,125.2416,378.0078,124.4513,388.125,124.6053,398.2422,124.8386,408.3594,124.9162,418.4766,124.4961,428.5938,124.7872,438.7109,123.9276,448.8281,124.7844,458.9453,125.0482,469.0625,124.5,479.1797,124.5,479.3279,122.5,479.384,120.5,479.0187,118.5,478.9623,116.5,478.9726,114.5,479.1797,114.4411,479.1797,114.3035,469.0625,115.1814,458.9453,114.3253,448.8281,114.1569,438.7109,114.7283,428.5938,113.8332,418.4766,113.9809,408.3594,115.149,398.2422,114.9357,388.125,115.2345,378.0078,114.1782,367.8906,114.8192,357.7734,115.0904,347.6563,114.0276,337.5391,114.4041,327.4219,114.626,317.3047,115.1518,307.1875,114.4958,297.0703,114.9626,286.9531,113.9462,276.8359,113.8227,266.7188,115.0036,256.6016,113.7831,246.4844,115.009,236.3672,114.7066,226.25,114.2321,216.1328,114.1462,206.0156,114.9588,195.8984,114.2007,185.7813,115.0919,175.6641,113.9473,165.5469,115.1174,155.4297,114.9843,145.3125,114.745,135.1953,114.5472,125.0781,114.5,114.9609" style="stroke:#181818;stroke-width:1.0;"/><polygon fill="#FFFFFF" points="260.5,206.0156,260.5,206.0857,262.5,205.8775,264.5,206.0801,266.5,206.1489,268.5,205.7778,270.5,206.0156,270.4223,206.0156,270.0735,216.1328,270.1165,226.25,270.4318,236.3672,269.8086,246.4844,271.0536,256.6016,269.8697,266.7188,270.3022,276.8359,270.9319,286.9531,270.4142,297.0703,270.5682,307.1875,270.4681,317.3047,270.6785,327.4219,270.7391,337.5391,271.0857,347.6563,271.1711,357.7734,271.1793,367.8906,270.7546,378.0078,270.9636,388.125,271.2022,398.2422,269.7788,408.3594,271.1785,418.4766,270.2035,428.5938,271.0338,438.7109,270.005,448.8281,270.4315,458.9453,271.2416,469.0625,270.5,479.1797,270.5,479.1634,268.5,479.2148,266.5,479.2926,264.5,479.3184,262.5,479.1784,260.5,479.1797,260.7872,479.1797,259.9276,469.0625,260.7844,458.9453,261.0482,448.8281,260.9445,438.7109,261.113,428.5938,260.0169,418.4766,259.8478,408.3594,259.8786,398.2422,260.4411,388.125,260.3035,378.0078,261.1814,367.8906,260.3253,357.7734,260.1569,347.6563,260.7283,337.5391,259.8332,327.4219,259.9809,317.3047,261.149,307.1875,260.9357,297.0703,261.2345,286.9531,260.1782,276.8359,260.8192,266.7188,261.0904,256.6016,260.0276,246.4844,260.4041,236.3672,260.626,226.25,261.1518,216.1328,260.5,206.0156" style="stroke:#181818;stroke-width:1.0;"/><polygon fill="#FFFFFF" points="417.5,297.0703,417.5,297.1404,419.5,296.9322,421.5,297.1347,423.5,297.2035,425.5,296.8325,427.5,297.0703,427.4223,297.0703,427.0735,307.1875,427.1165,317.3047,427.4318,327.4219,426.8086,337.5391,428.0536,347.6563,426.8697,357.7734,427.3022,367.8906,427.9319,378.0078,427.4142,388.125,427.5682,398.2422,427.4681,408.3594,427.6785,418.4766,427.7391,428.5938,428.0857,438.7109,428.1711,448.8281,428.1793,458.9453,427.7546,469.0625,427.5,479.1797,427.5,479.3342,425.5,479.4138,423.5,478.9393,421.5,479.4059,419.5,479.0809,417.5,479.1797,418.0338,479.1797,417.005,469.0625,417.4315,458.9453,418.2416,448.8281,417.4513,438.7109,417.6053,428.5938,417.8386,418.4766,417.9162,408.3594,417.4961,398.2422,417.7872,388.125,416.9276,378.0078,417.7844,367.8906,418.0482,357.7734,417.9445,347.6563,418.113,337.5391,417.0169,327.4219,416.8478,317.3047,416.8786,307.1875,417.5,297.0703" style="stroke:#181818;stroke-width:1.0;"/><polygon fill="#FFFFFF" points="762.5,388.125,762.5,388.1951,764.5,387.9869,766.5,388.1894,768.5,388.2582,770.5,387.8872,772.5,388.125,772.4741,388.125,772.3578,394.1953,772.3722,400.2656,772.4773,406.3359,772.2695,412.4063,772.5,418.4766,772.5,418.6611,770.5,418.2665,768.5,418.4106,766.5,418.6205,764.5,418.448,762.5,418.4766,762.5227,418.4766,762.4894,412.4063,762.5595,406.3359,762.5797,400.2656,762.6952,394.1953,762.5,388.125" style="stroke:#181818;stroke-width:1.0;"/><path d="M22,82.6094 L22.2802,82.6094 L21.4476,92.7208 L22.2577,102.8323 L22.5329,112.9438 L21.0488,123.0553 L21.8964,133.1667 L21.4313,143.2782 L21.4887,153.3897 L21.9091,163.5011 L21.0782,173.6126 L22.7382,183.7241 L21.1596,193.8356 L21.7363,203.947 L22.5759,214.0585 L21.8856,224.17 L22.091,234.2814 L21.9574,244.3929 L22.238,254.5044 L22.3188,264.6159 L22.7809,274.7273 L22.8947,284.8388 L22.9057,294.9503 L22.3395,305.0617 L22.6181,315.1732 L22.9363,325.2847 L21.0384,335.3962 L22.9047,345.5076 L21.6047,355.6191 L22.7117,365.7306 L21.34,375.842 L21.9087,385.9535 L22.9888,396.065 L21.935,406.1764 L22.1404,416.2879 L22.4515,426.3994 L22.555,436.5109 L21.9948,446.6223 L22.383,456.7338 L21.2368,466.8453 L22.3792,476.9567 L22.7309,487.0682 L22,497.1797 " fill="none" style="stroke:#181818;stroke-width:0.5;stroke-dasharray:5.0,5.0;"/><path d="M119,82.6094 L119.2802,82.6094 L118.4476,92.7208 L119.2577,102.8323 L119.5329,112.9438 L118.0488,123.0553 L118.8964,133.1667 L118.4313,143.2782 L118.4887,153.3897 L118.9091,163.5011 L118.0782,173.6126 L119.7382,183.7241 L118.1596,193.8356 L118.7363,203.947 L119.5759,214.0585 L118.8856,224.17 L119.091,234.2814 L118.9574,244.3929 L119.238,254.5044 L119.3188,264.6159 L119.7809,274.7273 L119.8947,284.8388 L119.9057,294.9503 L119.3395,305.0617 L119.6181,315.1732 L119.9363,325.2847 L118.0384,335.3962 L119.9047,345.5076 L118.6047,355.6191 L119.7117,365.7306 L118.34,375.842 L118.9087,385.9535 L119.9888,396.065 L118.935,406.1764 L119.1404,416.2879 L119.4515,426.3994 L119.555,436.5109 L118.9948,446.6223 L119.383,456.7338 L118.2368,466.8453 L119.3792,476.9567 L119.7309,487.0682 L119,497.1797 " fill="none" style="stroke:#181818;stroke-width:0.5;stroke-dasharray:5.0,5.0;"/><path d="M265,82.6094 L265.2802,82.6094 L264.4476,92.7208 L265.2577,102.8323 L265.5329,112.9438 L264.0488,123.0553 L264.8964,133.1667 L264.4313,143.2782 L264.4887,153.3897 L264.9091,163.5011 L264.0782,173.6126 L265.7382,183.7241 L264.1596,193.8356 L264.7363,203.947 L265.5759,214.0585 L264.8856,224.17 L265.091,234.2814 L264.9574,244.3929 L265.238,254.5044 L265.3188,264.6159 L265.7809,274.7273 L265.8947,284.8388 L265.9057,294.9503 L265.3395,305.0617 L265.6181,315.1732 L265.9363,325.2847 L264.0384,335.3962 L265.9047,345.5076 L264.6047,355.6191 L265.7117,365.7306 L264.34,375.842 L264.9087,385.9535 L265.9888,396.065 L264.935,406.1764 L265.1404,416.2879 L265.4515,426.3994 L265.555,436.5109 L264.9948,446.6223 L265.383,456.7338 L264.2368,466.8453 L265.3792,476.9567 L265.7309,487.0682 L265,497.1797 " fill="none" style="stroke:#181818;stroke-width:0.5;stroke-dasharray:5.0,5.0;"/><path d="M422,82.6094 L422.2802,82.6094 L421.4476,92.7208 L422.2577,102.8323 L422.5329,112.9438 L421.0488,123.0553 L421.8964,133.1667 L421.4313,143.2782 L421.4887,153.3897 L421.9091,163.5011 L421.0782,173.6126 L422.7382,183.7241 L421.1596,193.8356 L421.7363,203.947 L422.5759,214.0585 L421.8856,224.17 L422.091,234.2814 L421.9574,244.3929 L422.238,254.5044 L422.3188,264.6159 L422.7809,274.7273 L422.8947,284.8388 L422.9057,294.9503 L422.3395,305.0617 L422.6181,315.1732 L422.9363,325.2847 L421.0384,335.3962 L422.9047,345.5076 L421.6047,355.6191 L422.7117,365.7306 L421.34,375.842 L421.9087,385.9535 L422.9888,396.065 L421.935,406.1764 L422.1404,416.2879 L422.4515,426.3994 L422.555,436.5109 L421.9948,446.6223 L422.383,456.7338 L421.2368,466.8453 L422.3792,476.9567 L422.7309,487.0682 L422,497.1797 " fill="none" style="stroke:#181818;stroke-width:0.5;stroke-dasharray:5.0,5.0;"/><path d="M767.5,82.6094 L767.7802,82.6094 L766.9476,92.7208 L767.7577,102.8323 L768.0329,112.9438 L766.5488,123.0553 L767.3964,133.1667 L766.9313,143.2782 L766.9887,153.3897 L767.4091,163.5011 L766.5782,173.6126 L768.2382,183.7241 L766.6596,193.8356 L767.2363,203.947 L768.0759,214.0585 L767.3856,224.17 L767.591,234.2814 L767.4574,244.3929 L767.738,254.5044 L767.8188,264.6159 L768.2809,274.7273 L768.3947,284.8388 L768.4057,294.9503 L767.8395,305.0617 L768.1181,315.1732 L768.4363,325.2847 L766.5384,335.3962 L768.4047,345.5076 L767.1047,355.6191 L768.2117,365.7306 L766.84,375.842 L767.4087,385.9535 L768.4888,396.065 L767.435,406.1764 L767.6404,416.2879 L767.9515,426.3994 L768.055,436.5109 L767.4948,446.6223 L767.883,456.7338 L766.7368,466.8453 L767.8792,476.9567 L768.2309,487.0682 L767.5,497.1797 " fill="none" style="stroke:#181818;stroke-width:0.5;stroke-dasharray:5.0,5.0;"/><text fill="#000000" font-family="FG Virgil" font-size="14" lengthAdjust="spacing" textLength="29" x="5" y="79.5332">User</text><polygon fill="#E3E3E3" points="30.5442,15.4459,29.3715,17.0482,27.9845,19.3951,26.0008,20.9767,23.9163,21.8415,22.2542,21.9166,20.118,20.8349,18.1023,20.1283,16.5724,18.6936,15.7699,17.0511,15.2939,15.7433,14.8277,14.0351,14.0709,12.5651,14.6525,11.1298,15.162,9.5576,17.074,8.3142,18.4192,6.7008,20.0843,6.165,22.0637,5.7037,24.6021,5.9778,25.9924,6.6335,27.6089,6.9307,29.5743,8.9443,30.2595,11.0701,30.5571,12.5206,30.22,14.9108" style="stroke:#181818;stroke-width:0.5;"/><path d="M22.5,21.5 L22.6868,21.5 L22.1317,26.9 L22.6718,32.3 L22.8553,37.7 L21.8659,43.1 L22.5,48.5 M9.5,29.5 L9.5,29.4309 L14.7,29.1209 L19.9,29.1591 L25.1,29.4394 L30.3,28.8854 L35.5,29.5 M22.5,48.5 L22.8719,48.8223 L19.4766,51.1331 L17.1672,54.3849 L14.9901,57.7515 L12.0424,60.4501 L9.5,63.5 M22.5,48.5 L22.5458,48.5397 L25.0785,51.4814 L27.8199,54.6039 L30.4606,57.6392 L33.2934,60.841 L35.5,63.5 " fill="none" style="stroke:#181818;stroke-width:0.5;"/><text fill="#000000" font-family="FG Virgil" font-size="14" lengthAdjust="spacing" textLength="29" x="5" y="510.7129">User</text><polygon fill="#E3E3E3" points="30.5442,524.235,29.3715,525.8373,27.9845,528.1841,26.0008,529.7657,23.9163,530.6306,22.2542,530.7057,20.118,529.624,18.1023,528.9174,16.5724,527.4826,15.7699,525.8402,15.2939,524.5324,14.8277,522.8241,14.0709,521.3541,14.6525,519.9189,15.162,518.3467,17.074,517.1032,18.4192,515.4899,20.0843,514.9541,22.0637,514.4927,24.6021,514.7669,25.9924,515.4225,27.6089,515.7197,29.5743,517.7334,30.2595,519.8592,30.5571,521.3097,30.22,523.6999" style="stroke:#181818;stroke-width:0.5;"/><path d="M22.5,530.2891 L22.6868,530.2891 L22.1317,535.6891 L22.6718,541.0891 L22.8553,546.4891 L21.8659,551.8891 L22.5,557.2891 M9.5,538.2891 L9.5,538.22 L14.7,537.91 L19.9,537.9482 L25.1,538.2285 L30.3,537.6745 L35.5,538.2891 M22.5,557.2891 L22.8719,557.6114 L19.4766,559.9221 L17.1672,563.1739 L14.9901,566.5405 L12.0424,569.2391 L9.5,572.2891 M22.5,557.2891 L22.5458,557.3288 L25.0785,560.2705 L27.8199,563.393 L30.4606,566.4283 L33.2934,569.63 L35.5,572.2891 " fill="none" style="stroke:#181818;stroke-width:0.5;"/><polygon fill="#E3E3E3" points="67.5,32.3906,67.5,32.6008,77.9,31.9763,88.3,32.5839,98.7,32.7903,109.1,31.6772,119.5,32.3129,129.9,31.9641,140.3,32.0071,150.7,32.3225,161.1,31.6993,171.5,32.3906,171.5706,32.5611,171.7732,32.343,172.1819,32.6226,172.6158,32.963,172.9033,32.95,173.2678,33.1229,173.2888,33.1316,173.4044,33.4723,173.6156,33.8527,173.7808,34.214,174.0339,34.6118,174,34.8906,174.2237,34.8906,174.2264,43.7344,174.0849,52.5781,174.1545,61.4219,174.2341,70.2656,174,79.1094,173.7779,79.0174,174.0625,79.5495,173.6158,79.7787,173.7251,80.2381,173.2618,80.4604,173.2678,80.8771,173.259,80.856,173.0088,81.252,172.5544,81.155,172.2205,81.3489,171.8967,81.5672,171.5,81.6094,171.5,82.0256,161.1,81.6055,150.7,81.8966,140.3,81.037,129.9,81.8938,119.5,82.1576,109.1,82.0539,98.7,82.2224,88.3,81.1263,77.9,80.9572,67.5,81.6094,67.4207,81.418,67.1389,81.4448,66.7678,81.256,66.5263,81.3799,66.0635,80.9698,65.7322,80.8771,65.6266,80.8334,65.6561,80.5527,65.234,80.085,65.133,79.7503,65.3463,79.5457,65,79.1094,65.1452,79.1094,65.2448,70.2656,64.8927,61.4219,65.1064,52.5781,65.1968,43.7344,65,34.8906,64.8545,34.8304,65.1169,34.5248,65.3317,34.1996,65.6401,33.9131,65.5845,33.4759,65.7322,33.1229,65.7912,33.2653,66.0151,32.8059,66.3529,32.6214,66.8571,32.8386,67.055,32.3163,67.5,32.3906" style="stroke:#181818;stroke-width:0.5;"/><text fill="#000000" font-family="FG Virgil" font-size="14" font-style="italic" lengthAdjust="spacing" textLength="95" x="72" y="53.9238">«presentation»</text><text fill="#000000" font-family="FG Virgil" font-size="14" lengthAdjust="spacing" textLength="77" x="81" y="71.5332">MainMenuUI</text><polygon fill="#E3E3E3" points="67.5,496.1797,67.5,496.3899,77.9,495.7654,88.3,496.373,98.7,496.5794,109.1,495.4663,119.5,496.102,129.9,495.7532,140.3,495.7962,150.7,496.1115,161.1,495.4883,171.5,496.1797,171.5706,496.3502,171.7732,496.132,172.1819,496.4117,172.6158,496.752,172.9033,496.7391,173.2678,496.9119,173.2888,496.9206,173.4044,497.2614,173.6156,497.6418,173.7808,498.0031,174.0339,498.4008,174,498.6797,174.2237,498.6797,174.2264,507.5234,174.0849,516.3672,174.1545,525.2109,174.2341,534.0547,174,542.8984,173.7779,542.8064,174.0625,543.3385,173.6158,543.5677,173.7251,544.0272,173.2618,544.2495,173.2678,544.6662,173.259,544.6451,173.0088,545.041,172.5544,544.9441,172.2205,545.138,171.8967,545.3563,171.5,545.3984,171.5,545.8147,161.1,545.3945,150.7,545.6857,140.3,544.826,129.9,545.6828,119.5,545.9466,109.1,545.843,98.7,546.0115,88.3,544.9154,77.9,544.7463,67.5,545.3984,67.4207,545.2071,67.1389,545.2339,66.7678,545.045,66.5263,545.1689,66.0635,544.7589,65.7322,544.6662,65.6266,544.6224,65.6561,544.3418,65.234,543.874,65.133,543.5393,65.3463,543.3348,65,542.8984,65.1452,542.8984,65.2448,534.0547,64.8927,525.2109,65.1064,516.3672,65.1968,507.5234,65,498.6797,64.8545,498.6194,65.1169,498.3139,65.3317,497.9887,65.6401,497.7022,65.5845,497.2649,65.7322,496.9119,65.7912,497.0544,66.0151,496.5949,66.3529,496.4105,66.8571,496.6277,67.055,496.1053,67.5,496.1797" style="stroke:#181818;stroke-width:0.5;"/><text fill="#000000" font-family="FG Virgil" font-size="14" font-style="italic" lengthAdjust="spacing" textLength="95" x="72" y="517.7129">«presentation»</text><text fill="#000000" font-family="FG Virgil" font-size="14" lengthAdjust="spacing" textLength="77" x="81" y="535.3223">MainMenuUI</text><polygon fill="#E3E3E3" points="213.5,32.3906,213.5,32.6008,223.9,31.9763,234.3,32.5839,244.7,32.7903,255.1,31.6772,265.5,32.3129,275.9,31.9641,286.3,32.0071,296.7,32.3225,307.1,31.6993,317.5,32.3906,317.5706,32.5611,317.7732,32.343,318.1819,32.6226,318.6158,32.963,318.9033,32.95,319.2678,33.1229,319.2888,33.1316,319.4044,33.4723,319.6156,33.8527,319.7808,34.214,320.0339,34.6118,320,34.8906,320.2237,34.8906,320.2264,43.7344,320.0849,52.5781,320.1545,61.4219,320.2341,70.2656,320,79.1094,319.7779,79.0174,320.0625,79.5495,319.6158,79.7787,319.7251,80.2381,319.2618,80.4604,319.2678,80.8771,319.259,80.856,319.0088,81.252,318.5544,81.155,318.2205,81.3489,317.8967,81.5672,317.5,81.6094,317.5,82.0256,307.1,81.6055,296.7,81.8966,286.3,81.037,275.9,81.8938,265.5,82.1576,255.1,82.0539,244.7,82.2224,234.3,81.1263,223.9,80.9572,213.5,81.6094,213.4207,81.418,213.1389,81.4448,212.7678,81.256,212.5263,81.3799,212.0635,80.9698,211.7322,80.8771,211.6266,80.8334,211.6561,80.5527,211.234,80.085,211.133,79.7503,211.3463,79.5457,211,79.1094,211.1452,79.1094,211.2448,70.2656,210.8927,61.4219,211.1064,52.5781,211.1968,43.7344,211,34.8906,210.8545,34.8304,211.1169,34.5248,211.3317,34.1996,211.6401,33.9131,211.5845,33.4759,211.7322,33.1229,211.7912,33.2653,212.0151,32.8059,212.3529,32.6214,212.8571,32.8386,213.055,32.3163,213.5,32.3906" style="stroke:#181818;stroke-width:0.5;"/><text fill="#000000" font-family="FG Virgil" font-size="14" font-style="italic" lengthAdjust="spacing" textLength="95" x="218" y="53.9238">«presentation»</text><text fill="#000000" font-family="FG Virgil" font-size="14" lengthAdjust="spacing" textLength="47" x="242" y="71.5332">LoginUI</text><polygon fill="#E3E3E3" points="213.5,496.1797,213.5,496.3899,223.9,495.7654,234.3,496.373,244.7,496.5794,255.1,495.4663,265.5,496.102,275.9,495.7532,286.3,495.7962,296.7,496.1115,307.1,495.4883,317.5,496.1797,317.5706,496.3502,317.7732,496.132,318.1819,496.4117,318.6158,496.752,318.9033,496.7391,319.2678,496.9119,319.2888,496.9206,319.4044,497.2614,319.6156,497.6418,319.7808,498.0031,320.0339,498.4008,320,498.6797,320.2237,498.6797,320.2264,507.5234,320.0849,516.3672,320.1545,525.2109,320.2341,534.0547,320,542.8984,319.7779,542.8064,320.0625,543.3385,319.6158,543.5677,319.7251,544.0272,319.2618,544.2495,319.2678,544.6662,319.259,544.6451,319.0088,545.041,318.5544,544.9441,318.2205,545.138,317.8967,545.3563,317.5,545.3984,317.5,545.8147,307.1,545.3945,296.7,545.6857,286.3,544.826,275.9,545.6828,265.5,545.9466,255.1,545.843,244.7,546.0115,234.3,544.9154,223.9,544.7463,213.5,545.3984,213.4207,545.2071,213.1389,545.2339,212.7678,545.045,212.5263,545.1689,212.0635,544.7589,211.7322,544.6662,211.6266,544.6224,211.6561,544.3418,211.234,543.874,211.133,543.5393,211.3463,543.3348,211,542.8984,211.1452,542.8984,211.2448,534.0547,210.8927,525.2109,211.1064,516.3672,211.1968,507.5234,211,498.6797,210.8545,498.6194,211.1169,498.3139,211.3317,497.9887,211.6401,497.7022,211.5845,497.2649,211.7322,496.9119,211.7912,497.0544,212.0151,496.5949,212.3529,496.4105,212.8571,496.6277,213.055,496.1053,213.5,496.1797" style="stroke:#181818;stroke-width:0.5;"/><text fill="#000000" font-family="FG Virgil" font-size="14" font-style="italic" lengthAdjust="spacing" textLength="95" x="218" y="517.7129">«presentation»</text><text fill="#000000" font-family="FG Virgil" font-size="14" lengthAdjust="spacing" textLength="47" x="242" y="535.3223">LoginUI</text><polygon fill="#E3E3E3" points="332.5,32.3906,332.5,32.6008,342.5,31.9763,352.5,32.5839,362.5,32.7903,372.5,31.6772,382.5,32.3129,392.5,31.9641,402.5,32.0071,412.5,32.3225,422.5,31.6993,432.5,32.9443,442.5,31.7603,452.5,32.1929,462.5,32.8226,472.5,32.3048,482.5,32.4589,492.5,32.3587,502.5,32.5692,512.5,32.3906,512.5305,32.4643,512.9283,32.7174,513.2927,32.8902,513.6473,33.0391,513.9467,33.0548,514.2678,33.1229,514.4105,33.182,514.6305,33.566,514.3386,33.738,514.9161,34.2701,514.7622,34.4992,515,34.8906,515.1779,34.8906,514.835,43.7344,514.9772,52.5781,515.2472,61.4219,514.9838,70.2656,515,79.1094,515.0324,79.1228,514.9578,79.5061,514.8353,79.8696,514.5595,80.1695,514.5027,80.5602,514.2678,80.8771,514.1947,80.7009,513.9505,81.1112,513.6306,81.3389,513.2638,81.4534,512.9318,81.6517,512.5,81.6094,512.5,81.1263,502.5,80.9572,492.5,80.988,482.5,81.5505,472.5,81.4128,462.5,82.2908,452.5,81.4347,442.5,81.2663,432.5,81.8376,422.5,80.9425,412.5,81.0902,402.5,82.2583,392.5,82.045,382.5,82.3439,372.5,81.2876,362.5,81.9286,352.5,82.1998,342.5,81.137,332.5,81.6094,332.4878,81.5799,332.1625,81.5017,331.876,81.5172,331.4388,81.1687,331.1448,81.166,330.7322,80.8771,330.5617,80.8065,330.3772,80.4372,330.5944,80.2343,330.0721,79.725,330.3032,79.5279,330,79.1094,330.0689,79.1094,329.9107,70.2656,329.8821,61.4219,330.1529,52.5781,329.9002,43.7344,330,34.8906,330.1823,34.9661,329.9762,34.4666,330.483,34.2623,330.5885,33.8917,330.6612,33.5077,330.7322,33.1229,330.7383,33.1374,331.1785,33.2002,331.5176,33.0189,331.8145,32.7356,332.1807,32.6197,332.5,32.3906" style="stroke:#181818;stroke-width:0.5;"/><text fill="#000000" font-family="FG Virgil" font-size="14" font-style="italic" lengthAdjust="spacing" textLength="84" x="380.5" y="53.9238">«application»</text><text fill="#000000" font-family="FG Virgil" font-size="14" lengthAdjust="spacing" textLength="171" x="337" y="71.5332">SharedBoardAppController</text><polygon fill="#E3E3E3" points="332.5,496.1797,332.5,496.3899,342.5,495.7654,352.5,496.373,362.5,496.5794,372.5,495.4663,382.5,496.102,392.5,495.7532,402.5,495.7962,412.5,496.1115,422.5,495.4883,432.5,496.7333,442.5,495.5494,452.5,495.9819,462.5,496.6116,472.5,496.0939,482.5,496.2479,492.5,496.1477,502.5,496.3582,512.5,496.1797,512.5305,496.2533,512.9283,496.5065,513.2927,496.6792,513.6473,496.8282,513.9467,496.8439,514.2678,496.9119,514.4105,496.9711,514.6305,497.3551,514.3386,497.527,514.9161,498.0591,514.7622,498.2883,515,498.6797,515.1779,498.6797,514.835,507.5234,514.9772,516.3672,515.2472,525.2109,514.9838,534.0547,515,542.8984,515.0324,542.9119,514.9578,543.2952,514.8353,543.6586,514.5595,543.9586,514.5027,544.3493,514.2678,544.6662,514.1947,544.4899,513.9505,544.9002,513.6306,545.1279,513.2638,545.2424,512.9318,545.4408,512.5,545.3984,512.5,544.9154,502.5,544.7463,492.5,544.777,482.5,545.3396,472.5,545.2019,462.5,546.0798,452.5,545.2238,442.5,545.0554,432.5,545.6267,422.5,544.7316,412.5,544.8793,402.5,546.0474,392.5,545.8341,382.5,546.1329,372.5,545.0766,362.5,545.7176,352.5,545.9889,342.5,544.926,332.5,545.3984,332.4878,545.3689,332.1625,545.2908,331.876,545.3063,331.4388,544.9578,331.1448,544.9551,330.7322,544.6662,330.5617,544.5956,330.3772,544.2263,330.5944,544.0233,330.0721,543.5141,330.3032,543.3169,330,542.8984,330.0689,542.8984,329.9107,534.0547,329.8821,525.2109,330.1529,516.3672,329.9002,507.5234,330,498.6797,330.1823,498.7552,329.9762,498.2556,330.483,498.0513,330.5885,497.6808,330.6612,497.2967,330.7322,496.9119,330.7383,496.9265,331.1785,496.9892,331.5176,496.808,331.8145,496.5247,332.1807,496.4087,332.5,496.1797" style="stroke:#181818;stroke-width:0.5;"/><text fill="#000000" font-family="FG Virgil" font-size="14" font-style="italic" lengthAdjust="spacing" textLength="84" x="380.5" y="517.7129">«application»</text><text fill="#000000" font-family="FG Virgil" font-size="14" lengthAdjust="spacing" textLength="171" x="337" y="535.3223">SharedBoardAppController</text><polygon fill="#E3E3E3" points="712,32.3906,712,32.6008,722.0909,31.9763,732.1818,32.5839,742.2727,32.7903,752.3636,31.6772,762.4545,32.3129,772.5455,31.9641,782.6364,32.0071,792.7273,32.3225,802.8182,31.6993,812.9091,32.9443,823,32.3906,822.9196,32.1965,823.3283,32.4762,823.7622,32.8165,824.0497,32.8035,824.4229,32.9974,824.7678,33.1229,824.7579,33.1188,824.9692,33.4992,825.1343,33.8605,825.3875,34.2582,825.5602,34.6227,825.5,34.8906,825.7264,34.8906,825.5849,43.7344,825.6545,52.5781,825.7341,61.4219,825.2596,70.2656,825.5,79.1094,825.709,79.1959,825.2622,79.4251,825.3715,79.8846,824.9082,80.1069,824.8931,80.5149,824.7678,80.8771,824.8624,81.1055,824.408,81.0086,824.0741,81.2025,823.7503,81.4208,823.4066,81.5911,823,81.6094,823,81.6055,812.9091,81.8966,802.8182,81.037,792.7273,81.8938,782.6364,82.1576,772.5455,82.0539,762.4545,82.2224,752.3636,81.1263,742.2727,80.9572,732.1818,80.988,722.0909,81.5505,712,81.6094,711.9749,81.5489,711.7334,81.6728,711.2706,81.2627,710.8956,81.0644,710.6149,81.0939,710.2322,80.8771,710.0269,80.7921,709.9259,80.4574,710.1392,80.2528,709.9271,79.8721,709.8726,79.5566,709.5,79.1094,709.3927,79.1094,709.6064,70.2656,709.6968,61.4219,709.3425,52.5781,709.468,43.7344,709.5,34.8906,709.5388,34.9067,709.8472,34.6202,709.7916,34.183,710.0818,33.889,709.9152,33.4058,710.2322,33.1229,710.1458,32.9143,710.65,33.1315,710.8479,32.6092,711.3578,32.8403,711.6728,32.6007,712,32.3906" style="stroke:#181818;stroke-width:0.5;"/><text fill="#000000" font-family="FG Virgil" font-size="14" font-style="italic" lengthAdjust="spacing" textLength="34" x="750.5" y="53.9238">«util»</text><text fill="#000000" font-family="FG Virgil" font-size="14" lengthAdjust="spacing" textLength="102" x="716.5" y="71.5332">MessageFormat</text><polygon fill="#E3E3E3" points="712,496.1797,712,496.3899,722.0909,495.7654,732.1818,496.373,742.2727,496.5794,752.3636,495.4663,762.4545,496.102,772.5455,495.7532,782.6364,495.7962,792.7273,496.1115,802.8182,495.4883,812.9091,496.7333,823,496.1797,822.9196,495.9856,823.3283,496.2652,823.7622,496.6056,824.0497,496.5926,824.4229,496.7865,824.7678,496.9119,824.7579,496.9078,824.9692,497.2882,825.1343,497.6495,825.3875,498.0473,825.5602,498.4117,825.5,498.6797,825.7264,498.6797,825.5849,507.5234,825.6545,516.3672,825.7341,525.2109,825.2596,534.0547,825.5,542.8984,825.709,542.985,825.2622,543.2142,825.3715,543.6736,824.9082,543.896,824.8931,544.3039,824.7678,544.6662,824.8624,544.8946,824.408,544.7976,824.0741,544.9915,823.7503,545.2098,823.4066,545.3802,823,545.3984,823,545.3945,812.9091,545.6857,802.8182,544.826,792.7273,545.6828,782.6364,545.9466,772.5455,545.843,762.4545,546.0115,752.3636,544.9154,742.2727,544.7463,732.1818,544.777,722.0909,545.3396,712,545.3984,711.9749,545.3379,711.7334,545.4618,711.2706,545.0518,710.8956,544.8535,710.6149,544.8829,710.2322,544.6662,710.0269,544.5811,709.9259,544.2464,710.1392,544.0419,709.9271,543.6611,709.8726,543.3457,709.5,542.8984,709.3927,542.8984,709.6064,534.0547,709.6968,525.2109,709.3425,516.3672,709.468,507.5234,709.5,498.6797,709.5388,498.6958,709.8472,498.4093,709.7916,497.972,710.0818,497.678,709.9152,497.1948,710.2322,496.9119,710.1458,496.7034,710.65,496.9206,710.8479,496.3982,711.3578,496.6293,711.6728,496.3898,712,496.1797" style="stroke:#181818;stroke-width:0.5;"/><text fill="#000000" font-family="FG Virgil" font-size="14" font-style="italic" lengthAdjust="spacing" textLength="34" x="750.5" y="517.7129">«util»</text><text fill="#000000" font-family="FG Virgil" font-size="14" lengthAdjust="spacing" textLength="102" x="716.5" y="535.3223">MessageFormat</text><polygon fill="#FFFFFF" points="114.5,114.9609,114.5,115.031,116.5,114.8228,118.5,115.0254,120.5,115.0942,122.5,114.7231,124.5,114.9609,124.4223,114.9609,124.0735,125.0781,124.1165,135.1953,124.4318,145.3125,123.8086,155.4297,125.0536,165.5469,123.8697,175.6641,124.3022,185.7813,124.9319,195.8984,124.4142,206.0156,124.5682,216.1328,124.4681,226.25,124.6785,236.3672,124.7391,246.4844,125.0857,256.6016,125.1711,266.7188,125.1793,276.8359,124.7546,286.9531,124.9636,297.0703,125.2022,307.1875,123.7788,317.3047,125.1785,327.4219,124.2035,337.5391,125.0338,347.6563,124.005,357.7734,124.4315,367.8906,125.2416,378.0078,124.4513,388.125,124.6053,398.2422,124.8386,408.3594,124.9162,418.4766,124.4961,428.5938,124.7872,438.7109,123.9276,448.8281,124.7844,458.9453,125.0482,469.0625,124.5,479.1797,124.5,479.3279,122.5,479.384,120.5,479.0187,118.5,478.9623,116.5,478.9726,114.5,479.1797,114.4411,479.1797,114.3035,469.0625,115.1814,458.9453,114.3253,448.8281,114.1569,438.7109,114.7283,428.5938,113.8332,418.4766,113.9809,408.3594,115.149,398.2422,114.9357,388.125,115.2345,378.0078,114.1782,367.8906,114.8192,357.7734,115.0904,347.6563,114.0276,337.5391,114.4041,327.4219,114.626,317.3047,115.1518,307.1875,114.4958,297.0703,114.9626,286.9531,113.9462,276.8359,113.8227,266.7188,115.0036,256.6016,113.7831,246.4844,115.009,236.3672,114.7066,226.25,114.2321,216.1328,114.1462,206.0156,114.9588,195.8984,114.2007,185.7813,115.0919,175.6641,113.9473,165.5469,115.1174,155.4297,114.9843,145.3125,114.745,135.1953,114.5472,125.0781,114.5,114.9609" style="stroke:#181818;stroke-width:1.0;"/><polygon fill="#FFFFFF" points="260.5,206.0156,260.5,206.0857,262.5,205.8775,264.5,206.0801,266.5,206.1489,268.5,205.7778,270.5,206.0156,270.4223,206.0156,270.0735,216.1328,270.1165,226.25,270.4318,236.3672,269.8086,246.4844,271.0536,256.6016,269.8697,266.7188,270.3022,276.8359,270.9319,286.9531,270.4142,297.0703,270.5682,307.1875,270.4681,317.3047,270.6785,327.4219,270.7391,337.5391,271.0857,347.6563,271.1711,357.7734,271.1793,367.8906,270.7546,378.0078,270.9636,388.125,271.2022,398.2422,269.7788,408.3594,271.1785,418.4766,270.2035,428.5938,271.0338,438.7109,270.005,448.8281,270.4315,458.9453,271.2416,469.0625,270.5,479.1797,270.5,479.1634,268.5,479.2148,266.5,479.2926,264.5,479.3184,262.5,479.1784,260.5,479.1797,260.7872,479.1797,259.9276,469.0625,260.7844,458.9453,261.0482,448.8281,260.9445,438.7109,261.113,428.5938,260.0169,418.4766,259.8478,408.3594,259.8786,398.2422,260.4411,388.125,260.3035,378.0078,261.1814,367.8906,260.3253,357.7734,260.1569,347.6563,260.7283,337.5391,259.8332,327.4219,259.9809,317.3047,261.149,307.1875,260.9357,297.0703,261.2345,286.9531,260.1782,276.8359,260.8192,266.7188,261.0904,256.6016,260.0276,246.4844,260.4041,236.3672,260.626,226.25,261.1518,216.1328,260.5,206.0156" style="stroke:#181818;stroke-width:1.0;"/><polygon fill="#FFFFFF" points="417.5,297.0703,417.5,297.1404,419.5,296.9322,421.5,297.1347,423.5,297.2035,425.5,296.8325,427.5,297.0703,427.4223,297.0703,427.0735,307.1875,427.1165,317.3047,427.4318,327.4219,426.8086,337.5391,428.0536,347.6563,426.8697,357.7734,427.3022,367.8906,427.9319,378.0078,427.4142,388.125,427.5682,398.2422,427.4681,408.3594,427.6785,418.4766,427.7391,428.5938,428.0857,438.7109,428.1711,448.8281,428.1793,458.9453,427.7546,469.0625,427.5,479.1797,427.5,479.3342,425.5,479.4138,423.5,478.9393,421.5,479.4059,419.5,479.0809,417.5,479.1797,418.0338,479.1797,417.005,469.0625,417.4315,458.9453,418.2416,448.8281,417.4513,438.7109,417.6053,428.5938,417.8386,418.4766,417.9162,408.3594,417.4961,398.2422,417.7872,388.125,416.9276,378.0078,417.7844,367.8906,418.0482,357.7734,417.9445,347.6563,418.113,337.5391,417.0169,327.4219,416.8478,317.3047,416.8786,307.1875,417.5,297.0703" style="stroke:#181818;stroke-width:1.0;"/><polygon fill="#FFFFFF" points="762.5,388.125,762.5,388.1951,764.5,387.9869,766.5,388.1894,768.5,388.2582,770.5,387.8872,772.5,388.125,772.4741,388.125,772.3578,394.1953,772.3722,400.2656,772.4773,406.3359,772.2695,412.4063,772.5,418.4766,772.5,418.6611,770.5,418.2665,768.5,418.4106,766.5,418.6205,764.5,418.448,762.5,418.4766,762.5227,418.4766,762.4894,412.4063,762.5595,406.3359,762.5797,400.2656,762.6952,394.1953,762.5,388.125" style="stroke:#181818;stroke-width:1.0;"/><polygon fill="#181818" points="102.5,110.9609,102.526,111.026,104.4487,111.6327,106.5239,112.6208,108.5495,113.4846,110.4117,113.9401,112.5,114.9609,112.4904,114.9369,110.4472,115.6289,108.4525,116.4422,106.4916,117.3398,104.4144,117.947,102.5,118.9609,102.6305,119.0914,103.1514,118.0124,104.0534,117.3143,105.0018,116.6627,105.6798,115.7407,106.5,114.9609,106.5161,114.977,105.6925,114.1534,104.9421,113.403,104.1564,112.6173,103.438,111.899,102.5,110.9609" style="stroke:#181818;stroke-width:1.0;"/><path d="M22.5,114.9609 L22.5,115.2412 L32.0556,114.4085 L41.6111,115.2187 L51.1667,115.4938 L60.7222,114.0097 L70.2778,114.8573 L79.8333,114.3923 L89.3889,114.4496 L98.9444,114.8701 L108.5,114.9609 " fill="none" style="stroke:#181818;stroke-width:1.0;stroke-dasharray:2.0,2.0;"/><text fill="#000000" font-family="FG Virgil" font-size="13" lengthAdjust="spacing" textLength="73" x="29.5" y="110.1045">Authenticate</text><polygon fill="#181818" points="410.5,141.3125,410.526,141.3775,412.4487,141.9843,414.5239,142.9723,416.5495,143.8362,418.4117,144.2917,420.5,145.3125,420.4904,145.2884,418.4472,145.9805,416.4525,146.7938,414.4916,147.6914,412.4144,148.2985,410.5,149.3125,410.6305,149.443,411.1514,148.3639,412.0534,147.6659,413.0018,147.0143,413.6798,146.0923,414.5,145.3125,414.5161,145.3286,413.6925,144.505,412.9421,143.7546,412.1564,142.9689,411.438,142.2505,410.5,141.3125" style="stroke:#181818;stroke-width:1.0;"/><path d="M124.5,145.3125 L124.5,145.5927 L134.569,144.7601 L144.6379,145.5702 L154.7069,145.8454 L164.7759,144.3613 L174.8448,145.2089 L184.9138,144.7438 L194.9828,144.8012 L205.0517,145.2216 L215.1207,144.3907 L225.1897,146.0507 L235.2586,144.4721 L245.3276,145.0488 L255.3966,145.8884 L265.4655,145.1981 L275.5345,145.4035 L285.6034,145.2699 L295.6724,145.5505 L305.7414,145.6313 L315.8103,146.0934 L325.8793,146.2072 L335.9483,146.2182 L346.0172,145.652 L356.0862,145.9306 L366.1552,146.2488 L376.2241,144.3509 L386.2931,146.2172 L396.3621,144.9172 L406.431,146.0242 L416.5,145.3125 " fill="none" style="stroke:#181818;stroke-width:1.0;"/><text fill="#000000" font-family="FG Virgil" font-size="13" lengthAdjust="spacing" textLength="72" x="131.5" y="140.4561">create(sock)</text><polygon fill="#181818" points="253.5,171.6641,253.526,171.7291,255.4487,172.3358,257.5239,173.3239,259.5495,174.1878,261.4117,174.6433,263.5,175.6641,263.4904,175.64,261.4472,176.3321,259.4525,177.1454,257.4916,178.043,255.4144,178.6501,253.5,179.6641,253.6305,179.7946,254.1514,178.7155,255.0534,178.0174,256.0018,177.3659,256.6798,176.4438,257.5,175.6641,257.5161,175.6801,256.6925,174.8565,255.9421,174.1061,255.1564,173.3204,254.438,172.6021,253.5,171.6641" style="stroke:#181818;stroke-width:1.0;"/><path d="M124.5,175.6641 L124.5,175.9443 L134.1429,175.1116 L143.7857,175.9218 L153.4286,176.197 L163.0714,174.7129 L172.7143,175.5604 L182.3571,175.0954 L192,175.1527 L201.6429,175.5732 L211.2857,174.7422 L220.9286,176.4023 L230.5714,174.8237 L240.2143,175.4004 L249.8571,176.24 L259.5,175.6641 " fill="none" style="stroke:#181818;stroke-width:1.0;"/><text fill="#000000" font-family="FG Virgil" font-size="13" lengthAdjust="spacing" textLength="117" x="131.5" y="170.8076">create(theController)</text><polygon fill="#181818" points="248.5,202.0156,248.526,202.0807,250.4487,202.6874,252.5239,203.6754,254.5495,204.5393,256.4117,204.9948,258.5,206.0156,258.4904,205.9916,256.4472,206.6836,254.4525,207.4969,252.4916,208.3945,250.4144,209.0017,248.5,210.0156,248.6305,210.1461,249.1514,209.0671,250.0534,208.369,251.0018,207.7174,251.6798,206.7954,252.5,206.0156,252.5161,206.0317,251.6925,205.2081,250.9421,204.4577,250.1564,203.672,249.438,202.9537,248.5,202.0156" style="stroke:#181818;stroke-width:1.0;"/><path d="M124.5,206.0156 L124.5,206.2959 L134.5,205.4632 L144.5,206.2733 L154.5,206.5485 L164.5,205.0644 L174.5,205.912 L184.5,205.447 L194.5,205.5043 L204.5,205.9247 L214.5,205.0938 L224.5,206.7538 L234.5,205.1753 L244.5,205.7519 L254.5,206.0156 " fill="none" style="stroke:#181818;stroke-width:1.0;"/><text fill="#000000" font-family="FG Virgil" font-size="13" lengthAdjust="spacing" textLength="54" x="131.5" y="201.1592">doShow()</text><polygon fill="#181818" points="33.5,232.3672,33.526,232.4322,31.4487,233.039,29.5239,234.027,27.5495,234.8909,25.4117,235.3464,23.5,236.3672,23.4904,236.3431,25.4472,237.0352,27.4525,237.8485,29.4916,238.7461,31.4144,239.3532,33.5,240.3672,33.6305,240.4977,32.5514,239.4186,31.8534,238.7206,31.2018,238.069,30.2798,237.147,29.5,236.3672,29.5161,236.3833,30.2925,235.5597,31.1421,234.8093,31.9564,234.0236,32.838,233.3052,33.5,232.3672" style="stroke:#181818;stroke-width:1.0;"/><path d="M27.5,236.3672 L27.5,236.6474 L37.587,235.8148 L47.6739,236.6249 L57.7609,236.9001 L67.8478,235.416 L77.9348,236.2636 L88.0217,235.7985 L98.1087,235.8559 L108.1957,236.2763 L118.2826,235.4454 L128.3696,237.1054 L138.4565,235.5268 L148.5435,236.1035 L158.6304,236.9431 L168.7174,236.2528 L178.8043,236.4582 L188.8913,236.3246 L198.9783,236.6052 L209.0652,236.686 L219.1522,237.1481 L229.2391,237.2619 L239.3261,237.2729 L249.413,236.7067 L259.5,236.3672 " fill="none" style="stroke:#181818;stroke-width:1.0;"/><text fill="#000000" font-family="FG Virgil" font-size="13" lengthAdjust="spacing" textLength="140" x="39.5" y="231.5107">ask email and password</text><polygon fill="#181818" points="248.5,262.7188,248.526,262.7838,250.4487,263.3905,252.5239,264.3786,254.5495,265.2424,256.4117,265.698,258.5,266.7188,258.4904,266.6947,256.4472,267.3868,254.4525,268.2001,252.4916,269.0977,250.4144,269.7048,248.5,270.7188,248.6305,270.8492,249.1514,269.7702,250.0534,269.0721,251.0018,268.4206,251.6798,267.4985,252.5,266.7188,252.5161,266.7348,251.6925,265.9112,250.9421,265.1608,250.1564,264.3751,249.438,263.6568,248.5,262.7188" style="stroke:#181818;stroke-width:1.0;"/><path d="M22.5,266.7188 L22.5,266.999 L32.587,266.1663 L42.6739,266.9765 L52.7609,267.2517 L62.8478,265.7676 L72.9348,266.6151 L83.0217,266.1501 L93.1087,266.2074 L103.1957,266.6279 L113.2826,265.7969 L123.3696,267.4569 L133.4565,265.8784 L143.5435,266.4551 L153.6304,267.2947 L163.7174,266.6044 L173.8043,266.8097 L183.8913,266.6762 L193.9783,266.9568 L204.0652,267.0376 L214.1522,267.4997 L224.2391,267.6135 L234.3261,267.6244 L244.413,267.0583 L254.5,266.7188 " fill="none" style="stroke:#181818;stroke-width:1.0;"/><text fill="#000000" font-family="FG Virgil" font-size="13" lengthAdjust="spacing" textLength="98" x="29.5" y="261.8623">Email, Password</text><polygon fill="#181818" points="755.5,293.0703,755.526,293.1354,757.4487,293.7421,759.5239,294.7301,761.5495,295.594,763.4117,296.0495,765.5,297.0703,765.4904,297.0463,763.4472,297.7383,761.4525,298.5516,759.4916,299.4492,757.4144,300.0563,755.5,301.0703,755.6305,301.2008,756.1514,300.1218,757.0534,299.4237,758.0018,298.7721,758.6798,297.8501,759.5,297.0703,759.5161,297.0864,758.6925,296.2628,757.9421,295.5124,757.1564,294.7267,756.438,294.0084,755.5,293.0703" style="stroke:#181818;stroke-width:1.0;"/><path d="M427.5,297.0703 L427.5,297.3506 L437.6212,296.5179 L447.7424,297.328 L457.8636,297.6032 L467.9848,296.1191 L478.1061,296.9667 L488.2273,296.5017 L498.3485,296.559 L508.4697,296.9794 L518.5909,296.1485 L528.7121,297.8085 L538.8333,296.2299 L548.9545,296.8066 L559.0758,297.6462 L569.197,296.9559 L579.3182,297.1613 L589.4394,297.0277 L599.5606,297.3083 L609.6818,297.3892 L619.803,297.8512 L629.9242,297.9651 L640.0455,297.976 L650.1667,297.4098 L660.2879,297.6884 L670.4091,298.0066 L680.5303,296.1087 L690.6515,297.975 L700.7727,296.675 L710.8939,297.7821 L721.0152,296.4103 L731.1364,296.979 L741.2576,298.0591 L751.3788,297.0053 L761.5,297.0703 " fill="none" style="stroke:#181818;stroke-width:1.0;"/><text fill="#000000" font-family="FG Virgil" font-size="13" lengthAdjust="spacing" textLength="72" x="434.5" y="292.2139">create(sock)</text><polygon fill="#181818" points="405.5,323.4219,405.526,323.4869,407.4487,324.0936,409.5239,325.0817,411.5495,325.9456,413.4117,326.4011,415.5,327.4219,415.4904,327.3978,413.4472,328.0899,411.4525,328.9032,409.4916,329.8008,407.4144,330.4079,405.5,331.4219,405.6305,331.5524,406.1514,330.4733,407.0534,329.7753,408.0018,329.1237,408.6798,328.2017,409.5,327.4219,409.5161,327.438,408.6925,326.6143,407.9421,325.864,407.1564,325.0782,406.438,324.3599,405.5,323.4219" style="stroke:#181818;stroke-width:1.0;"/><path d="M270.5,327.4219 L270.5,327.7021 L280.5714,326.8694 L290.6429,327.6796 L300.7143,327.9548 L310.7857,326.4707 L320.8571,327.3183 L330.9286,326.8532 L341,326.9105 L351.0714,327.331 L361.1429,326.5 L371.2143,328.1601 L381.2857,326.5815 L391.3571,327.1582 L401.4286,327.9978 L411.5,327.4219 " fill="none" style="stroke:#181818;stroke-width:1.0;"/><text fill="#000000" font-family="FG Virgil" font-size="13" lengthAdjust="spacing" textLength="104" x="277.5" y="322.5654">authenticate(data)</text><polygon fill="#181818" points="755.5,353.7734,755.526,353.8385,757.4487,354.4452,759.5239,355.4333,761.5495,356.2971,763.4117,356.7526,765.5,357.7734,765.4904,357.7494,763.4472,358.4414,761.4525,359.2547,759.4916,360.1523,757.4144,360.7595,755.5,361.7734,755.6305,361.9039,756.1514,360.8249,757.0534,360.1268,758.0018,359.4752,758.6798,358.5532,759.5,357.7734,759.5161,357.7895,758.6925,356.9659,757.9421,356.2155,757.1564,355.4298,756.438,354.7115,755.5,353.7734" style="stroke:#181818;stroke-width:1.0;"/><path d="M427.5,357.7734 L427.5,358.0537 L437.6212,357.221 L447.7424,358.0312 L457.8636,358.3063 L467.9848,356.8222 L478.1061,357.6698 L488.2273,357.2048 L498.3485,357.2621 L508.4697,357.6826 L518.5909,356.8516 L528.7121,358.5116 L538.8333,356.9331 L548.9545,357.5097 L559.0758,358.3494 L569.197,357.6591 L579.3182,357.8644 L589.4394,357.7308 L599.5606,358.0115 L609.6818,358.0923 L619.803,358.5544 L629.9242,358.6682 L640.0455,358.6791 L650.1667,358.1129 L660.2879,358.3916 L670.4091,358.7097 L680.5303,356.8119 L690.6515,358.6781 L700.7727,357.3781 L710.8939,358.4852 L721.0152,357.1134 L731.1364,357.6821 L741.2576,358.7622 L751.3788,357.7085 L761.5,357.7734 " fill="none" style="stroke:#181818;stroke-width:1.0;"/><text fill="#000000" font-family="FG Virgil" font-size="13" lengthAdjust="spacing" textLength="316" x="434.5" y="352.917">sendMessage(VERSION, MessageCodes.AUTH, data)</text><polygon fill="#181818" points="750.5,384.125,750.526,384.19,752.4487,384.7968,754.5239,385.7848,756.5495,386.6487,758.4117,387.1042,760.5,388.125,760.4904,388.1009,758.4472,388.793,756.4525,389.6063,754.4916,390.5039,752.4144,391.111,750.5,392.125,750.6305,392.2555,751.1514,391.1764,752.0534,390.4784,753.0018,389.8268,753.6798,388.9048,754.5,388.125,754.5161,388.1411,753.6925,387.3175,752.9421,386.5671,752.1564,385.7814,751.438,385.063,750.5,384.125" style="stroke:#181818;stroke-width:1.0;"/><path d="M427.5,388.125 L427.5,388.4052 L437.4697,387.5726 L447.4394,388.3827 L457.4091,388.6579 L467.3788,387.1738 L477.3485,388.0214 L487.3182,387.5563 L497.2879,387.6137 L507.2576,388.0341 L517.2273,387.2032 L527.197,388.8632 L537.1667,387.2846 L547.1364,387.8613 L557.1061,388.7009 L567.0758,388.0106 L577.0455,388.216 L587.0152,388.0824 L596.9848,388.363 L606.9545,388.4438 L616.9242,388.9059 L626.8939,389.0197 L636.8636,389.0307 L646.8333,388.4645 L656.803,388.7431 L666.7727,389.0613 L676.7424,387.1634 L686.7121,389.0297 L696.6818,387.7297 L706.6515,388.8367 L716.6212,387.465 L726.5909,388.0337 L736.5606,389.1138 L746.5303,388.06 L756.5,388.125 " fill="none" style="stroke:#181818;stroke-width:1.0;"/><text fill="#000000" font-family="FG Virgil" font-size="13" lengthAdjust="spacing" textLength="86" x="434.5" y="383.2686">readMessage()</text><polygon fill="#181818" points="438.5,414.4766,438.526,414.5416,436.4487,415.1483,434.5239,416.1364,432.5495,417.0003,430.4117,417.4558,428.5,418.4766,428.4904,418.4525,430.4472,419.1446,432.4525,419.9579,434.4916,420.8555,436.4144,421.4626,438.5,422.4766,438.6305,422.6071,437.5514,421.528,436.8534,420.8299,436.2018,420.1784,435.2798,419.2563,434.5,418.4766,434.5161,418.4926,435.2925,417.669,436.1421,416.9186,436.9564,416.1329,437.838,415.4146,438.5,414.4766" style="stroke:#181818;stroke-width:1.0;"/><path d="M432.5,418.4766 L432.5,418.7568 L442.6212,417.9241 L452.7424,418.7343 L462.8636,419.0095 L472.9848,417.5254 L483.1061,418.3729 L493.2273,417.9079 L503.3485,417.9652 L513.4697,418.3857 L523.5909,417.5547 L533.7121,419.2148 L543.8333,417.6362 L553.9545,418.2129 L564.0758,419.0525 L574.197,418.3622 L584.3182,418.5675 L594.4394,418.434 L604.5606,418.7146 L614.6818,418.7954 L624.803,419.2575 L634.9242,419.3713 L645.0455,419.3822 L655.1667,418.8161 L665.2879,419.0947 L675.4091,419.4129 L685.5303,417.515 L695.6515,419.3812 L705.7727,418.0812 L715.8939,419.1883 L726.0152,417.8165 L736.1364,418.3852 L746.2576,419.4654 L756.3788,418.4116 L766.5,418.4766 " fill="none" style="stroke:#181818;stroke-width:1.0;"/><text fill="#000000" font-family="FG Virgil" font-size="13" lengthAdjust="spacing" textLength="32" x="444.5" y="413.6201">result</text><polygon fill="#181818" points="281.5,444.8281,281.526,444.8932,279.4487,445.4999,277.5239,446.4879,275.5495,447.3518,273.4117,447.8073,271.5,448.8281,271.4904,448.8041,273.4472,449.4961,275.4525,450.3094,277.4916,451.207,279.4144,451.8142,281.5,452.8281,281.6305,452.9586,280.5514,451.8796,279.8534,451.1815,279.2018,450.5299,278.2798,449.6079,277.5,448.8281,277.5161,448.8442,278.2925,448.0206,279.1421,447.2702,279.9564,446.4845,280.838,445.7662,281.5,444.8281" style="stroke:#181818;stroke-width:1.0;"/><path d="M275.5,448.8281 L275.5,449.1084 L285.5714,448.2757 L295.6429,449.0858 L305.7143,449.361 L315.7857,447.8769 L325.8571,448.7245 L335.9286,448.2595 L346,448.3168 L356.0714,448.7372 L366.1429,447.9063 L376.2143,449.5663 L386.2857,447.9878 L396.3571,448.5644 L406.4286,449.4041 L416.5,448.8281 " fill="none" style="stroke:#181818;stroke-width:1.0;"/><text fill="#000000" font-family="FG Virgil" font-size="13" lengthAdjust="spacing" textLength="32" x="287.5" y="443.9717">result</text><polygon fill="#181818" points="33.5,475.1797,33.526,475.2447,31.4487,475.8515,29.5239,476.8395,27.5495,477.7034,25.4117,478.1589,23.5,479.1797,23.4904,479.1556,25.4472,479.8477,27.4525,480.661,29.4916,481.5586,31.4144,482.1657,33.5,483.1797,33.6305,483.3102,32.5514,482.2311,31.8534,481.5331,31.2018,480.8815,30.2798,479.9595,29.5,479.1797,29.5161,479.1958,30.2925,478.3722,31.1421,477.6218,31.9564,476.8361,32.838,476.1177,33.5,475.1797" style="stroke:#181818;stroke-width:1.0;"/><path d="M27.5,479.1797 L27.5,479.4599 L37.375,478.6273 L47.25,479.4374 L57.125,479.7126 L67,478.2285 L76.875,479.0761 L86.75,478.611 L96.625,478.6684 L106.5,479.0888 L116.375,478.2579 L126.25,479.9179 L136.125,478.3393 L146,478.916 L155.875,479.7556 L165.75,479.0653 L175.625,479.2707 L185.5,479.1371 L195.375,479.4177 L205.25,479.4985 L215.125,479.9606 L225,480.0744 L234.875,480.0854 L244.75,479.5192 L254.625,479.7978 L264.5,479.1797 " fill="none" style="stroke:#181818;stroke-width:1.0;"/><text fill="#000000" font-family="FG Virgil" font-size="13" lengthAdjust="spacing" textLength="188" x="39.5" y="474.3232">displayAuthenticateSuccessfully</text><!--MD5=[e7d27fc40981900cc968eba499a78633]
@startuml
'http://plantuml.com/skinparam.html
skinparam handwritten true
skinparam monochrome true
skinparam packageStyle rect
skinparam defaultFontName FG Virgil
skinparam shadowing false

actor User as Actor
participant MainMenuUI as UI <<presentation>>
participant LoginUI as LogUI <<presentation>>
participant SharedBoardAppController as Controller <<application>>
participant MessageFormat as MF <<util>>

Actor - -> UI: Authenticate
activate UI
    UI -> Controller: create(sock)

    UI -> LogUI: create(theController)
    UI -> LogUI: doShow()
    activate LogUI

    LogUI -> Actor: ask email and password
    Actor -> LogUI: Email, Password

    Controller -> MF: create(sock)
    activate Controller
    LogUI -> Controller: authenticate(data)


    Controller -> MF: sendMessage(VERSION, MessageCodes.AUTH, data)

    Controller -> MF: readMessage()
    activate MF
    MF -> Controller: result
    deactivate MF

    Controller -> LogUI: result
    LogUI -> Actor: displayAuthenticateSuccessfully
    deactivate Controller

deactivate LogUI
deactivate UI
@enduml

@startuml
skinparam handwritten true
skinparam monochrome true
skinparam packageStyle rect
skinparam defaultFontName FG Virgil
skinparam shadowing false

actor User as Actor
participant MainMenuUI as UI <<presentation>>
participant LoginUI as LogUI <<presentation>>
participant SharedBoardAppController as Controller <<application>>
participant MessageFormat as MF <<util>>

Actor - -> UI: Authenticate
activate UI
    UI -> Controller: create(sock)

    UI -> LogUI: create(theController)
    UI -> LogUI: doShow()
    activate LogUI

    LogUI -> Actor: ask email and password
    Actor -> LogUI: Email, Password

    Controller -> MF: create(sock)
    activate Controller
    LogUI -> Controller: authenticate(data)


    Controller -> MF: sendMessage(VERSION, MessageCodes.AUTH, data)

    Controller -> MF: readMessage()
    activate MF
    MF -> Controller: result
    deactivate MF

    Controller -> LogUI: result
    LogUI -> Actor: displayAuthenticateSuccessfully
    deactivate Controller

deactivate LogUI
deactivate UI
@enduml

PlantUML version 1.2022.7(Mon Aug 22 18:01:30 BST 2022)
(GPL source distribution)
Java Runtime: Java(TM) SE Runtime Environment
JVM: Java HotSpot(TM) 64-Bit Server VM
Default Encoding: Cp1252
Language: pt
Country: PT
--></g></svg>