<?xml version="1.0" encoding="us-ascii" standalone="no"?><svg xmlns="http://www.w3.org/2000/svg" xmlns:xlink="http://www.w3.org/1999/xlink" contentStyleType="text/css" height="559px" preserveAspectRatio="none" style="width:981px;height:559px;background:#FFFFFF;" version="1.1" viewBox="0 0 981 559" width="981px" zoomAndPan="magnify"><defs/><g><text fill="#000000" font-family="sans-serif" font-size="14" font-weight="bold" lengthAdjust="spacing" textLength="144" x="411.5" y="23.5352">System Architecture</text><!--cluster Console--><g id="cluster_Console"><path d="M8.5,43.4883 L67.5,43.4883 A3.75,3.75 0 0 1 70,45.9883 L77,65.9766 L687.5,65.9766 A2.5,2.5 0 0 1 690,68.4766 L690,138.4783 A2.5,2.5 0 0 1 687.5,140.9783 L8.5,140.9783 A2.5,2.5 0 0 1 6,138.4783 L6,45.9883 A2.5,2.5 0 0 1 8.5,43.4883 " fill="none" style="stroke:#000000;stroke-width:1.5;"/><line style="stroke:#000000;stroke-width:1.5;" x1="6" x2="77" y1="65.9766" y2="65.9766"/><text fill="#000000" font-family="sans-serif" font-size="14" font-weight="bold" lengthAdjust="spacing" textLength="58" x="10" y="59.0234">Console</text></g><!--cluster Web--><g id="cluster_Web"><path d="M716.5,43.4883 L747.5,43.4883 A3.75,3.75 0 0 1 750,45.9883 L757,65.9766 L919.5,65.9766 A2.5,2.5 0 0 1 922,68.4766 L922,138.4783 A2.5,2.5 0 0 1 919.5,140.9783 L716.5,140.9783 A2.5,2.5 0 0 1 714,138.4783 L714,45.9883 A2.5,2.5 0 0 1 716.5,43.4883 " fill="none" style="stroke:#000000;stroke-width:1.5;"/><line style="stroke:#000000;stroke-width:1.5;" x1="714" x2="757" y1="65.9766" y2="65.9766"/><text fill="#000000" font-family="sans-serif" font-size="14" font-weight="bold" lengthAdjust="spacing" textLength="30" x="718" y="59.0234">Web</text></g><!--cluster Server--><g id="cluster_Server"><path d="M536.5,189.9783 L581.5,189.9783 A3.75,3.75 0 0 1 584,192.4783 L591,212.4666 L647.5,212.4666 A2.5,2.5 0 0 1 650,214.9666 L650,284.9683 A2.5,2.5 0 0 1 647.5,287.4683 L536.5,287.4683 A2.5,2.5 0 0 1 534,284.9683 L534,192.4783 A2.5,2.5 0 0 1 536.5,189.9783 " fill="none" style="stroke:#000000;stroke-width:1.5;"/><line style="stroke:#000000;stroke-width:1.5;" x1="534" x2="591" y1="212.4666" y2="212.4666"/><text fill="#000000" font-family="sans-serif" font-size="14" font-weight="bold" lengthAdjust="spacing" textLength="44" x="538" y="205.5134">Server</text></g><!--cluster Domain--><g id="cluster_Domain"><path d="M276.5,336.4683 L333.5,336.4683 A3.75,3.75 0 0 1 336,338.9683 L343,358.9566 L377.5,358.9566 A2.5,2.5 0 0 1 380,361.4566 L380,431.4583 A2.5,2.5 0 0 1 377.5,433.9583 L276.5,433.9583 A2.5,2.5 0 0 1 274,431.4583 L274,338.9683 A2.5,2.5 0 0 1 276.5,336.4683 " fill="none" style="stroke:#000000;stroke-width:1.5;"/><line style="stroke:#000000;stroke-width:1.5;" x1="274" x2="343" y1="358.9566" y2="358.9566"/><text fill="#000000" font-family="sans-serif" font-size="14" font-weight="bold" lengthAdjust="spacing" textLength="56" x="278" y="352.0034">Domain</text></g><!--entity StudentApp--><g id="elem_StudentApp"><polygon fill="#F1F1F1" points="21.5,88.4883,31.5,78.4883,146.5,78.4883,146.5,114.9766,136.5,124.9766,21.5,124.9766,21.5,88.4883" style="stroke:#181818;stroke-width:0.5;"/><line style="stroke:#181818;stroke-width:0.5;" x1="136.5" x2="146.5" y1="88.4883" y2="78.4883"/><line style="stroke:#181818;stroke-width:0.5;" x1="21.5" x2="136.5" y1="88.4883" y2="88.4883"/><line style="stroke:#181818;stroke-width:0.5;" x1="136.5" x2="136.5" y1="88.4883" y2="124.9766"/><text fill="#000000" font-family="sans-serif" font-size="14" lengthAdjust="spacing" textLength="85" x="36.5" y="112.0234">Student App</text></g><!--entity TeacherApp--><g id="elem_TeacherApp"><polygon fill="#F1F1F1" points="181.5,88.4883,191.5,78.4883,308.5,78.4883,308.5,114.9766,298.5,124.9766,181.5,124.9766,181.5,88.4883" style="stroke:#181818;stroke-width:0.5;"/><line style="stroke:#181818;stroke-width:0.5;" x1="298.5" x2="308.5" y1="88.4883" y2="78.4883"/><line style="stroke:#181818;stroke-width:0.5;" x1="181.5" x2="298.5" y1="88.4883" y2="88.4883"/><line style="stroke:#181818;stroke-width:0.5;" x1="298.5" x2="298.5" y1="88.4883" y2="124.9766"/><text fill="#000000" font-family="sans-serif" font-size="14" lengthAdjust="spacing" textLength="87" x="196.5" y="112.0234">Teacher App</text></g><!--entity ManagerApp--><g id="elem_ManagerApp"><polygon fill="#F1F1F1" points="343,88.4883,353,78.4883,475,78.4883,475,114.9766,465,124.9766,343,124.9766,343,88.4883" style="stroke:#181818;stroke-width:0.5;"/><line style="stroke:#181818;stroke-width:0.5;" x1="465" x2="475" y1="88.4883" y2="78.4883"/><line style="stroke:#181818;stroke-width:0.5;" x1="343" x2="465" y1="88.4883" y2="88.4883"/><line style="stroke:#181818;stroke-width:0.5;" x1="465" x2="465" y1="88.4883" y2="124.9766"/><text fill="#000000" font-family="sans-serif" font-size="14" lengthAdjust="spacing" textLength="92" x="358" y="112.0234">Manager App</text></g><!--entity SharedBoard--><g id="elem_SharedBoard"><polygon fill="#F1F1F1" points="510,88.4883,520,78.4883,674,78.4883,674,114.9766,664,124.9766,510,124.9766,510,88.4883" style="stroke:#181818;stroke-width:0.5;"/><line style="stroke:#181818;stroke-width:0.5;" x1="664" x2="674" y1="88.4883" y2="78.4883"/><line style="stroke:#181818;stroke-width:0.5;" x1="510" x2="664" y1="88.4883" y2="88.4883"/><line style="stroke:#181818;stroke-width:0.5;" x1="664" x2="664" y1="88.4883" y2="124.9766"/><text fill="#000000" font-family="sans-serif" font-size="14" lengthAdjust="spacing" textLength="124" x="525" y="112.0234">Shared Board App</text></g><!--entity BoardViewer--><g id="elem_BoardViewer"><polygon fill="#F1F1F1" points="729.5,88.4883,739.5,78.4883,906.5,78.4883,906.5,114.9766,896.5,124.9766,729.5,124.9766,729.5,88.4883" style="stroke:#181818;stroke-width:0.5;"/><line style="stroke:#181818;stroke-width:0.5;" x1="896.5" x2="906.5" y1="88.4883" y2="78.4883"/><line style="stroke:#181818;stroke-width:0.5;" x1="729.5" x2="896.5" y1="88.4883" y2="88.4883"/><line style="stroke:#181818;stroke-width:0.5;" x1="896.5" x2="896.5" y1="88.4883" y2="124.9766"/><text fill="#000000" font-family="sans-serif" font-size="14" lengthAdjust="spacing" textLength="137" x="744.5" y="112.0234">(AJAX) Board Viewer</text></g><!--entity server--><g id="elem_server"><polygon fill="#F1F1F1" points="550.5,234.9783,560.5,224.9783,633.5,224.9783,633.5,261.4666,623.5,271.4666,550.5,271.4666,550.5,234.9783" style="stroke:#181818;stroke-width:0.5;"/><line style="stroke:#181818;stroke-width:0.5;" x1="623.5" x2="633.5" y1="234.9783" y2="224.9783"/><line style="stroke:#181818;stroke-width:0.5;" x1="550.5" x2="623.5" y1="234.9783" y2="234.9783"/><line style="stroke:#181818;stroke-width:0.5;" x1="623.5" x2="623.5" y1="234.9783" y2="271.4666"/><text fill="#000000" font-family="sans-serif" font-size="14" lengthAdjust="spacing" textLength="43" x="565.5" y="258.5134">Server</text></g><!--entity core--><g id="elem_core"><rect fill="#F1F1F1" height="46.4883" rx="2.5" ry="2.5" style="stroke:#181818;stroke-width:0.5;" width="73" x="290.5" y="371.4683"/><rect fill="#F1F1F1" height="10" style="stroke:#181818;stroke-width:0.5;" width="15" x="343.5" y="376.4683"/><rect fill="#F1F1F1" height="2" style="stroke:#181818;stroke-width:0.5;" width="4" x="341.5" y="378.4683"/><rect fill="#F1F1F1" height="2" style="stroke:#181818;stroke-width:0.5;" width="4" x="341.5" y="382.4683"/><text fill="#000000" font-family="sans-serif" font-size="14" lengthAdjust="spacing" textLength="33" x="305.5" y="405.0034">Core</text></g><!--entity db--><g id="elem_db"><path d="M285.5,503.8283 C285.5,493.8283 327,493.8283 327,493.8283 C327,493.8283 368.5,493.8283 368.5,503.8283 L368.5,529.3166 C368.5,539.3166 327,539.3166 327,539.3166 C327,539.3166 285.5,539.3166 285.5,529.3166 L285.5,503.8283 " fill="#F1F1F1" style="stroke:#181818;stroke-width:0.5;"/><path d="M285.5,503.8283 C285.5,513.8283 327,513.8283 327,513.8283 C327,513.8283 368.5,513.8283 368.5,503.8283 " fill="none" style="stroke:#181818;stroke-width:0.5;"/><text fill="#000000" font-family="sans-serif" font-size="14" lengthAdjust="spacing" textLength="63" x="295.5" y="531.3634">Database</text></g><g id="elem_GMN21"><path d="M398.5,382.0583 L398.5,390.7083 L363.69,394.7083 L398.5,398.7083 L398.5,407.3688 A0,0 0 0 0 398.5,407.3688 L627.5,407.3688 A0,0 0 0 0 627.5,407.3688 L627.5,392.0583 L617.5,382.0583 L398.5,382.0583 A0,0 0 0 0 398.5,382.0583 " fill="#FEFFDD" style="stroke:#181818;stroke-width:0.5;"/><path d="M617.5,382.0583 L617.5,392.0583 L627.5,392.0583 L617.5,382.0583 " fill="#FEFFDD" style="stroke:#181818;stroke-width:0.5;"/><text fill="#000000" font-family="sans-serif" font-size="13" lengthAdjust="spacing" textLength="208" x="404.5" y="399.6266">Uses JPA to manage the database</text></g><g id="elem_GMN24"><path d="M81.5,480.9583 L81.5,552.2005 A0,0 0 0 0 81.5,552.2005 L250.5,552.2005 A0,0 0 0 0 250.5,552.2005 L250.5,520.5783 L285.09,516.5783 L250.5,512.5783 L250.5,490.9583 L240.5,480.9583 L81.5,480.9583 A0,0 0 0 0 81.5,480.9583 " fill="#FEFFDD" style="stroke:#181818;stroke-width:0.5;"/><path d="M240.5,480.9583 L240.5,490.9583 L250.5,490.9583 L240.5,480.9583 " fill="#FEFFDD" style="stroke:#181818;stroke-width:0.5;"/><text fill="#000000" font-family="sans-serif" font-size="13" lengthAdjust="spacing" textLength="99" x="87.5" y="498.5266">We are using an</text><text fill="#000000" font-family="sans-serif" font-size="13" lengthAdjust="spacing" textLength="98" x="87.5" y="513.8372">ISEP H2 docker,</text><text fill="#000000" font-family="sans-serif" font-size="13" lengthAdjust="spacing" textLength="115" x="87.5" y="529.1477">however any other</text><text fill="#000000" font-family="sans-serif" font-size="13" lengthAdjust="spacing" textLength="148" x="87.5" y="544.4583">database could be used</text></g><!--link StudentApp to core--><g id="link_StudentApp_core"><path d="M99.18,125.2283 C124.4,162.0583 177.18,236.9883 228,295.4683 C250.24,321.0583 277.78,348.0583 298.15,367.2583 " fill="none" id="StudentApp-to-core" style="stroke:#181818;stroke-width:1.0;"/><polygon fill="#181818" points="301.39,370.2283,297.541,361.1627,297.7352,366.8162,292.0817,367.0103,301.39,370.2283" style="stroke:#181818;stroke-width:1.0;"/><text fill="#000000" font-family="sans-serif" font-size="13" lengthAdjust="spacing" textLength="29" x="229" y="253.2966">uses</text></g><!--link TeacherApp to core--><g id="link_TeacherApp_core"><path d="M251.3,125.0883 C266.05,177.4483 302.84,307.9883 319.08,365.6183 " fill="none" id="TeacherApp-to-core" style="stroke:#181818;stroke-width:1.0;"/><polygon fill="#181818" points="320.68,370.2883,322.088,360.5406,319.3234,365.4758,314.3881,362.7112,320.68,370.2883" style="stroke:#181818;stroke-width:1.0;"/><text fill="#000000" font-family="sans-serif" font-size="13" lengthAdjust="spacing" textLength="29" x="299" y="253.2966">uses</text></g><!--link ManagerApp to core--><g id="link_ManagerApp_core"><path d="M402.7,125.0883 C387.95,177.4483 351.16,307.9883 334.92,365.6183 " fill="none" id="ManagerApp-to-core" style="stroke:#181818;stroke-width:1.0;"/><polygon fill="#181818" points="333.32,370.2883,339.6119,362.7112,334.6766,365.4758,331.912,360.5406,333.32,370.2883" style="stroke:#181818;stroke-width:1.0;"/><text fill="#000000" font-family="sans-serif" font-size="13" lengthAdjust="spacing" textLength="29" x="387" y="253.2966">uses</text></g><!--link server to core--><g id="link_server_core"><path d="M550.14,268.9983 C515.58,284.7083 464.94,306.3083 419,320.4683 C402.51,325.5483 395.77,319.5383 381,328.4683 C365.64,337.7483 352.66,352.9983 343.27,366.4283 " fill="none" id="server-to-core" style="stroke:#181818;stroke-width:1.0;"/><polygon fill="#181818" points="339.98,370.2783,348.346,365.0812,342.7896,366.1423,341.7285,360.5859,339.98,370.2783" style="stroke:#181818;stroke-width:1.0;"/><text fill="#000000" font-family="sans-serif" font-size="13" lengthAdjust="spacing" textLength="29" x="468" y="317.0366">uses</text></g><!--link BoardViewer to server--><g id="link_BoardViewer_server"><path d="M808.67,125.2883 C801.27,140.7883 789.57,160.8683 774,173.9783 C734.9,206.9183 679.07,226.4183 639.58,236.9083 " fill="none" id="BoardViewer-to-server" style="stroke:#181818;stroke-width:1.0;stroke-dasharray:7.0,7.0;"/><polygon fill="#181818" points="634.88,238.3883,644.5963,239.9986,639.7196,237.132,642.5862,232.2553,634.88,238.3883" style="stroke:#181818;stroke-width:1.0;"/><text fill="#000000" font-family="sans-serif" font-size="13" lengthAdjust="spacing" textLength="183" x="790" y="170.5466">communicates through HTTP</text></g><!--link SharedBoard to server--><g id="link_SharedBoard_server"><path d="M592,125.3083 C592,150.5483 592,191.4583 592,218.8383 " fill="none" id="SharedBoard-to-server" style="stroke:#181818;stroke-width:1.0;stroke-dasharray:7.0,7.0;"/><polygon fill="#181818" points="592,223.8083,596,214.8083,592,218.8083,588,214.8083,592,223.8083" style="stroke:#181818;stroke-width:1.0;"/><text fill="#000000" font-family="sans-serif" font-size="13" lengthAdjust="spacing" textLength="174" x="593" y="170.5466">communicates through TCP</text></g><!--link core to db--><g id="link_core_db"><path d="M327,418.2583 C327,437.9683 327,466.6683 327,487.7883 " fill="none" id="core-to-db" style="stroke:#181818;stroke-width:1.0;"/><polygon fill="#181818" points="327,492.5383,331,483.5383,327,487.5383,323,483.5383,327,492.5383" style="stroke:#181818;stroke-width:1.0;"/></g><!--SRC=[ZL6nJiCm4Dtz5QTE8447HePAeKKgbP0Y9L1MnxucKHDVP3jK5UBViQ-X2Ur25lkUttjtz-9hto1aH-UnXSIgglQeV6zHY4wglImHbcGSDVWb87o6DC8iyxr6uo7fkXb81qCTIZ5XvIXLXVRC6keBrgiqeSl86keBLbP9YngUI5ezjcMGCV4z3hp5OZhiJR99Fcu7wNkD1xIiPk1KJzKPsa-qVxPbX3MEhrFwYbfPcnDTKTkHYS4ioMBagt16jfPU5j85izLmOpjT235c1_Vt2rR08_GEdHW3kteQKxfwEiru1Ol9lZ2VBuPTmdCOk-rDhQH71xwor9SLhFCy5PE0_o79bwaGt3BsZhi9Gnx1rcNbWNQdD69GRs4WsAG9U8AMDmac2Byf2JGQedGmQ737-c0PrTiGRMZIkzgK80rZBzbp2ki7qAJsQEyOg-Y0SLnfZa31tp9w_XMA-aP34OrGJrh-0000]--></g></svg>