<?xml version="1.0" encoding="UTF-8" standalone="no"?><svg xmlns="http://www.w3.org/2000/svg" xmlns:xlink="http://www.w3.org/1999/xlink" contentStyleType="text/css" height="2168px" preserveAspectRatio="none" style="width:1451px;height:2168px;background:#FFFFFF;" version="1.1" viewBox="0 0 1451 2168" width="1451px" zoomAndPan="magnify"><defs/><g><!--cluster actors--><g id="cluster_actors"><path d="M143.55,698.7188 L208.55,698.7188 A3.75,3.75 0 0 1 211.05,701.2188 L218.05,728.2734 L615.95,728.2734 A2.5,2.5 0 0 1 618.45,730.7734 L618.45,1078.2188 A2.5,2.5 0 0 1 615.95,1080.7188 L143.55,1080.7188 A2.5,2.5 0 0 1 141.05,1078.2188 L141.05,701.2188 A2.5,2.5 0 0 1 143.55,698.7188 " fill="none" style="stroke:#000000;stroke-width:1.5;"/><line style="stroke:#000000;stroke-width:1.5;" x1="141.05" x2="218.05" y1="728.2734" y2="728.2734"/><text fill="#000000" font-family="sans-serif" font-size="20" font-weight="bold" lengthAdjust="spacing" textLength="64" x="145.05" y="720.0547">actors</text></g><!--cluster Users--><g id="cluster_Users"><path d="M791.45,6.7188 L850.45,6.7188 A3.75,3.75 0 0 1 852.95,9.2188 L859.95,36.2734 L1415.85,36.2734 A2.5,2.5 0 0 1 1418.35,38.7734 L1418.35,332.2188 A2.5,2.5 0 0 1 1415.85,334.7188 L791.45,334.7188 A2.5,2.5 0 0 1 788.95,332.2188 L788.95,9.2188 A2.5,2.5 0 0 1 791.45,6.7188 " fill="none" style="stroke:#000000;stroke-width:1.5;"/><line style="stroke:#000000;stroke-width:1.5;" x1="788.95" x2="859.95" y1="36.2734" y2="36.2734"/><text fill="#000000" font-family="sans-serif" font-size="20" font-weight="bold" lengthAdjust="spacing" textLength="58" x="792.95" y="28.0547">Users</text></g><!--cluster Courses--><g id="cluster_Courses"><path d="M724.81,358.7188 L808.81,358.7188 A3.75,3.75 0 0 1 811.31,361.2188 L818.31,388.2734 L1441.63,388.2734 A2.5,2.5 0 0 1 1444.13,390.7734 L1444.13,1432.2188 A2.5,2.5 0 0 1 1441.63,1434.7188 L724.81,1434.7188 A2.5,2.5 0 0 1 722.31,1432.2188 L722.31,361.2188 A2.5,2.5 0 0 1 724.81,358.7188 " fill="none" style="stroke:#000000;stroke-width:1.5;"/><line style="stroke:#000000;stroke-width:1.5;" x1="722.31" x2="818.31" y1="388.2734" y2="388.2734"/><text fill="#000000" font-family="sans-serif" font-size="20" font-weight="bold" lengthAdjust="spacing" textLength="83" x="726.31" y="380.0547">Courses</text></g><!--cluster Exams--><g id="cluster_Exams"><path d="M431.1,1126.7188 L498.1,1126.7188 A3.75,3.75 0 0 1 500.6,1129.2188 L507.6,1156.2734 L691.81,1156.2734 A2.5,2.5 0 0 1 694.31,1158.7734 L694.31,1624.2188 A2.5,2.5 0 0 1 691.81,1626.7188 L431.1,1626.7188 A2.5,2.5 0 0 1 428.6,1624.2188 L428.6,1129.2188 A2.5,2.5 0 0 1 431.1,1126.7188 " fill="none" style="stroke:#000000;stroke-width:1.5;"/><line style="stroke:#000000;stroke-width:1.5;" x1="428.6" x2="507.6" y1="1156.2734" y2="1156.2734"/><text fill="#000000" font-family="sans-serif" font-size="20" font-weight="bold" lengthAdjust="spacing" textLength="66" x="432.6" y="1148.0547">Exams</text></g><!--cluster Boards--><g id="cluster_Boards"><path d="M114.39,1104.7188 L263.39,1104.7188 A3.75,3.75 0 0 1 265.89,1107.2188 L272.89,1134.2734 L391.71,1134.2734 A2.5,2.5 0 0 1 394.21,1136.7734 L394.21,1769.2188 A2.5,2.5 0 0 1 391.71,1771.7188 L114.39,1771.7188 A2.5,2.5 0 0 1 111.89,1769.2188 L111.89,1107.2188 A2.5,2.5 0 0 1 114.39,1104.7188 " fill="none" style="stroke:#000000;stroke-width:1.5;"/><line style="stroke:#000000;stroke-width:1.5;" x1="111.89" x2="272.89" y1="1134.2734" y2="1134.2734"/><text fill="#000000" font-family="sans-serif" font-size="20" font-weight="bold" lengthAdjust="spacing" textLength="148" x="115.89" y="1126.0547">Shared Boards</text></g><!--cluster Meetings--><g id="cluster_Meetings"><path d="M108,1795.7188 L203,1795.7188 A3.75,3.75 0 0 1 205.5,1798.2188 L212.5,1825.2734 L678.78,1825.2734 A2.5,2.5 0 0 1 681.28,1827.7734 L681.28,2159.2188 A2.5,2.5 0 0 1 678.78,2161.7188 L108,2161.7188 A2.5,2.5 0 0 1 105.5,2159.2188 L105.5,1798.2188 A2.5,2.5 0 0 1 108,1795.7188 " fill="none" style="stroke:#000000;stroke-width:1.5;"/><line style="stroke:#000000;stroke-width:1.5;" x1="105.5" x2="212.5" y1="1825.2734" y2="1825.2734"/><text fill="#000000" font-family="sans-serif" font-size="20" font-weight="bold" lengthAdjust="spacing" textLength="94" x="109.5" y="1817.0547">Meetings</text></g><!--entity man--><g id="elem_man"><ellipse cx="561.45" cy="757.9388" fill="#F1F1F1" rx="16" ry="16" style="stroke:#181818;stroke-width:1.5;"/><path d="M561.45,777.9388 C565.45,777.9388 568.45,777.9388 572.45,773.9388 C580.45,773.9388 588.45,781.9388 588.45,789.9388 L588.45,793.9388 C588.45,797.9388 584.45,801.9388 580.45,801.9388 L542.45,801.9388 C538.45,801.9388 534.45,797.9388 534.45,793.9388 L534.45,789.9388 C534.45,781.9388 542.45,773.9388 550.45,773.9388 C554.45,777.9388 557.45,777.9388 561.45,777.9388 " fill="#F1F1F1" style="stroke:#181818;stroke-width:1.5;"/><text fill="#000000" font-family="sans-serif" font-size="20" lengthAdjust="spacing" textLength="82" x="520.45" y="822.7747">Manager</text></g><!--entity tea--><g id="elem_tea"><ellipse cx="253.05" cy="873.9388" fill="#F1F1F1" rx="16" ry="16" style="stroke:#181818;stroke-width:1.5;"/><path d="M253.05,893.9388 C257.05,893.9388 260.05,893.9388 264.05,889.9388 C272.05,889.9388 280.05,897.9388 280.05,905.9388 L280.05,909.9388 C280.05,913.9388 276.05,917.9388 272.05,917.9388 L234.05,917.9388 C230.05,917.9388 226.05,913.9388 226.05,909.9388 L226.05,905.9388 C226.05,897.9388 234.05,889.9388 242.05,889.9388 C246.05,893.9388 249.05,893.9388 253.05,893.9388 " fill="#F1F1F1" style="stroke:#181818;stroke-width:1.5;"/><text fill="#000000" font-family="sans-serif" font-size="20" lengthAdjust="spacing" textLength="76" x="215.05" y="938.7747">Teacher</text></g><!--entity stu--><g id="elem_stu"><ellipse cx="253.05" cy="995.9388" fill="#F1F1F1" rx="16" ry="16" style="stroke:#181818;stroke-width:1.5;"/><path d="M253.05,1015.9388 C257.05,1015.9388 260.05,1015.9388 264.05,1011.9388 C272.05,1011.9388 280.05,1019.9388 280.05,1027.9388 L280.05,1031.9388 C280.05,1035.9388 276.05,1039.9388 272.05,1039.9388 L234.05,1039.9388 C230.05,1039.9388 226.05,1035.9388 226.05,1031.9388 L226.05,1027.9388 C226.05,1019.9388 234.05,1011.9388 242.05,1011.9388 C246.05,1015.9388 249.05,1015.9388 253.05,1015.9388 " fill="#F1F1F1" style="stroke:#181818;stroke-width:1.5;"/><text fill="#000000" font-family="sans-serif" font-size="20" lengthAdjust="spacing" textLength="73" x="216.55" y="1060.7747">Student</text></g><g id="elem_GMN6"><path d="M157.05,740.3888 L157.05,821.0528 A0,0 0 0 0 157.05,821.0528 L349.05,821.0528 A0,0 0 0 0 349.05,821.0528 L349.05,785.6488 L520.18,783.3287 L349.05,777.6488 L349.05,750.3888 L339.05,740.3888 L157.05,740.3888 A0,0 0 0 0 157.05,740.3888 " fill="#FEFFDD" style="stroke:#181818;stroke-width:0.5;"/><path d="M339.05,740.3888 L339.05,750.3888 L349.05,750.3888 L339.05,740.3888 " fill="#FEFFDD" style="stroke:#181818;stroke-width:0.5;"/><text fill="#000000" font-family="sans-serif" font-size="20" lengthAdjust="spacing" textLength="165" x="163.05" y="764.7247">The manager can</text><text fill="#000000" font-family="sans-serif" font-size="20" lengthAdjust="spacing" textLength="171" x="163.05" y="788.2794">also be refered as</text><text fill="#000000" font-family="sans-serif" font-size="20" lengthAdjust="spacing" textLength="166" x="163.05" y="811.8341">the administrator</text></g><g id="elem_FRU01"><ellipse cx="933.0663" cy="221.714" fill="#F1F1F1" rx="128.1263" ry="28.0253" style="stroke:#181818;stroke-width:0.5;"/><text fill="#000000" font-family="sans-serif" font-size="20" lengthAdjust="spacing" textLength="207" x="826.5663" y="228.632">Management of Users</text></g><g id="elem_FRU011"><ellipse cx="1307.9879" cy="297.7203" fill="#F1F1F1" rx="90.9579" ry="20.5916" style="stroke:#181818;stroke-width:0.5;"/><text fill="#000000" font-family="sans-serif" font-size="20" lengthAdjust="spacing" textLength="111" x="1249.4879" y="304.6383">Create User</text></g><g id="elem_FRU012"><ellipse cx="1307.9861" cy="221.714" fill="#F1F1F1" rx="91.6261" ry="20.7252" style="stroke:#181818;stroke-width:0.5;"/><text fill="#000000" font-family="sans-serif" font-size="20" lengthAdjust="spacing" textLength="113" x="1248.4861" y="228.6319">Enable User</text></g><g id="elem_FRU013"><ellipse cx="1307.9896" cy="144.7207" fill="#F1F1F1" rx="94.3596" ry="21.2719" style="stroke:#181818;stroke-width:0.5;"/><text fill="#000000" font-family="sans-serif" font-size="20" lengthAdjust="spacing" textLength="121" x="1244.4896" y="151.6386">Disable User</text></g><g id="elem_FRU014"><ellipse cx="1307.9878" cy="68.7199" fill="#F1F1F1" rx="79.6778" ry="20.2012" style="stroke:#181818;stroke-width:0.5;"/><text fill="#000000" font-family="sans-serif" font-size="20" lengthAdjust="spacing" textLength="93" x="1258.4878" y="75.6379">List Users</text></g><g id="elem_FRC01"><ellipse cx="933.0665" cy="735.7201" fill="#F1F1F1" rx="99.3565" ry="22.2713" style="stroke:#181818;stroke-width:0.5;"/><text fill="#000000" font-family="sans-serif" font-size="20" lengthAdjust="spacing" textLength="135" x="862.5665" y="742.638">Create Course</text></g><g id="elem_FRC02"><ellipse cx="933.0711" cy="832.719" fill="#F1F1F1" rx="184.8011" ry="39.3602" style="stroke:#181818;stroke-width:0.5;"/><text fill="#000000" font-family="sans-serif" font-size="20" lengthAdjust="spacing" textLength="332" x="767.0711" y="838.2776">Open/Close Enrollments in Course</text></g><g id="elem_FRC021"><ellipse cx="1307.9934" cy="837.7214" fill="#F1F1F1" rx="113.6134" ry="25.1227" style="stroke:#181818;stroke-width:0.5;"/><text fill="#000000" font-family="sans-serif" font-size="20" lengthAdjust="spacing" textLength="172" x="1218.9934" y="844.6394">Open Enrollments</text></g><g id="elem_FRC022"><ellipse cx="1307.9861" cy="752.722" fill="#F1F1F1" rx="114.0161" ry="25.2032" style="stroke:#181818;stroke-width:0.5;"/><text fill="#000000" font-family="sans-serif" font-size="20" lengthAdjust="spacing" textLength="173" x="1218.4861" y="759.6399">Close Enrollments</text></g><g id="elem_FRC03"><ellipse cx="933.0666" cy="933.7181" fill="#F1F1F1" rx="120.1466" ry="26.4293" style="stroke:#181818;stroke-width:0.5;"/><text fill="#000000" font-family="sans-serif" font-size="20" lengthAdjust="spacing" textLength="188" x="836.0666" y="940.636">Open/Close Course</text></g><g id="elem_FRC031"><ellipse cx="1307.9909" cy="1006.7209" fill="#F1F1F1" rx="95.7609" ry="21.5522" style="stroke:#181818;stroke-width:0.5;"/><text fill="#000000" font-family="sans-serif" font-size="20" lengthAdjust="spacing" textLength="125" x="1242.4909" y="1013.6389">Open Course</text></g><g id="elem_FRC032"><ellipse cx="1307.9946" cy="928.7217" fill="#F1F1F1" rx="96.1146" ry="21.6229" style="stroke:#181818;stroke-width:0.5;"/><text fill="#000000" font-family="sans-serif" font-size="20" lengthAdjust="spacing" textLength="126" x="1241.9946" y="935.6396">Close Course</text></g><g id="elem_FRC04"><ellipse cx="933.0725" cy="427.7173" fill="#F1F1F1" rx="122.6425" ry="26.9285" style="stroke:#181818;stroke-width:0.5;"/><text fill="#000000" font-family="sans-serif" font-size="20" lengthAdjust="spacing" textLength="194" x="833.0725" y="434.6352">Set Course Teachers</text></g><g id="elem_FRC05"><ellipse cx="933.071" cy="1207.715" fill="#F1F1F1" rx="92.981" ry="20.9962" style="stroke:#181818;stroke-width:0.5;"/><text fill="#000000" font-family="sans-serif" font-size="20" lengthAdjust="spacing" textLength="117" x="871.571" y="1214.6329">List Courses</text></g><g id="elem_FRC06"><ellipse cx="933.0712" cy="524.721" fill="#F1F1F1" rx="164.6112" ry="35.3222" style="stroke:#181818;stroke-width:0.5;"/><text fill="#000000" font-family="sans-serif" font-size="20" lengthAdjust="spacing" textLength="289" x="788.3776" y="530.3785">Bulk Enroll Students in Course</text></g><g id="elem_FRC07"><ellipse cx="933.0723" cy="1383.7172" fill="#F1F1F1" rx="162.2923" ry="34.8585" style="stroke:#181818;stroke-width:0.5;"/><text fill="#000000" font-family="sans-serif" font-size="20" lengthAdjust="spacing" textLength="284" x="790.5024" y="1389.5622">Request Enrollment in Course</text></g><g id="elem_FRC08"><ellipse cx="933.0652" cy="636.7218" fill="#F1F1F1" rx="194.7652" ry="41.353" style="stroke:#181818;stroke-width:0.5;"/><text fill="#000000" font-family="sans-serif" font-size="20" lengthAdjust="spacing" textLength="353" x="756.5652" y="642.2804">Approve/Reject Enlistment in Course</text></g><g id="elem_FRC081"><ellipse cx="1307.9866" cy="648.7181" fill="#F1F1F1" rx="120.1466" ry="26.4293" style="stroke:#181818;stroke-width:0.5;"/><text fill="#000000" font-family="sans-serif" font-size="20" lengthAdjust="spacing" textLength="188" x="1210.9866" y="655.636">Approve Enlistment</text></g><g id="elem_FRC082"><ellipse cx="1307.9874" cy="562.7222" fill="#F1F1F1" rx="110.8174" ry="24.5635" style="stroke:#181818;stroke-width:0.5;"/><text fill="#000000" font-family="sans-serif" font-size="20" lengthAdjust="spacing" textLength="165" x="1222.4874" y="569.6402">Reject Enlistment</text></g><g id="elem_FRC09"><ellipse cx="933.0707" cy="1288.7209" fill="#F1F1F1" rx="112.0107" ry="24.8021" style="stroke:#181818;stroke-width:0.5;"/><text fill="#000000" font-family="sans-serif" font-size="20" lengthAdjust="spacing" textLength="168" x="846.0707" y="1295.6389">Schedule of Class</text></g><g id="elem_FRC10"><ellipse cx="933.0722" cy="1024.7192" fill="#F1F1F1" rx="135.0022" ry="29.4004" style="stroke:#181818;stroke-width:0.5;"/><text fill="#000000" font-family="sans-serif" font-size="20" lengthAdjust="spacing" textLength="223" x="818.5722" y="1031.6372">Schedule of Extra Class</text></g><g id="elem_FRC11"><ellipse cx="933.0743" cy="1120.7216" fill="#F1F1F1" rx="143.7643" ry="31.1529" style="stroke:#181818;stroke-width:0.5;"/><text fill="#000000" font-family="sans-serif" font-size="20" lengthAdjust="spacing" textLength="243" x="808.5743" y="1127.6396">Update Schedule of Class</text></g><g id="elem_FRE01"><ellipse cx="561.4496" cy="1189.7207" fill="#F1F1F1" rx="94.3596" ry="21.2719" style="stroke:#181818;stroke-width:0.5;"/><text fill="#000000" font-family="sans-serif" font-size="20" lengthAdjust="spacing" textLength="121" x="497.9496" y="1196.6386">Create Exam</text></g><g id="elem_FRE02"><ellipse cx="561.4452" cy="1514.7178" fill="#F1F1F1" rx="87.1652" ry="20.239" style="stroke:#181818;stroke-width:0.5;"/><text fill="#000000" font-family="sans-serif" font-size="20" lengthAdjust="spacing" textLength="103" x="506.9452" y="1521.6357">List Exams</text></g><g id="elem_FRE03"><ellipse cx="561.4489" cy="1271.7145" fill="#F1F1F1" rx="115.2289" ry="25.4458" style="stroke:#181818;stroke-width:0.5;"/><text fill="#000000" font-family="sans-serif" font-size="20" lengthAdjust="spacing" textLength="176" x="470.4489" y="1278.6325">List Course Exams</text></g><g id="elem_FRE04"><ellipse cx="561.4453" cy="1438.7218" fill="#F1F1F1" rx="89.3153" ry="20.2631" style="stroke:#181818;stroke-width:0.5;"/><text fill="#000000" font-family="sans-serif" font-size="20" lengthAdjust="spacing" textLength="106" x="505.4453" y="1445.6398">Take Exam</text></g><g id="elem_FRE05"><ellipse cx="561.4505" cy="1590.7169" fill="#F1F1F1" rx="89.6405" ry="20.3281" style="stroke:#181818;stroke-width:0.5;"/><text fill="#000000" font-family="sans-serif" font-size="20" lengthAdjust="spacing" textLength="107" x="504.9505" y="1597.6348">List Grades</text></g><g id="elem_FRE06"><ellipse cx="561.4466" cy="1357.7201" fill="#F1F1F1" rx="116.8566" ry="25.7713" style="stroke:#181818;stroke-width:0.5;"/><text fill="#000000" font-family="sans-serif" font-size="20" lengthAdjust="spacing" textLength="180" x="468.4466" y="1364.638">List Course Grades</text></g><g id="elem_FRB01"><ellipse cx="253.0485" cy="1167.7205" fill="#F1F1F1" rx="95.4085" ry="21.4817" style="stroke:#181818;stroke-width:0.5;"/><text fill="#000000" font-family="sans-serif" font-size="20" lengthAdjust="spacing" textLength="124" x="188.0485" y="1174.6384">Create Board</text></g><g id="elem_FRB02"><ellipse cx="253.0505" cy="1244.7189" fill="#F1F1F1" rx="92.3005" ry="20.8601" style="stroke:#181818;stroke-width:0.5;"/><text fill="#000000" font-family="sans-serif" font-size="20" lengthAdjust="spacing" textLength="115" x="192.5505" y="1251.6368">Share Board</text></g><g id="elem_FRB03"><ellipse cx="253.0505" cy="1320.7169" fill="#F1F1F1" rx="89.6405" ry="20.3281" style="stroke:#181818;stroke-width:0.5;"/><text fill="#000000" font-family="sans-serif" font-size="20" lengthAdjust="spacing" textLength="107" x="196.5505" y="1327.6348">View Board</text></g><g id="elem_FRB04"><ellipse cx="253.0473" cy="1397.7142" fill="#F1F1F1" rx="98.6273" ry="22.1255" style="stroke:#181818;stroke-width:0.5;"/><text fill="#000000" font-family="sans-serif" font-size="20" lengthAdjust="spacing" textLength="133" x="183.5473" y="1404.6322">Create Post-it</text></g><g id="elem_FRB05"><ellipse cx="253.0506" cy="1477.7229" fill="#F1F1F1" rx="102.3206" ry="22.8641" style="stroke:#181818;stroke-width:0.5;"/><text fill="#000000" font-family="sans-serif" font-size="20" lengthAdjust="spacing" textLength="143" x="178.5506" y="1484.6408">Change Post-it</text></g><g id="elem_FRB06"><ellipse cx="253.0511" cy="1562.721" fill="#F1F1F1" rx="125.1611" ry="27.4322" style="stroke:#181818;stroke-width:0.5;"/><text fill="#000000" font-family="sans-serif" font-size="20" lengthAdjust="spacing" textLength="200" x="150.0511" y="1569.6389">Undo Post-it Change</text></g><g id="elem_FRB07"><ellipse cx="253.0454" cy="1650.7218" fill="#F1F1F1" rx="117.2654" ry="25.8531" style="stroke:#181818;stroke-width:0.5;"/><text fill="#000000" font-family="sans-serif" font-size="20" lengthAdjust="spacing" textLength="181" x="159.5454" y="1657.6398">View Board History</text></g><g id="elem_FRB08"><ellipse cx="253.0473" cy="1733.7142" fill="#F1F1F1" rx="98.6273" ry="22.1255" style="stroke:#181818;stroke-width:0.5;"/><text fill="#000000" font-family="sans-serif" font-size="20" lengthAdjust="spacing" textLength="133" x="183.5473" y="1740.6322">Archive Board</text></g><g id="elem_FRM01"><ellipse cx="253.0477" cy="1863.7203" fill="#F1F1F1" rx="118.9077" ry="26.1815" style="stroke:#181818;stroke-width:0.5;"/><text fill="#000000" font-family="sans-serif" font-size="20" lengthAdjust="spacing" textLength="185" x="157.5477" y="1870.6382">Schedule a Meeting</text></g><g id="elem_FRM02"><ellipse cx="253.0507" cy="1947.7189" fill="#F1F1F1" rx="103.4507" ry="23.0901" style="stroke:#181818;stroke-width:0.5;"/><text fill="#000000" font-family="sans-serif" font-size="20" lengthAdjust="spacing" textLength="146" x="177.0507" y="1954.6369">Cancel Meeting</text></g><g id="elem_FRM03"><ellipse cx="253.048" cy="2034.7183" fill="#F1F1F1" rx="131.548" ry="28.7096" style="stroke:#181818;stroke-width:0.5;"/><text fill="#000000" font-family="sans-serif" font-size="20" lengthAdjust="spacing" textLength="215" x="142.548" y="2041.6363">Accept/Reject Meeting</text></g><g id="elem_FRM031"><ellipse cx="561.4495" cy="2075.7146" fill="#F1F1F1" rx="103.8295" ry="23.1659" style="stroke:#181818;stroke-width:0.5;"/><text fill="#000000" font-family="sans-serif" font-size="20" lengthAdjust="spacing" textLength="147" x="484.9495" y="2082.6326">Accept Meeting</text></g><g id="elem_FRM032"><ellipse cx="561.4505" cy="1994.7188" fill="#F1F1F1" rx="101.2005" ry="22.6401" style="stroke:#181818;stroke-width:0.5;"/><text fill="#000000" font-family="sans-serif" font-size="20" lengthAdjust="spacing" textLength="140" x="488.4505" y="2001.6368">Reject Meeting</text></g><g id="elem_FRM04"><ellipse cx="253.0492" cy="2121.7166" fill="#F1F1F1" rx="105.7392" ry="23.5478" style="stroke:#181818;stroke-width:0.5;"/><text fill="#000000" font-family="sans-serif" font-size="20" lengthAdjust="spacing" textLength="152" x="174.0492" y="2128.6346">List Participants</text></g><!--entity usr--><g id="elem_usr"><ellipse cx="33" cy="1451.9388" fill="#F1F1F1" rx="16" ry="16" style="stroke:#181818;stroke-width:1.5;"/><path d="M33,1471.9388 C37,1471.9388 40,1471.9388 44,1467.9388 C52,1467.9388 60,1475.9388 60,1483.9388 L60,1487.9388 C60,1491.9388 56,1495.9388 52,1495.9388 L14,1495.9388 C10,1495.9388 6,1491.9388 6,1487.9388 L6,1483.9388 C6,1475.9388 14,1467.9388 22,1467.9388 C26,1471.9388 29,1471.9388 33,1471.9388 " fill="#F1F1F1" style="stroke:#181818;stroke-width:1.5;"/><text fill="#000000" font-family="sans-serif" font-size="20" lengthAdjust="spacing" textLength="43" x="11.5" y="1516.7747">User</text></g><!--link man to FRU01--><g id="link_man_FRU01"><path d="M570.69,739.9488 C587.06,662.0487 629.65,497.0187 714.31,384.7188 C758.28,326.3888 828.62,279.0387 877.41,250.6888 " fill="none" id="man-to-FRU01" style="stroke:#181818;stroke-width:1.0;"/><polygon fill="#181818" points="881.36,247.8387,871.5659,248.8762,877.0303,250.3394,875.567,255.8038,881.36,247.8387" style="stroke:#181818;stroke-width:1.0;"/></g><!--link FRU01 to FRU011--><g id="link_FRU01_FRU011"><path d="M1028.18,240.8988 C1091.82,253.8688 1174.68,270.7587 1233.48,282.7388 " fill="none" id="FRU01-to-FRU011" style="stroke:#181818;stroke-width:1.0;"/><polygon fill="#181818" points="1238.1,283.8788,1230.0816,278.1599,1233.201,282.8789,1228.4819,285.9983,1238.1,283.8788" style="stroke:#181818;stroke-width:1.0;"/></g><!--link FRU01 to FRU012--><g id="link_FRU01_FRU012"><path d="M1061.63,221.7188 C1110.27,221.7188 1164.88,221.7188 1210.21,221.7188 " fill="none" id="FRU01-to-FRU012" style="stroke:#181818;stroke-width:1.0;"/><polygon fill="#181818" points="1214.97,221.7188,1205.97,217.7188,1209.97,221.7188,1205.97,225.7188,1214.97,221.7188" style="stroke:#181818;stroke-width:1.0;"/></g><!--link FRU01 to FRU013--><g id="link_FRU01_FRU013"><path d="M1027.21,202.4887 C1090.33,189.4588 1172.66,172.4588 1231.64,160.2787 " fill="none" id="FRU01-to-FRU013" style="stroke:#181818;stroke-width:1.0;"/><polygon fill="#181818" points="1236.28,159.1088,1226.656,157.0161,1231.3838,160.1223,1228.2776,164.85,1236.28,159.1088" style="stroke:#181818;stroke-width:1.0;"/></g><!--link FRU01 to FRU014--><g id="link_FRU01_FRU014"><path d="M985.73,195.7487 C1036.44,170.8187 1116.34,133.0287 1187.84,105.7188 C1207.17,98.3387 1228.66,91.3088 1248.01,85.4088 " fill="none" id="FRU01-to-FRU014" style="stroke:#181818;stroke-width:1.0;"/><polygon fill="#181818" points="1252.41,83.7688,1242.6351,82.5637,1247.6268,85.2251,1244.9653,90.2168,1252.41,83.7688" style="stroke:#181818;stroke-width:1.0;"/></g><!--link man to FRC01--><g id="link_man_FRC01"><path d="M602.71,778.4888 C659.33,771.1388 764.08,757.5387 840.29,747.6388 " fill="none" id="man-to-FRC01" style="stroke:#181818;stroke-width:1.0;"/><polygon fill="#181818" points="845.18,746.8688,835.7403,744.0594,840.2215,747.5118,836.7692,751.993,845.18,746.8688" style="stroke:#181818;stroke-width:1.0;"/></g><!--link man to FRC02--><g id="link_man_FRC02"><path d="M602.71,789.0587 C643.04,794.3988 707.79,802.9888 769.25,811.1288 " fill="none" id="man-to-FRC02" style="stroke:#181818;stroke-width:1.0;"/><polygon fill="#181818" points="774.18,811.9188,765.7837,806.7707,769.2234,811.2617,764.7324,814.7013,774.18,811.9188" style="stroke:#181818;stroke-width:1.0;"/></g><!--link FRC02 to FRC021--><g id="link_FRC02_FRC021"><path d="M1117.8,835.1788 C1141.76,835.4988 1165.79,835.8287 1188.29,836.1288 " fill="none" id="FRC02-to-FRC021" style="stroke:#181818;stroke-width:1.0;"/><polygon fill="#181818" points="1193.28,836.2088,1184.3381,832.0806,1188.2805,836.1373,1184.2238,840.0798,1193.28,836.2088" style="stroke:#181818;stroke-width:1.0;"/></g><!--link FRC02 to FRC022--><g id="link_FRC02_FRC022"><path d="M1064.76,804.6788 C1115.8,793.7288 1172.98,781.4688 1218.96,771.5988 " fill="none" id="FRC02-to-FRC022" style="stroke:#181818;stroke-width:1.0;"/><polygon fill="#181818" points="1223.8,770.3488,1214.1576,768.3425,1218.9131,771.4062,1215.8495,776.1616,1223.8,770.3488" style="stroke:#181818;stroke-width:1.0;"/></g><!--link man to FRC03--><g id="link_man_FRC03"><path d="M602.71,794.5787 C633.93,804.9588 676.16,823.5587 702.31,853.7188 C713.36,866.4588 701.68,878.5487 714.31,889.7188 C739.84,912.3087 773.71,924.5387 807.1,930.8788 " fill="none" id="man-to-FRC03" style="stroke:#181818;stroke-width:1.0;"/><polygon fill="#181818" points="811.89,931.9188,803.7394,926.3899,806.9688,931.0344,802.3244,934.2638,811.89,931.9188" style="stroke:#181818;stroke-width:1.0;"/></g><!--link FRC03 to FRC031--><g id="link_FRC03_FRC031"><path d="M1023.87,951.2987 C1086.4,963.5387 1168.98,979.6988 1228.8,991.4088 " fill="none" id="FRC03-to-FRC031" style="stroke:#181818;stroke-width:1.0;"/><polygon fill="#181818" points="1233.52,992.5288,1225.4538,986.8775,1228.6127,991.5702,1223.9201,994.7291,1233.52,992.5288" style="stroke:#181818;stroke-width:1.0;"/></g><!--link FRC03 to FRC032--><g id="link_FRC03_FRC032"><path d="M1053.35,932.1188 C1102.39,931.4588 1158.6,930.7088 1205.61,930.0787 " fill="none" id="FRC03-to-FRC032" style="stroke:#181818;stroke-width:1.0;"/><polygon fill="#181818" points="1210.6,929.9988,1201.5438,926.1277,1205.6005,930.0702,1201.6581,934.1269,1210.6,929.9988" style="stroke:#181818;stroke-width:1.0;"/></g><!--link man to FRC04--><g id="link_man_FRC04"><path d="M570.8,740.2188 C586.33,671.7688 626.41,539.7388 714.31,471.7188 C740.55,451.4088 773.74,439.7887 806.26,433.2987 " fill="none" id="man-to-FRC04" style="stroke:#181818;stroke-width:1.0;"/><polygon fill="#181818" points="810.89,432.2188,801.2975,429.9862,805.9796,433.1609,802.8049,437.8429,810.89,432.2188" style="stroke:#181818;stroke-width:1.0;"/></g><!--link man to FRC05--><g id="link_man_FRC05"><path d="M601.01,827.2288 C634.37,867.7388 680.56,931.3888 702.31,995.7188 C714.72,1032.4388 688.36,1140.9288 714.31,1169.7188 C745.6,1204.4388 796.4,1214.7288 841.07,1215.9688 " fill="none" id="man-to-FRC05" style="stroke:#181818;stroke-width:1.0;"/><polygon fill="#181818" points="846.04,1216.0788,837.1218,1211.8996,841.041,1215.9788,836.9618,1219.898,846.04,1216.0788" style="stroke:#181818;stroke-width:1.0;"/></g><!--link tea to FRC05--><g id="link_tea_FRC05"><path d="M291.4,907.0687 C324.17,915.2188 371.27,931.2887 402.21,960.7188 C416.09,973.9288 405.72,987.6388 420.6,999.7188 C520.52,1080.8288 616.81,970.5288 702.31,1066.7188 C732.93,1101.1688 682.66,1136.2188 714.31,1169.7188 C746.03,1203.2888 796.05,1213.6988 840.16,1215.2988 " fill="none" id="tea-to-FRC05" style="stroke:#181818;stroke-width:1.0;"/><polygon fill="#181818" points="845.06,1215.4588,836.1779,1211.2033,840.062,1215.316,835.9494,1219.2001,845.06,1215.4588" style="stroke:#181818;stroke-width:1.0;"/></g><!--link stu to FRC05--><g id="link_stu_FRC05"><path d="M289.85,1036.6788 C325.43,1053.6888 378.08,1085.1388 402.21,1130.7188 C428.01,1179.4588 380.88,1588.4488 420.6,1626.7188 C510.75,1713.5988 612.39,1713.8488 702.31,1626.7188 C732.65,1597.3188 686.69,1278.6788 714.31,1246.7188 C745.07,1211.1188 796.26,1200.6588 841.29,1199.4288 " fill="none" id="stu-to-FRC05" style="stroke:#181818;stroke-width:1.0;"/><polygon fill="#181818" points="846.03,1199.3188,836.9518,1195.4995,841.031,1199.4187,837.1118,1203.4979,846.03,1199.3188" style="stroke:#181818;stroke-width:1.0;"/></g><!--link man to FRC06--><g id="link_man_FRC06"><path d="M583.02,739.9588 C607.56,692.6188 653.09,618.4588 714.31,577.7188 C736.08,563.2288 761.44,552.6988 786.99,545.0387 " fill="none" id="man-to-FRC06" style="stroke:#181818;stroke-width:1.0;"/><polygon fill="#181818" points="791.44,543.4488,781.68,542.1288,786.64,544.8488,783.92,549.8088,791.44,543.4488" style="stroke:#181818;stroke-width:1.0;"/></g><!--link stu to FRC07--><g id="link_stu_FRC07"><path d="M289.89,1036.6588 C325.51,1053.6488 378.19,1085.0788 402.21,1130.7188 C416.94,1158.7088 397.87,1677.7188 420.6,1699.7188 C510.55,1786.8088 590.74,1756.5388 702.31,1699.7188 C817.18,1641.2188 888.13,1495.4188 917.06,1424.1788 " fill="none" id="stu-to-FRC07" style="stroke:#181818;stroke-width:1.0;"/><polygon fill="#181818" points="919.23,1419.7688,912.1736,1426.6395,917.373,1424.4111,919.6014,1429.6106,919.23,1419.7688" style="stroke:#181818;stroke-width:1.0;"/></g><!--link man to FRC08--><g id="link_man_FRC08"><path d="M602.85,756.4088 C632.61,737.2688 674.65,712.2488 714.31,695.7188 C739.2,685.3387 766.46,676.2788 793,668.5787 " fill="none" id="man-to-FRC08" style="stroke:#181818;stroke-width:1.0;"/><polygon fill="#181818" points="797.66,666.9488,787.9085,665.5675,792.8513,668.3186,790.1002,673.2614,797.66,666.9488" style="stroke:#181818;stroke-width:1.0;"/></g><!--link FRC08 to FRC081--><g id="link_FRC08_FRC081"><path d="M1125.99,642.8988 C1145.32,643.5188 1164.57,644.1388 1182.91,644.7288 " fill="none" id="FRC08-to-FRC081" style="stroke:#181818;stroke-width:1.0;"/><polygon fill="#181818" points="1187.57,644.9088,1178.7123,640.6027,1182.5729,644.7374,1178.4382,648.598,1187.57,644.9088" style="stroke:#181818;stroke-width:1.0;"/></g><!--link FRC08 to FRC082--><g id="link_FRC08_FRC082"><path d="M1076.65,608.4288 C1124.37,598.9588 1176.16,588.6788 1218.52,580.2788 " fill="none" id="FRC08-to-FRC082" style="stroke:#181818;stroke-width:1.0;"/><polygon fill="#181818" points="1223.16,579.1588,1213.5552,576.98,1218.2549,580.1284,1215.1065,584.8281,1223.16,579.1588" style="stroke:#181818;stroke-width:1.0;"/></g><!--link tea to FRC09--><g id="link_tea_FRC09"><path d="M291.5,904.7688 C325.75,911.4588 375.08,926.6788 402.21,960.7188 C433.1,999.4788 387.67,1033.6688 420.6,1070.7188 C507.22,1168.1888 617.51,1053.6488 702.31,1152.7188 C729.41,1184.3787 685.84,1215.2888 714.31,1245.7188 C740.41,1273.6188 778.94,1286.3587 816.37,1291.4888 " fill="none" id="tea-to-FRC09" style="stroke:#181818;stroke-width:1.0;"/><polygon fill="#181818" points="820.88,1292.1988,812.4692,1287.0745,815.9215,1291.5557,811.4403,1295.0081,820.88,1292.1988" style="stroke:#181818;stroke-width:1.0;"/></g><!--link tea to FRC10--><g id="link_tea_FRC10"><path d="M291.29,888.5088 C375.6,865.6288 582.98,823.8087 702.31,924.7188 C720.75,940.3087 697.15,960.7288 714.31,977.7188 C735.79,998.9788 764.44,1011.6388 793.89,1018.9688 " fill="none" id="tea-to-FRC10" style="stroke:#181818;stroke-width:1.0;"/><polygon fill="#181818" points="798.39,1020.2788,790.5415,1014.3289,793.5222,1019.1367,788.7143,1022.1174,798.39,1020.2788" style="stroke:#181818;stroke-width:1.0;"/></g><!--link tea to FRC11--><g id="link_tea_FRC11"><path d="M291.25,906.4988 C396.2,925.7987 687.96,980.5687 702.31,995.7188 C725.82,1020.5487 690.92,1046.7688 714.31,1071.7188 C733.42,1092.1088 759.05,1104.8988 786,1112.7588 " fill="none" id="tea-to-FRC11" style="stroke:#181818;stroke-width:1.0;"/><polygon fill="#181818" points="790.77,1114.3588,783.1536,1108.1145,785.9492,1113.0323,781.0313,1115.8278,790.77,1114.3588" style="stroke:#181818;stroke-width:1.0;"/></g><!--link tea to FRE01--><g id="link_tea_FRE01"><path d="M291.23,904.3488 C325.78,910.7488 375.76,925.7887 402.21,960.7188 C444.88,1017.0787 380.19,1060.7088 420.6,1118.7188 C437.96,1143.6488 466.75,1160.3288 493.71,1171.2188 " fill="none" id="tea-to-FRE01" style="stroke:#181818;stroke-width:1.0;"/><polygon fill="#181818" points="498.07,1173.3288,491.1545,1166.3162,493.4159,1171.5014,488.2307,1173.7628,498.07,1173.3288" style="stroke:#181818;stroke-width:1.0;"/></g><!--link stu to FRE02--><g id="link_stu_FRE02"><path d="M290.03,1036.9188 C325.49,1054.0288 377.8,1085.4688 402.21,1130.7188 C420.49,1164.5988 396.41,1446.7688 420.6,1476.7188 C433.31,1492.4688 451.84,1502.0688 471.28,1507.8288 " fill="none" id="stu-to-FRE02" style="stroke:#181818;stroke-width:1.0;"/><polygon fill="#181818" points="475.78,1509.3587,468.1684,1503.1087,470.9602,1508.0286,466.0402,1510.8204,475.78,1509.3587" style="stroke:#181818;stroke-width:1.0;"/></g><!--link tea to FRE03--><g id="link_tea_FRE03"><path d="M291.27,904.0188 C326.1,910.1788 376.52,925.0587 402.21,960.7188 C437.11,1009.1488 383.5,1181.9488 420.6,1228.7188 C430.23,1240.8587 443.21,1249.6588 457.4,1256.0188 " fill="none" id="tea-to-FRE03" style="stroke:#181818;stroke-width:1.0;"/><polygon fill="#181818" points="461.68,1258.2488,454.9644,1251.0445,457.0791,1256.2912,451.8324,1258.4059,461.68,1258.2488" style="stroke:#181818;stroke-width:1.0;"/></g><!--link stu to FRE04--><g id="link_stu_FRE04"><path d="M289.89,1036.9888 C325.24,1054.1588 377.46,1085.6588 402.21,1130.7188 C431.16,1183.4288 382.47,1354.2088 420.6,1400.7188 C433.14,1416.0188 451.16,1425.4988 470.12,1431.2988 " fill="none" id="stu-to-FRE04" style="stroke:#181818;stroke-width:1.0;"/><polygon fill="#181818" points="474.49,1432.8388,466.9526,1426.4994,469.6862,1431.4519,464.7337,1434.1855,474.49,1432.8388" style="stroke:#181818;stroke-width:1.0;"/></g><!--link stu to FRE05--><g id="link_stu_FRE05"><path d="M289.79,1036.7088 C325.32,1053.7488 377.94,1085.2188 402.21,1130.7188 C424.3,1172.1287 391.29,1516.0588 420.6,1552.7188 C432.88,1568.0788 450.69,1577.5988 469.52,1583.4188 " fill="none" id="stu-to-FRE05" style="stroke:#181818;stroke-width:1.0;"/><polygon fill="#181818" points="473.86,1584.9588,466.3226,1578.6194,469.0562,1583.5719,464.1037,1586.3055,473.86,1584.9588" style="stroke:#181818;stroke-width:1.0;"/></g><!--link tea to FRE06--><g id="link_tea_FRE06"><path d="M291.4,903.9188 C326.33,910.0188 376.81,924.8488 402.21,960.7188 C447.73,1025.0088 372.16,1252.5988 420.6,1314.7188 C429.99,1326.7588 442.68,1335.5188 456.6,1341.8688 " fill="none" id="tea-to-FRE06" style="stroke:#181818;stroke-width:1.0;"/><polygon fill="#181818" points="460.79,1344.1087,454.1123,1336.8694,456.1995,1342.1271,450.9417,1344.2142,460.79,1344.1087" style="stroke:#181818;stroke-width:1.0;"/></g><!--link usr to FRB01--><g id="link_usr_FRB01"><path d="M38.71,1434.0988 C46.96,1365.9288 66.16,1238.5888 97.5,1206.7188 C112.99,1190.9588 133.86,1181.2388 155.24,1175.3188 " fill="none" id="usr-to-FRB01" style="stroke:#181818;stroke-width:1.0;"/><polygon fill="#181818" points="159.98,1173.8188,150.2593,1172.2352,155.1439,1175.0884,152.2907,1179.973,159.98,1173.8188" style="stroke:#181818;stroke-width:1.0;"/></g><!--link usr to FRB02--><g id="link_usr_FRB02"><path d="M36.3,1434.0288 C41.04,1389.6388 55.24,1321.9688 97.5,1282.7188 C114.2,1267.1988 136.19,1257.7388 158.33,1252.0488 " fill="none" id="usr-to-FRB02" style="stroke:#181818;stroke-width:1.0;"/><polygon fill="#181818" points="162.95,1250.6788,153.2581,1248.9272,158.0926,1251.8645,155.1554,1256.699,162.95,1250.6788" style="stroke:#181818;stroke-width:1.0;"/></g><!--link usr to FRB03--><g id="link_usr_FRB03"><path d="M46.96,1433.9488 C56.8,1408.0888 72.91,1376.7788 97.5,1357.7188 C116.09,1343.2988 139.45,1334.3888 162.33,1328.8987 " fill="none" id="usr-to-FRB03" style="stroke:#181818;stroke-width:1.0;"/><polygon fill="#181818" points="167.13,1327.5788,157.47,1325.6593,162.2528,1328.6801,159.2321,1333.4629,167.13,1327.5788" style="stroke:#181818;stroke-width:1.0;"/></g><!--link usr to FRB04--><g id="link_usr_FRB04"><path d="M61.73,1457.6388 C72.49,1450.5588 85.18,1443.0388 97.5,1437.7188 C120.7,1427.6988 146.98,1419.7388 171.21,1413.6487 " fill="none" id="usr-to-FRB04" style="stroke:#181818;stroke-width:1.0;"/><polygon fill="#181818" points="175.99,1412.2188,166.2933,1410.4941,171.1359,1413.418,168.2121,1418.2606,175.99,1412.2188" style="stroke:#181818;stroke-width:1.0;"/></g><!--link usr to FRB05--><g id="link_usr_FRB05"><path d="M61.62,1477.7188 C82.98,1477.7188 114.02,1477.7188 144.87,1477.7188 " fill="none" id="usr-to-FRB05" style="stroke:#181818;stroke-width:1.0;"/><polygon fill="#181818" points="149.63,1477.7188,140.63,1473.7188,144.63,1477.7188,140.63,1481.7188,149.63,1477.7188" style="stroke:#181818;stroke-width:1.0;"/></g><!--link usr to FRB06--><g id="link_usr_FRB06"><path d="M61.82,1497.6087 C72.59,1504.6588 85.26,1512.2088 97.5,1517.7188 C117.5,1526.7188 139.77,1534.4288 161.03,1540.7988 " fill="none" id="usr-to-FRB06" style="stroke:#181818;stroke-width:1.0;"/><polygon fill="#181818" points="165.7,1542.4688,158.2026,1536.0821,160.905,1541.0517,155.9354,1543.7541,165.7,1542.4688" style="stroke:#181818;stroke-width:1.0;"/></g><!--link usr to FRB07--><g id="link_usr_FRB07"><path d="M45.15,1521.2988 C54.6,1549.7688 70.95,1585.6287 97.5,1607.7188 C112.05,1619.8288 129.77,1628.5388 147.95,1634.7988 " fill="none" id="usr-to-FRB07" style="stroke:#181818;stroke-width:1.0;"/><polygon fill="#181818" points="152.6,1636.6588,145.2909,1630.0574,147.8481,1635.1033,142.8022,1637.6605,152.6,1636.6588" style="stroke:#181818;stroke-width:1.0;"/></g><!--link usr to FRB08--><g id="link_usr_FRB08"><path d="M34.68,1521.4288 C37.86,1570.2388 50.6,1648.3188 97.5,1693.7188 C113.04,1708.7588 133.46,1718.3488 154.35,1724.4088 " fill="none" id="usr-to-FRB08" style="stroke:#181818;stroke-width:1.0;"/><polygon fill="#181818" points="158.96,1725.9488,151.3484,1719.6987,154.1402,1724.6186,149.2202,1727.4104,158.96,1725.9488" style="stroke:#181818;stroke-width:1.0;"/></g><!--link usr to FRM01--><g id="link_usr_FRM01"><path d="M39.1,1521.3488 C48.2,1593.0988 68.96,1732.0188 97.5,1771.7188 C119.12,1801.7988 153.9,1823.7588 184.99,1838.6588 " fill="none" id="usr-to-FRM01" style="stroke:#181818;stroke-width:1.0;"/><polygon fill="#181818" points="189.34,1841.1788,182.8964,1833.7302,184.8149,1839.0518,179.4933,1840.9703,189.34,1841.1788" style="stroke:#181818;stroke-width:1.0;"/></g><!--link usr to FRM02--><g id="link_usr_FRM02"><path d="M34.52,1521.2888 C36.6,1618.9788 46.87,1851.3788 97.5,1907.7188 C111.05,1922.7888 129.46,1932.5188 148.86,1938.7188 " fill="none" id="usr-to-FRM02" style="stroke:#181818;stroke-width:1.0;"/><polygon fill="#181818" points="153.36,1940.3788,145.8977,1933.9511,148.5728,1938.9355,143.5885,1941.6106,153.36,1940.3788" style="stroke:#181818;stroke-width:1.0;"/></g><!--link usr to FRM03--><g id="link_usr_FRM03"><path d="M33.51,1521.3488 C33.16,1631.7788 38.14,1918.6188 97.5,1988.7188 C107.89,2000.9888 121.4,2010.0688 136.11,2016.7788 " fill="none" id="usr-to-FRM03" style="stroke:#181818;stroke-width:1.0;"/><polygon fill="#181818" points="140.58,2019.1388,133.9105,2011.8918,135.9917,2017.1519,130.7316,2019.2331,140.58,2019.1388" style="stroke:#181818;stroke-width:1.0;"/></g><!--link FRM03 to FRM031--><g id="link_FRM03_FRM031"><path d="M365.97,2049.6988 C398.64,2054.0688 434.02,2058.7988 465.53,2063.0188 " fill="none" id="FRM03-to-FRM031" style="stroke:#181818;stroke-width:1.0;"/><polygon fill="#181818" points="470.36,2063.7988,461.9637,2058.6507,465.4034,2063.1417,460.9124,2066.5813,470.36,2063.7988" style="stroke:#181818;stroke-width:1.0;"/></g><!--link FRM03 to FRM032--><g id="link_FRM03_FRM032"><path d="M366.84,2019.9988 C399.93,2015.6788 435.73,2010.9988 467.44,2006.8587 " fill="none" id="FRM03-to-FRM032" style="stroke:#181818;stroke-width:1.0;"/><polygon fill="#181818" points="472.31,2006.0988,462.8703,2003.2894,467.3515,2006.7418,463.8992,2011.223,472.31,2006.0988" style="stroke:#181818;stroke-width:1.0;"/></g><!--link usr to FRM04--><g id="link_usr_FRM04"><path d="M35.77,1521.2788 C41.48,1652.6188 61.21,2038.3388 97.5,2080.7188 C110.54,2095.9488 128.52,2105.8388 147.61,2112.2088 " fill="none" id="usr-to-FRM04" style="stroke:#181818;stroke-width:1.0;"/><polygon fill="#181818" points="152.03,2113.9088,144.6439,2107.3938,147.2601,2112.4092,142.2447,2115.0255,152.03,2113.9088" style="stroke:#181818;stroke-width:1.0;"/></g><!--reverse link usr to man--><g id="link_usr_man"><path d="M34.55,1413.2088 C36.69,1239.0088 47.12,769.0387 97.5,722.7188 C216.56,613.2588 431.21,711.4488 520.15,760.1188 " fill="none" id="usr-backto-man" style="stroke:#181818;stroke-width:1.0;"/><polygon fill="none" points="41.54,1413.1988,34.31,1433.1188,27.54,1413.0388,41.54,1413.1988" style="stroke:#181818;stroke-width:1.0;"/></g><!--reverse link usr to tea--><g id="link_usr_tea"><path d="M33.93,1413.4388 C35.04,1290.9388 43.85,1030.0588 97.5,960.7188 C125.66,924.3287 178.72,909.6088 214.73,903.6788 " fill="none" id="usr-backto-tea" style="stroke:#181818;stroke-width:1.0;"/><polygon fill="none" points="40.92,1413.3288,33.8,1433.2888,26.92,1413.2388,40.92,1413.3288" style="stroke:#181818;stroke-width:1.0;"/></g><!--reverse link usr to stu--><g id="link_usr_stu"><path d="M39.93,1413.3888 C48.93,1326.3288 68.16,1176.6287 97.5,1130.7188 C126.06,1086.0388 180.09,1054.3588 216.09,1037.0488 " fill="none" id="usr-backto-stu" style="stroke:#181818;stroke-width:1.0;"/><polygon fill="none" points="46.82,1413.8587,37.86,1433.0688,32.89,1412.4688,46.82,1413.8587" style="stroke:#181818;stroke-width:1.0;"/></g><!--SRC=[nLTDSzem4BtxLsYuf3amuHioq-bCe4vxADDC2BqhzW8kHgAId8-s-U_LXssanQItX1DUxNlxj4zUstARiJqLT9VpP0ifIM55YrnTSwOMsMyWlKuagnH24yN5GZtdGEWZIBw3A8UL8eeJaQqtYgIPW4Hbd4LHjAV9bgx1WUIVYEYV_K_cbEa5GQWaEygyXJkWoSOjAA3Uma8LAJ1b5gGgDBbTOrm1iGBugcOolxiDc6jR9F7YD9USt0CHi0AXDqjblQGqXAQxZ6LI2QfhsXLWgQqIlUYIJifIEe65555qrdw3tzcXbwQuRgNLLaX8g0HoVRliT8sYbklhpZHADyJcjXfoNV9C05MEiIcfPvDYHk_pqqbzc_Gvawzc3MpMDztOG9CsYBJRdyW7ctJkWcupXx2EDuLxpU5-StYWoL_UtgmPBuG4OrTqwCUi4xJVvUYEUDsOsMxu46V6zpsmYrdETJ1cWkUvSLgIZ9rWwM6MRatZ4xJ295Vhg8mcBqcz0bhdSH2NxMFnpMhx6EQfhH31kY-qfYofFDfAOn346jqHNO0gcQf99B7A0G8E3sUxj1iZXkUHdcN1jHvXmNN0EBACqoBVbkslXjyhJeyGnzXotCAl0hImWui1Gw1YZ1Wcbk5glnVy0IvkuQSUwveerniz8WgaJ31HrsVoA48t9xrICYfKMJhnt9jKbWP1REcbirIxc1PwEEc1ECkfDFO4Tbo6i6xd21O_wGT28xZRGM2tr-K-DRVs_qgRsVOUOob-eZipb0x2ut0ccOHGQumcKbnE97lkBLzudc8qU-9o27ZtIGqBolGHpDsNTtHRgmgg352wTpT-4JI58rb311WToQfnWQxH-rZLMcoeUK-PSYfIsJ9YtT_0lcbedyrecGHHRM2A_9kM_bdwPa0F0Po1Fp9uRCxle_o1B-c6IzNE5COC4CRPDzjGjZw96IACSt39KbuXY2F0m142Zj66o5Tz2hXunhWnmfMJKIIRxE54xoRlSrhc02fZw_1mpCl3KKyZMkM5gkVeYCpB8pAZB87y5AQ7CEwKN2K9x5Nrr3W1xMDeryCUG45Ay90uy9Py7hTxGg0W5kkzbzvGeR8asrFtfXC8VUEtHrFxuzzsstxGr1VcSwY-C9z0_m00]--></g></svg>