<?xml version="1.0" encoding="UTF-8" standalone="no"?><svg xmlns="http://www.w3.org/2000/svg" xmlns:xlink="http://www.w3.org/1999/xlink" contentStyleType="text/css" height="901px" preserveAspectRatio="none" style="width:1513px;height:901px;background:#FFFFFF;" version="1.1" viewBox="0 0 1513 901" width="1513px" zoomAndPan="magnify"><defs/><g><polygon fill="#FFFFFF" points="179,118.5703,179,118.6404,181,118.4322,183,118.6347,185,118.7035,187,118.3325,189,118.5703,188.9223,118.5703,188.5735,128.5365,188.6165,138.5027,188.9318,148.4689,188.3086,158.4351,189.5536,168.4012,188.3697,178.3674,188.8022,188.3336,189.4319,198.2998,188.9142,208.266,189.0682,218.2322,188.9681,228.1983,189.1785,238.1645,189.2391,248.1307,189.5857,258.0969,189.6711,268.0631,189.6793,278.0293,189.2546,287.9955,189.4636,297.9616,189.7022,307.9278,188.2788,317.894,189.6785,327.8602,188.7035,337.8264,189.5338,347.7926,188.505,357.7587,188.9315,367.7249,189.7416,377.6911,188.9513,387.6573,189.1053,397.6235,189.3386,407.5897,189.4162,417.5559,188.9961,427.522,189.2872,437.4882,188.4276,447.4544,189.2844,457.4206,189.5482,467.3868,189.4445,477.353,189.613,487.3191,188.5169,497.2853,188.3478,507.2515,188.3786,517.2177,188.9411,527.1839,188.8035,537.1501,189.6814,547.1163,188.8253,557.0824,188.6569,567.0486,189.2283,577.0148,188.3332,586.981,188.4809,596.9472,189.649,606.9134,189.4357,616.8795,189.7345,626.8457,188.6782,636.8119,189.3192,646.7781,189.5904,656.7443,188.5276,666.7105,188.9041,676.6767,189.126,686.6428,189.6518,696.609,188.9958,706.5752,189.4626,716.5414,188.4462,726.5076,188.3227,736.4738,189.5036,746.4399,188.2831,756.4061,189.509,766.3723,189.2066,776.3385,189,786.3047,189,786.2154,187,786.1868,185,786.4576,183,786.2049,181,786.502,179,786.3047,178.4473,786.3047,179.6174,776.3385,179.4843,766.3723,179.245,756.4061,179.0472,746.4399,179.7266,736.4738,179.6136,726.5076,179.1693,716.5414,179.2682,706.5752,178.8697,696.609,179.7165,686.6428,179.1549,676.6767,179.1726,666.7105,178.3916,656.7443,178.5948,646.7781,179.5307,636.8119,179.4298,626.8457,178.9571,616.8795,178.6778,606.9134,178.7811,596.9472,178.3138,586.981,179.4147,577.0148,179.7396,567.0486,179.5264,557.0824,179.6949,547.1163,178.8633,537.1501,179.0872,527.1839,178.6124,517.2177,179.284,507.2515,179.2468,497.2853,179.5524,487.3191,178.7703,477.353,178.8656,467.3868,179.4435,457.4206,179.5673,447.4544,178.4875,437.4882,178.8061,427.522,179.1493,417.5559,178.3892,407.5897,179.3534,397.6235,179.258,387.6573,178.8992,377.6911,179.1422,367.7249,179.7287,357.7587,178.6871,347.7926,179.315,337.8264,179.2856,327.8602,179.1158,317.894,179.1409,307.9278,179.1135,297.9616,178.3758,287.9955,178.5992,278.0293,178.5385,268.0631,179.0638,258.0969,179.0881,248.1307,179.1617,238.1645,178.709,228.1983,178.9325,218.2322,178.8798,208.266,179.5769,198.2998,179.4266,188.3336,178.5145,178.3674,178.9271,168.4012,178.4228,158.4351,179.2884,148.4689,179.6085,138.5027,179.5446,128.5365,179,118.5703" style="stroke:#181818;stroke-width:1.0;"/><polygon fill="#FFFFFF" points="366,239.9766,366,240.0466,368,239.8385,370,240.041,372,240.1098,374,239.7388,376,239.9766,375.9223,239.9766,375.5735,249.8992,375.6165,259.8218,375.9318,269.7444,375.3086,279.6671,376.5536,289.5897,375.3697,299.5123,375.8022,309.4349,376.4319,319.3576,375.9142,329.2802,376.0682,339.2028,375.9681,349.1255,376.1785,359.0481,376.2391,368.9707,376.5857,378.8933,376.6711,388.816,376.6793,398.7386,376.2546,408.6612,376.4636,418.5838,376.7022,428.5065,375.2788,438.4291,376.6785,448.3517,375.7035,458.2743,376.5338,468.197,375.505,478.1196,375.9315,488.0422,376.7416,497.9648,375.9513,507.8875,376.1053,517.8101,376.3386,527.7327,376.4162,537.6553,375.9961,547.578,376.2872,557.5006,375.4276,567.4232,376.2844,577.3459,376.5482,587.2685,376.4445,597.1911,376.613,607.1137,375.5169,617.0364,375.3478,626.959,375.3786,636.8816,375.9411,646.8042,375.8035,656.7269,376.6814,666.6495,375.8253,676.5721,375.6569,686.4947,376.2283,696.4174,375.3332,706.34,375.4809,716.2626,376.649,726.1852,376.4357,736.1079,376.7345,746.0305,376,755.9531,376,755.8459,374,756.0595,372,756.1499,370,755.7957,368,755.9212,366,755.9531,366.126,755.9531,366.6518,746.0305,365.9958,736.1079,366.4626,726.1852,365.4462,716.2626,365.3227,706.34,366.5036,696.4174,365.2831,686.4947,366.509,676.5721,366.2066,666.6495,365.7321,656.7269,365.6462,646.8042,366.4588,636.8816,365.7007,626.959,366.5919,617.0364,365.4473,607.1137,366.6174,597.1911,366.4843,587.2685,366.245,577.3459,366.0472,567.4232,366.7266,557.5006,366.6136,547.578,366.1693,537.6553,366.2682,527.7327,365.8697,517.8101,366.7165,507.8875,366.1549,497.9648,366.1726,488.0422,365.3916,478.1196,365.5948,468.197,366.5307,458.2743,366.4298,448.3517,365.9571,438.4291,365.6778,428.5065,365.7811,418.5838,365.3138,408.6612,366.4147,398.7386,366.7396,388.816,366.5264,378.8933,366.6949,368.9707,365.8633,359.0481,366.0872,349.1255,365.6124,339.2028,366.284,329.2802,366.2468,319.3576,366.5524,309.4349,365.7703,299.5123,365.8656,289.5897,366.4435,279.6671,366.5673,269.7444,365.4875,259.8218,365.8061,249.8992,366,239.9766" style="stroke:#181818;stroke-width:1.0;"/><polygon fill="#FFFFFF" points="757,270.3281,757,270.3982,759,270.19,761,270.3926,763,270.4614,765,270.0903,767,270.3281,766.9741,270.3281,766.8578,276.3984,766.8722,282.4688,766.9773,288.5391,766.7695,294.6094,767,300.6797,767,300.8642,765,300.4696,763,300.6138,761,300.8237,759,300.6511,757,300.6797,757.0227,300.6797,756.9894,294.6094,757.0595,288.5391,757.0797,282.4688,757.1952,276.3984,757,270.3281" style="stroke:#181818;stroke-width:1.0;"/><polygon fill="#FFFFFF" points="924.5,331.0313,924.5,331.1013,926.5,330.8931,928.5,331.0957,930.5,331.1645,932.5,330.7935,934.5,331.0313,934.4223,331.0313,934.0735,341.1484,934.1165,351.2656,934.4318,361.3828,933.8086,371.5,935.0536,381.6172,933.8697,391.7344,934.3022,401.8516,934.9319,411.9688,934.4142,422.0859,934.5682,432.2031,934.4681,442.3203,934.6785,452.4375,934.7391,462.5547,935.0857,472.6719,935.1711,482.7891,935.1793,492.9063,934.7546,503.0234,934.9636,513.1406,935.2022,523.2578,933.7788,533.375,935.1785,543.4922,934.2035,553.6094,935.0338,563.7266,934.005,573.8438,934.4315,583.9609,935.2416,594.0781,934.4513,604.1953,934.6053,614.3125,934.8386,624.4297,934.9162,634.5469,934.4961,644.6641,934.7872,654.7813,933.9276,664.8984,934.7844,675.0156,935.0482,685.1328,934.9445,695.25,935.113,705.3672,934.0169,715.4844,934.5,725.6016,934.5,725.3842,932.5,725.3944,930.5,725.5819,928.5,725.5361,926.5,725.8287,924.5,725.6016,924.3253,725.6016,924.1569,715.4844,924.7283,705.3672,923.8332,695.25,923.9809,685.1328,925.149,675.0156,924.9357,664.8984,925.2345,654.7813,924.1782,644.6641,924.8192,634.5469,925.0904,624.4297,924.0276,614.3125,924.4041,604.1953,924.626,594.0781,925.1518,583.9609,924.4958,573.8438,924.9626,563.7266,923.9462,553.6094,923.8227,543.4922,925.0036,533.375,923.7831,523.2578,925.009,513.1406,924.7066,503.0234,924.2321,492.9063,924.1462,482.7891,924.9588,472.6719,924.2007,462.5547,925.0919,452.4375,923.9473,442.3203,925.1174,432.2031,924.9843,422.0859,924.745,411.9688,924.5472,401.8516,925.2266,391.7344,925.1136,381.6172,924.6693,371.5,924.7682,361.3828,924.3697,351.2656,925.2165,341.1484,924.5,331.0313" style="stroke:#181818;stroke-width:1.0;"/><polygon fill="#FFFFFF" points="1186.5,391.7344,1186.5,391.8044,1188.5,391.5963,1190.5,391.7988,1192.5,391.8676,1194.5,391.4966,1196.5,391.7344,1196.4223,391.7344,1196.0735,401.8516,1196.1165,411.9688,1196.4318,422.0859,1195.8086,432.2031,1197.0536,442.3203,1196.5,452.4375,1196.5,452.2274,1194.5,452.3716,1192.5,452.5815,1190.5,452.4089,1188.5,452.4602,1186.5,452.4375,1186.4681,452.4375,1186.6785,442.3203,1186.7391,432.2031,1187.0857,422.0859,1187.1711,411.9688,1187.1793,401.8516,1186.5,391.7344" style="stroke:#181818;stroke-width:1.0;"/><polygon fill="#FFFFFF" points="1329.5,482.7891,1329.5,482.8591,1331.5,482.651,1333.5,482.8535,1335.5,482.9223,1337.5,482.5513,1339.5,482.7891,1339.4223,482.7891,1339.0735,492.9063,1339.1165,503.0234,1339.4318,513.1406,1338.8086,523.2578,1340.0536,533.375,1339.5,543.4922,1339.5,543.2821,1337.5,543.4263,1335.5,543.6362,1333.5,543.4636,1331.5,543.5149,1329.5,543.4922,1329.4681,543.4922,1329.6785,533.375,1329.7391,523.2578,1330.0857,513.1406,1330.1711,503.0234,1330.1793,492.9063,1329.5,482.7891" style="stroke:#181818;stroke-width:1.0;"/><polygon fill="#FFFFFF" points="1456,573.8438,1456,573.9138,1458,573.7056,1460,573.9082,1462,573.977,1464,573.606,1466,573.8438,1465.9741,573.8438,1465.8578,579.9141,1465.8722,585.9844,1465.9773,592.0547,1465.7695,598.125,1466,604.1953,1466,604.3799,1464,603.9852,1462,604.1294,1460,604.3393,1458,604.1667,1456,604.1953,1456.0227,604.1953,1455.9894,598.125,1456.0595,592.0547,1456.0797,585.9844,1456.1952,579.9141,1456,573.8438" style="stroke:#181818;stroke-width:1.0;"/><polygon fill="#FFFFFF" points="1456,664.8984,1456,664.9685,1458,664.7603,1460,664.9629,1462,665.0317,1464,664.6606,1466,664.8984,1465.9741,664.8984,1465.8578,670.9688,1465.8722,677.0391,1465.9773,683.1094,1465.7695,689.1797,1466,695.25,1466,695.4345,1464,695.0399,1462,695.1841,1460,695.394,1458,695.2214,1456,695.25,1456.0227,695.25,1455.9894,689.1797,1456.0595,683.1094,1456.0797,677.0391,1456.1952,670.9688,1456,664.8984" style="stroke:#181818;stroke-width:1.0;"/><path d="M36,86.2188 L36.2802,86.2188 L35.4476,96.1922 L36.2577,106.1656 L36.5329,116.139 L35.0488,126.1124 L35.8964,136.0858 L35.4313,146.0592 L35.4887,156.0327 L35.9091,166.0061 L35.0782,175.9795 L36.7382,185.9529 L35.1596,195.9263 L35.7363,205.8997 L36.5759,215.8732 L35.8856,225.8466 L36.091,235.82 L35.9574,245.7934 L36.238,255.7668 L36.3188,265.7402 L36.7809,275.7137 L36.8947,285.6871 L36.9057,295.6605 L36.3395,305.6339 L36.6181,315.6073 L36.9363,325.5807 L35.0384,335.5541 L36.9047,345.5276 L35.6047,355.501 L36.7117,365.4744 L35.34,375.4478 L35.9087,385.4212 L36.9888,395.3946 L35.935,405.3681 L36.1404,415.3415 L36.4515,425.3149 L36.555,435.2883 L35.9948,445.2617 L36.383,455.2351 L35.2368,465.2086 L36.3792,475.182 L36.7309,485.1554 L36.5927,495.1288 L36.8174,505.1022 L35.3559,515.0756 L35.1304,525.049 L35.1715,535.0225 L35.9215,544.9959 L35.738,554.9693 L36.9085,564.9427 L35.7671,574.9161 L35.5426,584.8895 L36.3044,594.863 L35.1109,604.8364 L35.3078,614.8098 L36.8653,624.7832 L36.5809,634.7566 L36.9793,644.73 L35.5709,654.7035 L36.4256,664.6769 L36.7872,674.6503 L35.3701,684.6237 L35.8722,694.5971 L36.168,704.5705 L36.869,714.5439 L35.9944,724.5174 L36.6168,734.4908 L35.2616,744.4642 L35.097,754.4376 L36.6715,764.411 L35.0441,774.3844 L36.6786,784.3579 L36.2755,794.3313 L36,804.3047 " fill="none" style="stroke:#181818;stroke-width:0.5;stroke-dasharray:5.0,5.0;"/><path d="M183.5,86.2188 L183.7802,86.2188 L182.9476,96.1922 L183.7577,106.1656 L184.0329,116.139 L182.5488,126.1124 L183.3964,136.0858 L182.9313,146.0592 L182.9887,156.0327 L183.4091,166.0061 L182.5782,175.9795 L184.2382,185.9529 L182.6596,195.9263 L183.2363,205.8997 L184.0759,215.8732 L183.3856,225.8466 L183.591,235.82 L183.4574,245.7934 L183.738,255.7668 L183.8188,265.7402 L184.2809,275.7137 L184.3947,285.6871 L184.4057,295.6605 L183.8395,305.6339 L184.1181,315.6073 L184.4363,325.5807 L182.5384,335.5541 L184.4047,345.5276 L183.1047,355.501 L184.2117,365.4744 L182.84,375.4478 L183.4087,385.4212 L184.4888,395.3946 L183.435,405.3681 L183.6404,415.3415 L183.9515,425.3149 L184.055,435.2883 L183.4948,445.2617 L183.883,455.2351 L182.7368,465.2086 L183.8792,475.182 L184.2309,485.1554 L184.0927,495.1288 L184.3174,505.1022 L182.8559,515.0756 L182.6304,525.049 L182.6715,535.0225 L183.4215,544.9959 L183.238,554.9693 L184.4085,564.9427 L183.2671,574.9161 L183.0426,584.8895 L183.8044,594.863 L182.6109,604.8364 L182.8078,614.8098 L184.3653,624.7832 L184.0809,634.7566 L184.4793,644.73 L183.0709,654.7035 L183.9256,664.6769 L184.2872,674.6503 L182.8701,684.6237 L183.3722,694.5971 L183.668,704.5705 L184.369,714.5439 L183.4944,724.5174 L184.1168,734.4908 L182.7616,744.4642 L182.597,754.4376 L184.1715,764.411 L182.5441,774.3844 L184.1786,784.3579 L183.7755,794.3313 L183.5,804.3047 " fill="none" style="stroke:#181818;stroke-width:0.5;stroke-dasharray:5.0,5.0;"/><path d="M371,86.2188 L371.2802,86.2188 L370.4476,96.1922 L371.2577,106.1656 L371.5329,116.139 L370.0488,126.1124 L370.8964,136.0858 L370.4313,146.0592 L370.4887,156.0327 L370.9091,166.0061 L370.0782,175.9795 L371.7382,185.9529 L370.1596,195.9263 L370.7363,205.8997 L371.5759,215.8732 L370.8856,225.8466 L371.091,235.82 L370.9574,245.7934 L371.238,255.7668 L371.3188,265.7402 L371.7809,275.7137 L371.8947,285.6871 L371.9057,295.6605 L371.3395,305.6339 L371.6181,315.6073 L371.9363,325.5807 L370.0384,335.5541 L371.9047,345.5276 L370.6047,355.501 L371.7117,365.4744 L370.34,375.4478 L370.9087,385.4212 L371.9888,395.3946 L370.935,405.3681 L371.1404,415.3415 L371.4515,425.3149 L371.555,435.2883 L370.9948,445.2617 L371.383,455.2351 L370.2368,465.2086 L371.3792,475.182 L371.7309,485.1554 L371.5927,495.1288 L371.8174,505.1022 L370.3559,515.0756 L370.1304,525.049 L370.1715,535.0225 L370.9215,544.9959 L370.738,554.9693 L371.9085,564.9427 L370.7671,574.9161 L370.5426,584.8895 L371.3044,594.863 L370.1109,604.8364 L370.3078,614.8098 L371.8653,624.7832 L371.5809,634.7566 L371.9793,644.73 L370.5709,654.7035 L371.4256,664.6769 L371.7872,674.6503 L370.3701,684.6237 L370.8722,694.5971 L371.168,704.5705 L371.869,714.5439 L370.9944,724.5174 L371.6168,734.4908 L370.2616,744.4642 L370.097,754.4376 L371.6715,764.411 L370.0441,774.3844 L371.6786,784.3579 L371.2755,794.3313 L371,804.3047 " fill="none" style="stroke:#181818;stroke-width:0.5;stroke-dasharray:5.0,5.0;"/><path d="M761.5,86.2188 L761.7802,86.2188 L760.9476,96.1922 L761.7577,106.1656 L762.0329,116.139 L760.5488,126.1124 L761.3964,136.0858 L760.9313,146.0592 L760.9887,156.0327 L761.4091,166.0061 L760.5782,175.9795 L762.2382,185.9529 L760.6596,195.9263 L761.2363,205.8997 L762.0759,215.8732 L761.3856,225.8466 L761.591,235.82 L761.4574,245.7934 L761.738,255.7668 L761.8188,265.7402 L762.2809,275.7137 L762.3947,285.6871 L762.4057,295.6605 L761.8395,305.6339 L762.1181,315.6073 L762.4363,325.5807 L760.5384,335.5541 L762.4047,345.5276 L761.1047,355.501 L762.2117,365.4744 L760.84,375.4478 L761.4087,385.4212 L762.4888,395.3946 L761.435,405.3681 L761.6404,415.3415 L761.9515,425.3149 L762.055,435.2883 L761.4948,445.2617 L761.883,455.2351 L760.7368,465.2086 L761.8792,475.182 L762.2309,485.1554 L762.0927,495.1288 L762.3174,505.1022 L760.8559,515.0756 L760.6304,525.049 L760.6715,535.0225 L761.4215,544.9959 L761.238,554.9693 L762.4085,564.9427 L761.2671,574.9161 L761.0426,584.8895 L761.8044,594.863 L760.6109,604.8364 L760.8078,614.8098 L762.3653,624.7832 L762.0809,634.7566 L762.4793,644.73 L761.0709,654.7035 L761.9256,664.6769 L762.2872,674.6503 L760.8701,684.6237 L761.3722,694.5971 L761.668,704.5705 L762.369,714.5439 L761.4944,724.5174 L762.1168,734.4908 L760.7616,744.4642 L760.597,754.4376 L762.1715,764.411 L760.5441,774.3844 L762.1786,784.3579 L761.7755,794.3313 L761.5,804.3047 " fill="none" style="stroke:#181818;stroke-width:0.5;stroke-dasharray:5.0,5.0;"/><path d="M929.5,86.2188 L929.7802,86.2188 L928.9476,96.1922 L929.7577,106.1656 L930.0329,116.139 L928.5488,126.1124 L929.3964,136.0858 L928.9313,146.0592 L928.9887,156.0327 L929.4091,166.0061 L928.5782,175.9795 L930.2382,185.9529 L928.6596,195.9263 L929.2363,205.8997 L930.0759,215.8732 L929.3856,225.8466 L929.591,235.82 L929.4574,245.7934 L929.738,255.7668 L929.8188,265.7402 L930.2809,275.7137 L930.3947,285.6871 L930.4057,295.6605 L929.8395,305.6339 L930.1181,315.6073 L930.4363,325.5807 L928.5384,335.5541 L930.4047,345.5276 L929.1047,355.501 L930.2117,365.4744 L928.84,375.4478 L929.4087,385.4212 L930.4888,395.3946 L929.435,405.3681 L929.6404,415.3415 L929.9515,425.3149 L930.055,435.2883 L929.4948,445.2617 L929.883,455.2351 L928.7368,465.2086 L929.8792,475.182 L930.2309,485.1554 L930.0927,495.1288 L930.3174,505.1022 L928.8559,515.0756 L928.6304,525.049 L928.6715,535.0225 L929.4215,544.9959 L929.238,554.9693 L930.4085,564.9427 L929.2671,574.9161 L929.0426,584.8895 L929.8044,594.863 L928.6109,604.8364 L928.8078,614.8098 L930.3653,624.7832 L930.0809,634.7566 L930.4793,644.73 L929.0709,654.7035 L929.9256,664.6769 L930.2872,674.6503 L928.8701,684.6237 L929.3722,694.5971 L929.668,704.5705 L930.369,714.5439 L929.4944,724.5174 L930.1168,734.4908 L928.7616,744.4642 L928.597,754.4376 L930.1715,764.411 L928.5441,774.3844 L930.1786,784.3579 L929.7755,794.3313 L929.5,804.3047 " fill="none" style="stroke:#181818;stroke-width:0.5;stroke-dasharray:5.0,5.0;"/><path d="M1075.5,86.2188 L1075.7802,86.2188 L1074.9476,96.1922 L1075.7577,106.1656 L1076.0329,116.139 L1074.5488,126.1124 L1075.3964,136.0858 L1074.9313,146.0592 L1074.9887,156.0327 L1075.4091,166.0061 L1074.5782,175.9795 L1076.2382,185.9529 L1074.6596,195.9263 L1075.2363,205.8997 L1076.0759,215.8732 L1075.3856,225.8466 L1075.591,235.82 L1075.4574,245.7934 L1075.738,255.7668 L1075.8188,265.7402 L1076.2809,275.7137 L1076.3947,285.6871 L1076.4057,295.6605 L1075.8395,305.6339 L1076.1181,315.6073 L1076.4363,325.5807 L1074.5384,335.5541 L1076.4047,345.5276 L1075.1047,355.501 L1076.2117,365.4744 L1074.84,375.4478 L1075.4087,385.4212 L1076.4888,395.3946 L1075.435,405.3681 L1075.6404,415.3415 L1075.9515,425.3149 L1076.055,435.2883 L1075.4948,445.2617 L1075.883,455.2351 L1074.7368,465.2086 L1075.8792,475.182 L1076.2309,485.1554 L1076.0927,495.1288 L1076.3174,505.1022 L1074.8559,515.0756 L1074.6304,525.049 L1074.6715,535.0225 L1075.4215,544.9959 L1075.238,554.9693 L1076.4085,564.9427 L1075.2671,574.9161 L1075.0426,584.8895 L1075.8044,594.863 L1074.6109,604.8364 L1074.8078,614.8098 L1076.3653,624.7832 L1076.0809,634.7566 L1076.4793,644.73 L1075.0709,654.7035 L1075.9256,664.6769 L1076.2872,674.6503 L1074.8701,684.6237 L1075.3722,694.5971 L1075.668,704.5705 L1076.369,714.5439 L1075.4944,724.5174 L1076.1168,734.4908 L1074.7616,744.4642 L1074.597,754.4376 L1076.1715,764.411 L1074.5441,774.3844 L1076.1786,784.3579 L1075.7755,794.3313 L1075.5,804.3047 " fill="none" style="stroke:#181818;stroke-width:0.5;stroke-dasharray:5.0,5.0;"/><path d="M1191.5,86.2188 L1191.7802,86.2188 L1190.9476,96.1922 L1191.7577,106.1656 L1192.0329,116.139 L1190.5488,126.1124 L1191.3964,136.0858 L1190.9313,146.0592 L1190.9887,156.0327 L1191.4091,166.0061 L1190.5782,175.9795 L1192.2382,185.9529 L1190.6596,195.9263 L1191.2363,205.8997 L1192.0759,215.8732 L1191.3856,225.8466 L1191.591,235.82 L1191.4574,245.7934 L1191.738,255.7668 L1191.8188,265.7402 L1192.2809,275.7137 L1192.3947,285.6871 L1192.4057,295.6605 L1191.8395,305.6339 L1192.1181,315.6073 L1192.4363,325.5807 L1190.5384,335.5541 L1192.4047,345.5276 L1191.1047,355.501 L1192.2117,365.4744 L1190.84,375.4478 L1191.4087,385.4212 L1192.4888,395.3946 L1191.435,405.3681 L1191.6404,415.3415 L1191.9515,425.3149 L1192.055,435.2883 L1191.4948,445.2617 L1191.883,455.2351 L1190.7368,465.2086 L1191.8792,475.182 L1192.2309,485.1554 L1192.0927,495.1288 L1192.3174,505.1022 L1190.8559,515.0756 L1190.6304,525.049 L1190.6715,535.0225 L1191.4215,544.9959 L1191.238,554.9693 L1192.4085,564.9427 L1191.2671,574.9161 L1191.0426,584.8895 L1191.8044,594.863 L1190.6109,604.8364 L1190.8078,614.8098 L1192.3653,624.7832 L1192.0809,634.7566 L1192.4793,644.73 L1191.0709,654.7035 L1191.9256,664.6769 L1192.2872,674.6503 L1190.8701,684.6237 L1191.3722,694.5971 L1191.668,704.5705 L1192.369,714.5439 L1191.4944,724.5174 L1192.1168,734.4908 L1190.7616,744.4642 L1190.597,754.4376 L1192.1715,764.411 L1190.5441,774.3844 L1192.1786,784.3579 L1191.7755,794.3313 L1191.5,804.3047 " fill="none" style="stroke:#181818;stroke-width:0.5;stroke-dasharray:5.0,5.0;"/><path d="M1334.5,86.2188 L1334.7802,86.2188 L1333.9476,96.1922 L1334.7577,106.1656 L1335.0329,116.139 L1333.5488,126.1124 L1334.3964,136.0858 L1333.9313,146.0592 L1333.9887,156.0327 L1334.4091,166.0061 L1333.5782,175.9795 L1335.2382,185.9529 L1333.6596,195.9263 L1334.2363,205.8997 L1335.0759,215.8732 L1334.3856,225.8466 L1334.591,235.82 L1334.4574,245.7934 L1334.738,255.7668 L1334.8188,265.7402 L1335.2809,275.7137 L1335.3947,285.6871 L1335.4057,295.6605 L1334.8395,305.6339 L1335.1181,315.6073 L1335.4363,325.5807 L1333.5384,335.5541 L1335.4047,345.5276 L1334.1047,355.501 L1335.2117,365.4744 L1333.84,375.4478 L1334.4087,385.4212 L1335.4888,395.3946 L1334.435,405.3681 L1334.6404,415.3415 L1334.9515,425.3149 L1335.055,435.2883 L1334.4948,445.2617 L1334.883,455.2351 L1333.7368,465.2086 L1334.8792,475.182 L1335.2309,485.1554 L1335.0927,495.1288 L1335.3174,505.1022 L1333.8559,515.0756 L1333.6304,525.049 L1333.6715,535.0225 L1334.4215,544.9959 L1334.238,554.9693 L1335.4085,564.9427 L1334.2671,574.9161 L1334.0426,584.8895 L1334.8044,594.863 L1333.6109,604.8364 L1333.8078,614.8098 L1335.3653,624.7832 L1335.0809,634.7566 L1335.4793,644.73 L1334.0709,654.7035 L1334.9256,664.6769 L1335.2872,674.6503 L1333.8701,684.6237 L1334.3722,694.5971 L1334.668,704.5705 L1335.369,714.5439 L1334.4944,724.5174 L1335.1168,734.4908 L1333.7616,744.4642 L1333.597,754.4376 L1335.1715,764.411 L1333.5441,774.3844 L1335.1786,784.3579 L1334.7755,794.3313 L1334.5,804.3047 " fill="none" style="stroke:#181818;stroke-width:0.5;stroke-dasharray:5.0,5.0;"/><path d="M1460.5,86.2188 L1460.7802,86.2188 L1459.9476,96.1922 L1460.7577,106.1656 L1461.0329,116.139 L1459.5488,126.1124 L1460.3964,136.0858 L1459.9313,146.0592 L1459.9887,156.0327 L1460.4091,166.0061 L1459.5782,175.9795 L1461.2382,185.9529 L1459.6596,195.9263 L1460.2363,205.8997 L1461.0759,215.8732 L1460.3856,225.8466 L1460.591,235.82 L1460.4574,245.7934 L1460.738,255.7668 L1460.8188,265.7402 L1461.2809,275.7137 L1461.3947,285.6871 L1461.4057,295.6605 L1460.8395,305.6339 L1461.1181,315.6073 L1461.4363,325.5807 L1459.5384,335.5541 L1461.4047,345.5276 L1460.1047,355.501 L1461.2117,365.4744 L1459.84,375.4478 L1460.4087,385.4212 L1461.4888,395.3946 L1460.435,405.3681 L1460.6404,415.3415 L1460.9515,425.3149 L1461.055,435.2883 L1460.4948,445.2617 L1460.883,455.2351 L1459.7368,465.2086 L1460.8792,475.182 L1461.2309,485.1554 L1461.0927,495.1288 L1461.3174,505.1022 L1459.8559,515.0756 L1459.6304,525.049 L1459.6715,535.0225 L1460.4215,544.9959 L1460.238,554.9693 L1461.4085,564.9427 L1460.2671,574.9161 L1460.0426,584.8895 L1460.8044,594.863 L1459.6109,604.8364 L1459.8078,614.8098 L1461.3653,624.7832 L1461.0809,634.7566 L1461.4793,644.73 L1460.0709,654.7035 L1460.9256,664.6769 L1461.2872,674.6503 L1459.8701,684.6237 L1460.3722,694.5971 L1460.668,704.5705 L1461.369,714.5439 L1460.4944,724.5174 L1461.1168,734.4908 L1459.7616,744.4642 L1459.597,754.4376 L1461.1715,764.411 L1459.5441,774.3844 L1461.1786,784.3579 L1460.7755,794.3313 L1460.5,804.3047 " fill="none" style="stroke:#181818;stroke-width:0.5;stroke-dasharray:5.0,5.0;"/><text fill="#000000" font-family="FG Virgil" font-size="14" lengthAdjust="spacing" textLength="56" x="5" y="83.1426">Manager</text><polygon fill="#E3E3E3" points="44.0442,19.0553,42.8715,20.6576,41.4845,23.0044,39.5008,24.586,37.4163,25.4509,35.7542,25.526,33.618,24.4443,31.6023,23.7377,30.0724,22.303,29.2699,20.6605,28.7939,19.3527,28.3277,17.6444,27.5709,16.1744,28.1525,14.7392,28.662,13.167,30.574,11.9235,31.9192,10.3102,33.5843,9.7744,35.5637,9.313,38.1021,9.5872,39.4924,10.2429,41.1089,10.5401,43.0743,12.5537,43.7595,14.6795,44.0571,16.13,43.72,18.5202" style="stroke:#181818;stroke-width:0.5;"/><path d="M36,25.1094 L36.1868,25.1094 L35.6317,30.5094 L36.1718,35.9094 L36.3553,41.3094 L35.3659,46.7094 L36,52.1094 M23,33.1094 L23,33.0403 L28.2,32.7303 L33.4,32.7685 L38.6,33.0488 L43.8,32.4948 L49,33.1094 M36,52.1094 L36.3719,52.4317 L32.9766,54.7425 L30.6672,57.9942 L28.4901,61.3608 L25.5424,64.0594 L23,67.1094 M36,52.1094 L36.0458,52.1491 L38.5785,55.0908 L41.3199,58.2133 L43.9606,61.2486 L46.7934,64.4503 L49,67.1094 " fill="none" style="stroke:#181818;stroke-width:0.5;"/><text fill="#000000" font-family="FG Virgil" font-size="14" lengthAdjust="spacing" textLength="56" x="5" y="817.8379">Manager</text><polygon fill="#E3E3E3" points="44.0442,831.36,42.8715,832.9623,41.4845,835.3091,39.5008,836.8907,37.4163,837.7556,35.7542,837.8307,33.618,836.749,31.6023,836.0424,30.0724,834.6076,29.2699,832.9652,28.7939,831.6574,28.3277,829.9491,27.5709,828.4791,28.1525,827.0439,28.662,825.4717,30.574,824.2282,31.9192,822.6149,33.5843,822.0791,35.5637,821.6177,38.1021,821.8919,39.4924,822.5475,41.1089,822.8447,43.0743,824.8584,43.7595,826.9842,44.0571,828.4347,43.72,830.8249" style="stroke:#181818;stroke-width:0.5;"/><path d="M36,837.4141 L36.1868,837.4141 L35.6317,842.8141 L36.1718,848.2141 L36.3553,853.6141 L35.3659,859.0141 L36,864.4141 M23,845.4141 L23,845.345 L28.2,845.035 L33.4,845.0732 L38.6,845.3535 L43.8,844.7995 L49,845.4141 M36,864.4141 L36.3719,864.7364 L32.9766,867.0471 L30.6672,870.2989 L28.4901,873.6655 L25.5424,876.3641 L23,879.4141 M36,864.4141 L36.0458,864.4538 L38.5785,867.3955 L41.3199,870.518 L43.9606,873.5533 L46.7934,876.755 L49,879.4141 " fill="none" style="stroke:#181818;stroke-width:0.5;"/><polygon fill="#E3E3E3" points="132,36,132,36.2102,142.4,35.5857,152.8,36.1933,163.2,36.3997,173.6,35.2866,184,35.9223,194.4,35.5735,204.8,35.6165,215.2,35.9318,225.6,35.3086,236,36,236.0706,36.1705,236.2732,35.9523,236.6819,36.232,237.1158,36.5724,237.4033,36.5594,237.7678,36.7322,237.7888,36.7409,237.9044,37.0817,238.1156,37.4621,238.2808,37.8234,238.5339,38.2212,238.5,38.5,238.7237,38.5,238.7264,47.3438,238.5849,56.1875,238.6545,65.0313,238.7341,73.875,238.5,82.7188,238.2779,82.6268,238.5625,83.1589,238.1158,83.388,238.2251,83.8475,237.7618,84.0698,237.7678,84.4865,237.759,84.4654,237.5088,84.8613,237.0544,84.7644,236.7205,84.9583,236.3967,85.1766,236,85.2188,236,85.635,225.6,85.2148,215.2,85.506,204.8,84.6463,194.4,85.5031,184,85.7669,173.6,85.6633,163.2,85.8318,152.8,84.7357,142.4,84.5666,132,85.2188,131.9207,85.0274,131.6389,85.0542,131.2678,84.8653,131.0263,84.9893,130.5635,84.5792,130.2322,84.4865,130.1266,84.4428,130.1561,84.1621,129.734,83.6943,129.633,83.3596,129.8463,83.1551,129.5,82.7188,129.6452,82.7188,129.7448,73.875,129.3927,65.0313,129.6064,56.1875,129.6968,47.3438,129.5,38.5,129.3545,38.4397,129.6169,38.1342,129.8317,37.809,130.1401,37.5225,130.0845,37.0853,130.2322,36.7322,130.2912,36.8747,130.5151,36.4152,130.8529,36.2308,131.3571,36.448,131.555,35.9257,132,36" style="stroke:#181818;stroke-width:0.5;"/><text fill="#000000" font-family="FG Virgil" font-size="14" font-style="italic" lengthAdjust="spacing" textLength="95" x="136.5" y="57.5332">«presentation»</text><text fill="#000000" font-family="FG Virgil" font-size="14" lengthAdjust="spacing" textLength="88" x="140" y="75.1426">DisableUserUI</text><polygon fill="#E3E3E3" points="132,803.3047,132,803.5149,142.4,802.8904,152.8,803.498,163.2,803.7044,173.6,802.5913,184,803.227,194.4,802.8782,204.8,802.9212,215.2,803.2365,225.6,802.6133,236,803.3047,236.0706,803.4752,236.2732,803.257,236.6819,803.5367,237.1158,803.877,237.4033,803.8641,237.7678,804.0369,237.7888,804.0456,237.9044,804.3864,238.1156,804.7668,238.2808,805.1281,238.5339,805.5258,238.5,805.8047,238.7237,805.8047,238.7264,814.6484,238.5849,823.4922,238.6545,832.3359,238.7341,841.1797,238.5,850.0234,238.2779,849.9314,238.5625,850.4635,238.1158,850.6927,238.2251,851.1522,237.7618,851.3745,237.7678,851.7912,237.759,851.7701,237.5088,852.166,237.0544,852.0691,236.7205,852.263,236.3967,852.4813,236,852.5234,236,852.9397,225.6,852.5195,215.2,852.8107,204.8,851.951,194.4,852.8078,184,853.0716,173.6,852.968,163.2,853.1365,152.8,852.0404,142.4,851.8713,132,852.5234,131.9207,852.3321,131.6389,852.3589,131.2678,852.17,131.0263,852.2939,130.5635,851.8839,130.2322,851.7912,130.1266,851.7474,130.1561,851.4668,129.734,850.999,129.633,850.6643,129.8463,850.4598,129.5,850.0234,129.6452,850.0234,129.7448,841.1797,129.3927,832.3359,129.6064,823.4922,129.6968,814.6484,129.5,805.8047,129.3545,805.7444,129.6169,805.4389,129.8317,805.1137,130.1401,804.8272,130.0845,804.3899,130.2322,804.0369,130.2912,804.1794,130.5151,803.7199,130.8529,803.5355,131.3571,803.7527,131.555,803.2303,132,803.3047" style="stroke:#181818;stroke-width:0.5;"/><text fill="#000000" font-family="FG Virgil" font-size="14" font-style="italic" lengthAdjust="spacing" textLength="95" x="136.5" y="824.8379">«presentation»</text><text fill="#000000" font-family="FG Virgil" font-size="14" lengthAdjust="spacing" textLength="88" x="140" y="842.4473">DisableUserUI</text><polygon fill="#E3E3E3" points="279.5,36,279.5,36.2102,289.6667,35.5857,299.8333,36.1933,310,36.3997,320.1667,35.2866,330.3333,35.9223,340.5,35.5735,350.6667,35.6165,360.8333,35.9318,371,35.3086,381.1667,36.5536,391.3333,35.3697,401.5,35.8022,411.6667,36.4319,421.8333,35.9142,432,36.0682,442.1667,35.9681,452.3333,36.1785,462.5,36,462.5305,36.0736,462.9283,36.3268,463.2927,36.4996,463.6473,36.6485,463.9467,36.6642,464.2678,36.7322,464.4105,36.7914,464.6305,37.1754,464.3386,37.3473,464.9161,37.8794,464.7622,38.1086,465,38.5,465.1779,38.5,464.835,47.3438,464.9772,56.1875,465.2472,65.0313,464.9838,73.875,465,82.7188,465.0324,82.7322,464.9578,83.1155,464.8353,83.479,464.5595,83.7789,464.5027,84.1696,464.2678,84.4865,464.1947,84.3102,463.9505,84.7205,463.6306,84.9482,463.2638,85.0628,462.9318,85.2611,462.5,85.2188,462.5,84.7357,452.3333,84.5666,442.1667,84.5973,432,85.1599,421.8333,85.0222,411.6667,85.9002,401.5,85.0441,391.3333,84.8757,381.1667,85.447,371,84.5519,360.8333,84.6996,350.6667,85.8677,340.5,85.6544,330.3333,85.9532,320.1667,84.897,310,85.5379,299.8333,85.8092,289.6667,84.7463,279.5,85.2188,279.4878,85.1892,279.1625,85.1111,278.876,85.1266,278.4388,84.7781,278.1448,84.7754,277.7322,84.4865,277.5617,84.4159,277.3772,84.0466,277.5944,83.8437,277.0721,83.3344,277.3032,83.1372,277,82.7188,277.0689,82.7188,276.9107,73.875,276.8821,65.0313,277.1529,56.1875,276.9002,47.3438,277,38.5,277.1823,38.5755,276.9762,38.0759,277.483,37.8717,277.5885,37.5011,277.6612,37.117,277.7322,36.7322,277.7383,36.7468,278.1785,36.8096,278.5176,36.6283,278.8145,36.345,279.1807,36.229,279.5,36" style="stroke:#181818;stroke-width:0.5;"/><text fill="#000000" font-family="FG Virgil" font-size="14" font-style="italic" lengthAdjust="spacing" textLength="84" x="329" y="57.5332">«application»</text><text fill="#000000" font-family="FG Virgil" font-size="14" lengthAdjust="spacing" textLength="174" x="284" y="75.1426">ChangeUserStateController</text><polygon fill="#E3E3E3" points="279.5,803.3047,279.5,803.5149,289.6667,802.8904,299.8333,803.498,310,803.7044,320.1667,802.5913,330.3333,803.227,340.5,802.8782,350.6667,802.9212,360.8333,803.2365,371,802.6133,381.1667,803.8583,391.3333,802.6744,401.5,803.1069,411.6667,803.7366,421.8333,803.2189,432,803.3729,442.1667,803.2727,452.3333,803.4832,462.5,803.3047,462.5305,803.3783,462.9283,803.6315,463.2927,803.8042,463.6473,803.9532,463.9467,803.9689,464.2678,804.0369,464.4105,804.0961,464.6305,804.4801,464.3386,804.652,464.9161,805.1841,464.7622,805.4133,465,805.8047,465.1779,805.8047,464.835,814.6484,464.9772,823.4922,465.2472,832.3359,464.9838,841.1797,465,850.0234,465.0324,850.0369,464.9578,850.4202,464.8353,850.7836,464.5595,851.0836,464.5027,851.4743,464.2678,851.7912,464.1947,851.6149,463.9505,852.0252,463.6306,852.2529,463.2638,852.3674,462.9318,852.5658,462.5,852.5234,462.5,852.0404,452.3333,851.8713,442.1667,851.902,432,852.4646,421.8333,852.3269,411.6667,853.2048,401.5,852.3488,391.3333,852.1804,381.1667,852.7517,371,851.8566,360.8333,852.0043,350.6667,853.1724,340.5,852.9591,330.3333,853.2579,320.1667,852.2016,310,852.8426,299.8333,853.1139,289.6667,852.051,279.5,852.5234,279.4878,852.4939,279.1625,852.4158,278.876,852.4313,278.4388,852.0828,278.1448,852.0801,277.7322,851.7912,277.5617,851.7206,277.3772,851.3513,277.5944,851.1483,277.0721,850.6391,277.3032,850.4419,277,850.0234,277.0689,850.0234,276.9107,841.1797,276.8821,832.3359,277.1529,823.4922,276.9002,814.6484,277,805.8047,277.1823,805.8802,276.9762,805.3806,277.483,805.1763,277.5885,804.8058,277.6612,804.4217,277.7322,804.0369,277.7383,804.0515,278.1785,804.1142,278.5176,803.933,278.8145,803.6497,279.1807,803.5337,279.5,803.3047" style="stroke:#181818;stroke-width:0.5;"/><text fill="#000000" font-family="FG Virgil" font-size="14" font-style="italic" lengthAdjust="spacing" textLength="84" x="329" y="824.8379">«application»</text><text fill="#000000" font-family="FG Virgil" font-size="14" lengthAdjust="spacing" textLength="174" x="284" y="842.4473">ChangeUserStateController</text><polygon fill="#E3E3E3" points="693,36,693,36.2102,702.8571,35.5857,712.7143,36.1933,722.5714,36.3997,732.4286,35.2866,742.2857,35.9223,752.1429,35.5735,762,35.6165,771.8571,35.9318,781.7143,35.3086,791.5714,36.5536,801.4286,35.3697,811.2857,35.8022,821.1429,36.4319,831,36,830.9891,35.9736,831.3623,36.1675,831.703,36.2831,832.0834,36.4943,832.4447,36.6594,832.7678,36.7322,832.9481,36.8069,833.1209,37.1714,833.2698,37.526,833.2855,37.8254,833.4963,38.2056,833.5,38.5,833.7341,38.5,833.2596,47.3438,833.7262,56.1875,833.4012,65.0313,833.6779,73.875,833.5,82.7188,833.3476,82.6556,833.3325,83.0636,833.4355,83.5205,833.0457,83.7732,832.9466,84.1464,832.7678,84.4865,832.811,84.5908,832.4673,84.7611,832.0602,84.7782,831.7437,85.0143,831.2805,84.896,831,85.2188,831,85.5031,821.1429,85.7669,811.2857,85.6633,801.4286,85.8318,791.5714,84.7357,781.7143,84.5666,771.8571,84.5973,762,85.1599,752.1429,85.0222,742.2857,85.9002,732.4286,85.0441,722.5714,84.8757,712.7143,85.447,702.8571,84.5519,693,85.2188,692.9338,85.0589,692.7292,85.2722,692.3485,85.06,692.033,85.0056,691.5447,84.5339,691.2322,84.4865,691.3305,84.5272,691.2676,84.2083,690.7939,83.7191,690.7634,83.4136,690.6852,83.0884,690.5,82.7188,690.7173,82.7188,690.4986,73.875,690.6542,65.0313,690.3154,56.1875,690.2742,47.3438,690.5,38.5,690.6551,38.5642,690.4257,38.055,690.9496,37.8578,691.003,37.4657,691.0033,37.0516,691.2322,36.7322,691.1871,36.6233,691.6443,36.7271,691.9012,36.3472,692.3684,36.4752,692.5759,35.9762,693,36" style="stroke:#181818;stroke-width:0.5;"/><text fill="#000000" font-family="FG Virgil" font-size="14" font-style="italic" lengthAdjust="spacing" textLength="60" x="732" y="57.5332">«service»</text><text fill="#000000" font-family="FG Virgil" font-size="14" lengthAdjust="spacing" textLength="129" x="697.5" y="75.1426">AuthorizationService</text><polygon fill="#E3E3E3" points="693,803.3047,693,803.5149,702.8571,802.8904,712.7143,803.498,722.5714,803.7044,732.4286,802.5913,742.2857,803.227,752.1429,802.8782,762,802.9212,771.8571,803.2365,781.7143,802.6133,791.5714,803.8583,801.4286,802.6744,811.2857,803.1069,821.1429,803.7366,831,803.3047,830.9891,803.2783,831.3623,803.4721,831.703,803.5877,832.0834,803.799,832.4447,803.9641,832.7678,804.0369,832.9481,804.1116,833.1209,804.4761,833.2698,804.8307,833.2855,805.1301,833.4963,805.5103,833.5,805.8047,833.7341,805.8047,833.2596,814.6484,833.7262,823.4922,833.4012,832.3359,833.6779,841.1797,833.5,850.0234,833.3476,849.9603,833.3325,850.3683,833.4355,850.8251,833.0457,851.0779,832.9466,851.4511,832.7678,851.7912,832.811,851.8955,832.4673,852.0658,832.0602,852.0829,831.7437,852.319,831.2805,852.2007,831,852.5234,831,852.8078,821.1429,853.0716,811.2857,852.968,801.4286,853.1365,791.5714,852.0404,781.7143,851.8713,771.8571,851.902,762,852.4646,752.1429,852.3269,742.2857,853.2048,732.4286,852.3488,722.5714,852.1804,712.7143,852.7517,702.8571,851.8566,693,852.5234,692.9338,852.3636,692.7292,852.5768,692.3485,852.3647,692.033,852.3103,691.5447,851.8386,691.2322,851.7912,691.3305,851.8319,691.2676,851.513,690.7939,851.0238,690.7634,850.7183,690.6852,850.3931,690.5,850.0234,690.7173,850.0234,690.4986,841.1797,690.6542,832.3359,690.3154,823.4922,690.2742,814.6484,690.5,805.8047,690.6551,805.8689,690.4257,805.3597,690.9496,805.1625,691.003,804.7704,691.0033,804.3563,691.2322,804.0369,691.1871,803.928,691.6443,804.0318,691.9012,803.6518,692.3684,803.7799,692.5759,803.2809,693,803.3047" style="stroke:#181818;stroke-width:0.5;"/><text fill="#000000" font-family="FG Virgil" font-size="14" font-style="italic" lengthAdjust="spacing" textLength="60" x="732" y="824.8379">«service»</text><text fill="#000000" font-family="FG Virgil" font-size="14" lengthAdjust="spacing" textLength="129" x="697.5" y="842.4473">AuthorizationService</text><polygon fill="#E3E3E3" points="846,36,846,36.2102,855.8235,35.5857,865.6471,36.1933,875.4706,36.3997,885.2941,35.2866,895.1176,35.9223,904.9412,35.5735,914.7647,35.6165,924.5882,35.9318,934.4118,35.3086,944.2353,36.5536,954.0588,35.3697,963.8824,35.8022,973.7059,36.4319,983.5294,35.9142,993.3529,36.0682,1003.1765,35.9681,1013,36,1013.0228,36.055,1013.3841,36.2201,1013.7818,36.4733,1014.1463,36.646,1014.5009,36.795,1014.7678,36.7322,1014.8462,36.7647,1015.057,37.1449,1015.2769,37.5289,1014.985,37.7009,1015.5625,38.233,1015.5,38.5,1015.4012,38.5,1015.6779,47.3438,1015.335,56.1875,1015.4772,65.0313,1015.7472,73.875,1015.5,82.7188,1015.485,82.7125,1015.386,83.0857,1015.3114,83.4691,1015.1888,83.8325,1014.913,84.1325,1014.7678,84.4865,1014.8044,84.575,1014.3412,84.4567,1014.0969,84.867,1013.777,85.0947,1013.4103,85.2092,1013,85.2188,1013,85.8318,1003.1765,84.7357,993.3529,84.5666,983.5294,84.5973,973.7059,85.1599,963.8824,85.0222,954.0588,85.9002,944.2353,85.0441,934.4118,84.8757,924.5882,85.447,914.7647,84.5519,904.9412,84.6996,895.1176,85.8677,885.2941,85.6544,875.4706,85.9532,865.6471,84.897,855.8235,85.5379,846,85.2188,846.0753,85.4006,845.5862,84.9268,845.2807,84.8963,844.9554,84.8182,844.6689,84.8337,844.2322,84.4865,844.2309,84.486,844.2282,84.192,843.7688,83.7088,843.5843,83.3395,843.8015,83.1365,843.5,82.7188,843.261,82.7188,843.6697,73.875,843.5689,65.0313,843.4107,56.1875,843.3821,47.3438,843.5,38.5,843.6413,38.5585,843.5543,38.1083,843.9752,37.8684,843.7691,37.3688,844.2759,37.1645,844.2322,36.7322,844.294,36.8814,844.617,36.6612,844.9454,36.4539,845.3856,36.5167,845.7247,36.3354,846,36" style="stroke:#181818;stroke-width:0.5;"/><text fill="#000000" font-family="FG Virgil" font-size="14" font-style="italic" lengthAdjust="spacing" textLength="60" x="899.5" y="57.5332">«service»</text><text fill="#000000" font-family="FG Virgil" font-size="14" lengthAdjust="spacing" textLength="158" x="850.5" y="75.1426">UserManagementService</text><polygon fill="#E3E3E3" points="846,803.3047,846,803.5149,855.8235,802.8904,865.6471,803.498,875.4706,803.7044,885.2941,802.5913,895.1176,803.227,904.9412,802.8782,914.7647,802.9212,924.5882,803.2365,934.4118,802.6133,944.2353,803.8583,954.0588,802.6744,963.8824,803.1069,973.7059,803.7366,983.5294,803.2189,993.3529,803.3729,1003.1765,803.2727,1013,803.3047,1013.0228,803.3597,1013.3841,803.5248,1013.7818,803.7779,1014.1463,803.9507,1014.5009,804.0997,1014.7678,804.0369,1014.8462,804.0694,1015.057,804.4496,1015.2769,804.8336,1014.985,805.0056,1015.5625,805.5377,1015.5,805.8047,1015.4012,805.8047,1015.6779,814.6484,1015.335,823.4922,1015.4772,832.3359,1015.7472,841.1797,1015.5,850.0234,1015.485,850.0172,1015.386,850.3904,1015.3114,850.7737,1015.1888,851.1372,1014.913,851.4372,1014.7678,851.7912,1014.8044,851.8797,1014.3412,851.7614,1014.0969,852.1717,1013.777,852.3994,1013.4103,852.5139,1013,852.5234,1013,853.1365,1003.1765,852.0404,993.3529,851.8713,983.5294,851.902,973.7059,852.4646,963.8824,852.3269,954.0588,853.2048,944.2353,852.3488,934.4118,852.1804,924.5882,852.7517,914.7647,851.8566,904.9412,852.0043,895.1176,853.1724,885.2941,852.9591,875.4706,853.2579,865.6471,852.2016,855.8235,852.8426,846,852.5234,846.0753,852.7053,845.5862,852.2315,845.2807,852.201,844.9554,852.1229,844.6689,852.1384,844.2322,851.7912,844.2309,851.7907,844.2282,851.4967,843.7688,851.0135,843.5843,850.6442,843.8015,850.4412,843.5,850.0234,843.261,850.0234,843.6697,841.1797,843.5689,832.3359,843.4107,823.4922,843.3821,814.6484,843.5,805.8047,843.6413,805.8632,843.5543,805.413,843.9752,805.1731,843.7691,804.6735,844.2759,804.4692,844.2322,804.0369,844.294,804.1861,844.617,803.9659,844.9454,803.7586,845.3856,803.8213,845.7247,803.6401,846,803.3047" style="stroke:#181818;stroke-width:0.5;"/><text fill="#000000" font-family="FG Virgil" font-size="14" font-style="italic" lengthAdjust="spacing" textLength="60" x="899.5" y="824.8379">«service»</text><text fill="#000000" font-family="FG Virgil" font-size="14" lengthAdjust="spacing" textLength="158" x="850.5" y="842.4473">UserManagementService</text><polygon fill="#E3E3E3" points="1040,36,1040,36.2102,1050.1429,35.5857,1060.2857,36.1933,1070.4286,36.3997,1080.5714,35.2866,1090.7143,35.9223,1100.8571,35.5735,1111,36,1110.9511,35.8819,1111.3449,36.1255,1111.6189,36.08,1112.1313,36.6098,1112.3338,36.3917,1112.7678,36.7322,1112.7069,36.707,1113.0472,37.1409,1113.0342,37.4284,1113.2281,37.8016,1113.3437,38.1424,1113.5,38.5,1113.5595,38.5,1113.5797,47.3438,1113.6952,56.1875,1113.7237,65.0313,1113.7264,73.875,1113.5,82.7188,1113.5784,82.7512,1113.4963,83.1314,1113.4234,83.5154,1112.8386,83.6874,1113.1232,84.2195,1112.7678,84.4865,1112.7299,84.3952,1112.4823,84.7974,1111.9975,84.627,1111.6984,84.9048,1111.4482,85.3007,1111,85.2188,1111,85.17,1100.8571,85.3241,1090.7143,85.5574,1080.5714,85.635,1070.4286,85.2148,1060.2857,85.506,1050.1429,84.6463,1040,85.2188,1040.0363,85.3063,1039.7164,85.2411,1039.3496,85.0628,1039.0175,84.9682,1038.5242,84.4842,1038.2322,84.4865,1038.0314,84.4033,1037.8944,84.0537,1037.9212,83.7719,1037.7324,83.4008,1037.8563,83.1592,1037.5,82.7188,1037.4418,82.7188,1037.3856,73.875,1037.5761,65.0313,1037.2777,56.1875,1037.327,47.3438,1037.5,38.5,1037.6999,38.5828,1037.7806,38.202,1038.0191,37.8866,1037.8402,37.3983,1038.1841,37.1265,1038.2322,36.7322,1038.3075,36.9141,1038.5255,36.4403,1038.9271,36.4098,1039.309,36.3317,1039.7296,36.3472,1040,36" style="stroke:#181818;stroke-width:0.5;"/><text fill="#000000" font-family="FG Virgil" font-size="14" font-style="italic" lengthAdjust="spacing" textLength="62" x="1044.5" y="57.5332">«domain»</text><text fill="#000000" font-family="FG Virgil" font-size="14" lengthAdjust="spacing" textLength="61" x="1045" y="75.1426">user:User</text><polygon fill="#E3E3E3" points="1040,803.3047,1040,803.5149,1050.1429,802.8904,1060.2857,803.498,1070.4286,803.7044,1080.5714,802.5913,1090.7143,803.227,1100.8571,802.8782,1111,803.3047,1110.9511,803.1866,1111.3449,803.4301,1111.6189,803.3847,1112.1313,803.9145,1112.3338,803.6964,1112.7678,804.0369,1112.7069,804.0117,1113.0472,804.4456,1113.0342,804.7331,1113.2281,805.1063,1113.3437,805.4471,1113.5,805.8047,1113.5595,805.8047,1113.5797,814.6484,1113.6952,823.4922,1113.7237,832.3359,1113.7264,841.1797,1113.5,850.0234,1113.5784,850.0559,1113.4963,850.4361,1113.4234,850.8201,1112.8386,850.9921,1113.1232,851.5242,1112.7678,851.7912,1112.7299,851.6999,1112.4823,852.102,1111.9975,851.9317,1111.6984,852.2094,1111.4482,852.6054,1111,852.5234,1111,852.4747,1100.8571,852.6287,1090.7143,852.8621,1080.5714,852.9397,1070.4286,852.5195,1060.2857,852.8107,1050.1429,851.951,1040,852.5234,1040.0363,852.611,1039.7164,852.5458,1039.3496,852.3674,1039.0175,852.2729,1038.5242,851.7889,1038.2322,851.7912,1038.0314,851.708,1037.8944,851.3584,1037.9212,851.0766,1037.7324,850.7055,1037.8563,850.4639,1037.5,850.0234,1037.4418,850.0234,1037.3856,841.1797,1037.5761,832.3359,1037.2777,823.4922,1037.327,814.6484,1037.5,805.8047,1037.6999,805.8875,1037.7806,805.5067,1038.0191,805.1913,1037.8402,804.703,1038.1841,804.4312,1038.2322,804.0369,1038.3075,804.2187,1038.5255,803.745,1038.9271,803.7145,1039.309,803.6364,1039.7296,803.6518,1040,803.3047" style="stroke:#181818;stroke-width:0.5;"/><text fill="#000000" font-family="FG Virgil" font-size="14" font-style="italic" lengthAdjust="spacing" textLength="62" x="1044.5" y="824.8379">«domain»</text><text fill="#000000" font-family="FG Virgil" font-size="14" lengthAdjust="spacing" textLength="61" x="1045" y="842.4473">user:User</text><polygon fill="#E3E3E3" points="1126,36,1126,36.2102,1136.0769,35.5857,1146.1538,36.1933,1156.2308,36.3997,1166.3077,35.2866,1176.3846,35.9223,1186.4615,35.5735,1196.5385,35.6165,1206.6154,35.9318,1216.6923,35.3086,1226.7692,36.5536,1236.8462,35.3697,1246.9231,35.8022,1257,36,1257.0551,36.133,1257.3426,36.12,1257.7158,36.3139,1258.0566,36.4295,1258.437,36.6408,1258.7678,36.7322,1258.8414,36.7627,1259.0946,37.1605,1259.2673,37.5249,1259.4163,37.8795,1259.432,38.1789,1259.5,38.5,1259.6545,38.5,1259.7341,47.3438,1259.2596,56.1875,1259.7262,65.0313,1259.4012,73.875,1259.5,82.7188,1259.6644,82.7868,1259.2011,83.0092,1259.186,83.4171,1259.289,83.874,1258.8992,84.1267,1258.7678,84.4865,1258.7812,84.5189,1258.4574,84.7372,1258.1138,84.9076,1257.7066,84.9247,1257.3902,85.1608,1257,85.2188,1257,84.6463,1246.9231,85.5031,1236.8462,85.7669,1226.7692,85.6633,1216.6923,85.8318,1206.6154,84.7357,1196.5385,84.5666,1186.4615,84.5973,1176.3846,85.1599,1166.3077,85.0222,1156.2308,85.9002,1146.1538,85.0441,1136.0769,84.8757,1126,85.2188,1126.0291,85.289,1125.5614,84.8669,1125.2267,84.766,1125.0221,84.9793,1124.6414,84.7671,1124.2322,84.4865,1124.4584,84.5802,1123.9867,84.0919,1124.0376,83.8201,1123.9747,83.5012,1123.501,83.012,1123.5,82.7188,1123.468,82.7188,1123.542,73.875,1123.7173,65.0313,1123.4986,56.1875,1123.6542,47.3438,1123.5,38.5,1123.3295,38.4294,1123.4379,38.0601,1123.948,37.8571,1123.7186,37.3479,1124.2425,37.1507,1124.2322,36.7322,1124.2586,36.7959,1124.5516,36.5033,1124.8942,36.3304,1125.3514,36.4342,1125.6083,36.0543,1126,36" style="stroke:#181818;stroke-width:0.5;"/><text fill="#000000" font-family="FG Virgil" font-size="14" font-style="italic" lengthAdjust="spacing" textLength="89" x="1147" y="57.5332">«persistence»</text><text fill="#000000" font-family="FG Virgil" font-size="14" lengthAdjust="spacing" textLength="122" x="1130.5" y="75.1426">PersistenceContext</text><polygon fill="#E3E3E3" points="1126,803.3047,1126,803.5149,1136.0769,802.8904,1146.1538,803.498,1156.2308,803.7044,1166.3077,802.5913,1176.3846,803.227,1186.4615,802.8782,1196.5385,802.9212,1206.6154,803.2365,1216.6923,802.6133,1226.7692,803.8583,1236.8462,802.6744,1246.9231,803.1069,1257,803.3047,1257.0551,803.4377,1257.3426,803.4247,1257.7158,803.6186,1258.0566,803.7342,1258.437,803.9455,1258.7678,804.0369,1258.8414,804.0674,1259.0946,804.4652,1259.2673,804.8296,1259.4163,805.1842,1259.432,805.4836,1259.5,805.8047,1259.6545,805.8047,1259.7341,814.6484,1259.2596,823.4922,1259.7262,832.3359,1259.4012,841.1797,1259.5,850.0234,1259.6644,850.0915,1259.2011,850.3138,1259.186,850.7218,1259.289,851.1787,1258.8992,851.4314,1258.7678,851.7912,1258.7812,851.8236,1258.4574,852.0419,1258.1138,852.2123,1257.7066,852.2293,1257.3902,852.4654,1257,852.5234,1257,851.951,1246.9231,852.8078,1236.8462,853.0716,1226.7692,852.968,1216.6923,853.1365,1206.6154,852.0404,1196.5385,851.8713,1186.4615,851.902,1176.3846,852.4646,1166.3077,852.3269,1156.2308,853.2048,1146.1538,852.3488,1136.0769,852.1804,1126,852.5234,1126.0291,852.5937,1125.5614,852.1716,1125.2267,852.0707,1125.0221,852.2839,1124.6414,852.0718,1124.2322,851.7912,1124.4584,851.8849,1123.9867,851.3966,1124.0376,851.1248,1123.9747,850.8059,1123.501,850.3167,1123.5,850.0234,1123.468,850.0234,1123.542,841.1797,1123.7173,832.3359,1123.4986,823.4922,1123.6542,814.6484,1123.5,805.8047,1123.3295,805.734,1123.4379,805.3647,1123.948,805.1618,1123.7186,804.6526,1124.2425,804.4554,1124.2322,804.0369,1124.2586,804.1006,1124.5516,803.808,1124.8942,803.6351,1125.3514,803.7389,1125.6083,803.359,1126,803.3047" style="stroke:#181818;stroke-width:0.5;"/><text fill="#000000" font-family="FG Virgil" font-size="14" font-style="italic" lengthAdjust="spacing" textLength="89" x="1147" y="824.8379">«persistence»</text><text fill="#000000" font-family="FG Virgil" font-size="14" lengthAdjust="spacing" textLength="122" x="1130.5" y="842.4473">PersistenceContext</text><polygon fill="#E3E3E3" points="1272,36,1272,36.2102,1281.6154,35.5857,1291.2308,36.1933,1300.8462,36.3997,1310.4615,35.2866,1320.0769,35.9223,1329.6923,35.5735,1339.3077,35.6165,1348.9231,35.9318,1358.5385,35.3086,1368.1538,36.5536,1377.7692,35.3697,1387.3846,35.8022,1397,36,1397.0551,36.133,1397.3426,36.12,1397.7158,36.3139,1398.0566,36.4295,1398.437,36.6408,1398.7678,36.7322,1398.8414,36.7627,1399.0946,37.1605,1399.2673,37.5249,1399.4163,37.8795,1399.432,38.1789,1399.5,38.5,1399.6545,38.5,1399.7341,47.3438,1399.2596,56.1875,1399.7262,65.0313,1399.4012,73.875,1399.5,82.7188,1399.6644,82.7868,1399.2011,83.0092,1399.186,83.4171,1399.289,83.874,1398.8992,84.1267,1398.7678,84.4865,1398.7812,84.5189,1398.4574,84.7372,1398.1138,84.9076,1397.7066,84.9247,1397.3902,85.1608,1397,85.2188,1397,84.6463,1387.3846,85.5031,1377.7692,85.7669,1368.1538,85.6633,1358.5385,85.8318,1348.9231,84.7357,1339.3077,84.5666,1329.6923,84.5973,1320.0769,85.1599,1310.4615,85.0222,1300.8462,85.9002,1291.2308,85.0441,1281.6154,84.8757,1272,85.2188,1272.0291,85.289,1271.5614,84.8669,1271.2267,84.766,1271.0221,84.9793,1270.6414,84.7671,1270.2322,84.4865,1270.4584,84.5802,1269.9867,84.0919,1270.0376,83.8201,1269.9747,83.5012,1269.501,83.012,1269.5,82.7188,1269.468,82.7188,1269.542,73.875,1269.7173,65.0313,1269.4986,56.1875,1269.6542,47.3438,1269.5,38.5,1269.3295,38.4294,1269.4379,38.0601,1269.948,37.8571,1269.7186,37.3479,1270.2425,37.1507,1270.2322,36.7322,1270.2586,36.7959,1270.5516,36.5033,1270.8942,36.3304,1271.3514,36.4342,1271.6083,36.0543,1272,36" style="stroke:#181818;stroke-width:0.5;"/><text fill="#000000" font-family="FG Virgil" font-size="14" font-style="italic" lengthAdjust="spacing" textLength="59" x="1305" y="57.5332">«factory»</text><text fill="#000000" font-family="FG Virgil" font-size="14" lengthAdjust="spacing" textLength="116" x="1276.5" y="75.1426">RepositoryFactory</text><polygon fill="#E3E3E3" points="1272,803.3047,1272,803.5149,1281.6154,802.8904,1291.2308,803.498,1300.8462,803.7044,1310.4615,802.5913,1320.0769,803.227,1329.6923,802.8782,1339.3077,802.9212,1348.9231,803.2365,1358.5385,802.6133,1368.1538,803.8583,1377.7692,802.6744,1387.3846,803.1069,1397,803.3047,1397.0551,803.4377,1397.3426,803.4247,1397.7158,803.6186,1398.0566,803.7342,1398.437,803.9455,1398.7678,804.0369,1398.8414,804.0674,1399.0946,804.4652,1399.2673,804.8296,1399.4163,805.1842,1399.432,805.4836,1399.5,805.8047,1399.6545,805.8047,1399.7341,814.6484,1399.2596,823.4922,1399.7262,832.3359,1399.4012,841.1797,1399.5,850.0234,1399.6644,850.0915,1399.2011,850.3138,1399.186,850.7218,1399.289,851.1787,1398.8992,851.4314,1398.7678,851.7912,1398.7812,851.8236,1398.4574,852.0419,1398.1138,852.2123,1397.7066,852.2293,1397.3902,852.4654,1397,852.5234,1397,851.951,1387.3846,852.8078,1377.7692,853.0716,1368.1538,852.968,1358.5385,853.1365,1348.9231,852.0404,1339.3077,851.8713,1329.6923,851.902,1320.0769,852.4646,1310.4615,852.3269,1300.8462,853.2048,1291.2308,852.3488,1281.6154,852.1804,1272,852.5234,1272.0291,852.5937,1271.5614,852.1716,1271.2267,852.0707,1271.0221,852.2839,1270.6414,852.0718,1270.2322,851.7912,1270.4584,851.8849,1269.9867,851.3966,1270.0376,851.1248,1269.9747,850.8059,1269.501,850.3167,1269.5,850.0234,1269.468,850.0234,1269.542,841.1797,1269.7173,832.3359,1269.4986,823.4922,1269.6542,814.6484,1269.5,805.8047,1269.3295,805.734,1269.4379,805.3647,1269.948,805.1618,1269.7186,804.6526,1270.2425,804.4554,1270.2322,804.0369,1270.2586,804.1006,1270.5516,803.808,1270.8942,803.6351,1271.3514,803.7389,1271.6083,803.359,1272,803.3047" style="stroke:#181818;stroke-width:0.5;"/><text fill="#000000" font-family="FG Virgil" font-size="14" font-style="italic" lengthAdjust="spacing" textLength="59" x="1305" y="824.8379">«factory»</text><text fill="#000000" font-family="FG Virgil" font-size="14" lengthAdjust="spacing" textLength="116" x="1276.5" y="842.4473">RepositoryFactory</text><text fill="#000000" font-family="FG Virgil" font-size="14" font-style="italic" lengthAdjust="spacing" textLength="79" x="1418.5" y="65.5332">«repository»</text><text fill="#000000" font-family="FG Virgil" font-size="14" lengthAdjust="spacing" textLength="97" x="1409.5" y="83.1426">UserRepository</text><path d="M1443,15 L1443,15 L1443.0651,15.067 L1444.6716,13.118 L1446.6599,11.5616 L1448.5238,9.8774 L1449.979,7.7727 L1452,6.25 L1451.9952,6.2158 L1453.7739,5.8122 L1455.5766,5.5812 L1457.3958,5.47 L1459.1577,4.9456 L1461,5 L1461,5 L1461.0339,5.2437 L1462.7615,4.9725 L1464.5879,5.4129 L1466.4264,5.9402 L1468.1948,5.9622 L1470,6.25 L1470.0211,6.2717 L1471.7901,7.9898 L1473.6553,9.8069 L1475.4741,11.5762 L1477.3815,13.4366 L1479,15 L1479.5965,15 L1479.6038,20.2 L1479.2263,25.4 L1479.4121,30.6 L1479.6242,35.8 L1479,41 L1479,41 L1478.7766,40.7702 L1477.4102,42.9662 L1475.3081,44.4055 L1473.7654,46.4201 L1471.6466,47.8423 L1470,49.75 L1469.9958,49.7198 L1468.2453,50.3265 L1466.397,50.2285 L1464.6064,50.5464 L1462.8207,50.8991 L1461,51 L1461,51 L1461.0254,51.1832 L1459.1998,50.7483 L1457.4176,50.6264 L1455.565,49.998 L1453.8174,50.1252 L1452,49.75 L1452.1698,49.9247 L1450.3377,48.1417 L1448.5899,46.4453 L1446.4503,44.3461 L1444.5979,42.5422 L1443,41 L1442.4476,41 L1442.9477,35.8 L1442.8253,30.6 L1443.6057,25.4 L1442.8447,20.2 L1443,15 " fill="#E3E3E3" style="stroke:#181818;stroke-width:1.5;"/><path d="M1443,15 L1443,15 L1443.0651,15.067 L1444.6716,16.618 L1446.6599,18.5616 L1448.5238,20.3774 L1449.979,21.7727 L1452,23.75 L1451.9952,23.7158 L1453.7739,23.8122 L1455.5766,24.0812 L1457.3958,24.47 L1459.1577,24.4456 L1461,25 L1461,25 L1461.0339,25.2437 L1462.7615,24.4725 L1464.5879,24.4129 L1466.4264,24.4402 L1468.1948,23.9622 L1470,23.75 L1470.0211,23.7717 L1471.7901,21.9898 L1473.6553,20.3069 L1475.4741,18.5762 L1477.3815,16.9366 L1479,15 " fill="none" style="stroke:#181818;stroke-width:1.5;"/><text fill="#000000" font-family="FG Virgil" font-size="14" font-style="italic" lengthAdjust="spacing" textLength="79" x="1418.5" y="817.8379">«repository»</text><text fill="#000000" font-family="FG Virgil" font-size="14" lengthAdjust="spacing" textLength="97" x="1409.5" y="835.4473">UserRepository</text><path d="M1443,848.5234 L1443,848.5234 L1443.0651,848.5904 L1444.6716,846.6414 L1446.6599,845.085 L1448.5238,843.4008 L1449.979,841.2961 L1452,839.7734 L1451.9952,839.7392 L1453.7739,839.3357 L1455.5766,839.1046 L1457.3958,838.9934 L1459.1577,838.4691 L1461,838.5234 L1461,838.5234 L1461.0339,838.7672 L1462.7615,838.496 L1464.5879,838.9364 L1466.4264,839.4636 L1468.1948,839.4857 L1470,839.7734 L1470.0211,839.7952 L1471.7901,841.5133 L1473.6553,843.3303 L1475.4741,845.0996 L1477.3815,846.9601 L1479,848.5234 L1479.5965,848.5234 L1479.6038,853.7234 L1479.2263,858.9234 L1479.4121,864.1234 L1479.6242,869.3234 L1479,874.5234 L1479,874.5234 L1478.7766,874.2936 L1477.4102,876.4897 L1475.3081,877.929 L1473.7654,879.9435 L1471.6466,881.3657 L1470,883.2734 L1469.9958,883.2433 L1468.2453,883.8499 L1466.397,883.752 L1464.6064,884.0698 L1462.8207,884.4225 L1461,884.5234 L1461,884.5234 L1461.0254,884.7067 L1459.1998,884.2717 L1457.4176,884.1499 L1455.565,883.5214 L1453.8174,883.6486 L1452,883.2734 L1452.1698,883.4481 L1450.3377,881.6651 L1448.5899,879.9688 L1446.4503,877.8695 L1444.5979,876.0656 L1443,874.5234 L1442.4476,874.5234 L1442.9477,869.3234 L1442.8253,864.1234 L1443.6057,858.9234 L1442.8447,853.7234 L1443,848.5234 " fill="#E3E3E3" style="stroke:#181818;stroke-width:1.5;"/><path d="M1443,848.5234 L1443,848.5234 L1443.0651,848.5904 L1444.6716,850.1414 L1446.6599,852.085 L1448.5238,853.9008 L1449.979,855.2961 L1452,857.2734 L1451.9952,857.2392 L1453.7739,857.3357 L1455.5766,857.6046 L1457.3958,857.9934 L1459.1577,857.9691 L1461,858.5234 L1461,858.5234 L1461.0339,858.7672 L1462.7615,857.996 L1464.5879,857.9364 L1466.4264,857.9636 L1468.1948,857.4857 L1470,857.2734 L1470.0211,857.2952 L1471.7901,855.5133 L1473.6553,853.8303 L1475.4741,852.0996 L1477.3815,850.4601 L1479,848.5234 " fill="none" style="stroke:#181818;stroke-width:1.5;"/><polygon fill="#FFFFFF" points="179,118.5703,179,118.6404,181,118.4322,183,118.6347,185,118.7035,187,118.3325,189,118.5703,188.9223,118.5703,188.5735,128.5365,188.6165,138.5027,188.9318,148.4689,188.3086,158.4351,189.5536,168.4012,188.3697,178.3674,188.8022,188.3336,189.4319,198.2998,188.9142,208.266,189.0682,218.2322,188.9681,228.1983,189.1785,238.1645,189.2391,248.1307,189.5857,258.0969,189.6711,268.0631,189.6793,278.0293,189.2546,287.9955,189.4636,297.9616,189.7022,307.9278,188.2788,317.894,189.6785,327.8602,188.7035,337.8264,189.5338,347.7926,188.505,357.7587,188.9315,367.7249,189.7416,377.6911,188.9513,387.6573,189.1053,397.6235,189.3386,407.5897,189.4162,417.5559,188.9961,427.522,189.2872,437.4882,188.4276,447.4544,189.2844,457.4206,189.5482,467.3868,189.4445,477.353,189.613,487.3191,188.5169,497.2853,188.3478,507.2515,188.3786,517.2177,188.9411,527.1839,188.8035,537.1501,189.6814,547.1163,188.8253,557.0824,188.6569,567.0486,189.2283,577.0148,188.3332,586.981,188.4809,596.9472,189.649,606.9134,189.4357,616.8795,189.7345,626.8457,188.6782,636.8119,189.3192,646.7781,189.5904,656.7443,188.5276,666.7105,188.9041,676.6767,189.126,686.6428,189.6518,696.609,188.9958,706.5752,189.4626,716.5414,188.4462,726.5076,188.3227,736.4738,189.5036,746.4399,188.2831,756.4061,189.509,766.3723,189.2066,776.3385,189,786.3047,189,786.2154,187,786.1868,185,786.4576,183,786.2049,181,786.502,179,786.3047,178.4473,786.3047,179.6174,776.3385,179.4843,766.3723,179.245,756.4061,179.0472,746.4399,179.7266,736.4738,179.6136,726.5076,179.1693,716.5414,179.2682,706.5752,178.8697,696.609,179.7165,686.6428,179.1549,676.6767,179.1726,666.7105,178.3916,656.7443,178.5948,646.7781,179.5307,636.8119,179.4298,626.8457,178.9571,616.8795,178.6778,606.9134,178.7811,596.9472,178.3138,586.981,179.4147,577.0148,179.7396,567.0486,179.5264,557.0824,179.6949,547.1163,178.8633,537.1501,179.0872,527.1839,178.6124,517.2177,179.284,507.2515,179.2468,497.2853,179.5524,487.3191,178.7703,477.353,178.8656,467.3868,179.4435,457.4206,179.5673,447.4544,178.4875,437.4882,178.8061,427.522,179.1493,417.5559,178.3892,407.5897,179.3534,397.6235,179.258,387.6573,178.8992,377.6911,179.1422,367.7249,179.7287,357.7587,178.6871,347.7926,179.315,337.8264,179.2856,327.8602,179.1158,317.894,179.1409,307.9278,179.1135,297.9616,178.3758,287.9955,178.5992,278.0293,178.5385,268.0631,179.0638,258.0969,179.0881,248.1307,179.1617,238.1645,178.709,228.1983,178.9325,218.2322,178.8798,208.266,179.5769,198.2998,179.4266,188.3336,178.5145,178.3674,178.9271,168.4012,178.4228,158.4351,179.2884,148.4689,179.6085,138.5027,179.5446,128.5365,179,118.5703" style="stroke:#181818;stroke-width:1.0;"/><polygon fill="#FFFFFF" points="366,239.9766,366,240.0466,368,239.8385,370,240.041,372,240.1098,374,239.7388,376,239.9766,375.9223,239.9766,375.5735,249.8992,375.6165,259.8218,375.9318,269.7444,375.3086,279.6671,376.5536,289.5897,375.3697,299.5123,375.8022,309.4349,376.4319,319.3576,375.9142,329.2802,376.0682,339.2028,375.9681,349.1255,376.1785,359.0481,376.2391,368.9707,376.5857,378.8933,376.6711,388.816,376.6793,398.7386,376.2546,408.6612,376.4636,418.5838,376.7022,428.5065,375.2788,438.4291,376.6785,448.3517,375.7035,458.2743,376.5338,468.197,375.505,478.1196,375.9315,488.0422,376.7416,497.9648,375.9513,507.8875,376.1053,517.8101,376.3386,527.7327,376.4162,537.6553,375.9961,547.578,376.2872,557.5006,375.4276,567.4232,376.2844,577.3459,376.5482,587.2685,376.4445,597.1911,376.613,607.1137,375.5169,617.0364,375.3478,626.959,375.3786,636.8816,375.9411,646.8042,375.8035,656.7269,376.6814,666.6495,375.8253,676.5721,375.6569,686.4947,376.2283,696.4174,375.3332,706.34,375.4809,716.2626,376.649,726.1852,376.4357,736.1079,376.7345,746.0305,376,755.9531,376,755.8459,374,756.0595,372,756.1499,370,755.7957,368,755.9212,366,755.9531,366.126,755.9531,366.6518,746.0305,365.9958,736.1079,366.4626,726.1852,365.4462,716.2626,365.3227,706.34,366.5036,696.4174,365.2831,686.4947,366.509,676.5721,366.2066,666.6495,365.7321,656.7269,365.6462,646.8042,366.4588,636.8816,365.7007,626.959,366.5919,617.0364,365.4473,607.1137,366.6174,597.1911,366.4843,587.2685,366.245,577.3459,366.0472,567.4232,366.7266,557.5006,366.6136,547.578,366.1693,537.6553,366.2682,527.7327,365.8697,517.8101,366.7165,507.8875,366.1549,497.9648,366.1726,488.0422,365.3916,478.1196,365.5948,468.197,366.5307,458.2743,366.4298,448.3517,365.9571,438.4291,365.6778,428.5065,365.7811,418.5838,365.3138,408.6612,366.4147,398.7386,366.7396,388.816,366.5264,378.8933,366.6949,368.9707,365.8633,359.0481,366.0872,349.1255,365.6124,339.2028,366.284,329.2802,366.2468,319.3576,366.5524,309.4349,365.7703,299.5123,365.8656,289.5897,366.4435,279.6671,366.5673,269.7444,365.4875,259.8218,365.8061,249.8992,366,239.9766" style="stroke:#181818;stroke-width:1.0;"/><polygon fill="#FFFFFF" points="757,270.3281,757,270.3982,759,270.19,761,270.3926,763,270.4614,765,270.0903,767,270.3281,766.9741,270.3281,766.8578,276.3984,766.8722,282.4688,766.9773,288.5391,766.7695,294.6094,767,300.6797,767,300.8642,765,300.4696,763,300.6138,761,300.8237,759,300.6511,757,300.6797,757.0227,300.6797,756.9894,294.6094,757.0595,288.5391,757.0797,282.4688,757.1952,276.3984,757,270.3281" style="stroke:#181818;stroke-width:1.0;"/><polygon fill="#FFFFFF" points="924.5,331.0313,924.5,331.1013,926.5,330.8931,928.5,331.0957,930.5,331.1645,932.5,330.7935,934.5,331.0313,934.4223,331.0313,934.0735,341.1484,934.1165,351.2656,934.4318,361.3828,933.8086,371.5,935.0536,381.6172,933.8697,391.7344,934.3022,401.8516,934.9319,411.9688,934.4142,422.0859,934.5682,432.2031,934.4681,442.3203,934.6785,452.4375,934.7391,462.5547,935.0857,472.6719,935.1711,482.7891,935.1793,492.9063,934.7546,503.0234,934.9636,513.1406,935.2022,523.2578,933.7788,533.375,935.1785,543.4922,934.2035,553.6094,935.0338,563.7266,934.005,573.8438,934.4315,583.9609,935.2416,594.0781,934.4513,604.1953,934.6053,614.3125,934.8386,624.4297,934.9162,634.5469,934.4961,644.6641,934.7872,654.7813,933.9276,664.8984,934.7844,675.0156,935.0482,685.1328,934.9445,695.25,935.113,705.3672,934.0169,715.4844,934.5,725.6016,934.5,725.3842,932.5,725.3944,930.5,725.5819,928.5,725.5361,926.5,725.8287,924.5,725.6016,924.3253,725.6016,924.1569,715.4844,924.7283,705.3672,923.8332,695.25,923.9809,685.1328,925.149,675.0156,924.9357,664.8984,925.2345,654.7813,924.1782,644.6641,924.8192,634.5469,925.0904,624.4297,924.0276,614.3125,924.4041,604.1953,924.626,594.0781,925.1518,583.9609,924.4958,573.8438,924.9626,563.7266,923.9462,553.6094,923.8227,543.4922,925.0036,533.375,923.7831,523.2578,925.009,513.1406,924.7066,503.0234,924.2321,492.9063,924.1462,482.7891,924.9588,472.6719,924.2007,462.5547,925.0919,452.4375,923.9473,442.3203,925.1174,432.2031,924.9843,422.0859,924.745,411.9688,924.5472,401.8516,925.2266,391.7344,925.1136,381.6172,924.6693,371.5,924.7682,361.3828,924.3697,351.2656,925.2165,341.1484,924.5,331.0313" style="stroke:#181818;stroke-width:1.0;"/><polygon fill="#FFFFFF" points="1186.5,391.7344,1186.5,391.8044,1188.5,391.5963,1190.5,391.7988,1192.5,391.8676,1194.5,391.4966,1196.5,391.7344,1196.4223,391.7344,1196.0735,401.8516,1196.1165,411.9688,1196.4318,422.0859,1195.8086,432.2031,1197.0536,442.3203,1196.5,452.4375,1196.5,452.2274,1194.5,452.3716,1192.5,452.5815,1190.5,452.4089,1188.5,452.4602,1186.5,452.4375,1186.4681,452.4375,1186.6785,442.3203,1186.7391,432.2031,1187.0857,422.0859,1187.1711,411.9688,1187.1793,401.8516,1186.5,391.7344" style="stroke:#181818;stroke-width:1.0;"/><polygon fill="#FFFFFF" points="1329.5,482.7891,1329.5,482.8591,1331.5,482.651,1333.5,482.8535,1335.5,482.9223,1337.5,482.5513,1339.5,482.7891,1339.4223,482.7891,1339.0735,492.9063,1339.1165,503.0234,1339.4318,513.1406,1338.8086,523.2578,1340.0536,533.375,1339.5,543.4922,1339.5,543.2821,1337.5,543.4263,1335.5,543.6362,1333.5,543.4636,1331.5,543.5149,1329.5,543.4922,1329.4681,543.4922,1329.6785,533.375,1329.7391,523.2578,1330.0857,513.1406,1330.1711,503.0234,1330.1793,492.9063,1329.5,482.7891" style="stroke:#181818;stroke-width:1.0;"/><polygon fill="#FFFFFF" points="1456,573.8438,1456,573.9138,1458,573.7056,1460,573.9082,1462,573.977,1464,573.606,1466,573.8438,1465.9741,573.8438,1465.8578,579.9141,1465.8722,585.9844,1465.9773,592.0547,1465.7695,598.125,1466,604.1953,1466,604.3799,1464,603.9852,1462,604.1294,1460,604.3393,1458,604.1667,1456,604.1953,1456.0227,604.1953,1455.9894,598.125,1456.0595,592.0547,1456.0797,585.9844,1456.1952,579.9141,1456,573.8438" style="stroke:#181818;stroke-width:1.0;"/><polygon fill="#FFFFFF" points="1456,664.8984,1456,664.9685,1458,664.7603,1460,664.9629,1462,665.0317,1464,664.6606,1466,664.8984,1465.9741,664.8984,1465.8578,670.9688,1465.8722,677.0391,1465.9773,683.1094,1465.7695,689.1797,1466,695.25,1466,695.4345,1464,695.0399,1462,695.1841,1460,695.394,1458,695.2214,1456,695.25,1456.0227,695.25,1455.9894,689.1797,1456.0595,683.1094,1456.0797,677.0391,1456.1952,670.9688,1456,664.8984" style="stroke:#181818;stroke-width:1.0;"/><polygon fill="#181818" points="167,114.5703,167.026,114.6354,168.9487,115.2421,171.0239,116.2301,173.0495,117.094,174.9117,117.5495,177,118.5703,176.9904,118.5463,174.9472,119.2383,172.9525,120.0516,170.9916,120.9492,168.9144,121.5563,167,122.5703,167.1305,122.7008,167.6514,121.6218,168.5534,120.9237,169.5018,120.2721,170.1798,119.3501,171,118.5703,171.0161,118.5864,170.1925,117.7628,169.4421,117.0124,168.6564,116.2267,167.938,115.5084,167,114.5703" style="stroke:#181818;stroke-width:1.0;"/><path d="M36,118.5703 L36,118.8506 L45.7857,118.0179 L55.5714,118.828 L65.3571,119.1032 L75.1429,117.6191 L84.9286,118.4667 L94.7143,118.0017 L104.5,118.059 L114.2857,118.4794 L124.0714,117.6485 L133.8571,119.3085 L143.6429,117.7299 L153.4286,118.3066 L163.2143,119.1462 L173,118.5703 " fill="none" style="stroke:#181818;stroke-width:1.0;stroke-dasharray:2.0,2.0;"/><text fill="#000000" font-family="FG Virgil" font-size="13" lengthAdjust="spacing" textLength="74" x="43" y="113.7139">Disable User</text><polygon fill="#181818" points="359,144.9219,359.026,144.9869,360.9487,145.5936,363.0239,146.5817,365.0495,147.4456,366.9117,147.9011,369,148.9219,368.9904,148.8978,366.9472,149.5899,364.9525,150.4032,362.9916,151.3008,360.9144,151.9079,359,152.9219,359.1305,153.0524,359.6514,151.9733,360.5534,151.2753,361.5018,150.6237,362.1798,149.7017,363,148.9219,363.0161,148.938,362.1925,148.1143,361.4421,147.364,360.6564,146.5782,359.938,145.8599,359,144.9219" style="stroke:#181818;stroke-width:1.0;"/><path d="M189,148.9219 L189,149.2021 L198.7778,148.3694 L208.5556,149.1796 L218.3333,149.4548 L228.1111,147.9707 L237.8889,148.8183 L247.6667,148.3532 L257.4444,148.4105 L267.2222,148.831 L277,148 L286.7778,149.6601 L296.5556,148.0815 L306.3333,148.6582 L316.1111,149.4978 L325.8889,148.8075 L335.6667,149.0129 L345.4444,148.8793 L355.2222,149.1599 L365,148.9219 " fill="none" style="stroke:#181818;stroke-width:1.0;"/><text fill="#000000" font-family="FG Virgil" font-size="13" lengthAdjust="spacing" textLength="44" x="196" y="144.0654">create()</text><polygon fill="#181818" points="47,175.2734,47.026,175.3385,44.9487,175.9452,43.0239,176.9333,41.0495,177.7971,38.9117,178.2526,37,179.2734,36.9904,179.2494,38.9472,179.9414,40.9525,180.7547,42.9916,181.6523,44.9144,182.2595,47,183.2734,47.1305,183.4039,46.0514,182.3249,45.3534,181.6268,44.7018,180.9752,43.7798,180.0532,43,179.2734,43.0161,179.2895,43.7925,178.4659,44.6421,177.7155,45.4564,176.9298,46.338,176.2115,47,175.2734" style="stroke:#181818;stroke-width:1.0;"/><path d="M41,179.2734 L41,179.5537 L50.7857,178.721 L60.5714,179.5312 L70.3571,179.8063 L80.1429,178.3222 L89.9286,179.1698 L99.7143,178.7048 L109.5,178.7621 L119.2857,179.1826 L129.0714,178.3516 L138.8571,180.0116 L148.6429,178.4331 L158.4286,179.0097 L168.2143,179.8494 L178,179.2734 " fill="none" style="stroke:#181818;stroke-width:1.0;stroke-dasharray:2.0,2.0;"/><text fill="#000000" font-family="FG Virgil" font-size="13" lengthAdjust="spacing" textLength="119" x="53" y="174.417">Ask user information</text><polygon fill="#181818" points="167,205.625,167.026,205.69,168.9487,206.2968,171.0239,207.2848,173.0495,208.1487,174.9117,208.6042,177,209.625,176.9904,209.6009,174.9472,210.293,172.9525,211.1063,170.9916,212.0039,168.9144,212.611,167,213.625,167.1305,213.7555,167.6514,212.6764,168.5534,211.9784,169.5018,211.3268,170.1798,210.4048,171,209.625,171.0161,209.6411,170.1925,208.8175,169.4421,208.0671,168.6564,207.2814,167.938,206.563,167,205.625" style="stroke:#181818;stroke-width:1.0;"/><path d="M36,209.625 L36,209.9052 L45.7857,209.0726 L55.5714,209.8827 L65.3571,210.1579 L75.1429,208.6738 L84.9286,209.5214 L94.7143,209.0563 L104.5,209.1137 L114.2857,209.5341 L124.0714,208.7032 L133.8571,210.3632 L143.6429,208.7846 L153.4286,209.3613 L163.2143,210.2009 L173,209.625 " fill="none" style="stroke:#181818;stroke-width:1.0;stroke-dasharray:2.0,2.0;"/><text fill="#000000" font-family="FG Virgil" font-size="13" lengthAdjust="spacing" textLength="31" x="43" y="204.7686">email</text><polygon fill="#181818" points="354,235.9766,354.026,236.0416,355.9487,236.6483,358.0239,237.6364,360.0495,238.5003,361.9117,238.9558,364,239.9766,363.9904,239.9525,361.9472,240.6446,359.9525,241.4579,357.9916,242.3555,355.9144,242.9626,354,243.9766,354.1305,244.1071,354.6514,243.028,355.5534,242.3299,356.5018,241.6784,357.1798,240.7563,358,239.9766,358.0161,239.9926,357.1925,239.169,356.4421,238.4186,355.6564,237.6329,354.938,236.9146,354,235.9766" style="stroke:#181818;stroke-width:1.0;"/><path d="M189,239.9766 L189,240.2568 L199.0588,239.4241 L209.1176,240.2343 L219.1765,240.5095 L229.2353,239.0254 L239.2941,239.8729 L249.3529,239.4079 L259.4118,239.4652 L269.4706,239.8857 L279.5294,239.0547 L289.5882,240.7148 L299.6471,239.1362 L309.7059,239.7129 L319.7647,240.5525 L329.8235,239.8622 L339.8824,240.0675 L349.9412,239.934 L360,239.9766 " fill="none" style="stroke:#181818;stroke-width:1.0;"/><text fill="#000000" font-family="FG Virgil" font-size="13" lengthAdjust="spacing" textLength="158" x="196" y="235.1201">DisableUserByEmail(email)</text><polygon fill="#181818" points="745,266.3281,745.026,266.3932,746.9487,266.9999,749.0239,267.9879,751.0495,268.8518,752.9117,269.3073,755,270.3281,754.9904,270.3041,752.9472,270.9961,750.9525,271.8094,748.9916,272.707,746.9144,273.3142,745,274.3281,745.1305,274.4586,745.6514,273.3796,746.5534,272.6815,747.5018,272.0299,748.1798,271.1079,749,270.3281,749.0161,270.3442,748.1925,269.5206,747.4421,268.7702,746.6564,267.9845,745.938,267.2662,745,266.3281" style="stroke:#181818;stroke-width:1.0;"/><path d="M376,270.3281 L376,270.6084 L385.8684,269.7757 L395.7368,270.5858 L405.6053,270.861 L415.4737,269.3769 L425.3421,270.2245 L435.2105,269.7595 L445.0789,269.8168 L454.9474,270.2372 L464.8158,269.4063 L474.6842,271.0663 L484.5526,269.4878 L494.4211,270.0644 L504.2895,270.9041 L514.1579,270.2138 L524.0263,270.4191 L533.8947,270.2855 L543.7632,270.5662 L553.6316,270.647 L563.5,271.109 L573.3684,271.2229 L583.2368,271.2338 L593.1053,270.6676 L602.9737,270.9462 L612.8421,271.2644 L622.7105,269.3665 L632.5789,271.2328 L642.4474,269.9328 L652.3158,271.0399 L662.1842,269.6681 L672.0526,270.2368 L681.9211,271.3169 L691.7895,270.2631 L701.6579,270.4685 L711.5263,270.7796 L721.3947,270.8831 L731.2632,270.3229 L741.1316,270.7111 L751,270.3281 " fill="none" style="stroke:#181818;stroke-width:1.0;"/><text fill="#000000" font-family="FG Virgil" font-size="13" lengthAdjust="spacing" textLength="44" x="383" y="265.4717">create()</text><polygon fill="#181818" points="750,296.6797,750.026,296.7447,751.9487,297.3515,754.0239,298.3395,756.0495,299.2034,757.9117,299.6589,760,300.6797,759.9904,300.6556,757.9472,301.3477,755.9525,302.161,753.9916,303.0586,751.9144,303.6657,750,304.6797,750.1305,304.8102,750.6514,303.7311,751.5534,303.0331,752.5018,302.3815,753.1798,301.4595,754,300.6797,754.0161,300.6958,753.1925,299.8722,752.4421,299.1218,751.6564,298.3361,750.938,297.6177,750,296.6797" style="stroke:#181818;stroke-width:1.0;"/><path d="M376,300.6797 L376,300.9599 L386,300.1273 L396,300.9374 L406,301.2126 L416,299.7285 L426,300.5761 L436,300.111 L446,300.1684 L456,300.5888 L466,299.7579 L476,301.4179 L486,299.8393 L496,300.416 L506,301.2556 L516,300.5653 L526,300.7707 L536,300.6371 L546,300.9177 L556,300.9985 L566,301.4606 L576,301.5744 L586,301.5854 L596,301.0192 L606,301.2978 L616,301.616 L626,299.7181 L636,301.5844 L646,300.2843 L656,301.3914 L666,300.0197 L676,300.5884 L686,301.6685 L696,300.6147 L706,300.8201 L716,301.1312 L726,301.2347 L736,300.6745 L746,301.0626 L756,300.6797 " fill="none" style="stroke:#181818;stroke-width:1.0;"/><text fill="#000000" font-family="FG Virgil" font-size="13" lengthAdjust="spacing" textLength="357" x="383" y="295.8232">ensureAuthenticatedUserHasAnyOf(CourseRoles.MANAGER)</text><polygon fill="#181818" points="912.5,327.0313,912.526,327.0963,914.4487,327.703,916.5239,328.6911,918.5495,329.5549,920.4117,330.0105,922.5,331.0313,922.4904,331.0072,920.4472,331.6993,918.4525,332.5126,916.4916,333.4102,914.4144,334.0173,912.5,335.0313,912.6305,335.1617,913.1514,334.0827,914.0534,333.3846,915.0018,332.7331,915.6798,331.811,916.5,331.0313,916.5161,331.0473,915.6925,330.2237,914.9421,329.4733,914.1564,328.6876,913.438,327.9693,912.5,327.0313" style="stroke:#181818;stroke-width:1.0;"/><path d="M376,331.0313 L376,331.3115 L386.0463,330.4788 L396.0926,331.289 L406.1389,331.5642 L416.1852,330.0801 L426.2315,330.9276 L436.2778,330.4626 L446.3241,330.5199 L456.3704,330.9404 L466.4167,330.1094 L476.463,331.7694 L486.5093,330.1909 L496.5556,330.7676 L506.6019,331.6072 L516.6481,330.9169 L526.6944,331.1222 L536.7407,330.9887 L546.787,331.2693 L556.8333,331.3501 L566.8796,331.8122 L576.9259,331.926 L586.9722,331.9369 L597.0185,331.3708 L607.0648,331.6494 L617.1111,331.9676 L627.1574,330.0697 L637.2037,331.9359 L647.25,330.6359 L657.2963,331.743 L667.3426,330.3712 L677.3889,330.9399 L687.4352,332.0201 L697.4815,330.9663 L707.5278,331.1717 L717.5741,331.4828 L727.6204,331.5862 L737.6667,331.026 L747.713,331.4142 L757.7593,330.268 L767.8056,331.4104 L777.8519,331.7622 L787.8981,331.624 L797.9444,331.8486 L807.9907,330.3871 L818.037,330.1617 L828.0833,330.2027 L838.1296,330.9527 L848.1759,330.7692 L858.2222,331.9398 L868.2685,330.7983 L878.3148,330.5738 L888.3611,331.3356 L898.4074,330.1421 L908.4537,330.3391 L918.5,331.0313 " fill="none" style="stroke:#181818;stroke-width:1.0;"/><text fill="#000000" font-family="FG Virgil" font-size="13" lengthAdjust="spacing" textLength="44" x="383" y="326.1748">create()</text><polygon fill="#181818" points="912.5,357.3828,912.526,357.4479,914.4487,358.0546,916.5239,359.0426,918.5495,359.9065,920.4117,360.362,922.5,361.3828,922.4904,361.3588,920.4472,362.0508,918.4525,362.8641,916.4916,363.7617,914.4144,364.3688,912.5,365.3828,912.6305,365.5133,913.1514,364.4343,914.0534,363.7362,915.0018,363.0846,915.6798,362.1626,916.5,361.3828,916.5161,361.3989,915.6925,360.5753,914.9421,359.8249,914.1564,359.0392,913.438,358.3209,912.5,357.3828" style="stroke:#181818;stroke-width:1.0;"/><path d="M376,361.3828 L376,361.6631 L386.0463,360.8304 L396.0926,361.6405 L406.1389,361.9157 L416.1852,360.4316 L426.2315,361.2792 L436.2778,360.8142 L446.3241,360.8715 L456.3704,361.2919 L466.4167,360.461 L476.463,362.121 L486.5093,360.5424 L496.5556,361.1191 L506.6019,361.9587 L516.6481,361.2684 L526.6944,361.4738 L536.7407,361.3402 L546.787,361.6208 L556.8333,361.7017 L566.8796,362.1637 L576.9259,362.2776 L586.9722,362.2885 L597.0185,361.7223 L607.0648,362.0009 L617.1111,362.3191 L627.1574,360.4212 L637.2037,362.2875 L647.25,360.9875 L657.2963,362.0946 L667.3426,360.7228 L677.3889,361.2915 L687.4352,362.3716 L697.4815,361.3178 L707.5278,361.5232 L717.5741,361.8343 L727.6204,361.9378 L737.6667,361.3776 L747.713,361.7658 L757.7593,360.6196 L767.8056,361.762 L777.8519,362.1137 L787.8981,361.9755 L797.9444,362.2002 L807.9907,360.7387 L818.037,360.5132 L828.0833,360.5543 L838.1296,361.3043 L848.1759,361.1208 L858.2222,362.2914 L868.2685,361.1499 L878.3148,360.9254 L888.3611,361.6872 L898.4074,360.4937 L908.4537,360.6906 L918.5,361.3828 " fill="none" style="stroke:#181818;stroke-width:1.0;"/><text fill="#000000" font-family="FG Virgil" font-size="13" lengthAdjust="spacing" textLength="134" x="383" y="356.5264">disableUser(userEmail)</text><polygon fill="#181818" points="1174.5,387.7344,1174.526,387.7994,1176.4487,388.4061,1178.5239,389.3942,1180.5495,390.2581,1182.4117,390.7136,1184.5,391.7344,1184.4904,391.7103,1182.4472,392.4024,1180.4525,393.2157,1178.4916,394.1133,1176.4144,394.7204,1174.5,395.7344,1174.6305,395.8649,1175.1514,394.7858,1176.0534,394.0878,1177.0018,393.4362,1177.6798,392.5142,1178.5,391.7344,1178.5161,391.7505,1177.6925,390.9268,1176.9421,390.1765,1176.1564,389.3907,1175.438,388.6724,1174.5,387.7344" style="stroke:#181818;stroke-width:1.0;"/><path d="M934.5,391.7344 L934.5,392.0146 L944.34,391.1819 L954.18,391.9921 L964.02,392.2673 L973.86,390.7832 L983.7,391.6308 L993.54,391.1657 L1003.38,391.223 L1013.22,391.6435 L1023.06,390.8125 L1032.9,392.4726 L1042.74,390.894 L1052.58,391.4707 L1062.42,392.3103 L1072.26,391.62 L1082.1,391.8254 L1091.94,391.6918 L1101.78,391.9724 L1111.62,392.0532 L1121.46,392.5153 L1131.3,392.6291 L1141.14,392.6401 L1150.98,392.0739 L1160.82,392.3525 L1170.66,392.6707 L1180.5,391.7344 " fill="none" style="stroke:#181818;stroke-width:1.0;"/><text fill="#000000" font-family="FG Virgil" font-size="13" lengthAdjust="spacing" textLength="75" x="941.5" y="386.8779">repositories()</text><polygon fill="#181818" points="1322.5,418.0859,1322.526,418.151,1324.4487,418.7577,1326.5239,419.7458,1328.5495,420.6096,1330.4117,421.0651,1332.5,422.0859,1332.4904,422.0619,1330.4472,422.7539,1328.4525,423.5672,1326.4916,424.4648,1324.4144,425.072,1322.5,426.0859,1322.6305,426.2164,1323.1514,425.1374,1324.0534,424.4393,1325.0018,423.7877,1325.6798,422.8657,1326.5,422.0859,1326.5161,422.102,1325.6925,421.2784,1324.9421,420.528,1324.1564,419.7423,1323.438,419.024,1322.5,418.0859" style="stroke:#181818;stroke-width:1.0;"/><path d="M1196.5,422.0859 L1196.5,422.3662 L1206.6538,421.5335 L1216.8077,422.3437 L1226.9615,422.6188 L1237.1154,421.1347 L1247.2692,421.9823 L1257.4231,421.5173 L1267.5769,421.5746 L1277.7308,421.9951 L1287.8846,421.1641 L1298.0385,422.8241 L1308.1923,421.2456 L1318.3462,421.8222 L1328.5,422.0859 " fill="none" style="stroke:#181818;stroke-width:1.0;"/><text fill="#000000" font-family="FG Virgil" font-size="13" lengthAdjust="spacing" textLength="44" x="1203.5" y="417.2295">create()</text><polygon fill="#181818" points="945.5,448.4375,945.526,448.5025,943.4487,449.1093,941.5239,450.0973,939.5495,450.9612,937.4117,451.4167,935.5,452.4375,935.4904,452.4134,937.4472,453.1055,939.4525,453.9188,941.4916,454.8164,943.4144,455.4235,945.5,456.4375,945.6305,456.568,944.5514,455.4889,943.8534,454.7909,943.2018,454.1393,942.2798,453.2173,941.5,452.4375,941.5161,452.4536,942.2925,451.63,943.1421,450.8796,943.9564,450.0939,944.838,449.3755,945.5,448.4375" style="stroke:#181818;stroke-width:1.0;"/><path d="M939.5,452.4375 L939.5,452.7177 L949.54,451.8851 L959.58,452.6952 L969.62,452.9704 L979.66,451.4863 L989.7,452.3339 L999.74,451.8688 L1009.78,451.9262 L1019.82,452.3466 L1029.86,451.5157 L1039.9,453.1757 L1049.94,451.5971 L1059.98,452.1738 L1070.02,453.0134 L1080.06,452.3231 L1090.1,452.5285 L1100.14,452.3949 L1110.18,452.6755 L1120.22,452.7563 L1130.26,453.2184 L1140.3,453.3322 L1150.34,453.3432 L1160.38,452.777 L1170.42,453.0556 L1180.46,453.3738 L1190.5,452.4375 " fill="none" style="stroke:#181818;stroke-width:1.0;"/><text fill="#000000" font-family="FG Virgil" font-size="13" lengthAdjust="spacing" textLength="39" x="951.5" y="447.5811">factory</text><polygon fill="#181818" points="1317.5,478.7891,1317.526,478.8541,1319.4487,479.4608,1321.5239,480.4489,1323.5495,481.3128,1325.4117,481.7683,1327.5,482.7891,1327.4904,482.765,1325.4472,483.4571,1323.4525,484.2704,1321.4916,485.168,1319.4144,485.7751,1317.5,486.7891,1317.6305,486.9196,1318.1514,485.8405,1319.0534,485.1424,1320.0018,484.4909,1320.6798,483.5688,1321.5,482.7891,1321.5161,482.8051,1320.6925,481.9815,1319.9421,481.2311,1319.1564,480.4454,1318.438,479.7271,1317.5,478.7891" style="stroke:#181818;stroke-width:1.0;"/><path d="M934.5,482.7891 L934.5,483.0693 L944.4744,482.2366 L954.4487,483.0468 L964.4231,483.322 L974.3974,481.8379 L984.3718,482.6854 L994.3462,482.2204 L1004.3205,482.2777 L1014.2949,482.6982 L1024.2692,481.8672 L1034.2436,483.5273 L1044.2179,481.9487 L1054.1923,482.5254 L1064.1667,483.365 L1074.141,482.6747 L1084.1154,482.88 L1094.0897,482.7465 L1104.0641,483.0271 L1114.0385,483.1079 L1124.0128,483.57 L1133.9872,483.6838 L1143.9615,483.6947 L1153.9359,483.1286 L1163.9103,483.4072 L1173.8846,483.7254 L1183.859,481.8275 L1193.8333,483.6937 L1203.8077,482.3937 L1213.7821,483.5008 L1223.7564,482.129 L1233.7308,482.6977 L1243.7051,483.7779 L1253.6795,482.7241 L1263.6538,482.9295 L1273.6282,483.2406 L1283.6026,483.344 L1293.5769,482.7839 L1303.5513,483.172 L1313.5256,482.0258 L1323.5,482.7891 " fill="none" style="stroke:#181818;stroke-width:1.0;"/><text fill="#000000" font-family="FG Virgil" font-size="13" lengthAdjust="spacing" textLength="40" x="941.5" y="477.9326">users()</text><polygon fill="#181818" points="1449,509.1406,1449.026,509.2057,1450.9487,509.8124,1453.0239,510.8004,1455.0495,511.6643,1456.9117,512.1198,1459,513.1406,1458.9904,513.1166,1456.9472,513.8086,1454.9525,514.6219,1452.9916,515.5195,1450.9144,516.1267,1449,517.1406,1449.1305,517.2711,1449.6514,516.1921,1450.5534,515.494,1451.5018,514.8424,1452.1798,513.9204,1453,513.1406,1453.0161,513.1567,1452.1925,512.3331,1451.4421,511.5827,1450.6564,510.797,1449.938,510.0787,1449,509.1406" style="stroke:#181818;stroke-width:1.0;"/><path d="M1339.5,513.1406 L1339.5,513.4209 L1349.125,512.5882 L1358.75,513.3983 L1368.375,513.6735 L1378,512.1894 L1387.625,513.037 L1397.25,512.572 L1406.875,512.6293 L1416.5,513.0497 L1426.125,512.2188 L1435.75,513.8788 L1445.375,512.3003 L1455,513.1406 " fill="none" style="stroke:#181818;stroke-width:1.0;"/><text fill="#000000" font-family="FG Virgil" font-size="13" lengthAdjust="spacing" textLength="44" x="1346.5" y="508.2842">create()</text><polygon fill="#181818" points="945.5,539.4922,945.526,539.5572,943.4487,540.164,941.5239,541.152,939.5495,542.0159,937.4117,542.4714,935.5,543.4922,935.4904,543.4681,937.4472,544.1602,939.4525,544.9735,941.4916,545.8711,943.4144,546.4782,945.5,547.4922,945.6305,547.6227,944.5514,546.5436,943.8534,545.8456,943.2018,545.194,942.2798,544.272,941.5,543.4922,941.5161,543.5083,942.2925,542.6847,943.1421,541.9343,943.9564,541.1486,944.838,540.4302,945.5,539.4922" style="stroke:#181818;stroke-width:1.0;"/><path d="M939.5,543.4922 L939.5,543.7724 L949.6026,542.9398 L959.7051,543.7499 L969.8077,544.0251 L979.9103,542.541 L990.0128,543.3886 L1000.1154,542.9235 L1010.2179,542.9809 L1020.3205,543.4013 L1030.4231,542.5704 L1040.5256,544.2304 L1050.6282,542.6518 L1060.7308,543.2285 L1070.8333,544.0681 L1080.9359,543.3778 L1091.0385,543.5832 L1101.141,543.4496 L1111.2436,543.7302 L1121.3462,543.811 L1131.4487,544.2731 L1141.5513,544.3869 L1151.6538,544.3979 L1161.7564,543.8317 L1171.859,544.1103 L1181.9615,544.4285 L1192.0641,542.5306 L1202.1667,544.3969 L1212.2692,543.0968 L1222.3718,544.2039 L1232.4744,542.8322 L1242.5769,543.4009 L1252.6795,544.481 L1262.7821,543.4272 L1272.8846,543.6326 L1282.9872,543.9437 L1293.0897,544.0472 L1303.1923,543.487 L1313.2949,543.8751 L1323.3974,542.729 L1333.5,543.4922 " fill="none" style="stroke:#181818;stroke-width:1.0;"/><text fill="#000000" font-family="FG Virgil" font-size="13" lengthAdjust="spacing" textLength="87" x="951.5" y="538.6357">userRepository</text><polygon fill="#181818" points="1444,569.8438,1444.026,569.9088,1445.9487,570.5155,1448.0239,571.5036,1450.0495,572.3674,1451.9117,572.823,1454,573.8438,1453.9904,573.8197,1451.9472,574.5118,1449.9525,575.3251,1447.9916,576.2227,1445.9144,576.8298,1444,577.8438,1444.1305,577.9742,1444.6514,576.8952,1445.5534,576.1971,1446.5018,575.5456,1447.1798,574.6235,1448,573.8438,1448.0161,573.8598,1447.1925,573.0362,1446.4421,572.2858,1445.6564,571.5001,1444.938,570.7818,1444,569.8438" style="stroke:#181818;stroke-width:1.0;"/><path d="M934.5,573.8438 L934.5,574.124 L944.4135,573.2913 L954.3269,574.1015 L964.2404,574.3767 L974.1538,572.8926 L984.0673,573.7401 L993.9808,573.2751 L1003.8942,573.3324 L1013.8077,573.7529 L1023.7212,572.9219 L1033.6346,574.5819 L1043.5481,573.0034 L1053.4615,573.5801 L1063.375,574.4197 L1073.2885,573.7294 L1083.2019,573.9347 L1093.1154,573.8012 L1103.0288,574.0818 L1112.9423,574.1626 L1122.8558,574.6247 L1132.7692,574.7385 L1142.6827,574.7494 L1152.5962,574.1833 L1162.5096,574.4619 L1172.4231,574.7801 L1182.3365,572.8822 L1192.25,574.7484 L1202.1635,573.4484 L1212.0769,574.5555 L1221.9904,573.1837 L1231.9038,573.7524 L1241.8173,574.8326 L1251.7308,573.7788 L1261.6442,573.9842 L1271.5577,574.2953 L1281.4712,574.3987 L1291.3846,573.8385 L1301.2981,574.2267 L1311.2115,573.0805 L1321.125,574.2229 L1331.0385,574.5747 L1340.9519,574.4365 L1350.8654,574.6611 L1360.7788,573.1996 L1370.6923,572.9742 L1380.6058,573.0152 L1390.5192,573.7652 L1400.4327,573.5817 L1410.3462,574.7523 L1420.2596,573.6108 L1430.1731,573.3863 L1440.0865,574.1481 L1450,573.8438 " fill="none" style="stroke:#181818;stroke-width:1.0;"/><text fill="#000000" font-family="FG Virgil" font-size="13" lengthAdjust="spacing" textLength="135" x="941.5" y="568.9873">findUserByEmail(email)</text><polygon fill="#181818" points="945.5,600.1953,945.526,600.2604,943.4487,600.8671,941.5239,601.8551,939.5495,602.719,937.4117,603.1745,935.5,604.1953,935.4904,604.1713,937.4472,604.8633,939.4525,605.6766,941.4916,606.5742,943.4144,607.1813,945.5,608.1953,945.6305,608.3258,944.5514,607.2468,943.8534,606.5487,943.2018,605.8971,942.2798,604.9751,941.5,604.1953,941.5161,604.2114,942.2925,603.3878,943.1421,602.6374,943.9564,601.8517,944.838,601.1334,945.5,600.1953" style="stroke:#181818;stroke-width:1.0;"/><path d="M939.5,604.1953 L939.5,604.4756 L949.5096,603.6429 L959.5192,604.453 L969.5288,604.7282 L979.5385,603.2441 L989.5481,604.0917 L999.5577,603.6267 L1009.5673,603.684 L1019.5769,604.1044 L1029.5865,603.2735 L1039.5962,604.9335 L1049.6058,603.3549 L1059.6154,603.9316 L1069.625,604.7712 L1079.6346,604.0809 L1089.6442,604.2863 L1099.6538,604.1527 L1109.6635,604.4333 L1119.6731,604.5142 L1129.6827,604.9762 L1139.6923,605.0901 L1149.7019,605.101 L1159.7115,604.5348 L1169.7212,604.8134 L1179.7308,605.1316 L1189.7404,603.2337 L1199.75,605.1 L1209.7596,603.8 L1219.7692,604.9071 L1229.7788,603.5353 L1239.7885,604.104 L1249.7981,605.1841 L1259.8077,604.1303 L1269.8173,604.3357 L1279.8269,604.6468 L1289.8365,604.7503 L1299.8462,604.1901 L1309.8558,604.5783 L1319.8654,603.4321 L1329.875,604.5745 L1339.8846,604.9262 L1349.8942,604.788 L1359.9038,605.0127 L1369.9135,603.5512 L1379.9231,603.3257 L1389.9327,603.3668 L1399.9423,604.1168 L1409.9519,603.9333 L1419.9615,605.1039 L1429.9712,603.9624 L1439.9808,603.7379 L1449.9904,604.4997 L1460,604.1953 " fill="none" style="stroke:#181818;stroke-width:1.0;"/><text fill="#000000" font-family="FG Virgil" font-size="13" lengthAdjust="spacing" textLength="25" x="951.5" y="599.3389">user</text><polygon fill="#181818" points="1063.5,630.5469,1063.526,630.6119,1065.4487,631.2186,1067.5239,632.2067,1069.5495,633.0706,1071.4117,633.5261,1073.5,634.5469,1073.4904,634.5228,1071.4472,635.2149,1069.4525,636.0282,1067.4916,636.9258,1065.4144,637.5329,1063.5,638.5469,1063.6305,638.6774,1064.1514,637.5983,1065.0534,636.9003,1066.0018,636.2487,1066.6798,635.3267,1067.5,634.5469,1067.5161,634.563,1066.6925,633.7393,1065.9421,632.989,1065.1564,632.2032,1064.438,631.4849,1063.5,630.5469" style="stroke:#181818;stroke-width:1.0;"/><path d="M934.5,634.5469 L934.5,634.8271 L944.1429,633.9944 L953.7857,634.8046 L963.4286,635.0798 L973.0714,633.5957 L982.7143,634.4433 L992.3571,633.9782 L1002,634.0355 L1011.6429,634.456 L1021.2857,633.625 L1030.9286,635.2851 L1040.5714,633.7065 L1050.2143,634.2832 L1059.8571,635.1228 L1069.5,634.5469 " fill="none" style="stroke:#181818;stroke-width:1.0;"/><text fill="#000000" font-family="FG Virgil" font-size="13" lengthAdjust="spacing" textLength="117" x="941.5" y="629.6904">disable(currentTime)</text><polygon fill="#181818" points="1444,660.8984,1444.026,660.9635,1445.9487,661.5702,1448.0239,662.5583,1450.0495,663.4221,1451.9117,663.8776,1454,664.8984,1453.9904,664.8744,1451.9472,665.5664,1449.9525,666.3797,1447.9916,667.2773,1445.9144,667.8845,1444,668.8984,1444.1305,669.0289,1444.6514,667.9499,1445.5534,667.2518,1446.5018,666.6002,1447.1798,665.6782,1448,664.8984,1448.0161,664.9145,1447.1925,664.0909,1446.4421,663.3405,1445.6564,662.5548,1444.938,661.8365,1444,660.8984" style="stroke:#181818;stroke-width:1.0;"/><path d="M934.5,664.8984 L934.5,665.1787 L944.4135,664.346 L954.3269,665.1562 L964.2404,665.4313 L974.1538,663.9472 L984.0673,664.7948 L993.9808,664.3298 L1003.8942,664.3871 L1013.8077,664.8076 L1023.7212,663.9766 L1033.6346,665.6366 L1043.5481,664.0581 L1053.4615,664.6347 L1063.375,665.4744 L1073.2885,664.7841 L1083.2019,664.9894 L1093.1154,664.8558 L1103.0288,665.1365 L1112.9423,665.2173 L1122.8558,665.6794 L1132.7692,665.7932 L1142.6827,665.8041 L1152.5962,665.2379 L1162.5096,665.5166 L1172.4231,665.8347 L1182.3365,663.9369 L1192.25,665.8031 L1202.1635,664.5031 L1212.0769,665.6102 L1221.9904,664.2384 L1231.9038,664.8071 L1241.8173,665.8872 L1251.7308,664.8335 L1261.6442,665.0388 L1271.5577,665.3499 L1281.4712,665.4534 L1291.3846,664.8932 L1301.2981,665.2814 L1311.2115,664.1352 L1321.125,665.2776 L1331.0385,665.6294 L1340.9519,665.4911 L1350.8654,665.7158 L1360.7788,664.2543 L1370.6923,664.0289 L1380.6058,664.0699 L1390.5192,664.8199 L1400.4327,664.6364 L1410.3462,665.807 L1420.2596,664.6655 L1430.1731,664.441 L1440.0865,665.2028 L1450,664.8984 " fill="none" style="stroke:#181818;stroke-width:1.0;"/><text fill="#000000" font-family="FG Virgil" font-size="13" lengthAdjust="spacing" textLength="59" x="941.5" y="660.042">save(user)</text><polygon fill="#181818" points="945.5,691.25,945.526,691.315,943.4487,691.9218,941.5239,692.9098,939.5495,693.7737,937.4117,694.2292,935.5,695.25,935.4904,695.2259,937.4472,695.918,939.4525,696.7313,941.4916,697.6289,943.4144,698.236,945.5,699.25,945.6305,699.3805,944.5514,698.3014,943.8534,697.6034,943.2018,696.9518,942.2798,696.0298,941.5,695.25,941.5161,695.2661,942.2925,694.4425,943.1421,693.6921,943.9564,692.9064,944.838,692.188,945.5,691.25" style="stroke:#181818;stroke-width:1.0;"/><path d="M939.5,695.25 L939.5,695.5302 L949.5096,694.6976 L959.5192,695.5077 L969.5288,695.7829 L979.5385,694.2988 L989.5481,695.1464 L999.5577,694.6813 L1009.5673,694.7387 L1019.5769,695.1591 L1029.5865,694.3282 L1039.5962,695.9882 L1049.6058,694.4096 L1059.6154,694.9863 L1069.625,695.8259 L1079.6346,695.1356 L1089.6442,695.341 L1099.6538,695.2074 L1109.6635,695.488 L1119.6731,695.5688 L1129.6827,696.0309 L1139.6923,696.1447 L1149.7019,696.1557 L1159.7115,695.5895 L1169.7212,695.8681 L1179.7308,696.1863 L1189.7404,694.2884 L1199.75,696.1547 L1209.7596,694.8547 L1219.7692,695.9617 L1229.7788,694.59 L1239.7885,695.1587 L1249.7981,696.2388 L1259.8077,695.185 L1269.8173,695.3904 L1279.8269,695.7015 L1289.8365,695.805 L1299.8462,695.2448 L1309.8558,695.633 L1319.8654,694.4868 L1329.875,695.6292 L1339.8846,695.9809 L1349.8942,695.8427 L1359.9038,696.0674 L1369.9135,694.6059 L1379.9231,694.3804 L1389.9327,694.4215 L1399.9423,695.1715 L1409.9519,694.988 L1419.9615,696.1585 L1429.9712,695.0171 L1439.9808,694.7926 L1449.9904,695.5544 L1460,695.25 " fill="none" style="stroke:#181818;stroke-width:1.0;"/><text fill="#000000" font-family="FG Virgil" font-size="13" lengthAdjust="spacing" textLength="25" x="951.5" y="690.3936">user</text><polygon fill="#181818" points="387,721.6016,387.026,721.6666,384.9487,722.2733,383.0239,723.2614,381.0495,724.1253,378.9117,724.5808,377,725.6016,376.9904,725.5775,378.9472,726.2696,380.9525,727.0829,382.9916,727.9805,384.9144,728.5876,387,729.6016,387.1305,729.7321,386.0514,728.653,385.3534,727.9549,384.7018,727.3034,383.7798,726.3813,383,725.6016,383.0161,725.6176,383.7925,724.794,384.6421,724.0436,385.4564,723.2579,386.338,722.5396,387,721.6016" style="stroke:#181818;stroke-width:1.0;"/><path d="M381,725.6016 L381,725.8818 L390.9545,725.0491 L400.9091,725.8593 L410.8636,726.1345 L420.8182,724.6504 L430.7727,725.4979 L440.7273,725.0329 L450.6818,725.0902 L460.6364,725.5107 L470.5909,724.6797 L480.5455,726.3398 L490.5,724.7612 L500.4545,725.3379 L510.4091,726.1775 L520.3636,725.4872 L530.3182,725.6925 L540.2727,725.559 L550.2273,725.8396 L560.1818,725.9204 L570.1364,726.3825 L580.0909,726.4963 L590.0455,726.5072 L600,725.9411 L609.9545,726.2197 L619.9091,726.5379 L629.8636,724.64 L639.8182,726.5062 L649.7727,725.2062 L659.7273,726.3133 L669.6818,724.9415 L679.6364,725.5102 L689.5909,726.5904 L699.5455,725.5366 L709.5,725.742 L719.4545,726.0531 L729.4091,726.1565 L739.3636,725.5964 L749.3182,725.9845 L759.2727,724.8383 L769.2273,725.9807 L779.1818,726.3325 L789.1364,726.1943 L799.0909,726.4189 L809.0455,724.9575 L819,724.732 L828.9545,724.773 L838.9091,725.5231 L848.8636,725.3395 L858.8182,726.5101 L868.7727,725.3687 L878.7273,725.1442 L888.6818,725.9059 L898.6364,724.7124 L908.5909,724.9094 L918.5455,726.4668 L928.5,725.6016 " fill="none" style="stroke:#181818;stroke-width:1.0;"/><text fill="#000000" font-family="FG Virgil" font-size="13" lengthAdjust="spacing" textLength="25" x="393" y="720.7451">user</text><polygon fill="#181818" points="200,751.9531,200.026,752.0182,197.9487,752.6249,196.0239,753.6129,194.0495,754.4768,191.9117,754.9323,190,755.9531,189.9904,755.9291,191.9472,756.6211,193.9525,757.4344,195.9916,758.332,197.9144,758.9392,200,759.9531,200.1305,760.0836,199.0514,759.0046,198.3534,758.3065,197.7018,757.6549,196.7798,756.7329,196,755.9531,196.0161,755.9692,196.7925,755.1456,197.6421,754.3952,198.4564,753.6095,199.338,752.8912,200,751.9531" style="stroke:#181818;stroke-width:1.0;"/><path d="M194,755.9531 L194,756.2334 L203.7778,755.4007 L213.5556,756.2108 L223.3333,756.486 L233.1111,755.0019 L242.8889,755.8495 L252.6667,755.3845 L262.4444,755.4418 L272.2222,755.8622 L282,755.0313 L291.7778,756.6913 L301.5556,755.1128 L311.3333,755.6894 L321.1111,756.5291 L330.8889,755.8388 L340.6667,756.0441 L350.4444,755.9105 L360.2222,756.1912 L370,755.9531 " fill="none" style="stroke:#181818;stroke-width:1.0;"/><text fill="#000000" font-family="FG Virgil" font-size="13" lengthAdjust="spacing" textLength="25" x="206" y="751.0967">user</text><polygon fill="#181818" points="47,782.3047,47.026,782.3697,44.9487,782.9765,43.0239,783.9645,41.0495,784.8284,38.9117,785.2839,37,786.3047,36.9904,786.2806,38.9472,786.9727,40.9525,787.786,42.9916,788.6836,44.9144,789.2907,47,790.3047,47.1305,790.4352,46.0514,789.3561,45.3534,788.6581,44.7018,788.0065,43.7798,787.0845,43,786.3047,43.0161,786.3208,43.7925,785.4972,44.6421,784.7468,45.4564,783.9611,46.338,783.2427,47,782.3047" style="stroke:#181818;stroke-width:1.0;"/><path d="M41,786.3047 L41,786.5849 L51.1429,785.7523 L61.2857,786.5624 L71.4286,786.8376 L81.5714,785.3535 L91.7143,786.2011 L101.8571,785.736 L112,785.7934 L122.1429,786.2138 L132.2857,785.3829 L142.4286,787.0429 L152.5714,785.4643 L162.7143,786.041 L172.8571,786.8806 L183,786.3047 " fill="none" style="stroke:#181818;stroke-width:1.0;stroke-dasharray:2.0,2.0;"/><text fill="#000000" font-family="FG Virgil" font-size="13" lengthAdjust="spacing" textLength="111" x="53" y="781.4482">displayUserDisable</text><!--MD5=[098d1fd87dcf80ebefcd369458ed2bb7]
@startuml
'http://plantuml.com/skinparam.html
skinparam handwritten true
skinparam monochrome true
skinparam packageStyle rect
skinparam defaultFontName FG Virgil
skinparam shadowing false

actor Manager as Actor
participant DisableUserUI as UI <<presentation>>
participant ChangeUserStateController as Controller <<application>>
participant AuthorizationService as AuthzService <<service>>
participant UserManagementService as Service <<service>>
participant "user:User" as Domain <<domain>>
participant PersistenceContext as Persistence <<persistence>>
participant RepositoryFactory as Factory <<factory>>
database UserRepository as Repository <<repository>>


Actor - -> UI: Disable User
activate UI
    UI -> Controller: create()
    UI - -> Actor: Ask user information

    Actor - -> UI: email
        
    UI -> Controller: DisableUserByEmail(email)
    activate Controller
        Controller -> AuthzService: create()
        activate AuthzService
        Controller -> AuthzService: ensureAuthenticatedUserHasAnyOf(CourseRoles.MANAGER)
        deactivate AuthzService

        Controller -> Service: create()
        activate Service
        Controller -> Service: disableUser(userEmail)

        Service -> Persistence: repositories()
        activate Persistence
        Persistence -> Factory: create()
        Persistence -> Service: factory
        deactivate Persistence

        Service -> Factory: users()
        activate Factory
        Factory -> Repository: create()
        Factory -> Service: userRepository
        deactivate Factory


        Service -> Repository: findUserByEmail(email)
        activate Repository
        Repository -> Service: user
        deactivate Repository

        Service -> Domain: disable(currentTime)

        Service -> Repository: save(user)
        activate Repository
        Repository -> Service: user
        deactivate Repository

        Service -> Controller: user
        deactivate Service

        Controller -> UI:user
        deactivate Controller
        UI - -> Actor: displayUserDisable

deactivate UI
@enduml

@startuml
skinparam handwritten true
skinparam monochrome true
skinparam packageStyle rect
skinparam defaultFontName FG Virgil
skinparam shadowing false

actor Manager as Actor
participant DisableUserUI as UI <<presentation>>
participant ChangeUserStateController as Controller <<application>>
participant AuthorizationService as AuthzService <<service>>
participant UserManagementService as Service <<service>>
participant "user:User" as Domain <<domain>>
participant PersistenceContext as Persistence <<persistence>>
participant RepositoryFactory as Factory <<factory>>
database UserRepository as Repository <<repository>>


Actor - -> UI: Disable User
activate UI
    UI -> Controller: create()
    UI - -> Actor: Ask user information

    Actor - -> UI: email
        
    UI -> Controller: DisableUserByEmail(email)
    activate Controller
        Controller -> AuthzService: create()
        activate AuthzService
        Controller -> AuthzService: ensureAuthenticatedUserHasAnyOf(CourseRoles.MANAGER)
        deactivate AuthzService

        Controller -> Service: create()
        activate Service
        Controller -> Service: disableUser(userEmail)

        Service -> Persistence: repositories()
        activate Persistence
        Persistence -> Factory: create()
        Persistence -> Service: factory
        deactivate Persistence

        Service -> Factory: users()
        activate Factory
        Factory -> Repository: create()
        Factory -> Service: userRepository
        deactivate Factory


        Service -> Repository: findUserByEmail(email)
        activate Repository
        Repository -> Service: user
        deactivate Repository

        Service -> Domain: disable(currentTime)

        Service -> Repository: save(user)
        activate Repository
        Repository -> Service: user
        deactivate Repository

        Service -> Controller: user
        deactivate Service

        Controller -> UI:user
        deactivate Controller
        UI - -> Actor: displayUserDisable

deactivate UI
@enduml

PlantUML version 1.2022.7(Mon Aug 22 18:01:30 BST 2022)
(GPL source distribution)
Java Runtime: Java(TM) SE Runtime Environment
JVM: Java HotSpot(TM) 64-Bit Server VM
Default Encoding: Cp1252
Language: pt
Country: PT
--></g></svg>