<?xml version="1.0" encoding="UTF-8" standalone="no"?><svg xmlns="http://www.w3.org/2000/svg" xmlns:xlink="http://www.w3.org/1999/xlink" contentStyleType="text/css" height="901px" preserveAspectRatio="none" style="width:1496px;height:901px;background:#FFFFFF;" version="1.1" viewBox="0 0 1496 901" width="1496px" zoomAndPan="magnify"><defs/><g><polygon fill="#FFFFFF" points="179,118.5703,179,118.6404,181,118.4322,183,118.6347,185,118.7035,187,118.3325,189,118.5703,188.9223,118.5703,188.5735,128.5365,188.6165,138.5027,188.9318,148.4689,188.3086,158.4351,189.5536,168.4012,188.3697,178.3674,188.8022,188.3336,189.4319,198.2998,188.9142,208.266,189.0682,218.2322,188.9681,228.1983,189.1785,238.1645,189.2391,248.1307,189.5857,258.0969,189.6711,268.0631,189.6793,278.0293,189.2546,287.9955,189.4636,297.9616,189.7022,307.9278,188.2788,317.894,189.6785,327.8602,188.7035,337.8264,189.5338,347.7926,188.505,357.7587,188.9315,367.7249,189.7416,377.6911,188.9513,387.6573,189.1053,397.6235,189.3386,407.5897,189.4162,417.5559,188.9961,427.522,189.2872,437.4882,188.4276,447.4544,189.2844,457.4206,189.5482,467.3868,189.4445,477.353,189.613,487.3191,188.5169,497.2853,188.3478,507.2515,188.3786,517.2177,188.9411,527.1839,188.8035,537.1501,189.6814,547.1163,188.8253,557.0824,188.6569,567.0486,189.2283,577.0148,188.3332,586.981,188.4809,596.9472,189.649,606.9134,189.4357,616.8795,189.7345,626.8457,188.6782,636.8119,189.3192,646.7781,189.5904,656.7443,188.5276,666.7105,188.9041,676.6767,189.126,686.6428,189.6518,696.609,188.9958,706.5752,189.4626,716.5414,188.4462,726.5076,188.3227,736.4738,189.5036,746.4399,188.2831,756.4061,189.509,766.3723,189.2066,776.3385,189,786.3047,189,786.2154,187,786.1868,185,786.4576,183,786.2049,181,786.502,179,786.3047,178.4473,786.3047,179.6174,776.3385,179.4843,766.3723,179.245,756.4061,179.0472,746.4399,179.7266,736.4738,179.6136,726.5076,179.1693,716.5414,179.2682,706.5752,178.8697,696.609,179.7165,686.6428,179.1549,676.6767,179.1726,666.7105,178.3916,656.7443,178.5948,646.7781,179.5307,636.8119,179.4298,626.8457,178.9571,616.8795,178.6778,606.9134,178.7811,596.9472,178.3138,586.981,179.4147,577.0148,179.7396,567.0486,179.5264,557.0824,179.6949,547.1163,178.8633,537.1501,179.0872,527.1839,178.6124,517.2177,179.284,507.2515,179.2468,497.2853,179.5524,487.3191,178.7703,477.353,178.8656,467.3868,179.4435,457.4206,179.5673,447.4544,178.4875,437.4882,178.8061,427.522,179.1493,417.5559,178.3892,407.5897,179.3534,397.6235,179.258,387.6573,178.8992,377.6911,179.1422,367.7249,179.7287,357.7587,178.6871,347.7926,179.315,337.8264,179.2856,327.8602,179.1158,317.894,179.1409,307.9278,179.1135,297.9616,178.3758,287.9955,178.5992,278.0293,178.5385,268.0631,179.0638,258.0969,179.0881,248.1307,179.1617,238.1645,178.709,228.1983,178.9325,218.2322,178.8798,208.266,179.5769,198.2998,179.4266,188.3336,178.5145,178.3674,178.9271,168.4012,178.4228,158.4351,179.2884,148.4689,179.6085,138.5027,179.5446,128.5365,179,118.5703" style="stroke:#181818;stroke-width:1.0;"/><polygon fill="#FFFFFF" points="361,239.9766,361,240.0466,363,239.8385,365,240.041,367,240.1098,369,239.7388,371,239.9766,370.9223,239.9766,370.5735,249.8992,370.6165,259.8218,370.9318,269.7444,370.3086,279.6671,371.5536,289.5897,370.3697,299.5123,370.8022,309.4349,371.4319,319.3576,370.9142,329.2802,371.0682,339.2028,370.9681,349.1255,371.1785,359.0481,371.2391,368.9707,371.5857,378.8933,371.6711,388.816,371.6793,398.7386,371.2546,408.6612,371.4636,418.5838,371.7022,428.5065,370.2788,438.4291,371.6785,448.3517,370.7035,458.2743,371.5338,468.197,370.505,478.1196,370.9315,488.0422,371.7416,497.9648,370.9513,507.8875,371.1053,517.8101,371.3386,527.7327,371.4162,537.6553,370.9961,547.578,371.2872,557.5006,370.4276,567.4232,371.2844,577.3459,371.5482,587.2685,371.4445,597.1911,371.613,607.1137,370.5169,617.0364,370.3478,626.959,370.3786,636.8816,370.9411,646.8042,370.8035,656.7269,371.6814,666.6495,370.8253,676.5721,370.6569,686.4947,371.2283,696.4174,370.3332,706.34,370.4809,716.2626,371.649,726.1852,371.4357,736.1079,371.7345,746.0305,371,755.9531,371,755.8459,369,756.0595,367,756.1499,365,755.7957,363,755.9212,361,755.9531,361.126,755.9531,361.6518,746.0305,360.9958,736.1079,361.4626,726.1852,360.4462,716.2626,360.3227,706.34,361.5036,696.4174,360.2831,686.4947,361.509,676.5721,361.2066,666.6495,360.7321,656.7269,360.6462,646.8042,361.4588,636.8816,360.7007,626.959,361.5919,617.0364,360.4473,607.1137,361.6174,597.1911,361.4843,587.2685,361.245,577.3459,361.0472,567.4232,361.7266,557.5006,361.6136,547.578,361.1693,537.6553,361.2682,527.7327,360.8697,517.8101,361.7165,507.8875,361.1549,497.9648,361.1726,488.0422,360.3916,478.1196,360.5948,468.197,361.5307,458.2743,361.4298,448.3517,360.9571,438.4291,360.6778,428.5065,360.7811,418.5838,360.3138,408.6612,361.4147,398.7386,361.7396,388.816,361.5264,378.8933,361.6949,368.9707,360.8633,359.0481,361.0872,349.1255,360.6124,339.2028,361.284,329.2802,361.2468,319.3576,361.5524,309.4349,360.7703,299.5123,360.8656,289.5897,361.4435,279.6671,361.5673,269.7444,360.4875,259.8218,360.8061,249.8992,361,239.9766" style="stroke:#181818;stroke-width:1.0;"/><polygon fill="#FFFFFF" points="752,270.3281,752,270.3982,754,270.19,756,270.3926,758,270.4614,760,270.0903,762,270.3281,761.9741,270.3281,761.8578,276.3984,761.8722,282.4688,761.9773,288.5391,761.7695,294.6094,762,300.6797,762,300.8642,760,300.4696,758,300.6138,756,300.8237,754,300.6511,752,300.6797,752.0227,300.6797,751.9894,294.6094,752.0595,288.5391,752.0797,282.4688,752.1952,276.3984,752,270.3281" style="stroke:#181818;stroke-width:1.0;"/><polygon fill="#FFFFFF" points="919.5,331.0313,919.5,331.1013,921.5,330.8931,923.5,331.0957,925.5,331.1645,927.5,330.7935,929.5,331.0313,929.4223,331.0313,929.0735,341.1484,929.1165,351.2656,929.4318,361.3828,928.8086,371.5,930.0536,381.6172,928.8697,391.7344,929.3022,401.8516,929.9319,411.9688,929.4142,422.0859,929.5682,432.2031,929.4681,442.3203,929.6785,452.4375,929.7391,462.5547,930.0857,472.6719,930.1711,482.7891,930.1793,492.9063,929.7546,503.0234,929.9636,513.1406,930.2022,523.2578,928.7788,533.375,930.1785,543.4922,929.2035,553.6094,930.0338,563.7266,929.005,573.8438,929.4315,583.9609,930.2416,594.0781,929.4513,604.1953,929.6053,614.3125,929.8386,624.4297,929.9162,634.5469,929.4961,644.6641,929.7872,654.7813,928.9276,664.8984,929.7844,675.0156,930.0482,685.1328,929.9445,695.25,930.113,705.3672,929.0169,715.4844,929.5,725.6016,929.5,725.3842,927.5,725.3944,925.5,725.5819,923.5,725.5361,921.5,725.8287,919.5,725.6016,919.3253,725.6016,919.1569,715.4844,919.7283,705.3672,918.8332,695.25,918.9809,685.1328,920.149,675.0156,919.9357,664.8984,920.2345,654.7813,919.1782,644.6641,919.8192,634.5469,920.0904,624.4297,919.0276,614.3125,919.4041,604.1953,919.626,594.0781,920.1518,583.9609,919.4958,573.8438,919.9626,563.7266,918.9462,553.6094,918.8227,543.4922,920.0036,533.375,918.7831,523.2578,920.009,513.1406,919.7066,503.0234,919.2321,492.9063,919.1462,482.7891,919.9588,472.6719,919.2007,462.5547,920.0919,452.4375,918.9473,442.3203,920.1174,432.2031,919.9843,422.0859,919.745,411.9688,919.5472,401.8516,920.2266,391.7344,920.1136,381.6172,919.6693,371.5,919.7682,361.3828,919.3697,351.2656,920.2165,341.1484,919.5,331.0313" style="stroke:#181818;stroke-width:1.0;"/><polygon fill="#FFFFFF" points="1169.5,391.7344,1169.5,391.8044,1171.5,391.5963,1173.5,391.7988,1175.5,391.8676,1177.5,391.4966,1179.5,391.7344,1179.4223,391.7344,1179.0735,401.8516,1179.1165,411.9688,1179.4318,422.0859,1178.8086,432.2031,1180.0536,442.3203,1179.5,452.4375,1179.5,452.2274,1177.5,452.3716,1175.5,452.5815,1173.5,452.4089,1171.5,452.4602,1169.5,452.4375,1169.4681,452.4375,1169.6785,442.3203,1169.7391,432.2031,1170.0857,422.0859,1170.1711,411.9688,1170.1793,401.8516,1169.5,391.7344" style="stroke:#181818;stroke-width:1.0;"/><polygon fill="#FFFFFF" points="1312.5,482.7891,1312.5,482.8591,1314.5,482.651,1316.5,482.8535,1318.5,482.9223,1320.5,482.5513,1322.5,482.7891,1322.4223,482.7891,1322.0735,492.9063,1322.1165,503.0234,1322.4318,513.1406,1321.8086,523.2578,1323.0536,533.375,1322.5,543.4922,1322.5,543.2821,1320.5,543.4263,1318.5,543.6362,1316.5,543.4636,1314.5,543.5149,1312.5,543.4922,1312.4681,543.4922,1312.6785,533.375,1312.7391,523.2578,1313.0857,513.1406,1313.1711,503.0234,1313.1793,492.9063,1312.5,482.7891" style="stroke:#181818;stroke-width:1.0;"/><polygon fill="#FFFFFF" points="1439,573.8438,1439,573.9138,1441,573.7056,1443,573.9082,1445,573.977,1447,573.606,1449,573.8438,1448.9741,573.8438,1448.8578,579.9141,1448.8722,585.9844,1448.9773,592.0547,1448.7695,598.125,1449,604.1953,1449,604.3799,1447,603.9852,1445,604.1294,1443,604.3393,1441,604.1667,1439,604.1953,1439.0227,604.1953,1438.9894,598.125,1439.0595,592.0547,1439.0797,585.9844,1439.1952,579.9141,1439,573.8438" style="stroke:#181818;stroke-width:1.0;"/><polygon fill="#FFFFFF" points="1439,664.8984,1439,664.9685,1441,664.7603,1443,664.9629,1445,665.0317,1447,664.6606,1449,664.8984,1448.9741,664.8984,1448.8578,670.9688,1448.8722,677.0391,1448.9773,683.1094,1448.7695,689.1797,1449,695.25,1449,695.4345,1447,695.0399,1445,695.1841,1443,695.394,1441,695.2214,1439,695.25,1439.0227,695.25,1438.9894,689.1797,1439.0595,683.1094,1439.0797,677.0391,1439.1952,670.9688,1439,664.8984" style="stroke:#181818;stroke-width:1.0;"/><path d="M36,86.2188 L36.2802,86.2188 L35.4476,96.1922 L36.2577,106.1656 L36.5329,116.139 L35.0488,126.1124 L35.8964,136.0858 L35.4313,146.0592 L35.4887,156.0327 L35.9091,166.0061 L35.0782,175.9795 L36.7382,185.9529 L35.1596,195.9263 L35.7363,205.8997 L36.5759,215.8732 L35.8856,225.8466 L36.091,235.82 L35.9574,245.7934 L36.238,255.7668 L36.3188,265.7402 L36.7809,275.7137 L36.8947,285.6871 L36.9057,295.6605 L36.3395,305.6339 L36.6181,315.6073 L36.9363,325.5807 L35.0384,335.5541 L36.9047,345.5276 L35.6047,355.501 L36.7117,365.4744 L35.34,375.4478 L35.9087,385.4212 L36.9888,395.3946 L35.935,405.3681 L36.1404,415.3415 L36.4515,425.3149 L36.555,435.2883 L35.9948,445.2617 L36.383,455.2351 L35.2368,465.2086 L36.3792,475.182 L36.7309,485.1554 L36.5927,495.1288 L36.8174,505.1022 L35.3559,515.0756 L35.1304,525.049 L35.1715,535.0225 L35.9215,544.9959 L35.738,554.9693 L36.9085,564.9427 L35.7671,574.9161 L35.5426,584.8895 L36.3044,594.863 L35.1109,604.8364 L35.3078,614.8098 L36.8653,624.7832 L36.5809,634.7566 L36.9793,644.73 L35.5709,654.7035 L36.4256,664.6769 L36.7872,674.6503 L35.3701,684.6237 L35.8722,694.5971 L36.168,704.5705 L36.869,714.5439 L35.9944,724.5174 L36.6168,734.4908 L35.2616,744.4642 L35.097,754.4376 L36.6715,764.411 L35.0441,774.3844 L36.6786,784.3579 L36.2755,794.3313 L36,804.3047 " fill="none" style="stroke:#181818;stroke-width:0.5;stroke-dasharray:5.0,5.0;"/><path d="M183.5,86.2188 L183.7802,86.2188 L182.9476,96.1922 L183.7577,106.1656 L184.0329,116.139 L182.5488,126.1124 L183.3964,136.0858 L182.9313,146.0592 L182.9887,156.0327 L183.4091,166.0061 L182.5782,175.9795 L184.2382,185.9529 L182.6596,195.9263 L183.2363,205.8997 L184.0759,215.8732 L183.3856,225.8466 L183.591,235.82 L183.4574,245.7934 L183.738,255.7668 L183.8188,265.7402 L184.2809,275.7137 L184.3947,285.6871 L184.4057,295.6605 L183.8395,305.6339 L184.1181,315.6073 L184.4363,325.5807 L182.5384,335.5541 L184.4047,345.5276 L183.1047,355.501 L184.2117,365.4744 L182.84,375.4478 L183.4087,385.4212 L184.4888,395.3946 L183.435,405.3681 L183.6404,415.3415 L183.9515,425.3149 L184.055,435.2883 L183.4948,445.2617 L183.883,455.2351 L182.7368,465.2086 L183.8792,475.182 L184.2309,485.1554 L184.0927,495.1288 L184.3174,505.1022 L182.8559,515.0756 L182.6304,525.049 L182.6715,535.0225 L183.4215,544.9959 L183.238,554.9693 L184.4085,564.9427 L183.2671,574.9161 L183.0426,584.8895 L183.8044,594.863 L182.6109,604.8364 L182.8078,614.8098 L184.3653,624.7832 L184.0809,634.7566 L184.4793,644.73 L183.0709,654.7035 L183.9256,664.6769 L184.2872,674.6503 L182.8701,684.6237 L183.3722,694.5971 L183.668,704.5705 L184.369,714.5439 L183.4944,724.5174 L184.1168,734.4908 L182.7616,744.4642 L182.597,754.4376 L184.1715,764.411 L182.5441,774.3844 L184.1786,784.3579 L183.7755,794.3313 L183.5,804.3047 " fill="none" style="stroke:#181818;stroke-width:0.5;stroke-dasharray:5.0,5.0;"/><path d="M366,86.2188 L366.2802,86.2188 L365.4476,96.1922 L366.2577,106.1656 L366.5329,116.139 L365.0488,126.1124 L365.8964,136.0858 L365.4313,146.0592 L365.4887,156.0327 L365.9091,166.0061 L365.0782,175.9795 L366.7382,185.9529 L365.1596,195.9263 L365.7363,205.8997 L366.5759,215.8732 L365.8856,225.8466 L366.091,235.82 L365.9574,245.7934 L366.238,255.7668 L366.3188,265.7402 L366.7809,275.7137 L366.8947,285.6871 L366.9057,295.6605 L366.3395,305.6339 L366.6181,315.6073 L366.9363,325.5807 L365.0384,335.5541 L366.9047,345.5276 L365.6047,355.501 L366.7117,365.4744 L365.34,375.4478 L365.9087,385.4212 L366.9888,395.3946 L365.935,405.3681 L366.1404,415.3415 L366.4515,425.3149 L366.555,435.2883 L365.9948,445.2617 L366.383,455.2351 L365.2368,465.2086 L366.3792,475.182 L366.7309,485.1554 L366.5927,495.1288 L366.8174,505.1022 L365.3559,515.0756 L365.1304,525.049 L365.1715,535.0225 L365.9215,544.9959 L365.738,554.9693 L366.9085,564.9427 L365.7671,574.9161 L365.5426,584.8895 L366.3044,594.863 L365.1109,604.8364 L365.3078,614.8098 L366.8653,624.7832 L366.5809,634.7566 L366.9793,644.73 L365.5709,654.7035 L366.4256,664.6769 L366.7872,674.6503 L365.3701,684.6237 L365.8722,694.5971 L366.168,704.5705 L366.869,714.5439 L365.9944,724.5174 L366.6168,734.4908 L365.2616,744.4642 L365.097,754.4376 L366.6715,764.411 L365.0441,774.3844 L366.6786,784.3579 L366.2755,794.3313 L366,804.3047 " fill="none" style="stroke:#181818;stroke-width:0.5;stroke-dasharray:5.0,5.0;"/><path d="M756.5,86.2188 L756.7802,86.2188 L755.9476,96.1922 L756.7577,106.1656 L757.0329,116.139 L755.5488,126.1124 L756.3964,136.0858 L755.9313,146.0592 L755.9887,156.0327 L756.4091,166.0061 L755.5782,175.9795 L757.2382,185.9529 L755.6596,195.9263 L756.2363,205.8997 L757.0759,215.8732 L756.3856,225.8466 L756.591,235.82 L756.4574,245.7934 L756.738,255.7668 L756.8188,265.7402 L757.2809,275.7137 L757.3947,285.6871 L757.4057,295.6605 L756.8395,305.6339 L757.1181,315.6073 L757.4363,325.5807 L755.5384,335.5541 L757.4047,345.5276 L756.1047,355.501 L757.2117,365.4744 L755.84,375.4478 L756.4087,385.4212 L757.4888,395.3946 L756.435,405.3681 L756.6404,415.3415 L756.9515,425.3149 L757.055,435.2883 L756.4948,445.2617 L756.883,455.2351 L755.7368,465.2086 L756.8792,475.182 L757.2309,485.1554 L757.0927,495.1288 L757.3174,505.1022 L755.8559,515.0756 L755.6304,525.049 L755.6715,535.0225 L756.4215,544.9959 L756.238,554.9693 L757.4085,564.9427 L756.2671,574.9161 L756.0426,584.8895 L756.8044,594.863 L755.6109,604.8364 L755.8078,614.8098 L757.3653,624.7832 L757.0809,634.7566 L757.4793,644.73 L756.0709,654.7035 L756.9256,664.6769 L757.2872,674.6503 L755.8701,684.6237 L756.3722,694.5971 L756.668,704.5705 L757.369,714.5439 L756.4944,724.5174 L757.1168,734.4908 L755.7616,744.4642 L755.597,754.4376 L757.1715,764.411 L755.5441,774.3844 L757.1786,784.3579 L756.7755,794.3313 L756.5,804.3047 " fill="none" style="stroke:#181818;stroke-width:0.5;stroke-dasharray:5.0,5.0;"/><path d="M924.5,86.2188 L924.7802,86.2188 L923.9476,96.1922 L924.7577,106.1656 L925.0329,116.139 L923.5488,126.1124 L924.3964,136.0858 L923.9313,146.0592 L923.9887,156.0327 L924.4091,166.0061 L923.5782,175.9795 L925.2382,185.9529 L923.6596,195.9263 L924.2363,205.8997 L925.0759,215.8732 L924.3856,225.8466 L924.591,235.82 L924.4574,245.7934 L924.738,255.7668 L924.8188,265.7402 L925.2809,275.7137 L925.3947,285.6871 L925.4057,295.6605 L924.8395,305.6339 L925.1181,315.6073 L925.4363,325.5807 L923.5384,335.5541 L925.4047,345.5276 L924.1047,355.501 L925.2117,365.4744 L923.84,375.4478 L924.4087,385.4212 L925.4888,395.3946 L924.435,405.3681 L924.6404,415.3415 L924.9515,425.3149 L925.055,435.2883 L924.4948,445.2617 L924.883,455.2351 L923.7368,465.2086 L924.8792,475.182 L925.2309,485.1554 L925.0927,495.1288 L925.3174,505.1022 L923.8559,515.0756 L923.6304,525.049 L923.6715,535.0225 L924.4215,544.9959 L924.238,554.9693 L925.4085,564.9427 L924.2671,574.9161 L924.0426,584.8895 L924.8044,594.863 L923.6109,604.8364 L923.8078,614.8098 L925.3653,624.7832 L925.0809,634.7566 L925.4793,644.73 L924.0709,654.7035 L924.9256,664.6769 L925.2872,674.6503 L923.8701,684.6237 L924.3722,694.5971 L924.668,704.5705 L925.369,714.5439 L924.4944,724.5174 L925.1168,734.4908 L923.7616,744.4642 L923.597,754.4376 L925.1715,764.411 L923.5441,774.3844 L925.1786,784.3579 L924.7755,794.3313 L924.5,804.3047 " fill="none" style="stroke:#181818;stroke-width:0.5;stroke-dasharray:5.0,5.0;"/><path d="M1058.5,86.2188 L1058.7802,86.2188 L1057.9476,96.1922 L1058.7577,106.1656 L1059.0329,116.139 L1057.5488,126.1124 L1058.3964,136.0858 L1057.9313,146.0592 L1057.9887,156.0327 L1058.4091,166.0061 L1057.5782,175.9795 L1059.2382,185.9529 L1057.6596,195.9263 L1058.2363,205.8997 L1059.0759,215.8732 L1058.3856,225.8466 L1058.591,235.82 L1058.4574,245.7934 L1058.738,255.7668 L1058.8188,265.7402 L1059.2809,275.7137 L1059.3947,285.6871 L1059.4057,295.6605 L1058.8395,305.6339 L1059.1181,315.6073 L1059.4363,325.5807 L1057.5384,335.5541 L1059.4047,345.5276 L1058.1047,355.501 L1059.2117,365.4744 L1057.84,375.4478 L1058.4087,385.4212 L1059.4888,395.3946 L1058.435,405.3681 L1058.6404,415.3415 L1058.9515,425.3149 L1059.055,435.2883 L1058.4948,445.2617 L1058.883,455.2351 L1057.7368,465.2086 L1058.8792,475.182 L1059.2309,485.1554 L1059.0927,495.1288 L1059.3174,505.1022 L1057.8559,515.0756 L1057.6304,525.049 L1057.6715,535.0225 L1058.4215,544.9959 L1058.238,554.9693 L1059.4085,564.9427 L1058.2671,574.9161 L1058.0426,584.8895 L1058.8044,594.863 L1057.6109,604.8364 L1057.8078,614.8098 L1059.3653,624.7832 L1059.0809,634.7566 L1059.4793,644.73 L1058.0709,654.7035 L1058.9256,664.6769 L1059.2872,674.6503 L1057.8701,684.6237 L1058.3722,694.5971 L1058.668,704.5705 L1059.369,714.5439 L1058.4944,724.5174 L1059.1168,734.4908 L1057.7616,744.4642 L1057.597,754.4376 L1059.1715,764.411 L1057.5441,774.3844 L1059.1786,784.3579 L1058.7755,794.3313 L1058.5,804.3047 " fill="none" style="stroke:#181818;stroke-width:0.5;stroke-dasharray:5.0,5.0;"/><path d="M1174.5,86.2188 L1174.7802,86.2188 L1173.9476,96.1922 L1174.7577,106.1656 L1175.0329,116.139 L1173.5488,126.1124 L1174.3964,136.0858 L1173.9313,146.0592 L1173.9887,156.0327 L1174.4091,166.0061 L1173.5782,175.9795 L1175.2382,185.9529 L1173.6596,195.9263 L1174.2363,205.8997 L1175.0759,215.8732 L1174.3856,225.8466 L1174.591,235.82 L1174.4574,245.7934 L1174.738,255.7668 L1174.8188,265.7402 L1175.2809,275.7137 L1175.3947,285.6871 L1175.4057,295.6605 L1174.8395,305.6339 L1175.1181,315.6073 L1175.4363,325.5807 L1173.5384,335.5541 L1175.4047,345.5276 L1174.1047,355.501 L1175.2117,365.4744 L1173.84,375.4478 L1174.4087,385.4212 L1175.4888,395.3946 L1174.435,405.3681 L1174.6404,415.3415 L1174.9515,425.3149 L1175.055,435.2883 L1174.4948,445.2617 L1174.883,455.2351 L1173.7368,465.2086 L1174.8792,475.182 L1175.2309,485.1554 L1175.0927,495.1288 L1175.3174,505.1022 L1173.8559,515.0756 L1173.6304,525.049 L1173.6715,535.0225 L1174.4215,544.9959 L1174.238,554.9693 L1175.4085,564.9427 L1174.2671,574.9161 L1174.0426,584.8895 L1174.8044,594.863 L1173.6109,604.8364 L1173.8078,614.8098 L1175.3653,624.7832 L1175.0809,634.7566 L1175.4793,644.73 L1174.0709,654.7035 L1174.9256,664.6769 L1175.2872,674.6503 L1173.8701,684.6237 L1174.3722,694.5971 L1174.668,704.5705 L1175.369,714.5439 L1174.4944,724.5174 L1175.1168,734.4908 L1173.7616,744.4642 L1173.597,754.4376 L1175.1715,764.411 L1173.5441,774.3844 L1175.1786,784.3579 L1174.7755,794.3313 L1174.5,804.3047 " fill="none" style="stroke:#181818;stroke-width:0.5;stroke-dasharray:5.0,5.0;"/><path d="M1317.5,86.2188 L1317.7802,86.2188 L1316.9476,96.1922 L1317.7577,106.1656 L1318.0329,116.139 L1316.5488,126.1124 L1317.3964,136.0858 L1316.9313,146.0592 L1316.9887,156.0327 L1317.4091,166.0061 L1316.5782,175.9795 L1318.2382,185.9529 L1316.6596,195.9263 L1317.2363,205.8997 L1318.0759,215.8732 L1317.3856,225.8466 L1317.591,235.82 L1317.4574,245.7934 L1317.738,255.7668 L1317.8188,265.7402 L1318.2809,275.7137 L1318.3947,285.6871 L1318.4057,295.6605 L1317.8395,305.6339 L1318.1181,315.6073 L1318.4363,325.5807 L1316.5384,335.5541 L1318.4047,345.5276 L1317.1047,355.501 L1318.2117,365.4744 L1316.84,375.4478 L1317.4087,385.4212 L1318.4888,395.3946 L1317.435,405.3681 L1317.6404,415.3415 L1317.9515,425.3149 L1318.055,435.2883 L1317.4948,445.2617 L1317.883,455.2351 L1316.7368,465.2086 L1317.8792,475.182 L1318.2309,485.1554 L1318.0927,495.1288 L1318.3174,505.1022 L1316.8559,515.0756 L1316.6304,525.049 L1316.6715,535.0225 L1317.4215,544.9959 L1317.238,554.9693 L1318.4085,564.9427 L1317.2671,574.9161 L1317.0426,584.8895 L1317.8044,594.863 L1316.6109,604.8364 L1316.8078,614.8098 L1318.3653,624.7832 L1318.0809,634.7566 L1318.4793,644.73 L1317.0709,654.7035 L1317.9256,664.6769 L1318.2872,674.6503 L1316.8701,684.6237 L1317.3722,694.5971 L1317.668,704.5705 L1318.369,714.5439 L1317.4944,724.5174 L1318.1168,734.4908 L1316.7616,744.4642 L1316.597,754.4376 L1318.1715,764.411 L1316.5441,774.3844 L1318.1786,784.3579 L1317.7755,794.3313 L1317.5,804.3047 " fill="none" style="stroke:#181818;stroke-width:0.5;stroke-dasharray:5.0,5.0;"/><path d="M1443.5,86.2188 L1443.7802,86.2188 L1442.9476,96.1922 L1443.7577,106.1656 L1444.0329,116.139 L1442.5488,126.1124 L1443.3964,136.0858 L1442.9313,146.0592 L1442.9887,156.0327 L1443.4091,166.0061 L1442.5782,175.9795 L1444.2382,185.9529 L1442.6596,195.9263 L1443.2363,205.8997 L1444.0759,215.8732 L1443.3856,225.8466 L1443.591,235.82 L1443.4574,245.7934 L1443.738,255.7668 L1443.8188,265.7402 L1444.2809,275.7137 L1444.3947,285.6871 L1444.4057,295.6605 L1443.8395,305.6339 L1444.1181,315.6073 L1444.4363,325.5807 L1442.5384,335.5541 L1444.4047,345.5276 L1443.1047,355.501 L1444.2117,365.4744 L1442.84,375.4478 L1443.4087,385.4212 L1444.4888,395.3946 L1443.435,405.3681 L1443.6404,415.3415 L1443.9515,425.3149 L1444.055,435.2883 L1443.4948,445.2617 L1443.883,455.2351 L1442.7368,465.2086 L1443.8792,475.182 L1444.2309,485.1554 L1444.0927,495.1288 L1444.3174,505.1022 L1442.8559,515.0756 L1442.6304,525.049 L1442.6715,535.0225 L1443.4215,544.9959 L1443.238,554.9693 L1444.4085,564.9427 L1443.2671,574.9161 L1443.0426,584.8895 L1443.8044,594.863 L1442.6109,604.8364 L1442.8078,614.8098 L1444.3653,624.7832 L1444.0809,634.7566 L1444.4793,644.73 L1443.0709,654.7035 L1443.9256,664.6769 L1444.2872,674.6503 L1442.8701,684.6237 L1443.3722,694.5971 L1443.668,704.5705 L1444.369,714.5439 L1443.4944,724.5174 L1444.1168,734.4908 L1442.7616,744.4642 L1442.597,754.4376 L1444.1715,764.411 L1442.5441,774.3844 L1444.1786,784.3579 L1443.7755,794.3313 L1443.5,804.3047 " fill="none" style="stroke:#181818;stroke-width:0.5;stroke-dasharray:5.0,5.0;"/><text fill="#000000" font-family="FG Virgil" font-size="14" lengthAdjust="spacing" textLength="56" x="5" y="83.1426">Manager</text><polygon fill="#E3E3E3" points="44.0442,19.0553,42.8715,20.6576,41.4845,23.0044,39.5008,24.586,37.4163,25.4509,35.7542,25.526,33.618,24.4443,31.6023,23.7377,30.0724,22.303,29.2699,20.6605,28.7939,19.3527,28.3277,17.6444,27.5709,16.1744,28.1525,14.7392,28.662,13.167,30.574,11.9235,31.9192,10.3102,33.5843,9.7744,35.5637,9.313,38.1021,9.5872,39.4924,10.2429,41.1089,10.5401,43.0743,12.5537,43.7595,14.6795,44.0571,16.13,43.72,18.5202" style="stroke:#181818;stroke-width:0.5;"/><path d="M36,25.1094 L36.1868,25.1094 L35.6317,30.5094 L36.1718,35.9094 L36.3553,41.3094 L35.3659,46.7094 L36,52.1094 M23,33.1094 L23,33.0403 L28.2,32.7303 L33.4,32.7685 L38.6,33.0488 L43.8,32.4948 L49,33.1094 M36,52.1094 L36.3719,52.4317 L32.9766,54.7425 L30.6672,57.9942 L28.4901,61.3608 L25.5424,64.0594 L23,67.1094 M36,52.1094 L36.0458,52.1491 L38.5785,55.0908 L41.3199,58.2133 L43.9606,61.2486 L46.7934,64.4503 L49,67.1094 " fill="none" style="stroke:#181818;stroke-width:0.5;"/><text fill="#000000" font-family="FG Virgil" font-size="14" lengthAdjust="spacing" textLength="56" x="5" y="817.8379">Manager</text><polygon fill="#E3E3E3" points="44.0442,831.36,42.8715,832.9623,41.4845,835.3091,39.5008,836.8907,37.4163,837.7556,35.7542,837.8307,33.618,836.749,31.6023,836.0424,30.0724,834.6076,29.2699,832.9652,28.7939,831.6574,28.3277,829.9491,27.5709,828.4791,28.1525,827.0439,28.662,825.4717,30.574,824.2282,31.9192,822.6149,33.5843,822.0791,35.5637,821.6177,38.1021,821.8919,39.4924,822.5475,41.1089,822.8447,43.0743,824.8584,43.7595,826.9842,44.0571,828.4347,43.72,830.8249" style="stroke:#181818;stroke-width:0.5;"/><path d="M36,837.4141 L36.1868,837.4141 L35.6317,842.8141 L36.1718,848.2141 L36.3553,853.6141 L35.3659,859.0141 L36,864.4141 M23,845.4141 L23,845.345 L28.2,845.035 L33.4,845.0732 L38.6,845.3535 L43.8,844.7995 L49,845.4141 M36,864.4141 L36.3719,864.7364 L32.9766,867.0471 L30.6672,870.2989 L28.4901,873.6655 L25.5424,876.3641 L23,879.4141 M36,864.4141 L36.0458,864.4538 L38.5785,867.3955 L41.3199,870.518 L43.9606,873.5533 L46.7934,876.755 L49,879.4141 " fill="none" style="stroke:#181818;stroke-width:0.5;"/><polygon fill="#E3E3E3" points="132,36,132,36.2102,142.4,35.5857,152.8,36.1933,163.2,36.3997,173.6,35.2866,184,35.9223,194.4,35.5735,204.8,35.6165,215.2,35.9318,225.6,35.3086,236,36,236.0706,36.1705,236.2732,35.9523,236.6819,36.232,237.1158,36.5724,237.4033,36.5594,237.7678,36.7322,237.7888,36.7409,237.9044,37.0817,238.1156,37.4621,238.2808,37.8234,238.5339,38.2212,238.5,38.5,238.7237,38.5,238.7264,47.3438,238.5849,56.1875,238.6545,65.0313,238.7341,73.875,238.5,82.7188,238.2779,82.6268,238.5625,83.1589,238.1158,83.388,238.2251,83.8475,237.7618,84.0698,237.7678,84.4865,237.759,84.4654,237.5088,84.8613,237.0544,84.7644,236.7205,84.9583,236.3967,85.1766,236,85.2188,236,85.635,225.6,85.2148,215.2,85.506,204.8,84.6463,194.4,85.5031,184,85.7669,173.6,85.6633,163.2,85.8318,152.8,84.7357,142.4,84.5666,132,85.2188,131.9207,85.0274,131.6389,85.0542,131.2678,84.8653,131.0263,84.9893,130.5635,84.5792,130.2322,84.4865,130.1266,84.4428,130.1561,84.1621,129.734,83.6943,129.633,83.3596,129.8463,83.1551,129.5,82.7188,129.6452,82.7188,129.7448,73.875,129.3927,65.0313,129.6064,56.1875,129.6968,47.3438,129.5,38.5,129.3545,38.4397,129.6169,38.1342,129.8317,37.809,130.1401,37.5225,130.0845,37.0853,130.2322,36.7322,130.2912,36.8747,130.5151,36.4152,130.8529,36.2308,131.3571,36.448,131.555,35.9257,132,36" style="stroke:#181818;stroke-width:0.5;"/><text fill="#000000" font-family="FG Virgil" font-size="14" font-style="italic" lengthAdjust="spacing" textLength="95" x="136.5" y="57.5332">«presentation»</text><text fill="#000000" font-family="FG Virgil" font-size="14" lengthAdjust="spacing" textLength="85" x="141.5" y="75.1426">EnableUserUI</text><polygon fill="#E3E3E3" points="132,803.3047,132,803.5149,142.4,802.8904,152.8,803.498,163.2,803.7044,173.6,802.5913,184,803.227,194.4,802.8782,204.8,802.9212,215.2,803.2365,225.6,802.6133,236,803.3047,236.0706,803.4752,236.2732,803.257,236.6819,803.5367,237.1158,803.877,237.4033,803.8641,237.7678,804.0369,237.7888,804.0456,237.9044,804.3864,238.1156,804.7668,238.2808,805.1281,238.5339,805.5258,238.5,805.8047,238.7237,805.8047,238.7264,814.6484,238.5849,823.4922,238.6545,832.3359,238.7341,841.1797,238.5,850.0234,238.2779,849.9314,238.5625,850.4635,238.1158,850.6927,238.2251,851.1522,237.7618,851.3745,237.7678,851.7912,237.759,851.7701,237.5088,852.166,237.0544,852.0691,236.7205,852.263,236.3967,852.4813,236,852.5234,236,852.9397,225.6,852.5195,215.2,852.8107,204.8,851.951,194.4,852.8078,184,853.0716,173.6,852.968,163.2,853.1365,152.8,852.0404,142.4,851.8713,132,852.5234,131.9207,852.3321,131.6389,852.3589,131.2678,852.17,131.0263,852.2939,130.5635,851.8839,130.2322,851.7912,130.1266,851.7474,130.1561,851.4668,129.734,850.999,129.633,850.6643,129.8463,850.4598,129.5,850.0234,129.6452,850.0234,129.7448,841.1797,129.3927,832.3359,129.6064,823.4922,129.6968,814.6484,129.5,805.8047,129.3545,805.7444,129.6169,805.4389,129.8317,805.1137,130.1401,804.8272,130.0845,804.3899,130.2322,804.0369,130.2912,804.1794,130.5151,803.7199,130.8529,803.5355,131.3571,803.7527,131.555,803.2303,132,803.3047" style="stroke:#181818;stroke-width:0.5;"/><text fill="#000000" font-family="FG Virgil" font-size="14" font-style="italic" lengthAdjust="spacing" textLength="95" x="136.5" y="824.8379">«presentation»</text><text fill="#000000" font-family="FG Virgil" font-size="14" lengthAdjust="spacing" textLength="85" x="141.5" y="842.4473">EnableUserUI</text><polygon fill="#E3E3E3" points="274.5,36,274.5,36.2102,284.6667,35.5857,294.8333,36.1933,305,36.3997,315.1667,35.2866,325.3333,35.9223,335.5,35.5735,345.6667,35.6165,355.8333,35.9318,366,35.3086,376.1667,36.5536,386.3333,35.3697,396.5,35.8022,406.6667,36.4319,416.8333,35.9142,427,36.0682,437.1667,35.9681,447.3333,36.1785,457.5,36,457.5305,36.0736,457.9283,36.3268,458.2927,36.4996,458.6473,36.6485,458.9467,36.6642,459.2678,36.7322,459.4105,36.7914,459.6305,37.1754,459.3386,37.3473,459.9161,37.8794,459.7622,38.1086,460,38.5,460.1779,38.5,459.835,47.3438,459.9772,56.1875,460.2472,65.0313,459.9838,73.875,460,82.7188,460.0324,82.7322,459.9578,83.1155,459.8353,83.479,459.5595,83.7789,459.5027,84.1696,459.2678,84.4865,459.1947,84.3102,458.9505,84.7205,458.6306,84.9482,458.2638,85.0628,457.9318,85.2611,457.5,85.2188,457.5,84.7357,447.3333,84.5666,437.1667,84.5973,427,85.1599,416.8333,85.0222,406.6667,85.9002,396.5,85.0441,386.3333,84.8757,376.1667,85.447,366,84.5519,355.8333,84.6996,345.6667,85.8677,335.5,85.6544,325.3333,85.9532,315.1667,84.897,305,85.5379,294.8333,85.8092,284.6667,84.7463,274.5,85.2188,274.4878,85.1892,274.1625,85.1111,273.876,85.1266,273.4388,84.7781,273.1448,84.7754,272.7322,84.4865,272.5617,84.4159,272.3772,84.0466,272.5944,83.8437,272.0721,83.3344,272.3032,83.1372,272,82.7188,272.0689,82.7188,271.9107,73.875,271.8821,65.0313,272.1529,56.1875,271.9002,47.3438,272,38.5,272.1823,38.5755,271.9762,38.0759,272.483,37.8717,272.5885,37.5011,272.6612,37.117,272.7322,36.7322,272.7383,36.7468,273.1785,36.8096,273.5176,36.6283,273.8145,36.345,274.1807,36.229,274.5,36" style="stroke:#181818;stroke-width:0.5;"/><text fill="#000000" font-family="FG Virgil" font-size="14" font-style="italic" lengthAdjust="spacing" textLength="84" x="324" y="57.5332">«application»</text><text fill="#000000" font-family="FG Virgil" font-size="14" lengthAdjust="spacing" textLength="174" x="279" y="75.1426">ChangeUserStateController</text><polygon fill="#E3E3E3" points="274.5,803.3047,274.5,803.5149,284.6667,802.8904,294.8333,803.498,305,803.7044,315.1667,802.5913,325.3333,803.227,335.5,802.8782,345.6667,802.9212,355.8333,803.2365,366,802.6133,376.1667,803.8583,386.3333,802.6744,396.5,803.1069,406.6667,803.7366,416.8333,803.2189,427,803.3729,437.1667,803.2727,447.3333,803.4832,457.5,803.3047,457.5305,803.3783,457.9283,803.6315,458.2927,803.8042,458.6473,803.9532,458.9467,803.9689,459.2678,804.0369,459.4105,804.0961,459.6305,804.4801,459.3386,804.652,459.9161,805.1841,459.7622,805.4133,460,805.8047,460.1779,805.8047,459.835,814.6484,459.9772,823.4922,460.2472,832.3359,459.9838,841.1797,460,850.0234,460.0324,850.0369,459.9578,850.4202,459.8353,850.7836,459.5595,851.0836,459.5027,851.4743,459.2678,851.7912,459.1947,851.6149,458.9505,852.0252,458.6306,852.2529,458.2638,852.3674,457.9318,852.5658,457.5,852.5234,457.5,852.0404,447.3333,851.8713,437.1667,851.902,427,852.4646,416.8333,852.3269,406.6667,853.2048,396.5,852.3488,386.3333,852.1804,376.1667,852.7517,366,851.8566,355.8333,852.0043,345.6667,853.1724,335.5,852.9591,325.3333,853.2579,315.1667,852.2016,305,852.8426,294.8333,853.1139,284.6667,852.051,274.5,852.5234,274.4878,852.4939,274.1625,852.4158,273.876,852.4313,273.4388,852.0828,273.1448,852.0801,272.7322,851.7912,272.5617,851.7206,272.3772,851.3513,272.5944,851.1483,272.0721,850.6391,272.3032,850.4419,272,850.0234,272.0689,850.0234,271.9107,841.1797,271.8821,832.3359,272.1529,823.4922,271.9002,814.6484,272,805.8047,272.1823,805.8802,271.9762,805.3806,272.483,805.1763,272.5885,804.8058,272.6612,804.4217,272.7322,804.0369,272.7383,804.0515,273.1785,804.1142,273.5176,803.933,273.8145,803.6497,274.1807,803.5337,274.5,803.3047" style="stroke:#181818;stroke-width:0.5;"/><text fill="#000000" font-family="FG Virgil" font-size="14" font-style="italic" lengthAdjust="spacing" textLength="84" x="324" y="824.8379">«application»</text><text fill="#000000" font-family="FG Virgil" font-size="14" lengthAdjust="spacing" textLength="174" x="279" y="842.4473">ChangeUserStateController</text><polygon fill="#E3E3E3" points="688,36,688,36.2102,697.8571,35.5857,707.7143,36.1933,717.5714,36.3997,727.4286,35.2866,737.2857,35.9223,747.1429,35.5735,757,35.6165,766.8571,35.9318,776.7143,35.3086,786.5714,36.5536,796.4286,35.3697,806.2857,35.8022,816.1429,36.4319,826,36,825.9891,35.9736,826.3623,36.1675,826.703,36.2831,827.0834,36.4943,827.4447,36.6594,827.7678,36.7322,827.9481,36.8069,828.1209,37.1714,828.2698,37.526,828.2855,37.8254,828.4963,38.2056,828.5,38.5,828.7341,38.5,828.2596,47.3438,828.7262,56.1875,828.4012,65.0313,828.6779,73.875,828.5,82.7188,828.3476,82.6556,828.3325,83.0636,828.4355,83.5205,828.0457,83.7732,827.9466,84.1464,827.7678,84.4865,827.811,84.5908,827.4673,84.7611,827.0602,84.7782,826.7437,85.0143,826.2805,84.896,826,85.2188,826,85.5031,816.1429,85.7669,806.2857,85.6633,796.4286,85.8318,786.5714,84.7357,776.7143,84.5666,766.8571,84.5973,757,85.1599,747.1429,85.0222,737.2857,85.9002,727.4286,85.0441,717.5714,84.8757,707.7143,85.447,697.8571,84.5519,688,85.2188,687.9338,85.0589,687.7292,85.2722,687.3485,85.06,687.033,85.0056,686.5447,84.5339,686.2322,84.4865,686.3305,84.5272,686.2676,84.2083,685.7939,83.7191,685.7634,83.4136,685.6852,83.0884,685.5,82.7188,685.7173,82.7188,685.4986,73.875,685.6542,65.0313,685.3154,56.1875,685.2742,47.3438,685.5,38.5,685.6551,38.5642,685.4257,38.055,685.9496,37.8578,686.003,37.4657,686.0033,37.0516,686.2322,36.7322,686.1871,36.6233,686.6443,36.7271,686.9012,36.3472,687.3684,36.4752,687.5759,35.9762,688,36" style="stroke:#181818;stroke-width:0.5;"/><text fill="#000000" font-family="FG Virgil" font-size="14" font-style="italic" lengthAdjust="spacing" textLength="60" x="727" y="57.5332">«service»</text><text fill="#000000" font-family="FG Virgil" font-size="14" lengthAdjust="spacing" textLength="129" x="692.5" y="75.1426">AuthorizationService</text><polygon fill="#E3E3E3" points="688,803.3047,688,803.5149,697.8571,802.8904,707.7143,803.498,717.5714,803.7044,727.4286,802.5913,737.2857,803.227,747.1429,802.8782,757,802.9212,766.8571,803.2365,776.7143,802.6133,786.5714,803.8583,796.4286,802.6744,806.2857,803.1069,816.1429,803.7366,826,803.3047,825.9891,803.2783,826.3623,803.4721,826.703,803.5877,827.0834,803.799,827.4447,803.9641,827.7678,804.0369,827.9481,804.1116,828.1209,804.4761,828.2698,804.8307,828.2855,805.1301,828.4963,805.5103,828.5,805.8047,828.7341,805.8047,828.2596,814.6484,828.7262,823.4922,828.4012,832.3359,828.6779,841.1797,828.5,850.0234,828.3476,849.9603,828.3325,850.3683,828.4355,850.8251,828.0457,851.0779,827.9466,851.4511,827.7678,851.7912,827.811,851.8955,827.4673,852.0658,827.0602,852.0829,826.7437,852.319,826.2805,852.2007,826,852.5234,826,852.8078,816.1429,853.0716,806.2857,852.968,796.4286,853.1365,786.5714,852.0404,776.7143,851.8713,766.8571,851.902,757,852.4646,747.1429,852.3269,737.2857,853.2048,727.4286,852.3488,717.5714,852.1804,707.7143,852.7517,697.8571,851.8566,688,852.5234,687.9338,852.3636,687.7292,852.5768,687.3485,852.3647,687.033,852.3103,686.5447,851.8386,686.2322,851.7912,686.3305,851.8319,686.2676,851.513,685.7939,851.0238,685.7634,850.7183,685.6852,850.3931,685.5,850.0234,685.7173,850.0234,685.4986,841.1797,685.6542,832.3359,685.3154,823.4922,685.2742,814.6484,685.5,805.8047,685.6551,805.8689,685.4257,805.3597,685.9496,805.1625,686.003,804.7704,686.0033,804.3563,686.2322,804.0369,686.1871,803.928,686.6443,804.0318,686.9012,803.6518,687.3684,803.7799,687.5759,803.2809,688,803.3047" style="stroke:#181818;stroke-width:0.5;"/><text fill="#000000" font-family="FG Virgil" font-size="14" font-style="italic" lengthAdjust="spacing" textLength="60" x="727" y="824.8379">«service»</text><text fill="#000000" font-family="FG Virgil" font-size="14" lengthAdjust="spacing" textLength="129" x="692.5" y="842.4473">AuthorizationService</text><polygon fill="#E3E3E3" points="841,36,841,36.2102,850.8235,35.5857,860.6471,36.1933,870.4706,36.3997,880.2941,35.2866,890.1176,35.9223,899.9412,35.5735,909.7647,35.6165,919.5882,35.9318,929.4118,35.3086,939.2353,36.5536,949.0588,35.3697,958.8824,35.8022,968.7059,36.4319,978.5294,35.9142,988.3529,36.0682,998.1765,35.9681,1008,36,1008.0228,36.055,1008.3841,36.2201,1008.7818,36.4733,1009.1463,36.646,1009.5009,36.795,1009.7678,36.7322,1009.8462,36.7647,1010.057,37.1449,1010.2769,37.5289,1009.985,37.7009,1010.5625,38.233,1010.5,38.5,1010.4012,38.5,1010.6779,47.3438,1010.335,56.1875,1010.4772,65.0313,1010.7472,73.875,1010.5,82.7188,1010.485,82.7125,1010.386,83.0857,1010.3114,83.4691,1010.1888,83.8325,1009.913,84.1325,1009.7678,84.4865,1009.8044,84.575,1009.3412,84.4567,1009.0969,84.867,1008.777,85.0947,1008.4103,85.2092,1008,85.2188,1008,85.8318,998.1765,84.7357,988.3529,84.5666,978.5294,84.5973,968.7059,85.1599,958.8824,85.0222,949.0588,85.9002,939.2353,85.0441,929.4118,84.8757,919.5882,85.447,909.7647,84.5519,899.9412,84.6996,890.1176,85.8677,880.2941,85.6544,870.4706,85.9532,860.6471,84.897,850.8235,85.5379,841,85.2188,841.0753,85.4006,840.5862,84.9268,840.2807,84.8963,839.9554,84.8182,839.6689,84.8337,839.2322,84.4865,839.2309,84.486,839.2282,84.192,838.7688,83.7088,838.5843,83.3395,838.8015,83.1365,838.5,82.7188,838.261,82.7188,838.6697,73.875,838.5689,65.0313,838.4107,56.1875,838.3821,47.3438,838.5,38.5,838.6413,38.5585,838.5543,38.1083,838.9752,37.8684,838.7691,37.3688,839.2759,37.1645,839.2322,36.7322,839.294,36.8814,839.617,36.6612,839.9454,36.4539,840.3856,36.5167,840.7247,36.3354,841,36" style="stroke:#181818;stroke-width:0.5;"/><text fill="#000000" font-family="FG Virgil" font-size="14" font-style="italic" lengthAdjust="spacing" textLength="60" x="894.5" y="57.5332">«service»</text><text fill="#000000" font-family="FG Virgil" font-size="14" lengthAdjust="spacing" textLength="158" x="845.5" y="75.1426">UserManagementService</text><polygon fill="#E3E3E3" points="841,803.3047,841,803.5149,850.8235,802.8904,860.6471,803.498,870.4706,803.7044,880.2941,802.5913,890.1176,803.227,899.9412,802.8782,909.7647,802.9212,919.5882,803.2365,929.4118,802.6133,939.2353,803.8583,949.0588,802.6744,958.8824,803.1069,968.7059,803.7366,978.5294,803.2189,988.3529,803.3729,998.1765,803.2727,1008,803.3047,1008.0228,803.3597,1008.3841,803.5248,1008.7818,803.7779,1009.1463,803.9507,1009.5009,804.0997,1009.7678,804.0369,1009.8462,804.0694,1010.057,804.4496,1010.2769,804.8336,1009.985,805.0056,1010.5625,805.5377,1010.5,805.8047,1010.4012,805.8047,1010.6779,814.6484,1010.335,823.4922,1010.4772,832.3359,1010.7472,841.1797,1010.5,850.0234,1010.485,850.0172,1010.386,850.3904,1010.3114,850.7737,1010.1888,851.1372,1009.913,851.4372,1009.7678,851.7912,1009.8044,851.8797,1009.3412,851.7614,1009.0969,852.1717,1008.777,852.3994,1008.4103,852.5139,1008,852.5234,1008,853.1365,998.1765,852.0404,988.3529,851.8713,978.5294,851.902,968.7059,852.4646,958.8824,852.3269,949.0588,853.2048,939.2353,852.3488,929.4118,852.1804,919.5882,852.7517,909.7647,851.8566,899.9412,852.0043,890.1176,853.1724,880.2941,852.9591,870.4706,853.2579,860.6471,852.2016,850.8235,852.8426,841,852.5234,841.0753,852.7053,840.5862,852.2315,840.2807,852.201,839.9554,852.1229,839.6689,852.1384,839.2322,851.7912,839.2309,851.7907,839.2282,851.4967,838.7688,851.0135,838.5843,850.6442,838.8015,850.4412,838.5,850.0234,838.261,850.0234,838.6697,841.1797,838.5689,832.3359,838.4107,823.4922,838.3821,814.6484,838.5,805.8047,838.6413,805.8632,838.5543,805.413,838.9752,805.1731,838.7691,804.6735,839.2759,804.4692,839.2322,804.0369,839.294,804.1861,839.617,803.9659,839.9454,803.7586,840.3856,803.8213,840.7247,803.6401,841,803.3047" style="stroke:#181818;stroke-width:0.5;"/><text fill="#000000" font-family="FG Virgil" font-size="14" font-style="italic" lengthAdjust="spacing" textLength="60" x="894.5" y="824.8379">«service»</text><text fill="#000000" font-family="FG Virgil" font-size="14" lengthAdjust="spacing" textLength="158" x="845.5" y="842.4473">UserManagementService</text><polygon fill="#E3E3E3" points="1023,36,1023,36.2102,1033.1429,35.5857,1043.2857,36.1933,1053.4286,36.3997,1063.5714,35.2866,1073.7143,35.9223,1083.8571,35.5735,1094,36,1093.9511,35.8819,1094.3449,36.1255,1094.6189,36.08,1095.1313,36.6098,1095.3338,36.3917,1095.7678,36.7322,1095.7069,36.707,1096.0472,37.1409,1096.0342,37.4284,1096.2281,37.8016,1096.3437,38.1424,1096.5,38.5,1096.5595,38.5,1096.5797,47.3438,1096.6952,56.1875,1096.7237,65.0313,1096.7264,73.875,1096.5,82.7188,1096.5784,82.7512,1096.4963,83.1314,1096.4234,83.5154,1095.8386,83.6874,1096.1232,84.2195,1095.7678,84.4865,1095.7299,84.3952,1095.4823,84.7974,1094.9975,84.627,1094.6984,84.9048,1094.4482,85.3007,1094,85.2188,1094,85.17,1083.8571,85.3241,1073.7143,85.5574,1063.5714,85.635,1053.4286,85.2148,1043.2857,85.506,1033.1429,84.6463,1023,85.2188,1023.0363,85.3063,1022.7164,85.2411,1022.3496,85.0628,1022.0175,84.9682,1021.5242,84.4842,1021.2322,84.4865,1021.0314,84.4033,1020.8944,84.0537,1020.9212,83.7719,1020.7324,83.4008,1020.8563,83.1592,1020.5,82.7188,1020.4418,82.7188,1020.3856,73.875,1020.5761,65.0313,1020.2777,56.1875,1020.327,47.3438,1020.5,38.5,1020.6999,38.5828,1020.7806,38.202,1021.0191,37.8866,1020.8402,37.3983,1021.1841,37.1265,1021.2322,36.7322,1021.3075,36.9141,1021.5255,36.4403,1021.9271,36.4098,1022.309,36.3317,1022.7296,36.3472,1023,36" style="stroke:#181818;stroke-width:0.5;"/><text fill="#000000" font-family="FG Virgil" font-size="14" font-style="italic" lengthAdjust="spacing" textLength="62" x="1027.5" y="57.5332">«domain»</text><text fill="#000000" font-family="FG Virgil" font-size="14" lengthAdjust="spacing" textLength="61" x="1028" y="75.1426">user:User</text><polygon fill="#E3E3E3" points="1023,803.3047,1023,803.5149,1033.1429,802.8904,1043.2857,803.498,1053.4286,803.7044,1063.5714,802.5913,1073.7143,803.227,1083.8571,802.8782,1094,803.3047,1093.9511,803.1866,1094.3449,803.4301,1094.6189,803.3847,1095.1313,803.9145,1095.3338,803.6964,1095.7678,804.0369,1095.7069,804.0117,1096.0472,804.4456,1096.0342,804.7331,1096.2281,805.1063,1096.3437,805.4471,1096.5,805.8047,1096.5595,805.8047,1096.5797,814.6484,1096.6952,823.4922,1096.7237,832.3359,1096.7264,841.1797,1096.5,850.0234,1096.5784,850.0559,1096.4963,850.4361,1096.4234,850.8201,1095.8386,850.9921,1096.1232,851.5242,1095.7678,851.7912,1095.7299,851.6999,1095.4823,852.102,1094.9975,851.9317,1094.6984,852.2094,1094.4482,852.6054,1094,852.5234,1094,852.4747,1083.8571,852.6287,1073.7143,852.8621,1063.5714,852.9397,1053.4286,852.5195,1043.2857,852.8107,1033.1429,851.951,1023,852.5234,1023.0363,852.611,1022.7164,852.5458,1022.3496,852.3674,1022.0175,852.2729,1021.5242,851.7889,1021.2322,851.7912,1021.0314,851.708,1020.8944,851.3584,1020.9212,851.0766,1020.7324,850.7055,1020.8563,850.4639,1020.5,850.0234,1020.4418,850.0234,1020.3856,841.1797,1020.5761,832.3359,1020.2777,823.4922,1020.327,814.6484,1020.5,805.8047,1020.6999,805.8875,1020.7806,805.5067,1021.0191,805.1913,1020.8402,804.703,1021.1841,804.4312,1021.2322,804.0369,1021.3075,804.2187,1021.5255,803.745,1021.9271,803.7145,1022.309,803.6364,1022.7296,803.6518,1023,803.3047" style="stroke:#181818;stroke-width:0.5;"/><text fill="#000000" font-family="FG Virgil" font-size="14" font-style="italic" lengthAdjust="spacing" textLength="62" x="1027.5" y="824.8379">«domain»</text><text fill="#000000" font-family="FG Virgil" font-size="14" lengthAdjust="spacing" textLength="61" x="1028" y="842.4473">user:User</text><polygon fill="#E3E3E3" points="1109,36,1109,36.2102,1119.0769,35.5857,1129.1538,36.1933,1139.2308,36.3997,1149.3077,35.2866,1159.3846,35.9223,1169.4615,35.5735,1179.5385,35.6165,1189.6154,35.9318,1199.6923,35.3086,1209.7692,36.5536,1219.8462,35.3697,1229.9231,35.8022,1240,36,1240.0551,36.133,1240.3426,36.12,1240.7158,36.3139,1241.0566,36.4295,1241.437,36.6408,1241.7678,36.7322,1241.8414,36.7627,1242.0946,37.1605,1242.2673,37.5249,1242.4163,37.8795,1242.432,38.1789,1242.5,38.5,1242.6545,38.5,1242.7341,47.3438,1242.2596,56.1875,1242.7262,65.0313,1242.4012,73.875,1242.5,82.7188,1242.6644,82.7868,1242.2011,83.0092,1242.186,83.4171,1242.289,83.874,1241.8992,84.1267,1241.7678,84.4865,1241.7812,84.5189,1241.4574,84.7372,1241.1138,84.9076,1240.7066,84.9247,1240.3902,85.1608,1240,85.2188,1240,84.6463,1229.9231,85.5031,1219.8462,85.7669,1209.7692,85.6633,1199.6923,85.8318,1189.6154,84.7357,1179.5385,84.5666,1169.4615,84.5973,1159.3846,85.1599,1149.3077,85.0222,1139.2308,85.9002,1129.1538,85.0441,1119.0769,84.8757,1109,85.2188,1109.0291,85.289,1108.5614,84.8669,1108.2267,84.766,1108.0221,84.9793,1107.6414,84.7671,1107.2322,84.4865,1107.4584,84.5802,1106.9867,84.0919,1107.0376,83.8201,1106.9747,83.5012,1106.501,83.012,1106.5,82.7188,1106.468,82.7188,1106.542,73.875,1106.7173,65.0313,1106.4986,56.1875,1106.6542,47.3438,1106.5,38.5,1106.3295,38.4294,1106.4379,38.0601,1106.948,37.8571,1106.7186,37.3479,1107.2425,37.1507,1107.2322,36.7322,1107.2586,36.7959,1107.5516,36.5033,1107.8942,36.3304,1108.3514,36.4342,1108.6083,36.0543,1109,36" style="stroke:#181818;stroke-width:0.5;"/><text fill="#000000" font-family="FG Virgil" font-size="14" font-style="italic" lengthAdjust="spacing" textLength="89" x="1130" y="57.5332">«persistence»</text><text fill="#000000" font-family="FG Virgil" font-size="14" lengthAdjust="spacing" textLength="122" x="1113.5" y="75.1426">PersistenceContext</text><polygon fill="#E3E3E3" points="1109,803.3047,1109,803.5149,1119.0769,802.8904,1129.1538,803.498,1139.2308,803.7044,1149.3077,802.5913,1159.3846,803.227,1169.4615,802.8782,1179.5385,802.9212,1189.6154,803.2365,1199.6923,802.6133,1209.7692,803.8583,1219.8462,802.6744,1229.9231,803.1069,1240,803.3047,1240.0551,803.4377,1240.3426,803.4247,1240.7158,803.6186,1241.0566,803.7342,1241.437,803.9455,1241.7678,804.0369,1241.8414,804.0674,1242.0946,804.4652,1242.2673,804.8296,1242.4163,805.1842,1242.432,805.4836,1242.5,805.8047,1242.6545,805.8047,1242.7341,814.6484,1242.2596,823.4922,1242.7262,832.3359,1242.4012,841.1797,1242.5,850.0234,1242.6644,850.0915,1242.2011,850.3138,1242.186,850.7218,1242.289,851.1787,1241.8992,851.4314,1241.7678,851.7912,1241.7812,851.8236,1241.4574,852.0419,1241.1138,852.2123,1240.7066,852.2293,1240.3902,852.4654,1240,852.5234,1240,851.951,1229.9231,852.8078,1219.8462,853.0716,1209.7692,852.968,1199.6923,853.1365,1189.6154,852.0404,1179.5385,851.8713,1169.4615,851.902,1159.3846,852.4646,1149.3077,852.3269,1139.2308,853.2048,1129.1538,852.3488,1119.0769,852.1804,1109,852.5234,1109.0291,852.5937,1108.5614,852.1716,1108.2267,852.0707,1108.0221,852.2839,1107.6414,852.0718,1107.2322,851.7912,1107.4584,851.8849,1106.9867,851.3966,1107.0376,851.1248,1106.9747,850.8059,1106.501,850.3167,1106.5,850.0234,1106.468,850.0234,1106.542,841.1797,1106.7173,832.3359,1106.4986,823.4922,1106.6542,814.6484,1106.5,805.8047,1106.3295,805.734,1106.4379,805.3647,1106.948,805.1618,1106.7186,804.6526,1107.2425,804.4554,1107.2322,804.0369,1107.2586,804.1006,1107.5516,803.808,1107.8942,803.6351,1108.3514,803.7389,1108.6083,803.359,1109,803.3047" style="stroke:#181818;stroke-width:0.5;"/><text fill="#000000" font-family="FG Virgil" font-size="14" font-style="italic" lengthAdjust="spacing" textLength="89" x="1130" y="824.8379">«persistence»</text><text fill="#000000" font-family="FG Virgil" font-size="14" lengthAdjust="spacing" textLength="122" x="1113.5" y="842.4473">PersistenceContext</text><polygon fill="#E3E3E3" points="1255,36,1255,36.2102,1264.6154,35.5857,1274.2308,36.1933,1283.8462,36.3997,1293.4615,35.2866,1303.0769,35.9223,1312.6923,35.5735,1322.3077,35.6165,1331.9231,35.9318,1341.5385,35.3086,1351.1538,36.5536,1360.7692,35.3697,1370.3846,35.8022,1380,36,1380.0551,36.133,1380.3426,36.12,1380.7158,36.3139,1381.0566,36.4295,1381.437,36.6408,1381.7678,36.7322,1381.8414,36.7627,1382.0946,37.1605,1382.2673,37.5249,1382.4163,37.8795,1382.432,38.1789,1382.5,38.5,1382.6545,38.5,1382.7341,47.3438,1382.2596,56.1875,1382.7262,65.0313,1382.4012,73.875,1382.5,82.7188,1382.6644,82.7868,1382.2011,83.0092,1382.186,83.4171,1382.289,83.874,1381.8992,84.1267,1381.7678,84.4865,1381.7812,84.5189,1381.4574,84.7372,1381.1138,84.9076,1380.7066,84.9247,1380.3902,85.1608,1380,85.2188,1380,84.6463,1370.3846,85.5031,1360.7692,85.7669,1351.1538,85.6633,1341.5385,85.8318,1331.9231,84.7357,1322.3077,84.5666,1312.6923,84.5973,1303.0769,85.1599,1293.4615,85.0222,1283.8462,85.9002,1274.2308,85.0441,1264.6154,84.8757,1255,85.2188,1255.0291,85.289,1254.5614,84.8669,1254.2267,84.766,1254.0221,84.9793,1253.6414,84.7671,1253.2322,84.4865,1253.4584,84.5802,1252.9867,84.0919,1253.0376,83.8201,1252.9747,83.5012,1252.501,83.012,1252.5,82.7188,1252.468,82.7188,1252.542,73.875,1252.7173,65.0313,1252.4986,56.1875,1252.6542,47.3438,1252.5,38.5,1252.3295,38.4294,1252.4379,38.0601,1252.948,37.8571,1252.7186,37.3479,1253.2425,37.1507,1253.2322,36.7322,1253.2586,36.7959,1253.5516,36.5033,1253.8942,36.3304,1254.3514,36.4342,1254.6083,36.0543,1255,36" style="stroke:#181818;stroke-width:0.5;"/><text fill="#000000" font-family="FG Virgil" font-size="14" font-style="italic" lengthAdjust="spacing" textLength="59" x="1288" y="57.5332">«factory»</text><text fill="#000000" font-family="FG Virgil" font-size="14" lengthAdjust="spacing" textLength="116" x="1259.5" y="75.1426">RepositoryFactory</text><polygon fill="#E3E3E3" points="1255,803.3047,1255,803.5149,1264.6154,802.8904,1274.2308,803.498,1283.8462,803.7044,1293.4615,802.5913,1303.0769,803.227,1312.6923,802.8782,1322.3077,802.9212,1331.9231,803.2365,1341.5385,802.6133,1351.1538,803.8583,1360.7692,802.6744,1370.3846,803.1069,1380,803.3047,1380.0551,803.4377,1380.3426,803.4247,1380.7158,803.6186,1381.0566,803.7342,1381.437,803.9455,1381.7678,804.0369,1381.8414,804.0674,1382.0946,804.4652,1382.2673,804.8296,1382.4163,805.1842,1382.432,805.4836,1382.5,805.8047,1382.6545,805.8047,1382.7341,814.6484,1382.2596,823.4922,1382.7262,832.3359,1382.4012,841.1797,1382.5,850.0234,1382.6644,850.0915,1382.2011,850.3138,1382.186,850.7218,1382.289,851.1787,1381.8992,851.4314,1381.7678,851.7912,1381.7812,851.8236,1381.4574,852.0419,1381.1138,852.2123,1380.7066,852.2293,1380.3902,852.4654,1380,852.5234,1380,851.951,1370.3846,852.8078,1360.7692,853.0716,1351.1538,852.968,1341.5385,853.1365,1331.9231,852.0404,1322.3077,851.8713,1312.6923,851.902,1303.0769,852.4646,1293.4615,852.3269,1283.8462,853.2048,1274.2308,852.3488,1264.6154,852.1804,1255,852.5234,1255.0291,852.5937,1254.5614,852.1716,1254.2267,852.0707,1254.0221,852.2839,1253.6414,852.0718,1253.2322,851.7912,1253.4584,851.8849,1252.9867,851.3966,1253.0376,851.1248,1252.9747,850.8059,1252.501,850.3167,1252.5,850.0234,1252.468,850.0234,1252.542,841.1797,1252.7173,832.3359,1252.4986,823.4922,1252.6542,814.6484,1252.5,805.8047,1252.3295,805.734,1252.4379,805.3647,1252.948,805.1618,1252.7186,804.6526,1253.2425,804.4554,1253.2322,804.0369,1253.2586,804.1006,1253.5516,803.808,1253.8942,803.6351,1254.3514,803.7389,1254.6083,803.359,1255,803.3047" style="stroke:#181818;stroke-width:0.5;"/><text fill="#000000" font-family="FG Virgil" font-size="14" font-style="italic" lengthAdjust="spacing" textLength="59" x="1288" y="824.8379">«factory»</text><text fill="#000000" font-family="FG Virgil" font-size="14" lengthAdjust="spacing" textLength="116" x="1259.5" y="842.4473">RepositoryFactory</text><text fill="#000000" font-family="FG Virgil" font-size="14" font-style="italic" lengthAdjust="spacing" textLength="79" x="1401.5" y="65.5332">«repository»</text><text fill="#000000" font-family="FG Virgil" font-size="14" lengthAdjust="spacing" textLength="97" x="1392.5" y="83.1426">UserRepository</text><path d="M1426,15 L1426,15 L1426.0651,15.067 L1427.6716,13.118 L1429.6599,11.5616 L1431.5238,9.8774 L1432.979,7.7727 L1435,6.25 L1434.9952,6.2158 L1436.7739,5.8122 L1438.5766,5.5812 L1440.3958,5.47 L1442.1577,4.9456 L1444,5 L1444,5 L1444.0339,5.2437 L1445.7615,4.9725 L1447.5879,5.4129 L1449.4264,5.9402 L1451.1948,5.9622 L1453,6.25 L1453.0211,6.2717 L1454.7901,7.9898 L1456.6553,9.8069 L1458.4741,11.5762 L1460.3815,13.4366 L1462,15 L1462.5965,15 L1462.6038,20.2 L1462.2263,25.4 L1462.4121,30.6 L1462.6242,35.8 L1462,41 L1462,41 L1461.7766,40.7702 L1460.4102,42.9662 L1458.3081,44.4055 L1456.7654,46.4201 L1454.6466,47.8423 L1453,49.75 L1452.9958,49.7198 L1451.2453,50.3265 L1449.397,50.2285 L1447.6064,50.5464 L1445.8207,50.8991 L1444,51 L1444,51 L1444.0254,51.1832 L1442.1998,50.7483 L1440.4176,50.6264 L1438.565,49.998 L1436.8174,50.1252 L1435,49.75 L1435.1698,49.9247 L1433.3377,48.1417 L1431.5899,46.4453 L1429.4503,44.3461 L1427.5979,42.5422 L1426,41 L1425.4476,41 L1425.9477,35.8 L1425.8253,30.6 L1426.6057,25.4 L1425.8447,20.2 L1426,15 " fill="#E3E3E3" style="stroke:#181818;stroke-width:1.5;"/><path d="M1426,15 L1426,15 L1426.0651,15.067 L1427.6716,16.618 L1429.6599,18.5616 L1431.5238,20.3774 L1432.979,21.7727 L1435,23.75 L1434.9952,23.7158 L1436.7739,23.8122 L1438.5766,24.0812 L1440.3958,24.47 L1442.1577,24.4456 L1444,25 L1444,25 L1444.0339,25.2437 L1445.7615,24.4725 L1447.5879,24.4129 L1449.4264,24.4402 L1451.1948,23.9622 L1453,23.75 L1453.0211,23.7717 L1454.7901,21.9898 L1456.6553,20.3069 L1458.4741,18.5762 L1460.3815,16.9366 L1462,15 " fill="none" style="stroke:#181818;stroke-width:1.5;"/><text fill="#000000" font-family="FG Virgil" font-size="14" font-style="italic" lengthAdjust="spacing" textLength="79" x="1401.5" y="817.8379">«repository»</text><text fill="#000000" font-family="FG Virgil" font-size="14" lengthAdjust="spacing" textLength="97" x="1392.5" y="835.4473">UserRepository</text><path d="M1426,848.5234 L1426,848.5234 L1426.0651,848.5904 L1427.6716,846.6414 L1429.6599,845.085 L1431.5238,843.4008 L1432.979,841.2961 L1435,839.7734 L1434.9952,839.7392 L1436.7739,839.3357 L1438.5766,839.1046 L1440.3958,838.9934 L1442.1577,838.4691 L1444,838.5234 L1444,838.5234 L1444.0339,838.7672 L1445.7615,838.496 L1447.5879,838.9364 L1449.4264,839.4636 L1451.1948,839.4857 L1453,839.7734 L1453.0211,839.7952 L1454.7901,841.5133 L1456.6553,843.3303 L1458.4741,845.0996 L1460.3815,846.9601 L1462,848.5234 L1462.5965,848.5234 L1462.6038,853.7234 L1462.2263,858.9234 L1462.4121,864.1234 L1462.6242,869.3234 L1462,874.5234 L1462,874.5234 L1461.7766,874.2936 L1460.4102,876.4897 L1458.3081,877.929 L1456.7654,879.9435 L1454.6466,881.3657 L1453,883.2734 L1452.9958,883.2433 L1451.2453,883.8499 L1449.397,883.752 L1447.6064,884.0698 L1445.8207,884.4225 L1444,884.5234 L1444,884.5234 L1444.0254,884.7067 L1442.1998,884.2717 L1440.4176,884.1499 L1438.565,883.5214 L1436.8174,883.6486 L1435,883.2734 L1435.1698,883.4481 L1433.3377,881.6651 L1431.5899,879.9688 L1429.4503,877.8695 L1427.5979,876.0656 L1426,874.5234 L1425.4476,874.5234 L1425.9477,869.3234 L1425.8253,864.1234 L1426.6057,858.9234 L1425.8447,853.7234 L1426,848.5234 " fill="#E3E3E3" style="stroke:#181818;stroke-width:1.5;"/><path d="M1426,848.5234 L1426,848.5234 L1426.0651,848.5904 L1427.6716,850.1414 L1429.6599,852.085 L1431.5238,853.9008 L1432.979,855.2961 L1435,857.2734 L1434.9952,857.2392 L1436.7739,857.3357 L1438.5766,857.6046 L1440.3958,857.9934 L1442.1577,857.9691 L1444,858.5234 L1444,858.5234 L1444.0339,858.7672 L1445.7615,857.996 L1447.5879,857.9364 L1449.4264,857.9636 L1451.1948,857.4857 L1453,857.2734 L1453.0211,857.2952 L1454.7901,855.5133 L1456.6553,853.8303 L1458.4741,852.0996 L1460.3815,850.4601 L1462,848.5234 " fill="none" style="stroke:#181818;stroke-width:1.5;"/><polygon fill="#FFFFFF" points="179,118.5703,179,118.6404,181,118.4322,183,118.6347,185,118.7035,187,118.3325,189,118.5703,188.9223,118.5703,188.5735,128.5365,188.6165,138.5027,188.9318,148.4689,188.3086,158.4351,189.5536,168.4012,188.3697,178.3674,188.8022,188.3336,189.4319,198.2998,188.9142,208.266,189.0682,218.2322,188.9681,228.1983,189.1785,238.1645,189.2391,248.1307,189.5857,258.0969,189.6711,268.0631,189.6793,278.0293,189.2546,287.9955,189.4636,297.9616,189.7022,307.9278,188.2788,317.894,189.6785,327.8602,188.7035,337.8264,189.5338,347.7926,188.505,357.7587,188.9315,367.7249,189.7416,377.6911,188.9513,387.6573,189.1053,397.6235,189.3386,407.5897,189.4162,417.5559,188.9961,427.522,189.2872,437.4882,188.4276,447.4544,189.2844,457.4206,189.5482,467.3868,189.4445,477.353,189.613,487.3191,188.5169,497.2853,188.3478,507.2515,188.3786,517.2177,188.9411,527.1839,188.8035,537.1501,189.6814,547.1163,188.8253,557.0824,188.6569,567.0486,189.2283,577.0148,188.3332,586.981,188.4809,596.9472,189.649,606.9134,189.4357,616.8795,189.7345,626.8457,188.6782,636.8119,189.3192,646.7781,189.5904,656.7443,188.5276,666.7105,188.9041,676.6767,189.126,686.6428,189.6518,696.609,188.9958,706.5752,189.4626,716.5414,188.4462,726.5076,188.3227,736.4738,189.5036,746.4399,188.2831,756.4061,189.509,766.3723,189.2066,776.3385,189,786.3047,189,786.2154,187,786.1868,185,786.4576,183,786.2049,181,786.502,179,786.3047,178.4473,786.3047,179.6174,776.3385,179.4843,766.3723,179.245,756.4061,179.0472,746.4399,179.7266,736.4738,179.6136,726.5076,179.1693,716.5414,179.2682,706.5752,178.8697,696.609,179.7165,686.6428,179.1549,676.6767,179.1726,666.7105,178.3916,656.7443,178.5948,646.7781,179.5307,636.8119,179.4298,626.8457,178.9571,616.8795,178.6778,606.9134,178.7811,596.9472,178.3138,586.981,179.4147,577.0148,179.7396,567.0486,179.5264,557.0824,179.6949,547.1163,178.8633,537.1501,179.0872,527.1839,178.6124,517.2177,179.284,507.2515,179.2468,497.2853,179.5524,487.3191,178.7703,477.353,178.8656,467.3868,179.4435,457.4206,179.5673,447.4544,178.4875,437.4882,178.8061,427.522,179.1493,417.5559,178.3892,407.5897,179.3534,397.6235,179.258,387.6573,178.8992,377.6911,179.1422,367.7249,179.7287,357.7587,178.6871,347.7926,179.315,337.8264,179.2856,327.8602,179.1158,317.894,179.1409,307.9278,179.1135,297.9616,178.3758,287.9955,178.5992,278.0293,178.5385,268.0631,179.0638,258.0969,179.0881,248.1307,179.1617,238.1645,178.709,228.1983,178.9325,218.2322,178.8798,208.266,179.5769,198.2998,179.4266,188.3336,178.5145,178.3674,178.9271,168.4012,178.4228,158.4351,179.2884,148.4689,179.6085,138.5027,179.5446,128.5365,179,118.5703" style="stroke:#181818;stroke-width:1.0;"/><polygon fill="#FFFFFF" points="361,239.9766,361,240.0466,363,239.8385,365,240.041,367,240.1098,369,239.7388,371,239.9766,370.9223,239.9766,370.5735,249.8992,370.6165,259.8218,370.9318,269.7444,370.3086,279.6671,371.5536,289.5897,370.3697,299.5123,370.8022,309.4349,371.4319,319.3576,370.9142,329.2802,371.0682,339.2028,370.9681,349.1255,371.1785,359.0481,371.2391,368.9707,371.5857,378.8933,371.6711,388.816,371.6793,398.7386,371.2546,408.6612,371.4636,418.5838,371.7022,428.5065,370.2788,438.4291,371.6785,448.3517,370.7035,458.2743,371.5338,468.197,370.505,478.1196,370.9315,488.0422,371.7416,497.9648,370.9513,507.8875,371.1053,517.8101,371.3386,527.7327,371.4162,537.6553,370.9961,547.578,371.2872,557.5006,370.4276,567.4232,371.2844,577.3459,371.5482,587.2685,371.4445,597.1911,371.613,607.1137,370.5169,617.0364,370.3478,626.959,370.3786,636.8816,370.9411,646.8042,370.8035,656.7269,371.6814,666.6495,370.8253,676.5721,370.6569,686.4947,371.2283,696.4174,370.3332,706.34,370.4809,716.2626,371.649,726.1852,371.4357,736.1079,371.7345,746.0305,371,755.9531,371,755.8459,369,756.0595,367,756.1499,365,755.7957,363,755.9212,361,755.9531,361.126,755.9531,361.6518,746.0305,360.9958,736.1079,361.4626,726.1852,360.4462,716.2626,360.3227,706.34,361.5036,696.4174,360.2831,686.4947,361.509,676.5721,361.2066,666.6495,360.7321,656.7269,360.6462,646.8042,361.4588,636.8816,360.7007,626.959,361.5919,617.0364,360.4473,607.1137,361.6174,597.1911,361.4843,587.2685,361.245,577.3459,361.0472,567.4232,361.7266,557.5006,361.6136,547.578,361.1693,537.6553,361.2682,527.7327,360.8697,517.8101,361.7165,507.8875,361.1549,497.9648,361.1726,488.0422,360.3916,478.1196,360.5948,468.197,361.5307,458.2743,361.4298,448.3517,360.9571,438.4291,360.6778,428.5065,360.7811,418.5838,360.3138,408.6612,361.4147,398.7386,361.7396,388.816,361.5264,378.8933,361.6949,368.9707,360.8633,359.0481,361.0872,349.1255,360.6124,339.2028,361.284,329.2802,361.2468,319.3576,361.5524,309.4349,360.7703,299.5123,360.8656,289.5897,361.4435,279.6671,361.5673,269.7444,360.4875,259.8218,360.8061,249.8992,361,239.9766" style="stroke:#181818;stroke-width:1.0;"/><polygon fill="#FFFFFF" points="752,270.3281,752,270.3982,754,270.19,756,270.3926,758,270.4614,760,270.0903,762,270.3281,761.9741,270.3281,761.8578,276.3984,761.8722,282.4688,761.9773,288.5391,761.7695,294.6094,762,300.6797,762,300.8642,760,300.4696,758,300.6138,756,300.8237,754,300.6511,752,300.6797,752.0227,300.6797,751.9894,294.6094,752.0595,288.5391,752.0797,282.4688,752.1952,276.3984,752,270.3281" style="stroke:#181818;stroke-width:1.0;"/><polygon fill="#FFFFFF" points="919.5,331.0313,919.5,331.1013,921.5,330.8931,923.5,331.0957,925.5,331.1645,927.5,330.7935,929.5,331.0313,929.4223,331.0313,929.0735,341.1484,929.1165,351.2656,929.4318,361.3828,928.8086,371.5,930.0536,381.6172,928.8697,391.7344,929.3022,401.8516,929.9319,411.9688,929.4142,422.0859,929.5682,432.2031,929.4681,442.3203,929.6785,452.4375,929.7391,462.5547,930.0857,472.6719,930.1711,482.7891,930.1793,492.9063,929.7546,503.0234,929.9636,513.1406,930.2022,523.2578,928.7788,533.375,930.1785,543.4922,929.2035,553.6094,930.0338,563.7266,929.005,573.8438,929.4315,583.9609,930.2416,594.0781,929.4513,604.1953,929.6053,614.3125,929.8386,624.4297,929.9162,634.5469,929.4961,644.6641,929.7872,654.7813,928.9276,664.8984,929.7844,675.0156,930.0482,685.1328,929.9445,695.25,930.113,705.3672,929.0169,715.4844,929.5,725.6016,929.5,725.3842,927.5,725.3944,925.5,725.5819,923.5,725.5361,921.5,725.8287,919.5,725.6016,919.3253,725.6016,919.1569,715.4844,919.7283,705.3672,918.8332,695.25,918.9809,685.1328,920.149,675.0156,919.9357,664.8984,920.2345,654.7813,919.1782,644.6641,919.8192,634.5469,920.0904,624.4297,919.0276,614.3125,919.4041,604.1953,919.626,594.0781,920.1518,583.9609,919.4958,573.8438,919.9626,563.7266,918.9462,553.6094,918.8227,543.4922,920.0036,533.375,918.7831,523.2578,920.009,513.1406,919.7066,503.0234,919.2321,492.9063,919.1462,482.7891,919.9588,472.6719,919.2007,462.5547,920.0919,452.4375,918.9473,442.3203,920.1174,432.2031,919.9843,422.0859,919.745,411.9688,919.5472,401.8516,920.2266,391.7344,920.1136,381.6172,919.6693,371.5,919.7682,361.3828,919.3697,351.2656,920.2165,341.1484,919.5,331.0313" style="stroke:#181818;stroke-width:1.0;"/><polygon fill="#FFFFFF" points="1169.5,391.7344,1169.5,391.8044,1171.5,391.5963,1173.5,391.7988,1175.5,391.8676,1177.5,391.4966,1179.5,391.7344,1179.4223,391.7344,1179.0735,401.8516,1179.1165,411.9688,1179.4318,422.0859,1178.8086,432.2031,1180.0536,442.3203,1179.5,452.4375,1179.5,452.2274,1177.5,452.3716,1175.5,452.5815,1173.5,452.4089,1171.5,452.4602,1169.5,452.4375,1169.4681,452.4375,1169.6785,442.3203,1169.7391,432.2031,1170.0857,422.0859,1170.1711,411.9688,1170.1793,401.8516,1169.5,391.7344" style="stroke:#181818;stroke-width:1.0;"/><polygon fill="#FFFFFF" points="1312.5,482.7891,1312.5,482.8591,1314.5,482.651,1316.5,482.8535,1318.5,482.9223,1320.5,482.5513,1322.5,482.7891,1322.4223,482.7891,1322.0735,492.9063,1322.1165,503.0234,1322.4318,513.1406,1321.8086,523.2578,1323.0536,533.375,1322.5,543.4922,1322.5,543.2821,1320.5,543.4263,1318.5,543.6362,1316.5,543.4636,1314.5,543.5149,1312.5,543.4922,1312.4681,543.4922,1312.6785,533.375,1312.7391,523.2578,1313.0857,513.1406,1313.1711,503.0234,1313.1793,492.9063,1312.5,482.7891" style="stroke:#181818;stroke-width:1.0;"/><polygon fill="#FFFFFF" points="1439,573.8438,1439,573.9138,1441,573.7056,1443,573.9082,1445,573.977,1447,573.606,1449,573.8438,1448.9741,573.8438,1448.8578,579.9141,1448.8722,585.9844,1448.9773,592.0547,1448.7695,598.125,1449,604.1953,1449,604.3799,1447,603.9852,1445,604.1294,1443,604.3393,1441,604.1667,1439,604.1953,1439.0227,604.1953,1438.9894,598.125,1439.0595,592.0547,1439.0797,585.9844,1439.1952,579.9141,1439,573.8438" style="stroke:#181818;stroke-width:1.0;"/><polygon fill="#FFFFFF" points="1439,664.8984,1439,664.9685,1441,664.7603,1443,664.9629,1445,665.0317,1447,664.6606,1449,664.8984,1448.9741,664.8984,1448.8578,670.9688,1448.8722,677.0391,1448.9773,683.1094,1448.7695,689.1797,1449,695.25,1449,695.4345,1447,695.0399,1445,695.1841,1443,695.394,1441,695.2214,1439,695.25,1439.0227,695.25,1438.9894,689.1797,1439.0595,683.1094,1439.0797,677.0391,1439.1952,670.9688,1439,664.8984" style="stroke:#181818;stroke-width:1.0;"/><polygon fill="#181818" points="167,114.5703,167.026,114.6354,168.9487,115.2421,171.0239,116.2301,173.0495,117.094,174.9117,117.5495,177,118.5703,176.9904,118.5463,174.9472,119.2383,172.9525,120.0516,170.9916,120.9492,168.9144,121.5563,167,122.5703,167.1305,122.7008,167.6514,121.6218,168.5534,120.9237,169.5018,120.2721,170.1798,119.3501,171,118.5703,171.0161,118.5864,170.1925,117.7628,169.4421,117.0124,168.6564,116.2267,167.938,115.5084,167,114.5703" style="stroke:#181818;stroke-width:1.0;"/><path d="M36,118.5703 L36,118.8506 L45.7857,118.0179 L55.5714,118.828 L65.3571,119.1032 L75.1429,117.6191 L84.9286,118.4667 L94.7143,118.0017 L104.5,118.059 L114.2857,118.4794 L124.0714,117.6485 L133.8571,119.3085 L143.6429,117.7299 L153.4286,118.3066 L163.2143,119.1462 L173,118.5703 " fill="none" style="stroke:#181818;stroke-width:1.0;stroke-dasharray:2.0,2.0;"/><text fill="#000000" font-family="FG Virgil" font-size="13" lengthAdjust="spacing" textLength="71" x="43" y="113.7139">Enable User</text><polygon fill="#181818" points="354,144.9219,354.026,144.9869,355.9487,145.5936,358.0239,146.5817,360.0495,147.4456,361.9117,147.9011,364,148.9219,363.9904,148.8978,361.9472,149.5899,359.9525,150.4032,357.9916,151.3008,355.9144,151.9079,354,152.9219,354.1305,153.0524,354.6514,151.9733,355.5534,151.2753,356.5018,150.6237,357.1798,149.7017,358,148.9219,358.0161,148.938,357.1925,148.1143,356.4421,147.364,355.6564,146.5782,354.938,145.8599,354,144.9219" style="stroke:#181818;stroke-width:1.0;"/><path d="M189,148.9219 L189,149.2021 L199.0588,148.3694 L209.1176,149.1796 L219.1765,149.4548 L229.2353,147.9707 L239.2941,148.8183 L249.3529,148.3532 L259.4118,148.4105 L269.4706,148.831 L279.5294,148 L289.5882,149.6601 L299.6471,148.0815 L309.7059,148.6582 L319.7647,149.4978 L329.8235,148.8075 L339.8824,149.0129 L349.9412,148.8793 L360,148.9219 " fill="none" style="stroke:#181818;stroke-width:1.0;"/><text fill="#000000" font-family="FG Virgil" font-size="13" lengthAdjust="spacing" textLength="44" x="196" y="144.0654">create()</text><polygon fill="#181818" points="47,175.2734,47.026,175.3385,44.9487,175.9452,43.0239,176.9333,41.0495,177.7971,38.9117,178.2526,37,179.2734,36.9904,179.2494,38.9472,179.9414,40.9525,180.7547,42.9916,181.6523,44.9144,182.2595,47,183.2734,47.1305,183.4039,46.0514,182.3249,45.3534,181.6268,44.7018,180.9752,43.7798,180.0532,43,179.2734,43.0161,179.2895,43.7925,178.4659,44.6421,177.7155,45.4564,176.9298,46.338,176.2115,47,175.2734" style="stroke:#181818;stroke-width:1.0;"/><path d="M41,179.2734 L41,179.5537 L50.7857,178.721 L60.5714,179.5312 L70.3571,179.8063 L80.1429,178.3222 L89.9286,179.1698 L99.7143,178.7048 L109.5,178.7621 L119.2857,179.1826 L129.0714,178.3516 L138.8571,180.0116 L148.6429,178.4331 L158.4286,179.0097 L168.2143,179.8494 L178,179.2734 " fill="none" style="stroke:#181818;stroke-width:1.0;stroke-dasharray:2.0,2.0;"/><text fill="#000000" font-family="FG Virgil" font-size="13" lengthAdjust="spacing" textLength="119" x="53" y="174.417">Ask user information</text><polygon fill="#181818" points="167,205.625,167.026,205.69,168.9487,206.2968,171.0239,207.2848,173.0495,208.1487,174.9117,208.6042,177,209.625,176.9904,209.6009,174.9472,210.293,172.9525,211.1063,170.9916,212.0039,168.9144,212.611,167,213.625,167.1305,213.7555,167.6514,212.6764,168.5534,211.9784,169.5018,211.3268,170.1798,210.4048,171,209.625,171.0161,209.6411,170.1925,208.8175,169.4421,208.0671,168.6564,207.2814,167.938,206.563,167,205.625" style="stroke:#181818;stroke-width:1.0;"/><path d="M36,209.625 L36,209.9052 L45.7857,209.0726 L55.5714,209.8827 L65.3571,210.1579 L75.1429,208.6738 L84.9286,209.5214 L94.7143,209.0563 L104.5,209.1137 L114.2857,209.5341 L124.0714,208.7032 L133.8571,210.3632 L143.6429,208.7846 L153.4286,209.3613 L163.2143,210.2009 L173,209.625 " fill="none" style="stroke:#181818;stroke-width:1.0;stroke-dasharray:2.0,2.0;"/><text fill="#000000" font-family="FG Virgil" font-size="13" lengthAdjust="spacing" textLength="31" x="43" y="204.7686">email</text><polygon fill="#181818" points="349,235.9766,349.026,236.0416,350.9487,236.6483,353.0239,237.6364,355.0495,238.5003,356.9117,238.9558,359,239.9766,358.9904,239.9525,356.9472,240.6446,354.9525,241.4579,352.9916,242.3555,350.9144,242.9626,349,243.9766,349.1305,244.1071,349.6514,243.028,350.5534,242.3299,351.5018,241.6784,352.1798,240.7563,353,239.9766,353.0161,239.9926,352.1925,239.169,351.4421,238.4186,350.6564,237.6329,349.938,236.9146,349,235.9766" style="stroke:#181818;stroke-width:1.0;"/><path d="M189,239.9766 L189,240.2568 L198.7647,239.4241 L208.5294,240.2343 L218.2941,240.5095 L228.0588,239.0254 L237.8235,239.8729 L247.5882,239.4079 L257.3529,239.4652 L267.1176,239.8857 L276.8824,239.0547 L286.6471,240.7148 L296.4118,239.1362 L306.1765,239.7129 L315.9412,240.5525 L325.7059,239.8622 L335.4706,240.0675 L345.2353,239.934 L355,239.9766 " fill="none" style="stroke:#181818;stroke-width:1.0;"/><text fill="#000000" font-family="FG Virgil" font-size="13" lengthAdjust="spacing" textLength="153" x="196" y="235.1201">enableUserByEmail(email)</text><polygon fill="#181818" points="740,266.3281,740.026,266.3932,741.9487,266.9999,744.0239,267.9879,746.0495,268.8518,747.9117,269.3073,750,270.3281,749.9904,270.3041,747.9472,270.9961,745.9525,271.8094,743.9916,272.707,741.9144,273.3142,740,274.3281,740.1305,274.4586,740.6514,273.3796,741.5534,272.6815,742.5018,272.0299,743.1798,271.1079,744,270.3281,744.0161,270.3442,743.1925,269.5206,742.4421,268.7702,741.6564,267.9845,740.938,267.2662,740,266.3281" style="stroke:#181818;stroke-width:1.0;"/><path d="M371,270.3281 L371,270.6084 L380.8684,269.7757 L390.7368,270.5858 L400.6053,270.861 L410.4737,269.3769 L420.3421,270.2245 L430.2105,269.7595 L440.0789,269.8168 L449.9474,270.2372 L459.8158,269.4063 L469.6842,271.0663 L479.5526,269.4878 L489.4211,270.0644 L499.2895,270.9041 L509.1579,270.2138 L519.0263,270.4191 L528.8947,270.2855 L538.7632,270.5662 L548.6316,270.647 L558.5,271.109 L568.3684,271.2229 L578.2368,271.2338 L588.1053,270.6676 L597.9737,270.9462 L607.8421,271.2644 L617.7105,269.3665 L627.5789,271.2328 L637.4474,269.9328 L647.3158,271.0399 L657.1842,269.6681 L667.0526,270.2368 L676.9211,271.3169 L686.7895,270.2631 L696.6579,270.4685 L706.5263,270.7796 L716.3947,270.8831 L726.2632,270.3229 L736.1316,270.7111 L746,270.3281 " fill="none" style="stroke:#181818;stroke-width:1.0;"/><text fill="#000000" font-family="FG Virgil" font-size="13" lengthAdjust="spacing" textLength="44" x="378" y="265.4717">create()</text><polygon fill="#181818" points="745,296.6797,745.026,296.7447,746.9487,297.3515,749.0239,298.3395,751.0495,299.2034,752.9117,299.6589,755,300.6797,754.9904,300.6556,752.9472,301.3477,750.9525,302.161,748.9916,303.0586,746.9144,303.6657,745,304.6797,745.1305,304.8102,745.6514,303.7311,746.5534,303.0331,747.5018,302.3815,748.1798,301.4595,749,300.6797,749.0161,300.6958,748.1925,299.8722,747.4421,299.1218,746.6564,298.3361,745.938,297.6177,745,296.6797" style="stroke:#181818;stroke-width:1.0;"/><path d="M371,300.6797 L371,300.9599 L381,300.1273 L391,300.9374 L401,301.2126 L411,299.7285 L421,300.5761 L431,300.111 L441,300.1684 L451,300.5888 L461,299.7579 L471,301.4179 L481,299.8393 L491,300.416 L501,301.2556 L511,300.5653 L521,300.7707 L531,300.6371 L541,300.9177 L551,300.9985 L561,301.4606 L571,301.5744 L581,301.5854 L591,301.0192 L601,301.2978 L611,301.616 L621,299.7181 L631,301.5844 L641,300.2843 L651,301.3914 L661,300.0197 L671,300.5884 L681,301.6685 L691,300.6147 L701,300.8201 L711,301.1312 L721,301.2347 L731,300.6745 L741,301.0626 L751,300.6797 " fill="none" style="stroke:#181818;stroke-width:1.0;"/><text fill="#000000" font-family="FG Virgil" font-size="13" lengthAdjust="spacing" textLength="357" x="378" y="295.8232">ensureAuthenticatedUserHasAnyOf(CourseRoles.MANAGER)</text><polygon fill="#181818" points="907.5,327.0313,907.526,327.0963,909.4487,327.703,911.5239,328.6911,913.5495,329.5549,915.4117,330.0105,917.5,331.0313,917.4904,331.0072,915.4472,331.6993,913.4525,332.5126,911.4916,333.4102,909.4144,334.0173,907.5,335.0313,907.6305,335.1617,908.1514,334.0827,909.0534,333.3846,910.0018,332.7331,910.6798,331.811,911.5,331.0313,911.5161,331.0473,910.6925,330.2237,909.9421,329.4733,909.1564,328.6876,908.438,327.9693,907.5,327.0313" style="stroke:#181818;stroke-width:1.0;"/><path d="M371,331.0313 L371,331.3115 L381.0463,330.4788 L391.0926,331.289 L401.1389,331.5642 L411.1852,330.0801 L421.2315,330.9276 L431.2778,330.4626 L441.3241,330.5199 L451.3704,330.9404 L461.4167,330.1094 L471.463,331.7694 L481.5093,330.1909 L491.5556,330.7676 L501.6019,331.6072 L511.6481,330.9169 L521.6944,331.1222 L531.7407,330.9887 L541.787,331.2693 L551.8333,331.3501 L561.8796,331.8122 L571.9259,331.926 L581.9722,331.9369 L592.0185,331.3708 L602.0648,331.6494 L612.1111,331.9676 L622.1574,330.0697 L632.2037,331.9359 L642.25,330.6359 L652.2963,331.743 L662.3426,330.3712 L672.3889,330.9399 L682.4352,332.0201 L692.4815,330.9663 L702.5278,331.1717 L712.5741,331.4828 L722.6204,331.5862 L732.6667,331.026 L742.713,331.4142 L752.7593,330.268 L762.8056,331.4104 L772.8519,331.7622 L782.8981,331.624 L792.9444,331.8486 L802.9907,330.3871 L813.037,330.1617 L823.0833,330.2027 L833.1296,330.9527 L843.1759,330.7692 L853.2222,331.9398 L863.2685,330.7983 L873.3148,330.5738 L883.3611,331.3356 L893.4074,330.1421 L903.4537,330.3391 L913.5,331.0313 " fill="none" style="stroke:#181818;stroke-width:1.0;"/><text fill="#000000" font-family="FG Virgil" font-size="13" lengthAdjust="spacing" textLength="44" x="378" y="326.1748">create()</text><polygon fill="#181818" points="907.5,357.3828,907.526,357.4479,909.4487,358.0546,911.5239,359.0426,913.5495,359.9065,915.4117,360.362,917.5,361.3828,917.4904,361.3588,915.4472,362.0508,913.4525,362.8641,911.4916,363.7617,909.4144,364.3688,907.5,365.3828,907.6305,365.5133,908.1514,364.4343,909.0534,363.7362,910.0018,363.0846,910.6798,362.1626,911.5,361.3828,911.5161,361.3989,910.6925,360.5753,909.9421,359.8249,909.1564,359.0392,908.438,358.3209,907.5,357.3828" style="stroke:#181818;stroke-width:1.0;"/><path d="M371,361.3828 L371,361.6631 L381.0463,360.8304 L391.0926,361.6405 L401.1389,361.9157 L411.1852,360.4316 L421.2315,361.2792 L431.2778,360.8142 L441.3241,360.8715 L451.3704,361.2919 L461.4167,360.461 L471.463,362.121 L481.5093,360.5424 L491.5556,361.1191 L501.6019,361.9587 L511.6481,361.2684 L521.6944,361.4738 L531.7407,361.3402 L541.787,361.6208 L551.8333,361.7017 L561.8796,362.1637 L571.9259,362.2776 L581.9722,362.2885 L592.0185,361.7223 L602.0648,362.0009 L612.1111,362.3191 L622.1574,360.4212 L632.2037,362.2875 L642.25,360.9875 L652.2963,362.0946 L662.3426,360.7228 L672.3889,361.2915 L682.4352,362.3716 L692.4815,361.3178 L702.5278,361.5232 L712.5741,361.8343 L722.6204,361.9378 L732.6667,361.3776 L742.713,361.7658 L752.7593,360.6196 L762.8056,361.762 L772.8519,362.1137 L782.8981,361.9755 L792.9444,362.2002 L802.9907,360.7387 L813.037,360.5132 L823.0833,360.5543 L833.1296,361.3043 L843.1759,361.1208 L853.2222,362.2914 L863.2685,361.1499 L873.3148,360.9254 L883.3611,361.6872 L893.4074,360.4937 L903.4537,360.6906 L913.5,361.3828 " fill="none" style="stroke:#181818;stroke-width:1.0;"/><text fill="#000000" font-family="FG Virgil" font-size="13" lengthAdjust="spacing" textLength="131" x="378" y="356.5264">enableUser(userEmail)</text><polygon fill="#181818" points="1157.5,387.7344,1157.526,387.7994,1159.4487,388.4061,1161.5239,389.3942,1163.5495,390.2581,1165.4117,390.7136,1167.5,391.7344,1167.4904,391.7103,1165.4472,392.4024,1163.4525,393.2157,1161.4916,394.1133,1159.4144,394.7204,1157.5,395.7344,1157.6305,395.8649,1158.1514,394.7858,1159.0534,394.0878,1160.0018,393.4362,1160.6798,392.5142,1161.5,391.7344,1161.5161,391.7505,1160.6925,390.9268,1159.9421,390.1765,1159.1564,389.3907,1158.438,388.6724,1157.5,387.7344" style="stroke:#181818;stroke-width:1.0;"/><path d="M929.5,391.7344 L929.5,392.0146 L939.6739,391.1819 L949.8478,391.9921 L960.0217,392.2673 L970.1957,390.7832 L980.3696,391.6308 L990.5435,391.1657 L1000.7174,391.223 L1010.8913,391.6435 L1021.0652,390.8125 L1031.2391,392.4726 L1041.413,390.894 L1051.587,391.4707 L1061.7609,392.3103 L1071.9348,391.62 L1082.1087,391.8254 L1092.2826,391.6918 L1102.4565,391.9724 L1112.6304,392.0532 L1122.8043,392.5153 L1132.9783,392.6291 L1143.1522,392.6401 L1153.3261,392.0739 L1163.5,391.7344 " fill="none" style="stroke:#181818;stroke-width:1.0;"/><text fill="#000000" font-family="FG Virgil" font-size="13" lengthAdjust="spacing" textLength="75" x="936.5" y="386.8779">repositories()</text><polygon fill="#181818" points="1305.5,418.0859,1305.526,418.151,1307.4487,418.7577,1309.5239,419.7458,1311.5495,420.6096,1313.4117,421.0651,1315.5,422.0859,1315.4904,422.0619,1313.4472,422.7539,1311.4525,423.5672,1309.4916,424.4648,1307.4144,425.072,1305.5,426.0859,1305.6305,426.2164,1306.1514,425.1374,1307.0534,424.4393,1308.0018,423.7877,1308.6798,422.8657,1309.5,422.0859,1309.5161,422.102,1308.6925,421.2784,1307.9421,420.528,1307.1564,419.7423,1306.438,419.024,1305.5,418.0859" style="stroke:#181818;stroke-width:1.0;"/><path d="M1179.5,422.0859 L1179.5,422.3662 L1189.6538,421.5335 L1199.8077,422.3437 L1209.9615,422.6188 L1220.1154,421.1347 L1230.2692,421.9823 L1240.4231,421.5173 L1250.5769,421.5746 L1260.7308,421.9951 L1270.8846,421.1641 L1281.0385,422.8241 L1291.1923,421.2456 L1301.3462,421.8222 L1311.5,422.0859 " fill="none" style="stroke:#181818;stroke-width:1.0;"/><text fill="#000000" font-family="FG Virgil" font-size="13" lengthAdjust="spacing" textLength="44" x="1186.5" y="417.2295">create()</text><polygon fill="#181818" points="940.5,448.4375,940.526,448.5025,938.4487,449.1093,936.5239,450.0973,934.5495,450.9612,932.4117,451.4167,930.5,452.4375,930.4904,452.4134,932.4472,453.1055,934.4525,453.9188,936.4916,454.8164,938.4144,455.4235,940.5,456.4375,940.6305,456.568,939.5514,455.4889,938.8534,454.7909,938.2018,454.1393,937.2798,453.2173,936.5,452.4375,936.5161,452.4536,937.2925,451.63,938.1421,450.8796,938.9564,450.0939,939.838,449.3755,940.5,448.4375" style="stroke:#181818;stroke-width:1.0;"/><path d="M934.5,452.4375 L934.5,452.7177 L944.4583,451.8851 L954.4167,452.6952 L964.375,452.9704 L974.3333,451.4863 L984.2917,452.3339 L994.25,451.8688 L1004.2083,451.9262 L1014.1667,452.3466 L1024.125,451.5157 L1034.0833,453.1757 L1044.0417,451.5971 L1054,452.1738 L1063.9583,453.0134 L1073.9167,452.3231 L1083.875,452.5285 L1093.8333,452.3949 L1103.7917,452.6755 L1113.75,452.7563 L1123.7083,453.2184 L1133.6667,453.3322 L1143.625,453.3432 L1153.5833,452.777 L1163.5417,453.0556 L1173.5,452.4375 " fill="none" style="stroke:#181818;stroke-width:1.0;"/><text fill="#000000" font-family="FG Virgil" font-size="13" lengthAdjust="spacing" textLength="39" x="946.5" y="447.5811">factory</text><polygon fill="#181818" points="1300.5,478.7891,1300.526,478.8541,1302.4487,479.4608,1304.5239,480.4489,1306.5495,481.3128,1308.4117,481.7683,1310.5,482.7891,1310.4904,482.765,1308.4472,483.4571,1306.4525,484.2704,1304.4916,485.168,1302.4144,485.7751,1300.5,486.7891,1300.6305,486.9196,1301.1514,485.8405,1302.0534,485.1424,1303.0018,484.4909,1303.6798,483.5688,1304.5,482.7891,1304.5161,482.8051,1303.6925,481.9815,1302.9421,481.2311,1302.1564,480.4454,1301.438,479.7271,1300.5,478.7891" style="stroke:#181818;stroke-width:1.0;"/><path d="M929.5,482.7891 L929.5,483.0693 L939.4211,482.2366 L949.3421,483.0468 L959.2632,483.322 L969.1842,481.8379 L979.1053,482.6854 L989.0263,482.2204 L998.9474,482.2777 L1008.8684,482.6982 L1018.7895,481.8672 L1028.7105,483.5273 L1038.6316,481.9487 L1048.5526,482.5254 L1058.4737,483.365 L1068.3947,482.6747 L1078.3158,482.88 L1088.2368,482.7465 L1098.1579,483.0271 L1108.0789,483.1079 L1118,483.57 L1127.9211,483.6838 L1137.8421,483.6947 L1147.7632,483.1286 L1157.6842,483.4072 L1167.6053,483.7254 L1177.5263,481.8275 L1187.4474,483.6937 L1197.3684,482.3937 L1207.2895,483.5008 L1217.2105,482.129 L1227.1316,482.6977 L1237.0526,483.7779 L1246.9737,482.7241 L1256.8947,482.9295 L1266.8158,483.2406 L1276.7368,483.344 L1286.6579,482.7839 L1296.5789,483.172 L1306.5,482.7891 " fill="none" style="stroke:#181818;stroke-width:1.0;"/><text fill="#000000" font-family="FG Virgil" font-size="13" lengthAdjust="spacing" textLength="40" x="936.5" y="477.9326">users()</text><polygon fill="#181818" points="1432,509.1406,1432.026,509.2057,1433.9487,509.8124,1436.0239,510.8004,1438.0495,511.6643,1439.9117,512.1198,1442,513.1406,1441.9904,513.1166,1439.9472,513.8086,1437.9525,514.6219,1435.9916,515.5195,1433.9144,516.1267,1432,517.1406,1432.1305,517.2711,1432.6514,516.1921,1433.5534,515.494,1434.5018,514.8424,1435.1798,513.9204,1436,513.1406,1436.0161,513.1567,1435.1925,512.3331,1434.4421,511.5827,1433.6564,510.797,1432.938,510.0787,1432,509.1406" style="stroke:#181818;stroke-width:1.0;"/><path d="M1322.5,513.1406 L1322.5,513.4209 L1332.125,512.5882 L1341.75,513.3983 L1351.375,513.6735 L1361,512.1894 L1370.625,513.037 L1380.25,512.572 L1389.875,512.6293 L1399.5,513.0497 L1409.125,512.2188 L1418.75,513.8788 L1428.375,512.3003 L1438,513.1406 " fill="none" style="stroke:#181818;stroke-width:1.0;"/><text fill="#000000" font-family="FG Virgil" font-size="13" lengthAdjust="spacing" textLength="44" x="1329.5" y="508.2842">create()</text><polygon fill="#181818" points="940.5,539.4922,940.526,539.5572,938.4487,540.164,936.5239,541.152,934.5495,542.0159,932.4117,542.4714,930.5,543.4922,930.4904,543.4681,932.4472,544.1602,934.4525,544.9735,936.4916,545.8711,938.4144,546.4782,940.5,547.4922,940.6305,547.6227,939.5514,546.5436,938.8534,545.8456,938.2018,545.194,937.2798,544.272,936.5,543.4922,936.5161,543.5083,937.2925,542.6847,938.1421,541.9343,938.9564,541.1486,939.838,540.4302,940.5,539.4922" style="stroke:#181818;stroke-width:1.0;"/><path d="M934.5,543.4922 L934.5,543.7724 L944.5526,542.9398 L954.6053,543.7499 L964.6579,544.0251 L974.7105,542.541 L984.7632,543.3886 L994.8158,542.9235 L1004.8684,542.9809 L1014.9211,543.4013 L1024.9737,542.5704 L1035.0263,544.2304 L1045.0789,542.6518 L1055.1316,543.2285 L1065.1842,544.0681 L1075.2368,543.3778 L1085.2895,543.5832 L1095.3421,543.4496 L1105.3947,543.7302 L1115.4474,543.811 L1125.5,544.2731 L1135.5526,544.3869 L1145.6053,544.3979 L1155.6579,543.8317 L1165.7105,544.1103 L1175.7632,544.4285 L1185.8158,542.5306 L1195.8684,544.3969 L1205.9211,543.0968 L1215.9737,544.2039 L1226.0263,542.8322 L1236.0789,543.4009 L1246.1316,544.481 L1256.1842,543.4272 L1266.2368,543.6326 L1276.2895,543.9437 L1286.3421,544.0472 L1296.3947,543.487 L1306.4474,543.8751 L1316.5,543.4922 " fill="none" style="stroke:#181818;stroke-width:1.0;"/><text fill="#000000" font-family="FG Virgil" font-size="13" lengthAdjust="spacing" textLength="87" x="946.5" y="538.6357">userRepository</text><polygon fill="#181818" points="1427,569.8438,1427.026,569.9088,1428.9487,570.5155,1431.0239,571.5036,1433.0495,572.3674,1434.9117,572.823,1437,573.8438,1436.9904,573.8197,1434.9472,574.5118,1432.9525,575.3251,1430.9916,576.2227,1428.9144,576.8298,1427,577.8438,1427.1305,577.9742,1427.6514,576.8952,1428.5534,576.1971,1429.5018,575.5456,1430.1798,574.6235,1431,573.8438,1431.0161,573.8598,1430.1925,573.0362,1429.4421,572.2858,1428.6564,571.5001,1427.938,570.7818,1427,569.8438" style="stroke:#181818;stroke-width:1.0;"/><path d="M929.5,573.8438 L929.5,574.124 L939.57,573.2913 L949.64,574.1015 L959.71,574.3767 L969.78,572.8926 L979.85,573.7401 L989.92,573.2751 L999.99,573.3324 L1010.06,573.7529 L1020.13,572.9219 L1030.2,574.5819 L1040.27,573.0034 L1050.34,573.5801 L1060.41,574.4197 L1070.48,573.7294 L1080.55,573.9347 L1090.62,573.8012 L1100.69,574.0818 L1110.76,574.1626 L1120.83,574.6247 L1130.9,574.7385 L1140.97,574.7494 L1151.04,574.1833 L1161.11,574.4619 L1171.18,574.7801 L1181.25,572.8822 L1191.32,574.7484 L1201.39,573.4484 L1211.46,574.5555 L1221.53,573.1837 L1231.6,573.7524 L1241.67,574.8326 L1251.74,573.7788 L1261.81,573.9842 L1271.88,574.2953 L1281.95,574.3987 L1292.02,573.8385 L1302.09,574.2267 L1312.16,573.0805 L1322.23,574.2229 L1332.3,574.5747 L1342.37,574.4365 L1352.44,574.6611 L1362.51,573.1996 L1372.58,572.9742 L1382.65,573.0152 L1392.72,573.7652 L1402.79,573.5817 L1412.86,574.7523 L1422.93,573.6108 L1433,573.8438 " fill="none" style="stroke:#181818;stroke-width:1.0;"/><text fill="#000000" font-family="FG Virgil" font-size="13" lengthAdjust="spacing" textLength="135" x="936.5" y="568.9873">findUserByEmail(email)</text><polygon fill="#181818" points="940.5,600.1953,940.526,600.2604,938.4487,600.8671,936.5239,601.8551,934.5495,602.719,932.4117,603.1745,930.5,604.1953,930.4904,604.1713,932.4472,604.8633,934.4525,605.6766,936.4916,606.5742,938.4144,607.1813,940.5,608.1953,940.6305,608.3258,939.5514,607.2468,938.8534,606.5487,938.2018,605.8971,937.2798,604.9751,936.5,604.1953,936.5161,604.2114,937.2925,603.3878,938.1421,602.6374,938.9564,601.8517,939.838,601.1334,940.5,600.1953" style="stroke:#181818;stroke-width:1.0;"/><path d="M934.5,604.1953 L934.5,604.4756 L944.4706,603.6429 L954.4412,604.453 L964.4118,604.7282 L974.3824,603.2441 L984.3529,604.0917 L994.3235,603.6267 L1004.2941,603.684 L1014.2647,604.1044 L1024.2353,603.2735 L1034.2059,604.9335 L1044.1765,603.3549 L1054.1471,603.9316 L1064.1176,604.7712 L1074.0882,604.0809 L1084.0588,604.2863 L1094.0294,604.1527 L1104,604.4333 L1113.9706,604.5142 L1123.9412,604.9762 L1133.9118,605.0901 L1143.8824,605.101 L1153.8529,604.5348 L1163.8235,604.8134 L1173.7941,605.1316 L1183.7647,603.2337 L1193.7353,605.1 L1203.7059,603.8 L1213.6765,604.9071 L1223.6471,603.5353 L1233.6176,604.104 L1243.5882,605.1841 L1253.5588,604.1303 L1263.5294,604.3357 L1273.5,604.6468 L1283.4706,604.7503 L1293.4412,604.1901 L1303.4118,604.5783 L1313.3824,603.4321 L1323.3529,604.5745 L1333.3235,604.9262 L1343.2941,604.788 L1353.2647,605.0127 L1363.2353,603.5512 L1373.2059,603.3257 L1383.1765,603.3668 L1393.1471,604.1168 L1403.1176,603.9333 L1413.0882,605.1039 L1423.0588,603.9624 L1433.0294,603.7379 L1443,604.1953 " fill="none" style="stroke:#181818;stroke-width:1.0;"/><text fill="#000000" font-family="FG Virgil" font-size="13" lengthAdjust="spacing" textLength="25" x="946.5" y="599.3389">user</text><polygon fill="#181818" points="1046.5,630.5469,1046.526,630.6119,1048.4487,631.2186,1050.5239,632.2067,1052.5495,633.0706,1054.4117,633.5261,1056.5,634.5469,1056.4904,634.5228,1054.4472,635.2149,1052.4525,636.0282,1050.4916,636.9258,1048.4144,637.5329,1046.5,638.5469,1046.6305,638.6774,1047.1514,637.5983,1048.0534,636.9003,1049.0018,636.2487,1049.6798,635.3267,1050.5,634.5469,1050.5161,634.563,1049.6925,633.7393,1048.9421,632.989,1048.1564,632.2032,1047.438,631.4849,1046.5,630.5469" style="stroke:#181818;stroke-width:1.0;"/><path d="M929.5,634.5469 L929.5,634.8271 L939.75,633.9944 L950,634.8046 L960.25,635.0798 L970.5,633.5957 L980.75,634.4433 L991,633.9782 L1001.25,634.0355 L1011.5,634.456 L1021.75,633.625 L1032,635.2851 L1042.25,633.7065 L1052.5,634.5469 " fill="none" style="stroke:#181818;stroke-width:1.0;"/><text fill="#000000" font-family="FG Virgil" font-size="13" lengthAdjust="spacing" textLength="46" x="936.5" y="629.6904">enable()</text><polygon fill="#181818" points="1427,660.8984,1427.026,660.9635,1428.9487,661.5702,1431.0239,662.5583,1433.0495,663.4221,1434.9117,663.8776,1437,664.8984,1436.9904,664.8744,1434.9472,665.5664,1432.9525,666.3797,1430.9916,667.2773,1428.9144,667.8845,1427,668.8984,1427.1305,669.0289,1427.6514,667.9499,1428.5534,667.2518,1429.5018,666.6002,1430.1798,665.6782,1431,664.8984,1431.0161,664.9145,1430.1925,664.0909,1429.4421,663.3405,1428.6564,662.5548,1427.938,661.8365,1427,660.8984" style="stroke:#181818;stroke-width:1.0;"/><path d="M929.5,664.8984 L929.5,665.1787 L939.57,664.346 L949.64,665.1562 L959.71,665.4313 L969.78,663.9472 L979.85,664.7948 L989.92,664.3298 L999.99,664.3871 L1010.06,664.8076 L1020.13,663.9766 L1030.2,665.6366 L1040.27,664.0581 L1050.34,664.6347 L1060.41,665.4744 L1070.48,664.7841 L1080.55,664.9894 L1090.62,664.8558 L1100.69,665.1365 L1110.76,665.2173 L1120.83,665.6794 L1130.9,665.7932 L1140.97,665.8041 L1151.04,665.2379 L1161.11,665.5166 L1171.18,665.8347 L1181.25,663.9369 L1191.32,665.8031 L1201.39,664.5031 L1211.46,665.6102 L1221.53,664.2384 L1231.6,664.8071 L1241.67,665.8872 L1251.74,664.8335 L1261.81,665.0388 L1271.88,665.3499 L1281.95,665.4534 L1292.02,664.8932 L1302.09,665.2814 L1312.16,664.1352 L1322.23,665.2776 L1332.3,665.6294 L1342.37,665.4911 L1352.44,665.7158 L1362.51,664.2543 L1372.58,664.0289 L1382.65,664.0699 L1392.72,664.8199 L1402.79,664.6364 L1412.86,665.807 L1422.93,664.6655 L1433,664.8984 " fill="none" style="stroke:#181818;stroke-width:1.0;"/><text fill="#000000" font-family="FG Virgil" font-size="13" lengthAdjust="spacing" textLength="59" x="936.5" y="660.042">save(user)</text><polygon fill="#181818" points="940.5,691.25,940.526,691.315,938.4487,691.9218,936.5239,692.9098,934.5495,693.7737,932.4117,694.2292,930.5,695.25,930.4904,695.2259,932.4472,695.918,934.4525,696.7313,936.4916,697.6289,938.4144,698.236,940.5,699.25,940.6305,699.3805,939.5514,698.3014,938.8534,697.6034,938.2018,696.9518,937.2798,696.0298,936.5,695.25,936.5161,695.2661,937.2925,694.4425,938.1421,693.6921,938.9564,692.9064,939.838,692.188,940.5,691.25" style="stroke:#181818;stroke-width:1.0;"/><path d="M934.5,695.25 L934.5,695.5302 L944.4706,694.6976 L954.4412,695.5077 L964.4118,695.7829 L974.3824,694.2988 L984.3529,695.1464 L994.3235,694.6813 L1004.2941,694.7387 L1014.2647,695.1591 L1024.2353,694.3282 L1034.2059,695.9882 L1044.1765,694.4096 L1054.1471,694.9863 L1064.1176,695.8259 L1074.0882,695.1356 L1084.0588,695.341 L1094.0294,695.2074 L1104,695.488 L1113.9706,695.5688 L1123.9412,696.0309 L1133.9118,696.1447 L1143.8824,696.1557 L1153.8529,695.5895 L1163.8235,695.8681 L1173.7941,696.1863 L1183.7647,694.2884 L1193.7353,696.1547 L1203.7059,694.8547 L1213.6765,695.9617 L1223.6471,694.59 L1233.6176,695.1587 L1243.5882,696.2388 L1253.5588,695.185 L1263.5294,695.3904 L1273.5,695.7015 L1283.4706,695.805 L1293.4412,695.2448 L1303.4118,695.633 L1313.3824,694.4868 L1323.3529,695.6292 L1333.3235,695.9809 L1343.2941,695.8427 L1353.2647,696.0674 L1363.2353,694.6059 L1373.2059,694.3804 L1383.1765,694.4215 L1393.1471,695.1715 L1403.1176,694.988 L1413.0882,696.1585 L1423.0588,695.0171 L1433.0294,694.7926 L1443,695.25 " fill="none" style="stroke:#181818;stroke-width:1.0;"/><text fill="#000000" font-family="FG Virgil" font-size="13" lengthAdjust="spacing" textLength="25" x="946.5" y="690.3936">user</text><polygon fill="#181818" points="382,721.6016,382.026,721.6666,379.9487,722.2733,378.0239,723.2614,376.0495,724.1253,373.9117,724.5808,372,725.6016,371.9904,725.5775,373.9472,726.2696,375.9525,727.0829,377.9916,727.9805,379.9144,728.5876,382,729.6016,382.1305,729.7321,381.0514,728.653,380.3534,727.9549,379.7018,727.3034,378.7798,726.3813,378,725.6016,378.0161,725.6176,378.7925,724.794,379.6421,724.0436,380.4564,723.2579,381.338,722.5396,382,721.6016" style="stroke:#181818;stroke-width:1.0;"/><path d="M376,725.6016 L376,725.8818 L385.9545,725.0491 L395.9091,725.8593 L405.8636,726.1345 L415.8182,724.6504 L425.7727,725.4979 L435.7273,725.0329 L445.6818,725.0902 L455.6364,725.5107 L465.5909,724.6797 L475.5455,726.3398 L485.5,724.7612 L495.4545,725.3379 L505.4091,726.1775 L515.3636,725.4872 L525.3182,725.6925 L535.2727,725.559 L545.2273,725.8396 L555.1818,725.9204 L565.1364,726.3825 L575.0909,726.4963 L585.0455,726.5072 L595,725.9411 L604.9545,726.2197 L614.9091,726.5379 L624.8636,724.64 L634.8182,726.5062 L644.7727,725.2062 L654.7273,726.3133 L664.6818,724.9415 L674.6364,725.5102 L684.5909,726.5904 L694.5455,725.5366 L704.5,725.742 L714.4545,726.0531 L724.4091,726.1565 L734.3636,725.5964 L744.3182,725.9845 L754.2727,724.8383 L764.2273,725.9807 L774.1818,726.3325 L784.1364,726.1943 L794.0909,726.4189 L804.0455,724.9575 L814,724.732 L823.9545,724.773 L833.9091,725.5231 L843.8636,725.3395 L853.8182,726.5101 L863.7727,725.3687 L873.7273,725.1442 L883.6818,725.9059 L893.6364,724.7124 L903.5909,724.9094 L913.5455,726.4668 L923.5,725.6016 " fill="none" style="stroke:#181818;stroke-width:1.0;"/><text fill="#000000" font-family="FG Virgil" font-size="13" lengthAdjust="spacing" textLength="25" x="388" y="720.7451">user</text><polygon fill="#181818" points="200,751.9531,200.026,752.0182,197.9487,752.6249,196.0239,753.6129,194.0495,754.4768,191.9117,754.9323,190,755.9531,189.9904,755.9291,191.9472,756.6211,193.9525,757.4344,195.9916,758.332,197.9144,758.9392,200,759.9531,200.1305,760.0836,199.0514,759.0046,198.3534,758.3065,197.7018,757.6549,196.7798,756.7329,196,755.9531,196.0161,755.9692,196.7925,755.1456,197.6421,754.3952,198.4564,753.6095,199.338,752.8912,200,751.9531" style="stroke:#181818;stroke-width:1.0;"/><path d="M194,755.9531 L194,756.2334 L204.0588,755.4007 L214.1176,756.2108 L224.1765,756.486 L234.2353,755.0019 L244.2941,755.8495 L254.3529,755.3845 L264.4118,755.4418 L274.4706,755.8622 L284.5294,755.0313 L294.5882,756.6913 L304.6471,755.1128 L314.7059,755.6894 L324.7647,756.5291 L334.8235,755.8388 L344.8824,756.0441 L354.9412,755.9105 L365,755.9531 " fill="none" style="stroke:#181818;stroke-width:1.0;"/><text fill="#000000" font-family="FG Virgil" font-size="13" lengthAdjust="spacing" textLength="25" x="206" y="751.0967">user</text><polygon fill="#181818" points="47,782.3047,47.026,782.3697,44.9487,782.9765,43.0239,783.9645,41.0495,784.8284,38.9117,785.2839,37,786.3047,36.9904,786.2806,38.9472,786.9727,40.9525,787.786,42.9916,788.6836,44.9144,789.2907,47,790.3047,47.1305,790.4352,46.0514,789.3561,45.3534,788.6581,44.7018,788.0065,43.7798,787.0845,43,786.3047,43.0161,786.3208,43.7925,785.4972,44.6421,784.7468,45.4564,783.9611,46.338,783.2427,47,782.3047" style="stroke:#181818;stroke-width:1.0;"/><path d="M41,786.3047 L41,786.5849 L51.1429,785.7523 L61.2857,786.5624 L71.4286,786.8376 L81.5714,785.3535 L91.7143,786.2011 L101.8571,785.736 L112,785.7934 L122.1429,786.2138 L132.2857,785.3829 L142.4286,787.0429 L152.5714,785.4643 L162.7143,786.041 L172.8571,786.8806 L183,786.3047 " fill="none" style="stroke:#181818;stroke-width:1.0;stroke-dasharray:2.0,2.0;"/><text fill="#000000" font-family="FG Virgil" font-size="13" lengthAdjust="spacing" textLength="108" x="53" y="781.4482">displayUserEnable</text><!--MD5=[097c8dc6b2e68bc91d19e1e31c253722]
@startuml
'http://plantuml.com/skinparam.html
skinparam handwritten true
skinparam monochrome true
skinparam packageStyle rect
skinparam defaultFontName FG Virgil
skinparam shadowing false

actor Manager as Actor
participant EnableUserUI as UI <<presentation>>
participant ChangeUserStateController as Controller <<application>>
participant AuthorizationService as AuthzService <<service>>
participant UserManagementService as Service <<service>>
participant "user:User" as Domain <<domain>>
participant PersistenceContext as Persistence <<persistence>>
participant RepositoryFactory as Factory <<factory>>
database UserRepository as Repository <<repository>>


Actor - -> UI: Enable User
activate UI
    UI -> Controller: create()
    UI - -> Actor: Ask user information

    Actor - -> UI: email
        
    UI -> Controller: enableUserByEmail(email)
    activate Controller
        Controller -> AuthzService: create()
        activate AuthzService
        Controller -> AuthzService: ensureAuthenticatedUserHasAnyOf(CourseRoles.MANAGER)
        deactivate AuthzService

        Controller -> Service: create()
        activate Service
        Controller -> Service: enableUser(userEmail)

        Service -> Persistence: repositories()
        activate Persistence
        Persistence -> Factory: create()
        Persistence -> Service: factory
        deactivate Persistence

        Service -> Factory: users()
        activate Factory
        Factory -> Repository: create()
        Factory -> Service: userRepository
        deactivate Factory


        Service -> Repository: findUserByEmail(email)
        activate Repository
        Repository -> Service: user
        deactivate Repository

        Service -> Domain: enable()

        Service -> Repository: save(user)
        activate Repository
        Repository -> Service: user
        deactivate Repository

        Service -> Controller: user
        deactivate Service

        Controller -> UI:user
        deactivate Controller
        UI - -> Actor: displayUserEnable

deactivate UI
@enduml

@startuml
skinparam handwritten true
skinparam monochrome true
skinparam packageStyle rect
skinparam defaultFontName FG Virgil
skinparam shadowing false

actor Manager as Actor
participant EnableUserUI as UI <<presentation>>
participant ChangeUserStateController as Controller <<application>>
participant AuthorizationService as AuthzService <<service>>
participant UserManagementService as Service <<service>>
participant "user:User" as Domain <<domain>>
participant PersistenceContext as Persistence <<persistence>>
participant RepositoryFactory as Factory <<factory>>
database UserRepository as Repository <<repository>>


Actor - -> UI: Enable User
activate UI
    UI -> Controller: create()
    UI - -> Actor: Ask user information

    Actor - -> UI: email
        
    UI -> Controller: enableUserByEmail(email)
    activate Controller
        Controller -> AuthzService: create()
        activate AuthzService
        Controller -> AuthzService: ensureAuthenticatedUserHasAnyOf(CourseRoles.MANAGER)
        deactivate AuthzService

        Controller -> Service: create()
        activate Service
        Controller -> Service: enableUser(userEmail)

        Service -> Persistence: repositories()
        activate Persistence
        Persistence -> Factory: create()
        Persistence -> Service: factory
        deactivate Persistence

        Service -> Factory: users()
        activate Factory
        Factory -> Repository: create()
        Factory -> Service: userRepository
        deactivate Factory


        Service -> Repository: findUserByEmail(email)
        activate Repository
        Repository -> Service: user
        deactivate Repository

        Service -> Domain: enable()

        Service -> Repository: save(user)
        activate Repository
        Repository -> Service: user
        deactivate Repository

        Service -> Controller: user
        deactivate Service

        Controller -> UI:user
        deactivate Controller
        UI - -> Actor: displayUserEnable

deactivate UI
@enduml

PlantUML version 1.2022.7(Mon Aug 22 18:01:30 BST 2022)
(GPL source distribution)
Java Runtime: Java(TM) SE Runtime Environment
JVM: Java HotSpot(TM) 64-Bit Server VM
Default Encoding: Cp1252
Language: pt
Country: PT
--></g></svg>