<?xml version="1.0" encoding="UTF-8" standalone="no"?><svg xmlns="http://www.w3.org/2000/svg" xmlns:xlink="http://www.w3.org/1999/xlink" contentStyleType="text/css" height="793px" preserveAspectRatio="none" style="width:1320px;height:793px;background:#FFFFFF;" version="1.1" viewBox="0 0 1320 793" width="1320px" zoomAndPan="magnify"><defs/><g><polygon fill="#FFFFFF" points="139,118.5703,139,118.6404,141,118.4322,143,118.6347,145,118.7035,147,118.3325,149,118.5703,148.9223,118.5703,148.5735,128.5583,148.6165,138.5463,148.9318,148.5343,148.3086,158.5223,149.5536,168.5103,148.3697,178.4983,148.8022,188.4863,149.4319,198.4743,148.9142,208.4623,149.0682,218.4503,148.9681,228.4383,149.1785,238.4263,149.2391,248.4143,149.5857,258.4023,149.6711,268.3903,149.6793,278.3783,149.2546,288.3664,149.4636,298.3544,149.7022,308.3424,148.2788,318.3304,149.6785,328.3184,148.7035,338.3064,149.5338,348.2944,148.505,358.2824,148.9315,368.2704,149.7416,378.2584,148.9513,388.2464,149.1053,398.2344,149.3386,408.2224,149.4162,418.2104,148.9961,428.1984,149.2872,438.1864,148.4276,448.1744,149.2844,458.1624,149.5482,468.1504,149.4445,478.1384,149.613,488.1264,148.5169,498.1144,148.3478,508.1024,148.3786,518.0904,148.9411,528.0784,148.8035,538.0664,149.6814,548.0544,148.8253,558.0424,148.6569,568.0304,149.2283,578.0184,148.3332,588.0064,148.4809,597.9944,149.649,607.9824,149.4357,617.9704,149.7345,627.9584,148.6782,637.9464,149.3192,647.9344,149.5904,657.9224,148.5276,667.9104,149,677.8984,149,677.8665,147,677.9404,145,678.1157,143,677.897,141,678.0526,139,677.8984,138.4462,677.8984,138.3227,667.9104,139.5036,657.9224,138.2831,647.9344,139.509,637.9464,139.2066,627.9584,138.7321,617.9704,138.6462,607.9824,139.4588,597.9944,138.7007,588.0064,139.5919,578.0184,138.4473,568.0304,139.6174,558.0424,139.4843,548.0544,139.245,538.0664,139.0472,528.0784,139.7266,518.0904,139.6136,508.1024,139.1693,498.1144,139.2682,488.1264,138.8697,478.1384,139.7165,468.1504,139.1549,458.1624,139.1726,448.1744,138.3916,438.1864,138.5948,428.1984,139.5307,418.2104,139.4298,408.2224,138.9571,398.2344,138.6778,388.2464,138.7811,378.2584,138.3138,368.2704,139.4147,358.2824,139.7396,348.2944,139.5264,338.3064,139.6949,328.3184,138.8633,318.3304,139.0872,308.3424,138.6124,298.3544,139.284,288.3664,139.2468,278.3783,139.5524,268.3903,138.7703,258.4023,138.8656,248.4143,139.4435,238.4263,139.5673,228.4383,138.4875,218.4503,138.8061,208.4623,139.1493,198.4743,138.3892,188.4863,139.3534,178.4983,139.258,168.5103,138.8992,158.5223,139.1422,148.5343,139.7287,138.5463,138.6871,128.5583,139,118.5703" style="stroke:#181818;stroke-width:1.0;"/><polygon fill="#FFFFFF" points="270.5,179.2734,270.5,179.3435,272.5,179.1353,274.5,179.3379,276.5,179.4067,278.5,179.0356,280.5,179.2734,280.4223,179.2734,280.0735,189.3906,280.1165,199.5078,280.4318,209.625,279.8086,219.7422,281.0536,229.8594,279.8697,239.9766,280.3022,250.0938,280.9319,260.2109,280.4142,270.3281,280.5682,280.4453,280.4681,290.5625,280.6785,300.6797,280.7391,310.7969,281.0857,320.9141,281.1711,331.0313,281.1793,341.1484,280.7546,351.2656,280.9636,361.3828,281.2022,371.5,279.7788,381.6172,281.1785,391.7344,280.2035,401.8516,281.0338,411.9688,280.005,422.0859,280.4315,432.2031,281.2416,442.3203,280.4513,452.4375,280.6053,462.5547,280.8386,472.6719,280.9162,482.7891,280.4961,492.9063,280.7872,503.0234,279.9276,513.1406,280.7844,523.2578,281.0482,533.375,280.9445,543.4922,281.113,553.6094,280.0169,563.7266,279.8478,573.8438,279.8786,583.9609,280.4411,594.0781,280.5,604.1953,280.5,604.1298,278.5,604.4224,276.5,604.1371,274.5,604.081,272.5,604.2714,270.5,604.1953,269.8332,604.1953,269.9809,594.0781,271.149,583.9609,270.9357,573.8438,271.2345,563.7266,270.1782,553.6094,270.8192,543.4922,271.0904,533.375,270.0276,523.2578,270.4041,513.1406,270.626,503.0234,271.1518,492.9063,270.4958,482.7891,270.9626,472.6719,269.9462,462.5547,269.8227,452.4375,271.0036,442.3203,269.7831,432.2031,271.009,422.0859,270.7066,411.9688,270.2321,401.8516,270.1462,391.7344,270.9588,381.6172,270.2007,371.5,271.0919,361.3828,269.9473,351.2656,271.1174,341.1484,270.9843,331.0313,270.745,320.9141,270.5472,310.7969,271.2266,300.6797,271.1136,290.5625,270.6693,280.4453,270.7682,270.3281,270.3697,260.2109,271.2165,250.0938,270.6549,239.9766,270.6726,229.8594,269.8916,219.7422,270.0948,209.625,271.0307,199.5078,270.9298,189.3906,270.5,179.2734" style="stroke:#181818;stroke-width:1.0;"/><polygon fill="#FFFFFF" points="661.5,209.625,661.5,209.6951,663.5,209.4869,665.5,209.6894,667.5,209.7582,669.5,209.3872,671.5,209.625,671.4741,209.625,671.3578,215.6953,671.3722,221.7656,671.4773,227.8359,671.2695,233.9063,671.5,239.9766,671.5,240.1611,669.5,239.7665,667.5,239.9106,665.5,240.1205,663.5,239.948,661.5,239.9766,661.5227,239.9766,661.4894,233.9063,661.5595,227.8359,661.5797,221.7656,661.6952,215.6953,661.5,209.625" style="stroke:#181818;stroke-width:1.0;"/><polygon fill="#FFFFFF" points="829,270.3281,829,270.3982,831,270.19,833,270.3926,835,270.4614,837,270.0903,839,270.3281,838.9223,270.3281,838.5735,280.4453,838.6165,290.5625,838.9318,300.6797,838.3086,310.7969,839.5536,320.9141,838.3697,331.0313,838.8022,341.1484,839.4319,351.2656,838.9142,361.3828,839.0682,371.5,838.9681,381.6172,839.1785,391.7344,839.2391,401.8516,839.5857,411.9688,839.6711,422.0859,839.6793,432.2031,839.2546,442.3203,839.4636,452.4375,839.7022,462.5547,838.2788,472.6719,839.6785,482.7891,838.7035,492.9063,839.5338,503.0234,838.505,513.1406,838.9315,523.2578,839.7416,533.375,838.9513,543.4922,839.1053,553.6094,839.3386,563.7266,839,573.8438,839,573.9825,837,573.8424,835,573.9395,833,573.6529,831,573.9385,829,573.8438,829.5482,573.8438,829.4445,563.7266,829.613,553.6094,828.5169,543.4922,828.3478,533.375,828.3786,523.2578,828.9411,513.1406,828.8035,503.0234,829.6814,492.9063,828.8253,482.7891,828.6569,472.6719,829.2283,462.5547,828.3332,452.4375,828.4809,442.3203,829.649,432.2031,829.4357,422.0859,829.7345,411.9688,828.6782,401.8516,829.3192,391.7344,829.5904,381.6172,828.5276,371.5,828.9041,361.3828,829.126,351.2656,829.6518,341.1484,828.9958,331.0313,829.4626,320.9141,828.4462,310.7969,828.3227,300.6797,829.5036,290.5625,828.2831,280.4453,829,270.3281" style="stroke:#181818;stroke-width:1.0;"/><polygon fill="#FFFFFF" points="993,331.0313,993,331.1013,995,330.8931,997,331.0957,999,331.1645,1001,330.7935,1003,331.0313,1002.9223,331.0313,1002.5735,341.1484,1002.6165,351.2656,1002.9318,361.3828,1002.3086,371.5,1003.5536,381.6172,1003,391.7344,1003,391.5243,1001,391.6685,999,391.8784,997,391.7058,995,391.7571,993,391.7344,992.9681,391.7344,993.1785,381.6172,993.2391,371.5,993.5857,361.3828,993.6711,351.2656,993.6793,341.1484,993,331.0313" style="stroke:#181818;stroke-width:1.0;"/><polygon fill="#FFFFFF" points="1136,422.0859,1136,422.156,1138,421.9478,1140,422.1504,1142,422.2192,1144,421.8481,1146,422.0859,1145.9223,422.0859,1145.5735,432.2031,1145.6165,442.3203,1145.9318,452.4375,1145.3086,462.5547,1146.5536,472.6719,1146,482.7891,1146,482.579,1144,482.7231,1142,482.933,1140,482.7605,1138,482.8118,1136,482.7891,1135.9681,482.7891,1136.1785,472.6719,1136.2391,462.5547,1136.5857,452.4375,1136.6711,442.3203,1136.6793,432.2031,1136,422.0859" style="stroke:#181818;stroke-width:1.0;"/><polygon fill="#FFFFFF" points="1262.5,513.1406,1262.5,513.2107,1264.5,513.0025,1266.5,513.2051,1268.5,513.2739,1270.5,512.9028,1272.5,513.1406,1272.4741,513.1406,1272.3578,519.2109,1272.3722,525.2813,1272.4773,531.3516,1272.2695,537.4219,1272.5,543.4922,1272.5,543.6767,1270.5,543.2821,1268.5,543.4263,1266.5,543.6362,1264.5,543.4636,1262.5,543.4922,1262.5227,543.4922,1262.4894,537.4219,1262.5595,531.3516,1262.5797,525.2813,1262.6952,519.2109,1262.5,513.1406" style="stroke:#181818;stroke-width:1.0;"/><path d="M36,86.2188 L36.2802,86.2188 L35.4476,96.2135 L36.2577,106.2082 L36.5329,116.203 L35.0488,126.1977 L35.8964,136.1925 L35.4313,146.1872 L35.4887,156.182 L35.9091,166.1767 L35.0782,176.1715 L36.7382,186.1662 L35.1596,196.161 L35.7363,206.1557 L36.5759,216.1505 L35.8856,226.1452 L36.091,236.14 L35.9574,246.1347 L36.238,256.1295 L36.3188,266.1242 L36.7809,276.119 L36.8947,286.1137 L36.9057,296.1085 L36.3395,306.1032 L36.6181,316.098 L36.9363,326.0927 L35.0384,336.0875 L36.9047,346.0822 L35.6047,356.077 L36.7117,366.0717 L35.34,376.0665 L35.9087,386.0612 L36.9888,396.056 L35.935,406.0507 L36.1404,416.0455 L36.4515,426.0402 L36.555,436.035 L35.9948,446.0297 L36.383,456.0245 L35.2368,466.0192 L36.3792,476.014 L36.7309,486.0087 L36.5927,496.0035 L36.8174,505.9982 L35.3559,515.993 L35.1304,525.9877 L35.1715,535.9825 L35.9215,545.9772 L35.738,555.972 L36.9085,565.9667 L35.7671,575.9614 L35.5426,585.9562 L36.3044,595.9509 L35.1109,605.9457 L35.3078,615.9404 L36.8653,625.9352 L36.5809,635.9299 L36.9793,645.9247 L35.5709,655.9194 L36.4256,665.9142 L36.7872,675.9089 L35.3701,685.9037 L36,695.8984 " fill="none" style="stroke:#181818;stroke-width:0.5;stroke-dasharray:5.0,5.0;"/><path d="M143.5,86.2188 L143.7802,86.2188 L142.9476,96.2135 L143.7577,106.2082 L144.0329,116.203 L142.5488,126.1977 L143.3964,136.1925 L142.9313,146.1872 L142.9887,156.182 L143.4091,166.1767 L142.5782,176.1715 L144.2382,186.1662 L142.6596,196.161 L143.2363,206.1557 L144.0759,216.1505 L143.3856,226.1452 L143.591,236.14 L143.4574,246.1347 L143.738,256.1295 L143.8188,266.1242 L144.2809,276.119 L144.3947,286.1137 L144.4057,296.1085 L143.8395,306.1032 L144.1181,316.098 L144.4363,326.0927 L142.5384,336.0875 L144.4047,346.0822 L143.1047,356.077 L144.2117,366.0717 L142.84,376.0665 L143.4087,386.0612 L144.4888,396.056 L143.435,406.0507 L143.6404,416.0455 L143.9515,426.0402 L144.055,436.035 L143.4948,446.0297 L143.883,456.0245 L142.7368,466.0192 L143.8792,476.014 L144.2309,486.0087 L144.0927,496.0035 L144.3174,505.9982 L142.8559,515.993 L142.6304,525.9877 L142.6715,535.9825 L143.4215,545.9772 L143.238,555.972 L144.4085,565.9667 L143.2671,575.9614 L143.0426,585.9562 L143.8044,595.9509 L142.6109,605.9457 L142.8078,615.9404 L144.3653,625.9352 L144.0809,635.9299 L144.4793,645.9247 L143.0709,655.9194 L143.9256,665.9142 L144.2872,675.9089 L142.8701,685.9037 L143.5,695.8984 " fill="none" style="stroke:#181818;stroke-width:0.5;stroke-dasharray:5.0,5.0;"/><path d="M275.5,86.2188 L275.7802,86.2188 L274.9476,96.2135 L275.7577,106.2082 L276.0329,116.203 L274.5488,126.1977 L275.3964,136.1925 L274.9313,146.1872 L274.9887,156.182 L275.4091,166.1767 L274.5782,176.1715 L276.2382,186.1662 L274.6596,196.161 L275.2363,206.1557 L276.0759,216.1505 L275.3856,226.1452 L275.591,236.14 L275.4574,246.1347 L275.738,256.1295 L275.8188,266.1242 L276.2809,276.119 L276.3947,286.1137 L276.4057,296.1085 L275.8395,306.1032 L276.1181,316.098 L276.4363,326.0927 L274.5384,336.0875 L276.4047,346.0822 L275.1047,356.077 L276.2117,366.0717 L274.84,376.0665 L275.4087,386.0612 L276.4888,396.056 L275.435,406.0507 L275.6404,416.0455 L275.9515,426.0402 L276.055,436.035 L275.4948,446.0297 L275.883,456.0245 L274.7368,466.0192 L275.8792,476.014 L276.2309,486.0087 L276.0927,496.0035 L276.3174,505.9982 L274.8559,515.993 L274.6304,525.9877 L274.6715,535.9825 L275.4215,545.9772 L275.238,555.972 L276.4085,565.9667 L275.2671,575.9614 L275.0426,585.9562 L275.8044,595.9509 L274.6109,605.9457 L274.8078,615.9404 L276.3653,625.9352 L276.0809,635.9299 L276.4793,645.9247 L275.0709,655.9194 L275.9256,665.9142 L276.2872,675.9089 L274.8701,685.9037 L275.5,695.8984 " fill="none" style="stroke:#181818;stroke-width:0.5;stroke-dasharray:5.0,5.0;"/><path d="M666,86.2188 L666.2802,86.2188 L665.4476,96.2135 L666.2577,106.2082 L666.5329,116.203 L665.0488,126.1977 L665.8964,136.1925 L665.4313,146.1872 L665.4887,156.182 L665.9091,166.1767 L665.0782,176.1715 L666.7382,186.1662 L665.1596,196.161 L665.7363,206.1557 L666.5759,216.1505 L665.8856,226.1452 L666.091,236.14 L665.9574,246.1347 L666.238,256.1295 L666.3188,266.1242 L666.7809,276.119 L666.8947,286.1137 L666.9057,296.1085 L666.3395,306.1032 L666.6181,316.098 L666.9363,326.0927 L665.0384,336.0875 L666.9047,346.0822 L665.6047,356.077 L666.7117,366.0717 L665.34,376.0665 L665.9087,386.0612 L666.9888,396.056 L665.935,406.0507 L666.1404,416.0455 L666.4515,426.0402 L666.555,436.035 L665.9948,446.0297 L666.383,456.0245 L665.2368,466.0192 L666.3792,476.014 L666.7309,486.0087 L666.5927,496.0035 L666.8174,505.9982 L665.3559,515.993 L665.1304,525.9877 L665.1715,535.9825 L665.9215,545.9772 L665.738,555.972 L666.9085,565.9667 L665.7671,575.9614 L665.5426,585.9562 L666.3044,595.9509 L665.1109,605.9457 L665.3078,615.9404 L666.8653,625.9352 L666.5809,635.9299 L666.9793,645.9247 L665.5709,655.9194 L666.4256,665.9142 L666.7872,675.9089 L665.3701,685.9037 L666,695.8984 " fill="none" style="stroke:#181818;stroke-width:0.5;stroke-dasharray:5.0,5.0;"/><path d="M834,86.2188 L834.2802,86.2188 L833.4476,96.2135 L834.2577,106.2082 L834.5329,116.203 L833.0488,126.1977 L833.8964,136.1925 L833.4313,146.1872 L833.4887,156.182 L833.9091,166.1767 L833.0782,176.1715 L834.7382,186.1662 L833.1596,196.161 L833.7363,206.1557 L834.5759,216.1505 L833.8856,226.1452 L834.091,236.14 L833.9574,246.1347 L834.238,256.1295 L834.3188,266.1242 L834.7809,276.119 L834.8947,286.1137 L834.9057,296.1085 L834.3395,306.1032 L834.6181,316.098 L834.9363,326.0927 L833.0384,336.0875 L834.9047,346.0822 L833.6047,356.077 L834.7117,366.0717 L833.34,376.0665 L833.9087,386.0612 L834.9888,396.056 L833.935,406.0507 L834.1404,416.0455 L834.4515,426.0402 L834.555,436.035 L833.9948,446.0297 L834.383,456.0245 L833.2368,466.0192 L834.3792,476.014 L834.7309,486.0087 L834.5927,496.0035 L834.8174,505.9982 L833.3559,515.993 L833.1304,525.9877 L833.1715,535.9825 L833.9215,545.9772 L833.738,555.972 L834.9085,565.9667 L833.7671,575.9614 L833.5426,585.9562 L834.3044,595.9509 L833.1109,605.9457 L833.3078,615.9404 L834.8653,625.9352 L834.5809,635.9299 L834.9793,645.9247 L833.5709,655.9194 L834.4256,665.9142 L834.7872,675.9089 L833.3701,685.9037 L834,695.8984 " fill="none" style="stroke:#181818;stroke-width:0.5;stroke-dasharray:5.0,5.0;"/><path d="M998,86.2188 L998.2802,86.2188 L997.4476,96.2135 L998.2577,106.2082 L998.5329,116.203 L997.0488,126.1977 L997.8964,136.1925 L997.4313,146.1872 L997.4887,156.182 L997.9091,166.1767 L997.0782,176.1715 L998.7382,186.1662 L997.1596,196.161 L997.7363,206.1557 L998.5759,216.1505 L997.8856,226.1452 L998.091,236.14 L997.9574,246.1347 L998.238,256.1295 L998.3188,266.1242 L998.7809,276.119 L998.8947,286.1137 L998.9057,296.1085 L998.3395,306.1032 L998.6181,316.098 L998.9363,326.0927 L997.0384,336.0875 L998.9047,346.0822 L997.6047,356.077 L998.7117,366.0717 L997.34,376.0665 L997.9087,386.0612 L998.9888,396.056 L997.935,406.0507 L998.1404,416.0455 L998.4515,426.0402 L998.555,436.035 L997.9948,446.0297 L998.383,456.0245 L997.2368,466.0192 L998.3792,476.014 L998.7309,486.0087 L998.5927,496.0035 L998.8174,505.9982 L997.3559,515.993 L997.1304,525.9877 L997.1715,535.9825 L997.9215,545.9772 L997.738,555.972 L998.9085,565.9667 L997.7671,575.9614 L997.5426,585.9562 L998.3044,595.9509 L997.1109,605.9457 L997.3078,615.9404 L998.8653,625.9352 L998.5809,635.9299 L998.9793,645.9247 L997.5709,655.9194 L998.4256,665.9142 L998.7872,675.9089 L997.3701,685.9037 L998,695.8984 " fill="none" style="stroke:#181818;stroke-width:0.5;stroke-dasharray:5.0,5.0;"/><path d="M1141,86.2188 L1141.2802,86.2188 L1140.4476,96.2135 L1141.2577,106.2082 L1141.5329,116.203 L1140.0488,126.1977 L1140.8964,136.1925 L1140.4313,146.1872 L1140.4887,156.182 L1140.9091,166.1767 L1140.0782,176.1715 L1141.7382,186.1662 L1140.1596,196.161 L1140.7363,206.1557 L1141.5759,216.1505 L1140.8856,226.1452 L1141.091,236.14 L1140.9574,246.1347 L1141.238,256.1295 L1141.3188,266.1242 L1141.7809,276.119 L1141.8947,286.1137 L1141.9057,296.1085 L1141.3395,306.1032 L1141.6181,316.098 L1141.9363,326.0927 L1140.0384,336.0875 L1141.9047,346.0822 L1140.6047,356.077 L1141.7117,366.0717 L1140.34,376.0665 L1140.9087,386.0612 L1141.9888,396.056 L1140.935,406.0507 L1141.1404,416.0455 L1141.4515,426.0402 L1141.555,436.035 L1140.9948,446.0297 L1141.383,456.0245 L1140.2368,466.0192 L1141.3792,476.014 L1141.7309,486.0087 L1141.5927,496.0035 L1141.8174,505.9982 L1140.3559,515.993 L1140.1304,525.9877 L1140.1715,535.9825 L1140.9215,545.9772 L1140.738,555.972 L1141.9085,565.9667 L1140.7671,575.9614 L1140.5426,585.9562 L1141.3044,595.9509 L1140.1109,605.9457 L1140.3078,615.9404 L1141.8653,625.9352 L1141.5809,635.9299 L1141.9793,645.9247 L1140.5709,655.9194 L1141.4256,665.9142 L1141.7872,675.9089 L1140.3701,685.9037 L1141,695.8984 " fill="none" style="stroke:#181818;stroke-width:0.5;stroke-dasharray:5.0,5.0;"/><path d="M1267,86.2188 L1267.2802,86.2188 L1266.4476,96.2135 L1267.2577,106.2082 L1267.5329,116.203 L1266.0488,126.1977 L1266.8964,136.1925 L1266.4313,146.1872 L1266.4887,156.182 L1266.9091,166.1767 L1266.0782,176.1715 L1267.7382,186.1662 L1266.1596,196.161 L1266.7363,206.1557 L1267.5759,216.1505 L1266.8856,226.1452 L1267.091,236.14 L1266.9574,246.1347 L1267.238,256.1295 L1267.3188,266.1242 L1267.7809,276.119 L1267.8947,286.1137 L1267.9057,296.1085 L1267.3395,306.1032 L1267.6181,316.098 L1267.9363,326.0927 L1266.0384,336.0875 L1267.9047,346.0822 L1266.6047,356.077 L1267.7117,366.0717 L1266.34,376.0665 L1266.9087,386.0612 L1267.9888,396.056 L1266.935,406.0507 L1267.1404,416.0455 L1267.4515,426.0402 L1267.555,436.035 L1266.9948,446.0297 L1267.383,456.0245 L1266.2368,466.0192 L1267.3792,476.014 L1267.7309,486.0087 L1267.5927,496.0035 L1267.8174,505.9982 L1266.3559,515.993 L1266.1304,525.9877 L1266.1715,535.9825 L1266.9215,545.9772 L1266.738,555.972 L1267.9085,565.9667 L1266.7671,575.9614 L1266.5426,585.9562 L1267.3044,595.9509 L1266.1109,605.9457 L1266.3078,615.9404 L1267.8653,625.9352 L1267.5809,635.9299 L1267.9793,645.9247 L1266.5709,655.9194 L1267.4256,665.9142 L1267.7872,675.9089 L1266.3701,685.9037 L1267,695.8984 " fill="none" style="stroke:#181818;stroke-width:0.5;stroke-dasharray:5.0,5.0;"/><text fill="#000000" font-family="FG Virgil" font-size="14" lengthAdjust="spacing" textLength="56" x="5" y="83.1426">Manager</text><polygon fill="#E3E3E3" points="44.0442,19.0553,42.8715,20.6576,41.4845,23.0044,39.5008,24.586,37.4163,25.4509,35.7542,25.526,33.618,24.4443,31.6023,23.7377,30.0724,22.303,29.2699,20.6605,28.7939,19.3527,28.3277,17.6444,27.5709,16.1744,28.1525,14.7392,28.662,13.167,30.574,11.9235,31.9192,10.3102,33.5843,9.7744,35.5637,9.313,38.1021,9.5872,39.4924,10.2429,41.1089,10.5401,43.0743,12.5537,43.7595,14.6795,44.0571,16.13,43.72,18.5202" style="stroke:#181818;stroke-width:0.5;"/><path d="M36,25.1094 L36.1868,25.1094 L35.6317,30.5094 L36.1718,35.9094 L36.3553,41.3094 L35.3659,46.7094 L36,52.1094 M23,33.1094 L23,33.0403 L28.2,32.7303 L33.4,32.7685 L38.6,33.0488 L43.8,32.4948 L49,33.1094 M36,52.1094 L36.3719,52.4317 L32.9766,54.7425 L30.6672,57.9942 L28.4901,61.3608 L25.5424,64.0594 L23,67.1094 M36,52.1094 L36.0458,52.1491 L38.5785,55.0908 L41.3199,58.2133 L43.9606,61.2486 L46.7934,64.4503 L49,67.1094 " fill="none" style="stroke:#181818;stroke-width:0.5;"/><text fill="#000000" font-family="FG Virgil" font-size="14" lengthAdjust="spacing" textLength="56" x="5" y="709.4316">Manager</text><polygon fill="#E3E3E3" points="44.0442,722.9537,42.8715,724.556,41.4845,726.9029,39.5008,728.4845,37.4163,729.3493,35.7542,729.4244,33.618,728.3428,31.6023,727.6361,30.0724,726.2014,29.2699,724.5589,28.7939,723.2511,28.3277,721.5429,27.5709,720.0729,28.1525,718.6376,28.662,717.0654,30.574,715.822,31.9192,714.2086,33.5843,713.6729,35.5637,713.2115,38.1021,713.4856,39.4924,714.1413,41.1089,714.4385,43.0743,716.4522,43.7595,718.578,44.0571,720.0284,43.72,722.4186" style="stroke:#181818;stroke-width:0.5;"/><path d="M36,729.0078 L36.1868,729.0078 L35.6317,734.4078 L36.1718,739.8078 L36.3553,745.2078 L35.3659,750.6078 L36,756.0078 M23,737.0078 L23,736.9387 L28.2,736.6287 L33.4,736.6669 L38.6,736.9472 L43.8,736.3933 L49,737.0078 M36,756.0078 L36.3719,756.3301 L32.9766,758.6409 L30.6672,761.8927 L28.4901,765.2593 L25.5424,767.9579 L23,771.0078 M36,756.0078 L36.0458,756.0475 L38.5785,758.9892 L41.3199,762.1117 L43.9606,765.147 L46.7934,768.3488 L49,771.0078 " fill="none" style="stroke:#181818;stroke-width:0.5;"/><polygon fill="#E3E3E3" points="92,36,92,36.2102,102.4,35.5857,112.8,36.1933,123.2,36.3997,133.6,35.2866,144,35.9223,154.4,35.5735,164.8,35.6165,175.2,35.9318,185.6,35.3086,196,36,196.0706,36.1705,196.2732,35.9523,196.6819,36.232,197.1158,36.5724,197.4033,36.5594,197.7678,36.7322,197.7888,36.7409,197.9044,37.0817,198.1156,37.4621,198.2808,37.8234,198.5339,38.2212,198.5,38.5,198.7237,38.5,198.7264,47.3438,198.5849,56.1875,198.6545,65.0313,198.7341,73.875,198.5,82.7188,198.2779,82.6268,198.5625,83.1589,198.1158,83.388,198.2251,83.8475,197.7618,84.0698,197.7678,84.4865,197.759,84.4654,197.5088,84.8613,197.0544,84.7644,196.7205,84.9583,196.3967,85.1766,196,85.2188,196,85.635,185.6,85.2148,175.2,85.506,164.8,84.6463,154.4,85.5031,144,85.7669,133.6,85.6633,123.2,85.8318,112.8,84.7357,102.4,84.5666,92,85.2188,91.9207,85.0274,91.6389,85.0542,91.2678,84.8653,91.0263,84.9893,90.5635,84.5792,90.2322,84.4865,90.1266,84.4428,90.1561,84.1621,89.734,83.6943,89.633,83.3596,89.8463,83.1551,89.5,82.7188,89.6452,82.7188,89.7448,73.875,89.3927,65.0313,89.6064,56.1875,89.6968,47.3438,89.5,38.5,89.3545,38.4397,89.6169,38.1342,89.8317,37.809,90.1401,37.5225,90.0845,37.0853,90.2322,36.7322,90.2912,36.8747,90.5151,36.4152,90.8529,36.2308,91.3571,36.448,91.555,35.9257,92,36" style="stroke:#181818;stroke-width:0.5;"/><text fill="#000000" font-family="FG Virgil" font-size="14" font-style="italic" lengthAdjust="spacing" textLength="95" x="96.5" y="57.5332">«presentation»</text><text fill="#000000" font-family="FG Virgil" font-size="14" lengthAdjust="spacing" textLength="70" x="109" y="75.1426">ListUsersUI</text><polygon fill="#E3E3E3" points="92,694.8984,92,695.1086,102.4,694.4841,112.8,695.0917,123.2,695.2981,133.6,694.185,144,694.8207,154.4,694.4719,164.8,694.5149,175.2,694.8303,185.6,694.2071,196,694.8984,196.0706,695.0689,196.2732,694.8508,196.6819,695.1304,197.1158,695.4708,197.4033,695.4578,197.7678,695.6307,197.7888,695.6394,197.9044,695.9801,198.1156,696.3606,198.2808,696.7218,198.5339,697.1196,198.5,697.3984,198.7237,697.3984,198.7264,706.2422,198.5849,715.0859,198.6545,723.9297,198.7341,732.7734,198.5,741.6172,198.2779,741.5252,198.5625,742.0573,198.1158,742.2865,198.2251,742.7459,197.7618,742.9683,197.7678,743.385,197.759,743.3639,197.5088,743.7598,197.0544,743.6628,196.7205,743.8567,196.3967,744.075,196,744.1172,196,744.5334,185.6,744.1133,175.2,744.4044,164.8,743.5448,154.4,744.4016,144,744.6654,133.6,744.5617,123.2,744.7302,112.8,743.6341,102.4,743.465,92,744.1172,91.9207,743.9258,91.6389,743.9526,91.2678,743.7638,91.0263,743.8877,90.5635,743.4776,90.2322,743.385,90.1266,743.3412,90.1561,743.0605,89.734,742.5928,89.633,742.2581,89.8463,742.0535,89.5,741.6172,89.6452,741.6172,89.7448,732.7734,89.3927,723.9297,89.6064,715.0859,89.6968,706.2422,89.5,697.3984,89.3545,697.3382,89.6169,697.0327,89.8317,696.7074,90.1401,696.4209,90.0845,695.9837,90.2322,695.6307,90.2912,695.7731,90.5151,695.3137,90.8529,695.1292,91.3571,695.3464,91.555,694.8241,92,694.8984" style="stroke:#181818;stroke-width:0.5;"/><text fill="#000000" font-family="FG Virgil" font-size="14" font-style="italic" lengthAdjust="spacing" textLength="95" x="96.5" y="716.4316">«presentation»</text><text fill="#000000" font-family="FG Virgil" font-size="14" lengthAdjust="spacing" textLength="70" x="109" y="734.041">ListUsersUI</text><polygon fill="#E3E3E3" points="211,36,211,36.2102,220.9231,35.5857,230.8462,36.1933,240.7692,36.3997,250.6923,35.2866,260.6154,35.9223,270.5385,35.5735,280.4615,35.6165,290.3846,35.9318,300.3077,35.3086,310.2308,36.5536,320.1538,35.3697,330.0769,35.8022,340,36,340.0551,36.133,340.3426,36.12,340.7158,36.3139,341.0566,36.4295,341.437,36.6408,341.7678,36.7322,341.8414,36.7627,342.0946,37.1605,342.2673,37.5249,342.4163,37.8795,342.432,38.1789,342.5,38.5,342.6545,38.5,342.7341,47.3438,342.2596,56.1875,342.7262,65.0313,342.4012,73.875,342.5,82.7188,342.6644,82.7868,342.2011,83.0092,342.186,83.4171,342.289,83.874,341.8992,84.1267,341.7678,84.4865,341.7812,84.5189,341.4574,84.7372,341.1138,84.9076,340.7066,84.9247,340.3902,85.1608,340,85.2188,340,84.6463,330.0769,85.5031,320.1538,85.7669,310.2308,85.6633,300.3077,85.8318,290.3846,84.7357,280.4615,84.5666,270.5385,84.5973,260.6154,85.1599,250.6923,85.0222,240.7692,85.9002,230.8462,85.0441,220.9231,84.8757,211,85.2188,211.0291,85.289,210.5614,84.8669,210.2267,84.766,210.0221,84.9793,209.6414,84.7671,209.2322,84.4865,209.4584,84.5802,208.9867,84.0919,209.0376,83.8201,208.9747,83.5012,208.501,83.012,208.5,82.7188,208.468,82.7188,208.542,73.875,208.7173,65.0313,208.4986,56.1875,208.6542,47.3438,208.5,38.5,208.3295,38.4294,208.4379,38.0601,208.948,37.8571,208.7186,37.3479,209.2425,37.1507,209.2322,36.7322,209.2586,36.7959,209.5516,36.5033,209.8942,36.3304,210.3514,36.4342,210.6083,36.0543,211,36" style="stroke:#181818;stroke-width:0.5;"/><text fill="#000000" font-family="FG Virgil" font-size="14" font-style="italic" lengthAdjust="spacing" textLength="84" x="233.5" y="57.5332">«application»</text><text fill="#000000" font-family="FG Virgil" font-size="14" lengthAdjust="spacing" textLength="120" x="215.5" y="75.1426">ListUsersController</text><polygon fill="#E3E3E3" points="211,694.8984,211,695.1086,220.9231,694.4841,230.8462,695.0917,240.7692,695.2981,250.6923,694.185,260.6154,694.8207,270.5385,694.4719,280.4615,694.5149,290.3846,694.8303,300.3077,694.2071,310.2308,695.4521,320.1538,694.2682,330.0769,694.7007,340,694.8984,340.0551,695.0315,340.3426,695.0185,340.7158,695.2123,341.0566,695.3279,341.437,695.5392,341.7678,695.6307,341.8414,695.6612,342.0946,696.0589,342.2673,696.4234,342.4163,696.778,342.432,697.0774,342.5,697.3984,342.6545,697.3984,342.7341,706.2422,342.2596,715.0859,342.7262,723.9297,342.4012,732.7734,342.5,741.6172,342.6644,741.6853,342.2011,741.9076,342.186,742.3156,342.289,742.7724,341.8992,743.0252,341.7678,743.385,341.7812,743.4174,341.4574,743.6357,341.1138,743.806,340.7066,743.8231,340.3902,744.0592,340,744.1172,340,743.5448,330.0769,744.4016,320.1538,744.6654,310.2308,744.5617,300.3077,744.7302,290.3846,743.6341,280.4615,743.465,270.5385,743.4958,260.6154,744.0583,250.6923,743.9207,240.7692,744.7986,230.8462,743.9425,220.9231,743.7741,211,744.1172,211.0291,744.1875,210.5614,743.7654,210.2267,743.6644,210.0221,743.8777,209.6414,743.6656,209.2322,743.385,209.4584,743.4786,208.9867,742.9904,209.0376,742.7186,208.9747,742.3996,208.501,741.9105,208.5,741.6172,208.468,741.6172,208.542,732.7734,208.7173,723.9297,208.4986,715.0859,208.6542,706.2422,208.5,697.3984,208.3295,697.3278,208.4379,696.9585,208.948,696.7556,208.7186,696.2463,209.2425,696.0491,209.2322,695.6307,209.2586,695.6943,209.5516,695.4017,209.8942,695.2288,210.3514,695.3326,210.6083,694.9527,211,694.8984" style="stroke:#181818;stroke-width:0.5;"/><text fill="#000000" font-family="FG Virgil" font-size="14" font-style="italic" lengthAdjust="spacing" textLength="84" x="233.5" y="716.4316">«application»</text><text fill="#000000" font-family="FG Virgil" font-size="14" lengthAdjust="spacing" textLength="120" x="215.5" y="734.041">ListUsersController</text><polygon fill="#E3E3E3" points="597.5,36,597.5,36.2102,607.3571,35.5857,617.2143,36.1933,627.0714,36.3997,636.9286,35.2866,646.7857,35.9223,656.6429,35.5735,666.5,35.6165,676.3571,35.9318,686.2143,35.3086,696.0714,36.5536,705.9286,35.3697,715.7857,35.8022,725.6429,36.4319,735.5,36,735.4891,35.9736,735.8623,36.1675,736.203,36.2831,736.5834,36.4943,736.9447,36.6594,737.2678,36.7322,737.4481,36.8069,737.6209,37.1714,737.7698,37.526,737.7855,37.8254,737.9963,38.2056,738,38.5,738.2341,38.5,737.7596,47.3438,738.2262,56.1875,737.9012,65.0313,738.1779,73.875,738,82.7188,737.8476,82.6556,737.8325,83.0636,737.9355,83.5205,737.5457,83.7732,737.4466,84.1464,737.2678,84.4865,737.311,84.5908,736.9673,84.7611,736.5602,84.7782,736.2437,85.0143,735.7805,84.896,735.5,85.2188,735.5,85.5031,725.6429,85.7669,715.7857,85.6633,705.9286,85.8318,696.0714,84.7357,686.2143,84.5666,676.3571,84.5973,666.5,85.1599,656.6429,85.0222,646.7857,85.9002,636.9286,85.0441,627.0714,84.8757,617.2143,85.447,607.3571,84.5519,597.5,85.2188,597.4338,85.0589,597.2292,85.2722,596.8485,85.06,596.533,85.0056,596.0447,84.5339,595.7322,84.4865,595.8305,84.5272,595.7676,84.2083,595.2939,83.7191,595.2634,83.4136,595.1852,83.0884,595,82.7188,595.2173,82.7188,594.9986,73.875,595.1542,65.0313,594.8154,56.1875,594.7742,47.3438,595,38.5,595.1551,38.5642,594.9257,38.055,595.4496,37.8578,595.503,37.4657,595.5033,37.0516,595.7322,36.7322,595.6871,36.6233,596.1443,36.7271,596.4012,36.3472,596.8684,36.4752,597.0759,35.9762,597.5,36" style="stroke:#181818;stroke-width:0.5;"/><text fill="#000000" font-family="FG Virgil" font-size="14" font-style="italic" lengthAdjust="spacing" textLength="60" x="636.5" y="57.5332">«service»</text><text fill="#000000" font-family="FG Virgil" font-size="14" lengthAdjust="spacing" textLength="129" x="602" y="75.1426">AuthorizationService</text><polygon fill="#E3E3E3" points="597.5,694.8984,597.5,695.1086,607.3571,694.4841,617.2143,695.0917,627.0714,695.2981,636.9286,694.185,646.7857,694.8207,656.6429,694.4719,666.5,694.5149,676.3571,694.8303,686.2143,694.2071,696.0714,695.4521,705.9286,694.2682,715.7857,694.7007,725.6429,695.3304,735.5,694.8984,735.4891,694.872,735.8623,695.0659,736.203,695.1815,736.5834,695.3928,736.9447,695.5579,737.2678,695.6307,737.4481,695.7054,737.6209,696.0698,737.7698,696.4244,737.7855,696.7238,737.9963,697.104,738,697.3984,738.2341,697.3984,737.7596,706.2422,738.2262,715.0859,737.9012,723.9297,738.1779,732.7734,738,741.6172,737.8476,741.554,737.8325,741.962,737.9355,742.4189,737.5457,742.6716,737.4466,743.0448,737.2678,743.385,737.311,743.4892,736.9673,743.6596,736.5602,743.6766,736.2437,743.9127,735.7805,743.7945,735.5,744.1172,735.5,744.4016,725.6429,744.6654,715.7857,744.5617,705.9286,744.7302,696.0714,743.6341,686.2143,743.465,676.3571,743.4958,666.5,744.0583,656.6429,743.9207,646.7857,744.7986,636.9286,743.9425,627.0714,743.7741,617.2143,744.3455,607.3571,743.4503,597.5,744.1172,597.4338,743.9573,597.2292,744.1706,596.8485,743.9585,596.533,743.904,596.0447,743.4323,595.7322,743.385,595.8305,743.4257,595.7676,743.1067,595.2939,742.6176,595.2634,742.3121,595.1852,741.9868,595,741.6172,595.2173,741.6172,594.9986,732.7734,595.1542,723.9297,594.8154,715.0859,594.7742,706.2422,595,697.3984,595.1551,697.4627,594.9257,696.9534,595.4496,696.7563,595.503,696.3641,595.5033,695.95,595.7322,695.6307,595.6871,695.5217,596.1443,695.6255,596.4012,695.2456,596.8684,695.3736,597.0759,694.8747,597.5,694.8984" style="stroke:#181818;stroke-width:0.5;"/><text fill="#000000" font-family="FG Virgil" font-size="14" font-style="italic" lengthAdjust="spacing" textLength="60" x="636.5" y="716.4316">«service»</text><text fill="#000000" font-family="FG Virgil" font-size="14" lengthAdjust="spacing" textLength="129" x="602" y="734.041">AuthorizationService</text><polygon fill="#E3E3E3" points="750.5,36,750.5,36.2102,760.3235,35.5857,770.1471,36.1933,779.9706,36.3997,789.7941,35.2866,799.6176,35.9223,809.4412,35.5735,819.2647,35.6165,829.0882,35.9318,838.9118,35.3086,848.7353,36.5536,858.5588,35.3697,868.3824,35.8022,878.2059,36.4319,888.0294,35.9142,897.8529,36.0682,907.6765,35.9681,917.5,36,917.5228,36.055,917.8841,36.2201,918.2818,36.4733,918.6463,36.646,919.0009,36.795,919.2678,36.7322,919.3462,36.7647,919.557,37.1449,919.7769,37.5289,919.485,37.7009,920.0625,38.233,920,38.5,919.9012,38.5,920.1779,47.3438,919.835,56.1875,919.9772,65.0313,920.2472,73.875,920,82.7188,919.985,82.7125,919.886,83.0857,919.8114,83.4691,919.6888,83.8325,919.413,84.1325,919.2678,84.4865,919.3044,84.575,918.8412,84.4567,918.5969,84.867,918.277,85.0947,917.9103,85.2092,917.5,85.2188,917.5,85.8318,907.6765,84.7357,897.8529,84.5666,888.0294,84.5973,878.2059,85.1599,868.3824,85.0222,858.5588,85.9002,848.7353,85.0441,838.9118,84.8757,829.0882,85.447,819.2647,84.5519,809.4412,84.6996,799.6176,85.8677,789.7941,85.6544,779.9706,85.9532,770.1471,84.897,760.3235,85.5379,750.5,85.2188,750.5753,85.4006,750.0862,84.9268,749.7807,84.8963,749.4554,84.8182,749.1689,84.8337,748.7322,84.4865,748.7309,84.486,748.7282,84.192,748.2688,83.7088,748.0843,83.3395,748.3015,83.1365,748,82.7188,747.761,82.7188,748.1697,73.875,748.0689,65.0313,747.9107,56.1875,747.8821,47.3438,748,38.5,748.1413,38.5585,748.0543,38.1083,748.4752,37.8684,748.2691,37.3688,748.7759,37.1645,748.7322,36.7322,748.794,36.8814,749.117,36.6612,749.4454,36.4539,749.8856,36.5167,750.2247,36.3354,750.5,36" style="stroke:#181818;stroke-width:0.5;"/><text fill="#000000" font-family="FG Virgil" font-size="14" font-style="italic" lengthAdjust="spacing" textLength="60" x="804" y="57.5332">«service»</text><text fill="#000000" font-family="FG Virgil" font-size="14" lengthAdjust="spacing" textLength="158" x="755" y="75.1426">UserManagementService</text><polygon fill="#E3E3E3" points="750.5,694.8984,750.5,695.1086,760.3235,694.4841,770.1471,695.0917,779.9706,695.2981,789.7941,694.185,799.6176,694.8207,809.4412,694.4719,819.2647,694.5149,829.0882,694.8303,838.9118,694.2071,848.7353,695.4521,858.5588,694.2682,868.3824,694.7007,878.2059,695.3304,888.0294,694.8127,897.8529,694.9667,907.6765,694.8665,917.5,694.8984,917.5228,694.9534,917.8841,695.1185,918.2818,695.3717,918.6463,695.5444,919.0009,695.6934,919.2678,695.6307,919.3462,695.6632,919.557,696.0434,919.7769,696.4274,919.485,696.5993,920.0625,697.1314,920,697.3984,919.9012,697.3984,920.1779,706.2422,919.835,715.0859,919.9772,723.9297,920.2472,732.7734,920,741.6172,919.985,741.611,919.886,741.9842,919.8114,742.3675,919.6888,742.7309,919.413,743.0309,919.2678,743.385,919.3044,743.4734,918.8412,743.3551,918.5969,743.7654,918.277,743.9931,917.9103,744.1076,917.5,744.1172,917.5,744.7302,907.6765,743.6341,897.8529,743.465,888.0294,743.4958,878.2059,744.0583,868.3824,743.9207,858.5588,744.7986,848.7353,743.9425,838.9118,743.7741,829.0882,744.3455,819.2647,743.4503,809.4412,743.5981,799.6176,744.7661,789.7941,744.5529,779.9706,744.8517,770.1471,743.7954,760.3235,744.4364,750.5,744.1172,750.5753,744.299,750.0862,743.8253,749.7807,743.7948,749.4554,743.7166,749.1689,743.7321,748.7322,743.385,748.7309,743.3844,748.7282,743.0904,748.2688,742.6072,748.0843,742.2379,748.3015,742.035,748,741.6172,747.761,741.6172,748.1697,732.7734,748.0689,723.9297,747.9107,715.0859,747.8821,706.2422,748,697.3984,748.1413,697.457,748.0543,697.0067,748.4752,696.7668,748.2691,696.2673,748.7759,696.063,748.7322,695.6307,748.794,695.7798,749.117,695.5597,749.4454,695.3523,749.8856,695.4151,750.2247,695.2338,750.5,694.8984" style="stroke:#181818;stroke-width:0.5;"/><text fill="#000000" font-family="FG Virgil" font-size="14" font-style="italic" lengthAdjust="spacing" textLength="60" x="804" y="716.4316">«service»</text><text fill="#000000" font-family="FG Virgil" font-size="14" lengthAdjust="spacing" textLength="158" x="755" y="734.041">UserManagementService</text><polygon fill="#E3E3E3" points="932.5,36,932.5,36.2102,942.5769,35.5857,952.6538,36.1933,962.7308,36.3997,972.8077,35.2866,982.8846,35.9223,992.9615,35.5735,1003.0385,35.6165,1013.1154,35.9318,1023.1923,35.3086,1033.2692,36.5536,1043.3462,35.3697,1053.4231,35.8022,1063.5,36,1063.5551,36.133,1063.8426,36.12,1064.2158,36.3139,1064.5566,36.4295,1064.937,36.6408,1065.2678,36.7322,1065.3414,36.7627,1065.5946,37.1605,1065.7673,37.5249,1065.9163,37.8795,1065.932,38.1789,1066,38.5,1066.1545,38.5,1066.2341,47.3438,1065.7596,56.1875,1066.2262,65.0313,1065.9012,73.875,1066,82.7188,1066.1644,82.7868,1065.7011,83.0092,1065.686,83.4171,1065.789,83.874,1065.3992,84.1267,1065.2678,84.4865,1065.2812,84.5189,1064.9574,84.7372,1064.6138,84.9076,1064.2066,84.9247,1063.8902,85.1608,1063.5,85.2188,1063.5,84.6463,1053.4231,85.5031,1043.3462,85.7669,1033.2692,85.6633,1023.1923,85.8318,1013.1154,84.7357,1003.0385,84.5666,992.9615,84.5973,982.8846,85.1599,972.8077,85.0222,962.7308,85.9002,952.6538,85.0441,942.5769,84.8757,932.5,85.2188,932.5291,85.289,932.0614,84.8669,931.7267,84.766,931.5221,84.9793,931.1414,84.7671,930.7322,84.4865,930.9584,84.5802,930.4867,84.0919,930.5376,83.8201,930.4747,83.5012,930.001,83.012,930,82.7188,929.968,82.7188,930.042,73.875,930.2173,65.0313,929.9986,56.1875,930.1542,47.3438,930,38.5,929.8295,38.4294,929.9379,38.0601,930.448,37.8571,930.2186,37.3479,930.7425,37.1507,930.7322,36.7322,930.7586,36.7959,931.0516,36.5033,931.3942,36.3304,931.8514,36.4342,932.1083,36.0543,932.5,36" style="stroke:#181818;stroke-width:0.5;"/><text fill="#000000" font-family="FG Virgil" font-size="14" font-style="italic" lengthAdjust="spacing" textLength="89" x="953.5" y="57.5332">«persistence»</text><text fill="#000000" font-family="FG Virgil" font-size="14" lengthAdjust="spacing" textLength="122" x="937" y="75.1426">PersistenceContext</text><polygon fill="#E3E3E3" points="932.5,694.8984,932.5,695.1086,942.5769,694.4841,952.6538,695.0917,962.7308,695.2981,972.8077,694.185,982.8846,694.8207,992.9615,694.4719,1003.0385,694.5149,1013.1154,694.8303,1023.1923,694.2071,1033.2692,695.4521,1043.3462,694.2682,1053.4231,694.7007,1063.5,694.8984,1063.5551,695.0315,1063.8426,695.0185,1064.2158,695.2123,1064.5566,695.3279,1064.937,695.5392,1065.2678,695.6307,1065.3414,695.6612,1065.5946,696.0589,1065.7673,696.4234,1065.9163,696.778,1065.932,697.0774,1066,697.3984,1066.1545,697.3984,1066.2341,706.2422,1065.7596,715.0859,1066.2262,723.9297,1065.9012,732.7734,1066,741.6172,1066.1644,741.6853,1065.7011,741.9076,1065.686,742.3156,1065.789,742.7724,1065.3992,743.0252,1065.2678,743.385,1065.2812,743.4174,1064.9574,743.6357,1064.6138,743.806,1064.2066,743.8231,1063.8902,744.0592,1063.5,744.1172,1063.5,743.5448,1053.4231,744.4016,1043.3462,744.6654,1033.2692,744.5617,1023.1923,744.7302,1013.1154,743.6341,1003.0385,743.465,992.9615,743.4958,982.8846,744.0583,972.8077,743.9207,962.7308,744.7986,952.6538,743.9425,942.5769,743.7741,932.5,744.1172,932.5291,744.1875,932.0614,743.7654,931.7267,743.6644,931.5221,743.8777,931.1414,743.6656,930.7322,743.385,930.9584,743.4786,930.4867,742.9904,930.5376,742.7186,930.4747,742.3996,930.001,741.9105,930,741.6172,929.968,741.6172,930.042,732.7734,930.2173,723.9297,929.9986,715.0859,930.1542,706.2422,930,697.3984,929.8295,697.3278,929.9379,696.9585,930.448,696.7556,930.2186,696.2463,930.7425,696.0491,930.7322,695.6307,930.7586,695.6943,931.0516,695.4017,931.3942,695.2288,931.8514,695.3326,932.1083,694.9527,932.5,694.8984" style="stroke:#181818;stroke-width:0.5;"/><text fill="#000000" font-family="FG Virgil" font-size="14" font-style="italic" lengthAdjust="spacing" textLength="89" x="953.5" y="716.4316">«persistence»</text><text fill="#000000" font-family="FG Virgil" font-size="14" lengthAdjust="spacing" textLength="122" x="937" y="734.041">PersistenceContext</text><polygon fill="#E3E3E3" points="1078.5,36,1078.5,36.2102,1088.1154,35.5857,1097.7308,36.1933,1107.3462,36.3997,1116.9615,35.2866,1126.5769,35.9223,1136.1923,35.5735,1145.8077,35.6165,1155.4231,35.9318,1165.0385,35.3086,1174.6538,36.5536,1184.2692,35.3697,1193.8846,35.8022,1203.5,36,1203.5551,36.133,1203.8426,36.12,1204.2158,36.3139,1204.5566,36.4295,1204.937,36.6408,1205.2678,36.7322,1205.3414,36.7627,1205.5946,37.1605,1205.7673,37.5249,1205.9163,37.8795,1205.932,38.1789,1206,38.5,1206.1545,38.5,1206.2341,47.3438,1205.7596,56.1875,1206.2262,65.0313,1205.9012,73.875,1206,82.7188,1206.1644,82.7868,1205.7011,83.0092,1205.686,83.4171,1205.789,83.874,1205.3992,84.1267,1205.2678,84.4865,1205.2812,84.5189,1204.9574,84.7372,1204.6138,84.9076,1204.2066,84.9247,1203.8902,85.1608,1203.5,85.2188,1203.5,84.6463,1193.8846,85.5031,1184.2692,85.7669,1174.6538,85.6633,1165.0385,85.8318,1155.4231,84.7357,1145.8077,84.5666,1136.1923,84.5973,1126.5769,85.1599,1116.9615,85.0222,1107.3462,85.9002,1097.7308,85.0441,1088.1154,84.8757,1078.5,85.2188,1078.5291,85.289,1078.0614,84.8669,1077.7267,84.766,1077.5221,84.9793,1077.1414,84.7671,1076.7322,84.4865,1076.9584,84.5802,1076.4867,84.0919,1076.5376,83.8201,1076.4747,83.5012,1076.001,83.012,1076,82.7188,1075.968,82.7188,1076.042,73.875,1076.2173,65.0313,1075.9986,56.1875,1076.1542,47.3438,1076,38.5,1075.8295,38.4294,1075.9379,38.0601,1076.448,37.8571,1076.2186,37.3479,1076.7425,37.1507,1076.7322,36.7322,1076.7586,36.7959,1077.0516,36.5033,1077.3942,36.3304,1077.8514,36.4342,1078.1083,36.0543,1078.5,36" style="stroke:#181818;stroke-width:0.5;"/><text fill="#000000" font-family="FG Virgil" font-size="14" font-style="italic" lengthAdjust="spacing" textLength="59" x="1111.5" y="57.5332">«factory»</text><text fill="#000000" font-family="FG Virgil" font-size="14" lengthAdjust="spacing" textLength="116" x="1083" y="75.1426">RepositoryFactory</text><polygon fill="#E3E3E3" points="1078.5,694.8984,1078.5,695.1086,1088.1154,694.4841,1097.7308,695.0917,1107.3462,695.2981,1116.9615,694.185,1126.5769,694.8207,1136.1923,694.4719,1145.8077,694.5149,1155.4231,694.8303,1165.0385,694.2071,1174.6538,695.4521,1184.2692,694.2682,1193.8846,694.7007,1203.5,694.8984,1203.5551,695.0315,1203.8426,695.0185,1204.2158,695.2123,1204.5566,695.3279,1204.937,695.5392,1205.2678,695.6307,1205.3414,695.6612,1205.5946,696.0589,1205.7673,696.4234,1205.9163,696.778,1205.932,697.0774,1206,697.3984,1206.1545,697.3984,1206.2341,706.2422,1205.7596,715.0859,1206.2262,723.9297,1205.9012,732.7734,1206,741.6172,1206.1644,741.6853,1205.7011,741.9076,1205.686,742.3156,1205.789,742.7724,1205.3992,743.0252,1205.2678,743.385,1205.2812,743.4174,1204.9574,743.6357,1204.6138,743.806,1204.2066,743.8231,1203.8902,744.0592,1203.5,744.1172,1203.5,743.5448,1193.8846,744.4016,1184.2692,744.6654,1174.6538,744.5617,1165.0385,744.7302,1155.4231,743.6341,1145.8077,743.465,1136.1923,743.4958,1126.5769,744.0583,1116.9615,743.9207,1107.3462,744.7986,1097.7308,743.9425,1088.1154,743.7741,1078.5,744.1172,1078.5291,744.1875,1078.0614,743.7654,1077.7267,743.6644,1077.5221,743.8777,1077.1414,743.6656,1076.7322,743.385,1076.9584,743.4786,1076.4867,742.9904,1076.5376,742.7186,1076.4747,742.3996,1076.001,741.9105,1076,741.6172,1075.968,741.6172,1076.042,732.7734,1076.2173,723.9297,1075.9986,715.0859,1076.1542,706.2422,1076,697.3984,1075.8295,697.3278,1075.9379,696.9585,1076.448,696.7556,1076.2186,696.2463,1076.7425,696.0491,1076.7322,695.6307,1076.7586,695.6943,1077.0516,695.4017,1077.3942,695.2288,1077.8514,695.3326,1078.1083,694.9527,1078.5,694.8984" style="stroke:#181818;stroke-width:0.5;"/><text fill="#000000" font-family="FG Virgil" font-size="14" font-style="italic" lengthAdjust="spacing" textLength="59" x="1111.5" y="716.4316">«factory»</text><text fill="#000000" font-family="FG Virgil" font-size="14" lengthAdjust="spacing" textLength="116" x="1083" y="734.041">RepositoryFactory</text><text fill="#000000" font-family="FG Virgil" font-size="14" font-style="italic" lengthAdjust="spacing" textLength="79" x="1225" y="65.5332">«repository»</text><text fill="#000000" font-family="FG Virgil" font-size="14" lengthAdjust="spacing" textLength="97" x="1216" y="83.1426">UserRepository</text><path d="M1249.5,15 L1249.5,15 L1249.5651,15.067 L1251.1716,13.118 L1253.1599,11.5616 L1255.0238,9.8774 L1256.479,7.7727 L1258.5,6.25 L1258.4952,6.2158 L1260.2739,5.8122 L1262.0766,5.5812 L1263.8958,5.47 L1265.6577,4.9456 L1267.5,5 L1267.5,5 L1267.5339,5.2437 L1269.2615,4.9725 L1271.0879,5.4129 L1272.9264,5.9402 L1274.6948,5.9622 L1276.5,6.25 L1276.5211,6.2717 L1278.2901,7.9898 L1280.1553,9.8069 L1281.9741,11.5762 L1283.8815,13.4366 L1285.5,15 L1286.0965,15 L1286.1038,20.2 L1285.7263,25.4 L1285.9121,30.6 L1286.1242,35.8 L1285.5,41 L1285.5,41 L1285.2766,40.7702 L1283.9102,42.9662 L1281.8081,44.4055 L1280.2654,46.4201 L1278.1466,47.8423 L1276.5,49.75 L1276.4958,49.7198 L1274.7453,50.3265 L1272.897,50.2285 L1271.1064,50.5464 L1269.3207,50.8991 L1267.5,51 L1267.5,51 L1267.5254,51.1832 L1265.6998,50.7483 L1263.9176,50.6264 L1262.065,49.998 L1260.3174,50.1252 L1258.5,49.75 L1258.6698,49.9247 L1256.8377,48.1417 L1255.0899,46.4453 L1252.9503,44.3461 L1251.0979,42.5422 L1249.5,41 L1248.9476,41 L1249.4477,35.8 L1249.3253,30.6 L1250.1057,25.4 L1249.3447,20.2 L1249.5,15 " fill="#E3E3E3" style="stroke:#181818;stroke-width:1.5;"/><path d="M1249.5,15 L1249.5,15 L1249.5651,15.067 L1251.1716,16.618 L1253.1599,18.5616 L1255.0238,20.3774 L1256.479,21.7727 L1258.5,23.75 L1258.4952,23.7158 L1260.2739,23.8122 L1262.0766,24.0812 L1263.8958,24.47 L1265.6577,24.4456 L1267.5,25 L1267.5,25 L1267.5339,25.2437 L1269.2615,24.4725 L1271.0879,24.4129 L1272.9264,24.4402 L1274.6948,23.9622 L1276.5,23.75 L1276.5211,23.7717 L1278.2901,21.9898 L1280.1553,20.3069 L1281.9741,18.5762 L1283.8815,16.9366 L1285.5,15 " fill="none" style="stroke:#181818;stroke-width:1.5;"/><text fill="#000000" font-family="FG Virgil" font-size="14" font-style="italic" lengthAdjust="spacing" textLength="79" x="1225" y="709.4316">«repository»</text><text fill="#000000" font-family="FG Virgil" font-size="14" lengthAdjust="spacing" textLength="97" x="1216" y="727.041">UserRepository</text><path d="M1249.5,740.1172 L1249.5,740.1172 L1249.5651,740.1842 L1251.1716,738.2352 L1253.1599,736.6788 L1255.0238,734.9946 L1256.479,732.8899 L1258.5,731.3672 L1258.4952,731.333 L1260.2739,730.9294 L1262.0766,730.6984 L1263.8958,730.5872 L1265.6577,730.0628 L1267.5,730.1172 L1267.5,730.1172 L1267.5339,730.3609 L1269.2615,730.0897 L1271.0879,730.5301 L1272.9264,731.0573 L1274.6948,731.0794 L1276.5,731.3672 L1276.5211,731.3889 L1278.2901,733.107 L1280.1553,734.9241 L1281.9741,736.6934 L1283.8815,738.5538 L1285.5,740.1172 L1286.0965,740.1172 L1286.1038,745.3172 L1285.7263,750.5172 L1285.9121,755.7172 L1286.1242,760.9172 L1285.5,766.1172 L1285.5,766.1172 L1285.2766,765.8874 L1283.9102,768.0834 L1281.8081,769.5227 L1280.2654,771.5373 L1278.1466,772.9594 L1276.5,774.8672 L1276.4958,774.837 L1274.7453,775.4437 L1272.897,775.3457 L1271.1064,775.6635 L1269.3207,776.0163 L1267.5,776.1172 L1267.5,776.1172 L1267.5254,776.3004 L1265.6998,775.8655 L1263.9176,775.7436 L1262.065,775.1152 L1260.3174,775.2424 L1258.5,774.8672 L1258.6698,775.0419 L1256.8377,773.2588 L1255.0899,771.5625 L1252.9503,769.4632 L1251.0979,767.6594 L1249.5,766.1172 L1248.9476,766.1172 L1249.4477,760.9172 L1249.3253,755.7172 L1250.1057,750.5172 L1249.3447,745.3172 L1249.5,740.1172 " fill="#E3E3E3" style="stroke:#181818;stroke-width:1.5;"/><path d="M1249.5,740.1172 L1249.5,740.1172 L1249.5651,740.1842 L1251.1716,741.7352 L1253.1599,743.6788 L1255.0238,745.4946 L1256.479,746.8899 L1258.5,748.8672 L1258.4952,748.833 L1260.2739,748.9294 L1262.0766,749.1984 L1263.8958,749.5872 L1265.6577,749.5628 L1267.5,750.1172 L1267.5,750.1172 L1267.5339,750.3609 L1269.2615,749.5897 L1271.0879,749.5301 L1272.9264,749.5573 L1274.6948,749.0794 L1276.5,748.8672 L1276.5211,748.8889 L1278.2901,747.107 L1280.1553,745.4241 L1281.9741,743.6934 L1283.8815,742.0538 L1285.5,740.1172 " fill="none" style="stroke:#181818;stroke-width:1.5;"/><polygon fill="#FFFFFF" points="139,118.5703,139,118.6404,141,118.4322,143,118.6347,145,118.7035,147,118.3325,149,118.5703,148.9223,118.5703,148.5735,128.5583,148.6165,138.5463,148.9318,148.5343,148.3086,158.5223,149.5536,168.5103,148.3697,178.4983,148.8022,188.4863,149.4319,198.4743,148.9142,208.4623,149.0682,218.4503,148.9681,228.4383,149.1785,238.4263,149.2391,248.4143,149.5857,258.4023,149.6711,268.3903,149.6793,278.3783,149.2546,288.3664,149.4636,298.3544,149.7022,308.3424,148.2788,318.3304,149.6785,328.3184,148.7035,338.3064,149.5338,348.2944,148.505,358.2824,148.9315,368.2704,149.7416,378.2584,148.9513,388.2464,149.1053,398.2344,149.3386,408.2224,149.4162,418.2104,148.9961,428.1984,149.2872,438.1864,148.4276,448.1744,149.2844,458.1624,149.5482,468.1504,149.4445,478.1384,149.613,488.1264,148.5169,498.1144,148.3478,508.1024,148.3786,518.0904,148.9411,528.0784,148.8035,538.0664,149.6814,548.0544,148.8253,558.0424,148.6569,568.0304,149.2283,578.0184,148.3332,588.0064,148.4809,597.9944,149.649,607.9824,149.4357,617.9704,149.7345,627.9584,148.6782,637.9464,149.3192,647.9344,149.5904,657.9224,148.5276,667.9104,149,677.8984,149,677.8665,147,677.9404,145,678.1157,143,677.897,141,678.0526,139,677.8984,138.4462,677.8984,138.3227,667.9104,139.5036,657.9224,138.2831,647.9344,139.509,637.9464,139.2066,627.9584,138.7321,617.9704,138.6462,607.9824,139.4588,597.9944,138.7007,588.0064,139.5919,578.0184,138.4473,568.0304,139.6174,558.0424,139.4843,548.0544,139.245,538.0664,139.0472,528.0784,139.7266,518.0904,139.6136,508.1024,139.1693,498.1144,139.2682,488.1264,138.8697,478.1384,139.7165,468.1504,139.1549,458.1624,139.1726,448.1744,138.3916,438.1864,138.5948,428.1984,139.5307,418.2104,139.4298,408.2224,138.9571,398.2344,138.6778,388.2464,138.7811,378.2584,138.3138,368.2704,139.4147,358.2824,139.7396,348.2944,139.5264,338.3064,139.6949,328.3184,138.8633,318.3304,139.0872,308.3424,138.6124,298.3544,139.284,288.3664,139.2468,278.3783,139.5524,268.3903,138.7703,258.4023,138.8656,248.4143,139.4435,238.4263,139.5673,228.4383,138.4875,218.4503,138.8061,208.4623,139.1493,198.4743,138.3892,188.4863,139.3534,178.4983,139.258,168.5103,138.8992,158.5223,139.1422,148.5343,139.7287,138.5463,138.6871,128.5583,139,118.5703" style="stroke:#181818;stroke-width:1.0;"/><polygon fill="#FFFFFF" points="270.5,179.2734,270.5,179.3435,272.5,179.1353,274.5,179.3379,276.5,179.4067,278.5,179.0356,280.5,179.2734,280.4223,179.2734,280.0735,189.3906,280.1165,199.5078,280.4318,209.625,279.8086,219.7422,281.0536,229.8594,279.8697,239.9766,280.3022,250.0938,280.9319,260.2109,280.4142,270.3281,280.5682,280.4453,280.4681,290.5625,280.6785,300.6797,280.7391,310.7969,281.0857,320.9141,281.1711,331.0313,281.1793,341.1484,280.7546,351.2656,280.9636,361.3828,281.2022,371.5,279.7788,381.6172,281.1785,391.7344,280.2035,401.8516,281.0338,411.9688,280.005,422.0859,280.4315,432.2031,281.2416,442.3203,280.4513,452.4375,280.6053,462.5547,280.8386,472.6719,280.9162,482.7891,280.4961,492.9063,280.7872,503.0234,279.9276,513.1406,280.7844,523.2578,281.0482,533.375,280.9445,543.4922,281.113,553.6094,280.0169,563.7266,279.8478,573.8438,279.8786,583.9609,280.4411,594.0781,280.5,604.1953,280.5,604.1298,278.5,604.4224,276.5,604.1371,274.5,604.081,272.5,604.2714,270.5,604.1953,269.8332,604.1953,269.9809,594.0781,271.149,583.9609,270.9357,573.8438,271.2345,563.7266,270.1782,553.6094,270.8192,543.4922,271.0904,533.375,270.0276,523.2578,270.4041,513.1406,270.626,503.0234,271.1518,492.9063,270.4958,482.7891,270.9626,472.6719,269.9462,462.5547,269.8227,452.4375,271.0036,442.3203,269.7831,432.2031,271.009,422.0859,270.7066,411.9688,270.2321,401.8516,270.1462,391.7344,270.9588,381.6172,270.2007,371.5,271.0919,361.3828,269.9473,351.2656,271.1174,341.1484,270.9843,331.0313,270.745,320.9141,270.5472,310.7969,271.2266,300.6797,271.1136,290.5625,270.6693,280.4453,270.7682,270.3281,270.3697,260.2109,271.2165,250.0938,270.6549,239.9766,270.6726,229.8594,269.8916,219.7422,270.0948,209.625,271.0307,199.5078,270.9298,189.3906,270.5,179.2734" style="stroke:#181818;stroke-width:1.0;"/><polygon fill="#FFFFFF" points="661.5,209.625,661.5,209.6951,663.5,209.4869,665.5,209.6894,667.5,209.7582,669.5,209.3872,671.5,209.625,671.4741,209.625,671.3578,215.6953,671.3722,221.7656,671.4773,227.8359,671.2695,233.9063,671.5,239.9766,671.5,240.1611,669.5,239.7665,667.5,239.9106,665.5,240.1205,663.5,239.948,661.5,239.9766,661.5227,239.9766,661.4894,233.9063,661.5595,227.8359,661.5797,221.7656,661.6952,215.6953,661.5,209.625" style="stroke:#181818;stroke-width:1.0;"/><polygon fill="#FFFFFF" points="829,270.3281,829,270.3982,831,270.19,833,270.3926,835,270.4614,837,270.0903,839,270.3281,838.9223,270.3281,838.5735,280.4453,838.6165,290.5625,838.9318,300.6797,838.3086,310.7969,839.5536,320.9141,838.3697,331.0313,838.8022,341.1484,839.4319,351.2656,838.9142,361.3828,839.0682,371.5,838.9681,381.6172,839.1785,391.7344,839.2391,401.8516,839.5857,411.9688,839.6711,422.0859,839.6793,432.2031,839.2546,442.3203,839.4636,452.4375,839.7022,462.5547,838.2788,472.6719,839.6785,482.7891,838.7035,492.9063,839.5338,503.0234,838.505,513.1406,838.9315,523.2578,839.7416,533.375,838.9513,543.4922,839.1053,553.6094,839.3386,563.7266,839,573.8438,839,573.9825,837,573.8424,835,573.9395,833,573.6529,831,573.9385,829,573.8438,829.5482,573.8438,829.4445,563.7266,829.613,553.6094,828.5169,543.4922,828.3478,533.375,828.3786,523.2578,828.9411,513.1406,828.8035,503.0234,829.6814,492.9063,828.8253,482.7891,828.6569,472.6719,829.2283,462.5547,828.3332,452.4375,828.4809,442.3203,829.649,432.2031,829.4357,422.0859,829.7345,411.9688,828.6782,401.8516,829.3192,391.7344,829.5904,381.6172,828.5276,371.5,828.9041,361.3828,829.126,351.2656,829.6518,341.1484,828.9958,331.0313,829.4626,320.9141,828.4462,310.7969,828.3227,300.6797,829.5036,290.5625,828.2831,280.4453,829,270.3281" style="stroke:#181818;stroke-width:1.0;"/><polygon fill="#FFFFFF" points="993,331.0313,993,331.1013,995,330.8931,997,331.0957,999,331.1645,1001,330.7935,1003,331.0313,1002.9223,331.0313,1002.5735,341.1484,1002.6165,351.2656,1002.9318,361.3828,1002.3086,371.5,1003.5536,381.6172,1003,391.7344,1003,391.5243,1001,391.6685,999,391.8784,997,391.7058,995,391.7571,993,391.7344,992.9681,391.7344,993.1785,381.6172,993.2391,371.5,993.5857,361.3828,993.6711,351.2656,993.6793,341.1484,993,331.0313" style="stroke:#181818;stroke-width:1.0;"/><polygon fill="#FFFFFF" points="1136,422.0859,1136,422.156,1138,421.9478,1140,422.1504,1142,422.2192,1144,421.8481,1146,422.0859,1145.9223,422.0859,1145.5735,432.2031,1145.6165,442.3203,1145.9318,452.4375,1145.3086,462.5547,1146.5536,472.6719,1146,482.7891,1146,482.579,1144,482.7231,1142,482.933,1140,482.7605,1138,482.8118,1136,482.7891,1135.9681,482.7891,1136.1785,472.6719,1136.2391,462.5547,1136.5857,452.4375,1136.6711,442.3203,1136.6793,432.2031,1136,422.0859" style="stroke:#181818;stroke-width:1.0;"/><polygon fill="#FFFFFF" points="1262.5,513.1406,1262.5,513.2107,1264.5,513.0025,1266.5,513.2051,1268.5,513.2739,1270.5,512.9028,1272.5,513.1406,1272.4741,513.1406,1272.3578,519.2109,1272.3722,525.2813,1272.4773,531.3516,1272.2695,537.4219,1272.5,543.4922,1272.5,543.6767,1270.5,543.2821,1268.5,543.4263,1266.5,543.6362,1264.5,543.4636,1262.5,543.4922,1262.5227,543.4922,1262.4894,537.4219,1262.5595,531.3516,1262.5797,525.2813,1262.6952,519.2109,1262.5,513.1406" style="stroke:#181818;stroke-width:1.0;"/><polygon fill="#181818" points="127,114.5703,127.026,114.6354,128.9487,115.2421,131.0239,116.2301,133.0495,117.094,134.9117,117.5495,137,118.5703,136.9904,118.5463,134.9472,119.2383,132.9525,120.0516,130.9916,120.9492,128.9144,121.5563,127,122.5703,127.1305,122.7008,127.6514,121.6218,128.5534,120.9237,129.5018,120.2721,130.1798,119.3501,131,118.5703,131.0161,118.5864,130.1925,117.7628,129.4421,117.0124,128.6564,116.2267,127.938,115.5084,127,114.5703" style="stroke:#181818;stroke-width:1.0;"/><path d="M36,118.5703 L36,118.8506 L45.7,118.0179 L55.4,118.828 L65.1,119.1032 L74.8,117.6191 L84.5,118.4667 L94.2,118.0017 L103.9,118.059 L113.6,118.4794 L123.3,117.6485 L133,118.5703 " fill="none" style="stroke:#181818;stroke-width:1.0;stroke-dasharray:2.0,2.0;"/><text fill="#000000" font-family="FG Virgil" font-size="13" lengthAdjust="spacing" textLength="59" x="43" y="113.7139">List Users</text><polygon fill="#181818" points="263.5,144.9219,263.526,144.9869,265.4487,145.5936,267.5239,146.5817,269.5495,147.4456,271.4117,147.9011,273.5,148.9219,273.4904,148.8978,271.4472,149.5899,269.4525,150.4032,267.4916,151.3008,265.4144,151.9079,263.5,152.9219,263.6305,153.0524,264.1514,151.9733,265.0534,151.2753,266.0018,150.6237,266.6798,149.7017,267.5,148.9219,267.5161,148.938,266.6925,148.1143,265.9421,147.364,265.1564,146.5782,264.438,145.8599,263.5,144.9219" style="stroke:#181818;stroke-width:1.0;"/><path d="M149,148.9219 L149,149.2021 L159.0417,148.3694 L169.0833,149.1796 L179.125,149.4548 L189.1667,147.9707 L199.2083,148.8183 L209.25,148.3532 L219.2917,148.4105 L229.3333,148.831 L239.375,148 L249.4167,149.6601 L259.4583,148.0815 L269.5,148.9219 " fill="none" style="stroke:#181818;stroke-width:1.0;"/><text fill="#000000" font-family="FG Virgil" font-size="13" lengthAdjust="spacing" textLength="44" x="156" y="144.0654">create()</text><polygon fill="#181818" points="258.5,175.2734,258.526,175.3385,260.4487,175.9452,262.5239,176.9333,264.5495,177.7971,266.4117,178.2526,268.5,179.2734,268.4904,179.2494,266.4472,179.9414,264.4525,180.7547,262.4916,181.6523,260.4144,182.2595,258.5,183.2734,258.6305,183.4039,259.1514,182.3249,260.0534,181.6268,261.0018,180.9752,261.6798,180.0532,262.5,179.2734,262.5161,179.2895,261.6925,178.4659,260.9421,177.7155,260.1564,176.9298,259.438,176.2115,258.5,175.2734" style="stroke:#181818;stroke-width:1.0;"/><path d="M149,179.2734 L149,179.5537 L158.625,178.721 L168.25,179.5312 L177.875,179.8063 L187.5,178.3222 L197.125,179.1698 L206.75,178.7048 L216.375,178.7621 L226,179.1826 L235.625,178.3516 L245.25,180.0116 L254.875,178.4331 L264.5,179.2734 " fill="none" style="stroke:#181818;stroke-width:1.0;"/><text fill="#000000" font-family="FG Virgil" font-size="13" lengthAdjust="spacing" textLength="74" x="156" y="174.417">listAllUsers()</text><polygon fill="#181818" points="649.5,205.625,649.526,205.69,651.4487,206.2968,653.5239,207.2848,655.5495,208.1487,657.4117,208.6042,659.5,209.625,659.4904,209.6009,657.4472,210.293,655.4525,211.1063,653.4916,212.0039,651.4144,212.611,649.5,213.625,649.6305,213.7555,650.1514,212.6764,651.0534,211.9784,652.0018,211.3268,652.6798,210.4048,653.5,209.625,653.5161,209.6411,652.6925,208.8175,651.9421,208.0671,651.1564,207.2814,650.438,206.563,649.5,205.625" style="stroke:#181818;stroke-width:1.0;"/><path d="M280.5,209.625 L280.5,209.9052 L290.3684,209.0726 L300.2368,209.8827 L310.1053,210.1579 L319.9737,208.6738 L329.8421,209.5214 L339.7105,209.0563 L349.5789,209.1137 L359.4474,209.5341 L369.3158,208.7032 L379.1842,210.3632 L389.0526,208.7846 L398.9211,209.3613 L408.7895,210.2009 L418.6579,209.5106 L428.5263,209.716 L438.3947,209.5824 L448.2632,209.863 L458.1316,209.9438 L468,210.4059 L477.8684,210.5197 L487.7368,210.5307 L497.6053,209.9645 L507.4737,210.2431 L517.3421,210.5613 L527.2105,208.6634 L537.0789,210.5297 L546.9474,209.2297 L556.8158,210.3367 L566.6842,208.965 L576.5526,209.5337 L586.4211,210.6138 L596.2895,209.56 L606.1579,209.7654 L616.0263,210.0765 L625.8947,210.18 L635.7632,209.6198 L645.6316,210.008 L655.5,209.625 " fill="none" style="stroke:#181818;stroke-width:1.0;"/><text fill="#000000" font-family="FG Virgil" font-size="13" lengthAdjust="spacing" textLength="44" x="287.5" y="204.7686">create()</text><polygon fill="#181818" points="654.5,235.9766,654.526,236.0416,656.4487,236.6483,658.5239,237.6364,660.5495,238.5003,662.4117,238.9558,664.5,239.9766,664.4904,239.9525,662.4472,240.6446,660.4525,241.4579,658.4916,242.3555,656.4144,242.9626,654.5,243.9766,654.6305,244.1071,655.1514,243.028,656.0534,242.3299,657.0018,241.6784,657.6798,240.7563,658.5,239.9766,658.5161,239.9926,657.6925,239.169,656.9421,238.4186,656.1564,237.6329,655.438,236.9146,654.5,235.9766" style="stroke:#181818;stroke-width:1.0;"/><path d="M280.5,239.9766 L280.5,240.2568 L290.5,239.4241 L300.5,240.2343 L310.5,240.5095 L320.5,239.0254 L330.5,239.8729 L340.5,239.4079 L350.5,239.4652 L360.5,239.8857 L370.5,239.0547 L380.5,240.7148 L390.5,239.1362 L400.5,239.7129 L410.5,240.5525 L420.5,239.8622 L430.5,240.0675 L440.5,239.934 L450.5,240.2146 L460.5,240.2954 L470.5,240.7575 L480.5,240.8713 L490.5,240.8822 L500.5,240.3161 L510.5,240.5947 L520.5,240.9129 L530.5,239.015 L540.5,240.8812 L550.5,239.5812 L560.5,240.6883 L570.5,239.3165 L580.5,239.8852 L590.5,240.9654 L600.5,239.9116 L610.5,240.117 L620.5,240.4281 L630.5,240.5315 L640.5,239.9714 L650.5,240.3595 L660.5,239.9766 " fill="none" style="stroke:#181818;stroke-width:1.0;"/><text fill="#000000" font-family="FG Virgil" font-size="13" lengthAdjust="spacing" textLength="357" x="287.5" y="235.1201">ensureAuthenticatedUserHasAnyOf(CourseRoles.MANAGER)</text><polygon fill="#181818" points="817,266.3281,817.026,266.3932,818.9487,266.9999,821.0239,267.9879,823.0495,268.8518,824.9117,269.3073,827,270.3281,826.9904,270.3041,824.9472,270.9961,822.9525,271.8094,820.9916,272.707,818.9144,273.3142,817,274.3281,817.1305,274.4586,817.6514,273.3796,818.5534,272.6815,819.5018,272.0299,820.1798,271.1079,821,270.3281,821.0161,270.3442,820.1925,269.5206,819.4421,268.7702,818.6564,267.9845,817.938,267.2662,817,266.3281" style="stroke:#181818;stroke-width:1.0;"/><path d="M280.5,270.3281 L280.5,270.6084 L290.5463,269.7757 L300.5926,270.5858 L310.6389,270.861 L320.6852,269.3769 L330.7315,270.2245 L340.7778,269.7595 L350.8241,269.8168 L360.8704,270.2372 L370.9167,269.4063 L380.963,271.0663 L391.0093,269.4878 L401.0556,270.0644 L411.1019,270.9041 L421.1481,270.2138 L431.1944,270.4191 L441.2407,270.2855 L451.287,270.5662 L461.3333,270.647 L471.3796,271.109 L481.4259,271.2229 L491.4722,271.2338 L501.5185,270.6676 L511.5648,270.9462 L521.6111,271.2644 L531.6574,269.3665 L541.7037,271.2328 L551.75,269.9328 L561.7963,271.0399 L571.8426,269.6681 L581.8889,270.2368 L591.9352,271.3169 L601.9815,270.2631 L612.0278,270.4685 L622.0741,270.7796 L632.1204,270.8831 L642.1667,270.3229 L652.213,270.7111 L662.2593,269.5649 L672.3056,270.7073 L682.3519,271.0591 L692.3981,270.9208 L702.4444,271.1455 L712.4907,269.684 L722.537,269.4585 L732.5833,269.4996 L742.6296,270.2496 L752.6759,270.0661 L762.7222,271.2367 L772.7685,270.0952 L782.8148,269.8707 L792.8611,270.6325 L802.9074,269.439 L812.9537,269.636 L823,270.3281 " fill="none" style="stroke:#181818;stroke-width:1.0;"/><text fill="#000000" font-family="FG Virgil" font-size="13" lengthAdjust="spacing" textLength="44" x="287.5" y="265.4717">create()</text><polygon fill="#181818" points="817,296.6797,817.026,296.7447,818.9487,297.3515,821.0239,298.3395,823.0495,299.2034,824.9117,299.6589,827,300.6797,826.9904,300.6556,824.9472,301.3477,822.9525,302.161,820.9916,303.0586,818.9144,303.6657,817,304.6797,817.1305,304.8102,817.6514,303.7311,818.5534,303.0331,819.5018,302.3815,820.1798,301.4595,821,300.6797,821.0161,300.6958,820.1925,299.8722,819.4421,299.1218,818.6564,298.3361,817.938,297.6177,817,296.6797" style="stroke:#181818;stroke-width:1.0;"/><path d="M280.5,300.6797 L280.5,300.9599 L290.5463,300.1273 L300.5926,300.9374 L310.6389,301.2126 L320.6852,299.7285 L330.7315,300.5761 L340.7778,300.111 L350.8241,300.1684 L360.8704,300.5888 L370.9167,299.7579 L380.963,301.4179 L391.0093,299.8393 L401.0556,300.416 L411.1019,301.2556 L421.1481,300.5653 L431.1944,300.7707 L441.2407,300.6371 L451.287,300.9177 L461.3333,300.9985 L471.3796,301.4606 L481.4259,301.5744 L491.4722,301.5854 L501.5185,301.0192 L511.5648,301.2978 L521.6111,301.616 L531.6574,299.7181 L541.7037,301.5844 L551.75,300.2843 L561.7963,301.3914 L571.8426,300.0197 L581.8889,300.5884 L591.9352,301.6685 L601.9815,300.6147 L612.0278,300.8201 L622.0741,301.1312 L632.1204,301.2347 L642.1667,300.6745 L652.213,301.0626 L662.2593,299.9165 L672.3056,301.0589 L682.3519,301.4106 L692.3981,301.2724 L702.4444,301.4971 L712.4907,300.0356 L722.537,299.8101 L732.5833,299.8512 L742.6296,300.6012 L752.6759,300.4176 L762.7222,301.5882 L772.7685,300.4468 L782.8148,300.2223 L792.8611,300.984 L802.9074,299.7906 L812.9537,299.9875 L823,300.6797 " fill="none" style="stroke:#181818;stroke-width:1.0;"/><text fill="#000000" font-family="FG Virgil" font-size="13" lengthAdjust="spacing" textLength="55" x="287.5" y="295.8232">allUsers()</text><polygon fill="#181818" points="981,327.0313,981.026,327.0963,982.9487,327.703,985.0239,328.6911,987.0495,329.5549,988.9117,330.0105,991,331.0313,990.9904,331.0072,988.9472,331.6993,986.9525,332.5126,984.9916,333.4102,982.9144,334.0173,981,335.0313,981.1305,335.1617,981.6514,334.0827,982.5534,333.3846,983.5018,332.7331,984.1798,331.811,985,331.0313,985.0161,331.0473,984.1925,330.2237,983.4421,329.4733,982.6564,328.6876,981.938,327.9693,981,327.0313" style="stroke:#181818;stroke-width:1.0;"/><path d="M839,331.0313 L839,331.3115 L848.8667,330.4788 L858.7333,331.289 L868.6,331.5642 L878.4667,330.0801 L888.3333,330.9276 L898.2,330.4626 L908.0667,330.5199 L917.9333,330.9404 L927.8,330.1094 L937.6667,331.7694 L947.5333,330.1909 L957.4,330.7676 L967.2667,331.6072 L977.1333,330.9169 L987,331.0313 " fill="none" style="stroke:#181818;stroke-width:1.0;"/><text fill="#000000" font-family="FG Virgil" font-size="13" lengthAdjust="spacing" textLength="75" x="846" y="326.1748">repositories()</text><polygon fill="#181818" points="1129,357.3828,1129.026,357.4479,1130.9487,358.0546,1133.0239,359.0426,1135.0495,359.9065,1136.9117,360.362,1139,361.3828,1138.9904,361.3588,1136.9472,362.0508,1134.9525,362.8641,1132.9916,363.7617,1130.9144,364.3688,1129,365.3828,1129.1305,365.5133,1129.6514,364.4343,1130.5534,363.7362,1131.5018,363.0846,1132.1798,362.1626,1133,361.3828,1133.0161,361.3989,1132.1925,360.5753,1131.4421,359.8249,1130.6564,359.0392,1129.938,358.3209,1129,357.3828" style="stroke:#181818;stroke-width:1.0;"/><path d="M1003,361.3828 L1003,361.6631 L1013.1538,360.8304 L1023.3077,361.6405 L1033.4615,361.9157 L1043.6154,360.4316 L1053.7692,361.2792 L1063.9231,360.8142 L1074.0769,360.8715 L1084.2308,361.2919 L1094.3846,360.461 L1104.5385,362.121 L1114.6923,360.5424 L1124.8462,361.1191 L1135,361.3828 " fill="none" style="stroke:#181818;stroke-width:1.0;"/><text fill="#000000" font-family="FG Virgil" font-size="13" lengthAdjust="spacing" textLength="44" x="1010" y="356.5264">create()</text><polygon fill="#181818" points="850,387.7344,850.026,387.7994,847.9487,388.4061,846.0239,389.3942,844.0495,390.2581,841.9117,390.7136,840,391.7344,839.9904,391.7103,841.9472,392.4024,843.9525,393.2157,845.9916,394.1133,847.9144,394.7204,850,395.7344,850.1305,395.8649,849.0514,394.7858,848.3534,394.0878,847.7018,393.4362,846.7798,392.5142,846,391.7344,846.0161,391.7505,846.7925,390.9268,847.6421,390.1765,848.4564,389.3907,849.338,388.6724,850,387.7344" style="stroke:#181818;stroke-width:1.0;"/><path d="M844,391.7344 L844,392.0146 L854.2,391.1819 L864.4,391.9921 L874.6,392.2673 L884.8,390.7832 L895,391.6308 L905.2,391.1657 L915.4,391.223 L925.6,391.6435 L935.8,390.8125 L946,392.4726 L956.2,390.894 L966.4,391.4707 L976.6,392.3103 L986.8,391.62 L997,391.7344 " fill="none" style="stroke:#181818;stroke-width:1.0;"/><text fill="#000000" font-family="FG Virgil" font-size="13" lengthAdjust="spacing" textLength="39" x="856" y="386.8779">factory</text><polygon fill="#181818" points="1124,418.0859,1124.026,418.151,1125.9487,418.7577,1128.0239,419.7458,1130.0495,420.6096,1131.9117,421.0651,1134,422.0859,1133.9904,422.0619,1131.9472,422.7539,1129.9525,423.5672,1127.9916,424.4648,1125.9144,425.072,1124,426.0859,1124.1305,426.2164,1124.6514,425.1374,1125.5534,424.4393,1126.5018,423.7877,1127.1798,422.8657,1128,422.0859,1128.0161,422.102,1127.1925,421.2784,1126.4421,420.528,1125.6564,419.7423,1124.938,419.024,1124,418.0859" style="stroke:#181818;stroke-width:1.0;"/><path d="M839,422.0859 L839,422.3662 L849.0345,421.5335 L859.069,422.3437 L869.1034,422.6188 L879.1379,421.1347 L889.1724,421.9823 L899.2069,421.5173 L909.2414,421.5746 L919.2759,421.9951 L929.3103,421.1641 L939.3448,422.8241 L949.3793,421.2456 L959.4138,421.8222 L969.4483,422.6619 L979.4828,421.9716 L989.5172,422.1769 L999.5517,422.0433 L1009.5862,422.324 L1019.6207,422.4048 L1029.6552,422.8669 L1039.6897,422.9807 L1049.7241,422.9916 L1059.7586,422.4254 L1069.7931,422.7041 L1079.8276,423.0222 L1089.8621,421.1244 L1099.8966,422.9906 L1109.931,421.6906 L1119.9655,422.7977 L1130,422.0859 " fill="none" style="stroke:#181818;stroke-width:1.0;"/><text fill="#000000" font-family="FG Virgil" font-size="13" lengthAdjust="spacing" textLength="40" x="846" y="417.2295">users()</text><polygon fill="#181818" points="1255.5,448.4375,1255.526,448.5025,1257.4487,449.1093,1259.5239,450.0973,1261.5495,450.9612,1263.4117,451.4167,1265.5,452.4375,1265.4904,452.4134,1263.4472,453.1055,1261.4525,453.9188,1259.4916,454.8164,1257.4144,455.4235,1255.5,456.4375,1255.6305,456.568,1256.1514,455.4889,1257.0534,454.7909,1258.0018,454.1393,1258.6798,453.2173,1259.5,452.4375,1259.5161,452.4536,1258.6925,451.63,1257.9421,450.8796,1257.1564,450.0939,1256.438,449.3755,1255.5,448.4375" style="stroke:#181818;stroke-width:1.0;"/><path d="M1146,452.4375 L1146,452.7177 L1155.625,451.8851 L1165.25,452.6952 L1174.875,452.9704 L1184.5,451.4863 L1194.125,452.3339 L1203.75,451.8688 L1213.375,451.9262 L1223,452.3466 L1232.625,451.5157 L1242.25,453.1757 L1251.875,451.5971 L1261.5,452.4375 " fill="none" style="stroke:#181818;stroke-width:1.0;"/><text fill="#000000" font-family="FG Virgil" font-size="13" lengthAdjust="spacing" textLength="44" x="1153" y="447.5811">create()</text><polygon fill="#181818" points="850,478.7891,850.026,478.8541,847.9487,479.4608,846.0239,480.4489,844.0495,481.3128,841.9117,481.7683,840,482.7891,839.9904,482.765,841.9472,483.4571,843.9525,484.2704,845.9916,485.168,847.9144,485.7751,850,486.7891,850.1305,486.9196,849.0514,485.8405,848.3534,485.1424,847.7018,484.4909,846.7798,483.5688,846,482.7891,846.0161,482.8051,846.7925,481.9815,847.6421,481.2311,848.4564,480.4454,849.338,479.7271,850,478.7891" style="stroke:#181818;stroke-width:1.0;"/><path d="M844,482.7891 L844,483.0693 L853.8667,482.2366 L863.7333,483.0468 L873.6,483.322 L883.4667,481.8379 L893.3333,482.6854 L903.2,482.2204 L913.0667,482.2777 L922.9333,482.6982 L932.8,481.8672 L942.6667,483.5273 L952.5333,481.9487 L962.4,482.5254 L972.2667,483.365 L982.1333,482.6747 L992,482.88 L1001.8667,482.7465 L1011.7333,483.0271 L1021.6,483.1079 L1031.4667,483.57 L1041.3333,483.6838 L1051.2,483.6947 L1061.0667,483.1286 L1070.9333,483.4072 L1080.8,483.7254 L1090.6667,481.8275 L1100.5333,483.6937 L1110.4,482.3937 L1120.2667,483.5008 L1130.1333,482.129 L1140,482.7891 " fill="none" style="stroke:#181818;stroke-width:1.0;"/><text fill="#000000" font-family="FG Virgil" font-size="13" lengthAdjust="spacing" textLength="87" x="856" y="477.9326">userRepository</text><polygon fill="#181818" points="1250.5,509.1406,1250.526,509.2057,1252.4487,509.8124,1254.5239,510.8004,1256.5495,511.6643,1258.4117,512.1198,1260.5,513.1406,1260.4904,513.1166,1258.4472,513.8086,1256.4525,514.6219,1254.4916,515.5195,1252.4144,516.1267,1250.5,517.1406,1250.6305,517.2711,1251.1514,516.1921,1252.0534,515.494,1253.0018,514.8424,1253.6798,513.9204,1254.5,513.1406,1254.5161,513.1567,1253.6925,512.3331,1252.9421,511.5827,1252.1564,510.797,1251.438,510.0787,1250.5,509.1406" style="stroke:#181818;stroke-width:1.0;"/><path d="M839,513.1406 L839,513.4209 L848.9405,512.5882 L858.881,513.3983 L868.8214,513.6735 L878.7619,512.1894 L888.7024,513.037 L898.6429,512.572 L908.5833,512.6293 L918.5238,513.0497 L928.4643,512.2188 L938.4048,513.8788 L948.3452,512.3003 L958.2857,512.8769 L968.2262,513.7166 L978.1667,513.0263 L988.1071,513.2316 L998.0476,513.098 L1007.9881,513.3787 L1017.9286,513.4595 L1027.869,513.9215 L1037.8095,514.0354 L1047.75,514.0463 L1057.6905,513.4801 L1067.631,513.7587 L1077.5714,514.0769 L1087.5119,512.179 L1097.4524,514.0453 L1107.3929,512.7453 L1117.3333,513.8524 L1127.2738,512.4806 L1137.2143,513.0493 L1147.1548,514.1294 L1157.0952,513.0756 L1167.0357,513.281 L1176.9762,513.5921 L1186.9167,513.6956 L1196.8571,513.1354 L1206.7976,513.5236 L1216.7381,512.3774 L1226.6786,513.5198 L1236.619,513.8716 L1246.5595,513.7333 L1256.5,513.1406 " fill="none" style="stroke:#181818;stroke-width:1.0;"/><text fill="#000000" font-family="FG Virgil" font-size="13" lengthAdjust="spacing" textLength="43" x="846" y="508.2842">findAll()</text><polygon fill="#181818" points="850,539.4922,850.026,539.5572,847.9487,540.164,846.0239,541.152,844.0495,542.0159,841.9117,542.4714,840,543.4922,839.9904,543.4681,841.9472,544.1602,843.9525,544.9735,845.9916,545.8711,847.9144,546.4782,850,547.4922,850.1305,547.6227,849.0514,546.5436,848.3534,545.8456,847.7018,545.194,846.7798,544.272,846,543.4922,846.0161,543.5083,846.7925,542.6847,847.6421,541.9343,848.4564,541.1486,849.338,540.4302,850,539.4922" style="stroke:#181818;stroke-width:1.0;"/><path d="M844,543.4922 L844,543.7724 L854.0595,542.9398 L864.119,543.7499 L874.1786,544.0251 L884.2381,542.541 L894.2976,543.3886 L904.3571,542.9235 L914.4167,542.9809 L924.4762,543.4013 L934.5357,542.5704 L944.5952,544.2304 L954.6548,542.6518 L964.7143,543.2285 L974.7738,544.0681 L984.8333,543.3778 L994.8929,543.5832 L1004.9524,543.4496 L1015.0119,543.7302 L1025.0714,543.811 L1035.131,544.2731 L1045.1905,544.3869 L1055.25,544.3979 L1065.3095,543.8317 L1075.369,544.1103 L1085.4286,544.4285 L1095.4881,542.5306 L1105.5476,544.3969 L1115.6071,543.0968 L1125.6667,544.2039 L1135.7262,542.8322 L1145.7857,543.4009 L1155.8452,544.481 L1165.9048,543.4272 L1175.9643,543.6326 L1186.0238,543.9437 L1196.0833,544.0472 L1206.1429,543.487 L1216.2024,543.8751 L1226.2619,542.729 L1236.3214,543.8714 L1246.381,544.2231 L1256.4405,544.0849 L1266.5,543.4922 " fill="none" style="stroke:#181818;stroke-width:1.0;"/><text fill="#000000" font-family="FG Virgil" font-size="13" lengthAdjust="spacing" textLength="47" x="856" y="538.6357">allUsers</text><polygon fill="#181818" points="291.5,569.8438,291.526,569.9088,289.4487,570.5155,287.5239,571.5036,285.5495,572.3674,283.4117,572.823,281.5,573.8438,281.4904,573.8197,283.4472,574.5118,285.4525,575.3251,287.4916,576.2227,289.4144,576.8298,291.5,577.8438,291.6305,577.9742,290.5514,576.8952,289.8534,576.1971,289.2018,575.5456,288.2798,574.6235,287.5,573.8438,287.5161,573.8598,288.2925,573.0362,289.1421,572.2858,289.9564,571.5001,290.838,570.7818,291.5,569.8438" style="stroke:#181818;stroke-width:1.0;"/><path d="M285.5,573.8438 L285.5,574.124 L295.4545,573.2913 L305.4091,574.1015 L315.3636,574.3767 L325.3182,572.8926 L335.2727,573.7401 L345.2273,573.2751 L355.1818,573.3324 L365.1364,573.7529 L375.0909,572.9219 L385.0455,574.5819 L395,573.0034 L404.9545,573.5801 L414.9091,574.4197 L424.8636,573.7294 L434.8182,573.9347 L444.7727,573.8012 L454.7273,574.0818 L464.6818,574.1626 L474.6364,574.6247 L484.5909,574.7385 L494.5455,574.7494 L504.5,574.1833 L514.4545,574.4619 L524.4091,574.7801 L534.3636,572.8822 L544.3182,574.7484 L554.2727,573.4484 L564.2273,574.5555 L574.1818,573.1837 L584.1364,573.7524 L594.0909,574.8326 L604.0455,573.7788 L614,573.9842 L623.9545,574.2953 L633.9091,574.3987 L643.8636,573.8385 L653.8182,574.2267 L663.7727,573.0805 L673.7273,574.2229 L683.6818,574.5747 L693.6364,574.4365 L703.5909,574.6611 L713.5455,573.1996 L723.5,572.9742 L733.4545,573.0152 L743.4091,573.7652 L753.3636,573.5817 L763.3182,574.7523 L773.2727,573.6108 L783.2273,573.3863 L793.1818,574.1481 L803.1364,572.9546 L813.0909,573.1516 L823.0455,574.709 L833,573.8438 " fill="none" style="stroke:#181818;stroke-width:1.0;"/><text fill="#000000" font-family="FG Virgil" font-size="13" lengthAdjust="spacing" textLength="47" x="297.5" y="568.9873">allUsers</text><polygon fill="#181818" points="160,600.1953,160.026,600.2604,157.9487,600.8671,156.0239,601.8551,154.0495,602.719,151.9117,603.1745,150,604.1953,149.9904,604.1713,151.9472,604.8633,153.9525,605.6766,155.9916,606.5742,157.9144,607.1813,160,608.1953,160.1305,608.3258,159.0514,607.2468,158.3534,606.5487,157.7018,605.8971,156.7798,604.9751,156,604.1953,156.0161,604.2114,156.7925,603.3878,157.6421,602.6374,158.4564,601.8517,159.338,601.1334,160,600.1953" style="stroke:#181818;stroke-width:1.0;"/><path d="M154,604.1953 L154,604.4756 L164.0417,603.6429 L174.0833,604.453 L184.125,604.7282 L194.1667,603.2441 L204.2083,604.0917 L214.25,603.6267 L224.2917,603.684 L234.3333,604.1044 L244.375,603.2735 L254.4167,604.9335 L264.4583,603.3549 L274.5,604.1953 " fill="none" style="stroke:#181818;stroke-width:1.0;"/><text fill="#000000" font-family="FG Virgil" font-size="13" lengthAdjust="spacing" textLength="47" x="166" y="599.3389">allUsers</text><path d="M149,634.5469 L149,634.6403 L157.4,634.3627 L165.8,634.6328 L174.2,634.7245 L182.6,634.2298 L191,634.5469 " fill="none" style="stroke:#181818;stroke-width:1.0;"/><path d="M191,634.5469 L191.0934,634.5469 L190.8159,637.1469 L191.0859,639.7469 L191.1776,642.3469 L190.6829,644.9469 L191,647.5469 " fill="none" style="stroke:#181818;stroke-width:1.0;"/><path d="M150,647.5469 L150,647.6403 L158.2,647.3627 L166.4,647.6328 L174.6,647.7245 L182.8,647.2298 L191,647.5469 " fill="none" style="stroke:#181818;stroke-width:1.0;"/><polygon fill="#181818" points="160,643.5469,160.026,643.6119,157.9487,644.2186,156.0239,645.2067,154.0495,646.0706,151.9117,646.5261,150,647.5469,149.9904,647.5228,151.9472,648.2149,153.9525,649.0282,155.9916,649.9258,157.9144,650.5329,160,651.5469,160.1305,651.6774,159.0514,650.5983,158.3534,649.9003,157.7018,649.2487,156.7798,648.3267,156,647.5469,156.0161,647.563,156.7925,646.7393,157.6421,645.989,158.4564,645.2032,159.338,644.4849,160,643.5469" style="stroke:#181818;stroke-width:1.0;"/><text fill="#000000" font-family="FG Virgil" font-size="13" lengthAdjust="spacing" textLength="38" x="156" y="629.6904">show()</text><polygon fill="#181818" points="47,673.8984,47.026,673.9635,44.9487,674.5702,43.0239,675.5583,41.0495,676.4221,38.9117,676.8776,37,677.8984,36.9904,677.8744,38.9472,678.5664,40.9525,679.3797,42.9916,680.2773,44.9144,680.8845,47,681.8984,47.1305,682.0289,46.0514,680.9499,45.3534,680.2518,44.7018,679.6002,43.7798,678.6782,43,677.8984,43.0161,677.9145,43.7925,677.0909,44.6421,676.3405,45.4564,675.5548,46.338,674.8365,47,673.8984" style="stroke:#181818;stroke-width:1.0;"/><path d="M41,677.8984 L41,678.1787 L51.2,677.346 L61.4,678.1562 L71.6,678.4313 L81.8,676.9472 L92,677.7948 L102.2,677.3298 L112.4,677.3871 L122.6,677.8076 L132.8,676.9766 L143,677.8984 " fill="none" style="stroke:#181818;stroke-width:1.0;"/><text fill="#000000" font-family="FG Virgil" font-size="13" lengthAdjust="spacing" textLength="79" x="53" y="673.042">back to menu</text><!--MD5=[4e9c7ff58d536f13d1567a6400d06c7e]
@startuml
'http://plantuml.com/skinparam.html
skinparam handwritten true
skinparam monochrome true
skinparam packageStyle rect
skinparam defaultFontName FG Virgil
skinparam shadowing false

actor Manager as Actor
participant ListUsersUI as UI <<presentation>>
participant ListUsersController as Controller <<application>>
participant AuthorizationService as AuthzService <<service>>
participant UserManagementService as Service <<service>>
participant PersistenceContext as Persistence <<persistence>>
participant RepositoryFactory as Factory <<factory>>
database UserRepository as Repository <<repository>>


Actor - -> UI: List Users
activate UI
    UI -> Controller: create()

    UI -> Controller: listAllUsers()
    activate Controller

    Controller -> AuthzService: create()
    activate AuthzService
    Controller -> AuthzService: ensureAuthenticatedUserHasAnyOf(CourseRoles.MANAGER)
    deactivate AuthzService

    Controller -> Service: create()
    activate Service
    Controller -> Service: allUsers()


        Service -> Persistence: repositories()
        activate Persistence
        Persistence -> Factory: create()
        Persistence -> Service: factory
        deactivate Persistence

        Service -> Factory: users()
        activate Factory
        Factory -> Repository: create()
        Factory -> Service: userRepository
        deactivate Factory

        Service -> Repository: findAll()
        activate Repository
        Repository -> Service: allUsers
        deactivate Repository

        Service -> Controller: allUsers
        deactivate Service
        Controller -> UI: allUsers
        deactivate Controller

        UI -> UI: show()
        UI -> Actor: back to menu

deactivate UI
@enduml

@startuml
skinparam handwritten true
skinparam monochrome true
skinparam packageStyle rect
skinparam defaultFontName FG Virgil
skinparam shadowing false

actor Manager as Actor
participant ListUsersUI as UI <<presentation>>
participant ListUsersController as Controller <<application>>
participant AuthorizationService as AuthzService <<service>>
participant UserManagementService as Service <<service>>
participant PersistenceContext as Persistence <<persistence>>
participant RepositoryFactory as Factory <<factory>>
database UserRepository as Repository <<repository>>


Actor - -> UI: List Users
activate UI
    UI -> Controller: create()

    UI -> Controller: listAllUsers()
    activate Controller

    Controller -> AuthzService: create()
    activate AuthzService
    Controller -> AuthzService: ensureAuthenticatedUserHasAnyOf(CourseRoles.MANAGER)
    deactivate AuthzService

    Controller -> Service: create()
    activate Service
    Controller -> Service: allUsers()


        Service -> Persistence: repositories()
        activate Persistence
        Persistence -> Factory: create()
        Persistence -> Service: factory
        deactivate Persistence

        Service -> Factory: users()
        activate Factory
        Factory -> Repository: create()
        Factory -> Service: userRepository
        deactivate Factory

        Service -> Repository: findAll()
        activate Repository
        Repository -> Service: allUsers
        deactivate Repository

        Service -> Controller: allUsers
        deactivate Service
        Controller -> UI: allUsers
        deactivate Controller

        UI -> UI: show()
        UI -> Actor: back to menu

deactivate UI
@enduml

PlantUML version 1.2022.7(Mon Aug 22 18:01:30 BST 2022)
(GPL source distribution)
Java Runtime: Java(TM) SE Runtime Environment
JVM: Java HotSpot(TM) 64-Bit Server VM
Default Encoding: Cp1252
Language: pt
Country: PT
--></g></svg>