<?xml version="1.0" encoding="UTF-8" standalone="no"?><svg xmlns="http://www.w3.org/2000/svg" xmlns:xlink="http://www.w3.org/1999/xlink" contentStyleType="text/css" height="631px" preserveAspectRatio="none" style="width:877px;height:631px;background:#FFFFFF;" version="1.1" viewBox="0 0 877 631" width="877px" zoomAndPan="magnify"><defs/><g><rect fill="none" height="27.6094" id="_title" style="stroke:none;stroke-width:1.0;" width="168" x="347.5" y="5"/><text fill="#000000" font-family="sans-serif" font-size="14" font-weight="bold" lengthAdjust="spacing" textLength="158" x="352.5" y="24.5332">Domain Model Excerpt</text><!--MD5=[d51cf5418a28509a3866ac2d3c781727]
cluster User Aggregate--><g id="cluster_User Aggregate"><rect fill="none" height="118" rx="2.5" ry="2.5" style="stroke:#000000;stroke-width:1.5;" width="126" x="745" y="454.6094"/><text fill="#000000" font-family="sans-serif" font-size="14" font-weight="bold" lengthAdjust="spacing" textLength="110" x="753" y="471.1426">User Aggregate</text></g><!--MD5=[dbf828d9c2935ed63f38166e70ff4f2f]
cluster BoardAggregate--><g id="cluster_BoardAggregate"><rect fill="none" height="580" rx="2.5" ry="2.5" style="stroke:#000000;stroke-width:1.5;" width="670" x="7" y="45.6094"/><text fill="#000000" font-family="sans-serif" font-size="14" font-weight="bold" lengthAdjust="spacing" textLength="115" x="284.5" y="62.1426">BoardAggregate</text></g><!--MD5=[3fd616f346a44cd59a91eb10b19e157c]
class User--><g id="elem_User"><rect codeLine="28" fill="#D8F5FF" height="65.7969" id="User" rx="2.5" ry="2.5" style="stroke:#1E90FF;stroke-width:0.5;" width="71" x="772" y="490.6094"/><ellipse cx="787" cy="519.5078" fill="#ADD1B2" rx="11" ry="11" style="stroke:#181818;stroke-width:1.0;"/><path d="M785.8594,520.3047 L785.8594,522.8047 L790.1875,522.8047 L790.1875,521.8828 Q790.1875,521.2734 790.4219,521.0078 Q790.6719,520.7422 791.0469,520.7422 Q791.4219,520.7422 791.6563,521.0078 Q791.8906,521.2734 791.8906,521.8828 L791.8906,524.5078 L783.8906,524.5078 Q783.2656,524.5078 783,524.2734 Q782.75,524.0391 782.75,523.6484 Q782.75,523.2734 783.0156,523.0391 Q783.2813,522.8047 783.8906,522.8047 L784.1563,522.8047 L784.1563,516.1484 L783.8906,516.1484 Q783.2656,516.1484 783,515.9141 Q782.75,515.6797 782.75,515.2891 Q782.75,514.9141 783,514.6797 Q783.2656,514.4453 783.8906,514.4453 L791.5156,514.4453 L791.5156,517.0391 Q791.5156,517.6484 791.2813,517.9141 Q791.0625,518.1641 790.6719,518.1641 Q790.2969,518.1641 790.0625,517.9141 Q789.8281,517.6484 789.8281,517.0391 L789.8281,516.1484 L785.8594,516.1484 L785.8594,518.6016 L787.3438,518.6016 Q787.3438,517.9453 787.4688,517.7578 Q787.7344,517.3516 788.2031,517.3516 Q788.5781,517.3516 788.8125,517.6172 Q789.0469,517.8672 789.0469,518.4766 L789.0469,520.4453 Q789.0469,520.9922 788.9219,521.1797 Q788.6563,521.5703 788.2031,521.5703 Q787.7344,521.5703 787.4688,521.1641 Q787.3438,520.9766 787.3438,520.3047 L785.8594,520.3047 Z " fill="#000000"/><text fill="#000000" font-family="sans-serif" font-size="12" font-style="italic" lengthAdjust="spacing" textLength="43" x="799" y="508.0664">«entity»</text><text fill="#000000" font-family="sans-serif" font-size="12" font-style="italic" lengthAdjust="spacing" textLength="35" x="803" y="523.1602">«root»</text><text fill="#000000" font-family="sans-serif" font-size="14" lengthAdjust="spacing" textLength="29" x="806" y="540.3301">User</text><line style="stroke:#1E90FF;stroke-width:0.5;" x1="773" x2="842" y1="548.4063" y2="548.4063"/></g><!--MD5=[3762909e135fb728396985e200594027]
class SharedBoard--><g id="elem_SharedBoard"><rect codeLine="32" fill="#D8F5FF" height="65.7969" id="SharedBoard" rx="2.5" ry="2.5" style="stroke:#1E90FF;stroke-width:0.5;" width="116" x="544.5" y="389.6094"/><ellipse cx="559.5" cy="418.5078" fill="#ADD1B2" rx="11" ry="11" style="stroke:#181818;stroke-width:1.0;"/><path d="M558.3594,419.3047 L558.3594,421.8047 L562.6875,421.8047 L562.6875,420.8828 Q562.6875,420.2734 562.9219,420.0078 Q563.1719,419.7422 563.5469,419.7422 Q563.9219,419.7422 564.1563,420.0078 Q564.3906,420.2734 564.3906,420.8828 L564.3906,423.5078 L556.3906,423.5078 Q555.7656,423.5078 555.5,423.2734 Q555.25,423.0391 555.25,422.6484 Q555.25,422.2734 555.5156,422.0391 Q555.7813,421.8047 556.3906,421.8047 L556.6563,421.8047 L556.6563,415.1484 L556.3906,415.1484 Q555.7656,415.1484 555.5,414.9141 Q555.25,414.6797 555.25,414.2891 Q555.25,413.9141 555.5,413.6797 Q555.7656,413.4453 556.3906,413.4453 L564.0156,413.4453 L564.0156,416.0391 Q564.0156,416.6484 563.7813,416.9141 Q563.5625,417.1641 563.1719,417.1641 Q562.7969,417.1641 562.5625,416.9141 Q562.3281,416.6484 562.3281,416.0391 L562.3281,415.1484 L558.3594,415.1484 L558.3594,417.6016 L559.8438,417.6016 Q559.8438,416.9453 559.9688,416.7578 Q560.2344,416.3516 560.7031,416.3516 Q561.0781,416.3516 561.3125,416.6172 Q561.5469,416.8672 561.5469,417.4766 L561.5469,419.4453 Q561.5469,419.9922 561.4219,420.1797 Q561.1563,420.5703 560.7031,420.5703 Q560.2344,420.5703 559.9688,420.1641 Q559.8438,419.9766 559.8438,419.3047 L558.3594,419.3047 Z " fill="#000000"/><text fill="#000000" font-family="sans-serif" font-size="12" font-style="italic" lengthAdjust="spacing" textLength="43" x="594" y="407.0664">«entity»</text><text fill="#000000" font-family="sans-serif" font-size="12" font-style="italic" lengthAdjust="spacing" textLength="35" x="598" y="422.1602">«root»</text><text fill="#000000" font-family="sans-serif" font-size="14" lengthAdjust="spacing" textLength="84" x="573.5" y="439.3301">SharedBoard</text><line style="stroke:#1E90FF;stroke-width:0.5;" x1="545.5" x2="659.5" y1="447.4063" y2="447.4063"/></g><!--MD5=[5c4de02ddbe1ee1edb0978671de795b0]
class BoardEntry--><g id="elem_BoardEntry"><rect codeLine="51" fill="#D8F5FF" height="50.7031" id="BoardEntry" rx="2.5" ry="2.5" style="stroke:#1E90FF;stroke-width:0.5;" width="103" x="354.5" y="168.1094"/><ellipse cx="369.5" cy="189.4609" fill="#ADD1B2" rx="11" ry="11" style="stroke:#181818;stroke-width:1.0;"/><path d="M368.3594,190.2578 L368.3594,192.7578 L372.6875,192.7578 L372.6875,191.8359 Q372.6875,191.2266 372.9219,190.9609 Q373.1719,190.6953 373.5469,190.6953 Q373.9219,190.6953 374.1563,190.9609 Q374.3906,191.2266 374.3906,191.8359 L374.3906,194.4609 L366.3906,194.4609 Q365.7656,194.4609 365.5,194.2266 Q365.25,193.9922 365.25,193.6016 Q365.25,193.2266 365.5156,192.9922 Q365.7813,192.7578 366.3906,192.7578 L366.6563,192.7578 L366.6563,186.1016 L366.3906,186.1016 Q365.7656,186.1016 365.5,185.8672 Q365.25,185.6328 365.25,185.2422 Q365.25,184.8672 365.5,184.6328 Q365.7656,184.3984 366.3906,184.3984 L374.0156,184.3984 L374.0156,186.9922 Q374.0156,187.6016 373.7813,187.8672 Q373.5625,188.1172 373.1719,188.1172 Q372.7969,188.1172 372.5625,187.8672 Q372.3281,187.6016 372.3281,186.9922 L372.3281,186.1016 L368.3594,186.1016 L368.3594,188.5547 L369.8438,188.5547 Q369.8438,187.8984 369.9688,187.7109 Q370.2344,187.3047 370.7031,187.3047 Q371.0781,187.3047 371.3125,187.5703 Q371.5469,187.8203 371.5469,188.4297 L371.5469,190.3984 Q371.5469,190.9453 371.4219,191.1328 Q371.1563,191.5234 370.7031,191.5234 Q370.2344,191.5234 369.9688,191.1172 Q369.8438,190.9297 369.8438,190.2578 L368.3594,190.2578 Z " fill="#000000"/><text fill="#000000" font-family="sans-serif" font-size="12" font-style="italic" lengthAdjust="spacing" textLength="44" x="397" y="185.5664">«Entity»</text><text fill="#000000" font-family="sans-serif" font-size="14" lengthAdjust="spacing" textLength="71" x="383.5" y="202.7363">BoardEntry</text><line style="stroke:#1E90FF;stroke-width:0.5;" x1="355.5" x2="456.5" y1="210.8125" y2="210.8125"/></g><!--MD5=[4670de8b480b58d1a2f32ff7332d65f9]
class BoardPermission--><g id="elem_BoardPermission"><rect codeLine="65" fill="#D8F5FF" height="50.7031" id="BoardPermission" rx="2.5" ry="2.5" style="stroke:#1E90FF;stroke-width:0.5;" width="139" x="336.5" y="558.1094"/><ellipse cx="351.5" cy="579.4609" fill="#ADD1B2" rx="11" ry="11" style="stroke:#181818;stroke-width:1.0;"/><path d="M350.3594,580.2578 L350.3594,582.7578 L354.6875,582.7578 L354.6875,581.8359 Q354.6875,581.2266 354.9219,580.9609 Q355.1719,580.6953 355.5469,580.6953 Q355.9219,580.6953 356.1563,580.9609 Q356.3906,581.2266 356.3906,581.8359 L356.3906,584.4609 L348.3906,584.4609 Q347.7656,584.4609 347.5,584.2266 Q347.25,583.9922 347.25,583.6016 Q347.25,583.2266 347.5156,582.9922 Q347.7813,582.7578 348.3906,582.7578 L348.6563,582.7578 L348.6563,576.1016 L348.3906,576.1016 Q347.7656,576.1016 347.5,575.8672 Q347.25,575.6328 347.25,575.2422 Q347.25,574.8672 347.5,574.6328 Q347.7656,574.3984 348.3906,574.3984 L356.0156,574.3984 L356.0156,576.9922 Q356.0156,577.6016 355.7813,577.8672 Q355.5625,578.1172 355.1719,578.1172 Q354.7969,578.1172 354.5625,577.8672 Q354.3281,577.6016 354.3281,576.9922 L354.3281,576.1016 L350.3594,576.1016 L350.3594,578.5547 L351.8438,578.5547 Q351.8438,577.8984 351.9688,577.7109 Q352.2344,577.3047 352.7031,577.3047 Q353.0781,577.3047 353.3125,577.5703 Q353.5469,577.8203 353.5469,578.4297 L353.5469,580.3984 Q353.5469,580.9453 353.4219,581.1328 Q353.1563,581.5234 352.7031,581.5234 Q352.2344,581.5234 351.9688,581.1172 Q351.8438,580.9297 351.8438,580.2578 L350.3594,580.2578 Z " fill="#000000"/><text fill="#000000" font-family="sans-serif" font-size="12" font-style="italic" lengthAdjust="spacing" textLength="44" x="397" y="575.5664">«Entity»</text><text fill="#000000" font-family="sans-serif" font-size="14" lengthAdjust="spacing" textLength="107" x="365.5" y="592.7363">BoardPermission</text><line style="stroke:#1E90FF;stroke-width:0.5;" x1="337.5" x2="474.5" y1="600.8125" y2="600.8125"/></g><!--MD5=[8952ff8baf90a9bdd278b5a81e93a76e]
class BoardCreateConfig--><g id="elem_BoardCreateConfig"><rect codeLine="73" fill="#D8F5FF" height="50.7031" id="BoardCreateConfig" rx="2.5" ry="2.5" style="stroke:#1E90FF;stroke-width:0.5;" width="154" x="329" y="82.1094"/><ellipse cx="344" cy="103.4609" fill="#ADD1B2" rx="11" ry="11" style="stroke:#181818;stroke-width:1.0;"/><path d="M346.7656,99.3359 Q346.9219,99.1172 347.1094,99.0078 Q347.2969,98.8984 347.5156,98.8984 Q347.8906,98.8984 348.125,99.1641 Q348.3594,99.4141 348.3594,100.0234 L348.3594,101.4766 Q348.3594,102.0859 348.125,102.3516 Q347.8906,102.6172 347.5156,102.6172 Q347.1719,102.6172 346.9688,102.4141 Q346.7656,102.2266 346.6563,101.7109 Q346.6094,101.3516 346.4219,101.1641 Q346.0938,100.7891 345.4844,100.5703 Q344.875,100.3516 344.25,100.3516 Q343.4844,100.3516 342.8438,100.6797 Q342.2188,101.0078 341.7188,101.7578 Q341.2344,102.5078 341.2344,103.5391 L341.2344,104.6328 Q341.2344,105.8672 342.125,106.6953 Q343.0156,107.5078 344.6094,107.5078 Q345.5469,107.5078 346.2031,107.2578 Q346.5938,107.1016 347.0156,106.6641 Q347.2813,106.3984 347.4219,106.3203 Q347.5781,106.2422 347.7813,106.2422 Q348.1094,106.2422 348.3594,106.5078 Q348.625,106.7578 348.625,107.1016 Q348.625,107.4453 348.2813,107.8516 Q347.7813,108.4297 346.9844,108.7578 Q345.9063,109.2109 344.6094,109.2109 Q343.0938,109.2109 341.8906,108.5859 Q340.9063,108.0859 340.2188,107.0234 Q339.5313,105.9453 339.5313,104.6641 L339.5313,103.5078 Q339.5313,102.1797 340.1406,101.0391 Q340.7656,99.8828 341.8594,99.2734 Q342.9531,98.6484 344.1875,98.6484 Q344.9219,98.6484 345.5625,98.8203 Q346.2188,98.9766 346.7656,99.3359 Z " fill="#000000"/><text fill="#000000" font-family="sans-serif" font-size="12" font-style="italic" lengthAdjust="spacing" textLength="32" x="403" y="99.5664">«Util»</text><text fill="#000000" font-family="sans-serif" font-size="14" lengthAdjust="spacing" textLength="122" x="358" y="116.7363">BoardCreateConfig</text><line style="stroke:#1E90FF;stroke-width:0.5;" x1="330" x2="482" y1="124.8125" y2="124.8125"/></g><g id="elem_GMN30"><path d="M23,82.1094 L23,141.1641 A0,0 0 0 0 23,141.1641 L268,141.1641 A0,0 0 0 0 268,141.1641 L268,113.7294 L328.9,108.7894 L268,105.7294 L268,92.1094 L258,82.1094 L23,82.1094 A0,0 0 0 0 23,82.1094 " fill="#FEFFDD" style="stroke:#181818;stroke-width:0.5;"/><path d="M258,82.1094 L258,92.1094 L268,92.1094 L258,82.1094 " fill="#FEFFDD" style="stroke:#181818;stroke-width:0.5;"/><text fill="#000000" font-family="sans-serif" font-size="13" lengthAdjust="spacing" textLength="224" x="29" y="100.6045">This will be extracted from a config file,</text><text fill="#000000" font-family="sans-serif" font-size="13" lengthAdjust="spacing" textLength="107" x="29" y="116.9561">the default value is</text><text fill="#000000" font-family="sans-serif" font-size="13" lengthAdjust="spacing" textLength="141" x="29" y="133.3076">20 rows and 10 columns</text></g><!--MD5=[a8675019f28a64f6eb99895fd6547001]
entity BoardTitle--><g id="elem_BoardTitle"><rect fill="#D8F5FF" height="41.2188" rx="2.5" ry="2.5" style="stroke:#1E90FF;stroke-width:0.5;" width="117" x="347.5" y="254.1094"/><text fill="#000000" font-family="sans-serif" font-size="14" font-style="italic" lengthAdjust="spacing" textLength="97" x="357.5" y="271.6426">«Value Object»</text><text fill="#000000" font-family="sans-serif" font-size="14" lengthAdjust="spacing" textLength="65" x="373.5" y="289.252">BoardTitle</text></g><!--MD5=[9f9d4e91b8481edb9f49aa2d1f5f1027]
entity BoardNRow--><g id="elem_BoardNRow"><rect fill="#D8F5FF" height="41.2188" rx="2.5" ry="2.5" style="stroke:#1E90FF;stroke-width:0.5;" width="117" x="347.5" y="406.1094"/><text fill="#000000" font-family="sans-serif" font-size="14" font-style="italic" lengthAdjust="spacing" textLength="97" x="357.5" y="423.6426">«Value Object»</text><text fill="#000000" font-family="sans-serif" font-size="14" lengthAdjust="spacing" textLength="74" x="369" y="441.252">BoardNRow</text></g><!--MD5=[55ceb23b82ca74ecbb65dbc42339dfd6]
entity BoardNCol--><g id="elem_BoardNCol"><rect fill="#D8F5FF" height="41.2188" rx="2.5" ry="2.5" style="stroke:#1E90FF;stroke-width:0.5;" width="117" x="347.5" y="330.1094"/><text fill="#000000" font-family="sans-serif" font-size="14" font-style="italic" lengthAdjust="spacing" textLength="97" x="357.5" y="347.6426">«Value Object»</text><text fill="#000000" font-family="sans-serif" font-size="14" lengthAdjust="spacing" textLength="68" x="372" y="365.252">BoardNCol</text></g><!--MD5=[f6e1ad01ccd02401798a8afcc7b3cb33]
entity BoardState--><g id="elem_BoardState"><rect fill="#D8F5FF" height="41.2188" rx="2.5" ry="2.5" style="stroke:#1E90FF;stroke-width:0.5;" width="117" x="347.5" y="482.1094"/><text fill="#000000" font-family="sans-serif" font-size="14" font-style="italic" lengthAdjust="spacing" textLength="97" x="357.5" y="499.6426">«Value Object»</text><text fill="#000000" font-family="sans-serif" font-size="14" lengthAdjust="spacing" textLength="71" x="370.5" y="517.252">BoardState</text></g><!--MD5=[aa1891fb95509a2de14f185575a272ad]
entity EntryTitle--><g id="elem_EntryTitle"><rect fill="#D8F5FF" height="41.2188" rx="2.5" ry="2.5" style="stroke:#1E90FF;stroke-width:0.5;" width="117" x="87" y="328.1094"/><text fill="#000000" font-family="sans-serif" font-size="14" font-style="italic" lengthAdjust="spacing" textLength="97" x="97" y="345.6426">«Value Object»</text><text fill="#000000" font-family="sans-serif" font-size="14" lengthAdjust="spacing" textLength="60" x="115.5" y="363.252">EntryTitle</text></g><!--MD5=[7a1852c04206e0e452ede09f9b885570]
entity EntryNumber--><g id="elem_EntryNumber"><rect fill="#D8F5FF" height="41.2188" rx="2.5" ry="2.5" style="stroke:#1E90FF;stroke-width:0.5;" width="117" x="87" y="404.1094"/><text fill="#000000" font-family="sans-serif" font-size="14" font-style="italic" lengthAdjust="spacing" textLength="97" x="97" y="421.6426">«Value Object»</text><text fill="#000000" font-family="sans-serif" font-size="14" lengthAdjust="spacing" textLength="82" x="104.5" y="439.252">EntryNumber</text></g><!--MD5=[d6c6c7307028e1ac971196a87be6fdf2]
entity BoardRow--><g id="elem_BoardRow"><rect fill="#D8F5FF" height="41.2188" rx="2.5" ry="2.5" style="stroke:#1E90FF;stroke-width:0.5;" width="117" x="87" y="176.1094"/><text fill="#000000" font-family="sans-serif" font-size="14" font-style="italic" lengthAdjust="spacing" textLength="97" x="97" y="193.6426">«Value Object»</text><text fill="#000000" font-family="sans-serif" font-size="14" lengthAdjust="spacing" textLength="65" x="113" y="211.252">BoardRow</text></g><!--MD5=[74fb29a5cfdd017ad91bcd197428baf5]
entity BoardCol--><g id="elem_BoardCol"><rect fill="#D8F5FF" height="41.2188" rx="2.5" ry="2.5" style="stroke:#1E90FF;stroke-width:0.5;" width="117" x="87" y="252.1094"/><text fill="#000000" font-family="sans-serif" font-size="14" font-style="italic" lengthAdjust="spacing" textLength="97" x="97" y="269.6426">«Value Object»</text><text fill="#000000" font-family="sans-serif" font-size="14" lengthAdjust="spacing" textLength="59" x="116" y="287.252">BoardCol</text></g><!--MD5=[b53913c682c6f0f281abfb91f118203a]
entity AccessLevel--><g id="elem_AccessLevel"><rect fill="#D8F5FF" height="41.2188" rx="2.5" ry="2.5" style="stroke:#1E90FF;stroke-width:0.5;" width="117" x="544" y="491.1094"/><text fill="#000000" font-family="sans-serif" font-size="14" font-style="italic" lengthAdjust="spacing" textLength="97" x="554" y="508.6426">«Value Object»</text><text fill="#000000" font-family="sans-serif" font-size="14" lengthAdjust="spacing" textLength="79" x="563" y="526.252">AccessLevel</text></g><!--MD5=[7b557b11deeead934a5ba7eb7a53dcfd]
entity BoardMaxRow--><g id="elem_BoardMaxRow"><rect fill="#D8F5FF" height="41.2188" rx="2.5" ry="2.5" style="stroke:#1E90FF;stroke-width:0.5;" width="117" x="544" y="160.1094"/><text fill="#000000" font-family="sans-serif" font-size="14" font-style="italic" lengthAdjust="spacing" textLength="97" x="554" y="177.6426">«Value Object»</text><text fill="#000000" font-family="sans-serif" font-size="14" lengthAdjust="spacing" textLength="90" x="557.5" y="195.252">BoardMaxRow</text></g><!--MD5=[192a475feb56746687f3d022445d6b86]
entity BoardMaxCol--><g id="elem_BoardMaxCol"><rect fill="#D8F5FF" height="41.2188" rx="2.5" ry="2.5" style="stroke:#1E90FF;stroke-width:0.5;" width="117" x="544" y="84.1094"/><text fill="#000000" font-family="sans-serif" font-size="14" font-style="italic" lengthAdjust="spacing" textLength="97" x="554" y="101.6426">«Value Object»</text><text fill="#000000" font-family="sans-serif" font-size="14" lengthAdjust="spacing" textLength="84" x="560.5" y="119.252">BoardMaxCol</text></g><!--MD5=[0ecb3dbff1a5e522662d05340a09a10a]
reverse link BoardTitle to SharedBoard--><g id="link_BoardTitle_SharedBoard"><path codeLine="46" d="M458.32,297.7494 C466.8,302.2794 475.33,307.2894 483,312.6094 C515.53,335.1494 548.18,366.2294 570.94,389.6094 " fill="none" id="BoardTitle-backto-SharedBoard" style="stroke:#1E90FF;stroke-width:1.0;"/><polygon fill="#1E90FF" points="453.61,295.2894,459.7144,303.0183,458.0355,297.6163,463.4375,295.9375,453.61,295.2894" style="stroke:#1E90FF;stroke-width:1.0;"/></g><!--MD5=[c3c9472d3810b1ccec7666821d49d304]
reverse link BoardNRow to SharedBoard--><g id="link_BoardNRow_SharedBoard"><path codeLine="47" d="M469.64,425.3194 C493.67,424.8294 520.94,424.2694 544.42,423.7794 " fill="none" id="BoardNRow-backto-SharedBoard" style="stroke:#1E90FF;stroke-width:1.0;"/><polygon fill="#1E90FF" points="464.57,425.4294,473.6482,429.2486,469.569,425.3294,473.4882,421.2502,464.57,425.4294" style="stroke:#1E90FF;stroke-width:1.0;"/></g><!--MD5=[9af8b1f21d4bec869612515d8b2bfae4]
reverse link BoardNCol to SharedBoard--><g id="link_BoardNCol_SharedBoard"><path codeLine="48" d="M467.33,372.9394 C491.85,382.0194 520.06,392.4594 544.26,401.4194 " fill="none" id="BoardNCol-backto-SharedBoard" style="stroke:#1E90FF;stroke-width:1.0;"/><polygon fill="#1E90FF" points="462.48,371.1494,469.5394,378.0171,467.171,372.8799,472.3082,370.5115,462.48,371.1494" style="stroke:#1E90FF;stroke-width:1.0;"/></g><!--MD5=[3ad40d79972dd153611c04078f7b62bd]
reverse link BoardState to SharedBoard--><g id="link_BoardState_SharedBoard"><path codeLine="49" d="M461.84,480.0494 C487.6,469.4594 518.31,456.8294 544.36,446.1094 " fill="none" id="BoardState-backto-SharedBoard" style="stroke:#1E90FF;stroke-width:1.0;"/><polygon fill="#1E90FF" points="457.09,482.0094,466.9351,482.2813,461.7134,480.1056,463.8891,474.8839,457.09,482.0094" style="stroke:#1E90FF;stroke-width:1.0;"/></g><!--MD5=[24879d4f4489c36ee640fffc7b72c5bb]
reverse link BoardEntry to SharedBoard--><g id="link_BoardEntry_SharedBoard"><path codeLine="58" d="M462.28,220.5594 C469.66,225.3594 476.81,230.7294 483,236.6094 C530.35,281.5494 567.19,349.1294 586.52,389.2594 " fill="none" id="BoardEntry-backto-SharedBoard" style="stroke:#1E90FF;stroke-width:1.0;"/><polygon fill="#1E90FF" points="457.66,217.6394,463.1324,225.828,461.8871,220.3099,467.4052,219.0646,457.66,217.6394" style="stroke:#1E90FF;stroke-width:1.0;"/></g><!--MD5=[adb2bebb814dae964de4de3b0d244cd8]
reverse link BoardRow to BoardEntry--><g id="link_BoardRow_BoardEntry"><path codeLine="59" d="M209.28,195.8794 C253.86,195.3594 312.93,194.6794 354.47,194.1994 " fill="none" id="BoardRow-backto-BoardEntry" style="stroke:#1E90FF;stroke-width:1.0;"/><polygon fill="#1E90FF" points="204.19,195.9394,213.2351,199.8363,209.1897,195.8822,213.1437,191.8368,204.19,195.9394" style="stroke:#1E90FF;stroke-width:1.0;"/></g><!--MD5=[3b977c8ae7a3e2312ae061580c139bf6]
reverse link BoardCol to BoardEntry--><g id="link_BoardCol_BoardEntry"><path codeLine="60" d="M209.01,253.5094 C253.62,239.8694 312.84,221.7694 354.47,209.0494 " fill="none" id="BoardCol-backto-BoardEntry" style="stroke:#1E90FF;stroke-width:1.0;"/><polygon fill="#1E90FF" points="204.19,254.9794,213.9649,256.1845,208.9732,253.523,211.6347,248.5313,204.19,254.9794" style="stroke:#1E90FF;stroke-width:1.0;"/></g><!--MD5=[a793234c33c485b56f5360fcb54a8e32]
reverse link EntryNumber to BoardEntry--><g id="link_EntryNumber_BoardEntry"><path codeLine="61" d="M209.05,416.0694 C229.85,410.5594 251.81,401.4994 268,386.6094 C320.96,337.8794 281.49,290.6694 329,236.6094 C336.11,228.5294 345.12,221.6194 354.43,215.8594 " fill="none" id="EntryNumber-backto-BoardEntry" style="stroke:#1E90FF;stroke-width:1.0;"/><polygon fill="#1E90FF" points="204.07,417.3194,213.7761,418.9903,208.9173,416.0933,211.8143,411.2345,204.07,417.3194" style="stroke:#1E90FF;stroke-width:1.0;"/></g><!--MD5=[ea9870ff1c9249364b499fe9aaa41a13]
reverse link EntryTitle to BoardEntry--><g id="link_EntryTitle_BoardEntry"><path codeLine="62" d="M209.29,336.4094 C229.17,330.6594 250.5,322.3794 268,310.6094 C303.36,286.8194 296.35,264.0094 329,236.6094 C336.66,230.1794 345.43,224.2094 354.22,218.8794 " fill="none" id="EntryTitle-backto-BoardEntry" style="stroke:#1E90FF;stroke-width:1.0;"/><polygon fill="#1E90FF" points="204.27,337.8194,214.0138,339.2542,209.0862,336.476,211.8644,331.5484,204.27,337.8194" style="stroke:#1E90FF;stroke-width:1.0;"/></g><!--MD5=[1e8c356dc4246845f0d004c8743bb3d6]
reverse link BoardPermission to SharedBoard--><g id="link_BoardPermission_SharedBoard"><path codeLine="69" d="M462.07,555.2394 C469.35,550.6994 476.52,545.7794 483,540.6094 C514.48,515.4894 515.34,501.8994 544,473.6094 C549.98,467.6994 556.5,461.6194 562.93,455.7894 " fill="none" id="BoardPermission-backto-SharedBoard" style="stroke:#1E90FF;stroke-width:1.0;"/><polygon fill="#1E90FF" points="457.53,558.0194,467.2976,556.7566,461.801,555.4196,463.138,549.9231,457.53,558.0194" style="stroke:#1E90FF;stroke-width:1.0;"/></g><!--MD5=[c3644def37154212d80ac212bf06a91c]
link BoardPermission to User--><g id="link_BoardPermission_User"><path codeLine="70" d="M475.51,576.9494 C531.93,571.0494 613.91,561.5394 685,549.6094 C712.51,544.9894 743.22,538.4094 766.89,533.0194 " fill="none" id="BoardPermission-to-User" style="stroke:#1E90FF;stroke-width:1.0;"/><polygon fill="#1E90FF" points="771.83,531.8894,762.1647,529.9969,766.9559,533.0043,763.9485,537.7955,771.83,531.8894" style="stroke:#1E90FF;stroke-width:1.0;"/></g><!--MD5=[a744dea7b6055fbf5c788fb867629fda]
link BoardPermission to AccessLevel--><g id="link_BoardPermission_AccessLevel"><path codeLine="71" d="M475.57,558.2294 C496.94,550.3194 520.33,541.6594 541.09,533.9694 " fill="none" id="BoardPermission-to-AccessLevel" style="stroke:#1E90FF;stroke-width:1.0;"/><polygon fill="#1E90FF" points="546.03,532.1394,536.2018,531.5015,541.339,533.8699,538.9706,539.0071,546.03,532.1394" style="stroke:#1E90FF;stroke-width:1.0;"/></g><!--MD5=[3b63e91edebd799d7d11b3713fab9329]
link BoardCreateConfig to BoardMaxRow--><g id="link_BoardCreateConfig_BoardMaxRow"><path codeLine="86" d="M475.03,133.1394 C496.82,141.3194 520.77,150.3094 541.92,158.2494 " fill="none" id="BoardCreateConfig-to-BoardMaxRow" style="stroke:#1E90FF;stroke-width:1.0;"/><polygon fill="#1E90FF" points="546.67,160.0294,539.6475,153.1239,541.9884,158.2738,536.8385,160.6146,546.67,160.0294" style="stroke:#1E90FF;stroke-width:1.0;"/></g><!--MD5=[9d99f576164fc022636c75b7ba19f2af]
link BoardCreateConfig to BoardMaxCol--><g id="link_BoardCreateConfig_BoardMaxCol"><path codeLine="87" d="M483.03,106.4394 C501.38,106.1494 520.79,105.8494 538.46,105.5794 " fill="none" id="BoardCreateConfig-to-BoardMaxCol" style="stroke:#1E90FF;stroke-width:1.0;"/><polygon fill="#1E90FF" points="543.89,105.4994,534.8228,101.6542,538.8907,105.5851,534.9599,109.6531,543.89,105.4994" style="stroke:#1E90FF;stroke-width:1.0;"/></g><!--MD5=[2d4712778279e0de6c584680cd000bd5]
link SharedBoard to User--><g id="link_SharedBoard_User"><path codeLine="90" d="M660.59,451.0094 C694.54,467.8994 736.75,488.9094 767.02,503.9694 " fill="none" id="SharedBoard-to-User" style="stroke:#1E90FF;stroke-width:1.0;"/><polygon fill="#1E90FF" points="771.77,506.3294,765.4993,498.7348,767.295,504.099,761.9307,505.8947,771.77,506.3294" style="stroke:#1E90FF;stroke-width:1.0;"/><text fill="#000000" font-family="sans-serif" font-size="13" lengthAdjust="spacing" textLength="34" x="694" y="467.1045">owner</text><text fill="#000000" font-family="sans-serif" font-size="13" lengthAdjust="spacing" textLength="7" x="757.0466" y="518.0521">1</text></g><!--MD5=[1e9cf2ee3984b96657b0b0562870b3eb]
@startuml

title Domain Model Excerpt

hide methods
left to right direction

skinparam classAttributeIconSize 0

skinparam class {
    LifeLineBorderColor DodgerBlue
    LifeLineBackgroundColor APPLICATION
    BackgroundColor #D8F5FF
    ArrowColor DodgerBlue
    BorderColor DodgerBlue
}

skinparam packageStyle rectangle

skinparam card {
    LifeLineBorderColor DodgerBlue
    LifeLineBackgroundColor APPLICATION
    BackgroundColor #D8F5FF
    ArrowColor DodgerBlue
    BorderColor DodgerBlue
}

package "User Aggregate" {
    entity User <<entity>><<root>>
}

package BoardAggregate {
    entity SharedBoard <<entity>><<root>>
    card BoardTitle <<Value Object>>{
    }
    card BoardNRow <<Value Object>>{
    }
    card BoardNCol <<Value Object>>{
    }
    card BoardState <<Value Object>>{
    }
    card EntryTitle <<Value Object>>{
    }
    card EntryNumber <<Value Object>>{
    }

    BoardTitle <- - SharedBoard
    BoardNRow <- - SharedBoard
    BoardNCol <- - SharedBoard
    BoardState <- - SharedBoard

    entity BoardEntry <<Entity>>{
    }
    card BoardRow <<Value Object>>{
    }
    card BoardCol <<Value Object>>{
    }

    BoardEntry <- - SharedBoard
    BoardRow <- - BoardEntry
    BoardCol <- - BoardEntry
    EntryNumber <- - BoardEntry
    EntryTitle <- - BoardEntry


    entity BoardPermission <<Entity>>
    card AccessLevel <<Value Object>>{
    }

    BoardPermission <- - SharedBoard
    BoardPermission - -> User
    BoardPermission - -> AccessLevel

    class BoardCreateConfig <<Util>>

    note left of BoardCreateConfig
        This will be extracted from a config file,
        the default value is
        20 rows and 10 columns
    end note

    card BoardMaxRow <<Value Object>>{
    }
    card BoardMaxCol <<Value Object>>{
    }

    BoardCreateConfig - -> BoardMaxRow
    BoardCreateConfig - -> BoardMaxCol
}

SharedBoard - -> "1" User :owner

@enduml

PlantUML version 1.2022.7(Mon Aug 22 18:01:30 BST 2022)
(GPL source distribution)
Java Runtime: Java(TM) SE Runtime Environment
JVM: Java HotSpot(TM) 64-Bit Server VM
Default Encoding: Cp1252
Language: pt
Country: PT
--></g></svg>