<?xml version="1.0" encoding="UTF-8" standalone="no"?><svg xmlns="http://www.w3.org/2000/svg" xmlns:xlink="http://www.w3.org/1999/xlink" contentStyleType="text/css" height="1053px" preserveAspectRatio="none" style="width:740px;height:1053px;background:#FFFFFF;" version="1.1" viewBox="0 0 740 1053" width="740px" zoomAndPan="magnify"><defs/><g><rect fill="none" height="27.6094" id="_title" style="stroke:none;stroke-width:1.0;" width="168" x="279" y="5"/><text fill="#000000" font-family="sans-serif" font-size="14" font-weight="bold" lengthAdjust="spacing" textLength="158" x="284" y="24.5332">Domain Model Excerpt</text><!--MD5=[d51cf5418a28509a3866ac2d3c781727]
cluster User Aggregate--><g id="cluster_User Aggregate"><rect fill="none" height="118" rx="2.5" ry="2.5" style="stroke:#000000;stroke-width:1.5;" width="126" x="597" y="276.6094"/><text fill="#000000" font-family="sans-serif" font-size="14" font-weight="bold" lengthAdjust="spacing" textLength="110" x="605" y="293.1426">User Aggregate</text></g><!--MD5=[dbf828d9c2935ed63f38166e70ff4f2f]
cluster BoardAggregate--><g id="cluster_BoardAggregate"><rect fill="none" height="580" rx="2.5" ry="2.5" style="stroke:#000000;stroke-width:1.5;" width="727" x="7" y="467.6094"/><text fill="#000000" font-family="sans-serif" font-size="14" font-weight="bold" lengthAdjust="spacing" textLength="115" x="313" y="484.1426">BoardAggregate</text></g><!--MD5=[005f66c1b2f2bfc4a5ff6f81af825c32]
cluster PostItAggregate--><g id="cluster_PostItAggregate"><rect fill="none" height="398" rx="2.5" ry="2.5" style="stroke:#000000;stroke-width:1.5;" width="406" x="66.5" y="45.6094"/><text fill="#000000" font-family="sans-serif" font-size="14" font-weight="bold" lengthAdjust="spacing" textLength="113" x="213" y="62.1426">PostItAggregate</text></g><!--MD5=[3fd616f346a44cd59a91eb10b19e157c]
class User--><g id="elem_User"><rect codeLine="28" fill="#D8F5FF" height="65.7969" id="User" rx="2.5" ry="2.5" style="stroke:#1E90FF;stroke-width:0.5;" width="71" x="624" y="312.6094"/><ellipse cx="639" cy="341.5078" fill="#ADD1B2" rx="11" ry="11" style="stroke:#181818;stroke-width:1.0;"/><path d="M637.8594,342.3047 L637.8594,344.8047 L642.1875,344.8047 L642.1875,343.8828 Q642.1875,343.2734 642.4219,343.0078 Q642.6719,342.7422 643.0469,342.7422 Q643.4219,342.7422 643.6563,343.0078 Q643.8906,343.2734 643.8906,343.8828 L643.8906,346.5078 L635.8906,346.5078 Q635.2656,346.5078 635,346.2734 Q634.75,346.0391 634.75,345.6484 Q634.75,345.2734 635.0156,345.0391 Q635.2813,344.8047 635.8906,344.8047 L636.1563,344.8047 L636.1563,338.1484 L635.8906,338.1484 Q635.2656,338.1484 635,337.9141 Q634.75,337.6797 634.75,337.2891 Q634.75,336.9141 635,336.6797 Q635.2656,336.4453 635.8906,336.4453 L643.5156,336.4453 L643.5156,339.0391 Q643.5156,339.6484 643.2813,339.9141 Q643.0625,340.1641 642.6719,340.1641 Q642.2969,340.1641 642.0625,339.9141 Q641.8281,339.6484 641.8281,339.0391 L641.8281,338.1484 L637.8594,338.1484 L637.8594,340.6016 L639.3438,340.6016 Q639.3438,339.9453 639.4688,339.7578 Q639.7344,339.3516 640.2031,339.3516 Q640.5781,339.3516 640.8125,339.6172 Q641.0469,339.8672 641.0469,340.4766 L641.0469,342.4453 Q641.0469,342.9922 640.9219,343.1797 Q640.6563,343.5703 640.2031,343.5703 Q639.7344,343.5703 639.4688,343.1641 Q639.3438,342.9766 639.3438,342.3047 L637.8594,342.3047 Z " fill="#000000"/><text fill="#000000" font-family="sans-serif" font-size="12" font-style="italic" lengthAdjust="spacing" textLength="43" x="651" y="330.0664">«entity»</text><text fill="#000000" font-family="sans-serif" font-size="12" font-style="italic" lengthAdjust="spacing" textLength="35" x="655" y="345.1602">«root»</text><text fill="#000000" font-family="sans-serif" font-size="14" lengthAdjust="spacing" textLength="29" x="658" y="362.3301">User</text><line style="stroke:#1E90FF;stroke-width:0.5;" x1="625" x2="694" y1="370.4063" y2="370.4063"/></g><!--MD5=[3762909e135fb728396985e200594027]
class SharedBoard--><g id="elem_SharedBoard"><rect codeLine="32" fill="#D8F5FF" height="65.7969" id="SharedBoard" rx="2.5" ry="2.5" style="stroke:#1E90FF;stroke-width:0.5;" width="116" x="601.5" y="739.6094"/><ellipse cx="616.5" cy="768.5078" fill="#ADD1B2" rx="11" ry="11" style="stroke:#181818;stroke-width:1.0;"/><path d="M615.3594,769.3047 L615.3594,771.8047 L619.6875,771.8047 L619.6875,770.8828 Q619.6875,770.2734 619.9219,770.0078 Q620.1719,769.7422 620.5469,769.7422 Q620.9219,769.7422 621.1563,770.0078 Q621.3906,770.2734 621.3906,770.8828 L621.3906,773.5078 L613.3906,773.5078 Q612.7656,773.5078 612.5,773.2734 Q612.25,773.0391 612.25,772.6484 Q612.25,772.2734 612.5156,772.0391 Q612.7813,771.8047 613.3906,771.8047 L613.6563,771.8047 L613.6563,765.1484 L613.3906,765.1484 Q612.7656,765.1484 612.5,764.9141 Q612.25,764.6797 612.25,764.2891 Q612.25,763.9141 612.5,763.6797 Q612.7656,763.4453 613.3906,763.4453 L621.0156,763.4453 L621.0156,766.0391 Q621.0156,766.6484 620.7813,766.9141 Q620.5625,767.1641 620.1719,767.1641 Q619.7969,767.1641 619.5625,766.9141 Q619.3281,766.6484 619.3281,766.0391 L619.3281,765.1484 L615.3594,765.1484 L615.3594,767.6016 L616.8438,767.6016 Q616.8438,766.9453 616.9688,766.7578 Q617.2344,766.3516 617.7031,766.3516 Q618.0781,766.3516 618.3125,766.6172 Q618.5469,766.8672 618.5469,767.4766 L618.5469,769.4453 Q618.5469,769.9922 618.4219,770.1797 Q618.1563,770.5703 617.7031,770.5703 Q617.2344,770.5703 616.9688,770.1641 Q616.8438,769.9766 616.8438,769.3047 L615.3594,769.3047 Z " fill="#000000"/><text fill="#000000" font-family="sans-serif" font-size="12" font-style="italic" lengthAdjust="spacing" textLength="43" x="651" y="757.0664">«entity»</text><text fill="#000000" font-family="sans-serif" font-size="12" font-style="italic" lengthAdjust="spacing" textLength="35" x="655" y="772.1602">«root»</text><text fill="#000000" font-family="sans-serif" font-size="14" lengthAdjust="spacing" textLength="84" x="630.5" y="789.3301">SharedBoard</text><line style="stroke:#1E90FF;stroke-width:0.5;" x1="602.5" x2="716.5" y1="797.4063" y2="797.4063"/></g><!--MD5=[5c4de02ddbe1ee1edb0978671de795b0]
class BoardEntry--><g id="elem_BoardEntry"><rect codeLine="51" fill="#D8F5FF" height="50.7031" id="BoardEntry" rx="2.5" ry="2.5" style="stroke:#1E90FF;stroke-width:0.5;" width="103" x="354.5" y="828.1094"/><ellipse cx="369.5" cy="849.4609" fill="#ADD1B2" rx="11" ry="11" style="stroke:#181818;stroke-width:1.0;"/><path d="M368.3594,850.2578 L368.3594,852.7578 L372.6875,852.7578 L372.6875,851.8359 Q372.6875,851.2266 372.9219,850.9609 Q373.1719,850.6953 373.5469,850.6953 Q373.9219,850.6953 374.1563,850.9609 Q374.3906,851.2266 374.3906,851.8359 L374.3906,854.4609 L366.3906,854.4609 Q365.7656,854.4609 365.5,854.2266 Q365.25,853.9922 365.25,853.6016 Q365.25,853.2266 365.5156,852.9922 Q365.7813,852.7578 366.3906,852.7578 L366.6563,852.7578 L366.6563,846.1016 L366.3906,846.1016 Q365.7656,846.1016 365.5,845.8672 Q365.25,845.6328 365.25,845.2422 Q365.25,844.8672 365.5,844.6328 Q365.7656,844.3984 366.3906,844.3984 L374.0156,844.3984 L374.0156,846.9922 Q374.0156,847.6016 373.7813,847.8672 Q373.5625,848.1172 373.1719,848.1172 Q372.7969,848.1172 372.5625,847.8672 Q372.3281,847.6016 372.3281,846.9922 L372.3281,846.1016 L368.3594,846.1016 L368.3594,848.5547 L369.8438,848.5547 Q369.8438,847.8984 369.9688,847.7109 Q370.2344,847.3047 370.7031,847.3047 Q371.0781,847.3047 371.3125,847.5703 Q371.5469,847.8203 371.5469,848.4297 L371.5469,850.3984 Q371.5469,850.9453 371.4219,851.1328 Q371.1563,851.5234 370.7031,851.5234 Q370.2344,851.5234 369.9688,851.1172 Q369.8438,850.9297 369.8438,850.2578 L368.3594,850.2578 Z " fill="#000000"/><text fill="#000000" font-family="sans-serif" font-size="12" font-style="italic" lengthAdjust="spacing" textLength="44" x="397" y="845.5664">«Entity»</text><text fill="#000000" font-family="sans-serif" font-size="14" lengthAdjust="spacing" textLength="71" x="383.5" y="862.7363">BoardEntry</text><line style="stroke:#1E90FF;stroke-width:0.5;" x1="355.5" x2="456.5" y1="870.8125" y2="870.8125"/></g><!--MD5=[5ceaf01f192645c7e66acc665801bfd5]
class BoardPermissions--><g id="elem_BoardPermissions"><rect codeLine="65" fill="#D8F5FF" height="50.7031" id="BoardPermissions" rx="2.5" ry="2.5" style="stroke:#1E90FF;stroke-width:0.5;" width="146" x="333" y="504.1094"/><ellipse cx="348" cy="525.4609" fill="#ADD1B2" rx="11" ry="11" style="stroke:#181818;stroke-width:1.0;"/><path d="M346.8594,526.2578 L346.8594,528.7578 L351.1875,528.7578 L351.1875,527.8359 Q351.1875,527.2266 351.4219,526.9609 Q351.6719,526.6953 352.0469,526.6953 Q352.4219,526.6953 352.6563,526.9609 Q352.8906,527.2266 352.8906,527.8359 L352.8906,530.4609 L344.8906,530.4609 Q344.2656,530.4609 344,530.2266 Q343.75,529.9922 343.75,529.6016 Q343.75,529.2266 344.0156,528.9922 Q344.2813,528.7578 344.8906,528.7578 L345.1563,528.7578 L345.1563,522.1016 L344.8906,522.1016 Q344.2656,522.1016 344,521.8672 Q343.75,521.6328 343.75,521.2422 Q343.75,520.8672 344,520.6328 Q344.2656,520.3984 344.8906,520.3984 L352.5156,520.3984 L352.5156,522.9922 Q352.5156,523.6016 352.2813,523.8672 Q352.0625,524.1172 351.6719,524.1172 Q351.2969,524.1172 351.0625,523.8672 Q350.8281,523.6016 350.8281,522.9922 L350.8281,522.1016 L346.8594,522.1016 L346.8594,524.5547 L348.3438,524.5547 Q348.3438,523.8984 348.4688,523.7109 Q348.7344,523.3047 349.2031,523.3047 Q349.5781,523.3047 349.8125,523.5703 Q350.0469,523.8203 350.0469,524.4297 L350.0469,526.3984 Q350.0469,526.9453 349.9219,527.1328 Q349.6563,527.5234 349.2031,527.5234 Q348.7344,527.5234 348.4688,527.1172 Q348.3438,526.9297 348.3438,526.2578 L346.8594,526.2578 Z " fill="#000000"/><text fill="#000000" font-family="sans-serif" font-size="12" font-style="italic" lengthAdjust="spacing" textLength="44" x="397" y="521.5664">«Entity»</text><text fill="#000000" font-family="sans-serif" font-size="14" lengthAdjust="spacing" textLength="114" x="362" y="538.7363">BoardPermissions</text><line style="stroke:#1E90FF;stroke-width:0.5;" x1="334" x2="478" y1="546.8125" y2="546.8125"/></g><!--MD5=[8952ff8baf90a9bdd278b5a81e93a76e]
class BoardCreateConfig--><g id="elem_BoardCreateConfig"><rect codeLine="73" fill="#D8F5FF" height="50.7031" id="BoardCreateConfig" rx="2.5" ry="2.5" style="stroke:#1E90FF;stroke-width:0.5;" width="154" x="329" y="590.1094"/><ellipse cx="344" cy="611.4609" fill="#ADD1B2" rx="11" ry="11" style="stroke:#181818;stroke-width:1.0;"/><path d="M346.7656,607.3359 Q346.9219,607.1172 347.1094,607.0078 Q347.2969,606.8984 347.5156,606.8984 Q347.8906,606.8984 348.125,607.1641 Q348.3594,607.4141 348.3594,608.0234 L348.3594,609.4766 Q348.3594,610.0859 348.125,610.3516 Q347.8906,610.6172 347.5156,610.6172 Q347.1719,610.6172 346.9688,610.4141 Q346.7656,610.2266 346.6563,609.7109 Q346.6094,609.3516 346.4219,609.1641 Q346.0938,608.7891 345.4844,608.5703 Q344.875,608.3516 344.25,608.3516 Q343.4844,608.3516 342.8438,608.6797 Q342.2188,609.0078 341.7188,609.7578 Q341.2344,610.5078 341.2344,611.5391 L341.2344,612.6328 Q341.2344,613.8672 342.125,614.6953 Q343.0156,615.5078 344.6094,615.5078 Q345.5469,615.5078 346.2031,615.2578 Q346.5938,615.1016 347.0156,614.6641 Q347.2813,614.3984 347.4219,614.3203 Q347.5781,614.2422 347.7813,614.2422 Q348.1094,614.2422 348.3594,614.5078 Q348.625,614.7578 348.625,615.1016 Q348.625,615.4453 348.2813,615.8516 Q347.7813,616.4297 346.9844,616.7578 Q345.9063,617.2109 344.6094,617.2109 Q343.0938,617.2109 341.8906,616.5859 Q340.9063,616.0859 340.2188,615.0234 Q339.5313,613.9453 339.5313,612.6641 L339.5313,611.5078 Q339.5313,610.1797 340.1406,609.0391 Q340.7656,607.8828 341.8594,607.2734 Q342.9531,606.6484 344.1875,606.6484 Q344.9219,606.6484 345.5625,606.8203 Q346.2188,606.9766 346.7656,607.3359 Z " fill="#000000"/><text fill="#000000" font-family="sans-serif" font-size="12" font-style="italic" lengthAdjust="spacing" textLength="32" x="403" y="607.5664">«Util»</text><text fill="#000000" font-family="sans-serif" font-size="14" lengthAdjust="spacing" textLength="122" x="358" y="624.7363">BoardCreateConfig</text><line style="stroke:#1E90FF;stroke-width:0.5;" x1="330" x2="482" y1="632.8125" y2="632.8125"/></g><g id="elem_GMN30"><path d="M23,586.1094 L23,645.1641 A0,0 0 0 0 23,645.1641 L268,645.1641 A0,0 0 0 0 268,645.1641 L268,619.6094 L328.9,615.6094 L268,611.6094 L268,596.1094 L258,586.1094 L23,586.1094 A0,0 0 0 0 23,586.1094 " fill="#FEFFDD" style="stroke:#181818;stroke-width:0.5;"/><path d="M258,586.1094 L258,596.1094 L268,596.1094 L258,586.1094 " fill="#FEFFDD" style="stroke:#181818;stroke-width:0.5;"/><text fill="#000000" font-family="sans-serif" font-size="13" lengthAdjust="spacing" textLength="224" x="29" y="604.6045">This will be extracted from a config file,</text><text fill="#000000" font-family="sans-serif" font-size="13" lengthAdjust="spacing" textLength="107" x="29" y="620.9561">the default value is</text><text fill="#000000" font-family="sans-serif" font-size="13" lengthAdjust="spacing" textLength="141" x="29" y="637.3076">20 rows and 10 columns</text></g><!--MD5=[a8675019f28a64f6eb99895fd6547001]
entity BoardTitle--><g id="elem_BoardTitle"><rect fill="#D8F5FF" height="41.2188" rx="2.5" ry="2.5" style="stroke:#1E90FF;stroke-width:0.5;" width="117" x="347.5" y="914.1094"/><text fill="#000000" font-family="sans-serif" font-size="14" font-style="italic" lengthAdjust="spacing" textLength="97" x="357.5" y="931.6426">«Value Object»</text><text fill="#000000" font-family="sans-serif" font-size="14" lengthAdjust="spacing" textLength="65" x="373.5" y="949.252">BoardTitle</text></g><!--MD5=[9f9d4e91b8481edb9f49aa2d1f5f1027]
entity BoardNRow--><g id="elem_BoardNRow"><rect fill="#D8F5FF" height="41.2188" rx="2.5" ry="2.5" style="stroke:#1E90FF;stroke-width:0.5;" width="117" x="347.5" y="990.1094"/><text fill="#000000" font-family="sans-serif" font-size="14" font-style="italic" lengthAdjust="spacing" textLength="97" x="357.5" y="1007.6426">«Value Object»</text><text fill="#000000" font-family="sans-serif" font-size="14" lengthAdjust="spacing" textLength="74" x="369" y="1025.252">BoardNRow</text></g><!--MD5=[55ceb23b82ca74ecbb65dbc42339dfd6]
entity BoardNCol--><g id="elem_BoardNCol"><rect fill="#D8F5FF" height="41.2188" rx="2.5" ry="2.5" style="stroke:#1E90FF;stroke-width:0.5;" width="117" x="347.5" y="676.1094"/><text fill="#000000" font-family="sans-serif" font-size="14" font-style="italic" lengthAdjust="spacing" textLength="97" x="357.5" y="693.6426">«Value Object»</text><text fill="#000000" font-family="sans-serif" font-size="14" lengthAdjust="spacing" textLength="68" x="372" y="711.252">BoardNCol</text></g><!--MD5=[f6e1ad01ccd02401798a8afcc7b3cb33]
entity BoardState--><g id="elem_BoardState"><rect fill="#D8F5FF" height="41.2188" rx="2.5" ry="2.5" style="stroke:#1E90FF;stroke-width:0.5;" width="117" x="347.5" y="752.1094"/><text fill="#000000" font-family="sans-serif" font-size="14" font-style="italic" lengthAdjust="spacing" textLength="97" x="357.5" y="769.6426">«Value Object»</text><text fill="#000000" font-family="sans-serif" font-size="14" lengthAdjust="spacing" textLength="71" x="370.5" y="787.252">BoardState</text></g><!--MD5=[aa1891fb95509a2de14f185575a272ad]
entity EntryTitle--><g id="elem_EntryTitle"><rect fill="#D8F5FF" height="41.2188" rx="2.5" ry="2.5" style="stroke:#1E90FF;stroke-width:0.5;" width="117" x="87" y="702.1094"/><text fill="#000000" font-family="sans-serif" font-size="14" font-style="italic" lengthAdjust="spacing" textLength="97" x="97" y="719.6426">«Value Object»</text><text fill="#000000" font-family="sans-serif" font-size="14" lengthAdjust="spacing" textLength="60" x="115.5" y="737.252">EntryTitle</text></g><!--MD5=[7a1852c04206e0e452ede09f9b885570]
entity EntryNumber--><g id="elem_EntryNumber"><rect fill="#D8F5FF" height="41.2188" rx="2.5" ry="2.5" style="stroke:#1E90FF;stroke-width:0.5;" width="117" x="87" y="778.1094"/><text fill="#000000" font-family="sans-serif" font-size="14" font-style="italic" lengthAdjust="spacing" textLength="97" x="97" y="795.6426">«Value Object»</text><text fill="#000000" font-family="sans-serif" font-size="14" lengthAdjust="spacing" textLength="82" x="104.5" y="813.252">EntryNumber</text></g><!--MD5=[d6c6c7307028e1ac971196a87be6fdf2]
entity BoardRow--><g id="elem_BoardRow"><rect fill="#D8F5FF" height="41.2188" rx="2.5" ry="2.5" style="stroke:#1E90FF;stroke-width:0.5;" width="117" x="87" y="854.1094"/><text fill="#000000" font-family="sans-serif" font-size="14" font-style="italic" lengthAdjust="spacing" textLength="97" x="97" y="871.6426">«Value Object»</text><text fill="#000000" font-family="sans-serif" font-size="14" lengthAdjust="spacing" textLength="65" x="113" y="889.252">BoardRow</text></g><!--MD5=[74fb29a5cfdd017ad91bcd197428baf5]
entity BoardCol--><g id="elem_BoardCol"><rect fill="#D8F5FF" height="41.2188" rx="2.5" ry="2.5" style="stroke:#1E90FF;stroke-width:0.5;" width="117" x="87" y="930.1094"/><text fill="#000000" font-family="sans-serif" font-size="14" font-style="italic" lengthAdjust="spacing" textLength="97" x="97" y="947.6426">«Value Object»</text><text fill="#000000" font-family="sans-serif" font-size="14" lengthAdjust="spacing" textLength="59" x="116" y="965.252">BoardCol</text></g><!--MD5=[b53913c682c6f0f281abfb91f118203a]
entity AccessLevel--><g id="elem_AccessLevel"><rect fill="#D8F5FF" height="41.2188" rx="2.5" ry="2.5" style="stroke:#1E90FF;stroke-width:0.5;" width="117" x="601" y="509.1094"/><text fill="#000000" font-family="sans-serif" font-size="14" font-style="italic" lengthAdjust="spacing" textLength="97" x="611" y="526.6426">«Value Object»</text><text fill="#000000" font-family="sans-serif" font-size="14" lengthAdjust="spacing" textLength="79" x="620" y="544.252">AccessLevel</text></g><!--MD5=[7b557b11deeead934a5ba7eb7a53dcfd]
entity BoardMaxRow--><g id="elem_BoardMaxRow"><rect fill="#D8F5FF" height="41.2188" rx="2.5" ry="2.5" style="stroke:#1E90FF;stroke-width:0.5;" width="117" x="601" y="586.1094"/><text fill="#000000" font-family="sans-serif" font-size="14" font-style="italic" lengthAdjust="spacing" textLength="97" x="611" y="603.6426">«Value Object»</text><text fill="#000000" font-family="sans-serif" font-size="14" lengthAdjust="spacing" textLength="90" x="614.5" y="621.252">BoardMaxRow</text></g><!--MD5=[192a475feb56746687f3d022445d6b86]
entity BoardMaxCol--><g id="elem_BoardMaxCol"><rect fill="#D8F5FF" height="41.2188" rx="2.5" ry="2.5" style="stroke:#1E90FF;stroke-width:0.5;" width="117" x="601" y="662.1094"/><text fill="#000000" font-family="sans-serif" font-size="14" font-style="italic" lengthAdjust="spacing" textLength="97" x="611" y="679.6426">«Value Object»</text><text fill="#000000" font-family="sans-serif" font-size="14" lengthAdjust="spacing" textLength="84" x="617.5" y="697.252">BoardMaxCol</text></g><!--MD5=[458552462bbdcbc92793825846cc11c0]
class PostIt--><g id="elem_PostIt"><rect codeLine="91" fill="#D8F5FF" height="65.7969" id="PostIt" rx="2.5" ry="2.5" style="stroke:#1E90FF;stroke-width:0.5;" width="71" x="370.5" y="250.6094"/><ellipse cx="385.5" cy="279.5078" fill="#ADD1B2" rx="11" ry="11" style="stroke:#181818;stroke-width:1.0;"/><path d="M384.3594,280.3047 L384.3594,282.8047 L388.6875,282.8047 L388.6875,281.8828 Q388.6875,281.2734 388.9219,281.0078 Q389.1719,280.7422 389.5469,280.7422 Q389.9219,280.7422 390.1563,281.0078 Q390.3906,281.2734 390.3906,281.8828 L390.3906,284.5078 L382.3906,284.5078 Q381.7656,284.5078 381.5,284.2734 Q381.25,284.0391 381.25,283.6484 Q381.25,283.2734 381.5156,283.0391 Q381.7813,282.8047 382.3906,282.8047 L382.6563,282.8047 L382.6563,276.1484 L382.3906,276.1484 Q381.7656,276.1484 381.5,275.9141 Q381.25,275.6797 381.25,275.2891 Q381.25,274.9141 381.5,274.6797 Q381.7656,274.4453 382.3906,274.4453 L390.0156,274.4453 L390.0156,277.0391 Q390.0156,277.6484 389.7813,277.9141 Q389.5625,278.1641 389.1719,278.1641 Q388.7969,278.1641 388.5625,277.9141 Q388.3281,277.6484 388.3281,277.0391 L388.3281,276.1484 L384.3594,276.1484 L384.3594,278.6016 L385.8438,278.6016 Q385.8438,277.9453 385.9688,277.7578 Q386.2344,277.3516 386.7031,277.3516 Q387.0781,277.3516 387.3125,277.6172 Q387.5469,277.8672 387.5469,278.4766 L387.5469,280.4453 Q387.5469,280.9922 387.4219,281.1797 Q387.1563,281.5703 386.7031,281.5703 Q386.2344,281.5703 385.9688,281.1641 Q385.8438,280.9766 385.8438,280.3047 L384.3594,280.3047 Z " fill="#000000"/><text fill="#000000" font-family="sans-serif" font-size="12" font-style="italic" lengthAdjust="spacing" textLength="43" x="397.5" y="268.0664">«entity»</text><text fill="#000000" font-family="sans-serif" font-size="12" font-style="italic" lengthAdjust="spacing" textLength="35" x="401.5" y="283.1602">«root»</text><text fill="#000000" font-family="sans-serif" font-size="14" lengthAdjust="spacing" textLength="35" x="401.5" y="300.3301">PostIt</text><line style="stroke:#1E90FF;stroke-width:0.5;" x1="371.5" x2="440.5" y1="308.4063" y2="308.4063"/></g><g id="elem_GMN44"><path d="M355.5,352.1094 L355.5,427.5156 L456.5,427.5156 L456.5,362.1094 L446.5,352.1094 L355.5,352.1094 " fill="#FEFFDD" style="stroke:#181818;stroke-width:0.5;"/><path d="M446.5,352.1094 L446.5,362.1094 L456.5,362.1094 L446.5,352.1094 " fill="#FEFFDD" style="stroke:#181818;stroke-width:1.0;"/><text fill="#000000" font-family="sans-serif" font-size="13" lengthAdjust="spacing" textLength="80" x="361.5" y="370.6045">0 - CREATED</text><text fill="#000000" font-family="sans-serif" font-size="13" lengthAdjust="spacing" textLength="80" x="361.5" y="386.9561">1 - UPDATED</text><text fill="#000000" font-family="sans-serif" font-size="13" lengthAdjust="spacing" textLength="67" x="361.5" y="403.3076">2 - MOVED</text><text fill="#000000" font-family="sans-serif" font-size="13" lengthAdjust="spacing" textLength="78" x="361.5" y="419.6592">3 - DELETED</text></g><!--MD5=[fb70c91b3706948b94c0c713ae639c98]
entity PostItContent--><g id="elem_PostItContent"><rect fill="#D8F5FF" height="41.2188" rx="2.5" ry="2.5" style="stroke:#1E90FF;stroke-width:0.5;" width="117" x="87" y="234.1094"/><text fill="#000000" font-family="sans-serif" font-size="14" font-style="italic" lengthAdjust="spacing" textLength="97" x="97" y="251.6426">«Value Object»</text><text fill="#000000" font-family="sans-serif" font-size="14" lengthAdjust="spacing" textLength="85" x="103" y="269.252">PostItContent</text></g><!--MD5=[27d7ca6770172189a5083a9bb78e99a8]
entity PostItRow--><g id="elem_PostItRow"><rect fill="#D8F5FF" height="41.2188" rx="2.5" ry="2.5" style="stroke:#1E90FF;stroke-width:0.5;" width="117" x="87" y="310.1094"/><text fill="#000000" font-family="sans-serif" font-size="14" font-style="italic" lengthAdjust="spacing" textLength="97" x="97" y="327.6426">«Value Object»</text><text fill="#000000" font-family="sans-serif" font-size="14" lengthAdjust="spacing" textLength="62" x="114.5" y="345.252">PostItRow</text></g><!--MD5=[06fd121deaa7d59830972aab9c3216ab]
entity PostItCol--><g id="elem_PostItCol"><rect fill="#D8F5FF" height="41.2188" rx="2.5" ry="2.5" style="stroke:#1E90FF;stroke-width:0.5;" width="117" x="87" y="82.1094"/><text fill="#000000" font-family="sans-serif" font-size="14" font-style="italic" lengthAdjust="spacing" textLength="97" x="97" y="99.6426">«Value Object»</text><text fill="#000000" font-family="sans-serif" font-size="14" lengthAdjust="spacing" textLength="56" x="117.5" y="117.252">PostItCol</text></g><!--MD5=[f7e62604717da1ce1e8cfbd92cfb77b7]
entity PostItTimeStamp--><g id="elem_PostItTimeStamp"><rect fill="#D8F5FF" height="41.2188" rx="2.5" ry="2.5" style="stroke:#1E90FF;stroke-width:0.5;" width="126" x="82.5" y="158.1094"/><text fill="#000000" font-family="sans-serif" font-size="14" font-style="italic" lengthAdjust="spacing" textLength="97" x="97" y="175.6426">«Value Object»</text><text fill="#000000" font-family="sans-serif" font-size="14" lengthAdjust="spacing" textLength="106" x="92.5" y="193.252">PostItTimeStamp</text></g><!--MD5=[eeae5db396553b613aad4829e41e0881]
entity PostItState--><g id="elem_PostItState"><rect fill="#D8F5FF" height="41.2188" rx="2.5" ry="2.5" style="stroke:#1E90FF;stroke-width:0.5;" width="117" x="87" y="386.1094"/><text fill="#000000" font-family="sans-serif" font-size="14" font-style="italic" lengthAdjust="spacing" textLength="97" x="97" y="403.6426">«Value Object»</text><text fill="#000000" font-family="sans-serif" font-size="14" lengthAdjust="spacing" textLength="68" x="111.5" y="421.252">PostItState</text></g><!--MD5=[0ecb3dbff1a5e522662d05340a09a10a]
reverse link BoardTitle to SharedBoard--><g id="link_BoardTitle_SharedBoard"><path codeLine="46" d="M455.53,911.7194 C464.79,906.9694 474.3,901.8194 483,896.6094 C529.89,868.5394 580.59,831.9894 615.38,805.8594 " fill="none" id="BoardTitle-backto-SharedBoard" style="stroke:#1E90FF;stroke-width:1.0;"/><polygon fill="#1E90FF" points="451.01,914.0194,460.8463,913.5218,455.4706,911.7605,457.232,906.3848,451.01,914.0194" style="stroke:#1E90FF;stroke-width:1.0;"/></g><!--MD5=[c3c9472d3810b1ccec7666821d49d304]
reverse link BoardNRow to SharedBoard--><g id="link_BoardNRow_SharedBoard"><path codeLine="47" d="M459.81,987.5694 C467.9,983.0994 475.9,978.0794 483,972.6094 C546.64,923.5094 604.85,848.7594 635.61,805.9094 " fill="none" id="BoardNRow-backto-SharedBoard" style="stroke:#1E90FF;stroke-width:1.0;"/><polygon fill="#1E90FF" points="455.31,989.9894,465.1304,989.2406,459.7114,987.6172,461.3348,982.1983,455.31,989.9894" style="stroke:#1E90FF;stroke-width:1.0;"/></g><!--MD5=[9af8b1f21d4bec869612515d8b2bfae4]
reverse link BoardNCol to SharedBoard--><g id="link_BoardNCol_SharedBoard"><path codeLine="48" d="M469.55,715.5094 C509.84,727.6894 561.83,743.3994 601.07,755.2594 " fill="none" id="BoardNCol-backto-SharedBoard" style="stroke:#1E90FF;stroke-width:1.0;"/><polygon fill="#1E90FF" points="464.7,714.0494,472.1623,720.477,469.4872,715.4927,474.4715,712.8176,464.7,714.0494" style="stroke:#1E90FF;stroke-width:1.0;"/></g><!--MD5=[3ad40d79972dd153611c04078f7b62bd]
reverse link BoardState to SharedBoard--><g id="link_BoardState_SharedBoard"><path codeLine="49" d="M470.04,772.6094 C510.27,772.6094 561.99,772.6094 601.07,772.6094 " fill="none" id="BoardState-backto-SharedBoard" style="stroke:#1E90FF;stroke-width:1.0;"/><polygon fill="#1E90FF" points="464.7,772.6094,473.7,776.6094,469.7,772.6094,473.7,768.6094,464.7,772.6094" style="stroke:#1E90FF;stroke-width:1.0;"/></g><!--MD5=[24879d4f4489c36ee640fffc7b72c5bb]
reverse link BoardEntry to SharedBoard--><g id="link_BoardEntry_SharedBoard"><path codeLine="58" d="M462.54,835.7194 C503.77,822.4394 559.81,804.3894 601.4,790.9994 " fill="none" id="BoardEntry-backto-SharedBoard" style="stroke:#1E90FF;stroke-width:1.0;"/><polygon fill="#1E90FF" points="457.59,837.3194,467.385,838.3477,462.3461,835.7769,464.917,830.7379,457.59,837.3194" style="stroke:#1E90FF;stroke-width:1.0;"/></g><!--MD5=[adb2bebb814dae964de4de3b0d244cd8]
reverse link BoardRow to BoardEntry--><g id="link_BoardRow_BoardEntry"><path codeLine="59" d="M209.28,869.5094 C253.86,865.8894 312.93,861.0894 354.47,857.7094 " fill="none" id="BoardRow-backto-BoardEntry" style="stroke:#1E90FF;stroke-width:1.0;"/><polygon fill="#1E90FF" points="204.19,869.9194,213.4903,873.1604,209.1728,869.5053,212.8279,865.1878,204.19,869.9194" style="stroke:#1E90FF;stroke-width:1.0;"/></g><!--MD5=[3b977c8ae7a3e2312ae061580c139bf6]
reverse link BoardCol to BoardEntry--><g id="link_BoardCol_BoardEntry"><path codeLine="60" d="M208.9,932.4494 C228,926.5294 248.99,919.6494 268,912.6094 C297.02,901.8594 328.8,888.2894 354.44,876.8694 " fill="none" id="BoardCol-backto-BoardEntry" style="stroke:#1E90FF;stroke-width:1.0;"/><polygon fill="#1E90FF" points="204.09,933.9394,213.8681,935.1178,208.8692,932.4699,211.517,927.471,204.09,933.9394" style="stroke:#1E90FF;stroke-width:1.0;"/></g><!--MD5=[a793234c33c485b56f5360fcb54a8e32]
reverse link EntryNumber to BoardEntry--><g id="link_EntryNumber_BoardEntry"><path codeLine="61" d="M209.28,811.9694 C253.86,821.4494 312.93,834.0194 354.47,842.8594 " fill="none" id="EntryNumber-backto-BoardEntry" style="stroke:#1E90FF;stroke-width:1.0;"/><polygon fill="#1E90FF" points="204.19,810.8794,212.1602,816.6652,209.0805,811.9202,213.8255,808.8405,204.19,810.8794" style="stroke:#1E90FF;stroke-width:1.0;"/></g><!--MD5=[ea9870ff1c9249364b499fe9aaa41a13]
reverse link EntryTitle to BoardEntry--><g id="link_EntryTitle_BoardEntry"><path codeLine="62" d="M209.19,737.2294 C228.67,743.0694 249.8,750.7894 268,760.6094 C298.85,777.2594 300.08,790.7894 329,810.6094 C337.75,816.6094 347.4,822.5394 356.8,827.9994 " fill="none" id="EntryTitle-backto-BoardEntry" style="stroke:#1E90FF;stroke-width:1.0;"/><polygon fill="#1E90FF" points="204.27,735.7794,211.7674,742.166,209.065,737.1964,214.0346,734.494,204.27,735.7794" style="stroke:#1E90FF;stroke-width:1.0;"/></g><!--MD5=[2253daccf82b95e7dd4a72a6efa5c077]
reverse link BoardPermissions to SharedBoard--><g id="link_BoardPermissions_SharedBoard"><path codeLine="69" d="M463.63,557.9294 C470.48,562.4094 477.12,567.3194 483,572.6094 C543.18,626.6894 532.39,662.8094 589,720.6094 C595.43,727.1794 602.74,733.5694 610.15,739.4894 " fill="none" id="BoardPermissions-backto-SharedBoard" style="stroke:#1E90FF;stroke-width:1.0;"/><polygon fill="#1E90FF" points="459.34,555.1894,464.7801,563.3995,463.5565,557.8765,469.0795,556.653,459.34,555.1894" style="stroke:#1E90FF;stroke-width:1.0;"/></g><!--MD5=[bb00095f6602823e573a95a9fbf3cf5d]
link BoardPermissions to User--><g id="link_BoardPermissions_User"><path codeLine="70" d="M469.09,504.0094 C498.1,490.5794 532.28,472.5394 560,451.6094 C586.05,431.9394 611.02,404.9394 629.31,383.1094 " fill="none" id="BoardPermissions-to-User" style="stroke:#1E90FF;stroke-width:1.0;"/><polygon fill="#1E90FF" points="632.64,379.0994,623.807,383.4559,629.4405,382.9417,629.9547,388.5751,632.64,379.0994" style="stroke:#1E90FF;stroke-width:1.0;"/></g><!--MD5=[2735eb265bf327b246ab03366f5c6f11]
link BoardPermissions to AccessLevel--><g id="link_BoardPermissions_AccessLevel"><path codeLine="71" d="M479.07,529.6094 C515.87,529.6094 560.22,529.6094 595.62,529.6094 " fill="none" id="BoardPermissions-to-AccessLevel" style="stroke:#1E90FF;stroke-width:1.0;"/><polygon fill="#1E90FF" points="600.78,529.6094,591.78,525.6094,595.78,529.6094,591.78,533.6094,600.78,529.6094" style="stroke:#1E90FF;stroke-width:1.0;"/></g><!--MD5=[3b63e91edebd799d7d11b3713fab9329]
link BoardCreateConfig to BoardMaxRow--><g id="link_BoardCreateConfig_BoardMaxRow"><path codeLine="86" d="M483.14,612.8894 C519.1,611.5994 561.5,610.0794 595.6,608.8594 " fill="none" id="BoardCreateConfig-to-BoardMaxRow" style="stroke:#1E90FF;stroke-width:1.0;"/><polygon fill="#1E90FF" points="601,608.6694,591.8682,604.9801,596.0029,608.8407,592.1423,612.9754,601,608.6694" style="stroke:#1E90FF;stroke-width:1.0;"/></g><!--MD5=[9d99f576164fc022636c75b7ba19f2af]
link BoardCreateConfig to BoardMaxCol--><g id="link_BoardCreateConfig_BoardMaxCol"><path codeLine="87" d="M483.14,635.8894 C519.24,645.5094 561.84,656.8594 596.02,665.9594 " fill="none" id="BoardCreateConfig-to-BoardMaxCol" style="stroke:#1E90FF;stroke-width:1.0;"/><polygon fill="#1E90FF" points="601,667.2894,593.3323,661.1083,596.1684,666.0028,591.2738,668.8389,601,667.2894" style="stroke:#1E90FF;stroke-width:1.0;"/></g><!--MD5=[f02afc38f2f2137c1b82abf5d86cb112]
link PostItState to GMN44--><g id="link_PostItState_GMN44"><path d="M204.19,402.8194 C249.57,399.8294 312.15,395.7194 355.33,392.8794 " fill="none" id="PostItState-GMN44" style="stroke:#1E90FF;stroke-width:1.0;stroke-dasharray:7.0,7.0;"/></g><!--MD5=[5a664a7e31bbc77feccc2814f979802d]
reverse link PostItContent to PostIt--><g id="link_PostItContent_PostIt"><path codeLine="111" d="M209.34,261.6594 C260.03,267.3494 329.42,275.1294 370.49,279.7394 " fill="none" id="PostItContent-backto-PostIt" style="stroke:#1E90FF;stroke-width:1.0;"/><polygon fill="#1E90FF" points="204.19,261.0794,212.6885,266.0568,209.1589,261.6362,213.5795,258.1066,204.19,261.0794" style="stroke:#1E90FF;stroke-width:1.0;"/></g><!--MD5=[964f9581d4216b47e0e468b82bef9d03]
reverse link PostItRow to PostIt--><g id="link_PostItRow_PostIt"><path codeLine="112" d="M209.34,319.1794 C260.03,309.9694 329.42,297.3494 370.49,289.8794 " fill="none" id="PostItRow-backto-PostIt" style="stroke:#1E90FF;stroke-width:1.0;"/><polygon fill="#1E90FF" points="204.19,320.1194,213.7556,322.4644,209.1112,319.235,212.3406,314.5906,204.19,320.1194" style="stroke:#1E90FF;stroke-width:1.0;"/></g><!--MD5=[a3dd99a50cb91984744f2dbb2b7eabcf]
reverse link PostItCol to PostIt--><g id="link_PostItCol_PostIt"><path codeLine="113" d="M209.08,115.6794 C228.84,121.4694 250.16,129.5494 268,140.6094 C314.75,169.5994 356.58,218.2094 381.38,250.5894 " fill="none" id="PostItCol-backto-PostIt" style="stroke:#1E90FF;stroke-width:1.0;"/><polygon fill="#1E90FF" points="204.09,114.2494,211.6498,120.562,208.8987,115.6192,213.8415,112.8681,204.09,114.2494" style="stroke:#1E90FF;stroke-width:1.0;"/></g><!--MD5=[91e1fd1c7620839c9980b6781d7ae24c]
reverse link PostItTimeStamp to PostIt--><g id="link_PostItTimeStamp_PostIt"><path codeLine="114" d="M213.63,197.6094 C231.49,203.1994 250.64,209.6994 268,216.6094 C303.79,230.8594 343.15,250.5594 370.46,264.8994 " fill="none" id="PostItTimeStamp-backto-PostIt" style="stroke:#1E90FF;stroke-width:1.0;"/><polygon fill="#1E90FF" points="208.63,196.0594,216.0339,202.5542,213.4039,197.5459,218.4123,194.9159,208.63,196.0594" style="stroke:#1E90FF;stroke-width:1.0;"/></g><!--MD5=[8904b837c3a9e6e0a75adf050464775c]
reverse link PostItState to PostIt--><g id="link_PostItState_PostIt"><path codeLine="115" d="M209.03,390.3494 C228.32,384.4594 249.38,377.1294 268,368.6094 C288.36,359.2894 336.79,328.4194 370.24,306.5694 " fill="none" id="PostItState-backto-PostIt" style="stroke:#1E90FF;stroke-width:1.0;"/><polygon fill="#1E90FF" points="204.17,391.8094,213.9405,393.0492,208.9583,390.37,211.6375,385.3879,204.17,391.8094" style="stroke:#1E90FF;stroke-width:1.0;"/></g><!--MD5=[25d9b082a28b8bc5109cd0b2cdb8138e]
link PostIt to User--><g id="link_PostIt_User"><path codeLine="118" d="M441.71,292.1694 C488.08,303.5994 570.08,323.8094 618.84,335.8294 " fill="none" id="PostIt-to-User" style="stroke:#1E90FF;stroke-width:1.0;"/><polygon fill="#1E90FF" points="623.75,337.0394,615.9762,330.9922,618.8968,335.8368,614.0521,338.7573,623.75,337.0394" style="stroke:#1E90FF;stroke-width:1.0;"/><text fill="#000000" font-family="sans-serif" font-size="13" lengthAdjust="spacing" textLength="34" x="519.5" y="308.1045">owner</text><text fill="#000000" font-family="sans-serif" font-size="13" lengthAdjust="spacing" textLength="7" x="609.0227" y="350.4769">1</text></g><!--MD5=[9ee10db1ecdc270861a94f9d0a68c56f]
link PostIt to SharedBoard--><g id="link_PostIt_SharedBoard"><path codeLine="119" d="M441.83,299.9294 C456.47,308.3894 472.51,320.0394 483,334.6094 C508.98,370.7094 563.95,683.8594 589,720.6094 C592.72,726.0694 597.2,731.1794 602.08,735.9094 " fill="none" id="PostIt-to-SharedBoard" style="stroke:#1E90FF;stroke-width:1.0;"/><polygon fill="#1E90FF" points="605.88,739.4494,602.0121,730.3918,602.2181,736.0449,596.565,736.2509,605.88,739.4494" style="stroke:#1E90FF;stroke-width:1.0;"/><text fill="#000000" font-family="sans-serif" font-size="13" lengthAdjust="spacing" textLength="45" x="514" y="432.1045">belongs</text><text fill="#000000" font-family="sans-serif" font-size="13" lengthAdjust="spacing" textLength="7" x="587.099" y="728.5124">1</text></g><!--MD5=[2e589b4200792ea841c56daf157ffb49]
link PostIt to PostIt--><g id="link_PostIt_PostIt"><path codeLine="120" d="M387.01,250.3694 C383.62,232.2294 389.96,215.6094 406,215.6094 C420.54,215.6094 427.1,229.2594 425.69,245.3194 " fill="none" id="PostIt-to-PostIt" style="stroke:#1E90FF;stroke-width:1.0;"/><polygon fill="#1E90FF" points="424.99,250.3694,430.1855,242.0024,425.6751,245.4165,422.2609,240.9062,424.99,250.3694" style="stroke:#1E90FF;stroke-width:1.0;"/><text fill="#000000" font-family="sans-serif" font-size="13" lengthAdjust="spacing" textLength="92" x="360" y="207.1045">keeps history of</text></g><!--MD5=[d0725e1d5407ba4eb70ad22577954bcc]
@startuml

title Domain Model Excerpt

hide methods
left to right direction

skinparam classAttributeIconSize 0

skinparam class {
    LifeLineBorderColor DodgerBlue
    LifeLineBackgroundColor APPLICATION
    BackgroundColor #D8F5FF
    ArrowColor DodgerBlue
    BorderColor DodgerBlue
}

skinparam packageStyle rectangle

skinparam card {
    LifeLineBorderColor DodgerBlue
    LifeLineBackgroundColor APPLICATION
    BackgroundColor #D8F5FF
    ArrowColor DodgerBlue
    BorderColor DodgerBlue
}

package "User Aggregate" {
    entity User <<entity>><<root>>
}

package BoardAggregate {
    entity SharedBoard <<entity>><<root>>
    card BoardTitle <<Value Object>>{
    }
    card BoardNRow <<Value Object>>{
    }
    card BoardNCol <<Value Object>>{
    }
    card BoardState <<Value Object>>{
    }
    card EntryTitle <<Value Object>>{
    }
    card EntryNumber <<Value Object>>{
    }

    BoardTitle <- - SharedBoard
    BoardNRow <- - SharedBoard
    BoardNCol <- - SharedBoard
    BoardState <- - SharedBoard

    entity BoardEntry <<Entity>>{
    }
    card BoardRow <<Value Object>>{
    }
    card BoardCol <<Value Object>>{
    }

    BoardEntry <- - SharedBoard
    BoardRow <- - BoardEntry
    BoardCol <- - BoardEntry
    EntryNumber <- - BoardEntry
    EntryTitle <- - BoardEntry


    entity BoardPermissions <<Entity>>
    card AccessLevel <<Value Object>>{
    }

    BoardPermissions <- - SharedBoard
    BoardPermissions - -> User
    BoardPermissions - -> AccessLevel

    class BoardCreateConfig <<Util>>

    note left of BoardCreateConfig
        This will be extracted from a config file,
        the default value is
        20 rows and 10 columns
    end note

    card BoardMaxRow <<Value Object>>{
    }
    card BoardMaxCol <<Value Object>>{
    }

    BoardCreateConfig - -> BoardMaxRow
    BoardCreateConfig - -> BoardMaxCol
}

package PostItAggregate {
    entity PostIt <<entity>><<root>>
    card PostItContent <<Value Object>>{
    }

    card PostItRow <<Value Object>>{
    }
    card PostItCol <<Value Object>>{
    }
    card PostItTimeStamp <<Value Object>>{
    }
    card PostItState <<Value Object>>{
    }

    note right of PostItState
        0 - CREATED
        1 - UPDATED
        2 - MOVED
        3 - DELETED
    end note

    PostItContent <- - PostIt
    PostItRow <- - PostIt
    PostItCol <- - PostIt
    PostItTimeStamp <- - PostIt
    PostItState <- - PostIt
}

PostIt - -> "1" User :owner
PostIt - -> "1" SharedBoard :belongs
PostIt - -> PostIt : keeps history of

@enduml

PlantUML version 1.2022.7(Mon Aug 22 18:01:30 BST 2022)
(GPL source distribution)
Java Runtime: Java(TM) SE Runtime Environment
JVM: Java HotSpot(TM) 64-Bit Server VM
Default Encoding: Cp1252
Language: pt
Country: PT
--></g></svg>